<svg width="18" height="18" viewBox="0 0 18 18" fill="none" xmlns="http://www.w3.org/2000/svg">
<path fill-rule="evenodd" clip-rule="evenodd" d="M14.7261 0H4.908V2.45452H14.7261V0ZM2.454 2.45504H4.90852V4.90956H2.45452V14.7271H6.13579V17.1816H2.454V14.7271H0V4.90904H2.454V2.45504ZM17.1821 6.13682V2.45504H14.7276V6.13604H8.58745L6.13731 6.13604L6.13292 6.13604V14.7269H8.58745V8.59056H14.7282V6.13682L17.1821 6.13682Z" fill="#24B500"/>
<path fill-rule="evenodd" clip-rule="evenodd" d="M14.7252 2.45605H4.90712V4.91005H2.45312V14.7282H6.13491V6.13784H14.7252V2.45605Z" fill="#DBFFD2"/>
<rect x="6.13281" y="4.90918" width="8.59084" height="1.22726" fill="#91EF7A"/>
<rect x="6.13281" y="6.13574" width="8.59084" height="1.22726" transform="rotate(90 6.13281 6.13574)" fill="#91EF7A"/>
</svg>
