<svg width="777" height="174" viewBox="0 0 777 174" fill="none" xmlns="http://www.w3.org/2000/svg">
<path fill-rule="evenodd" clip-rule="evenodd" d="M761.691 0.595736V12.0784H769.345V25.4746H769.347V31.2168H777V158.484H767.432V163.269H761.691V171.88L15.3121 171.88L15.3121 162.311H7.65625V158.484H1.91406V156.57H0V127.863H0.957031V121.165H1.91406V33.1302H0V22.6043H3.82812V12.0782H15.3121L15.3121 0.595703L761.691 0.595736Z" fill="#F1F1F1"/>
<rect x="15.3086" y="0.595703" width="746.379" height="3.82759" fill="#E5E1E6"/>
<rect x="15.3086" y="169.967" width="746.379" height="3.82759" fill="#E5E1E6"/>
<rect x="777" y="15.9062" width="142.578" height="3.82758" transform="rotate(90 777 15.9062)" fill="#E5E1E6"/>
<rect x="3.82812" y="15.9062" width="142.578" height="3.82758" transform="rotate(90 3.82812 15.9062)" fill="#E5E1E6"/>
<rect x="3.82812" y="12.0781" width="3.82759" height="3.82759" fill="#E5E1E6"/>
<rect x="7.65625" y="8.25098" width="3.82759" height="3.82759" fill="#E5E1E6"/>
<rect x="11.4844" y="4.42285" width="3.82759" height="3.82759" fill="#E5E1E6"/>
<rect x="765.516" y="4.42285" width="3.82759" height="3.82759" transform="rotate(90 765.516 4.42285)" fill="#E5E1E6"/>
<rect x="769.344" y="8.25098" width="3.82759" height="3.82759" transform="rotate(90 769.344 8.25098)" fill="#E5E1E6"/>
<rect x="773.172" y="12.0781" width="3.82759" height="3.82759" transform="rotate(90 773.172 12.0781)" fill="#E5E1E6"/>
<rect x="11.4844" y="169.967" width="3.82759" height="3.82759" transform="rotate(-90 11.4844 169.967)" fill="#E5E1E6"/>
<rect x="7.65625" y="166.139" width="3.82759" height="3.82759" transform="rotate(-90 7.65625 166.139)" fill="#E5E1E6"/>
<rect x="3.82812" y="162.312" width="3.82759" height="3.82759" transform="rotate(-90 3.82812 162.312)" fill="#E5E1E6"/>
<rect x="3.82812" y="15.9062" width="3.82759" height="138.75" fill="#D6D6D6"/>
<rect x="7.65625" y="12.0781" width="3.82759" height="3.82759" fill="#D6D6D6"/>
<rect x="11.4844" y="8.25098" width="3.82759" height="3.82759" fill="#D6D6D6"/>
<rect x="7.65234" y="154.656" width="3.82759" height="3.82759" transform="rotate(90 7.65234 154.656)" fill="#D6D6D6"/>
<rect x="11.4805" y="158.484" width="3.82759" height="3.82759" transform="rotate(90 11.4805 158.484)" fill="#D6D6D6"/>
<rect x="15.3086" y="162.312" width="3.82759" height="3.82759" transform="rotate(90 15.3086 162.312)" fill="#D6D6D6"/>
<rect x="761.691" y="166.139" width="3.82759" height="3.82759" fill="#E5E1E6"/>
<rect x="765.52" y="162.312" width="3.82759" height="3.82759" fill="#E5E1E6"/>
<rect x="769.348" y="158.483" width="3.82759" height="3.82759" fill="#E5E1E6"/>
<rect x="761.691" y="162.312" width="3.82759" height="3.82759" fill="#D6D6D6"/>
<rect x="765.52" y="158.483" width="3.82759" height="3.82759" fill="#D6D6D6"/>
<rect x="765.516" y="8.25098" width="3.82759" height="3.82759" transform="rotate(90 765.516 8.25098)" fill="#D6D6D6"/>
<rect x="769.344" y="12.0781" width="3.82759" height="3.82759" transform="rotate(90 769.344 12.0781)" fill="#D6D6D6"/>
<rect x="773.172" y="15.9062" width="3.82759" height="3.82759" transform="rotate(90 773.172 15.9062)" fill="#D6D6D6"/>
<rect x="773.172" y="19.7334" width="138.75" height="3.82759" transform="rotate(90 773.172 19.7334)" fill="#D6D6D6"/>
<rect x="15.3086" y="4.42285" width="746.379" height="3.82759" fill="#D6D6D6"/>
<rect x="15.3086" y="166.139" width="746.379" height="3.82759" fill="#D6D6D6"/>
</svg>
