<svg width="88" height="29" viewBox="0 0 88 29" fill="none" xmlns="http://www.w3.org/2000/svg">
<mask id="path-1-outside-1_3535_3484" maskUnits="userSpaceOnUse" x="0" y="0.595703" width="88" height="28" fill="black">
<rect fill="white" y="0.595703" width="88" height="28"/>
<path fill-rule="evenodd" clip-rule="evenodd" d="M82.8283 2.5957H5.16797V4.18066H3.58594V5.76562H2V23.1996H3.58594V24.7844H5.16797V26.3693H82.8283V24.7844H84.4161V23.1996H86V5.76562H84.4161V4.18066H82.8283V2.5957Z"/>
</mask>
<path fill-rule="evenodd" clip-rule="evenodd" d="M82.8283 2.5957H5.16797V4.18066H3.58594V5.76562H2V23.1996H3.58594V24.7844H5.16797V26.3693H82.8283V24.7844H84.4161V23.1996H86V5.76562H84.4161V4.18066H82.8283V2.5957Z" fill="#E5E1E6"/>
<path d="M5.16797 2.5957V0.595703H3.16797V2.5957H5.16797ZM82.8283 2.5957H84.8283V0.595703H82.8283V2.5957ZM5.16797 4.18066V6.18066H7.16797V4.18066H5.16797ZM3.58594 4.18066V2.18066H1.58594V4.18066H3.58594ZM3.58594 5.76562V7.76562H5.58594V5.76562H3.58594ZM2 5.76562V3.76562H0V5.76562H2ZM2 23.1996H0V25.1996H2V23.1996ZM3.58594 23.1996H5.58594V21.1996H3.58594V23.1996ZM3.58594 24.7844H1.58594V26.7844H3.58594V24.7844ZM5.16797 24.7844H7.16797V22.7844H5.16797V24.7844ZM5.16797 26.3693H3.16797V28.3693H5.16797V26.3693ZM82.8283 26.3693V28.3693H84.8283V26.3693H82.8283ZM82.8283 24.7844V22.7844H80.8283V24.7844H82.8283ZM84.4161 24.7844V26.7844H86.4161V24.7844H84.4161ZM84.4161 23.1996V21.1996H82.4161V23.1996H84.4161ZM86 23.1996V25.1996H88V23.1996H86ZM86 5.76562H88V3.76562H86V5.76562ZM84.4161 5.76562H82.4161V7.76562H84.4161V5.76562ZM84.4161 4.18066H86.4161V2.18066H84.4161V4.18066ZM82.8283 4.18066H80.8283V6.18066H82.8283V4.18066ZM5.16797 4.5957H82.8283V0.595703H5.16797V4.5957ZM7.16797 4.18066V2.5957H3.16797V4.18066H7.16797ZM5.16797 2.18066H3.58594V6.18066H5.16797V2.18066ZM1.58594 4.18066V5.76562H5.58594V4.18066H1.58594ZM3.58594 3.76562H2V7.76562H3.58594V3.76562ZM0 5.76562V23.1996H4V5.76562H0ZM2 25.1996H3.58594V21.1996H2V25.1996ZM1.58594 23.1996V24.7844H5.58594V23.1996H1.58594ZM3.58594 26.7844H5.16797V22.7844H3.58594V26.7844ZM7.16797 26.3693V24.7844H3.16797V26.3693H7.16797ZM82.8283 24.3693H5.16797V28.3693H82.8283V24.3693ZM80.8283 24.7844V26.3693H84.8283V24.7844H80.8283ZM82.8283 26.7844H84.4161V22.7844H82.8283V26.7844ZM86.4161 24.7844V23.1996H82.4161V24.7844H86.4161ZM84.4161 25.1996H86V21.1996H84.4161V25.1996ZM88 23.1996V5.76562H84V23.1996H88ZM86 3.76562H84.4161V7.76562H86V3.76562ZM86.4161 5.76562V4.18066H82.4161V5.76562H86.4161ZM84.4161 2.18066H82.8283V6.18066H84.4161V2.18066ZM80.8283 2.5957V4.18066H84.8283V2.5957H80.8283Z" fill="#A1A1A1" mask="url(#path-1-outside-1_3535_3484)"/>
</svg>
