<svg width="107" height="30" viewBox="0 0 107 30" fill="none" xmlns="http://www.w3.org/2000/svg">
<rect x="1.28906" y="5.75098" width="1.28889" height="1.28889" fill="#393939"/>
<rect x="105.043" y="25.7295" width="1.28889" height="2.57778" transform="rotate(-180 105.043 25.7295)" fill="#393939"/>
<rect x="2.57812" y="23.1514" width="2.57778" height="1.28889" transform="rotate(90 2.57812 23.1514)" fill="#393939"/>
<rect x="6.44531" y="21.8623" width="1.28889" height="1.28889" transform="rotate(90 6.44531 21.8623)" fill="#F0F0F0"/>
<rect x="99.8906" y="23.1514" width="1.28889" height="93.4444" transform="rotate(90 99.8906 23.1514)" fill="#F0F0F0"/>
<rect x="103.754" y="7.04004" width="2.57778" height="1.28889" transform="rotate(-90 103.754 7.04004)" fill="#393939"/>
<rect x="1.28906" y="4.46191" width="1.28889" height="1.28889" fill="#393939"/>
<rect x="103.754" y="27.0176" width="1.28889" height="1.28889" transform="rotate(-180 103.754 27.0176)" fill="#393939"/>
<rect x="3.86719" y="25.7295" width="1.28889" height="1.28889" transform="rotate(90 3.86719 25.7295)" fill="#393939"/>
<rect x="2.57812" y="3.17383" width="1.28889" height="1.28889" fill="#393939"/>
<rect x="5.15625" y="27.0176" width="1.28889" height="1.28889" transform="rotate(90 5.15625 27.0176)" fill="#393939"/>
<rect x="102.465" y="4.46191" width="1.28889" height="1.28889" transform="rotate(-90 102.465 4.46191)" fill="#393939"/>
<rect x="3.86719" y="1.88477" width="2.57778" height="1.28889" fill="#393939"/>
<rect x="102.465" y="28.3066" width="2.57778" height="1.28889" transform="rotate(-180 102.465 28.3066)" fill="#393939"/>
<path fill-rule="evenodd" clip-rule="evenodd" d="M2.57795 23.1504H1.28906V19.2837H2.57795L2.57795 23.1504ZM2.5783 24.4394H2.57812L2.57813 20.5728L3.86701 20.5728V21.8618L5.15608 21.8618V23.1509L6.44514 23.1509L6.44514 27.0175H3.86736V25.7285H2.5783L2.5783 24.4394ZM6.44601 28.3066L99.8904 28.3066V24.4399L6.44601 24.4399L6.44601 28.3066ZM102.469 25.7285V27.0175H99.8908L99.8908 23.1509L101.18 23.1509V21.8618H102.465V20.5729L103.754 20.5729V25.7285H102.469ZM103.754 23.1504H105.043V19.2837H103.754V23.1504Z" fill="#A8A8A8"/>
<rect x="6.44531" y="27.0176" width="1.28889" height="1.28889" transform="rotate(90 6.44531 27.0176)" fill="#393939"/>
<rect x="99.8906" y="3.17383" width="1.28889" height="2.57778" transform="rotate(-90 99.8906 3.17383)" fill="#393939"/>
<rect x="6.44531" y="0.595703" width="93.4444" height="1.28889" fill="#393939"/>
<rect x="6.44531" y="28.3066" width="93.4444" height="1.28889" fill="#393939"/>
<rect y="7.04004" width="1.28889" height="16.1111" fill="#393939"/>
<rect x="106.332" y="23.1514" width="1.28889" height="16.1111" transform="rotate(-180 106.332 23.1514)" fill="#393939"/>
<path fill-rule="evenodd" clip-rule="evenodd" d="M99.8923 3.17365L6.44785 3.17365V1.88477L99.8923 1.88477V3.17365ZM5.15913 4.46271L101.181 4.46272V3.17384L5.15913 3.17383V4.46271ZM3.87041 4.46289L3.87041 5.75098H2.57778L2.57778 7.03986L102.396 7.03987L1.28906 7.03986V17.9954L105.045 17.9954V7.03987H103.756V5.75099H102.47V4.4629L3.87041 4.46289ZM2.57778 17.9959L2.57778 19.2848L103.756 19.2848V17.9959L2.57778 17.9959ZM2.57778 20.5739L2.57778 19.285L103.756 19.285V20.5739L2.57778 20.5739ZM3.87041 20.5741L3.87041 21.8629H6.44785V23.151L99.8923 23.151V21.8629H102.47V20.574L3.87041 20.5741Z" fill="#E5E1E6"/>
<rect x="99.8906" y="1.88477" width="1.28889" height="93.4444" transform="rotate(90 99.8906 1.88477)" fill="#F0F0F0"/>
<rect x="3.86719" y="4.46191" width="1.28889" height="1.28889" transform="rotate(90 3.86719 4.46191)" fill="#F0F0F0"/>
<rect x="2.57812" y="7.04004" width="2.57778" height="1.28889" transform="rotate(90 2.57812 7.04004)" fill="#F0F0F0"/>
<rect x="5.15625" y="3.17383" width="1.28889" height="1.28889" transform="rotate(90 5.15625 3.17383)" fill="#F0F0F0"/>
<rect x="6.44531" y="3.17383" width="1.28889" height="1.28889" transform="rotate(90 6.44531 3.17383)" fill="#F0F0F0"/>
<rect x="102.465" y="3.17383" width="1.28889" height="2.57778" transform="rotate(90 102.465 3.17383)" fill="#F0F0F0"/>
<rect x="103.754" y="4.46191" width="1.28889" height="1.28889" transform="rotate(90 103.754 4.46191)" fill="#F0F0F0"/>
<rect x="105.043" y="7.04004" width="2.57778" height="1.28889" transform="rotate(90 105.043 7.04004)" fill="#F0F0F0"/>
<rect width="3.86667" height="2.57778" transform="matrix(-1.31134e-07 -1 -1 1.31134e-07 23.8438 28.3066)" fill="#CBCBCB"/>
<rect width="3.86667" height="2.57778" transform="matrix(-1.31134e-07 -1 -1 1.31134e-07 87 28.3066)" fill="#CBCBCB"/>
<rect width="3.86667" height="1.93333" transform="matrix(-1.31134e-07 -1 -1 1.31134e-07 20.6211 28.3066)" fill="#CBCBCB"/>
<rect width="3.86667" height="1.93333" transform="matrix(-1.31134e-07 -1 -1 1.31134e-07 83.7773 28.3066)" fill="#CBCBCB"/>
<rect width="3.86667" height="1.28889" transform="matrix(-1.31134e-07 -1 -1 1.31134e-07 18.043 28.3066)" fill="#CBCBCB"/>
<rect width="3.86667" height="1.28889" transform="matrix(-1.31134e-07 -1 -1 1.31134e-07 81.1992 28.3066)" fill="#CBCBCB"/>
<rect width="3.86667" height="0.644444" transform="matrix(-1.31134e-07 -1 -1 1.31134e-07 16.1094 28.3066)" fill="#CBCBCB"/>
<rect width="3.86667" height="0.644444" transform="matrix(-1.31134e-07 -1 -1 1.31134e-07 79.2656 28.3066)" fill="#CBCBCB"/>
<rect x="2.57812" y="17.9961" width="2.57778" height="1.28889" transform="rotate(90 2.57812 17.9961)" fill="#F0F0F0"/>
<rect x="5.15625" y="21.8623" width="1.28889" height="1.28889" transform="rotate(90 5.15625 21.8623)" fill="#F0F0F0"/>
<rect x="3.86719" y="20.5732" width="1.28889" height="1.28889" transform="rotate(90 3.86719 20.5732)" fill="#F0F0F0"/>
<rect x="102.465" y="23.1514" width="2.57778" height="1.28889" transform="rotate(-180 102.465 23.1514)" fill="#F0F0F0"/>
<rect x="103.754" y="21.8623" width="1.28889" height="1.28889" transform="rotate(-180 103.754 21.8623)" fill="#F0F0F0"/>
<rect x="105.043" y="19.2842" width="1.28889" height="2.57778" transform="rotate(-180 105.043 19.2842)" fill="#F0F0F0"/>
</svg>
