<svg width="228" height="16" viewBox="0 0 228 16" fill="none" xmlns="http://www.w3.org/2000/svg">
<path d="M0.26 14.74V13.48V10.96V8.44V7.18V5.92H1.52V4.66H2.78V3.4H4.04V2.14H5.3V0.879999H9.08V2.14H10.34V3.4H11.6V4.66H12.86V5.92H14.12V7.18V8.44V10.96V13.48V14.74V16H12.86H11.6V14.74V13.48V10.96H2.78V13.48V14.74V16H1.52H0.26V14.74ZM11.6 8.44V7.18H10.34V5.92H9.08V4.66H7.82V3.4H6.56V4.66H5.3V5.92H4.04V7.18H2.78V8.44H11.6ZM16.6467 3.4V2.14V0.879999H17.9067H19.1667H22.9467H27.9867V2.14H29.2467V3.4H30.5067V5.92V7.18H29.2467V8.44V9.7H30.5067V13.48H29.2467V14.74H27.9867V16H22.9467H19.1667H17.9067H16.6467V14.74V13.48V12.22V9.7V8.44V7.18V5.92V4.66V3.4ZM20.4267 13.48H22.9467H24.2067H25.4667H26.7267V12.22H27.9867V10.96H26.7267V9.7H19.1667V13.48H20.4267ZM22.9467 3.4H20.4267H19.1667V7.18H26.7267V5.92H27.9867V4.66H26.7267V3.4H25.4667H24.2067H22.9467ZM39.3334 3.4H38.0734H36.8134V4.66H35.5534V5.92V7.18V9.7V10.96V12.22H36.8134V13.48H38.0734H39.3334H40.5934H41.8534H43.1134V12.22H44.3734V10.96V9.7V5.92V4.66H43.1134V3.4H41.8534H40.5934H39.3334ZM46.8934 9.7V13.48H45.6334V14.74H44.3734V16H40.5934H39.3334H35.5534V14.74H34.2934V13.48H33.0334V10.96V9.7V8.44V7.18V3.4H34.2934V2.14H35.5534V0.879999H38.0734H39.3334H40.5934H44.3734V2.14H45.6334V3.4H46.8934V5.92V9.7ZM51.9402 0.879999V5.92V7.18V9.7V10.96V12.22H53.2002V13.48H54.4602H55.7202H56.9802H58.2402H59.5002V12.22H60.7602V10.96V0.879999H63.2802V10.96V13.48H62.0202V14.74H60.7602V16H56.9802H55.7202H51.9402V14.74H50.6802V13.48H49.4202V10.96V9.7V8.44V7.18V0.879999H51.9402ZM65.8069 3.4V2.14V0.879999H67.0669H68.3269H72.1069H78.4069V3.4H77.1469H75.8869H73.3669V9.7V16H70.8469V9.7V3.4H69.5869H65.8069ZM98.5803 3.4V2.14V0.879999H99.8403H101.1H104.88H111.18V3.4H109.92H108.66H106.14V9.7V16H103.62V9.7V3.4H102.36H98.5803ZM126.307 9.7H117.487V16H116.227H114.967V14.74V13.48V12.22V9.7V8.44V7.18V5.92V4.66V3.4V2.14V0.879999H116.227H117.487V7.18H126.307V0.879999H128.827V3.4V13.48V16H126.307V9.7ZM131.354 3.4V2.14V0.879999H132.614H133.874H137.654H145.214V3.4H143.954H142.694H140.174H138.914H137.654H135.134H133.874V7.18H142.694V9.7H133.874V13.48H135.134H137.654H138.914H140.174H142.694H143.954H145.214V16H137.654H133.874H132.614H131.354V14.74V13.48V12.22V9.7V8.44V7.18V5.92V4.66V3.4ZM170.427 3.4H169.167H167.907V4.66H166.647V5.92V7.18V9.7V10.96V12.22H167.907V13.48H169.167H170.427H171.687H172.947H174.207V12.22H175.467V10.96V9.7H170.427H169.167V7.18H170.427H175.467H177.987V10.96V12.22V13.48H176.727V14.74H175.467V16H171.687H170.427H166.647V14.74H165.387V13.48H164.127V10.96V9.7V8.44V7.18V3.4H165.387V2.14H166.647V0.879999H169.167H170.427H171.687H176.727V2.14H177.987V4.66H175.467V3.4H172.947H171.687H170.427ZM180.514 14.74V13.48V10.96V8.44V7.18V5.92H181.774V4.66H183.034V3.4H184.294V2.14H185.554V0.879999H189.334V2.14H190.594V3.4H191.854V4.66H193.114V5.92H194.374V7.18V8.44V10.96V13.48V14.74V16H193.114H191.854V14.74V13.48V10.96H183.034V13.48V14.74V16H181.774H180.514V14.74ZM191.854 8.44V7.18H190.594V5.92H189.334V4.66H188.074V3.4H186.814V4.66H185.554V5.92H184.294V7.18H183.034V8.44H191.854ZM199.421 9.7V16H198.161H196.901V14.74V13.48V12.22V9.7V8.44V7.18V5.92V4.66V3.4V2.14V0.879999H198.161H199.421V2.14H200.681V3.4H201.941V4.66H203.201V5.92H204.461V4.66H205.721V3.4H206.981V2.14H208.241V0.879999H210.761V2.14V3.4V13.48V16H208.241V9.7V5.92H206.981V7.18H205.721V8.44H204.461V9.7H203.201V8.44H201.941V7.18H200.681V5.92H199.421V9.7ZM213.287 3.4V2.14V0.879999H214.547H215.807H219.587H227.147V3.4H225.887H224.627H222.107H220.847H219.587H217.067H215.807V7.18H224.627V9.7H215.807V13.48H217.067H219.587H220.847H222.107H224.627H225.887H227.147V16H219.587H215.807H214.547H213.287V14.74V13.48V12.22V9.7V8.44V7.18V5.92V4.66V3.4Z" fill="#FF7C06"/>
<path d="M-1 18H228.407V19H-1V18Z" fill="#FF7C06"/>
</svg>
