<svg width="158" height="17" viewBox="0 0 158 17" fill="none" xmlns="http://www.w3.org/2000/svg">
<rect x="6" y="2" width="2" height="15" fill="#393939"/>
<rect y="6" width="2" height="2" fill="#393939"/>
<rect x="2" y="4" width="2" height="2" fill="#393939"/>
<rect x="4" y="2" width="2" height="2" fill="#393939"/>
<rect x="6" width="2" height="2" fill="#393939"/>
<rect x="8" y="2" width="2" height="2" fill="#393939"/>
<rect x="10" y="4" width="2" height="2" fill="#393939"/>
<rect x="12" y="6" width="2" height="2" fill="#393939"/>
<rect x="48" y="9.5" width="2" height="15" transform="rotate(-90 48 9.5)" fill="#393939"/>
<rect x="52" y="15.5" width="2" height="2" transform="rotate(-90 52 15.5)" fill="#393939"/>
<rect x="50" y="13.5" width="2" height="2" transform="rotate(-90 50 13.5)" fill="#393939"/>
<rect x="48" y="11.5" width="2" height="2" transform="rotate(-90 48 11.5)" fill="#393939"/>
<rect x="46" y="9.5" width="2" height="2" transform="rotate(-90 46 9.5)" fill="#393939"/>
<rect x="48" y="7.5" width="2" height="2" transform="rotate(-90 48 7.5)" fill="#393939"/>
<rect x="50" y="5.5" width="2" height="2" transform="rotate(-90 50 5.5)" fill="#393939"/>
<rect x="52" y="3.5" width="2" height="2" transform="rotate(-90 52 3.5)" fill="#393939"/>
<rect x="103" y="15" width="2" height="15" transform="rotate(-180 103 15)" fill="#393939"/>
<rect x="109" y="11" width="2" height="2" transform="rotate(-180 109 11)" fill="#393939"/>
<rect x="107" y="13" width="2" height="2" transform="rotate(-180 107 13)" fill="#393939"/>
<rect x="105" y="15" width="2" height="2" transform="rotate(-180 105 15)" fill="#393939"/>
<rect x="103" y="17" width="2" height="2" transform="rotate(-180 103 17)" fill="#393939"/>
<rect x="101" y="15" width="2" height="2" transform="rotate(-180 101 15)" fill="#393939"/>
<rect x="99" y="13" width="2" height="2" transform="rotate(-180 99 13)" fill="#393939"/>
<rect x="97" y="11" width="2" height="2" transform="rotate(-180 97 11)" fill="#393939"/>
<rect x="156" y="7.5" width="2" height="15" transform="rotate(90 156 7.5)" fill="#393939"/>
<rect x="152" y="1.5" width="2" height="2" transform="rotate(90 152 1.5)" fill="#393939"/>
<rect x="154" y="3.5" width="2" height="2" transform="rotate(90 154 3.5)" fill="#393939"/>
<rect x="156" y="5.5" width="2" height="2" transform="rotate(90 156 5.5)" fill="#393939"/>
<rect x="158" y="7.5" width="2" height="2" transform="rotate(90 158 7.5)" fill="#393939"/>
<rect x="156" y="9.5" width="2" height="2" transform="rotate(90 156 9.5)" fill="#393939"/>
<rect x="154" y="11.5" width="2" height="2" transform="rotate(90 154 11.5)" fill="#393939"/>
<rect x="152" y="13.5" width="2" height="2" transform="rotate(90 152 13.5)" fill="#393939"/>
</svg>
