<svg width="27" height="21" viewBox="0 0 27 21" fill="none" xmlns="http://www.w3.org/2000/svg">
<rect y="2" width="2" height="17" fill="#393939"/>
<rect x="25" y="2" width="2" height="17" fill="#393939"/>
<rect x="25" y="19" width="2" height="23" transform="rotate(90 25 19)" fill="#393939"/>
<rect x="25" width="2" height="23" transform="rotate(90 25 0)" fill="#393939"/>
<rect x="2" y="2" width="23" height="17" fill="white"/>
<path d="M17.0331 11.3581H17.8563V12.1813H18.6795H19.5027H20.326H21.1492V11.3581V10.5349H20.326H19.5027H17.0331V9.71166H16.2099V8.88845H15.3867V8.06525V7.24204H16.2099V6.41884H17.0331V5.59563H18.6795V3.94922H20.326V5.59563H21.9724V6.41884H22.7956V7.24204H23.6188V8.06525H21.9724H21.1492V7.24204H20.326H19.5027H18.6795H17.8563V8.06525V8.88845H18.6795H19.5027H20.326H21.9724V9.71166H22.7956V10.5349H23.6188V11.3581V12.1813H22.7956V13.0045H21.9724V13.8277H20.326V15.4741H18.6795V13.8277H17.0331V13.0045H16.2099V12.1813H15.3867V11.3581H17.0331Z" fill="#393939"/>
<rect x="8.05859" y="4.16699" width="2.33333" height="11.6667" fill="#FF7C06"/>
<rect x="9.70703" y="6.69922" width="2.33333" height="2.33333" fill="#FF7C06"/>
<rect x="11.3555" y="8.34863" width="2.33333" height="2.33333" fill="#FF7C06"/>
<rect x="6.40625" y="6.69922" width="2.33333" height="2.33333" fill="#FF7C06"/>
<rect x="4.75781" y="8.34961" width="2.33333" height="2.33333" fill="#FF7C06"/>
</svg>
