<svg width="238" height="45" viewBox="0 0 238 45" fill="none" xmlns="http://www.w3.org/2000/svg">
<path fill-rule="evenodd" clip-rule="evenodd" d="M83 3.99999L228 4H10V5.99998L230 6H6V7.99998L232 8H4L4 9.99998L232.067 10L2 9.99999V35H83L236 35V10H234V8.00002L232 8V6.00002L230 6V4.00002L228 4V2.00001L83 2V3.99999Z" fill="#FF9332"/>
<rect x="2" y="8" width="2" height="2" fill="#393939"/>
<rect x="236" y="39" width="2" height="4" transform="rotate(-180 236 39)" fill="#393939"/>
<rect x="4" y="35" width="4" height="2" transform="rotate(90 4 35)" fill="#393939"/>
<rect x="10" y="33" width="2" height="2" transform="rotate(90 10 33)" fill="#FFBD82"/>
<rect x="228" y="35" width="2.00001" height="218" transform="rotate(90 228 35)" fill="#FFBD82"/>
<rect x="234" y="10" width="4" height="2" transform="rotate(-90 234 10)" fill="#393939"/>
<rect x="2" y="6" width="2" height="2" fill="#393939"/>
<rect x="234" y="41" width="2" height="2" transform="rotate(-180 234 41)" fill="#393939"/>
<rect x="6" y="39" width="2" height="2" transform="rotate(90 6 39)" fill="#393939"/>
<rect x="4" y="4" width="2" height="2" fill="#393939"/>
<rect x="8" y="41" width="2" height="2" transform="rotate(90 8 41)" fill="#393939"/>
<rect x="232" y="6" width="2" height="2" transform="rotate(-90 232 6)" fill="#393939"/>
<rect x="6" y="2" width="4" height="2" fill="#393939"/>
<rect x="232" y="43" width="4" height="2" transform="rotate(-180 232 43)" fill="#393939"/>
<path fill-rule="evenodd" clip-rule="evenodd" d="M2 35H4L4 39H6L6 41H10V43L228 43V41H232V39H234V35H236V29H234V31L232 31V33L230 33V35H228V37L10 37V35H8V33L4 33L4 29H2V35Z" fill="#EE7000"/>
<rect x="10" y="41" width="2" height="2" transform="rotate(90 10 41)" fill="#393939"/>
<rect x="228" y="4" width="2" height="4" transform="rotate(-90 228 4)" fill="#393939"/>
<rect x="10" width="218" height="2" fill="#393939"/>
<rect x="10" y="43" width="218" height="2" fill="#393939"/>
<rect y="10" width="2" height="25" fill="#393939"/>
<rect x="238" y="35" width="2" height="25" transform="rotate(-180 238 35)" fill="#393939"/>
<rect x="228" y="2" width="2.00001" height="218" transform="rotate(90 228 2)" fill="#FFBD82"/>
<rect x="6" y="6" width="2" height="2" transform="rotate(90 6 6)" fill="#FFBD82"/>
<rect x="4" y="10" width="4" height="2" transform="rotate(90 4 10)" fill="#FFBD82"/>
<rect x="8" y="4" width="2" height="2" transform="rotate(90 8 4)" fill="#FFBD82"/>
<rect x="10" y="4" width="2" height="2" transform="rotate(90 10 4)" fill="#FFBD82"/>
<rect x="232" y="4" width="2" height="4" transform="rotate(90 232 4)" fill="#FFBD82"/>
<rect x="234" y="6" width="2" height="2" transform="rotate(90 234 6)" fill="#FFBD82"/>
<rect x="236" y="10" width="4" height="2" transform="rotate(90 236 10)" fill="#FFBD82"/>
<rect width="6" height="4" transform="matrix(-1.31134e-07 -1 -1 1.31134e-07 33 43)" fill="#FFDDBE"/>
<rect width="6" height="4" transform="matrix(-1.31134e-07 -1 -1 1.31134e-07 208 43)" fill="#FFDDBE"/>
<rect width="6" height="3" transform="matrix(-1.31134e-07 -1 -1 1.31134e-07 28 43)" fill="#FFDDBE"/>
<rect width="6" height="3" transform="matrix(-1.31134e-07 -1 -1 1.31134e-07 203 43)" fill="#FFDDBE"/>
<rect width="6" height="2" transform="matrix(-1.31134e-07 -1 -1 1.31134e-07 24 43)" fill="#FFDDBE"/>
<rect width="6" height="2" transform="matrix(-1.31134e-07 -1 -1 1.31134e-07 199 43)" fill="#FFDDBE"/>
<rect width="6" height="0.999999" transform="matrix(-1.31134e-07 -1 -1 1.31134e-07 21 43)" fill="#FFDDBE"/>
<rect width="6" height="0.999999" transform="matrix(-1.31134e-07 -1 -1 1.31134e-07 196 43)" fill="#FFDDBE"/>
<rect x="4" y="27" width="4" height="2" transform="rotate(90 4 27)" fill="#FFBD82"/>
<rect x="8" y="33" width="2" height="2" transform="rotate(90 8 33)" fill="#FFBD82"/>
<rect x="6" y="31" width="2" height="2" transform="rotate(90 6 31)" fill="#FFBD82"/>
<rect x="232" y="35" width="4" height="2" transform="rotate(-180 232 35)" fill="#FFBD82"/>
<rect x="234" y="33" width="2" height="2" transform="rotate(-180 234 33)" fill="#FFBD82"/>
<rect x="236" y="29" width="2" height="4" transform="rotate(-180 236 29)" fill="#FFBD82"/>
<path d="M15.008 16.92V15.912V14.904H16.016H17.024H20.048H24.08V15.912H25.088V16.92H26.096V18.936V19.944H25.088V20.952V21.96H26.096V24.984H25.088V25.992H24.08V27H20.048H17.024H16.016H15.008V25.992V24.984V23.976V21.96V20.952V19.944V18.936V17.928V16.92ZM18.032 24.984H20.048H21.056H22.064H23.072V23.976H24.08V22.968H23.072V21.96H17.024V24.984H18.032ZM20.048 16.92H18.032H17.024V19.944H23.072V18.936H24.08V17.928H23.072V16.92H22.064H21.056H20.048ZM28.1174 25.992V24.984V22.968V20.952V19.944V18.936H29.1254V17.928H30.1334V16.92H31.1414V15.912H32.1494V14.904H35.1734V15.912H36.1814V16.92H37.1894V17.928H38.1974V18.936H39.2054V19.944V20.952V22.968V24.984V25.992V27H38.1974H37.1894V25.992V24.984V22.968H30.1334V24.984V25.992V27H29.1254H28.1174V25.992ZM37.1894 20.952V19.944H36.1814V18.936H35.1734V17.928H34.1654V16.92H33.1574V17.928H32.1494V18.936H31.1414V19.944H30.1334V20.952H37.1894ZM46.2668 16.92H45.2588H44.2508V17.928H43.2428V18.936V19.944V21.96V22.968V23.976H44.2508V24.984H45.2588H46.2668H47.2748H48.2828H49.2908V23.976H50.2988V22.968H52.3148V24.984H51.3068V25.992H50.2988V27H47.2748H46.2668H43.2428V25.992H42.2348V24.984H41.2268V22.968V21.96V20.952V19.944V16.92H42.2348V15.912H43.2428V14.904H45.2588H46.2668H47.2748H50.2988V15.912H51.3068V16.92H52.3148V18.936H50.2988V17.928H49.2908V16.92H48.2828H47.2748H46.2668ZM65.4241 16.92H64.4161V17.928H63.4081V18.936H62.4001V19.944H61.3921V20.952V21.96H62.4001V22.968H63.4081V23.976H64.4161V24.984H65.4241V27H63.4081V25.992H62.4001V24.984H61.3921V23.976H60.3841V22.968H59.3761H58.3681V23.976H57.3601V24.984H56.3521V27H55.3441H54.3361V25.992V24.984V23.976V21.96V20.952V19.944V18.936V17.928V16.92V15.912V14.904H55.3441H56.3521V21.96H57.3601V20.952H58.3681V19.944H59.3761V18.936H60.3841V17.928H61.3921V16.92H62.4001V15.912H63.4081V14.904H64.4161H65.4241V15.912V16.92ZM80.5549 16.92V15.912V14.904H81.5629H82.5709H85.5949H90.6349V16.92H89.6269H88.6189H86.6029V21.96V27H84.5869V21.96V16.92H83.5789H80.5549ZM98.7043 16.92H97.6963H96.6883V17.928H95.6803V18.936V19.944V21.96V22.968V23.976H96.6883V24.984H97.6963H98.7043H99.7123H100.72H101.728V23.976H102.736V22.968V21.96V18.936V17.928H101.728V16.92H100.72H99.7123H98.7043ZM104.752 21.96V24.984H103.744V25.992H102.736V27H99.7123H98.7043H95.6803V25.992H94.6723V24.984H93.6643V22.968V21.96V20.952V19.944V16.92H94.6723V15.912H95.6803V14.904H97.6963H98.7043H99.7123H102.736V15.912H103.744V16.92H104.752V18.936V21.96ZM128.955 18.936V15.912V14.904H130.971V15.912V16.92V24.984V27H128.955V24.984H127.947V23.976H126.939V22.968H125.931V21.96H124.923V20.952H123.915V19.944H122.907V18.936H121.899V21.96V27H120.891H119.883V25.992V24.984V23.976V21.96V20.952V19.944V18.936V17.928V16.92V15.912V14.904H120.891H121.899V15.912H122.907V16.92H123.915V17.928H124.923V18.936H125.931V19.944H126.939V20.952H127.947V21.96H128.955V18.936ZM132.992 16.92V15.912V14.904H134H135.008H138.032H144.08V16.92H143.072H142.064H140.048H139.04H138.032H136.016H135.008V19.944H142.064V21.96H135.008V27H134H132.992V25.992V24.984V23.976V21.96V20.952V19.944V18.936V17.928V16.92ZM146.102 16.92V15.912V14.904H147.11H148.118H151.142H156.182V16.92H155.174H154.166H152.15V21.96V27H150.134V21.96V16.92H149.126H146.102ZM174.337 22.968V23.976H175.345V24.984H176.353H177.361H178.369H179.377H180.385V23.976H181.393V22.968H180.385V21.96H179.377H178.369H177.361H174.337V20.952H173.329V19.944H172.321V18.936V17.928V16.92H173.329V15.912H174.337V14.904H176.353H177.361H178.369H181.393V15.912H182.401V16.92H183.409V18.936H181.393V17.928H180.385V16.92H179.377H178.369H177.361H176.353H175.345V17.928H174.337V18.936H175.345V19.944H176.353H177.361H178.369H181.393V20.952H182.401V21.96H183.409V22.968V23.976V24.984H182.401V25.992H181.393V27H178.369H177.361H174.337V25.992H173.329V24.984H172.321V22.968H174.337ZM194.502 21.96H187.446V27H186.438H185.43V25.992V24.984V23.976V21.96V20.952V19.944V18.936V17.928V16.92V15.912V14.904H186.438H187.446V19.944H194.502V14.904H196.518V16.92V24.984V27H194.502V21.96ZM203.579 16.92H202.571H201.563V17.928H200.555V18.936V19.944V21.96V22.968V23.976H201.563V24.984H202.571H203.579H204.587H205.595H206.603V23.976H207.611V22.968V21.96V18.936V17.928H206.603V16.92H205.595H204.587H203.579ZM209.627 21.96V24.984H208.619V25.992H207.611V27H204.587H203.579H200.555V25.992H199.547V24.984H198.539V22.968V21.96V20.952V19.944V16.92H199.547V15.912H200.555V14.904H202.571H203.579H204.587H207.611V15.912H208.619V16.92H209.627V18.936V21.96ZM211.649 16.92V15.912V14.904H212.657H213.665H216.689H220.721V15.912H221.729V16.92H222.737V18.936V19.944V20.952H221.729V21.96H220.721V22.968H216.689H213.665V27H211.649V22.968V21.96V20.952V19.944V18.936V17.928V16.92ZM216.689 16.92H214.673H213.665V19.944V20.952H214.673H216.689H217.697H218.705H219.713V19.944H220.721V18.936V17.928H219.713V16.92H218.705H217.697H216.689Z" fill="#393939"/>
<path d="M15.008 14.92V13.912V12.904H16.016H17.024H20.048H24.08V13.912H25.088V14.92H26.096V16.936V17.944H25.088V18.952V19.96H26.096V22.984H25.088V23.992H24.08V25H20.048H17.024H16.016H15.008V23.992V22.984V21.976V19.96V18.952V17.944V16.936V15.928V14.92ZM18.032 22.984H20.048H21.056H22.064H23.072V21.976H24.08V20.968H23.072V19.96H17.024V22.984H18.032ZM20.048 14.92H18.032H17.024V17.944H23.072V16.936H24.08V15.928H23.072V14.92H22.064H21.056H20.048ZM28.1174 23.992V22.984V20.968V18.952V17.944V16.936H29.1254V15.928H30.1334V14.92H31.1414V13.912H32.1494V12.904H35.1734V13.912H36.1814V14.92H37.1894V15.928H38.1974V16.936H39.2054V17.944V18.952V20.968V22.984V23.992V25H38.1974H37.1894V23.992V22.984V20.968H30.1334V22.984V23.992V25H29.1254H28.1174V23.992ZM37.1894 18.952V17.944H36.1814V16.936H35.1734V15.928H34.1654V14.92H33.1574V15.928H32.1494V16.936H31.1414V17.944H30.1334V18.952H37.1894ZM46.2668 14.92H45.2588H44.2508V15.928H43.2428V16.936V17.944V19.96V20.968V21.976H44.2508V22.984H45.2588H46.2668H47.2748H48.2828H49.2908V21.976H50.2988V20.968H52.3148V22.984H51.3068V23.992H50.2988V25H47.2748H46.2668H43.2428V23.992H42.2348V22.984H41.2268V20.968V19.96V18.952V17.944V14.92H42.2348V13.912H43.2428V12.904H45.2588H46.2668H47.2748H50.2988V13.912H51.3068V14.92H52.3148V16.936H50.2988V15.928H49.2908V14.92H48.2828H47.2748H46.2668ZM65.4241 14.92H64.4161V15.928H63.4081V16.936H62.4001V17.944H61.3921V18.952V19.96H62.4001V20.968H63.4081V21.976H64.4161V22.984H65.4241V25H63.4081V23.992H62.4001V22.984H61.3921V21.976H60.3841V20.968H59.3761H58.3681V21.976H57.3601V22.984H56.3521V25H55.3441H54.3361V23.992V22.984V21.976V19.96V18.952V17.944V16.936V15.928V14.92V13.912V12.904H55.3441H56.3521V19.96H57.3601V18.952H58.3681V17.944H59.3761V16.936H60.3841V15.928H61.3921V14.92H62.4001V13.912H63.4081V12.904H64.4161H65.4241V13.912V14.92ZM80.5549 14.92V13.912V12.904H81.5629H82.5709H85.5949H90.6349V14.92H89.6269H88.6189H86.6029V19.96V25H84.5869V19.96V14.92H83.5789H80.5549ZM98.7043 14.92H97.6963H96.6883V15.928H95.6803V16.936V17.944V19.96V20.968V21.976H96.6883V22.984H97.6963H98.7043H99.7123H100.72H101.728V21.976H102.736V20.968V19.96V16.936V15.928H101.728V14.92H100.72H99.7123H98.7043ZM104.752 19.96V22.984H103.744V23.992H102.736V25H99.7123H98.7043H95.6803V23.992H94.6723V22.984H93.6643V20.968V19.96V18.952V17.944V14.92H94.6723V13.912H95.6803V12.904H97.6963H98.7043H99.7123H102.736V13.912H103.744V14.92H104.752V16.936V19.96ZM128.955 16.936V13.912V12.904H130.971V13.912V14.92V22.984V25H128.955V22.984H127.947V21.976H126.939V20.968H125.931V19.96H124.923V18.952H123.915V17.944H122.907V16.936H121.899V19.96V25H120.891H119.883V23.992V22.984V21.976V19.96V18.952V17.944V16.936V15.928V14.92V13.912V12.904H120.891H121.899V13.912H122.907V14.92H123.915V15.928H124.923V16.936H125.931V17.944H126.939V18.952H127.947V19.96H128.955V16.936ZM132.992 14.92V13.912V12.904H134H135.008H138.032H144.08V14.92H143.072H142.064H140.048H139.04H138.032H136.016H135.008V17.944H142.064V19.96H135.008V25H134H132.992V23.992V22.984V21.976V19.96V18.952V17.944V16.936V15.928V14.92ZM146.102 14.92V13.912V12.904H147.11H148.118H151.142H156.182V14.92H155.174H154.166H152.15V19.96V25H150.134V19.96V14.92H149.126H146.102ZM174.337 20.968V21.976H175.345V22.984H176.353H177.361H178.369H179.377H180.385V21.976H181.393V20.968H180.385V19.96H179.377H178.369H177.361H174.337V18.952H173.329V17.944H172.321V16.936V15.928V14.92H173.329V13.912H174.337V12.904H176.353H177.361H178.369H181.393V13.912H182.401V14.92H183.409V16.936H181.393V15.928H180.385V14.92H179.377H178.369H177.361H176.353H175.345V15.928H174.337V16.936H175.345V17.944H176.353H177.361H178.369H181.393V18.952H182.401V19.96H183.409V20.968V21.976V22.984H182.401V23.992H181.393V25H178.369H177.361H174.337V23.992H173.329V22.984H172.321V20.968H174.337ZM194.502 19.96H187.446V25H186.438H185.43V23.992V22.984V21.976V19.96V18.952V17.944V16.936V15.928V14.92V13.912V12.904H186.438H187.446V17.944H194.502V12.904H196.518V14.92V22.984V25H194.502V19.96ZM203.579 14.92H202.571H201.563V15.928H200.555V16.936V17.944V19.96V20.968V21.976H201.563V22.984H202.571H203.579H204.587H205.595H206.603V21.976H207.611V20.968V19.96V16.936V15.928H206.603V14.92H205.595H204.587H203.579ZM209.627 19.96V22.984H208.619V23.992H207.611V25H204.587H203.579H200.555V23.992H199.547V22.984H198.539V20.968V19.96V18.952V17.944V14.92H199.547V13.912H200.555V12.904H202.571H203.579H204.587H207.611V13.912H208.619V14.92H209.627V16.936V19.96ZM211.649 14.92V13.912V12.904H212.657H213.665H216.689H220.721V13.912H221.729V14.92H222.737V16.936V17.944V18.952H221.729V19.96H220.721V20.968H216.689H213.665V25H211.649V20.968V19.96V18.952V17.944V16.936V15.928V14.92ZM216.689 14.92H214.673H213.665V17.944V18.952H214.673H216.689H217.697H218.705H219.713V17.944H220.721V16.936V15.928H219.713V14.92H218.705H217.697H216.689Z" fill="white"/>
</svg>
