<svg width="178" height="60" viewBox="0 0 178 60" fill="none" xmlns="http://www.w3.org/2000/svg">
<rect x="2" y="17" width="174" height="37" fill="white"/>
<rect x="174" y="54" width="2" height="2" fill="black"/>
<rect width="2" height="2" transform="matrix(-1 0 0 1 4 54)" fill="black"/>
<rect width="2" height="2" transform="matrix(-1 0 0 1 4 52)" fill="#5A5A5A"/>
<rect width="2" height="2" transform="matrix(-1 0 0 1 4 50)" fill="#AFAFAF"/>
<rect width="2" height="2" transform="matrix(-1 0 0 1 174 54)" fill="#5A5A5A"/>
<rect width="2" height="2" transform="matrix(-1 0 0 1 176 52)" fill="#5A5A5A"/>
<rect width="2" height="2" transform="matrix(-1 0 0 1 174 52)" fill="#AFAFAF"/>
<rect width="2" height="2" transform="matrix(-1 0 0 1 176 50)" fill="#AFAFAF"/>
<rect width="2" height="2" transform="matrix(-1 0 0 1 6 54)" fill="#5A5A5A"/>
<rect width="2" height="2" transform="matrix(-1 0 0 1 6 52)" fill="#AFAFAF"/>
<rect width="166" height="2" transform="matrix(-1 0 0 1 172 56)" fill="#5A5A5A"/>
<rect width="166" height="2" transform="matrix(-1 0 0 1 172 54)" fill="#AFAFAF"/>
<rect x="174" y="15" width="2" height="2" fill="black"/>
<rect width="2" height="2" transform="matrix(-1 0 0 1 4 15)" fill="black"/>
<rect x="172" y="56" width="2" height="2" fill="black"/>
<rect width="2" height="2" transform="matrix(-1 0 0 1 6 56)" fill="black"/>
<rect x="6" y="58" width="166" height="2" fill="black"/>
<rect x="176" y="17" width="2" height="37" fill="black"/>
<rect width="2" height="37" transform="matrix(-1 0 0 1 2 17)" fill="black"/>
<path fill-rule="evenodd" clip-rule="evenodd" d="M170 0H8V2H6V4H4V47H6V49H8V51H170V49H172V47H174V4H172V2H170V0ZM170 2V4H172V47H170V49H8V47H6V4H8V2H170Z" fill="black"/>
<path fill-rule="evenodd" clip-rule="evenodd" d="M170 2H8V4H6V46H172V4H170V2Z" fill="#EA0000"/>
<rect x="6" y="4" width="2" height="2" fill="#FFC0C0"/>
<rect x="172" y="4" width="2" height="2" transform="rotate(90 172 4)" fill="#FFC0C0"/>
<rect x="172" y="41" width="2" height="2" transform="rotate(-180 172 41)" fill="#FFC0C0"/>
<rect x="6" y="41" width="2" height="2" transform="rotate(-90 6 41)" fill="#FFC0C0"/>
<rect x="6" y="47" width="6" height="2" transform="rotate(-90 6 47)" fill="#A50000"/>
<rect x="8" y="4" width="2" height="2" fill="#BB0000"/>
<rect x="172" y="6" width="2" height="2" transform="rotate(90 172 6)" fill="#BB0000"/>
<rect x="170" y="41" width="2" height="2" transform="rotate(-180 170 41)" fill="#BB0000"/>
<rect x="6" y="39" width="2" height="2" transform="rotate(-90 6 39)" fill="#BB0000"/>
<rect x="6" y="6" width="2" height="2" fill="#BB0000"/>
<rect x="170" y="4" width="2" height="2" transform="rotate(90 170 4)" fill="#BB0000"/>
<rect x="172" y="39" width="2" height="2" transform="rotate(-180 172 39)" fill="#BB0000"/>
<rect x="8" y="41" width="2" height="2" transform="rotate(-90 8 41)" fill="#BB0000"/>
<rect x="172" y="47" width="2" height="6" transform="rotate(-180 172 47)" fill="#A50000"/>
<rect x="170" y="49" width="162" height="5.99999" transform="rotate(-180 170 49)" fill="#A50000"/>
<rect x="8" y="2" width="162" height="2" fill="#FFC0C0"/>
<rect x="8" y="41" width="162" height="2" fill="#FFC0C0"/>
<rect x="16" y="49" width="6" height="4" transform="rotate(-90 16 49)" fill="#FFB1B1"/>
<rect width="6" height="4" transform="matrix(-1.31134e-07 -1 -1 1.31134e-07 158 49)" fill="#FFB1B1"/>
<rect x="21" y="49" width="6" height="3" transform="rotate(-90 21 49)" fill="#FFB1B1"/>
<rect width="6" height="3" transform="matrix(-1.31134e-07 -1 -1 1.31134e-07 153 49)" fill="#FFB1B1"/>
<rect x="25" y="49" width="6" height="2" transform="rotate(-90 25 49)" fill="#FFB1B1"/>
<rect width="6" height="2" transform="matrix(-1.31134e-07 -1 -1 1.31134e-07 149 49)" fill="#FFB1B1"/>
<rect x="28" y="49" width="6" height="0.999999" transform="rotate(-90 28 49)" fill="#FFB1B1"/>
<rect width="6" height="0.999999" transform="matrix(-1.31134e-07 -1 -1 1.31134e-07 146 49)" fill="#FFB1B1"/>
<path d="M33.26 19.4V18.14V16.88H34.52H35.78H39.56H44.6V18.14H45.86V19.4H47.12V21.92V23.18H45.86V24.44V25.7H47.12V29.48H45.86V30.74H44.6V32H39.56H35.78H34.52H33.26V30.74V29.48V28.22V25.7V24.44V23.18V21.92V20.66V19.4ZM37.04 29.48H39.56H40.82H42.08H43.34V28.22H44.6V26.96H43.34V25.7H35.78V29.48H37.04ZM39.56 19.4H37.04H35.78V23.18H43.34V21.92H44.6V20.66H43.34V19.4H42.08H40.82H39.56ZM49.6467 30.74V29.48V26.96V24.44V23.18V21.92H50.9067V20.66H52.1667V19.4H53.4267V18.14H54.6867V16.88H58.4667V18.14H59.7267V19.4H60.9867V20.66H62.2467V21.92H63.5067V23.18V24.44V26.96V29.48V30.74V32H62.2467H60.9867V30.74V29.48V26.96H52.1667V29.48V30.74V32H50.9067H49.6467V30.74ZM60.9867 24.44V23.18H59.7267V21.92H58.4667V20.66H57.2067V19.4H55.9467V20.66H54.6867V21.92H53.4267V23.18H52.1667V24.44H60.9867ZM77.3734 32H68.5534H67.2934H66.0334V30.74V29.48V28.22V25.7V24.44V23.18V21.92V20.66V19.4V18.14V16.88H67.2934H68.5534V29.48H77.3734V26.96H79.8934V29.48V32H77.3734ZM82.4202 30.74V29.48V26.96V24.44V23.18V21.92H83.6802V20.66H84.9402V19.4H86.2002V18.14H87.4602V16.88H91.2402V18.14H92.5002V19.4H93.7602V20.66H95.0202V21.92H96.2802V23.18V24.44V26.96V29.48V30.74V32H95.0202H93.7602V30.74V29.48V26.96H84.9402V29.48V30.74V32H83.6802H82.4202V30.74ZM93.7602 24.44V23.18H92.5002V21.92H91.2402V20.66H89.9802V19.4H88.7202V20.66H87.4602V21.92H86.2002V23.18H84.9402V24.44H93.7602ZM110.147 21.92V18.14V16.88H112.667V18.14V19.4V29.48V32H110.147V29.48H108.887V28.22H107.627V26.96H106.367V25.7H105.107V24.44H103.847V23.18H102.587V21.92H101.327V25.7V32H100.067H98.8069V30.74V29.48V28.22V25.7V24.44V23.18V21.92V20.66V19.4V18.14V16.88H100.067H101.327V18.14H102.587V19.4H103.847V20.66H105.107V21.92H106.367V23.18H107.627V24.44H108.887V25.7H110.147V21.92ZM121.494 19.4H120.234H118.974V20.66H117.714V21.92V23.18V25.7V26.96V28.22H118.974V29.48H120.234H121.494H122.754H124.014H125.274V28.22H126.534V26.96H129.054V29.48H127.794V30.74H126.534V32H122.754H121.494H117.714V30.74H116.454V29.48H115.194V26.96V25.7V24.44V23.18V19.4H116.454V18.14H117.714V16.88H120.234H121.494H122.754H126.534V18.14H127.794V19.4H129.054V21.92H126.534V20.66H125.274V19.4H124.014H122.754H121.494ZM131.58 19.4V18.14V16.88H132.84H134.1H137.88H145.44V19.4H144.18H142.92H140.4H139.14H137.88H135.36H134.1V23.18H142.92V25.7H134.1V29.48H135.36H137.88H139.14H140.4H142.92H144.18H145.44V32H137.88H134.1H132.84H131.58V30.74V29.48V28.22V25.7V24.44V23.18V21.92V20.66V19.4Z" fill="#393939"/>
<path d="M33.26 17.4V16.14V14.88H34.52H35.78H39.56H44.6V16.14H45.86V17.4H47.12V19.92V21.18H45.86V22.44V23.7H47.12V27.48H45.86V28.74H44.6V30H39.56H35.78H34.52H33.26V28.74V27.48V26.22V23.7V22.44V21.18V19.92V18.66V17.4ZM37.04 27.48H39.56H40.82H42.08H43.34V26.22H44.6V24.96H43.34V23.7H35.78V27.48H37.04ZM39.56 17.4H37.04H35.78V21.18H43.34V19.92H44.6V18.66H43.34V17.4H42.08H40.82H39.56ZM49.6467 28.74V27.48V24.96V22.44V21.18V19.92H50.9067V18.66H52.1667V17.4H53.4267V16.14H54.6867V14.88H58.4667V16.14H59.7267V17.4H60.9867V18.66H62.2467V19.92H63.5067V21.18V22.44V24.96V27.48V28.74V30H62.2467H60.9867V28.74V27.48V24.96H52.1667V27.48V28.74V30H50.9067H49.6467V28.74ZM60.9867 22.44V21.18H59.7267V19.92H58.4667V18.66H57.2067V17.4H55.9467V18.66H54.6867V19.92H53.4267V21.18H52.1667V22.44H60.9867ZM77.3734 30H68.5534H67.2934H66.0334V28.74V27.48V26.22V23.7V22.44V21.18V19.92V18.66V17.4V16.14V14.88H67.2934H68.5534V27.48H77.3734V24.96H79.8934V27.48V30H77.3734ZM82.4202 28.74V27.48V24.96V22.44V21.18V19.92H83.6802V18.66H84.9402V17.4H86.2002V16.14H87.4602V14.88H91.2402V16.14H92.5002V17.4H93.7602V18.66H95.0202V19.92H96.2802V21.18V22.44V24.96V27.48V28.74V30H95.0202H93.7602V28.74V27.48V24.96H84.9402V27.48V28.74V30H83.6802H82.4202V28.74ZM93.7602 22.44V21.18H92.5002V19.92H91.2402V18.66H89.9802V17.4H88.7202V18.66H87.4602V19.92H86.2002V21.18H84.9402V22.44H93.7602ZM110.147 19.92V16.14V14.88H112.667V16.14V17.4V27.48V30H110.147V27.48H108.887V26.22H107.627V24.96H106.367V23.7H105.107V22.44H103.847V21.18H102.587V19.92H101.327V23.7V30H100.067H98.8069V28.74V27.48V26.22V23.7V22.44V21.18V19.92V18.66V17.4V16.14V14.88H100.067H101.327V16.14H102.587V17.4H103.847V18.66H105.107V19.92H106.367V21.18H107.627V22.44H108.887V23.7H110.147V19.92ZM121.494 17.4H120.234H118.974V18.66H117.714V19.92V21.18V23.7V24.96V26.22H118.974V27.48H120.234H121.494H122.754H124.014H125.274V26.22H126.534V24.96H129.054V27.48H127.794V28.74H126.534V30H122.754H121.494H117.714V28.74H116.454V27.48H115.194V24.96V23.7V22.44V21.18V17.4H116.454V16.14H117.714V14.88H120.234H121.494H122.754H126.534V16.14H127.794V17.4H129.054V19.92H126.534V18.66H125.274V17.4H124.014H122.754H121.494ZM131.58 17.4V16.14V14.88H132.84H134.1H137.88H145.44V17.4H144.18H142.92H140.4H139.14H137.88H135.36H134.1V21.18H142.92V23.7H134.1V27.48H135.36H137.88H139.14H140.4H142.92H144.18H145.44V30H137.88H134.1H132.84H131.58V28.74V27.48V26.22V23.7V22.44V21.18V19.92V18.66V17.4Z" fill="white"/>
</svg>
