<svg width="238" height="45" viewBox="0 0 238 45" fill="none" xmlns="http://www.w3.org/2000/svg">
<path fill-rule="evenodd" clip-rule="evenodd" d="M228 3.89744L83 3.89742V2L228 2.00001V3.89744ZM6 5.79487V7.69229L232 7.69231L4 7.69231L4 9.58972L232.067 9.58974L2 9.58973V39L236 39V9.58974H234V7.69233L232 7.69231V5.79489L230 5.79487V3.89745L10 3.89744V5.79485L230 5.79487H6ZM10 39V40.8974L230 40.8975V39L10 39Z" fill="#FF9332"/>
<rect x="2" y="8" width="2" height="2" fill="#393939"/>
<rect x="236" y="39" width="2" height="4" transform="rotate(-180 236 39)" fill="#393939"/>
<rect x="4" y="35" width="4" height="2" transform="rotate(90 4 35)" fill="#393939"/>
<path d="M10 39L10 41L8 41L8 39L10 39Z" fill="#FFBD82"/>
<rect x="228" y="41" width="2.00001" height="218" transform="rotate(90 228 41)" fill="#FFBD82"/>
<rect x="234" y="10" width="4" height="2" transform="rotate(-90 234 10)" fill="#393939"/>
<rect x="2" y="6" width="2" height="2" fill="#393939"/>
<rect x="234" y="41" width="2" height="2" transform="rotate(-180 234 41)" fill="#393939"/>
<rect x="6" y="39" width="2" height="2" transform="rotate(90 6 39)" fill="#393939"/>
<rect x="4" y="4" width="2" height="2" fill="#393939"/>
<rect x="8" y="41" width="2" height="2" transform="rotate(90 8 41)" fill="#393939"/>
<rect x="232" y="6" width="2" height="2" transform="rotate(-90 232 6)" fill="#393939"/>
<rect x="6" y="2" width="4" height="2" fill="#393939"/>
<rect x="232" y="43" width="4" height="2" transform="rotate(-180 232 43)" fill="#393939"/>
<rect x="10" y="41" width="2" height="2" transform="rotate(90 10 41)" fill="#393939"/>
<rect x="228" y="4" width="2" height="4" transform="rotate(-90 228 4)" fill="#393939"/>
<rect x="10" width="218" height="2" fill="#393939"/>
<rect x="10" y="43" width="218" height="2" fill="#393939"/>
<rect y="10" width="2" height="25" fill="#393939"/>
<rect x="238" y="35" width="2" height="25" transform="rotate(-180 238 35)" fill="#393939"/>
<rect x="228" y="2" width="2.00001" height="218" transform="rotate(90 228 2)" fill="#FFBD82"/>
<rect x="6" y="6" width="2" height="2" transform="rotate(90 6 6)" fill="#FFBD82"/>
<rect x="4" y="10" width="4" height="2" transform="rotate(90 4 10)" fill="#FFBD82"/>
<rect x="8" y="4" width="2" height="2" transform="rotate(90 8 4)" fill="#FFBD82"/>
<rect x="10" y="4" width="2" height="2" transform="rotate(90 10 4)" fill="#FFBD82"/>
<rect x="232" y="4" width="2" height="4" transform="rotate(90 232 4)" fill="#FFBD82"/>
<rect x="234" y="6" width="2" height="2" transform="rotate(90 234 6)" fill="#FFBD82"/>
<rect x="236" y="10" width="4" height="2" transform="rotate(90 236 10)" fill="#FFBD82"/>
<rect x="4" y="31" width="4" height="2" transform="rotate(90 4 31)" fill="#FFBD82"/>
<rect x="8" y="39" width="2" height="2" transform="rotate(90 8 39)" fill="#FFBD82"/>
<rect x="6" y="37" width="2" height="2" transform="rotate(90 6 37)" fill="#FFBD82"/>
<rect x="232" y="41" width="4" height="2" transform="rotate(-180 232 41)" fill="#FFBD82"/>
<rect x="234" y="39" width="2" height="2" transform="rotate(-180 234 39)" fill="#FFBD82"/>
<rect x="236" y="35" width="2" height="4" transform="rotate(-180 236 35)" fill="#FFBD82"/>
</svg>
