<svg width="30" height="30" viewBox="0 0 30 30" fill="none" xmlns="http://www.w3.org/2000/svg">
<path d="M13.8043 0H16.1957C16.3325 0.0412185 16.472 0.0735324 16.613 0.0967391C22.8326 0.721739 28.1348 5.37717 29.5587 11.4761C29.738 12.2446 29.8543 13.0283 30 13.8043V16.1957C29.9584 16.3116 29.9249 16.4304 29.9 16.5511C29.0304 22.8815 25.5826 27.1315 19.5739 29.2598C18.4967 29.6413 17.3272 29.7598 16.2043 30H13.8043C13.6861 29.9603 13.5652 29.9294 13.4424 29.9076C10.3472 29.5872 7.42963 28.3069 5.09818 26.2459C2.76672 24.185 1.13808 21.4466 0.440217 18.4141C0.252174 17.6087 0.144565 16.7902 0 15.9783V14.0217C0.05 13.6859 0.0945652 13.3478 0.152174 13.013C1.21848 6.75326 4.74565 2.5913 10.7913 0.621739C11.7598 0.305435 12.7978 0.202174 13.8043 0ZM21.3098 15.0902C21.3098 14.0402 21.3424 12.9891 21.2891 11.938C21.2739 11.65 21.0717 11.2565 20.8337 11.113C19.0239 10.0261 17.1815 8.9837 15.3543 7.92065C15.2031 7.82173 15.026 7.76959 14.8452 7.77075C14.6645 7.77191 14.4881 7.82632 14.338 7.92717C12.5424 8.97428 10.7424 10.013 8.93804 11.0435C8.75914 11.1302 8.61008 11.2682 8.50982 11.4399C8.40956 11.6116 8.36263 11.8092 8.375 12.0076C8.38297 14.0707 8.38297 16.1337 8.375 18.1967C8.36048 18.3866 8.40235 18.5765 8.49536 18.7426C8.58838 18.9087 8.72839 19.0436 8.89783 19.1304C10.7196 20.171 12.5362 21.2181 14.3478 22.2717C14.4991 22.3711 14.6761 22.4241 14.8571 22.4241C15.038 22.4241 15.2151 22.3711 15.3663 22.2717C17.1779 21.2188 18.9931 20.1681 20.812 19.1196C20.9741 19.0389 21.1086 18.912 21.1986 18.7549C21.2885 18.5978 21.3299 18.4176 21.3174 18.237C21.3043 17.1891 21.3043 16.1391 21.3098 15.0902Z" fill="#FF7C06"/>
<path d="M21.1263 14.9859C21.1263 16.0598 21.1165 17.1348 21.1263 18.2132C21.1388 18.3981 21.0974 18.5826 21.0075 18.7435C20.9175 18.9043 20.7829 19.0342 20.6208 19.1168C18.8031 20.1866 16.9876 21.2623 15.1743 22.344C15.023 22.4458 14.846 22.5 14.665 22.5C14.4839 22.5 14.3069 22.4458 14.1556 22.344C12.3488 21.2608 10.5344 20.187 8.71238 19.1224C8.54244 19.0345 8.40165 18.8972 8.30765 18.7277C8.21366 18.5583 8.17065 18.3642 8.18403 18.1698C8.19345 16.0576 8.19345 13.9454 8.18403 11.8333C8.17166 11.6301 8.2186 11.4278 8.31888 11.252C8.41915 11.0763 8.56824 10.935 8.74716 10.8462C10.5569 9.79272 12.359 8.73071 14.1535 7.66016C14.3035 7.55691 14.4799 7.50121 14.6607 7.50002C14.8415 7.49883 15.0186 7.55221 15.1699 7.65349C16.9974 8.74184 18.8401 9.8046 20.6501 10.9219C20.8882 11.0688 21.0904 11.4716 21.1056 11.7665C21.1589 12.8348 21.1263 13.911 21.1263 14.9859ZM14.6329 17.5644C15.6113 17.5644 16.5897 17.5644 17.5616 17.5644C18.4063 17.5644 18.7074 17.0458 18.2911 16.2991C17.3322 14.5809 16.3672 12.8671 15.396 11.1578C14.9612 10.3866 14.3807 10.3933 13.9317 11.1801C12.9583 12.8864 11.9922 14.5987 11.0334 16.3169C10.6399 17.0224 10.954 17.5566 11.7574 17.5622C12.7163 17.5644 13.674 17.5644 14.6329 17.5644Z" fill="white"/>
<path d="M14.6211 17.7249C13.6765 17.7249 12.7329 17.7304 11.7882 17.7249C10.9967 17.7195 10.6871 17.1977 11.0749 16.5086C12.0195 14.8323 12.9713 13.1598 13.9303 11.4908C14.3726 10.7223 14.9414 10.7157 15.373 11.4691C16.3298 13.1402 17.2806 14.8142 18.2252 16.4912C18.6355 17.2206 18.3388 17.7228 17.5066 17.7271C16.5448 17.7249 15.5829 17.7249 14.6211 17.7249Z" fill="#FF7C06"/>
</svg>
