<svg width="23" height="23" viewBox="0 0 23 23" fill="none" xmlns="http://www.w3.org/2000/svg">
<path d="M11.5078 7.18021e-05C17.8841 0.0228215 22.9984 5.14018 23 11.4992C23.0016 17.8583 17.794 23.0582 11.4807 22.9995C5.08208 22.9401 -0.0376218 17.8055 0.000208302 11.4859C0.0388149 5.104 5.17516 -0.0221231 11.5078 7.18021e-05ZM11.5203 1.86222C6.20234 1.84768 1.87385 6.16092 1.86265 11.4859C1.85155 16.8026 6.16962 21.1296 11.4937 21.1371C16.8 21.1445 21.12 16.8394 21.1385 11.5268C21.1569 6.20776 16.8468 1.87709 11.5203 1.86233V1.86222Z" fill="#FF7C06"/>
<path d="M11.4984 2.75C16.329 2.75144 20.2672 6.69514 20.2476 11.5114C20.228 16.3451 16.3204 20.2477 11.4998 20.2477C6.67275 20.2477 2.73099 16.3003 2.75007 11.4856C2.76926 6.65619 6.68251 2.74845 11.4984 2.75ZM9.0485 10.4356L11.444 7.88323L13.9088 10.377L15.3386 8.94992C14.0361 7.71222 12.7291 6.46931 11.464 5.26601L7.55649 9.01905L9.0485 10.4356ZM11.428 17.7821L15.3287 14.0548L13.9213 12.5975L11.4427 15.1142L8.97417 12.5418L7.62294 13.987L11.428 17.7821ZM11.4717 10.1499L10.1493 11.4625L11.4548 12.7955L12.8122 11.4944L11.4717 10.1499ZM16.4345 12.8108L17.6992 11.5306L16.4107 10.1387C15.9677 10.6067 15.5391 11.0598 15.0983 11.5247C15.5176 11.9284 15.9721 12.366 16.4345 12.811V12.8108ZM7.82562 11.4911L6.50312 10.1857L5.25961 11.4645L6.48559 12.7844L7.82562 11.4911Z" fill="#FF7C06"/>
</svg>
