<svg width="39" height="39" viewBox="0 0 39 39" fill="none" xmlns="http://www.w3.org/2000/svg">
<path d="M38.564 0.436094C38.2751 0.154397 37.887 -0.00225063 37.4835 2.44391e-05L25.3896 0.0379437C25.1655 0.0382338 24.9441 0.0876061 24.7411 0.182593C24.5381 0.27758 24.3583 0.415877 24.2144 0.58777L10.8694 16.7413L9.2961 15.1677C8.72511 14.6049 7.95569 14.2895 7.15408 14.2895C6.35248 14.2895 5.58306 14.6049 5.01207 15.1677L2.60467 17.5755C2.32155 17.8558 2.09679 18.1895 1.9434 18.5573C1.79001 18.925 1.71103 19.3195 1.71103 19.718C1.71103 20.1164 1.79001 20.5109 1.9434 20.8787C2.09679 21.2464 2.32155 21.5801 2.60467 21.8604L6.56645 25.8229L0.879685 31.4918C0.315882 32.0662 0 32.8389 0 33.6437C0 34.4486 0.315882 35.2213 0.879685 35.7957L3.21126 38.1277C3.78779 38.6871 4.55948 39 5.36275 39C6.16602 39 6.93771 38.6871 7.51425 38.1277L13.1821 32.4398L17.1438 36.4024C17.7148 36.9651 18.4842 37.2805 19.2859 37.2805C20.0875 37.2805 20.8569 36.9651 21.4279 36.4024L23.8353 33.9945C24.1184 33.7142 24.3431 33.3805 24.4965 33.0128C24.6499 32.645 24.7289 32.2505 24.7289 31.8521C24.7289 31.4536 24.6499 31.0591 24.4965 30.6914C24.3431 30.3236 24.1184 29.99 23.8353 29.7096L22.2619 28.136L38.4123 14.7885C38.5842 14.6445 38.7225 14.4647 38.8174 14.2617C38.9124 14.0586 38.9618 13.8372 38.9621 13.613L39 1.51679C39.0023 1.11326 38.8456 0.725042 38.564 0.436094ZM35.9291 12.8925L20.101 25.9746L17.6367 23.5099L27.9487 13.2148C28.1905 12.9201 28.3141 12.546 28.2954 12.1652C28.2767 11.7844 28.1171 11.4242 27.8475 11.1546C27.578 10.885 27.2178 10.7254 26.8371 10.7067C26.4564 10.688 26.0824 10.8116 25.7877 11.0534L15.4947 21.3674L13.0304 18.9027L26.11 3.07147L35.967 3.03355L35.9291 12.8925Z" fill="white"/>
</svg>
