<svg width="33" height="33" viewBox="0 0 33 33" fill="none" xmlns="http://www.w3.org/2000/svg">
<path d="M14.4375 0H12.375V2.0625H14.4375V0Z" fill="#393939"/>
<path d="M16.5 0H14.4375V2.0625H16.5V0Z" fill="#393939"/>
<path d="M18.5625 0H16.5V2.0625H18.5625V0Z" fill="#393939"/>
<path d="M20.625 0H18.5625V2.0625H20.625V0Z" fill="#393939"/>
<path d="M10.3125 2.0625H8.25V4.125H10.3125V2.0625Z" fill="#393939"/>
<path d="M12.375 2.0625H10.3125V4.125H12.375V2.0625Z" fill="#393939"/>
<path d="M14.4375 2.0625H12.375V4.125H14.4375V2.0625Z" fill="#DDDDDD"/>
<path d="M16.5 2.0625H14.4375V4.125H16.5V2.0625Z" fill="#DDDDDD"/>
<path d="M18.5625 2.0625H16.5V4.125H18.5625V2.0625Z" fill="#DDDDDD"/>
<path d="M20.625 2.0625H18.5625V4.125H20.625V2.0625Z" fill="#DDDDDD"/>
<path d="M22.6875 2.0625H20.625V4.125H22.6875V2.0625Z" fill="#393939"/>
<path d="M24.75 2.0625H22.6875V4.125H24.75V2.0625Z" fill="#393939"/>
<path d="M8.25 4.125H6.1875V6.1875H8.25V4.125Z" fill="#393939"/>
<path d="M10.3125 4.125H8.25V6.1875H10.3125V4.125Z" fill="#DDDDDD"/>
<path d="M12.375 4.125H10.3125V6.1875H12.375V4.125Z" fill="#DDDDDD"/>
<path d="M14.4375 4.125H12.375V6.1875H14.4375V4.125Z" fill="white"/>
<path d="M16.5 4.125H14.4375V6.1875H16.5V4.125Z" fill="white"/>
<path d="M18.5625 4.125H16.5V6.1875H18.5625V4.125Z" fill="white"/>
<path d="M20.625 4.125H18.5625V6.1875H20.625V4.125Z" fill="white"/>
<path d="M22.6875 4.125H20.625V6.1875H22.6875V4.125Z" fill="#DDDDDD"/>
<path d="M24.75 4.125H22.6875V6.1875H24.75V4.125Z" fill="#DDDDDD"/>
<path d="M26.8125 4.125H24.75V6.1875H26.8125V4.125Z" fill="#393939"/>
<path d="M6.1875 6.1875H4.125V8.25H6.1875V6.1875Z" fill="#393939"/>
<path d="M8.25 6.1875H6.1875V8.25H8.25V6.1875Z" fill="#DDDDDD"/>
<path d="M10.3125 6.1875H8.25V8.25H10.3125V6.1875Z" fill="white"/>
<path d="M12.375 6.1875H10.3125V8.25H12.375V6.1875Z" fill="white"/>
<path d="M14.4375 6.1875H12.375V8.25H14.4375V6.1875Z" fill="white"/>
<path d="M16.5 6.1875H14.4375V8.25H16.5V6.1875Z" fill="white"/>
<path d="M18.5625 6.1875H16.5V8.25H18.5625V6.1875Z" fill="white"/>
<path d="M20.625 6.1875H18.5625V8.25H20.625V6.1875Z" fill="white"/>
<path d="M22.6875 6.1875H20.625V8.25H22.6875V6.1875Z" fill="white"/>
<path d="M24.75 6.1875H22.6875V8.25H24.75V6.1875Z" fill="white"/>
<path d="M26.8125 6.1875H24.75V8.25H26.8125V6.1875Z" fill="#DDDDDD"/>
<path d="M28.875 6.1875H26.8125V8.25H28.875V6.1875Z" fill="#393939"/>
<path d="M4.125 8.25H2.0625V10.3125H4.125V8.25Z" fill="#393939"/>
<path d="M6.1875 8.25H4.125V10.3125H6.1875V8.25Z" fill="#DDDDDD"/>
<path d="M8.25 8.25H6.1875V10.3125H8.25V8.25Z" fill="white"/>
<path d="M10.3125 8.25H8.25V10.3125H10.3125V8.25Z" fill="white"/>
<path d="M12.375 8.25H10.3125V10.3125H12.375V8.25Z" fill="white"/>
<path d="M14.4375 8.25H12.375V10.3125H14.4375V8.25Z" fill="white"/>
<path d="M16.5 8.25H14.4375V10.3125H16.5V8.25Z" fill="white"/>
<path d="M18.5625 8.25H16.5V10.3125H18.5625V8.25Z" fill="white"/>
<path d="M20.625 8.25H18.5625V10.3125H20.625V8.25Z" fill="white"/>
<path d="M22.6875 8.25H20.625V10.3125H22.6875V8.25Z" fill="white"/>
<path d="M24.75 8.25H22.6875V10.3125H24.75V8.25Z" fill="white"/>
<path d="M26.8125 8.25H24.75V10.3125H26.8125V8.25Z" fill="white"/>
<path d="M28.875 8.25H26.8125V10.3125H28.875V8.25Z" fill="#898989"/>
<path d="M30.9375 8.25H28.875V10.3125H30.9375V8.25Z" fill="#393939"/>
<path d="M4.125 10.3125H2.0625V12.375H4.125V10.3125Z" fill="#393939"/>
<path d="M6.1875 10.3125H4.125V12.375H6.1875V10.3125Z" fill="#DDDDDD"/>
<path d="M8.25 10.3125H6.1875V12.375H8.25V10.3125Z" fill="white"/>
<path d="M10.3125 10.3125H8.25V12.375H10.3125V10.3125Z" fill="white"/>
<path d="M12.375 10.3125H10.3125V12.375H12.375V10.3125Z" fill="white"/>
<path d="M14.4375 10.3125H12.375V12.375H14.4375V10.3125Z" fill="white"/>
<path d="M16.5 10.3125H14.4375V12.375H16.5V10.3125Z" fill="white"/>
<path d="M18.5625 10.3125H16.5V12.375H18.5625V10.3125Z" fill="white"/>
<path d="M20.625 10.3125H18.5625V12.375H20.625V10.3125Z" fill="white"/>
<path d="M22.6875 10.3125H20.625V12.375H22.6875V10.3125Z" fill="white"/>
<path d="M24.75 10.3125H22.6875V12.375H24.75V10.3125Z" fill="white"/>
<path d="M26.8125 10.3125H24.75V12.375H26.8125V10.3125Z" fill="white"/>
<path d="M28.875 10.3125H26.8125V12.375H28.875V10.3125Z" fill="#898989"/>
<path d="M30.9375 10.3125H28.875V12.375H30.9375V10.3125Z" fill="#393939"/>
<path d="M2.0625 12.375H0V14.4375H2.0625V12.375Z" fill="#393939"/>
<path d="M4.125 12.375H2.0625V14.4375H4.125V12.375Z" fill="#DDDDDD"/>
<path d="M6.1875 12.375H4.125V14.4375H6.1875V12.375Z" fill="white"/>
<path d="M8.25 12.375H6.1875V14.4375H8.25V12.375Z" fill="white"/>
<path d="M10.3125 12.375H8.25V14.4375H10.3125V12.375Z" fill="white"/>
<path d="M12.375 12.375H10.3125V14.4375H12.375V12.375Z" fill="white"/>
<path d="M14.4375 12.375H12.375V14.4375H14.4375V12.375Z" fill="white"/>
<path d="M16.5 12.375H14.4375V14.4375H16.5V12.375Z" fill="white"/>
<path d="M18.5625 12.375H16.5V14.4375H18.5625V12.375Z" fill="white"/>
<path d="M20.625 12.375H18.5625V14.4375H20.625V12.375Z" fill="white"/>
<path d="M22.6875 12.375H20.625V14.4375H22.6875V12.375Z" fill="white"/>
<path d="M24.75 12.375H22.6875V14.4375H24.75V12.375Z" fill="white"/>
<path d="M26.8125 12.375H24.75V14.4375H26.8125V12.375Z" fill="white"/>
<path d="M28.875 12.375H26.8125V14.4375H28.875V12.375Z" fill="white"/>
<path d="M30.9375 12.375H28.875V14.4375H30.9375V12.375Z" fill="#898989"/>
<path d="M33 12.375H30.9375V14.4375H33V12.375Z" fill="#393939"/>
<path d="M2.0625 14.4375H0V16.5H2.0625V14.4375Z" fill="#393939"/>
<path d="M4.125 14.4375H2.0625V16.5H4.125V14.4375Z" fill="#DDDDDD"/>
<path d="M6.1875 14.4375H4.125V16.5H6.1875V14.4375Z" fill="white"/>
<path d="M8.25 14.4375H6.1875V16.5H8.25V14.4375Z" fill="white"/>
<path d="M10.3125 14.4375H8.25V16.5H10.3125V14.4375Z" fill="white"/>
<path d="M12.375 14.4375H10.3125V16.5H12.375V14.4375Z" fill="white"/>
<path d="M14.4375 14.4375H12.375V16.5H14.4375V14.4375Z" fill="white"/>
<path d="M16.5 14.4375H14.4375V16.5H16.5V14.4375Z" fill="white"/>
<path d="M18.5625 14.4375H16.5V16.5H18.5625V14.4375Z" fill="white"/>
<path d="M20.625 14.4375H18.5625V16.5H20.625V14.4375Z" fill="white"/>
<path d="M22.6875 14.4375H20.625V16.5H22.6875V14.4375Z" fill="white"/>
<path d="M24.75 14.4375H22.6875V16.5H24.75V14.4375Z" fill="white"/>
<path d="M26.8125 14.4375H24.75V16.5H26.8125V14.4375Z" fill="white"/>
<path d="M28.875 14.4375H26.8125V16.5H28.875V14.4375Z" fill="white"/>
<path d="M30.9375 14.4375H28.875V16.5H30.9375V14.4375Z" fill="#898989"/>
<path d="M33 14.4375H30.9375V16.5H33V14.4375Z" fill="#393939"/>
<path d="M2.0625 16.5H0V18.5625H2.0625V16.5Z" fill="#393939"/>
<path d="M4.125 16.5H2.0625V18.5625H4.125V16.5Z" fill="#DDDDDD"/>
<path d="M6.1875 16.5H4.125V18.5625H6.1875V16.5Z" fill="white"/>
<path d="M8.25 16.5H6.1875V18.5625H8.25V16.5Z" fill="white"/>
<path d="M10.3125 16.5H8.25V18.5625H10.3125V16.5Z" fill="white"/>
<path d="M12.375 16.5H10.3125V18.5625H12.375V16.5Z" fill="white"/>
<path d="M14.4375 16.5H12.375V18.5625H14.4375V16.5Z" fill="white"/>
<path d="M16.5 16.5H14.4375V18.5625H16.5V16.5Z" fill="white"/>
<path d="M18.5625 16.5H16.5V18.5625H18.5625V16.5Z" fill="white"/>
<path d="M20.625 16.5H18.5625V18.5625H20.625V16.5Z" fill="white"/>
<path d="M22.6875 16.5H20.625V18.5625H22.6875V16.5Z" fill="white"/>
<path d="M24.75 16.5H22.6875V18.5625H24.75V16.5Z" fill="white"/>
<path d="M26.8125 16.5H24.75V18.5625H26.8125V16.5Z" fill="white"/>
<path d="M28.875 16.5H26.8125V18.5625H28.875V16.5Z" fill="white"/>
<path d="M30.9375 16.5H28.875V18.5625H30.9375V16.5Z" fill="#898989"/>
<path d="M33 16.5H30.9375V18.5625H33V16.5Z" fill="#393939"/>
<path d="M2.0625 18.5625H0V20.625H2.0625V18.5625Z" fill="#393939"/>
<path d="M4.125 18.5625H2.0625V20.625H4.125V18.5625Z" fill="#DDDDDD"/>
<path d="M6.1875 18.5625H4.125V20.625H6.1875V18.5625Z" fill="white"/>
<path d="M8.25 18.5625H6.1875V20.625H8.25V18.5625Z" fill="white"/>
<path d="M10.3125 18.5625H8.25V20.625H10.3125V18.5625Z" fill="white"/>
<path d="M12.375 18.5625H10.3125V20.625H12.375V18.5625Z" fill="white"/>
<path d="M14.4375 18.5625H12.375V20.625H14.4375V18.5625Z" fill="white"/>
<path d="M16.5 18.5625H14.4375V20.625H16.5V18.5625Z" fill="white"/>
<path d="M18.5625 18.5625H16.5V20.625H18.5625V18.5625Z" fill="white"/>
<path d="M20.625 18.5625H18.5625V20.625H20.625V18.5625Z" fill="white"/>
<path d="M22.6875 18.5625H20.625V20.625H22.6875V18.5625Z" fill="white"/>
<path d="M24.75 18.5625H22.6875V20.625H24.75V18.5625Z" fill="white"/>
<path d="M26.8125 18.5625H24.75V20.625H26.8125V18.5625Z" fill="white"/>
<path d="M28.875 18.5625H26.8125V20.625H28.875V18.5625Z" fill="white"/>
<path d="M30.9375 18.5625H28.875V20.625H30.9375V18.5625Z" fill="#898989"/>
<path d="M33 18.5625H30.9375V20.625H33V18.5625Z" fill="#393939"/>
<path d="M4.125 20.625H2.0625V22.6875H4.125V20.625Z" fill="#393939"/>
<path d="M6.1875 20.625H4.125V22.6875H6.1875V20.625Z" fill="#DDDDDD"/>
<path d="M8.25 20.625H6.1875V22.6875H8.25V20.625Z" fill="white"/>
<path d="M10.3125 20.625H8.25V22.6875H10.3125V20.625Z" fill="white"/>
<path d="M12.375 20.625H10.3125V22.6875H12.375V20.625Z" fill="white"/>
<path d="M14.4375 20.625H12.375V22.6875H14.4375V20.625Z" fill="white"/>
<path d="M16.5 20.625H14.4375V22.6875H16.5V20.625Z" fill="white"/>
<path d="M18.5625 20.625H16.5V22.6875H18.5625V20.625Z" fill="white"/>
<path d="M20.625 20.625H18.5625V22.6875H20.625V20.625Z" fill="white"/>
<path d="M22.6875 20.625H20.625V22.6875H22.6875V20.625Z" fill="white"/>
<path d="M24.75 20.625H22.6875V22.6875H24.75V20.625Z" fill="white"/>
<path d="M26.8125 20.625H24.75V22.6875H26.8125V20.625Z" fill="white"/>
<path d="M28.875 20.625H26.8125V22.6875H28.875V20.625Z" fill="#898989"/>
<path d="M30.9375 20.625H28.875V22.6875H30.9375V20.625Z" fill="#393939"/>
<path d="M4.125 22.6875H2.0625V24.75H4.125V22.6875Z" fill="#393939"/>
<path d="M6.1875 22.6875H4.125V24.75H6.1875V22.6875Z" fill="#DDDDDD"/>
<path d="M8.25 22.6875H6.1875V24.75H8.25V22.6875Z" fill="white"/>
<path d="M10.3125 22.6875H8.25V24.75H10.3125V22.6875Z" fill="white"/>
<path d="M12.375 22.6875H10.3125V24.75H12.375V22.6875Z" fill="white"/>
<path d="M14.4375 22.6875H12.375V24.75H14.4375V22.6875Z" fill="white"/>
<path d="M16.5 22.6875H14.4375V24.75H16.5V22.6875Z" fill="white"/>
<path d="M18.5625 22.6875H16.5V24.75H18.5625V22.6875Z" fill="white"/>
<path d="M20.625 22.6875H18.5625V24.75H20.625V22.6875Z" fill="white"/>
<path d="M22.6875 22.6875H20.625V24.75H22.6875V22.6875Z" fill="white"/>
<path d="M24.75 22.6875H22.6875V24.75H24.75V22.6875Z" fill="white"/>
<path d="M26.8125 22.6875H24.75V24.75H26.8125V22.6875Z" fill="white"/>
<path d="M28.875 22.6875H26.8125V24.75H28.875V22.6875Z" fill="#898989"/>
<path d="M30.9375 22.6875H28.875V24.75H30.9375V22.6875Z" fill="#393939"/>
<path d="M6.1875 24.75H4.125V26.8125H6.1875V24.75Z" fill="#393939"/>
<path d="M8.25 24.75H6.1875V26.8125H8.25V24.75Z" fill="#DDDDDD"/>
<path d="M10.3125 24.75H8.25V26.8125H10.3125V24.75Z" fill="white"/>
<path d="M12.375 24.75H10.3125V26.8125H12.375V24.75Z" fill="white"/>
<path d="M14.4375 24.75H12.375V26.8125H14.4375V24.75Z" fill="white"/>
<path d="M16.5 24.75H14.4375V26.8125H16.5V24.75Z" fill="white"/>
<path d="M18.5625 24.75H16.5V26.8125H18.5625V24.75Z" fill="white"/>
<path d="M20.625 24.75H18.5625V26.8125H20.625V24.75Z" fill="white"/>
<path d="M22.6875 24.75H20.625V26.8125H22.6875V24.75Z" fill="white"/>
<path d="M24.75 24.75H22.6875V26.8125H24.75V24.75Z" fill="white"/>
<path d="M26.8125 24.75H24.75V26.8125H26.8125V24.75Z" fill="#898989"/>
<path d="M28.875 24.75H26.8125V26.8125H28.875V24.75Z" fill="#393939"/>
<path d="M8.25 26.8125H6.1875V28.875H8.25V26.8125Z" fill="#393939"/>
<path d="M10.3125 26.8125H8.25V28.875H10.3125V26.8125Z" fill="#898989"/>
<path d="M12.375 26.8125H10.3125V28.875H12.375V26.8125Z" fill="#898989"/>
<path d="M14.4375 26.8125H12.375V28.875H14.4375V26.8125Z" fill="white"/>
<path d="M16.5 26.8125H14.4375V28.875H16.5V26.8125Z" fill="white"/>
<path d="M18.5625 26.8125H16.5V28.875H18.5625V26.8125Z" fill="white"/>
<path d="M20.625 26.8125H18.5625V28.875H20.625V26.8125Z" fill="white"/>
<path d="M22.6875 26.8125H20.625V28.875H22.6875V26.8125Z" fill="#898989"/>
<path d="M24.75 26.8125H22.6875V28.875H24.75V26.8125Z" fill="#898989"/>
<path d="M26.8125 26.8125H24.75V28.875H26.8125V26.8125Z" fill="#393939"/>
<path d="M10.3125 28.875H8.25V30.9375H10.3125V28.875Z" fill="#393939"/>
<path d="M12.375 28.875H10.3125V30.9375H12.375V28.875Z" fill="#393939"/>
<path d="M14.4375 28.875H12.375V30.9375H14.4375V28.875Z" fill="#898989"/>
<path d="M16.5 28.875H14.4375V30.9375H16.5V28.875Z" fill="#898989"/>
<path d="M18.5625 28.875H16.5V30.9375H18.5625V28.875Z" fill="#898989"/>
<path d="M20.625 28.875H18.5625V30.9375H20.625V28.875Z" fill="#898989"/>
<path d="M22.6875 28.875H20.625V30.9375H22.6875V28.875Z" fill="#393939"/>
<path d="M24.75 28.875H22.6875V30.9375H24.75V28.875Z" fill="#393939"/>
<path d="M14.4375 30.9375H12.375V33H14.4375V30.9375Z" fill="#393939"/>
<path d="M16.5 30.9375H14.4375V33H16.5V30.9375Z" fill="#393939"/>
<path d="M18.5625 30.9375H16.5V33H18.5625V30.9375Z" fill="#393939"/>
<path d="M20.625 30.9375H18.5625V33H20.625V30.9375Z" fill="#393939"/>
<rect x="15" y="8" width="2" height="2" fill="#FF7C06"/>
<rect x="19" y="8" width="2" height="2" fill="#FF7C06"/>
<rect x="17" y="6" width="2" height="2" fill="#FF7C06"/>
<rect x="17" y="26" width="2" height="2" fill="#FF7C06"/>
<rect x="17" y="8" width="2" height="2" fill="#FFC088"/>
<rect x="13" y="10" width="2" height="2" fill="#FF7C06"/>
<rect x="17" y="10" width="2" height="2" fill="#FF7C06"/>
<rect x="15" y="10" width="2" height="2" fill="#FFC088"/>
<rect x="11" y="12" width="2" height="2" fill="#FF7C06"/>
<rect x="15" y="12" width="2" height="2" fill="#FF7C06"/>
<rect x="13" y="12" width="2" height="2" fill="#FFC088"/>
<rect x="9" y="14" width="2" height="2" fill="#FF7C06"/>
<rect x="13" y="14" width="2" height="2" fill="#FF7C06"/>
<rect x="11" y="14" width="2" height="2" fill="#FFC088"/>
<rect x="7" y="16" width="2" height="2" fill="#FF7C06"/>
<rect x="11" y="16" width="2" height="2" fill="#FF7C06"/>
<rect x="9" y="16" width="2" height="2" fill="#FFC088"/>
<rect x="9" y="18" width="2" height="2" fill="#FF7C06"/>
<rect x="13" y="18" width="2" height="2" fill="#FF7C06"/>
<rect x="11" y="18" width="2" height="2" fill="#FFC088"/>
<rect x="11" y="20" width="2" height="2" fill="#FF7C06"/>
<rect x="15" y="20" width="2" height="2" fill="#FF7C06"/>
<rect x="13" y="20" width="2" height="2" fill="#FFC088"/>
<rect x="13" y="22" width="2" height="2" fill="#FF7C06"/>
<rect x="17" y="22" width="2" height="2" fill="#FF7C06"/>
<rect x="15" y="22" width="2" height="2" fill="#FFC088"/>
<rect x="15" y="24" width="2" height="2" fill="#FF7C06"/>
<rect x="19" y="24" width="2" height="2" fill="#FF7C06"/>
<rect x="17" y="24" width="2" height="2" fill="#FFC088"/>
</svg>
