<svg width="11" height="11" viewBox="0 0 11 11" fill="none" xmlns="http://www.w3.org/2000/svg">
<path d="M4.86414 0.573242H4.25781V1.17957H4.86414V0.573242Z" fill="#16171A"/>
<path d="M5.46961 0.573242H4.86328V1.17957H5.46961V0.573242Z" fill="#16171A"/>
<path d="M6.07508 0.573242H5.46875V1.17957H6.07508V0.573242Z" fill="#16171A"/>
<path d="M6.68054 0.573242H6.07422V1.17957H6.68054V0.573242Z" fill="#16171A"/>
<path d="M3.64929 1.17969H3.04297V1.78601H3.64929V1.17969Z" fill="#16171A"/>
<path d="M4.25476 1.17969H3.64844V1.78601H4.25476V1.17969Z" fill="#16171A"/>
<path d="M4.86414 1.17969H4.25781V1.78601H4.86414V1.17969Z" fill="#FAFDFF"/>
<path d="M5.46961 1.17969H4.86328V1.78601H5.46961V1.17969Z" fill="#FAFDFF"/>
<path d="M6.07508 1.17969H5.46875V1.78601H6.07508V1.17969Z" fill="#FAFDFF"/>
<path d="M6.68054 1.17969H6.07422V1.78601H6.68054V1.17969Z" fill="#FAFDFF"/>
<path d="M7.28992 1.17969H6.68359V1.78601H7.28992V1.17969Z" fill="#16171A"/>
<path d="M7.89539 1.17969H7.28906V1.78601H7.89539V1.17969Z" fill="#16171A"/>
<path d="M3.04383 1.78516H2.4375V2.39148H3.04383V1.78516Z" fill="#16171A"/>
<path d="M3.64929 1.78516H3.04297V2.39148H3.64929V1.78516Z" fill="#FAFDFF"/>
<path d="M4.25476 1.78516H3.64844V2.39148H4.25476V1.78516Z" fill="#FAFDFF"/>
<path d="M4.86414 1.78516H4.25781V2.39148H4.86414V1.78516Z" fill="#FFBD82"/>
<path d="M5.46961 1.78516H4.86328V2.39148H5.46961V1.78516Z" fill="#FFBD82"/>
<path d="M6.07508 1.78516H5.46875V2.39148H6.07508V1.78516Z" fill="#FFBD82"/>
<path d="M6.68054 1.78516H6.07422V2.39148H6.68054V1.78516Z" fill="#FFBD82"/>
<path d="M7.28992 1.78516H6.68359V2.39148H7.28992V1.78516Z" fill="#FAFDFF"/>
<path d="M7.89148 1.78516H7.28516V2.39148H7.89148V1.78516Z" fill="#FAFDFF"/>
<path d="M8.49695 1.78516H7.89062V2.39148H8.49695V1.78516Z" fill="#16171A"/>
<path d="M2.43836 2.3916H1.83203V2.99793H2.43836V2.3916Z" fill="#16171A"/>
<path d="M3.04383 2.3916H2.4375V2.99793H3.04383V2.3916Z" fill="#FAFDFF"/>
<path d="M3.64929 2.3916H3.04297V2.99793H3.64929V2.3916Z" fill="#FFBD82"/>
<path d="M4.25476 2.3916H3.64844V2.99793H4.25476V2.3916Z" fill="#FFBD82"/>
<path d="M4.86414 2.3916H4.25781V2.99793H4.86414V2.3916Z" fill="#FFBD82"/>
<path d="M5.46961 2.3916H4.86328V2.99793H5.46961V2.3916Z" fill="#FFBD82"/>
<path d="M6.07508 2.3916H5.46875V2.99793H6.07508V2.3916Z" fill="#FFBD82"/>
<path d="M6.68054 2.3916H6.07422V2.99793H6.68054V2.3916Z" fill="#FFBD82"/>
<path d="M7.28992 2.3916H6.68359V2.99793H7.28992V2.3916Z" fill="#FFBD82"/>
<path d="M7.89148 2.3916H7.28516V2.99793H7.89148V2.3916Z" fill="#FFBD82"/>
<path d="M8.49695 2.3916H7.89062V2.99793H8.49695V2.3916Z" fill="#FAFDFF"/>
<path d="M9.10242 2.3916H8.49609V2.99793H9.10242V2.3916Z" fill="#16171A"/>
<path d="M1.82898 2.99805H1.22266V3.60437H1.82898V2.99805Z" fill="#16171A"/>
<path d="M2.43836 2.99805H1.83203V3.60437H2.43836V2.99805Z" fill="#FAFDFF"/>
<path d="M3.04383 2.99805H2.4375V3.60437H3.04383V2.99805Z" fill="#FFBD82"/>
<path d="M3.64929 2.99805H3.04297V3.60437H3.64929V2.99805Z" fill="#FFBD82"/>
<path d="M4.25476 2.99805H3.64844V3.60437H4.25476V2.99805Z" fill="#FFBD82"/>
<path d="M4.86414 2.99805H4.25781V3.60437H4.86414V2.99805Z" fill="#FFBD82"/>
<path d="M5.46961 2.99805H4.86328V3.60437H5.46961V2.99805Z" fill="#FFBD82"/>
<path d="M6.07508 2.99805H5.46875V3.60437H6.07508V2.99805Z" fill="#FFBD82"/>
<path d="M6.68054 2.99805H6.07422V3.60437H6.68054V2.99805Z" fill="#FFBD82"/>
<path d="M7.28992 2.99805H6.68359V3.60437H7.28992V2.99805Z" fill="#FFBD82"/>
<path d="M7.89148 2.99805H7.28516V3.60437H7.89148V2.99805Z" fill="#FFBD82"/>
<path d="M8.49695 2.99805H7.89062V3.60437H8.49695V2.99805Z" fill="#FFBD82"/>
<path d="M9.10242 2.99805H8.49609V3.60437H9.10242V2.99805Z" fill="#FF8426"/>
<path d="M9.71179 2.99805H9.10547V3.60437H9.71179V2.99805Z" fill="#16171A"/>
<path d="M1.82898 3.60449H1.22266V4.21082H1.82898V3.60449Z" fill="#16171A"/>
<path d="M2.43836 3.60449H1.83203V4.21082H2.43836V3.60449Z" fill="#FAFDFF"/>
<path d="M3.04383 3.60449H2.4375V4.21082H3.04383V3.60449Z" fill="#FFBD82"/>
<path d="M3.64929 3.60449H3.04297V4.21082H3.64929V3.60449Z" fill="#FFBD82"/>
<path d="M4.25476 3.60449H3.64844V4.21082H4.25476V3.60449Z" fill="#FFBD82"/>
<path d="M4.86414 3.60449H4.25781V4.21082H4.86414V3.60449Z" fill="#FFBD82"/>
<path d="M5.46961 3.60449H4.86328V4.21082H5.46961V3.60449Z" fill="#FFBD82"/>
<path d="M6.07508 3.60449H5.46875V4.21082H6.07508V3.60449Z" fill="#FFBD82"/>
<path d="M6.68054 3.60449H6.07422V4.21082H6.68054V3.60449Z" fill="#FFBD82"/>
<path d="M7.28992 3.60449H6.68359V4.21082H7.28992V3.60449Z" fill="#FFBD82"/>
<path d="M7.89148 3.60449H7.28516V4.21082H7.89148V3.60449Z" fill="#FFBD82"/>
<path d="M8.49695 3.60449H7.89062V4.21082H8.49695V3.60449Z" fill="#FFBD82"/>
<path d="M9.10242 3.60449H8.49609V4.21082H9.10242V3.60449Z" fill="#FF8426"/>
<path d="M9.71179 3.60449H9.10547V4.21082H9.71179V3.60449Z" fill="#16171A"/>
<path d="M1.22351 4.21094H0.617188V4.81726H1.22351V4.21094Z" fill="#16171A"/>
<path d="M1.82898 4.21094H1.22266V4.81726H1.82898V4.21094Z" fill="#FAFDFF"/>
<path d="M2.43836 4.21094H1.83203V4.81726H2.43836V4.21094Z" fill="#FFBD82"/>
<path d="M3.04383 4.21094H2.4375V4.81726H3.04383V4.21094Z" fill="#FFBD82"/>
<path d="M3.64929 4.21094H3.04297V4.81726H3.64929V4.21094Z" fill="#FFBD82"/>
<path d="M4.25476 4.21094H3.64844V4.81726H4.25476V4.21094Z" fill="#FFBD82"/>
<path d="M4.86414 4.21094H4.25781V4.81726H4.86414V4.21094Z" fill="#FFBD82"/>
<path d="M5.46961 4.21094H4.86328V4.81726H5.46961V4.21094Z" fill="#FFBD82"/>
<path d="M6.07508 4.21094H5.46875V4.81726H6.07508V4.21094Z" fill="#FFBD82"/>
<path d="M6.68054 4.21094H6.07422V4.81726H6.68054V4.21094Z" fill="#FFBD82"/>
<path d="M7.28992 4.21094H6.68359V4.81726H7.28992V4.21094Z" fill="#FFBD82"/>
<path d="M7.89148 4.21094H7.28516V4.81726H7.89148V4.21094Z" fill="#FFBD82"/>
<path d="M8.49695 4.21094H7.89062V4.81726H8.49695V4.21094Z" fill="#FFBD82"/>
<path d="M9.10242 4.21094H8.49609V4.81726H9.10242V4.21094Z" fill="#FFBD82"/>
<path d="M9.71179 4.21094H9.10547V4.81726H9.71179V4.21094Z" fill="#FF8426"/>
<path d="M10.3173 4.21094H9.71094V4.81726H10.3173V4.21094Z" fill="#16171A"/>
<path d="M1.22351 4.81641H0.617188V5.42273H1.22351V4.81641Z" fill="#16171A"/>
<path d="M1.82898 4.81641H1.22266V5.42273H1.82898V4.81641Z" fill="#FAFDFF"/>
<path d="M2.43836 4.81641H1.83203V5.42273H2.43836V4.81641Z" fill="#FFBD82"/>
<path d="M3.04383 4.81641H2.4375V5.42273H3.04383V4.81641Z" fill="#FFBD82"/>
<path d="M3.64929 4.81641H3.04297V5.42273H3.64929V4.81641Z" fill="#FFBD82"/>
<path d="M4.25476 4.81641H3.64844V5.42273H4.25476V4.81641Z" fill="#FFBD82"/>
<path d="M4.86414 4.81641H4.25781V5.42273H4.86414V4.81641Z" fill="#FFBD82"/>
<path d="M5.46961 4.81641H4.86328V5.42273H5.46961V4.81641Z" fill="#FFBD82"/>
<path d="M6.07508 4.81641H5.46875V5.42273H6.07508V4.81641Z" fill="#FFBD82"/>
<path d="M6.68054 4.81641H6.07422V5.42273H6.68054V4.81641Z" fill="#FFBD82"/>
<path d="M7.28992 4.81641H6.68359V5.42273H7.28992V4.81641Z" fill="#FFBD82"/>
<path d="M7.89148 4.81641H7.28516V5.42273H7.89148V4.81641Z" fill="#FFBD82"/>
<path d="M8.49695 4.81641H7.89062V5.42273H8.49695V4.81641Z" fill="#FFBD82"/>
<path d="M9.10242 4.81641H8.49609V5.42273H9.10242V4.81641Z" fill="#FFBD82"/>
<path d="M9.71179 4.81641H9.10547V5.42273H9.71179V4.81641Z" fill="#FF8426"/>
<path d="M10.3173 4.81641H9.71094V5.42273H10.3173V4.81641Z" fill="#16171A"/>
<path d="M1.22351 5.42285H0.617188V6.02918H1.22351V5.42285Z" fill="#16171A"/>
<path d="M1.82898 5.42383H1.22266V6.03015H1.82898V5.42383Z" fill="#FAFDFF"/>
<path d="M2.43836 5.42383H1.83203V6.03015H2.43836V5.42383Z" fill="#FFBD82"/>
<path d="M3.04383 5.42383H2.4375V6.03015H3.04383V5.42383Z" fill="#FFBD82"/>
<path d="M3.64929 5.42285H3.04297V6.02918H3.64929V5.42285Z" fill="#FFBD82"/>
<path d="M4.25476 5.42383H3.64844V6.03015H4.25476V5.42383Z" fill="#FFBD82"/>
<path d="M4.86414 5.42383H4.25781V6.03015H4.86414V5.42383Z" fill="#FFBD82"/>
<path d="M5.46961 5.42383H4.86328V6.03015H5.46961V5.42383Z" fill="#FFBD82"/>
<path d="M6.07508 5.42383H5.46875V6.03015H6.07508V5.42383Z" fill="#FFBD82"/>
<path d="M6.68054 5.42383H6.07422V6.03015H6.68054V5.42383Z" fill="#FFBD82"/>
<path d="M7.28992 5.42383H6.68359V6.03015H7.28992V5.42383Z" fill="#FFBD82"/>
<path d="M7.89148 5.42285H7.28516V6.02918H7.89148V5.42285Z" fill="#FFBD82"/>
<path d="M8.49695 5.42383H7.89062V6.03015H8.49695V5.42383Z" fill="#FFBD82"/>
<path d="M9.10242 5.42383H8.49609V6.03015H9.10242V5.42383Z" fill="#FFBD82"/>
<path d="M9.71179 5.42383H9.10547V6.03015H9.71179V5.42383Z" fill="#FF8426"/>
<path d="M10.3173 5.42285H9.71094V6.02918H10.3173V5.42285Z" fill="#16171A"/>
<path d="M1.22351 6.0293H0.617188V6.63562H1.22351V6.0293Z" fill="#16171A"/>
<path d="M1.82898 6.0293H1.22266V6.63562H1.82898V6.0293Z" fill="#FAFDFF"/>
<path d="M2.43836 6.0293H1.83203V6.63562H2.43836V6.0293Z" fill="#FFBD82"/>
<path d="M3.04383 6.0293H2.4375V6.63562H3.04383V6.0293Z" fill="#FFBD82"/>
<path d="M3.64929 6.0293H3.04297V6.63562H3.64929V6.0293Z" fill="#FFBD82"/>
<path d="M4.25476 6.0293H3.64844V6.63562H4.25476V6.0293Z" fill="#FFBD82"/>
<path d="M4.86414 6.0293H4.25781V6.63562H4.86414V6.0293Z" fill="#FFBD82"/>
<path d="M5.46961 6.0293H4.86328V6.63562H5.46961V6.0293Z" fill="#FFBD82"/>
<path d="M6.07508 6.0293H5.46875V6.63562H6.07508V6.0293Z" fill="#FFBD82"/>
<path d="M6.68054 6.0293H6.07422V6.63562H6.68054V6.0293Z" fill="#FFBD82"/>
<path d="M7.28992 6.0293H6.68359V6.63562H7.28992V6.0293Z" fill="#FFBD82"/>
<path d="M7.89148 6.0293H7.28516V6.63562H7.89148V6.0293Z" fill="#FFBD82"/>
<path d="M8.49695 6.0293H7.89062V6.63562H8.49695V6.0293Z" fill="#FFBD82"/>
<path d="M9.10242 6.0293H8.49609V6.63562H9.10242V6.0293Z" fill="#FFBD82"/>
<path d="M9.71179 6.0293H9.10547V6.63562H9.71179V6.0293Z" fill="#FF8426"/>
<path d="M10.3173 6.0293H9.71094V6.63562H10.3173V6.0293Z" fill="#16171A"/>
<path d="M1.82898 6.63574H1.22266V7.24207H1.82898V6.63574Z" fill="#16171A"/>
<path d="M2.43836 6.63574H1.83203V7.24207H2.43836V6.63574Z" fill="#FAFDFF"/>
<path d="M3.04383 6.63574H2.4375V7.24207H3.04383V6.63574Z" fill="#FFBD82"/>
<path d="M3.64929 6.63574H3.04297V7.24207H3.64929V6.63574Z" fill="#FFBD82"/>
<path d="M4.25476 6.63574H3.64844V7.24207H4.25476V6.63574Z" fill="#FFBD82"/>
<path d="M4.86414 6.63574H4.25781V7.24207H4.86414V6.63574Z" fill="#FFBD82"/>
<path d="M5.46961 6.63574H4.86328V7.24207H5.46961V6.63574Z" fill="#FFBD82"/>
<path d="M6.07508 6.63574H5.46875V7.24207H6.07508V6.63574Z" fill="#FFBD82"/>
<path d="M6.68054 6.63574H6.07422V7.24207H6.68054V6.63574Z" fill="#FFBD82"/>
<path d="M7.28992 6.63574H6.68359V7.24207H7.28992V6.63574Z" fill="#FFBD82"/>
<path d="M7.89148 6.63574H7.28516V7.24207H7.89148V6.63574Z" fill="#FFBD82"/>
<path d="M8.49695 6.63574H7.89062V7.24207H8.49695V6.63574Z" fill="#FFBD82"/>
<path d="M9.10242 6.63574H8.49609V7.24207H9.10242V6.63574Z" fill="#FF8426"/>
<path d="M9.71179 6.63574H9.10547V7.24207H9.71179V6.63574Z" fill="#16171A"/>
<path d="M1.82898 7.24219H1.22266V7.84851H1.82898V7.24219Z" fill="#16171A"/>
<path d="M2.43836 7.24219H1.83203V7.84851H2.43836V7.24219Z" fill="#FAFDFF"/>
<path d="M3.04383 7.24219H2.4375V7.84851H3.04383V7.24219Z" fill="#FFBD82"/>
<path d="M3.64929 7.24219H3.04297V7.84851H3.64929V7.24219Z" fill="#FFBD82"/>
<path d="M4.25476 7.24219H3.64844V7.84851H4.25476V7.24219Z" fill="#FFBD82"/>
<path d="M4.86414 7.24219H4.25781V7.84851H4.86414V7.24219Z" fill="#FFBD82"/>
<path d="M5.46961 7.24219H4.86328V7.84851H5.46961V7.24219Z" fill="#FFBD82"/>
<path d="M6.07508 7.24219H5.46875V7.84851H6.07508V7.24219Z" fill="#FFBD82"/>
<path d="M6.68054 7.24219H6.07422V7.84851H6.68054V7.24219Z" fill="#FFBD82"/>
<path d="M7.28992 7.24219H6.68359V7.84851H7.28992V7.24219Z" fill="#FFBD82"/>
<path d="M7.89148 7.24219H7.28516V7.84851H7.89148V7.24219Z" fill="#FFBD82"/>
<path d="M8.49695 7.24219H7.89062V7.84851H8.49695V7.24219Z" fill="#FFBD82"/>
<path d="M9.10242 7.24219H8.49609V7.84851H9.10242V7.24219Z" fill="#FF8426"/>
<path d="M9.71179 7.24219H9.10547V7.84851H9.71179V7.24219Z" fill="#16171A"/>
<path d="M2.43836 7.84863H1.83203V8.45496H2.43836V7.84863Z" fill="#16171A"/>
<path d="M3.04383 7.84863H2.4375V8.45496H3.04383V7.84863Z" fill="#FAFDFF"/>
<path d="M3.64929 7.84863H3.04297V8.45496H3.64929V7.84863Z" fill="#FFBD82"/>
<path d="M4.25476 7.84863H3.64844V8.45496H4.25476V7.84863Z" fill="#FFBD82"/>
<path d="M4.86414 7.84863H4.25781V8.45496H4.86414V7.84863Z" fill="#FFBD82"/>
<path d="M5.46961 7.84863H4.86328V8.45496H5.46961V7.84863Z" fill="#FFBD82"/>
<path d="M6.07508 7.84863H5.46875V8.45496H6.07508V7.84863Z" fill="#FFBD82"/>
<path d="M6.68054 7.84863H6.07422V8.45496H6.68054V7.84863Z" fill="#FFBD82"/>
<path d="M7.28992 7.84863H6.68359V8.45496H7.28992V7.84863Z" fill="#FFBD82"/>
<path d="M7.89148 7.84863H7.28516V8.45496H7.89148V7.84863Z" fill="#FFBD82"/>
<path d="M8.49695 7.84863H7.89062V8.45496H8.49695V7.84863Z" fill="#FF8426"/>
<path d="M9.10242 7.84863H8.49609V8.45496H9.10242V7.84863Z" fill="#16171A"/>
<path d="M3.04383 8.45508H2.4375V9.0614H3.04383V8.45508Z" fill="#16171A"/>
<path d="M3.64929 8.45508H3.04297V9.0614H3.64929V8.45508Z" fill="#FF8426"/>
<path d="M4.25476 8.45508H3.64844V9.0614H4.25476V8.45508Z" fill="#FF8426"/>
<path d="M4.86414 8.45508H4.25781V9.0614H4.86414V8.45508Z" fill="#FFBD82"/>
<path d="M5.46961 8.45508H4.86328V9.0614H5.46961V8.45508Z" fill="#FFBD82"/>
<path d="M6.07508 8.45508H5.46875V9.0614H6.07508V8.45508Z" fill="#FFBD82"/>
<path d="M6.68054 8.45508H6.07422V9.0614H6.68054V8.45508Z" fill="#FFBD82"/>
<path d="M7.28992 8.45508H6.68359V9.0614H7.28992V8.45508Z" fill="#FF8426"/>
<path d="M7.89148 8.45508H7.28516V9.0614H7.89148V8.45508Z" fill="#FF8426"/>
<path d="M8.49695 8.45508H7.89062V9.0614H8.49695V8.45508Z" fill="#16171A"/>
<path d="M3.64929 9.06152H3.04297V9.66785H3.64929V9.06152Z" fill="#16171A"/>
<path d="M4.25476 9.06152H3.64844V9.66785H4.25476V9.06152Z" fill="#16171A"/>
<path d="M4.86414 9.06152H4.25781V9.66785H4.86414V9.06152Z" fill="#FF8426"/>
<path d="M5.46961 9.06152H4.86328V9.66785H5.46961V9.06152Z" fill="#FF8426"/>
<path d="M6.07508 9.06152H5.46875V9.66785H6.07508V9.06152Z" fill="#FF8426"/>
<path d="M6.68054 9.06152H6.07422V9.66785H6.68054V9.06152Z" fill="#FF8426"/>
<path d="M7.28992 9.06152H6.68359V9.66785H7.28992V9.06152Z" fill="#16171A"/>
<path d="M7.89148 9.06152H7.28516V9.66785H7.89148V9.06152Z" fill="#16171A"/>
<path d="M4.86414 9.66797H4.25781V10.2743H4.86414V9.66797Z" fill="#16171A"/>
<path d="M5.46961 9.66797H4.86328V10.2743H5.46961V9.66797Z" fill="#16171A"/>
<path d="M6.07508 9.66797H5.46875V10.2743H6.07508V9.66797Z" fill="#16171A"/>
<path d="M6.68054 9.66797H6.07422V10.2743H6.68054V9.66797Z" fill="#16171A"/>
<path d="M3.64844 7.24231L3.64844 7.84863L4.25476 7.84863L4.25476 7.24231L3.64844 7.24231Z" fill="#16171A"/>
<path d="M3.64844 6.63586L3.64844 7.24219L4.25476 7.24219L4.25476 6.63586L3.64844 6.63586Z" fill="#16171A"/>
<path d="M3.64844 6.02942L3.64844 6.63574L4.25476 6.63574L4.25476 6.02942L3.64844 6.02942Z" fill="#16171A"/>
<path d="M3.64844 5.42297L3.64844 6.0293L4.25476 6.0293L4.25476 5.42297L3.64844 5.42297Z" fill="#16171A"/>
<path d="M3.64844 4.8175L3.64844 5.42383L4.25476 5.42383L4.25476 4.8175L3.64844 4.8175Z" fill="#16171A"/>
<path d="M3.64844 4.21106L3.64844 4.81738L4.25476 4.81738L4.25476 4.21106L3.64844 4.21106Z" fill="#16171A"/>
<path d="M3.64844 3.60461L3.64844 4.21094L4.25476 4.21094L4.25476 3.60461L3.64844 3.60461Z" fill="#16171A"/>
<path d="M4.25391 7.84875L4.25391 8.45508L4.86023 8.45508L4.86023 7.84875L4.25391 7.84875Z" fill="#16171A"/>
<path d="M4.25391 7.24231L4.25391 7.84863L4.86023 7.84863L4.86023 7.24231L4.25391 7.24231Z" fill="#FAFDFF"/>
<path d="M4.25391 6.63586L4.25391 7.24219L4.86023 7.24219L4.86023 6.63586L4.25391 6.63586Z" fill="#16171A"/>
<path d="M4.25391 6.02942L4.25391 6.63574L4.86023 6.63574L4.86023 6.02942L4.25391 6.02942Z" fill="#FAFDFF"/>
<path d="M4.25391 5.42297L4.25391 6.0293L4.86023 6.0293L4.86023 5.42297L4.25391 5.42297Z" fill="#FAFDFF"/>
<path d="M4.25391 4.81653L4.25391 5.42285L4.86023 5.42285L4.86023 4.81653L4.25391 4.81653Z" fill="#FAFDFF"/>
<path d="M4.25391 4.21008L4.25391 4.81641L4.86023 4.81641L4.86023 4.21008L4.25391 4.21008Z" fill="#FAFDFF"/>
<path d="M4.25391 3.60461L4.25391 4.21094L4.86023 4.21094L4.86023 3.60461L4.25391 3.60461Z" fill="#FAFDFF"/>
<path d="M4.25391 2.99817L4.25391 3.60449L4.86023 3.60449L4.86023 2.99817L4.25391 2.99817Z" fill="#16171A"/>
<path d="M4.86328 7.84875L4.86328 8.45508L5.46961 8.45508L5.46961 7.84875L4.86328 7.84875Z" fill="#16171A"/>
<path d="M4.86328 7.24231L4.86328 7.84863L5.46961 7.84863L5.46961 7.24231L4.86328 7.24231Z" fill="#B9B9B9"/>
<path d="M4.86328 6.63586L4.86328 7.24219L5.46961 7.24219L5.46961 6.63586L4.86328 6.63586Z" fill="#16171A"/>
<path d="M4.86328 6.02942L4.86328 6.63574L5.46961 6.63574L5.46961 6.02942L4.86328 6.02942Z" fill="#B9B9B9"/>
<path d="M4.86328 5.42297L4.86328 6.0293L5.46961 6.0293L5.46961 5.42297L4.86328 5.42297Z" fill="#B9B9B9"/>
<path d="M4.86328 4.81653L4.86328 5.42285L5.46961 5.42285L5.46961 4.81653L4.86328 4.81653Z" fill="#B9B9B9"/>
<path d="M4.86328 4.21008L4.86328 4.81641L5.46961 4.81641L5.46961 4.21008L4.86328 4.21008Z" fill="#B9B9B9"/>
<path d="M4.86328 3.60461L4.86328 4.21094L5.46961 4.21094L5.46961 3.60461L4.86328 3.60461Z" fill="#B9B9B9"/>
<path d="M4.86328 2.99817L4.86328 3.60449L5.46961 3.60449L5.46961 2.99817L4.86328 2.99817Z" fill="#606060"/>
<path d="M4.86328 2.39172L4.86328 2.99805L5.46961 2.99805L5.46961 2.39172L4.86328 2.39172Z" fill="#16171A"/>
<path d="M5.46875 7.84875L5.46875 8.45508L6.07508 8.45508L6.07508 7.84875L5.46875 7.84875Z" fill="#16171A"/>
<path d="M5.46875 7.24231L5.46875 7.84863L6.07508 7.84863L6.07508 7.24231L5.46875 7.24231Z" fill="#B9B9B9"/>
<path d="M5.46875 6.63684L5.46875 7.24316L6.07508 7.24316L6.07508 6.63684L5.46875 6.63684Z" fill="#16171A"/>
<path d="M5.46875 6.03039L5.46875 6.63672L6.07508 6.63672L6.07508 6.03039L5.46875 6.03039Z" fill="#B9B9B9"/>
<path d="M5.46875 5.42297L5.46875 6.0293L6.07508 6.0293L6.07508 5.42297L5.46875 5.42297Z" fill="#B9B9B9"/>
<path d="M5.46875 4.81653L5.46875 5.42285L6.07508 5.42285L6.07508 4.81653L5.46875 4.81653Z" fill="#B9B9B9"/>
<path d="M5.46875 4.21008L5.46875 4.81641L6.07508 4.81641L6.07508 4.21008L5.46875 4.21008Z" fill="#B9B9B9"/>
<path d="M5.46875 3.60461L5.46875 4.21094L6.07508 4.21094L6.07508 3.60461L5.46875 3.60461Z" fill="#B9B9B9"/>
<path d="M5.46875 2.99817L5.46875 3.60449L6.07508 3.60449L6.07508 2.99817L5.46875 2.99817Z" fill="#606060"/>
<path d="M5.46875 2.39172L5.46875 2.99805L6.07508 2.99805L6.07508 2.39172L5.46875 2.39172Z" fill="#16171A"/>
<path d="M6.07422 7.84875L6.07422 8.45508L6.68054 8.45508L6.68054 7.84875L6.07422 7.84875Z" fill="#16171A"/>
<path d="M6.07422 7.24231L6.07422 7.84863L6.68054 7.84863L6.68054 7.24231L6.07422 7.24231Z" fill="#606060"/>
<path d="M6.07422 6.63586L6.07422 7.24219L6.68054 7.24219L6.68054 6.63586L6.07422 6.63586Z" fill="#16171A"/>
<path d="M6.07422 6.02942L6.07422 6.63574L6.68054 6.63574L6.68054 6.02942L6.07422 6.02942Z" fill="#606060"/>
<path d="M6.07422 5.42297L6.07422 6.0293L6.68054 6.0293L6.68054 5.42297L6.07422 5.42297Z" fill="#606060"/>
<path d="M6.07422 4.8175L6.07422 5.42383L6.68054 5.42383L6.68054 4.8175L6.07422 4.8175Z" fill="#606060"/>
<path d="M6.07422 4.21106L6.07422 4.81738L6.68054 4.81738L6.68054 4.21106L6.07422 4.21106Z" fill="#606060"/>
<path d="M6.07422 3.60461L6.07422 4.21094L6.68054 4.21094L6.68054 3.60461L6.07422 3.60461Z" fill="#606060"/>
<path d="M6.07422 2.99817L6.07422 3.60449L6.68054 3.60449L6.68054 2.99817L6.07422 2.99817Z" fill="#16171A"/>
<path d="M6.67969 7.24231L6.67969 7.84863L7.28601 7.84863L7.28601 7.24231L6.67969 7.24231Z" fill="#16171A"/>
<path d="M6.67969 6.63586L6.67969 7.24219L7.28601 7.24219L7.28601 6.63586L6.67969 6.63586Z" fill="#16171A"/>
<path d="M6.67969 6.02942L6.67969 6.63574L7.28601 6.63574L7.28601 6.02942L6.67969 6.02942Z" fill="#16171A"/>
<path d="M6.67969 5.42297L6.67969 6.0293L7.28601 6.0293L7.28601 5.42297L6.67969 5.42297Z" fill="#16171A"/>
<path d="M6.67969 4.8175L6.67969 5.42383L7.28601 5.42383L7.28601 4.8175L6.67969 4.8175Z" fill="#16171A"/>
<path d="M6.67969 4.21106L6.67969 4.81738L7.28601 4.81738L7.28601 4.21106L6.67969 4.21106Z" fill="#16171A"/>
<path d="M6.67969 3.60461L6.67969 4.21094L7.28601 4.21094L7.28601 3.60461L6.67969 3.60461Z" fill="#16171A"/>
</svg>
