<svg width="13" height="13" viewBox="0 0 13 13" fill="none" xmlns="http://www.w3.org/2000/svg">
<path fill-rule="evenodd" clip-rule="evenodd" d="M4.42146 0C4.0767 0 3.74606 0.136967 3.50227 0.380768C3.25849 0.624569 3.12153 0.955234 3.12153 1.30002V1.82003C3.12153 2.25082 3.47073 2.60004 3.90149 2.60004C4.33225 2.60004 4.68145 2.25082 4.68145 1.82003V1.56003H11.4411V7.80013H5.26421L5.49295 7.57138C5.79754 7.26677 5.79754 6.77289 5.49295 6.46828C5.18836 6.16366 4.69451 6.16366 4.38992 6.46828L2.83001 8.0283C2.72465 8.13367 2.65574 8.26167 2.62327 8.39665C2.61512 8.43043 2.60918 8.46506 2.60559 8.50039C2.60293 8.52661 2.60156 8.55322 2.60156 8.58014C2.60156 8.80198 2.69416 9.00218 2.8428 9.14421L4.38992 10.6914C4.69451 10.996 5.18836 10.996 5.49295 10.6914C5.79754 10.3868 5.79754 9.89294 5.49295 9.58833L5.26479 9.36016H11.7011C12.0458 9.36016 12.3765 9.2232 12.6203 8.97939C12.864 8.73559 13.001 8.40492 13.001 8.06014V1.30002C13.001 0.955236 12.864 0.62457 12.6203 0.380768C12.3765 0.136966 12.0458 0 11.7011 0H4.42146ZM0.38074 4.02074C0.624524 3.77694 0.955166 3.63997 1.29993 3.63997H7.73784L7.50969 3.41181C7.2051 3.10719 7.2051 2.61332 7.50969 2.3087C7.81429 2.00409 8.30813 2.00409 8.61272 2.3087L10.1726 3.86873C10.4772 4.17334 10.4772 4.66722 10.1726 4.97183L8.61272 6.53186C8.30813 6.83647 7.81429 6.83647 7.50969 6.53186C7.2051 6.22725 7.2051 5.73337 7.50969 5.42875L7.73844 5.2H1.55991V11.4401H8.31954V11.1801C8.31954 10.7493 8.66874 10.4001 9.0995 10.4001C9.53026 10.4001 9.87946 10.7493 9.87946 11.1801V11.7001C9.87946 12.0449 9.74251 12.3756 9.49872 12.6194C9.25493 12.8632 8.92429 13.0001 8.57953 13.0001H1.29993C0.955168 13.0001 0.624525 12.8632 0.38074 12.6194C0.136956 12.3756 0 12.0449 0 11.7001V4.93999C0 4.5952 0.136957 4.26454 0.38074 4.02074Z" fill="#7E7E7E"/>
</svg>
