<svg id="animatedSVG" width="165" height="45" viewBox="0 0 165 45" fill="none" xmlns="http://www.w3.org/2000/svg">
    <rect width="100%" height="100%" fill="#f0f0f0" />


    <rect x="2" y="8" width="2" height="2" fill="black"/>
<rect x="163" y="39" width="2" height="4" transform="rotate(-180 163 39)" fill="black"/>
<rect x="4" y="35" width="4" height="2" transform="rotate(90 4 35)" fill="black"/>
<rect x="10" y="33" width="2" height="2" transform="rotate(90 10 33)" fill="#FFBD82"/>
<rect x="155" y="35" width="2.00001" height="145" transform="rotate(90 155 35)" fill="#FFBD82"/>
<rect x="161" y="10" width="4" height="2" transform="rotate(-90 161 10)" fill="black"/>
<rect x="2" y="6" width="2" height="2" fill="black"/>
<rect x="161" y="41" width="2" height="2" transform="rotate(-180 161 41)" fill="black"/>
<rect x="6" y="39" width="2" height="2" transform="rotate(90 6 39)" fill="black"/>
<rect x="4" y="4" width="2" height="2" fill="black"/>
<rect x="8" y="41" width="2" height="2" transform="rotate(90 8 41)" fill="black"/>
<rect x="159" y="6" width="2" height="2" transform="rotate(-90 159 6)" fill="black"/>
<rect x="6" y="2" width="4" height="2" fill="black"/>
<rect x="159" y="43" width="4" height="2" transform="rotate(-180 159 43)" fill="black"/>
<path fill-rule="evenodd" clip-rule="evenodd" d="M4 35H2V29H4L4 31L6 31V33H8V35L10 35V37L155 37V35H157V33L159 33V31L161 31V29H163V35H161V39H159V41H155V43L10 43V41H6L6 39H4V37L4 35Z" fill="#EE7000"/>
<rect x="10" y="41" width="2" height="2" transform="rotate(90 10 41)" fill="black"/>
<rect x="155" y="4" width="2" height="4" transform="rotate(-90 155 4)" fill="black"/>
<rect x="10" width="145" height="2" fill="black"/>
<rect x="10" y="43" width="145" height="2" fill="black"/>
<rect y="10" width="2" height="25" fill="black"/>
<rect x="165" y="35" width="2" height="25" transform="rotate(-180 165 35)" fill="black"/>
<path fill-rule="evenodd" clip-rule="evenodd" d="M155 4L10 3.99999V2L155 2.00001V4ZM157 6L8 5.99999V4H155L157 4.00001V6ZM159 8L6 7.99999V6H157L159 6.00001V8ZM159 31H4L4 29L4 27L126.353 27L2 27V9.99999L158.965 10L4 9.99999L4 8H159L161 8.00001V10H163V27L161 27V29V31L159 31ZM155 33L159 33V31L6 31L6 33H155ZM155 33V35L10 35V33L155 33Z" fill="#FF9332"/>
<rect x="155" y="2" width="2.00001" height="145" transform="rotate(90 155 2)" fill="#FFBD82"/>
<rect x="6" y="6" width="2" height="2" transform="rotate(90 6 6)" fill="#FFBD82"/>
<rect x="4" y="10" width="4" height="2" transform="rotate(90 4 10)" fill="#FFBD82"/>
<rect x="8" y="4" width="2" height="2" transform="rotate(90 8 4)" fill="#FFBD82"/>
<rect x="10" y="4" width="2" height="2" transform="rotate(90 10 4)" fill="#FFBD82"/>
<rect x="159" y="4" width="2" height="4" transform="rotate(90 159 4)" fill="#FFBD82"/>
<rect x="161" y="6" width="2" height="2" transform="rotate(90 161 6)" fill="#FFBD82"/>
<rect x="163" y="10" width="4" height="2" transform="rotate(90 163 10)" fill="#FFBD82"/>
<rect width="6" height="4" transform="matrix(-1.31134e-07 -1 -1 1.31134e-07 37 43)" fill="#FFDDBE"/>
<rect width="6" height="4" transform="matrix(-1.31134e-07 -1 -1 1.31134e-07 135 43)" fill="#FFDDBE"/>
<rect width="6" height="3" transform="matrix(-1.31134e-07 -1 -1 1.31134e-07 32 43)" fill="#FFDDBE"/>
<rect width="6" height="3" transform="matrix(-1.31134e-07 -1 -1 1.31134e-07 130 43)" fill="#FFDDBE"/>
<rect width="6" height="2" transform="matrix(-1.31134e-07 -1 -1 1.31134e-07 28 43)" fill="#FFDDBE"/>
<rect width="6" height="2" transform="matrix(-1.31134e-07 -1 -1 1.31134e-07 126 43)" fill="#FFDDBE"/>
<rect width="6" height="0.999999" transform="matrix(-1.31134e-07 -1 -1 1.31134e-07 25 43)" fill="#FFDDBE"/>
<rect width="6" height="0.999999" transform="matrix(-1.31134e-07 -1 -1 1.31134e-07 123 43)" fill="#FFDDBE"/>
<rect x="4" y="27" width="4" height="2" transform="rotate(90 4 27)" fill="#FFBD82"/>
<rect x="8" y="33" width="2" height="2" transform="rotate(90 8 33)" fill="#FFBD82"/>
<rect x="6" y="31" width="2" height="2" transform="rotate(90 6 31)" fill="#FFBD82"/>
<rect x="159" y="35" width="4" height="2" transform="rotate(-180 159 35)" fill="#FFBD82"/>
<rect x="161" y="33" width="2" height="2" transform="rotate(-180 161 33)" fill="#FFBD82"/>
<rect x="163" y="29" width="2" height="4" transform="rotate(-180 163 29)" fill="#FFBD82"/>
    <!-- Элемент прямоугольника, который будет заполняться анимацией -->
    <rect id="loadingRect" width="0" height="100%" fill="green">
        <!-- Анимация изменения ширины прямоугольника -->
        <animate id="animation" attributeName="width" from="0" to="100%" dur="2s" fill="freeze" />
    </rect>

    <path d="M16.8596 16.3095H16.0877H15.3158V17.0814H14.5438V17.8533V18.6252V20.1691V20.941V21.7129H15.3158V22.4849H16.0877H16.8596H17.6315H18.4035H19.1754V21.7129H19.9473V20.941H21.4912V22.4849H20.7192V23.2568H19.9473V24.0287H17.6315H16.8596H14.5438V23.2568H13.7719V22.4849H13V20.941V20.1691V19.3972V18.6252V16.3095H13.7719V15.5376H14.5438V14.7656H16.0877H16.8596H17.6315H19.9473V15.5376H20.7192V16.3095H21.4912V17.8533H19.9473V17.0814H19.1754V16.3095H18.4035H17.6315H16.8596Z" fill="#333333"/>
<path d="M29.9865 20.1691H24.583V24.0287H23.8111H23.0391V23.2568V22.4849V21.7129V20.1691V19.3972V18.6252V17.8533V17.0814V16.3095V15.5376V14.7656H23.8111H24.583V18.6252H29.9865V14.7656H31.5303V16.3095V22.4849V24.0287H29.9865V20.1691Z" fill="#333333"/>
<path d="M33.0783 23.2568V22.4849V20.941V19.3972V18.6252V17.8533H33.8502V17.0814H34.6221V16.3095H35.3941V15.5376H36.166V14.7656H38.4818V15.5376H39.2537V16.3095H40.0256V17.0814H40.7975V17.8533H41.5695V18.6252V19.3972V20.941V22.4849V23.2568V24.0287H40.7975H40.0256V23.2568V22.4849V20.941H34.6221V22.4849V23.2568V24.0287H33.8502H33.0783V23.2568ZM40.0256 19.3972V18.6252H39.2537V17.8533H38.4818V17.0814H37.7098V16.3095H36.9379V17.0814H36.166V17.8533H35.3941V18.6252H34.6221V19.3972H40.0256Z" fill="#333333"/>
<path d="M50.0647 17.8533V15.5376V14.7656H51.6086V15.5376V16.3095V22.4849V24.0287H50.0647V22.4849H49.2928V21.7129H48.5209V20.941H47.749V20.1691H46.977V19.3972H46.2051V18.6252H45.4332V17.8533H44.6613V20.1691V24.0287H43.8893H43.1174V23.2568V22.4849V21.7129V20.1691V19.3972V18.6252V17.8533V17.0814V16.3095V15.5376V14.7656H43.8893H44.6613V15.5376H45.4332V16.3095H46.2051V17.0814H46.977V17.8533H47.749V18.6252H48.5209V19.3972H49.2928V20.1691H50.0647V17.8533Z" fill="#333333"/>
<path d="M57.0162 16.3095H56.2443H55.4723V17.0814H54.7004V17.8533V18.6252V20.1691V20.941V21.7129H55.4723V22.4849H56.2443H57.0162H57.7881H58.56H59.332V21.7129H60.1039V20.941V20.1691H57.0162H56.2443V18.6252H57.0162H60.1039H61.6477V20.941V21.7129V22.4849H60.8758V23.2568H60.1039V24.0287H57.7881H57.0162H54.7004V23.2568H53.9285V22.4849H53.1566V20.941V20.1691V19.3972V18.6252V16.3095H53.9285V15.5376H54.7004V14.7656H56.2443H57.0162H57.7881H60.8758V15.5376H61.6477V17.0814H60.1039V16.3095H58.56H57.7881H57.0162Z" fill="#333333"/>
<path d="M63.1957 16.3095V15.5376V14.7656H63.9676H64.7395H67.0553H71.6869V16.3095H70.9149H70.143H68.5992H67.8272H67.0553H65.5115H64.7395V18.6252H70.143V20.1691H64.7395V22.4849H65.5115H67.0553H67.8272H68.5992H70.143H70.9149H71.6869V24.0287H67.0553H64.7395H63.9676H63.1957V23.2568V22.4849V21.7129V20.1691V19.3972V18.6252V17.8533V17.0814V16.3095Z" fill="#333333"/>
<path d="M90.2213 17.8533V15.5376V14.7656H91.7652V15.5376V16.3095V22.4849V24.0287H90.2213V22.4849H89.4494V21.7129H88.6775V20.941H87.9055V20.1691H87.1336V19.3972H86.3617V18.6252H85.5898V17.8533H84.8178V20.1691V24.0287H84.0459H83.274V23.2568V22.4849V21.7129V20.1691V19.3972V18.6252V17.8533V17.0814V16.3095V15.5376V14.7656H84.0459H84.8178V15.5376H85.5898V16.3095H86.3617V17.0814H87.1336V17.8533H87.9055V18.6252H88.6775V19.3972H89.4494V20.1691H90.2213V17.8533Z" fill="#333333"/>
<path d="M93.3131 16.3095V15.5376V14.7656H94.085H94.857H97.1727H101.804V16.3095H101.032H100.26H98.7166H97.9447H97.1727H95.6289H94.857V18.6252H100.26V20.1691H94.857V22.4849H95.6289H97.1727H97.9447H98.7166H100.26H101.032H101.804V24.0287H97.1727H94.857H94.085H93.3131V23.2568V22.4849V21.7129V20.1691V19.3972V18.6252V17.8533V17.0814V16.3095Z" fill="#333333"/>
<path d="M103.352 16.3095V15.5376V14.7656H104.124H104.896H107.212H111.072V16.3095H110.3H109.528H107.984V20.1691V24.0287H106.44V20.1691V16.3095H105.668H103.352Z" fill="#333333"/>
<path d="M120.339 18.6252V14.7656H121.111H121.883V15.5376V16.3095V17.0814V18.6252V19.3972V20.1691V20.941V21.7129V22.4849V23.2568V24.0287H121.111H120.339V23.2568H119.567V22.4849H118.795V21.7129H118.023V20.941H117.251V21.7129H116.479V22.4849H115.707V23.2568H114.935V24.0287H113.391V23.2568V22.4849V16.3095V14.7656H114.935V18.6252V20.941H115.707V20.1691H116.479V19.3972H117.251V18.6252H118.023V19.3972H118.795V20.1691H119.567V20.941H120.339V18.6252Z" fill="#333333"/>
<path d="M127.29 16.3095H126.518H125.746V17.0814H124.974V17.8533V18.6252V20.1691V20.941V21.7129H125.746V22.4849H126.518H127.29H128.062H128.834H129.606V21.7129H130.378V20.941V20.1691V17.8533V17.0814H129.606V16.3095H128.834H128.062H127.29ZM131.922 20.1691V22.4849H131.15V23.2568H130.378V24.0287H128.062H127.29H124.974V23.2568H124.202V22.4849H123.431V20.941V20.1691V19.3972V18.6252V16.3095H124.202V15.5376H124.974V14.7656H126.518H127.29H128.062H130.378V15.5376H131.15V16.3095H131.922V17.8533V20.1691Z" fill="#333333"/>
<path d="M133.47 16.3095V15.5376V14.7656H134.242H135.014H137.329H140.417V15.5376H141.189V16.3095H141.961V17.8533V18.6252V19.3972H141.189V20.1691H140.417V20.941V21.7129H141.189V22.4849H141.961V23.2568V24.0287H140.417V23.2568H139.645V22.4849H138.873V21.7129H138.101V20.941H137.329H135.014V24.0287H133.47V20.941V20.1691V19.3972V18.6252V17.8533V17.0814V16.3095ZM137.329 16.3095H135.785H135.014V18.6252V19.3972H135.785H136.557H137.329H138.101H138.873H139.645V18.6252H140.417V17.8533V17.0814H139.645V16.3095H138.873H138.101H137.329Z" fill="#333333"/>
<path d="M152 16.3095H151.228V17.0814H150.456V17.8533H149.684V18.6252H148.912V19.3972V20.1691H149.684V20.941H150.456V21.7129H151.228V22.4849H152V24.0287H150.456V23.2568H149.684V22.4849H148.912V21.7129H148.14V20.941H147.368H146.597V21.7129H145.825V22.4849H145.053V24.0287H144.281H143.509V23.2568V22.4849V21.7129V20.1691V19.3972V18.6252V17.8533V17.0814V16.3095V15.5376V14.7656H144.281H145.053V20.1691H145.825V19.3972H146.597V18.6252H147.368V17.8533H148.14V17.0814H148.912V16.3095H149.684V15.5376H150.456V14.7656H151.228H152V15.5376V16.3095Z" fill="#333333"/>
<path d="M16.8596 15.5438H16.0877H15.3158V16.3158H14.5438V17.0877V17.8596V19.4035V20.1754V20.9473H15.3158V21.7192H16.0877H16.8596H17.6315H18.4035H19.1754V20.9473H19.9473V20.1754H21.4912V21.7192H20.7192V22.4912H19.9473V23.2631H17.6315H16.8596H14.5438V22.4912H13.7719V21.7192H13V20.1754V19.4035V18.6315V17.8596V15.5438H13.7719V14.7719H14.5438V14H16.0877H16.8596H17.6315H19.9473V14.7719H20.7192V15.5438H21.4912V17.0877H19.9473V16.3158H19.1754V15.5438H18.4035H17.6315H16.8596Z" fill="white"/>
<path d="M29.9865 19.4035H24.583V23.2631H23.8111H23.0391V22.4912V21.7192V20.9473V19.4035V18.6315V17.8596V17.0877V16.3158V15.5438V14.7719V14H23.8111H24.583V17.8596H29.9865V14H31.5303V15.5438V21.7192V23.2631H29.9865V19.4035Z" fill="white"/>
<path d="M33.0783 22.4912V21.7192V20.1754V18.6315V17.8596V17.0877H33.8502V16.3158H34.6221V15.5438H35.3941V14.7719H36.166V14H38.4818V14.7719H39.2537V15.5438H40.0256V16.3158H40.7975V17.0877H41.5695V17.8596V18.6315V20.1754V21.7192V22.4912V23.2631H40.7975H40.0256V22.4912V21.7192V20.1754H34.6221V21.7192V22.4912V23.2631H33.8502H33.0783V22.4912ZM40.0256 18.6315V17.8596H39.2537V17.0877H38.4818V16.3158H37.7098V15.5438H36.9379V16.3158H36.166V17.0877H35.3941V17.8596H34.6221V18.6315H40.0256Z" fill="white"/>
<path d="M50.0647 17.0877V14.7719V14H51.6086V14.7719V15.5438V21.7192V23.2631H50.0647V21.7192H49.2928V20.9473H48.5209V20.1754H47.749V19.4035H46.977V18.6315H46.2051V17.8596H45.4332V17.0877H44.6613V19.4035V23.2631H43.8893H43.1174V22.4912V21.7192V20.9473V19.4035V18.6315V17.8596V17.0877V16.3158V15.5438V14.7719V14H43.8893H44.6613V14.7719H45.4332V15.5438H46.2051V16.3158H46.977V17.0877H47.749V17.8596H48.5209V18.6315H49.2928V19.4035H50.0647V17.0877Z" fill="white"/>
<path d="M57.0162 15.5438H56.2443H55.4723V16.3158H54.7004V17.0877V17.8596V19.4035V20.1754V20.9473H55.4723V21.7192H56.2443H57.0162H57.7881H58.56H59.332V20.9473H60.1039V20.1754V19.4035H57.0162H56.2443V17.8596H57.0162H60.1039H61.6477V20.1754V20.9473V21.7192H60.8758V22.4912H60.1039V23.2631H57.7881H57.0162H54.7004V22.4912H53.9285V21.7192H53.1566V20.1754V19.4035V18.6315V17.8596V15.5438H53.9285V14.7719H54.7004V14H56.2443H57.0162H57.7881H60.8758V14.7719H61.6477V16.3158H60.1039V15.5438H58.56H57.7881H57.0162Z" fill="white"/>
<path d="M63.1957 15.5438V14.7719V14H63.9676H64.7395H67.0553H71.6869V15.5438H70.9149H70.143H68.5992H67.8272H67.0553H65.5115H64.7395V17.8596H70.143V19.4035H64.7395V21.7192H65.5115H67.0553H67.8272H68.5992H70.143H70.9149H71.6869V23.2631H67.0553H64.7395H63.9676H63.1957V22.4912V21.7192V20.9473V19.4035V18.6315V17.8596V17.0877V16.3158V15.5438Z" fill="white"/>
<path d="M90.2213 17.0877V14.7719V14H91.7652V14.7719V15.5438V21.7192V23.2631H90.2213V21.7192H89.4494V20.9473H88.6775V20.1754H87.9055V19.4035H87.1336V18.6315H86.3617V17.8596H85.5898V17.0877H84.8178V19.4035V23.2631H84.0459H83.274V22.4912V21.7192V20.9473V19.4035V18.6315V17.8596V17.0877V16.3158V15.5438V14.7719V14H84.0459H84.8178V14.7719H85.5898V15.5438H86.3617V16.3158H87.1336V17.0877H87.9055V17.8596H88.6775V18.6315H89.4494V19.4035H90.2213V17.0877Z" fill="white"/>
<path d="M93.3131 15.5438V14.7719V14H94.085H94.857H97.1727H101.804V15.5438H101.032H100.26H98.7166H97.9447H97.1727H95.6289H94.857V17.8596H100.26V19.4035H94.857V21.7192H95.6289H97.1727H97.9447H98.7166H100.26H101.032H101.804V23.2631H97.1727H94.857H94.085H93.3131V22.4912V21.7192V20.9473V19.4035V18.6315V17.8596V17.0877V16.3158V15.5438Z" fill="white"/>
<path d="M103.352 15.5438V14.7719V14H104.124H104.896H107.212H111.072V15.5438H110.3H109.528H107.984V19.4035V23.2631H106.44V19.4035V15.5438H105.668H103.352Z" fill="white"/>
<path d="M120.339 17.8596V14H121.111H121.883V14.7719V15.5438V16.3158V17.8596V18.6315V19.4035V20.1754V20.9473V21.7192V22.4912V23.2631H121.111H120.339V22.4912H119.567V21.7192H118.795V20.9473H118.023V20.1754H117.251V20.9473H116.479V21.7192H115.707V22.4912H114.935V23.2631H113.391V22.4912V21.7192V15.5438V14H114.935V17.8596V20.1754H115.707V19.4035H116.479V18.6315H117.251V17.8596H118.023V18.6315H118.795V19.4035H119.567V20.1754H120.339V17.8596Z" fill="white"/>
<path d="M127.29 15.5438H126.518H125.746V16.3158H124.974V17.0877V17.8596V19.4035V20.1754V20.9473H125.746V21.7192H126.518H127.29H128.062H128.834H129.606V20.9473H130.378V20.1754V19.4035V17.0877V16.3158H129.606V15.5438H128.834H128.062H127.29ZM131.922 19.4035V21.7192H131.15V22.4912H130.378V23.2631H128.062H127.29H124.974V22.4912H124.202V21.7192H123.431V20.1754V19.4035V18.6315V17.8596V15.5438H124.202V14.7719H124.974V14H126.518H127.29H128.062H130.378V14.7719H131.15V15.5438H131.922V17.0877V19.4035Z" fill="white"/>
<path d="M133.47 15.5438V14.7719V14H134.242H135.014H137.329H140.417V14.7719H141.189V15.5438H141.961V17.0877V17.8596V18.6315H141.189V19.4035H140.417V20.1754V20.9473H141.189V21.7192H141.961V22.4912V23.2631H140.417V22.4912H139.645V21.7192H138.873V20.9473H138.101V20.1754H137.329H135.014V23.2631H133.47V20.1754V19.4035V18.6315V17.8596V17.0877V16.3158V15.5438ZM137.329 15.5438H135.785H135.014V17.8596V18.6315H135.785H136.557H137.329H138.101H138.873H139.645V17.8596H140.417V17.0877V16.3158H139.645V15.5438H138.873H138.101H137.329Z" fill="white"/>
<path d="M152 15.5438H151.228V16.3158H150.456V17.0877H149.684V17.8596H148.912V18.6315V19.4035H149.684V20.1754H150.456V20.9473H151.228V21.7192H152V23.2631H150.456V22.4912H149.684V21.7192H148.912V20.9473H148.14V20.1754H147.368H146.597V20.9473H145.825V21.7192H145.053V23.2631H144.281H143.509V22.4912V21.7192V20.9473V19.4035V18.6315V17.8596V17.0877V16.3158V15.5438V14.7719V14H144.281H145.053V19.4035H145.825V18.6315H146.597V17.8596H147.368V17.0877H148.14V16.3158H148.912V15.5438H149.684V14.7719H150.456V14H151.228H152V14.7719V15.5438Z" fill="white"/>
</svg>
