<svg width="210" height="16" viewBox="0 0 210 16" fill="none" xmlns="http://www.w3.org/2000/svg">
<path d="M6.56 3.4H5.3H4.04V4.66H2.78V5.92V7.18V9.7V10.96V12.22H4.04V13.48H5.3H6.56H7.82H9.08H10.34V12.22H11.6V10.96H14.12V13.48H12.86V14.74H11.6V16H7.82H6.56H2.78V14.74H1.52V13.48H0.26V10.96V9.7V8.44V7.18V3.4H1.52V2.14H2.78V0.879999H5.3H6.56H7.82H11.6V2.14H12.86V3.4H14.12V5.92H11.6V4.66H10.34V3.4H9.08H7.82H6.56ZM27.9867 9.7H19.1667V16H17.9067H16.6467V14.74V13.48V12.22V9.7V8.44V7.18V5.92V4.66V3.4V2.14V0.879999H17.9067H19.1667V7.18H27.9867V0.879999H30.5067V3.4V13.48V16H27.9867V9.7ZM39.3334 3.4H38.0734H36.8134V4.66H35.5534V5.92V7.18V9.7V10.96V12.22H36.8134V13.48H38.0734H39.3334H40.5934H41.8534H43.1134V12.22H44.3734V10.96V9.7V5.92V4.66H43.1134V3.4H41.8534H40.5934H39.3334ZM46.8934 9.7V13.48H45.6334V14.74H44.3734V16H40.5934H39.3334H35.5534V14.74H34.2934V13.48H33.0334V10.96V9.7V8.44V7.18V3.4H34.2934V2.14H35.5534V0.879999H38.0734H39.3334H40.5934H44.3734V2.14H45.6334V3.4H46.8934V5.92V9.7ZM55.7202 3.4H54.4602H53.2002V4.66H51.9402V5.92V7.18V9.7V10.96V12.22H53.2002V13.48H54.4602H55.7202H56.9802H58.2402H59.5002V12.22H60.7602V10.96V9.7V5.92V4.66H59.5002V3.4H58.2402H56.9802H55.7202ZM63.2802 9.7V13.48H62.0202V14.74H60.7602V16H56.9802H55.7202H51.9402V14.74H50.6802V13.48H49.4202V10.96V9.7V8.44V7.18V3.4H50.6802V2.14H51.9402V0.879999H54.4602H55.7202H56.9802H60.7602V2.14H62.0202V3.4H63.2802V5.92V9.7ZM68.3269 10.96V12.22H69.5869V13.48H70.8469H72.1069H73.3669H74.6269H75.8869V12.22H77.1469V10.96H75.8869V9.7H74.6269H73.3669H72.1069H68.3269V8.44H67.0669V7.18H65.8069V5.92V4.66V3.4H67.0669V2.14H68.3269V0.879999H70.8469H72.1069H73.3669H77.1469V2.14H78.4069V3.4H79.6669V5.92H77.1469V4.66H75.8869V3.4H74.6269H73.3669H72.1069H70.8469H69.5869V4.66H68.3269V5.92H69.5869V7.18H70.8469H72.1069H73.3669H77.1469V8.44H78.4069V9.7H79.6669V10.96V12.22V13.48H78.4069V14.74H77.1469V16H73.3669H72.1069H68.3269V14.74H67.0669V13.48H65.8069V10.96H68.3269ZM82.1936 3.4V2.14V0.879999H83.4536H84.7136H88.4936H96.0536V3.4H94.7936H93.5336H91.0136H89.7536H88.4936H85.9736H84.7136V7.18H93.5336V9.7H84.7136V13.48H85.9736H88.4936H89.7536H91.0136H93.5336H94.7936H96.0536V16H88.4936H84.7136H83.4536H82.1936V14.74V13.48V12.22V9.7V8.44V7.18V5.92V4.66V3.4ZM126.307 7.18V0.879999H127.567H128.827V2.14V3.4V4.66V7.18V8.44V9.7V10.96V12.22V13.48V14.74V16H127.567H126.307V14.74H125.047V13.48H123.787V12.22H122.527V10.96H121.267V12.22H120.007V13.48H118.747V14.74H117.487V16H114.967V14.74V13.48V3.4V0.879999H117.487V7.18V10.96H118.747V9.7H120.007V8.44H121.267V7.18H122.527V8.44H123.787V9.7H125.047V10.96H126.307V7.18ZM131.354 14.74V13.48V10.96V8.44V7.18V5.92H132.614V4.66H133.874V3.4H135.134V2.14H136.394V0.879999H140.174V2.14H141.434V3.4H142.694V4.66H143.954V5.92H145.214V7.18V8.44V10.96V13.48V14.74V16H143.954H142.694V14.74V13.48V10.96H133.874V13.48V14.74V16H132.614H131.354V14.74ZM142.694 8.44V7.18H141.434V5.92H140.174V4.66H138.914V3.4H137.654V4.66H136.394V5.92H135.134V7.18H133.874V8.44H142.694ZM159.08 16H150.26H149H147.74V14.74V13.48V12.22V9.7V8.44V7.18V5.92V4.66V3.4V2.14V0.879999H149H150.26V13.48H159.08V10.96H161.6V13.48V16H159.08ZM175.467 16H166.647H165.387H164.127V14.74V13.48V12.22V9.7V8.44V7.18V5.92V4.66V3.4V2.14V0.879999H165.387H166.647V13.48H175.467V10.96H177.987V13.48V16H175.467ZM180.514 3.4V2.14V0.879999H181.774H183.034H186.814H194.374V3.4H193.114H191.854H189.334H188.074H186.814H184.294H183.034V7.18H191.854V9.7H183.034V13.48H184.294H186.814H188.074H189.334H191.854H193.114H194.374V16H186.814H183.034H181.774H180.514V14.74V13.48V12.22V9.7V8.44V7.18V5.92V4.66V3.4ZM196.901 3.4V2.14V0.879999H198.161H199.421H203.201H209.501V3.4H208.241H206.981H204.461V9.7V16H201.941V9.7V3.4H200.681H196.901Z" fill="#FF7C06"/>
<path d="M4.04 3.4V3.2H3.84V3.4H4.04ZM4.04 4.66V4.86H4.24V4.66H4.04ZM2.78 4.66V4.46H2.58V4.66H2.78ZM2.78 12.22H2.58V12.42H2.78V12.22ZM4.04 12.22H4.24V12.02H4.04V12.22ZM4.04 13.48H3.84V13.68H4.04V13.48ZM10.34 13.48V13.68H10.54V13.48H10.34ZM10.34 12.22V12.02H10.14V12.22H10.34ZM11.6 12.22V12.42H11.8V12.22H11.6ZM11.6 10.96V10.76H11.4V10.96H11.6ZM14.12 10.96H14.32V10.76H14.12V10.96ZM14.12 13.48V13.68H14.32V13.48H14.12ZM12.86 13.48V13.28H12.66V13.48H12.86ZM12.86 14.74V14.94H13.06V14.74H12.86ZM11.6 14.74V14.54H11.4V14.74H11.6ZM11.6 16V16.2H11.8V16H11.6ZM2.78 16H2.58V16.2H2.78V16ZM2.78 14.74H2.98V14.54H2.78V14.74ZM1.52 14.74H1.32V14.94H1.52V14.74ZM1.52 13.48H1.72V13.28H1.52V13.48ZM0.26 13.48H0.0600001V13.68H0.26V13.48ZM0.26 3.4V3.2H0.0600001V3.4H0.26ZM1.52 3.4V3.6H1.72V3.4H1.52ZM1.52 2.14V1.94H1.32V2.14H1.52ZM2.78 2.14V2.34H2.98V2.14H2.78ZM2.78 0.879999V0.679999H2.58V0.879999H2.78ZM11.6 0.879999H11.8V0.679999H11.6V0.879999ZM11.6 2.14H11.4V2.34H11.6V2.14ZM12.86 2.14H13.06V1.94H12.86V2.14ZM12.86 3.4H12.66V3.6H12.86V3.4ZM14.12 3.4H14.32V3.2H14.12V3.4ZM14.12 5.92V6.12H14.32V5.92H14.12ZM11.6 5.92H11.4V6.12H11.6V5.92ZM11.6 4.66H11.8V4.46H11.6V4.66ZM10.34 4.66H10.14V4.86H10.34V4.66ZM10.34 3.4H10.54V3.2H10.34V3.4ZM6.56 3.2H5.3V3.6H6.56V3.2ZM5.3 3.2H4.04V3.6H5.3V3.2ZM3.84 3.4V4.66H4.24V3.4H3.84ZM4.04 4.46H2.78V4.86H4.04V4.46ZM2.58 4.66V5.92H2.98V4.66H2.58ZM2.58 5.92V7.18H2.98V5.92H2.58ZM2.58 7.18V9.7H2.98V7.18H2.58ZM2.58 9.7V10.96H2.98V9.7H2.58ZM2.58 10.96V12.22H2.98V10.96H2.58ZM2.78 12.42H4.04V12.02H2.78V12.42ZM3.84 12.22V13.48H4.24V12.22H3.84ZM4.04 13.68H5.3V13.28H4.04V13.68ZM5.3 13.68H6.56V13.28H5.3V13.68ZM6.56 13.68H7.82V13.28H6.56V13.68ZM7.82 13.68H9.08V13.28H7.82V13.68ZM9.08 13.68H10.34V13.28H9.08V13.68ZM10.54 13.48V12.22H10.14V13.48H10.54ZM10.34 12.42H11.6V12.02H10.34V12.42ZM11.8 12.22V10.96H11.4V12.22H11.8ZM11.6 11.16H14.12V10.76H11.6V11.16ZM13.92 10.96V13.48H14.32V10.96H13.92ZM14.12 13.28H12.86V13.68H14.12V13.28ZM12.66 13.48V14.74H13.06V13.48H12.66ZM12.86 14.54H11.6V14.94H12.86V14.54ZM11.4 14.74V16H11.8V14.74H11.4ZM11.6 15.8H7.82V16.2H11.6V15.8ZM7.82 15.8H6.56V16.2H7.82V15.8ZM6.56 15.8H2.78V16.2H6.56V15.8ZM2.98 16V14.74H2.58V16H2.98ZM2.78 14.54H1.52V14.94H2.78V14.54ZM1.72 14.74V13.48H1.32V14.74H1.72ZM1.52 13.28H0.26V13.68H1.52V13.28ZM0.46 13.48V10.96H0.0600001V13.48H0.46ZM0.46 10.96V9.7H0.0600001V10.96H0.46ZM0.46 9.7V8.44H0.0600001V9.7H0.46ZM0.46 8.44V7.18H0.0600001V8.44H0.46ZM0.46 7.18V3.4H0.0600001V7.18H0.46ZM0.26 3.6H1.52V3.2H0.26V3.6ZM1.72 3.4V2.14H1.32V3.4H1.72ZM1.52 2.34H2.78V1.94H1.52V2.34ZM2.98 2.14V0.879999H2.58V2.14H2.98ZM2.78 1.08H5.3V0.679999H2.78V1.08ZM5.3 1.08H6.56V0.679999H5.3V1.08ZM6.56 1.08H7.82V0.679999H6.56V1.08ZM7.82 1.08H11.6V0.679999H7.82V1.08ZM11.4 0.879999V2.14H11.8V0.879999H11.4ZM11.6 2.34H12.86V1.94H11.6V2.34ZM12.66 2.14V3.4H13.06V2.14H12.66ZM12.86 3.6H14.12V3.2H12.86V3.6ZM13.92 3.4V5.92H14.32V3.4H13.92ZM14.12 5.72H11.6V6.12H14.12V5.72ZM11.8 5.92V4.66H11.4V5.92H11.8ZM11.6 4.46H10.34V4.86H11.6V4.46ZM10.54 4.66V3.4H10.14V4.66H10.54ZM10.34 3.2H9.08V3.6H10.34V3.2ZM9.08 3.2H7.82V3.6H9.08V3.2ZM7.82 3.2H6.56V3.6H7.82V3.2ZM27.9867 9.7H28.1867V9.5H27.9867V9.7ZM19.1667 9.7V9.5H18.9667V9.7H19.1667ZM19.1667 16V16.2H19.3667V16H19.1667ZM16.6467 16H16.4467V16.2H16.6467V16ZM16.6467 0.879999V0.679999H16.4467V0.879999H16.6467ZM19.1667 0.879999H19.3667V0.679999H19.1667V0.879999ZM19.1667 7.18H18.9667V7.38H19.1667V7.18ZM27.9867 7.18V7.38H28.1867V7.18H27.9867ZM27.9867 0.879999V0.679999H27.7867V0.879999H27.9867ZM30.5067 0.879999H30.7067V0.679999H30.5067V0.879999ZM30.5067 16V16.2H30.7067V16H30.5067ZM27.9867 16H27.7867V16.2H27.9867V16ZM27.9867 9.5H19.1667V9.9H27.9867V9.5ZM18.9667 9.7V16H19.3667V9.7H18.9667ZM19.1667 15.8H17.9067V16.2H19.1667V15.8ZM17.9067 15.8H16.6467V16.2H17.9067V15.8ZM16.8467 16V14.74H16.4467V16H16.8467ZM16.8467 14.74V13.48H16.4467V14.74H16.8467ZM16.8467 13.48V12.22H16.4467V13.48H16.8467ZM16.8467 12.22V9.7H16.4467V12.22H16.8467ZM16.8467 9.7V8.44H16.4467V9.7H16.8467ZM16.8467 8.44V7.18H16.4467V8.44H16.8467ZM16.8467 7.18V5.92H16.4467V7.18H16.8467ZM16.8467 5.92V4.66H16.4467V5.92H16.8467ZM16.8467 4.66V3.4H16.4467V4.66H16.8467ZM16.8467 3.4V2.14H16.4467V3.4H16.8467ZM16.8467 2.14V0.879999H16.4467V2.14H16.8467ZM16.6467 1.08H17.9067V0.679999H16.6467V1.08ZM17.9067 1.08H19.1667V0.679999H17.9067V1.08ZM18.9667 0.879999V7.18H19.3667V0.879999H18.9667ZM19.1667 7.38H27.9867V6.98H19.1667V7.38ZM28.1867 7.18V0.879999H27.7867V7.18H28.1867ZM27.9867 1.08H30.5067V0.679999H27.9867V1.08ZM30.3067 0.879999V3.4H30.7067V0.879999H30.3067ZM30.3067 3.4V13.48H30.7067V3.4H30.3067ZM30.3067 13.48V16H30.7067V13.48H30.3067ZM30.5067 15.8H27.9867V16.2H30.5067V15.8ZM28.1867 16V9.7H27.7867V16H28.1867ZM36.8134 3.4V3.2H36.6134V3.4H36.8134ZM36.8134 4.66V4.86H37.0134V4.66H36.8134ZM35.5534 4.66V4.46H35.3534V4.66H35.5534ZM35.5534 12.22H35.3534V12.42H35.5534V12.22ZM36.8134 12.22H37.0134V12.02H36.8134V12.22ZM36.8134 13.48H36.6134V13.68H36.8134V13.48ZM43.1134 13.48V13.68H43.3134V13.48H43.1134ZM43.1134 12.22V12.02H42.9134V12.22H43.1134ZM44.3734 12.22V12.42H44.5734V12.22H44.3734ZM44.3734 4.66H44.5734V4.46H44.3734V4.66ZM43.1134 4.66H42.9134V4.86H43.1134V4.66ZM43.1134 3.4H43.3134V3.2H43.1134V3.4ZM46.8934 13.48V13.68H47.0934V13.48H46.8934ZM45.6334 13.48V13.28H45.4334V13.48H45.6334ZM45.6334 14.74V14.94H45.8334V14.74H45.6334ZM44.3734 14.74V14.54H44.1734V14.74H44.3734ZM44.3734 16V16.2H44.5734V16H44.3734ZM35.5534 16H35.3534V16.2H35.5534V16ZM35.5534 14.74H35.7534V14.54H35.5534V14.74ZM34.2934 14.74H34.0934V14.94H34.2934V14.74ZM34.2934 13.48H34.4934V13.28H34.2934V13.48ZM33.0334 13.48H32.8334V13.68H33.0334V13.48ZM33.0334 3.4V3.2H32.8334V3.4H33.0334ZM34.2934 3.4V3.6H34.4934V3.4H34.2934ZM34.2934 2.14V1.94H34.0934V2.14H34.2934ZM35.5534 2.14V2.34H35.7534V2.14H35.5534ZM35.5534 0.879999V0.679999H35.3534V0.879999H35.5534ZM44.3734 0.879999H44.5734V0.679999H44.3734V0.879999ZM44.3734 2.14H44.1734V2.34H44.3734V2.14ZM45.6334 2.14H45.8334V1.94H45.6334V2.14ZM45.6334 3.4H45.4334V3.6H45.6334V3.4ZM46.8934 3.4H47.0934V3.2H46.8934V3.4ZM39.3334 3.2H38.0734V3.6H39.3334V3.2ZM38.0734 3.2H36.8134V3.6H38.0734V3.2ZM36.6134 3.4V4.66H37.0134V3.4H36.6134ZM36.8134 4.46H35.5534V4.86H36.8134V4.46ZM35.3534 4.66V5.92H35.7534V4.66H35.3534ZM35.3534 5.92V7.18H35.7534V5.92H35.3534ZM35.3534 7.18V9.7H35.7534V7.18H35.3534ZM35.3534 9.7V10.96H35.7534V9.7H35.3534ZM35.3534 10.96V12.22H35.7534V10.96H35.3534ZM35.5534 12.42H36.8134V12.02H35.5534V12.42ZM36.6134 12.22V13.48H37.0134V12.22H36.6134ZM36.8134 13.68H38.0734V13.28H36.8134V13.68ZM38.0734 13.68H39.3334V13.28H38.0734V13.68ZM39.3334 13.68H40.5934V13.28H39.3334V13.68ZM40.5934 13.68H41.8534V13.28H40.5934V13.68ZM41.8534 13.68H43.1134V13.28H41.8534V13.68ZM43.3134 13.48V12.22H42.9134V13.48H43.3134ZM43.1134 12.42H44.3734V12.02H43.1134V12.42ZM44.5734 12.22V10.96H44.1734V12.22H44.5734ZM44.5734 10.96V9.7H44.1734V10.96H44.5734ZM44.5734 9.7V5.92H44.1734V9.7H44.5734ZM44.5734 5.92V4.66H44.1734V5.92H44.5734ZM44.3734 4.46H43.1134V4.86H44.3734V4.46ZM43.3134 4.66V3.4H42.9134V4.66H43.3134ZM43.1134 3.2H41.8534V3.6H43.1134V3.2ZM41.8534 3.2H40.5934V3.6H41.8534V3.2ZM40.5934 3.2H39.3334V3.6H40.5934V3.2ZM46.6934 9.7V13.48H47.0934V9.7H46.6934ZM46.8934 13.28H45.6334V13.68H46.8934V13.28ZM45.4334 13.48V14.74H45.8334V13.48H45.4334ZM45.6334 14.54H44.3734V14.94H45.6334V14.54ZM44.1734 14.74V16H44.5734V14.74H44.1734ZM44.3734 15.8H40.5934V16.2H44.3734V15.8ZM40.5934 15.8H39.3334V16.2H40.5934V15.8ZM39.3334 15.8H35.5534V16.2H39.3334V15.8ZM35.7534 16V14.74H35.3534V16H35.7534ZM35.5534 14.54H34.2934V14.94H35.5534V14.54ZM34.4934 14.74V13.48H34.0934V14.74H34.4934ZM34.2934 13.28H33.0334V13.68H34.2934V13.28ZM33.2334 13.48V10.96H32.8334V13.48H33.2334ZM33.2334 10.96V9.7H32.8334V10.96H33.2334ZM33.2334 9.7V8.44H32.8334V9.7H33.2334ZM33.2334 8.44V7.18H32.8334V8.44H33.2334ZM33.2334 7.18V3.4H32.8334V7.18H33.2334ZM33.0334 3.6H34.2934V3.2H33.0334V3.6ZM34.4934 3.4V2.14H34.0934V3.4H34.4934ZM34.2934 2.34H35.5534V1.94H34.2934V2.34ZM35.7534 2.14V0.879999H35.3534V2.14H35.7534ZM35.5534 1.08H38.0734V0.679999H35.5534V1.08ZM38.0734 1.08H39.3334V0.679999H38.0734V1.08ZM39.3334 1.08H40.5934V0.679999H39.3334V1.08ZM40.5934 1.08H44.3734V0.679999H40.5934V1.08ZM44.1734 0.879999V2.14H44.5734V0.879999H44.1734ZM44.3734 2.34H45.6334V1.94H44.3734V2.34ZM45.4334 2.14V3.4H45.8334V2.14H45.4334ZM45.6334 3.6H46.8934V3.2H45.6334V3.6ZM46.6934 3.4V5.92H47.0934V3.4H46.6934ZM46.6934 5.92V9.7H47.0934V5.92H46.6934ZM53.2002 3.4V3.2H53.0002V3.4H53.2002ZM53.2002 4.66V4.86H53.4002V4.66H53.2002ZM51.9402 4.66V4.46H51.7402V4.66H51.9402ZM51.9402 12.22H51.7402V12.42H51.9402V12.22ZM53.2002 12.22H53.4002V12.02H53.2002V12.22ZM53.2002 13.48H53.0002V13.68H53.2002V13.48ZM59.5002 13.48V13.68H59.7002V13.48H59.5002ZM59.5002 12.22V12.02H59.3002V12.22H59.5002ZM60.7602 12.22V12.42H60.9602V12.22H60.7602ZM60.7602 4.66H60.9602V4.46H60.7602V4.66ZM59.5002 4.66H59.3002V4.86H59.5002V4.66ZM59.5002 3.4H59.7002V3.2H59.5002V3.4ZM63.2802 13.48V13.68H63.4802V13.48H63.2802ZM62.0202 13.48V13.28H61.8202V13.48H62.0202ZM62.0202 14.74V14.94H62.2202V14.74H62.0202ZM60.7602 14.74V14.54H60.5602V14.74H60.7602ZM60.7602 16V16.2H60.9602V16H60.7602ZM51.9402 16H51.7402V16.2H51.9402V16ZM51.9402 14.74H52.1402V14.54H51.9402V14.74ZM50.6802 14.74H50.4802V14.94H50.6802V14.74ZM50.6802 13.48H50.8802V13.28H50.6802V13.48ZM49.4202 13.48H49.2202V13.68H49.4202V13.48ZM49.4202 3.4V3.2H49.2202V3.4H49.4202ZM50.6802 3.4V3.6H50.8802V3.4H50.6802ZM50.6802 2.14V1.94H50.4802V2.14H50.6802ZM51.9402 2.14V2.34H52.1402V2.14H51.9402ZM51.9402 0.879999V0.679999H51.7402V0.879999H51.9402ZM60.7602 0.879999H60.9602V0.679999H60.7602V0.879999ZM60.7602 2.14H60.5602V2.34H60.7602V2.14ZM62.0202 2.14H62.2202V1.94H62.0202V2.14ZM62.0202 3.4H61.8202V3.6H62.0202V3.4ZM63.2802 3.4H63.4802V3.2H63.2802V3.4ZM55.7202 3.2H54.4602V3.6H55.7202V3.2ZM54.4602 3.2H53.2002V3.6H54.4602V3.2ZM53.0002 3.4V4.66H53.4002V3.4H53.0002ZM53.2002 4.46H51.9402V4.86H53.2002V4.46ZM51.7402 4.66V5.92H52.1402V4.66H51.7402ZM51.7402 5.92V7.18H52.1402V5.92H51.7402ZM51.7402 7.18V9.7H52.1402V7.18H51.7402ZM51.7402 9.7V10.96H52.1402V9.7H51.7402ZM51.7402 10.96V12.22H52.1402V10.96H51.7402ZM51.9402 12.42H53.2002V12.02H51.9402V12.42ZM53.0002 12.22V13.48H53.4002V12.22H53.0002ZM53.2002 13.68H54.4602V13.28H53.2002V13.68ZM54.4602 13.68H55.7202V13.28H54.4602V13.68ZM55.7202 13.68H56.9802V13.28H55.7202V13.68ZM56.9802 13.68H58.2402V13.28H56.9802V13.68ZM58.2402 13.68H59.5002V13.28H58.2402V13.68ZM59.7002 13.48V12.22H59.3002V13.48H59.7002ZM59.5002 12.42H60.7602V12.02H59.5002V12.42ZM60.9602 12.22V10.96H60.5602V12.22H60.9602ZM60.9602 10.96V9.7H60.5602V10.96H60.9602ZM60.9602 9.7V5.92H60.5602V9.7H60.9602ZM60.9602 5.92V4.66H60.5602V5.92H60.9602ZM60.7602 4.46H59.5002V4.86H60.7602V4.46ZM59.7002 4.66V3.4H59.3002V4.66H59.7002ZM59.5002 3.2H58.2402V3.6H59.5002V3.2ZM58.2402 3.2H56.9802V3.6H58.2402V3.2ZM56.9802 3.2H55.7202V3.6H56.9802V3.2ZM63.0802 9.7V13.48H63.4802V9.7H63.0802ZM63.2802 13.28H62.0202V13.68H63.2802V13.28ZM61.8202 13.48V14.74H62.2202V13.48H61.8202ZM62.0202 14.54H60.7602V14.94H62.0202V14.54ZM60.5602 14.74V16H60.9602V14.74H60.5602ZM60.7602 15.8H56.9802V16.2H60.7602V15.8ZM56.9802 15.8H55.7202V16.2H56.9802V15.8ZM55.7202 15.8H51.9402V16.2H55.7202V15.8ZM52.1402 16V14.74H51.7402V16H52.1402ZM51.9402 14.54H50.6802V14.94H51.9402V14.54ZM50.8802 14.74V13.48H50.4802V14.74H50.8802ZM50.6802 13.28H49.4202V13.68H50.6802V13.28ZM49.6202 13.48V10.96H49.2202V13.48H49.6202ZM49.6202 10.96V9.7H49.2202V10.96H49.6202ZM49.6202 9.7V8.44H49.2202V9.7H49.6202ZM49.6202 8.44V7.18H49.2202V8.44H49.6202ZM49.6202 7.18V3.4H49.2202V7.18H49.6202ZM49.4202 3.6H50.6802V3.2H49.4202V3.6ZM50.8802 3.4V2.14H50.4802V3.4H50.8802ZM50.6802 2.34H51.9402V1.94H50.6802V2.34ZM52.1402 2.14V0.879999H51.7402V2.14H52.1402ZM51.9402 1.08H54.4602V0.679999H51.9402V1.08ZM54.4602 1.08H55.7202V0.679999H54.4602V1.08ZM55.7202 1.08H56.9802V0.679999H55.7202V1.08ZM56.9802 1.08H60.7602V0.679999H56.9802V1.08ZM60.5602 0.879999V2.14H60.9602V0.879999H60.5602ZM60.7602 2.34H62.0202V1.94H60.7602V2.34ZM61.8202 2.14V3.4H62.2202V2.14H61.8202ZM62.0202 3.6H63.2802V3.2H62.0202V3.6ZM63.0802 3.4V5.92H63.4802V3.4H63.0802ZM63.0802 5.92V9.7H63.4802V5.92H63.0802ZM68.3269 10.96H68.5269V10.76H68.3269V10.96ZM68.3269 12.22H68.1269V12.42H68.3269V12.22ZM69.5869 12.22H69.7869V12.02H69.5869V12.22ZM69.5869 13.48H69.3869V13.68H69.5869V13.48ZM75.8869 13.48V13.68H76.0869V13.48H75.8869ZM75.8869 12.22V12.02H75.6869V12.22H75.8869ZM77.1469 12.22V12.42H77.3469V12.22H77.1469ZM77.1469 10.96H77.3469V10.76H77.1469V10.96ZM75.8869 10.96H75.6869V11.16H75.8869V10.96ZM75.8869 9.7H76.0869V9.5H75.8869V9.7ZM68.3269 9.7H68.1269V9.9H68.3269V9.7ZM68.3269 8.44H68.5269V8.24H68.3269V8.44ZM67.0669 8.44H66.8669V8.64H67.0669V8.44ZM67.0669 7.18H67.2669V6.98H67.0669V7.18ZM65.8069 7.18H65.6069V7.38H65.8069V7.18ZM65.8069 3.4V3.2H65.6069V3.4H65.8069ZM67.0669 3.4V3.6H67.2669V3.4H67.0669ZM67.0669 2.14V1.94H66.8669V2.14H67.0669ZM68.3269 2.14V2.34H68.5269V2.14H68.3269ZM68.3269 0.879999V0.679999H68.1269V0.879999H68.3269ZM77.1469 0.879999H77.3469V0.679999H77.1469V0.879999ZM77.1469 2.14H76.9469V2.34H77.1469V2.14ZM78.4069 2.14H78.6069V1.94H78.4069V2.14ZM78.4069 3.4H78.2069V3.6H78.4069V3.4ZM79.6669 3.4H79.8669V3.2H79.6669V3.4ZM79.6669 5.92V6.12H79.8669V5.92H79.6669ZM77.1469 5.92H76.9469V6.12H77.1469V5.92ZM77.1469 4.66H77.3469V4.46H77.1469V4.66ZM75.8869 4.66H75.6869V4.86H75.8869V4.66ZM75.8869 3.4H76.0869V3.2H75.8869V3.4ZM69.5869 3.4V3.2H69.3869V3.4H69.5869ZM69.5869 4.66V4.86H69.7869V4.66H69.5869ZM68.3269 4.66V4.46H68.1269V4.66H68.3269ZM68.3269 5.92H68.1269V6.12H68.3269V5.92ZM69.5869 5.92H69.7869V5.72H69.5869V5.92ZM69.5869 7.18H69.3869V7.38H69.5869V7.18ZM77.1469 7.18H77.3469V6.98H77.1469V7.18ZM77.1469 8.44H76.9469V8.64H77.1469V8.44ZM78.4069 8.44H78.6069V8.24H78.4069V8.44ZM78.4069 9.7H78.2069V9.9H78.4069V9.7ZM79.6669 9.7H79.8669V9.5H79.6669V9.7ZM79.6669 13.48V13.68H79.8669V13.48H79.6669ZM78.4069 13.48V13.28H78.2069V13.48H78.4069ZM78.4069 14.74V14.94H78.6069V14.74H78.4069ZM77.1469 14.74V14.54H76.9469V14.74H77.1469ZM77.1469 16V16.2H77.3469V16H77.1469ZM68.3269 16H68.1269V16.2H68.3269V16ZM68.3269 14.74H68.5269V14.54H68.3269V14.74ZM67.0669 14.74H66.8669V14.94H67.0669V14.74ZM67.0669 13.48H67.2669V13.28H67.0669V13.48ZM65.8069 13.48H65.6069V13.68H65.8069V13.48ZM65.8069 10.96V10.76H65.6069V10.96H65.8069ZM68.1269 10.96V12.22H68.5269V10.96H68.1269ZM68.3269 12.42H69.5869V12.02H68.3269V12.42ZM69.3869 12.22V13.48H69.7869V12.22H69.3869ZM69.5869 13.68H70.8469V13.28H69.5869V13.68ZM70.8469 13.68H72.1069V13.28H70.8469V13.68ZM72.1069 13.68H73.3669V13.28H72.1069V13.68ZM73.3669 13.68H74.6269V13.28H73.3669V13.68ZM74.6269 13.68H75.8869V13.28H74.6269V13.68ZM76.0869 13.48V12.22H75.6869V13.48H76.0869ZM75.8869 12.42H77.1469V12.02H75.8869V12.42ZM77.3469 12.22V10.96H76.9469V12.22H77.3469ZM77.1469 10.76H75.8869V11.16H77.1469V10.76ZM76.0869 10.96V9.7H75.6869V10.96H76.0869ZM75.8869 9.5H74.6269V9.9H75.8869V9.5ZM74.6269 9.5H73.3669V9.9H74.6269V9.5ZM73.3669 9.5H72.1069V9.9H73.3669V9.5ZM72.1069 9.5H68.3269V9.9H72.1069V9.5ZM68.5269 9.7V8.44H68.1269V9.7H68.5269ZM68.3269 8.24H67.0669V8.64H68.3269V8.24ZM67.2669 8.44V7.18H66.8669V8.44H67.2669ZM67.0669 6.98H65.8069V7.38H67.0669V6.98ZM66.0069 7.18V5.92H65.6069V7.18H66.0069ZM66.0069 5.92V4.66H65.6069V5.92H66.0069ZM66.0069 4.66V3.4H65.6069V4.66H66.0069ZM65.8069 3.6H67.0669V3.2H65.8069V3.6ZM67.2669 3.4V2.14H66.8669V3.4H67.2669ZM67.0669 2.34H68.3269V1.94H67.0669V2.34ZM68.5269 2.14V0.879999H68.1269V2.14H68.5269ZM68.3269 1.08H70.8469V0.679999H68.3269V1.08ZM70.8469 1.08H72.1069V0.679999H70.8469V1.08ZM72.1069 1.08H73.3669V0.679999H72.1069V1.08ZM73.3669 1.08H77.1469V0.679999H73.3669V1.08ZM76.9469 0.879999V2.14H77.3469V0.879999H76.9469ZM77.1469 2.34H78.4069V1.94H77.1469V2.34ZM78.2069 2.14V3.4H78.6069V2.14H78.2069ZM78.4069 3.6H79.6669V3.2H78.4069V3.6ZM79.4669 3.4V5.92H79.8669V3.4H79.4669ZM79.6669 5.72H77.1469V6.12H79.6669V5.72ZM77.3469 5.92V4.66H76.9469V5.92H77.3469ZM77.1469 4.46H75.8869V4.86H77.1469V4.46ZM76.0869 4.66V3.4H75.6869V4.66H76.0869ZM75.8869 3.2H74.6269V3.6H75.8869V3.2ZM74.6269 3.2H73.3669V3.6H74.6269V3.2ZM73.3669 3.2H72.1069V3.6H73.3669V3.2ZM72.1069 3.2H70.8469V3.6H72.1069V3.2ZM70.8469 3.2H69.5869V3.6H70.8469V3.2ZM69.3869 3.4V4.66H69.7869V3.4H69.3869ZM69.5869 4.46H68.3269V4.86H69.5869V4.46ZM68.1269 4.66V5.92H68.5269V4.66H68.1269ZM68.3269 6.12H69.5869V5.72H68.3269V6.12ZM69.3869 5.92V7.18H69.7869V5.92H69.3869ZM69.5869 7.38H70.8469V6.98H69.5869V7.38ZM70.8469 7.38H72.1069V6.98H70.8469V7.38ZM72.1069 7.38H73.3669V6.98H72.1069V7.38ZM73.3669 7.38H77.1469V6.98H73.3669V7.38ZM76.9469 7.18V8.44H77.3469V7.18H76.9469ZM77.1469 8.64H78.4069V8.24H77.1469V8.64ZM78.2069 8.44V9.7H78.6069V8.44H78.2069ZM78.4069 9.9H79.6669V9.5H78.4069V9.9ZM79.4669 9.7V10.96H79.8669V9.7H79.4669ZM79.4669 10.96V12.22H79.8669V10.96H79.4669ZM79.4669 12.22V13.48H79.8669V12.22H79.4669ZM79.6669 13.28H78.4069V13.68H79.6669V13.28ZM78.2069 13.48V14.74H78.6069V13.48H78.2069ZM78.4069 14.54H77.1469V14.94H78.4069V14.54ZM76.9469 14.74V16H77.3469V14.74H76.9469ZM77.1469 15.8H73.3669V16.2H77.1469V15.8ZM73.3669 15.8H72.1069V16.2H73.3669V15.8ZM72.1069 15.8H68.3269V16.2H72.1069V15.8ZM68.5269 16V14.74H68.1269V16H68.5269ZM68.3269 14.54H67.0669V14.94H68.3269V14.54ZM67.2669 14.74V13.48H66.8669V14.74H67.2669ZM67.0669 13.28H65.8069V13.68H67.0669V13.28ZM66.0069 13.48V10.96H65.6069V13.48H66.0069ZM65.8069 11.16H68.3269V10.76H65.8069V11.16ZM82.1936 0.879999V0.679999H81.9936V0.879999H82.1936ZM96.0536 0.879999H96.2536V0.679999H96.0536V0.879999ZM96.0536 3.4V3.6H96.2536V3.4H96.0536ZM84.7136 3.4V3.2H84.5136V3.4H84.7136ZM84.7136 7.18H84.5136V7.38H84.7136V7.18ZM93.5336 7.18H93.7336V6.98H93.5336V7.18ZM93.5336 9.7V9.9H93.7336V9.7H93.5336ZM84.7136 9.7V9.5H84.5136V9.7H84.7136ZM84.7136 13.48H84.5136V13.68H84.7136V13.48ZM96.0536 13.48H96.2536V13.28H96.0536V13.48ZM96.0536 16V16.2H96.2536V16H96.0536ZM82.1936 16H81.9936V16.2H82.1936V16ZM82.3936 3.4V2.14H81.9936V3.4H82.3936ZM82.3936 2.14V0.879999H81.9936V2.14H82.3936ZM82.1936 1.08H83.4536V0.679999H82.1936V1.08ZM83.4536 1.08H84.7136V0.679999H83.4536V1.08ZM84.7136 1.08H88.4936V0.679999H84.7136V1.08ZM88.4936 1.08H96.0536V0.679999H88.4936V1.08ZM95.8536 0.879999V3.4H96.2536V0.879999H95.8536ZM96.0536 3.2H94.7936V3.6H96.0536V3.2ZM94.7936 3.2H93.5336V3.6H94.7936V3.2ZM93.5336 3.2H91.0136V3.6H93.5336V3.2ZM91.0136 3.2H89.7536V3.6H91.0136V3.2ZM89.7536 3.2H88.4936V3.6H89.7536V3.2ZM88.4936 3.2H85.9736V3.6H88.4936V3.2ZM85.9736 3.2H84.7136V3.6H85.9736V3.2ZM84.5136 3.4V7.18H84.9136V3.4H84.5136ZM84.7136 7.38H93.5336V6.98H84.7136V7.38ZM93.3336 7.18V9.7H93.7336V7.18H93.3336ZM93.5336 9.5H84.7136V9.9H93.5336V9.5ZM84.5136 9.7V13.48H84.9136V9.7H84.5136ZM84.7136 13.68H85.9736V13.28H84.7136V13.68ZM85.9736 13.68H88.4936V13.28H85.9736V13.68ZM88.4936 13.68H89.7536V13.28H88.4936V13.68ZM89.7536 13.68H91.0136V13.28H89.7536V13.68ZM91.0136 13.68H93.5336V13.28H91.0136V13.68ZM93.5336 13.68H94.7936V13.28H93.5336V13.68ZM94.7936 13.68H96.0536V13.28H94.7936V13.68ZM95.8536 13.48V16H96.2536V13.48H95.8536ZM96.0536 15.8H88.4936V16.2H96.0536V15.8ZM88.4936 15.8H84.7136V16.2H88.4936V15.8ZM84.7136 15.8H83.4536V16.2H84.7136V15.8ZM83.4536 15.8H82.1936V16.2H83.4536V15.8ZM82.3936 16V14.74H81.9936V16H82.3936ZM82.3936 14.74V13.48H81.9936V14.74H82.3936ZM82.3936 13.48V12.22H81.9936V13.48H82.3936ZM82.3936 12.22V9.7H81.9936V12.22H82.3936ZM82.3936 9.7V8.44H81.9936V9.7H82.3936ZM82.3936 8.44V7.18H81.9936V8.44H82.3936ZM82.3936 7.18V5.92H81.9936V7.18H82.3936ZM82.3936 5.92V4.66H81.9936V5.92H82.3936ZM82.3936 4.66V3.4H81.9936V4.66H82.3936ZM126.307 0.879999V0.679999H126.107V0.879999H126.307ZM128.827 0.879999H129.027V0.679999H128.827V0.879999ZM128.827 16V16.2H129.027V16H128.827ZM126.307 16H126.107V16.2H126.307V16ZM126.307 14.74H126.507V14.54H126.307V14.74ZM125.047 14.74H124.847V14.94H125.047V14.74ZM125.047 13.48H125.247V13.28H125.047V13.48ZM123.787 13.48H123.587V13.68H123.787V13.48ZM123.787 12.22H123.987V12.02H123.787V12.22ZM122.527 12.22H122.327V12.42H122.527V12.22ZM122.527 10.96H122.727V10.76H122.527V10.96ZM121.267 10.96V10.76H121.067V10.96H121.267ZM121.267 12.22V12.42H121.467V12.22H121.267ZM120.007 12.22V12.02H119.807V12.22H120.007ZM120.007 13.48V13.68H120.207V13.48H120.007ZM118.747 13.48V13.28H118.547V13.48H118.747ZM118.747 14.74V14.94H118.947V14.74H118.747ZM117.487 14.74V14.54H117.287V14.74H117.487ZM117.487 16V16.2H117.687V16H117.487ZM114.967 16H114.767V16.2H114.967V16ZM114.967 0.879999V0.679999H114.767V0.879999H114.967ZM117.487 0.879999H117.687V0.679999H117.487V0.879999ZM117.487 10.96H117.287V11.16H117.487V10.96ZM118.747 10.96V11.16H118.947V10.96H118.747ZM118.747 9.7V9.5H118.547V9.7H118.747ZM120.007 9.7V9.9H120.207V9.7H120.007ZM120.007 8.44V8.24H119.807V8.44H120.007ZM121.267 8.44V8.64H121.467V8.44H121.267ZM121.267 7.18V6.98H121.067V7.18H121.267ZM122.527 7.18H122.727V6.98H122.527V7.18ZM122.527 8.44H122.327V8.64H122.527V8.44ZM123.787 8.44H123.987V8.24H123.787V8.44ZM123.787 9.7H123.587V9.9H123.787V9.7ZM125.047 9.7H125.247V9.5H125.047V9.7ZM125.047 10.96H124.847V11.16H125.047V10.96ZM126.307 10.96V11.16H126.507V10.96H126.307ZM126.507 7.18V0.879999H126.107V7.18H126.507ZM126.307 1.08H127.567V0.679999H126.307V1.08ZM127.567 1.08H128.827V0.679999H127.567V1.08ZM128.627 0.879999V2.14H129.027V0.879999H128.627ZM128.627 2.14V3.4H129.027V2.14H128.627ZM128.627 3.4V4.66H129.027V3.4H128.627ZM128.627 4.66V7.18H129.027V4.66H128.627ZM128.627 7.18V8.44H129.027V7.18H128.627ZM128.627 8.44V9.7H129.027V8.44H128.627ZM128.627 9.7V10.96H129.027V9.7H128.627ZM128.627 10.96V12.22H129.027V10.96H128.627ZM128.627 12.22V13.48H129.027V12.22H128.627ZM128.627 13.48V14.74H129.027V13.48H128.627ZM128.627 14.74V16H129.027V14.74H128.627ZM128.827 15.8H127.567V16.2H128.827V15.8ZM127.567 15.8H126.307V16.2H127.567V15.8ZM126.507 16V14.74H126.107V16H126.507ZM126.307 14.54H125.047V14.94H126.307V14.54ZM125.247 14.74V13.48H124.847V14.74H125.247ZM125.047 13.28H123.787V13.68H125.047V13.28ZM123.987 13.48V12.22H123.587V13.48H123.987ZM123.787 12.02H122.527V12.42H123.787V12.02ZM122.727 12.22V10.96H122.327V12.22H122.727ZM122.527 10.76H121.267V11.16H122.527V10.76ZM121.067 10.96V12.22H121.467V10.96H121.067ZM121.267 12.02H120.007V12.42H121.267V12.02ZM119.807 12.22V13.48H120.207V12.22H119.807ZM120.007 13.28H118.747V13.68H120.007V13.28ZM118.547 13.48V14.74H118.947V13.48H118.547ZM118.747 14.54H117.487V14.94H118.747V14.54ZM117.287 14.74V16H117.687V14.74H117.287ZM117.487 15.8H114.967V16.2H117.487V15.8ZM115.167 16V14.74H114.767V16H115.167ZM115.167 14.74V13.48H114.767V14.74H115.167ZM115.167 13.48V3.4H114.767V13.48H115.167ZM115.167 3.4V0.879999H114.767V3.4H115.167ZM114.967 1.08H117.487V0.679999H114.967V1.08ZM117.287 0.879999V7.18H117.687V0.879999H117.287ZM117.287 7.18V10.96H117.687V7.18H117.287ZM117.487 11.16H118.747V10.76H117.487V11.16ZM118.947 10.96V9.7H118.547V10.96H118.947ZM118.747 9.9H120.007V9.5H118.747V9.9ZM120.207 9.7V8.44H119.807V9.7H120.207ZM120.007 8.64H121.267V8.24H120.007V8.64ZM121.467 8.44V7.18H121.067V8.44H121.467ZM121.267 7.38H122.527V6.98H121.267V7.38ZM122.327 7.18V8.44H122.727V7.18H122.327ZM122.527 8.64H123.787V8.24H122.527V8.64ZM123.587 8.44V9.7H123.987V8.44H123.587ZM123.787 9.9H125.047V9.5H123.787V9.9ZM124.847 9.7V10.96H125.247V9.7H124.847ZM125.047 11.16H126.307V10.76H125.047V11.16ZM126.507 10.96V7.18H126.107V10.96H126.507ZM131.354 5.92V5.72H131.154V5.92H131.354ZM132.614 5.92V6.12H132.814V5.92H132.614ZM132.614 4.66V4.46H132.414V4.66H132.614ZM133.874 4.66V4.86H134.074V4.66H133.874ZM133.874 3.4V3.2H133.674V3.4H133.874ZM135.134 3.4V3.6H135.334V3.4H135.134ZM135.134 2.14V1.94H134.934V2.14H135.134ZM136.394 2.14V2.34H136.594V2.14H136.394ZM136.394 0.879999V0.679999H136.194V0.879999H136.394ZM140.174 0.879999H140.374V0.679999H140.174V0.879999ZM140.174 2.14H139.974V2.34H140.174V2.14ZM141.434 2.14H141.634V1.94H141.434V2.14ZM141.434 3.4H141.234V3.6H141.434V3.4ZM142.694 3.4H142.894V3.2H142.694V3.4ZM142.694 4.66H142.494V4.86H142.694V4.66ZM143.954 4.66H144.154V4.46H143.954V4.66ZM143.954 5.92H143.754V6.12H143.954V5.92ZM145.214 5.92H145.414V5.72H145.214V5.92ZM145.214 16V16.2H145.414V16H145.214ZM142.694 16H142.494V16.2H142.694V16ZM142.694 10.96H142.894V10.76H142.694V10.96ZM133.874 10.96V10.76H133.674V10.96H133.874ZM133.874 16V16.2H134.074V16H133.874ZM131.354 16H131.154V16.2H131.354V16ZM142.694 8.44V8.64H142.894V8.44H142.694ZM142.694 7.18H142.894V6.98H142.694V7.18ZM141.434 7.18H141.234V7.38H141.434V7.18ZM141.434 5.92H141.634V5.72H141.434V5.92ZM140.174 5.92H139.974V6.12H140.174V5.92ZM140.174 4.66H140.374V4.46H140.174V4.66ZM138.914 4.66H138.714V4.86H138.914V4.66ZM138.914 3.4H139.114V3.2H138.914V3.4ZM137.654 3.4V3.2H137.454V3.4H137.654ZM137.654 4.66V4.86H137.854V4.66H137.654ZM136.394 4.66V4.46H136.194V4.66H136.394ZM136.394 5.92V6.12H136.594V5.92H136.394ZM135.134 5.92V5.72H134.934V5.92H135.134ZM135.134 7.18V7.38H135.334V7.18H135.134ZM133.874 7.18V6.98H133.674V7.18H133.874ZM133.874 8.44H133.674V8.64H133.874V8.44ZM131.554 14.74V13.48H131.154V14.74H131.554ZM131.554 13.48V10.96H131.154V13.48H131.554ZM131.554 10.96V8.44H131.154V10.96H131.554ZM131.554 8.44V7.18H131.154V8.44H131.554ZM131.554 7.18V5.92H131.154V7.18H131.554ZM131.354 6.12H132.614V5.72H131.354V6.12ZM132.814 5.92V4.66H132.414V5.92H132.814ZM132.614 4.86H133.874V4.46H132.614V4.86ZM134.074 4.66V3.4H133.674V4.66H134.074ZM133.874 3.6H135.134V3.2H133.874V3.6ZM135.334 3.4V2.14H134.934V3.4H135.334ZM135.134 2.34H136.394V1.94H135.134V2.34ZM136.594 2.14V0.879999H136.194V2.14H136.594ZM136.394 1.08H140.174V0.679999H136.394V1.08ZM139.974 0.879999V2.14H140.374V0.879999H139.974ZM140.174 2.34H141.434V1.94H140.174V2.34ZM141.234 2.14V3.4H141.634V2.14H141.234ZM141.434 3.6H142.694V3.2H141.434V3.6ZM142.494 3.4V4.66H142.894V3.4H142.494ZM142.694 4.86H143.954V4.46H142.694V4.86ZM143.754 4.66V5.92H144.154V4.66H143.754ZM143.954 6.12H145.214V5.72H143.954V6.12ZM145.014 5.92V7.18H145.414V5.92H145.014ZM145.014 7.18V8.44H145.414V7.18H145.014ZM145.014 8.44V10.96H145.414V8.44H145.014ZM145.014 10.96V13.48H145.414V10.96H145.014ZM145.014 13.48V14.74H145.414V13.48H145.014ZM145.014 14.74V16H145.414V14.74H145.014ZM145.214 15.8H143.954V16.2H145.214V15.8ZM143.954 15.8H142.694V16.2H143.954V15.8ZM142.894 16V14.74H142.494V16H142.894ZM142.894 14.74V13.48H142.494V14.74H142.894ZM142.894 13.48V10.96H142.494V13.48H142.894ZM142.694 10.76H133.874V11.16H142.694V10.76ZM133.674 10.96V13.48H134.074V10.96H133.674ZM133.674 13.48V14.74H134.074V13.48H133.674ZM133.674 14.74V16H134.074V14.74H133.674ZM133.874 15.8H132.614V16.2H133.874V15.8ZM132.614 15.8H131.354V16.2H132.614V15.8ZM131.554 16V14.74H131.154V16H131.554ZM142.894 8.44V7.18H142.494V8.44H142.894ZM142.694 6.98H141.434V7.38H142.694V6.98ZM141.634 7.18V5.92H141.234V7.18H141.634ZM141.434 5.72H140.174V6.12H141.434V5.72ZM140.374 5.92V4.66H139.974V5.92H140.374ZM140.174 4.46H138.914V4.86H140.174V4.46ZM139.114 4.66V3.4H138.714V4.66H139.114ZM138.914 3.2H137.654V3.6H138.914V3.2ZM137.454 3.4V4.66H137.854V3.4H137.454ZM137.654 4.46H136.394V4.86H137.654V4.46ZM136.194 4.66V5.92H136.594V4.66H136.194ZM136.394 5.72H135.134V6.12H136.394V5.72ZM134.934 5.92V7.18H135.334V5.92H134.934ZM135.134 6.98H133.874V7.38H135.134V6.98ZM133.674 7.18V8.44H134.074V7.18H133.674ZM133.874 8.64H142.694V8.24H133.874V8.64ZM147.74 16H147.54V16.2H147.74V16ZM147.74 0.879999V0.679999H147.54V0.879999H147.74ZM150.26 0.879999H150.46V0.679999H150.26V0.879999ZM150.26 13.48H150.06V13.68H150.26V13.48ZM159.08 13.48V13.68H159.28V13.48H159.08ZM159.08 10.96V10.76H158.88V10.96H159.08ZM161.6 10.96H161.8V10.76H161.6V10.96ZM161.6 16V16.2H161.8V16H161.6ZM159.08 15.8H150.26V16.2H159.08V15.8ZM150.26 15.8H149V16.2H150.26V15.8ZM149 15.8H147.74V16.2H149V15.8ZM147.94 16V14.74H147.54V16H147.94ZM147.94 14.74V13.48H147.54V14.74H147.94ZM147.94 13.48V12.22H147.54V13.48H147.94ZM147.94 12.22V9.7H147.54V12.22H147.94ZM147.94 9.7V8.44H147.54V9.7H147.94ZM147.94 8.44V7.18H147.54V8.44H147.94ZM147.94 7.18V5.92H147.54V7.18H147.94ZM147.94 5.92V4.66H147.54V5.92H147.94ZM147.94 4.66V3.4H147.54V4.66H147.94ZM147.94 3.4V2.14H147.54V3.4H147.94ZM147.94 2.14V0.879999H147.54V2.14H147.94ZM147.74 1.08H149V0.679999H147.74V1.08ZM149 1.08H150.26V0.679999H149V1.08ZM150.06 0.879999V13.48H150.46V0.879999H150.06ZM150.26 13.68H159.08V13.28H150.26V13.68ZM159.28 13.48V10.96H158.88V13.48H159.28ZM159.08 11.16H161.6V10.76H159.08V11.16ZM161.4 10.96V13.48H161.8V10.96H161.4ZM161.4 13.48V16H161.8V13.48H161.4ZM161.6 15.8H159.08V16.2H161.6V15.8ZM164.127 16H163.927V16.2H164.127V16ZM164.127 0.879999V0.679999H163.927V0.879999H164.127ZM166.647 0.879999H166.847V0.679999H166.647V0.879999ZM166.647 13.48H166.447V13.68H166.647V13.48ZM175.467 13.48V13.68H175.667V13.48H175.467ZM175.467 10.96V10.76H175.267V10.96H175.467ZM177.987 10.96H178.187V10.76H177.987V10.96ZM177.987 16V16.2H178.187V16H177.987ZM175.467 15.8H166.647V16.2H175.467V15.8ZM166.647 15.8H165.387V16.2H166.647V15.8ZM165.387 15.8H164.127V16.2H165.387V15.8ZM164.327 16V14.74H163.927V16H164.327ZM164.327 14.74V13.48H163.927V14.74H164.327ZM164.327 13.48V12.22H163.927V13.48H164.327ZM164.327 12.22V9.7H163.927V12.22H164.327ZM164.327 9.7V8.44H163.927V9.7H164.327ZM164.327 8.44V7.18H163.927V8.44H164.327ZM164.327 7.18V5.92H163.927V7.18H164.327ZM164.327 5.92V4.66H163.927V5.92H164.327ZM164.327 4.66V3.4H163.927V4.66H164.327ZM164.327 3.4V2.14H163.927V3.4H164.327ZM164.327 2.14V0.879999H163.927V2.14H164.327ZM164.127 1.08H165.387V0.679999H164.127V1.08ZM165.387 1.08H166.647V0.679999H165.387V1.08ZM166.447 0.879999V13.48H166.847V0.879999H166.447ZM166.647 13.68H175.467V13.28H166.647V13.68ZM175.667 13.48V10.96H175.267V13.48H175.667ZM175.467 11.16H177.987V10.76H175.467V11.16ZM177.787 10.96V13.48H178.187V10.96H177.787ZM177.787 13.48V16H178.187V13.48H177.787ZM177.987 15.8H175.467V16.2H177.987V15.8ZM180.514 0.879999V0.679999H180.314V0.879999H180.514ZM194.374 0.879999H194.574V0.679999H194.374V0.879999ZM194.374 3.4V3.6H194.574V3.4H194.374ZM183.034 3.4V3.2H182.834V3.4H183.034ZM183.034 7.18H182.834V7.38H183.034V7.18ZM191.854 7.18H192.054V6.98H191.854V7.18ZM191.854 9.7V9.9H192.054V9.7H191.854ZM183.034 9.7V9.5H182.834V9.7H183.034ZM183.034 13.48H182.834V13.68H183.034V13.48ZM194.374 13.48H194.574V13.28H194.374V13.48ZM194.374 16V16.2H194.574V16H194.374ZM180.514 16H180.314V16.2H180.514V16ZM180.714 3.4V2.14H180.314V3.4H180.714ZM180.714 2.14V0.879999H180.314V2.14H180.714ZM180.514 1.08H181.774V0.679999H180.514V1.08ZM181.774 1.08H183.034V0.679999H181.774V1.08ZM183.034 1.08H186.814V0.679999H183.034V1.08ZM186.814 1.08H194.374V0.679999H186.814V1.08ZM194.174 0.879999V3.4H194.574V0.879999H194.174ZM194.374 3.2H193.114V3.6H194.374V3.2ZM193.114 3.2H191.854V3.6H193.114V3.2ZM191.854 3.2H189.334V3.6H191.854V3.2ZM189.334 3.2H188.074V3.6H189.334V3.2ZM188.074 3.2H186.814V3.6H188.074V3.2ZM186.814 3.2H184.294V3.6H186.814V3.2ZM184.294 3.2H183.034V3.6H184.294V3.2ZM182.834 3.4V7.18H183.234V3.4H182.834ZM183.034 7.38H191.854V6.98H183.034V7.38ZM191.654 7.18V9.7H192.054V7.18H191.654ZM191.854 9.5H183.034V9.9H191.854V9.5ZM182.834 9.7V13.48H183.234V9.7H182.834ZM183.034 13.68H184.294V13.28H183.034V13.68ZM184.294 13.68H186.814V13.28H184.294V13.68ZM186.814 13.68H188.074V13.28H186.814V13.68ZM188.074 13.68H189.334V13.28H188.074V13.68ZM189.334 13.68H191.854V13.28H189.334V13.68ZM191.854 13.68H193.114V13.28H191.854V13.68ZM193.114 13.68H194.374V13.28H193.114V13.68ZM194.174 13.48V16H194.574V13.48H194.174ZM194.374 15.8H186.814V16.2H194.374V15.8ZM186.814 15.8H183.034V16.2H186.814V15.8ZM183.034 15.8H181.774V16.2H183.034V15.8ZM181.774 15.8H180.514V16.2H181.774V15.8ZM180.714 16V14.74H180.314V16H180.714ZM180.714 14.74V13.48H180.314V14.74H180.714ZM180.714 13.48V12.22H180.314V13.48H180.714ZM180.714 12.22V9.7H180.314V12.22H180.714ZM180.714 9.7V8.44H180.314V9.7H180.714ZM180.714 8.44V7.18H180.314V8.44H180.714ZM180.714 7.18V5.92H180.314V7.18H180.714ZM180.714 5.92V4.66H180.314V5.92H180.714ZM180.714 4.66V3.4H180.314V4.66H180.714ZM196.901 3.4H196.701V3.6H196.901V3.4ZM196.901 0.879999V0.679999H196.701V0.879999H196.901ZM209.501 0.879999H209.701V0.679999H209.501V0.879999ZM209.501 3.4V3.6H209.701V3.4H209.501ZM204.461 3.4V3.2H204.261V3.4H204.461ZM204.461 16V16.2H204.661V16H204.461ZM201.941 16H201.741V16.2H201.941V16ZM201.941 3.4H202.141V3.2H201.941V3.4ZM197.101 3.4V2.14H196.701V3.4H197.101ZM197.101 2.14V0.879999H196.701V2.14H197.101ZM196.901 1.08H198.161V0.679999H196.901V1.08ZM198.161 1.08H199.421V0.679999H198.161V1.08ZM199.421 1.08H203.201V0.679999H199.421V1.08ZM203.201 1.08H209.501V0.679999H203.201V1.08ZM209.301 0.879999V3.4H209.701V0.879999H209.301ZM209.501 3.2H208.241V3.6H209.501V3.2ZM208.241 3.2H206.981V3.6H208.241V3.2ZM206.981 3.2H204.461V3.6H206.981V3.2ZM204.261 3.4V9.7H204.661V3.4H204.261ZM204.261 9.7V16H204.661V9.7H204.261ZM204.461 15.8H201.941V16.2H204.461V15.8ZM202.141 16V9.7H201.741V16H202.141ZM202.141 9.7V3.4H201.741V9.7H202.141ZM201.941 3.2H200.681V3.6H201.941V3.2ZM200.681 3.2H196.901V3.6H200.681V3.2Z" fill="#FF7C06"/>
</svg>
