<svg width="165" height="45" viewBox="0 0 165 45" fill="none" xmlns="http://www.w3.org/2000/svg">
<rect x="2" y="8" width="2" height="2" fill="#393939"/>
<rect x="163" y="39" width="2" height="4" transform="rotate(-180 163 39)" fill="#393939"/>
<rect x="4" y="35" width="4" height="2" transform="rotate(90 4 35)" fill="#393939"/>
<rect x="10" y="33" width="2" height="2" transform="rotate(90 10 33)" fill="#FFBD82"/>
<rect x="155" y="35" width="2.00001" height="145" transform="rotate(90 155 35)" fill="#FFBD82"/>
<rect x="161" y="10" width="4" height="2" transform="rotate(-90 161 10)" fill="#393939"/>
<rect x="2" y="6" width="2" height="2" fill="#393939"/>
<rect x="161" y="41" width="2" height="2" transform="rotate(-180 161 41)" fill="#393939"/>
<rect x="6" y="39" width="2" height="2" transform="rotate(90 6 39)" fill="#393939"/>
<rect x="4" y="4" width="2" height="2" fill="#393939"/>
<rect x="8" y="41" width="2" height="2" transform="rotate(90 8 41)" fill="#393939"/>
<rect x="159" y="6" width="2" height="2" transform="rotate(-90 159 6)" fill="#393939"/>
<rect x="6" y="2" width="4" height="2" fill="#393939"/>
<rect x="159" y="43" width="4" height="2" transform="rotate(-180 159 43)" fill="#393939"/>
<path fill-rule="evenodd" clip-rule="evenodd" d="M4 35H2V29H4L4 31L6 31V33H8V35L10 35V37L155 37V35H157V33L159 33V31L161 31V29H163V35H161V39H159V41H155V43L10 43V41H6L6 39H4V37L4 35Z" fill="#EE7000"/>
<rect x="10" y="41" width="2" height="2" transform="rotate(90 10 41)" fill="#393939"/>
<rect x="155" y="4" width="2" height="4" transform="rotate(-90 155 4)" fill="#393939"/>
<rect x="10" width="145" height="2" fill="#393939"/>
<rect x="10" y="43" width="145" height="2" fill="#393939"/>
<rect y="10" width="2" height="25" fill="#393939"/>
<rect x="165" y="35" width="2" height="25" transform="rotate(-180 165 35)" fill="#393939"/>
<path fill-rule="evenodd" clip-rule="evenodd" d="M155 4L10 3.99999V2L155 2.00001V4ZM157 6L8 5.99999V4H155L157 4.00001V6ZM159 8L6 7.99999V6H157L159 6.00001V8ZM159 31H4L4 29L4 27L126.353 27L2 27V9.99999L158.965 10L4 9.99999L4 8H159L161 8.00001V10H163V27L161 27V29V31L159 31ZM155 33L159 33V31L6 31L6 33H155ZM155 33V35L10 35V33L155 33Z" fill="#FF9332"/>
<rect x="155" y="2" width="2.00001" height="145" transform="rotate(90 155 2)" fill="#FFBD82"/>
<rect x="6" y="6" width="2" height="2" transform="rotate(90 6 6)" fill="#FFBD82"/>
<rect x="4" y="10" width="4" height="2" transform="rotate(90 4 10)" fill="#FFBD82"/>
<rect x="8" y="4" width="2" height="2" transform="rotate(90 8 4)" fill="#FFBD82"/>
<rect x="10" y="4" width="2" height="2" transform="rotate(90 10 4)" fill="#FFBD82"/>
<rect x="159" y="4" width="2" height="4" transform="rotate(90 159 4)" fill="#FFBD82"/>
<rect x="161" y="6" width="2" height="2" transform="rotate(90 161 6)" fill="#FFBD82"/>
<rect x="163" y="10" width="4" height="2" transform="rotate(90 163 10)" fill="#FFBD82"/>
<rect width="6" height="4" transform="matrix(-1.31134e-07 -1 -1 1.31134e-07 37 43)" fill="#FFDDBE"/>
<rect width="6" height="4" transform="matrix(-1.31134e-07 -1 -1 1.31134e-07 135 43)" fill="#FFDDBE"/>
<rect width="6" height="3" transform="matrix(-1.31134e-07 -1 -1 1.31134e-07 32 43)" fill="#FFDDBE"/>
<rect width="6" height="3" transform="matrix(-1.31134e-07 -1 -1 1.31134e-07 130 43)" fill="#FFDDBE"/>
<rect width="6" height="2" transform="matrix(-1.31134e-07 -1 -1 1.31134e-07 28 43)" fill="#FFDDBE"/>
<rect width="6" height="2" transform="matrix(-1.31134e-07 -1 -1 1.31134e-07 126 43)" fill="#FFDDBE"/>
<rect width="6" height="0.999999" transform="matrix(-1.31134e-07 -1 -1 1.31134e-07 25 43)" fill="#FFDDBE"/>
<rect width="6" height="0.999999" transform="matrix(-1.31134e-07 -1 -1 1.31134e-07 123 43)" fill="#FFDDBE"/>
<rect x="4" y="27" width="4" height="2" transform="rotate(90 4 27)" fill="#FFBD82"/>
<rect x="8" y="33" width="2" height="2" transform="rotate(90 8 33)" fill="#FFBD82"/>
<rect x="6" y="31" width="2" height="2" transform="rotate(90 6 31)" fill="#FFBD82"/>
<rect x="159" y="35" width="4" height="2" transform="rotate(-180 159 35)" fill="#FFBD82"/>
<rect x="161" y="33" width="2" height="2" transform="rotate(-180 161 33)" fill="#FFBD82"/>
<rect x="163" y="29" width="2" height="4" transform="rotate(-180 163 29)" fill="#FFBD82"/>
<path d="M53.9441 14.4265H52.7867H51.6294V15.5839H50.472V16.7412V17.8986V20.2133V21.3706V22.528H51.6294V23.6853H52.7867H53.9441H55.1014H56.2588H57.4161V22.528H58.5735V21.3706H60.8882V23.6853H59.7308V24.8427H58.5735V26H55.1014H53.9441H50.472V24.8427H49.3147V23.6853H48.1573V21.3706V20.2133V19.0559V17.8986V14.4265H49.3147V13.2692H50.472V12.1118H52.7867H53.9441H55.1014H58.5735V13.2692H59.7308V14.4265H60.8882V16.7412H58.5735V15.5839H57.4161V14.4265H56.2588H55.1014H53.9441ZM73.6252 26H65.5237H64.3664H63.209V24.8427V23.6853V22.528V20.2133V19.0559V17.8986V16.7412V15.5839V14.4265V13.2692V12.1118H64.3664H65.5237V23.6853H73.6252V21.3706H75.9398V23.6853V26H73.6252ZM78.2607 24.8427V23.6853V21.3706V19.0559V17.8986V16.7412H79.4181V15.5839H80.5754V14.4265H81.7328V13.2692H82.8901V12.1118H86.3621V13.2692H87.5195V14.4265H88.6768V15.5839H89.8342V16.7412H90.9915V17.8986V19.0559V21.3706V23.6853V24.8427V26H89.8342H88.6768V24.8427V23.6853V21.3706H80.5754V23.6853V24.8427V26H79.4181H78.2607V24.8427ZM88.6768 19.0559V17.8986H87.5195V16.7412H86.3621V15.5839H85.2048V14.4265H84.0474V15.5839H82.8901V16.7412H81.7328V17.8986H80.5754V19.0559H88.6768ZM102.571 23.6853V26H101.414H100.256H97.9418H96.7844H95.6271V23.6853H96.7844H97.9418V16.7412V14.4265H96.7844H95.6271V12.1118H96.7844H97.9418H99.0991H100.256H101.414H102.571V14.4265H101.414H100.256V23.6853H101.414H102.571ZM110.679 20.2133V26H109.521H108.364V24.8427V23.6853V22.528V20.2133V19.0559V17.8986V16.7412V15.5839V14.4265V13.2692V12.1118H109.521H110.679V13.2692H111.836V14.4265H112.993V15.5839H114.151V16.7412H115.308V15.5839H116.466V14.4265H117.623V13.2692H118.78V12.1118H121.095V13.2692V14.4265V23.6853V26H118.78V20.2133V16.7412H117.623V17.8986H116.466V19.0559H115.308V20.2133H114.151V19.0559H112.993V17.8986H111.836V16.7412H110.679V20.2133Z" fill="#393939"/>
<path d="M53.9441 12.4265H52.7867H51.6294V13.5839H50.472V14.7412V15.8986V18.2133V19.3706V20.528H51.6294V21.6853H52.7867H53.9441H55.1014H56.2588H57.4161V20.528H58.5735V19.3706H60.8882V21.6853H59.7308V22.8427H58.5735V24H55.1014H53.9441H50.472V22.8427H49.3147V21.6853H48.1573V19.3706V18.2133V17.0559V15.8986V12.4265H49.3147V11.2692H50.472V10.1118H52.7867H53.9441H55.1014H58.5735V11.2692H59.7308V12.4265H60.8882V14.7412H58.5735V13.5839H57.4161V12.4265H56.2588H55.1014H53.9441ZM73.6252 24H65.5237H64.3664H63.209V22.8427V21.6853V20.528V18.2133V17.0559V15.8986V14.7412V13.5839V12.4265V11.2692V10.1118H64.3664H65.5237V21.6853H73.6252V19.3706H75.9398V21.6853V24H73.6252ZM78.2607 22.8427V21.6853V19.3706V17.0559V15.8986V14.7412H79.4181V13.5839H80.5754V12.4265H81.7328V11.2692H82.8901V10.1118H86.3621V11.2692H87.5195V12.4265H88.6768V13.5839H89.8342V14.7412H90.9915V15.8986V17.0559V19.3706V21.6853V22.8427V24H89.8342H88.6768V22.8427V21.6853V19.3706H80.5754V21.6853V22.8427V24H79.4181H78.2607V22.8427ZM88.6768 17.0559V15.8986H87.5195V14.7412H86.3621V13.5839H85.2048V12.4265H84.0474V13.5839H82.8901V14.7412H81.7328V15.8986H80.5754V17.0559H88.6768ZM102.571 21.6853V24H101.414H100.256H97.9418H96.7844H95.6271V21.6853H96.7844H97.9418V14.7412V12.4265H96.7844H95.6271V10.1118H96.7844H97.9418H99.0991H100.256H101.414H102.571V12.4265H101.414H100.256V21.6853H101.414H102.571ZM110.679 18.2133V24H109.521H108.364V22.8427V21.6853V20.528V18.2133V17.0559V15.8986V14.7412V13.5839V12.4265V11.2692V10.1118H109.521H110.679V11.2692H111.836V12.4265H112.993V13.5839H114.151V14.7412H115.308V13.5839H116.466V12.4265H117.623V11.2692H118.78V10.1118H121.095V11.2692V12.4265V21.6853V24H118.78V18.2133V14.7412H117.623V15.8986H116.466V17.0559H115.308V18.2133H114.151V17.0559H112.993V15.8986H111.836V14.7412H110.679V18.2133Z" fill="white"/>
</svg>
