<svg width="27" height="27" viewBox="0 0 27 27" fill="none" xmlns="http://www.w3.org/2000/svg">
<rect x="1" y="1" width="3.57112" height="3.57112" fill="white" stroke="white" stroke-width="1.5"/>
<rect x="4.57137" y="4.57129" width="3.57112" height="3.57112" fill="white" stroke="white" stroke-width="1.5"/>
<rect x="8.14294" y="8.14307" width="3.57112" height="3.57112" fill="white" stroke="white" stroke-width="1.5"/>
<rect x="11.7143" y="11.7144" width="3.57112" height="3.57112" fill="white" stroke="white" stroke-width="1.5"/>
<rect x="18.8573" y="15.2834" width="3.57112" height="3.57112" transform="rotate(90 18.8573 15.2834)" fill="white" stroke="white" stroke-width="1.5"/>
<rect x="22.4286" y="18.8547" width="3.57112" height="3.57112" transform="rotate(90 22.4286 18.8547)" fill="white" stroke="white" stroke-width="1.5"/>
<rect x="26" y="22.4287" width="3.57112" height="3.57112" transform="rotate(90 26 22.4287)" fill="white" stroke="white" stroke-width="1.5"/>
<rect x="26" y="1" width="3.57112" height="3.57112" transform="rotate(90 26 1)" fill="white" stroke="white" stroke-width="1.5"/>
<rect x="22.4286" y="4.57129" width="3.57112" height="3.57112" transform="rotate(90 22.4286 4.57129)" fill="white" stroke="white" stroke-width="1.5"/>
<rect x="18.8573" y="8.14307" width="3.57112" height="3.57112" transform="rotate(90 18.8573 8.14307)" fill="white" stroke="white" stroke-width="1.5"/>
<rect x="11.7143" y="15.2834" width="3.57112" height="3.57112" transform="rotate(90 11.7143 15.2834)" fill="white" stroke="white" stroke-width="1.5"/>
<rect x="8.14294" y="18.8547" width="3.57112" height="3.57112" transform="rotate(90 8.14294 18.8547)" fill="white" stroke="white" stroke-width="1.5"/>
<rect x="4.57137" y="22.4287" width="3.57112" height="3.57112" transform="rotate(90 4.57137 22.4287)" fill="white" stroke="white" stroke-width="1.5"/>
</svg>
