<svg width="18" height="18" viewBox="0 0 18 18" fill="none" xmlns="http://www.w3.org/2000/svg">
<rect x="1" y="1" width="2.28571" height="2.28571" fill="#FF7C06" stroke="#FF7C06" stroke-width="0.5"/>
<rect x="3.28516" y="3.28564" width="2.28571" height="2.28571" fill="#FF7C06" stroke="#FF7C06" stroke-width="0.5"/>
<rect x="5.57227" y="5.57129" width="2.28571" height="2.28571" fill="#FF7C06" stroke="#FF7C06" stroke-width="0.5"/>
<rect x="7.85742" y="7.85693" width="2.28571" height="2.28571" fill="#FF7C06" stroke="#FF7C06" stroke-width="0.5"/>
<rect x="12.4277" y="10.1431" width="2.28571" height="2.28571" transform="rotate(90 12.4277 10.1431)" fill="#FF7C06" stroke="#FF7C06" stroke-width="0.5"/>
<rect x="14.7148" y="12.4287" width="2.28571" height="2.28571" transform="rotate(90 14.7148 12.4287)" fill="#FF7C06" stroke="#FF7C06" stroke-width="0.5"/>
<rect x="17" y="14.7144" width="2.28571" height="2.28571" transform="rotate(90 17 14.7144)" fill="#FF7C06" stroke="#FF7C06" stroke-width="0.5"/>
<rect x="17" y="1" width="2.28571" height="2.28571" transform="rotate(90 17 1)" fill="#FF7C06" stroke="#FF7C06" stroke-width="0.5"/>
<rect x="14.7148" y="3.28564" width="2.28571" height="2.28571" transform="rotate(90 14.7148 3.28564)" fill="#FF7C06" stroke="#FF7C06" stroke-width="0.5"/>
<rect x="12.4277" y="5.57129" width="2.28571" height="2.28571" transform="rotate(90 12.4277 5.57129)" fill="#FF7C06" stroke="#FF7C06" stroke-width="0.5"/>
<rect x="7.85742" y="10.1431" width="2.28571" height="2.28571" transform="rotate(90 7.85742 10.1431)" fill="#FF7C06" stroke="#FF7C06" stroke-width="0.5"/>
<rect x="5.57227" y="12.4287" width="2.28571" height="2.28571" transform="rotate(90 5.57227 12.4287)" fill="#FF7C06" stroke="#FF7C06" stroke-width="0.5"/>
<rect x="3.28516" y="14.7144" width="2.28571" height="2.28571" transform="rotate(90 3.28516 14.7144)" fill="#FF7C06" stroke="#FF7C06" stroke-width="0.5"/>
</svg>
