<svg width="39" height="40" viewBox="0 0 39 40" fill="none" xmlns="http://www.w3.org/2000/svg">
<rect x="9.52344" y="3.80859" width="19.0479" height="30.4766" fill="white"/>
<rect x="1.90625" y="5.71582" width="34.2861" height="26.667" fill="white"/>
<rect x="3.80469" y="30.4746" width="1.90479" height="3.80957" transform="rotate(-180 3.80469 30.4746)" fill="#B5B5B5"/>
<rect x="5.71484" y="34.2871" width="1.90479" height="3.80957" transform="rotate(-180 5.71484 34.2871)" fill="#B5B5B5"/>
<rect x="7.61719" y="36.1914" width="1.90479" height="3.80957" transform="rotate(-180 7.61719 36.1914)" fill="#B5B5B5"/>
<rect x="30.4805" y="36.1914" width="1.90479" height="3.80957" transform="rotate(-180 30.4805 36.1914)" fill="#B5B5B5"/>
<rect x="32.3828" y="36.1914" width="1.90479" height="3.80957" transform="rotate(-180 32.3828 36.1914)" fill="#B5B5B5"/>
<rect x="34.2852" y="34.2871" width="1.90479" height="3.80957" transform="rotate(-180 34.2852 34.2871)" fill="#B5B5B5"/>
<rect x="36.1914" y="30.4746" width="1.90479" height="3.80957" transform="rotate(-180 36.1914 30.4746)" fill="#B5B5B5"/>
<rect x="9.51953" y="36.1914" width="1.90479" height="3.80957" transform="rotate(-180 9.51953 36.1914)" fill="#B5B5B5"/>
<rect x="28.5703" y="38.0957" width="19.0479" height="3.80957" transform="rotate(-180 28.5703 38.0957)" fill="#B5B5B5"/>
<rect x="9.51953" width="19.0479" height="1.90479" fill="#393939"/>
<rect x="5.71484" y="1.9043" width="3.80957" height="1.90479" fill="#393939"/>
<rect width="3.80957" height="1.90479" transform="matrix(-1 0 0 1 32.3828 1.9043)" fill="#393939"/>
<rect x="1.90625" y="34.2871" width="3.80957" height="1.90479" transform="rotate(-90 1.90625 34.2871)" fill="#393939"/>
<rect width="3.80957" height="1.90479" transform="matrix(4.37114e-08 -1 -1 -4.37114e-08 36.1914 34.2871)" fill="#393939"/>
<rect x="3.80469" y="3.80859" width="1.90479" height="1.90479" fill="#393939"/>
<rect width="1.90479" height="1.90479" transform="matrix(-1 0 0 1 34.2852 3.80859)" fill="#393939"/>
<rect x="3.80469" y="36.1914" width="1.90479" height="1.90479" transform="rotate(-90 3.80469 36.1914)" fill="#393939"/>
<rect width="1.90479" height="1.90479" transform="matrix(4.37114e-08 -1 -1 -4.37114e-08 34.2812 36.1914)" fill="#393939"/>
<rect x="1.90625" y="5.71582" width="1.90479" height="3.80957" fill="#393939"/>
<rect width="1.90479" height="3.80957" transform="matrix(-1 0 0 1 36.1914 5.71582)" fill="#393939"/>
<rect x="5.71484" y="38.0957" width="1.90479" height="3.80957" transform="rotate(-90 5.71484 38.0957)" fill="#393939"/>
<rect width="1.90479" height="3.80957" transform="matrix(4.37114e-08 -1 -1 -4.37114e-08 32.3828 38.0957)" fill="#393939"/>
<rect x="9.52344" y="38.0957" width="19.0479" height="1.90479" fill="#393939"/>
<rect x="38.0977" y="9.52441" width="20.9526" height="1.90478" transform="rotate(90 38.0977 9.52441)" fill="#393939"/>
<rect x="1.90625" y="9.52441" width="20.9526" height="1.90478" transform="rotate(90 1.90625 9.52441)" fill="#393939"/>
<rect x="28.5703" y="1.9043" width="1.90479" height="19.0479" transform="rotate(90 28.5703 1.9043)" fill="#E8E8E8"/>
<rect x="9.52344" y="34.2871" width="1.90479" height="19.0479" transform="rotate(-90 9.52344 34.2871)" fill="#E8E8E8"/>
<rect x="9.52344" y="3.80859" width="1.90479" height="3.80957" transform="rotate(90 9.52344 3.80859)" fill="#E8E8E8"/>
<rect x="28.5703" y="32.3809" width="1.90479" height="3.80957" transform="rotate(-90 28.5703 32.3809)" fill="#E8E8E8"/>
<rect x="5.71484" y="5.71582" width="1.90479" height="1.90479" transform="rotate(90 5.71484 5.71582)" fill="#E8E8E8"/>
<rect x="32.3828" y="30.4746" width="1.90479" height="1.90479" transform="rotate(-90 32.3828 30.4746)" fill="#E8E8E8"/>
<rect x="3.80469" y="9.52441" width="1.90479" height="1.90479" transform="rotate(90 3.80469 9.52441)" fill="#E8E8E8"/>
<rect x="34.2852" y="26.666" width="1.90479" height="1.90479" transform="rotate(-90 34.2852 26.666)" fill="#E8E8E8"/>
<rect x="34.2852" y="5.71582" width="1.90479" height="1.90479" transform="rotate(90 34.2852 5.71582)" fill="#E8E8E8"/>
<rect x="3.80469" y="30.4746" width="1.90479" height="1.90479" transform="rotate(-90 3.80469 30.4746)" fill="#E8E8E8"/>
<rect x="36.1914" y="9.52441" width="1.90479" height="1.90479" transform="rotate(90 36.1914 9.52441)" fill="#E8E8E8"/>
<rect x="1.90625" y="26.666" width="1.90479" height="1.90479" transform="rotate(-90 1.90625 26.666)" fill="#E8E8E8"/>
<rect x="32.3828" y="3.80859" width="1.90479" height="3.80957" transform="rotate(90 32.3828 3.80859)" fill="#E8E8E8"/>
<rect x="5.71484" y="32.3809" width="1.90479" height="3.80957" transform="rotate(-90 5.71484 32.3809)" fill="#E8E8E8"/>
<rect x="17.8516" y="14.9961" width="2.54441" height="12.722" transform="rotate(135 17.8516 14.9961)" fill="#FF7C06"/>
<rect x="14.625" y="14.3154" width="2.54441" height="2.54441" transform="rotate(135 14.625 14.3154)" fill="#FF7C06"/>
<rect x="12.082" y="14.3154" width="2.54441" height="2.54441" transform="rotate(135 12.082 14.3154)" fill="#FF7C06"/>
<rect x="17.1719" y="11.7715" width="2.54441" height="2.54441" transform="rotate(135 17.1719 11.7715)" fill="#FF7C06"/>
<rect x="17.1719" y="9.22559" width="2.54441" height="2.54441" transform="rotate(135 17.1719 9.22559)" fill="#FF7C06"/>
<rect x="20.3945" y="21.1387" width="2.54441" height="12.722" transform="rotate(-45 20.3945 21.1387)" fill="#FF7C06"/>
<rect x="23.6172" y="21.8193" width="2.54441" height="2.54441" transform="rotate(-45 23.6172 21.8193)" fill="#FF7C06"/>
<rect x="26.1641" y="21.8193" width="2.54441" height="2.54441" transform="rotate(-45 26.1641 21.8193)" fill="#FF7C06"/>
<rect x="21.0742" y="24.3633" width="2.54441" height="2.54441" transform="rotate(-45 21.0742 24.3633)" fill="#FF7C06"/>
<rect x="21.0781" y="26.9082" width="2.54441" height="2.54441" transform="rotate(-45 21.0781 26.9082)" fill="#FF7C06"/>
<rect x="22.1953" y="16.7949" width="2.54441" height="12.722" transform="rotate(-135 22.1953 16.7949)" fill="#FF7C06"/>
<rect x="22.875" y="13.5693" width="2.54441" height="2.54441" transform="rotate(-135 22.875 13.5693)" fill="#FF7C06"/>
<rect x="22.875" y="11.0254" width="2.54441" height="2.54441" transform="rotate(-135 22.875 11.0254)" fill="#FF7C06"/>
<rect x="25.4219" y="16.1152" width="2.54441" height="2.54441" transform="rotate(-135 25.4219 16.1152)" fill="#FF7C06"/>
<rect x="27.9648" y="16.1143" width="2.54441" height="2.54441" transform="rotate(-135 27.9648 16.1143)" fill="#FF7C06"/>
<rect x="16.0508" y="19.3398" width="2.54441" height="12.722" transform="rotate(45 16.0508 19.3398)" fill="#FF7C06"/>
<rect x="15.3711" y="22.5654" width="2.54441" height="2.54441" transform="rotate(45 15.3711 22.5654)" fill="#FF7C06"/>
<rect x="15.3711" y="25.1094" width="2.54441" height="2.54441" transform="rotate(45 15.3711 25.1094)" fill="#FF7C06"/>
<rect x="12.8242" y="20.0195" width="2.54441" height="2.54441" transform="rotate(45 12.8242 20.0195)" fill="#FF7C06"/>
<rect x="10.2812" y="20.0195" width="2.54441" height="2.54441" transform="rotate(45 10.2812 20.0195)" fill="#FF7C06"/>
</svg>
