<svg width="165" height="45" viewBox="0 0 165 45" fill="none" xmlns="http://www.w3.org/2000/svg">
<rect x="2" y="8" width="2" height="2" fill="#393939"/>
<rect x="163" y="39" width="2" height="4" transform="rotate(-180 163 39)" fill="#393939"/>
<rect x="4" y="35" width="4" height="2" transform="rotate(90 4 35)" fill="#393939"/>
<rect x="10" y="33" width="2" height="2" transform="rotate(90 10 33)" fill="#FFBD82"/>
<rect x="155" y="35" width="2.00001" height="145" transform="rotate(90 155 35)" fill="#FFBD82"/>
<rect x="161" y="10" width="4" height="2" transform="rotate(-90 161 10)" fill="#393939"/>
<rect x="2" y="6" width="2" height="2" fill="#393939"/>
<rect x="161" y="41" width="2" height="2" transform="rotate(-180 161 41)" fill="#393939"/>
<rect x="6" y="39" width="2" height="2" transform="rotate(90 6 39)" fill="#393939"/>
<rect x="4" y="4" width="2" height="2" fill="#393939"/>
<rect x="8" y="41" width="2" height="2" transform="rotate(90 8 41)" fill="#393939"/>
<rect x="159" y="6" width="2" height="2" transform="rotate(-90 159 6)" fill="#393939"/>
<rect x="6" y="2" width="4" height="2" fill="#393939"/>
<rect x="159" y="43" width="4" height="2" transform="rotate(-180 159 43)" fill="#393939"/>
<path fill-rule="evenodd" clip-rule="evenodd" d="M4 35H2V29H4L4 31L6 31V33H8V35L10 35V37L155 37V35H157V33L159 33V31L161 31V29H163V35H161V39H159V41H155V43L10 43V41H6L6 39H4V37L4 35Z" fill="#EE7000"/>
<rect x="10" y="41" width="2" height="2" transform="rotate(90 10 41)" fill="#393939"/>
<rect x="155" y="4" width="2" height="4" transform="rotate(-90 155 4)" fill="#393939"/>
<rect x="10" width="145" height="2" fill="#393939"/>
<rect x="10" y="43" width="145" height="2" fill="#393939"/>
<rect y="10" width="2" height="25" fill="#393939"/>
<rect x="165" y="35" width="2" height="25" transform="rotate(-180 165 35)" fill="#393939"/>
<path fill-rule="evenodd" clip-rule="evenodd" d="M155 4L10 3.99999V2L155 2.00001V4ZM157 6L8 5.99999V4H155L157 4.00001V6ZM159 8L6 7.99999V6H157L159 6.00001V8ZM159 31H4L4 29L4 27L126.353 27L2 27V9.99999L158.965 10L4 9.99999L4 8H159L161 8.00001V10H163V27L161 27V29V31L159 31ZM155 33L159 33V31L6 31L6 33H155ZM155 33V35L10 35V33L155 33Z" fill="#FF9332"/>
<rect x="155" y="2" width="2.00001" height="145" transform="rotate(90 155 2)" fill="#FFBD82"/>
<rect x="6" y="6" width="2" height="2" transform="rotate(90 6 6)" fill="#FFBD82"/>
<rect x="4" y="10" width="4" height="2" transform="rotate(90 4 10)" fill="#FFBD82"/>
<rect x="8" y="4" width="2" height="2" transform="rotate(90 8 4)" fill="#FFBD82"/>
<rect x="10" y="4" width="2" height="2" transform="rotate(90 10 4)" fill="#FFBD82"/>
<rect x="159" y="4" width="2" height="4" transform="rotate(90 159 4)" fill="#FFBD82"/>
<rect x="161" y="6" width="2" height="2" transform="rotate(90 161 6)" fill="#FFBD82"/>
<rect x="163" y="10" width="4" height="2" transform="rotate(90 163 10)" fill="#FFBD82"/>
<rect width="6" height="4" transform="matrix(-1.31134e-07 -1 -1 1.31134e-07 37 43)" fill="#FFDDBE"/>
<rect width="6" height="4" transform="matrix(-1.31134e-07 -1 -1 1.31134e-07 135 43)" fill="#FFDDBE"/>
<rect width="6" height="3" transform="matrix(-1.31134e-07 -1 -1 1.31134e-07 32 43)" fill="#FFDDBE"/>
<rect width="6" height="3" transform="matrix(-1.31134e-07 -1 -1 1.31134e-07 130 43)" fill="#FFDDBE"/>
<rect width="6" height="2" transform="matrix(-1.31134e-07 -1 -1 1.31134e-07 28 43)" fill="#FFDDBE"/>
<rect width="6" height="2" transform="matrix(-1.31134e-07 -1 -1 1.31134e-07 126 43)" fill="#FFDDBE"/>
<rect width="6" height="0.999999" transform="matrix(-1.31134e-07 -1 -1 1.31134e-07 25 43)" fill="#FFDDBE"/>
<rect width="6" height="0.999999" transform="matrix(-1.31134e-07 -1 -1 1.31134e-07 123 43)" fill="#FFDDBE"/>
<rect x="4" y="27" width="4" height="2" transform="rotate(90 4 27)" fill="#FFBD82"/>
<rect x="8" y="33" width="2" height="2" transform="rotate(90 8 33)" fill="#FFBD82"/>
<rect x="6" y="31" width="2" height="2" transform="rotate(90 6 31)" fill="#FFBD82"/>
<rect x="159" y="35" width="4" height="2" transform="rotate(-180 159 35)" fill="#FFBD82"/>
<rect x="161" y="33" width="2" height="2" transform="rotate(-180 161 33)" fill="#FFBD82"/>
<rect x="163" y="29" width="2" height="4" transform="rotate(-180 163 29)" fill="#FFBD82"/>
<path d="M49.9441 15.4265H48.7867H47.6294V16.5839H46.472V17.7412V18.8986V21.2133V22.3706V23.528H47.6294V24.6853H48.7867H49.9441H51.1014H52.2588H53.4161V23.528H54.5735V22.3706H56.8882V24.6853H55.7308V25.8427H54.5735V27H51.1014H49.9441H46.472V25.8427H45.3147V24.6853H44.1573V22.3706V21.2133V20.0559V18.8986V15.4265H45.3147V14.2692H46.472V13.1118H48.7867H49.9441H51.1014H54.5735V14.2692H55.7308V15.4265H56.8882V17.7412H54.5735V16.5839H53.4161V15.4265H52.2588H51.1014H49.9441ZM69.6252 27H61.5237H60.3664H59.209V25.8427V24.6853V23.528V21.2133V20.0559V18.8986V17.7412V16.5839V15.4265V14.2692V13.1118H60.3664H61.5237V24.6853H69.6252V22.3706H71.9398V24.6853V27H69.6252ZM80.0474 15.4265H78.8901H77.7328V16.5839H76.5754V17.7412V18.8986V21.2133V22.3706V23.528H77.7328V24.6853H78.8901H80.0474H81.2048H82.3621H83.5195V23.528H84.6768V22.3706V21.2133V17.7412V16.5839H83.5195V15.4265H82.3621H81.2048H80.0474ZM86.9915 21.2133V24.6853H85.8342V25.8427H84.6768V27H81.2048H80.0474H76.5754V25.8427H75.4181V24.6853H74.2607V22.3706V21.2133V20.0559V18.8986V15.4265H75.4181V14.2692H76.5754V13.1118H78.8901H80.0474H81.2048H84.6768V14.2692H85.8342V15.4265H86.9915V17.7412V21.2133ZM91.6271 22.3706V23.528H92.7844V24.6853H93.9418H95.0991H96.2565H97.4138H98.5712V23.528H99.7285V22.3706H98.5712V21.2133H97.4138H96.2565H95.0991H91.6271V20.0559H90.4697V18.8986H89.3124V17.7412V16.5839V15.4265H90.4697V14.2692H91.6271V13.1118H93.9418H95.0991H96.2565H99.7285V14.2692H100.886V15.4265H102.043V17.7412H99.7285V16.5839H98.5712V15.4265H97.4138H96.2565H95.0991H93.9418H92.7844V16.5839H91.6271V17.7412H92.7844V18.8986H93.9418H95.0991H96.2565H99.7285V20.0559H100.886V21.2133H102.043V22.3706V23.528V24.6853H100.886V25.8427H99.7285V27H96.2565H95.0991H91.6271V25.8427H90.4697V24.6853H89.3124V22.3706H91.6271ZM104.364 15.4265V14.2692V13.1118H105.521H106.679H110.151H117.095V15.4265H115.938H114.78H112.466H111.308H110.151H107.836H106.679V18.8986H114.78V21.2133H106.679V24.6853H107.836H110.151H111.308H112.466H114.78H115.938H117.095V27H110.151H106.679H105.521H104.364V25.8427V24.6853V23.528V21.2133V20.0559V18.8986V17.7412V16.5839V15.4265Z" fill="#393939"/>
<path d="M49.9441 13.4265H48.7867H47.6294V14.5839H46.472V15.7412V16.8986V19.2133V20.3706V21.528H47.6294V22.6853H48.7867H49.9441H51.1014H52.2588H53.4161V21.528H54.5735V20.3706H56.8882V22.6853H55.7308V23.8427H54.5735V25H51.1014H49.9441H46.472V23.8427H45.3147V22.6853H44.1573V20.3706V19.2133V18.0559V16.8986V13.4265H45.3147V12.2692H46.472V11.1118H48.7867H49.9441H51.1014H54.5735V12.2692H55.7308V13.4265H56.8882V15.7412H54.5735V14.5839H53.4161V13.4265H52.2588H51.1014H49.9441ZM69.6252 25H61.5237H60.3664H59.209V23.8427V22.6853V21.528V19.2133V18.0559V16.8986V15.7412V14.5839V13.4265V12.2692V11.1118H60.3664H61.5237V22.6853H69.6252V20.3706H71.9398V22.6853V25H69.6252ZM80.0474 13.4265H78.8901H77.7328V14.5839H76.5754V15.7412V16.8986V19.2133V20.3706V21.528H77.7328V22.6853H78.8901H80.0474H81.2048H82.3621H83.5195V21.528H84.6768V20.3706V19.2133V15.7412V14.5839H83.5195V13.4265H82.3621H81.2048H80.0474ZM86.9915 19.2133V22.6853H85.8342V23.8427H84.6768V25H81.2048H80.0474H76.5754V23.8427H75.4181V22.6853H74.2607V20.3706V19.2133V18.0559V16.8986V13.4265H75.4181V12.2692H76.5754V11.1118H78.8901H80.0474H81.2048H84.6768V12.2692H85.8342V13.4265H86.9915V15.7412V19.2133ZM91.6271 20.3706V21.528H92.7844V22.6853H93.9418H95.0991H96.2565H97.4138H98.5712V21.528H99.7285V20.3706H98.5712V19.2133H97.4138H96.2565H95.0991H91.6271V18.0559H90.4697V16.8986H89.3124V15.7412V14.5839V13.4265H90.4697V12.2692H91.6271V11.1118H93.9418H95.0991H96.2565H99.7285V12.2692H100.886V13.4265H102.043V15.7412H99.7285V14.5839H98.5712V13.4265H97.4138H96.2565H95.0991H93.9418H92.7844V14.5839H91.6271V15.7412H92.7844V16.8986H93.9418H95.0991H96.2565H99.7285V18.0559H100.886V19.2133H102.043V20.3706V21.528V22.6853H100.886V23.8427H99.7285V25H96.2565H95.0991H91.6271V23.8427H90.4697V22.6853H89.3124V20.3706H91.6271ZM104.364 13.4265V12.2692V11.1118H105.521H106.679H110.151H117.095V13.4265H115.938H114.78H112.466H111.308H110.151H107.836H106.679V16.8986H114.78V19.2133H106.679V22.6853H107.836H110.151H111.308H112.466H114.78H115.938H117.095V25H110.151H106.679H105.521H104.364V23.8427V22.6853V21.528V19.2133V18.0559V16.8986V15.7412V14.5839V13.4265Z" fill="white"/>
</svg>
