<svg width="14" height="14" viewBox="0 0 14 14" fill="none" xmlns="http://www.w3.org/2000/svg">
<path d="M7.05081 13.8682H6.41885C6.40647 13.8641 6.39379 13.8611 6.38093 13.8591C6.20425 13.8432 6.02677 13.8345 5.85114 13.811C5.21444 13.7265 4.59947 13.5595 4.01359 13.2946C2.50014 12.6103 1.37982 11.5206 0.652628 10.0254C0.297152 9.29371 0.0917656 8.51905 0.0252783 7.70751C0.0184321 7.6252 0.0084261 7.54288 0 7.46044V6.8026C0.00560114 6.77935 0.00973459 6.75577 0.0123758 6.73201C0.0319683 6.33373 0.0902602 5.9383 0.186428 5.55131C0.594567 3.91678 1.48049 2.60123 2.85395 1.62889C4.18988 0.682883 5.68499 0.291075 7.31676 0.420536C7.83851 0.462007 8.35324 0.567093 8.84952 0.733456C10.0592 1.13738 11.0776 1.82657 11.8959 2.80431C12.8256 3.91467 13.341 5.19757 13.4532 6.64087C13.4888 7.11566 13.4729 7.59292 13.4058 8.06428C13.3072 8.77244 13.106 9.44964 12.787 10.0889C12.0169 11.6307 10.8343 12.73 9.23936 13.3868C8.66948 13.6202 8.06864 13.7692 7.45579 13.8291C7.32018 13.843 7.18576 13.8551 7.05081 13.8682ZM7.56427 8.27869C7.77492 8.26091 7.98031 8.24471 8.18517 8.22601C8.63449 8.18734 9.08044 8.11626 9.51952 8.01332C9.84353 7.93575 10.1623 7.84211 10.4575 7.68275C10.5835 7.61466 10.7025 7.5363 10.7875 7.41724C10.8797 7.28765 10.8821 7.14805 10.7846 7.02214C10.7399 6.96535 10.6882 6.91446 10.6307 6.87069C10.4727 6.74913 10.2926 6.66945 10.1065 6.60294C9.42039 6.35758 8.70575 6.26052 7.98492 6.19651C7.84602 6.18413 7.70673 6.1757 7.56691 6.16543V5.33875H9.90291V3.61993H3.49683V5.33835H5.83574V6.16807C5.81862 6.17017 5.80387 6.17228 5.789 6.17399C5.36703 6.22101 4.94362 6.25828 4.52324 6.31741C4.09166 6.37813 3.66812 6.47967 3.26209 6.6435C3.06644 6.72252 2.8758 6.81261 2.72835 6.96986C2.57286 7.13553 2.57536 7.31228 2.73111 7.4769C2.83538 7.58687 2.96349 7.66234 3.09857 7.72713C3.51105 7.92468 3.95079 8.03307 4.39843 8.10406C4.7959 8.16714 5.19733 8.2052 5.59651 8.25314C5.67551 8.26263 5.75621 8.26631 5.84034 8.27356V11.2422H7.5644L7.56427 8.27869Z" fill="white"/>
</svg>
