<svg width="161" height="14" viewBox="0 0 161 14" fill="none" xmlns="http://www.w3.org/2000/svg">
<path fill-rule="evenodd" clip-rule="evenodd" d="M2 6H0V0H2L2 2L4 2V4H6V6L8 6V8L153 8.00001V6H155V4L157 4V2L159 2V0H161V6H159V10H157V12H153V14L8 14V12H4L4 10H2V8L2 6Z" fill="#8A8A8A"/>
<rect width="6" height="4" transform="matrix(-1.31134e-07 -1 -1 1.31134e-07 35 14)" fill="#BBBBBB"/>
<rect width="6" height="4" transform="matrix(-1.31134e-07 -1 -1 1.31134e-07 133 14)" fill="#BBBBBB"/>
<rect width="6" height="3" transform="matrix(-1.31134e-07 -1 -1 1.31134e-07 30 14)" fill="#BBBBBB"/>
<rect width="6" height="3" transform="matrix(-1.31134e-07 -1 -1 1.31134e-07 128 14)" fill="#BBBBBB"/>
<rect width="6" height="2" transform="matrix(-1.31134e-07 -1 -1 1.31134e-07 26 14)" fill="#BBBBBB"/>
<rect width="6" height="2" transform="matrix(-1.31134e-07 -1 -1 1.31134e-07 124 14)" fill="#BBBBBB"/>
<rect width="6" height="0.999999" transform="matrix(-1.31134e-07 -1 -1 1.31134e-07 23 14)" fill="#BBBBBB"/>
<rect width="6" height="0.999999" transform="matrix(-1.31134e-07 -1 -1 1.31134e-07 121 14)" fill="#BBBBBB"/>
</svg>
