<svg width="143" height="41" viewBox="0 0 165 41" fill="none" xmlns="http://www.w3.org/2000/svg">
<rect x="7" y="2" width="152" height="35" fill="white"/>
<rect x="2" y="6" width="161" height="29" fill="white"/>
<rect x="2" y="8" width="2" height="2" fill="#393939"/>
<rect x="163" y="35" width="2" height="4" transform="rotate(-180 163 35)" fill="#393939"/>
<rect x="4" y="31" width="4" height="2" transform="rotate(90 4 31)" fill="#393939"/>
<rect x="10" y="35" width="2" height="4" transform="rotate(90 10 35)" fill="#CFCFCF"/>
<rect x="155" y="37" width="2.00001" height="145" transform="rotate(90 155 37)" fill="#CFCFCF"/>
<rect x="161" y="10" width="4" height="2" transform="rotate(-90 161 10)" fill="#393939"/>
<rect x="2" y="6" width="2" height="2" fill="#393939"/>
<rect x="161" y="37" width="2" height="2" transform="rotate(-180 161 37)" fill="#393939"/>
<rect x="6" y="35" width="2" height="2" transform="rotate(90 6 35)" fill="#393939"/>
<rect x="4" y="4" width="2" height="2" fill="#393939"/>
<rect x="10" y="37" width="2" height="4" transform="rotate(90 10 37)" fill="#393939"/>
<rect x="159" y="6" width="2" height="2" transform="rotate(-90 159 6)" fill="#393939"/>
<rect x="6" y="2" width="4" height="2" fill="#393939"/>
<rect x="159" y="39" width="4" height="2" transform="rotate(-180 159 39)" fill="#393939"/>
<rect x="155" y="4" width="2" height="4" transform="rotate(-90 155 4)" fill="#393939"/>
<rect x="10" width="145" height="2" fill="#393939"/>
<rect x="10" y="39" width="145" height="2" fill="#393939"/>
<rect y="10" width="2" height="21" fill="#393939"/>
<rect x="165" y="31" width="2" height="21" transform="rotate(-180 165 31)" fill="#393939"/>
<rect x="155" y="2" width="2.00001" height="145" transform="rotate(90 155 2)" fill="#CFCFCF"/>
<rect x="6" y="6" width="2" height="2" transform="rotate(90 6 6)" fill="#CFCFCF"/>
<rect x="4" y="10" width="4" height="2" transform="rotate(90 4 10)" fill="#CFCFCF"/>
<rect x="8" y="4" width="2" height="2" transform="rotate(90 8 4)" fill="#CFCFCF"/>
<rect x="10" y="4" width="2" height="2" transform="rotate(90 10 4)" fill="#CFCFCF"/>
<rect x="159" y="4" width="2" height="4" transform="rotate(90 159 4)" fill="#CFCFCF"/>
<rect x="161" y="6" width="2" height="2" transform="rotate(90 161 6)" fill="#CFCFCF"/>
<rect x="163" y="10" width="4" height="2" transform="rotate(90 163 10)" fill="#CFCFCF"/>
<rect x="4" y="27" width="4" height="2" transform="rotate(90 4 27)" fill="#CFCFCF"/>
<rect x="6" y="33" width="2" height="2" transform="rotate(90 6 33)" fill="#CFCFCF"/>
<rect x="159" y="37" width="4" height="2" transform="rotate(-180 159 37)" fill="#CFCFCF"/>
<rect x="161" y="35" width="2" height="2" transform="rotate(-180 161 35)" fill="#CFCFCF"/>
<rect x="163" y="31" width="2" height="4" transform="rotate(-180 163 31)" fill="#CFCFCF"/>
</svg>
