<svg width="143" height="39" viewBox="0 0 143 39" fill="none" xmlns="http://www.w3.org/2000/svg">
<rect x="1.73438" y="6.93359" width="1.73333" height="1.73333" fill="#393939"/>
<rect x="141.266" y="33.7998" width="1.73333" height="3.46667" transform="rotate(-180 141.266 33.7998)" fill="#393939"/>
<rect x="3.46484" y="30.333" width="3.46667" height="1.73333" transform="rotate(90 3.46484 30.333)" fill="#393939"/>
<rect x="8.66797" y="28.5996" width="1.73333" height="1.73333" transform="rotate(90 8.66797 28.5996)" fill="#CFCFCF"/>
<rect x="134.332" y="30.333" width="1.73334" height="125.667" transform="rotate(90 134.332 30.333)" fill="#CFCFCF"/>
<rect x="139.535" y="8.66699" width="3.46667" height="1.73333" transform="rotate(-90 139.535 8.66699)" fill="#393939"/>
<rect x="1.73438" y="5.2002" width="1.73333" height="1.73333" fill="#393939"/>
<rect x="139.535" y="35.5332" width="1.73333" height="1.73333" transform="rotate(-180 139.535 35.5332)" fill="#393939"/>
<rect x="5.19922" y="33.7998" width="1.73333" height="1.73333" transform="rotate(90 5.19922 33.7998)" fill="#393939"/>
<rect x="3.46484" y="3.4668" width="1.73333" height="1.73333" fill="#393939"/>
<rect x="6.93359" y="35.5332" width="1.73333" height="1.73333" transform="rotate(90 6.93359 35.5332)" fill="#393939"/>
<rect x="137.801" y="5.2002" width="1.73333" height="1.73333" transform="rotate(-90 137.801 5.2002)" fill="#393939"/>
<rect x="5.19922" y="1.7334" width="3.46667" height="1.73333" fill="#393939"/>
<rect x="137.801" y="37.2666" width="3.46667" height="1.73333" transform="rotate(-180 137.801 37.2666)" fill="#393939"/>
<path fill-rule="evenodd" clip-rule="evenodd" d="M3.46771 30.3338H1.73438L1.73438 25.1338L3.46771 25.1338L3.46771 30.3338ZM3.46777 32.0671H3.46774L3.46774 26.8671L5.20107 26.8671V28.6005L6.93444 28.6005V30.3338L8.6678 30.3338V32.0671L134.334 32.0671V37.2671L8.6675 37.2671V35.5338H5.20113V33.8005H3.46777L3.46777 32.0671ZM137.801 35.5338H134.334V30.3338H136.068V28.6005L137.801 28.6005V30.3338V33.8005V35.5338ZM139.534 33.8005H137.801V26.8671L139.534 26.8671V33.8005ZM139.534 30.3338H141.268V25.1338L139.534 25.1338V30.3338Z" fill="#8A8A8A"/>
<rect x="8.66797" y="35.5332" width="1.73333" height="1.73333" transform="rotate(90 8.66797 35.5332)" fill="#393939"/>
<rect x="134.332" y="3.4668" width="1.73333" height="3.46667" transform="rotate(-90 134.332 3.4668)" fill="#393939"/>
<rect x="8.66797" width="125.667" height="1.73333" fill="#393939"/>
<rect x="8.66797" y="37.2666" width="125.667" height="1.73333" fill="#393939"/>
<rect y="8.66699" width="1.73333" height="21.6667" fill="#393939"/>
<rect x="143" y="30.333" width="1.73333" height="21.6667" transform="rotate(-180 143 30.333)" fill="#393939"/>
<path fill-rule="evenodd" clip-rule="evenodd" d="M134.33 3.46478L8.66369 3.46477V1.73145L134.33 1.73146V3.46478ZM136.064 5.19811V3.46479L6.93037 3.46478V5.1981L136.064 5.19811ZM137.797 5.19813V6.93145L5.19707 6.93144L5.19707 5.19812L137.797 5.19813ZM3.46376 8.66477L3.46376 6.93145L139.53 6.93146V8.66478H141.264V23.3981L1.73047 23.3981V8.66478L137.747 8.66478L3.46376 8.66477ZM3.46425 23.3986L3.46425 25.1319V26.8653L137.798 26.8653L5.19757 26.8653L5.19757 28.5986L134.331 28.5986L8.66418 28.5986L8.66418 30.3319L134.331 30.3319V28.5986L137.798 28.5986V26.8653L139.531 26.8652V25.1319V23.3986L3.46425 23.3986Z" fill="white"/>
<rect x="134.332" y="1.7334" width="1.73334" height="125.667" transform="rotate(90 134.332 1.7334)" fill="#CFCFCF"/>
<rect x="5.19922" y="5.2002" width="1.73333" height="1.73333" transform="rotate(90 5.19922 5.2002)" fill="#CFCFCF"/>
<rect x="3.46484" y="8.66699" width="3.46667" height="1.73333" transform="rotate(90 3.46484 8.66699)" fill="#CFCFCF"/>
<rect x="6.93359" y="3.4668" width="1.73333" height="1.73333" transform="rotate(90 6.93359 3.4668)" fill="#CFCFCF"/>
<rect x="8.66797" y="3.4668" width="1.73333" height="1.73333" transform="rotate(90 8.66797 3.4668)" fill="#CFCFCF"/>
<rect x="137.801" y="3.4668" width="1.73333" height="3.46667" transform="rotate(90 137.801 3.4668)" fill="#CFCFCF"/>
<rect x="139.535" y="5.2002" width="1.73333" height="1.73333" transform="rotate(90 139.535 5.2002)" fill="#CFCFCF"/>
<rect x="141.266" y="8.66699" width="3.46667" height="1.73333" transform="rotate(90 141.266 8.66699)" fill="#CFCFCF"/>
<rect width="5.2" height="3.46667" transform="matrix(-1.31134e-07 -1 -1 1.31134e-07 32.0664 37.2666)" fill="#BBBBBB"/>
<rect width="5.2" height="3.46667" transform="matrix(-1.31134e-07 -1 -1 1.31134e-07 117 37.2666)" fill="#BBBBBB"/>
<rect width="5.2" height="2.6" transform="matrix(-1.31134e-07 -1 -1 1.31134e-07 27.7344 37.2666)" fill="#BBBBBB"/>
<rect width="5.2" height="2.6" transform="matrix(-1.31134e-07 -1 -1 1.31134e-07 112.668 37.2666)" fill="#BBBBBB"/>
<rect width="5.2" height="1.73333" transform="matrix(-1.31134e-07 -1 -1 1.31134e-07 24.2656 37.2666)" fill="#BBBBBB"/>
<rect width="5.2" height="1.73333" transform="matrix(-1.31134e-07 -1 -1 1.31134e-07 109.199 37.2666)" fill="#BBBBBB"/>
<rect width="5.2" height="0.866666" transform="matrix(-1.31134e-07 -1 -1 1.31134e-07 21.668 37.2666)" fill="#BBBBBB"/>
<rect width="5.2" height="0.866666" transform="matrix(-1.31134e-07 -1 -1 1.31134e-07 106.602 37.2666)" fill="#BBBBBB"/>
<rect x="3.46484" y="23.4004" width="3.46667" height="1.73333" transform="rotate(90 3.46484 23.4004)" fill="#CFCFCF"/>
<rect x="6.93359" y="28.5996" width="1.73333" height="1.73333" transform="rotate(90 6.93359 28.5996)" fill="#CFCFCF"/>
<rect x="5.19922" y="26.8662" width="1.73333" height="1.73333" transform="rotate(90 5.19922 26.8662)" fill="#CFCFCF"/>
<rect x="137.801" y="30.333" width="3.46667" height="1.73333" transform="rotate(-180 137.801 30.333)" fill="#CFCFCF"/>
<rect x="139.535" y="28.5996" width="1.73333" height="1.73333" transform="rotate(-180 139.535 28.5996)" fill="#CFCFCF"/>
<rect x="141.266" y="25.1338" width="1.73333" height="3.46667" transform="rotate(-180 141.266 25.1338)" fill="#CFCFCF"/>
</svg>
