<svg width="165" height="45" viewBox="0 0 165 45" fill="none" xmlns="http://www.w3.org/2000/svg">
<rect x="2" y="8" width="2" height="2" fill="black"/>
<rect x="163" y="39" width="2" height="4" transform="rotate(-180 163 39)" fill="black"/>
<rect x="4" y="35" width="4" height="2" transform="rotate(90 4 35)" fill="black"/>
<rect x="10" y="33" width="2" height="2" transform="rotate(90 10 33)" fill="#FFBD82"/>
<rect x="155" y="35" width="2.00001" height="145" transform="rotate(90 155 35)" fill="#FFBD82"/>
<rect x="161" y="10" width="4" height="2" transform="rotate(-90 161 10)" fill="black"/>
<rect x="2" y="6" width="2" height="2" fill="black"/>
<rect x="161" y="41" width="2" height="2" transform="rotate(-180 161 41)" fill="black"/>
<rect x="6" y="39" width="2" height="2" transform="rotate(90 6 39)" fill="black"/>
<rect x="4" y="4" width="2" height="2" fill="black"/>
<rect x="8" y="41" width="2" height="2" transform="rotate(90 8 41)" fill="black"/>
<rect x="159" y="6" width="2" height="2" transform="rotate(-90 159 6)" fill="black"/>
<rect x="6" y="2" width="4" height="2" fill="black"/>
<rect x="159" y="43" width="4" height="2" transform="rotate(-180 159 43)" fill="black"/>
<path fill-rule="evenodd" clip-rule="evenodd" d="M4 35H2V29H4L4 31L6 31V33H8V35L10 35V37L155 37V35H157V33L159 33V31L161 31V29H163V35H161V39H159V41H155V43L10 43V41H6L6 39H4V37L4 35Z" fill="#EE7000"/>
<rect x="10" y="41" width="2" height="2" transform="rotate(90 10 41)" fill="black"/>
<rect x="155" y="4" width="2" height="4" transform="rotate(-90 155 4)" fill="black"/>
<rect x="10" width="145" height="2" fill="black"/>
<rect x="10" y="43" width="145" height="2" fill="black"/>
<rect y="10" width="2" height="25" fill="black"/>
<rect x="165" y="35" width="2" height="25" transform="rotate(-180 165 35)" fill="black"/>
<path fill-rule="evenodd" clip-rule="evenodd" d="M155 4L10 3.99999V2L155 2.00001V4ZM157 6L8 5.99999V4H155L157 4.00001V6ZM159 8L6 7.99999V6H157L159 6.00001V8ZM159 31H4L4 29L4 27L126.353 27L2 27V9.99999L158.965 10L4 9.99999L4 8H159L161 8.00001V10H163V27L161 27V29V31L159 31ZM155 33L159 33V31L6 31L6 33H155ZM155 33V35L10 35V33L155 33Z" fill="#FF9332"/>
<rect x="155" y="2" width="2.00001" height="145" transform="rotate(90 155 2)" fill="#FFBD82"/>
<rect x="6" y="6" width="2" height="2" transform="rotate(90 6 6)" fill="#FFBD82"/>
<rect x="4" y="10" width="4" height="2" transform="rotate(90 4 10)" fill="#FFBD82"/>
<rect x="8" y="4" width="2" height="2" transform="rotate(90 8 4)" fill="#FFBD82"/>
<rect x="10" y="4" width="2" height="2" transform="rotate(90 10 4)" fill="#FFBD82"/>
<rect x="159" y="4" width="2" height="4" transform="rotate(90 159 4)" fill="#FFBD82"/>
<rect x="161" y="6" width="2" height="2" transform="rotate(90 161 6)" fill="#FFBD82"/>
<rect x="163" y="10" width="4" height="2" transform="rotate(90 163 10)" fill="#FFBD82"/>
<rect width="6" height="4" transform="matrix(-1.31134e-07 -1 -1 1.31134e-07 37 43)" fill="#FFDDBE"/>
<rect width="6" height="4" transform="matrix(-1.31134e-07 -1 -1 1.31134e-07 135 43)" fill="#FFDDBE"/>
<rect width="6" height="3" transform="matrix(-1.31134e-07 -1 -1 1.31134e-07 32 43)" fill="#FFDDBE"/>
<rect width="6" height="3" transform="matrix(-1.31134e-07 -1 -1 1.31134e-07 130 43)" fill="#FFDDBE"/>
<rect width="6" height="2" transform="matrix(-1.31134e-07 -1 -1 1.31134e-07 28 43)" fill="#FFDDBE"/>
<rect width="6" height="2" transform="matrix(-1.31134e-07 -1 -1 1.31134e-07 126 43)" fill="#FFDDBE"/>
<rect width="6" height="0.999999" transform="matrix(-1.31134e-07 -1 -1 1.31134e-07 25 43)" fill="#FFDDBE"/>
<rect width="6" height="0.999999" transform="matrix(-1.31134e-07 -1 -1 1.31134e-07 123 43)" fill="#FFDDBE"/>
<rect x="4" y="27" width="4" height="2" transform="rotate(90 4 27)" fill="#FFBD82"/>
<rect x="8" y="33" width="2" height="2" transform="rotate(90 8 33)" fill="#FFBD82"/>
<rect x="6" y="31" width="2" height="2" transform="rotate(90 6 31)" fill="#FFBD82"/>
<rect x="159" y="35" width="4" height="2" transform="rotate(-180 159 35)" fill="#FFBD82"/>
<rect x="161" y="33" width="2" height="2" transform="rotate(-180 161 33)" fill="#FFBD82"/>
<rect x="163" y="29" width="2" height="4" transform="rotate(-180 163 29)" fill="#FFBD82"/>
<path d="M17.1851 16.6284H16.3481H15.5111V17.4499H14.6741V18.2714V19.0929V20.7359V21.5575V22.379H15.5111V23.2005H16.3481H17.1851H18.0222H18.8592H19.6962V22.379H20.5332V21.5575H22.2073V23.2005H21.3703V24.022H20.5332V24.8435H18.0222H17.1851H14.6741V24.022H13.837V23.2005H13V21.5575V20.7359V19.9144V19.0929V16.6284H13.837V15.8069H14.6741V14.9854H16.3481H17.1851H18.0222H20.5332V15.8069H21.3703V16.6284H22.2073V18.2714H20.5332V17.4499H19.6962V16.6284H18.8592H18.0222H17.1851Z" fill="#393939"/>
<path d="M28.0709 16.6284H27.2339H26.3969V17.4499H25.5599V18.2714V19.0929V20.7359V21.5575V22.379H26.3969V23.2005H27.2339H28.0709H28.908H29.745H30.582V22.379H31.4191V21.5575V20.7359V18.2714V17.4499H30.582V16.6284H29.745H28.908H28.0709ZM33.0931 20.7359V23.2005H32.2561V24.022H31.4191V24.8435H28.908H28.0709H25.5599V24.022H24.7228V23.2005H23.8858V21.5575V20.7359V19.9144V19.0929V16.6284H24.7228V15.8069H25.5599V14.9854H27.2339H28.0709H28.908H31.4191V15.8069H32.2561V16.6284H33.0931V18.2714V20.7359Z" fill="#393939"/>
<path d="M42.3049 18.2714V15.8069V14.9854H43.9789V15.8069V16.6284V23.2005V24.8435H42.3049V23.2005H41.4678V22.379H40.6308V21.5575H39.7938V20.7359H38.9568V19.9144H38.1197V19.0929H37.2827V18.2714H36.4457V20.7359V24.8435H35.6087H34.7716V24.022V23.2005V22.379V20.7359V19.9144V19.0929V18.2714V17.4499V16.6284V15.8069V14.9854H35.6087H36.4457V15.8069H37.2827V16.6284H38.1197V17.4499H38.9568V18.2714H39.7938V19.0929H40.6308V19.9144H41.4678V20.7359H42.3049V18.2714Z" fill="#393939"/>
<path d="M53.1907 18.2714V15.8069V14.9854H54.8647V15.8069V16.6284V23.2005V24.8435H53.1907V23.2005H52.3536V22.379H51.5166V21.5575H50.6796V20.7359H49.8426V19.9144H49.0055V19.0929H48.1685V18.2714H47.3315V20.7359V24.8435H46.4945H45.6574V24.022V23.2005V22.379V20.7359V19.9144V19.0929V18.2714V17.4499V16.6284V15.8069V14.9854H46.4945H47.3315V15.8069H48.1685V16.6284H49.0055V17.4499H49.8426V18.2714H50.6796V19.0929H51.5166V19.9144H52.3536V20.7359H53.1907V18.2714Z" fill="#393939"/>
<path d="M56.5432 16.6284V15.8069V14.9854H57.3803H58.2173H60.7284H65.7505V16.6284H64.9135H64.0765H62.4024H61.5654H60.7284H59.0543H58.2173V19.0929H64.0765V20.7359H58.2173V23.2005H59.0543H60.7284H61.5654H62.4024H64.0765H64.9135H65.7505V24.8435H60.7284H58.2173H57.3803H56.5432V24.022V23.2005V22.379V20.7359V19.9144V19.0929V18.2714V17.4499V16.6284Z" fill="#393939"/>
<path d="M71.6142 16.6284H70.7772H69.9401V17.4499H69.1031V18.2714V19.0929V20.7359V21.5575V22.379H69.9401V23.2005H70.7772H71.6142H72.4512H73.2882H74.1253V22.379H74.9623V21.5575H76.6363V23.2005H75.7993V24.022H74.9623V24.8435H72.4512H71.6142H69.1031V24.022H68.2661V23.2005H67.4291V21.5575V20.7359V19.9144V19.0929V16.6284H68.2661V15.8069H69.1031V14.9854H70.7772H71.6142H72.4512H74.9623V15.8069H75.7993V16.6284H76.6363V18.2714H74.9623V17.4499H74.1253V16.6284H73.2882H72.4512H71.6142Z" fill="#393939"/>
<path d="M78.3149 16.6284V15.8069V14.9854H79.1519H79.9889H82.5H86.6851V16.6284H85.8481H85.0111H83.337V20.7359V24.8435H81.663V20.7359V16.6284H80.8259H78.3149Z" fill="#393939"/>
<path d="M107.62 19.0929V14.9854H108.457H109.294V15.8069V16.6284V17.4499V19.0929V19.9144V20.7359V21.5575V22.379V23.2005V24.022V24.8435H108.457H107.62V24.022H106.783V23.2005H105.946V22.379H105.109V21.5575H104.272V22.379H103.435V23.2005H102.598V24.022H101.761V24.8435H100.086V24.022V23.2005V16.6284V14.9854H101.761V19.0929V21.5575H102.598V20.7359H103.435V19.9144H104.272V19.0929H105.109V19.9144H105.946V20.7359H106.783V21.5575H107.62V19.0929Z" fill="#393939"/>
<path d="M110.972 24.022V23.2005V21.5575V19.9144V19.0929V18.2714H111.809V17.4499H112.646V16.6284H113.483V15.8069H114.32V14.9854H116.831V15.8069H117.669V16.6284H118.506V17.4499H119.343V18.2714H120.18V19.0929V19.9144V21.5575V23.2005V24.022V24.8435H119.343H118.506V24.022V23.2005V21.5575H112.646V23.2005V24.022V24.8435H111.809H110.972V24.022ZM118.506 19.9144V19.0929H117.669V18.2714H116.831V17.4499H115.994V16.6284H115.157V17.4499H114.32V18.2714H113.483V19.0929H112.646V19.9144H118.506Z" fill="#393939"/>
<path d="M129.391 24.8435H123.532H122.695H121.858V24.022V23.2005V22.379V20.7359V19.9144V19.0929V18.2714V17.4499V16.6284V15.8069V14.9854H122.695H123.532V23.2005H129.391V21.5575H131.065V23.2005V24.8435H129.391Z" fill="#393939"/>
<path d="M132.744 16.6284V15.8069V14.9854H133.581H134.418H136.929H141.951V16.6284H141.114H140.277H138.603H137.766H136.929H135.255H134.418V19.0929H140.277V20.7359H134.418V23.2005H135.255H136.929H137.766H138.603H140.277H141.114H141.951V24.8435H136.929H134.418H133.581H132.744V24.022V23.2005V22.379V20.7359V19.9144V19.0929V18.2714V17.4499V16.6284Z" fill="#393939"/>
<path d="M143.63 16.6284V15.8069V14.9854H144.467H145.304H147.815H152V16.6284H151.163H150.326H148.652V20.7359V24.8435H146.978V20.7359V16.6284H146.141H143.63Z" fill="#393939"/>
<path d="M17.1851 15.643H16.3481H15.5111V16.4645H14.6741V17.2861V18.1076V19.7506V20.5721V21.3936H15.5111V22.2151H16.3481H17.1851H18.0222H18.8592H19.6962V21.3936H20.5332V20.5721H22.2073V22.2151H21.3703V23.0366H20.5332V23.8582H18.0222H17.1851H14.6741V23.0366H13.837V22.2151H13V20.5721V19.7506V18.9291V18.1076V15.643H13.837V14.8215H14.6741V14H16.3481H17.1851H18.0222H20.5332V14.8215H21.3703V15.643H22.2073V17.2861H20.5332V16.4645H19.6962V15.643H18.8592H18.0222H17.1851Z" fill="white"/>
<path d="M28.0709 15.643H27.2339H26.3969V16.4645H25.5599V17.2861V18.1076V19.7506V20.5721V21.3936H26.3969V22.2151H27.2339H28.0709H28.908H29.745H30.582V21.3936H31.4191V20.5721V19.7506V17.2861V16.4645H30.582V15.643H29.745H28.908H28.0709ZM33.0931 19.7506V22.2151H32.2561V23.0366H31.4191V23.8582H28.908H28.0709H25.5599V23.0366H24.7228V22.2151H23.8858V20.5721V19.7506V18.9291V18.1076V15.643H24.7228V14.8215H25.5599V14H27.2339H28.0709H28.908H31.4191V14.8215H32.2561V15.643H33.0931V17.2861V19.7506Z" fill="white"/>
<path d="M42.3049 17.2861V14.8215V14H43.9789V14.8215V15.643V22.2151V23.8582H42.3049V22.2151H41.4678V21.3936H40.6308V20.5721H39.7938V19.7506H38.9568V18.9291H38.1197V18.1076H37.2827V17.2861H36.4457V19.7506V23.8582H35.6087H34.7716V23.0366V22.2151V21.3936V19.7506V18.9291V18.1076V17.2861V16.4645V15.643V14.8215V14H35.6087H36.4457V14.8215H37.2827V15.643H38.1197V16.4645H38.9568V17.2861H39.7938V18.1076H40.6308V18.9291H41.4678V19.7506H42.3049V17.2861Z" fill="white"/>
<path d="M53.1907 17.2861V14.8215V14H54.8647V14.8215V15.643V22.2151V23.8582H53.1907V22.2151H52.3536V21.3936H51.5166V20.5721H50.6796V19.7506H49.8426V18.9291H49.0055V18.1076H48.1685V17.2861H47.3315V19.7506V23.8582H46.4945H45.6574V23.0366V22.2151V21.3936V19.7506V18.9291V18.1076V17.2861V16.4645V15.643V14.8215V14H46.4945H47.3315V14.8215H48.1685V15.643H49.0055V16.4645H49.8426V17.2861H50.6796V18.1076H51.5166V18.9291H52.3536V19.7506H53.1907V17.2861Z" fill="white"/>
<path d="M56.5432 15.643V14.8215V14H57.3803H58.2173H60.7284H65.7505V15.643H64.9135H64.0765H62.4024H61.5654H60.7284H59.0543H58.2173V18.1076H64.0765V19.7506H58.2173V22.2151H59.0543H60.7284H61.5654H62.4024H64.0765H64.9135H65.7505V23.8582H60.7284H58.2173H57.3803H56.5432V23.0366V22.2151V21.3936V19.7506V18.9291V18.1076V17.2861V16.4645V15.643Z" fill="white"/>
<path d="M71.6142 15.643H70.7772H69.9401V16.4645H69.1031V17.2861V18.1076V19.7506V20.5721V21.3936H69.9401V22.2151H70.7772H71.6142H72.4512H73.2882H74.1253V21.3936H74.9623V20.5721H76.6363V22.2151H75.7993V23.0366H74.9623V23.8582H72.4512H71.6142H69.1031V23.0366H68.2661V22.2151H67.4291V20.5721V19.7506V18.9291V18.1076V15.643H68.2661V14.8215H69.1031V14H70.7772H71.6142H72.4512H74.9623V14.8215H75.7993V15.643H76.6363V17.2861H74.9623V16.4645H74.1253V15.643H73.2882H72.4512H71.6142Z" fill="white"/>
<path d="M78.3149 15.643V14.8215V14H79.1519H79.9889H82.5H86.6851V15.643H85.8481H85.0111H83.337V19.7506V23.8582H81.663V19.7506V15.643H80.8259H78.3149Z" fill="white"/>
<path d="M107.62 18.1076V14H108.457H109.294V14.8215V15.643V16.4645V18.1076V18.9291V19.7506V20.5721V21.3936V22.2151V23.0366V23.8582H108.457H107.62V23.0366H106.783V22.2151H105.946V21.3936H105.109V20.5721H104.272V21.3936H103.435V22.2151H102.598V23.0366H101.761V23.8582H100.086V23.0366V22.2151V15.643V14H101.761V18.1076V20.5721H102.598V19.7506H103.435V18.9291H104.272V18.1076H105.109V18.9291H105.946V19.7506H106.783V20.5721H107.62V18.1076Z" fill="white"/>
<path d="M110.972 23.0366V22.2151V20.5721V18.9291V18.1076V17.2861H111.809V16.4645H112.646V15.643H113.483V14.8215H114.32V14H116.831V14.8215H117.669V15.643H118.506V16.4645H119.343V17.2861H120.18V18.1076V18.9291V20.5721V22.2151V23.0366V23.8582H119.343H118.506V23.0366V22.2151V20.5721H112.646V22.2151V23.0366V23.8582H111.809H110.972V23.0366ZM118.506 18.9291V18.1076H117.669V17.2861H116.831V16.4645H115.994V15.643H115.157V16.4645H114.32V17.2861H113.483V18.1076H112.646V18.9291H118.506Z" fill="white"/>
<path d="M129.391 23.8582H123.532H122.695H121.858V23.0366V22.2151V21.3936V19.7506V18.9291V18.1076V17.2861V16.4645V15.643V14.8215V14H122.695H123.532V22.2151H129.391V20.5721H131.065V22.2151V23.8582H129.391Z" fill="white"/>
<path d="M132.744 15.643V14.8215V14H133.581H134.418H136.929H141.951V15.643H141.114H140.277H138.603H137.766H136.929H135.255H134.418V18.1076H140.277V19.7506H134.418V22.2151H135.255H136.929H137.766H138.603H140.277H141.114H141.951V23.8582H136.929H134.418H133.581H132.744V23.0366V22.2151V21.3936V19.7506V18.9291V18.1076V17.2861V16.4645V15.643Z" fill="white"/>
<path d="M143.63 15.643V14.8215V14H144.467H145.304H147.815H152V15.643H151.163H150.326H148.652V19.7506V23.8582H146.978V19.7506V15.643H146.141H143.63Z" fill="white"/>
</svg>
