<svg width="20" height="20" viewBox="0 0 20 20" fill="none" xmlns="http://www.w3.org/2000/svg">
<path fill-rule="evenodd" clip-rule="evenodd" d="M17.1431 0L5.71484 0L5.71484 2.85706L17.1431 2.85706V0ZM19.9999 7.14474V2.85915L17.1429 2.85915V7.13965L10.0016 7.13965L7.14482 7.13965L7.14453 7.13965L7.14453 17.1394H10.0016L10.0016 9.99671L17.1445 9.99671V7.14474L19.9999 7.14474ZM2.85547 2.85937L5.71253 2.85937V5.71644H2.85706L2.85706 17.1387H7.14106L7.14106 19.9957H2.85547L2.85547 17.1421H0L0 5.71387L2.85547 5.71387L2.85547 2.85937Z" fill="#FF7C06"/>
<path fill-rule="evenodd" clip-rule="evenodd" d="M17.1431 2.85449L5.71484 2.85449V5.71364H2.85938L2.85938 17.1419H7.14497L7.14497 7.14008L17.1431 7.14008V2.85449Z" fill="#FFE0C5"/>
<rect x="7.14453" y="5.71387" width="9.99971" height="1.42853" fill="#FFB776"/>
<rect x="7.14453" y="7.13965" width="9.99971" height="1.42853" transform="rotate(90 7.14453 7.13965)" fill="#FFB776"/>
</svg>
