<svg width="25" height="25" viewBox="0 0 25 25" fill="none" xmlns="http://www.w3.org/2000/svg">
<path fill-rule="evenodd" clip-rule="evenodd" d="M8.21364 8.21266L21.902 8.21266V2.73731L5.47596 2.7373L5.47596 5.47498H2.73828V21.901H8.21364V8.21266Z" fill="#FFF7D8"/>
<path fill-rule="evenodd" clip-rule="evenodd" d="M21.9014 0H5.47536V2.73768H2.73768V5.47536H0V21.9014H2.73768V24.6391H8.21303V21.9014H10.9507V19.1637V16.4261V13.6884V10.9507H13.6884H16.4261H19.1637H21.9014L21.9014 8.21303H24.6391V2.73768H21.9014V0ZM21.9014 2.73768V8.21303H19.1637H16.4261H13.6884H10.9507H8.21303V10.9507V13.6884V16.4261V19.1637V21.9014H2.73768V5.47536H5.47536V2.73768H21.9014Z" fill="#FF7C06"/>
<rect x="19.1641" y="5.47559" width="2.73768" height="2.73768" fill="#FFC088"/>
<rect x="16.4258" y="5.47559" width="2.73768" height="2.73768" fill="#FFC088"/>
<rect x="13.6875" y="5.47559" width="2.73768" height="2.73768" fill="#FFC088"/>
<rect x="10.9492" y="5.47559" width="2.73768" height="2.73768" fill="#FFC088"/>
<rect x="8.21484" y="5.47559" width="2.73768" height="2.73768" fill="#FFC088"/>
<rect x="2.73828" y="19.1641" width="2.73768" height="2.73768" fill="#FFC088"/>
<rect x="5.47656" y="19.1641" width="2.73768" height="2.73768" fill="#FFC088"/>
</svg>
