<svg width="165" height="45" viewBox="0 0 165 45" fill="none" xmlns="http://www.w3.org/2000/svg">
<rect x="2" y="8" width="2" height="2" fill="#393939"/>
<rect x="163" y="39" width="2" height="4" transform="rotate(-180 163 39)" fill="#393939"/>
<rect x="4" y="35" width="4" height="2" transform="rotate(90 4 35)" fill="#393939"/>
<rect x="10" y="33" width="2" height="2" transform="rotate(90 10 33)" fill="#FFBD82"/>
<rect x="155" y="35" width="2.00001" height="145" transform="rotate(90 155 35)" fill="#FFBD82"/>
<rect x="161" y="10" width="4" height="2" transform="rotate(-90 161 10)" fill="#393939"/>
<rect x="2" y="6" width="2" height="2" fill="#393939"/>
<rect x="161" y="41" width="2" height="2" transform="rotate(-180 161 41)" fill="#393939"/>
<rect x="6" y="39" width="2" height="2" transform="rotate(90 6 39)" fill="#393939"/>
<rect x="4" y="4" width="2" height="2" fill="#393939"/>
<rect x="8" y="41" width="2" height="2" transform="rotate(90 8 41)" fill="#393939"/>
<rect x="159" y="6" width="2" height="2" transform="rotate(-90 159 6)" fill="#393939"/>
<rect x="6" y="2" width="4" height="2" fill="#393939"/>
<rect x="159" y="43" width="4" height="2" transform="rotate(-180 159 43)" fill="#393939"/>
<path fill-rule="evenodd" clip-rule="evenodd" d="M4 35H2V29H4L4 31L6 31V33H8V35L10 35V37L155 37V35H157V33L159 33V31L161 31V29H163V35H161V39H159V41H155V43L10 43V41H6L6 39H4V37L4 35Z" fill="#EE7000"/>
<rect x="10" y="41" width="2" height="2" transform="rotate(90 10 41)" fill="#393939"/>
<rect x="155" y="4" width="2" height="4" transform="rotate(-90 155 4)" fill="#393939"/>
<rect x="10" width="145" height="2" fill="#393939"/>
<rect x="10" y="43" width="145" height="2" fill="#393939"/>
<rect y="10" width="2" height="25" fill="#393939"/>
<rect x="165" y="35" width="2" height="25" transform="rotate(-180 165 35)" fill="#393939"/>
<path fill-rule="evenodd" clip-rule="evenodd" d="M155 4L10 3.99999V2L155 2.00001V4ZM157 6L8 5.99999V4H155L157 4.00001V6ZM159 8L6 7.99999V6H157L159 6.00001V8ZM159 31H4L4 29L4 27L126.353 27L2 27V9.99999L158.965 10L4 9.99999L4 8H159L161 8.00001V10H163V27L161 27V29V31L159 31ZM155 33L159 33V31L6 31L6 33H155ZM155 33V35L10 35V33L155 33Z" fill="#FF9332"/>
<rect x="155" y="2" width="2.00001" height="145" transform="rotate(90 155 2)" fill="#FFBD82"/>
<rect x="6" y="6" width="2" height="2" transform="rotate(90 6 6)" fill="#FFBD82"/>
<rect x="4" y="10" width="4" height="2" transform="rotate(90 4 10)" fill="#FFBD82"/>
<rect x="8" y="4" width="2" height="2" transform="rotate(90 8 4)" fill="#FFBD82"/>
<rect x="10" y="4" width="2" height="2" transform="rotate(90 10 4)" fill="#FFBD82"/>
<rect x="159" y="4" width="2" height="4" transform="rotate(90 159 4)" fill="#FFBD82"/>
<rect x="161" y="6" width="2" height="2" transform="rotate(90 161 6)" fill="#FFBD82"/>
<rect x="163" y="10" width="4" height="2" transform="rotate(90 163 10)" fill="#FFBD82"/>
<rect width="6" height="4" transform="matrix(-1.31134e-07 -1 -1 1.31134e-07 37 43)" fill="#FFDDBE"/>
<rect width="6" height="4" transform="matrix(-1.31134e-07 -1 -1 1.31134e-07 135 43)" fill="#FFDDBE"/>
<rect width="6" height="3" transform="matrix(-1.31134e-07 -1 -1 1.31134e-07 32 43)" fill="#FFDDBE"/>
<rect width="6" height="3" transform="matrix(-1.31134e-07 -1 -1 1.31134e-07 130 43)" fill="#FFDDBE"/>
<rect width="6" height="2" transform="matrix(-1.31134e-07 -1 -1 1.31134e-07 28 43)" fill="#FFDDBE"/>
<rect width="6" height="2" transform="matrix(-1.31134e-07 -1 -1 1.31134e-07 126 43)" fill="#FFDDBE"/>
<rect width="6" height="0.999999" transform="matrix(-1.31134e-07 -1 -1 1.31134e-07 25 43)" fill="#FFDDBE"/>
<rect width="6" height="0.999999" transform="matrix(-1.31134e-07 -1 -1 1.31134e-07 123 43)" fill="#FFDDBE"/>
<rect x="4" y="27" width="4" height="2" transform="rotate(90 4 27)" fill="#FFBD82"/>
<rect x="8" y="33" width="2" height="2" transform="rotate(90 8 33)" fill="#FFBD82"/>
<rect x="6" y="31" width="2" height="2" transform="rotate(90 6 31)" fill="#FFBD82"/>
<rect x="159" y="35" width="4" height="2" transform="rotate(-180 159 35)" fill="#FFBD82"/>
<rect x="161" y="33" width="2" height="2" transform="rotate(-180 161 33)" fill="#FFBD82"/>
<rect x="163" y="29" width="2" height="4" transform="rotate(-180 163 29)" fill="#FFBD82"/>
<path d="M43.9441 15.4265H42.7867H41.6294V16.5839H40.472V17.7412V18.8986V21.2133V22.3706V23.528H41.6294V24.6853H42.7867H43.9441H45.1014H46.2588H47.4161V23.528H48.5735V22.3706H50.8882V24.6853H49.7308V25.8427H48.5735V27H45.1014H43.9441H40.472V25.8427H39.3147V24.6853H38.1573V22.3706V21.2133V20.0559V18.8986V15.4265H39.3147V14.2692H40.472V13.1118H42.7867H43.9441H45.1014H48.5735V14.2692H49.7308V15.4265H50.8882V17.7412H48.5735V16.5839H47.4161V15.4265H46.2588H45.1014H43.9441ZM53.209 15.4265V14.2692V13.1118H54.3664H55.5237H58.9958H63.6252V14.2692H64.7825V15.4265H65.9398V17.7412V18.8986V20.0559H64.7825V21.2133H63.6252V22.3706V23.528H64.7825V24.6853H65.9398V25.8427V27H63.6252V25.8427H62.4678V24.6853H61.3105V23.528H60.1531V22.3706H58.9958H55.5237V27H53.209V22.3706V21.2133V20.0559V18.8986V17.7412V16.5839V15.4265ZM58.9958 15.4265H56.6811H55.5237V18.8986V20.0559H56.6811H57.8384H58.9958H60.1531H61.3105H62.4678V18.8986H63.6252V17.7412V16.5839H62.4678V15.4265H61.3105H60.1531H58.9958ZM68.2607 15.4265V14.2692V13.1118H69.4181H70.5754H74.0474H80.9915V15.4265H79.8342H78.6768H76.3621H75.2048H74.0474H71.7328H70.5754V18.8986H78.6768V21.2133H70.5754V24.6853H71.7328H74.0474H75.2048H76.3621H78.6768H79.8342H80.9915V27H74.0474H70.5754H69.4181H68.2607V25.8427V24.6853V23.528V21.2133V20.0559V18.8986V17.7412V16.5839V15.4265ZM83.3124 25.8427V24.6853V22.3706V20.0559V18.8986V17.7412H84.4697V16.5839H85.6271V15.4265H86.7844V14.2692H87.9418V13.1118H91.4138V14.2692H92.5712V15.4265H93.7285V16.5839H94.8859V17.7412H96.0432V18.8986V20.0559V22.3706V24.6853V25.8427V27H94.8859H93.7285V25.8427V24.6853V22.3706H85.6271V24.6853V25.8427V27H84.4697H83.3124V25.8427ZM93.7285 20.0559V18.8986H92.5712V17.7412H91.4138V16.5839H90.2565V15.4265H89.0991V16.5839H87.9418V17.7412H86.7844V18.8986H85.6271V20.0559H93.7285ZM98.3641 15.4265V14.2692V13.1118H99.5214H100.679H104.151H109.938V15.4265H108.78H107.623H105.308V21.2133V27H102.993V21.2133V15.4265H101.836H98.3641ZM113.416 15.4265V14.2692V13.1118H114.573H115.73H119.202H126.147V15.4265H124.989H123.832H121.517H120.36H119.202H116.888H115.73V18.8986H123.832V21.2133H115.73V24.6853H116.888H119.202H120.36H121.517H123.832H124.989H126.147V27H119.202H115.73H114.573H113.416V25.8427V24.6853V23.528V21.2133V20.0559V18.8986V17.7412V16.5839V15.4265Z" fill="#393939"/>
<path d="M43.9441 14.4265H42.7867H41.6294V15.5839H40.472V16.7412V17.8986V20.2133V21.3706V22.528H41.6294V23.6853H42.7867H43.9441H45.1014H46.2588H47.4161V22.528H48.5735V21.3706H50.8882V23.6853H49.7308V24.8427H48.5735V26H45.1014H43.9441H40.472V24.8427H39.3147V23.6853H38.1573V21.3706V20.2133V19.0559V17.8986V14.4265H39.3147V13.2692H40.472V12.1118H42.7867H43.9441H45.1014H48.5735V13.2692H49.7308V14.4265H50.8882V16.7412H48.5735V15.5839H47.4161V14.4265H46.2588H45.1014H43.9441ZM53.209 14.4265V13.2692V12.1118H54.3664H55.5237H58.9958H63.6252V13.2692H64.7825V14.4265H65.9398V16.7412V17.8986V19.0559H64.7825V20.2133H63.6252V21.3706V22.528H64.7825V23.6853H65.9398V24.8427V26H63.6252V24.8427H62.4678V23.6853H61.3105V22.528H60.1531V21.3706H58.9958H55.5237V26H53.209V21.3706V20.2133V19.0559V17.8986V16.7412V15.5839V14.4265ZM58.9958 14.4265H56.6811H55.5237V17.8986V19.0559H56.6811H57.8384H58.9958H60.1531H61.3105H62.4678V17.8986H63.6252V16.7412V15.5839H62.4678V14.4265H61.3105H60.1531H58.9958ZM68.2607 14.4265V13.2692V12.1118H69.4181H70.5754H74.0474H80.9915V14.4265H79.8342H78.6768H76.3621H75.2048H74.0474H71.7328H70.5754V17.8986H78.6768V20.2133H70.5754V23.6853H71.7328H74.0474H75.2048H76.3621H78.6768H79.8342H80.9915V26H74.0474H70.5754H69.4181H68.2607V24.8427V23.6853V22.528V20.2133V19.0559V17.8986V16.7412V15.5839V14.4265ZM83.3124 24.8427V23.6853V21.3706V19.0559V17.8986V16.7412H84.4697V15.5839H85.6271V14.4265H86.7844V13.2692H87.9418V12.1118H91.4138V13.2692H92.5712V14.4265H93.7285V15.5839H94.8859V16.7412H96.0432V17.8986V19.0559V21.3706V23.6853V24.8427V26H94.8859H93.7285V24.8427V23.6853V21.3706H85.6271V23.6853V24.8427V26H84.4697H83.3124V24.8427ZM93.7285 19.0559V17.8986H92.5712V16.7412H91.4138V15.5839H90.2565V14.4265H89.0991V15.5839H87.9418V16.7412H86.7844V17.8986H85.6271V19.0559H93.7285ZM98.3641 14.4265V13.2692V12.1118H99.5214H100.679H104.151H109.938V14.4265H108.78H107.623H105.308V20.2133V26H102.993V20.2133V14.4265H101.836H98.3641ZM113.416 14.4265V13.2692V12.1118H114.573H115.73H119.202H126.147V14.4265H124.989H123.832H121.517H120.36H119.202H116.888H115.73V17.8986H123.832V20.2133H115.73V23.6853H116.888H119.202H120.36H121.517H123.832H124.989H126.147V26H119.202H115.73H114.573H113.416V24.8427V23.6853V22.528V20.2133V19.0559V17.8986V16.7412V15.5839V14.4265Z" fill="white"/>
</svg>
