<svg width="30" height="30" viewBox="0 0 30 30" fill="none" xmlns="http://www.w3.org/2000/svg">
<g filter="url(#filter0_d_175_2008)">
<path fill-rule="evenodd" clip-rule="evenodd" d="M6.2953 2.46775C7.01026 1.75368 8.16943 1.75368 8.88439 2.46775L23.5559 17.1212C24.2708 17.8352 24.2708 18.993 23.5559 19.707C22.8409 20.4211 21.6817 20.4211 20.9668 19.707L6.2953 5.05365C5.58034 4.33957 5.58034 3.18183 6.2953 2.46775Z" fill="#FF7C06"/>
<path fill-rule="evenodd" clip-rule="evenodd" d="M6.44298 19.5322C5.72802 18.8181 5.72802 17.6604 6.44298 16.9463L21.1145 2.29291C21.8294 1.57883 22.9886 1.57883 23.7036 2.29291C24.4185 3.00698 24.4185 4.16473 23.7036 4.8788L9.03207 19.5322C8.31711 20.2463 7.15794 20.2463 6.44298 19.5322Z" fill="#FF7C06"/>
</g>
<defs>
<filter id="filter0_d_175_2008" x="0.759766" y="0.757812" width="28.4805" height="28.4844" filterUnits="userSpaceOnUse" color-interpolation-filters="sRGB">
<feFlood flood-opacity="0" result="BackgroundImageFix"/>
<feColorMatrix in="SourceAlpha" type="matrix" values="0 0 0 0 0 0 0 0 0 0 0 0 0 0 0 0 0 0 127 0" result="hardAlpha"/>
<feOffset dy="4"/>
<feGaussianBlur stdDeviation="2.5"/>
<feComposite in2="hardAlpha" operator="out"/>
<feColorMatrix type="matrix" values="0 0 0 0 0 0 0 0 0 0 0 0 0 0 0 0 0 0 0.1 0"/>
<feBlend mode="normal" in2="BackgroundImageFix" result="effect1_dropShadow_175_2008"/>
<feBlend mode="normal" in="SourceGraphic" in2="effect1_dropShadow_175_2008" result="shape"/>
</filter>
</defs>
</svg>
