<svg width="11" height="11" viewBox="0 0 11 11" fill="none" xmlns="http://www.w3.org/2000/svg">
<path d="M4.86023 0.548828H4.25391V1.15515H4.86023V0.548828Z" fill="#16171A"/>
<path d="M5.4657 0.548828H4.85938V1.15515H5.4657V0.548828Z" fill="#16171A"/>
<path d="M6.07117 0.548828H5.46484V1.15515H6.07117V0.548828Z" fill="#16171A"/>
<path d="M6.67664 0.548828H6.07031V1.15515H6.67664V0.548828Z" fill="#16171A"/>
<path d="M3.64539 1.15527H3.03906V1.7616H3.64539V1.15527Z" fill="#16171A"/>
<path d="M4.25086 1.15527H3.64453V1.7616H4.25086V1.15527Z" fill="#16171A"/>
<path d="M4.86023 1.15527H4.25391V1.7616H4.86023V1.15527Z" fill="#FAFDFF"/>
<path d="M5.4657 1.15527H4.85938V1.7616H5.4657V1.15527Z" fill="#FAFDFF"/>
<path d="M6.07117 1.15527H5.46484V1.7616H6.07117V1.15527Z" fill="#FAFDFF"/>
<path d="M6.67664 1.15527H6.07031V1.7616H6.67664V1.15527Z" fill="#FAFDFF"/>
<path d="M7.28601 1.15527H6.67969V1.7616H7.28601V1.15527Z" fill="#16171A"/>
<path d="M7.88758 1.15527H7.28125V1.7616H7.88758V1.15527Z" fill="#16171A"/>
<path d="M3.03992 1.76172H2.43359V2.36804H3.03992V1.76172Z" fill="#16171A"/>
<path d="M3.64539 1.76172H3.03906V2.36804H3.64539V1.76172Z" fill="#FAFDFF"/>
<path d="M4.25086 1.76172H3.64453V2.36804H4.25086V1.76172Z" fill="#FAFDFF"/>
<path d="M4.86023 1.76172H4.25391V2.36804H4.86023V1.76172Z" fill="#FFBD82"/>
<path d="M5.4657 1.76172H4.85938V2.36804H5.4657V1.76172Z" fill="#FFBD82"/>
<path d="M6.07117 1.76172H5.46484V2.36804H6.07117V1.76172Z" fill="#FFBD82"/>
<path d="M6.67664 1.76172H6.07031V2.36804H6.67664V1.76172Z" fill="#FFBD82"/>
<path d="M7.28601 1.76172H6.67969V2.36804H7.28601V1.76172Z" fill="#FAFDFF"/>
<path d="M7.88758 1.76172H7.28125V2.36804H7.88758V1.76172Z" fill="#FAFDFF"/>
<path d="M8.49304 1.76172H7.88672V2.36804H8.49304V1.76172Z" fill="#16171A"/>
<path d="M2.43445 2.36719H1.82812V2.97351H2.43445V2.36719Z" fill="#16171A"/>
<path d="M3.03992 2.36719H2.43359V2.97351H3.03992V2.36719Z" fill="#FAFDFF"/>
<path d="M3.64539 2.36816H3.03906V2.97449H3.64539V2.36816Z" fill="#FFBD82"/>
<path d="M4.25086 2.36719H3.64453V2.97351H4.25086V2.36719Z" fill="#16171A"/>
<path d="M4.86023 2.36719H4.25391V2.97351H4.86023V2.36719Z" fill="#16171A"/>
<path d="M5.4657 2.36719H4.85938V2.97351H5.4657V2.36719Z" fill="#16171A"/>
<path d="M6.07117 2.36719H5.46484V2.97351H6.07117V2.36719Z" fill="#16171A"/>
<path d="M6.67664 2.36719H6.07031V2.97351H6.67664V2.36719Z" fill="#16171A"/>
<path d="M7.28601 2.36719H6.67969V2.97351H7.28601V2.36719Z" fill="#16171A"/>
<path d="M7.88758 2.36816H7.28125V2.97449H7.88758V2.36816Z" fill="#FFBD82"/>
<path d="M8.49304 2.36719H7.88672V2.97351H8.49304V2.36719Z" fill="#FAFDFF"/>
<path d="M9.09851 2.36719H8.49219V2.97351H9.09851V2.36719Z" fill="#16171A"/>
<path d="M1.82508 2.97461H1.21875V3.58093H1.82508V2.97461Z" fill="#16171A"/>
<path d="M2.43445 2.97461H1.82812V3.58093H2.43445V2.97461Z" fill="#FAFDFF"/>
<path d="M3.03992 2.97461H2.43359V3.58093H3.03992V2.97461Z" fill="#FFBD82"/>
<path d="M3.64539 2.97461H3.03906V3.58093H3.64539V2.97461Z" fill="#16171A"/>
<path d="M4.25086 2.97461H3.64453V3.58093H4.25086V2.97461Z" fill="#FAFDFF"/>
<path d="M4.86023 2.97461H4.25391V3.58093H4.86023V2.97461Z" fill="#FAFDFF"/>
<path d="M5.4657 2.97461H4.85938V3.58093H5.4657V2.97461Z" fill="#FAFDFF"/>
<path d="M6.07117 2.97461H5.46484V3.58093H6.07117V2.97461Z" fill="#FAFDFF"/>
<path d="M6.67664 2.97461H6.07031V3.58093H6.67664V2.97461Z" fill="#FAFDFF"/>
<path d="M7.28601 2.97461H6.67969V3.58093H7.28601V2.97461Z" fill="#B9B9B9"/>
<path d="M7.88758 2.97461H7.28125V3.58093H7.88758V2.97461Z" fill="#16171A"/>
<path d="M8.49304 2.97461H7.88672V3.58093H8.49304V2.97461Z" fill="#FFBD82"/>
<path d="M9.09851 2.97461H8.49219V3.58093H9.09851V2.97461Z" fill="#FF8426"/>
<path d="M9.70789 2.97461H9.10156V3.58093H9.70789V2.97461Z" fill="#16171A"/>
<path d="M1.82508 3.58008H1.21875V4.1864H1.82508V3.58008Z" fill="#16171A"/>
<path d="M2.43445 3.58008H1.82812V4.1864H2.43445V3.58008Z" fill="#FAFDFF"/>
<path d="M3.03992 3.58008H2.43359V4.1864H3.03992V3.58008Z" fill="#16171A"/>
<path d="M3.64539 3.58008H3.03906V4.1864H3.64539V3.58008Z" fill="#FAFDFF"/>
<path d="M4.25086 3.58008H3.64453V4.1864H4.25086V3.58008Z" fill="#FAFDFF"/>
<path d="M4.86023 3.58008H4.25391V4.1864H4.86023V3.58008Z" fill="#FAFDFF"/>
<path d="M5.4657 3.58008H4.85938V4.1864H5.4657V3.58008Z" fill="#FAFDFF"/>
<path d="M6.07117 3.58008H5.46484V4.1864H6.07117V3.58008Z" fill="#FAFDFF"/>
<path d="M6.67664 3.58008H6.07031V4.1864H6.67664V3.58008Z" fill="#FAFDFF"/>
<path d="M7.28601 3.58008H6.67969V4.1864H7.28601V3.58008Z" fill="#FAFDFF"/>
<path d="M7.88758 3.58008H7.28125V4.1864H7.88758V3.58008Z" fill="#B9B9B9"/>
<path d="M8.49304 3.58008H7.88672V4.1864H8.49304V3.58008Z" fill="#16171A"/>
<path d="M9.09851 3.58008H8.49219V4.1864H9.09851V3.58008Z" fill="#FF8426"/>
<path d="M9.70789 3.58008H9.10156V4.1864H9.70789V3.58008Z" fill="#16171A"/>
<path d="M1.21961 4.18652H0.613281V4.79285H1.21961V4.18652Z" fill="#16171A"/>
<path d="M1.82508 4.1875H1.21875V4.79383H1.82508V4.1875Z" fill="#FAFDFF"/>
<path d="M2.43445 4.1875H1.82812V4.79383H2.43445V4.1875Z" fill="#FFBD82"/>
<path d="M3.03992 4.1875H2.43359V4.79383H3.03992V4.1875Z" fill="#16171A"/>
<path d="M3.64539 4.18652H3.03906V4.79285H3.64539V4.18652Z" fill="#FAFDFF"/>
<path d="M4.25086 4.1875H3.64453V4.79383H4.25086V4.1875Z" fill="#FAFDFF"/>
<path d="M4.86023 4.1875H4.25391V4.79383H4.86023V4.1875Z" fill="#FAFDFF"/>
<path d="M5.4657 4.1875H4.85938V4.79383H5.4657V4.1875Z" fill="#FAFDFF"/>
<path d="M6.07117 4.1875H5.46484V4.79383H6.07117V4.1875Z" fill="#FAFDFF"/>
<path d="M6.67664 4.1875H6.07031V4.79383H6.67664V4.1875Z" fill="#FAFDFF"/>
<path d="M7.28601 4.1875H6.67969V4.79383H7.28601V4.1875Z" fill="#FAFDFF"/>
<path d="M7.88758 4.18652H7.28125V4.79285H7.88758V4.18652Z" fill="#B9B9B9"/>
<path d="M8.49304 4.1875H7.88672V4.79383H8.49304V4.1875Z" fill="#16171A"/>
<path d="M9.09851 4.1875H8.49219V4.79383H9.09851V4.1875Z" fill="#FFBD82"/>
<path d="M9.70789 4.1875H9.10156V4.79383H9.70789V4.1875Z" fill="#FF8426"/>
<path d="M10.3134 4.18652H9.70703V4.79285H10.3134V4.18652Z" fill="#16171A"/>
<path d="M1.21961 4.79297H0.613281V5.39929H1.21961V4.79297Z" fill="#16171A"/>
<path d="M1.82508 4.79297H1.21875V5.39929H1.82508V4.79297Z" fill="#FAFDFF"/>
<path d="M2.43445 4.79297H1.82812V5.39929H2.43445V4.79297Z" fill="#FFBD82"/>
<path d="M3.03992 4.79297H2.43359V5.39929H3.03992V4.79297Z" fill="#16171A"/>
<path d="M3.64539 4.79297H3.03906V5.39929H3.64539V4.79297Z" fill="#FAFDFF"/>
<path d="M4.25086 4.79297H3.64453V5.39929H4.25086V4.79297Z" fill="#16171A"/>
<path d="M4.86023 4.79297H4.25391V5.39929H4.86023V4.79297Z" fill="#16171A"/>
<path d="M5.4657 4.79297H4.85938V5.39929H5.4657V4.79297Z" fill="#FAFDFF"/>
<path d="M6.07117 4.79297H5.46484V5.39929H6.07117V4.79297Z" fill="#FAFDFF"/>
<path d="M6.67664 4.79297H6.07031V5.39929H6.67664V4.79297Z" fill="#16171A"/>
<path d="M7.28601 4.79297H6.67969V5.39929H7.28601V4.79297Z" fill="#16171A"/>
<path d="M7.88758 4.79297H7.28125V5.39929H7.88758V4.79297Z" fill="#B9B9B9"/>
<path d="M8.49304 4.79297H7.88672V5.39929H8.49304V4.79297Z" fill="#16171A"/>
<path d="M9.09851 4.79297H8.49219V5.39929H9.09851V4.79297Z" fill="#FFBD82"/>
<path d="M9.70789 4.79297H9.10156V5.39929H9.70789V4.79297Z" fill="#FF8426"/>
<path d="M10.3134 4.79297H9.70703V5.39929H10.3134V4.79297Z" fill="#16171A"/>
<path d="M1.21961 5.39941H0.613281V6.00574H1.21961V5.39941Z" fill="#16171A"/>
<path d="M1.82508 5.39941H1.21875V6.00574H1.82508V5.39941Z" fill="#FAFDFF"/>
<path d="M2.43445 5.39941H1.82812V6.00574H2.43445V5.39941Z" fill="#FFBD82"/>
<path d="M3.03992 5.39941H2.43359V6.00574H3.03992V5.39941Z" fill="#16171A"/>
<path d="M3.64539 5.39941H3.03906V6.00574H3.64539V5.39941Z" fill="#FAFDFF"/>
<path d="M4.25086 5.39941H3.64453V6.00574H4.25086V5.39941Z" fill="#16171A"/>
<path d="M4.86023 5.39941H4.25391V6.00574H4.86023V5.39941Z" fill="#16171A"/>
<path d="M5.4657 5.39941H4.85938V6.00574H5.4657V5.39941Z" fill="#FAFDFF"/>
<path d="M6.07117 5.39941H5.46484V6.00574H6.07117V5.39941Z" fill="#FAFDFF"/>
<path d="M6.67664 5.39941H6.07031V6.00574H6.67664V5.39941Z" fill="#16171A"/>
<path d="M7.28601 5.39941H6.67969V6.00574H7.28601V5.39941Z" fill="#16171A"/>
<path d="M7.88758 5.39941H7.28125V6.00574H7.88758V5.39941Z" fill="#B9B9B9"/>
<path d="M8.49304 5.39941H7.88672V6.00574H8.49304V5.39941Z" fill="#16171A"/>
<path d="M9.09851 5.39941H8.49219V6.00574H9.09851V5.39941Z" fill="#FFBD82"/>
<path d="M9.70789 5.39941H9.10156V6.00574H9.70789V5.39941Z" fill="#FF8426"/>
<path d="M10.3134 5.39941H9.70703V6.00574H10.3134V5.39941Z" fill="#16171A"/>
<path d="M1.21961 6.00586H0.613281V6.61218H1.21961V6.00586Z" fill="#16171A"/>
<path d="M1.82508 6.00586H1.21875V6.61218H1.82508V6.00586Z" fill="#FAFDFF"/>
<path d="M2.43445 6.00586H1.82812V6.61218H2.43445V6.00586Z" fill="#FFBD82"/>
<path d="M3.03992 6.00586H2.43359V6.61218H3.03992V6.00586Z" fill="#16171A"/>
<path d="M3.64539 6.00586H3.03906V6.61218H3.64539V6.00586Z" fill="#16171A"/>
<path d="M4.25086 6.00586H3.64453V6.61218H4.25086V6.00586Z" fill="#FAFDFF"/>
<path d="M4.86023 6.00586H4.25391V6.61218H4.86023V6.00586Z" fill="#FAFDFF"/>
<path d="M5.4657 6.00586H4.85938V6.61218H5.4657V6.00586Z" fill="#16171A"/>
<path d="M6.07117 6.00586H5.46484V6.61218H6.07117V6.00586Z" fill="#16171A"/>
<path d="M6.67664 6.00586H6.07031V6.61218H6.67664V6.00586Z" fill="#FAFDFF"/>
<path d="M7.28601 6.00586H6.67969V6.61218H7.28601V6.00586Z" fill="#B9B9B9"/>
<path d="M7.88758 6.00586H7.28125V6.61218H7.88758V6.00586Z" fill="#16171A"/>
<path d="M8.49304 6.00586H7.88672V6.61218H8.49304V6.00586Z" fill="#16171A"/>
<path d="M9.09851 6.00586H8.49219V6.61218H9.09851V6.00586Z" fill="#FFBD82"/>
<path d="M9.70789 6.00586H9.10156V6.61218H9.70789V6.00586Z" fill="#FF8426"/>
<path d="M10.3134 6.00586H9.70703V6.61218H10.3134V6.00586Z" fill="#16171A"/>
<path d="M1.82508 6.61133H1.21875V7.21765H1.82508V6.61133Z" fill="#16171A"/>
<path d="M2.43445 6.61133H1.82812V7.21765H2.43445V6.61133Z" fill="#FAFDFF"/>
<path d="M3.03992 6.61133H2.43359V7.21765H3.03992V6.61133Z" fill="#FFBD82"/>
<path d="M3.64539 6.6123H3.03906V7.21863H3.64539V6.6123Z" fill="#16171A"/>
<path d="M4.25086 6.61133H3.64453V7.21765H4.25086V6.61133Z" fill="#FAFDFF"/>
<path d="M4.86023 6.61133H4.25391V7.21765H4.86023V6.61133Z" fill="#B9B9B9"/>
<path d="M5.4657 6.61133H4.85938V7.21765H5.4657V6.61133Z" fill="#FAFDFF"/>
<path d="M6.07117 6.61133H5.46484V7.21765H6.07117V6.61133Z" fill="#FAFDFF"/>
<path d="M6.67664 6.61133H6.07031V7.21765H6.67664V6.61133Z" fill="#B9B9B9"/>
<path d="M7.28601 6.61133H6.67969V7.21765H7.28601V6.61133Z" fill="#B9B9B9"/>
<path d="M7.88758 6.6123H7.28125V7.21863H7.88758V6.6123Z" fill="#16171A"/>
<path d="M8.49304 6.61133H7.88672V7.21765H8.49304V6.61133Z" fill="#FFBD82"/>
<path d="M9.09851 6.61133H8.49219V7.21765H9.09851V6.61133Z" fill="#FF8426"/>
<path d="M9.70789 6.61133H9.10156V7.21765H9.70789V6.61133Z" fill="#16171A"/>
<path d="M1.82508 7.21875H1.21875V7.82508H1.82508V7.21875Z" fill="#16171A"/>
<path d="M2.43445 7.21875H1.82812V7.82508H2.43445V7.21875Z" fill="#FAFDFF"/>
<path d="M3.03992 7.21875H2.43359V7.82508H3.03992V7.21875Z" fill="#FFBD82"/>
<path d="M3.64539 7.21875H3.03906V7.82508H3.64539V7.21875Z" fill="#16171A"/>
<path d="M4.25086 7.21875H3.64453V7.82508H4.25086V7.21875Z" fill="#B9B9B9"/>
<path d="M4.86023 7.21875H4.25391V7.82508H4.86023V7.21875Z" fill="#16171A"/>
<path d="M5.4657 7.21875H4.85938V7.82508H5.4657V7.21875Z" fill="#B9B9B9"/>
<path d="M6.07117 7.21875H5.46484V7.82508H6.07117V7.21875Z" fill="#B9B9B9"/>
<path d="M6.67664 7.21875H6.07031V7.82508H6.67664V7.21875Z" fill="#16171A"/>
<path d="M7.28601 7.21875H6.67969V7.82508H7.28601V7.21875Z" fill="#B9B9B9"/>
<path d="M7.88758 7.21875H7.28125V7.82508H7.88758V7.21875Z" fill="#16171A"/>
<path d="M8.49304 7.21875H7.88672V7.82508H8.49304V7.21875Z" fill="#FFBD82"/>
<path d="M9.09851 7.21875H8.49219V7.82508H9.09851V7.21875Z" fill="#FF8426"/>
<path d="M9.70789 7.21875H9.10156V7.82508H9.70789V7.21875Z" fill="#16171A"/>
<path d="M2.43445 7.82422H1.82812V8.43054H2.43445V7.82422Z" fill="#16171A"/>
<path d="M3.03992 7.82422H2.43359V8.43054H3.03992V7.82422Z" fill="#FAFDFF"/>
<path d="M3.64539 7.8252H3.03906V8.43152H3.64539V7.8252Z" fill="#FFBD82"/>
<path d="M4.25086 7.82422H3.64453V8.43054H4.25086V7.82422Z" fill="#16171A"/>
<path d="M4.86023 7.82422H4.25391V8.43054H4.86023V7.82422Z" fill="#16171A"/>
<path d="M5.4657 7.82422H4.85938V8.43054H5.4657V7.82422Z" fill="#16171A"/>
<path d="M6.07117 7.82422H5.46484V8.43054H6.07117V7.82422Z" fill="#16171A"/>
<path d="M6.67664 7.82422H6.07031V8.43054H6.67664V7.82422Z" fill="#16171A"/>
<path d="M7.28601 7.82422H6.67969V8.43054H7.28601V7.82422Z" fill="#16171A"/>
<path d="M7.88758 7.8252H7.28125V8.43152H7.88758V7.8252Z" fill="#FFBD82"/>
<path d="M8.49304 7.82422H7.88672V8.43054H8.49304V7.82422Z" fill="#FF8426"/>
<path d="M9.09851 7.82422H8.49219V8.43054H9.09851V7.82422Z" fill="#16171A"/>
<path d="M3.03992 8.43164H2.43359V9.03797H3.03992V8.43164Z" fill="#16171A"/>
<path d="M3.64539 8.43066H3.03906V9.03699H3.64539V8.43066Z" fill="#FF8426"/>
<path d="M4.25086 8.43164H3.64453V9.03797H4.25086V8.43164Z" fill="#FF8426"/>
<path d="M4.86023 8.43164H4.25391V9.03797H4.86023V8.43164Z" fill="#FFBD82"/>
<path d="M5.4657 8.43164H4.85938V9.03797H5.4657V8.43164Z" fill="#FFBD82"/>
<path d="M6.07117 8.43164H5.46484V9.03797H6.07117V8.43164Z" fill="#FFBD82"/>
<path d="M6.67664 8.43164H6.07031V9.03797H6.67664V8.43164Z" fill="#FFBD82"/>
<path d="M7.28601 8.43164H6.67969V9.03797H7.28601V8.43164Z" fill="#FF8426"/>
<path d="M7.88758 8.43066H7.28125V9.03699H7.88758V8.43066Z" fill="#FF8426"/>
<path d="M8.49304 8.43164H7.88672V9.03797H8.49304V8.43164Z" fill="#16171A"/>
<path d="M3.64539 9.03711H3.03906V9.64343H3.64539V9.03711Z" fill="#16171A"/>
<path d="M4.25086 9.03711H3.64453V9.64343H4.25086V9.03711Z" fill="#16171A"/>
<path d="M4.86023 9.03711H4.25391V9.64343H4.86023V9.03711Z" fill="#FF8426"/>
<path d="M5.4657 9.03711H4.85938V9.64343H5.4657V9.03711Z" fill="#FF8426"/>
<path d="M6.07117 9.03711H5.46484V9.64343H6.07117V9.03711Z" fill="#FF8426"/>
<path d="M6.67664 9.03711H6.07031V9.64343H6.67664V9.03711Z" fill="#FF8426"/>
<path d="M7.28601 9.03711H6.67969V9.64343H7.28601V9.03711Z" fill="#16171A"/>
<path d="M7.88758 9.03711H7.28125V9.64343H7.88758V9.03711Z" fill="#16171A"/>
<path d="M4.86023 9.64355H4.25391V10.2499H4.86023V9.64355Z" fill="#16171A"/>
<path d="M5.4657 9.64355H4.85938V10.2499H5.4657V9.64355Z" fill="#16171A"/>
<path d="M6.07117 9.64355H5.46484V10.2499H6.07117V9.64355Z" fill="#16171A"/>
<path d="M6.67664 9.64355H6.07031V10.2499H6.67664V9.64355Z" fill="#16171A"/>
</svg>
