<svg width="11" height="11" viewBox="0 0 11 11" fill="none" xmlns="http://www.w3.org/2000/svg">
<path d="M4.86023 0.526367H4.25391V1.13269H4.86023V0.526367Z" fill="#16171A"/>
<path d="M5.4657 0.526367H4.85938V1.13269H5.4657V0.526367Z" fill="#16171A"/>
<path d="M6.07117 0.526367H5.46484V1.13269H6.07117V0.526367Z" fill="#16171A"/>
<path d="M6.67664 0.526367H6.07031V1.13269H6.67664V0.526367Z" fill="#16171A"/>
<path d="M3.64539 1.13281H3.03906V1.73914H3.64539V1.13281Z" fill="#16171A"/>
<path d="M4.25086 1.13281H3.64453V1.73914H4.25086V1.13281Z" fill="#16171A"/>
<path d="M4.86023 1.13281H4.25391V1.73914H4.86023V1.13281Z" fill="#FAFDFF"/>
<path d="M5.4657 1.13281H4.85938V1.73914H5.4657V1.13281Z" fill="#FAFDFF"/>
<path d="M6.07117 1.13281H5.46484V1.73914H6.07117V1.13281Z" fill="#FAFDFF"/>
<path d="M6.67664 1.13281H6.07031V1.73914H6.67664V1.13281Z" fill="#FAFDFF"/>
<path d="M7.28601 1.13281H6.67969V1.73914H7.28601V1.13281Z" fill="#16171A"/>
<path d="M7.88758 1.13281H7.28125V1.73914H7.88758V1.13281Z" fill="#16171A"/>
<path d="M3.03992 1.73828H2.43359V2.34461H3.03992V1.73828Z" fill="#16171A"/>
<path d="M3.64539 1.73926H3.03906V2.34558H3.64539V1.73926Z" fill="#FAFDFF"/>
<path d="M4.25086 1.73828H3.64453V2.34461H4.25086V1.73828Z" fill="#FAFDFF"/>
<path d="M4.86023 1.73828H4.25391V2.34461H4.86023V1.73828Z" fill="#FFBD82"/>
<path d="M5.4657 1.73828H4.85938V2.34461H5.4657V1.73828Z" fill="#FFBD82"/>
<path d="M6.07117 1.73828H5.46484V2.34461H6.07117V1.73828Z" fill="#FFBD82"/>
<path d="M6.67664 1.73828H6.07031V2.34461H6.67664V1.73828Z" fill="#FFBD82"/>
<path d="M7.28601 1.73828H6.67969V2.34461H7.28601V1.73828Z" fill="#FAFDFF"/>
<path d="M7.88758 1.73926H7.28125V2.34558H7.88758V1.73926Z" fill="#FAFDFF"/>
<path d="M8.49304 1.73828H7.88672V2.34461H8.49304V1.73828Z" fill="#16171A"/>
<path d="M2.43445 2.3457H1.82812V2.95203H2.43445V2.3457Z" fill="#16171A"/>
<path d="M3.03992 2.3457H2.43359V2.95203H3.03992V2.3457Z" fill="#FAFDFF"/>
<path d="M3.64539 2.3457H3.03906V2.95203H3.64539V2.3457Z" fill="#FFBD82"/>
<path d="M4.25086 2.3457H3.64453V2.95203H4.25086V2.3457Z" fill="#FFBD82"/>
<path d="M4.86023 2.3457H4.25391V2.95203H4.86023V2.3457Z" fill="#FFBD82"/>
<path d="M5.4657 2.3457H4.85938V2.95203H5.4657V2.3457Z" fill="#FFBD82"/>
<path d="M6.07117 2.3457H5.46484V2.95203H6.07117V2.3457Z" fill="#FFBD82"/>
<path d="M6.67664 2.3457H6.07031V2.95203H6.67664V2.3457Z" fill="#FFBD82"/>
<path d="M7.28601 2.3457H6.67969V2.95203H7.28601V2.3457Z" fill="#FFBD82"/>
<path d="M7.88758 2.3457H7.28125V2.95203H7.88758V2.3457Z" fill="#FFBD82"/>
<path d="M8.49304 2.3457H7.88672V2.95203H8.49304V2.3457Z" fill="#FAFDFF"/>
<path d="M9.09851 2.3457H8.49219V2.95203H9.09851V2.3457Z" fill="#16171A"/>
<path d="M1.82508 2.95117H1.21875V3.5575H1.82508V2.95117Z" fill="#16171A"/>
<path d="M2.43445 2.95117H1.82812V3.5575H2.43445V2.95117Z" fill="#FAFDFF"/>
<path d="M3.03992 2.95117H2.43359V3.5575H3.03992V2.95117Z" fill="#FFBD82"/>
<path d="M3.64539 2.95215H3.03906V3.55847H3.64539V2.95215Z" fill="#FFBD82"/>
<path d="M4.25086 2.95117H3.64453V3.5575H4.25086V2.95117Z" fill="#FFBD82"/>
<path d="M4.86023 2.95117H4.25391V3.5575H4.86023V2.95117Z" fill="#FFBD82"/>
<path d="M5.4657 2.95117H4.85938V3.5575H5.4657V2.95117Z" fill="#FFBD82"/>
<path d="M6.07117 2.95117H5.46484V3.5575H6.07117V2.95117Z" fill="#FFBD82"/>
<path d="M6.67664 2.95117H6.07031V3.5575H6.67664V2.95117Z" fill="#FFBD82"/>
<path d="M7.28601 2.95117H6.67969V3.5575H7.28601V2.95117Z" fill="#FFBD82"/>
<path d="M7.88758 2.95215H7.28125V3.55847H7.88758V2.95215Z" fill="#FFBD82"/>
<path d="M8.49304 2.95117H7.88672V3.5575H8.49304V2.95117Z" fill="#FFBD82"/>
<path d="M9.09851 2.95117H8.49219V3.5575H9.09851V2.95117Z" fill="#FF8426"/>
<path d="M9.70789 2.95117H9.10156V3.5575H9.70789V2.95117Z" fill="#16171A"/>
<path d="M1.82508 3.55859H1.21875V4.16492H1.82508V3.55859Z" fill="#16171A"/>
<path d="M2.43445 3.55859H1.82812V4.16492H2.43445V3.55859Z" fill="#FAFDFF"/>
<path d="M3.03992 3.55859H2.43359V4.16492H3.03992V3.55859Z" fill="#FFBD82"/>
<path d="M3.64539 3.55762H3.03906V4.16394H3.64539V3.55762Z" fill="#FFBD82"/>
<path d="M4.25086 3.55859H3.64453V4.16492H4.25086V3.55859Z" fill="#FFBD82"/>
<path d="M4.86023 3.55859H4.25391V4.16492H4.86023V3.55859Z" fill="#FFBD82"/>
<path d="M5.4657 3.55859H4.85938V4.16492H5.4657V3.55859Z" fill="#FFBD82"/>
<path d="M6.07117 3.55859H5.46484V4.16492H6.07117V3.55859Z" fill="#FFBD82"/>
<path d="M6.67664 3.55859H6.07031V4.16492H6.67664V3.55859Z" fill="#FFBD82"/>
<path d="M7.28601 3.55859H6.67969V4.16492H7.28601V3.55859Z" fill="#FFBD82"/>
<path d="M7.88758 3.55762H7.28125V4.16394H7.88758V3.55762Z" fill="#FFBD82"/>
<path d="M8.49304 3.55859H7.88672V4.16492H8.49304V3.55859Z" fill="#FFBD82"/>
<path d="M9.09851 3.55859H8.49219V4.16492H9.09851V3.55859Z" fill="#FF8426"/>
<path d="M9.70789 3.55859H9.10156V4.16492H9.70789V3.55859Z" fill="#16171A"/>
<path d="M1.21961 4.16406H0.613281V4.77039H1.21961V4.16406Z" fill="#16171A"/>
<path d="M1.82508 4.16406H1.21875V4.77039H1.82508V4.16406Z" fill="#FAFDFF"/>
<path d="M2.43445 4.16406H1.82812V4.77039H2.43445V4.16406Z" fill="#FFBD82"/>
<path d="M3.03992 4.16406H2.43359V4.77039H3.03992V4.16406Z" fill="#FFBD82"/>
<path d="M3.64539 4.16406H3.03906V4.77039H3.64539V4.16406Z" fill="#FFBD82"/>
<path d="M4.25086 4.16406H3.64453V4.77039H4.25086V4.16406Z" fill="#FFBD82"/>
<path d="M4.86023 4.16406H4.25391V4.77039H4.86023V4.16406Z" fill="#FFBD82"/>
<path d="M5.4657 4.16406H4.85938V4.77039H5.4657V4.16406Z" fill="#FFBD82"/>
<path d="M6.07117 4.16406H5.46484V4.77039H6.07117V4.16406Z" fill="#FFBD82"/>
<path d="M6.67664 4.16406H6.07031V4.77039H6.67664V4.16406Z" fill="#FFBD82"/>
<path d="M7.28601 4.16406H6.67969V4.77039H7.28601V4.16406Z" fill="#FFBD82"/>
<path d="M7.88758 4.16406H7.28125V4.77039H7.88758V4.16406Z" fill="#FFBD82"/>
<path d="M8.49304 4.16406H7.88672V4.77039H8.49304V4.16406Z" fill="#FFBD82"/>
<path d="M9.09851 4.16406H8.49219V4.77039H9.09851V4.16406Z" fill="#FFBD82"/>
<path d="M9.70789 4.16406H9.10156V4.77039H9.70789V4.16406Z" fill="#FF8426"/>
<path d="M10.3134 4.16406H9.70703V4.77039H10.3134V4.16406Z" fill="#16171A"/>
<path d="M1.21961 4.77051H0.613281V5.37683H1.21961V4.77051Z" fill="#16171A"/>
<path d="M1.82508 4.77051H1.21875V5.37683H1.82508V4.77051Z" fill="#FAFDFF"/>
<path d="M2.43445 4.77051H1.82812V5.37683H2.43445V4.77051Z" fill="#FFBD82"/>
<path d="M3.03992 4.77051H2.43359V5.37683H3.03992V4.77051Z" fill="#FFBD82"/>
<path d="M3.64539 4.77051H3.03906V5.37683H3.64539V4.77051Z" fill="#FFBD82"/>
<path d="M4.25086 4.77051H3.64453V5.37683H4.25086V4.77051Z" fill="#FFBD82"/>
<path d="M4.86023 4.77051H4.25391V5.37683H4.86023V4.77051Z" fill="#FFBD82"/>
<path d="M5.4657 4.77051H4.85938V5.37683H5.4657V4.77051Z" fill="#FFBD82"/>
<path d="M6.07117 4.77051H5.46484V5.37683H6.07117V4.77051Z" fill="#FFBD82"/>
<path d="M6.67664 4.77051H6.07031V5.37683H6.67664V4.77051Z" fill="#FFBD82"/>
<path d="M7.28601 4.77051H6.67969V5.37683H7.28601V4.77051Z" fill="#FFBD82"/>
<path d="M7.88758 4.77051H7.28125V5.37683H7.88758V4.77051Z" fill="#FFBD82"/>
<path d="M8.49304 4.77051H7.88672V5.37683H8.49304V4.77051Z" fill="#FFBD82"/>
<path d="M9.09851 4.77051H8.49219V5.37683H9.09851V4.77051Z" fill="#FFBD82"/>
<path d="M9.70789 4.77051H9.10156V5.37683H9.70789V4.77051Z" fill="#FF8426"/>
<path d="M10.3134 4.77051H9.70703V5.37683H10.3134V4.77051Z" fill="#16171A"/>
<path d="M1.21961 5.37695H0.613281V5.98328H1.21961V5.37695Z" fill="#16171A"/>
<path d="M1.82508 5.37695H1.21875V5.98328H1.82508V5.37695Z" fill="#FAFDFF"/>
<path d="M2.43445 5.37695H1.82812V5.98328H2.43445V5.37695Z" fill="#FFBD82"/>
<path d="M3.03992 5.37695H2.43359V5.98328H3.03992V5.37695Z" fill="#FFBD82"/>
<path d="M3.64539 5.37695H3.03906V5.98328H3.64539V5.37695Z" fill="#FFBD82"/>
<path d="M4.25086 5.37695H3.64453V5.98328H4.25086V5.37695Z" fill="#FFBD82"/>
<path d="M4.86023 5.37695H4.25391V5.98328H4.86023V5.37695Z" fill="#FFBD82"/>
<path d="M5.4657 5.37695H4.85938V5.98328H5.4657V5.37695Z" fill="#FFBD82"/>
<path d="M6.07117 5.37695H5.46484V5.98328H6.07117V5.37695Z" fill="#FFBD82"/>
<path d="M6.67664 5.37695H6.07031V5.98328H6.67664V5.37695Z" fill="#FFBD82"/>
<path d="M7.28601 5.37695H6.67969V5.98328H7.28601V5.37695Z" fill="#FFBD82"/>
<path d="M7.88758 5.37695H7.28125V5.98328H7.88758V5.37695Z" fill="#FFBD82"/>
<path d="M8.49304 5.37695H7.88672V5.98328H8.49304V5.37695Z" fill="#FFBD82"/>
<path d="M9.09851 5.37695H8.49219V5.98328H9.09851V5.37695Z" fill="#FFBD82"/>
<path d="M9.70789 5.37695H9.10156V5.98328H9.70789V5.37695Z" fill="#FF8426"/>
<path d="M10.3134 5.37695H9.70703V5.98328H10.3134V5.37695Z" fill="#16171A"/>
<path d="M1.21961 5.9834H0.613281V6.58972H1.21961V5.9834Z" fill="#16171A"/>
<path d="M1.82508 5.9834H1.21875V6.58972H1.82508V5.9834Z" fill="#FAFDFF"/>
<path d="M2.43445 5.9834H1.82812V6.58972H2.43445V5.9834Z" fill="#FFBD82"/>
<path d="M3.03992 5.9834H2.43359V6.58972H3.03992V5.9834Z" fill="#FFBD82"/>
<path d="M3.64539 5.9834H3.03906V6.58972H3.64539V5.9834Z" fill="#FFBD82"/>
<path d="M4.25086 5.9834H3.64453V6.58972H4.25086V5.9834Z" fill="#FFBD82"/>
<path d="M4.86023 5.9834H4.25391V6.58972H4.86023V5.9834Z" fill="#FFBD82"/>
<path d="M5.4657 5.9834H4.85938V6.58972H5.4657V5.9834Z" fill="#FFBD82"/>
<path d="M6.07117 5.9834H5.46484V6.58972H6.07117V5.9834Z" fill="#FFBD82"/>
<path d="M6.67664 5.9834H6.07031V6.58972H6.67664V5.9834Z" fill="#FFBD82"/>
<path d="M7.28601 5.9834H6.67969V6.58972H7.28601V5.9834Z" fill="#FFBD82"/>
<path d="M7.88758 5.9834H7.28125V6.58972H7.88758V5.9834Z" fill="#FFBD82"/>
<path d="M8.49304 5.9834H7.88672V6.58972H8.49304V5.9834Z" fill="#FFBD82"/>
<path d="M9.09851 5.9834H8.49219V6.58972H9.09851V5.9834Z" fill="#FFBD82"/>
<path d="M9.70789 5.9834H9.10156V6.58972H9.70789V5.9834Z" fill="#FF8426"/>
<path d="M10.3134 5.9834H9.70703V6.58972H10.3134V5.9834Z" fill="#16171A"/>
<path d="M1.82508 6.58984H1.21875V7.19617H1.82508V6.58984Z" fill="#16171A"/>
<path d="M2.43445 6.58984H1.82812V7.19617H2.43445V6.58984Z" fill="#FAFDFF"/>
<path d="M3.03992 6.58984H2.43359V7.19617H3.03992V6.58984Z" fill="#FFBD82"/>
<path d="M3.64539 6.58984H3.03906V7.19617H3.64539V6.58984Z" fill="#FFBD82"/>
<path d="M4.25086 6.58984H3.64453V7.19617H4.25086V6.58984Z" fill="#FFBD82"/>
<path d="M4.86023 6.58984H4.25391V7.19617H4.86023V6.58984Z" fill="#FFBD82"/>
<path d="M5.4657 6.58984H4.85938V7.19617H5.4657V6.58984Z" fill="#FFBD82"/>
<path d="M6.07117 6.58984H5.46484V7.19617H6.07117V6.58984Z" fill="#FFBD82"/>
<path d="M6.67664 6.58984H6.07031V7.19617H6.67664V6.58984Z" fill="#FFBD82"/>
<path d="M7.28601 6.58984H6.67969V7.19617H7.28601V6.58984Z" fill="#FFBD82"/>
<path d="M7.88758 6.58984H7.28125V7.19617H7.88758V6.58984Z" fill="#FFBD82"/>
<path d="M8.49304 6.58984H7.88672V7.19617H8.49304V6.58984Z" fill="#FFBD82"/>
<path d="M9.09851 6.58984H8.49219V7.19617H9.09851V6.58984Z" fill="#FF8426"/>
<path d="M9.70789 6.58984H9.10156V7.19617H9.70789V6.58984Z" fill="#16171A"/>
<path d="M1.82508 7.19531H1.21875V7.80164H1.82508V7.19531Z" fill="#16171A"/>
<path d="M2.43445 7.19531H1.82812V7.80164H2.43445V7.19531Z" fill="#FAFDFF"/>
<path d="M3.03992 7.19531H2.43359V7.80164H3.03992V7.19531Z" fill="#FFBD82"/>
<path d="M3.64539 7.19629H3.03906V7.80261H3.64539V7.19629Z" fill="#FFBD82"/>
<path d="M4.25086 7.19531H3.64453V7.80164H4.25086V7.19531Z" fill="#FFBD82"/>
<path d="M4.86023 7.19531H4.25391V7.80164H4.86023V7.19531Z" fill="#FFBD82"/>
<path d="M5.4657 7.19531H4.85938V7.80164H5.4657V7.19531Z" fill="#FFBD82"/>
<path d="M6.07117 7.19531H5.46484V7.80164H6.07117V7.19531Z" fill="#FFBD82"/>
<path d="M6.67664 7.19531H6.07031V7.80164H6.67664V7.19531Z" fill="#FFBD82"/>
<path d="M7.28601 7.19531H6.67969V7.80164H7.28601V7.19531Z" fill="#FFBD82"/>
<path d="M7.88758 7.19629H7.28125V7.80261H7.88758V7.19629Z" fill="#FFBD82"/>
<path d="M8.49304 7.19531H7.88672V7.80164H8.49304V7.19531Z" fill="#FFBD82"/>
<path d="M9.09851 7.19531H8.49219V7.80164H9.09851V7.19531Z" fill="#FF8426"/>
<path d="M9.70789 7.19531H9.10156V7.80164H9.70789V7.19531Z" fill="#16171A"/>
<path d="M2.43445 7.80273H1.82812V8.40906H2.43445V7.80273Z" fill="#16171A"/>
<path d="M3.03992 7.80273H2.43359V8.40906H3.03992V7.80273Z" fill="#FAFDFF"/>
<path d="M3.64539 7.80273H3.03906V8.40906H3.64539V7.80273Z" fill="#FFBD82"/>
<path d="M4.25086 7.80273H3.64453V8.40906H4.25086V7.80273Z" fill="#FFBD82"/>
<path d="M4.86023 7.80273H4.25391V8.40906H4.86023V7.80273Z" fill="#FFBD82"/>
<path d="M5.4657 7.80273H4.85938V8.40906H5.4657V7.80273Z" fill="#FFBD82"/>
<path d="M6.07117 7.80273H5.46484V8.40906H6.07117V7.80273Z" fill="#FFBD82"/>
<path d="M6.67664 7.80273H6.07031V8.40906H6.67664V7.80273Z" fill="#FFBD82"/>
<path d="M7.28601 7.80273H6.67969V8.40906H7.28601V7.80273Z" fill="#FFBD82"/>
<path d="M7.88758 7.80273H7.28125V8.40906H7.88758V7.80273Z" fill="#FFBD82"/>
<path d="M8.49304 7.80273H7.88672V8.40906H8.49304V7.80273Z" fill="#FF8426"/>
<path d="M9.09851 7.80273H8.49219V8.40906H9.09851V7.80273Z" fill="#16171A"/>
<path d="M3.03992 8.4082H2.43359V9.01453H3.03992V8.4082Z" fill="#16171A"/>
<path d="M3.64539 8.4082H3.03906V9.01453H3.64539V8.4082Z" fill="#FF8426"/>
<path d="M4.25086 8.4082H3.64453V9.01453H4.25086V8.4082Z" fill="#FF8426"/>
<path d="M4.86023 8.4082H4.25391V9.01453H4.86023V8.4082Z" fill="#FFBD82"/>
<path d="M5.4657 8.4082H4.85938V9.01453H5.4657V8.4082Z" fill="#FFBD82"/>
<path d="M6.07117 8.4082H5.46484V9.01453H6.07117V8.4082Z" fill="#FFBD82"/>
<path d="M6.67664 8.4082H6.07031V9.01453H6.67664V8.4082Z" fill="#FFBD82"/>
<path d="M7.28601 8.4082H6.67969V9.01453H7.28601V8.4082Z" fill="#FF8426"/>
<path d="M7.88758 8.4082H7.28125V9.01453H7.88758V8.4082Z" fill="#FF8426"/>
<path d="M8.49304 8.4082H7.88672V9.01453H8.49304V8.4082Z" fill="#16171A"/>
<path d="M3.64539 9.01465H3.03906V9.62097H3.64539V9.01465Z" fill="#16171A"/>
<path d="M4.25086 9.01562H3.64453V9.62195H4.25086V9.01562Z" fill="#16171A"/>
<path d="M4.86023 9.01562H4.25391V9.62195H4.86023V9.01562Z" fill="#FF8426"/>
<path d="M5.4657 9.01562H4.85938V9.62195H5.4657V9.01562Z" fill="#FF8426"/>
<path d="M6.07117 9.01562H5.46484V9.62195H6.07117V9.01562Z" fill="#FF8426"/>
<path d="M6.67664 9.01562H6.07031V9.62195H6.67664V9.01562Z" fill="#FF8426"/>
<path d="M7.28601 9.01562H6.67969V9.62195H7.28601V9.01562Z" fill="#16171A"/>
<path d="M7.88758 9.01465H7.28125V9.62097H7.88758V9.01465Z" fill="#16171A"/>
<path d="M4.86023 9.62109H4.25391V10.2274H4.86023V9.62109Z" fill="#16171A"/>
<path d="M5.4657 9.62109H4.85938V10.2274H5.4657V9.62109Z" fill="#16171A"/>
<path d="M6.07117 9.62109H5.46484V10.2274H6.07117V9.62109Z" fill="#16171A"/>
<path d="M6.67664 9.62109H6.07031V10.2274H6.67664V9.62109Z" fill="#16171A"/>
<path d="M3.64929 2.3457H3.04297V2.95203H3.64929V2.3457Z" fill="#16171A"/>
<path d="M4.25867 2.3457H3.65234V2.95203H4.25867V2.3457Z" fill="#16171A"/>
<path d="M4.86414 2.3457H4.25781V2.95203H4.86414V2.3457Z" fill="#16171A"/>
<path d="M5.46961 2.3457H4.86328V2.95203H5.46961V2.3457Z" fill="#16171A"/>
<path d="M6.07508 2.3457H5.46875V2.95203H6.07508V2.3457Z" fill="#16171A"/>
<path d="M3.04383 2.95215H2.4375V3.55847H3.04383V2.95215Z" fill="#16171A"/>
<path d="M3.64929 2.95215H3.04297V3.55847H3.64929V2.95215Z" fill="#FAFDFF"/>
<path d="M4.25867 2.95215H3.65234V3.55847H4.25867V2.95215Z" fill="#FFD100"/>
<path d="M4.86414 2.95215H4.25781V3.55847H4.86414V2.95215Z" fill="#FFD100"/>
<path d="M5.46961 2.95215H4.86328V3.55847H5.46961V2.95215Z" fill="#FFD100"/>
<path d="M6.07508 2.95215H5.46875V3.55847H6.07508V2.95215Z" fill="#FFD100"/>
<path d="M6.68445 2.95215H6.07812V3.55847H6.68445V2.95215Z" fill="#16171A"/>
<path d="M3.04383 3.55859H2.4375V4.16492H3.04383V3.55859Z" fill="#16171A"/>
<path d="M3.64929 3.55859H3.04297V4.16492H3.64929V3.55859Z" fill="#FFD100"/>
<path d="M4.25867 3.55859H3.65234V4.16492H4.25867V3.55859Z" fill="#FF8426"/>
<path d="M4.86414 3.55859H4.25781V4.16492H4.86414V3.55859Z" fill="#FF8426"/>
<path d="M5.46961 3.55859H4.86328V4.16492H5.46961V3.55859Z" fill="#FF8426"/>
<path d="M6.07508 3.55859H5.46875V4.16492H6.07508V3.55859Z" fill="#FF8426"/>
<path d="M6.68445 3.55859H6.07812V4.16492H6.68445V3.55859Z" fill="#FF8426"/>
<path d="M7.28992 3.55859H6.68359V4.16492H7.28992V3.55859Z" fill="#16171A"/>
<path d="M3.04383 4.16504H2.4375V4.77136H3.04383V4.16504Z" fill="#16171A"/>
<path d="M3.64929 4.16406H3.04297V4.77039H3.64929V4.16406Z" fill="#FFD100"/>
<path d="M4.25867 4.16406H3.65234V4.77039H4.25867V4.16406Z" fill="#FF8426"/>
<path d="M4.86414 4.16406H4.25781V4.77039H4.86414V4.16406Z" fill="#16171A"/>
<path d="M5.46961 4.16504H4.86328V4.77136H5.46961V4.16504Z" fill="#16171A"/>
<path d="M6.07508 4.16406H5.46875V4.77039H6.07508V4.16406Z" fill="#FFD100"/>
<path d="M6.68445 4.16406H6.07812V4.77039H6.68445V4.16406Z" fill="#FF8426"/>
<path d="M7.28992 4.16406H6.68359V4.77039H7.28992V4.16406Z" fill="#16171A"/>
<path d="M3.04383 4.77148H2.4375V5.37781H3.04383V4.77148Z" fill="#16171A"/>
<path d="M3.64929 4.77148H3.04297V5.37781H3.64929V4.77148Z" fill="#FFD100"/>
<path d="M4.25867 4.77148H3.65234V5.37781H4.25867V4.77148Z" fill="#FF8426"/>
<path d="M4.86414 4.77148H4.25781V5.37781H4.86414V4.77148Z" fill="#FFD100"/>
<path d="M5.46961 4.77148H4.86328V5.37781H5.46961V4.77148Z" fill="#FFD100"/>
<path d="M6.07508 4.77148H5.46875V5.37781H6.07508V4.77148Z" fill="#FAFDFF"/>
<path d="M6.68445 4.77148H6.07812V5.37781H6.68445V4.77148Z" fill="#FF8426"/>
<path d="M7.28992 4.77148H6.68359V5.37781H7.28992V4.77148Z" fill="#FF8426"/>
<path d="M7.89539 4.77148H7.28906V5.37781H7.89539V4.77148Z" fill="#16171A"/>
<path d="M3.04383 5.37793H2.4375V5.98425H3.04383V5.37793Z" fill="#16171A"/>
<path d="M3.64929 5.37793H3.04297V5.98425H3.64929V5.37793Z" fill="#FFD100"/>
<path d="M4.25867 5.37793H3.65234V5.98425H4.25867V5.37793Z" fill="#FF8426"/>
<path d="M4.86414 5.37793H4.25781V5.98425H4.86414V5.37793Z" fill="#FF8426"/>
<path d="M5.46961 5.37793H4.86328V5.98425H5.46961V5.37793Z" fill="#FF8426"/>
<path d="M6.07508 5.37793H5.46875V5.98425H6.07508V5.37793Z" fill="#FF8426"/>
<path d="M6.68445 5.37793H6.07812V5.98425H6.68445V5.37793Z" fill="#FF8426"/>
<path d="M7.28992 5.37793H6.68359V5.98425H7.28992V5.37793Z" fill="#FF8426"/>
<path d="M7.89539 5.37793H7.28906V5.98425H7.89539V5.37793Z" fill="#FF8426"/>
<path d="M8.50086 5.37793H7.89453V5.98425H8.50086V5.37793Z" fill="#16171A"/>
<path d="M3.04383 5.9834H2.4375V6.58972H3.04383V5.9834Z" fill="#16171A"/>
<path d="M3.64929 5.98438H3.04297V6.5907H3.64929V5.98438Z" fill="#FFD100"/>
<path d="M4.25867 5.98438H3.65234V6.5907H4.25867V5.98438Z" fill="#FF8426"/>
<path d="M4.86414 5.98438H4.25781V6.5907H4.86414V5.98438Z" fill="#16171A"/>
<path d="M5.46961 5.9834H4.86328V6.58972H5.46961V5.9834Z" fill="#16171A"/>
<path d="M6.07508 5.98438H5.46875V6.5907H6.07508V5.98438Z" fill="#16171A"/>
<path d="M6.68445 5.98438H6.07812V6.5907H6.68445V5.98438Z" fill="#16171A"/>
<path d="M7.28992 5.98438H6.68359V6.5907H7.28992V5.98438Z" fill="#FFD100"/>
<path d="M7.89539 5.98438H7.28906V6.5907H7.89539V5.98438Z" fill="#FF8426"/>
<path d="M8.50086 5.98438H7.89453V6.5907H8.50086V5.98438Z" fill="#16171A"/>
<path d="M3.04383 6.58984H2.4375V7.19617H3.04383V6.58984Z" fill="#16171A"/>
<path d="M3.64929 6.58984H3.04297V7.19617H3.64929V6.58984Z" fill="#FFD100"/>
<path d="M4.25867 6.58984H3.65234V7.19617H4.25867V6.58984Z" fill="#FF8426"/>
<path d="M4.86414 6.58984H4.25781V7.19617H4.86414V6.58984Z" fill="#FFD100"/>
<path d="M5.46961 6.58984H4.86328V7.19617H5.46961V6.58984Z" fill="#FFD100"/>
<path d="M6.07508 6.58984H5.46875V7.19617H6.07508V6.58984Z" fill="#FFD100"/>
<path d="M6.68445 6.58984H6.07812V7.19617H6.68445V6.58984Z" fill="#FFD100"/>
<path d="M7.28992 6.58984H6.68359V7.19617H7.28992V6.58984Z" fill="#FAFDFF"/>
<path d="M7.89539 6.58984H7.28906V7.19617H7.89539V6.58984Z" fill="#FF8426"/>
<path d="M8.50086 6.58984H7.89453V7.19617H8.50086V6.58984Z" fill="#16171A"/>
<path d="M3.04383 7.19629H2.4375V7.80261H3.04383V7.19629Z" fill="#16171A"/>
<path d="M3.64929 7.19727H3.04297V7.80359H3.64929V7.19727Z" fill="#FF8426"/>
<path d="M4.25867 7.19727H3.65234V7.80359H4.25867V7.19727Z" fill="#FF8426"/>
<path d="M4.86414 7.19727H4.25781V7.80359H4.86414V7.19727Z" fill="#FF8426"/>
<path d="M5.46961 7.19629H4.86328V7.80261H5.46961V7.19629Z" fill="#FF8426"/>
<path d="M6.07508 7.19727H5.46875V7.80359H6.07508V7.19727Z" fill="#FF8426"/>
<path d="M6.68445 7.19727H6.07812V7.80359H6.68445V7.19727Z" fill="#FF8426"/>
<path d="M7.28992 7.19727H6.68359V7.80359H7.28992V7.19727Z" fill="#FF8426"/>
<path d="M7.89539 7.19727H7.28906V7.80359H7.89539V7.19727Z" fill="#16171A"/>
<path d="M3.64929 7.80273H3.04297V8.40906H3.64929V7.80273Z" fill="#16171A"/>
<path d="M4.25867 7.80273H3.65234V8.40906H4.25867V7.80273Z" fill="#16171A"/>
<path d="M4.86414 7.80273H4.25781V8.40906H4.86414V7.80273Z" fill="#16171A"/>
<path d="M5.46961 7.80273H4.86328V8.40906H5.46961V7.80273Z" fill="#16171A"/>
<path d="M6.07508 7.80273H5.46875V8.40906H6.07508V7.80273Z" fill="#16171A"/>
<path d="M6.68445 7.80273H6.07812V8.40906H6.68445V7.80273Z" fill="#16171A"/>
<path d="M7.28992 7.80273H6.68359V8.40906H7.28992V7.80273Z" fill="#16171A"/>
</svg>
