<svg width="10" height="10" viewBox="0 0 10 10" fill="none" xmlns="http://www.w3.org/2000/svg">
<path d="M5.35489 10H4.6435C4.63088 9.99423 4.61872 9.98483 4.60563 9.98335C4.53639 9.9755 4.46708 9.98134 4.39744 9.96428C4.31014 9.943 4.21787 9.94018 4.12882 9.92467C4.0348 9.90829 3.94132 9.88681 3.84784 9.86694C3.78176 9.85291 3.71594 9.83787 3.65013 9.8231C3.64488 9.82145 3.63973 9.81952 3.63468 9.81732C3.60359 9.80665 3.57277 9.79497 3.5412 9.78577C3.50964 9.77657 3.47754 9.77234 3.44719 9.76221C3.40058 9.7465 3.35538 9.72682 3.30911 9.70991C3.25096 9.68863 3.19233 9.66862 3.1341 9.64747C3.11295 9.63982 3.09206 9.63129 3.07165 9.62183C3.03686 9.60558 3.00302 9.58718 2.96789 9.57174C2.93082 9.55543 2.89214 9.54301 2.85541 9.52609C2.82183 9.51072 2.7906 9.49111 2.75783 9.47433C2.71384 9.45184 2.66858 9.43163 2.62526 9.40793C2.57154 9.37859 2.51875 9.34751 2.4663 9.31582C2.41701 9.28608 2.36853 9.25486 2.3199 9.22405C2.27625 9.19639 2.23276 9.16852 2.18942 9.14046C2.15719 9.11965 2.12408 9.10018 2.09345 9.07695C2.02771 9.02767 1.96297 8.97705 1.8987 8.9261C1.84498 8.88374 1.79125 8.84191 1.74008 8.79659C1.65674 8.72274 1.57293 8.64889 1.49422 8.56967C1.39711 8.47226 1.30216 8.3723 1.21163 8.26877C1.14024 8.18714 1.07624 8.09892 1.01016 8.01272C0.952608 7.93759 0.895257 7.86213 0.840592 7.78486C0.804999 7.73444 0.77404 7.68073 0.741805 7.62803C0.721256 7.59446 0.702788 7.55962 0.682372 7.52605C0.664845 7.49725 0.645168 7.46972 0.627707 7.44092C0.612933 7.41642 0.599502 7.39097 0.586205 7.3656C0.568946 7.33277 0.552224 7.2996 0.535569 7.26644C0.513744 7.22287 0.49091 7.17963 0.470764 7.13525C0.454176 7.09866 0.442088 7.05999 0.425702 7.02327C0.402197 6.9705 0.374193 6.91975 0.352502 6.86631C0.32893 6.80803 0.310798 6.74755 0.28951 6.68826C0.265804 6.62214 0.240016 6.55675 0.217317 6.49028C0.202072 6.4457 0.190454 6.39992 0.177561 6.35447C0.164129 6.30519 0.150295 6.25591 0.138207 6.20623C0.124306 6.14869 0.111345 6.09096 0.0993909 6.03295C0.0859597 5.96709 0.0725285 5.9011 0.0620522 5.8347C0.0472778 5.74071 0.0336452 5.64672 0.0224973 5.55273C0.0125582 5.47559 0.00295486 5.39785 0.00201468 5.32064C-0.00067156 5.10715 -0.00067156 4.89362 0.00201468 4.68003C0.00295486 4.60256 0.0145057 4.52509 0.0212885 4.44795C0.0212885 4.44573 0.0216242 4.44352 0.0220272 4.44123C0.033578 4.37181 0.0463376 4.3024 0.0571498 4.23278C0.0659472 4.17585 0.0726628 4.11865 0.0804529 4.06158C0.0812292 4.05721 0.082238 4.05289 0.0834749 4.04862C0.0939513 4.00499 0.105166 3.96135 0.114568 3.91764C0.123298 3.87676 0.129275 3.83527 0.138006 3.79438C0.143915 3.76672 0.151437 3.7394 0.159966 3.71234C0.170442 3.67877 0.183739 3.64521 0.193544 3.61164C0.203348 3.57807 0.206572 3.54329 0.217317 3.51046C0.233099 3.46226 0.253783 3.41567 0.271042 3.36787C0.29871 3.29026 0.324766 3.21218 0.352166 3.13444C0.359182 3.1139 0.367228 3.09374 0.376275 3.07401C0.392997 3.03837 0.412204 3.00386 0.428321 2.96794C0.444438 2.93202 0.456862 2.89255 0.474054 2.85623C0.496081 2.80957 0.521601 2.76452 0.544971 2.71846C0.560887 2.68704 0.573982 2.65408 0.591376 2.62353C0.613806 2.58399 0.640198 2.54666 0.663098 2.50739C0.685999 2.46812 0.705272 2.42616 0.729381 2.38749C0.756915 2.34338 0.788747 2.30209 0.817356 2.25872C0.853016 2.20461 0.884982 2.14794 0.922791 2.09551C0.970673 2.02911 1.02245 1.96547 1.07342 1.90142C1.11647 1.84731 1.15945 1.79307 1.20505 1.7411C1.2722 1.66437 1.33936 1.58669 1.41128 1.51459C1.51363 1.412 1.61772 1.31083 1.72645 1.21516C1.80878 1.14272 1.89917 1.07941 1.98661 1.01288C2.06216 0.955414 2.13778 0.897946 2.21494 0.842827C2.26255 0.808857 2.31312 0.778914 2.36268 0.747898C2.41641 0.71433 2.46973 0.680158 2.52466 0.648873C2.56677 0.624838 2.61129 0.6051 2.65441 0.582878C2.70182 0.558374 2.74843 0.532392 2.79631 0.508559C2.82646 0.493588 2.8585 0.482242 2.88892 0.467673C2.92498 0.450352 2.95936 0.429272 2.99637 0.413495C3.03599 0.396375 3.07789 0.384694 3.11792 0.368447C3.15794 0.3522 3.19548 0.331589 3.23544 0.316282C3.30602 0.289428 3.37734 0.263917 3.44886 0.239412C3.49245 0.224441 3.53691 0.211886 3.58116 0.199131C3.62851 0.185703 3.67592 0.172276 3.72367 0.159655C3.77663 0.146228 3.82982 0.133405 3.88323 0.121186C3.94112 0.108162 3.99901 0.0950703 4.05736 0.0843957C4.13795 0.0697601 4.21854 0.056803 4.29953 0.0441143C4.34855 0.036528 4.39778 0.0298144 4.44727 0.0247121C4.52114 0.0171258 4.59542 0.00497421 4.66936 0.0057127C4.91454 0.00826386 5.16027 -0.0160393 5.40498 0.0197441C5.46939 0.0291431 5.535 0.0181328 5.59974 0.0382064C5.65071 0.0539161 5.70719 0.0521035 5.76051 0.0602269C5.83136 0.0709686 5.90201 0.0831873 5.97252 0.0960102C6.0482 0.109773 6.12369 0.124946 6.19924 0.139648C6.20595 0.140924 6.21186 0.143878 6.21824 0.145691C6.25578 0.156432 6.29312 0.167644 6.3308 0.17758C6.3631 0.186106 6.39601 0.192417 6.42831 0.200943C6.45222 0.207164 6.47581 0.214505 6.49909 0.222964C6.52763 0.233303 6.55523 0.246327 6.58398 0.256062C6.61164 0.265394 6.64092 0.27016 6.66839 0.280029C6.7344 0.303795 6.79988 0.329105 6.86536 0.353878C6.88658 0.362024 6.90749 0.370976 6.92808 0.380733C6.96294 0.397047 6.99685 0.415307 7.03204 0.430749C7.06871 0.446861 7.10732 0.458879 7.14352 0.475931C7.19053 0.498086 7.23552 0.523463 7.28146 0.547363C7.32739 0.571264 7.37219 0.593351 7.41664 0.617923C7.45533 0.639339 7.49273 0.663105 7.53081 0.685797C7.57936 0.714867 7.62872 0.742795 7.67627 0.773074C7.71878 0.800331 7.759 0.831146 7.80098 0.859209C7.8367 0.883109 7.87485 0.903048 7.90943 0.928627C7.97269 0.975622 8.03394 1.02571 8.09579 1.07478C8.15086 1.11842 8.2072 1.16065 8.26012 1.20677C8.33628 1.27317 8.41284 1.33956 8.48375 1.4114C8.58845 1.51734 8.69079 1.62583 8.78931 1.73748C8.86063 1.81804 8.92477 1.90532 8.99078 1.99051C9.03452 2.0465 9.07734 2.10323 9.11925 2.1607C9.14497 2.19588 9.16982 2.2318 9.19312 2.26879C9.23503 2.33593 9.27512 2.40434 9.31615 2.47208C9.33375 2.50101 9.35201 2.52954 9.36934 2.55868C9.38452 2.58419 9.39936 2.61004 9.41326 2.63629C9.43065 2.66912 9.44684 2.70249 9.46376 2.73572C9.48565 2.77936 9.50862 2.82246 9.52877 2.86683C9.54542 2.90356 9.55711 2.9425 9.57369 2.97922C9.59028 3.01594 9.61191 3.04864 9.62742 3.08496C9.64488 3.12692 9.6567 3.17109 9.67255 3.21372C9.70223 3.29341 9.73386 3.3723 9.76294 3.45212C9.77825 3.49428 9.79047 3.53759 9.80323 3.58069C9.81713 3.62809 9.8307 3.67555 9.84299 3.72342C9.85642 3.77639 9.86891 3.82969 9.8808 3.88313C9.89423 3.94309 9.90766 4.00311 9.91888 4.06359C9.93311 4.14073 9.94789 4.21801 9.95722 4.29582C9.9681 4.38598 9.97334 4.47708 9.98086 4.56731C9.9822 4.58289 9.98086 4.59887 9.98435 4.61397C9.98677 4.62505 9.99463 4.63492 10 4.64533V5.35696C9.99416 5.37167 9.98476 5.38597 9.98294 5.40121C9.97509 5.467 9.98489 5.5334 9.96421 5.59952C9.94829 5.65035 9.95037 5.70694 9.94231 5.76011C9.93157 5.83101 9.91941 5.90164 9.90659 5.9722C9.89316 6.04786 9.87764 6.12325 9.8628 6.19871C9.86132 6.20623 9.85763 6.21328 9.85541 6.22073C9.84527 6.25484 9.83453 6.28881 9.82553 6.32325C9.81687 6.35682 9.81075 6.39038 9.80229 6.42395C9.79598 6.44899 9.78826 6.4737 9.78 6.4982C9.76892 6.53103 9.75636 6.56339 9.74514 6.59622C9.73635 6.62187 9.7297 6.64832 9.72016 6.67376C9.70418 6.71626 9.68611 6.75795 9.67 6.80038C9.65462 6.84066 9.64253 6.88269 9.62547 6.92237C9.60264 6.97527 9.57584 7.02643 9.5516 7.07879C9.52998 7.12579 9.51131 7.17439 9.48847 7.22072C9.45879 7.2806 9.42689 7.33935 9.39445 7.39782C9.36544 7.44999 9.33549 7.50175 9.30413 7.55223C9.26444 7.61668 9.22287 7.67979 9.18197 7.74364C9.14685 7.79829 9.11394 7.85455 9.07573 7.90691C9.02872 7.97163 8.97695 8.03313 8.92705 8.09583C8.88333 8.15088 8.84129 8.20748 8.79502 8.26038C8.72115 8.34511 8.64728 8.4307 8.56756 8.50986C8.47005 8.60667 8.36838 8.69951 8.26462 8.78961C8.18343 8.8601 8.09673 8.92388 8.01165 8.99028C7.95483 9.03445 7.89748 9.07756 7.83926 9.12005C7.80344 9.1465 7.76691 9.17199 7.72966 9.19652C7.68782 9.22398 7.64558 9.25083 7.60206 9.27581C7.55122 9.30515 7.49864 9.33153 7.4476 9.3604C7.39455 9.39041 7.34351 9.42411 7.28945 9.45197C7.23196 9.48158 7.17159 9.50568 7.1131 9.53327C7.06233 9.55731 7.01297 9.5845 6.96186 9.60759C6.91485 9.62874 6.8669 9.64727 6.81869 9.66519C6.7289 9.69876 6.63924 9.73233 6.54838 9.76241C6.49358 9.78053 6.43657 9.79188 6.38049 9.80625C6.37727 9.80705 6.37378 9.80759 6.37089 9.80866C6.33731 9.82034 6.30474 9.83431 6.27063 9.8431C6.23033 9.85351 6.18849 9.85834 6.14786 9.86768C6.07742 9.88392 6.00778 9.904 5.93699 9.9183C5.86017 9.93387 5.78254 9.94757 5.70484 9.95683C5.61357 9.96771 5.5217 9.97301 5.4301 9.9806C5.41667 9.98174 5.40284 9.98006 5.38981 9.98322C5.37678 9.98637 5.36637 9.99436 5.35489 10ZM5.14214 8.82009C6.23315 8.79465 7.24768 8.30838 8.01534 7.33988C8.55507 6.65899 8.82652 5.86914 8.81812 5.00249C8.80624 3.76779 8.3068 2.7527 7.33814 1.98481C6.65859 1.44624 5.86944 1.17501 5.00393 1.18321C3.76826 1.19516 2.75259 1.6925 1.98372 2.66214C1.44332 3.3435 1.17181 4.13335 1.1802 5.00041C1.19215 6.23496 1.69059 7.25086 2.66059 8.01688C3.34128 8.5545 4.12929 8.81505 5.14214 8.82009Z" fill="#393939"/>
<path d="M8.33464 4.94889C8.32138 5.80922 8.06937 6.53374 7.54292 7.1488C6.87599 7.92833 6.01991 8.32695 4.99415 8.33358C4.25388 8.33842 3.57936 8.11175 2.99351 7.65868C2.12659 6.98833 1.67962 6.09539 1.66816 4.99803C1.66043 4.2565 1.88729 3.57994 2.34054 2.99391C3.01402 2.12315 3.91085 1.67278 5.01286 1.66704C5.81708 1.66289 6.5349 1.93117 7.14685 2.45431C7.92565 3.12093 8.30915 3.97835 8.33464 4.94889ZM4.99939 6.49221C5.01323 6.48264 5.02647 6.47223 5.03904 6.46104C5.1543 6.34356 5.26818 6.22469 5.38434 6.10825C5.48151 6.01101 5.5822 5.91716 5.67992 5.82041C5.77992 5.72145 5.8782 5.62076 5.97723 5.52076C6.04671 5.45055 6.11535 5.37992 6.18552 5.31012C6.2753 5.22028 6.36667 5.13127 6.45631 5.0406C6.49657 4.99997 6.49775 5.00093 6.455 4.95871C6.38469 4.88898 6.3137 4.82001 6.24388 4.74986C6.18076 4.68649 6.11957 4.62139 6.05617 4.55802C5.97164 4.47302 5.88593 4.38926 5.8012 4.30447C5.73213 4.23536 5.66404 4.16466 5.59484 4.09548C5.49677 3.99742 5.39781 3.90025 5.2996 3.80233C5.20575 3.70869 5.11279 3.61422 5.01804 3.52154C5.01114 3.51463 4.98689 3.51401 4.98047 3.5203C4.89822 3.6006 4.81804 3.68298 4.73676 3.76425C4.66542 3.83571 4.59325 3.90641 4.52163 3.97752C4.45291 4.0458 4.38385 4.11373 4.31597 4.18284C4.2469 4.25339 4.1795 4.32623 4.10954 4.39617C4.02549 4.48028 3.93896 4.56203 3.85436 4.64544C3.74849 4.75 3.64379 4.85574 3.53799 4.96044C3.50567 4.9925 3.50463 5.00667 3.53696 5.03832C3.66189 5.16064 3.78765 5.28213 3.91134 5.4057C4.00201 5.49623 4.08896 5.59056 4.17936 5.68137C4.25001 5.7522 4.32439 5.81896 4.39532 5.88966C4.47943 5.97376 4.56106 6.06056 4.64394 6.14536C4.74845 6.25132 4.85351 6.3566 4.95913 6.46118C4.9719 6.47235 4.98534 6.48271 4.99939 6.49221Z" fill="#393939"/>
</svg>
