<svg width="161" height="82" viewBox="0 0 161 82" fill="none" xmlns="http://www.w3.org/2000/svg">
<rect x="4" width="153" height="76.875" fill="white"/>
<rect width="141" height="2.56251" transform="matrix(1 9.58105e-08 7.97693e-08 -1 10 82)" fill="#FF7C06"/>
<rect x="155" y="79.4375" width="4" height="2.5625" transform="rotate(-180 155 79.4375)" fill="#FF7C06"/>
<rect width="4" height="2.5625" transform="matrix(1 9.58105e-08 7.97693e-08 -1 6 79.4375)" fill="#FF7C06"/>
<rect x="157" y="76.875" width="2" height="2.5625" transform="rotate(-180 157 76.875)" fill="#FF7C06"/>
<rect width="2" height="2.5625" transform="matrix(1 9.58105e-08 7.97693e-08 -1 4 76.875)" fill="#FF7C06"/>
<rect width="2" height="69.1875" fill="#FF7C06"/>
<rect x="161" y="69.1875" width="2.00001" height="69.1875" transform="rotate(-180 161 69.1875)" fill="#FF7C06"/>
<rect x="159" y="74.3125" width="2" height="5.125" transform="rotate(-180 159 74.3125)" fill="#FF7C06"/>
<rect width="2" height="5.125" transform="matrix(1 9.58105e-08 7.97693e-08 -1 2 74.3125)" fill="#FF7C06"/>
<rect x="4" y="71.75" width="2" height="2.5625" fill="#FFBD82"/>
<rect x="6" y="74.3125" width="4" height="2.5625" fill="#FFBD82"/>
<rect x="10" y="76.875" width="141" height="2.5625" fill="#FFBD82"/>
<rect x="2" width="2" height="69.1875" fill="#FFBD82"/>
<rect x="155" y="71.75" width="2" height="2.5625" fill="#FFBD82"/>
<rect x="151" y="74.3125" width="4" height="2.5625" fill="#FFBD82"/>
<rect x="157" width="2" height="69.1875" fill="#FFBD82"/>
</svg>
