<svg width="23" height="24" viewBox="0 0 23 24" fill="none" xmlns="http://www.w3.org/2000/svg">
<path d="M11.1419 23.0023L11.0498 22.982C11.0939 22.972 11.1279 22.9641 11.162 22.9565C11.4473 22.8929 11.734 22.8348 12.0173 22.7638C12.2227 22.713 12.4255 22.6519 12.6248 22.5807C12.8888 22.4856 13.1509 22.3833 13.4073 22.2701C13.6636 22.1568 13.9222 22.0354 14.1667 21.8954C14.4774 21.7173 14.7801 21.523 15.0779 21.3234C15.2777 21.1894 15.4676 21.0393 15.6539 20.8862C15.8488 20.7263 16.0365 20.5575 16.2227 20.3876C16.3637 20.2587 16.503 20.1271 16.6332 19.9875C16.8082 19.8001 16.9752 19.6051 17.1428 19.4109C17.4141 19.0952 17.6632 18.7612 17.8883 18.4111C18.0453 18.1683 18.1956 17.9212 18.3394 17.6698C18.4599 17.4594 18.5755 17.245 18.6765 17.0247C18.8297 16.691 18.9757 16.3528 19.1104 16.0107C19.2192 15.7336 19.3163 15.4508 19.3988 15.1649C19.5023 14.8072 19.59 14.445 19.6749 14.0826C19.7303 13.8452 19.7706 13.6042 19.813 13.364C19.8348 13.2398 19.8462 13.1137 19.8607 12.9883C19.8804 12.8178 19.8994 12.6472 19.9175 12.4765C19.9231 12.4238 19.9273 12.3707 19.929 12.3178C19.9338 12.2055 19.9385 12.0931 19.9405 11.9808C19.9453 11.7055 19.9551 11.4301 19.9501 11.1549C19.9465 10.9603 19.9234 10.7659 19.9059 10.5717C19.8932 10.4306 19.8794 10.2895 19.8588 10.1495C19.8367 9.99911 19.8119 9.84872 19.7783 9.70074C19.7219 9.45266 19.6675 9.20343 19.5942 8.96018C19.5046 8.66446 19.4065 8.37047 19.2933 8.08327C19.1596 7.74417 18.9955 7.4183 18.8161 7.10003C18.643 6.79226 18.4487 6.4969 18.2346 6.2161C18.1163 6.06122 17.9884 5.91313 17.8577 5.76849C17.7295 5.62685 17.5995 5.48543 17.4574 5.35828C17.2574 5.17947 17.0509 5.00722 16.8378 4.8444C16.532 4.61082 16.196 4.42487 15.8474 4.26286C15.5643 4.1292 15.269 4.02326 14.9655 3.94654C14.7692 3.8981 14.5708 3.85633 14.3716 3.82112C14.2492 3.79949 14.1238 3.79224 13.9994 3.78499C13.8132 3.77406 13.6263 3.75806 13.4404 3.76405C13.2273 3.77095 13.0147 3.79523 12.8021 3.81951C12.4348 3.86276 12.0743 3.95194 11.7292 4.08497C11.4915 4.17363 11.2587 4.27468 11.0316 4.3877C10.6922 4.55973 10.3758 4.76984 10.0744 5.00376C9.78379 5.22924 9.51326 5.47949 9.26586 5.75169C9.06404 5.97262 8.88292 6.21276 8.70032 6.45048C8.47387 6.74505 8.28919 7.06632 8.11636 7.39483C7.87436 7.85096 7.67884 8.33029 7.53276 8.82555C7.44749 9.11828 7.37926 9.41653 7.31321 9.71444C7.26926 9.91212 7.23911 10.1131 7.20966 10.3137C7.19102 10.4403 7.18756 10.5701 7.17318 10.6979C7.13141 11.0685 7.13463 11.4408 7.14119 11.8124C7.14476 12.0071 7.16892 12.2015 7.18526 12.3957C7.19527 12.5143 7.20459 12.6332 7.2207 12.7509C7.24049 12.8961 7.26224 13.0413 7.29193 13.1847C7.33669 13.401 7.37857 13.6188 7.44048 13.8306C7.53253 14.1447 7.63022 14.4579 7.74482 14.7643C7.8418 15.0267 7.95517 15.2827 8.08426 15.5309C8.2434 15.8332 8.41795 16.1285 8.60447 16.4146C8.74427 16.6287 8.90548 16.8306 9.07267 17.0244C9.2587 17.2417 9.45552 17.4496 9.66237 17.6472C9.836 17.8121 10.0317 17.9537 10.2177 18.1057C10.2263 18.1128 10.2347 18.1202 10.2541 18.1368C10.1463 18.1537 10.0531 18.1762 9.95901 18.1814C9.73268 18.194 9.50531 18.212 9.27944 18.2023C9.05157 18.1909 8.82475 18.164 8.60056 18.1217C8.31658 18.0699 8.04169 17.9797 7.7752 17.8676C7.47315 17.7411 7.18227 17.5907 6.91624 17.3989C6.71626 17.2546 6.52088 17.1028 6.33402 16.9421C6.17503 16.8053 6.02459 16.6589 5.88354 16.5038C5.59196 16.1824 5.33215 15.8354 5.11721 15.4578C4.99064 15.2357 4.8689 15.0101 4.76131 14.7789C4.59646 14.4275 4.46456 14.0616 4.36733 13.6858C4.31705 13.488 4.26378 13.2907 4.22155 13.0912C4.18944 12.9387 4.16862 12.7835 4.15032 12.6286C4.12731 12.4298 4.1043 12.2305 4.09336 12.0302C4.07917 11.779 4.0715 11.5274 4.07035 11.2755C4.06955 11.1029 4.08117 10.9294 4.09267 10.7568C4.10418 10.5842 4.11626 10.4094 4.13928 10.2371C4.17172 9.99105 4.20831 9.74539 4.2533 9.50064C4.30083 9.24071 4.35341 8.98135 4.41439 8.72441C4.51565 8.30177 4.65005 7.88904 4.80032 7.48101C4.96504 7.03353 5.15935 6.5975 5.38197 6.17582C5.51694 5.92038 5.66135 5.66884 5.81761 5.42594C6.00459 5.13528 6.20491 4.85291 6.40731 4.57273C6.51273 4.42951 6.62601 4.29226 6.74664 4.1616C6.96526 3.91996 7.18584 3.67901 7.41585 3.44819C7.57222 3.29136 7.74597 3.15167 7.91259 3.00519C8.18692 2.76332 8.48033 2.54398 8.78995 2.34932C9.07336 2.17154 9.36171 1.9994 9.65938 1.84717C9.94129 1.70299 10.2356 1.58252 10.529 1.46158C10.89 1.31349 11.2654 1.20913 11.646 1.12329C11.8179 1.08463 11.9912 1.05322 12.1653 1.02387C12.3248 0.996949 12.4852 0.973706 12.6461 0.955526C12.7666 0.941833 12.8877 0.93654 13.0095 0.931592C13.2379 0.922272 13.4665 0.908579 13.695 0.910305C13.9022 0.911801 14.1093 0.923652 14.315 0.944825C14.6874 0.981134 15.0571 1.04109 15.4218 1.12433C15.8046 1.21416 16.1813 1.3285 16.5494 1.46665C16.8677 1.58579 17.1784 1.72432 17.4797 1.88146C17.9077 2.10144 18.3165 2.35674 18.702 2.64469C18.901 2.79427 19.0943 2.95249 19.2851 3.11301C19.4232 3.22922 19.5552 3.35292 19.6853 3.47799C19.8366 3.62344 19.9884 3.76911 20.1304 3.92353C20.5363 4.36322 20.9006 4.83955 21.2186 5.34643C21.3912 5.62351 21.5541 5.90807 21.7089 6.19584C21.8327 6.42598 21.9444 6.66244 22.0499 6.9012C22.2327 7.31543 22.3935 7.73784 22.5153 8.17359C22.6091 8.50878 22.6918 8.84742 22.7684 9.18697C22.8206 9.41711 22.8577 9.65126 22.895 9.88485C22.918 10.0302 22.9295 10.1775 22.9423 10.3242C22.96 10.5358 22.9789 10.7475 22.9874 10.9594C22.9973 11.2038 22.9989 11.4486 22.9989 11.6932C22.9989 11.8593 22.9974 12.0256 22.9874 12.1913C22.9737 12.4065 22.9578 12.622 22.9299 12.8357C22.8916 13.1224 22.8493 13.4095 22.7918 13.6927C22.7235 14.0264 22.6422 14.3577 22.5558 14.6873C22.4472 15.1027 22.2999 15.5063 22.1324 15.9009C22.001 16.2105 21.8562 16.5149 21.704 16.8147C21.5241 17.1678 21.3268 17.5122 21.0976 17.8363C20.8958 18.1218 20.6896 18.4042 20.4791 18.6837C20.3628 18.8373 20.2363 18.984 20.106 19.1261C19.8933 19.358 19.6802 19.5898 19.4552 19.8097C19.2694 19.9914 19.0683 20.1576 18.8714 20.3275C18.5622 20.5945 18.2354 20.8405 17.8934 21.0639C17.6469 21.225 17.3962 21.3805 17.1405 21.5265C16.9073 21.6597 16.6695 21.7871 16.4253 21.8988C16.1117 22.0425 15.7924 22.1736 15.4709 22.2999C15.064 22.4598 14.6447 22.5831 14.2188 22.6824C13.9833 22.7372 13.7459 22.7844 13.5083 22.8293C13.322 22.8645 13.1344 22.8941 12.9465 22.9204C12.8232 22.9377 12.6985 22.947 12.5741 22.9561C12.39 22.9696 12.2068 22.9798 12.0231 22.9919C12.0172 22.9919 12.0116 22.9989 12.0058 23.0027L11.1419 23.0023Z" fill="#FF7C06"/>
<path d="M0 10.9943C0.00518887 10.9814 0.00904436 10.968 0.0115064 10.9542C0.0197911 10.8005 0.0220924 10.6462 0.0363604 10.4931C0.053505 10.309 0.0746768 10.1249 0.105399 9.94328C0.162356 9.59877 0.220464 9.25415 0.290308 8.91218C0.373907 8.51421 0.485804 8.12272 0.625145 7.74069C0.74021 7.42001 0.871268 7.10473 1.00486 6.79152C1.09465 6.57808 1.19562 6.36952 1.30736 6.16671C1.48962 5.84096 1.67753 5.51751 1.87969 5.20384C2.05678 4.92918 2.25112 4.66488 2.44857 4.40425C2.58792 4.22015 2.74038 4.04594 2.89583 3.87495C3.10651 3.64355 3.3195 3.41365 3.54307 3.19491C3.72717 3.01483 3.92773 2.85167 4.12138 2.68149C4.4248 2.41431 4.75216 2.17785 5.08585 1.94967C5.27962 1.817 5.47937 1.69181 5.68419 1.57663C5.9776 1.41151 6.27263 1.24743 6.57674 1.10371C6.88822 0.956425 7.2096 0.828472 7.53005 0.70213C7.93818 0.541039 8.35851 0.418839 8.78586 0.318387C9.02106 0.262925 9.25866 0.215748 9.49685 0.172598C9.70028 0.135892 9.90521 0.107241 10.1103 0.0805459C10.2657 0.0604095 10.4221 0.0471769 10.5783 0.0345197C10.7032 0.0241638 10.8283 0.0149585 10.9533 0.0115066C11.2152 0.00506289 11.4771 0.00207118 11.739 0C11.8066 2.16821e-06 11.874 0.00733248 11.94 0.0218625L11.8388 0.0448756C11.5372 0.112764 11.2336 0.173059 10.9347 0.250958C10.7015 0.311713 10.4717 0.388116 10.2443 0.469583C10.0274 0.546447 9.81316 0.632861 9.60225 0.725834C9.39421 0.817886 9.18939 0.917533 8.9878 1.02282C8.58773 1.23118 8.2039 1.46934 7.83957 1.7353C7.66191 1.86533 7.48587 1.99777 7.31419 2.1355C7.18428 2.23987 7.0599 2.3516 6.9377 2.46517C6.75739 2.6327 6.57502 2.79886 6.40507 2.97663C6.21383 3.17673 6.03283 3.38673 5.85206 3.59649C5.57131 3.92224 5.31943 4.26997 5.08389 4.62944C4.80026 5.06289 4.54021 5.50992 4.32182 5.97927C4.16683 6.31215 4.0253 6.65171 3.88883 6.99277C3.79425 7.22911 3.71244 7.47098 3.63569 7.71377C3.50947 8.1104 3.40096 8.51186 3.32306 8.92104C3.27704 9.1606 3.22813 9.39948 3.18775 9.63997C3.16128 9.79772 3.14563 9.95755 3.12883 10.1168C3.11104 10.286 3.0957 10.4556 3.08281 10.6255C3.07257 10.7581 3.06336 10.891 3.05979 11.0237C3.05347 11.2894 3.04461 11.5552 3.04978 11.8208C3.05381 12.0231 3.07533 12.2253 3.09408 12.4271C3.10927 12.5903 3.12469 12.7541 3.15288 12.9154C3.195 13.1555 3.24045 13.3955 3.29936 13.6318C3.36679 13.9023 3.4402 14.1726 3.53018 14.436C3.62223 14.705 3.73051 14.969 3.8435 15.23C4.00664 15.6087 4.20427 15.9716 4.43389 16.3141C4.60649 16.5706 4.79234 16.818 4.99069 17.0551C5.176 17.2755 5.37394 17.485 5.5835 17.6825C5.76416 17.8534 5.96172 18.0081 6.16147 18.1569C6.47292 18.3876 6.80813 18.5843 7.16138 18.7437C7.48782 18.8923 7.82473 19.0147 8.17625 19.0897C8.37186 19.1316 8.57092 19.1648 8.76952 19.1933C8.90404 19.2127 9.04062 19.2204 9.17651 19.2278C9.30987 19.2354 9.44392 19.2452 9.57682 19.2381C9.78232 19.2265 9.9876 19.2058 10.1922 19.1825C10.5628 19.1402 10.9211 19.0444 11.2713 18.9178C11.5715 18.8091 11.8622 18.6757 12.1405 18.519C12.4008 18.3721 12.6509 18.2076 12.8889 18.0268C13.0277 17.9219 13.1583 17.8058 13.2867 17.6883C13.4263 17.5606 13.5653 17.4312 13.6932 17.2921C13.8441 17.128 13.9876 16.9566 14.1253 16.7814C14.253 16.6189 14.3771 16.4524 14.4881 16.2784C14.6254 16.0632 14.7528 15.8412 14.8752 15.6171C15.1038 15.1991 15.2815 14.7587 15.4275 14.306C15.5354 13.9723 15.6273 13.6346 15.6875 13.2887C15.7221 13.0891 15.7602 12.8897 15.7891 12.6891C15.8081 12.5583 15.811 12.4252 15.826 12.2937C15.8677 11.9287 15.8646 11.5624 15.8578 11.1963C15.8542 10.996 15.8311 10.7958 15.8137 10.5958C15.8011 10.4511 15.7886 10.306 15.7665 10.1626C15.7367 9.96975 15.7026 9.77736 15.6618 9.58658C15.58 9.2056 15.4785 8.82945 15.342 8.46411C15.2601 8.24495 15.1721 8.02809 15.0782 7.81353C14.9988 7.63288 14.9125 7.45541 14.8192 7.28112C14.6391 6.94456 14.4394 6.61973 14.203 6.31883C14.0619 6.13898 13.9205 5.9581 13.7648 5.79125C13.5807 5.59357 13.3851 5.40601 13.1859 5.22283C13.0544 5.10178 12.9086 4.99615 12.7694 4.8835C12.7638 4.87697 12.7589 4.86987 12.7548 4.86233C12.853 4.84691 12.9461 4.82424 13.0401 4.81906C13.2665 4.80652 13.4935 4.79478 13.7201 4.79605C13.9541 4.79778 14.1855 4.83391 14.415 4.88189C14.7065 4.94364 14.9913 5.03366 15.2653 5.15068C15.5659 5.27582 15.8515 5.43429 16.1167 5.62314C16.3031 5.75742 16.4808 5.90402 16.659 6.04888C16.7495 6.12205 16.8355 6.20063 16.9166 6.28419C17.1582 6.5355 17.3858 6.79808 17.5861 7.08436C17.7615 7.33519 17.9215 7.59649 18.0651 7.86681C18.2768 8.2669 18.4488 8.68674 18.5787 9.12033C18.6575 9.37992 18.7203 9.64492 18.7776 9.91026C18.817 10.0918 18.8381 10.2777 18.8603 10.4626C18.8809 10.6333 18.8974 10.805 18.9064 10.9767C18.919 11.2242 18.9278 11.4715 18.9294 11.7198C18.9302 11.8924 18.9196 12.0659 18.9064 12.2385C18.8915 12.442 18.8756 12.6461 18.848 12.8483C18.8083 13.1406 18.7659 13.4331 18.7093 13.7228C18.6564 13.993 18.591 14.2615 18.5174 14.5268C18.4415 14.8008 18.3583 15.0736 18.2613 15.3407C18.1534 15.6382 18.0312 15.9308 17.9059 16.2218C17.8222 16.4174 17.7276 16.6075 17.6306 16.7965C17.4143 17.2159 17.17 17.6202 16.8992 18.0067C16.742 18.2319 16.5733 18.4495 16.4024 18.6646C16.2916 18.8039 16.1693 18.9343 16.049 19.0658C15.9224 19.2039 15.7982 19.3439 15.6632 19.4728C15.4831 19.6454 15.2949 19.8082 15.1079 19.973C14.7907 20.2526 14.4462 20.4959 14.0909 20.7235C13.9236 20.8307 13.7501 20.9288 13.575 21.0227C13.3845 21.125 13.1916 21.2235 12.995 21.3136C12.6589 21.4677 12.3144 21.6013 11.9576 21.7007C11.7359 21.7622 11.5146 21.8262 11.2902 21.8778C11.1094 21.9194 10.9251 21.9468 10.7415 21.9751C10.5628 22.0024 10.383 22.0226 10.2035 22.0442C10.147 22.051 10.0902 22.0548 10.0333 22.0557C9.72916 22.0604 9.42505 22.0703 9.12116 22.0653C8.92083 22.0621 8.72005 22.043 8.52076 22.0202C8.13614 21.978 7.7548 21.9099 7.37932 21.8164C7.00156 21.7205 6.62921 21.6046 6.27021 21.4534C5.97956 21.331 5.69201 21.1991 5.41252 21.0533C4.99474 20.8377 4.5975 20.5845 4.22574 20.2967C4.01598 20.133 3.81151 19.963 3.60681 19.7929C3.51626 19.7175 3.43168 19.6353 3.34515 19.5552C3.27531 19.4904 3.2027 19.4279 3.13804 19.3581C2.95325 19.1586 2.77048 18.9571 2.58976 18.7535C2.28967 18.4141 2.02882 18.0448 1.78753 17.6623C1.64324 17.4338 1.50688 17.1998 1.37606 16.9632C1.26099 16.7561 1.15157 16.5452 1.05388 16.3295C0.936165 16.07 0.828694 15.8053 0.725827 15.5394C0.645282 15.3316 0.567958 15.1215 0.50824 14.9065C0.40729 14.5443 0.315238 14.1797 0.232085 13.8127C0.182032 13.5953 0.149354 13.3737 0.117021 13.1528C0.0880243 12.9572 0.0662771 12.7601 0.0479819 12.5631C0.0306072 12.3876 0.0230129 12.2112 0.0115064 12.0359C0.00914611 12.0257 0.00526692 12.016 0 12.007L0 10.9943Z" fill="#FF7C06"/>
</svg>
