<svg width="238" height="46" viewBox="0 0 238 46" fill="none" xmlns="http://www.w3.org/2000/svg">
<path fill-rule="evenodd" clip-rule="evenodd" d="M83 4.19921L228 4.19922H10V6.1992L230 6.19922H6V8.1992L232 8.19922H4L4 10.1992L232.067 10.1992L2 10.1992V35.1992H83L236 35.1992V10.1992H234V8.19924L232 8.19922V6.19923L230 6.19922V4.19924L228 4.19922V2.19923L83 2.19922V4.19921Z" fill="#FF9332"/>
<rect x="2" y="8.19922" width="2" height="2" fill="#393939"/>
<rect x="236" y="39.1992" width="2" height="4" transform="rotate(-180 236 39.1992)" fill="#393939"/>
<rect x="4" y="35.1992" width="4" height="2" transform="rotate(90 4 35.1992)" fill="#393939"/>
<rect x="10" y="33.1992" width="2" height="2" transform="rotate(90 10 33.1992)" fill="#FFBD82"/>
<rect x="228" y="35.1992" width="2.00001" height="218" transform="rotate(90 228 35.1992)" fill="#FFBD82"/>
<rect x="234" y="10.1992" width="4" height="2" transform="rotate(-90 234 10.1992)" fill="#393939"/>
<rect x="2" y="6.19922" width="2" height="2" fill="#393939"/>
<rect x="234" y="41.1992" width="2" height="2" transform="rotate(-180 234 41.1992)" fill="#393939"/>
<rect x="6" y="39.1992" width="2" height="2" transform="rotate(90 6 39.1992)" fill="#393939"/>
<rect x="4" y="4.19922" width="2" height="2" fill="#393939"/>
<rect x="8" y="41.1992" width="2" height="2" transform="rotate(90 8 41.1992)" fill="#393939"/>
<rect x="232" y="6.19922" width="2" height="2" transform="rotate(-90 232 6.19922)" fill="#393939"/>
<rect x="6" y="2.19922" width="4" height="2" fill="#393939"/>
<rect x="232" y="43.1992" width="4" height="2" transform="rotate(-180 232 43.1992)" fill="#393939"/>
<path fill-rule="evenodd" clip-rule="evenodd" d="M2 35.1992H4L4 39.1992H6L6 41.1992H10V43.1992L228 43.1992V41.1992H232V39.1992H234V35.1992H236V29.1992H234V31.1992L232 31.1992V33.1992L230 33.1992V35.1992H228V37.1992L10 37.1992V35.1992H8V33.1992L4 33.1992L4 29.1992H2V35.1992Z" fill="#EE7000"/>
<rect x="10" y="41.1992" width="2" height="2" transform="rotate(90 10 41.1992)" fill="#393939"/>
<rect x="228" y="4.19922" width="2" height="4" transform="rotate(-90 228 4.19922)" fill="#393939"/>
<rect x="10" y="0.199219" width="218" height="2" fill="#393939"/>
<rect x="10" y="43.1992" width="218" height="2" fill="#393939"/>
<rect y="10.1992" width="2" height="25" fill="#393939"/>
<rect x="238" y="35.1992" width="2" height="25" transform="rotate(-180 238 35.1992)" fill="#393939"/>
<rect x="228" y="2.19922" width="2.00001" height="218" transform="rotate(90 228 2.19922)" fill="#FFBD82"/>
<rect x="6" y="6.19922" width="2" height="2" transform="rotate(90 6 6.19922)" fill="#FFBD82"/>
<rect x="4" y="10.1992" width="4" height="2" transform="rotate(90 4 10.1992)" fill="#FFBD82"/>
<rect x="8" y="4.19922" width="2" height="2" transform="rotate(90 8 4.19922)" fill="#FFBD82"/>
<rect x="10" y="4.19922" width="2" height="2" transform="rotate(90 10 4.19922)" fill="#FFBD82"/>
<rect x="232" y="4.19922" width="2" height="4" transform="rotate(90 232 4.19922)" fill="#FFBD82"/>
<rect x="234" y="6.19922" width="2" height="2" transform="rotate(90 234 6.19922)" fill="#FFBD82"/>
<rect x="236" y="10.1992" width="4" height="2" transform="rotate(90 236 10.1992)" fill="#FFBD82"/>
<rect width="6" height="4" transform="matrix(-1.31134e-07 -1 -1 1.31134e-07 33 43.1992)" fill="#FFDDBE"/>
<rect width="6" height="4" transform="matrix(-1.31134e-07 -1 -1 1.31134e-07 208 43.1992)" fill="#FFDDBE"/>
<rect width="6" height="3" transform="matrix(-1.31134e-07 -1 -1 1.31134e-07 28 43.1992)" fill="#FFDDBE"/>
<rect width="6" height="3" transform="matrix(-1.31134e-07 -1 -1 1.31134e-07 203 43.1992)" fill="#FFDDBE"/>
<rect width="6" height="2" transform="matrix(-1.31134e-07 -1 -1 1.31134e-07 24 43.1992)" fill="#FFDDBE"/>
<rect width="6" height="2" transform="matrix(-1.31134e-07 -1 -1 1.31134e-07 199 43.1992)" fill="#FFDDBE"/>
<rect width="6" height="0.999999" transform="matrix(-1.31134e-07 -1 -1 1.31134e-07 21 43.1992)" fill="#FFDDBE"/>
<rect width="6" height="0.999999" transform="matrix(-1.31134e-07 -1 -1 1.31134e-07 196 43.1992)" fill="#FFDDBE"/>
<rect x="4" y="27.1992" width="4" height="2" transform="rotate(90 4 27.1992)" fill="#FFBD82"/>
<rect x="8" y="33.1992" width="2" height="2" transform="rotate(90 8 33.1992)" fill="#FFBD82"/>
<rect x="6" y="31.1992" width="2" height="2" transform="rotate(90 6 31.1992)" fill="#FFBD82"/>
<rect x="232" y="35.1992" width="4" height="2" transform="rotate(-180 232 35.1992)" fill="#FFBD82"/>
<rect x="234" y="33.1992" width="2" height="2" transform="rotate(-180 234 33.1992)" fill="#FFBD82"/>
<rect x="236" y="29.1992" width="2" height="4" transform="rotate(-180 236 29.1992)" fill="#FFBD82"/>
<path d="M10.882 17.3792V16.4972V15.6152H11.764H12.646H15.292H20.584V17.3792H19.702H18.82H17.056H16.174H15.292H13.528H12.646V20.0252H18.82V21.7892H12.646V26.1992H11.764H10.882V25.3172V24.4352V23.5532V21.7892V20.9072V20.0252V19.1432V18.2612V17.3792ZM29.4087 24.4352V26.1992H28.5267H27.6447H25.8807H24.9987H24.1167V24.4352H24.9987H25.8807V19.1432V17.3792H24.9987H24.1167V15.6152H24.9987H25.8807H26.7627H27.6447H28.5267H29.4087V17.3792H28.5267H27.6447V24.4352H28.5267H29.4087ZM41.7614 19.1432V16.4972V15.6152H43.5254V16.4972V17.3792V24.4352V26.1992H41.7614V24.4352H40.8794V23.5532H39.9974V22.6712H39.1154V21.7892H38.2334V20.9072H37.3514V20.0252H36.4694V19.1432H35.5874V21.7892V26.1992H34.7054H33.8234V25.3172V24.4352V23.5532V21.7892V20.9072V20.0252V19.1432V18.2612V17.3792V16.4972V15.6152H34.7054H35.5874V16.4972H36.4694V17.3792H37.3514V18.2612H38.2334V19.1432H39.1154V20.0252H39.9974V20.9072H40.8794V21.7892H41.7614V19.1432ZM52.3501 24.4352V26.1992H51.4681H50.5861H48.8221H47.9401H47.0581V24.4352H47.9401H48.8221V19.1432V17.3792H47.9401H47.0581V15.6152H47.9401H48.8221H49.7041H50.5861H51.4681H52.3501V17.3792H51.4681H50.5861V24.4352H51.4681H52.3501ZM58.5288 22.6712V23.5532H59.4108V24.4352H60.2928H61.1748H62.0568H62.9388H63.8208V23.5532H64.7028V22.6712H63.8208V21.7892H62.9388H62.0568H61.1748H58.5288V20.9072H57.6468V20.0252H56.7648V19.1432V18.2612V17.3792H57.6468V16.4972H58.5288V15.6152H60.2928H61.1748H62.0568H64.7028V16.4972H65.5848V17.3792H66.4668V19.1432H64.7028V18.2612H63.8208V17.3792H62.9388H62.0568H61.1748H60.2928H59.4108V18.2612H58.5288V19.1432H59.4108V20.0252H60.2928H61.1748H62.0568H64.7028V20.9072H65.5848V21.7892H66.4668V22.6712V23.5532V24.4352H65.5848V25.3172H64.7028V26.1992H62.0568H61.1748H58.5288V25.3172H57.6468V24.4352H56.7648V22.6712H58.5288ZM76.1735 21.7892H69.9995V26.1992H69.1175H68.2355V25.3172V24.4352V23.5532V21.7892V20.9072V20.0252V19.1432V18.2612V17.3792V16.4972V15.6152H69.1175H69.9995V20.0252H76.1735V15.6152H77.9375V17.3792V24.4352V26.1992H76.1735V21.7892ZM91.1769 25.3172V24.4352V22.6712V20.9072V20.0252V19.1432H92.0589V18.2612H92.9409V17.3792H93.8229V16.4972H94.7049V15.6152H97.3509V16.4972H98.2329V17.3792H99.1149V18.2612H99.9969V19.1432H100.879V20.0252V20.9072V22.6712V24.4352V25.3172V26.1992H99.9969H99.1149V25.3172V24.4352V22.6712H92.9409V24.4352V25.3172V26.1992H92.0589H91.1769V25.3172ZM99.1149 20.9072V20.0252H98.2329V19.1432H97.3509V18.2612H96.4689V17.3792H95.5869V18.2612H94.7049V19.1432H93.8229V20.0252H92.9409V20.9072H99.1149ZM110.586 19.1432V16.4972V15.6152H112.35V16.4972V17.3792V24.4352V26.1992H110.586V24.4352H109.704V23.5532H108.822V22.6712H107.94V21.7892H107.058V20.9072H106.176V20.0252H105.294V19.1432H104.412V21.7892V26.1992H103.53H102.648V25.3172V24.4352V23.5532V21.7892V20.9072V20.0252V19.1432V18.2612V17.3792V16.4972V15.6152H103.53H104.412V16.4972H105.294V17.3792H106.176V18.2612H107.058V19.1432H107.94V20.0252H108.822V20.9072H109.704V21.7892H110.586V19.1432ZM118.528 17.3792H116.764H115.882V21.7892V24.4352H116.764H118.528H119.41H120.292H121.174V23.5532H122.056V22.6712V21.7892V19.1432V18.2612H121.174V17.3792H120.292H119.41H118.528ZM114.118 17.3792V16.4972V15.6152H115H115.882H118.528H122.056V16.4972H122.938V17.3792H123.82V19.1432V20.0252V20.9072V21.7892V24.4352H122.938V25.3172H122.056V26.1992H118.528H115.882H115H114.118V25.3172V24.4352V23.5532V21.7892V20.9072V20.0252V19.1432V18.2612V17.3792ZM144.998 20.0252V15.6152H145.88H146.762V16.4972V17.3792V18.2612V20.0252V20.9072V21.7892V22.6712V23.5532V24.4352V25.3172V26.1992H145.88H144.998V25.3172H144.116V24.4352H143.234V23.5532H142.352V22.6712H141.47V23.5532H140.588V24.4352H139.706V25.3172H138.824V26.1992H137.06V25.3172V24.4352V17.3792V15.6152H138.824V20.0252V22.6712H139.706V21.7892H140.588V20.9072H141.47V20.0252H142.352V20.9072H143.234V21.7892H144.116V22.6712H144.998V20.0252ZM155.586 24.4352V26.1992H154.704H153.822H152.058H151.176H150.294V24.4352H151.176H152.058V19.1432V17.3792H151.176H150.294V15.6152H151.176H152.058H152.94H153.822H154.704H155.586V17.3792H154.704H153.822V24.4352H154.704H155.586ZM160.001 17.3792V16.4972V15.6152H160.883H161.765H164.411H168.821V17.3792H167.939H167.057H165.293V21.7892V26.1992H163.529V21.7892V17.3792H162.647H160.001ZM179.41 21.7892H173.236V26.1992H172.354H171.472V25.3172V24.4352V23.5532V21.7892V20.9072V20.0252V19.1432V18.2612V17.3792V16.4972V15.6152H172.354H173.236V20.0252H179.41V15.6152H181.174V17.3792V24.4352V26.1992H179.41V21.7892ZM187.353 17.3792H185.589H184.707V21.7892V24.4352H185.589H187.353H188.235H189.117H189.999V23.5532H190.881V22.6712V21.7892V19.1432V18.2612H189.999V17.3792H189.117H188.235H187.353ZM182.943 17.3792V16.4972V15.6152H183.825H184.707H187.353H190.881V16.4972H191.763V17.3792H192.645V19.1432V20.0252V20.9072V21.7892V24.4352H191.763V25.3172H190.881V26.1992H187.353H184.707H183.825H182.943V25.3172V24.4352V23.5532V21.7892V20.9072V20.0252V19.1432V18.2612V17.3792ZM194.413 17.3792V16.4972V15.6152H195.295H196.177H198.823H202.351V16.4972H203.233V17.3792H204.115V19.1432V20.0252V20.9072H203.233V21.7892H202.351V22.6712V23.5532H203.233V24.4352H204.115V25.3172V26.1992H202.351V25.3172H201.469V24.4352H200.587V23.5532H199.705V22.6712H198.823H196.177V26.1992H194.413V22.6712V21.7892V20.9072V20.0252V19.1432V18.2612V17.3792ZM198.823 17.3792H197.059H196.177V20.0252V20.9072H197.059H197.941H198.823H199.705H200.587H201.469V20.0252H202.351V19.1432V18.2612H201.469V17.3792H200.587H199.705H198.823ZM205.884 25.3172V24.4352V22.6712V20.9072V20.0252V19.1432H206.766V18.2612H207.648V17.3792H208.53V16.4972H209.412V15.6152H212.058V16.4972H212.94V17.3792H213.822V18.2612H214.704V19.1432H215.586V20.0252V20.9072V22.6712V24.4352V25.3172V26.1992H214.704H213.822V25.3172V24.4352V22.6712H207.648V24.4352V25.3172V26.1992H206.766H205.884V25.3172ZM213.822 20.9072V20.0252H212.94V19.1432H212.058V18.2612H211.176V17.3792H210.294V18.2612H209.412V19.1432H208.53V20.0252H207.648V20.9072H213.822ZM225.293 20.0252V15.6152H226.175H227.057V16.4972V17.3792V18.2612V20.0252V20.9072V21.7892V22.6712V23.5532V24.4352V25.3172V26.1992H226.175H225.293V25.3172H224.411V24.4352H223.529V23.5532H222.647V22.6712H221.765V23.5532H220.883V24.4352H220.001V25.3172H219.119V26.1992H217.355V25.3172V24.4352V17.3792V15.6152H219.119V20.0252V22.6712H220.001V21.7892H220.883V20.9072H221.765V20.0252H222.647V20.9072H223.529V21.7892H224.411V22.6712H225.293V20.0252Z" fill="#393939"/>
<path d="M10.882 16.3792V15.4972V14.6152H11.764H12.646H15.292H20.584V16.3792H19.702H18.82H17.056H16.174H15.292H13.528H12.646V19.0252H18.82V20.7892H12.646V25.1992H11.764H10.882V24.3172V23.4352V22.5532V20.7892V19.9072V19.0252V18.1432V17.2612V16.3792ZM29.4087 23.4352V25.1992H28.5267H27.6447H25.8807H24.9987H24.1167V23.4352H24.9987H25.8807V18.1432V16.3792H24.9987H24.1167V14.6152H24.9987H25.8807H26.7627H27.6447H28.5267H29.4087V16.3792H28.5267H27.6447V23.4352H28.5267H29.4087ZM41.7614 18.1432V15.4972V14.6152H43.5254V15.4972V16.3792V23.4352V25.1992H41.7614V23.4352H40.8794V22.5532H39.9974V21.6712H39.1154V20.7892H38.2334V19.9072H37.3514V19.0252H36.4694V18.1432H35.5874V20.7892V25.1992H34.7054H33.8234V24.3172V23.4352V22.5532V20.7892V19.9072V19.0252V18.1432V17.2612V16.3792V15.4972V14.6152H34.7054H35.5874V15.4972H36.4694V16.3792H37.3514V17.2612H38.2334V18.1432H39.1154V19.0252H39.9974V19.9072H40.8794V20.7892H41.7614V18.1432ZM52.3501 23.4352V25.1992H51.4681H50.5861H48.8221H47.9401H47.0581V23.4352H47.9401H48.8221V18.1432V16.3792H47.9401H47.0581V14.6152H47.9401H48.8221H49.7041H50.5861H51.4681H52.3501V16.3792H51.4681H50.5861V23.4352H51.4681H52.3501ZM58.5288 21.6712V22.5532H59.4108V23.4352H60.2928H61.1748H62.0568H62.9388H63.8208V22.5532H64.7028V21.6712H63.8208V20.7892H62.9388H62.0568H61.1748H58.5288V19.9072H57.6468V19.0252H56.7648V18.1432V17.2612V16.3792H57.6468V15.4972H58.5288V14.6152H60.2928H61.1748H62.0568H64.7028V15.4972H65.5848V16.3792H66.4668V18.1432H64.7028V17.2612H63.8208V16.3792H62.9388H62.0568H61.1748H60.2928H59.4108V17.2612H58.5288V18.1432H59.4108V19.0252H60.2928H61.1748H62.0568H64.7028V19.9072H65.5848V20.7892H66.4668V21.6712V22.5532V23.4352H65.5848V24.3172H64.7028V25.1992H62.0568H61.1748H58.5288V24.3172H57.6468V23.4352H56.7648V21.6712H58.5288ZM76.1735 20.7892H69.9995V25.1992H69.1175H68.2355V24.3172V23.4352V22.5532V20.7892V19.9072V19.0252V18.1432V17.2612V16.3792V15.4972V14.6152H69.1175H69.9995V19.0252H76.1735V14.6152H77.9375V16.3792V23.4352V25.1992H76.1735V20.7892ZM91.1769 24.3172V23.4352V21.6712V19.9072V19.0252V18.1432H92.0589V17.2612H92.9409V16.3792H93.8229V15.4972H94.7049V14.6152H97.3509V15.4972H98.2329V16.3792H99.1149V17.2612H99.9969V18.1432H100.879V19.0252V19.9072V21.6712V23.4352V24.3172V25.1992H99.9969H99.1149V24.3172V23.4352V21.6712H92.9409V23.4352V24.3172V25.1992H92.0589H91.1769V24.3172ZM99.1149 19.9072V19.0252H98.2329V18.1432H97.3509V17.2612H96.4689V16.3792H95.5869V17.2612H94.7049V18.1432H93.8229V19.0252H92.9409V19.9072H99.1149ZM110.586 18.1432V15.4972V14.6152H112.35V15.4972V16.3792V23.4352V25.1992H110.586V23.4352H109.704V22.5532H108.822V21.6712H107.94V20.7892H107.058V19.9072H106.176V19.0252H105.294V18.1432H104.412V20.7892V25.1992H103.53H102.648V24.3172V23.4352V22.5532V20.7892V19.9072V19.0252V18.1432V17.2612V16.3792V15.4972V14.6152H103.53H104.412V15.4972H105.294V16.3792H106.176V17.2612H107.058V18.1432H107.94V19.0252H108.822V19.9072H109.704V20.7892H110.586V18.1432ZM118.528 16.3792H116.764H115.882V20.7892V23.4352H116.764H118.528H119.41H120.292H121.174V22.5532H122.056V21.6712V20.7892V18.1432V17.2612H121.174V16.3792H120.292H119.41H118.528ZM114.118 16.3792V15.4972V14.6152H115H115.882H118.528H122.056V15.4972H122.938V16.3792H123.82V18.1432V19.0252V19.9072V20.7892V23.4352H122.938V24.3172H122.056V25.1992H118.528H115.882H115H114.118V24.3172V23.4352V22.5532V20.7892V19.9072V19.0252V18.1432V17.2612V16.3792ZM144.998 19.0252V14.6152H145.88H146.762V15.4972V16.3792V17.2612V19.0252V19.9072V20.7892V21.6712V22.5532V23.4352V24.3172V25.1992H145.88H144.998V24.3172H144.116V23.4352H143.234V22.5532H142.352V21.6712H141.47V22.5532H140.588V23.4352H139.706V24.3172H138.824V25.1992H137.06V24.3172V23.4352V16.3792V14.6152H138.824V19.0252V21.6712H139.706V20.7892H140.588V19.9072H141.47V19.0252H142.352V19.9072H143.234V20.7892H144.116V21.6712H144.998V19.0252ZM155.586 23.4352V25.1992H154.704H153.822H152.058H151.176H150.294V23.4352H151.176H152.058V18.1432V16.3792H151.176H150.294V14.6152H151.176H152.058H152.94H153.822H154.704H155.586V16.3792H154.704H153.822V23.4352H154.704H155.586ZM160.001 16.3792V15.4972V14.6152H160.883H161.765H164.411H168.821V16.3792H167.939H167.057H165.293V20.7892V25.1992H163.529V20.7892V16.3792H162.647H160.001ZM179.41 20.7892H173.236V25.1992H172.354H171.472V24.3172V23.4352V22.5532V20.7892V19.9072V19.0252V18.1432V17.2612V16.3792V15.4972V14.6152H172.354H173.236V19.0252H179.41V14.6152H181.174V16.3792V23.4352V25.1992H179.41V20.7892ZM187.353 16.3792H185.589H184.707V20.7892V23.4352H185.589H187.353H188.235H189.117H189.999V22.5532H190.881V21.6712V20.7892V18.1432V17.2612H189.999V16.3792H189.117H188.235H187.353ZM182.943 16.3792V15.4972V14.6152H183.825H184.707H187.353H190.881V15.4972H191.763V16.3792H192.645V18.1432V19.0252V19.9072V20.7892V23.4352H191.763V24.3172H190.881V25.1992H187.353H184.707H183.825H182.943V24.3172V23.4352V22.5532V20.7892V19.9072V19.0252V18.1432V17.2612V16.3792ZM194.413 16.3792V15.4972V14.6152H195.295H196.177H198.823H202.351V15.4972H203.233V16.3792H204.115V18.1432V19.0252V19.9072H203.233V20.7892H202.351V21.6712V22.5532H203.233V23.4352H204.115V24.3172V25.1992H202.351V24.3172H201.469V23.4352H200.587V22.5532H199.705V21.6712H198.823H196.177V25.1992H194.413V21.6712V20.7892V19.9072V19.0252V18.1432V17.2612V16.3792ZM198.823 16.3792H197.059H196.177V19.0252V19.9072H197.059H197.941H198.823H199.705H200.587H201.469V19.0252H202.351V18.1432V17.2612H201.469V16.3792H200.587H199.705H198.823ZM205.884 24.3172V23.4352V21.6712V19.9072V19.0252V18.1432H206.766V17.2612H207.648V16.3792H208.53V15.4972H209.412V14.6152H212.058V15.4972H212.94V16.3792H213.822V17.2612H214.704V18.1432H215.586V19.0252V19.9072V21.6712V23.4352V24.3172V25.1992H214.704H213.822V24.3172V23.4352V21.6712H207.648V23.4352V24.3172V25.1992H206.766H205.884V24.3172ZM213.822 19.9072V19.0252H212.94V18.1432H212.058V17.2612H211.176V16.3792H210.294V17.2612H209.412V18.1432H208.53V19.0252H207.648V19.9072H213.822ZM225.293 19.0252V14.6152H226.175H227.057V15.4972V16.3792V17.2612V19.0252V19.9072V20.7892V21.6712V22.5532V23.4352V24.3172V25.1992H226.175H225.293V24.3172H224.411V23.4352H223.529V22.5532H222.647V21.6712H221.765V22.5532H220.883V23.4352H220.001V24.3172H219.119V25.1992H217.355V24.3172V23.4352V16.3792V14.6152H219.119V19.0252V21.6712H220.001V20.7892H220.883V19.9072H221.765V19.0252H222.647V19.9072H223.529V20.7892H224.411V21.6712H225.293V19.0252Z" fill="white"/>
</svg>
