<svg width="238" height="45" viewBox="0 0 238 45" fill="none" xmlns="http://www.w3.org/2000/svg">
<path fill-rule="evenodd" clip-rule="evenodd" d="M83 3.99999L228 4H10V5.99998L230 6H6V7.99998L232 8H4L4 9.99998L232.067 10L2 9.99999V35H83L236 35V10H234V8.00002L232 8V6.00002L230 6V4.00002L228 4V2.00001L83 2V3.99999Z" fill="#FF9332"/>
<rect x="2" y="8" width="2" height="2" fill="#393939"/>
<rect x="236" y="39" width="2" height="4" transform="rotate(-180 236 39)" fill="#393939"/>
<rect x="4" y="35" width="4" height="2" transform="rotate(90 4 35)" fill="#393939"/>
<rect x="10" y="33" width="2" height="2" transform="rotate(90 10 33)" fill="#FFBD82"/>
<rect x="228" y="35" width="2.00001" height="218" transform="rotate(90 228 35)" fill="#FFBD82"/>
<rect x="234" y="10" width="4" height="2" transform="rotate(-90 234 10)" fill="#393939"/>
<rect x="2" y="6" width="2" height="2" fill="#393939"/>
<rect x="234" y="41" width="2" height="2" transform="rotate(-180 234 41)" fill="#393939"/>
<rect x="6" y="39" width="2" height="2" transform="rotate(90 6 39)" fill="#393939"/>
<rect x="4" y="4" width="2" height="2" fill="#393939"/>
<rect x="8" y="41" width="2" height="2" transform="rotate(90 8 41)" fill="#393939"/>
<rect x="232" y="6" width="2" height="2" transform="rotate(-90 232 6)" fill="#393939"/>
<rect x="6" y="2" width="4" height="2" fill="#393939"/>
<rect x="232" y="43" width="4" height="2" transform="rotate(-180 232 43)" fill="#393939"/>
<path fill-rule="evenodd" clip-rule="evenodd" d="M2 35H4L4 39H6L6 41H10V43L228 43V41H232V39H234V35H236V29H234V31L232 31V33L230 33V35H228V37L10 37V35H8V33L4 33L4 29H2V35Z" fill="#EE7000"/>
<rect x="10" y="41" width="2" height="2" transform="rotate(90 10 41)" fill="#393939"/>
<rect x="228" y="4" width="2" height="4" transform="rotate(-90 228 4)" fill="#393939"/>
<rect x="10" width="218" height="2" fill="#393939"/>
<rect x="10" y="43" width="218" height="2" fill="#393939"/>
<rect y="10" width="2" height="25" fill="#393939"/>
<rect x="238" y="35" width="2" height="25" transform="rotate(-180 238 35)" fill="#393939"/>
<rect x="228" y="2" width="2.00001" height="218" transform="rotate(90 228 2)" fill="#FFBD82"/>
<rect x="6" y="6" width="2" height="2" transform="rotate(90 6 6)" fill="#FFBD82"/>
<rect x="4" y="10" width="4" height="2" transform="rotate(90 4 10)" fill="#FFBD82"/>
<rect x="8" y="4" width="2" height="2" transform="rotate(90 8 4)" fill="#FFBD82"/>
<rect x="10" y="4" width="2" height="2" transform="rotate(90 10 4)" fill="#FFBD82"/>
<rect x="232" y="4" width="2" height="4" transform="rotate(90 232 4)" fill="#FFBD82"/>
<rect x="234" y="6" width="2" height="2" transform="rotate(90 234 6)" fill="#FFBD82"/>
<rect x="236" y="10" width="4" height="2" transform="rotate(90 236 10)" fill="#FFBD82"/>
<rect width="6" height="4" transform="matrix(-1.31134e-07 -1 -1 1.31134e-07 33 43)" fill="#FFDDBE"/>
<rect width="6" height="4" transform="matrix(-1.31134e-07 -1 -1 1.31134e-07 208 43)" fill="#FFDDBE"/>
<rect width="6" height="3" transform="matrix(-1.31134e-07 -1 -1 1.31134e-07 28 43)" fill="#FFDDBE"/>
<rect width="6" height="3" transform="matrix(-1.31134e-07 -1 -1 1.31134e-07 203 43)" fill="#FFDDBE"/>
<rect width="6" height="2" transform="matrix(-1.31134e-07 -1 -1 1.31134e-07 24 43)" fill="#FFDDBE"/>
<rect width="6" height="2" transform="matrix(-1.31134e-07 -1 -1 1.31134e-07 199 43)" fill="#FFDDBE"/>
<rect width="6" height="0.999999" transform="matrix(-1.31134e-07 -1 -1 1.31134e-07 21 43)" fill="#FFDDBE"/>
<rect width="6" height="0.999999" transform="matrix(-1.31134e-07 -1 -1 1.31134e-07 196 43)" fill="#FFDDBE"/>
<rect x="4" y="27" width="4" height="2" transform="rotate(90 4 27)" fill="#FFBD82"/>
<rect x="8" y="33" width="2" height="2" transform="rotate(90 8 33)" fill="#FFBD82"/>
<rect x="6" y="31" width="2" height="2" transform="rotate(90 6 31)" fill="#FFBD82"/>
<rect x="232" y="35" width="4" height="2" transform="rotate(-180 232 35)" fill="#FFBD82"/>
<rect x="234" y="33" width="2" height="2" transform="rotate(-180 234 33)" fill="#FFBD82"/>
<rect x="236" y="29" width="2" height="4" transform="rotate(-180 236 29)" fill="#FFBD82"/>
</svg>
