<svg width="546" height="140" viewBox="0 0 546 140" fill="none" xmlns="http://www.w3.org/2000/svg">
<path fill-rule="evenodd" clip-rule="evenodd" d="M542.684 5.77236V2.88674L3.28851 2.88672L3.28851 5.77236H1.64062V137.112H542.685V5.77236H542.684Z" fill="#FFFDF4"/>
<rect x="6.59375" width="532.797" height="1.4433" fill="#FF7C06"/>
<rect x="1.64844" y="5.77344" width="128.453" height="1.64952" transform="rotate(90 1.64844 5.77344)" fill="#FF7C06"/>
<rect x="1.64844" y="4.33008" width="1.64953" height="1.4433" fill="#FF7C06"/>
<rect x="3.29297" y="2.88574" width="1.64953" height="1.4433" fill="#FF7C06"/>
<rect x="4.94922" y="1.44434" width="1.64953" height="1.4433" fill="#FF7C06"/>
<rect x="1.64844" y="135.67" width="1.4433" height="1.64953" transform="rotate(-90 1.64844 135.67)" fill="#FF7C06"/>
<rect x="3.29297" y="137.114" width="1.4433" height="1.64953" transform="rotate(-90 3.29297 137.114)" fill="#FF7C06"/>
<rect x="4.94922" y="138.556" width="1.4433" height="1.64953" transform="rotate(-90 4.94922 138.556)" fill="#FF7C06"/>
<rect x="6.59375" y="140" width="1.44335" height="532.797" transform="rotate(-90 6.59375 140)" fill="#FF7C06"/>
<rect x="1.64844" y="5.77344" width="1.64953" height="128.453" fill="#FFC897"/>
<rect x="3.29297" y="4.33008" width="1.64953" height="1.4433" fill="#FFC897"/>
<rect x="4.94922" y="2.88574" width="1.64953" height="1.4433" fill="#FFC897"/>
<rect width="1.4433" height="532.797" transform="matrix(-1.77963e-06 1 -1 -1.07364e-09 539.395 137.114)" fill="#FFC897"/>
<rect x="6.59375" y="135.67" width="1.4433" height="1.64953" transform="rotate(90 6.59375 135.67)" fill="#FFC897"/>
<rect x="4.94922" y="134.227" width="1.4433" height="1.64953" transform="rotate(90 4.94922 134.227)" fill="#FFC897"/>
<rect x="6.59375" y="1.44434" width="532.797" height="1.4433" fill="#FFC897"/>
<rect x="539.395" y="1.44238" width="1.64953" height="1.4433" fill="#FF7C06"/>
<rect x="544.348" y="134.226" width="1.4433" height="1.64953" transform="rotate(90 544.348 134.226)" fill="#FF7C06"/>
<rect x="539.395" y="2.88672" width="1.64953" height="1.4433" fill="#FFC897"/>
<rect x="542.695" y="134.226" width="1.4433" height="1.64953" transform="rotate(90 542.695 134.226)" fill="#FFC897"/>
<rect x="541.051" y="4.32812" width="1.64953" height="1.4433" fill="#FFC897"/>
<rect x="541.051" y="135.669" width="1.4433" height="1.64953" transform="rotate(90 541.051 135.669)" fill="#FFC897"/>
<rect x="542.695" y="5.77246" width="1.64953" height="128.453" fill="#FFC897"/>
<rect x="541.051" y="2.88672" width="1.64953" height="1.4433" fill="#FF7C06"/>
<rect x="542.695" y="135.669" width="1.4433" height="1.64953" transform="rotate(90 542.695 135.669)" fill="#FF7C06"/>
<rect x="542.695" y="4.32812" width="1.64953" height="1.4433" fill="#FF7C06"/>
<rect x="541.051" y="137.112" width="1.4433" height="1.64953" transform="rotate(90 541.051 137.112)" fill="#FF7C06"/>
<rect x="544.348" y="5.77246" width="1.64953" height="128.453" fill="#FF7C06"/>
</svg>
