<svg width="39" height="40" viewBox="0 0 39 40" fill="none" xmlns="http://www.w3.org/2000/svg">
<rect x="9.52344" y="3.80859" width="19.0478" height="30.4764" fill="white"/>
<rect x="1.90625" y="5.71582" width="34.286" height="26.6669" fill="white"/>
<rect x="3.80469" y="30.4756" width="1.90478" height="3.80955" transform="rotate(-180 3.80469 30.4756)" fill="#B5B5B5"/>
<rect x="5.71484" y="34.2871" width="1.90478" height="3.80955" transform="rotate(-180 5.71484 34.2871)" fill="#B5B5B5"/>
<rect x="7.61719" y="36.1914" width="1.90478" height="3.80955" transform="rotate(-180 7.61719 36.1914)" fill="#B5B5B5"/>
<rect x="30.4766" y="36.1904" width="1.90478" height="3.80955" transform="rotate(-180 30.4766 36.1904)" fill="#B5B5B5"/>
<rect x="32.3828" y="36.1904" width="1.90478" height="3.80955" transform="rotate(-180 32.3828 36.1904)" fill="#B5B5B5"/>
<rect x="34.2852" y="34.2871" width="1.90478" height="3.80955" transform="rotate(-180 34.2852 34.2871)" fill="#B5B5B5"/>
<rect x="36.1914" y="30.4756" width="1.90478" height="3.80955" transform="rotate(-180 36.1914 30.4756)" fill="#B5B5B5"/>
<rect x="9.52344" y="36.1914" width="1.90478" height="3.80955" transform="rotate(-180 9.52344 36.1914)" fill="#B5B5B5"/>
<rect x="28.5703" y="38.0957" width="19.0478" height="3.80955" transform="rotate(-180 28.5703 38.0957)" fill="#B5B5B5"/>
<rect x="9.52344" width="19.0478" height="1.90478" fill="#393939"/>
<rect x="5.71484" y="1.9043" width="3.80956" height="1.90478" fill="#393939"/>
<rect width="3.80956" height="1.90478" transform="matrix(-1 0 0 1 32.3867 1.9043)" fill="#393939"/>
<rect x="1.90625" y="34.2871" width="3.80956" height="1.90478" transform="rotate(-90 1.90625 34.2871)" fill="#393939"/>
<rect width="3.80956" height="1.90478" transform="matrix(4.37114e-08 -1 -1 -4.37114e-08 36.1914 34.2871)" fill="#393939"/>
<rect x="3.80469" y="3.80859" width="1.90478" height="1.90478" fill="#393939"/>
<rect width="1.90478" height="1.90478" transform="matrix(-1 0 0 1 34.2852 3.80957)" fill="#393939"/>
<rect x="3.80469" y="36.1914" width="1.90478" height="1.90478" transform="rotate(-90 3.80469 36.1914)" fill="#393939"/>
<rect width="1.90478" height="1.90478" transform="matrix(4.37114e-08 -1 -1 -4.37114e-08 34.2812 36.1914)" fill="#393939"/>
<rect x="1.90625" y="5.71582" width="1.90478" height="3.80956" fill="#393939"/>
<rect width="1.90478" height="3.80956" transform="matrix(-1 0 0 1 36.1914 5.71582)" fill="#393939"/>
<rect x="5.71484" y="38.0957" width="1.90478" height="3.80956" transform="rotate(-90 5.71484 38.0957)" fill="#393939"/>
<rect width="1.90478" height="3.80956" transform="matrix(4.37114e-08 -1 -1 -4.37114e-08 32.3867 38.0957)" fill="#393939"/>
<rect x="9.52344" y="38.0957" width="19.0478" height="1.90478" fill="#393939"/>
<rect x="38.0977" y="9.52344" width="20.9526" height="1.90478" transform="rotate(90 38.0977 9.52344)" fill="#393939"/>
<rect x="1.90625" y="9.52344" width="20.9526" height="1.90478" transform="rotate(90 1.90625 9.52344)" fill="#393939"/>
<rect x="28.5703" y="1.9043" width="1.90478" height="19.0478" transform="rotate(90 28.5703 1.9043)" fill="#E8E8E8"/>
<rect x="9.52344" y="34.2871" width="1.90478" height="19.0478" transform="rotate(-90 9.52344 34.2871)" fill="#E8E8E8"/>
<rect x="9.52344" y="3.80859" width="1.90478" height="3.80956" transform="rotate(90 9.52344 3.80859)" fill="#E8E8E8"/>
<rect x="28.5703" y="32.3809" width="1.90478" height="3.80956" transform="rotate(-90 28.5703 32.3809)" fill="#E8E8E8"/>
<rect x="5.71484" y="5.71582" width="1.90478" height="1.90478" transform="rotate(90 5.71484 5.71582)" fill="#E8E8E8"/>
<rect x="32.3867" y="30.4756" width="1.90478" height="1.90478" transform="rotate(-90 32.3867 30.4756)" fill="#E8E8E8"/>
<rect x="3.80469" y="9.52344" width="1.90478" height="1.90478" transform="rotate(90 3.80469 9.52344)" fill="#E8E8E8"/>
<rect x="34.2852" y="26.666" width="1.90478" height="1.90478" transform="rotate(-90 34.2852 26.666)" fill="#E8E8E8"/>
<rect x="34.2852" y="5.71582" width="1.90478" height="1.90478" transform="rotate(90 34.2852 5.71582)" fill="#E8E8E8"/>
<rect x="3.80469" y="30.4756" width="1.90478" height="1.90478" transform="rotate(-90 3.80469 30.4756)" fill="#E8E8E8"/>
<rect x="36.1914" y="9.52344" width="1.90478" height="1.90478" transform="rotate(90 36.1914 9.52344)" fill="#E8E8E8"/>
<rect x="1.90625" y="26.666" width="1.90478" height="1.90478" transform="rotate(-90 1.90625 26.666)" fill="#E8E8E8"/>
<rect x="32.3867" y="3.80859" width="1.90478" height="3.80956" transform="rotate(90 32.3867 3.80859)" fill="#E8E8E8"/>
<rect x="5.71484" y="32.3809" width="1.90478" height="3.80956" transform="rotate(-90 5.71484 32.3809)" fill="#E8E8E8"/>
<path fill-rule="evenodd" clip-rule="evenodd" d="M24.391 5H13.5215V8.26087H11.3478V11.5217H9.17391V14.7826L7 14.7826V19.1304H10.2615L10.2615 30.0001H10.2617V30.0002H28.74V24.5654H28.7383V19.1305H28.74V19.1304H32V14.7826L28.7391 14.7826V11.5217H26.5652V8.26087H24.391V5ZM16.7832 19.1305L16.7832 24.5654H22.2165L22.2165 19.1305H16.7832Z" fill="#FF7C06"/>
<rect x="23.3047" y="5" width="1.08696" height="3.26087" fill="#FFBD82"/>
<rect x="25.4766" y="8.26074" width="1.08696" height="3.26087" fill="#FFBD82"/>
<rect x="27.6523" y="11.5215" width="1.08696" height="3.26087" fill="#FFBD82"/>
<rect x="15.6953" y="19.1309" width="1.08696" height="5.43478" fill="#FFBD82"/>
<rect x="30.9141" y="14.7832" width="1.08696" height="4.34783" fill="#FFBD82"/>
<rect x="27.6523" y="19.1309" width="1.08696" height="10.8696" fill="#FFBD82"/>
</svg>
