<svg width="447" height="130" viewBox="0 0 447 130" fill="none" xmlns="http://www.w3.org/2000/svg">
<path fill-rule="evenodd" clip-rule="evenodd" d="M443.297 5.36165V2.68166L2.68481 2.68164L2.68481 5.36165H1.33984V127.32H443.299V5.36165H443.297Z" fill="#FFFDF4"/>
<rect x="5.38672" width="435.222" height="1.34021" fill="#FF7C06"/>
<rect x="1.34766" y="5.36133" width="119.278" height="1.34743" transform="rotate(90 1.34766 5.36133)" fill="#FF7C06"/>
<rect x="1.34766" y="4.02051" width="1.34744" height="1.34021" fill="#FF7C06"/>
<rect x="2.69141" y="2.67969" width="1.34744" height="1.34021" fill="#FF7C06"/>
<rect x="4.04297" y="1.34082" width="1.34744" height="1.34021" fill="#FF7C06"/>
<rect x="1.34766" y="125.979" width="1.34021" height="1.34744" transform="rotate(-90 1.34766 125.979)" fill="#FF7C06"/>
<rect x="2.69141" y="127.32" width="1.34021" height="1.34744" transform="rotate(-90 2.69141 127.32)" fill="#FF7C06"/>
<rect x="4.04297" y="128.659" width="1.34021" height="1.34744" transform="rotate(-90 4.04297 128.659)" fill="#FF7C06"/>
<rect x="5.38672" y="130" width="1.34025" height="435.222" transform="rotate(-90 5.38672 130)" fill="#FF7C06"/>
<rect x="1.34766" y="5.36133" width="1.34744" height="119.278" fill="#FFC897"/>
<rect x="2.69141" y="4.02051" width="1.34744" height="1.34021" fill="#FFC897"/>
<rect x="4.04297" y="2.67969" width="1.34744" height="1.34021" fill="#FFC897"/>
<rect width="1.34021" height="435.222" transform="matrix(-1.56554e-06 1 -1 -1.22047e-09 440.613 127.32)" fill="#FFC897"/>
<rect x="5.38672" y="125.979" width="1.34021" height="1.34744" transform="rotate(90 5.38672 125.979)" fill="#FFC897"/>
<rect x="4.04297" y="124.639" width="1.34021" height="1.34744" transform="rotate(90 4.04297 124.639)" fill="#FFC897"/>
<rect x="5.38672" y="1.34082" width="435.222" height="1.34021" fill="#FFC897"/>
<rect x="440.613" y="1.33887" width="1.34744" height="1.34021" fill="#FF7C06"/>
<rect x="444.66" y="124.638" width="1.34021" height="1.34744" transform="rotate(90 444.66 124.638)" fill="#FF7C06"/>
<rect x="440.613" y="2.67969" width="1.34744" height="1.34021" fill="#FFC897"/>
<rect x="443.309" y="124.638" width="1.34021" height="1.34744" transform="rotate(90 443.309 124.638)" fill="#FFC897"/>
<rect x="441.965" y="4.01855" width="1.34744" height="1.34021" fill="#FFC897"/>
<rect x="441.965" y="125.978" width="1.34021" height="1.34744" transform="rotate(90 441.965 125.978)" fill="#FFC897"/>
<rect x="443.309" y="5.35938" width="1.34744" height="119.278" fill="#FFC897"/>
<rect x="441.965" y="2.67969" width="1.34744" height="1.34021" fill="#FF7C06"/>
<rect x="443.309" y="125.978" width="1.34021" height="1.34744" transform="rotate(90 443.309 125.978)" fill="#FF7C06"/>
<rect x="443.309" y="4.01855" width="1.34744" height="1.34021" fill="#FF7C06"/>
<rect x="441.965" y="127.318" width="1.34021" height="1.34744" transform="rotate(90 441.965 127.318)" fill="#FF7C06"/>
<rect x="444.66" y="5.35938" width="1.34744" height="119.278" fill="#FF7C06"/>
</svg>
