<svg width="331" height="97" viewBox="0 0 331 97" fill="none" xmlns="http://www.w3.org/2000/svg">
<path fill-rule="evenodd" clip-rule="evenodd" d="M329 4.00001V2.00001L2 2L2 4.00001H1V95H329V75V4.00001Z" fill="#FFFDF4"/>
<rect x="4" width="323" height="1" fill="#FF7C06"/>
<rect x="1" y="4" width="89" height="0.999997" transform="rotate(90 1 4)" fill="#FF7C06"/>
<rect x="1" y="3" width="1" height="1" fill="#FF7C06"/>
<rect x="2" y="2" width="1" height="1" fill="#FF7C06"/>
<rect x="3" y="1" width="1" height="1" fill="#FF7C06"/>
<rect x="1" y="94" width="1" height="1" transform="rotate(-90 1 94)" fill="#FF7C06"/>
<rect x="2" y="95" width="1" height="1" transform="rotate(-90 2 95)" fill="#FF7C06"/>
<rect x="3" y="96" width="1" height="1" transform="rotate(-90 3 96)" fill="#FF7C06"/>
<rect x="4" y="97" width="1.00004" height="323" transform="rotate(-90 4 97)" fill="#FF7C06"/>
<rect x="1" y="4" width="1" height="89" fill="#FFC897"/>
<rect x="2" y="3" width="1" height="1" fill="#FFC897"/>
<rect x="3" y="2" width="1" height="1" fill="#FFC897"/>
<rect width="1" height="323" transform="matrix(-1.55713e-06 1 -1 -1.22705e-09 327 95)" fill="#FFC897"/>
<rect x="4" y="94" width="1" height="1" transform="rotate(90 4 94)" fill="#FFC897"/>
<rect x="3" y="93" width="1" height="1" transform="rotate(90 3 93)" fill="#FFC897"/>
<rect x="4" y="1" width="323" height="1" fill="#FFC897"/>
<rect x="327" y="1" width="1" height="1" fill="#FF7C06"/>
<rect x="330" y="93" width="1" height="1" transform="rotate(90 330 93)" fill="#FF7C06"/>
<rect x="327" y="2" width="1" height="1" fill="#FFC897"/>
<rect x="329" y="93" width="1" height="1" transform="rotate(90 329 93)" fill="#FFC897"/>
<rect x="328" y="3" width="1" height="1" fill="#FFC897"/>
<rect x="328" y="94" width="1" height="1" transform="rotate(90 328 94)" fill="#FFC897"/>
<rect x="329" y="4" width="1" height="89" fill="#FFC897"/>
<rect x="328" y="2" width="1" height="1" fill="#FF7C06"/>
<rect x="329" y="94" width="1" height="1" transform="rotate(90 329 94)" fill="#FF7C06"/>
<rect x="329" y="3" width="1" height="1" fill="#FF7C06"/>
<rect x="328" y="95" width="1" height="1" transform="rotate(90 328 95)" fill="#FF7C06"/>
<rect x="330" y="4" width="1" height="89" fill="#FF7C06"/>
</svg>
