<svg width="306" height="373" viewBox="0 0 306 373" fill="none" xmlns="http://www.w3.org/2000/svg">
<rect x="5" y="15" width="296" height="345" fill="#FFFDF4"/>
<rect x="13" y="5" width="280" height="363" fill="#FFFDF4"/>
<rect x="289" y="5" width="4" height="4" fill="#FF7C06" stroke="#FF7C06"/>
<rect x="293" y="10" width="4" height="4" fill="#FF7C06" stroke="#FF7C06"/>
<rect x="297" y="15" width="4" height="4" fill="#FF7C06" stroke="#FF7C06"/>
<path fill-rule="evenodd" clip-rule="evenodd" d="M289 3.00002V1.00002L16.8828 1V3V5L289 5.00002V3.00002Z" fill="#FF7C06"/>
<path d="M289 1.00002H289.5V0.500016L289 0.500016V1.00002ZM16.8828 1L16.8828 0.5H16.3828V1H16.8828ZM16.8828 5H16.3828V5.5H16.8828L16.8828 5ZM289 5.00002V5.50002H289.5V5.00002H289ZM288.5 1.00002V3.00002H289.5V1.00002H288.5ZM16.8828 1.5L289 1.50002V0.500016L16.8828 0.5L16.8828 1.5ZM17.3828 3V1H16.3828V3H17.3828ZM17.3828 5V3H16.3828V5H17.3828ZM289 4.50002L16.8828 4.5L16.8828 5.5L289 5.50002V4.50002ZM288.5 3.00002V5.00002H289.5V3.00002H288.5Z" fill="#FF7C06"/>
<path fill-rule="evenodd" clip-rule="evenodd" d="M2.8811 356L1.00006 356L1 17L2.88104 17L2.8811 356ZM4.76221 356L2.88117 356L2.8811 17L4.76215 17L4.76221 356Z" fill="#FF7C06"/>
<path d="M1.00006 356L1.00006 356.5L0.500063 356.5L0.500063 356L1.00006 356ZM2.8811 356L3.3811 356L3.3811 356.5L2.8811 356.5L2.8811 356ZM1 17L0.5 17L0.5 16.5L1 16.5L1 17ZM2.88104 17L2.88104 16.5L3.38104 16.5L3.38104 17L2.88104 17ZM2.88117 356L2.88117 356.5L2.38117 356.5L2.38117 356L2.88117 356ZM4.76221 356L5.26221 356L5.26221 356.5L4.76221 356.5L4.76221 356ZM2.8811 17L2.3811 17L2.3811 16.5L2.8811 16.5L2.8811 17ZM4.76215 17L4.76215 16.5L5.26215 16.5L5.26215 17L4.76215 17ZM1.00006 355.5L2.8811 355.5L2.8811 356.5L1.00006 356.5L1.00006 355.5ZM1.5 17L1.50006 356L0.500063 356L0.5 17L1.5 17ZM2.88104 17.5L1 17.5L1 16.5L2.88104 16.5L2.88104 17.5ZM2.3811 356L2.38104 17L3.38104 17L3.3811 356L2.3811 356ZM2.88117 355.5L4.76221 355.5L4.76221 356.5L2.88117 356.5L2.88117 355.5ZM3.3811 17L3.38117 356L2.38117 356L2.3811 17L3.3811 17ZM4.76215 17.5L2.88111 17.5L2.8811 16.5L4.76215 16.5L4.76215 17.5ZM4.26221 356L4.26215 17L5.26215 17L5.26221 356L4.26221 356Z" fill="#FF7C06"/>
<rect x="12.8828" y="5" width="4" height="4" fill="#FF7C06" stroke="#FF7C06"/>
<rect x="8.88281" y="9" width="4" height="4" fill="#FF7C06" stroke="#FF7C06"/>
<rect x="4.88281" y="13" width="4" height="4" fill="#FF7C06" stroke="#FF7C06"/>
<path fill-rule="evenodd" clip-rule="evenodd" d="M16.8812 370L16.8812 372L289 372L289 370L289 368L16.8812 368L16.8812 370Z" fill="#FF7C06"/>
<path d="M16.8812 372L16.3812 372L16.3812 372.5L16.8812 372.5L16.8812 372ZM289 372L289 372.5L289.5 372.5L289.5 372L289 372ZM289 368L289.5 368L289.5 367.5L289 367.5L289 368ZM16.8812 368L16.8812 367.5L16.3812 367.5L16.3812 368L16.8812 368ZM17.3812 372L17.3812 370L16.3812 370L16.3812 372L17.3812 372ZM289 371.5L16.8812 371.5L16.8812 372.5L289 372.5L289 371.5ZM288.5 370L288.5 372L289.5 372L289.5 370L288.5 370ZM288.5 368L288.5 370L289.5 370L289.5 368L288.5 368ZM16.8812 368.5L289 368.5L289 367.5L16.8812 367.5L16.8812 368.5ZM17.3812 370L17.3812 368L16.3812 368L16.3812 370L17.3812 370Z" fill="#FF7C06"/>
<path fill-rule="evenodd" clip-rule="evenodd" d="M303 19L305 19L305 356L303 356L303 356L301 356L301 19L303 19Z" fill="#FF7C06"/>
<path d="M305 19L305 18.5L305.5 18.5L305.5 19L305 19ZM303 19L303 19.5L303 19ZM305 356L305.5 356L305.5 356.5L305 356.5L305 356ZM303 356L303 355.5L303 356ZM303 356L303 356.5L303 356ZM301 356L301 356.5L300.5 356.5L300.5 356L301 356ZM301 19L300.5 19L300.5 18.5L301 18.5L301 19ZM305 19.5L303 19.5L303 18.5L305 18.5L305 19.5ZM304.5 356L304.5 19L305.5 19L305.5 356L304.5 356ZM303 355.5L305 355.5L305 356.5L303 356.5L303 355.5ZM303 355.5L303 355.5L303 356.5L303 356.5L303 355.5ZM301 355.5L303 355.5L303 356.5L301 356.5L301 355.5ZM301.5 19L301.5 356L300.5 356L300.5 19L301.5 19ZM303 19.5L301 19.5L301 18.5L303 18.5L303 19.5Z" fill="#FF7C06"/>
<rect x="293" y="368" width="4" height="4" transform="rotate(-180 293 368)" fill="#FF7C06" stroke="#FF7C06"/>
<rect x="297" y="364" width="4" height="4" transform="rotate(-180 297 364)" fill="#FF7C06" stroke="#FF7C06"/>
<rect x="301" y="360" width="4" height="4" transform="rotate(-180 301 360)" fill="#FF7C06" stroke="#FF7C06"/>
<rect x="16.8828" y="368" width="4" height="4" transform="rotate(-180 16.8828 368)" fill="#FF7C06" stroke="#FF7C06"/>
<rect x="12.8828" y="364" width="4" height="4" transform="rotate(-180 12.8828 364)" fill="#FF7C06" stroke="#FF7C06"/>
<rect x="8.88281" y="360" width="4" height="4" transform="rotate(-180 8.88281 360)" fill="#FF7C06" stroke="#FF7C06"/>
</svg>
