<svg width="746" height="180" viewBox="0 0 746 180" fill="none" xmlns="http://www.w3.org/2000/svg">
<path fill-rule="evenodd" clip-rule="evenodd" d="M741.473 7.423V3.71292L4.49438 3.71289L4.49438 7.423H2.24219V176.289H741.474V7.423H741.473Z" fill="#FFFDF4"/>
<rect x="9.01172" width="727.963" height="1.85567" fill="#FF7C06"/>
<rect x="2.25391" y="7.42383" width="165.154" height="2.25375" transform="rotate(90 2.25391 7.42383)" fill="#FF7C06"/>
<rect x="2.25391" y="5.56641" width="2.25376" height="1.85567" fill="#FF7C06"/>
<rect x="4.5" y="3.70996" width="2.25376" height="1.85567" fill="#FF7C06"/>
<rect x="6.76172" y="1.85645" width="2.25376" height="1.85567" fill="#FF7C06"/>
<rect x="2.25391" y="174.432" width="1.85567" height="2.25376" transform="rotate(-90 2.25391 174.432)" fill="#FF7C06"/>
<rect x="4.5" y="176.29" width="1.85567" height="2.25376" transform="rotate(-90 4.5 176.29)" fill="#FF7C06"/>
<rect x="6.76172" y="178.144" width="1.85567" height="2.25376" transform="rotate(-90 6.76172 178.144)" fill="#FF7C06"/>
<rect x="9.01172" y="180" width="1.85573" height="727.963" transform="rotate(-90 9.01172 180)" fill="#FF7C06"/>
<rect x="2.25391" y="7.42383" width="2.25376" height="165.154" fill="#FFC897"/>
<rect x="4.5" y="5.56641" width="2.25376" height="1.85567" fill="#FFC897"/>
<rect x="6.76172" y="3.70996" width="2.25376" height="1.85567" fill="#FFC897"/>
<rect width="1.85567" height="727.963" transform="matrix(-1.89118e-06 1 -1 -1.01032e-09 736.98 176.29)" fill="#FFC897"/>
<rect x="9.01172" y="174.432" width="1.85567" height="2.25376" transform="rotate(90 9.01172 174.432)" fill="#FFC897"/>
<rect x="6.76172" y="172.576" width="1.85567" height="2.25376" transform="rotate(90 6.76172 172.576)" fill="#FFC897"/>
<rect x="9.01172" y="1.85645" width="727.963" height="1.85567" fill="#FFC897"/>
<rect x="736.98" y="1.85449" width="2.25376" height="1.85567" fill="#FF7C06"/>
<rect x="743.746" y="172.575" width="1.85567" height="2.25376" transform="rotate(90 743.746 172.575)" fill="#FF7C06"/>
<rect x="736.98" y="3.71094" width="2.25376" height="1.85567" fill="#FFC897"/>
<rect x="741.492" y="172.575" width="1.85567" height="2.25376" transform="rotate(90 741.492 172.575)" fill="#FFC897"/>
<rect x="739.242" y="5.56445" width="2.25376" height="1.85567" fill="#FFC897"/>
<rect x="739.242" y="174.431" width="1.85567" height="2.25376" transform="rotate(90 739.242 174.431)" fill="#FFC897"/>
<rect x="741.492" y="7.4209" width="2.25376" height="165.154" fill="#FFC897"/>
<rect x="739.242" y="3.71094" width="2.25376" height="1.85567" fill="#FF7C06"/>
<rect x="741.492" y="174.431" width="1.85567" height="2.25376" transform="rotate(90 741.492 174.431)" fill="#FF7C06"/>
<rect x="741.492" y="5.56445" width="2.25376" height="1.85567" fill="#FF7C06"/>
<rect x="739.242" y="176.287" width="1.85567" height="2.25376" transform="rotate(90 739.242 176.287)" fill="#FF7C06"/>
<rect x="743.746" y="7.4209" width="2.25376" height="165.154" fill="#FF7C06"/>
</svg>
