<svg width="238" height="45" viewBox="0 0 238 45" fill="none" xmlns="http://www.w3.org/2000/svg">
<path fill-rule="evenodd" clip-rule="evenodd" d="M83 3.99999L228 4H10V5.99998L230 6H6V7.99998L232 8H4L4 9.99998L232.067 10L2 9.99999V35H83L236 35V10H234V8.00002L232 8V6.00002L230 6V4.00002L228 4V2.00001L83 2V3.99999Z" fill="#FF9332"/>
<rect x="2" y="8" width="2" height="2" fill="#393939"/>
<rect x="236" y="39" width="2" height="4" transform="rotate(-180 236 39)" fill="#393939"/>
<rect x="4" y="35" width="4" height="2" transform="rotate(90 4 35)" fill="#393939"/>
<rect x="10" y="33" width="2" height="2" transform="rotate(90 10 33)" fill="#FFBD82"/>
<rect x="228" y="35" width="2.00001" height="218" transform="rotate(90 228 35)" fill="#FFBD82"/>
<rect x="234" y="10" width="4" height="2" transform="rotate(-90 234 10)" fill="#393939"/>
<rect x="2" y="6" width="2" height="2" fill="#393939"/>
<rect x="234" y="41" width="2" height="2" transform="rotate(-180 234 41)" fill="#393939"/>
<rect x="6" y="39" width="2" height="2" transform="rotate(90 6 39)" fill="#393939"/>
<rect x="4" y="4" width="2" height="2" fill="#393939"/>
<rect x="8" y="41" width="2" height="2" transform="rotate(90 8 41)" fill="#393939"/>
<rect x="232" y="6" width="2" height="2" transform="rotate(-90 232 6)" fill="#393939"/>
<rect x="6" y="2" width="4" height="2" fill="#393939"/>
<rect x="232" y="43" width="4" height="2" transform="rotate(-180 232 43)" fill="#393939"/>
<path fill-rule="evenodd" clip-rule="evenodd" d="M2 35H4L4 39H6L6 41H10V43L228 43V41H232V39H234V35H236V29H234V31L232 31V33L230 33V35H228V37L10 37V35H8V33L4 33L4 29H2V35Z" fill="#EE7000"/>
<rect x="10" y="41" width="2" height="2" transform="rotate(90 10 41)" fill="#393939"/>
<rect x="228" y="4" width="2" height="4" transform="rotate(-90 228 4)" fill="#393939"/>
<rect x="10" width="218" height="2" fill="#393939"/>
<rect x="10" y="43" width="218" height="2" fill="#393939"/>
<rect y="10" width="2" height="25" fill="#393939"/>
<rect x="238" y="35" width="2" height="25" transform="rotate(-180 238 35)" fill="#393939"/>
<rect x="228" y="2" width="2.00001" height="218" transform="rotate(90 228 2)" fill="#FFBD82"/>
<rect x="6" y="6" width="2" height="2" transform="rotate(90 6 6)" fill="#FFBD82"/>
<rect x="4" y="10" width="4" height="2" transform="rotate(90 4 10)" fill="#FFBD82"/>
<rect x="8" y="4" width="2" height="2" transform="rotate(90 8 4)" fill="#FFBD82"/>
<rect x="10" y="4" width="2" height="2" transform="rotate(90 10 4)" fill="#FFBD82"/>
<rect x="232" y="4" width="2" height="4" transform="rotate(90 232 4)" fill="#FFBD82"/>
<rect x="234" y="6" width="2" height="2" transform="rotate(90 234 6)" fill="#FFBD82"/>
<rect x="236" y="10" width="4" height="2" transform="rotate(90 236 10)" fill="#FFBD82"/>
<rect width="6" height="4" transform="matrix(-1.31134e-07 -1 -1 1.31134e-07 33 43)" fill="#FFDDBE"/>
<rect width="6" height="4" transform="matrix(-1.31134e-07 -1 -1 1.31134e-07 208 43)" fill="#FFDDBE"/>
<rect width="6" height="3" transform="matrix(-1.31134e-07 -1 -1 1.31134e-07 28 43)" fill="#FFDDBE"/>
<rect width="6" height="3" transform="matrix(-1.31134e-07 -1 -1 1.31134e-07 203 43)" fill="#FFDDBE"/>
<rect width="6" height="2" transform="matrix(-1.31134e-07 -1 -1 1.31134e-07 24 43)" fill="#FFDDBE"/>
<rect width="6" height="2" transform="matrix(-1.31134e-07 -1 -1 1.31134e-07 199 43)" fill="#FFDDBE"/>
<rect width="6" height="0.999999" transform="matrix(-1.31134e-07 -1 -1 1.31134e-07 21 43)" fill="#FFDDBE"/>
<rect width="6" height="0.999999" transform="matrix(-1.31134e-07 -1 -1 1.31134e-07 196 43)" fill="#FFDDBE"/>
<rect x="4" y="27" width="4" height="2" transform="rotate(90 4 27)" fill="#FFBD82"/>
<rect x="8" y="33" width="2" height="2" transform="rotate(90 8 33)" fill="#FFBD82"/>
<rect x="6" y="31" width="2" height="2" transform="rotate(90 6 31)" fill="#FFBD82"/>
<rect x="232" y="35" width="4" height="2" transform="rotate(-180 232 35)" fill="#FFBD82"/>
<rect x="234" y="33" width="2" height="2" transform="rotate(-180 234 33)" fill="#FFBD82"/>
<rect x="236" y="29" width="2" height="4" transform="rotate(-180 236 29)" fill="#FFBD82"/>
<path d="M33.048 14.92H32.04H31.032V15.928H30.024V16.936V17.944V19.96V20.968V21.976H31.032V22.984H32.04H33.048H34.056H35.064H36.072V21.976H37.08V20.968V19.96H33.048H32.04V17.944H33.048H37.08H39.096V20.968V21.976V22.984H38.088V23.992H37.08V25H34.056H33.048H30.024V23.992H29.016V22.984H28.008V20.968V19.96V18.952V17.944V14.92H29.016V13.912H30.024V12.904H32.04H33.048H34.056H38.088V13.912H39.096V15.928H37.08V14.92H35.064H34.056H33.048ZM46.1574 14.92H45.1494H44.1414V15.928H43.1334V16.936V17.944V19.96V20.968V21.976H44.1414V22.984H45.1494H46.1574H47.1654H48.1734H49.1814V21.976H50.1894V20.968V19.96V16.936V15.928H49.1814V14.92H48.1734H47.1654H46.1574ZM52.2054 19.96V22.984H51.1974V23.992H50.1894V25H47.1654H46.1574H43.1334V23.992H42.1254V22.984H41.1174V20.968V19.96V18.952V17.944V14.92H42.1254V13.912H43.1334V12.904H45.1494H46.1574H47.1654H50.1894V13.912H51.1974V14.92H52.2054V16.936V19.96ZM67.3361 14.92V13.912V12.904H68.3441H69.3521H72.3761H77.4161V14.92H76.4081H75.4001H73.3841V19.96V25H71.3681V19.96V14.92H70.3601H67.3361ZM85.4855 14.92H84.4775H83.4695V15.928H82.4615V16.936V17.944V19.96V20.968V21.976H83.4695V22.984H84.4775H85.4855H86.4935H87.5015H88.5095V21.976H89.5175V20.968V19.96V16.936V15.928H88.5095V14.92H87.5015H86.4935H85.4855ZM91.5335 19.96V22.984H90.5255V23.992H89.5175V25H86.4935H85.4855H82.4615V23.992H81.4535V22.984H80.4455V20.968V19.96V18.952V17.944V14.92H81.4535V13.912H82.4615V12.904H84.4775H85.4855H86.4935H89.5175V13.912H90.5255V14.92H91.5335V16.936V19.96ZM114.728 22.984V25H113.72H112.712H110.696H109.688H108.68V22.984H109.688H110.696V16.936V14.92H109.688H108.68V12.904H109.688H110.696H111.704H112.712H113.72H114.728V14.92H113.72H112.712V22.984H113.72H114.728ZM128.846 16.936V13.912V12.904H130.862V13.912V14.92V22.984V25H128.846V22.984H127.838V21.976H126.83V20.968H125.822V19.96H124.814V18.952H123.806V17.944H122.798V16.936H121.79V19.96V25H120.782H119.774V23.992V22.984V21.976V19.96V18.952V17.944V16.936V15.928V14.92V13.912V12.904H120.782H121.79V13.912H122.798V14.92H123.806V15.928H124.814V16.936H125.822V17.944H126.83V18.952H127.838V19.96H128.846V16.936ZM143.971 13.912V14.92V16.936V18.952V19.96V20.968H142.963V21.976H141.955V22.984H140.947V23.992H139.939V25H136.915V23.992H135.907V22.984H134.899V21.976H133.891V20.968H132.883V19.96V18.952V16.936V14.92V13.912V12.904H133.891H134.899V13.912V14.92V18.952V19.96H135.907V20.968H136.915V21.976H137.923V22.984H138.931V21.976H139.939V20.968H140.947V19.96H141.955V18.952V14.92V13.912V12.904H142.963H143.971V13.912ZM145.992 14.92V13.912V12.904H147H148.008H151.032H157.08V14.92H156.072H155.064H153.048H152.04H151.032H149.016H148.008V17.944H155.064V19.96H148.008V22.984H149.016H151.032H152.04H153.048H155.064H156.072H157.08V25H151.032H148.008H147H145.992V23.992V22.984V21.976V19.96V18.952V17.944V16.936V15.928V14.92ZM159.102 14.92V13.912V12.904H160.11H161.118H164.142H169.182V14.92H168.174H167.166H165.15V19.96V25H163.134V19.96V14.92H162.126H159.102ZM177.251 14.92H176.243H175.235V15.928H174.227V16.936V17.944V19.96V20.968V21.976H175.235V22.984H176.243H177.251H178.259H179.267H180.275V21.976H181.283V20.968V19.96V16.936V15.928H180.275V14.92H179.267H178.259H177.251ZM183.299 19.96V22.984H182.291V23.992H181.283V25H178.259H177.251H174.227V23.992H173.219V22.984H172.211V20.968V19.96V18.952V17.944V14.92H173.219V13.912H174.227V12.904H176.243H177.251H178.259H181.283V13.912H182.291V14.92H183.299V16.936V19.96ZM185.321 14.92V13.912V12.904H186.329H187.337H190.361H194.393V13.912H195.401V14.92H196.409V16.936V17.944V18.952H195.401V19.96H194.393V20.968V21.976H195.401V22.984H196.409V23.992V25H194.393V23.992H193.385V22.984H192.377V21.976H191.369V20.968H190.361H187.337V25H185.321V20.968V19.96V18.952V17.944V16.936V15.928V14.92ZM190.361 14.92H188.345H187.337V17.944V18.952H188.345H189.353H190.361H191.369H192.377H193.385V17.944H194.393V16.936V15.928H193.385V14.92H192.377H191.369H190.361ZM208.51 13.912V14.92V15.928V16.936H207.502V17.944H206.494V18.952H205.486V19.96H204.478V20.968V25H202.462V20.968V19.96H201.454V18.952H200.446V17.944H199.438V16.936H198.43V15.928V14.92V13.912V12.904H199.438H200.446V13.912V14.92V15.928H201.454V16.936H202.462V17.944H203.47H204.478V16.936H205.486V15.928H206.494V14.92V13.912V12.904H207.502H208.51V13.912Z" fill="#393939"/>
<path d="M33.048 12.92H32.04H31.032V13.928H30.024V14.936V15.944V17.96V18.968V19.976H31.032V20.984H32.04H33.048H34.056H35.064H36.072V19.976H37.08V18.968V17.96H33.048H32.04V15.944H33.048H37.08H39.096V18.968V19.976V20.984H38.088V21.992H37.08V23H34.056H33.048H30.024V21.992H29.016V20.984H28.008V18.968V17.96V16.952V15.944V12.92H29.016V11.912H30.024V10.904H32.04H33.048H34.056H38.088V11.912H39.096V13.928H37.08V12.92H35.064H34.056H33.048ZM46.1574 12.92H45.1494H44.1414V13.928H43.1334V14.936V15.944V17.96V18.968V19.976H44.1414V20.984H45.1494H46.1574H47.1654H48.1734H49.1814V19.976H50.1894V18.968V17.96V14.936V13.928H49.1814V12.92H48.1734H47.1654H46.1574ZM52.2054 17.96V20.984H51.1974V21.992H50.1894V23H47.1654H46.1574H43.1334V21.992H42.1254V20.984H41.1174V18.968V17.96V16.952V15.944V12.92H42.1254V11.912H43.1334V10.904H45.1494H46.1574H47.1654H50.1894V11.912H51.1974V12.92H52.2054V14.936V17.96ZM67.3361 12.92V11.912V10.904H68.3441H69.3521H72.3761H77.4161V12.92H76.4081H75.4001H73.3841V17.96V23H71.3681V17.96V12.92H70.3601H67.3361ZM85.4855 12.92H84.4775H83.4695V13.928H82.4615V14.936V15.944V17.96V18.968V19.976H83.4695V20.984H84.4775H85.4855H86.4935H87.5015H88.5095V19.976H89.5175V18.968V17.96V14.936V13.928H88.5095V12.92H87.5015H86.4935H85.4855ZM91.5335 17.96V20.984H90.5255V21.992H89.5175V23H86.4935H85.4855H82.4615V21.992H81.4535V20.984H80.4455V18.968V17.96V16.952V15.944V12.92H81.4535V11.912H82.4615V10.904H84.4775H85.4855H86.4935H89.5175V11.912H90.5255V12.92H91.5335V14.936V17.96ZM114.728 20.984V23H113.72H112.712H110.696H109.688H108.68V20.984H109.688H110.696V14.936V12.92H109.688H108.68V10.904H109.688H110.696H111.704H112.712H113.72H114.728V12.92H113.72H112.712V20.984H113.72H114.728ZM128.846 14.936V11.912V10.904H130.862V11.912V12.92V20.984V23H128.846V20.984H127.838V19.976H126.83V18.968H125.822V17.96H124.814V16.952H123.806V15.944H122.798V14.936H121.79V17.96V23H120.782H119.774V21.992V20.984V19.976V17.96V16.952V15.944V14.936V13.928V12.92V11.912V10.904H120.782H121.79V11.912H122.798V12.92H123.806V13.928H124.814V14.936H125.822V15.944H126.83V16.952H127.838V17.96H128.846V14.936ZM143.971 11.912V12.92V14.936V16.952V17.96V18.968H142.963V19.976H141.955V20.984H140.947V21.992H139.939V23H136.915V21.992H135.907V20.984H134.899V19.976H133.891V18.968H132.883V17.96V16.952V14.936V12.92V11.912V10.904H133.891H134.899V11.912V12.92V16.952V17.96H135.907V18.968H136.915V19.976H137.923V20.984H138.931V19.976H139.939V18.968H140.947V17.96H141.955V16.952V12.92V11.912V10.904H142.963H143.971V11.912ZM145.992 12.92V11.912V10.904H147H148.008H151.032H157.08V12.92H156.072H155.064H153.048H152.04H151.032H149.016H148.008V15.944H155.064V17.96H148.008V20.984H149.016H151.032H152.04H153.048H155.064H156.072H157.08V23H151.032H148.008H147H145.992V21.992V20.984V19.976V17.96V16.952V15.944V14.936V13.928V12.92ZM159.102 12.92V11.912V10.904H160.11H161.118H164.142H169.182V12.92H168.174H167.166H165.15V17.96V23H163.134V17.96V12.92H162.126H159.102ZM177.251 12.92H176.243H175.235V13.928H174.227V14.936V15.944V17.96V18.968V19.976H175.235V20.984H176.243H177.251H178.259H179.267H180.275V19.976H181.283V18.968V17.96V14.936V13.928H180.275V12.92H179.267H178.259H177.251ZM183.299 17.96V20.984H182.291V21.992H181.283V23H178.259H177.251H174.227V21.992H173.219V20.984H172.211V18.968V17.96V16.952V15.944V12.92H173.219V11.912H174.227V10.904H176.243H177.251H178.259H181.283V11.912H182.291V12.92H183.299V14.936V17.96ZM185.321 12.92V11.912V10.904H186.329H187.337H190.361H194.393V11.912H195.401V12.92H196.409V14.936V15.944V16.952H195.401V17.96H194.393V18.968V19.976H195.401V20.984H196.409V21.992V23H194.393V21.992H193.385V20.984H192.377V19.976H191.369V18.968H190.361H187.337V23H185.321V18.968V17.96V16.952V15.944V14.936V13.928V12.92ZM190.361 12.92H188.345H187.337V15.944V16.952H188.345H189.353H190.361H191.369H192.377H193.385V15.944H194.393V14.936V13.928H193.385V12.92H192.377H191.369H190.361ZM208.51 11.912V12.92V13.928V14.936H207.502V15.944H206.494V16.952H205.486V17.96H204.478V18.968V23H202.462V18.968V17.96H201.454V16.952H200.446V15.944H199.438V14.936H198.43V13.928V12.92V11.912V10.904H199.438H200.446V11.912V12.92V13.928H201.454V14.936H202.462V15.944H203.47H204.478V14.936H205.486V13.928H206.494V12.92V11.912V10.904H207.502H208.51V11.912Z" fill="white"/>
</svg>
