<svg width="11" height="11" viewBox="0 0 11 11" fill="none" xmlns="http://www.w3.org/2000/svg">
<path d="M4.86414 0.617188H4.25781V1.22351H4.86414V0.617188Z" fill="#16171A"/>
<path d="M5.46961 0.617188H4.86328V1.22351H5.46961V0.617188Z" fill="#16171A"/>
<path d="M6.07508 0.617188H5.46875V1.22351H6.07508V0.617188Z" fill="#16171A"/>
<path d="M6.68054 0.617188H6.07422V1.22351H6.68054V0.617188Z" fill="#16171A"/>
<path d="M3.64929 1.22363H3.04297V1.82996H3.64929V1.22363Z" fill="#16171A"/>
<path d="M4.25476 1.22363H3.64844V1.82996H4.25476V1.22363Z" fill="#16171A"/>
<path d="M4.86414 1.22363H4.25781V1.82996H4.86414V1.22363Z" fill="#FAFDFF"/>
<path d="M5.46961 1.22363H4.86328V1.82996H5.46961V1.22363Z" fill="#FAFDFF"/>
<path d="M6.07508 1.22363H5.46875V1.82996H6.07508V1.22363Z" fill="#FAFDFF"/>
<path d="M6.68054 1.22363H6.07422V1.82996H6.68054V1.22363Z" fill="#FAFDFF"/>
<path d="M7.28992 1.22363H6.68359V1.82996H7.28992V1.22363Z" fill="#16171A"/>
<path d="M7.89148 1.22363H7.28516V1.82996H7.89148V1.22363Z" fill="#16171A"/>
<path d="M3.04383 1.83008H2.4375V2.4364H3.04383V1.83008Z" fill="#16171A"/>
<path d="M3.64929 1.83008H3.04297V2.4364H3.64929V1.83008Z" fill="#FAFDFF"/>
<path d="M4.25476 1.83008H3.64844V2.4364H4.25476V1.83008Z" fill="#FAFDFF"/>
<path d="M4.86414 1.83008H4.25781V2.4364H4.86414V1.83008Z" fill="#FFBD82"/>
<path d="M5.46961 1.83008H4.86328V2.4364H5.46961V1.83008Z" fill="#FFBD82"/>
<path d="M6.07508 1.83008H5.46875V2.4364H6.07508V1.83008Z" fill="#FFBD82"/>
<path d="M6.68054 1.83008H6.07422V2.4364H6.68054V1.83008Z" fill="#FFBD82"/>
<path d="M7.28992 1.83008H6.68359V2.4364H7.28992V1.83008Z" fill="#FAFDFF"/>
<path d="M7.89148 1.83008H7.28516V2.4364H7.89148V1.83008Z" fill="#FAFDFF"/>
<path d="M8.49695 1.83008H7.89062V2.4364H8.49695V1.83008Z" fill="#16171A"/>
<path d="M2.43836 2.43555H1.83203V3.04187H2.43836V2.43555Z" fill="#16171A"/>
<path d="M3.04383 2.43555H2.4375V3.04187H3.04383V2.43555Z" fill="#FAFDFF"/>
<path d="M3.64929 2.43652H3.04297V3.04285H3.64929V2.43652Z" fill="#FFBD82"/>
<path d="M4.25476 2.43555H3.64844V3.04187H4.25476V2.43555Z" fill="#FFBD82"/>
<path d="M4.86414 2.43555H4.25781V3.04187H4.86414V2.43555Z" fill="#FFBD82"/>
<path d="M5.46961 2.43555H4.86328V3.04187H5.46961V2.43555Z" fill="#FFBD82"/>
<path d="M6.07508 2.43555H5.46875V3.04187H6.07508V2.43555Z" fill="#FFBD82"/>
<path d="M6.68054 2.43555H6.07422V3.04187H6.68054V2.43555Z" fill="#FFBD82"/>
<path d="M7.28992 2.43555H6.68359V3.04187H7.28992V2.43555Z" fill="#FFBD82"/>
<path d="M7.89148 2.43652H7.28516V3.04285H7.89148V2.43652Z" fill="#FFBD82"/>
<path d="M8.49695 2.43555H7.89062V3.04187H8.49695V2.43555Z" fill="#FAFDFF"/>
<path d="M9.10242 2.43555H8.49609V3.04187H9.10242V2.43555Z" fill="#16171A"/>
<path d="M1.82898 3.04297H1.22266V3.64929H1.82898V3.04297Z" fill="#16171A"/>
<path d="M2.43836 3.04297H1.83203V3.64929H2.43836V3.04297Z" fill="#FAFDFF"/>
<path d="M3.04383 3.04297H2.4375V3.64929H3.04383V3.04297Z" fill="#FFBD82"/>
<path d="M3.64929 3.04297H3.04297V3.64929H3.64929V3.04297Z" fill="#FFBD82"/>
<path d="M4.25476 3.04297H3.64844V3.64929H4.25476V3.04297Z" fill="#16171A"/>
<path d="M4.86414 3.04297H4.25781V3.64929H4.86414V3.04297Z" fill="#16171A"/>
<path d="M5.46961 3.04297H4.86328V3.64929H5.46961V3.04297Z" fill="#FFBD82"/>
<path d="M6.07508 3.04297H5.46875V3.64929H6.07508V3.04297Z" fill="#FFBD82"/>
<path d="M6.68054 3.04297H6.07422V3.64929H6.68054V3.04297Z" fill="#16171A"/>
<path d="M7.28992 3.04297H6.68359V3.64929H7.28992V3.04297Z" fill="#16171A"/>
<path d="M7.89148 3.04297H7.28516V3.64929H7.89148V3.04297Z" fill="#FFBD82"/>
<path d="M8.49695 3.04297H7.89062V3.64929H8.49695V3.04297Z" fill="#FFBD82"/>
<path d="M9.10242 3.04297H8.49609V3.64929H9.10242V3.04297Z" fill="#FF8426"/>
<path d="M9.71179 3.04297H9.10547V3.64929H9.71179V3.04297Z" fill="#16171A"/>
<path d="M1.82898 3.64844H1.22266V4.25476H1.82898V3.64844Z" fill="#16171A"/>
<path d="M2.43836 3.64844H1.83203V4.25476H2.43836V3.64844Z" fill="#FAFDFF"/>
<path d="M3.04383 3.64844H2.4375V4.25476H3.04383V3.64844Z" fill="#FFBD82"/>
<path d="M3.64929 3.64844H3.04297V4.25476H3.64929V3.64844Z" fill="#16171A"/>
<path d="M4.25476 3.64844H3.64844V4.25476H4.25476V3.64844Z" fill="#FAFDFF"/>
<path d="M4.86414 3.64844H4.25781V4.25476H4.86414V3.64844Z" fill="#FAFDFF"/>
<path d="M5.46961 3.64844H4.86328V4.25476H5.46961V3.64844Z" fill="#16171A"/>
<path d="M6.07508 3.64844H5.46875V4.25476H6.07508V3.64844Z" fill="#16171A"/>
<path d="M6.68054 3.64844H6.07422V4.25476H6.68054V3.64844Z" fill="#FAFDFF"/>
<path d="M7.28992 3.64844H6.68359V4.25476H7.28992V3.64844Z" fill="#FAFDFF"/>
<path d="M7.89148 3.64844H7.28516V4.25476H7.89148V3.64844Z" fill="#16171A"/>
<path d="M8.49695 3.64844H7.89062V4.25476H8.49695V3.64844Z" fill="#FFBD82"/>
<path d="M9.10242 3.64844H8.49609V4.25476H9.10242V3.64844Z" fill="#FF8426"/>
<path d="M9.71179 3.64844H9.10547V4.25476H9.71179V3.64844Z" fill="#16171A"/>
<path d="M1.22351 4.25488H0.617188V4.86121H1.22351V4.25488Z" fill="#16171A"/>
<path d="M1.82898 4.25586H1.22266V4.86218H1.82898V4.25586Z" fill="#FAFDFF"/>
<path d="M2.43836 4.25586H1.83203V4.86218H2.43836V4.25586Z" fill="#FFBD82"/>
<path d="M3.04383 4.25586H2.4375V4.86218H3.04383V4.25586Z" fill="#16171A"/>
<path d="M3.64929 4.25488H3.04297V4.86121H3.64929V4.25488Z" fill="#FAFDFF"/>
<path d="M4.25476 4.25586H3.64844V4.86218H4.25476V4.25586Z" fill="#FF6969"/>
<path d="M4.86414 4.25586H4.25781V4.86218H4.86414V4.25586Z" fill="#FF6969"/>
<path d="M5.46961 4.25586H4.86328V4.86218H5.46961V4.25586Z" fill="#FAFDFF"/>
<path d="M6.07508 4.25586H5.46875V4.86218H6.07508V4.25586Z" fill="#FAFDFF"/>
<path d="M6.68054 4.25586H6.07422V4.86218H6.68054V4.25586Z" fill="#FF6969"/>
<path d="M7.28992 4.25586H6.68359V4.86218H7.28992V4.25586Z" fill="#FF6969"/>
<path d="M7.89148 4.25488H7.28516V4.86121H7.89148V4.25488Z" fill="#FF2626"/>
<path d="M8.49695 4.25586H7.89062V4.86218H8.49695V4.25586Z" fill="#16171A"/>
<path d="M9.10242 4.25586H8.49609V4.86218H9.10242V4.25586Z" fill="#FFBD82"/>
<path d="M9.71179 4.25586H9.10547V4.86218H9.71179V4.25586Z" fill="#FF8426"/>
<path d="M10.3173 4.25488H9.71094V4.86121H10.3173V4.25488Z" fill="#16171A"/>
<path d="M1.22351 4.86133H0.617188V5.46765H1.22351V4.86133Z" fill="#16171A"/>
<path d="M1.82898 4.86133H1.22266V5.46765H1.82898V4.86133Z" fill="#FAFDFF"/>
<path d="M2.43836 4.86133H1.83203V5.46765H2.43836V4.86133Z" fill="#FFBD82"/>
<path d="M3.04383 4.86133H2.4375V5.46765H3.04383V4.86133Z" fill="#16171A"/>
<path d="M3.64929 4.86133H3.04297V5.46765H3.64929V4.86133Z" fill="#FAFDFF"/>
<path d="M4.25476 4.86133H3.64844V5.46765H4.25476V4.86133Z" fill="#FF6969"/>
<path d="M4.86414 4.86133H4.25781V5.46765H4.86414V4.86133Z" fill="#FF6969"/>
<path d="M5.46961 4.86133H4.86328V5.46765H5.46961V4.86133Z" fill="#FF6969"/>
<path d="M6.07508 4.86133H5.46875V5.46765H6.07508V4.86133Z" fill="#FF6969"/>
<path d="M6.68054 4.86133H6.07422V5.46765H6.68054V4.86133Z" fill="#FF6969"/>
<path d="M7.28992 4.86133H6.68359V5.46765H7.28992V4.86133Z" fill="#FF6969"/>
<path d="M7.89148 4.86133H7.28516V5.46765H7.89148V4.86133Z" fill="#FF2626"/>
<path d="M8.49695 4.86133H7.89062V5.46765H8.49695V4.86133Z" fill="#16171A"/>
<path d="M9.10242 4.86133H8.49609V5.46765H9.10242V4.86133Z" fill="#FFBD82"/>
<path d="M9.71179 4.86133H9.10547V5.46765H9.71179V4.86133Z" fill="#FF8426"/>
<path d="M10.3173 4.86133H9.71094V5.46765H10.3173V4.86133Z" fill="#16171A"/>
<path d="M1.22351 5.46777H0.617188V6.0741H1.22351V5.46777Z" fill="#16171A"/>
<path d="M1.82898 5.46777H1.22266V6.0741H1.82898V5.46777Z" fill="#FAFDFF"/>
<path d="M2.43836 5.46777H1.83203V6.0741H2.43836V5.46777Z" fill="#FFBD82"/>
<path d="M3.04383 5.46777H2.4375V6.0741H3.04383V5.46777Z" fill="#16171A"/>
<path d="M3.64929 5.46777H3.04297V6.0741H3.64929V5.46777Z" fill="#FAFDFF"/>
<path d="M4.25476 5.46777H3.64844V6.0741H4.25476V5.46777Z" fill="#FF6969"/>
<path d="M4.86414 5.46777H4.25781V6.0741H4.86414V5.46777Z" fill="#FF6969"/>
<path d="M5.46961 5.46777H4.86328V6.0741H5.46961V5.46777Z" fill="#FF6969"/>
<path d="M6.07508 5.46777H5.46875V6.0741H6.07508V5.46777Z" fill="#FF6969"/>
<path d="M6.68054 5.46777H6.07422V6.0741H6.68054V5.46777Z" fill="#FF6969"/>
<path d="M7.28992 5.46777H6.68359V6.0741H7.28992V5.46777Z" fill="#FF6969"/>
<path d="M7.89148 5.46777H7.28516V6.0741H7.89148V5.46777Z" fill="#FF2626"/>
<path d="M8.49695 5.46777H7.89062V6.0741H8.49695V5.46777Z" fill="#16171A"/>
<path d="M9.10242 5.46777H8.49609V6.0741H9.10242V5.46777Z" fill="#FFBD82"/>
<path d="M9.71179 5.46777H9.10547V6.0741H9.71179V5.46777Z" fill="#FF8426"/>
<path d="M10.3173 5.46777H9.71094V6.0741H10.3173V5.46777Z" fill="#16171A"/>
<path d="M1.22351 6.07422H0.617188V6.68054H1.22351V6.07422Z" fill="#16171A"/>
<path d="M1.82898 6.07422H1.22266V6.68054H1.82898V6.07422Z" fill="#FAFDFF"/>
<path d="M2.43836 6.07422H1.83203V6.68054H2.43836V6.07422Z" fill="#FFBD82"/>
<path d="M3.04383 6.07422H2.4375V6.68054H3.04383V6.07422Z" fill="#FFBD82"/>
<path d="M3.64929 6.07422H3.04297V6.68054H3.64929V6.07422Z" fill="#16171A"/>
<path d="M4.25476 6.07422H3.64844V6.68054H4.25476V6.07422Z" fill="#FF2626"/>
<path d="M4.86414 6.07422H4.25781V6.68054H4.86414V6.07422Z" fill="#FF6969"/>
<path d="M5.46961 6.07422H4.86328V6.68054H5.46961V6.07422Z" fill="#FF6969"/>
<path d="M6.07508 6.07422H5.46875V6.68054H6.07508V6.07422Z" fill="#FF6969"/>
<path d="M6.68054 6.07422H6.07422V6.68054H6.68054V6.07422Z" fill="#FF6969"/>
<path d="M7.28992 6.07422H6.68359V6.68054H7.28992V6.07422Z" fill="#FF2626"/>
<path d="M7.89148 6.07422H7.28516V6.68054H7.89148V6.07422Z" fill="#16171A"/>
<path d="M8.49695 6.07422H7.89062V6.68054H8.49695V6.07422Z" fill="#FFBD82"/>
<path d="M9.10242 6.07422H8.49609V6.68054H9.10242V6.07422Z" fill="#FFBD82"/>
<path d="M9.71179 6.07422H9.10547V6.68054H9.71179V6.07422Z" fill="#FF8426"/>
<path d="M10.3173 6.07422H9.71094V6.68054H10.3173V6.07422Z" fill="#16171A"/>
<path d="M1.82898 6.67969H1.22266V7.28601H1.82898V6.67969Z" fill="#16171A"/>
<path d="M2.43836 6.67969H1.83203V7.28601H2.43836V6.67969Z" fill="#FAFDFF"/>
<path d="M3.04383 6.67969H2.4375V7.28601H3.04383V6.67969Z" fill="#FFBD82"/>
<path d="M3.64929 6.68066H3.04297V7.28699H3.64929V6.68066Z" fill="#FFBD82"/>
<path d="M4.25476 6.67969H3.64844V7.28601H4.25476V6.67969Z" fill="#16171A"/>
<path d="M4.86414 6.67969H4.25781V7.28601H4.86414V6.67969Z" fill="#FF2626"/>
<path d="M5.46961 6.67969H4.86328V7.28601H5.46961V6.67969Z" fill="#FF6969"/>
<path d="M6.07508 6.67969H5.46875V7.28601H6.07508V6.67969Z" fill="#FF6969"/>
<path d="M6.68054 6.67969H6.07422V7.28601H6.68054V6.67969Z" fill="#FF2626"/>
<path d="M7.28992 6.67969H6.68359V7.28601H7.28992V6.67969Z" fill="#16171A"/>
<path d="M7.89148 6.68066H7.28516V7.28699H7.89148V6.68066Z" fill="#FFBD82"/>
<path d="M8.49695 6.67969H7.89062V7.28601H8.49695V6.67969Z" fill="#FFBD82"/>
<path d="M9.10242 6.67969H8.49609V7.28601H9.10242V6.67969Z" fill="#FF8426"/>
<path d="M9.71179 6.67969H9.10547V7.28601H9.71179V6.67969Z" fill="#16171A"/>
<path d="M1.82898 7.28711H1.22266V7.89343H1.82898V7.28711Z" fill="#16171A"/>
<path d="M2.43836 7.28711H1.83203V7.89343H2.43836V7.28711Z" fill="#FAFDFF"/>
<path d="M3.04383 7.28711H2.4375V7.89343H3.04383V7.28711Z" fill="#FFBD82"/>
<path d="M3.64929 7.28711H3.04297V7.89343H3.64929V7.28711Z" fill="#FFBD82"/>
<path d="M4.25476 7.28711H3.64844V7.89343H4.25476V7.28711Z" fill="#FFBD82"/>
<path d="M4.86414 7.28711H4.25781V7.89343H4.86414V7.28711Z" fill="#16171A"/>
<path d="M5.46961 7.28711H4.86328V7.89343H5.46961V7.28711Z" fill="#FF2626"/>
<path d="M6.07508 7.28711H5.46875V7.89343H6.07508V7.28711Z" fill="#FF2626"/>
<path d="M6.68054 7.28711H6.07422V7.89343H6.68054V7.28711Z" fill="#16171A"/>
<path d="M7.28992 7.28711H6.68359V7.89343H7.28992V7.28711Z" fill="#FFBD82"/>
<path d="M7.89148 7.28711H7.28516V7.89343H7.89148V7.28711Z" fill="#FFBD82"/>
<path d="M8.49695 7.28711H7.89062V7.89343H8.49695V7.28711Z" fill="#FFBD82"/>
<path d="M9.10242 7.28711H8.49609V7.89343H9.10242V7.28711Z" fill="#FF8426"/>
<path d="M9.71179 7.28711H9.10547V7.89343H9.71179V7.28711Z" fill="#16171A"/>
<path d="M2.43836 7.89258H1.83203V8.4989H2.43836V7.89258Z" fill="#16171A"/>
<path d="M3.04383 7.89258H2.4375V8.4989H3.04383V7.89258Z" fill="#FAFDFF"/>
<path d="M3.64929 7.89355H3.04297V8.49988H3.64929V7.89355Z" fill="#FFBD82"/>
<path d="M4.25476 7.89258H3.64844V8.4989H4.25476V7.89258Z" fill="#FFBD82"/>
<path d="M4.86414 7.89258H4.25781V8.4989H4.86414V7.89258Z" fill="#FFBD82"/>
<path d="M5.46961 7.89258H4.86328V8.4989H5.46961V7.89258Z" fill="#16171A"/>
<path d="M6.07508 7.89258H5.46875V8.4989H6.07508V7.89258Z" fill="#16171A"/>
<path d="M6.68054 7.89258H6.07422V8.4989H6.68054V7.89258Z" fill="#FFBD82"/>
<path d="M7.28992 7.89258H6.68359V8.4989H7.28992V7.89258Z" fill="#FFBD82"/>
<path d="M7.89148 7.89355H7.28516V8.49988H7.89148V7.89355Z" fill="#FFBD82"/>
<path d="M8.49695 7.89258H7.89062V8.4989H8.49695V7.89258Z" fill="#FF8426"/>
<path d="M9.10242 7.89258H8.49609V8.4989H9.10242V7.89258Z" fill="#16171A"/>
<path d="M3.04383 8.5H2.4375V9.10633H3.04383V8.5Z" fill="#16171A"/>
<path d="M3.64929 8.49902H3.04297V9.10535H3.64929V8.49902Z" fill="#FF8426"/>
<path d="M4.25476 8.5H3.64844V9.10633H4.25476V8.5Z" fill="#FF8426"/>
<path d="M4.86414 8.5H4.25781V9.10633H4.86414V8.5Z" fill="#FFBD82"/>
<path d="M5.46961 8.5H4.86328V9.10633H5.46961V8.5Z" fill="#FFBD82"/>
<path d="M6.07508 8.5H5.46875V9.10633H6.07508V8.5Z" fill="#FFBD82"/>
<path d="M6.68054 8.5H6.07422V9.10633H6.68054V8.5Z" fill="#FFBD82"/>
<path d="M7.28992 8.5H6.68359V9.10633H7.28992V8.5Z" fill="#FF8426"/>
<path d="M7.89148 8.49902H7.28516V9.10535H7.89148V8.49902Z" fill="#FF8426"/>
<path d="M8.49695 8.5H7.89062V9.10633H8.49695V8.5Z" fill="#16171A"/>
<path d="M3.64929 9.10547H3.04297V9.71179H3.64929V9.10547Z" fill="#16171A"/>
<path d="M4.25476 9.10547H3.64844V9.71179H4.25476V9.10547Z" fill="#16171A"/>
<path d="M4.86414 9.10547H4.25781V9.71179H4.86414V9.10547Z" fill="#FF8426"/>
<path d="M5.46961 9.10547H4.86328V9.71179H5.46961V9.10547Z" fill="#FF8426"/>
<path d="M6.07508 9.10547H5.46875V9.71179H6.07508V9.10547Z" fill="#FF8426"/>
<path d="M6.68054 9.10547H6.07422V9.71179H6.68054V9.10547Z" fill="#FF8426"/>
<path d="M7.28992 9.10547H6.68359V9.71179H7.28992V9.10547Z" fill="#16171A"/>
<path d="M7.89148 9.10547H7.28516V9.71179H7.89148V9.10547Z" fill="#16171A"/>
<path d="M4.86414 9.71191H4.25781V10.3182H4.86414V9.71191Z" fill="#16171A"/>
<path d="M5.46961 9.71191H4.86328V10.3182H5.46961V9.71191Z" fill="#16171A"/>
<path d="M6.07508 9.71191H5.46875V10.3182H6.07508V9.71191Z" fill="#16171A"/>
<path d="M6.68054 9.71191H6.07422V10.3182H6.68054V9.71191Z" fill="#16171A"/>
</svg>
