<svg width="20" height="21" viewBox="0 0 20 21" fill="none" xmlns="http://www.w3.org/2000/svg">
<rect x="5" y="2" width="9.999" height="15.9984" fill="white"/>
<rect x="1" y="3" width="17.9982" height="13.9986" fill="white"/>
<rect x="2" y="15.998" width="0.9999" height="1.9998" transform="rotate(-180 2 15.998)" fill="#B5B5B5"/>
<rect x="3" y="17.998" width="0.9999" height="1.9998" transform="rotate(-180 3 17.998)" fill="#B5B5B5"/>
<rect x="4.00391" y="18.998" width="0.9999" height="1.9998" transform="rotate(-180 4.00391 18.998)" fill="#B5B5B5"/>
<rect x="16" y="18.998" width="0.9999" height="1.9998" transform="rotate(-180 16 18.998)" fill="#B5B5B5"/>
<rect x="17" y="18.998" width="0.9999" height="1.9998" transform="rotate(-180 17 18.998)" fill="#B5B5B5"/>
<rect x="18" y="17.998" width="0.9999" height="1.9998" transform="rotate(-180 18 17.998)" fill="#B5B5B5"/>
<rect x="19" y="15.998" width="0.9999" height="1.9998" transform="rotate(-180 19 15.998)" fill="#B5B5B5"/>
<rect x="5" y="18.998" width="0.9999" height="1.9998" transform="rotate(-180 5 18.998)" fill="#B5B5B5"/>
<rect x="15" y="19.998" width="9.999" height="1.9998" transform="rotate(-180 15 19.998)" fill="#B5B5B5"/>
<rect x="5" width="9.999" height="0.9999" fill="#393939"/>
<rect x="3" y="1" width="1.9998" height="0.9999" fill="#393939"/>
<rect width="1.9998" height="0.9999" transform="matrix(-1 0 0 1 17 1)" fill="#393939"/>
<rect x="1" y="17.998" width="1.9998" height="0.9999" transform="rotate(-90 1 17.998)" fill="#393939"/>
<rect width="1.9998" height="0.9999" transform="matrix(4.37114e-08 -1 -1 -4.37114e-08 19 17.998)" fill="#393939"/>
<rect x="2" y="2" width="0.9999" height="0.9999" fill="#393939"/>
<rect width="0.9999" height="0.9999" transform="matrix(-1 0 0 1 18 2)" fill="#393939"/>
<rect x="2" y="18.998" width="0.9999" height="0.9999" transform="rotate(-90 2 18.998)" fill="#393939"/>
<rect width="0.9999" height="0.9999" transform="matrix(4.37114e-08 -1 -1 -4.37114e-08 18 18.998)" fill="#393939"/>
<rect x="1" y="3" width="0.9999" height="1.9998" fill="#393939"/>
<rect width="0.9999" height="1.9998" transform="matrix(-1 0 0 1 19 3)" fill="#393939"/>
<rect x="3" y="19.998" width="0.9999" height="1.9998" transform="rotate(-90 3 19.998)" fill="#393939"/>
<rect width="0.9999" height="1.9998" transform="matrix(4.37114e-08 -1 -1 -4.37114e-08 17 19.998)" fill="#393939"/>
<rect x="5" y="19.998" width="9.999" height="0.9999" fill="#393939"/>
<rect x="20" y="5" width="10.9989" height="0.999899" transform="rotate(90 20 5)" fill="#393939"/>
<rect x="1" y="5" width="10.9989" height="0.999899" transform="rotate(90 1 5)" fill="#393939"/>
<rect x="15" y="1" width="0.9999" height="9.999" transform="rotate(90 15 1)" fill="#E8E8E8"/>
<rect x="5" y="17.998" width="0.9999" height="9.999" transform="rotate(-90 5 17.998)" fill="#E8E8E8"/>
<rect x="5" y="2" width="0.9999" height="1.9998" transform="rotate(90 5 2)" fill="#E8E8E8"/>
<rect x="15" y="16.999" width="0.9999" height="1.9998" transform="rotate(-90 15 16.999)" fill="#E8E8E8"/>
<rect x="3" y="3" width="0.9999" height="0.9999" transform="rotate(90 3 3)" fill="#E8E8E8"/>
<rect x="17" y="15.998" width="0.9999" height="0.9999" transform="rotate(-90 17 15.998)" fill="#E8E8E8"/>
<rect x="2" y="5" width="0.9999" height="0.9999" transform="rotate(90 2 5)" fill="#E8E8E8"/>
<rect x="18" y="13.998" width="0.9999" height="0.9999" transform="rotate(-90 18 13.998)" fill="#E8E8E8"/>
<rect x="18" y="3" width="0.9999" height="0.9999" transform="rotate(90 18 3)" fill="#E8E8E8"/>
<rect x="2" y="15.998" width="0.9999" height="0.9999" transform="rotate(-90 2 15.998)" fill="#E8E8E8"/>
<rect x="19" y="5" width="0.9999" height="0.9999" transform="rotate(90 19 5)" fill="#E8E8E8"/>
<rect x="1" y="13.998" width="0.9999" height="0.9999" transform="rotate(-90 1 13.998)" fill="#E8E8E8"/>
<rect x="17" y="2" width="0.9999" height="1.9998" transform="rotate(90 17 2)" fill="#E8E8E8"/>
<rect x="3" y="16.999" width="0.9999" height="1.9998" transform="rotate(-90 3 16.999)" fill="#E8E8E8"/>
<path d="M10.9492 12.4041V14.7139H8.59445V12.4041H10.9492ZM6.17969 7.45463C6.18969 6.91468 6.27968 6.41973 6.44966 5.96978C6.62964 5.51982 6.87462 5.12986 7.18459 4.79989C7.50455 4.46993 7.88452 4.21495 8.32447 4.03497C8.77443 3.84499 9.27438 3.75 9.82432 3.75C10.5343 3.75 11.1242 3.84999 11.5941 4.04997C12.0741 4.23995 12.4591 4.47993 12.749 4.7699C13.039 5.05987 13.244 5.37484 13.364 5.7148C13.494 6.04477 13.5589 6.35474 13.5589 6.64471C13.5589 7.12466 13.494 7.51962 13.364 7.82959C13.244 8.13956 13.089 8.40453 12.899 8.62451C12.719 8.84449 12.5141 9.03447 12.2841 9.19445C12.0641 9.34444 11.8541 9.49942 11.6541 9.65941C11.4542 9.80939 11.2742 9.98437 11.1142 10.1844C10.9642 10.3843 10.8692 10.6343 10.8292 10.9343V11.5042H8.80442V10.8293C8.83442 10.3993 8.91441 10.0394 9.0444 9.7494C9.18439 9.45943 9.34437 9.21445 9.52435 9.01447C9.70433 8.80449 9.89432 8.62451 10.0943 8.47453C10.2943 8.32454 10.4793 8.17456 10.6492 8.02457C10.8192 7.87459 10.9542 7.7096 11.0542 7.52962C11.1642 7.34964 11.2142 7.12466 11.2042 6.85469C11.2042 6.39473 11.0892 6.05477 10.8592 5.83479C10.6392 5.61481 10.3293 5.50482 9.92931 5.50482C9.65934 5.50482 9.42436 5.55982 9.22438 5.66981C9.0344 5.7698 8.87442 5.90978 8.74443 6.08976C8.62444 6.25975 8.53445 6.46473 8.47446 6.7047C8.41446 6.93468 8.38447 7.18466 8.38447 7.45463H6.17969Z" fill="#FF7C06"/>
</svg>
