<svg width="165" height="21" viewBox="0 0 165 21" fill="none" xmlns="http://www.w3.org/2000/svg">
<mask id="path-1-outside-1_1340_4984" maskUnits="userSpaceOnUse" x="0.886719" y="0.901367" width="164" height="20" fill="black">
<rect fill="white" x="0.886719" y="0.901367" width="164" height="20"/>
<path d="M10.5532 16.4666V19.3796H9.10879H7.66437H4.77555H3.33113H1.88672V16.4666H3.33113H4.77555V7.72746V4.81441H3.33113H1.88672V1.90137H3.33113H4.77555H6.21996H7.66437H9.10879H10.5532V4.81441H9.10879H7.66437V16.4666H9.10879H10.5532Z"/>
<path d="M30.7827 7.72746V3.35789V1.90137H33.6715V3.35789V4.81441V16.4666V19.3796H30.7827V16.4666H29.3383V15.0101H27.8939V13.5536H26.4494V12.097H25.005V10.6405H23.5606V9.18398H22.1162V7.72746H20.6718V12.097V19.3796H19.2274H17.783V17.9231V16.4666V15.0101V12.097V10.6405V9.18398V7.72746V6.27094V4.81441V3.35789V1.90137H19.2274H20.6718V3.35789H22.1162V4.81441H23.5606V6.27094H25.005V7.72746H26.4494V9.18398H27.8939V10.6405H29.3383V12.097H30.7827V7.72746Z"/>
<path d="M52.4566 3.35789V4.81441V7.72746V10.6405V12.097V13.5536H51.0122V15.0101H49.5678V16.4666H48.1234V17.9231H46.6789V19.3796H42.3457V17.9231H40.9013V16.4666H39.4569V15.0101H38.0125V13.5536H36.568V12.097V10.6405V7.72746V4.81441V3.35789V1.90137H38.0125H39.4569V3.35789V4.81441V10.6405V12.097H40.9013V13.5536H42.3457V15.0101H43.7901V16.4666H45.2345V15.0101H46.6789V13.5536H48.1234V12.097H49.5678V10.6405V4.81441V3.35789V1.90137H51.0122H52.4566V3.35789Z"/>
<path d="M55.3531 4.81441V3.35789V1.90137H56.7975H58.242H62.5752H71.2417V4.81441H69.7973H68.3529H65.464H64.0196H62.5752H59.6864H58.242V9.18398H68.3529V12.097H58.242V16.4666H59.6864H62.5752H64.0196H65.464H68.3529H69.7973H71.2417V19.3796H62.5752H58.242H56.7975H55.3531V17.9231V16.4666V15.0101V12.097V10.6405V9.18398V7.72746V6.27094V4.81441Z"/>
<path d="M87.1379 7.72746V3.35789V1.90137H90.0267V3.35789V4.81441V16.4666V19.3796H87.1379V16.4666H85.6935V15.0101H84.2491V13.5536H82.8047V12.097H81.3603V10.6405H79.9159V9.18398H78.4715V7.72746H77.027V12.097V19.3796H75.5826H74.1382V17.9231V16.4666V15.0101V12.097V10.6405V9.18398V7.72746V6.27094V4.81441V3.35789V1.90137H75.5826H77.027V3.35789H78.4715V4.81441H79.9159V6.27094H81.3603V7.72746H82.8047V9.18398H84.2491V10.6405H85.6935V12.097H87.1379V7.72746Z"/>
<path d="M92.9233 4.81441V3.35789V1.90137H94.3677H95.8121H100.145H107.367V4.81441H105.923H104.479H101.59V12.097V19.3796H98.7009V12.097V4.81441H97.2565H92.9233Z"/>
<path d="M118.93 4.81441H117.486H116.042V6.27094H114.597V7.72746V9.18398V12.097V13.5536V15.0101H116.042V16.4666H117.486H118.93H120.375H121.819H123.264V15.0101H124.708V13.5536V12.097V7.72746V6.27094H123.264V4.81441H121.819H120.375H118.93ZM127.597 12.097V16.4666H126.152V17.9231H124.708V19.3796H120.375H118.93H114.597V17.9231H113.153V16.4666H111.708V13.5536V12.097V10.6405V9.18398V4.81441H113.153V3.35789H114.597V1.90137H117.486H118.93H120.375H124.708V3.35789H126.152V4.81441H127.597V7.72746V12.097Z"/>
<path d="M130.493 4.81441V3.35789V1.90137H131.938H133.382H137.716H143.493V3.35789H144.938V4.81441H146.382V7.72746V9.18398V10.6405H144.938V12.097H143.493V13.5536V15.0101H144.938V16.4666H146.382V17.9231V19.3796H143.493V17.9231H142.049V16.4666H140.604V15.0101H139.16V13.5536H137.716H133.382V19.3796H130.493V13.5536V12.097V10.6405V9.18398V7.72746V6.27094V4.81441ZM137.716 4.81441H134.827H133.382V9.18398V10.6405H134.827H136.271H137.716H139.16H140.604H142.049V9.18398H143.493V7.72746V6.27094H142.049V4.81441H140.604H139.16H137.716Z"/>
<path d="M163.723 3.35789V4.81441V6.27094V7.72746H162.278V9.18398H160.834V10.6405H159.389V12.097H157.945V13.5536V19.3796H155.056V13.5536V12.097H153.612V10.6405H152.167V9.18398H150.723V7.72746H149.279V6.27094V4.81441V3.35789V1.90137H150.723H152.167V3.35789V4.81441V6.27094H153.612V7.72746H155.056V9.18398H156.501H157.945V7.72746H159.389V6.27094H160.834V4.81441V3.35789V1.90137H162.278H163.723V3.35789Z"/>
</mask>
<path d="M10.5532 16.4666V19.3796H9.10879H7.66437H4.77555H3.33113H1.88672V16.4666H3.33113H4.77555V7.72746V4.81441H3.33113H1.88672V1.90137H3.33113H4.77555H6.21996H7.66437H9.10879H10.5532V4.81441H9.10879H7.66437V16.4666H9.10879H10.5532Z" fill="white"/>
<path d="M30.7827 7.72746V3.35789V1.90137H33.6715V3.35789V4.81441V16.4666V19.3796H30.7827V16.4666H29.3383V15.0101H27.8939V13.5536H26.4494V12.097H25.005V10.6405H23.5606V9.18398H22.1162V7.72746H20.6718V12.097V19.3796H19.2274H17.783V17.9231V16.4666V15.0101V12.097V10.6405V9.18398V7.72746V6.27094V4.81441V3.35789V1.90137H19.2274H20.6718V3.35789H22.1162V4.81441H23.5606V6.27094H25.005V7.72746H26.4494V9.18398H27.8939V10.6405H29.3383V12.097H30.7827V7.72746Z" fill="white"/>
<path d="M52.4566 3.35789V4.81441V7.72746V10.6405V12.097V13.5536H51.0122V15.0101H49.5678V16.4666H48.1234V17.9231H46.6789V19.3796H42.3457V17.9231H40.9013V16.4666H39.4569V15.0101H38.0125V13.5536H36.568V12.097V10.6405V7.72746V4.81441V3.35789V1.90137H38.0125H39.4569V3.35789V4.81441V10.6405V12.097H40.9013V13.5536H42.3457V15.0101H43.7901V16.4666H45.2345V15.0101H46.6789V13.5536H48.1234V12.097H49.5678V10.6405V4.81441V3.35789V1.90137H51.0122H52.4566V3.35789Z" fill="white"/>
<path d="M55.3531 4.81441V3.35789V1.90137H56.7975H58.242H62.5752H71.2417V4.81441H69.7973H68.3529H65.464H64.0196H62.5752H59.6864H58.242V9.18398H68.3529V12.097H58.242V16.4666H59.6864H62.5752H64.0196H65.464H68.3529H69.7973H71.2417V19.3796H62.5752H58.242H56.7975H55.3531V17.9231V16.4666V15.0101V12.097V10.6405V9.18398V7.72746V6.27094V4.81441Z" fill="white"/>
<path d="M87.1379 7.72746V3.35789V1.90137H90.0267V3.35789V4.81441V16.4666V19.3796H87.1379V16.4666H85.6935V15.0101H84.2491V13.5536H82.8047V12.097H81.3603V10.6405H79.9159V9.18398H78.4715V7.72746H77.027V12.097V19.3796H75.5826H74.1382V17.9231V16.4666V15.0101V12.097V10.6405V9.18398V7.72746V6.27094V4.81441V3.35789V1.90137H75.5826H77.027V3.35789H78.4715V4.81441H79.9159V6.27094H81.3603V7.72746H82.8047V9.18398H84.2491V10.6405H85.6935V12.097H87.1379V7.72746Z" fill="white"/>
<path d="M92.9233 4.81441V3.35789V1.90137H94.3677H95.8121H100.145H107.367V4.81441H105.923H104.479H101.59V12.097V19.3796H98.7009V12.097V4.81441H97.2565H92.9233Z" fill="white"/>
<path d="M118.93 4.81441H117.486H116.042V6.27094H114.597V7.72746V9.18398V12.097V13.5536V15.0101H116.042V16.4666H117.486H118.93H120.375H121.819H123.264V15.0101H124.708V13.5536V12.097V7.72746V6.27094H123.264V4.81441H121.819H120.375H118.93ZM127.597 12.097V16.4666H126.152V17.9231H124.708V19.3796H120.375H118.93H114.597V17.9231H113.153V16.4666H111.708V13.5536V12.097V10.6405V9.18398V4.81441H113.153V3.35789H114.597V1.90137H117.486H118.93H120.375H124.708V3.35789H126.152V4.81441H127.597V7.72746V12.097Z" fill="white"/>
<path d="M130.493 4.81441V3.35789V1.90137H131.938H133.382H137.716H143.493V3.35789H144.938V4.81441H146.382V7.72746V9.18398V10.6405H144.938V12.097H143.493V13.5536V15.0101H144.938V16.4666H146.382V17.9231V19.3796H143.493V17.9231H142.049V16.4666H140.604V15.0101H139.16V13.5536H137.716H133.382V19.3796H130.493V13.5536V12.097V10.6405V9.18398V7.72746V6.27094V4.81441ZM137.716 4.81441H134.827H133.382V9.18398V10.6405H134.827H136.271H137.716H139.16H140.604H142.049V9.18398H143.493V7.72746V6.27094H142.049V4.81441H140.604H139.16H137.716Z" fill="white"/>
<path d="M163.723 3.35789V4.81441V6.27094V7.72746H162.278V9.18398H160.834V10.6405H159.389V12.097H157.945V13.5536V19.3796H155.056V13.5536V12.097H153.612V10.6405H152.167V9.18398H150.723V7.72746H149.279V6.27094V4.81441V3.35789V1.90137H150.723H152.167V3.35789V4.81441V6.27094H153.612V7.72746H155.056V9.18398H156.501H157.945V7.72746H159.389V6.27094H160.834V4.81441V3.35789V1.90137H162.278H163.723V3.35789Z" fill="white"/>
<path d="M10.5532 16.4666H11.5532V15.4666H10.5532V16.4666ZM10.5532 19.3796V20.3796H11.5532V19.3796H10.5532ZM1.88672 19.3796H0.886719V20.3796H1.88672V19.3796ZM1.88672 16.4666V15.4666H0.886719V16.4666H1.88672ZM4.77555 16.4666V17.4666H5.77555V16.4666H4.77555ZM4.77555 4.81441H5.77555V3.81441H4.77555V4.81441ZM1.88672 4.81441H0.886719V5.81441H1.88672V4.81441ZM1.88672 1.90137V0.901367H0.886719V1.90137H1.88672ZM10.5532 1.90137H11.5532V0.901367H10.5532V1.90137ZM10.5532 4.81441V5.81441H11.5532V4.81441H10.5532ZM7.66437 4.81441V3.81441H6.66437V4.81441H7.66437ZM7.66437 16.4666H6.66437V17.4666H7.66437V16.4666ZM30.7827 1.90137V0.901367H29.7827V1.90137H30.7827ZM33.6715 1.90137H34.6715V0.901367H33.6715V1.90137ZM33.6715 19.3796V20.3796H34.6715V19.3796H33.6715ZM30.7827 19.3796H29.7827V20.3796H30.7827V19.3796ZM30.7827 16.4666H31.7827V15.4666H30.7827V16.4666ZM29.3383 16.4666H28.3383V17.4666H29.3383V16.4666ZM29.3383 15.0101H30.3383V14.0101H29.3383V15.0101ZM27.8939 15.0101H26.8939V16.0101H27.8939V15.0101ZM27.8939 13.5536H28.8939V12.5536H27.8939V13.5536ZM26.4494 13.5536H25.4494V14.5536H26.4494V13.5536ZM26.4494 12.097H27.4494V11.097H26.4494V12.097ZM25.005 12.097H24.005V13.097H25.005V12.097ZM25.005 10.6405H26.005V9.64051H25.005V10.6405ZM23.5606 10.6405H22.5606V11.6405H23.5606V10.6405ZM23.5606 9.18398H24.5606V8.18398H23.5606V9.18398ZM22.1162 9.18398H21.1162V10.184H22.1162V9.18398ZM22.1162 7.72746H23.1162V6.72746H22.1162V7.72746ZM20.6718 7.72746V6.72746H19.6718V7.72746H20.6718ZM20.6718 19.3796V20.3796H21.6718V19.3796H20.6718ZM17.783 19.3796H16.783V20.3796H17.783V19.3796ZM17.783 1.90137V0.901367H16.783V1.90137H17.783ZM20.6718 1.90137H21.6718V0.901367H20.6718V1.90137ZM20.6718 3.35789H19.6718V4.35789H20.6718V3.35789ZM22.1162 3.35789H23.1162V2.35789H22.1162V3.35789ZM22.1162 4.81441H21.1162V5.81441H22.1162V4.81441ZM23.5606 4.81441H24.5606V3.81441H23.5606V4.81441ZM23.5606 6.27094H22.5606V7.27094H23.5606V6.27094ZM25.005 6.27094H26.005V5.27094H25.005V6.27094ZM25.005 7.72746H24.005V8.72746H25.005V7.72746ZM26.4494 7.72746H27.4494V6.72746H26.4494V7.72746ZM26.4494 9.18398H25.4494V10.184H26.4494V9.18398ZM27.8939 9.18398H28.8939V8.18398H27.8939V9.18398ZM27.8939 10.6405H26.8939V11.6405H27.8939V10.6405ZM29.3383 10.6405H30.3383V9.64051H29.3383V10.6405ZM29.3383 12.097H28.3383V13.097H29.3383V12.097ZM30.7827 12.097V13.097H31.7827V12.097H30.7827ZM52.4566 13.5536V14.5536H53.4566V13.5536H52.4566ZM51.0122 13.5536V12.5536H50.0122V13.5536H51.0122ZM51.0122 15.0101V16.0101H52.0122V15.0101H51.0122ZM49.5678 15.0101V14.0101H48.5678V15.0101H49.5678ZM49.5678 16.4666V17.4666H50.5678V16.4666H49.5678ZM48.1234 16.4666V15.4666H47.1234V16.4666H48.1234ZM48.1234 17.9231V18.9231H49.1234V17.9231H48.1234ZM46.6789 17.9231V16.9231H45.6789V17.9231H46.6789ZM46.6789 19.3796V20.3796H47.6789V19.3796H46.6789ZM42.3457 19.3796H41.3457V20.3796H42.3457V19.3796ZM42.3457 17.9231H43.3457V16.9231H42.3457V17.9231ZM40.9013 17.9231H39.9013V18.9231H40.9013V17.9231ZM40.9013 16.4666H41.9013V15.4666H40.9013V16.4666ZM39.4569 16.4666H38.4569V17.4666H39.4569V16.4666ZM39.4569 15.0101H40.4569V14.0101H39.4569V15.0101ZM38.0125 15.0101H37.0125V16.0101H38.0125V15.0101ZM38.0125 13.5536H39.0125V12.5536H38.0125V13.5536ZM36.568 13.5536H35.568V14.5536H36.568V13.5536ZM36.568 1.90137V0.901367H35.568V1.90137H36.568ZM39.4569 1.90137H40.4569V0.901367H39.4569V1.90137ZM39.4569 12.097H38.4569V13.097H39.4569V12.097ZM40.9013 12.097H41.9013V11.097H40.9013V12.097ZM40.9013 13.5536H39.9013V14.5536H40.9013V13.5536ZM42.3457 13.5536H43.3457V12.5536H42.3457V13.5536ZM42.3457 15.0101H41.3457V16.0101H42.3457V15.0101ZM43.7901 15.0101H44.7901V14.0101H43.7901V15.0101ZM43.7901 16.4666H42.7901V17.4666H43.7901V16.4666ZM45.2345 16.4666V17.4666H46.2345V16.4666H45.2345ZM45.2345 15.0101V14.0101H44.2345V15.0101H45.2345ZM46.6789 15.0101V16.0101H47.6789V15.0101H46.6789ZM46.6789 13.5536V12.5536H45.6789V13.5536H46.6789ZM48.1234 13.5536V14.5536H49.1234V13.5536H48.1234ZM48.1234 12.097V11.097H47.1234V12.097H48.1234ZM49.5678 12.097V13.097H50.5678V12.097H49.5678ZM49.5678 1.90137V0.901367H48.5678V1.90137H49.5678ZM52.4566 1.90137H53.4566V0.901367H52.4566V1.90137ZM55.3531 1.90137V0.901367H54.3531V1.90137H55.3531ZM71.2417 1.90137H72.2417V0.901367H71.2417V1.90137ZM71.2417 4.81441V5.81441H72.2417V4.81441H71.2417ZM58.242 4.81441V3.81441H57.242V4.81441H58.242ZM58.242 9.18398H57.242V10.184H58.242V9.18398ZM68.3529 9.18398H69.3529V8.18398H68.3529V9.18398ZM68.3529 12.097V13.097H69.3529V12.097H68.3529ZM58.242 12.097V11.097H57.242V12.097H58.242ZM58.242 16.4666H57.242V17.4666H58.242V16.4666ZM71.2417 16.4666H72.2417V15.4666H71.2417V16.4666ZM71.2417 19.3796V20.3796H72.2417V19.3796H71.2417ZM55.3531 19.3796H54.3531V20.3796H55.3531V19.3796ZM87.1379 1.90137V0.901367H86.1379V1.90137H87.1379ZM90.0267 1.90137H91.0267V0.901367H90.0267V1.90137ZM90.0267 19.3796V20.3796H91.0267V19.3796H90.0267ZM87.1379 19.3796H86.1379V20.3796H87.1379V19.3796ZM87.1379 16.4666H88.1379V15.4666H87.1379V16.4666ZM85.6935 16.4666H84.6935V17.4666H85.6935V16.4666ZM85.6935 15.0101H86.6935V14.0101H85.6935V15.0101ZM84.2491 15.0101H83.2491V16.0101H84.2491V15.0101ZM84.2491 13.5536H85.2491V12.5536H84.2491V13.5536ZM82.8047 13.5536H81.8047V14.5536H82.8047V13.5536ZM82.8047 12.097H83.8047V11.097H82.8047V12.097ZM81.3603 12.097H80.3603V13.097H81.3603V12.097ZM81.3603 10.6405H82.3603V9.64051H81.3603V10.6405ZM79.9159 10.6405H78.9159V11.6405H79.9159V10.6405ZM79.9159 9.18398H80.9159V8.18398H79.9159V9.18398ZM78.4715 9.18398H77.4715V10.184H78.4715V9.18398ZM78.4715 7.72746H79.4715V6.72746H78.4715V7.72746ZM77.027 7.72746V6.72746H76.027V7.72746H77.027ZM77.027 19.3796V20.3796H78.027V19.3796H77.027ZM74.1382 19.3796H73.1382V20.3796H74.1382V19.3796ZM74.1382 1.90137V0.901367H73.1382V1.90137H74.1382ZM77.027 1.90137H78.027V0.901367H77.027V1.90137ZM77.027 3.35789H76.027V4.35789H77.027V3.35789ZM78.4715 3.35789H79.4715V2.35789H78.4715V3.35789ZM78.4715 4.81441H77.4715V5.81441H78.4715V4.81441ZM79.9159 4.81441H80.9159V3.81441H79.9159V4.81441ZM79.9159 6.27094H78.9159V7.27094H79.9159V6.27094ZM81.3603 6.27094H82.3603V5.27094H81.3603V6.27094ZM81.3603 7.72746H80.3603V8.72746H81.3603V7.72746ZM82.8047 7.72746H83.8047V6.72746H82.8047V7.72746ZM82.8047 9.18398H81.8047V10.184H82.8047V9.18398ZM84.2491 9.18398H85.2491V8.18398H84.2491V9.18398ZM84.2491 10.6405H83.2491V11.6405H84.2491V10.6405ZM85.6935 10.6405H86.6935V9.64051H85.6935V10.6405ZM85.6935 12.097H84.6935V13.097H85.6935V12.097ZM87.1379 12.097V13.097H88.1379V12.097H87.1379ZM92.9233 4.81441H91.9233V5.81441H92.9233V4.81441ZM92.9233 1.90137V0.901367H91.9233V1.90137H92.9233ZM107.367 1.90137H108.367V0.901367H107.367V1.90137ZM107.367 4.81441V5.81441H108.367V4.81441H107.367ZM101.59 4.81441V3.81441H100.59V4.81441H101.59ZM101.59 19.3796V20.3796H102.59V19.3796H101.59ZM98.7009 19.3796H97.7009V20.3796H98.7009V19.3796ZM98.7009 4.81441H99.7009V3.81441H98.7009V4.81441ZM116.042 4.81441V3.81441H115.042V4.81441H116.042ZM116.042 6.27094V7.27094H117.042V6.27094H116.042ZM114.597 6.27094V5.27094H113.597V6.27094H114.597ZM114.597 15.0101H113.597V16.0101H114.597V15.0101ZM116.042 15.0101H117.042V14.0101H116.042V15.0101ZM116.042 16.4666H115.042V17.4666H116.042V16.4666ZM123.264 16.4666V17.4666H124.264V16.4666H123.264ZM123.264 15.0101V14.0101H122.264V15.0101H123.264ZM124.708 15.0101V16.0101H125.708V15.0101H124.708ZM124.708 6.27094H125.708V5.27094H124.708V6.27094ZM123.264 6.27094H122.264V7.27094H123.264V6.27094ZM123.264 4.81441H124.264V3.81441H123.264V4.81441ZM127.597 16.4666V17.4666H128.597V16.4666H127.597ZM126.152 16.4666V15.4666H125.152V16.4666H126.152ZM126.152 17.9231V18.9231H127.152V17.9231H126.152ZM124.708 17.9231V16.9231H123.708V17.9231H124.708ZM124.708 19.3796V20.3796H125.708V19.3796H124.708ZM114.597 19.3796H113.597V20.3796H114.597V19.3796ZM114.597 17.9231H115.597V16.9231H114.597V17.9231ZM113.153 17.9231H112.153V18.9231H113.153V17.9231ZM113.153 16.4666H114.153V15.4666H113.153V16.4666ZM111.708 16.4666H110.708V17.4666H111.708V16.4666ZM111.708 4.81441V3.81441H110.708V4.81441H111.708ZM113.153 4.81441V5.81441H114.153V4.81441H113.153ZM113.153 3.35789V2.35789H112.153V3.35789H113.153ZM114.597 3.35789V4.35789H115.597V3.35789H114.597ZM114.597 1.90137V0.901367H113.597V1.90137H114.597ZM124.708 1.90137H125.708V0.901367H124.708V1.90137ZM124.708 3.35789H123.708V4.35789H124.708V3.35789ZM126.152 3.35789H127.152V2.35789H126.152V3.35789ZM126.152 4.81441H125.152V5.81441H126.152V4.81441ZM127.597 4.81441H128.597V3.81441H127.597V4.81441ZM130.493 1.90137V0.901367H129.493V1.90137H130.493ZM143.493 1.90137H144.493V0.901367H143.493V1.90137ZM143.493 3.35789H142.493V4.35789H143.493V3.35789ZM144.938 3.35789H145.938V2.35789H144.938V3.35789ZM144.938 4.81441H143.938V5.81441H144.938V4.81441ZM146.382 4.81441H147.382V3.81441H146.382V4.81441ZM146.382 10.6405V11.6405H147.382V10.6405H146.382ZM144.938 10.6405V9.64051H143.938V10.6405H144.938ZM144.938 12.097V13.097H145.938V12.097H144.938ZM143.493 12.097V11.097H142.493V12.097H143.493ZM143.493 15.0101H142.493V16.0101H143.493V15.0101ZM144.938 15.0101H145.938V14.0101H144.938V15.0101ZM144.938 16.4666H143.938V17.4666H144.938V16.4666ZM146.382 16.4666H147.382V15.4666H146.382V16.4666ZM146.382 19.3796V20.3796H147.382V19.3796H146.382ZM143.493 19.3796H142.493V20.3796H143.493V19.3796ZM143.493 17.9231H144.493V16.9231H143.493V17.9231ZM142.049 17.9231H141.049V18.9231H142.049V17.9231ZM142.049 16.4666H143.049V15.4666H142.049V16.4666ZM140.604 16.4666H139.604V17.4666H140.604V16.4666ZM140.604 15.0101H141.604V14.0101H140.604V15.0101ZM139.16 15.0101H138.16V16.0101H139.16V15.0101ZM139.16 13.5536H140.16V12.5536H139.16V13.5536ZM133.382 13.5536V12.5536H132.382V13.5536H133.382ZM133.382 19.3796V20.3796H134.382V19.3796H133.382ZM130.493 19.3796H129.493V20.3796H130.493V19.3796ZM133.382 4.81441V3.81441H132.382V4.81441H133.382ZM133.382 10.6405H132.382V11.6405H133.382V10.6405ZM142.049 10.6405V11.6405H143.049V10.6405H142.049ZM142.049 9.18398V8.18398H141.049V9.18398H142.049ZM143.493 9.18398V10.184H144.493V9.18398H143.493ZM143.493 6.27094H144.493V5.27094H143.493V6.27094ZM142.049 6.27094H141.049V7.27094H142.049V6.27094ZM142.049 4.81441H143.049V3.81441H142.049V4.81441ZM163.723 7.72746V8.72746H164.723V7.72746H163.723ZM162.278 7.72746V6.72746H161.278V7.72746H162.278ZM162.278 9.18398V10.184H163.278V9.18398H162.278ZM160.834 9.18398V8.18398H159.834V9.18398H160.834ZM160.834 10.6405V11.6405H161.834V10.6405H160.834ZM159.389 10.6405V9.64051H158.389V10.6405H159.389ZM159.389 12.097V13.097H160.389V12.097H159.389ZM157.945 12.097V11.097H156.945V12.097H157.945ZM157.945 19.3796V20.3796H158.945V19.3796H157.945ZM155.056 19.3796H154.056V20.3796H155.056V19.3796ZM155.056 12.097H156.056V11.097H155.056V12.097ZM153.612 12.097H152.612V13.097H153.612V12.097ZM153.612 10.6405H154.612V9.64051H153.612V10.6405ZM152.167 10.6405H151.167V11.6405H152.167V10.6405ZM152.167 9.18398H153.167V8.18398H152.167V9.18398ZM150.723 9.18398H149.723V10.184H150.723V9.18398ZM150.723 7.72746H151.723V6.72746H150.723V7.72746ZM149.279 7.72746H148.279V8.72746H149.279V7.72746ZM149.279 1.90137V0.901367H148.279V1.90137H149.279ZM152.167 1.90137H153.167V0.901367H152.167V1.90137ZM152.167 6.27094H151.167V7.27094H152.167V6.27094ZM153.612 6.27094H154.612V5.27094H153.612V6.27094ZM153.612 7.72746H152.612V8.72746H153.612V7.72746ZM155.056 7.72746H156.056V6.72746H155.056V7.72746ZM155.056 9.18398H154.056V10.184H155.056V9.18398ZM157.945 9.18398V10.184H158.945V9.18398H157.945ZM157.945 7.72746V6.72746H156.945V7.72746H157.945ZM159.389 7.72746V8.72746H160.389V7.72746H159.389ZM159.389 6.27094V5.27094H158.389V6.27094H159.389ZM160.834 6.27094V7.27094H161.834V6.27094H160.834ZM160.834 1.90137V0.901367H159.834V1.90137H160.834ZM163.723 1.90137H164.723V0.901367H163.723V1.90137ZM9.5532 16.4666V19.3796H11.5532V16.4666H9.5532ZM10.5532 18.3796H9.10879V20.3796H10.5532V18.3796ZM9.10879 18.3796H7.66437V20.3796H9.10879V18.3796ZM7.66437 18.3796H4.77555V20.3796H7.66437V18.3796ZM4.77555 18.3796H3.33113V20.3796H4.77555V18.3796ZM3.33113 18.3796H1.88672V20.3796H3.33113V18.3796ZM2.88672 19.3796V16.4666H0.886719V19.3796H2.88672ZM1.88672 17.4666H3.33113V15.4666H1.88672V17.4666ZM3.33113 17.4666H4.77555V15.4666H3.33113V17.4666ZM5.77555 16.4666V7.72746H3.77555V16.4666H5.77555ZM5.77555 7.72746V4.81441H3.77555V7.72746H5.77555ZM4.77555 3.81441H3.33113V5.81441H4.77555V3.81441ZM3.33113 3.81441H1.88672V5.81441H3.33113V3.81441ZM2.88672 4.81441V1.90137H0.886719V4.81441H2.88672ZM1.88672 2.90137H3.33113V0.901367H1.88672V2.90137ZM3.33113 2.90137H4.77555V0.901367H3.33113V2.90137ZM4.77555 2.90137H6.21996V0.901367H4.77555V2.90137ZM6.21996 2.90137H7.66437V0.901367H6.21996V2.90137ZM7.66437 2.90137H9.10879V0.901367H7.66437V2.90137ZM9.10879 2.90137H10.5532V0.901367H9.10879V2.90137ZM9.5532 1.90137V4.81441H11.5532V1.90137H9.5532ZM10.5532 3.81441H9.10879V5.81441H10.5532V3.81441ZM9.10879 3.81441H7.66437V5.81441H9.10879V3.81441ZM6.66437 4.81441V16.4666H8.66437V4.81441H6.66437ZM7.66437 17.4666H9.10879V15.4666H7.66437V17.4666ZM9.10879 17.4666H10.5532V15.4666H9.10879V17.4666ZM31.7827 7.72746V3.35789H29.7827V7.72746H31.7827ZM31.7827 3.35789V1.90137H29.7827V3.35789H31.7827ZM30.7827 2.90137H33.6715V0.901367H30.7827V2.90137ZM32.6715 1.90137V3.35789H34.6715V1.90137H32.6715ZM32.6715 3.35789V4.81441H34.6715V3.35789H32.6715ZM32.6715 4.81441V16.4666H34.6715V4.81441H32.6715ZM32.6715 16.4666V19.3796H34.6715V16.4666H32.6715ZM33.6715 18.3796H30.7827V20.3796H33.6715V18.3796ZM31.7827 19.3796V16.4666H29.7827V19.3796H31.7827ZM30.7827 15.4666H29.3383V17.4666H30.7827V15.4666ZM30.3383 16.4666V15.0101H28.3383V16.4666H30.3383ZM29.3383 14.0101H27.8939V16.0101H29.3383V14.0101ZM28.8939 15.0101V13.5536H26.8939V15.0101H28.8939ZM27.8939 12.5536H26.4494V14.5536H27.8939V12.5536ZM27.4494 13.5536V12.097H25.4494V13.5536H27.4494ZM26.4494 11.097H25.005V13.097H26.4494V11.097ZM26.005 12.097V10.6405H24.005V12.097H26.005ZM25.005 9.64051H23.5606V11.6405H25.005V9.64051ZM24.5606 10.6405V9.18398H22.5606V10.6405H24.5606ZM23.5606 8.18398H22.1162V10.184H23.5606V8.18398ZM23.1162 9.18398V7.72746H21.1162V9.18398H23.1162ZM22.1162 6.72746H20.6718V8.72746H22.1162V6.72746ZM19.6718 7.72746V12.097H21.6718V7.72746H19.6718ZM19.6718 12.097V19.3796H21.6718V12.097H19.6718ZM20.6718 18.3796H19.2274V20.3796H20.6718V18.3796ZM19.2274 18.3796H17.783V20.3796H19.2274V18.3796ZM18.783 19.3796V17.9231H16.783V19.3796H18.783ZM18.783 17.9231V16.4666H16.783V17.9231H18.783ZM18.783 16.4666V15.0101H16.783V16.4666H18.783ZM18.783 15.0101V12.097H16.783V15.0101H18.783ZM18.783 12.097V10.6405H16.783V12.097H18.783ZM18.783 10.6405V9.18398H16.783V10.6405H18.783ZM18.783 9.18398V7.72746H16.783V9.18398H18.783ZM18.783 7.72746V6.27094H16.783V7.72746H18.783ZM18.783 6.27094V4.81441H16.783V6.27094H18.783ZM18.783 4.81441V3.35789H16.783V4.81441H18.783ZM18.783 3.35789V1.90137H16.783V3.35789H18.783ZM17.783 2.90137H19.2274V0.901367H17.783V2.90137ZM19.2274 2.90137H20.6718V0.901367H19.2274V2.90137ZM19.6718 1.90137V3.35789H21.6718V1.90137H19.6718ZM20.6718 4.35789H22.1162V2.35789H20.6718V4.35789ZM21.1162 3.35789V4.81441H23.1162V3.35789H21.1162ZM22.1162 5.81441H23.5606V3.81441H22.1162V5.81441ZM22.5606 4.81441V6.27094H24.5606V4.81441H22.5606ZM23.5606 7.27094H25.005V5.27094H23.5606V7.27094ZM24.005 6.27094V7.72746H26.005V6.27094H24.005ZM25.005 8.72746H26.4494V6.72746H25.005V8.72746ZM25.4494 7.72746V9.18398H27.4494V7.72746H25.4494ZM26.4494 10.184H27.8939V8.18398H26.4494V10.184ZM26.8939 9.18398V10.6405H28.8939V9.18398H26.8939ZM27.8939 11.6405H29.3383V9.64051H27.8939V11.6405ZM28.3383 10.6405V12.097H30.3383V10.6405H28.3383ZM29.3383 13.097H30.7827V11.097H29.3383V13.097ZM31.7827 12.097V7.72746H29.7827V12.097H31.7827ZM51.4566 3.35789V4.81441H53.4566V3.35789H51.4566ZM51.4566 4.81441V7.72746H53.4566V4.81441H51.4566ZM51.4566 7.72746V10.6405H53.4566V7.72746H51.4566ZM51.4566 10.6405V12.097H53.4566V10.6405H51.4566ZM51.4566 12.097V13.5536H53.4566V12.097H51.4566ZM52.4566 12.5536H51.0122V14.5536H52.4566V12.5536ZM50.0122 13.5536V15.0101H52.0122V13.5536H50.0122ZM51.0122 14.0101H49.5678V16.0101H51.0122V14.0101ZM48.5678 15.0101V16.4666H50.5678V15.0101H48.5678ZM49.5678 15.4666H48.1234V17.4666H49.5678V15.4666ZM47.1234 16.4666V17.9231H49.1234V16.4666H47.1234ZM48.1234 16.9231H46.6789V18.9231H48.1234V16.9231ZM45.6789 17.9231V19.3796H47.6789V17.9231H45.6789ZM46.6789 18.3796H42.3457V20.3796H46.6789V18.3796ZM43.3457 19.3796V17.9231H41.3457V19.3796H43.3457ZM42.3457 16.9231H40.9013V18.9231H42.3457V16.9231ZM41.9013 17.9231V16.4666H39.9013V17.9231H41.9013ZM40.9013 15.4666H39.4569V17.4666H40.9013V15.4666ZM40.4569 16.4666V15.0101H38.4569V16.4666H40.4569ZM39.4569 14.0101H38.0125V16.0101H39.4569V14.0101ZM39.0125 15.0101V13.5536H37.0125V15.0101H39.0125ZM38.0125 12.5536H36.568V14.5536H38.0125V12.5536ZM37.568 13.5536V12.097H35.568V13.5536H37.568ZM37.568 12.097V10.6405H35.568V12.097H37.568ZM37.568 10.6405V7.72746H35.568V10.6405H37.568ZM37.568 7.72746V4.81441H35.568V7.72746H37.568ZM37.568 4.81441V3.35789H35.568V4.81441H37.568ZM37.568 3.35789V1.90137H35.568V3.35789H37.568ZM36.568 2.90137H38.0125V0.901367H36.568V2.90137ZM38.0125 2.90137H39.4569V0.901367H38.0125V2.90137ZM38.4569 1.90137V3.35789H40.4569V1.90137H38.4569ZM38.4569 3.35789V4.81441H40.4569V3.35789H38.4569ZM38.4569 4.81441V10.6405H40.4569V4.81441H38.4569ZM38.4569 10.6405V12.097H40.4569V10.6405H38.4569ZM39.4569 13.097H40.9013V11.097H39.4569V13.097ZM39.9013 12.097V13.5536H41.9013V12.097H39.9013ZM40.9013 14.5536H42.3457V12.5536H40.9013V14.5536ZM41.3457 13.5536V15.0101H43.3457V13.5536H41.3457ZM42.3457 16.0101H43.7901V14.0101H42.3457V16.0101ZM42.7901 15.0101V16.4666H44.7901V15.0101H42.7901ZM43.7901 17.4666H45.2345V15.4666H43.7901V17.4666ZM46.2345 16.4666V15.0101H44.2345V16.4666H46.2345ZM45.2345 16.0101H46.6789V14.0101H45.2345V16.0101ZM47.6789 15.0101V13.5536H45.6789V15.0101H47.6789ZM46.6789 14.5536H48.1234V12.5536H46.6789V14.5536ZM49.1234 13.5536V12.097H47.1234V13.5536H49.1234ZM48.1234 13.097H49.5678V11.097H48.1234V13.097ZM50.5678 12.097V10.6405H48.5678V12.097H50.5678ZM50.5678 10.6405V4.81441H48.5678V10.6405H50.5678ZM50.5678 4.81441V3.35789H48.5678V4.81441H50.5678ZM50.5678 3.35789V1.90137H48.5678V3.35789H50.5678ZM49.5678 2.90137H51.0122V0.901367H49.5678V2.90137ZM51.0122 2.90137H52.4566V0.901367H51.0122V2.90137ZM51.4566 1.90137V3.35789H53.4566V1.90137H51.4566ZM56.3531 4.81441V3.35789H54.3531V4.81441H56.3531ZM56.3531 3.35789V1.90137H54.3531V3.35789H56.3531ZM55.3531 2.90137H56.7975V0.901367H55.3531V2.90137ZM56.7975 2.90137H58.242V0.901367H56.7975V2.90137ZM58.242 2.90137H62.5752V0.901367H58.242V2.90137ZM62.5752 2.90137H71.2417V0.901367H62.5752V2.90137ZM70.2417 1.90137V4.81441H72.2417V1.90137H70.2417ZM71.2417 3.81441H69.7973V5.81441H71.2417V3.81441ZM69.7973 3.81441H68.3529V5.81441H69.7973V3.81441ZM68.3529 3.81441H65.464V5.81441H68.3529V3.81441ZM65.464 3.81441H64.0196V5.81441H65.464V3.81441ZM64.0196 3.81441H62.5752V5.81441H64.0196V3.81441ZM62.5752 3.81441H59.6864V5.81441H62.5752V3.81441ZM59.6864 3.81441H58.242V5.81441H59.6864V3.81441ZM57.242 4.81441V9.18398H59.242V4.81441H57.242ZM58.242 10.184H68.3529V8.18398H58.242V10.184ZM67.3529 9.18398V12.097H69.3529V9.18398H67.3529ZM68.3529 11.097H58.242V13.097H68.3529V11.097ZM57.242 12.097V16.4666H59.242V12.097H57.242ZM58.242 17.4666H59.6864V15.4666H58.242V17.4666ZM59.6864 17.4666H62.5752V15.4666H59.6864V17.4666ZM62.5752 17.4666H64.0196V15.4666H62.5752V17.4666ZM64.0196 17.4666H65.464V15.4666H64.0196V17.4666ZM65.464 17.4666H68.3529V15.4666H65.464V17.4666ZM68.3529 17.4666H69.7973V15.4666H68.3529V17.4666ZM69.7973 17.4666H71.2417V15.4666H69.7973V17.4666ZM70.2417 16.4666V19.3796H72.2417V16.4666H70.2417ZM71.2417 18.3796H62.5752V20.3796H71.2417V18.3796ZM62.5752 18.3796H58.242V20.3796H62.5752V18.3796ZM58.242 18.3796H56.7975V20.3796H58.242V18.3796ZM56.7975 18.3796H55.3531V20.3796H56.7975V18.3796ZM56.3531 19.3796V17.9231H54.3531V19.3796H56.3531ZM56.3531 17.9231V16.4666H54.3531V17.9231H56.3531ZM56.3531 16.4666V15.0101H54.3531V16.4666H56.3531ZM56.3531 15.0101V12.097H54.3531V15.0101H56.3531ZM56.3531 12.097V10.6405H54.3531V12.097H56.3531ZM56.3531 10.6405V9.18398H54.3531V10.6405H56.3531ZM56.3531 9.18398V7.72746H54.3531V9.18398H56.3531ZM56.3531 7.72746V6.27094H54.3531V7.72746H56.3531ZM56.3531 6.27094V4.81441H54.3531V6.27094H56.3531ZM88.1379 7.72746V3.35789H86.1379V7.72746H88.1379ZM88.1379 3.35789V1.90137H86.1379V3.35789H88.1379ZM87.1379 2.90137H90.0267V0.901367H87.1379V2.90137ZM89.0267 1.90137V3.35789H91.0267V1.90137H89.0267ZM89.0267 3.35789V4.81441H91.0267V3.35789H89.0267ZM89.0267 4.81441V16.4666H91.0267V4.81441H89.0267ZM89.0267 16.4666V19.3796H91.0267V16.4666H89.0267ZM90.0267 18.3796H87.1379V20.3796H90.0267V18.3796ZM88.1379 19.3796V16.4666H86.1379V19.3796H88.1379ZM87.1379 15.4666H85.6935V17.4666H87.1379V15.4666ZM86.6935 16.4666V15.0101H84.6935V16.4666H86.6935ZM85.6935 14.0101H84.2491V16.0101H85.6935V14.0101ZM85.2491 15.0101V13.5536H83.2491V15.0101H85.2491ZM84.2491 12.5536H82.8047V14.5536H84.2491V12.5536ZM83.8047 13.5536V12.097H81.8047V13.5536H83.8047ZM82.8047 11.097H81.3603V13.097H82.8047V11.097ZM82.3603 12.097V10.6405H80.3603V12.097H82.3603ZM81.3603 9.64051H79.9159V11.6405H81.3603V9.64051ZM80.9159 10.6405V9.18398H78.9159V10.6405H80.9159ZM79.9159 8.18398H78.4715V10.184H79.9159V8.18398ZM79.4715 9.18398V7.72746H77.4715V9.18398H79.4715ZM78.4715 6.72746H77.027V8.72746H78.4715V6.72746ZM76.027 7.72746V12.097H78.027V7.72746H76.027ZM76.027 12.097V19.3796H78.027V12.097H76.027ZM77.027 18.3796H75.5826V20.3796H77.027V18.3796ZM75.5826 18.3796H74.1382V20.3796H75.5826V18.3796ZM75.1382 19.3796V17.9231H73.1382V19.3796H75.1382ZM75.1382 17.9231V16.4666H73.1382V17.9231H75.1382ZM75.1382 16.4666V15.0101H73.1382V16.4666H75.1382ZM75.1382 15.0101V12.097H73.1382V15.0101H75.1382ZM75.1382 12.097V10.6405H73.1382V12.097H75.1382ZM75.1382 10.6405V9.18398H73.1382V10.6405H75.1382ZM75.1382 9.18398V7.72746H73.1382V9.18398H75.1382ZM75.1382 7.72746V6.27094H73.1382V7.72746H75.1382ZM75.1382 6.27094V4.81441H73.1382V6.27094H75.1382ZM75.1382 4.81441V3.35789H73.1382V4.81441H75.1382ZM75.1382 3.35789V1.90137H73.1382V3.35789H75.1382ZM74.1382 2.90137H75.5826V0.901367H74.1382V2.90137ZM75.5826 2.90137H77.027V0.901367H75.5826V2.90137ZM76.027 1.90137V3.35789H78.027V1.90137H76.027ZM77.027 4.35789H78.4715V2.35789H77.027V4.35789ZM77.4715 3.35789V4.81441H79.4715V3.35789H77.4715ZM78.4715 5.81441H79.9159V3.81441H78.4715V5.81441ZM78.9159 4.81441V6.27094H80.9159V4.81441H78.9159ZM79.9159 7.27094H81.3603V5.27094H79.9159V7.27094ZM80.3603 6.27094V7.72746H82.3603V6.27094H80.3603ZM81.3603 8.72746H82.8047V6.72746H81.3603V8.72746ZM81.8047 7.72746V9.18398H83.8047V7.72746H81.8047ZM82.8047 10.184H84.2491V8.18398H82.8047V10.184ZM83.2491 9.18398V10.6405H85.2491V9.18398H83.2491ZM84.2491 11.6405H85.6935V9.64051H84.2491V11.6405ZM84.6935 10.6405V12.097H86.6935V10.6405H84.6935ZM85.6935 13.097H87.1379V11.097H85.6935V13.097ZM88.1379 12.097V7.72746H86.1379V12.097H88.1379ZM93.9233 4.81441V3.35789H91.9233V4.81441H93.9233ZM93.9233 3.35789V1.90137H91.9233V3.35789H93.9233ZM92.9233 2.90137H94.3677V0.901367H92.9233V2.90137ZM94.3677 2.90137H95.8121V0.901367H94.3677V2.90137ZM95.8121 2.90137H100.145V0.901367H95.8121V2.90137ZM100.145 2.90137H107.367V0.901367H100.145V2.90137ZM106.367 1.90137V4.81441H108.367V1.90137H106.367ZM107.367 3.81441H105.923V5.81441H107.367V3.81441ZM105.923 3.81441H104.479V5.81441H105.923V3.81441ZM104.479 3.81441H101.59V5.81441H104.479V3.81441ZM100.59 4.81441V12.097H102.59V4.81441H100.59ZM100.59 12.097V19.3796H102.59V12.097H100.59ZM101.59 18.3796H98.7009V20.3796H101.59V18.3796ZM99.7009 19.3796V12.097H97.7009V19.3796H99.7009ZM99.7009 12.097V4.81441H97.7009V12.097H99.7009ZM98.7009 3.81441H97.2565V5.81441H98.7009V3.81441ZM97.2565 3.81441H92.9233V5.81441H97.2565V3.81441ZM118.93 3.81441H117.486V5.81441H118.93V3.81441ZM117.486 3.81441H116.042V5.81441H117.486V3.81441ZM115.042 4.81441V6.27094H117.042V4.81441H115.042ZM116.042 5.27094H114.597V7.27094H116.042V5.27094ZM113.597 6.27094V7.72746H115.597V6.27094H113.597ZM113.597 7.72746V9.18398H115.597V7.72746H113.597ZM113.597 9.18398V12.097H115.597V9.18398H113.597ZM113.597 12.097V13.5536H115.597V12.097H113.597ZM113.597 13.5536V15.0101H115.597V13.5536H113.597ZM114.597 16.0101H116.042V14.0101H114.597V16.0101ZM115.042 15.0101V16.4666H117.042V15.0101H115.042ZM116.042 17.4666H117.486V15.4666H116.042V17.4666ZM117.486 17.4666H118.93V15.4666H117.486V17.4666ZM118.93 17.4666H120.375V15.4666H118.93V17.4666ZM120.375 17.4666H121.819V15.4666H120.375V17.4666ZM121.819 17.4666H123.264V15.4666H121.819V17.4666ZM124.264 16.4666V15.0101H122.264V16.4666H124.264ZM123.264 16.0101H124.708V14.0101H123.264V16.0101ZM125.708 15.0101V13.5536H123.708V15.0101H125.708ZM125.708 13.5536V12.097H123.708V13.5536H125.708ZM125.708 12.097V7.72746H123.708V12.097H125.708ZM125.708 7.72746V6.27094H123.708V7.72746H125.708ZM124.708 5.27094H123.264V7.27094H124.708V5.27094ZM124.264 6.27094V4.81441H122.264V6.27094H124.264ZM123.264 3.81441H121.819V5.81441H123.264V3.81441ZM121.819 3.81441H120.375V5.81441H121.819V3.81441ZM120.375 3.81441H118.93V5.81441H120.375V3.81441ZM126.597 12.097V16.4666H128.597V12.097H126.597ZM127.597 15.4666H126.152V17.4666H127.597V15.4666ZM125.152 16.4666V17.9231H127.152V16.4666H125.152ZM126.152 16.9231H124.708V18.9231H126.152V16.9231ZM123.708 17.9231V19.3796H125.708V17.9231H123.708ZM124.708 18.3796H120.375V20.3796H124.708V18.3796ZM120.375 18.3796H118.93V20.3796H120.375V18.3796ZM118.93 18.3796H114.597V20.3796H118.93V18.3796ZM115.597 19.3796V17.9231H113.597V19.3796H115.597ZM114.597 16.9231H113.153V18.9231H114.597V16.9231ZM114.153 17.9231V16.4666H112.153V17.9231H114.153ZM113.153 15.4666H111.708V17.4666H113.153V15.4666ZM112.708 16.4666V13.5536H110.708V16.4666H112.708ZM112.708 13.5536V12.097H110.708V13.5536H112.708ZM112.708 12.097V10.6405H110.708V12.097H112.708ZM112.708 10.6405V9.18398H110.708V10.6405H112.708ZM112.708 9.18398V4.81441H110.708V9.18398H112.708ZM111.708 5.81441H113.153V3.81441H111.708V5.81441ZM114.153 4.81441V3.35789H112.153V4.81441H114.153ZM113.153 4.35789H114.597V2.35789H113.153V4.35789ZM115.597 3.35789V1.90137H113.597V3.35789H115.597ZM114.597 2.90137H117.486V0.901367H114.597V2.90137ZM117.486 2.90137H118.93V0.901367H117.486V2.90137ZM118.93 2.90137H120.375V0.901367H118.93V2.90137ZM120.375 2.90137H124.708V0.901367H120.375V2.90137ZM123.708 1.90137V3.35789H125.708V1.90137H123.708ZM124.708 4.35789H126.152V2.35789H124.708V4.35789ZM125.152 3.35789V4.81441H127.152V3.35789H125.152ZM126.152 5.81441H127.597V3.81441H126.152V5.81441ZM126.597 4.81441V7.72746H128.597V4.81441H126.597ZM126.597 7.72746V12.097H128.597V7.72746H126.597ZM131.493 4.81441V3.35789H129.493V4.81441H131.493ZM131.493 3.35789V1.90137H129.493V3.35789H131.493ZM130.493 2.90137H131.938V0.901367H130.493V2.90137ZM131.938 2.90137H133.382V0.901367H131.938V2.90137ZM133.382 2.90137H137.716V0.901367H133.382V2.90137ZM137.716 2.90137H143.493V0.901367H137.716V2.90137ZM142.493 1.90137V3.35789H144.493V1.90137H142.493ZM143.493 4.35789H144.938V2.35789H143.493V4.35789ZM143.938 3.35789V4.81441H145.938V3.35789H143.938ZM144.938 5.81441H146.382V3.81441H144.938V5.81441ZM145.382 4.81441V7.72746H147.382V4.81441H145.382ZM145.382 7.72746V9.18398H147.382V7.72746H145.382ZM145.382 9.18398V10.6405H147.382V9.18398H145.382ZM146.382 9.64051H144.938V11.6405H146.382V9.64051ZM143.938 10.6405V12.097H145.938V10.6405H143.938ZM144.938 11.097H143.493V13.097H144.938V11.097ZM142.493 12.097V13.5536H144.493V12.097H142.493ZM142.493 13.5536V15.0101H144.493V13.5536H142.493ZM143.493 16.0101H144.938V14.0101H143.493V16.0101ZM143.938 15.0101V16.4666H145.938V15.0101H143.938ZM144.938 17.4666H146.382V15.4666H144.938V17.4666ZM145.382 16.4666V17.9231H147.382V16.4666H145.382ZM145.382 17.9231V19.3796H147.382V17.9231H145.382ZM146.382 18.3796H143.493V20.3796H146.382V18.3796ZM144.493 19.3796V17.9231H142.493V19.3796H144.493ZM143.493 16.9231H142.049V18.9231H143.493V16.9231ZM143.049 17.9231V16.4666H141.049V17.9231H143.049ZM142.049 15.4666H140.604V17.4666H142.049V15.4666ZM141.604 16.4666V15.0101H139.604V16.4666H141.604ZM140.604 14.0101H139.16V16.0101H140.604V14.0101ZM140.16 15.0101V13.5536H138.16V15.0101H140.16ZM139.16 12.5536H137.716V14.5536H139.16V12.5536ZM137.716 12.5536H133.382V14.5536H137.716V12.5536ZM132.382 13.5536V19.3796H134.382V13.5536H132.382ZM133.382 18.3796H130.493V20.3796H133.382V18.3796ZM131.493 19.3796V13.5536H129.493V19.3796H131.493ZM131.493 13.5536V12.097H129.493V13.5536H131.493ZM131.493 12.097V10.6405H129.493V12.097H131.493ZM131.493 10.6405V9.18398H129.493V10.6405H131.493ZM131.493 9.18398V7.72746H129.493V9.18398H131.493ZM131.493 7.72746V6.27094H129.493V7.72746H131.493ZM131.493 6.27094V4.81441H129.493V6.27094H131.493ZM137.716 3.81441H134.827V5.81441H137.716V3.81441ZM134.827 3.81441H133.382V5.81441H134.827V3.81441ZM132.382 4.81441V9.18398H134.382V4.81441H132.382ZM132.382 9.18398V10.6405H134.382V9.18398H132.382ZM133.382 11.6405H134.827V9.64051H133.382V11.6405ZM134.827 11.6405H136.271V9.64051H134.827V11.6405ZM136.271 11.6405H137.716V9.64051H136.271V11.6405ZM137.716 11.6405H139.16V9.64051H137.716V11.6405ZM139.16 11.6405H140.604V9.64051H139.16V11.6405ZM140.604 11.6405H142.049V9.64051H140.604V11.6405ZM143.049 10.6405V9.18398H141.049V10.6405H143.049ZM142.049 10.184H143.493V8.18398H142.049V10.184ZM144.493 9.18398V7.72746H142.493V9.18398H144.493ZM144.493 7.72746V6.27094H142.493V7.72746H144.493ZM143.493 5.27094H142.049V7.27094H143.493V5.27094ZM143.049 6.27094V4.81441H141.049V6.27094H143.049ZM142.049 3.81441H140.604V5.81441H142.049V3.81441ZM140.604 3.81441H139.16V5.81441H140.604V3.81441ZM139.16 3.81441H137.716V5.81441H139.16V3.81441ZM162.723 3.35789V4.81441H164.723V3.35789H162.723ZM162.723 4.81441V6.27094H164.723V4.81441H162.723ZM162.723 6.27094V7.72746H164.723V6.27094H162.723ZM163.723 6.72746H162.278V8.72746H163.723V6.72746ZM161.278 7.72746V9.18398H163.278V7.72746H161.278ZM162.278 8.18398H160.834V10.184H162.278V8.18398ZM159.834 9.18398V10.6405H161.834V9.18398H159.834ZM160.834 9.64051H159.389V11.6405H160.834V9.64051ZM158.389 10.6405V12.097H160.389V10.6405H158.389ZM159.389 11.097H157.945V13.097H159.389V11.097ZM156.945 12.097V13.5536H158.945V12.097H156.945ZM156.945 13.5536V19.3796H158.945V13.5536H156.945ZM157.945 18.3796H155.056V20.3796H157.945V18.3796ZM156.056 19.3796V13.5536H154.056V19.3796H156.056ZM156.056 13.5536V12.097H154.056V13.5536H156.056ZM155.056 11.097H153.612V13.097H155.056V11.097ZM154.612 12.097V10.6405H152.612V12.097H154.612ZM153.612 9.64051H152.167V11.6405H153.612V9.64051ZM153.167 10.6405V9.18398H151.167V10.6405H153.167ZM152.167 8.18398H150.723V10.184H152.167V8.18398ZM151.723 9.18398V7.72746H149.723V9.18398H151.723ZM150.723 6.72746H149.279V8.72746H150.723V6.72746ZM150.279 7.72746V6.27094H148.279V7.72746H150.279ZM150.279 6.27094V4.81441H148.279V6.27094H150.279ZM150.279 4.81441V3.35789H148.279V4.81441H150.279ZM150.279 3.35789V1.90137H148.279V3.35789H150.279ZM149.279 2.90137H150.723V0.901367H149.279V2.90137ZM150.723 2.90137H152.167V0.901367H150.723V2.90137ZM151.167 1.90137V3.35789H153.167V1.90137H151.167ZM151.167 3.35789V4.81441H153.167V3.35789H151.167ZM151.167 4.81441V6.27094H153.167V4.81441H151.167ZM152.167 7.27094H153.612V5.27094H152.167V7.27094ZM152.612 6.27094V7.72746H154.612V6.27094H152.612ZM153.612 8.72746H155.056V6.72746H153.612V8.72746ZM154.056 7.72746V9.18398H156.056V7.72746H154.056ZM155.056 10.184H156.501V8.18398H155.056V10.184ZM156.501 10.184H157.945V8.18398H156.501V10.184ZM158.945 9.18398V7.72746H156.945V9.18398H158.945ZM157.945 8.72746H159.389V6.72746H157.945V8.72746ZM160.389 7.72746V6.27094H158.389V7.72746H160.389ZM159.389 7.27094H160.834V5.27094H159.389V7.27094ZM161.834 6.27094V4.81441H159.834V6.27094H161.834ZM161.834 4.81441V3.35789H159.834V4.81441H161.834ZM161.834 3.35789V1.90137H159.834V3.35789H161.834ZM160.834 2.90137H162.278V0.901367H160.834V2.90137ZM162.278 2.90137H163.723V0.901367H162.278V2.90137ZM162.723 1.90137V3.35789H164.723V1.90137H162.723Z" fill="white" mask="url(#path-1-outside-1_1340_4984)"/>
</svg>
