<svg width="60" height="522" viewBox="0 0 60 522" fill="none" xmlns="http://www.w3.org/2000/svg">
<mask id="path-1-outside-1_3058_814" maskUnits="userSpaceOnUse" x="-0.0703352" y="-2.53526e-06" width="60" height="522" fill="black">
<rect fill="white" x="-0.0703352" y="-2.53526e-06" width="60" height="522"/>
<path d="M11.3206 29.733L1.99873 29.733L1.99873 25.1108L1.99873 20.4886L1.99873 11.2443L1.99873 6.62216L1.99873 2L11.3206 2L11.3206 6.62216L11.3206 11.2443L39.286 11.2443L48.6079 11.2443L48.6079 6.62216L48.6079 2L57.9297 2L57.9297 6.62216L57.9297 11.2443L57.9297 15.8665L57.9297 20.4886L57.9297 25.1108L57.9297 29.733L48.6079 29.733L48.6079 25.1108L48.6079 20.4886L11.3206 20.4886L11.3206 25.1108L11.3206 29.733Z"/>
<path d="M39.286 94.4679L53.2688 94.4679L57.9297 94.4679L57.9297 103.712L53.2688 103.712L48.6079 103.712L11.3206 103.712L1.99873 103.712L1.99873 94.4679L11.3206 94.4679L11.3206 89.8457L15.9815 89.8457L15.9815 85.2235L20.6424 85.2235L20.6424 80.6014L25.3033 80.6014L25.3033 75.9792L29.9642 75.9792L29.9642 71.3571L34.6251 71.3571L34.6251 66.7349L39.286 66.7349L39.286 62.1128L25.3033 62.1127L1.99873 62.1127L1.99873 57.4906L1.99873 52.8684L6.65964 52.8684L11.3206 52.8684L15.9815 52.8684L25.3033 52.8684L29.9642 52.8684L34.6251 52.8684L39.286 52.8684L43.9469 52.8684L48.6079 52.8684L53.2688 52.8684L57.9297 52.8684L57.9297 57.4906L57.9297 62.1128L53.2688 62.1128L53.2688 66.7349L48.6079 66.7349L48.6079 71.3571L43.9469 71.3571L43.9469 75.9792L39.286 75.9792L39.286 80.6014L34.6251 80.6014L34.6251 85.2235L29.9642 85.2235L29.9642 89.8457L25.3033 89.8457L25.3033 94.4679L39.286 94.4679Z"/>
<path d="M53.2688 163.825L48.6079 163.825L39.286 163.825L29.9642 163.825L25.3033 163.825L20.6424 163.825L20.6424 159.203L15.9815 159.203L15.9815 154.581L11.3205 154.581L11.3206 149.958L6.65964 149.958L6.65964 145.336L1.99872 145.336L1.99872 131.47L6.65964 131.47L6.65964 126.848L11.3206 126.848L11.3206 122.225L15.9815 122.226L15.9815 117.603L20.6424 117.603L20.6424 112.981L25.3033 112.981L29.9642 112.981L39.286 112.981L48.6079 112.981L53.2688 112.981L57.9297 112.981L57.9297 117.603L57.9297 122.226L53.2688 122.226L48.6079 122.226L29.9642 122.226L25.3033 122.226L25.3033 126.848L20.6424 126.848L20.6424 131.47L15.9815 131.47L15.9815 136.092L11.3206 136.092L11.3206 140.714L15.9815 140.714L15.9815 145.336L20.6424 145.336L20.6424 149.958L25.3033 149.958L25.3033 154.581L29.9642 154.581L48.6079 154.581L53.2688 154.581L57.9297 154.581L57.9297 159.203L57.9297 163.825L53.2688 163.825Z"/>
<path d="M48.6079 173.094L53.2688 173.094L57.9297 173.094L57.9297 177.716L57.9297 182.338L57.9297 196.205L57.9297 223.938L48.6079 223.938L48.6079 219.316L48.6079 214.693L48.6079 205.449L48.6079 200.827L48.6079 196.205L48.6079 186.96L48.6079 182.338L34.6251 182.338L34.6251 214.693L25.3033 214.693L25.3033 182.338L11.3205 182.338L11.3205 186.96L11.3205 196.205L11.3205 200.827L11.3205 205.449L11.3205 214.693L11.3205 219.316L11.3205 223.938L1.99872 223.938L1.99872 196.205L1.99872 182.338L1.99872 177.716L1.99872 173.094L6.65964 173.094L11.3205 173.094L15.9815 173.094L25.3033 173.094L29.9642 173.094L34.6251 173.094L39.286 173.094L43.9469 173.094L48.6079 173.094Z"/>
<path d="M39.286 274.806L53.2688 274.806L57.9297 274.806L57.9297 284.05L53.2688 284.05L48.6079 284.05L11.3205 284.05L1.99872 284.05L1.99872 274.806L11.3205 274.806L11.3205 270.184L15.9815 270.184L15.9815 265.562L20.6424 265.562L20.6424 260.94L25.3033 260.94L25.3033 256.317L29.9642 256.317L29.9642 251.695L34.6251 251.695L34.6251 247.073L39.286 247.073L39.286 242.451L25.3033 242.451L1.99872 242.451L1.99872 237.829L1.99872 233.207L6.65963 233.207L11.3205 233.207L15.9815 233.207L25.3033 233.207L29.9642 233.207L34.6251 233.207L39.286 233.207L43.9469 233.207L48.6079 233.207L53.2688 233.207L57.9297 233.207L57.9297 237.829L57.9297 242.451L53.2688 242.451L53.2688 247.073L48.6079 247.073L48.6079 251.695L43.9469 251.695L43.9469 256.317L39.286 256.317L39.286 260.94L34.6251 260.94L34.6251 265.562L29.9642 265.562L29.9642 270.184L25.3033 270.184L25.3033 274.806L39.286 274.806Z"/>
<path d="M48.6079 293.319L53.2688 293.319L57.9297 293.319L57.9297 297.942L57.9297 302.564L57.9297 316.43L57.9297 339.541L48.6078 339.541L48.6078 334.919L48.6078 330.297L48.6078 321.052L25.3033 321.052L1.99872 321.052L1.99872 311.808L25.3033 311.808L48.6078 311.808L48.6079 307.186L48.6079 293.319Z"/>
<path d="M48.6078 376.543L48.6078 371.921L48.6078 367.299L43.9469 367.299L43.9469 362.676L39.286 362.676L34.6251 362.676L25.3033 362.676L20.6424 362.676L15.9815 362.676L15.9815 367.299L11.3205 367.299L11.3205 371.921L11.3205 376.543L11.3205 381.165L11.3205 385.787L11.3205 390.409L15.9815 390.409L15.9815 395.032L20.6424 395.032L25.3033 395.032L39.286 395.032L43.9469 395.032L43.9469 390.409L48.6078 390.409L48.6078 385.787L48.6078 381.165L48.6078 376.543ZM25.3033 404.276L11.3205 404.276L11.3205 399.654L6.65963 399.654L6.65963 395.032L1.99871 395.032L1.99871 381.165L1.99871 376.543L1.99871 362.676L6.65963 362.676L6.65963 358.054L11.3205 358.054L11.3205 353.432L20.6424 353.432L25.3033 353.432L29.9642 353.432L34.6251 353.432L48.6078 353.432L48.6078 358.054L53.2688 358.054L53.2688 362.676L57.9297 362.676L57.9297 371.921L57.9297 376.543L57.9297 381.165L57.9297 395.032L53.2688 395.032L53.2688 399.654L48.6078 399.654L48.6078 404.276L39.286 404.276L25.3033 404.276Z"/>
<path d="M48.6078 413.545L53.2688 413.545L57.9297 413.545L57.9297 418.167L57.9297 422.789L57.9297 436.656L57.9297 455.144L53.2688 455.144L53.2688 459.767L48.6078 459.767L48.6078 464.389L39.286 464.389L34.6251 464.389L29.9642 464.389L29.9642 459.767L25.3033 459.767L25.3033 455.144L20.6424 455.144L15.9814 455.144L15.9814 459.767L11.3205 459.767L11.3205 464.389L6.65962 464.389L1.99871 464.389L1.99871 455.144L6.65963 455.144L6.65963 450.522L11.3205 450.522L11.3205 445.9L15.9814 445.9L15.9814 441.278L20.6424 441.278L20.6424 436.656L20.6424 422.789L1.99871 422.789L1.99871 413.545L20.6424 413.545L25.3033 413.545L29.9642 413.545L34.6251 413.545L39.286 413.545L43.9469 413.545L48.6078 413.545ZM48.6078 436.656L48.6078 427.411L48.6078 422.789L34.6251 422.789L29.9642 422.789L29.9642 427.411L29.9642 432.034L29.9642 436.656L29.9642 441.278L29.9642 445.9L29.9642 450.522L34.6251 450.522L34.6251 455.144L39.286 455.144L43.9469 455.144L43.9469 450.522L48.6078 450.522L48.6078 445.9L48.6078 441.278L48.6078 436.656Z"/>
<path d="M53.2687 519.879L48.6078 519.879L43.9469 519.879L39.286 519.879L39.286 515.257L34.6251 515.257L34.6251 510.635L29.9642 510.635L29.9642 506.013L25.3033 506.013L25.3033 501.391L20.6424 501.391L1.99871 501.391L1.99871 492.146L20.6424 492.146L25.3033 492.146L25.3033 487.524L29.9642 487.524L29.9642 482.902L34.6251 482.902L34.6251 478.28L39.286 478.28L39.286 473.658L43.9469 473.658L48.6078 473.658L53.2688 473.658L57.9297 473.658L57.9297 478.28L57.9297 482.902L53.2688 482.902L48.6078 482.902L43.9469 482.902L43.9469 487.524L39.286 487.524L39.286 492.146L34.6251 492.146L34.6251 496.768L34.6251 501.391L39.286 501.391L39.286 506.013L43.9469 506.013L43.9469 510.635L48.6078 510.635L53.2688 510.635L57.9297 510.635L57.9297 515.257L57.9297 519.879L53.2687 519.879Z"/>
</mask>
<path d="M11.3206 29.733L1.99873 29.733L1.99873 25.1108L1.99873 20.4886L1.99873 11.2443L1.99873 6.62216L1.99873 2L11.3206 2L11.3206 6.62216L11.3206 11.2443L39.286 11.2443L48.6079 11.2443L48.6079 6.62216L48.6079 2L57.9297 2L57.9297 6.62216L57.9297 11.2443L57.9297 15.8665L57.9297 20.4886L57.9297 25.1108L57.9297 29.733L48.6079 29.733L48.6079 25.1108L48.6079 20.4886L11.3206 20.4886L11.3206 25.1108L11.3206 29.733Z" fill="#B6BCC4"/>
<path d="M39.286 94.4679L53.2688 94.4679L57.9297 94.4679L57.9297 103.712L53.2688 103.712L48.6079 103.712L11.3206 103.712L1.99873 103.712L1.99873 94.4679L11.3206 94.4679L11.3206 89.8457L15.9815 89.8457L15.9815 85.2235L20.6424 85.2235L20.6424 80.6014L25.3033 80.6014L25.3033 75.9792L29.9642 75.9792L29.9642 71.3571L34.6251 71.3571L34.6251 66.7349L39.286 66.7349L39.286 62.1128L25.3033 62.1127L1.99873 62.1127L1.99873 57.4906L1.99873 52.8684L6.65964 52.8684L11.3206 52.8684L15.9815 52.8684L25.3033 52.8684L29.9642 52.8684L34.6251 52.8684L39.286 52.8684L43.9469 52.8684L48.6079 52.8684L53.2688 52.8684L57.9297 52.8684L57.9297 57.4906L57.9297 62.1128L53.2688 62.1128L53.2688 66.7349L48.6079 66.7349L48.6079 71.3571L43.9469 71.3571L43.9469 75.9792L39.286 75.9792L39.286 80.6014L34.6251 80.6014L34.6251 85.2235L29.9642 85.2235L29.9642 89.8457L25.3033 89.8457L25.3033 94.4679L39.286 94.4679Z" fill="#B6BCC4"/>
<path d="M53.2688 163.825L48.6079 163.825L39.286 163.825L29.9642 163.825L25.3033 163.825L20.6424 163.825L20.6424 159.203L15.9815 159.203L15.9815 154.581L11.3205 154.581L11.3206 149.958L6.65964 149.958L6.65964 145.336L1.99872 145.336L1.99872 131.47L6.65964 131.47L6.65964 126.848L11.3206 126.848L11.3206 122.225L15.9815 122.226L15.9815 117.603L20.6424 117.603L20.6424 112.981L25.3033 112.981L29.9642 112.981L39.286 112.981L48.6079 112.981L53.2688 112.981L57.9297 112.981L57.9297 117.603L57.9297 122.226L53.2688 122.226L48.6079 122.226L29.9642 122.226L25.3033 122.226L25.3033 126.848L20.6424 126.848L20.6424 131.47L15.9815 131.47L15.9815 136.092L11.3206 136.092L11.3206 140.714L15.9815 140.714L15.9815 145.336L20.6424 145.336L20.6424 149.958L25.3033 149.958L25.3033 154.581L29.9642 154.581L48.6079 154.581L53.2688 154.581L57.9297 154.581L57.9297 159.203L57.9297 163.825L53.2688 163.825Z" fill="#B6BCC4"/>
<path d="M48.6079 173.094L53.2688 173.094L57.9297 173.094L57.9297 177.716L57.9297 182.338L57.9297 196.205L57.9297 223.938L48.6079 223.938L48.6079 219.316L48.6079 214.693L48.6079 205.449L48.6079 200.827L48.6079 196.205L48.6079 186.96L48.6079 182.338L34.6251 182.338L34.6251 214.693L25.3033 214.693L25.3033 182.338L11.3205 182.338L11.3205 186.96L11.3205 196.205L11.3205 200.827L11.3205 205.449L11.3205 214.693L11.3205 219.316L11.3205 223.938L1.99872 223.938L1.99872 196.205L1.99872 182.338L1.99872 177.716L1.99872 173.094L6.65964 173.094L11.3205 173.094L15.9815 173.094L25.3033 173.094L29.9642 173.094L34.6251 173.094L39.286 173.094L43.9469 173.094L48.6079 173.094Z" fill="#B6BCC4"/>
<path d="M39.286 274.806L53.2688 274.806L57.9297 274.806L57.9297 284.05L53.2688 284.05L48.6079 284.05L11.3205 284.05L1.99872 284.05L1.99872 274.806L11.3205 274.806L11.3205 270.184L15.9815 270.184L15.9815 265.562L20.6424 265.562L20.6424 260.94L25.3033 260.94L25.3033 256.317L29.9642 256.317L29.9642 251.695L34.6251 251.695L34.6251 247.073L39.286 247.073L39.286 242.451L25.3033 242.451L1.99872 242.451L1.99872 237.829L1.99872 233.207L6.65963 233.207L11.3205 233.207L15.9815 233.207L25.3033 233.207L29.9642 233.207L34.6251 233.207L39.286 233.207L43.9469 233.207L48.6079 233.207L53.2688 233.207L57.9297 233.207L57.9297 237.829L57.9297 242.451L53.2688 242.451L53.2688 247.073L48.6079 247.073L48.6079 251.695L43.9469 251.695L43.9469 256.317L39.286 256.317L39.286 260.94L34.6251 260.94L34.6251 265.562L29.9642 265.562L29.9642 270.184L25.3033 270.184L25.3033 274.806L39.286 274.806Z" fill="#B6BCC4"/>
<path d="M48.6079 293.319L53.2688 293.319L57.9297 293.319L57.9297 297.942L57.9297 302.564L57.9297 316.43L57.9297 339.541L48.6078 339.541L48.6078 334.919L48.6078 330.297L48.6078 321.052L25.3033 321.052L1.99872 321.052L1.99872 311.808L25.3033 311.808L48.6078 311.808L48.6079 307.186L48.6079 293.319Z" fill="#B6BCC4"/>
<path d="M48.6078 376.543L48.6078 371.921L48.6078 367.299L43.9469 367.299L43.9469 362.676L39.286 362.676L34.6251 362.676L25.3033 362.676L20.6424 362.676L15.9815 362.676L15.9815 367.299L11.3205 367.299L11.3205 371.921L11.3205 376.543L11.3205 381.165L11.3205 385.787L11.3205 390.409L15.9815 390.409L15.9815 395.032L20.6424 395.032L25.3033 395.032L39.286 395.032L43.9469 395.032L43.9469 390.409L48.6078 390.409L48.6078 385.787L48.6078 381.165L48.6078 376.543ZM25.3033 404.276L11.3205 404.276L11.3205 399.654L6.65963 399.654L6.65963 395.032L1.99871 395.032L1.99871 381.165L1.99871 376.543L1.99871 362.676L6.65963 362.676L6.65963 358.054L11.3205 358.054L11.3205 353.432L20.6424 353.432L25.3033 353.432L29.9642 353.432L34.6251 353.432L48.6078 353.432L48.6078 358.054L53.2688 358.054L53.2688 362.676L57.9297 362.676L57.9297 371.921L57.9297 376.543L57.9297 381.165L57.9297 395.032L53.2688 395.032L53.2688 399.654L48.6078 399.654L48.6078 404.276L39.286 404.276L25.3033 404.276Z" fill="#B6BCC4"/>
<path d="M48.6078 413.545L53.2688 413.545L57.9297 413.545L57.9297 418.167L57.9297 422.789L57.9297 436.656L57.9297 455.144L53.2688 455.144L53.2688 459.767L48.6078 459.767L48.6078 464.389L39.286 464.389L34.6251 464.389L29.9642 464.389L29.9642 459.767L25.3033 459.767L25.3033 455.144L20.6424 455.144L15.9814 455.144L15.9814 459.767L11.3205 459.767L11.3205 464.389L6.65962 464.389L1.99871 464.389L1.99871 455.144L6.65963 455.144L6.65963 450.522L11.3205 450.522L11.3205 445.9L15.9814 445.9L15.9814 441.278L20.6424 441.278L20.6424 436.656L20.6424 422.789L1.99871 422.789L1.99871 413.545L20.6424 413.545L25.3033 413.545L29.9642 413.545L34.6251 413.545L39.286 413.545L43.9469 413.545L48.6078 413.545ZM48.6078 436.656L48.6078 427.411L48.6078 422.789L34.6251 422.789L29.9642 422.789L29.9642 427.411L29.9642 432.034L29.9642 436.656L29.9642 441.278L29.9642 445.9L29.9642 450.522L34.6251 450.522L34.6251 455.144L39.286 455.144L43.9469 455.144L43.9469 450.522L48.6078 450.522L48.6078 445.9L48.6078 441.278L48.6078 436.656Z" fill="#B6BCC4"/>
<path d="M53.2687 519.879L48.6078 519.879L43.9469 519.879L39.286 519.879L39.286 515.257L34.6251 515.257L34.6251 510.635L29.9642 510.635L29.9642 506.013L25.3033 506.013L25.3033 501.391L20.6424 501.391L1.99871 501.391L1.99871 492.146L20.6424 492.146L25.3033 492.146L25.3033 487.524L29.9642 487.524L29.9642 482.902L34.6251 482.902L34.6251 478.28L39.286 478.28L39.286 473.658L43.9469 473.658L48.6078 473.658L53.2688 473.658L57.9297 473.658L57.9297 478.28L57.9297 482.902L53.2688 482.902L48.6078 482.902L43.9469 482.902L43.9469 487.524L39.286 487.524L39.286 492.146L34.6251 492.146L34.6251 496.768L34.6251 501.391L39.286 501.391L39.286 506.013L43.9469 506.013L43.9469 510.635L48.6078 510.635L53.2688 510.635L57.9297 510.635L57.9297 515.257L57.9297 519.879L53.2687 519.879Z" fill="#B6BCC4"/>
<path d="M11.3206 29.733L11.3206 31.0874L12.675 31.0874L12.675 29.733L11.3206 29.733ZM1.99873 29.733L0.644316 29.733L0.644316 31.0874L1.99873 31.0874L1.99873 29.733ZM1.99873 25.1108L0.644317 25.1108L1.99873 25.1108ZM1.99873 20.4886L3.35314 20.4886L1.99873 20.4886ZM1.99873 11.2443L0.644317 11.2443L1.99873 11.2443ZM1.99873 6.62216L3.35314 6.62216L1.99873 6.62216ZM1.99873 2L1.99873 0.645586L0.644318 0.645586L0.644318 2L1.99873 2ZM11.3206 2L12.675 2L12.675 0.645586L11.3206 0.645586L11.3206 2ZM11.3206 6.62216L12.675 6.62216L11.3206 6.62216ZM11.3206 11.2443L9.96614 11.2443L9.96614 12.5987L11.3206 12.5987L11.3206 11.2443ZM48.6079 11.2443L48.6079 12.5987L49.9623 12.5987L49.9623 11.2443L48.6079 11.2443ZM48.6079 6.62216L49.9623 6.62216L48.6079 6.62216ZM48.6079 2L48.6079 0.645588L47.2535 0.645588L47.2535 2L48.6079 2ZM57.9297 2L59.2841 2L59.2841 0.645588L57.9297 0.645588L57.9297 2ZM57.9297 6.62216L59.2841 6.62216L57.9297 6.62216ZM57.9297 11.2443L56.5753 11.2443L57.9297 11.2443ZM57.9297 15.8665L56.5753 15.8665L57.9297 15.8665ZM57.9297 20.4886L59.2841 20.4886L57.9297 20.4886ZM57.9297 25.1108L56.5753 25.1108L57.9297 25.1108ZM57.9297 29.733L57.9297 31.0874L59.2841 31.0874L59.2841 29.733L57.9297 29.733ZM48.6079 29.733L47.2535 29.733L47.2535 31.0874L48.6079 31.0874L48.6079 29.733ZM48.6079 25.1108L47.2535 25.1108L48.6079 25.1108ZM48.6079 20.4886L49.9623 20.4886L49.9623 19.1342L48.6079 19.1342L48.6079 20.4886ZM11.3206 20.4886L11.3206 19.1342L9.96614 19.1342L9.96614 20.4886L11.3206 20.4886ZM11.3206 25.1108L9.96614 25.1108L11.3206 25.1108ZM57.9297 94.4679L59.2841 94.4679L59.2841 93.1135L57.9297 93.1135L57.9297 94.4679ZM57.9297 103.712L57.9297 105.067L59.2841 105.067L59.2841 103.712L57.9297 103.712ZM1.99873 103.712L0.644313 103.712L0.644313 105.067L1.99873 105.067L1.99873 103.712ZM1.99873 94.4679L1.99873 93.1135L0.644314 93.1135L0.644314 94.4679L1.99873 94.4679ZM11.3206 94.4679L11.3206 95.8223L12.675 95.8223L12.675 94.4679L11.3206 94.4679ZM11.3206 89.8457L11.3206 88.4913L9.96614 88.4913L9.96614 89.8457L11.3206 89.8457ZM15.9815 89.8457L15.9815 91.2001L17.3359 91.2001L17.3359 89.8457L15.9815 89.8457ZM15.9815 85.2235L15.9815 83.8691L14.6271 83.8691L14.6271 85.2235L15.9815 85.2235ZM20.6424 85.2235L20.6424 86.578L21.9968 86.578L21.9968 85.2235L20.6424 85.2235ZM20.6424 80.6014L20.6424 79.247L19.288 79.247L19.288 80.6014L20.6424 80.6014ZM25.3033 80.6014L25.3033 81.9558L26.6577 81.9558L26.6577 80.6014L25.3033 80.6014ZM25.3033 75.9792L25.3033 74.6248L23.9489 74.6248L23.9489 75.9792L25.3033 75.9792ZM29.9642 75.9792L29.9642 77.3336L31.3186 77.3336L31.3186 75.9792L29.9642 75.9792ZM29.9642 71.3571L29.9642 70.0027L28.6098 70.0027L28.6098 71.3571L29.9642 71.3571ZM34.6251 71.3571L34.6251 72.7115L35.9795 72.7115L35.9795 71.3571L34.6251 71.3571ZM34.6251 66.7349L34.6251 65.3805L33.2707 65.3805L33.2707 66.7349L34.6251 66.7349ZM39.286 66.7349L39.286 68.0893L40.6404 68.0893L40.6404 66.7349L39.286 66.7349ZM39.286 62.1128L40.6404 62.1128L40.6404 60.7583L39.286 60.7583L39.286 62.1128ZM1.99873 62.1127L0.644315 62.1127L0.644315 63.4672L1.99873 63.4672L1.99873 62.1127ZM1.99873 57.4906L0.644315 57.4906L1.99873 57.4906ZM1.99873 52.8684L1.99873 51.514L0.644315 51.514L0.644315 52.8684L1.99873 52.8684ZM57.9297 52.8684L59.2841 52.8684L59.2841 51.514L57.9297 51.514L57.9297 52.8684ZM57.9297 57.4906L56.5753 57.4906L57.9297 57.4906ZM57.9297 62.1128L57.9297 63.4672L59.2841 63.4672L59.2841 62.1128L57.9297 62.1128ZM53.2688 62.1128L53.2688 60.7583L51.9144 60.7583L51.9144 62.1128L53.2688 62.1128ZM53.2688 66.7349L53.2688 68.0893L54.6232 68.0893L54.6232 66.7349L53.2688 66.7349ZM48.6079 66.7349L48.6079 65.3805L47.2534 65.3805L47.2534 66.7349L48.6079 66.7349ZM48.6079 71.3571L48.6079 72.7115L49.9623 72.7115L49.9623 71.3571L48.6079 71.3571ZM43.9469 71.3571L43.9469 70.0027L42.5925 70.0027L42.5925 71.3571L43.9469 71.3571ZM43.9469 75.9792L43.9469 77.3336L45.3014 77.3336L45.3014 75.9792L43.9469 75.9792ZM39.286 75.9792L39.286 74.6248L37.9316 74.6248L37.9316 75.9792L39.286 75.9792ZM39.286 80.6014L39.286 81.9558L40.6404 81.9558L40.6404 80.6014L39.286 80.6014ZM34.6251 80.6014L34.6251 79.247L33.2707 79.247L33.2707 80.6014L34.6251 80.6014ZM34.6251 85.2235L34.6251 86.578L35.9795 86.578L35.9795 85.2235L34.6251 85.2235ZM29.9642 85.2235L29.9642 83.8691L28.6098 83.8691L28.6098 85.2235L29.9642 85.2235ZM29.9642 89.8457L29.9642 91.2001L31.3186 91.2001L31.3186 89.8457L29.9642 89.8457ZM25.3033 89.8457L25.3033 88.4913L23.9489 88.4913L23.9489 89.8457L25.3033 89.8457ZM25.3033 94.4679L23.9489 94.4679L23.9489 95.8223L25.3033 95.8223L25.3033 94.4679ZM29.9642 163.825L29.9642 162.471L29.9642 163.825ZM25.3033 163.825L25.3033 165.179L25.3033 163.825ZM20.6424 163.825L19.288 163.825L19.288 165.179L20.6424 165.179L20.6424 163.825ZM20.6424 159.203L21.9968 159.203L21.9968 157.848L20.6424 157.848L20.6424 159.203ZM15.9815 159.203L14.627 159.203L14.627 160.557L15.9815 160.557L15.9815 159.203ZM15.9815 154.581L17.3359 154.581L17.3359 153.226L15.9815 153.226L15.9815 154.581ZM11.3205 154.581L9.96614 154.581L9.96614 155.935L11.3205 155.935L11.3205 154.581ZM11.3206 149.958L12.675 149.958L12.675 148.604L11.3206 148.604L11.3206 149.958ZM6.65964 149.958L5.30523 149.958L5.30523 151.313L6.65964 151.313L6.65964 149.958ZM6.65964 145.336L8.01405 145.336L8.01405 143.982L6.65964 143.982L6.65964 145.336ZM1.99872 145.336L0.644311 145.336L0.644311 146.691L1.99872 146.691L1.99872 145.336ZM1.99872 131.47L1.99872 130.115L0.644312 130.115L0.644312 131.47L1.99872 131.47ZM6.65964 131.47L6.65964 132.824L8.01405 132.824L8.01405 131.47L6.65964 131.47ZM6.65964 126.848L6.65964 125.493L5.30523 125.493L5.30523 126.848L6.65964 126.848ZM11.3206 126.848L11.3206 128.202L12.675 128.202L12.675 126.848L11.3206 126.848ZM11.3206 122.225L11.3206 120.871L9.96614 120.871L9.96614 122.225L11.3206 122.225ZM15.9815 122.226L15.9815 123.58L17.3359 123.58L17.3359 122.226L15.9815 122.226ZM15.9815 117.603L15.9815 116.249L14.6271 116.249L14.6271 117.603L15.9815 117.603ZM20.6424 117.603L20.6424 118.958L21.9968 118.958L21.9968 117.603L20.6424 117.603ZM20.6424 112.981L20.6424 111.627L19.288 111.627L19.288 112.981L20.6424 112.981ZM57.9297 112.981L59.2841 112.981L59.2841 111.627L57.9297 111.627L57.9297 112.981ZM57.9297 117.603L56.5753 117.603L57.9297 117.603ZM57.9297 122.226L57.9297 123.58L59.2841 123.58L59.2841 122.226L57.9297 122.226ZM25.3033 122.226L25.3033 120.871L23.9489 120.871L23.9489 122.226L25.3033 122.226ZM25.3033 126.848L25.3033 128.202L26.6577 128.202L26.6577 126.848L25.3033 126.848ZM20.6424 126.848L20.6424 125.493L19.288 125.493L19.288 126.848L20.6424 126.848ZM20.6424 131.47L20.6424 132.824L21.9968 132.824L21.9968 131.47L20.6424 131.47ZM15.9815 131.47L15.9815 130.115L14.6271 130.115L14.6271 131.47L15.9815 131.47ZM15.9815 136.092L15.9815 137.446L17.3359 137.446L17.3359 136.092L15.9815 136.092ZM11.3206 136.092L11.3206 134.738L9.96614 134.738L9.96614 136.092L11.3206 136.092ZM11.3206 140.714L9.96614 140.714L9.96614 142.069L11.3206 142.069L11.3206 140.714ZM15.9815 140.714L17.3359 140.714L17.3359 139.36L15.9815 139.36L15.9815 140.714ZM15.9815 145.336L14.627 145.336L14.627 146.691L15.9815 146.691L15.9815 145.336ZM20.6424 145.336L21.9968 145.336L21.9968 143.982L20.6424 143.982L20.6424 145.336ZM20.6424 149.958L19.288 149.958L19.288 151.313L20.6424 151.313L20.6424 149.958ZM25.3033 149.958L26.6577 149.958L26.6577 148.604L25.3033 148.604L25.3033 149.958ZM25.3033 154.581L23.9489 154.581L23.9489 155.935L25.3033 155.935L25.3033 154.581ZM29.9642 154.581L29.9642 153.226L29.9642 154.581ZM57.9297 154.581L59.2841 154.581L59.2841 153.226L57.9297 153.226L57.9297 154.581ZM57.9297 159.203L56.5753 159.203L57.9297 159.203ZM57.9297 163.825L57.9297 165.179L59.2841 165.179L59.2841 163.825L57.9297 163.825ZM48.6079 173.094L48.6079 171.74L48.6079 173.094ZM57.9297 173.094L59.2841 173.094L59.2841 171.74L57.9297 171.74L57.9297 173.094ZM57.9297 196.205L56.5753 196.205L57.9297 196.205ZM57.9297 223.938L57.9297 225.292L59.2841 225.292L59.2841 223.938L57.9297 223.938ZM48.6079 223.938L47.2534 223.938L47.2534 225.292L48.6079 225.292L48.6079 223.938ZM48.6079 219.316L49.9623 219.316L48.6079 219.316ZM48.6079 214.693L47.2534 214.693L48.6079 214.693ZM48.6079 205.449L49.9623 205.449L48.6079 205.449ZM48.6079 200.827L47.2534 200.827L48.6079 200.827ZM48.6079 182.338L49.9623 182.338L49.9623 180.984L48.6079 180.984L48.6079 182.338ZM34.6251 182.338L34.6251 180.984L33.2707 180.984L33.2707 182.338L34.6251 182.338ZM34.6251 214.693L34.6251 216.048L35.9795 216.048L35.9795 214.693L34.6251 214.693ZM25.3033 214.693L23.9489 214.693L23.9489 216.048L25.3033 216.048L25.3033 214.693ZM25.3033 182.338L26.6577 182.338L26.6577 180.984L25.3033 180.984L25.3033 182.338ZM11.3205 182.338L11.3205 180.984L9.96614 180.984L9.96614 182.338L11.3205 182.338ZM11.3205 200.827L9.96614 200.827L11.3205 200.827ZM11.3205 205.449L12.675 205.449L11.3205 205.449ZM11.3205 214.693L9.96614 214.693L11.3205 214.693ZM11.3205 219.316L12.675 219.316L11.3205 219.316ZM11.3205 223.938L11.3205 225.292L12.675 225.292L12.675 223.938L11.3205 223.938ZM1.99872 223.938L0.644308 223.938L0.644308 225.292L1.99872 225.292L1.99872 223.938ZM1.99872 196.205L0.644309 196.205L1.99872 196.205ZM1.99872 173.094L1.99872 171.74L0.64431 171.74L0.64431 173.094L1.99872 173.094ZM11.3205 173.094L11.3205 171.74L11.3205 173.094ZM15.9815 173.094L15.9815 174.448L15.9815 173.094ZM25.3033 173.094L25.3033 174.448L25.3033 173.094ZM29.9642 173.094L29.9642 171.74L29.9642 173.094ZM34.6251 173.094L34.6251 174.448L34.6251 173.094ZM39.286 173.094L39.286 171.74L39.286 173.094ZM43.9469 173.094L43.9469 174.448L43.9469 173.094ZM39.286 274.806L39.286 273.452L39.286 274.806ZM57.9297 274.806L59.2841 274.806L59.2841 273.452L57.9297 273.452L57.9297 274.806ZM57.9297 284.05L57.9297 285.405L59.2841 285.405L59.2841 284.05L57.9297 284.05ZM1.99872 284.05L0.644305 284.05L0.644305 285.405L1.99872 285.405L1.99872 284.05ZM1.99872 274.806L1.99872 273.452L0.644306 273.452L0.644306 274.806L1.99872 274.806ZM11.3205 274.806L11.3205 276.161L12.675 276.161L12.675 274.806L11.3205 274.806ZM11.3205 270.184L11.3205 268.83L9.96613 268.83L9.96613 270.184L11.3205 270.184ZM15.9815 270.184L15.9815 271.538L17.3359 271.538L17.3359 270.184L15.9815 270.184ZM15.9815 265.562L15.9815 264.207L14.627 264.207L14.627 265.562L15.9815 265.562ZM20.6424 265.562L20.6424 266.916L21.9968 266.916L21.9968 265.562L20.6424 265.562ZM20.6424 260.94L20.6424 259.585L19.288 259.585L19.288 260.94L20.6424 260.94ZM25.3033 260.94L25.3033 262.294L26.6577 262.294L26.6577 260.94L25.3033 260.94ZM25.3033 256.317L25.3033 254.963L23.9489 254.963L23.9489 256.317L25.3033 256.317ZM29.9642 256.317L29.9642 257.672L31.3186 257.672L31.3186 256.317L29.9642 256.317ZM29.9642 251.695L29.9642 250.341L28.6098 250.341L28.6098 251.695L29.9642 251.695ZM34.6251 251.695L34.6251 253.05L35.9795 253.05L35.9795 251.695L34.6251 251.695ZM34.6251 247.073L34.6251 245.719L33.2707 245.719L33.2707 247.073L34.6251 247.073ZM39.286 247.073L39.286 248.428L40.6404 248.428L40.6404 247.073L39.286 247.073ZM39.286 242.451L40.6404 242.451L40.6404 241.097L39.286 241.097L39.286 242.451ZM25.3033 242.451L25.3033 243.805L25.3033 242.451ZM1.99872 242.451L0.644307 242.451L0.644307 243.805L1.99872 243.805L1.99872 242.451ZM1.99872 237.829L3.35313 237.829L1.99872 237.829ZM1.99872 233.207L1.99872 231.852L0.644308 231.852L0.644308 233.207L1.99872 233.207ZM6.65963 233.207L6.65963 234.561L6.65963 233.207ZM11.3205 233.207L11.3205 231.852L11.3205 233.207ZM15.9815 233.207L15.9815 234.561L15.9815 233.207ZM25.3033 233.207L25.3033 234.561L25.3033 233.207ZM29.9642 233.207L29.9642 231.852L29.9642 233.207ZM34.6251 233.207L34.6251 234.561L34.6251 233.207ZM39.286 233.207L39.286 231.852L39.286 233.207ZM43.9469 233.207L43.9469 234.561L43.9469 233.207ZM48.6079 233.207L48.6079 231.852L48.6079 233.207ZM57.9297 233.207L59.2841 233.207L59.2841 231.852L57.9297 231.852L57.9297 233.207ZM57.9297 237.829L59.2841 237.829L57.9297 237.829ZM57.9297 242.451L57.9297 243.805L59.2841 243.805L59.2841 242.451L57.9297 242.451ZM53.2688 242.451L53.2688 241.097L51.9144 241.097L51.9144 242.451L53.2688 242.451ZM53.2688 247.073L53.2688 248.428L54.6232 248.428L54.6232 247.073L53.2688 247.073ZM48.6079 247.073L48.6079 245.719L47.2534 245.719L47.2534 247.073L48.6079 247.073ZM48.6079 251.695L48.6079 253.05L49.9623 253.05L49.9623 251.695L48.6079 251.695ZM43.9469 251.695L43.9469 250.341L42.5925 250.341L42.5925 251.695L43.9469 251.695ZM43.9469 256.317L43.9469 257.672L45.3013 257.672L45.3013 256.317L43.9469 256.317ZM39.286 256.317L39.286 254.963L37.9316 254.963L37.9316 256.317L39.286 256.317ZM39.286 260.94L39.286 262.294L40.6404 262.294L40.6404 260.94L39.286 260.94ZM34.6251 260.94L34.6251 259.585L33.2707 259.585L33.2707 260.94L34.6251 260.94ZM34.6251 265.562L34.6251 266.916L35.9795 266.916L35.9795 265.562L34.6251 265.562ZM29.9642 265.562L29.9642 264.207L28.6098 264.207L28.6098 265.562L29.9642 265.562ZM29.9642 270.184L29.9642 271.538L31.3186 271.538L31.3186 270.184L29.9642 270.184ZM25.3033 270.184L25.3033 268.83L23.9489 268.83L23.9489 270.184L25.3033 270.184ZM25.3033 274.806L23.9489 274.806L23.9489 276.161L25.3033 276.161L25.3033 274.806ZM48.6079 293.319L48.6079 291.965L47.2534 291.965L47.2534 293.319L48.6079 293.319ZM57.9297 293.319L59.2841 293.319L59.2841 291.965L57.9297 291.965L57.9297 293.319ZM57.9297 297.942L56.5753 297.942L57.9297 297.942ZM57.9297 316.43L56.5753 316.43L57.9297 316.43ZM57.9297 339.541L57.9297 340.895L59.2841 340.895L59.2841 339.541L57.9297 339.541ZM48.6078 339.541L47.2534 339.541L47.2534 340.895L48.6078 340.895L48.6078 339.541ZM48.6078 321.052L49.9623 321.052L49.9623 319.698L48.6078 319.698L48.6078 321.052ZM25.3033 321.052L25.3033 322.407L25.3033 321.052ZM1.99872 321.052L0.644304 321.052L0.644304 322.407L1.99872 322.407L1.99872 321.052ZM1.99872 311.808L1.99872 310.454L0.644304 310.454L0.644304 311.808L1.99872 311.808ZM25.3033 311.808L25.3033 313.162L25.3033 311.808ZM48.6078 311.808L48.6078 313.162L49.9623 313.162L49.9623 311.808L48.6078 311.808ZM48.6079 307.186L49.9623 307.186L48.6079 307.186ZM48.6078 376.543L49.9623 376.543L48.6078 376.543ZM48.6078 371.921L47.2534 371.921L48.6078 371.921ZM48.6078 367.299L49.9623 367.299L49.9623 365.944L48.6078 365.944L48.6078 367.299ZM43.9469 367.299L42.5925 367.299L42.5925 368.653L43.9469 368.653L43.9469 367.299ZM43.9469 362.676L45.3013 362.676L45.3013 361.322L43.9469 361.322L43.9469 362.676ZM39.286 362.676L39.286 361.322L39.286 362.676ZM34.6251 362.676L34.6251 364.031L34.6251 362.676ZM25.3033 362.676L25.3033 364.031L25.3033 362.676ZM20.6424 362.676L20.6424 361.322L20.6424 362.676ZM15.9815 362.676L15.9815 361.322L14.627 361.322L14.627 362.676L15.9815 362.676ZM15.9815 367.299L15.9815 368.653L17.3359 368.653L17.3359 367.299L15.9815 367.299ZM11.3205 367.299L11.3205 365.944L9.96613 365.944L9.96613 367.299L11.3205 367.299ZM11.3205 371.921L9.96613 371.921L11.3205 371.921ZM11.3205 376.543L12.675 376.543L11.3205 376.543ZM11.3205 381.165L12.675 381.165L11.3205 381.165ZM11.3205 385.787L9.96613 385.787L11.3205 385.787ZM11.3205 390.409L9.96613 390.409L9.96613 391.764L11.3205 391.764L11.3205 390.409ZM15.9815 390.409L17.3359 390.409L17.3359 389.055L15.9815 389.055L15.9815 390.409ZM15.9815 395.032L14.627 395.032L14.627 396.386L15.9815 396.386L15.9815 395.032ZM20.6424 395.032L20.6424 393.677L20.6424 395.032ZM25.3033 395.032L25.3033 396.386L25.3033 395.032ZM39.286 395.032L39.286 393.677L39.286 395.032ZM43.9469 395.032L43.9469 396.386L45.3013 396.386L45.3013 395.032L43.9469 395.032ZM43.9469 390.409L43.9469 389.055L42.5925 389.055L42.5925 390.409L43.9469 390.409ZM48.6078 390.409L48.6078 391.764L49.9623 391.764L49.9623 390.409L48.6078 390.409ZM48.6078 385.787L47.2534 385.787L48.6078 385.787ZM48.6078 381.165L49.9623 381.165L48.6078 381.165ZM25.3033 404.276L25.3033 405.63L25.3033 404.276ZM11.3205 404.276L9.96613 404.276L9.96613 405.63L11.3205 405.63L11.3205 404.276ZM11.3205 399.654L12.675 399.654L12.675 398.299L11.3205 398.299L11.3205 399.654ZM6.65963 399.654L5.30522 399.654L5.30522 401.008L6.65963 401.008L6.65963 399.654ZM6.65963 395.032L8.01404 395.032L8.01404 393.677L6.65963 393.677L6.65963 395.032ZM1.99871 395.032L0.6443 395.032L0.6443 396.386L1.99871 396.386L1.99871 395.032ZM1.99871 376.543L3.35313 376.543L1.99871 376.543ZM1.99871 362.676L1.99871 361.322L0.644302 361.322L0.644302 362.676L1.99871 362.676ZM6.65963 362.676L6.65963 364.031L8.01404 364.031L8.01404 362.676L6.65963 362.676ZM6.65963 358.054L6.65963 356.7L5.30522 356.7L5.30522 358.054L6.65963 358.054ZM11.3205 358.054L11.3205 359.409L12.675 359.409L12.675 358.054L11.3205 358.054ZM11.3205 353.432L11.3205 352.078L9.96613 352.078L9.96613 353.432L11.3205 353.432ZM20.6424 353.432L20.6424 352.078L20.6424 353.432ZM25.3033 353.432L25.3033 354.787L25.3033 353.432ZM29.9642 353.432L29.9642 352.078L29.9642 353.432ZM34.6251 353.432L34.6251 354.787L34.6251 353.432ZM48.6078 353.432L49.9623 353.432L49.9623 352.078L48.6078 352.078L48.6078 353.432ZM48.6078 358.054L47.2534 358.054L47.2534 359.409L48.6078 359.409L48.6078 358.054ZM53.2688 358.054L54.6232 358.054L54.6232 356.7L53.2688 356.7L53.2688 358.054ZM53.2688 362.676L51.9143 362.676L51.9143 364.031L53.2688 364.031L53.2688 362.676ZM57.9297 362.676L59.2841 362.676L59.2841 361.322L57.9297 361.322L57.9297 362.676ZM57.9297 371.921L56.5753 371.921L57.9297 371.921ZM57.9297 376.543L59.2841 376.543L57.9297 376.543ZM57.9297 395.032L57.9297 396.386L59.2841 396.386L59.2841 395.032L57.9297 395.032ZM53.2688 395.032L53.2688 393.677L51.9143 393.677L51.9143 395.032L53.2688 395.032ZM53.2688 399.654L53.2688 401.008L54.6232 401.008L54.6232 399.654L53.2688 399.654ZM48.6078 399.654L48.6078 398.299L47.2534 398.299L47.2534 399.654L48.6078 399.654ZM48.6078 404.276L48.6078 405.63L49.9623 405.63L49.9623 404.276L48.6078 404.276ZM39.286 404.276L39.286 402.922L39.286 404.276ZM48.6078 413.545L48.6078 412.191L48.6078 413.545ZM57.9297 413.545L59.2841 413.545L59.2841 412.191L57.9297 412.191L57.9297 413.545ZM57.9297 418.167L56.5753 418.167L57.9297 418.167ZM57.9297 422.789L59.2841 422.789L57.9297 422.789ZM57.9297 436.656L59.2841 436.656L57.9297 436.656ZM57.9297 455.144L57.9297 456.499L59.2841 456.499L59.2841 455.144L57.9297 455.144ZM53.2688 455.144L53.2688 453.79L51.9143 453.79L51.9143 455.144L53.2688 455.144ZM53.2688 459.767L53.2688 461.121L54.6232 461.121L54.6232 459.767L53.2688 459.767ZM48.6078 459.767L48.6078 458.412L47.2534 458.412L47.2534 459.767L48.6078 459.767ZM48.6078 464.389L48.6078 465.743L49.9623 465.743L49.9623 464.389L48.6078 464.389ZM39.286 464.389L39.286 463.034L39.286 464.389ZM34.6251 464.389L34.6251 465.743L34.6251 464.389ZM29.9642 464.389L28.6098 464.389L28.6098 465.743L29.9642 465.743L29.9642 464.389ZM29.9642 459.767L31.3186 459.767L31.3186 458.412L29.9642 458.412L29.9642 459.767ZM25.3033 459.767L23.9489 459.767L23.9489 461.121L25.3033 461.121L25.3033 459.767ZM25.3033 455.144L26.6577 455.144L26.6577 453.79L25.3033 453.79L25.3033 455.144ZM20.6424 455.144L20.6424 453.79L20.6424 455.144ZM15.9814 455.144L15.9814 453.79L14.627 453.79L14.627 455.144L15.9814 455.144ZM15.9814 459.767L15.9814 461.121L17.3359 461.121L17.3359 459.767L15.9814 459.767ZM11.3205 459.767L11.3205 458.412L9.96612 458.412L9.96612 459.767L11.3205 459.767ZM11.3205 464.389L11.3205 465.743L12.6749 465.743L12.6749 464.389L11.3205 464.389ZM6.65962 464.389L6.65962 465.743L6.65962 464.389ZM1.99871 464.389L0.644297 464.389L0.644297 465.743L1.99871 465.743L1.99871 464.389ZM1.99871 455.144L1.99871 453.79L0.644298 453.79L0.644298 455.144L1.99871 455.144ZM6.65963 455.144L6.65963 456.499L8.01404 456.499L8.01404 455.144L6.65963 455.144ZM6.65963 450.522L6.65963 449.168L5.30521 449.168L5.30521 450.522L6.65963 450.522ZM11.3205 450.522L11.3205 451.877L12.6749 451.877L12.6749 450.522L11.3205 450.522ZM11.3205 445.9L11.3205 444.546L9.96613 444.546L9.96613 445.9L11.3205 445.9ZM15.9814 445.9L15.9814 447.254L17.3359 447.254L17.3359 445.9L15.9814 445.9ZM15.9814 441.278L15.9814 439.923L14.627 439.923L14.627 441.278L15.9814 441.278ZM20.6424 441.278L20.6424 442.632L21.9968 442.632L21.9968 441.278L20.6424 441.278ZM20.6424 422.789L21.9968 422.789L21.9968 421.435L20.6424 421.435L20.6424 422.789ZM1.99871 422.789L0.644299 422.789L0.644299 424.144L1.99871 424.144L1.99871 422.789ZM1.99871 413.545L1.99871 412.191L0.6443 412.191L0.6443 413.545L1.99871 413.545ZM20.6424 413.545L20.6424 412.191L20.6424 413.545ZM25.3033 413.545L25.3033 414.899L25.3033 413.545ZM29.9642 413.545L29.9642 412.191L29.9642 413.545ZM34.6251 413.545L34.6251 414.899L34.6251 413.545ZM39.286 413.545L39.286 412.191L39.286 413.545ZM43.9469 413.545L43.9469 414.899L43.9469 413.545ZM48.6078 427.411L47.2534 427.411L48.6078 427.411ZM48.6078 422.789L49.9623 422.789L49.9623 421.435L48.6078 421.435L48.6078 422.789ZM34.6251 422.789L34.6251 424.144L34.6251 422.789ZM29.9642 422.789L29.9642 421.435L28.6098 421.435L28.6098 422.789L29.9642 422.789ZM29.9642 427.411L28.6098 427.411L29.9642 427.411ZM29.9642 432.034L28.6098 432.034L29.9642 432.034ZM29.9642 436.656L31.3186 436.656L29.9642 436.656ZM29.9642 441.278L28.6098 441.278L29.9642 441.278ZM29.9642 450.522L28.6098 450.522L28.6098 451.877L29.9642 451.877L29.9642 450.522ZM34.6251 450.522L35.9795 450.522L35.9795 449.168L34.6251 449.168L34.6251 450.522ZM34.6251 455.144L33.2707 455.144L33.2707 456.499L34.6251 456.499L34.6251 455.144ZM39.286 455.144L39.286 453.79L39.286 455.144ZM43.9469 455.144L43.9469 456.499L45.3013 456.499L45.3013 455.144L43.9469 455.144ZM43.9469 450.522L43.9469 449.168L42.5925 449.168L42.5925 450.522L43.9469 450.522ZM48.6078 450.522L48.6078 451.877L49.9623 451.877L49.9623 450.522L48.6078 450.522ZM53.2687 519.879L53.2687 521.234L53.2687 519.879ZM48.6078 519.879L48.6078 518.525L48.6078 519.879ZM43.9469 519.879L43.9469 518.525L43.9469 519.879ZM39.286 519.879L37.9316 519.879L37.9316 521.234L39.286 521.234L39.286 519.879ZM39.286 515.257L40.6404 515.257L40.6404 513.903L39.286 513.903L39.286 515.257ZM34.6251 515.257L33.2707 515.257L33.2707 516.612L34.6251 516.612L34.6251 515.257ZM34.6251 510.635L35.9795 510.635L35.9795 509.281L34.6251 509.281L34.6251 510.635ZM29.9642 510.635L28.6098 510.635L28.6098 511.989L29.9642 511.989L29.9642 510.635ZM29.9642 506.013L31.3186 506.013L31.3186 504.658L29.9642 504.658L29.9642 506.013ZM25.3033 506.013L23.9489 506.013L23.9489 507.367L25.3033 507.367L25.3033 506.013ZM25.3033 501.391L26.6577 501.391L26.6577 500.036L25.3033 500.036L25.3033 501.391ZM20.6424 501.391L20.6424 502.745L20.6424 501.391ZM1.99871 501.391L0.644296 501.391L0.644296 502.745L1.99871 502.745L1.99871 501.391ZM1.99871 492.146L1.99871 490.792L0.644296 490.792L0.644296 492.146L1.99871 492.146ZM20.6424 492.146L20.6424 493.501L20.6424 492.146ZM25.3033 492.146L25.3033 493.501L26.6577 493.501L26.6577 492.146L25.3033 492.146ZM25.3033 487.524L25.3033 486.17L23.9489 486.17L23.9489 487.524L25.3033 487.524ZM29.9642 487.524L29.9642 488.879L31.3186 488.879L31.3186 487.524L29.9642 487.524ZM29.9642 482.902L29.9642 481.548L28.6098 481.548L28.6098 482.902L29.9642 482.902ZM34.6251 482.902L34.6251 484.256L35.9795 484.256L35.9795 482.902L34.6251 482.902ZM34.6251 478.28L34.6251 476.925L33.2707 476.925L33.2707 478.28L34.6251 478.28ZM39.286 478.28L39.286 479.634L40.6404 479.634L40.6404 478.28L39.286 478.28ZM39.286 473.658L39.286 472.303L37.9316 472.303L37.9316 473.658L39.286 473.658ZM43.9469 473.658L43.9469 475.012L43.9469 473.658ZM48.6078 473.658L48.6078 472.303L48.6078 473.658ZM57.9297 473.658L59.2841 473.658L59.2841 472.303L57.9297 472.303L57.9297 473.658ZM57.9297 482.902L57.9297 484.256L59.2841 484.256L59.2841 482.902L57.9297 482.902ZM48.6078 482.902L48.6078 481.548L48.6078 482.902ZM43.9469 482.902L43.9469 481.548L42.5925 481.548L42.5925 482.902L43.9469 482.902ZM43.9469 487.524L43.9469 488.879L45.3013 488.879L45.3013 487.524L43.9469 487.524ZM39.286 487.524L39.286 486.17L37.9316 486.17L37.9316 487.524L39.286 487.524ZM39.286 492.146L39.286 493.501L40.6404 493.501L40.6404 492.146L39.286 492.146ZM34.6251 492.146L34.6251 490.792L33.2707 490.792L33.2707 492.146L34.6251 492.146ZM34.6251 501.391L33.2707 501.391L33.2707 502.745L34.6251 502.745L34.6251 501.391ZM39.286 501.391L40.6404 501.391L40.6404 500.036L39.286 500.036L39.286 501.391ZM39.286 506.013L37.9316 506.013L37.9316 507.367L39.286 507.367L39.286 506.013ZM43.9469 506.013L45.3013 506.013L45.3013 504.658L43.9469 504.658L43.9469 506.013ZM43.9469 510.635L42.5925 510.635L42.5925 511.989L43.9469 511.989L43.9469 510.635ZM48.6078 510.635L48.6078 509.281L48.6078 510.635ZM57.9297 510.635L59.2841 510.635L59.2841 509.281L57.9297 509.281L57.9297 510.635ZM57.9297 515.257L56.5753 515.257L57.9297 515.257ZM57.9297 519.879L57.9297 521.234L59.2841 521.234L59.2841 519.879L57.9297 519.879ZM11.3206 28.3786L1.99873 28.3786L1.99873 31.0874L11.3206 31.0874L11.3206 28.3786ZM3.35314 29.733L3.35314 25.1108L0.644317 25.1108L0.644316 29.733L3.35314 29.733ZM3.35314 25.1108L3.35314 20.4886L0.644317 20.4886L0.644317 25.1108L3.35314 25.1108ZM3.35314 20.4886L3.35314 11.2443L0.644317 11.2443L0.644317 20.4886L3.35314 20.4886ZM3.35314 11.2443L3.35314 6.62216L0.644317 6.62216L0.644317 11.2443L3.35314 11.2443ZM3.35314 6.62216L3.35314 2L0.644318 2L0.644317 6.62216L3.35314 6.62216ZM1.99873 3.35441L11.3206 3.35441L11.3206 0.645586L1.99873 0.645586L1.99873 3.35441ZM9.96614 2L9.96614 6.62216L12.675 6.62216L12.675 2L9.96614 2ZM9.96614 6.62216L9.96614 11.2443L12.675 11.2443L12.675 6.62216L9.96614 6.62216ZM11.3206 12.5987L39.286 12.5987L39.286 9.88991L11.3206 9.88991L11.3206 12.5987ZM39.286 12.5987L48.6079 12.5987L48.6079 9.88991L39.286 9.88991L39.286 12.5987ZM49.9623 11.2443L49.9623 6.62216L47.2535 6.62216L47.2535 11.2443L49.9623 11.2443ZM49.9623 6.62216L49.9623 2L47.2535 2L47.2535 6.62216L49.9623 6.62216ZM48.6079 3.35441L57.9297 3.35441L57.9297 0.645588L48.6079 0.645588L48.6079 3.35441ZM56.5753 2L56.5753 6.62216L59.2841 6.62216L59.2841 2L56.5753 2ZM56.5753 6.62216L56.5753 11.2443L59.2841 11.2443L59.2841 6.62216L56.5753 6.62216ZM56.5753 11.2443L56.5753 15.8665L59.2841 15.8665L59.2841 11.2443L56.5753 11.2443ZM56.5753 15.8665L56.5753 20.4886L59.2841 20.4886L59.2841 15.8665L56.5753 15.8665ZM56.5753 20.4886L56.5753 25.1108L59.2841 25.1108L59.2841 20.4886L56.5753 20.4886ZM56.5753 25.1108L56.5753 29.733L59.2841 29.733L59.2841 25.1108L56.5753 25.1108ZM57.9297 28.3786L48.6079 28.3786L48.6079 31.0874L57.9297 31.0874L57.9297 28.3786ZM49.9623 29.733L49.9623 25.1108L47.2535 25.1108L47.2535 29.733L49.9623 29.733ZM49.9623 25.1108L49.9623 20.4886L47.2535 20.4886L47.2535 25.1108L49.9623 25.1108ZM48.6079 19.1342L11.3206 19.1342L11.3206 21.8431L48.6079 21.8431L48.6079 19.1342ZM9.96614 20.4886L9.96614 25.1108L12.675 25.1108L12.675 20.4886L9.96614 20.4886ZM9.96614 25.1108L9.96614 29.733L12.675 29.733L12.675 25.1108L9.96614 25.1108ZM39.286 95.8223L53.2688 95.8223L53.2688 93.1135L39.286 93.1135L39.286 95.8223ZM53.2688 95.8223L57.9297 95.8223L57.9297 93.1135L53.2688 93.1135L53.2688 95.8223ZM56.5753 94.4679L56.5753 103.712L59.2841 103.712L59.2841 94.4679L56.5753 94.4679ZM57.9297 102.358L53.2688 102.358L53.2688 105.067L57.9297 105.067L57.9297 102.358ZM53.2688 102.358L48.6079 102.358L48.6079 105.067L53.2688 105.067L53.2688 102.358ZM48.6079 102.358L11.3206 102.358L11.3206 105.067L48.6079 105.067L48.6079 102.358ZM11.3206 102.358L1.99873 102.358L1.99873 105.067L11.3206 105.067L11.3206 102.358ZM3.35314 103.712L3.35314 94.4679L0.644314 94.4679L0.644313 103.712L3.35314 103.712ZM1.99873 95.8223L11.3206 95.8223L11.3206 93.1135L1.99873 93.1135L1.99873 95.8223ZM12.675 94.4679L12.675 89.8457L9.96614 89.8457L9.96614 94.4679L12.675 94.4679ZM11.3206 91.2001L15.9815 91.2001L15.9815 88.4913L11.3206 88.4913L11.3206 91.2001ZM17.3359 89.8457L17.3359 85.2235L14.6271 85.2235L14.6271 89.8457L17.3359 89.8457ZM15.9815 86.578L20.6424 86.578L20.6424 83.8691L15.9815 83.8691L15.9815 86.578ZM21.9968 85.2235L21.9968 80.6014L19.288 80.6014L19.288 85.2235L21.9968 85.2235ZM20.6424 81.9558L25.3033 81.9558L25.3033 79.247L20.6424 79.247L20.6424 81.9558ZM26.6577 80.6014L26.6577 75.9792L23.9489 75.9792L23.9489 80.6014L26.6577 80.6014ZM25.3033 77.3336L29.9642 77.3336L29.9642 74.6248L25.3033 74.6248L25.3033 77.3336ZM31.3186 75.9792L31.3186 71.3571L28.6098 71.3571L28.6098 75.9792L31.3186 75.9792ZM29.9642 72.7115L34.6251 72.7115L34.6251 70.0027L29.9642 70.0027L29.9642 72.7115ZM35.9795 71.3571L35.9795 66.7349L33.2707 66.7349L33.2707 71.3571L35.9795 71.3571ZM34.6251 68.0893L39.286 68.0893L39.286 65.3805L34.6251 65.3805L34.6251 68.0893ZM40.6404 66.7349L40.6404 62.1128L37.9316 62.1128L37.9316 66.7349L40.6404 66.7349ZM39.286 60.7583L25.3033 60.7583L25.3033 63.4672L39.286 63.4672L39.286 60.7583ZM25.3033 60.7583L1.99873 60.7583L1.99873 63.4672L25.3033 63.4672L25.3033 60.7583ZM3.35314 62.1127L3.35314 57.4906L0.644315 57.4906L0.644315 62.1127L3.35314 62.1127ZM3.35314 57.4906L3.35314 52.8684L0.644315 52.8684L0.644315 57.4906L3.35314 57.4906ZM1.99873 54.2228L6.65964 54.2228L6.65964 51.514L1.99873 51.514L1.99873 54.2228ZM6.65964 54.2228L11.3206 54.2228L11.3206 51.514L6.65964 51.514L6.65964 54.2228ZM11.3206 54.2228L15.9815 54.2228L15.9815 51.514L11.3206 51.514L11.3206 54.2228ZM15.9815 54.2228L25.3033 54.2228L25.3033 51.514L15.9815 51.514L15.9815 54.2228ZM25.3033 54.2228L29.9642 54.2228L29.9642 51.514L25.3033 51.514L25.3033 54.2228ZM29.9642 54.2228L34.6251 54.2228L34.6251 51.514L29.9642 51.514L29.9642 54.2228ZM34.6251 54.2228L39.286 54.2228L39.286 51.514L34.6251 51.514L34.6251 54.2228ZM39.286 54.2228L43.9469 54.2228L43.9469 51.514L39.286 51.514L39.286 54.2228ZM43.9469 54.2228L48.6079 54.2228L48.6079 51.514L43.9469 51.514L43.9469 54.2228ZM48.6079 54.2228L53.2688 54.2228L53.2688 51.514L48.6079 51.514L48.6079 54.2228ZM53.2688 54.2228L57.9297 54.2228L57.9297 51.514L53.2688 51.514L53.2688 54.2228ZM56.5753 52.8684L56.5753 57.4906L59.2841 57.4906L59.2841 52.8684L56.5753 52.8684ZM56.5753 57.4906L56.5753 62.1128L59.2841 62.1128L59.2841 57.4906L56.5753 57.4906ZM57.9297 60.7583L53.2688 60.7583L53.2688 63.4672L57.9297 63.4672L57.9297 60.7583ZM51.9144 62.1128L51.9144 66.7349L54.6232 66.7349L54.6232 62.1128L51.9144 62.1128ZM53.2688 65.3805L48.6079 65.3805L48.6079 68.0893L53.2688 68.0893L53.2688 65.3805ZM47.2534 66.7349L47.2534 71.3571L49.9623 71.3571L49.9623 66.7349L47.2534 66.7349ZM48.6079 70.0027L43.9469 70.0027L43.9469 72.7115L48.6079 72.7115L48.6079 70.0027ZM42.5925 71.3571L42.5925 75.9792L45.3014 75.9792L45.3014 71.3571L42.5925 71.3571ZM43.9469 74.6248L39.286 74.6248L39.286 77.3336L43.9469 77.3336L43.9469 74.6248ZM37.9316 75.9792L37.9316 80.6014L40.6404 80.6014L40.6404 75.9792L37.9316 75.9792ZM39.286 79.247L34.6251 79.247L34.6251 81.9558L39.286 81.9558L39.286 79.247ZM33.2707 80.6014L33.2707 85.2235L35.9795 85.2235L35.9795 80.6014L33.2707 80.6014ZM34.6251 83.8691L29.9642 83.8691L29.9642 86.578L34.6251 86.578L34.6251 83.8691ZM28.6098 85.2235L28.6098 89.8457L31.3186 89.8457L31.3186 85.2235L28.6098 85.2235ZM29.9642 88.4913L25.3033 88.4913L25.3033 91.2001L29.9642 91.2001L29.9642 88.4913ZM23.9489 89.8457L23.9489 94.4679L26.6577 94.4679L26.6577 89.8457L23.9489 89.8457ZM25.3033 95.8223L39.286 95.8223L39.286 93.1135L25.3033 93.1135L25.3033 95.8223ZM53.2688 162.471L48.6079 162.471L48.6079 165.179L53.2688 165.179L53.2688 162.471ZM48.6079 162.471L39.286 162.471L39.286 165.179L48.6079 165.179L48.6079 162.471ZM39.286 162.471L29.9642 162.471L29.9642 165.179L39.286 165.179L39.286 162.471ZM29.9642 162.471L25.3033 162.471L25.3033 165.179L29.9642 165.179L29.9642 162.471ZM25.3033 162.471L20.6424 162.471L20.6424 165.179L25.3033 165.179L25.3033 162.471ZM21.9968 163.825L21.9968 159.203L19.288 159.203L19.288 163.825L21.9968 163.825ZM20.6424 157.848L15.9815 157.848L15.9815 160.557L20.6424 160.557L20.6424 157.848ZM17.3359 159.203L17.3359 154.581L14.627 154.581L14.627 159.203L17.3359 159.203ZM15.9815 153.226L11.3206 153.226L11.3205 155.935L15.9815 155.935L15.9815 153.226ZM12.675 154.581L12.675 149.958L9.96614 149.958L9.96614 154.581L12.675 154.581ZM11.3206 148.604L6.65964 148.604L6.65964 151.313L11.3206 151.313L11.3206 148.604ZM8.01405 149.958L8.01405 145.336L5.30523 145.336L5.30523 149.958L8.01405 149.958ZM6.65964 143.982L1.99872 143.982L1.99872 146.691L6.65964 146.691L6.65964 143.982ZM3.35314 145.336L3.35314 131.47L0.644312 131.47L0.644311 145.336L3.35314 145.336ZM1.99872 132.824L6.65964 132.824L6.65964 130.115L1.99872 130.115L1.99872 132.824ZM8.01405 131.47L8.01405 126.848L5.30523 126.848L5.30523 131.47L8.01405 131.47ZM6.65964 128.202L11.3206 128.202L11.3206 125.493L6.65964 125.493L6.65964 128.202ZM12.675 126.848L12.675 122.226L9.96614 122.225L9.96614 126.848L12.675 126.848ZM11.3206 123.58L15.9815 123.58L15.9815 120.871L11.3206 120.871L11.3206 123.58ZM17.3359 122.226L17.3359 117.603L14.6271 117.603L14.6271 122.226L17.3359 122.226ZM15.9815 118.958L20.6424 118.958L20.6424 116.249L15.9815 116.249L15.9815 118.958ZM21.9968 117.603L21.9968 112.981L19.288 112.981L19.288 117.603L21.9968 117.603ZM20.6424 114.336L25.3033 114.336L25.3033 111.627L20.6424 111.627L20.6424 114.336ZM25.3033 114.336L29.9642 114.336L29.9642 111.627L25.3033 111.627L25.3033 114.336ZM29.9642 114.336L39.286 114.336L39.286 111.627L29.9642 111.627L29.9642 114.336ZM39.286 114.336L48.6079 114.336L48.6079 111.627L39.286 111.627L39.286 114.336ZM48.6079 114.336L53.2688 114.336L53.2688 111.627L48.6079 111.627L48.6079 114.336ZM53.2688 114.336L57.9297 114.336L57.9297 111.627L53.2688 111.627L53.2688 114.336ZM56.5753 112.981L56.5753 117.603L59.2841 117.603L59.2841 112.981L56.5753 112.981ZM56.5753 117.603L56.5753 122.226L59.2841 122.226L59.2841 117.603L56.5753 117.603ZM57.9297 120.871L53.2688 120.871L53.2688 123.58L57.9297 123.58L57.9297 120.871ZM53.2688 120.871L48.6079 120.871L48.6079 123.58L53.2688 123.58L53.2688 120.871ZM48.6079 120.871L29.9642 120.871L29.9642 123.58L48.6079 123.58L48.6079 120.871ZM29.9642 120.871L25.3033 120.871L25.3033 123.58L29.9642 123.58L29.9642 120.871ZM23.9489 122.226L23.9489 126.848L26.6577 126.848L26.6577 122.226L23.9489 122.226ZM25.3033 125.493L20.6424 125.493L20.6424 128.202L25.3033 128.202L25.3033 125.493ZM19.288 126.848L19.288 131.47L21.9968 131.47L21.9968 126.848L19.288 126.848ZM20.6424 130.115L15.9815 130.115L15.9815 132.824L20.6424 132.824L20.6424 130.115ZM14.6271 131.47L14.6271 136.092L17.3359 136.092L17.3359 131.47L14.6271 131.47ZM15.9815 134.738L11.3206 134.738L11.3206 137.446L15.9815 137.446L15.9815 134.738ZM9.96614 136.092L9.96614 140.714L12.675 140.714L12.675 136.092L9.96614 136.092ZM11.3206 142.069L15.9815 142.069L15.9815 139.36L11.3206 139.36L11.3206 142.069ZM14.6271 140.714L14.627 145.336L17.3359 145.336L17.3359 140.714L14.6271 140.714ZM15.9815 146.691L20.6424 146.691L20.6424 143.982L15.9815 143.982L15.9815 146.691ZM19.288 145.336L19.288 149.958L21.9968 149.958L21.9968 145.336L19.288 145.336ZM20.6424 151.313L25.3033 151.313L25.3033 148.604L20.6424 148.604L20.6424 151.313ZM23.9489 149.958L23.9489 154.581L26.6577 154.581L26.6577 149.958L23.9489 149.958ZM25.3033 155.935L29.9642 155.935L29.9642 153.226L25.3033 153.226L25.3033 155.935ZM29.9642 155.935L48.6079 155.935L48.6079 153.226L29.9642 153.226L29.9642 155.935ZM48.6079 155.935L53.2688 155.935L53.2688 153.226L48.6079 153.226L48.6079 155.935ZM53.2688 155.935L57.9297 155.935L57.9297 153.226L53.2688 153.226L53.2688 155.935ZM56.5753 154.581L56.5753 159.203L59.2841 159.203L59.2841 154.581L56.5753 154.581ZM56.5753 159.203L56.5753 163.825L59.2841 163.825L59.2841 159.203L56.5753 159.203ZM57.9297 162.471L53.2688 162.471L53.2688 165.179L57.9297 165.179L57.9297 162.471ZM48.6079 174.448L53.2688 174.448L53.2688 171.74L48.6079 171.74L48.6079 174.448ZM53.2688 174.448L57.9297 174.448L57.9297 171.74L53.2688 171.74L53.2688 174.448ZM56.5753 173.094L56.5753 177.716L59.2841 177.716L59.2841 173.094L56.5753 173.094ZM56.5753 177.716L56.5753 182.338L59.2841 182.338L59.2841 177.716L56.5753 177.716ZM56.5753 182.338L56.5753 196.205L59.2841 196.205L59.2841 182.338L56.5753 182.338ZM56.5753 196.205L56.5753 223.938L59.2841 223.938L59.2841 196.205L56.5753 196.205ZM57.9297 222.583L48.6079 222.583L48.6079 225.292L57.9297 225.292L57.9297 222.583ZM49.9623 223.938L49.9623 219.316L47.2534 219.316L47.2534 223.938L49.9623 223.938ZM49.9623 219.316L49.9623 214.693L47.2534 214.693L47.2534 219.316L49.9623 219.316ZM49.9623 214.693L49.9623 205.449L47.2534 205.449L47.2534 214.693L49.9623 214.693ZM49.9623 205.449L49.9623 200.827L47.2534 200.827L47.2534 205.449L49.9623 205.449ZM49.9623 200.827L49.9623 196.205L47.2534 196.205L47.2534 200.827L49.9623 200.827ZM49.9623 196.205L49.9623 186.96L47.2534 186.96L47.2534 196.205L49.9623 196.205ZM49.9623 186.96L49.9623 182.338L47.2534 182.338L47.2534 186.96L49.9623 186.96ZM48.6079 180.984L34.6251 180.984L34.6251 183.693L48.6079 183.693L48.6079 180.984ZM33.2707 182.338L33.2707 214.693L35.9795 214.693L35.9795 182.338L33.2707 182.338ZM34.6251 213.339L25.3033 213.339L25.3033 216.048L34.6251 216.048L34.6251 213.339ZM26.6577 214.693L26.6577 182.338L23.9489 182.338L23.9489 214.693L26.6577 214.693ZM25.3033 180.984L11.3205 180.984L11.3205 183.693L25.3033 183.693L25.3033 180.984ZM9.96614 182.338L9.96614 186.96L12.675 186.96L12.675 182.338L9.96614 182.338ZM9.96614 186.96L9.96614 196.205L12.675 196.205L12.675 186.96L9.96614 186.96ZM9.96614 196.205L9.96614 200.827L12.675 200.827L12.675 196.205L9.96614 196.205ZM9.96614 200.827L9.96614 205.449L12.675 205.449L12.675 200.827L9.96614 200.827ZM9.96614 205.449L9.96614 214.693L12.675 214.693L12.675 205.449L9.96614 205.449ZM9.96614 214.693L9.96614 219.316L12.675 219.316L12.675 214.693L9.96614 214.693ZM9.96614 219.316L9.96613 223.938L12.675 223.938L12.675 219.316L9.96614 219.316ZM11.3205 222.583L1.99872 222.583L1.99872 225.292L11.3205 225.292L11.3205 222.583ZM3.35313 223.938L3.35313 196.205L0.644309 196.205L0.644308 223.938L3.35313 223.938ZM3.35313 196.205L3.35313 182.338L0.64431 182.338L0.644309 196.205L3.35313 196.205ZM3.35313 182.338L3.35313 177.716L0.64431 177.716L0.64431 182.338L3.35313 182.338ZM3.35313 177.716L3.35313 173.094L0.64431 173.094L0.64431 177.716L3.35313 177.716ZM1.99872 174.448L6.65964 174.448L6.65964 171.74L1.99872 171.74L1.99872 174.448ZM6.65964 174.448L11.3205 174.448L11.3205 171.74L6.65964 171.74L6.65964 174.448ZM11.3205 174.448L15.9815 174.448L15.9815 171.74L11.3205 171.74L11.3205 174.448ZM15.9815 174.448L25.3033 174.448L25.3033 171.74L15.9815 171.74L15.9815 174.448ZM25.3033 174.448L29.9642 174.448L29.9642 171.74L25.3033 171.74L25.3033 174.448ZM29.9642 174.448L34.6251 174.448L34.6251 171.74L29.9642 171.74L29.9642 174.448ZM34.6251 174.448L39.286 174.448L39.286 171.74L34.6251 171.74L34.6251 174.448ZM39.286 174.448L43.9469 174.448L43.9469 171.74L39.286 171.74L39.286 174.448ZM43.9469 174.448L48.6079 174.448L48.6079 171.74L43.9469 171.74L43.9469 174.448ZM39.286 276.161L53.2688 276.161L53.2688 273.452L39.286 273.452L39.286 276.161ZM53.2688 276.161L57.9297 276.161L57.9297 273.452L53.2688 273.452L53.2688 276.161ZM56.5753 274.806L56.5753 284.05L59.2841 284.05L59.2841 274.806L56.5753 274.806ZM57.9297 282.696L53.2688 282.696L53.2688 285.405L57.9297 285.405L57.9297 282.696ZM53.2688 282.696L48.6079 282.696L48.6079 285.405L53.2688 285.405L53.2688 282.696ZM48.6079 282.696L11.3205 282.696L11.3205 285.405L48.6079 285.405L48.6079 282.696ZM11.3205 282.696L1.99872 282.696L1.99872 285.405L11.3205 285.405L11.3205 282.696ZM3.35313 284.05L3.35313 274.806L0.644306 274.806L0.644305 284.05L3.35313 284.05ZM1.99872 276.161L11.3205 276.161L11.3205 273.452L1.99872 273.452L1.99872 276.161ZM12.675 274.806L12.675 270.184L9.96613 270.184L9.96613 274.806L12.675 274.806ZM11.3205 271.538L15.9815 271.538L15.9815 268.83L11.3205 268.83L11.3205 271.538ZM17.3359 270.184L17.3359 265.562L14.627 265.562L14.627 270.184L17.3359 270.184ZM15.9815 266.916L20.6424 266.916L20.6424 264.207L15.9815 264.207L15.9815 266.916ZM21.9968 265.562L21.9968 260.94L19.288 260.94L19.288 265.562L21.9968 265.562ZM20.6424 262.294L25.3033 262.294L25.3033 259.585L20.6424 259.585L20.6424 262.294ZM26.6577 260.94L26.6577 256.317L23.9489 256.317L23.9489 260.94L26.6577 260.94ZM25.3033 257.672L29.9642 257.672L29.9642 254.963L25.3033 254.963L25.3033 257.672ZM31.3186 256.317L31.3186 251.695L28.6098 251.695L28.6098 256.317L31.3186 256.317ZM29.9642 253.05L34.6251 253.05L34.6251 250.341L29.9642 250.341L29.9642 253.05ZM35.9795 251.695L35.9795 247.073L33.2707 247.073L33.2707 251.695L35.9795 251.695ZM34.6251 248.428L39.286 248.428L39.286 245.719L34.6251 245.719L34.6251 248.428ZM40.6404 247.073L40.6404 242.451L37.9316 242.451L37.9316 247.073L40.6404 247.073ZM39.286 241.097L25.3033 241.097L25.3033 243.805L39.286 243.805L39.286 241.097ZM25.3033 241.097L1.99872 241.097L1.99872 243.805L25.3033 243.805L25.3033 241.097ZM3.35313 242.451L3.35313 237.829L0.644307 237.829L0.644307 242.451L3.35313 242.451ZM3.35313 237.829L3.35313 233.207L0.644308 233.207L0.644307 237.829L3.35313 237.829ZM1.99872 234.561L6.65963 234.561L6.65964 231.852L1.99872 231.852L1.99872 234.561ZM6.65963 234.561L11.3205 234.561L11.3205 231.852L6.65964 231.852L6.65963 234.561ZM11.3205 234.561L15.9815 234.561L15.9815 231.852L11.3205 231.852L11.3205 234.561ZM15.9815 234.561L25.3033 234.561L25.3033 231.852L15.9815 231.852L15.9815 234.561ZM25.3033 234.561L29.9642 234.561L29.9642 231.852L25.3033 231.852L25.3033 234.561ZM29.9642 234.561L34.6251 234.561L34.6251 231.852L29.9642 231.852L29.9642 234.561ZM34.6251 234.561L39.286 234.561L39.286 231.852L34.6251 231.852L34.6251 234.561ZM39.286 234.561L43.9469 234.561L43.9469 231.852L39.286 231.852L39.286 234.561ZM43.9469 234.561L48.6079 234.561L48.6079 231.852L43.9469 231.852L43.9469 234.561ZM48.6079 234.561L53.2688 234.561L53.2688 231.852L48.6079 231.852L48.6079 234.561ZM53.2688 234.561L57.9297 234.561L57.9297 231.852L53.2688 231.852L53.2688 234.561ZM56.5753 233.207L56.5753 237.829L59.2841 237.829L59.2841 233.207L56.5753 233.207ZM56.5753 237.829L56.5753 242.451L59.2841 242.451L59.2841 237.829L56.5753 237.829ZM57.9297 241.097L53.2688 241.097L53.2688 243.805L57.9297 243.805L57.9297 241.097ZM51.9144 242.451L51.9144 247.073L54.6232 247.073L54.6232 242.451L51.9144 242.451ZM53.2688 245.719L48.6079 245.719L48.6079 248.428L53.2688 248.428L53.2688 245.719ZM47.2534 247.073L47.2534 251.695L49.9623 251.695L49.9623 247.073L47.2534 247.073ZM48.6079 250.341L43.9469 250.341L43.9469 253.05L48.6079 253.05L48.6079 250.341ZM42.5925 251.695L42.5925 256.317L45.3013 256.317L45.3013 251.695L42.5925 251.695ZM43.9469 254.963L39.286 254.963L39.286 257.672L43.9469 257.672L43.9469 254.963ZM37.9316 256.317L37.9316 260.94L40.6404 260.94L40.6404 256.317L37.9316 256.317ZM39.286 259.585L34.6251 259.585L34.6251 262.294L39.286 262.294L39.286 259.585ZM33.2707 260.94L33.2707 265.562L35.9795 265.562L35.9795 260.94L33.2707 260.94ZM34.6251 264.207L29.9642 264.207L29.9642 266.916L34.6251 266.916L34.6251 264.207ZM28.6098 265.562L28.6098 270.184L31.3186 270.184L31.3186 265.562L28.6098 265.562ZM29.9642 268.83L25.3033 268.83L25.3033 271.538L29.9642 271.538L29.9642 268.83ZM23.9489 270.184L23.9489 274.806L26.6577 274.806L26.6577 270.184L23.9489 270.184ZM25.3033 276.161L39.286 276.161L39.286 273.452L25.3033 273.452L25.3033 276.161ZM48.6079 294.674L53.2688 294.674L53.2688 291.965L48.6079 291.965L48.6079 294.674ZM53.2688 294.674L57.9297 294.674L57.9297 291.965L53.2688 291.965L53.2688 294.674ZM56.5753 293.319L56.5753 297.942L59.2841 297.942L59.2841 293.319L56.5753 293.319ZM56.5753 297.942L56.5753 302.564L59.2841 302.564L59.2841 297.942L56.5753 297.942ZM56.5753 302.564L56.5753 316.43L59.2841 316.43L59.2841 302.564L56.5753 302.564ZM56.5753 316.43L56.5753 339.541L59.2841 339.541L59.2841 316.43L56.5753 316.43ZM57.9297 338.187L48.6078 338.187L48.6078 340.895L57.9297 340.895L57.9297 338.187ZM49.9623 339.541L49.9623 334.919L47.2534 334.919L47.2534 339.541L49.9623 339.541ZM49.9623 334.919L49.9623 330.297L47.2534 330.297L47.2534 334.919L49.9623 334.919ZM49.9623 330.297L49.9623 321.052L47.2534 321.052L47.2534 330.297L49.9623 330.297ZM48.6078 319.698L25.3033 319.698L25.3033 322.407L48.6078 322.407L48.6078 319.698ZM25.3033 319.698L1.99872 319.698L1.99872 322.407L25.3033 322.407L25.3033 319.698ZM3.35313 321.052L3.35313 311.808L0.644304 311.808L0.644304 321.052L3.35313 321.052ZM1.99872 313.162L25.3033 313.162L25.3033 310.454L1.99872 310.454L1.99872 313.162ZM25.3033 313.162L48.6078 313.162L48.6078 310.454L25.3033 310.454L25.3033 313.162ZM49.9623 311.808L49.9623 307.186L47.2534 307.186L47.2534 311.808L49.9623 311.808ZM49.9623 307.186L49.9623 293.319L47.2534 293.319L47.2534 307.186L49.9623 307.186ZM49.9623 376.543L49.9623 371.921L47.2534 371.921L47.2534 376.543L49.9623 376.543ZM49.9623 371.921L49.9623 367.299L47.2534 367.299L47.2534 371.921L49.9623 371.921ZM48.6078 365.944L43.9469 365.944L43.9469 368.653L48.6078 368.653L48.6078 365.944ZM45.3013 367.299L45.3013 362.676L42.5925 362.676L42.5925 367.299L45.3013 367.299ZM43.9469 361.322L39.286 361.322L39.286 364.031L43.9469 364.031L43.9469 361.322ZM39.286 361.322L34.6251 361.322L34.6251 364.031L39.286 364.031L39.286 361.322ZM34.6251 361.322L25.3033 361.322L25.3033 364.031L34.6251 364.031L34.6251 361.322ZM25.3033 361.322L20.6424 361.322L20.6424 364.031L25.3033 364.031L25.3033 361.322ZM20.6424 361.322L15.9815 361.322L15.9815 364.031L20.6424 364.031L20.6424 361.322ZM14.627 362.676L14.627 367.299L17.3359 367.299L17.3359 362.676L14.627 362.676ZM15.9815 365.944L11.3205 365.944L11.3205 368.653L15.9815 368.653L15.9815 365.944ZM9.96613 367.299L9.96613 371.921L12.675 371.921L12.675 367.299L9.96613 367.299ZM9.96613 371.921L9.96613 376.543L12.675 376.543L12.675 371.921L9.96613 371.921ZM9.96613 376.543L9.96613 381.165L12.675 381.165L12.675 376.543L9.96613 376.543ZM9.96613 381.165L9.96613 385.787L12.675 385.787L12.675 381.165L9.96613 381.165ZM9.96613 385.787L9.96613 390.409L12.675 390.409L12.675 385.787L9.96613 385.787ZM11.3205 391.764L15.9815 391.764L15.9815 389.055L11.3205 389.055L11.3205 391.764ZM14.627 390.409L14.627 395.032L17.3359 395.032L17.3359 390.409L14.627 390.409ZM15.9815 396.386L20.6424 396.386L20.6424 393.677L15.9815 393.677L15.9815 396.386ZM20.6424 396.386L25.3033 396.386L25.3033 393.677L20.6424 393.677L20.6424 396.386ZM25.3033 396.386L39.286 396.386L39.286 393.677L25.3033 393.677L25.3033 396.386ZM39.286 396.386L43.9469 396.386L43.9469 393.677L39.286 393.677L39.286 396.386ZM45.3013 395.032L45.3013 390.409L42.5925 390.409L42.5925 395.032L45.3013 395.032ZM43.9469 391.764L48.6078 391.764L48.6078 389.055L43.9469 389.055L43.9469 391.764ZM49.9623 390.409L49.9623 385.787L47.2534 385.787L47.2534 390.409L49.9623 390.409ZM49.9623 385.787L49.9623 381.165L47.2534 381.165L47.2534 385.787L49.9623 385.787ZM49.9623 381.165L49.9623 376.543L47.2534 376.543L47.2534 381.165L49.9623 381.165ZM25.3033 402.922L11.3205 402.922L11.3205 405.63L25.3033 405.63L25.3033 402.922ZM12.675 404.276L12.675 399.654L9.96613 399.654L9.96613 404.276L12.675 404.276ZM11.3205 398.299L6.65963 398.299L6.65963 401.008L11.3205 401.008L11.3205 398.299ZM8.01404 399.654L8.01404 395.032L5.30522 395.032L5.30522 399.654L8.01404 399.654ZM6.65963 393.677L1.99871 393.677L1.99871 396.386L6.65963 396.386L6.65963 393.677ZM3.35312 395.032L3.35313 381.165L0.644301 381.165L0.6443 395.032L3.35312 395.032ZM3.35313 381.165L3.35313 376.543L0.644301 376.543L0.644301 381.165L3.35313 381.165ZM3.35313 376.543L3.35313 362.676L0.644302 362.676L0.644301 376.543L3.35313 376.543ZM1.99871 364.031L6.65963 364.031L6.65963 361.322L1.99871 361.322L1.99871 364.031ZM8.01404 362.676L8.01404 358.054L5.30522 358.054L5.30522 362.676L8.01404 362.676ZM6.65963 359.409L11.3205 359.409L11.3205 356.7L6.65963 356.7L6.65963 359.409ZM12.675 358.054L12.675 353.432L9.96613 353.432L9.96613 358.054L12.675 358.054ZM11.3205 354.787L20.6424 354.787L20.6424 352.078L11.3205 352.078L11.3205 354.787ZM20.6424 354.787L25.3033 354.787L25.3033 352.078L20.6424 352.078L20.6424 354.787ZM25.3033 354.787L29.9642 354.787L29.9642 352.078L25.3033 352.078L25.3033 354.787ZM29.9642 354.787L34.6251 354.787L34.6251 352.078L29.9642 352.078L29.9642 354.787ZM34.6251 354.787L48.6078 354.787L48.6078 352.078L34.6251 352.078L34.6251 354.787ZM47.2534 353.432L47.2534 358.054L49.9623 358.054L49.9623 353.432L47.2534 353.432ZM48.6078 359.409L53.2688 359.409L53.2688 356.7L48.6078 356.7L48.6078 359.409ZM51.9143 358.054L51.9143 362.676L54.6232 362.676L54.6232 358.054L51.9143 358.054ZM53.2688 364.031L57.9297 364.031L57.9297 361.322L53.2688 361.322L53.2688 364.031ZM56.5753 362.676L56.5753 371.921L59.2841 371.921L59.2841 362.676L56.5753 362.676ZM56.5753 371.921L56.5753 376.543L59.2841 376.543L59.2841 371.921L56.5753 371.921ZM56.5753 376.543L56.5753 381.165L59.2841 381.165L59.2841 376.543L56.5753 376.543ZM56.5753 381.165L56.5753 395.032L59.2841 395.032L59.2841 381.165L56.5753 381.165ZM57.9297 393.677L53.2688 393.677L53.2688 396.386L57.9297 396.386L57.9297 393.677ZM51.9143 395.032L51.9143 399.654L54.6232 399.654L54.6232 395.032L51.9143 395.032ZM53.2688 398.299L48.6078 398.299L48.6078 401.008L53.2688 401.008L53.2688 398.299ZM47.2534 399.654L47.2534 404.276L49.9623 404.276L49.9623 399.654L47.2534 399.654ZM48.6078 402.922L39.286 402.922L39.286 405.63L48.6078 405.63L48.6078 402.922ZM39.286 402.922L25.3033 402.922L25.3033 405.63L39.286 405.63L39.286 402.922ZM48.6078 414.899L53.2688 414.899L53.2688 412.191L48.6078 412.191L48.6078 414.899ZM53.2688 414.899L57.9297 414.899L57.9297 412.191L53.2688 412.191L53.2688 414.899ZM56.5753 413.545L56.5753 418.167L59.2841 418.167L59.2841 413.545L56.5753 413.545ZM56.5753 418.167L56.5753 422.789L59.2841 422.789L59.2841 418.167L56.5753 418.167ZM56.5753 422.789L56.5753 436.656L59.2841 436.656L59.2841 422.789L56.5753 422.789ZM56.5753 436.656L56.5753 455.144L59.2841 455.144L59.2841 436.656L56.5753 436.656ZM57.9297 453.79L53.2688 453.79L53.2688 456.499L57.9297 456.499L57.9297 453.79ZM51.9143 455.144L51.9143 459.767L54.6232 459.767L54.6232 455.144L51.9143 455.144ZM53.2688 458.412L48.6078 458.412L48.6078 461.121L53.2688 461.121L53.2688 458.412ZM47.2534 459.767L47.2534 464.389L49.9623 464.389L49.9623 459.767L47.2534 459.767ZM48.6078 463.034L39.286 463.034L39.286 465.743L48.6078 465.743L48.6078 463.034ZM39.286 463.034L34.6251 463.034L34.6251 465.743L39.286 465.743L39.286 463.034ZM34.6251 463.034L29.9642 463.034L29.9642 465.743L34.6251 465.743L34.6251 463.034ZM31.3186 464.389L31.3186 459.767L28.6098 459.767L28.6098 464.389L31.3186 464.389ZM29.9642 458.412L25.3033 458.412L25.3033 461.121L29.9642 461.121L29.9642 458.412ZM26.6577 459.767L26.6577 455.144L23.9489 455.144L23.9489 459.767L26.6577 459.767ZM25.3033 453.79L20.6424 453.79L20.6424 456.499L25.3033 456.499L25.3033 453.79ZM20.6424 453.79L15.9814 453.79L15.9814 456.499L20.6424 456.499L20.6424 453.79ZM14.627 455.144L14.627 459.767L17.3359 459.767L17.3359 455.144L14.627 455.144ZM15.9814 458.412L11.3205 458.412L11.3205 461.121L15.9814 461.121L15.9814 458.412ZM9.96612 459.767L9.96612 464.389L12.6749 464.389L12.6749 459.767L9.96612 459.767ZM11.3205 463.034L6.65962 463.034L6.65962 465.743L11.3205 465.743L11.3205 463.034ZM6.65962 463.034L1.99871 463.034L1.99871 465.743L6.65962 465.743L6.65962 463.034ZM3.35312 464.389L3.35312 455.144L0.644298 455.144L0.644297 464.389L3.35312 464.389ZM1.99871 456.499L6.65963 456.499L6.65963 453.79L1.99871 453.79L1.99871 456.499ZM8.01404 455.144L8.01404 450.522L5.30521 450.522L5.30521 455.144L8.01404 455.144ZM6.65963 451.877L11.3205 451.877L11.3205 449.168L6.65963 449.168L6.65963 451.877ZM12.6749 450.522L12.6749 445.9L9.96613 445.9L9.96612 450.522L12.6749 450.522ZM11.3205 447.254L15.9814 447.254L15.9814 444.546L11.3205 444.546L11.3205 447.254ZM17.3359 445.9L17.3359 441.278L14.627 441.278L14.627 445.9L17.3359 445.9ZM15.9814 442.632L20.6424 442.632L20.6424 439.923L15.9814 439.923L15.9814 442.632ZM21.9968 441.278L21.9968 436.656L19.2879 436.656L19.2879 441.278L21.9968 441.278ZM21.9968 436.656L21.9968 422.789L19.2879 422.789L19.2879 436.656L21.9968 436.656ZM20.6424 421.435L1.99871 421.435L1.99871 424.144L20.6424 424.144L20.6424 421.435ZM3.35312 422.789L3.35312 413.545L0.6443 413.545L0.644299 422.789L3.35312 422.789ZM1.99871 414.899L20.6424 414.899L20.6424 412.191L1.99871 412.191L1.99871 414.899ZM20.6424 414.899L25.3033 414.899L25.3033 412.191L20.6424 412.191L20.6424 414.899ZM25.3033 414.899L29.9642 414.899L29.9642 412.191L25.3033 412.191L25.3033 414.899ZM29.9642 414.899L34.6251 414.899L34.6251 412.191L29.9642 412.191L29.9642 414.899ZM34.6251 414.899L39.286 414.899L39.286 412.191L34.6251 412.191L34.6251 414.899ZM39.286 414.899L43.9469 414.899L43.9469 412.191L39.286 412.191L39.286 414.899ZM43.9469 414.899L48.6078 414.899L48.6078 412.191L43.9469 412.191L43.9469 414.899ZM49.9623 436.656L49.9623 427.411L47.2534 427.411L47.2534 436.656L49.9623 436.656ZM49.9623 427.411L49.9623 422.789L47.2534 422.789L47.2534 427.411L49.9623 427.411ZM48.6078 421.435L34.6251 421.435L34.6251 424.144L48.6078 424.144L48.6078 421.435ZM34.6251 421.435L29.9642 421.435L29.9642 424.144L34.6251 424.144L34.6251 421.435ZM28.6098 422.789L28.6098 427.411L31.3186 427.411L31.3186 422.789L28.6098 422.789ZM28.6098 427.411L28.6098 432.034L31.3186 432.034L31.3186 427.411L28.6098 427.411ZM28.6098 432.034L28.6098 436.656L31.3186 436.656L31.3186 432.034L28.6098 432.034ZM28.6098 436.656L28.6098 441.278L31.3186 441.278L31.3186 436.656L28.6098 436.656ZM28.6098 441.278L28.6098 445.9L31.3186 445.9L31.3186 441.278L28.6098 441.278ZM28.6098 445.9L28.6098 450.522L31.3186 450.522L31.3186 445.9L28.6098 445.9ZM29.9642 451.877L34.6251 451.877L34.6251 449.168L29.9642 449.168L29.9642 451.877ZM33.2707 450.522L33.2707 455.144L35.9795 455.144L35.9795 450.522L33.2707 450.522ZM34.6251 456.499L39.286 456.499L39.286 453.79L34.6251 453.79L34.6251 456.499ZM39.286 456.499L43.9469 456.499L43.9469 453.79L39.286 453.79L39.286 456.499ZM45.3013 455.144L45.3013 450.522L42.5925 450.522L42.5925 455.144L45.3013 455.144ZM43.9469 451.877L48.6078 451.877L48.6078 449.168L43.9469 449.168L43.9469 451.877ZM49.9623 450.522L49.9623 445.9L47.2534 445.9L47.2534 450.522L49.9623 450.522ZM49.9623 445.9L49.9623 441.278L47.2534 441.278L47.2534 445.9L49.9623 445.9ZM49.9623 441.278L49.9623 436.656L47.2534 436.656L47.2534 441.278L49.9623 441.278ZM53.2688 518.525L48.6078 518.525L48.6078 521.234L53.2687 521.234L53.2688 518.525ZM48.6078 518.525L43.9469 518.525L43.9469 521.234L48.6078 521.234L48.6078 518.525ZM43.9469 518.525L39.286 518.525L39.286 521.234L43.9469 521.234L43.9469 518.525ZM40.6404 519.879L40.6404 515.257L37.9316 515.257L37.9316 519.879L40.6404 519.879ZM39.286 513.903L34.6251 513.903L34.6251 516.612L39.286 516.612L39.286 513.903ZM35.9795 515.257L35.9795 510.635L33.2707 510.635L33.2707 515.257L35.9795 515.257ZM34.6251 509.281L29.9642 509.281L29.9642 511.989L34.6251 511.989L34.6251 509.281ZM31.3186 510.635L31.3186 506.013L28.6098 506.013L28.6098 510.635L31.3186 510.635ZM29.9642 504.658L25.3033 504.658L25.3033 507.367L29.9642 507.367L29.9642 504.658ZM26.6577 506.013L26.6577 501.391L23.9489 501.391L23.9489 506.013L26.6577 506.013ZM25.3033 500.036L20.6424 500.036L20.6424 502.745L25.3033 502.745L25.3033 500.036ZM20.6424 500.036L1.99871 500.036L1.99871 502.745L20.6424 502.745L20.6424 500.036ZM3.35312 501.391L3.35312 492.146L0.644296 492.146L0.644296 501.391L3.35312 501.391ZM1.99871 493.501L20.6424 493.501L20.6424 490.792L1.99871 490.792L1.99871 493.501ZM20.6424 493.501L25.3033 493.501L25.3033 490.792L20.6424 490.792L20.6424 493.501ZM26.6577 492.146L26.6577 487.524L23.9489 487.524L23.9489 492.146L26.6577 492.146ZM25.3033 488.879L29.9642 488.879L29.9642 486.17L25.3033 486.17L25.3033 488.879ZM31.3186 487.524L31.3186 482.902L28.6098 482.902L28.6098 487.524L31.3186 487.524ZM29.9642 484.256L34.6251 484.256L34.6251 481.548L29.9642 481.548L29.9642 484.256ZM35.9795 482.902L35.9795 478.28L33.2707 478.28L33.2707 482.902L35.9795 482.902ZM34.6251 479.634L39.286 479.634L39.286 476.925L34.6251 476.925L34.6251 479.634ZM40.6404 478.28L40.6404 473.658L37.9316 473.658L37.9316 478.28L40.6404 478.28ZM39.286 475.012L43.9469 475.012L43.9469 472.303L39.286 472.303L39.286 475.012ZM43.9469 475.012L48.6078 475.012L48.6078 472.303L43.9469 472.303L43.9469 475.012ZM48.6078 475.012L53.2688 475.012L53.2688 472.303L48.6078 472.303L48.6078 475.012ZM53.2688 475.012L57.9297 475.012L57.9297 472.303L53.2688 472.303L53.2688 475.012ZM56.5753 473.658L56.5753 478.28L59.2841 478.28L59.2841 473.658L56.5753 473.658ZM56.5753 478.28L56.5753 482.902L59.2841 482.902L59.2841 478.28L56.5753 478.28ZM57.9297 481.548L53.2688 481.548L53.2688 484.256L57.9297 484.256L57.9297 481.548ZM53.2688 481.548L48.6078 481.548L48.6078 484.256L53.2688 484.256L53.2688 481.548ZM48.6078 481.548L43.9469 481.548L43.9469 484.256L48.6078 484.256L48.6078 481.548ZM42.5925 482.902L42.5925 487.524L45.3013 487.524L45.3013 482.902L42.5925 482.902ZM43.9469 486.17L39.286 486.17L39.286 488.879L43.9469 488.879L43.9469 486.17ZM37.9316 487.524L37.9316 492.146L40.6404 492.146L40.6404 487.524L37.9316 487.524ZM39.286 490.792L34.6251 490.792L34.6251 493.501L39.286 493.501L39.286 490.792ZM33.2707 492.146L33.2707 496.768L35.9795 496.768L35.9795 492.146L33.2707 492.146ZM33.2707 496.768L33.2707 501.391L35.9795 501.391L35.9795 496.768L33.2707 496.768ZM34.6251 502.745L39.286 502.745L39.286 500.036L34.6251 500.036L34.6251 502.745ZM37.9316 501.391L37.9316 506.013L40.6404 506.013L40.6404 501.391L37.9316 501.391ZM39.286 507.367L43.9469 507.367L43.9469 504.658L39.286 504.658L39.286 507.367ZM42.5925 506.013L42.5925 510.635L45.3013 510.635L45.3013 506.013L42.5925 506.013ZM43.9469 511.989L48.6078 511.989L48.6078 509.281L43.9469 509.281L43.9469 511.989ZM48.6078 511.989L53.2688 511.989L53.2688 509.281L48.6078 509.281L48.6078 511.989ZM53.2688 511.989L57.9297 511.989L57.9297 509.281L53.2688 509.281L53.2688 511.989ZM56.5753 510.635L56.5753 515.257L59.2841 515.257L59.2841 510.635L56.5753 510.635ZM56.5753 515.257L56.5753 519.879L59.2841 519.879L59.2841 515.257L56.5753 515.257ZM57.9297 518.525L53.2688 518.525L53.2687 521.234L57.9297 521.234L57.9297 518.525Z" fill="#B6BCC4" mask="url(#path-1-outside-1_3058_814)"/>
</svg>
