<svg width="165" height="20" viewBox="0 0 165 20" fill="none" xmlns="http://www.w3.org/2000/svg">
<mask id="path-1-outside-1_1338_1242" maskUnits="userSpaceOnUse" x="0.890625" y="0.279297" width="164" height="20" fill="black">
<rect fill="white" x="0.890625" y="0.279297" width="164" height="20"/>
<path d="M10.5571 15.8445V18.7576H9.11269H7.66828H4.77945H3.33504H1.89062V15.8445H3.33504H4.77945V7.10539V4.19234H3.33504H1.89062V1.2793H3.33504H4.77945H6.22387H7.66828H9.11269H10.5571V4.19234H9.11269H7.66828V15.8445H9.11269H10.5571Z"/>
<path d="M30.7866 7.10539V2.73582V1.2793H33.6754V2.73582V4.19234V15.8445V18.7576H30.7866V15.8445H29.3422V14.388H27.8978V12.9315H26.4534V11.475H25.0089V10.0184H23.5645V8.56191H22.1201V7.10539H20.6757V11.475V18.7576H19.2313H17.7869V17.3011V15.8445V14.388V11.475V10.0184V8.56191V7.10539V5.64887V4.19234V2.73582V1.2793H19.2313H20.6757V2.73582H22.1201V4.19234H23.5645V5.64887H25.0089V7.10539H26.4534V8.56191H27.8978V10.0184H29.3422V11.475H30.7866V7.10539Z"/>
<path d="M52.4605 2.73582V4.19234V7.10539V10.0184V11.475V12.9315H51.0161V14.388H49.5717V15.8445H48.1273V17.3011H46.6828V18.7576H42.3496V17.3011H40.9052V15.8445H39.4608V14.388H38.0164V12.9315H36.5719V11.475V10.0184V7.10539V4.19234V2.73582V1.2793H38.0164H39.4608V2.73582V4.19234V10.0184V11.475H40.9052V12.9315H42.3496V14.388H43.794V15.8445H45.2384V14.388H46.6828V12.9315H48.1273V11.475H49.5717V10.0184V4.19234V2.73582V1.2793H51.0161H52.4605V2.73582Z"/>
<path d="M55.357 4.19234V2.73582V1.2793H56.8014H58.2458H62.5791H71.2456V4.19234H69.8012H68.3568H65.4679H64.0235H62.5791H59.6903H58.2458V8.56191H68.3568V11.475H58.2458V15.8445H59.6903H62.5791H64.0235H65.4679H68.3568H69.8012H71.2456V18.7576H62.5791H58.2458H56.8014H55.357V17.3011V15.8445V14.388V11.475V10.0184V8.56191V7.10539V5.64887V4.19234Z"/>
<path d="M87.1418 7.10539V2.73582V1.2793H90.0306V2.73582V4.19234V15.8445V18.7576H87.1418V15.8445H85.6974V14.388H84.253V12.9315H82.8086V11.475H81.3642V10.0184H79.9198V8.56191H78.4753V7.10539H77.0309V11.475V18.7576H75.5865H74.1421V17.3011V15.8445V14.388V11.475V10.0184V8.56191V7.10539V5.64887V4.19234V2.73582V1.2793H75.5865H77.0309V2.73582H78.4753V4.19234H79.9198V5.64887H81.3642V7.10539H82.8086V8.56191H84.253V10.0184H85.6974V11.475H87.1418V7.10539Z"/>
<path d="M92.9272 4.19234V2.73582V1.2793H94.3716H95.816H100.149H107.371V4.19234H105.927H104.482H101.594V11.475V18.7576H98.7048V11.475V4.19234H97.2604H92.9272Z"/>
<path d="M118.934 4.19234H117.49H116.045V5.64887H114.601V7.10539V8.56191V11.475V12.9315V14.388H116.045V15.8445H117.49H118.934H120.379H121.823H123.268V14.388H124.712V12.9315V11.475V7.10539V5.64887H123.268V4.19234H121.823H120.379H118.934ZM127.601 11.475V15.8445H126.156V17.3011H124.712V18.7576H120.379H118.934H114.601V17.3011H113.157V15.8445H111.712V12.9315V11.475V10.0184V8.56191V4.19234H113.157V2.73582H114.601V1.2793H117.49H118.934H120.379H124.712V2.73582H126.156V4.19234H127.601V7.10539V11.475Z"/>
<path d="M130.497 4.19234V2.73582V1.2793H131.942H133.386H137.719H143.497V2.73582H144.941V4.19234H146.386V7.10539V8.56191V10.0184H144.941V11.475H143.497V12.9315V14.388H144.941V15.8445H146.386V17.3011V18.7576H143.497V17.3011H142.053V15.8445H140.608V14.388H139.164V12.9315H137.719H133.386V18.7576H130.497V12.9315V11.475V10.0184V8.56191V7.10539V5.64887V4.19234ZM137.719 4.19234H134.831H133.386V8.56191V10.0184H134.831H136.275H137.719H139.164H140.608H142.053V8.56191H143.497V7.10539V5.64887H142.053V4.19234H140.608H139.164H137.719Z"/>
<path d="M163.727 2.73582V4.19234V5.64887V7.10539H162.282V8.56191H160.838V10.0184H159.393V11.475H157.949V12.9315V18.7576H155.06V12.9315V11.475H153.616V10.0184H152.171V8.56191H150.727V7.10539H149.282V5.64887V4.19234V2.73582V1.2793H150.727H152.171V2.73582V4.19234V5.64887H153.616V7.10539H155.06V8.56191H156.504H157.949V7.10539H159.393V5.64887H160.838V4.19234V2.73582V1.2793H162.282H163.727V2.73582Z"/>
</mask>
<path d="M10.5571 15.8445V18.7576H9.11269H7.66828H4.77945H3.33504H1.89062V15.8445H3.33504H4.77945V7.10539V4.19234H3.33504H1.89062V1.2793H3.33504H4.77945H6.22387H7.66828H9.11269H10.5571V4.19234H9.11269H7.66828V15.8445H9.11269H10.5571Z" fill="#393939"/>
<path d="M30.7866 7.10539V2.73582V1.2793H33.6754V2.73582V4.19234V15.8445V18.7576H30.7866V15.8445H29.3422V14.388H27.8978V12.9315H26.4534V11.475H25.0089V10.0184H23.5645V8.56191H22.1201V7.10539H20.6757V11.475V18.7576H19.2313H17.7869V17.3011V15.8445V14.388V11.475V10.0184V8.56191V7.10539V5.64887V4.19234V2.73582V1.2793H19.2313H20.6757V2.73582H22.1201V4.19234H23.5645V5.64887H25.0089V7.10539H26.4534V8.56191H27.8978V10.0184H29.3422V11.475H30.7866V7.10539Z" fill="#393939"/>
<path d="M52.4605 2.73582V4.19234V7.10539V10.0184V11.475V12.9315H51.0161V14.388H49.5717V15.8445H48.1273V17.3011H46.6828V18.7576H42.3496V17.3011H40.9052V15.8445H39.4608V14.388H38.0164V12.9315H36.5719V11.475V10.0184V7.10539V4.19234V2.73582V1.2793H38.0164H39.4608V2.73582V4.19234V10.0184V11.475H40.9052V12.9315H42.3496V14.388H43.794V15.8445H45.2384V14.388H46.6828V12.9315H48.1273V11.475H49.5717V10.0184V4.19234V2.73582V1.2793H51.0161H52.4605V2.73582Z" fill="#393939"/>
<path d="M55.357 4.19234V2.73582V1.2793H56.8014H58.2458H62.5791H71.2456V4.19234H69.8012H68.3568H65.4679H64.0235H62.5791H59.6903H58.2458V8.56191H68.3568V11.475H58.2458V15.8445H59.6903H62.5791H64.0235H65.4679H68.3568H69.8012H71.2456V18.7576H62.5791H58.2458H56.8014H55.357V17.3011V15.8445V14.388V11.475V10.0184V8.56191V7.10539V5.64887V4.19234Z" fill="#393939"/>
<path d="M87.1418 7.10539V2.73582V1.2793H90.0306V2.73582V4.19234V15.8445V18.7576H87.1418V15.8445H85.6974V14.388H84.253V12.9315H82.8086V11.475H81.3642V10.0184H79.9198V8.56191H78.4753V7.10539H77.0309V11.475V18.7576H75.5865H74.1421V17.3011V15.8445V14.388V11.475V10.0184V8.56191V7.10539V5.64887V4.19234V2.73582V1.2793H75.5865H77.0309V2.73582H78.4753V4.19234H79.9198V5.64887H81.3642V7.10539H82.8086V8.56191H84.253V10.0184H85.6974V11.475H87.1418V7.10539Z" fill="#393939"/>
<path d="M92.9272 4.19234V2.73582V1.2793H94.3716H95.816H100.149H107.371V4.19234H105.927H104.482H101.594V11.475V18.7576H98.7048V11.475V4.19234H97.2604H92.9272Z" fill="#393939"/>
<path d="M118.934 4.19234H117.49H116.045V5.64887H114.601V7.10539V8.56191V11.475V12.9315V14.388H116.045V15.8445H117.49H118.934H120.379H121.823H123.268V14.388H124.712V12.9315V11.475V7.10539V5.64887H123.268V4.19234H121.823H120.379H118.934ZM127.601 11.475V15.8445H126.156V17.3011H124.712V18.7576H120.379H118.934H114.601V17.3011H113.157V15.8445H111.712V12.9315V11.475V10.0184V8.56191V4.19234H113.157V2.73582H114.601V1.2793H117.49H118.934H120.379H124.712V2.73582H126.156V4.19234H127.601V7.10539V11.475Z" fill="#393939"/>
<path d="M130.497 4.19234V2.73582V1.2793H131.942H133.386H137.719H143.497V2.73582H144.941V4.19234H146.386V7.10539V8.56191V10.0184H144.941V11.475H143.497V12.9315V14.388H144.941V15.8445H146.386V17.3011V18.7576H143.497V17.3011H142.053V15.8445H140.608V14.388H139.164V12.9315H137.719H133.386V18.7576H130.497V12.9315V11.475V10.0184V8.56191V7.10539V5.64887V4.19234ZM137.719 4.19234H134.831H133.386V8.56191V10.0184H134.831H136.275H137.719H139.164H140.608H142.053V8.56191H143.497V7.10539V5.64887H142.053V4.19234H140.608H139.164H137.719Z" fill="#393939"/>
<path d="M163.727 2.73582V4.19234V5.64887V7.10539H162.282V8.56191H160.838V10.0184H159.393V11.475H157.949V12.9315V18.7576H155.06V12.9315V11.475H153.616V10.0184H152.171V8.56191H150.727V7.10539H149.282V5.64887V4.19234V2.73582V1.2793H150.727H152.171V2.73582V4.19234V5.64887H153.616V7.10539H155.06V8.56191H156.504H157.949V7.10539H159.393V5.64887H160.838V4.19234V2.73582V1.2793H162.282H163.727V2.73582Z" fill="#393939"/>
<path d="M10.5571 15.8445H11.5571V14.8445H10.5571V15.8445ZM10.5571 18.7576V19.7576H11.5571V18.7576H10.5571ZM1.89062 18.7576H0.890625V19.7576H1.89062V18.7576ZM1.89062 15.8445V14.8445H0.890625V15.8445H1.89062ZM4.77945 15.8445V16.8445H5.77945V15.8445H4.77945ZM4.77945 4.19234H5.77945V3.19234H4.77945V4.19234ZM1.89062 4.19234H0.890625V5.19234H1.89062V4.19234ZM1.89062 1.2793V0.279297H0.890625V1.2793H1.89062ZM10.5571 1.2793H11.5571V0.279297H10.5571V1.2793ZM10.5571 4.19234V5.19234H11.5571V4.19234H10.5571ZM7.66828 4.19234V3.19234H6.66828V4.19234H7.66828ZM7.66828 15.8445H6.66828V16.8445H7.66828V15.8445ZM30.7866 1.2793V0.279297H29.7866V1.2793H30.7866ZM33.6754 1.2793H34.6754V0.279297H33.6754V1.2793ZM33.6754 18.7576V19.7576H34.6754V18.7576H33.6754ZM30.7866 18.7576H29.7866V19.7576H30.7866V18.7576ZM30.7866 15.8445H31.7866V14.8445H30.7866V15.8445ZM29.3422 15.8445H28.3422V16.8445H29.3422V15.8445ZM29.3422 14.388H30.3422V13.388H29.3422V14.388ZM27.8978 14.388H26.8978V15.388H27.8978V14.388ZM27.8978 12.9315H28.8978V11.9315H27.8978V12.9315ZM26.4534 12.9315H25.4534V13.9315H26.4534V12.9315ZM26.4534 11.475H27.4534V10.475H26.4534V11.475ZM25.0089 11.475H24.0089V12.475H25.0089V11.475ZM25.0089 10.0184H26.0089V9.01844H25.0089V10.0184ZM23.5645 10.0184H22.5645V11.0184H23.5645V10.0184ZM23.5645 8.56191H24.5645V7.56191H23.5645V8.56191ZM22.1201 8.56191H21.1201V9.56191H22.1201V8.56191ZM22.1201 7.10539H23.1201V6.10539H22.1201V7.10539ZM20.6757 7.10539V6.10539H19.6757V7.10539H20.6757ZM20.6757 18.7576V19.7576H21.6757V18.7576H20.6757ZM17.7869 18.7576H16.7869V19.7576H17.7869V18.7576ZM17.7869 1.2793V0.279297H16.7869V1.2793H17.7869ZM20.6757 1.2793H21.6757V0.279297H20.6757V1.2793ZM20.6757 2.73582H19.6757V3.73582H20.6757V2.73582ZM22.1201 2.73582H23.1201V1.73582H22.1201V2.73582ZM22.1201 4.19234H21.1201V5.19234H22.1201V4.19234ZM23.5645 4.19234H24.5645V3.19234H23.5645V4.19234ZM23.5645 5.64887H22.5645V6.64887H23.5645V5.64887ZM25.0089 5.64887H26.0089V4.64887H25.0089V5.64887ZM25.0089 7.10539H24.0089V8.10539H25.0089V7.10539ZM26.4534 7.10539H27.4534V6.10539H26.4534V7.10539ZM26.4534 8.56191H25.4534V9.56191H26.4534V8.56191ZM27.8978 8.56191H28.8978V7.56191H27.8978V8.56191ZM27.8978 10.0184H26.8978V11.0184H27.8978V10.0184ZM29.3422 10.0184H30.3422V9.01844H29.3422V10.0184ZM29.3422 11.475H28.3422V12.475H29.3422V11.475ZM30.7866 11.475V12.475H31.7866V11.475H30.7866ZM52.4605 12.9315V13.9315H53.4605V12.9315H52.4605ZM51.0161 12.9315V11.9315H50.0161V12.9315H51.0161ZM51.0161 14.388V15.388H52.0161V14.388H51.0161ZM49.5717 14.388V13.388H48.5717V14.388H49.5717ZM49.5717 15.8445V16.8445H50.5717V15.8445H49.5717ZM48.1273 15.8445V14.8445H47.1273V15.8445H48.1273ZM48.1273 17.3011V18.3011H49.1273V17.3011H48.1273ZM46.6828 17.3011V16.3011H45.6828V17.3011H46.6828ZM46.6828 18.7576V19.7576H47.6828V18.7576H46.6828ZM42.3496 18.7576H41.3496V19.7576H42.3496V18.7576ZM42.3496 17.3011H43.3496V16.3011H42.3496V17.3011ZM40.9052 17.3011H39.9052V18.3011H40.9052V17.3011ZM40.9052 15.8445H41.9052V14.8445H40.9052V15.8445ZM39.4608 15.8445H38.4608V16.8445H39.4608V15.8445ZM39.4608 14.388H40.4608V13.388H39.4608V14.388ZM38.0164 14.388H37.0164V15.388H38.0164V14.388ZM38.0164 12.9315H39.0164V11.9315H38.0164V12.9315ZM36.5719 12.9315H35.5719V13.9315H36.5719V12.9315ZM36.5719 1.2793V0.279297H35.5719V1.2793H36.5719ZM39.4608 1.2793H40.4608V0.279297H39.4608V1.2793ZM39.4608 11.475H38.4608V12.475H39.4608V11.475ZM40.9052 11.475H41.9052V10.475H40.9052V11.475ZM40.9052 12.9315H39.9052V13.9315H40.9052V12.9315ZM42.3496 12.9315H43.3496V11.9315H42.3496V12.9315ZM42.3496 14.388H41.3496V15.388H42.3496V14.388ZM43.794 14.388H44.794V13.388H43.794V14.388ZM43.794 15.8445H42.794V16.8445H43.794V15.8445ZM45.2384 15.8445V16.8445H46.2384V15.8445H45.2384ZM45.2384 14.388V13.388H44.2384V14.388H45.2384ZM46.6828 14.388V15.388H47.6828V14.388H46.6828ZM46.6828 12.9315V11.9315H45.6828V12.9315H46.6828ZM48.1273 12.9315V13.9315H49.1273V12.9315H48.1273ZM48.1273 11.475V10.475H47.1273V11.475H48.1273ZM49.5717 11.475V12.475H50.5717V11.475H49.5717ZM49.5717 1.2793V0.279297H48.5717V1.2793H49.5717ZM52.4605 1.2793H53.4605V0.279297H52.4605V1.2793ZM55.357 1.2793V0.279297H54.357V1.2793H55.357ZM71.2456 1.2793H72.2456V0.279297H71.2456V1.2793ZM71.2456 4.19234V5.19234H72.2456V4.19234H71.2456ZM58.2458 4.19234V3.19234H57.2458V4.19234H58.2458ZM58.2458 8.56191H57.2458V9.56191H58.2458V8.56191ZM68.3568 8.56191H69.3568V7.56191H68.3568V8.56191ZM68.3568 11.475V12.475H69.3568V11.475H68.3568ZM58.2458 11.475V10.475H57.2458V11.475H58.2458ZM58.2458 15.8445H57.2458V16.8445H58.2458V15.8445ZM71.2456 15.8445H72.2456V14.8445H71.2456V15.8445ZM71.2456 18.7576V19.7576H72.2456V18.7576H71.2456ZM55.357 18.7576H54.357V19.7576H55.357V18.7576ZM87.1418 1.2793V0.279297H86.1418V1.2793H87.1418ZM90.0306 1.2793H91.0306V0.279297H90.0306V1.2793ZM90.0306 18.7576V19.7576H91.0306V18.7576H90.0306ZM87.1418 18.7576H86.1418V19.7576H87.1418V18.7576ZM87.1418 15.8445H88.1418V14.8445H87.1418V15.8445ZM85.6974 15.8445H84.6974V16.8445H85.6974V15.8445ZM85.6974 14.388H86.6974V13.388H85.6974V14.388ZM84.253 14.388H83.253V15.388H84.253V14.388ZM84.253 12.9315H85.253V11.9315H84.253V12.9315ZM82.8086 12.9315H81.8086V13.9315H82.8086V12.9315ZM82.8086 11.475H83.8086V10.475H82.8086V11.475ZM81.3642 11.475H80.3642V12.475H81.3642V11.475ZM81.3642 10.0184H82.3642V9.01844H81.3642V10.0184ZM79.9198 10.0184H78.9198V11.0184H79.9198V10.0184ZM79.9198 8.56191H80.9198V7.56191H79.9198V8.56191ZM78.4753 8.56191H77.4753V9.56191H78.4753V8.56191ZM78.4753 7.10539H79.4753V6.10539H78.4753V7.10539ZM77.0309 7.10539V6.10539H76.0309V7.10539H77.0309ZM77.0309 18.7576V19.7576H78.0309V18.7576H77.0309ZM74.1421 18.7576H73.1421V19.7576H74.1421V18.7576ZM74.1421 1.2793V0.279297H73.1421V1.2793H74.1421ZM77.0309 1.2793H78.0309V0.279297H77.0309V1.2793ZM77.0309 2.73582H76.0309V3.73582H77.0309V2.73582ZM78.4753 2.73582H79.4753V1.73582H78.4753V2.73582ZM78.4753 4.19234H77.4753V5.19234H78.4753V4.19234ZM79.9198 4.19234H80.9198V3.19234H79.9198V4.19234ZM79.9198 5.64887H78.9198V6.64887H79.9198V5.64887ZM81.3642 5.64887H82.3642V4.64887H81.3642V5.64887ZM81.3642 7.10539H80.3642V8.10539H81.3642V7.10539ZM82.8086 7.10539H83.8086V6.10539H82.8086V7.10539ZM82.8086 8.56191H81.8086V9.56191H82.8086V8.56191ZM84.253 8.56191H85.253V7.56191H84.253V8.56191ZM84.253 10.0184H83.253V11.0184H84.253V10.0184ZM85.6974 10.0184H86.6974V9.01844H85.6974V10.0184ZM85.6974 11.475H84.6974V12.475H85.6974V11.475ZM87.1418 11.475V12.475H88.1418V11.475H87.1418ZM92.9272 4.19234H91.9272V5.19234H92.9272V4.19234ZM92.9272 1.2793V0.279297H91.9272V1.2793H92.9272ZM107.371 1.2793H108.371V0.279297H107.371V1.2793ZM107.371 4.19234V5.19234H108.371V4.19234H107.371ZM101.594 4.19234V3.19234H100.594V4.19234H101.594ZM101.594 18.7576V19.7576H102.594V18.7576H101.594ZM98.7048 18.7576H97.7048V19.7576H98.7048V18.7576ZM98.7048 4.19234H99.7048V3.19234H98.7048V4.19234ZM116.045 4.19234V3.19234H115.045V4.19234H116.045ZM116.045 5.64887V6.64887H117.045V5.64887H116.045ZM114.601 5.64887V4.64887H113.601V5.64887H114.601ZM114.601 14.388H113.601V15.388H114.601V14.388ZM116.045 14.388H117.045V13.388H116.045V14.388ZM116.045 15.8445H115.045V16.8445H116.045V15.8445ZM123.268 15.8445V16.8445H124.268V15.8445H123.268ZM123.268 14.388V13.388H122.268V14.388H123.268ZM124.712 14.388V15.388H125.712V14.388H124.712ZM124.712 5.64887H125.712V4.64887H124.712V5.64887ZM123.268 5.64887H122.268V6.64887H123.268V5.64887ZM123.268 4.19234H124.268V3.19234H123.268V4.19234ZM127.601 15.8445V16.8445H128.601V15.8445H127.601ZM126.156 15.8445V14.8445H125.156V15.8445H126.156ZM126.156 17.3011V18.3011H127.156V17.3011H126.156ZM124.712 17.3011V16.3011H123.712V17.3011H124.712ZM124.712 18.7576V19.7576H125.712V18.7576H124.712ZM114.601 18.7576H113.601V19.7576H114.601V18.7576ZM114.601 17.3011H115.601V16.3011H114.601V17.3011ZM113.157 17.3011H112.157V18.3011H113.157V17.3011ZM113.157 15.8445H114.157V14.8445H113.157V15.8445ZM111.712 15.8445H110.712V16.8445H111.712V15.8445ZM111.712 4.19234V3.19234H110.712V4.19234H111.712ZM113.157 4.19234V5.19234H114.157V4.19234H113.157ZM113.157 2.73582V1.73582H112.157V2.73582H113.157ZM114.601 2.73582V3.73582H115.601V2.73582H114.601ZM114.601 1.2793V0.279297H113.601V1.2793H114.601ZM124.712 1.2793H125.712V0.279297H124.712V1.2793ZM124.712 2.73582H123.712V3.73582H124.712V2.73582ZM126.156 2.73582H127.156V1.73582H126.156V2.73582ZM126.156 4.19234H125.156V5.19234H126.156V4.19234ZM127.601 4.19234H128.601V3.19234H127.601V4.19234ZM130.497 1.2793V0.279297H129.497V1.2793H130.497ZM143.497 1.2793H144.497V0.279297H143.497V1.2793ZM143.497 2.73582H142.497V3.73582H143.497V2.73582ZM144.941 2.73582H145.941V1.73582H144.941V2.73582ZM144.941 4.19234H143.941V5.19234H144.941V4.19234ZM146.386 4.19234H147.386V3.19234H146.386V4.19234ZM146.386 10.0184V11.0184H147.386V10.0184H146.386ZM144.941 10.0184V9.01844H143.941V10.0184H144.941ZM144.941 11.475V12.475H145.941V11.475H144.941ZM143.497 11.475V10.475H142.497V11.475H143.497ZM143.497 14.388H142.497V15.388H143.497V14.388ZM144.941 14.388H145.941V13.388H144.941V14.388ZM144.941 15.8445H143.941V16.8445H144.941V15.8445ZM146.386 15.8445H147.386V14.8445H146.386V15.8445ZM146.386 18.7576V19.7576H147.386V18.7576H146.386ZM143.497 18.7576H142.497V19.7576H143.497V18.7576ZM143.497 17.3011H144.497V16.3011H143.497V17.3011ZM142.053 17.3011H141.053V18.3011H142.053V17.3011ZM142.053 15.8445H143.053V14.8445H142.053V15.8445ZM140.608 15.8445H139.608V16.8445H140.608V15.8445ZM140.608 14.388H141.608V13.388H140.608V14.388ZM139.164 14.388H138.164V15.388H139.164V14.388ZM139.164 12.9315H140.164V11.9315H139.164V12.9315ZM133.386 12.9315V11.9315H132.386V12.9315H133.386ZM133.386 18.7576V19.7576H134.386V18.7576H133.386ZM130.497 18.7576H129.497V19.7576H130.497V18.7576ZM133.386 4.19234V3.19234H132.386V4.19234H133.386ZM133.386 10.0184H132.386V11.0184H133.386V10.0184ZM142.053 10.0184V11.0184H143.053V10.0184H142.053ZM142.053 8.56191V7.56191H141.053V8.56191H142.053ZM143.497 8.56191V9.56191H144.497V8.56191H143.497ZM143.497 5.64887H144.497V4.64887H143.497V5.64887ZM142.053 5.64887H141.053V6.64887H142.053V5.64887ZM142.053 4.19234H143.053V3.19234H142.053V4.19234ZM163.727 7.10539V8.10539H164.727V7.10539H163.727ZM162.282 7.10539V6.10539H161.282V7.10539H162.282ZM162.282 8.56191V9.56191H163.282V8.56191H162.282ZM160.838 8.56191V7.56191H159.838V8.56191H160.838ZM160.838 10.0184V11.0184H161.838V10.0184H160.838ZM159.393 10.0184V9.01844H158.393V10.0184H159.393ZM159.393 11.475V12.475H160.393V11.475H159.393ZM157.949 11.475V10.475H156.949V11.475H157.949ZM157.949 18.7576V19.7576H158.949V18.7576H157.949ZM155.06 18.7576H154.06V19.7576H155.06V18.7576ZM155.06 11.475H156.06V10.475H155.06V11.475ZM153.616 11.475H152.616V12.475H153.616V11.475ZM153.616 10.0184H154.616V9.01844H153.616V10.0184ZM152.171 10.0184H151.171V11.0184H152.171V10.0184ZM152.171 8.56191H153.171V7.56191H152.171V8.56191ZM150.727 8.56191H149.727V9.56191H150.727V8.56191ZM150.727 7.10539H151.727V6.10539H150.727V7.10539ZM149.282 7.10539H148.282V8.10539H149.282V7.10539ZM149.282 1.2793V0.279297H148.282V1.2793H149.282ZM152.171 1.2793H153.171V0.279297H152.171V1.2793ZM152.171 5.64887H151.171V6.64887H152.171V5.64887ZM153.616 5.64887H154.616V4.64887H153.616V5.64887ZM153.616 7.10539H152.616V8.10539H153.616V7.10539ZM155.06 7.10539H156.06V6.10539H155.06V7.10539ZM155.06 8.56191H154.06V9.56191H155.06V8.56191ZM157.949 8.56191V9.56191H158.949V8.56191H157.949ZM157.949 7.10539V6.10539H156.949V7.10539H157.949ZM159.393 7.10539V8.10539H160.393V7.10539H159.393ZM159.393 5.64887V4.64887H158.393V5.64887H159.393ZM160.838 5.64887V6.64887H161.838V5.64887H160.838ZM160.838 1.2793V0.279297H159.838V1.2793H160.838ZM163.727 1.2793H164.727V0.279297H163.727V1.2793ZM9.55711 15.8445V18.7576H11.5571V15.8445H9.55711ZM10.5571 17.7576H9.11269V19.7576H10.5571V17.7576ZM9.11269 17.7576H7.66828V19.7576H9.11269V17.7576ZM7.66828 17.7576H4.77945V19.7576H7.66828V17.7576ZM4.77945 17.7576H3.33504V19.7576H4.77945V17.7576ZM3.33504 17.7576H1.89062V19.7576H3.33504V17.7576ZM2.89062 18.7576V15.8445H0.890625V18.7576H2.89062ZM1.89062 16.8445H3.33504V14.8445H1.89062V16.8445ZM3.33504 16.8445H4.77945V14.8445H3.33504V16.8445ZM5.77945 15.8445V7.10539H3.77945V15.8445H5.77945ZM5.77945 7.10539V4.19234H3.77945V7.10539H5.77945ZM4.77945 3.19234H3.33504V5.19234H4.77945V3.19234ZM3.33504 3.19234H1.89062V5.19234H3.33504V3.19234ZM2.89062 4.19234V1.2793H0.890625V4.19234H2.89062ZM1.89062 2.2793H3.33504V0.279297H1.89062V2.2793ZM3.33504 2.2793H4.77945V0.279297H3.33504V2.2793ZM4.77945 2.2793H6.22387V0.279297H4.77945V2.2793ZM6.22387 2.2793H7.66828V0.279297H6.22387V2.2793ZM7.66828 2.2793H9.11269V0.279297H7.66828V2.2793ZM9.11269 2.2793H10.5571V0.279297H9.11269V2.2793ZM9.55711 1.2793V4.19234H11.5571V1.2793H9.55711ZM10.5571 3.19234H9.11269V5.19234H10.5571V3.19234ZM9.11269 3.19234H7.66828V5.19234H9.11269V3.19234ZM6.66828 4.19234V15.8445H8.66828V4.19234H6.66828ZM7.66828 16.8445H9.11269V14.8445H7.66828V16.8445ZM9.11269 16.8445H10.5571V14.8445H9.11269V16.8445ZM31.7866 7.10539V2.73582H29.7866V7.10539H31.7866ZM31.7866 2.73582V1.2793H29.7866V2.73582H31.7866ZM30.7866 2.2793H33.6754V0.279297H30.7866V2.2793ZM32.6754 1.2793V2.73582H34.6754V1.2793H32.6754ZM32.6754 2.73582V4.19234H34.6754V2.73582H32.6754ZM32.6754 4.19234V15.8445H34.6754V4.19234H32.6754ZM32.6754 15.8445V18.7576H34.6754V15.8445H32.6754ZM33.6754 17.7576H30.7866V19.7576H33.6754V17.7576ZM31.7866 18.7576V15.8445H29.7866V18.7576H31.7866ZM30.7866 14.8445H29.3422V16.8445H30.7866V14.8445ZM30.3422 15.8445V14.388H28.3422V15.8445H30.3422ZM29.3422 13.388H27.8978V15.388H29.3422V13.388ZM28.8978 14.388V12.9315H26.8978V14.388H28.8978ZM27.8978 11.9315H26.4534V13.9315H27.8978V11.9315ZM27.4534 12.9315V11.475H25.4534V12.9315H27.4534ZM26.4534 10.475H25.0089V12.475H26.4534V10.475ZM26.0089 11.475V10.0184H24.0089V11.475H26.0089ZM25.0089 9.01844H23.5645V11.0184H25.0089V9.01844ZM24.5645 10.0184V8.56191H22.5645V10.0184H24.5645ZM23.5645 7.56191H22.1201V9.56191H23.5645V7.56191ZM23.1201 8.56191V7.10539H21.1201V8.56191H23.1201ZM22.1201 6.10539H20.6757V8.10539H22.1201V6.10539ZM19.6757 7.10539V11.475H21.6757V7.10539H19.6757ZM19.6757 11.475V18.7576H21.6757V11.475H19.6757ZM20.6757 17.7576H19.2313V19.7576H20.6757V17.7576ZM19.2313 17.7576H17.7869V19.7576H19.2313V17.7576ZM18.7869 18.7576V17.3011H16.7869V18.7576H18.7869ZM18.7869 17.3011V15.8445H16.7869V17.3011H18.7869ZM18.7869 15.8445V14.388H16.7869V15.8445H18.7869ZM18.7869 14.388V11.475H16.7869V14.388H18.7869ZM18.7869 11.475V10.0184H16.7869V11.475H18.7869ZM18.7869 10.0184V8.56191H16.7869V10.0184H18.7869ZM18.7869 8.56191V7.10539H16.7869V8.56191H18.7869ZM18.7869 7.10539V5.64887H16.7869V7.10539H18.7869ZM18.7869 5.64887V4.19234H16.7869V5.64887H18.7869ZM18.7869 4.19234V2.73582H16.7869V4.19234H18.7869ZM18.7869 2.73582V1.2793H16.7869V2.73582H18.7869ZM17.7869 2.2793H19.2313V0.279297H17.7869V2.2793ZM19.2313 2.2793H20.6757V0.279297H19.2313V2.2793ZM19.6757 1.2793V2.73582H21.6757V1.2793H19.6757ZM20.6757 3.73582H22.1201V1.73582H20.6757V3.73582ZM21.1201 2.73582V4.19234H23.1201V2.73582H21.1201ZM22.1201 5.19234H23.5645V3.19234H22.1201V5.19234ZM22.5645 4.19234V5.64887H24.5645V4.19234H22.5645ZM23.5645 6.64887H25.0089V4.64887H23.5645V6.64887ZM24.0089 5.64887V7.10539H26.0089V5.64887H24.0089ZM25.0089 8.10539H26.4534V6.10539H25.0089V8.10539ZM25.4534 7.10539V8.56191H27.4534V7.10539H25.4534ZM26.4534 9.56191H27.8978V7.56191H26.4534V9.56191ZM26.8978 8.56191V10.0184H28.8978V8.56191H26.8978ZM27.8978 11.0184H29.3422V9.01844H27.8978V11.0184ZM28.3422 10.0184V11.475H30.3422V10.0184H28.3422ZM29.3422 12.475H30.7866V10.475H29.3422V12.475ZM31.7866 11.475V7.10539H29.7866V11.475H31.7866ZM51.4605 2.73582V4.19234H53.4605V2.73582H51.4605ZM51.4605 4.19234V7.10539H53.4605V4.19234H51.4605ZM51.4605 7.10539V10.0184H53.4605V7.10539H51.4605ZM51.4605 10.0184V11.475H53.4605V10.0184H51.4605ZM51.4605 11.475V12.9315H53.4605V11.475H51.4605ZM52.4605 11.9315H51.0161V13.9315H52.4605V11.9315ZM50.0161 12.9315V14.388H52.0161V12.9315H50.0161ZM51.0161 13.388H49.5717V15.388H51.0161V13.388ZM48.5717 14.388V15.8445H50.5717V14.388H48.5717ZM49.5717 14.8445H48.1273V16.8445H49.5717V14.8445ZM47.1273 15.8445V17.3011H49.1273V15.8445H47.1273ZM48.1273 16.3011H46.6828V18.3011H48.1273V16.3011ZM45.6828 17.3011V18.7576H47.6828V17.3011H45.6828ZM46.6828 17.7576H42.3496V19.7576H46.6828V17.7576ZM43.3496 18.7576V17.3011H41.3496V18.7576H43.3496ZM42.3496 16.3011H40.9052V18.3011H42.3496V16.3011ZM41.9052 17.3011V15.8445H39.9052V17.3011H41.9052ZM40.9052 14.8445H39.4608V16.8445H40.9052V14.8445ZM40.4608 15.8445V14.388H38.4608V15.8445H40.4608ZM39.4608 13.388H38.0164V15.388H39.4608V13.388ZM39.0164 14.388V12.9315H37.0164V14.388H39.0164ZM38.0164 11.9315H36.5719V13.9315H38.0164V11.9315ZM37.5719 12.9315V11.475H35.5719V12.9315H37.5719ZM37.5719 11.475V10.0184H35.5719V11.475H37.5719ZM37.5719 10.0184V7.10539H35.5719V10.0184H37.5719ZM37.5719 7.10539V4.19234H35.5719V7.10539H37.5719ZM37.5719 4.19234V2.73582H35.5719V4.19234H37.5719ZM37.5719 2.73582V1.2793H35.5719V2.73582H37.5719ZM36.5719 2.2793H38.0164V0.279297H36.5719V2.2793ZM38.0164 2.2793H39.4608V0.279297H38.0164V2.2793ZM38.4608 1.2793V2.73582H40.4608V1.2793H38.4608ZM38.4608 2.73582V4.19234H40.4608V2.73582H38.4608ZM38.4608 4.19234V10.0184H40.4608V4.19234H38.4608ZM38.4608 10.0184V11.475H40.4608V10.0184H38.4608ZM39.4608 12.475H40.9052V10.475H39.4608V12.475ZM39.9052 11.475V12.9315H41.9052V11.475H39.9052ZM40.9052 13.9315H42.3496V11.9315H40.9052V13.9315ZM41.3496 12.9315V14.388H43.3496V12.9315H41.3496ZM42.3496 15.388H43.794V13.388H42.3496V15.388ZM42.794 14.388V15.8445H44.794V14.388H42.794ZM43.794 16.8445H45.2384V14.8445H43.794V16.8445ZM46.2384 15.8445V14.388H44.2384V15.8445H46.2384ZM45.2384 15.388H46.6828V13.388H45.2384V15.388ZM47.6828 14.388V12.9315H45.6828V14.388H47.6828ZM46.6828 13.9315H48.1273V11.9315H46.6828V13.9315ZM49.1273 12.9315V11.475H47.1273V12.9315H49.1273ZM48.1273 12.475H49.5717V10.475H48.1273V12.475ZM50.5717 11.475V10.0184H48.5717V11.475H50.5717ZM50.5717 10.0184V4.19234H48.5717V10.0184H50.5717ZM50.5717 4.19234V2.73582H48.5717V4.19234H50.5717ZM50.5717 2.73582V1.2793H48.5717V2.73582H50.5717ZM49.5717 2.2793H51.0161V0.279297H49.5717V2.2793ZM51.0161 2.2793H52.4605V0.279297H51.0161V2.2793ZM51.4605 1.2793V2.73582H53.4605V1.2793H51.4605ZM56.357 4.19234V2.73582H54.357V4.19234H56.357ZM56.357 2.73582V1.2793H54.357V2.73582H56.357ZM55.357 2.2793H56.8014V0.279297H55.357V2.2793ZM56.8014 2.2793H58.2458V0.279297H56.8014V2.2793ZM58.2458 2.2793H62.5791V0.279297H58.2458V2.2793ZM62.5791 2.2793H71.2456V0.279297H62.5791V2.2793ZM70.2456 1.2793V4.19234H72.2456V1.2793H70.2456ZM71.2456 3.19234H69.8012V5.19234H71.2456V3.19234ZM69.8012 3.19234H68.3568V5.19234H69.8012V3.19234ZM68.3568 3.19234H65.4679V5.19234H68.3568V3.19234ZM65.4679 3.19234H64.0235V5.19234H65.4679V3.19234ZM64.0235 3.19234H62.5791V5.19234H64.0235V3.19234ZM62.5791 3.19234H59.6903V5.19234H62.5791V3.19234ZM59.6903 3.19234H58.2458V5.19234H59.6903V3.19234ZM57.2458 4.19234V8.56191H59.2458V4.19234H57.2458ZM58.2458 9.56191H68.3568V7.56191H58.2458V9.56191ZM67.3568 8.56191V11.475H69.3568V8.56191H67.3568ZM68.3568 10.475H58.2458V12.475H68.3568V10.475ZM57.2458 11.475V15.8445H59.2458V11.475H57.2458ZM58.2458 16.8445H59.6903V14.8445H58.2458V16.8445ZM59.6903 16.8445H62.5791V14.8445H59.6903V16.8445ZM62.5791 16.8445H64.0235V14.8445H62.5791V16.8445ZM64.0235 16.8445H65.4679V14.8445H64.0235V16.8445ZM65.4679 16.8445H68.3568V14.8445H65.4679V16.8445ZM68.3568 16.8445H69.8012V14.8445H68.3568V16.8445ZM69.8012 16.8445H71.2456V14.8445H69.8012V16.8445ZM70.2456 15.8445V18.7576H72.2456V15.8445H70.2456ZM71.2456 17.7576H62.5791V19.7576H71.2456V17.7576ZM62.5791 17.7576H58.2458V19.7576H62.5791V17.7576ZM58.2458 17.7576H56.8014V19.7576H58.2458V17.7576ZM56.8014 17.7576H55.357V19.7576H56.8014V17.7576ZM56.357 18.7576V17.3011H54.357V18.7576H56.357ZM56.357 17.3011V15.8445H54.357V17.3011H56.357ZM56.357 15.8445V14.388H54.357V15.8445H56.357ZM56.357 14.388V11.475H54.357V14.388H56.357ZM56.357 11.475V10.0184H54.357V11.475H56.357ZM56.357 10.0184V8.56191H54.357V10.0184H56.357ZM56.357 8.56191V7.10539H54.357V8.56191H56.357ZM56.357 7.10539V5.64887H54.357V7.10539H56.357ZM56.357 5.64887V4.19234H54.357V5.64887H56.357ZM88.1418 7.10539V2.73582H86.1418V7.10539H88.1418ZM88.1418 2.73582V1.2793H86.1418V2.73582H88.1418ZM87.1418 2.2793H90.0306V0.279297H87.1418V2.2793ZM89.0306 1.2793V2.73582H91.0306V1.2793H89.0306ZM89.0306 2.73582V4.19234H91.0306V2.73582H89.0306ZM89.0306 4.19234V15.8445H91.0306V4.19234H89.0306ZM89.0306 15.8445V18.7576H91.0306V15.8445H89.0306ZM90.0306 17.7576H87.1418V19.7576H90.0306V17.7576ZM88.1418 18.7576V15.8445H86.1418V18.7576H88.1418ZM87.1418 14.8445H85.6974V16.8445H87.1418V14.8445ZM86.6974 15.8445V14.388H84.6974V15.8445H86.6974ZM85.6974 13.388H84.253V15.388H85.6974V13.388ZM85.253 14.388V12.9315H83.253V14.388H85.253ZM84.253 11.9315H82.8086V13.9315H84.253V11.9315ZM83.8086 12.9315V11.475H81.8086V12.9315H83.8086ZM82.8086 10.475H81.3642V12.475H82.8086V10.475ZM82.3642 11.475V10.0184H80.3642V11.475H82.3642ZM81.3642 9.01844H79.9198V11.0184H81.3642V9.01844ZM80.9198 10.0184V8.56191H78.9198V10.0184H80.9198ZM79.9198 7.56191H78.4753V9.56191H79.9198V7.56191ZM79.4753 8.56191V7.10539H77.4753V8.56191H79.4753ZM78.4753 6.10539H77.0309V8.10539H78.4753V6.10539ZM76.0309 7.10539V11.475H78.0309V7.10539H76.0309ZM76.0309 11.475V18.7576H78.0309V11.475H76.0309ZM77.0309 17.7576H75.5865V19.7576H77.0309V17.7576ZM75.5865 17.7576H74.1421V19.7576H75.5865V17.7576ZM75.1421 18.7576V17.3011H73.1421V18.7576H75.1421ZM75.1421 17.3011V15.8445H73.1421V17.3011H75.1421ZM75.1421 15.8445V14.388H73.1421V15.8445H75.1421ZM75.1421 14.388V11.475H73.1421V14.388H75.1421ZM75.1421 11.475V10.0184H73.1421V11.475H75.1421ZM75.1421 10.0184V8.56191H73.1421V10.0184H75.1421ZM75.1421 8.56191V7.10539H73.1421V8.56191H75.1421ZM75.1421 7.10539V5.64887H73.1421V7.10539H75.1421ZM75.1421 5.64887V4.19234H73.1421V5.64887H75.1421ZM75.1421 4.19234V2.73582H73.1421V4.19234H75.1421ZM75.1421 2.73582V1.2793H73.1421V2.73582H75.1421ZM74.1421 2.2793H75.5865V0.279297H74.1421V2.2793ZM75.5865 2.2793H77.0309V0.279297H75.5865V2.2793ZM76.0309 1.2793V2.73582H78.0309V1.2793H76.0309ZM77.0309 3.73582H78.4753V1.73582H77.0309V3.73582ZM77.4753 2.73582V4.19234H79.4753V2.73582H77.4753ZM78.4753 5.19234H79.9198V3.19234H78.4753V5.19234ZM78.9198 4.19234V5.64887H80.9198V4.19234H78.9198ZM79.9198 6.64887H81.3642V4.64887H79.9198V6.64887ZM80.3642 5.64887V7.10539H82.3642V5.64887H80.3642ZM81.3642 8.10539H82.8086V6.10539H81.3642V8.10539ZM81.8086 7.10539V8.56191H83.8086V7.10539H81.8086ZM82.8086 9.56191H84.253V7.56191H82.8086V9.56191ZM83.253 8.56191V10.0184H85.253V8.56191H83.253ZM84.253 11.0184H85.6974V9.01844H84.253V11.0184ZM84.6974 10.0184V11.475H86.6974V10.0184H84.6974ZM85.6974 12.475H87.1418V10.475H85.6974V12.475ZM88.1418 11.475V7.10539H86.1418V11.475H88.1418ZM93.9272 4.19234V2.73582H91.9272V4.19234H93.9272ZM93.9272 2.73582V1.2793H91.9272V2.73582H93.9272ZM92.9272 2.2793H94.3716V0.279297H92.9272V2.2793ZM94.3716 2.2793H95.816V0.279297H94.3716V2.2793ZM95.816 2.2793H100.149V0.279297H95.816V2.2793ZM100.149 2.2793H107.371V0.279297H100.149V2.2793ZM106.371 1.2793V4.19234H108.371V1.2793H106.371ZM107.371 3.19234H105.927V5.19234H107.371V3.19234ZM105.927 3.19234H104.482V5.19234H105.927V3.19234ZM104.482 3.19234H101.594V5.19234H104.482V3.19234ZM100.594 4.19234V11.475H102.594V4.19234H100.594ZM100.594 11.475V18.7576H102.594V11.475H100.594ZM101.594 17.7576H98.7048V19.7576H101.594V17.7576ZM99.7048 18.7576V11.475H97.7048V18.7576H99.7048ZM99.7048 11.475V4.19234H97.7048V11.475H99.7048ZM98.7048 3.19234H97.2604V5.19234H98.7048V3.19234ZM97.2604 3.19234H92.9272V5.19234H97.2604V3.19234ZM118.934 3.19234H117.49V5.19234H118.934V3.19234ZM117.49 3.19234H116.045V5.19234H117.49V3.19234ZM115.045 4.19234V5.64887H117.045V4.19234H115.045ZM116.045 4.64887H114.601V6.64887H116.045V4.64887ZM113.601 5.64887V7.10539H115.601V5.64887H113.601ZM113.601 7.10539V8.56191H115.601V7.10539H113.601ZM113.601 8.56191V11.475H115.601V8.56191H113.601ZM113.601 11.475V12.9315H115.601V11.475H113.601ZM113.601 12.9315V14.388H115.601V12.9315H113.601ZM114.601 15.388H116.045V13.388H114.601V15.388ZM115.045 14.388V15.8445H117.045V14.388H115.045ZM116.045 16.8445H117.49V14.8445H116.045V16.8445ZM117.49 16.8445H118.934V14.8445H117.49V16.8445ZM118.934 16.8445H120.379V14.8445H118.934V16.8445ZM120.379 16.8445H121.823V14.8445H120.379V16.8445ZM121.823 16.8445H123.268V14.8445H121.823V16.8445ZM124.268 15.8445V14.388H122.268V15.8445H124.268ZM123.268 15.388H124.712V13.388H123.268V15.388ZM125.712 14.388V12.9315H123.712V14.388H125.712ZM125.712 12.9315V11.475H123.712V12.9315H125.712ZM125.712 11.475V7.10539H123.712V11.475H125.712ZM125.712 7.10539V5.64887H123.712V7.10539H125.712ZM124.712 4.64887H123.268V6.64887H124.712V4.64887ZM124.268 5.64887V4.19234H122.268V5.64887H124.268ZM123.268 3.19234H121.823V5.19234H123.268V3.19234ZM121.823 3.19234H120.379V5.19234H121.823V3.19234ZM120.379 3.19234H118.934V5.19234H120.379V3.19234ZM126.601 11.475V15.8445H128.601V11.475H126.601ZM127.601 14.8445H126.156V16.8445H127.601V14.8445ZM125.156 15.8445V17.3011H127.156V15.8445H125.156ZM126.156 16.3011H124.712V18.3011H126.156V16.3011ZM123.712 17.3011V18.7576H125.712V17.3011H123.712ZM124.712 17.7576H120.379V19.7576H124.712V17.7576ZM120.379 17.7576H118.934V19.7576H120.379V17.7576ZM118.934 17.7576H114.601V19.7576H118.934V17.7576ZM115.601 18.7576V17.3011H113.601V18.7576H115.601ZM114.601 16.3011H113.157V18.3011H114.601V16.3011ZM114.157 17.3011V15.8445H112.157V17.3011H114.157ZM113.157 14.8445H111.712V16.8445H113.157V14.8445ZM112.712 15.8445V12.9315H110.712V15.8445H112.712ZM112.712 12.9315V11.475H110.712V12.9315H112.712ZM112.712 11.475V10.0184H110.712V11.475H112.712ZM112.712 10.0184V8.56191H110.712V10.0184H112.712ZM112.712 8.56191V4.19234H110.712V8.56191H112.712ZM111.712 5.19234H113.157V3.19234H111.712V5.19234ZM114.157 4.19234V2.73582H112.157V4.19234H114.157ZM113.157 3.73582H114.601V1.73582H113.157V3.73582ZM115.601 2.73582V1.2793H113.601V2.73582H115.601ZM114.601 2.2793H117.49V0.279297H114.601V2.2793ZM117.49 2.2793H118.934V0.279297H117.49V2.2793ZM118.934 2.2793H120.379V0.279297H118.934V2.2793ZM120.379 2.2793H124.712V0.279297H120.379V2.2793ZM123.712 1.2793V2.73582H125.712V1.2793H123.712ZM124.712 3.73582H126.156V1.73582H124.712V3.73582ZM125.156 2.73582V4.19234H127.156V2.73582H125.156ZM126.156 5.19234H127.601V3.19234H126.156V5.19234ZM126.601 4.19234V7.10539H128.601V4.19234H126.601ZM126.601 7.10539V11.475H128.601V7.10539H126.601ZM131.497 4.19234V2.73582H129.497V4.19234H131.497ZM131.497 2.73582V1.2793H129.497V2.73582H131.497ZM130.497 2.2793H131.942V0.279297H130.497V2.2793ZM131.942 2.2793H133.386V0.279297H131.942V2.2793ZM133.386 2.2793H137.719V0.279297H133.386V2.2793ZM137.719 2.2793H143.497V0.279297H137.719V2.2793ZM142.497 1.2793V2.73582H144.497V1.2793H142.497ZM143.497 3.73582H144.941V1.73582H143.497V3.73582ZM143.941 2.73582V4.19234H145.941V2.73582H143.941ZM144.941 5.19234H146.386V3.19234H144.941V5.19234ZM145.386 4.19234V7.10539H147.386V4.19234H145.386ZM145.386 7.10539V8.56191H147.386V7.10539H145.386ZM145.386 8.56191V10.0184H147.386V8.56191H145.386ZM146.386 9.01844H144.941V11.0184H146.386V9.01844ZM143.941 10.0184V11.475H145.941V10.0184H143.941ZM144.941 10.475H143.497V12.475H144.941V10.475ZM142.497 11.475V12.9315H144.497V11.475H142.497ZM142.497 12.9315V14.388H144.497V12.9315H142.497ZM143.497 15.388H144.941V13.388H143.497V15.388ZM143.941 14.388V15.8445H145.941V14.388H143.941ZM144.941 16.8445H146.386V14.8445H144.941V16.8445ZM145.386 15.8445V17.3011H147.386V15.8445H145.386ZM145.386 17.3011V18.7576H147.386V17.3011H145.386ZM146.386 17.7576H143.497V19.7576H146.386V17.7576ZM144.497 18.7576V17.3011H142.497V18.7576H144.497ZM143.497 16.3011H142.053V18.3011H143.497V16.3011ZM143.053 17.3011V15.8445H141.053V17.3011H143.053ZM142.053 14.8445H140.608V16.8445H142.053V14.8445ZM141.608 15.8445V14.388H139.608V15.8445H141.608ZM140.608 13.388H139.164V15.388H140.608V13.388ZM140.164 14.388V12.9315H138.164V14.388H140.164ZM139.164 11.9315H137.719V13.9315H139.164V11.9315ZM137.719 11.9315H133.386V13.9315H137.719V11.9315ZM132.386 12.9315V18.7576H134.386V12.9315H132.386ZM133.386 17.7576H130.497V19.7576H133.386V17.7576ZM131.497 18.7576V12.9315H129.497V18.7576H131.497ZM131.497 12.9315V11.475H129.497V12.9315H131.497ZM131.497 11.475V10.0184H129.497V11.475H131.497ZM131.497 10.0184V8.56191H129.497V10.0184H131.497ZM131.497 8.56191V7.10539H129.497V8.56191H131.497ZM131.497 7.10539V5.64887H129.497V7.10539H131.497ZM131.497 5.64887V4.19234H129.497V5.64887H131.497ZM137.719 3.19234H134.831V5.19234H137.719V3.19234ZM134.831 3.19234H133.386V5.19234H134.831V3.19234ZM132.386 4.19234V8.56191H134.386V4.19234H132.386ZM132.386 8.56191V10.0184H134.386V8.56191H132.386ZM133.386 11.0184H134.831V9.01844H133.386V11.0184ZM134.831 11.0184H136.275V9.01844H134.831V11.0184ZM136.275 11.0184H137.719V9.01844H136.275V11.0184ZM137.719 11.0184H139.164V9.01844H137.719V11.0184ZM139.164 11.0184H140.608V9.01844H139.164V11.0184ZM140.608 11.0184H142.053V9.01844H140.608V11.0184ZM143.053 10.0184V8.56191H141.053V10.0184H143.053ZM142.053 9.56191H143.497V7.56191H142.053V9.56191ZM144.497 8.56191V7.10539H142.497V8.56191H144.497ZM144.497 7.10539V5.64887H142.497V7.10539H144.497ZM143.497 4.64887H142.053V6.64887H143.497V4.64887ZM143.053 5.64887V4.19234H141.053V5.64887H143.053ZM142.053 3.19234H140.608V5.19234H142.053V3.19234ZM140.608 3.19234H139.164V5.19234H140.608V3.19234ZM139.164 3.19234H137.719V5.19234H139.164V3.19234ZM162.727 2.73582V4.19234H164.727V2.73582H162.727ZM162.727 4.19234V5.64887H164.727V4.19234H162.727ZM162.727 5.64887V7.10539H164.727V5.64887H162.727ZM163.727 6.10539H162.282V8.10539H163.727V6.10539ZM161.282 7.10539V8.56191H163.282V7.10539H161.282ZM162.282 7.56191H160.838V9.56191H162.282V7.56191ZM159.838 8.56191V10.0184H161.838V8.56191H159.838ZM160.838 9.01844H159.393V11.0184H160.838V9.01844ZM158.393 10.0184V11.475H160.393V10.0184H158.393ZM159.393 10.475H157.949V12.475H159.393V10.475ZM156.949 11.475V12.9315H158.949V11.475H156.949ZM156.949 12.9315V18.7576H158.949V12.9315H156.949ZM157.949 17.7576H155.06V19.7576H157.949V17.7576ZM156.06 18.7576V12.9315H154.06V18.7576H156.06ZM156.06 12.9315V11.475H154.06V12.9315H156.06ZM155.06 10.475H153.616V12.475H155.06V10.475ZM154.616 11.475V10.0184H152.616V11.475H154.616ZM153.616 9.01844H152.171V11.0184H153.616V9.01844ZM153.171 10.0184V8.56191H151.171V10.0184H153.171ZM152.171 7.56191H150.727V9.56191H152.171V7.56191ZM151.727 8.56191V7.10539H149.727V8.56191H151.727ZM150.727 6.10539H149.282V8.10539H150.727V6.10539ZM150.282 7.10539V5.64887H148.282V7.10539H150.282ZM150.282 5.64887V4.19234H148.282V5.64887H150.282ZM150.282 4.19234V2.73582H148.282V4.19234H150.282ZM150.282 2.73582V1.2793H148.282V2.73582H150.282ZM149.282 2.2793H150.727V0.279297H149.282V2.2793ZM150.727 2.2793H152.171V0.279297H150.727V2.2793ZM151.171 1.2793V2.73582H153.171V1.2793H151.171ZM151.171 2.73582V4.19234H153.171V2.73582H151.171ZM151.171 4.19234V5.64887H153.171V4.19234H151.171ZM152.171 6.64887H153.616V4.64887H152.171V6.64887ZM152.616 5.64887V7.10539H154.616V5.64887H152.616ZM153.616 8.10539H155.06V6.10539H153.616V8.10539ZM154.06 7.10539V8.56191H156.06V7.10539H154.06ZM155.06 9.56191H156.504V7.56191H155.06V9.56191ZM156.504 9.56191H157.949V7.56191H156.504V9.56191ZM158.949 8.56191V7.10539H156.949V8.56191H158.949ZM157.949 8.10539H159.393V6.10539H157.949V8.10539ZM160.393 7.10539V5.64887H158.393V7.10539H160.393ZM159.393 6.64887H160.838V4.64887H159.393V6.64887ZM161.838 5.64887V4.19234H159.838V5.64887H161.838ZM161.838 4.19234V2.73582H159.838V4.19234H161.838ZM161.838 2.73582V1.2793H159.838V2.73582H161.838ZM160.838 2.2793H162.282V0.279297H160.838V2.2793ZM162.282 2.2793H163.727V0.279297H162.282V2.2793ZM162.727 1.2793V2.73582H164.727V1.2793H162.727Z" fill="#393939" mask="url(#path-1-outside-1_1338_1242)"/>
</svg>
