<svg width="178" height="60" viewBox="0 0 178 60" fill="none" xmlns="http://www.w3.org/2000/svg">
<rect x="2" y="17" width="174" height="37" fill="white"/>
<rect x="174" y="54" width="2" height="2" fill="black"/>
<rect width="2" height="2" transform="matrix(-1 0 0 1 4 54)" fill="black"/>
<rect width="2" height="2" transform="matrix(-1 0 0 1 4 52)" fill="#5A5A5A"/>
<rect width="2" height="2" transform="matrix(-1 0 0 1 4 50)" fill="#AFAFAF"/>
<rect width="2" height="2" transform="matrix(-1 0 0 1 174 54)" fill="#5A5A5A"/>
<rect width="2" height="2" transform="matrix(-1 0 0 1 176 52)" fill="#5A5A5A"/>
<rect width="2" height="2" transform="matrix(-1 0 0 1 174 52)" fill="#AFAFAF"/>
<rect width="2" height="2" transform="matrix(-1 0 0 1 176 50)" fill="#AFAFAF"/>
<rect width="2" height="2" transform="matrix(-1 0 0 1 6 54)" fill="#5A5A5A"/>
<rect width="2" height="2" transform="matrix(-1 0 0 1 6 52)" fill="#AFAFAF"/>
<rect width="166" height="2" transform="matrix(-1 0 0 1 172 56)" fill="#5A5A5A"/>
<rect width="166" height="2" transform="matrix(-1 0 0 1 172 54)" fill="#AFAFAF"/>
<rect x="174" y="15" width="2" height="2" fill="black"/>
<rect width="2" height="2" transform="matrix(-1 0 0 1 4 15)" fill="black"/>
<rect x="172" y="56" width="2" height="2" fill="black"/>
<rect width="2" height="2" transform="matrix(-1 0 0 1 6 56)" fill="black"/>
<rect x="6" y="58" width="166" height="2" fill="black"/>
<rect x="176" y="17" width="2" height="37" fill="black"/>
<rect width="2" height="37" transform="matrix(-1 0 0 1 2 17)" fill="black"/>
<path fill-rule="evenodd" clip-rule="evenodd" d="M170 0H8V2H6V4H4V47H6V49H8V51H170V49H172V47H174V4H172V2H170V0ZM170 2V4H172V47H170V49H8V47H6V4H8V2H170Z" fill="black"/>
<path fill-rule="evenodd" clip-rule="evenodd" d="M170 2H8V4H6V46H172V4H170V2Z" fill="#00D6BC"/>
<rect x="6" y="4" width="2" height="2" fill="#E0FFFD"/>
<rect x="172" y="4" width="2" height="2" transform="rotate(90 172 4)" fill="#E0FFFD"/>
<rect x="172" y="41" width="2" height="2" transform="rotate(-180 172 41)" fill="#E0FFFD"/>
<rect x="6" y="41" width="2" height="2" transform="rotate(-90 6 41)" fill="#E0FFFD"/>
<rect x="6" y="47" width="6" height="2" transform="rotate(-90 6 47)" fill="#0F9C94"/>
<rect x="8" y="4" width="2" height="2" fill="#008D7C"/>
<rect x="172" y="6" width="2" height="2" transform="rotate(90 172 6)" fill="#008D7C"/>
<rect x="170" y="41" width="2" height="2" transform="rotate(-180 170 41)" fill="#008D7C"/>
<rect x="6" y="39" width="2" height="2" transform="rotate(-90 6 39)" fill="#008D7C"/>
<rect x="6" y="6" width="2" height="2" fill="#008D7C"/>
<rect x="170" y="4" width="2" height="2" transform="rotate(90 170 4)" fill="#008D7C"/>
<rect x="172" y="39" width="2" height="2" transform="rotate(-180 172 39)" fill="#008D7C"/>
<rect x="8" y="41" width="2" height="2" transform="rotate(-90 8 41)" fill="#008D7C"/>
<rect x="172" y="47" width="2" height="6" transform="rotate(-180 172 47)" fill="#0F9C94"/>
<rect x="170" y="49" width="162" height="5.99999" transform="rotate(-180 170 49)" fill="#0F9C94"/>
<rect x="8" y="2" width="162" height="2" fill="#E0FFFD"/>
<rect x="8" y="41" width="162" height="2" fill="#E0FFFD"/>
<rect x="16" y="49" width="6" height="4" transform="rotate(-90 16 49)" fill="#AFEFEB"/>
<rect width="6" height="4" transform="matrix(-1.31134e-07 -1 -1 1.31134e-07 158 49)" fill="#AFEFEB"/>
<rect x="21" y="49" width="6" height="3" transform="rotate(-90 21 49)" fill="#AFEFEB"/>
<rect width="6" height="3" transform="matrix(-1.31134e-07 -1 -1 1.31134e-07 153 49)" fill="#AFEFEB"/>
<rect x="25" y="49" width="6" height="2" transform="rotate(-90 25 49)" fill="#AFEFEB"/>
<rect width="6" height="2" transform="matrix(-1.31134e-07 -1 -1 1.31134e-07 149 49)" fill="#AFEFEB"/>
<rect x="28" y="49" width="6" height="0.999999" transform="rotate(-90 28 49)" fill="#AFEFEB"/>
<rect width="6" height="0.999999" transform="matrix(-1.31134e-07 -1 -1 1.31134e-07 146 49)" fill="#AFEFEB"/>
<path d="M39.072 27.984V30H38.064H37.056H35.04H34.032H33.024V27.984H34.032H35.04V21.936V19.92H34.032H33.024V17.904H34.032H35.04H36.048H37.056H38.064H39.072V19.92H38.064H37.056V27.984H38.064H39.072ZM53.1894 21.936V18.912V17.904H55.2054V18.912V19.92V27.984V30H53.1894V27.984H52.1814V26.976H51.1734V25.968H50.1654V24.96H49.1574V23.952H48.1494V22.944H47.1414V21.936H46.1334V24.96V30H45.1254H44.1174V28.992V27.984V26.976V24.96V23.952V22.944V21.936V20.928V19.92V18.912V17.904H45.1254H46.1334V18.912H47.1414V19.92H48.1494V20.928H49.1574V21.936H50.1654V22.944H51.1734V23.952H52.1814V24.96H53.1894V21.936ZM68.3148 18.912V19.92V21.936V23.952V24.96V25.968H67.3068V26.976H66.2988V27.984H65.2908V28.992H64.2828V30H61.2588V28.992H60.2508V27.984H59.2428V26.976H58.2348V25.968H57.2268V24.96V23.952V21.936V19.92V18.912V17.904H58.2348H59.2428V18.912V19.92V23.952V24.96H60.2508V25.968H61.2588V26.976H62.2668V27.984H63.2748V26.976H64.2828V25.968H65.2908V24.96H66.2988V23.952V19.92V18.912V17.904H67.3068H68.3148V18.912ZM70.3361 19.92V18.912V17.904H71.3441H72.3521H75.3761H81.4241V19.92H80.4161H79.4081H77.3921H76.3841H75.3761H73.3601H72.3521V22.944H79.4081V24.96H72.3521V27.984H73.3601H75.3761H76.3841H77.3921H79.4081H80.4161H81.4241V30H75.3761H72.3521H71.3441H70.3361V28.992V27.984V26.976V24.96V23.952V22.944V21.936V20.928V19.92ZM92.5175 21.936V18.912V17.904H94.5335V18.912V19.92V27.984V30H92.5175V27.984H91.5095V26.976H90.5015V25.968H89.4935V24.96H88.4855V23.952H87.4775V22.944H86.4695V21.936H85.4615V24.96V30H84.4535H83.4455V28.992V27.984V26.976V24.96V23.952V22.944V21.936V20.928V19.92V18.912V17.904H84.4535H85.4615V18.912H86.4695V19.92H87.4775V20.928H88.4855V21.936H89.4935V22.944H90.5015V23.952H91.5095V24.96H92.5175V21.936ZM96.5549 19.92V18.912V17.904H97.5629H98.5709H101.595H106.635V19.92H105.627H104.619H102.603V24.96V30H100.587V24.96V19.92H99.5789H96.5549ZM114.704 19.92H113.696H112.688V20.928H111.68V21.936V22.944V24.96V25.968V26.976H112.688V27.984H113.696H114.704H115.712H116.72H117.728V26.976H118.736V25.968V24.96V21.936V20.928H117.728V19.92H116.72H115.712H114.704ZM120.752 24.96V27.984H119.744V28.992H118.736V30H115.712H114.704H111.68V28.992H110.672V27.984H109.664V25.968V24.96V23.952V22.944V19.92H110.672V18.912H111.68V17.904H113.696H114.704H115.712H118.736V18.912H119.744V19.92H120.752V21.936V24.96ZM122.774 19.92V18.912V17.904H123.782H124.79H127.814H131.846V18.912H132.854V19.92H133.862V21.936V22.944V23.952H132.854V24.96H131.846V25.968V26.976H132.854V27.984H133.862V28.992V30H131.846V28.992H130.838V27.984H129.83V26.976H128.822V25.968H127.814H124.79V30H122.774V25.968V24.96V23.952V22.944V21.936V20.928V19.92ZM127.814 19.92H125.798H124.79V22.944V23.952H125.798H126.806H127.814H128.822H129.83H130.838V22.944H131.846V21.936V20.928H130.838V19.92H129.83H128.822H127.814ZM145.963 18.912V19.92V20.928V21.936H144.955V22.944H143.947V23.952H142.939V24.96H141.931V25.968V30H139.915V25.968V24.96H138.907V23.952H137.899V22.944H136.891V21.936H135.883V20.928V19.92V18.912V17.904H136.891H137.899V18.912V19.92V20.928H138.907V21.936H139.915V22.944H140.923H141.931V21.936H142.939V20.928H143.947V19.92V18.912V17.904H144.955H145.963V18.912Z" fill="#393939"/>
<path d="M39.072 25.984V28H38.064H37.056H35.04H34.032H33.024V25.984H34.032H35.04V19.936V17.92H34.032H33.024V15.904H34.032H35.04H36.048H37.056H38.064H39.072V17.92H38.064H37.056V25.984H38.064H39.072ZM53.1894 19.936V16.912V15.904H55.2054V16.912V17.92V25.984V28H53.1894V25.984H52.1814V24.976H51.1734V23.968H50.1654V22.96H49.1574V21.952H48.1494V20.944H47.1414V19.936H46.1334V22.96V28H45.1254H44.1174V26.992V25.984V24.976V22.96V21.952V20.944V19.936V18.928V17.92V16.912V15.904H45.1254H46.1334V16.912H47.1414V17.92H48.1494V18.928H49.1574V19.936H50.1654V20.944H51.1734V21.952H52.1814V22.96H53.1894V19.936ZM68.3148 16.912V17.92V19.936V21.952V22.96V23.968H67.3068V24.976H66.2988V25.984H65.2908V26.992H64.2828V28H61.2588V26.992H60.2508V25.984H59.2428V24.976H58.2348V23.968H57.2268V22.96V21.952V19.936V17.92V16.912V15.904H58.2348H59.2428V16.912V17.92V21.952V22.96H60.2508V23.968H61.2588V24.976H62.2668V25.984H63.2748V24.976H64.2828V23.968H65.2908V22.96H66.2988V21.952V17.92V16.912V15.904H67.3068H68.3148V16.912ZM70.3361 17.92V16.912V15.904H71.3441H72.3521H75.3761H81.4241V17.92H80.4161H79.4081H77.3921H76.3841H75.3761H73.3601H72.3521V20.944H79.4081V22.96H72.3521V25.984H73.3601H75.3761H76.3841H77.3921H79.4081H80.4161H81.4241V28H75.3761H72.3521H71.3441H70.3361V26.992V25.984V24.976V22.96V21.952V20.944V19.936V18.928V17.92ZM92.5175 19.936V16.912V15.904H94.5335V16.912V17.92V25.984V28H92.5175V25.984H91.5095V24.976H90.5015V23.968H89.4935V22.96H88.4855V21.952H87.4775V20.944H86.4695V19.936H85.4615V22.96V28H84.4535H83.4455V26.992V25.984V24.976V22.96V21.952V20.944V19.936V18.928V17.92V16.912V15.904H84.4535H85.4615V16.912H86.4695V17.92H87.4775V18.928H88.4855V19.936H89.4935V20.944H90.5015V21.952H91.5095V22.96H92.5175V19.936ZM96.5549 17.92V16.912V15.904H97.5629H98.5709H101.595H106.635V17.92H105.627H104.619H102.603V22.96V28H100.587V22.96V17.92H99.5789H96.5549ZM114.704 17.92H113.696H112.688V18.928H111.68V19.936V20.944V22.96V23.968V24.976H112.688V25.984H113.696H114.704H115.712H116.72H117.728V24.976H118.736V23.968V22.96V19.936V18.928H117.728V17.92H116.72H115.712H114.704ZM120.752 22.96V25.984H119.744V26.992H118.736V28H115.712H114.704H111.68V26.992H110.672V25.984H109.664V23.968V22.96V21.952V20.944V17.92H110.672V16.912H111.68V15.904H113.696H114.704H115.712H118.736V16.912H119.744V17.92H120.752V19.936V22.96ZM122.774 17.92V16.912V15.904H123.782H124.79H127.814H131.846V16.912H132.854V17.92H133.862V19.936V20.944V21.952H132.854V22.96H131.846V23.968V24.976H132.854V25.984H133.862V26.992V28H131.846V26.992H130.838V25.984H129.83V24.976H128.822V23.968H127.814H124.79V28H122.774V23.968V22.96V21.952V20.944V19.936V18.928V17.92ZM127.814 17.92H125.798H124.79V20.944V21.952H125.798H126.806H127.814H128.822H129.83H130.838V20.944H131.846V19.936V18.928H130.838V17.92H129.83H128.822H127.814ZM145.963 16.912V17.92V18.928V19.936H144.955V20.944H143.947V21.952H142.939V22.96H141.931V23.968V28H139.915V23.968V22.96H138.907V21.952H137.899V20.944H136.891V19.936H135.883V18.928V17.92V16.912V15.904H136.891H137.899V16.912V17.92V18.928H138.907V19.936H139.915V20.944H140.923H141.931V19.936H142.939V18.928H143.947V17.92V16.912V15.904H144.955H145.963V16.912Z" fill="white"/>
</svg>
