<svg width="165" height="46" viewBox="0 0 165 46" fill="none" xmlns="http://www.w3.org/2000/svg">
<rect x="2" y="8.79395" width="2" height="2" fill="#393939"/>
<rect x="163" y="39.7939" width="2" height="4" transform="rotate(-180 163 39.7939)" fill="#393939"/>
<rect x="4" y="35.7939" width="4" height="2" transform="rotate(90 4 35.7939)" fill="#393939"/>
<rect x="10" y="33.7939" width="2" height="2" transform="rotate(90 10 33.7939)" fill="#FFBD82"/>
<rect x="155" y="35.7939" width="2.00001" height="145" transform="rotate(90 155 35.7939)" fill="#FFBD82"/>
<rect x="161" y="10.7939" width="4" height="2" transform="rotate(-90 161 10.7939)" fill="#393939"/>
<rect x="2" y="6.79395" width="2" height="2" fill="#393939"/>
<rect x="161" y="41.7939" width="2" height="2" transform="rotate(-180 161 41.7939)" fill="#393939"/>
<rect x="6" y="39.7939" width="2" height="2" transform="rotate(90 6 39.7939)" fill="#393939"/>
<rect x="4" y="4.79395" width="2" height="2" fill="#393939"/>
<rect x="8" y="41.7939" width="2" height="2" transform="rotate(90 8 41.7939)" fill="#393939"/>
<rect x="159" y="6.79395" width="2" height="2" transform="rotate(-90 159 6.79395)" fill="#393939"/>
<rect x="6" y="2.79395" width="4" height="2" fill="#393939"/>
<rect x="159" y="43.7939" width="4" height="2" transform="rotate(-180 159 43.7939)" fill="#393939"/>
<path fill-rule="evenodd" clip-rule="evenodd" d="M4 35.7939H2V29.7939H4L4 31.7939L6 31.7939V33.7939H8V35.7939L10 35.7939V37.7939L155 37.794V35.7939H157V33.7939L159 33.7939V31.7939L161 31.7939V29.7939H163V35.7939H161V39.7939H159V41.7939H155V43.7939L10 43.7939V41.7939H6L6 39.7939H4V37.7939L4 35.7939Z" fill="#EE7000"/>
<rect x="10" y="41.7939" width="2" height="2" transform="rotate(90 10 41.7939)" fill="#393939"/>
<rect x="155" y="4.79395" width="2" height="4" transform="rotate(-90 155 4.79395)" fill="#393939"/>
<rect x="10" y="0.793945" width="145" height="2" fill="#393939"/>
<rect x="10" y="43.7939" width="145" height="2" fill="#393939"/>
<rect y="10.7939" width="2" height="25" fill="#393939"/>
<rect x="165" y="35.7939" width="2" height="25" transform="rotate(-180 165 35.7939)" fill="#393939"/>
<path fill-rule="evenodd" clip-rule="evenodd" d="M155 4.79395L10 4.79393V2.79395L155 2.79396V4.79395ZM157 6.79395L8 6.79393V4.79395H155L157 4.79396V6.79395ZM159 8.79395L6 8.79393V6.79395H157L159 6.79396V8.79395ZM159 31.7939H4L4 29.7939L4 27.794L126.353 27.794L2 27.7939V10.7939L158.965 10.7939L4 10.7939L4 8.79395H159L161 8.79396V10.7939H163V27.794L161 27.7939V29.7939V31.7939L159 31.7939ZM155 33.7939L159 33.7939V31.7939L6 31.794L6 33.7939H155ZM155 33.7939V35.7939L10 35.7939V33.794L155 33.7939Z" fill="#FF9332"/>
<rect x="155" y="2.79395" width="2.00001" height="145" transform="rotate(90 155 2.79395)" fill="#FFBD82"/>
<rect x="6" y="6.79395" width="2" height="2" transform="rotate(90 6 6.79395)" fill="#FFBD82"/>
<rect x="4" y="10.7939" width="4" height="2" transform="rotate(90 4 10.7939)" fill="#FFBD82"/>
<rect x="8" y="4.79395" width="2" height="2" transform="rotate(90 8 4.79395)" fill="#FFBD82"/>
<rect x="10" y="4.79395" width="2" height="2" transform="rotate(90 10 4.79395)" fill="#FFBD82"/>
<rect x="159" y="4.79395" width="2" height="4" transform="rotate(90 159 4.79395)" fill="#FFBD82"/>
<rect x="161" y="6.79395" width="2" height="2" transform="rotate(90 161 6.79395)" fill="#FFBD82"/>
<rect x="163" y="10.7939" width="4" height="2" transform="rotate(90 163 10.7939)" fill="#FFBD82"/>
<rect width="6" height="4" transform="matrix(-1.31134e-07 -1 -1 1.31134e-07 37 43.7939)" fill="#FFDDBE"/>
<rect width="6" height="4" transform="matrix(-1.31134e-07 -1 -1 1.31134e-07 135 43.7939)" fill="#FFDDBE"/>
<rect width="6" height="3" transform="matrix(-1.31134e-07 -1 -1 1.31134e-07 32 43.7939)" fill="#FFDDBE"/>
<rect width="6" height="3" transform="matrix(-1.31134e-07 -1 -1 1.31134e-07 130 43.7939)" fill="#FFDDBE"/>
<rect width="6" height="2" transform="matrix(-1.31134e-07 -1 -1 1.31134e-07 28 43.7939)" fill="#FFDDBE"/>
<rect width="6" height="2" transform="matrix(-1.31134e-07 -1 -1 1.31134e-07 126 43.7939)" fill="#FFDDBE"/>
<rect width="6" height="0.999999" transform="matrix(-1.31134e-07 -1 -1 1.31134e-07 25 43.7939)" fill="#FFDDBE"/>
<rect width="6" height="0.999999" transform="matrix(-1.31134e-07 -1 -1 1.31134e-07 123 43.7939)" fill="#FFDDBE"/>
<rect x="4" y="27.7939" width="4" height="2" transform="rotate(90 4 27.7939)" fill="#FFBD82"/>
<rect x="8" y="33.7939" width="2" height="2" transform="rotate(90 8 33.7939)" fill="#FFBD82"/>
<rect x="6" y="31.7939" width="2" height="2" transform="rotate(90 6 31.7939)" fill="#FFBD82"/>
<rect x="159" y="35.7939" width="4" height="2" transform="rotate(-180 159 35.7939)" fill="#FFBD82"/>
<rect x="161" y="33.7939" width="2" height="2" transform="rotate(-180 161 33.7939)" fill="#FFBD82"/>
<rect x="163" y="29.7939" width="2" height="4" transform="rotate(-180 163 29.7939)" fill="#FFBD82"/>
<path d="M55.472 22.0072V23.1646V24.3219H56.6294V25.4793H57.7867H58.9441H60.1014H61.2588H62.4161V24.3219H63.5735V23.1646V18.5352V16.2205H62.4161H61.2588V13.9058H62.4161H63.5735H64.7308H65.8882V23.1646V25.4793H64.7308V26.6366H63.5735V27.7939H60.1014H58.9441H55.472V26.6366H54.3147V25.4793H53.1573V23.1646V22.0072H55.472ZM73.9958 16.2205H72.8384H71.6811V17.3778H70.5237V18.5352V19.6925V22.0072V23.1646V24.3219H71.6811V25.4793H72.8384H73.9958H75.1531H76.3105H77.4678V24.3219H78.6252V23.1646V22.0072V18.5352V17.3778H77.4678V16.2205H76.3105H75.1531H73.9958ZM80.9398 22.0072V25.4793H79.7825V26.6366H78.6252V27.7939H75.1531H73.9958H70.5237V26.6366H69.3664V25.4793H68.209V23.1646V22.0072V20.8499V19.6925V16.2205H69.3664V15.0631H70.5237V13.9058H72.8384H73.9958H75.1531H78.6252V15.0631H79.7825V16.2205H80.9398V18.5352V22.0072ZM92.5195 25.4793V27.7939H91.3621H90.2048H87.8901H86.7328H85.5754V25.4793H86.7328H87.8901V18.5352V16.2205H86.7328H85.5754V13.9058H86.7328H87.8901H89.0474H90.2048H91.3621H92.5195V16.2205H91.3621H90.2048V25.4793H91.3621H92.5195ZM108.729 18.5352V15.0631V13.9058H111.043V15.0631V16.2205V25.4793V27.7939H108.729V25.4793H107.571V24.3219H106.414V23.1646H105.256V22.0072H104.099V20.8499H102.942V19.6925H101.784V18.5352H100.627V22.0072V27.7939H99.4697H98.3124V26.6366V25.4793V24.3219V22.0072V20.8499V19.6925V18.5352V17.3778V16.2205V15.0631V13.9058H99.4697H100.627V15.0631H101.784V16.2205H102.942V17.3778H104.099V18.5352H105.256V19.6925H106.414V20.8499H107.571V22.0072H108.729V18.5352Z" fill="#393939"/>
<path d="M55.472 20.0072V21.1646V22.3219H56.6294V23.4793H57.7867H58.9441H60.1014H61.2588H62.4161V22.3219H63.5735V21.1646V16.5352V14.2205H62.4161H61.2588V11.9058H62.4161H63.5735H64.7308H65.8882V21.1646V23.4793H64.7308V24.6366H63.5735V25.7939H60.1014H58.9441H55.472V24.6366H54.3147V23.4793H53.1573V21.1646V20.0072H55.472ZM73.9958 14.2205H72.8384H71.6811V15.3778H70.5237V16.5352V17.6925V20.0072V21.1646V22.3219H71.6811V23.4793H72.8384H73.9958H75.1531H76.3105H77.4678V22.3219H78.6252V21.1646V20.0072V16.5352V15.3778H77.4678V14.2205H76.3105H75.1531H73.9958ZM80.9398 20.0072V23.4793H79.7825V24.6366H78.6252V25.7939H75.1531H73.9958H70.5237V24.6366H69.3664V23.4793H68.209V21.1646V20.0072V18.8499V17.6925V14.2205H69.3664V13.0631H70.5237V11.9058H72.8384H73.9958H75.1531H78.6252V13.0631H79.7825V14.2205H80.9398V16.5352V20.0072ZM92.5195 23.4793V25.7939H91.3621H90.2048H87.8901H86.7328H85.5754V23.4793H86.7328H87.8901V16.5352V14.2205H86.7328H85.5754V11.9058H86.7328H87.8901H89.0474H90.2048H91.3621H92.5195V14.2205H91.3621H90.2048V23.4793H91.3621H92.5195ZM108.729 16.5352V13.0631V11.9058H111.043V13.0631V14.2205V23.4793V25.7939H108.729V23.4793H107.571V22.3219H106.414V21.1646H105.256V20.0072H104.099V18.8499H102.942V17.6925H101.784V16.5352H100.627V20.0072V25.7939H99.4697H98.3124V24.6366V23.4793V22.3219V20.0072V18.8499V17.6925V16.5352V15.3778V14.2205V13.0631V11.9058H99.4697H100.627V13.0631H101.784V14.2205H102.942V15.3778H104.099V16.5352H105.256V17.6925H106.414V18.8499H107.571V20.0072H108.729V16.5352Z" fill="white"/>
</svg>
