<svg width="11" height="11" viewBox="0 0 11 11" fill="none" xmlns="http://www.w3.org/2000/svg">
<path d="M4.86414 0.594727H4.25781V1.20105H4.86414V0.594727Z" fill="#16171A"/>
<path d="M5.46961 0.594727H4.86328V1.20105H5.46961V0.594727Z" fill="#16171A"/>
<path d="M6.07508 0.594727H5.46875V1.20105H6.07508V0.594727Z" fill="#16171A"/>
<path d="M6.68054 0.594727H6.07422V1.20105H6.68054V0.594727Z" fill="#16171A"/>
<path d="M3.64929 1.20117H3.04297V1.8075H3.64929V1.20117Z" fill="#16171A"/>
<path d="M4.25476 1.20117H3.64844V1.8075H4.25476V1.20117Z" fill="#16171A"/>
<path d="M4.86414 1.20117H4.25781V1.8075H4.86414V1.20117Z" fill="#FAFDFF"/>
<path d="M5.46961 1.20117H4.86328V1.8075H5.46961V1.20117Z" fill="#FAFDFF"/>
<path d="M6.07508 1.20117H5.46875V1.8075H6.07508V1.20117Z" fill="#FAFDFF"/>
<path d="M6.68054 1.20117H6.07422V1.8075H6.68054V1.20117Z" fill="#FAFDFF"/>
<path d="M7.28992 1.20117H6.68359V1.8075H7.28992V1.20117Z" fill="#16171A"/>
<path d="M7.89148 1.20117H7.28516V1.8075H7.89148V1.20117Z" fill="#16171A"/>
<path d="M3.04383 1.80664H2.4375V2.41297H3.04383V1.80664Z" fill="#16171A"/>
<path d="M3.64929 1.80762H3.04297V2.41394H3.64929V1.80762Z" fill="#FAFDFF"/>
<path d="M4.25476 1.80664H3.64844V2.41297H4.25476V1.80664Z" fill="#FAFDFF"/>
<path d="M4.86414 1.80664H4.25781V2.41297H4.86414V1.80664Z" fill="#FFBD82"/>
<path d="M5.46961 1.80664H4.86328V2.41297H5.46961V1.80664Z" fill="#FFBD82"/>
<path d="M6.07508 1.80664H5.46875V2.41297H6.07508V1.80664Z" fill="#FFBD82"/>
<path d="M6.68054 1.80664H6.07422V2.41297H6.68054V1.80664Z" fill="#FFBD82"/>
<path d="M7.28992 1.80664H6.68359V2.41297H7.28992V1.80664Z" fill="#FAFDFF"/>
<path d="M7.89148 1.80762H7.28516V2.41394H7.89148V1.80762Z" fill="#FAFDFF"/>
<path d="M8.49695 1.80664H7.89062V2.41297H8.49695V1.80664Z" fill="#16171A"/>
<path d="M2.43836 2.41406H1.83203V3.02039H2.43836V2.41406Z" fill="#16171A"/>
<path d="M3.04383 2.41406H2.4375V3.02039H3.04383V2.41406Z" fill="#FAFDFF"/>
<path d="M3.64929 2.41406H3.04297V3.02039H3.64929V2.41406Z" fill="#FFBD82"/>
<path d="M4.25476 2.41406H3.64844V3.02039H4.25476V2.41406Z" fill="#FFBD82"/>
<path d="M4.86414 2.41406H4.25781V3.02039H4.86414V2.41406Z" fill="#FFBD82"/>
<path d="M5.46961 2.41406H4.86328V3.02039H5.46961V2.41406Z" fill="#FFBD82"/>
<path d="M6.07508 2.41406H5.46875V3.02039H6.07508V2.41406Z" fill="#FFBD82"/>
<path d="M6.68054 2.41406H6.07422V3.02039H6.68054V2.41406Z" fill="#FFBD82"/>
<path d="M7.28992 2.41406H6.68359V3.02039H7.28992V2.41406Z" fill="#FFBD82"/>
<path d="M7.89148 2.41406H7.28516V3.02039H7.89148V2.41406Z" fill="#FFBD82"/>
<path d="M8.49695 2.41406H7.89062V3.02039H8.49695V2.41406Z" fill="#FAFDFF"/>
<path d="M9.10242 2.41406H8.49609V3.02039H9.10242V2.41406Z" fill="#16171A"/>
<path d="M1.82898 3.01953H1.22266V3.62586H1.82898V3.01953Z" fill="#16171A"/>
<path d="M2.43836 3.01953H1.83203V3.62586H2.43836V3.01953Z" fill="#FAFDFF"/>
<path d="M3.04383 3.01953H2.4375V3.62586H3.04383V3.01953Z" fill="#FFBD82"/>
<path d="M3.64929 3.02051H3.04297V3.62683H3.64929V3.02051Z" fill="#16171A"/>
<path d="M4.25476 3.01953H3.64844V3.62586H4.25476V3.01953Z" fill="#16171A"/>
<path d="M4.86414 3.01953H4.25781V3.62586H4.86414V3.01953Z" fill="#FFBD82"/>
<path d="M5.46961 3.01953H4.86328V3.62586H5.46961V3.01953Z" fill="#FFBD82"/>
<path d="M6.07508 3.01953H5.46875V3.62586H6.07508V3.01953Z" fill="#FFBD82"/>
<path d="M6.68054 3.01953H6.07422V3.62586H6.68054V3.01953Z" fill="#FFBD82"/>
<path d="M7.28992 3.01953H6.68359V3.62586H7.28992V3.01953Z" fill="#FFBD82"/>
<path d="M7.89148 3.02051H7.28516V3.62683H7.89148V3.02051Z" fill="#FFBD82"/>
<path d="M8.49695 3.01953H7.89062V3.62586H8.49695V3.01953Z" fill="#FFBD82"/>
<path d="M9.10242 3.01953H8.49609V3.62586H9.10242V3.01953Z" fill="#FF8426"/>
<path d="M9.71179 3.01953H9.10547V3.62586H9.71179V3.01953Z" fill="#16171A"/>
<path d="M1.82898 3.62695H1.22266V4.23328H1.82898V3.62695Z" fill="#16171A"/>
<path d="M2.43836 3.62695H1.83203V4.23328H2.43836V3.62695Z" fill="#FAFDFF"/>
<path d="M3.04383 3.62695H2.4375V4.23328H3.04383V3.62695Z" fill="#16171A"/>
<path d="M3.64929 3.62598H3.04297V4.2323H3.64929V3.62598Z" fill="#B9B9B9"/>
<path d="M4.25476 3.62695H3.64844V4.23328H4.25476V3.62695Z" fill="#B9B9B9"/>
<path d="M4.86414 3.62695H4.25781V4.23328H4.86414V3.62695Z" fill="#16171A"/>
<path d="M5.46961 3.62695H4.86328V4.23328H5.46961V3.62695Z" fill="#16171A"/>
<path d="M6.07508 3.62695H5.46875V4.23328H6.07508V3.62695Z" fill="#16171A"/>
<path d="M6.68054 3.62695H6.07422V4.23328H6.68054V3.62695Z" fill="#16171A"/>
<path d="M7.28992 3.62695H6.68359V4.23328H7.28992V3.62695Z" fill="#16171A"/>
<path d="M7.89148 3.62598H7.28516V4.2323H7.89148V3.62598Z" fill="#16171A"/>
<path d="M8.49695 3.62695H7.89062V4.23328H8.49695V3.62695Z" fill="#FFBD82"/>
<path d="M9.10242 3.62695H8.49609V4.23328H9.10242V3.62695Z" fill="#FF8426"/>
<path d="M9.71179 3.62695H9.10547V4.23328H9.71179V3.62695Z" fill="#16171A"/>
<path d="M1.22351 4.23242H0.617188V4.83875H1.22351V4.23242Z" fill="#16171A"/>
<path d="M1.82898 4.23242H1.22266V4.83875H1.82898V4.23242Z" fill="#FAFDFF"/>
<path d="M2.43836 4.23242H1.83203V4.83875H2.43836V4.23242Z" fill="#FFBD82"/>
<path d="M3.04383 4.23242H2.4375V4.83875H3.04383V4.23242Z" fill="#FFBD82"/>
<path d="M3.64929 4.23242H3.04297V4.83875H3.64929V4.23242Z" fill="#16171A"/>
<path d="M4.25476 4.23242H3.64844V4.83875H4.25476V4.23242Z" fill="#B9B9B9"/>
<path d="M4.86414 4.23242H4.25781V4.83875H4.86414V4.23242Z" fill="#B9B9B9"/>
<path d="M5.46961 4.23242H4.86328V4.83875H5.46961V4.23242Z" fill="#B9B9B9"/>
<path d="M6.07508 4.23242H5.46875V4.83875H6.07508V4.23242Z" fill="#B9B9B9"/>
<path d="M6.68054 4.23242H6.07422V4.83875H6.68054V4.23242Z" fill="#B9B9B9"/>
<path d="M7.28992 4.23242H6.68359V4.83875H7.28992V4.23242Z" fill="#B9B9B9"/>
<path d="M7.89148 4.23242H7.28516V4.83875H7.89148V4.23242Z" fill="#606060"/>
<path d="M8.49695 4.23242H7.89062V4.83875H8.49695V4.23242Z" fill="#16171A"/>
<path d="M9.10242 4.23242H8.49609V4.83875H9.10242V4.23242Z" fill="#FFBD82"/>
<path d="M9.71179 4.23242H9.10547V4.83875H9.71179V4.23242Z" fill="#FF8426"/>
<path d="M10.3173 4.23242H9.71094V4.83875H10.3173V4.23242Z" fill="#16171A"/>
<path d="M1.22351 4.83887H0.617188V5.44519H1.22351V4.83887Z" fill="#16171A"/>
<path d="M1.82898 4.83887H1.22266V5.44519H1.82898V4.83887Z" fill="#FAFDFF"/>
<path d="M2.43836 4.83887H1.83203V5.44519H2.43836V4.83887Z" fill="#FFBD82"/>
<path d="M3.04383 4.83887H2.4375V5.44519H3.04383V4.83887Z" fill="#FFBD82"/>
<path d="M3.64929 4.83887H3.04297V5.44519H3.64929V4.83887Z" fill="#16171A"/>
<path d="M4.25476 4.83887H3.64844V5.44519H4.25476V4.83887Z" fill="#FFBD82"/>
<path d="M4.86414 4.83887H4.25781V5.44519H4.86414V4.83887Z" fill="#B9B9B9"/>
<path d="M5.46961 4.83887H4.86328V5.44519H5.46961V4.83887Z" fill="#606060"/>
<path d="M6.07508 4.83887H5.46875V5.44519H6.07508V4.83887Z" fill="#606060"/>
<path d="M6.68054 4.83887H6.07422V5.44519H6.68054V4.83887Z" fill="#606060"/>
<path d="M7.28992 4.83887H6.68359V5.44519H7.28992V4.83887Z" fill="#606060"/>
<path d="M7.89148 4.83887H7.28516V5.44519H7.89148V4.83887Z" fill="#606060"/>
<path d="M8.49695 4.83887H7.89062V5.44519H8.49695V4.83887Z" fill="#16171A"/>
<path d="M9.10242 4.83887H8.49609V5.44519H9.10242V4.83887Z" fill="#FFBD82"/>
<path d="M9.71179 4.83887H9.10547V5.44519H9.71179V4.83887Z" fill="#FF8426"/>
<path d="M10.3173 4.83887H9.71094V5.44519H10.3173V4.83887Z" fill="#16171A"/>
<path d="M1.22351 5.44531H0.617188V6.05164H1.22351V5.44531Z" fill="#16171A"/>
<path d="M1.82898 5.44531H1.22266V6.05164H1.82898V5.44531Z" fill="#FAFDFF"/>
<path d="M2.43836 5.44531H1.83203V6.05164H2.43836V5.44531Z" fill="#FFBD82"/>
<path d="M3.04383 5.44531H2.4375V6.05164H3.04383V5.44531Z" fill="#16171A"/>
<path d="M3.64929 5.44531H3.04297V6.05164H3.64929V5.44531Z" fill="#FFBD82"/>
<path d="M4.25476 5.44531H3.64844V6.05164H4.25476V5.44531Z" fill="#FF8426"/>
<path d="M4.86414 5.44531H4.25781V6.05164H4.86414V5.44531Z" fill="#D62411"/>
<path d="M5.46961 5.44531H4.86328V6.05164H5.46961V5.44531Z" fill="#16171A"/>
<path d="M6.07508 5.44531H5.46875V6.05164H6.07508V5.44531Z" fill="#606060"/>
<path d="M6.68054 5.44531H6.07422V6.05164H6.68054V5.44531Z" fill="#16171A"/>
<path d="M7.28992 5.44531H6.68359V6.05164H7.28992V5.44531Z" fill="#16171A"/>
<path d="M7.89148 5.44531H7.28516V6.05164H7.89148V5.44531Z" fill="#16171A"/>
<path d="M8.49695 5.44531H7.89062V6.05164H8.49695V5.44531Z" fill="#FFBD82"/>
<path d="M9.10242 5.44531H8.49609V6.05164H9.10242V5.44531Z" fill="#FFBD82"/>
<path d="M9.71179 5.44531H9.10547V6.05164H9.71179V5.44531Z" fill="#FF8426"/>
<path d="M10.3173 5.44531H9.71094V6.05164H10.3173V5.44531Z" fill="#16171A"/>
<path d="M1.22351 6.05176H0.617188V6.65808H1.22351V6.05176Z" fill="#16171A"/>
<path d="M1.82898 6.05176H1.22266V6.65808H1.82898V6.05176Z" fill="#FAFDFF"/>
<path d="M2.43836 6.05176H1.83203V6.65808H2.43836V6.05176Z" fill="#FFBD82"/>
<path d="M3.04383 6.05176H2.4375V6.65808H3.04383V6.05176Z" fill="#16171A"/>
<path d="M3.64929 6.05176H3.04297V6.65808H3.64929V6.05176Z" fill="#FFBD82"/>
<path d="M4.25476 6.05176H3.64844V6.65808H4.25476V6.05176Z" fill="#FF8426"/>
<path d="M4.86414 6.05176H4.25781V6.65808H4.86414V6.05176Z" fill="#D62411"/>
<path d="M5.46961 6.05176H4.86328V6.65808H5.46961V6.05176Z" fill="#606060"/>
<path d="M6.07508 6.05176H5.46875V6.65808H6.07508V6.05176Z" fill="#16171A"/>
<path d="M6.68054 6.05176H6.07422V6.65808H6.68054V6.05176Z" fill="#FFBD82"/>
<path d="M7.28992 6.05176H6.68359V6.65808H7.28992V6.05176Z" fill="#FFBD82"/>
<path d="M7.89148 6.05176H7.28516V6.65808H7.89148V6.05176Z" fill="#FFBD82"/>
<path d="M8.49695 6.05176H7.89062V6.65808H8.49695V6.05176Z" fill="#FFBD82"/>
<path d="M9.10242 6.05176H8.49609V6.65808H9.10242V6.05176Z" fill="#FFBD82"/>
<path d="M9.71179 6.05176H9.10547V6.65808H9.71179V6.05176Z" fill="#FF8426"/>
<path d="M10.3173 6.05176H9.71094V6.65808H10.3173V6.05176Z" fill="#16171A"/>
<path d="M1.82898 6.6582H1.22266V7.26453H1.82898V6.6582Z" fill="#16171A"/>
<path d="M2.43836 6.6582H1.83203V7.26453H2.43836V6.6582Z" fill="#FAFDFF"/>
<path d="M3.04383 6.6582H2.4375V7.26453H3.04383V6.6582Z" fill="#16171A"/>
<path d="M3.64929 6.6582H3.04297V7.26453H3.64929V6.6582Z" fill="#FFBD82"/>
<path d="M4.25476 6.6582H3.64844V7.26453H4.25476V6.6582Z" fill="#FF8426"/>
<path d="M4.86414 6.6582H4.25781V7.26453H4.86414V6.6582Z" fill="#D62411"/>
<path d="M5.46961 6.6582H4.86328V7.26453H5.46961V6.6582Z" fill="#16171A"/>
<path d="M6.07508 6.6582H5.46875V7.26453H6.07508V6.6582Z" fill="#FFBD82"/>
<path d="M6.68054 6.6582H6.07422V7.26453H6.68054V6.6582Z" fill="#FFBD82"/>
<path d="M7.28992 6.6582H6.68359V7.26453H7.28992V6.6582Z" fill="#FFBD82"/>
<path d="M7.89148 6.6582H7.28516V7.26453H7.89148V6.6582Z" fill="#FFBD82"/>
<path d="M8.49695 6.6582H7.89062V7.26453H8.49695V6.6582Z" fill="#FFBD82"/>
<path d="M9.10242 6.6582H8.49609V7.26453H9.10242V6.6582Z" fill="#FF8426"/>
<path d="M9.71179 6.6582H9.10547V7.26453H9.71179V6.6582Z" fill="#16171A"/>
<path d="M1.82898 7.26367H1.22266V7.87H1.82898V7.26367Z" fill="#16171A"/>
<path d="M2.43836 7.26367H1.83203V7.87H2.43836V7.26367Z" fill="#FAFDFF"/>
<path d="M3.04383 7.26367H2.4375V7.87H3.04383V7.26367Z" fill="#16171A"/>
<path d="M3.64929 7.26465H3.04297V7.87097H3.64929V7.26465Z" fill="#FF8426"/>
<path d="M4.25476 7.26367H3.64844V7.87H4.25476V7.26367Z" fill="#D62411"/>
<path d="M4.86414 7.26367H4.25781V7.87H4.86414V7.26367Z" fill="#D62411"/>
<path d="M5.46961 7.26367H4.86328V7.87H5.46961V7.26367Z" fill="#16171A"/>
<path d="M6.07508 7.26367H5.46875V7.87H6.07508V7.26367Z" fill="#FFBD82"/>
<path d="M6.68054 7.26367H6.07422V7.87H6.68054V7.26367Z" fill="#FFBD82"/>
<path d="M7.28992 7.26367H6.68359V7.87H7.28992V7.26367Z" fill="#FFBD82"/>
<path d="M7.89148 7.26465H7.28516V7.87097H7.89148V7.26465Z" fill="#FFBD82"/>
<path d="M8.49695 7.26367H7.89062V7.87H8.49695V7.26367Z" fill="#FFBD82"/>
<path d="M9.10242 7.26367H8.49609V7.87H9.10242V7.26367Z" fill="#FF8426"/>
<path d="M9.71179 7.26367H9.10547V7.87H9.71179V7.26367Z" fill="#16171A"/>
<path d="M2.43836 7.87109H1.83203V8.47742H2.43836V7.87109Z" fill="#16171A"/>
<path d="M3.04383 7.87109H2.4375V8.47742H3.04383V7.87109Z" fill="#FAFDFF"/>
<path d="M3.64929 7.87109H3.04297V8.47742H3.64929V7.87109Z" fill="#16171A"/>
<path d="M4.25476 7.87109H3.64844V8.47742H4.25476V7.87109Z" fill="#16171A"/>
<path d="M4.86414 7.87109H4.25781V8.47742H4.86414V7.87109Z" fill="#16171A"/>
<path d="M5.46961 7.87109H4.86328V8.47742H5.46961V7.87109Z" fill="#FFBD82"/>
<path d="M6.07508 7.87109H5.46875V8.47742H6.07508V7.87109Z" fill="#FFBD82"/>
<path d="M6.68054 7.87109H6.07422V8.47742H6.68054V7.87109Z" fill="#FFBD82"/>
<path d="M7.28992 7.87109H6.68359V8.47742H7.28992V7.87109Z" fill="#FFBD82"/>
<path d="M7.89148 7.87109H7.28516V8.47742H7.89148V7.87109Z" fill="#FFBD82"/>
<path d="M8.49695 7.87109H7.89062V8.47742H8.49695V7.87109Z" fill="#FF8426"/>
<path d="M9.10242 7.87109H8.49609V8.47742H9.10242V7.87109Z" fill="#16171A"/>
<path d="M3.04383 8.47656H2.4375V9.08289H3.04383V8.47656Z" fill="#16171A"/>
<path d="M3.64929 8.47656H3.04297V9.08289H3.64929V8.47656Z" fill="#FF8426"/>
<path d="M4.25476 8.47656H3.64844V9.08289H4.25476V8.47656Z" fill="#FF8426"/>
<path d="M4.86414 8.47656H4.25781V9.08289H4.86414V8.47656Z" fill="#FFBD82"/>
<path d="M5.46961 8.47656H4.86328V9.08289H5.46961V8.47656Z" fill="#FFBD82"/>
<path d="M6.07508 8.47656H5.46875V9.08289H6.07508V8.47656Z" fill="#FFBD82"/>
<path d="M6.68054 8.47656H6.07422V9.08289H6.68054V8.47656Z" fill="#FFBD82"/>
<path d="M7.28992 8.47656H6.68359V9.08289H7.28992V8.47656Z" fill="#FF8426"/>
<path d="M7.89148 8.47656H7.28516V9.08289H7.89148V8.47656Z" fill="#FF8426"/>
<path d="M8.49695 8.47656H7.89062V9.08289H8.49695V8.47656Z" fill="#16171A"/>
<path d="M3.64929 9.08301H3.04297V9.68933H3.64929V9.08301Z" fill="#16171A"/>
<path d="M4.25476 9.08398H3.64844V9.69031H4.25476V9.08398Z" fill="#16171A"/>
<path d="M4.86414 9.08398H4.25781V9.69031H4.86414V9.08398Z" fill="#FF8426"/>
<path d="M5.46961 9.08398H4.86328V9.69031H5.46961V9.08398Z" fill="#FF8426"/>
<path d="M6.07508 9.08398H5.46875V9.69031H6.07508V9.08398Z" fill="#FF8426"/>
<path d="M6.68054 9.08398H6.07422V9.69031H6.68054V9.08398Z" fill="#FF8426"/>
<path d="M7.28992 9.08398H6.68359V9.69031H7.28992V9.08398Z" fill="#16171A"/>
<path d="M7.89148 9.08301H7.28516V9.68933H7.89148V9.08301Z" fill="#16171A"/>
<path d="M4.86414 9.68945H4.25781V10.2958H4.86414V9.68945Z" fill="#16171A"/>
<path d="M5.46961 9.68945H4.86328V10.2958H5.46961V9.68945Z" fill="#16171A"/>
<path d="M6.07508 9.68945H5.46875V10.2958H6.07508V9.68945Z" fill="#16171A"/>
<path d="M6.68054 9.68945H6.07422V10.2958H6.68054V9.68945Z" fill="#16171A"/>
</svg>
