<svg width="233" height="30" viewBox="0 0 233 30" fill="none" xmlns="http://www.w3.org/2000/svg">
<path d="M76.8223 6.90194V9.6651C76.0713 8.61853 75.0769 7.77045 73.9249 7.19405C72.7122 6.64456 71.3915 6.37475 70.0605 6.40457C68.1568 6.37421 66.2802 6.85835 64.6289 7.80589C63.0381 8.72785 61.7366 10.0759 60.871 11.698C59.9567 13.423 59.4937 15.3512 59.5249 17.3033V17.3783C59.5249 17.5125 59.5249 17.6467 59.5249 17.773C59.5249 17.8401 59.5249 17.9072 59.5249 17.9743V18.1796C59.5249 18.3217 59.5249 18.4638 59.5565 18.6019C59.5584 18.6111 59.5584 18.6205 59.5565 18.6296C59.5565 18.7598 59.5802 18.8862 59.5999 19.0243C59.6197 19.1625 59.6197 19.194 59.6355 19.2769C59.6512 19.3598 59.6631 19.4546 59.6789 19.5454C59.6947 19.6362 59.7223 19.7822 59.746 19.9006C59.7973 20.1493 59.8604 20.398 59.9276 20.6427C59.9789 20.8204 60.0302 20.998 60.0894 21.1677C60.1486 21.3375 60.1881 21.4519 60.2433 21.5941L60.267 21.6572C60.2947 21.7322 60.3262 21.8072 60.3578 21.8783L60.3815 21.9335C60.421 22.0362 60.4683 22.1388 60.5157 22.2375C60.5631 22.3362 60.5868 22.3914 60.6262 22.4664C60.6894 22.6006 60.7565 22.7309 60.8276 22.8612C61.6818 24.4642 62.9705 25.794 64.546 26.698C66.1798 27.6295 68.0339 28.1053 69.9144 28.0756C71.2137 28.1086 72.5045 27.8567 73.696 27.3375C74.8838 26.7502 75.9364 25.9221 76.7868 24.9059V27.5822H81.3262V6.90194H76.8223ZM75.0026 21.8112C74.4388 22.3847 73.7612 22.8338 73.0133 23.1295C72.2655 23.4252 71.464 23.5611 70.6605 23.5283C69.8476 23.5602 69.0367 23.427 68.2768 23.1366C67.5169 22.8462 66.8238 22.4047 66.2394 21.8388C66.1526 21.7572 66.0697 21.6704 65.9907 21.5783C65.9711 21.5569 65.9527 21.5345 65.9355 21.5112C65.8705 21.4412 65.8098 21.3674 65.7539 21.2901L65.7302 21.2625V21.2427C65.6947 21.1993 65.6631 21.1519 65.6315 21.1085C65.5999 21.0651 65.5368 20.9783 65.4973 20.9112C65.394 20.7566 65.3004 20.5957 65.217 20.4296C65.1208 20.243 65.0364 20.0505 64.9644 19.8533C64.9328 19.7743 64.9052 19.6954 64.8815 19.6164C64.846 19.5177 64.8183 19.419 64.7907 19.3164C64.7631 19.2138 64.7355 19.1112 64.7157 19.0085C64.696 18.9059 64.6802 18.8427 64.6644 18.7598C64.6644 18.7598 64.6644 18.7598 64.6644 18.7283C64.6644 18.6217 64.6328 18.5112 64.617 18.4046C64.6012 18.298 64.5855 18.1283 64.5776 17.9822C64.5735 17.9455 64.5735 17.9084 64.5776 17.8717C64.5716 17.8113 64.5716 17.7505 64.5776 17.6901C64.5776 17.6072 64.5776 17.5243 64.5776 17.4375C64.576 16.9879 64.6116 16.539 64.6841 16.0954C64.6841 15.9888 64.7197 15.8822 64.7433 15.7796C64.767 15.6769 64.7749 15.6335 64.7947 15.5625C64.8144 15.4914 64.8262 15.4322 64.846 15.369C64.8441 15.3507 64.8441 15.3322 64.846 15.3138V15.2625L64.917 15.0414C64.9486 14.9388 64.9881 14.8362 65.0276 14.7335C65.067 14.6309 65.0868 14.5875 65.1183 14.5164V14.4848C65.1854 14.3297 65.2605 14.1782 65.3433 14.0309V14.0072C65.3828 13.9322 65.4302 13.8533 65.4736 13.7822C65.517 13.7112 65.5802 13.6085 65.6394 13.5256C65.699 13.434 65.7636 13.3457 65.8328 13.2612C65.8791 13.1952 65.9292 13.1319 65.9828 13.0717C66.0539 12.9809 66.1328 12.894 66.2118 12.8072C66.7507 12.2129 67.4117 11.7422 68.1496 11.4274C68.8876 11.1126 69.6848 10.9612 70.4868 10.9835C70.692 10.9835 70.8815 10.9835 71.0947 11.0072H71.217L71.4697 11.0348C71.5723 11.0348 71.6749 11.0506 71.7776 11.0822C71.8881 11.1019 71.9907 11.1217 72.0973 11.1493L72.3262 11.2046L72.5078 11.2598L72.7565 11.3427H72.7762C72.871 11.3743 72.9618 11.4138 73.0526 11.4533C73.1394 11.4888 73.2262 11.5283 73.3091 11.5717L73.3644 11.5993L73.5578 11.698L73.6447 11.7454L73.8381 11.8638C73.8502 11.8694 73.8609 11.8774 73.8697 11.8875C73.926 11.9193 73.98 11.9549 74.0315 11.994C74.0868 12.0296 74.1381 12.069 74.1894 12.1085L74.4262 12.294C74.5802 12.4243 74.7302 12.5625 74.8723 12.7085C74.9473 12.7835 75.0144 12.8585 75.0815 12.9335L75.2315 13.1112C75.2907 13.1822 75.3499 13.2612 75.4052 13.3362C75.4605 13.4112 75.4841 13.4467 75.5236 13.5019V13.5256L75.5473 13.5612C75.6026 13.644 75.6539 13.723 75.7012 13.8098C75.734 13.8576 75.763 13.9077 75.7881 13.9598C75.8315 14.0348 75.871 14.1098 75.9105 14.1888C75.9499 14.2677 75.9934 14.3546 76.0289 14.4414C76.0644 14.5283 76.0762 14.548 76.096 14.6033C76.1157 14.6585 76.1512 14.7414 76.1749 14.8125C76.1986 14.8835 76.2341 14.9783 76.2618 15.0612C76.2894 15.144 76.3131 15.2348 76.3368 15.3256C76.3605 15.4164 76.3881 15.519 76.4078 15.6138C76.4276 15.7085 76.4355 15.744 76.4473 15.8112C76.4591 15.8783 76.471 15.9256 76.4789 15.9848C76.4868 16.044 76.4789 16.0125 76.4789 16.0283C76.4789 16.1072 76.5026 16.1862 76.5105 16.269C76.5184 16.3519 76.5381 16.4862 76.546 16.5967C76.5539 16.7072 76.546 16.8217 76.5657 16.9362C76.5855 17.0506 76.5657 17.1651 76.5657 17.2835C76.6289 19.1598 76.1078 20.6691 75.0026 21.8112Z" fill="#FF7C06"/>
<path d="M59.0703 12.6685H59.1611V12.4316L59.0703 12.6685Z" fill="white"/>
<path d="M59.0703 12.6685H59.1611V12.4316L59.0703 12.6685Z" fill="white"/>
<path d="M85.4062 0.0107422V4.67653H90.3641V0.0107422H85.4062Z" fill="#FF7C06"/>
<path d="M90.3641 6.90234H85.4062V27.5905H90.3641V6.90234Z" fill="#FF7C06"/>
<path d="M103.821 6.42838V11.2047C100.858 11.2757 99.3748 12.9034 99.3721 16.0876V27.5902H94.3984V6.90206H98.9379V8.92706C99.4235 8.13139 100.083 7.45649 100.868 6.95338C101.663 6.56493 102.543 6.3843 103.426 6.42838H103.821Z" fill="#FF7C06"/>
<path d="M104.641 27.5898V22.8135H109.599V27.5898H104.641Z" fill="#FF7C06"/>
<path d="M203.791 22.6721C203.57 22.8732 203.337 23.0605 203.093 23.2331C201.591 24.2813 199.794 24.8227 197.964 24.7781C196.766 24.7875 195.578 24.5575 194.47 24.1018C193.405 23.6662 192.433 23.0332 191.604 22.2362C190.792 21.4364 190.144 20.4858 189.697 19.4377C189.222 18.3556 188.98 17.1861 188.985 16.0046C188.966 14.4385 189.369 12.8961 190.152 11.5393C190.914 10.209 192.022 9.10924 193.357 8.35622C194.724 7.57947 196.273 7.17906 197.845 7.19582C199.022 7.18989 200.189 7.40745 201.285 7.83692C202.977 8.50838 204.418 9.68902 205.41 11.2156C205.78 11.8435 206.08 12.5099 206.304 13.203H201.759C200.97 11.6665 199.666 10.8971 197.845 10.895C197.204 10.8731 196.565 10.9879 195.972 11.2316C195.378 11.4753 194.843 11.8424 194.402 12.3086C193.49 13.3002 193.008 14.6133 193.062 15.9597C193.042 16.6305 193.154 17.2987 193.393 17.9259C193.632 18.5531 193.992 19.1268 194.454 19.614C194.9 20.0882 195.441 20.4632 196.042 20.7144C196.643 20.9657 197.29 21.0877 197.941 21.0726C198.691 21.093 199.433 20.9114 200.089 20.5468C200.766 20.1206 201.335 19.5435 201.753 18.8607H206.298C205.79 20.3185 204.928 21.6278 203.791 22.6721Z" fill="#393939"/>
<path d="M112.5 29.9931V7.57999H116.186V9.56422C117.516 7.98496 119.356 7.19533 121.706 7.19533C123.217 7.17205 124.705 7.55748 126.015 8.31086C127.281 9.05134 128.315 10.1318 128.999 11.4298C129.725 12.8128 130.093 14.3557 130.07 15.9176C130.094 17.4971 129.723 19.0576 128.989 20.4566C128.302 21.769 127.265 22.8653 125.992 23.6237C124.687 24.3965 123.194 24.7937 121.677 24.7712C120.733 24.7859 119.794 24.6251 118.908 24.2968C118.032 23.9499 117.226 23.4495 116.526 22.8191V29.9995L112.5 29.9931ZM121.1 10.8945C120.457 10.8823 119.819 11.0075 119.228 11.2618C118.637 11.516 118.107 11.8936 117.674 12.3691C116.745 13.3641 116.248 14.6856 116.289 16.0458C116.271 16.7091 116.388 17.3691 116.632 17.9861C116.876 18.6031 117.242 19.1643 117.709 19.636C118.165 20.1078 118.713 20.4799 119.32 20.7287C119.927 20.9776 120.579 21.0978 121.235 21.0817C121.872 21.0902 122.504 20.9638 123.089 20.7107C123.674 20.4577 124.199 20.0838 124.63 19.6136C125.086 19.1331 125.444 18.5672 125.681 17.9484C125.919 17.3296 126.032 16.67 126.015 16.0073C126.037 15.3339 125.925 14.6628 125.687 14.0328C125.448 13.4028 125.086 12.8264 124.623 12.337C124.17 11.8627 123.622 11.4891 123.016 11.2405C122.409 10.992 121.756 10.8741 121.1 10.8945Z" fill="#393939"/>
<path d="M132.555 24.3795V7.57935H136.241V9.22379C136.635 8.57667 137.173 8.02841 137.812 7.62102C138.454 7.3046 139.167 7.15679 139.883 7.19148H140.203V11.0702C137.797 11.1279 136.593 12.4496 136.59 15.0354V24.3795H132.555Z" fill="#393939"/>
<path d="M150.103 7.19538C151.264 7.19074 152.415 7.41553 153.489 7.85686C154.563 8.29819 155.539 8.94735 156.362 9.76706C157.184 10.5868 157.836 11.5609 158.281 12.6334C158.726 13.706 158.955 14.8559 158.954 16.017C158.963 17.5611 158.551 19.0785 157.761 20.4054C156.983 21.7434 155.862 22.8498 154.514 23.6109C152.461 24.7826 150.031 25.1032 147.745 24.504C145.459 23.9047 143.499 22.4333 142.285 20.4054C141.492 19.0797 141.077 17.5619 141.086 16.017C141.088 14.8538 141.32 13.7025 141.768 12.6292C142.216 11.5559 142.872 10.5818 143.699 9.76301C145.425 8.1134 147.722 7.19462 150.11 7.19859L150.103 7.19538ZM149.94 10.8946C149.302 10.8907 148.671 11.0228 148.088 11.2821C147.506 11.5413 146.985 11.9217 146.561 12.398C145.634 13.3611 145.126 14.6517 145.147 15.9881C145.136 16.6516 145.255 17.3108 145.499 17.928C145.743 18.5452 146.106 19.1082 146.568 19.5848C147 20.0616 147.528 20.4415 148.117 20.6995C148.707 20.9575 149.344 21.0878 149.988 21.0817C150.635 21.0892 151.277 20.9604 151.871 20.7036C152.465 20.4468 152.999 20.0677 153.437 19.5912C153.907 19.1233 154.278 18.5659 154.529 17.9519C154.779 17.338 154.904 16.68 154.895 16.017C154.912 15.3448 154.793 14.6762 154.547 14.0507C154.3 13.4252 153.93 12.8556 153.459 12.3755C153.009 11.8958 152.463 11.516 151.857 11.2609C151.251 11.0057 150.597 10.8809 149.94 10.8946Z" fill="#393939"/>
<path d="M161.882 24.3804V11.2378H159.914V7.58025H161.882V1.9834H165.908V7.58025H168.335V11.2506H165.908V24.3933L161.882 24.3804Z" fill="#393939"/>
<path d="M178.467 7.19537C179.628 7.19115 180.779 7.41621 181.853 7.85765C182.927 8.29909 183.903 8.94822 184.726 9.7678C185.548 10.5874 186.201 11.5613 186.646 12.6337C187.092 13.7061 187.321 14.8558 187.321 16.017C187.331 17.5611 186.918 19.0785 186.128 20.4054C185.348 21.7428 184.226 22.849 182.878 23.6109C180.826 24.7833 178.396 25.1043 176.11 24.5049C173.825 23.9056 171.865 22.4337 170.652 20.4054C169.858 19.0803 169.443 17.5621 169.453 16.017C169.453 14.8535 169.684 13.7016 170.133 12.628C170.581 11.5545 171.238 10.5806 172.066 9.763C173.792 8.11339 176.089 7.19461 178.477 7.19858L178.467 7.19537ZM178.297 10.8946C177.662 10.8913 177.033 11.0237 176.452 11.283C175.872 11.5423 175.353 11.9224 174.932 12.3979C174.004 13.3603 173.495 14.6514 173.518 15.9881C173.506 16.6517 173.625 17.3111 173.868 17.9284C174.112 18.5456 174.476 19.1086 174.938 19.5847C175.37 20.062 175.898 20.4423 176.487 20.7003C177.077 20.9584 177.715 21.0884 178.358 21.0817C179.008 21.0907 179.653 20.9625 180.25 20.7057C180.847 20.4489 181.383 20.0691 181.823 19.5912C182.289 19.121 182.655 18.5626 182.902 17.9489C183.149 17.3351 183.27 16.6783 183.26 16.017C183.275 15.3449 183.156 14.6765 182.91 14.0511C182.663 13.4257 182.294 12.856 181.823 12.3755C181.372 11.8956 180.825 11.5158 180.218 11.2607C179.61 11.0055 178.956 10.8808 178.297 10.8946Z" fill="#393939"/>
<path d="M201.759 18.8607H206.304C205.794 20.3192 204.931 21.6286 203.791 22.6721C203.57 22.8732 203.337 23.0605 203.093 23.2331C201.591 24.2813 199.794 24.8227 197.964 24.7781C196.766 24.7875 195.578 24.5575 194.47 24.1018C193.405 23.6662 192.433 23.0332 191.604 22.2362C190.792 21.4364 190.144 20.4858 189.697 19.4377C189.222 18.3556 188.98 17.1861 188.985 16.0046C188.966 14.4385 189.369 12.8961 190.152 11.5393C190.914 10.209 192.022 9.10924 193.357 8.35622C194.724 7.57947 196.273 7.17906 197.845 7.19582C199.022 7.18989 200.189 7.40745 201.285 7.83692C202.977 8.50838 204.418 9.68902 205.41 11.2156C205.78 11.8435 206.08 12.5099 206.304 13.203H201.759C200.97 11.6665 199.666 10.8971 197.845 10.895C197.204 10.8731 196.565 10.9879 195.972 11.2316C195.378 11.4753 194.843 11.8424 194.402 12.3086C193.49 13.3002 193.008 14.6133 193.062 15.9597C193.042 16.6305 193.154 17.2987 193.393 17.9259C193.632 18.5531 193.992 19.1268 194.454 19.614C194.9 20.0882 195.441 20.4632 196.042 20.7144C196.643 20.9657 197.29 21.0877 197.941 21.0726C198.691 21.093 199.433 20.9114 200.089 20.5468C200.768 20.1213 201.34 19.5442 201.759 18.8607Z" fill="#393939"/>
<path d="M225.797 15.8629C225.797 15.6386 225.797 15.4174 225.762 15.1962C225.724 14.7387 225.648 14.2852 225.535 13.8403C225.515 13.7601 225.493 13.68 225.47 13.5998C225.432 13.4652 225.39 13.3306 225.345 13.196C225.344 13.1885 225.344 13.1809 225.345 13.1735C225.301 13.0453 225.253 12.9171 225.201 12.7888C225.166 12.6927 225.124 12.5965 225.083 12.5036C225.041 12.4106 224.961 12.2311 224.893 12.0965L224.797 11.9105C224.743 11.8048 224.685 11.7022 224.624 11.59C223.845 10.2466 222.726 9.13226 221.379 8.35905C220.033 7.58584 218.506 7.1811 216.953 7.18558C214.566 7.18161 212.269 8.1004 210.542 9.75001C209.715 10.5677 209.057 11.5415 208.609 12.6151C208.161 13.6886 207.93 14.8405 207.93 16.004C207.921 17.5489 208.335 19.0667 209.129 20.3924C209.161 20.4469 209.193 20.5014 209.228 20.5526C209.334 20.7257 209.446 20.8924 209.549 21.0527C209.651 21.213 209.828 21.4277 209.975 21.6041L210.138 21.79C210.397 22.0815 210.675 22.3547 210.972 22.6074C211.078 22.6939 211.187 22.7837 211.292 22.867C211.398 22.9504 211.507 23.0305 211.613 23.1074L211.683 23.1555C211.78 23.2228 211.876 23.2837 211.972 23.3447C212.068 23.4056 212.232 23.5081 212.366 23.5851C213.736 24.3581 215.282 24.7642 216.854 24.7642C218.427 24.7642 219.972 24.3581 221.342 23.5851C222.688 22.8221 223.809 21.7161 224.589 20.3795C225.379 19.0527 225.791 17.5353 225.781 15.9912C225.801 15.9655 225.801 15.9142 225.797 15.8629ZM221.678 16.7797C221.678 16.8599 221.656 16.9432 221.64 17.0234C221.624 17.1035 221.611 17.174 221.592 17.2477C221.573 17.3215 221.547 17.4272 221.521 17.517C221.496 17.6068 221.483 17.6484 221.457 17.7157C221.432 17.7831 221.415 17.8343 221.393 17.892C221.371 17.9497 221.345 18.0139 221.319 18.0748V18.094C221.262 18.2286 221.194 18.3633 221.124 18.4915C221.095 18.546 221.063 18.6005 221.031 18.655C220.999 18.7095 220.967 18.7575 220.931 18.8088C220.902 18.8578 220.87 18.9049 220.835 18.9499L220.758 19.0589C220.613 19.2472 220.454 19.425 220.284 19.591C219.846 20.0672 219.312 20.446 218.718 20.7028C218.124 20.9596 217.482 21.0886 216.835 21.0816H216.588C216.388 21.072 216.189 21.0506 215.992 21.0174L215.838 20.9854C215.647 20.9462 215.46 20.8937 215.277 20.8283H215.254C215.178 20.8027 215.097 20.7706 215.024 20.7386C214.966 20.7162 214.909 20.6905 214.854 20.6616C214.562 20.5246 214.285 20.3558 214.03 20.1584L213.883 20.0365C213.718 19.9006 213.562 19.7551 213.414 19.6006C213.248 19.4254 213.094 19.239 212.953 19.0428C212.836 18.8806 212.729 18.7114 212.632 18.5364C212.54 18.3763 212.459 18.2103 212.389 18.0395C212.329 17.8993 212.278 17.7559 212.235 17.61C212.216 17.5555 212.2 17.501 212.184 17.4433C212.109 17.1671 212.057 16.8851 212.03 16.6002C212.027 16.5522 212.027 16.504 212.03 16.456C212.03 16.3919 212.03 16.3278 212.03 16.2636C212.03 16.1995 212.03 16.0905 212.03 16.004C212.008 14.6676 212.517 13.3769 213.443 12.4138C213.866 11.9388 214.385 11.5591 214.966 11.2999C215.547 11.0407 216.176 10.908 216.812 10.9104C217.461 10.9018 218.104 11.0276 218.701 11.2797C219.299 11.5318 219.838 11.9048 220.284 12.3753C220.345 12.4362 220.403 12.5003 220.457 12.5645C220.515 12.6256 220.569 12.6898 220.621 12.7568C220.724 12.8853 220.822 13.0191 220.912 13.1575C220.951 13.2184 220.989 13.2761 221.024 13.337C221.06 13.3979 221.133 13.5293 221.181 13.6255C221.246 13.7507 221.303 13.8791 221.355 14.0102C221.468 14.2977 221.555 14.5949 221.614 14.8981C221.614 14.9462 221.633 14.9975 221.64 15.0487C221.641 15.0583 221.641 15.068 221.64 15.0776C221.676 15.3005 221.698 15.5252 221.707 15.7508C221.707 15.8373 221.707 15.9271 221.707 16.0168C221.716 16.2715 221.706 16.5264 221.678 16.7797Z" fill="#393939"/>
<path d="M232.3 1.9834H228.273V24.3804H232.3V1.9834Z" fill="#393939"/>
<path d="M37.5 10.8773C37.499 9.12962 37.0661 7.40932 36.2397 5.86943C35.4132 4.32954 34.219 3.0178 32.7632 2.05094C31.3445 1.08041 29.7545 0.387902 28.0776 0.0101502C27.9851 -0.00565568 27.8904 -0.00297982 27.799 0.0180232C27.7075 0.0390263 27.6211 0.0779404 27.5447 0.132519C27.3879 0.244488 27.2815 0.413604 27.2482 0.603387C27.215 0.793169 27.2577 0.988409 27.3671 1.14699C27.4193 1.22525 27.4868 1.29215 27.5655 1.3437C27.6441 1.39526 27.7324 1.43039 27.825 1.44699C29.3241 1.7961 30.7446 2.42267 32.0132 3.29436C32.2974 3.49173 32.5697 3.6891 32.8303 3.91805C31.4714 3.28354 29.9878 2.96119 28.4882 2.97463H28.1368C23.6487 3.10094 21.0671 5.57199 18.7737 5.57199C16.4803 5.57199 13.879 3.10489 9.38684 2.97857H9.03948C7.54005 2.96296 6.05623 3.28401 4.69737 3.91805C4.94985 3.69821 5.21334 3.49136 5.48684 3.29831C6.75456 2.43198 8.17401 1.81198 9.67105 1.47068C9.76459 1.45388 9.85375 1.41828 9.93313 1.36604C10.0125 1.3138 10.0805 1.24599 10.1329 1.16673C10.2472 1.00828 10.2941 0.810972 10.2632 0.618045C10.2474 0.523796 10.2125 0.433783 10.1605 0.353571C10.1098 0.273355 10.0442 0.203662 9.96711 0.148308C9.89 0.0935445 9.80279 0.0546344 9.71053 0.0338344C9.61815 0.0141084 9.52265 0.0141084 9.43027 0.0338344C7.75055 0.399964 6.15706 1.08614 4.73684 2.05489C3.31515 2.99307 2.14173 4.2615 1.31685 5.75179C0.49197 7.24207 0.04015 8.90991 0 10.6128C0 10.8259 0 11.043 0 11.2641C0 15.8431 3.67105 19.5536 9.03948 19.5536H9.38684C12.7737 19.4588 15.075 18.0299 16.9776 17.3312L15.1105 22.4233C15.0699 22.5343 15.0564 22.6534 15.0711 22.7707C15.0837 22.8872 15.1258 22.9986 15.1934 23.0944C15.2554 23.1921 15.3427 23.2713 15.4461 23.3233C15.5485 23.3773 15.6619 23.4071 15.7776 23.4102H21.3671C21.4616 23.4096 21.5549 23.3901 21.6417 23.3528C21.7285 23.3155 21.8069 23.2612 21.8724 23.1931C22.0072 23.0564 22.0824 22.8719 22.0816 22.6799C22.0817 22.4869 22.0067 22.3014 21.8724 22.1628C21.8067 22.0952 21.7282 22.0415 21.6414 22.0049C21.5546 21.9683 21.4613 21.9495 21.3671 21.9496H16.8158L18.6434 16.9562H18.7461C21.0395 16.9562 23.6211 19.4273 28.1092 19.5536H28.4605C33.8329 19.5536 37.5 15.8431 37.5 11.2641C37.5 11.1338 37.5 11.0036 37.5 10.8773ZM9.67105 14.5602C6.87632 14.5602 4.93421 13.2023 4.93421 11.2641C4.93421 9.32594 6.88421 7.96805 9.67105 7.96805C12.5763 7.96805 15.0395 9.47594 15.0395 11.2641C15.0395 13.0523 12.5763 14.5602 9.67105 14.5602ZM27.829 14.5602C24.9197 14.5602 22.4566 13.0483 22.4566 11.2641C22.4566 9.47989 24.9079 7.96805 27.829 7.96805C30.6197 7.96805 32.5658 9.322 32.5658 11.2641C32.5658 13.2062 30.6158 14.5602 27.825 14.5602H27.829Z" fill="#FF7C06"/>
<path d="M11.5111 12.3416C11.725 12.3455 11.9353 12.2857 12.1151 12.1697C12.2949 12.0537 12.4361 11.8868 12.5206 11.6902C12.6052 11.4937 12.6294 11.2764 12.5901 11.0661C12.5508 10.8558 12.4497 10.6619 12.2998 10.5092C12.1499 10.3565 11.958 10.2519 11.7484 10.2087C11.5389 10.1655 11.3212 10.1857 11.1231 10.2666C10.9251 10.3476 10.7556 10.4857 10.6363 10.6633C10.517 10.8409 10.4532 11.05 10.4532 11.264C10.4516 11.4043 10.4778 11.5435 10.5301 11.6737C10.5825 11.8038 10.6601 11.9224 10.7584 12.0225C10.8566 12.1226 10.9737 12.2023 11.1029 12.2571C11.2321 12.3119 11.3708 12.3406 11.5111 12.3416Z" fill="#FF7C06"/>
<path d="M29.9017 12.3416C30.1156 12.3455 30.3259 12.2857 30.5057 12.1697C30.6854 12.0537 30.8266 11.8868 30.9112 11.6902C30.9958 11.4937 31.02 11.2764 30.9807 11.0661C30.9414 10.8558 30.8403 10.6619 30.6904 10.5092C30.5405 10.3565 30.3486 10.2519 30.139 10.2087C29.9294 10.1655 29.7118 10.1857 29.5137 10.2666C29.3156 10.3476 29.1462 10.4857 29.0269 10.6633C28.9075 10.8409 28.8438 11.05 28.8438 11.264C28.8417 11.547 28.9518 11.8193 29.1501 12.0213C29.3484 12.2233 29.6186 12.3385 29.9017 12.3416Z" fill="#FF7C06"/>
<path d="M26.5791 23.6943C23.5001 26.7535 15.783 26.2404 15.7041 26.2364C15.6106 26.2288 15.5165 26.2402 15.4276 26.2701C15.3387 26.2999 15.2568 26.3476 15.1869 26.4101C15.0425 26.5389 14.9534 26.7185 14.9383 26.9114C14.9342 27.0075 14.9462 27.1035 14.9738 27.1956C15.0056 27.2857 15.0523 27.3698 15.1119 27.4443C15.1751 27.5161 15.2515 27.5751 15.3369 27.618C15.4198 27.6626 15.5114 27.6882 15.6054 27.693C15.6922 27.693 16.2567 27.7364 17.1093 27.7364C19.687 27.7364 24.9133 27.3891 27.5738 24.7601C27.7081 24.6223 27.7833 24.4374 27.7833 24.245C27.7833 24.0525 27.7081 23.8677 27.5738 23.7298C27.5099 23.6592 27.4319 23.6027 27.3448 23.5641C27.1702 23.493 26.9747 23.493 26.8001 23.5641C26.712 23.5997 26.6316 23.652 26.5633 23.718L26.5791 23.6943Z" fill="#FF7C06"/>
<path d="M48.2176 16.5205H56.839V11.5558H48.2176V4.96479H57.2418V0H43.0312V28.0263H48.2176V16.5205Z" fill="#FF7C06"/>
<path fill-rule="evenodd" clip-rule="evenodd" d="M232.105 29.2107H120.789V28.0596H232.105V29.2107Z" fill="#393939"/>
</svg>
