<svg width="208" height="65" viewBox="0 0 208 65" fill="none" xmlns="http://www.w3.org/2000/svg">
<g filter="url(#filter0_d_166_1389)">
<path d="M85.7796 3.77722H77.6724V6.87224H85.2489V10.6007H77.6724V17.2026H72.3184V0H85.7828L85.7796 3.77722Z" fill="#FF7C06"/>
<path d="M103.348 17.2058H97.5567L96.8081 14.8181H90.872L90.1234 17.2058H84.332L90.8471 0H96.9778L103.348 17.2058ZM95.6984 10.967L93.8883 4.89796L92.03 10.967H95.6984Z" fill="#FF7C06"/>
<path d="M109.934 17.2058H104.535V0H109.941L109.934 17.2058Z" fill="#FF7C06"/>
<path d="M113.604 0.000309934H123.183C123.914 -0.00582614 124.644 0.0791709 125.354 0.25338C126.035 0.425719 126.684 0.709817 127.273 1.09433C127.905 1.51685 128.403 2.113 128.71 2.8124C129.082 3.65915 129.263 4.57885 129.241 5.50502C129.241 6.65773 128.967 7.62024 128.42 8.39256C127.874 9.16487 126.981 9.78629 125.742 10.2568L129.916 17.2029H123.884L120.576 11.1355H119.01V17.2029H113.605L113.604 0.000309934ZM119.01 7.60348H121.255C121.663 7.61025 122.071 7.57762 122.473 7.50602C122.836 7.41912 123.163 7.21892 123.407 6.93386C123.706 6.61948 123.854 6.17464 123.854 5.60562C123.871 5.2218 123.79 4.84003 123.617 4.49745C123.462 4.2171 123.214 4.00108 122.917 3.88756C122.654 3.77741 122.378 3.69982 122.097 3.65649C121.801 3.62059 121.503 3.60431 121.205 3.60776H119.01V7.60348Z" fill="#FF7C06"/>
<path d="M87.4576 24.217L82.5892 25.5987C82.4429 24.7436 82.0683 24.0981 81.4655 23.6622C80.8123 23.211 80.0338 22.9819 79.2429 23.0083C77.81 23.0083 76.7724 23.4893 76.1301 24.4513C75.4879 25.4132 75.1662 26.5937 75.1652 27.9927C75.1652 29.8349 75.5605 31.1752 76.3511 32.0135C77.1418 32.8519 78.1555 33.2711 79.3923 33.2711C80.1553 33.2808 80.9051 33.0709 81.5542 32.6659C82.1975 32.2635 82.5606 31.651 82.6437 30.8284H79.4437V27.3246H87.3596V36.9712H83.2802V35.7625C81.7965 36.8817 80.0699 37.4407 78.1005 37.4397C77.1281 37.4347 76.1642 37.2554 75.2539 36.9099C74.267 36.5363 73.3471 36.0027 72.5302 35.3302C71.6679 34.6323 70.9681 33.6787 70.4306 32.4694C69.8762 31.1808 69.6013 29.7873 69.6244 28.3825C69.6021 26.7393 69.9574 25.1133 70.6625 23.6323C71.3682 22.1983 72.4657 20.9983 73.8251 20.1742C75.2425 19.2866 76.9026 18.8428 78.8056 18.8428C80.0159 18.8405 81.2193 19.0277 82.3728 19.3977C83.5423 19.7747 84.6225 20.3905 85.5463 21.2069C86.4736 21.9889 87.1408 23.0397 87.4576 24.217Z" fill="#FF7C06"/>
<path d="M107.538 36.9727H101.675L100.917 34.5551H94.908L94.1501 36.9727H88.2871L94.8847 19.5547H101.09L107.538 36.9727ZM99.7936 30.6569L97.9617 24.514L96.08 30.6569H99.7936Z" fill="#FF7C06"/>
<path d="M129.915 36.9727H124.712V24.5878L121.316 36.9727H117.26L113.889 24.5878V36.9727H108.711V19.5547H116.527L119.336 30.3849L122.098 19.5547H129.915V36.9727Z" fill="#FF7C06"/>
<path d="M139.398 36.9727H133.926V19.5547H139.398V36.9727Z" fill="#FF7C06"/>
<path d="M159.767 36.9727H153.873L148.187 26.9755V36.9679H143.105V19.5547H148.892L154.651 29.4229V19.5547H159.757L159.767 36.9727Z" fill="#FF7C06"/>
<path d="M180.116 24.2162L175.256 25.5979C175.109 24.7428 174.735 24.0973 174.132 23.6613C173.478 23.2102 172.699 22.9811 171.908 23.0074C170.474 23.0074 169.436 23.4884 168.795 24.4504C168.154 25.4124 167.832 26.5929 167.83 27.9919C167.83 29.8341 168.225 31.1744 169.014 32.0127C169.804 32.8511 170.818 33.2702 172.057 33.2702C172.82 33.28 173.57 33.0701 174.219 32.665C174.862 32.2626 175.226 31.6501 175.309 30.8275H172.104V27.3238H180.021V36.9704H175.939V35.7616C174.457 36.8819 172.731 37.4415 170.761 37.4404C169.788 37.4356 168.824 37.2563 167.914 36.9107C166.927 36.5371 166.007 36.0035 165.19 35.331C164.326 34.633 163.626 33.6794 163.089 32.4701C162.535 31.1836 162.258 29.7925 162.278 28.3895C162.256 26.7464 162.611 25.1204 163.316 23.6393C164.023 22.2056 165.121 21.0058 166.481 20.1812C167.897 19.2936 169.557 18.8498 171.461 18.8498C172.675 18.8425 173.883 19.026 175.041 19.3937C176.209 19.7726 177.288 20.3894 178.211 21.2061C179.135 21.9897 179.8 23.04 180.116 24.2162Z" fill="#FF7C06"/>
<path d="M70.4492 39.6826H80.2888C82.0983 39.6826 83.4789 40.1709 84.4304 41.1476C85.3818 42.1243 85.8576 43.4342 85.8576 45.0773C85.8576 46.7791 85.3663 48.1655 84.3837 49.2365C83.4011 50.3075 82.005 50.8424 80.1954 50.8414H75.6476V56.2329H70.4492V39.6826ZM75.6476 43.1518V47.3707H78.5939C78.8733 47.3839 79.1526 47.341 79.4155 47.2444C79.6784 47.1478 79.9197 46.9994 80.1253 46.8079C80.5134 46.4328 80.7069 45.9088 80.7059 45.2361C80.7203 44.6975 80.5387 44.1724 80.1954 43.7601C79.8545 43.353 79.3145 43.1502 78.5705 43.1502L75.6476 43.1518Z" fill="#FF7C06"/>
<path d="M87.3711 39.6828H96.5834C97.287 39.6787 97.9885 39.7616 98.6721 39.9295C99.3263 40.0958 99.9492 40.3687 100.516 40.7375C101.123 41.1438 101.602 41.717 101.897 42.3895C102.255 43.2041 102.43 44.0889 102.407 44.98C102.407 46.0897 102.144 47.0156 101.618 47.7575C101.092 48.4994 100.234 49.0967 99.0425 49.5494L103.058 56.2299H97.2558L94.0776 50.3967H92.5695V56.2331H87.3711V39.6828ZM92.5695 46.9951H94.7298C95.1224 47.0009 95.5147 46.9698 95.9017 46.9024C96.2538 46.8197 96.5708 46.6265 96.8075 46.3507C97.0924 46.0457 97.2371 45.6213 97.2371 45.0743C97.2527 44.7041 97.1722 44.3361 97.0036 44.007C96.8548 43.7381 96.6167 43.531 96.3313 43.4223C96.0781 43.316 95.8132 43.2411 95.5422 43.1991C95.2576 43.1646 94.9712 43.1488 94.6846 43.1519H92.5726L92.5695 46.9951Z" fill="#FF7C06"/>
<path d="M121.692 47.8152C121.696 48.932 121.512 50.0413 121.147 51.0957C120.787 52.1356 120.249 53.1034 119.557 53.955C118.806 54.8558 117.851 55.5596 116.772 56.0063C115.523 56.5315 114.18 56.7905 112.827 56.7671C110.182 56.7671 108.067 55.9743 106.481 54.3888C104.896 52.8033 104.103 50.6587 104.102 47.9551C104.098 46.8566 104.27 45.7647 104.612 44.7218C104.954 43.6926 105.477 42.7341 106.156 41.8924C106.902 40.9929 107.854 40.2914 108.93 39.8489C110.089 39.3418 111.419 39.0882 112.92 39.0882C114.247 39.0671 115.565 39.314 116.796 39.8144C117.854 40.2323 118.799 40.8957 119.557 41.7509C120.252 42.5699 120.791 43.5115 121.147 44.5284C121.515 45.5842 121.699 46.6961 121.692 47.8152ZM109.3 48.0023C109.3 49.4568 109.611 50.5817 110.234 51.3771C110.856 52.1725 111.75 52.5712 112.914 52.5733C113.392 52.5778 113.866 52.4762 114.301 52.2758C114.736 52.0753 115.122 51.7809 115.432 51.4132C116.12 50.6399 116.464 49.3939 116.464 47.6753C116.464 46.1443 116.124 45.023 115.443 44.3115C115.119 43.9652 114.726 43.6915 114.29 43.5079C113.855 43.3244 113.386 43.2351 112.914 43.2458C111.815 43.2458 110.937 43.6597 110.281 44.4876C109.624 45.3154 109.297 46.487 109.3 48.0023Z" fill="#FF7C06"/>
<path d="M135.36 43.7616H131.206V56.2298H126.031V43.7616H121.854V39.6826H135.36V43.7616Z" fill="#FF7C06"/>
<path d="M153.134 47.815C153.138 48.9318 152.954 50.0411 152.589 51.0956C152.229 52.1353 151.692 53.1031 151 53.9548C150.249 54.8553 149.294 55.559 148.216 56.0061C146.966 56.531 145.623 56.79 144.27 56.7669C141.624 56.7669 139.509 55.9741 137.923 54.3886C136.338 52.8031 135.545 50.6586 135.545 47.9549C135.541 46.8564 135.713 45.7643 136.055 44.7216C136.396 43.6918 136.919 42.7332 137.599 41.8922C138.345 40.9932 139.296 40.2917 140.371 39.8488C141.636 39.3177 142.995 39.0555 144.364 39.0786C145.69 39.0575 147.008 39.3044 148.239 39.8048C149.298 40.2254 150.244 40.8921 151 41.7507C151.695 42.5698 152.233 43.5114 152.589 44.5282C152.956 45.5841 153.141 46.696 153.134 47.815ZM140.743 48.0021C140.743 49.4566 141.055 50.5815 141.677 51.3769C142.3 52.1723 143.193 52.571 144.357 52.5731C144.835 52.5781 145.309 52.4768 145.744 52.2763C146.179 52.0758 146.565 51.7811 146.874 51.4131C147.564 50.6397 147.909 49.3937 147.907 47.6751C147.907 46.1441 147.567 45.0229 146.886 44.3113C146.562 43.9651 146.169 43.6914 145.734 43.5079C145.298 43.3243 144.829 43.235 144.357 43.2456C143.259 43.2456 142.38 43.6595 141.722 44.4874C141.065 45.3152 140.738 46.4868 140.743 48.0021Z" fill="#FF7C06"/>
<path d="M167.174 49.8065L171.605 51.9679C169.92 55.1525 167.259 56.7448 163.623 56.7448C162.536 56.7558 161.457 56.5754 160.432 56.2119C159.547 55.9079 158.728 55.4345 158.02 54.8177C157.374 54.2358 156.822 53.556 156.384 52.8025C155.949 52.0739 155.625 51.284 155.42 50.4589C155.228 49.6687 155.131 48.8581 155.131 48.0445C155.131 45.4352 155.935 43.2869 157.543 41.5998C159.152 39.9126 161.186 39.0722 163.646 39.0785C164.641 39.0699 165.631 39.2162 166.581 39.5123C167.411 39.7609 168.195 40.1453 168.902 40.6504C169.49 41.0783 170.031 41.5695 170.514 42.1154C170.933 42.593 171.291 43.121 171.582 43.6872L167.243 45.8706L167.034 45.399C166.881 45.1035 166.769 44.8939 166.698 44.7703C166.57 44.5746 166.431 44.3867 166.281 44.2075C166.109 43.9875 165.906 43.7951 165.677 43.6369C165.436 43.4904 165.179 43.3723 164.911 43.2848C164.578 43.1757 164.228 43.1226 163.878 43.1276C162.718 43.1276 161.848 43.5615 161.268 44.4292C160.688 45.2968 160.398 46.3552 160.398 47.6043C160.398 49.3701 160.727 50.6318 161.384 51.3894C161.686 51.7531 162.064 52.0439 162.492 52.2406C162.919 52.4372 163.385 52.5347 163.854 52.5259C164.319 52.5358 164.781 52.453 165.213 52.2823C165.59 52.1317 165.921 51.886 166.177 51.5686C166.391 51.303 166.585 51.0207 166.756 50.7245C166.916 50.4287 167.056 50.1219 167.174 49.8065Z" fill="#FF7C06"/>
<path d="M190.101 47.8149C190.105 48.9317 189.92 50.041 189.556 51.0954C189.194 52.136 188.654 53.104 187.959 53.9547C187.21 54.8547 186.257 55.5585 185.181 56.006C183.932 56.5311 182.59 56.7901 181.237 56.7668C178.591 56.7668 176.474 55.974 174.885 54.3885C173.297 52.803 172.506 50.6585 172.512 47.9548C172.506 46.8565 172.677 45.7645 173.018 44.7215C173.359 43.6921 173.881 42.7335 174.56 41.8921C175.306 40.9927 176.258 40.2911 177.334 39.8487C178.497 39.3352 179.828 39.0784 181.329 39.0784C182.656 39.0569 183.973 39.3038 185.204 39.8047C186.261 40.2257 187.205 40.8924 187.959 41.7506C188.655 42.5692 189.194 43.511 189.55 44.5281C189.919 45.5836 190.106 46.6955 190.101 47.8149ZM177.709 48.002C177.709 49.4565 178.02 50.5814 178.643 51.3768C179.265 52.1722 180.161 52.5709 181.329 52.573C181.807 52.5775 182.28 52.4759 182.716 52.2755C183.151 52.0751 183.537 51.7806 183.847 51.413C184.535 50.6396 184.879 49.3936 184.879 47.675C184.879 46.144 184.539 45.0228 183.858 44.3112C183.534 43.965 183.141 43.6912 182.705 43.5076C182.27 43.3241 181.801 43.2348 181.329 43.2455C180.824 43.2282 180.322 43.3317 179.865 43.5475C179.407 43.7634 179.006 44.0853 178.695 44.4873C178.039 45.3162 177.71 46.4878 177.709 48.002Z" fill="#FF7C06"/>
<path d="M204 56.2298H192.49V39.6826H197.664V52.058H204V56.2298Z" fill="#FF7C06"/>
<path d="M62.423 23.4375C62.2411 16.2071 58.3422 12.0453 55.0565 9.82382C52.8373 8.32748 50.3584 7.2677 47.75 6.70017C47.4595 6.64773 47.1603 6.71388 46.9181 6.88407C46.6759 7.05426 46.5105 7.31459 46.4582 7.60787C46.4057 7.90144 46.4706 8.20406 46.6388 8.44933C46.8069 8.6946 47.0646 8.86248 47.3552 8.91613C49.6833 9.44262 51.8948 10.4002 53.8775 11.7403C54.3251 12.0471 54.7472 12.3687 55.1511 12.7031C53.0197 11.7183 50.6995 11.2202 48.3558 11.2442C48.1739 11.2442 47.9919 11.2442 47.81 11.2552C40.8146 11.4481 36.7938 15.2608 33.2188 15.2608C29.6438 15.2608 25.623 11.4481 18.6276 11.2552C18.4457 11.2552 18.2637 11.2442 18.0818 11.2442C15.7467 11.2204 13.4349 11.7153 11.3102 12.6939C11.708 12.3632 12.1277 12.0459 12.5692 11.7421C14.5503 10.4002 16.7615 9.44251 19.0897 8.91796C19.3806 8.86515 19.6388 8.6979 19.8077 8.45295C19.9765 8.20799 20.0422 7.90537 19.9903 7.61154C19.9644 7.4659 19.9104 7.32683 19.8312 7.20229C19.7521 7.07775 19.6495 6.97018 19.5292 6.88571C19.4089 6.80125 19.2733 6.74155 19.1301 6.71002C18.987 6.6785 18.8391 6.67578 18.6949 6.702C16.0869 7.26908 13.6085 8.3289 11.3902 9.82566C8.16632 12.0085 4.35114 16.0528 4.03821 23.0332C4.01274 23.3621 4 23.6965 4 24.0328C4 31.0978 9.71823 36.8251 18.0818 36.8251C18.2637 36.8251 18.4457 36.8251 18.6276 36.8159C23.9037 36.6689 27.4878 34.4658 30.4534 33.3909L27.5424 41.2515C27.4795 41.4219 27.4584 41.6052 27.4809 41.7857C27.5034 41.9662 27.5688 42.1384 27.6716 42.2878C27.7735 42.4364 27.9094 42.5579 28.0678 42.642C28.2262 42.7261 28.4023 42.7704 28.5813 42.7711H37.2941C37.5896 42.7706 37.8728 42.6517 38.0816 42.4405C38.2903 42.2293 38.4076 41.9431 38.4076 41.6447C38.4076 41.3463 38.2903 41.0601 38.0816 40.8489C37.8728 40.6377 37.5896 40.5188 37.2941 40.5183H30.2005L33.046 32.8158C33.1005 32.8158 33.1551 32.8158 33.2097 32.8158C36.7847 32.8158 40.8055 36.6285 47.7991 36.8232C47.981 36.8232 48.1629 36.8324 48.3449 36.8324C56.7139 36.8324 62.4285 31.1051 62.4285 24.0401C62.4358 23.8325 62.4303 23.6341 62.423 23.4375ZM19.0661 29.1188C14.7142 29.1188 11.6758 27.0278 11.6758 24.0328C11.6758 21.0377 14.7142 18.9486 19.0661 18.9486C23.5981 18.9486 27.4351 21.2766 27.4351 24.0328C27.4351 26.789 23.5981 29.1188 19.0661 29.1188ZM47.3533 29.1188C42.8213 29.1188 38.9843 26.789 38.9843 24.0328C38.9843 21.2766 42.805 18.9486 47.3533 18.9486C51.7052 18.9486 54.7435 21.0396 54.7435 24.0328C54.7435 27.026 51.7052 29.1188 47.3533 29.1188Z" fill="#FF7C06"/>
<path d="M21.9279 25.6942C22.8362 25.6942 23.5726 24.9505 23.5726 24.0331C23.5726 23.1157 22.8362 22.3721 21.9279 22.3721C21.0196 22.3721 20.2832 23.1157 20.2832 24.0331C20.2832 24.9505 21.0196 25.6942 21.9279 25.6942Z" fill="#FF7C06"/>
<path d="M50.5959 25.6942C51.5042 25.6942 52.2406 24.9505 52.2406 24.0331C52.2406 23.1157 51.5042 22.3721 50.5959 22.3721C49.6875 22.3721 48.9512 23.1157 48.9512 24.0331C48.9512 24.9505 49.6875 25.6942 50.5959 25.6942Z" fill="#FF7C06"/>
<path d="M45.4157 43.2343C40.6163 47.9327 28.6194 47.1444 28.4721 47.1334C28.1771 47.1127 27.8861 47.2109 27.6627 47.4065C27.4393 47.6021 27.3018 47.8792 27.2804 48.177C27.2695 48.3252 27.2877 48.474 27.334 48.615C27.3803 48.756 27.4538 48.8864 27.5502 48.9986C27.6466 49.1108 27.764 49.2026 27.8957 49.2688C28.0273 49.335 28.1707 49.3742 28.3174 49.3842C28.4503 49.3842 29.329 49.4522 30.6589 49.4522C34.6779 49.4522 42.8213 48.9139 46.9676 44.8586C47.1794 44.6506 47.3009 44.3663 47.3053 44.0679C47.3097 43.7696 47.1968 43.4817 46.9913 43.2674C46.8901 43.1604 46.7691 43.0747 46.6351 43.0151C46.5011 42.9555 46.3567 42.9232 46.2103 42.9202C46.0639 42.9171 45.9183 42.9433 45.782 42.9972C45.6456 43.0511 45.5211 43.1317 45.4157 43.2343Z" fill="#FF7C06"/>
</g>
<defs>
<filter id="filter0_d_166_1389" x="0" y="0" width="208" height="64.7686" filterUnits="userSpaceOnUse" color-interpolation-filters="sRGB">
<feFlood flood-opacity="0" result="BackgroundImageFix"/>
<feColorMatrix in="SourceAlpha" type="matrix" values="0 0 0 0 0 0 0 0 0 0 0 0 0 0 0 0 0 0 127 0" result="hardAlpha"/>
<feOffset dy="4"/>
<feGaussianBlur stdDeviation="2"/>
<feComposite in2="hardAlpha" operator="out"/>
<feColorMatrix type="matrix" values="0 0 0 0 0 0 0 0 0 0 0 0 0 0 0 0 0 0 0.1 0"/>
<feBlend mode="normal" in2="BackgroundImageFix" result="effect1_dropShadow_166_1389"/>
<feBlend mode="normal" in="SourceGraphic" in2="effect1_dropShadow_166_1389" result="shape"/>
</filter>
</defs>
</svg>
