<svg width="11" height="10" viewBox="0 0 11 10" fill="none" xmlns="http://www.w3.org/2000/svg">
<path d="M10.99 5.85L10.3951 1.05C10.3579 0.760542 10.2178 0.494551 10.0008 0.301435C9.78382 0.10832 9.50471 0.00120892 9.21533 0H0.793143C0.582789 0 0.381049 0.0842854 0.232306 0.234315C0.083563 0.384344 0 0.587827 0 0.8V5.2C0 5.41217 0.083563 5.61566 0.232306 5.76569C0.381049 5.91571 0.582789 6 0.793143 6H2.92472L4.79852 9.78C4.83266 9.84585 4.8839 9.90111 4.94676 9.93986C5.00963 9.97861 5.08176 9.9994 5.15543 10C5.68091 9.99868 6.1845 9.78754 6.55608 9.41276C6.92765 9.03797 7.13698 8.53003 7.13829 8V7.2H9.81019C9.97918 7.20073 10.1464 7.16498 10.3005 7.09517C10.4547 7.02535 10.5923 6.92307 10.704 6.79521C10.8157 6.66734 10.8991 6.51685 10.9484 6.35382C10.9977 6.19079 11.0119 6.01901 10.99 5.85ZM2.776 5.2H0.793143V0.8H2.776V5.2Z" fill="#EE0000"/>
</svg>
