<svg width="178" height="60" viewBox="0 0 178 60" fill="none" xmlns="http://www.w3.org/2000/svg">
<rect x="2" y="17" width="174" height="37" fill="white"/>
<rect x="174" y="54" width="2" height="2" fill="black"/>
<rect width="2" height="2" transform="matrix(-1 0 0 1 4 54)" fill="black"/>
<rect width="2" height="2" transform="matrix(-1 0 0 1 4 52)" fill="#5A5A5A"/>
<rect width="2" height="2" transform="matrix(-1 0 0 1 4 50)" fill="#AFAFAF"/>
<rect width="2" height="2" transform="matrix(-1 0 0 1 174 54)" fill="#5A5A5A"/>
<rect width="2" height="2" transform="matrix(-1 0 0 1 176 52)" fill="#5A5A5A"/>
<rect width="2" height="2" transform="matrix(-1 0 0 1 174 52)" fill="#AFAFAF"/>
<rect width="2" height="2" transform="matrix(-1 0 0 1 176 50)" fill="#AFAFAF"/>
<rect width="2" height="2" transform="matrix(-1 0 0 1 6 54)" fill="#5A5A5A"/>
<rect width="2" height="2" transform="matrix(-1 0 0 1 6 52)" fill="#AFAFAF"/>
<rect width="166" height="2" transform="matrix(-1 0 0 1 172 56)" fill="#5A5A5A"/>
<rect width="166" height="2" transform="matrix(-1 0 0 1 172 54)" fill="#AFAFAF"/>
<rect x="174" y="15" width="2" height="2" fill="black"/>
<rect width="2" height="2" transform="matrix(-1 0 0 1 4 15)" fill="black"/>
<rect x="172" y="56" width="2" height="2" fill="black"/>
<rect width="2" height="2" transform="matrix(-1 0 0 1 6 56)" fill="black"/>
<rect x="6" y="58" width="166" height="2" fill="black"/>
<rect x="176" y="17" width="2" height="37" fill="black"/>
<rect width="2" height="37" transform="matrix(-1 0 0 1 2 17)" fill="black"/>
<path fill-rule="evenodd" clip-rule="evenodd" d="M170 0H8V2H6V4H4V47H6V49H8V51H170V49H172V47H174V4H172V2H170V0ZM170 2V4H172V47H170V49H8V47H6V4H8V2H170Z" fill="black"/>
<path fill-rule="evenodd" clip-rule="evenodd" d="M170 2H8V4H6V46H172V4H170V2Z" fill="#DDD400"/>
<rect x="6" y="4" width="2" height="2" fill="#FFF8B8"/>
<rect x="172" y="4" width="2" height="2" transform="rotate(90 172 4)" fill="#FFF8B8"/>
<rect x="172" y="41" width="2" height="2" transform="rotate(-180 172 41)" fill="#FFF8B8"/>
<rect x="6" y="41" width="2" height="2" transform="rotate(-90 6 41)" fill="#FFF8B8"/>
<rect x="6" y="47" width="6" height="2" transform="rotate(-90 6 47)" fill="#B4A200"/>
<rect x="8" y="4" width="2" height="2" fill="#BBA800"/>
<rect x="172" y="6" width="2" height="2" transform="rotate(90 172 6)" fill="#BBA800"/>
<rect x="170" y="41" width="2" height="2" transform="rotate(-180 170 41)" fill="#BBA800"/>
<rect x="6" y="39" width="2" height="2" transform="rotate(-90 6 39)" fill="#BBA800"/>
<rect x="6" y="6" width="2" height="2" fill="#BBA800"/>
<rect x="170" y="4" width="2" height="2" transform="rotate(90 170 4)" fill="#BBA800"/>
<rect x="172" y="39" width="2" height="2" transform="rotate(-180 172 39)" fill="#BBA800"/>
<rect x="8" y="41" width="2" height="2" transform="rotate(-90 8 41)" fill="#BBA800"/>
<rect x="172" y="47" width="2" height="6" transform="rotate(-180 172 47)" fill="#B4A200"/>
<rect x="170" y="49" width="162" height="5.99999" transform="rotate(-180 170 49)" fill="#B4A200"/>
<rect x="8" y="2" width="162" height="2" fill="#FFF8B8"/>
<rect x="8" y="41" width="162" height="2" fill="#FFF8B8"/>
<rect x="16" y="49" width="6" height="4" transform="rotate(-90 16 49)" fill="#FFED4F"/>
<rect width="6" height="4" transform="matrix(-1.31134e-07 -1 -1 1.31134e-07 158 49)" fill="#FFED4F"/>
<rect x="21" y="49" width="6" height="3" transform="rotate(-90 21 49)" fill="#FFED4F"/>
<rect width="6" height="3" transform="matrix(-1.31134e-07 -1 -1 1.31134e-07 153 49)" fill="#FFED4F"/>
<rect x="25" y="49" width="6" height="2" transform="rotate(-90 25 49)" fill="#FFED4F"/>
<rect width="6" height="2" transform="matrix(-1.31134e-07 -1 -1 1.31134e-07 149 49)" fill="#FFED4F"/>
<rect x="28" y="49" width="6" height="0.999999" transform="rotate(-90 28 49)" fill="#FFED4F"/>
<rect width="6" height="0.999999" transform="matrix(-1.31134e-07 -1 -1 1.31134e-07 146 49)" fill="#FFED4F"/>
<path d="M44.6 32H35.78H34.52H33.26V30.74V29.48V28.22V25.7V24.44V23.18V21.92V20.66V19.4V18.14V16.88H34.52H35.78V29.48H44.6V26.96H47.12V29.48V32H44.6ZM55.9467 19.4H54.6867H53.4267V20.66H52.1667V21.92V23.18V25.7V26.96V28.22H53.4267V29.48H54.6867H55.9467H57.2067H58.4667H59.7267V28.22H60.9867V26.96V25.7V21.92V20.66H59.7267V19.4H58.4667H57.2067H55.9467ZM63.5067 25.7V29.48H62.2467V30.74H60.9867V32H57.2067H55.9467H52.1667V30.74H50.9067V29.48H49.6467V26.96V25.7V24.44V23.18V19.4H50.9067V18.14H52.1667V16.88H54.6867H55.9467H57.2067H60.9867V18.14H62.2467V19.4H63.5067V21.92V25.7ZM66.0334 19.4V18.14V16.88H67.2934H68.5534H72.3334H78.6334V19.4H77.3734H76.1134H73.5934V25.7V32H71.0734V25.7V19.4H69.8134H66.0334ZM82.4202 19.4V18.14V16.88H83.6802H84.9402H88.7202H95.0202V19.4H93.7602H92.5002H89.9802V25.7V32H87.4602V25.7V19.4H86.2002H82.4202ZM98.8069 19.4V18.14V16.88H100.067H101.327H105.107H112.667V19.4H111.407H110.147H107.627H106.367H105.107H102.587H101.327V23.18H110.147V25.7H101.327V29.48H102.587H105.107H106.367H107.627H110.147H111.407H112.667V32H105.107H101.327H100.067H98.8069V30.74V29.48V28.22V25.7V24.44V23.18V21.92V20.66V19.4ZM115.194 19.4V18.14V16.88H116.454H117.714H121.494H126.534V18.14H127.794V19.4H129.054V21.92V23.18V24.44H127.794V25.7H126.534V26.96V28.22H127.794V29.48H129.054V30.74V32H126.534V30.74H125.274V29.48H124.014V28.22H122.754V26.96H121.494H117.714V32H115.194V26.96V25.7V24.44V23.18V21.92V20.66V19.4ZM121.494 19.4H118.974H117.714V23.18V24.44H118.974H120.234H121.494H122.754H124.014H125.274V23.18H126.534V21.92V20.66H125.274V19.4H124.014H122.754H121.494ZM144.18 18.14V19.4V20.66V21.92H142.92V23.18H141.66V24.44H140.4V25.7H139.14V26.96V32H136.62V26.96V25.7H135.36V24.44H134.1V23.18H132.84V21.92H131.58V20.66V19.4V18.14V16.88H132.84H134.1V18.14V19.4V20.66H135.36V21.92H136.62V23.18H137.88H139.14V21.92H140.4V20.66H141.66V19.4V18.14V16.88H142.92H144.18V18.14Z" fill="#393939"/>
<path d="M44.6 30H35.78H34.52H33.26V28.74V27.48V26.22V23.7V22.44V21.18V19.92V18.66V17.4V16.14V14.88H34.52H35.78V27.48H44.6V24.96H47.12V27.48V30H44.6ZM55.9467 17.4H54.6867H53.4267V18.66H52.1667V19.92V21.18V23.7V24.96V26.22H53.4267V27.48H54.6867H55.9467H57.2067H58.4667H59.7267V26.22H60.9867V24.96V23.7V19.92V18.66H59.7267V17.4H58.4667H57.2067H55.9467ZM63.5067 23.7V27.48H62.2467V28.74H60.9867V30H57.2067H55.9467H52.1667V28.74H50.9067V27.48H49.6467V24.96V23.7V22.44V21.18V17.4H50.9067V16.14H52.1667V14.88H54.6867H55.9467H57.2067H60.9867V16.14H62.2467V17.4H63.5067V19.92V23.7ZM66.0334 17.4V16.14V14.88H67.2934H68.5534H72.3334H78.6334V17.4H77.3734H76.1134H73.5934V23.7V30H71.0734V23.7V17.4H69.8134H66.0334ZM82.4202 17.4V16.14V14.88H83.6802H84.9402H88.7202H95.0202V17.4H93.7602H92.5002H89.9802V23.7V30H87.4602V23.7V17.4H86.2002H82.4202ZM98.8069 17.4V16.14V14.88H100.067H101.327H105.107H112.667V17.4H111.407H110.147H107.627H106.367H105.107H102.587H101.327V21.18H110.147V23.7H101.327V27.48H102.587H105.107H106.367H107.627H110.147H111.407H112.667V30H105.107H101.327H100.067H98.8069V28.74V27.48V26.22V23.7V22.44V21.18V19.92V18.66V17.4ZM115.194 17.4V16.14V14.88H116.454H117.714H121.494H126.534V16.14H127.794V17.4H129.054V19.92V21.18V22.44H127.794V23.7H126.534V24.96V26.22H127.794V27.48H129.054V28.74V30H126.534V28.74H125.274V27.48H124.014V26.22H122.754V24.96H121.494H117.714V30H115.194V24.96V23.7V22.44V21.18V19.92V18.66V17.4ZM121.494 17.4H118.974H117.714V21.18V22.44H118.974H120.234H121.494H122.754H124.014H125.274V21.18H126.534V19.92V18.66H125.274V17.4H124.014H122.754H121.494ZM144.18 16.14V17.4V18.66V19.92H142.92V21.18H141.66V22.44H140.4V23.7H139.14V24.96V30H136.62V24.96V23.7H135.36V22.44H134.1V21.18H132.84V19.92H131.58V18.66V17.4V16.14V14.88H132.84H134.1V16.14V17.4V18.66H135.36V19.92H136.62V21.18H137.88H139.14V19.92H140.4V18.66H141.66V17.4V16.14V14.88H142.92H144.18V16.14Z" fill="white"/>
</svg>
