<svg width="64" height="64" viewBox="0 0 64 64" fill="none" xmlns="http://www.w3.org/2000/svg">
<path d="M64 32C64 49.6731 49.6731 64 32 64C14.3269 64 0 49.6731 0 32C0 14.3269 14.3269 0 32 0C49.6731 0 64 14.3269 64 32ZM6.13666 32C6.13666 46.2839 17.7161 57.8633 32 57.8633C46.2839 57.8633 57.8633 46.2839 57.8633 32C57.8633 17.7161 46.2839 6.13666 32 6.13666C17.7161 6.13666 6.13666 17.7161 6.13666 32Z" fill="#C6C6C6"/>
<path d="M20.0412 5.65557C19.3408 4.11251 20.0205 2.27857 21.6235 1.72906C27.1738 -0.173603 33.1614 -0.519851 38.9281 0.758978C45.6969 2.26004 51.795 5.91885 56.3049 11.1848C60.8148 16.4508 63.4924 23.039 63.9348 29.9581C64.3117 35.8528 63.0489 41.716 60.3154 46.9078C59.5259 48.4072 57.6093 48.7968 56.1923 47.8674C54.7753 46.938 54.3984 45.0422 55.1535 43.5252C57.1768 39.4605 58.1027 34.9168 57.8106 30.3497C57.4531 24.7575 55.2889 19.4327 51.6439 15.1766C47.9989 10.9204 43.0702 7.96329 37.5995 6.75009C33.1316 5.75928 28.4996 5.97544 24.1721 7.34968C22.557 7.86258 20.7417 7.19862 20.0412 5.65557Z" fill="url(#paint0_linear_1422_1134)"/>
<defs>
<linearGradient id="paint0_linear_1422_1134" x1="32" y1="0" x2="32" y2="64" gradientUnits="userSpaceOnUse">
<stop stop-color="#FF7C06"/>
<stop offset="1" stop-color="#E45C00"/>
</linearGradient>
</defs>
</svg>
