<svg width="83" height="82" viewBox="0 0 83 82" fill="none" xmlns="http://www.w3.org/2000/svg">
<mask id="path-1-outside-1_3085_14615" maskUnits="userSpaceOnUse" x="0.234375" y="0.579102" width="83" height="82" fill="black">
<rect fill="white" x="0.234375" y="0.579102" width="83" height="82"/>
<path fill-rule="evenodd" clip-rule="evenodd" d="M74.8435 2.57907H8.12171V4.54148H6.15931V6.50388H4.1969V8.46629H2.2345V73.8798H4.1969V75.8422H6.15931V77.8046H8.12171V79.767H74.8435V77.8046H76.8059V75.8422H78.7683V73.8798H80.7307V8.46629H78.7683V6.50388H76.8059V4.54148H74.8435V2.57907Z"/>
</mask>
<path fill-rule="evenodd" clip-rule="evenodd" d="M74.8435 2.57907H8.12171V4.54148H6.15931V6.50388H4.1969V8.46629H2.2345V73.8798H4.1969V75.8422H6.15931V77.8046H8.12171V79.767H74.8435V77.8046H76.8059V75.8422H78.7683V73.8798H80.7307V8.46629H78.7683V6.50388H76.8059V4.54148H74.8435V2.57907Z" fill="white"/>
<path d="M8.12171 2.57907V0.579069H6.12171V2.57907H8.12171ZM74.8435 2.57907H76.8435V0.579069H74.8435V2.57907ZM8.12171 4.54148V6.54148H10.1217V4.54148H8.12171ZM6.15931 4.54148V2.54148H4.15931V4.54148H6.15931ZM6.15931 6.50388V8.50388H8.15931V6.50388H6.15931ZM4.1969 6.50388V4.50388H2.1969V6.50388H4.1969ZM4.1969 8.46629V10.4663H6.1969V8.46629H4.1969ZM2.2345 8.46629V6.46629H0.234496V8.46629H2.2345ZM2.2345 73.8798H0.234496V75.8798H2.2345V73.8798ZM4.1969 73.8798H6.1969V71.8798H4.1969V73.8798ZM4.1969 75.8422H2.1969V77.8422H4.1969V75.8422ZM6.15931 75.8422H8.15931V73.8422H6.15931V75.8422ZM6.15931 77.8046H4.15931V79.8046H6.15931V77.8046ZM8.12171 77.8046H10.1217V75.8046H8.12171V77.8046ZM8.12171 79.767H6.12171V81.767H8.12171V79.767ZM74.8435 79.767V81.767H76.8435V79.767H74.8435ZM74.8435 77.8046V75.8046H72.8435V77.8046H74.8435ZM76.8059 77.8046V79.8046H78.8059V77.8046H76.8059ZM76.8059 75.8422V73.8422H74.8059V75.8422H76.8059ZM78.7683 75.8422V77.8422H80.7683V75.8422H78.7683ZM78.7683 73.8798V71.8798H76.7683V73.8798H78.7683ZM80.7307 73.8798V75.8798H82.7307V73.8798H80.7307ZM80.7307 8.46629H82.7307V6.46629H80.7307V8.46629ZM78.7683 8.46629H76.7683V10.4663H78.7683V8.46629ZM78.7683 6.50388H80.7683V4.50388H78.7683V6.50388ZM76.8059 6.50388H74.8059V8.50388H76.8059V6.50388ZM76.8059 4.54148H78.8059V2.54148H76.8059V4.54148ZM74.8435 4.54148H72.8435V6.54148H74.8435V4.54148ZM8.12171 4.57907H74.8435V0.579069H8.12171V4.57907ZM10.1217 4.54148V2.57907H6.12171V4.54148H10.1217ZM8.12171 2.54148H6.15931V6.54148H8.12171V2.54148ZM4.15931 4.54148V6.50388H8.15931V4.54148H4.15931ZM6.15931 4.50388H4.1969V8.50388H6.15931V4.50388ZM2.1969 6.50388V8.46629H6.1969V6.50388H2.1969ZM4.1969 6.46629H2.2345V10.4663H4.1969V6.46629ZM0.234496 8.46629V73.8798H4.2345V8.46629H0.234496ZM2.2345 75.8798H4.1969V71.8798H2.2345V75.8798ZM2.1969 73.8798V75.8422H6.1969V73.8798H2.1969ZM4.1969 77.8422H6.15931V73.8422H4.1969V77.8422ZM4.15931 75.8422V77.8046H8.15931V75.8422H4.15931ZM6.15931 79.8046H8.12171V75.8046H6.15931V79.8046ZM10.1217 79.767V77.8046H6.12171V79.767H10.1217ZM74.8435 77.767H8.12171V81.767H74.8435V77.767ZM72.8435 77.8046V79.767H76.8435V77.8046H72.8435ZM74.8435 79.8046H76.8059V75.8046H74.8435V79.8046ZM78.8059 77.8046V75.8422H74.8059V77.8046H78.8059ZM76.8059 77.8422H78.7683V73.8422H76.8059V77.8422ZM80.7683 75.8422V73.8798H76.7683V75.8422H80.7683ZM78.7683 75.8798H80.7307V71.8798H78.7683V75.8798ZM82.7307 73.8798V8.46629H78.7307V73.8798H82.7307ZM80.7307 6.46629H78.7683V10.4663H80.7307V6.46629ZM80.7683 8.46629V6.50388H76.7683V8.46629H80.7683ZM78.7683 4.50388H76.8059V8.50388H78.7683V4.50388ZM78.8059 6.50388V4.54148H74.8059V6.50388H78.8059ZM76.8059 2.54148H74.8435V6.54148H76.8059V2.54148ZM72.8435 2.57907V4.54148H76.8435V2.57907H72.8435Z" fill="#FF7C06" mask="url(#path-1-outside-1_3085_14615)"/>
<path d="M65.0404 16.9697L44.6211 32.1354L48.3971 23.1879L65.0404 16.9697Z" fill="#E2761B" stroke="#E2761B" stroke-linecap="round" stroke-linejoin="round"/>
<path d="M17.9023 16.9697L38.1575 32.2791L34.5661 23.1879L17.9023 16.9697Z" fill="#E4761B" stroke="#E4761B" stroke-linecap="round" stroke-linejoin="round"/>
<path d="M57.6922 52.124L52.2539 60.4559L63.8898 63.6573L67.2349 52.3087L57.6922 52.124Z" fill="#E4761B" stroke="#E4761B" stroke-linecap="round" stroke-linejoin="round"/>
<path d="M15.7461 52.3087L19.0706 63.6573L30.7066 60.4559L25.2683 52.124L15.7461 52.3087Z" fill="#E4761B" stroke="#E4761B" stroke-linecap="round" stroke-linejoin="round"/>
<path d="M30.0511 38.0458L26.8086 42.9506L38.3624 43.4636L37.952 31.0479L30.0511 38.0458Z" fill="#E4761B" stroke="#E4761B" stroke-linecap="round" stroke-linejoin="round"/>
<path d="M52.8914 38.0459L44.8879 30.9043L44.6211 43.4637L56.1544 42.9507L52.8914 38.0459Z" fill="#E4761B" stroke="#E4761B" stroke-linecap="round" stroke-linejoin="round"/>
<path d="M30.707 60.4557L37.6434 57.0696L31.651 52.3906L30.707 60.4557Z" fill="#E4761B" stroke="#E4761B" stroke-linecap="round" stroke-linejoin="round"/>
<path d="M45.2969 57.0696L52.2538 60.4557L51.2893 52.3906L45.2969 57.0696Z" fill="#E4761B" stroke="#E4761B" stroke-linecap="round" stroke-linejoin="round"/>
<path d="M52.2538 60.4554L45.2969 57.0693L45.851 61.6047L45.7894 63.5132L52.2538 60.4554Z" fill="#D7C1B3" stroke="#D7C1B3" stroke-linecap="round" stroke-linejoin="round"/>
<path d="M30.707 60.4554L37.1714 63.5132L37.1304 61.6047L37.6434 57.0693L30.707 60.4554Z" fill="#D7C1B3" stroke="#D7C1B3" stroke-linecap="round" stroke-linejoin="round"/>
<path d="M37.2755 49.3941L31.4883 47.6907L35.5721 45.8232L37.2755 49.3941Z" fill="#233447" stroke="#233447" stroke-linecap="round" stroke-linejoin="round"/>
<path d="M45.668 49.3941L47.3713 45.8232L51.4757 47.6907L45.668 49.3941Z" fill="#233447" stroke="#233447" stroke-linecap="round" stroke-linejoin="round"/>
<path d="M30.7078 60.4549L31.6929 52.123L25.2695 52.3077L30.7078 60.4549Z" fill="#CD6116" stroke="#CD6116" stroke-linecap="round" stroke-linejoin="round"/>
<path d="M51.2695 52.123L52.2546 60.4549L57.6929 52.3077L51.2695 52.123Z" fill="#CD6116" stroke="#CD6116" stroke-linecap="round" stroke-linejoin="round"/>
<path d="M56.1544 42.9502L44.6211 43.4632L45.6882 49.3941L47.3915 45.8233L51.4959 47.6908L56.1544 42.9502Z" fill="#CD6116" stroke="#CD6116" stroke-linecap="round" stroke-linejoin="round"/>
<path d="M31.4876 47.6908L35.592 45.8233L37.2748 49.3941L38.3624 43.4632L26.8086 42.9502L31.4876 47.6908Z" fill="#CD6116" stroke="#CD6116" stroke-linecap="round" stroke-linejoin="round"/>
<path d="M26.8086 42.9502L31.6518 52.3903L31.4876 47.6908L26.8086 42.9502Z" fill="#E4751F" stroke="#E4751F" stroke-linecap="round" stroke-linejoin="round"/>
<path d="M51.4982 47.6908L51.293 52.3903L56.1567 42.9502L51.4982 47.6908Z" fill="#E4751F" stroke="#E4751F" stroke-linecap="round" stroke-linejoin="round"/>
<path d="M38.3611 43.4629L37.2734 49.3937L38.6279 56.3917L38.9357 47.1774L38.3611 43.4629Z" fill="#E4751F" stroke="#E4751F" stroke-linecap="round" stroke-linejoin="round"/>
<path d="M44.6205 43.4629L44.0664 47.1568L44.3127 56.3917L45.6876 49.3937L44.6205 43.4629Z" fill="#E4751F" stroke="#E4751F" stroke-linecap="round" stroke-linejoin="round"/>
<path d="M45.6875 49.3947L44.3125 56.3927L45.2975 57.0699L51.2899 52.3909L51.4952 47.6914L45.6875 49.3947Z" fill="#F6851B" stroke="#F6851B" stroke-linecap="round" stroke-linejoin="round"/>
<path d="M31.4883 47.6914L31.6525 52.3909L37.6449 57.0699L38.6299 56.3927L37.2755 49.3947L31.4883 47.6914Z" fill="#F6851B" stroke="#F6851B" stroke-linecap="round" stroke-linejoin="round"/>
<path d="M45.7906 63.5128L45.8522 61.6043L45.3391 61.1528H37.6024L37.1304 61.6043L37.1714 63.5128L30.707 60.4551L32.9644 62.302L37.5408 65.4829H45.4007L49.9976 62.302L52.255 60.4551L45.7906 63.5128Z" fill="#C0AD9E" stroke="#C0AD9E" stroke-linecap="round" stroke-linejoin="round"/>
<path d="M45.3005 57.0698L44.3155 56.3926H38.6309L37.6459 57.0698L37.1328 61.6051L37.6048 61.1537H45.3416L45.8546 61.6051L45.3005 57.0698Z" fill="#161616" stroke="#161616" stroke-linecap="round" stroke-linejoin="round"/>
<path d="M65.9009 33.1205L67.6452 24.7475L65.0389 16.9697L45.2969 31.6224L52.89 38.0457L63.6229 41.1856L66.0035 38.4151L64.9774 37.6763L66.6191 36.1782L65.3468 35.1932L66.9885 33.9413L65.9009 33.1205Z" fill="#763D16" stroke="#763D16" stroke-linecap="round" stroke-linejoin="round"/>
<path d="M15.3164 24.7475L17.0608 33.1205L15.9526 33.9413L17.5943 35.1932L16.3425 36.1782L17.9843 37.6763L16.9582 38.4151L19.3182 41.1856L30.0511 38.0457L37.6442 31.6224L17.9022 16.9697L15.3164 24.7475Z" fill="#763D16" stroke="#763D16" stroke-linecap="round" stroke-linejoin="round"/>
<path d="M63.6266 41.1857L52.8937 38.0459L56.1567 42.9506L51.293 52.3907L57.6958 52.3086H67.2385L63.6266 41.1857Z" fill="#F6851B" stroke="#F6851B" stroke-linecap="round" stroke-linejoin="round"/>
<path d="M30.0499 38.0459L19.3169 41.1857L15.7461 52.3086H25.2683L31.6506 52.3907L26.8074 42.9506L30.0499 38.0459Z" fill="#F6851B" stroke="#F6851B" stroke-linecap="round" stroke-linejoin="round"/>
<path d="M44.6221 43.4631L45.2994 31.622L48.4187 23.1875H34.5664L37.6447 31.622L38.363 43.4631L38.6092 47.1981L38.6297 56.3919H44.3143L44.3554 47.1981L44.6221 43.4631Z" fill="#F6851B" stroke="#F6851B" stroke-linecap="round" stroke-linejoin="round"/>
</svg>
