<svg width="38" height="39" viewBox="0 0 38 39" fill="none" xmlns="http://www.w3.org/2000/svg">
<g clip-path="url(#clip0_156_1110)" filter="url(#filter0_d_156_1110)">
<path d="M31.0566 1.5498L20.5938 10.3519L22.5286 5.15879L31.0566 1.5498Z" fill="#E2761B" stroke="#E2761B" stroke-width="1.37917" stroke-linecap="round" stroke-linejoin="round"/>
<path d="M6.9043 1.5498L17.2831 10.4353L15.4429 5.15879L6.9043 1.5498Z" fill="#E4761B" stroke="#E4761B" stroke-width="1.37917" stroke-linecap="round" stroke-linejoin="round"/>
<path d="M27.2925 21.9531L24.5059 26.789L30.4681 28.647L32.1822 22.0604L27.2925 21.9531Z" fill="#E4761B" stroke="#E4761B" stroke-width="1.37917" stroke-linecap="round" stroke-linejoin="round"/>
<path d="M5.79883 22.0604L7.50234 28.647L13.4646 26.789L10.678 21.9531L5.79883 22.0604Z" fill="#E4761B" stroke="#E4761B" stroke-width="1.37917" stroke-linecap="round" stroke-linejoin="round"/>
<path d="M13.1283 13.7823L11.4668 16.6291L17.3871 16.9268L17.1767 9.7207L13.1283 13.7823Z" fill="#E4761B" stroke="#E4761B" stroke-width="1.37917" stroke-linecap="round" stroke-linejoin="round"/>
<path d="M24.8315 13.7827L20.7303 9.6377L20.5938 16.9272L26.5034 16.6294L24.8315 13.7827Z" fill="#E4761B" stroke="#E4761B" stroke-width="1.37917" stroke-linecap="round" stroke-linejoin="round"/>
<path d="M13.4648 26.7894L17.0191 24.8242L13.9486 22.1084L13.4648 26.7894Z" fill="#E4761B" stroke="#E4761B" stroke-width="1.37917" stroke-linecap="round" stroke-linejoin="round"/>
<path d="M20.9414 24.8242L24.5062 26.7894L24.0118 22.1084L20.9414 24.8242Z" fill="#E4761B" stroke="#E4761B" stroke-width="1.37917" stroke-linecap="round" stroke-linejoin="round"/>
<path d="M24.5062 26.7885L20.9414 24.8232L21.2253 27.4556L21.1937 28.5632L24.5062 26.7885Z" fill="#D7C1B3" stroke="#D7C1B3" stroke-width="1.37917" stroke-linecap="round" stroke-linejoin="round"/>
<path d="M13.4648 26.7885L16.7772 28.5632L16.7562 27.4555L17.0191 24.8232L13.4648 26.7885Z" fill="#D7C1B3" stroke="#D7C1B3" stroke-width="1.37917" stroke-linecap="round" stroke-linejoin="round"/>
<path d="M16.8306 20.3694L13.8652 19.3808L15.9578 18.2969L16.8306 20.3694Z" fill="#233447" stroke="#233447" stroke-width="1.37917" stroke-linecap="round" stroke-linejoin="round"/>
<path d="M21.1309 20.3694L22.0037 18.2969L24.1067 19.3808L21.1309 20.3694Z" fill="#233447" stroke="#233447" stroke-width="1.37917" stroke-linecap="round" stroke-linejoin="round"/>
<path d="M13.4663 26.7888L13.9711 21.9531L10.6797 22.0602L13.4663 26.7888Z" fill="#CD6116" stroke="#CD6116" stroke-width="1.37917" stroke-linecap="round" stroke-linejoin="round"/>
<path d="M24.002 21.9531L24.5066 26.7888L27.2933 22.0602L24.002 21.9531Z" fill="#CD6116" stroke="#CD6116" stroke-width="1.37917" stroke-linecap="round" stroke-linejoin="round"/>
<path d="M26.5054 16.6299L20.5957 16.9276L21.1425 20.3699L22.0152 18.2974L24.1183 19.3813L26.5054 16.6299Z" fill="#CD6116" stroke="#CD6116" stroke-width="1.37917" stroke-linecap="round" stroke-linejoin="round"/>
<path d="M13.8644 19.3813L15.9675 18.2974L16.8297 20.3699L17.387 16.9276L11.4668 16.6299L13.8644 19.3813Z" fill="#CD6116" stroke="#CD6116" stroke-width="1.37917" stroke-linecap="round" stroke-linejoin="round"/>
<path d="M11.4668 16.6299L13.9485 22.1088L13.8644 19.3813L11.4668 16.6299Z" fill="#E4751F" stroke="#E4751F" stroke-width="1.37917" stroke-linecap="round" stroke-linejoin="round"/>
<path d="M24.1188 19.3813L24.0137 22.1088L26.5059 16.6299L24.1188 19.3813Z" fill="#E4751F" stroke="#E4751F" stroke-width="1.37917" stroke-linecap="round" stroke-linejoin="round"/>
<path d="M17.3874 16.9268L16.8301 20.369L17.5241 24.4306L17.6818 19.0825L17.3874 16.9268Z" fill="#E4751F" stroke="#E4751F" stroke-width="1.37917" stroke-linecap="round" stroke-linejoin="round"/>
<path d="M20.5944 16.9268L20.3105 19.0707L20.4367 24.4306L21.1412 20.369L20.5944 16.9268Z" fill="#E4751F" stroke="#E4751F" stroke-width="1.37917" stroke-linecap="round" stroke-linejoin="round"/>
<path d="M21.1401 20.3694L20.4355 24.4311L20.9402 24.8241L24.0108 22.1084L24.1159 19.3809L21.1401 20.3694Z" fill="#F6851B" stroke="#F6851B" stroke-width="1.37917" stroke-linecap="round" stroke-linejoin="round"/>
<path d="M13.8652 19.3809L13.9494 22.1084L17.0199 24.8241L17.5247 24.4311L16.8306 20.3694L13.8652 19.3809Z" fill="#F6851B" stroke="#F6851B" stroke-width="1.37917" stroke-linecap="round" stroke-linejoin="round"/>
<path d="M21.1937 28.5638L21.2253 27.456L20.9624 27.1939H16.9981L16.7562 27.456L16.7772 28.5638L13.4648 26.7891L14.6215 27.861L16.9665 29.7072H20.994L23.3495 27.861L24.5062 26.7891L21.1937 28.5638Z" fill="#C0AD9E" stroke="#C0AD9E" stroke-width="1.37917" stroke-linecap="round" stroke-linejoin="round"/>
<path d="M20.941 24.8237L20.4362 24.4307H17.5235L17.0188 24.8237L16.7559 27.456L16.9977 27.194H20.962L21.2249 27.456L20.941 24.8237Z" fill="#161616" stroke="#161616" stroke-width="1.37917" stroke-linecap="round" stroke-linejoin="round"/>
<path d="M31.499 10.9237L32.3927 6.06402L31.0573 1.5498L20.9414 10.0542L24.8321 13.7823L30.3317 15.6046L31.5516 13.9967L31.0258 13.5679L31.8671 12.6984L31.215 12.1267L32.0563 11.4001L31.499 10.9237Z" fill="#763D16" stroke="#763D16" stroke-width="1.37917" stroke-linecap="round" stroke-linejoin="round"/>
<path d="M5.57812 6.06402L6.47195 10.9237L5.90411 11.4001L6.74535 12.1267L6.1039 12.6984L6.94515 13.5679L6.41937 13.9967L7.62866 15.6046L13.1283 13.7823L17.019 10.0542L6.90308 1.5498L5.57812 6.06402Z" fill="#763D16" stroke="#763D16" stroke-width="1.37917" stroke-linecap="round" stroke-linejoin="round"/>
<path d="M30.3316 15.6045L24.832 13.7822L26.5039 16.6289L24.0117 22.1079L27.2926 22.0603H32.1823L30.3316 15.6045Z" fill="#F6851B" stroke="#F6851B" stroke-width="1.37917" stroke-linecap="round" stroke-linejoin="round"/>
<path d="M13.1282 13.7822L7.62853 15.6045L5.79883 22.0603H10.678L13.9484 22.1079L11.4667 16.6289L13.1282 13.7822Z" fill="#F6851B" stroke="#F6851B" stroke-width="1.37917" stroke-linecap="round" stroke-linejoin="round"/>
<path d="M20.594 16.9271L20.9411 10.0545L22.5394 5.15918H15.4414L17.0187 10.0545L17.3868 16.9271L17.513 19.095L17.5235 24.431H20.4363L20.4573 19.095L20.594 16.9271Z" fill="#F6851B" stroke="#F6851B" stroke-width="1.37917" stroke-linecap="round" stroke-linejoin="round"/>
</g>
<defs>
<filter id="filter0_d_156_1110" x="0" y="0" width="38" height="39" filterUnits="userSpaceOnUse" color-interpolation-filters="sRGB">
<feFlood flood-opacity="0" result="BackgroundImageFix"/>
<feColorMatrix in="SourceAlpha" type="matrix" values="0 0 0 0 0 0 0 0 0 0 0 0 0 0 0 0 0 0 127 0" result="hardAlpha"/>
<feOffset dy="4"/>
<feGaussianBlur stdDeviation="2"/>
<feComposite in2="hardAlpha" operator="out"/>
<feColorMatrix type="matrix" values="0 0 0 0 0 0 0 0 0 0 0 0 0 0 0 0 0 0 0.05 0"/>
<feBlend mode="normal" in2="BackgroundImageFix" result="effect1_dropShadow_156_1110"/>
<feBlend mode="normal" in="SourceGraphic" in2="effect1_dropShadow_156_1110" result="shape"/>
</filter>
<clipPath id="clip0_156_1110">
<rect width="30" height="31" fill="white" transform="translate(4)"/>
</clipPath>
</defs>
</svg>
