<svg width="53" height="37" viewBox="0 0 53 37" fill="none" xmlns="http://www.w3.org/2000/svg">
<rect x="2" y="6.92188" width="49" height="24" fill="#FF9332"/>
<rect x="51" y="10.9219" width="2" height="18" fill="#393939"/>
<rect width="2" height="18" transform="matrix(-1 0 0 1 2 10.9219)" fill="#393939"/>
<rect x="49" y="6.92188" width="2" height="4" fill="#393939"/>
<rect width="2" height="4" transform="matrix(-1 0 0 1 4 6.92188)" fill="#393939"/>
<rect x="46" y="31" width="2" height="4" transform="rotate(90 46 31)" fill="#393939"/>
<rect width="2" height="4" transform="matrix(4.37114e-08 1 1 -4.37114e-08 7 30.9219)" fill="#393939"/>
<rect x="43" y="33" width="2" height="32" transform="rotate(90 43 33)" fill="#393939"/>
<rect x="43" y="0.921875" width="2" height="33" transform="rotate(90 43 0.921875)" fill="#393939"/>
<rect x="43" y="4.92188" width="2" height="4" transform="rotate(-90 43 4.92188)" fill="#393939"/>
<rect width="2" height="4" transform="matrix(4.37114e-08 -1 -1 -4.37114e-08 10 4.92188)" fill="#393939"/>
<rect x="51.0703" y="31" width="2.04801" height="4" transform="rotate(179.691 51.0703 31)" fill="#393939"/>
<rect width="2" height="6" transform="matrix(-1 0 0 1 4 24.9219)" fill="#393939"/>
<rect x="47" y="6.92188" width="2" height="2" transform="rotate(-90 47 6.92188)" fill="#393939"/>
<rect width="2" height="2" transform="matrix(4.37114e-08 -1 -1 -4.37114e-08 6 6.92188)" fill="#393939"/>
<rect x="47" y="29" width="2" height="2" fill="#393939"/>
<rect width="2" height="2" transform="matrix(-1 0 0 1 6 28.9219)" fill="#393939"/>
<rect x="10" y="2.92188" width="33" height="2" fill="#FFBD82"/>
<rect x="11" y="31" width="32" height="2" fill="#FFBD82"/>
<rect x="6" y="4.92188" width="4" height="2" fill="#FFBD82"/>
<rect x="4" y="6.92188" width="2" height="2" fill="#FFBD82"/>
<rect x="2" y="23.9219" width="2" height="2" fill="#FFBD82"/>
<rect x="49" y="25" width="2" height="2" fill="#FFBD82"/>
<rect x="4" y="26.9219" width="2" height="2" fill="#FFBD82"/>
<rect x="47" y="27" width="2" height="2" fill="#FFBD82"/>
<rect x="43" y="29" width="4" height="2" fill="#FFBD82"/>
<rect x="2" y="10.9219" width="2" height="2" fill="#FFBD82"/>
<rect x="47" y="6.92188" width="2" height="2" fill="#FFBD82"/>
<rect x="6" y="28.9219" width="5" height="2" fill="#FFBD82"/>
<rect x="49" y="10.9219" width="2" height="2" fill="#FFBD82"/>
<rect x="43" y="4.92188" width="4" height="2" fill="#FFBD82"/>
<rect x="10" y="4.92188" width="33" height="16" fill="#FF9332"/>
</svg>
