<svg width="53" height="39" viewBox="0 0 53 39" fill="none" xmlns="http://www.w3.org/2000/svg">
<rect x="2" y="6.07812" width="49" height="26" fill="#FF9332"/>
<rect x="6" y="31.0781" width="41" height="5" fill="#EE7000"/>
<rect x="51" y="10.0781" width="2" height="18" fill="#393939"/>
<rect width="2" height="18" transform="matrix(-1 0 0 1 2 10.0781)" fill="#393939"/>
<rect x="49" y="6.07812" width="2" height="4" fill="#393939"/>
<rect width="2" height="4" transform="matrix(-1 0 0 1 4 6.07812)" fill="#393939"/>
<rect x="47" y="34.0781" width="2" height="4" transform="rotate(90 47 34.0781)" fill="#393939"/>
<rect width="2" height="4" transform="matrix(4.37114e-08 1 1 -4.37114e-08 6 34.0781)" fill="#393939"/>
<rect x="43" y="36.0781" width="2" height="33" transform="rotate(90 43 36.0781)" fill="#393939"/>
<rect x="43" y="0.078125" width="2" height="33" transform="rotate(90 43 0.078125)" fill="#393939"/>
<rect x="43" y="4.07812" width="2" height="4" transform="rotate(-90 43 4.07812)" fill="#393939"/>
<rect width="2" height="4" transform="matrix(4.37114e-08 -1 -1 -4.37114e-08 10 4.07812)" fill="#393939"/>
<rect x="49" y="28.0781" width="2" height="4" fill="#393939"/>
<rect width="2" height="4" transform="matrix(-1 0 0 1 4 28.0781)" fill="#393939"/>
<rect x="47" y="6.07812" width="2" height="2" transform="rotate(-90 47 6.07812)" fill="#393939"/>
<rect width="2" height="2" transform="matrix(4.37114e-08 -1 -1 -4.37114e-08 6 6.07812)" fill="#393939"/>
<rect x="47" y="32.0781" width="2" height="2" fill="#393939"/>
<rect width="2" height="2" transform="matrix(-1 0 0 1 6 32.0781)" fill="#393939"/>
<rect x="10" y="2.07812" width="33" height="2" fill="#FFBD82"/>
<rect x="6" y="4.07812" width="4" height="2" fill="#FFBD82"/>
<rect x="4" y="6.07812" width="2" height="2" fill="#FFBD82"/>
<rect x="2" y="23.0781" width="2" height="2" fill="#FFBD82"/>
<rect x="49" y="23.0781" width="2" height="2" fill="#FFBD82"/>
<rect x="4" y="25.0781" width="2" height="2" fill="#FFBD82"/>
<rect x="47" y="25.0781" width="2" height="2" fill="#FFBD82"/>
<rect x="42" y="27.0781" width="5" height="2" fill="#FFBD82"/>
<rect x="2" y="10.0781" width="2" height="2" fill="#FFBD82"/>
<rect x="47" y="6.07812" width="2" height="2" fill="#FFBD82"/>
<rect x="6" y="27.0781" width="5" height="2" fill="#FFBD82"/>
<rect x="11" y="29.0781" width="31" height="2" fill="#FFBD82"/>
<rect x="49" y="10.0781" width="2" height="2" fill="#FFBD82"/>
<rect x="43" y="4.07812" width="4" height="2" fill="#FFBD82"/>
<rect x="10" y="4.07812" width="33" height="16" fill="#FF9332"/>
<rect x="2" y="25.0781" width="2" height="3" fill="#EE7000"/>
<rect x="4" y="27.0781" width="2" height="5" fill="#EE7000"/>
<rect x="6" y="29.0781" width="5" height="5" fill="#EE7000"/>
<rect x="42" y="29.0781" width="5" height="5" fill="#EE7000"/>
<rect x="47" y="27.0781" width="2" height="5" fill="#EE7000"/>
<rect x="49" y="25.0781" width="2" height="3" fill="#EE7000"/>
<rect x="47" y="30.0781" width="2" height="2" fill="#EE7000"/>
<rect x="21" y="31.0781" width="1" height="5" fill="#FFDDBE"/>
<rect x="23" y="31.0781" width="1" height="5" fill="#FFDDBE"/>
<rect x="25" y="31.0781" width="6" height="5" fill="#FFDDBE"/>
</svg>
