<svg width="178" height="60" viewBox="0 0 178 60" fill="none" xmlns="http://www.w3.org/2000/svg">
<rect x="2" y="17" width="174" height="37" fill="white"/>
<rect x="174" y="54" width="2" height="2" fill="black"/>
<rect width="2" height="2" transform="matrix(-1 0 0 1 4 54)" fill="black"/>
<rect width="2" height="2" transform="matrix(-1 0 0 1 4 52)" fill="#5A5A5A"/>
<rect width="2" height="2" transform="matrix(-1 0 0 1 4 50)" fill="#AFAFAF"/>
<rect width="2" height="2" transform="matrix(-1 0 0 1 174 54)" fill="#5A5A5A"/>
<rect width="2" height="2" transform="matrix(-1 0 0 1 176 52)" fill="#5A5A5A"/>
<rect width="2" height="2" transform="matrix(-1 0 0 1 174 52)" fill="#AFAFAF"/>
<rect width="2" height="2" transform="matrix(-1 0 0 1 176 50)" fill="#AFAFAF"/>
<rect width="2" height="2" transform="matrix(-1 0 0 1 6 54)" fill="#5A5A5A"/>
<rect width="2" height="2" transform="matrix(-1 0 0 1 6 52)" fill="#AFAFAF"/>
<rect width="166" height="2" transform="matrix(-1 0 0 1 172 56)" fill="#5A5A5A"/>
<rect width="166" height="2" transform="matrix(-1 0 0 1 172 54)" fill="#AFAFAF"/>
<rect x="174" y="15" width="2" height="2" fill="black"/>
<rect width="2" height="2" transform="matrix(-1 0 0 1 4 15)" fill="black"/>
<rect x="172" y="56" width="2" height="2" fill="black"/>
<rect width="2" height="2" transform="matrix(-1 0 0 1 6 56)" fill="black"/>
<rect x="6" y="58" width="166" height="2" fill="black"/>
<rect x="176" y="17" width="2" height="37" fill="black"/>
<rect width="2" height="37" transform="matrix(-1 0 0 1 2 17)" fill="black"/>
<path fill-rule="evenodd" clip-rule="evenodd" d="M170 0H8V2H6V4H4V47H6V49H8V51H170V49H172V47H174V4H172V2H170V0ZM170 2V4H172V47H170V49H8V47H6V4H8V2H170Z" fill="black"/>
<path fill-rule="evenodd" clip-rule="evenodd" d="M170 2H8V4H6V46H172V4H170V2Z" fill="#A24AE8"/>
<rect x="6" y="4" width="2" height="2" fill="#EECAFF"/>
<rect x="172" y="4" width="2" height="2" transform="rotate(90 172 4)" fill="#EECAFF"/>
<rect x="172" y="41" width="2" height="2" transform="rotate(-180 172 41)" fill="#EECAFF"/>
<rect x="6" y="41" width="2" height="2" transform="rotate(-90 6 41)" fill="#EECAFF"/>
<rect x="6" y="47" width="6" height="2" transform="rotate(-90 6 47)" fill="#6B00BE"/>
<rect x="8" y="4" width="2" height="2" fill="#8619DC"/>
<rect x="172" y="6" width="2" height="2" transform="rotate(90 172 6)" fill="#8619DC"/>
<rect x="170" y="41" width="2" height="2" transform="rotate(-180 170 41)" fill="#8619DC"/>
<rect x="6" y="39" width="2" height="2" transform="rotate(-90 6 39)" fill="#8619DC"/>
<rect x="6" y="6" width="2" height="2" fill="#8619DC"/>
<rect x="170" y="4" width="2" height="2" transform="rotate(90 170 4)" fill="#8619DC"/>
<rect x="172" y="39" width="2" height="2" transform="rotate(-180 172 39)" fill="#8619DC"/>
<rect x="8" y="41" width="2" height="2" transform="rotate(-90 8 41)" fill="#8619DC"/>
<rect x="172" y="47" width="2" height="6" transform="rotate(-180 172 47)" fill="#6B00BE"/>
<rect x="170" y="49" width="162" height="5.99999" transform="rotate(-180 170 49)" fill="#6B00BE"/>
<rect x="8" y="2" width="162" height="2" fill="#EECAFF"/>
<rect x="8" y="41" width="162" height="2" fill="#EECAFF"/>
<rect x="16" y="49" width="6" height="4" transform="rotate(-90 16 49)" fill="#DC4FFF"/>
<rect width="6" height="4" transform="matrix(-1.31134e-07 -1 -1 1.31134e-07 158 49)" fill="#DC4FFF"/>
<rect x="21" y="49" width="6" height="3" transform="rotate(-90 21 49)" fill="#DC4FFF"/>
<rect width="6" height="3" transform="matrix(-1.31134e-07 -1 -1 1.31134e-07 153 49)" fill="#DC4FFF"/>
<rect x="25" y="49" width="6" height="2" transform="rotate(-90 25 49)" fill="#DC4FFF"/>
<rect width="6" height="2" transform="matrix(-1.31134e-07 -1 -1 1.31134e-07 149 49)" fill="#DC4FFF"/>
<rect x="28" y="49" width="6" height="0.999999" transform="rotate(-90 28 49)" fill="#DC4FFF"/>
<rect width="6" height="0.999999" transform="matrix(-1.31134e-07 -1 -1 1.31134e-07 146 49)" fill="#DC4FFF"/>
<path d="M20.024 24.96V30H19.016H18.008V28.992V27.984V26.976V24.96V23.952V22.944V21.936V20.928V19.92V18.912V17.904H19.016H20.024V18.912H21.032V19.92H22.04V20.928H23.048V21.936H24.056V20.928H25.064V19.92H26.072V18.912H27.08V17.904H29.096V18.912V19.92V27.984V30H27.08V24.96V21.936H26.072V22.944H25.064V23.952H24.056V24.96H23.048V23.952H22.04V22.944H21.032V21.936H20.024V24.96ZM41.1974 18.912V19.92V20.928V21.936H40.1894V22.944H39.1814V23.952H38.1734V24.96H37.1654V25.968V30H35.1494V25.968V24.96H34.1414V23.952H33.1334V22.944H32.1254V21.936H31.1174V20.928V19.92V18.912V17.904H32.1254H33.1334V18.912V19.92V20.928H34.1414V21.936H35.1494V22.944H36.1574H37.1654V21.936H38.1734V20.928H39.1814V19.92V18.912V17.904H40.1894H41.1974V18.912ZM46.2428 25.968V26.976H47.2508V27.984H48.2588H49.2668H50.2748H51.2828H52.2908V26.976H53.2988V25.968H52.2908V24.96H51.2828H50.2748H49.2668H46.2428V23.952H45.2348V22.944H44.2268V21.936V20.928V19.92H45.2348V18.912H46.2428V17.904H48.2588H49.2668H50.2748H53.2988V18.912H54.3068V19.92H55.3148V21.936H53.2988V20.928H52.2908V19.92H51.2828H50.2748H49.2668H48.2588H47.2508V20.928H46.2428V21.936H47.2508V22.944H48.2588H49.2668H50.2748H53.2988V23.952H54.3068V24.96H55.3148V25.968V26.976V27.984H54.3068V28.992H53.2988V30H50.2748H49.2668H46.2428V28.992H45.2348V27.984H44.2268V25.968H46.2428ZM57.3361 19.92V18.912V17.904H58.3441H59.3521H62.3761H67.4161V19.92H66.4081H65.4001H63.3841V24.96V30H61.3681V24.96V19.92H60.3601H57.3361ZM70.4455 19.92V18.912V17.904H71.4535H72.4615H75.4855H81.5335V19.92H80.5255H79.5175H77.5015H76.4935H75.4855H73.4695H72.4615V22.944H79.5175V24.96H72.4615V27.984H73.4695H75.4855H76.4935H77.5015H79.5175H80.5255H81.5335V30H75.4855H72.4615H71.4535H70.4455V28.992V27.984V26.976V24.96V23.952V22.944V21.936V20.928V19.92ZM83.5549 19.92V18.912V17.904H84.5629H85.5709H88.5949H92.6269V18.912H93.6349V19.92H94.6429V21.936V22.944V23.952H93.6349V24.96H92.6269V25.968V26.976H93.6349V27.984H94.6429V28.992V30H92.6269V28.992H91.6189V27.984H90.6109V26.976H89.6029V25.968H88.5949H85.5709V30H83.5549V25.968V24.96V23.952V22.944V21.936V20.928V19.92ZM88.5949 19.92H86.5789H85.5709V22.944V23.952H86.5789H87.5869H88.5949H89.6029H90.6109H91.6189V22.944H92.6269V21.936V20.928H91.6189V19.92H90.6109H89.6029H88.5949ZM106.744 18.912V19.92V20.928V21.936H105.736V22.944H104.728V23.952H103.72V24.96H102.712V25.968V30H100.696V25.968V24.96H99.6883V23.952H98.6803V22.944H97.6723V21.936H96.6643V20.928V19.92V18.912V17.904H97.6723H98.6803V18.912V19.92V20.928H99.6883V21.936H100.696V22.944H101.704H102.712V21.936H103.72V20.928H104.728V19.92V18.912V17.904H105.736H106.744V18.912ZM122.883 19.92V18.912V17.904H123.891H124.899H127.923H131.955V18.912H132.963V19.92H133.971V21.936V22.944H132.963V23.952V24.96H133.971V27.984H132.963V28.992H131.955V30H127.923H124.899H123.891H122.883V28.992V27.984V26.976V24.96V23.952V22.944V21.936V20.928V19.92ZM125.907 27.984H127.923H128.931H129.939H130.947V26.976H131.955V25.968H130.947V24.96H124.899V27.984H125.907ZM127.923 19.92H125.907H124.899V22.944H130.947V21.936H131.955V20.928H130.947V19.92H129.939H128.931H127.923ZM141.032 19.92H140.024H139.016V20.928H138.008V21.936V22.944V24.96V25.968V26.976H139.016V27.984H140.024H141.032H142.04H143.048H144.056V26.976H145.064V25.968V24.96V21.936V20.928H144.056V19.92H143.048H142.04H141.032ZM147.08 24.96V27.984H146.072V28.992H145.064V30H142.04H141.032H138.008V28.992H137V27.984H135.992V25.968V24.96V23.952V22.944V19.92H137V18.912H138.008V17.904H140.024H141.032H142.04H145.064V18.912H146.072V19.92H147.08V21.936V24.96ZM160.19 19.92H159.182V20.928H158.174V21.936H157.166V22.944H156.158V23.952V24.96H157.166V25.968H158.174V26.976H159.182V27.984H160.19V30H158.174V28.992H157.166V27.984H156.158V26.976H155.15V25.968H154.142V26.976H153.134V27.984H152.126V28.992H151.118V30H150.11H149.102V28.992V27.984H150.11V26.976H151.118V25.968H152.126V24.96H153.134V23.952V22.944H152.126V21.936H151.118V20.928H150.11V19.92H149.102V17.904H151.118V18.912H152.126V19.92H153.134V20.928H154.142V21.936H155.15V20.928H156.158V19.92H157.166V18.912H158.174V17.904H159.182H160.19V18.912V19.92Z" fill="#393939"/>
<path d="M20.024 22.96V28H19.016H18.008V26.992V25.984V24.976V22.96V21.952V20.944V19.936V18.928V17.92V16.912V15.904H19.016H20.024V16.912H21.032V17.92H22.04V18.928H23.048V19.936H24.056V18.928H25.064V17.92H26.072V16.912H27.08V15.904H29.096V16.912V17.92V25.984V28H27.08V22.96V19.936H26.072V20.944H25.064V21.952H24.056V22.96H23.048V21.952H22.04V20.944H21.032V19.936H20.024V22.96ZM41.1974 16.912V17.92V18.928V19.936H40.1894V20.944H39.1814V21.952H38.1734V22.96H37.1654V23.968V28H35.1494V23.968V22.96H34.1414V21.952H33.1334V20.944H32.1254V19.936H31.1174V18.928V17.92V16.912V15.904H32.1254H33.1334V16.912V17.92V18.928H34.1414V19.936H35.1494V20.944H36.1574H37.1654V19.936H38.1734V18.928H39.1814V17.92V16.912V15.904H40.1894H41.1974V16.912ZM46.2428 23.968V24.976H47.2508V25.984H48.2588H49.2668H50.2748H51.2828H52.2908V24.976H53.2988V23.968H52.2908V22.96H51.2828H50.2748H49.2668H46.2428V21.952H45.2348V20.944H44.2268V19.936V18.928V17.92H45.2348V16.912H46.2428V15.904H48.2588H49.2668H50.2748H53.2988V16.912H54.3068V17.92H55.3148V19.936H53.2988V18.928H52.2908V17.92H51.2828H50.2748H49.2668H48.2588H47.2508V18.928H46.2428V19.936H47.2508V20.944H48.2588H49.2668H50.2748H53.2988V21.952H54.3068V22.96H55.3148V23.968V24.976V25.984H54.3068V26.992H53.2988V28H50.2748H49.2668H46.2428V26.992H45.2348V25.984H44.2268V23.968H46.2428ZM57.3361 17.92V16.912V15.904H58.3441H59.3521H62.3761H67.4161V17.92H66.4081H65.4001H63.3841V22.96V28H61.3681V22.96V17.92H60.3601H57.3361ZM70.4455 17.92V16.912V15.904H71.4535H72.4615H75.4855H81.5335V17.92H80.5255H79.5175H77.5015H76.4935H75.4855H73.4695H72.4615V20.944H79.5175V22.96H72.4615V25.984H73.4695H75.4855H76.4935H77.5015H79.5175H80.5255H81.5335V28H75.4855H72.4615H71.4535H70.4455V26.992V25.984V24.976V22.96V21.952V20.944V19.936V18.928V17.92ZM83.5549 17.92V16.912V15.904H84.5629H85.5709H88.5949H92.6269V16.912H93.6349V17.92H94.6429V19.936V20.944V21.952H93.6349V22.96H92.6269V23.968V24.976H93.6349V25.984H94.6429V26.992V28H92.6269V26.992H91.6189V25.984H90.6109V24.976H89.6029V23.968H88.5949H85.5709V28H83.5549V23.968V22.96V21.952V20.944V19.936V18.928V17.92ZM88.5949 17.92H86.5789H85.5709V20.944V21.952H86.5789H87.5869H88.5949H89.6029H90.6109H91.6189V20.944H92.6269V19.936V18.928H91.6189V17.92H90.6109H89.6029H88.5949ZM106.744 16.912V17.92V18.928V19.936H105.736V20.944H104.728V21.952H103.72V22.96H102.712V23.968V28H100.696V23.968V22.96H99.6883V21.952H98.6803V20.944H97.6723V19.936H96.6643V18.928V17.92V16.912V15.904H97.6723H98.6803V16.912V17.92V18.928H99.6883V19.936H100.696V20.944H101.704H102.712V19.936H103.72V18.928H104.728V17.92V16.912V15.904H105.736H106.744V16.912ZM122.883 17.92V16.912V15.904H123.891H124.899H127.923H131.955V16.912H132.963V17.92H133.971V19.936V20.944H132.963V21.952V22.96H133.971V25.984H132.963V26.992H131.955V28H127.923H124.899H123.891H122.883V26.992V25.984V24.976V22.96V21.952V20.944V19.936V18.928V17.92ZM125.907 25.984H127.923H128.931H129.939H130.947V24.976H131.955V23.968H130.947V22.96H124.899V25.984H125.907ZM127.923 17.92H125.907H124.899V20.944H130.947V19.936H131.955V18.928H130.947V17.92H129.939H128.931H127.923ZM141.032 17.92H140.024H139.016V18.928H138.008V19.936V20.944V22.96V23.968V24.976H139.016V25.984H140.024H141.032H142.04H143.048H144.056V24.976H145.064V23.968V22.96V19.936V18.928H144.056V17.92H143.048H142.04H141.032ZM147.08 22.96V25.984H146.072V26.992H145.064V28H142.04H141.032H138.008V26.992H137V25.984H135.992V23.968V22.96V21.952V20.944V17.92H137V16.912H138.008V15.904H140.024H141.032H142.04H145.064V16.912H146.072V17.92H147.08V19.936V22.96ZM160.19 17.92H159.182V18.928H158.174V19.936H157.166V20.944H156.158V21.952V22.96H157.166V23.968H158.174V24.976H159.182V25.984H160.19V28H158.174V26.992H157.166V25.984H156.158V24.976H155.15V23.968H154.142V24.976H153.134V25.984H152.126V26.992H151.118V28H150.11H149.102V26.992V25.984H150.11V24.976H151.118V23.968H152.126V22.96H153.134V21.952V20.944H152.126V19.936H151.118V18.928H150.11V17.92H149.102V15.904H151.118V16.912H152.126V17.92H153.134V18.928H154.142V19.936H155.15V18.928H156.158V17.92H157.166V16.912H158.174V15.904H159.182H160.19V16.912V17.92Z" fill="white"/>
</svg>
