<svg width="129" height="16" viewBox="0 0 129 16" fill="none" xmlns="http://www.w3.org/2000/svg">
<path d="M11.6 5.92V2.14V0.879999H14.12V2.14V3.4V13.48V16H11.6V13.48H10.34V12.22H9.08V10.96H7.82V9.7H6.56V8.44H5.3V7.18H4.04V5.92H2.78V9.7V16H1.52H0.26V14.74V13.48V12.22V9.7V8.44V7.18V5.92V4.66V3.4V2.14V0.879999H1.52H2.78V2.14H4.04V3.4H5.3V4.66H6.56V5.92H7.82V7.18H9.08V8.44H10.34V9.7H11.6V5.92ZM16.6467 3.4V2.14V0.879999H17.9067H19.1667H22.9467H30.5067V3.4H29.2467H27.9867H25.4667H24.2067H22.9467H20.4267H19.1667V7.18H27.9867V9.7H19.1667V13.48H20.4267H22.9467H24.2067H25.4667H27.9867H29.2467H30.5067V16H22.9467H19.1667H17.9067H16.6467V14.74V13.48V12.22V9.7V8.44V7.18V5.92V4.66V3.4ZM44.3734 7.18V0.879999H45.6334H46.8934V2.14V3.4V4.66V7.18V8.44V9.7V10.96V12.22V13.48V14.74V16H45.6334H44.3734V14.74H43.1134V13.48H41.8534V12.22H40.5934V10.96H39.3334V12.22H38.0734V13.48H36.8134V14.74H35.5534V16H33.0334V14.74V13.48V3.4V0.879999H35.5534V7.18V10.96H36.8134V9.7H38.0734V8.44H39.3334V7.18H40.5934V8.44H41.8534V9.7H43.1134V10.96H44.3734V7.18ZM72.1069 3.4H70.8469H69.5869V4.66H68.3269V5.92V7.18V9.7V10.96V12.22H69.5869V13.48H70.8469H72.1069H73.3669H74.6269H75.8869V12.22H77.1469V10.96V9.7H72.1069H70.8469V7.18H72.1069H77.1469H79.6669V10.96V12.22V13.48H78.4069V14.74H77.1469V16H73.3669H72.1069H68.3269V14.74H67.0669V13.48H65.8069V10.96V9.7V8.44V7.18V3.4H67.0669V2.14H68.3269V0.879999H70.8469H72.1069H73.3669H78.4069V2.14H79.6669V4.66H77.1469V3.4H74.6269H73.3669H72.1069ZM82.1936 14.74V13.48V10.96V8.44V7.18V5.92H83.4536V4.66H84.7136V3.4H85.9736V2.14H87.2336V0.879999H91.0136V2.14H92.2736V3.4H93.5336V4.66H94.7936V5.92H96.0536V7.18V8.44V10.96V13.48V14.74V16H94.7936H93.5336V14.74V13.48V10.96H84.7136V13.48V14.74V16H83.4536H82.1936V14.74ZM93.5336 8.44V7.18H92.2736V5.92H91.0136V4.66H89.7536V3.4H88.4936V4.66H87.2336V5.92H85.9736V7.18H84.7136V8.44H93.5336ZM101.1 9.7V16H99.8403H98.5803V14.74V13.48V12.22V9.7V8.44V7.18V5.92V4.66V3.4V2.14V0.879999H99.8403H101.1V2.14H102.36V3.4H103.62V4.66H104.88V5.92H106.14V4.66H107.4V3.4H108.66V2.14H109.92V0.879999H112.44V2.14V3.4V13.48V16H109.92V9.7V5.92H108.66V7.18H107.4V8.44H106.14V9.7H104.88V8.44H103.62V7.18H102.36V5.92H101.1V9.7ZM114.967 3.4V2.14V0.879999H116.227H117.487H121.267H128.827V3.4H127.567H126.307H123.787H122.527H121.267H118.747H117.487V7.18H126.307V9.7H117.487V13.48H118.747H121.267H122.527H123.787H126.307H127.567H128.827V16H121.267H117.487H116.227H114.967V14.74V13.48V12.22V9.7V8.44V7.18V5.92V4.66V3.4Z" fill="#FF7C06"/>
</svg>
