<svg width="56" height="597" viewBox="0 0 56 597" fill="none" xmlns="http://www.w3.org/2000/svg">
<g opacity="0.2">
<path d="M9.33335 583.013H14V587.675H42V583.013H46.6667V559.701H42V555.039H37.3333V545.715H46.6667V550.377H51.3333V555.039H56L56 587.675H51.3333V592.338H46.6667V597H9.33335L9.33335 592.338H4.66669V587.675H2.53041e-05L2.38762e-05 555.039H4.66669V550.377H9.33335V545.715H18.6667L18.6667 555.039H14V559.701H9.33335L9.33335 583.013Z" fill="#FF7C06"/>
<path d="M32.6667 494.404L32.6667 527.04H56V536.365H2.30592e-05L2.26512e-05 527.04H23.3333V494.404H2.12233e-05L2.08153e-05 485.08H56L56 494.404H32.6667Z" fill="#FF7C06"/>
<path d="M18.6667 475.73V471.068H14V466.405H9.33335L9.33335 461.743H4.66669L4.66669 457.081H1.95903e-05L1.89783e-05 443.094H4.66668L4.66668 438.432H9.33335V433.769H14V429.107H18.6667V424.445L56 424.445V433.769H37.3333L37.3333 466.405H56V475.73H18.6667ZM28 433.769H23.3333V438.432H18.6667V443.094H14V447.756H9.33335V452.418H14V457.081H18.6667V461.743H23.3333V466.405H28V433.769Z" fill="#FF7C06"/>
<path d="M1.77533e-05 415.095L1.59175e-05 373.134H4.66668L4.66668 368.472H9.33334V363.81H28V368.472H32.6667V373.134H42V368.472H46.6667V363.81H56V373.134H51.3333V377.797H46.6667V382.459H42V387.121H37.3333V405.77H56V415.095H1.77533e-05ZM9.33334 405.77H28L28 377.797H23.3333V373.134H14V377.797H9.33334L9.33334 405.77Z" fill="#FF7C06"/>
<path d="M18.6667 354.46V349.798H14L14 345.136H9.33334V340.473L4.66668 340.473L4.66668 335.811H1.42845e-05L1.36725e-05 321.824H4.66668L4.66668 317.162H9.33334V312.499H14V307.837H18.6667V303.175H56L56 312.499H37.3333V345.136H56V354.46H18.6667ZM28 312.499H23.3333L23.3333 317.162H18.6667V321.824H14V326.486H9.33334V331.149H14V335.811H18.6667V340.473H23.3333V345.136H28L28 312.499Z" fill="#FF7C06"/>
<path d="M9.33334 279.838H14L14 284.501H42V279.838H46.6667V256.527H42V251.864H37.3333V242.54H46.6667V247.202H51.3333V251.864H56V284.501H51.3333V289.163H46.6667L46.6667 293.825H9.33334V289.163H4.66668L4.66668 284.501H1.20395e-05L1.06116e-05 251.864H4.66668L4.66668 247.202H9.33334L9.33334 242.54H18.6667L18.6667 251.864H14V256.527H9.33334L9.33334 279.838Z" fill="#FF7C06"/>
<path d="M9.33334 233.19H9.79461e-06L7.75472e-06 186.567H9.33333L9.33334 205.216H56V214.541H9.33334L9.33334 233.19Z" fill="#FF7C06"/>
<path d="M7.14167e-06 172.555L4.89783e-06 121.27H9.33333L9.33333 163.231H23.3333L23.3333 130.594H32.6667L32.6667 163.231H46.6666V121.27H56L56 172.555H7.14167e-06Z" fill="#FF7C06"/>
<path d="M4.48877e-06 111.92L2.6529e-06 69.9596H4.66667V65.2973H9.33333V60.6349H28V65.2973L32.6666 65.2972V69.9596H42V65.2972H46.6666V60.6349H56V69.9596H51.3333V74.6219H46.6666V79.2842H42V83.9465H37.3333L37.3333 102.596H56V111.92L4.48877e-06 111.92ZM9.33333 102.596H28V74.6219H23.3333V69.9596H14V74.6219H9.33333L9.33333 102.596Z" fill="#FF7C06"/>
<path d="M37.3333 41.9608H42V37.2985H46.6666L46.6666 13.9869H42V9.32463H37.3333V13.9869L32.6666 13.9869V41.9608H28V46.6231H23.3333L23.3333 51.2855H9.33333V46.6231H4.66667L4.66667 41.9608H1.42789e-06L0 9.32463H4.66667V4.66232H9.33333L9.33333 1.63037e-06L18.6667 1.22278e-06V9.32463H14V13.9869H9.33333L9.33333 37.2985H14L14 41.9608H18.6667V37.2985H23.3333V9.32463H28V4.66232H32.6666V6.11387e-07L46.6666 0V4.66232H51.3333V9.32463L56 9.32463V41.9608H51.3333V46.6231H46.6666V51.2855H37.3333V41.9608Z" fill="#FF7C06"/>
</g>
</svg>
