<svg width="95" height="854" viewBox="0 0 95 854" fill="none" xmlns="http://www.w3.org/2000/svg">
<mask id="path-1-outside-1_1344_5034" maskUnits="userSpaceOnUse" x="-2.76957" y="-3" width="97" height="858" fill="black">
<rect fill="white" x="-2.76957" y="-3" width="97" height="858"/>
<path d="M61.4865 74.3254L84.5445 74.3254L92.2305 74.3254L92.2305 91.0644L84.5445 91.0644L76.8585 91.0644L15.3705 91.0644L-0.00153753 91.0643L-0.0015368 74.3254L15.3705 74.3254L15.3705 65.9559L23.0565 65.9559L23.0565 57.5864L30.7425 57.5864L30.7425 49.2169L38.4285 49.2169L38.4285 40.8474L46.1145 40.8474L46.1145 32.4779L53.8005 32.4779L53.8005 24.1085L61.4865 24.1085L61.4865 15.739L38.4285 15.739L-0.00153424 15.739L-0.00153387 7.36948L-0.00153351 -1L7.68447 -1L15.3705 -1L23.0565 -1L38.4285 -1L46.1145 -1L53.8005 -1L61.4865 -1L69.1725 -1L76.8585 -1L84.5445 -1L92.2305 -1L92.2305 7.36949L92.2305 15.739L84.5445 15.739L84.5445 24.1085L76.8585 24.1085L76.8585 32.478L69.1725 32.478L69.1725 40.8474L61.4865 40.8474L61.4865 49.2169L53.8005 49.2169L53.8005 57.5864L46.1145 57.5864L46.1145 65.9559L38.4285 65.9559L38.4285 74.3254L61.4865 74.3254Z"/>
<path d="M76.8585 107.848L84.5445 107.848L92.2305 107.848L92.2305 116.217L92.2305 124.587L92.2305 149.695L92.2305 199.912L76.8585 199.912L76.8585 191.543L76.8585 183.173L76.8585 166.434L76.8585 158.065L76.8585 149.695L76.8585 132.956L76.8585 124.587L53.8005 124.587L53.8005 183.173L38.4285 183.173L38.4285 124.587L-0.001539 124.587L-0.00153863 116.217L-0.00153827 107.848L7.68447 107.848L15.3705 107.848L23.0565 107.848L38.4285 107.848L46.1145 107.848L53.8005 107.848L61.4865 107.848L69.1725 107.848L76.8585 107.848Z"/>
<path d="M76.8585 216.696L84.5445 216.696L92.2305 216.696L92.2305 225.065L92.2305 233.435L92.2305 258.543L92.2305 300.391L76.8585 300.391L76.8585 292.021L76.8585 283.652L76.8585 266.913L38.4285 266.913L-0.00154522 266.913L-0.00154449 250.174L38.4285 250.174L76.8585 250.174L76.8585 241.804L76.8585 216.696Z"/>
<path d="M30.7424 451.131L23.0564 451.131L23.0564 459.5L15.3704 459.5L15.3704 467.87L15.3704 476.239L15.3704 484.609L15.3704 492.978L15.3704 501.348L23.0564 501.348L23.0564 509.717L30.7424 509.717L30.7424 501.348L38.4284 501.348L38.4284 492.978L38.4284 484.609L38.4284 476.239L38.4285 451.131L46.1144 451.131L46.1144 442.761L53.8004 442.761L53.8004 434.392L61.4864 434.392L69.1724 434.392L76.8585 434.392L76.8585 442.761L84.5444 442.761L84.5444 451.131L92.2304 451.131L92.2304 467.87L92.2304 476.239L92.2304 484.609L92.2304 509.717L84.5444 509.717L84.5444 518.087L76.8584 518.087L76.8584 526.456L61.4864 526.456L61.4864 509.717L69.1724 509.717L69.1724 501.348L76.8584 501.348L76.8585 492.978L76.8585 484.609L76.8585 476.239L76.8585 467.87L76.8585 459.5L69.1724 459.5L69.1724 451.131L61.4864 451.131L61.4864 459.5L53.8004 459.5L53.8004 467.87L53.8004 476.239L53.8004 484.609L53.8004 509.717L46.1144 509.717L46.1144 518.087L38.4284 518.087L38.4284 526.456L30.7424 526.456L23.0564 526.456L15.3704 526.456L15.3704 518.087L7.68445 518.087L7.68445 509.717L-0.00155583 509.717L-0.00155473 484.609L-0.00155437 476.239L-0.00155327 451.131L7.68445 451.131L7.68445 442.761L15.3704 442.761L15.3704 434.392L30.7424 434.392L30.7424 451.131Z"/>
<path d="M38.4284 618.565L38.4284 559.979L-0.00155803 559.979L-0.00155766 551.609L-0.0015573 543.24L7.68445 543.24L15.3704 543.24L23.0564 543.24L38.4284 543.24L46.1144 543.24L53.8004 543.24L61.4864 543.24L69.1724 543.24L76.8584 543.24L84.5444 543.24L92.2304 543.24L92.2304 551.609L92.2304 559.979L53.8004 559.979L53.8004 618.565L92.2304 618.565L92.2304 635.304L76.8584 635.304L15.3704 635.304L-0.00156132 635.304L-0.00156059 618.565L38.4284 618.565Z"/>
<path d="M76.8584 693.935L76.8584 685.566L76.8584 677.196L69.1724 677.196L69.1724 668.827L61.4864 668.827L53.8004 668.827L38.4284 668.827L30.7424 668.827L23.0564 668.827L23.0564 677.196L15.3704 677.196L15.3704 685.566L15.3704 693.935L15.3704 702.305L15.3704 710.674L15.3704 719.044L23.0564 719.044L23.0564 727.413L30.7424 727.413L38.4284 727.413L61.4864 727.413L69.1724 727.413L69.1724 719.044L76.8584 719.044L76.8584 710.674L76.8584 702.305L76.8584 693.935ZM38.4284 744.152L15.3704 744.152L15.3704 735.783L7.68444 735.783L7.68444 727.413L-0.00156535 727.413L-0.00156425 702.305L-0.00156388 693.935L-0.00156279 668.827L7.68444 668.827L7.68444 660.457L15.3704 660.457L15.3704 652.088L30.7424 652.088L38.4284 652.088L46.1144 652.088L53.8004 652.088L76.8584 652.088L76.8584 660.457L84.5444 660.457L84.5444 668.827L92.2304 668.827L92.2304 685.566L92.2304 693.935L92.2304 702.305L92.2304 727.413L84.5444 727.413L84.5444 735.783L76.8584 735.783L76.8584 744.152L61.4864 744.152L38.4284 744.152Z"/>
<path d="M76.8584 760.936L84.5444 760.936L92.2304 760.936L92.2304 769.305L92.2304 777.675L92.2304 802.783L92.2304 836.261L84.5444 836.261L84.5444 844.63L76.8584 844.63L76.8584 853L61.4864 853L53.8004 853L46.1144 853L46.1144 844.63L38.4284 844.63L38.4284 836.261L30.7424 836.261L30.7424 802.783L30.7424 777.675L-0.00156755 777.675L-0.00156681 760.936L30.7424 760.936L38.4284 760.936L46.1144 760.936L53.8004 760.936L61.4864 760.936L69.1724 760.936L76.8584 760.936ZM76.8584 802.783L76.8584 786.044L76.8584 777.675L53.8004 777.675L46.1144 777.675L46.1144 786.044L46.1144 802.783L46.1144 811.153L46.1144 819.522L46.1144 827.892L53.8004 827.892L53.8004 836.261L61.4864 836.261L69.1724 836.261L69.1724 827.892L76.8584 827.892L76.8584 819.522L76.8584 811.153L76.8584 802.783Z"/>
</mask>
<path d="M61.4865 74.3254L84.5445 74.3254L92.2305 74.3254L92.2305 91.0644L84.5445 91.0644L76.8585 91.0644L15.3705 91.0644L-0.00153753 91.0643L-0.0015368 74.3254L15.3705 74.3254L15.3705 65.9559L23.0565 65.9559L23.0565 57.5864L30.7425 57.5864L30.7425 49.2169L38.4285 49.2169L38.4285 40.8474L46.1145 40.8474L46.1145 32.4779L53.8005 32.4779L53.8005 24.1085L61.4865 24.1085L61.4865 15.739L38.4285 15.739L-0.00153424 15.739L-0.00153387 7.36948L-0.00153351 -1L7.68447 -1L15.3705 -1L23.0565 -1L38.4285 -1L46.1145 -1L53.8005 -1L61.4865 -1L69.1725 -1L76.8585 -1L84.5445 -1L92.2305 -1L92.2305 7.36949L92.2305 15.739L84.5445 15.739L84.5445 24.1085L76.8585 24.1085L76.8585 32.478L69.1725 32.478L69.1725 40.8474L61.4865 40.8474L61.4865 49.2169L53.8005 49.2169L53.8005 57.5864L46.1145 57.5864L46.1145 65.9559L38.4285 65.9559L38.4285 74.3254L61.4865 74.3254Z" fill="#393939"/>
<path d="M76.8585 107.848L84.5445 107.848L92.2305 107.848L92.2305 116.217L92.2305 124.587L92.2305 149.695L92.2305 199.912L76.8585 199.912L76.8585 191.543L76.8585 183.173L76.8585 166.434L76.8585 158.065L76.8585 149.695L76.8585 132.956L76.8585 124.587L53.8005 124.587L53.8005 183.173L38.4285 183.173L38.4285 124.587L-0.001539 124.587L-0.00153863 116.217L-0.00153827 107.848L7.68447 107.848L15.3705 107.848L23.0565 107.848L38.4285 107.848L46.1145 107.848L53.8005 107.848L61.4865 107.848L69.1725 107.848L76.8585 107.848Z" fill="#393939"/>
<path d="M76.8585 216.696L84.5445 216.696L92.2305 216.696L92.2305 225.065L92.2305 233.435L92.2305 258.543L92.2305 300.391L76.8585 300.391L76.8585 292.021L76.8585 283.652L76.8585 266.913L38.4285 266.913L-0.00154522 266.913L-0.00154449 250.174L38.4285 250.174L76.8585 250.174L76.8585 241.804L76.8585 216.696Z" fill="#393939"/>
<path d="M30.7424 451.131L23.0564 451.131L23.0564 459.5L15.3704 459.5L15.3704 467.87L15.3704 476.239L15.3704 484.609L15.3704 492.978L15.3704 501.348L23.0564 501.348L23.0564 509.717L30.7424 509.717L30.7424 501.348L38.4284 501.348L38.4284 492.978L38.4284 484.609L38.4284 476.239L38.4285 451.131L46.1144 451.131L46.1144 442.761L53.8004 442.761L53.8004 434.392L61.4864 434.392L69.1724 434.392L76.8585 434.392L76.8585 442.761L84.5444 442.761L84.5444 451.131L92.2304 451.131L92.2304 467.87L92.2304 476.239L92.2304 484.609L92.2304 509.717L84.5444 509.717L84.5444 518.087L76.8584 518.087L76.8584 526.456L61.4864 526.456L61.4864 509.717L69.1724 509.717L69.1724 501.348L76.8584 501.348L76.8585 492.978L76.8585 484.609L76.8585 476.239L76.8585 467.87L76.8585 459.5L69.1724 459.5L69.1724 451.131L61.4864 451.131L61.4864 459.5L53.8004 459.5L53.8004 467.87L53.8004 476.239L53.8004 484.609L53.8004 509.717L46.1144 509.717L46.1144 518.087L38.4284 518.087L38.4284 526.456L30.7424 526.456L23.0564 526.456L15.3704 526.456L15.3704 518.087L7.68445 518.087L7.68445 509.717L-0.00155583 509.717L-0.00155473 484.609L-0.00155437 476.239L-0.00155327 451.131L7.68445 451.131L7.68445 442.761L15.3704 442.761L15.3704 434.392L30.7424 434.392L30.7424 451.131Z" fill="#393939"/>
<path d="M38.4284 618.565L38.4284 559.979L-0.00155803 559.979L-0.00155766 551.609L-0.0015573 543.24L7.68445 543.24L15.3704 543.24L23.0564 543.24L38.4284 543.24L46.1144 543.24L53.8004 543.24L61.4864 543.24L69.1724 543.24L76.8584 543.24L84.5444 543.24L92.2304 543.24L92.2304 551.609L92.2304 559.979L53.8004 559.979L53.8004 618.565L92.2304 618.565L92.2304 635.304L76.8584 635.304L15.3704 635.304L-0.00156132 635.304L-0.00156059 618.565L38.4284 618.565Z" fill="#393939"/>
<path d="M76.8584 693.935L76.8584 685.566L76.8584 677.196L69.1724 677.196L69.1724 668.827L61.4864 668.827L53.8004 668.827L38.4284 668.827L30.7424 668.827L23.0564 668.827L23.0564 677.196L15.3704 677.196L15.3704 685.566L15.3704 693.935L15.3704 702.305L15.3704 710.674L15.3704 719.044L23.0564 719.044L23.0564 727.413L30.7424 727.413L38.4284 727.413L61.4864 727.413L69.1724 727.413L69.1724 719.044L76.8584 719.044L76.8584 710.674L76.8584 702.305L76.8584 693.935ZM38.4284 744.152L15.3704 744.152L15.3704 735.783L7.68444 735.783L7.68444 727.413L-0.00156535 727.413L-0.00156425 702.305L-0.00156388 693.935L-0.00156279 668.827L7.68444 668.827L7.68444 660.457L15.3704 660.457L15.3704 652.088L30.7424 652.088L38.4284 652.088L46.1144 652.088L53.8004 652.088L76.8584 652.088L76.8584 660.457L84.5444 660.457L84.5444 668.827L92.2304 668.827L92.2304 685.566L92.2304 693.935L92.2304 702.305L92.2304 727.413L84.5444 727.413L84.5444 735.783L76.8584 735.783L76.8584 744.152L61.4864 744.152L38.4284 744.152Z" fill="#393939"/>
<path d="M76.8584 760.936L84.5444 760.936L92.2304 760.936L92.2304 769.305L92.2304 777.675L92.2304 802.783L92.2304 836.261L84.5444 836.261L84.5444 844.63L76.8584 844.63L76.8584 853L61.4864 853L53.8004 853L46.1144 853L46.1144 844.63L38.4284 844.63L38.4284 836.261L30.7424 836.261L30.7424 802.783L30.7424 777.675L-0.00156755 777.675L-0.00156681 760.936L30.7424 760.936L38.4284 760.936L46.1144 760.936L53.8004 760.936L61.4864 760.936L69.1724 760.936L76.8584 760.936ZM76.8584 802.783L76.8584 786.044L76.8584 777.675L53.8004 777.675L46.1144 777.675L46.1144 786.044L46.1144 802.783L46.1144 811.153L46.1144 819.522L46.1144 827.892L53.8004 827.892L53.8004 836.261L61.4864 836.261L69.1724 836.261L69.1724 827.892L76.8584 827.892L76.8584 819.522L76.8584 811.153L76.8584 802.783Z" fill="#393939"/>
<path d="M61.4865 74.3254L61.4865 72.3254L61.4865 74.3254ZM84.5445 74.3254L84.5445 76.3254L84.5445 74.3254ZM92.2305 74.3254L94.2305 74.3254L94.2305 72.3254L92.2305 72.3254L92.2305 74.3254ZM92.2305 91.0644L92.2305 93.0644L94.2305 93.0644L94.2305 91.0644L92.2305 91.0644ZM-0.00153753 91.0643L-2.00154 91.0643L-2.00154 93.0643L-0.00153762 93.0643L-0.00153753 91.0643ZM-0.0015368 74.3254L-0.00153671 72.3254L-2.00154 72.3254L-2.00154 74.3254L-0.0015368 74.3254ZM15.3705 74.3254L15.3705 76.3254L17.3705 76.3254L17.3705 74.3254L15.3705 74.3254ZM15.3705 65.9559L15.3705 63.9559L13.3705 63.9559L13.3705 65.9559L15.3705 65.9559ZM23.0565 65.9559L23.0565 67.9559L25.0565 67.9559L25.0565 65.9559L23.0565 65.9559ZM23.0565 57.5864L23.0565 55.5864L21.0565 55.5864L21.0565 57.5864L23.0565 57.5864ZM30.7425 57.5864L30.7425 59.5864L32.7425 59.5864L32.7425 57.5864L30.7425 57.5864ZM30.7425 49.2169L30.7425 47.2169L28.7425 47.2169L28.7425 49.2169L30.7425 49.2169ZM38.4285 49.2169L38.4285 51.2169L40.4285 51.2169L40.4285 49.2169L38.4285 49.2169ZM38.4285 40.8474L38.4285 38.8474L36.4285 38.8474L36.4285 40.8474L38.4285 40.8474ZM46.1145 40.8474L46.1145 42.8474L48.1145 42.8474L48.1145 40.8474L46.1145 40.8474ZM46.1145 32.4779L46.1145 30.4779L44.1145 30.4779L44.1145 32.4779L46.1145 32.4779ZM53.8005 32.4779L53.8005 34.4779L55.8005 34.4779L55.8005 32.4779L53.8005 32.4779ZM53.8005 24.1085L53.8005 22.1085L51.8005 22.1085L51.8005 24.1085L53.8005 24.1085ZM61.4865 24.1085L61.4865 26.1085L63.4865 26.1085L63.4865 24.1085L61.4865 24.1085ZM61.4865 15.739L63.4865 15.739L63.4865 13.739L61.4865 13.739L61.4865 15.739ZM-0.00153424 15.739L-2.00153 15.739L-2.00153 17.739L-0.00153433 17.739L-0.00153424 15.739ZM-0.00153387 7.36948L1.99847 7.36948L-0.00153387 7.36948ZM-0.00153351 -1L-0.00153342 -3L-2.00153 -3L-2.00153 -1L-0.00153351 -1ZM92.2305 -1L94.2305 -1L94.2305 -3L92.2305 -3L92.2305 -1ZM92.2305 15.739L92.2305 17.739L94.2305 17.739L94.2305 15.739L92.2305 15.739ZM84.5445 15.739L84.5445 13.739L82.5445 13.739L82.5445 15.739L84.5445 15.739ZM84.5445 24.1085L84.5445 26.1085L86.5445 26.1085L86.5445 24.1085L84.5445 24.1085ZM76.8585 24.1085L76.8585 22.1085L74.8585 22.1085L74.8585 24.1085L76.8585 24.1085ZM76.8585 32.478L76.8585 34.478L78.8585 34.478L78.8585 32.478L76.8585 32.478ZM69.1725 32.478L69.1725 30.4779L67.1725 30.4779L67.1725 32.4779L69.1725 32.478ZM69.1725 40.8474L69.1725 42.8474L71.1725 42.8474L71.1725 40.8474L69.1725 40.8474ZM61.4865 40.8474L61.4865 38.8474L59.4865 38.8474L59.4865 40.8474L61.4865 40.8474ZM61.4865 49.2169L61.4865 51.2169L63.4865 51.2169L63.4865 49.2169L61.4865 49.2169ZM53.8005 49.2169L53.8005 47.2169L51.8005 47.2169L51.8005 49.2169L53.8005 49.2169ZM53.8005 57.5864L53.8005 59.5864L55.8005 59.5864L55.8005 57.5864L53.8005 57.5864ZM46.1145 57.5864L46.1145 55.5864L44.1145 55.5864L44.1145 57.5864L46.1145 57.5864ZM46.1145 65.9559L46.1145 67.9559L48.1145 67.9559L48.1145 65.9559L46.1145 65.9559ZM38.4285 65.9559L38.4285 63.9559L36.4285 63.9559L36.4285 65.9559L38.4285 65.9559ZM38.4285 74.3254L36.4285 74.3254L36.4285 76.3254L38.4285 76.3254L38.4285 74.3254ZM92.2305 107.848L94.2305 107.848L94.2305 105.848L92.2305 105.848L92.2305 107.848ZM92.2305 124.587L94.2305 124.587L92.2305 124.587ZM92.2305 149.695L90.2305 149.695L92.2305 149.695ZM92.2305 199.912L92.2305 201.912L94.2305 201.912L94.2305 199.912L92.2305 199.912ZM76.8585 199.912L74.8585 199.912L74.8585 201.912L76.8585 201.912L76.8585 199.912ZM76.8585 191.543L78.8585 191.543L76.8585 191.543ZM76.8585 183.173L74.8585 183.173L76.8585 183.173ZM76.8585 149.695L74.8585 149.695L76.8585 149.695ZM76.8585 132.956L78.8585 132.956L76.8585 132.956ZM76.8585 124.587L78.8585 124.587L78.8585 122.587L76.8585 122.587L76.8585 124.587ZM53.8005 124.587L53.8005 122.587L51.8005 122.587L51.8005 124.587L53.8005 124.587ZM53.8005 183.173L53.8005 185.173L55.8005 185.173L55.8005 183.173L53.8005 183.173ZM38.4285 183.173L36.4285 183.173L36.4285 185.173L38.4285 185.173L38.4285 183.173ZM38.4285 124.587L40.4285 124.587L40.4285 122.587L38.4285 122.587L38.4285 124.587ZM-0.001539 124.587L-2.00154 124.587L-2.00154 126.587L-0.00153909 126.587L-0.001539 124.587ZM-0.00153827 107.848L-0.00153818 105.848L-2.00154 105.848L-2.00154 107.848L-0.00153827 107.848ZM23.0565 107.848L23.0565 105.848L23.0565 107.848ZM38.4285 107.848L38.4285 109.848L38.4285 107.848ZM46.1145 107.848L46.1145 109.848L46.1145 107.848ZM53.8005 107.848L53.8005 105.848L53.8005 107.848ZM76.8585 216.696L76.8585 214.696L74.8585 214.696L74.8585 216.696L76.8585 216.696ZM92.2305 216.696L94.2305 216.696L94.2305 214.696L92.2305 214.696L92.2305 216.696ZM92.2305 233.435L94.2305 233.435L92.2305 233.435ZM92.2305 258.543L90.2305 258.543L92.2305 258.543ZM92.2305 300.391L92.2305 302.391L94.2305 302.391L94.2305 300.391L92.2305 300.391ZM76.8585 300.391L74.8585 300.391L74.8585 302.391L76.8585 302.391L76.8585 300.391ZM76.8585 283.652L74.8585 283.652L76.8585 283.652ZM76.8585 266.913L78.8585 266.913L78.8585 264.913L76.8585 264.913L76.8585 266.913ZM38.4285 266.913L38.4285 268.913L38.4285 266.913ZM-0.00154522 266.913L-2.00155 266.913L-2.00155 268.913L-0.00154531 268.913L-0.00154522 266.913ZM-0.00154449 250.174L-0.0015444 248.174L-2.00154 248.174L-2.00154 250.174L-0.00154449 250.174ZM38.4285 250.174L38.4285 252.174L38.4285 250.174ZM76.8585 250.174L76.8585 252.174L78.8585 252.174L78.8585 250.174L76.8585 250.174ZM30.7424 451.131L30.7424 453.131L32.7424 453.131L32.7424 451.131L30.7424 451.131ZM23.0564 451.131L23.0564 449.131L21.0564 449.131L21.0564 451.131L23.0564 451.131ZM23.0564 459.5L23.0564 461.5L25.0564 461.5L25.0564 459.5L23.0564 459.5ZM15.3704 459.5L15.3704 457.5L13.3704 457.5L13.3704 459.5L15.3704 459.5ZM15.3704 501.348L13.3704 501.348L13.3704 503.348L15.3704 503.348L15.3704 501.348ZM23.0564 501.348L25.0564 501.348L25.0564 499.348L23.0564 499.348L23.0564 501.348ZM23.0564 509.717L21.0564 509.717L21.0564 511.717L23.0564 511.717L23.0564 509.717ZM30.7424 509.717L30.7424 511.717L32.7424 511.717L32.7424 509.717L30.7424 509.717ZM30.7424 501.348L30.7424 499.348L28.7424 499.348L28.7424 501.348L30.7424 501.348ZM38.4284 501.348L38.4284 503.348L40.4284 503.348L40.4284 501.348L38.4284 501.348ZM38.4285 451.131L38.4285 449.131L36.4285 449.131L36.4285 451.131L38.4285 451.131ZM46.1144 451.131L46.1144 453.131L48.1144 453.131L48.1144 451.131L46.1144 451.131ZM46.1144 442.761L46.1144 440.761L44.1144 440.761L44.1144 442.761L46.1144 442.761ZM53.8004 442.761L53.8004 444.761L55.8004 444.761L55.8004 442.761L53.8004 442.761ZM53.8004 434.392L53.8004 432.392L51.8004 432.392L51.8004 434.392L53.8004 434.392ZM69.1724 434.392L69.1724 436.392L69.1724 434.392ZM76.8585 434.392L78.8585 434.392L78.8585 432.392L76.8585 432.392L76.8585 434.392ZM76.8585 442.761L74.8585 442.761L74.8585 444.761L76.8585 444.761L76.8585 442.761ZM84.5444 442.761L86.5444 442.761L86.5444 440.761L84.5444 440.761L84.5444 442.761ZM84.5444 451.131L82.5444 451.131L82.5444 453.131L84.5444 453.131L84.5444 451.131ZM92.2304 451.131L94.2304 451.131L94.2304 449.131L92.2304 449.131L92.2304 451.131ZM92.2304 509.717L92.2304 511.717L94.2304 511.717L94.2304 509.717L92.2304 509.717ZM84.5444 509.717L84.5444 507.717L82.5444 507.717L82.5444 509.717L84.5444 509.717ZM84.5444 518.087L84.5444 520.087L86.5444 520.087L86.5444 518.087L84.5444 518.087ZM76.8584 518.087L76.8584 516.087L74.8584 516.087L74.8584 518.087L76.8584 518.087ZM76.8584 526.456L76.8584 528.456L78.8584 528.456L78.8584 526.456L76.8584 526.456ZM61.4864 526.456L59.4864 526.456L59.4864 528.456L61.4864 528.456L61.4864 526.456ZM61.4864 509.717L61.4864 507.717L59.4864 507.717L59.4864 509.717L61.4864 509.717ZM69.1724 509.717L69.1724 511.717L71.1724 511.717L71.1724 509.717L69.1724 509.717ZM69.1724 501.348L69.1724 499.348L67.1724 499.348L67.1724 501.348L69.1724 501.348ZM76.8584 501.348L76.8584 503.348L78.8584 503.348L78.8584 501.348L76.8584 501.348ZM76.8585 467.87L78.8585 467.87L76.8585 467.87ZM76.8585 459.5L78.8585 459.5L78.8585 457.5L76.8585 457.5L76.8585 459.5ZM69.1724 459.5L67.1724 459.5L67.1724 461.5L69.1724 461.5L69.1724 459.5ZM69.1724 451.131L71.1724 451.131L71.1724 449.131L69.1724 449.131L69.1724 451.131ZM61.4864 451.131L61.4864 449.131L59.4864 449.131L59.4864 451.131L61.4864 451.131ZM61.4864 459.5L61.4864 461.5L63.4864 461.5L63.4864 459.5L61.4864 459.5ZM53.8004 459.5L53.8004 457.5L51.8004 457.5L51.8004 459.5L53.8004 459.5ZM53.8004 509.717L53.8004 511.717L55.8004 511.717L55.8004 509.717L53.8004 509.717ZM46.1144 509.717L46.1144 507.717L44.1144 507.717L44.1144 509.717L46.1144 509.717ZM46.1144 518.087L46.1144 520.087L48.1144 520.087L48.1144 518.087L46.1144 518.087ZM38.4284 518.087L38.4284 516.087L36.4284 516.087L36.4284 518.087L38.4284 518.087ZM38.4284 526.456L38.4284 528.456L40.4284 528.456L40.4284 526.456L38.4284 526.456ZM30.7424 526.456L30.7424 524.456L30.7424 526.456ZM15.3704 526.456L13.3704 526.456L13.3704 528.456L15.3704 528.456L15.3704 526.456ZM15.3704 518.087L17.3704 518.087L17.3704 516.087L15.3704 516.087L15.3704 518.087ZM7.68445 518.087L5.68445 518.087L5.68445 520.087L7.68445 520.087L7.68445 518.087ZM7.68445 509.717L9.68445 509.717L9.68445 507.717L7.68445 507.717L7.68445 509.717ZM-0.00155583 509.717L-2.00156 509.717L-2.00156 511.717L-0.00155592 511.717L-0.00155583 509.717ZM-0.00155327 451.131L-0.00155318 449.131L-2.00155 449.131L-2.00155 451.131L-0.00155327 451.131ZM7.68445 451.131L7.68445 453.131L9.68445 453.131L9.68445 451.131L7.68445 451.131ZM7.68445 442.761L7.68445 440.761L5.68445 440.761L5.68445 442.761L7.68445 442.761ZM15.3704 442.761L15.3704 444.761L17.3704 444.761L17.3704 442.761L15.3704 442.761ZM15.3704 434.392L15.3704 432.392L13.3704 432.392L13.3704 434.392L15.3704 434.392ZM30.7424 434.392L32.7424 434.392L32.7424 432.392L30.7424 432.392L30.7424 434.392ZM38.4284 618.565L38.4284 620.565L40.4284 620.565L40.4284 618.565L38.4284 618.565ZM38.4284 559.979L40.4284 559.979L40.4284 557.979L38.4284 557.979L38.4284 559.979ZM-0.00155803 559.979L-2.00156 559.979L-2.00156 561.979L-0.00155812 561.979L-0.00155803 559.979ZM-0.0015573 543.24L-0.00155721 541.24L-2.00156 541.24L-2.00156 543.24L-0.0015573 543.24ZM7.68445 543.24L7.68445 541.24L7.68445 543.24ZM23.0564 543.24L23.0564 541.24L23.0564 543.24ZM38.4284 543.24L38.4284 545.24L38.4284 543.24ZM69.1724 543.24L69.1724 545.24L69.1724 543.24ZM76.8584 543.24L76.8584 541.24L76.8584 543.24ZM92.2304 543.24L94.2304 543.24L94.2304 541.24L92.2304 541.24L92.2304 543.24ZM92.2304 559.979L92.2304 561.979L94.2304 561.979L94.2304 559.979L92.2304 559.979ZM53.8004 559.979L53.8004 557.979L51.8004 557.979L51.8004 559.979L53.8004 559.979ZM53.8004 618.565L51.8004 618.565L51.8004 620.565L53.8004 620.565L53.8004 618.565ZM92.2304 618.565L94.2304 618.565L94.2304 616.565L92.2304 616.565L92.2304 618.565ZM92.2304 635.304L92.2304 637.304L94.2304 637.304L94.2304 635.304L92.2304 635.304ZM76.8584 635.304L76.8584 637.304L76.8584 635.304ZM-0.00156132 635.304L-2.00156 635.304L-2.00156 637.304L-0.00156141 637.304L-0.00156132 635.304ZM-0.00156059 618.565L-0.0015605 616.565L-2.00156 616.565L-2.00156 618.565L-0.00156059 618.565ZM76.8584 677.196L78.8584 677.196L78.8584 675.196L76.8584 675.196L76.8584 677.196ZM69.1724 677.196L67.1724 677.196L67.1724 679.196L69.1724 679.196L69.1724 677.196ZM69.1724 668.827L71.1724 668.827L71.1724 666.827L69.1724 666.827L69.1724 668.827ZM30.7424 668.827L30.7424 670.827L30.7424 668.827ZM23.0564 668.827L23.0564 666.827L21.0564 666.827L21.0564 668.827L23.0564 668.827ZM23.0564 677.196L23.0564 679.196L25.0564 679.196L25.0564 677.196L23.0564 677.196ZM15.3704 677.196L15.3704 675.196L13.3704 675.196L13.3704 677.196L15.3704 677.196ZM15.3704 719.044L13.3704 719.044L13.3704 721.044L15.3704 721.044L15.3704 719.044ZM23.0564 719.044L25.0564 719.044L25.0564 717.044L23.0564 717.044L23.0564 719.044ZM23.0564 727.413L21.0564 727.413L21.0564 729.413L23.0564 729.413L23.0564 727.413ZM69.1724 727.413L69.1724 729.413L71.1724 729.413L71.1724 727.413L69.1724 727.413ZM69.1724 719.044L69.1724 717.044L67.1724 717.044L67.1724 719.044L69.1724 719.044ZM76.8584 719.044L76.8584 721.044L78.8584 721.044L78.8584 719.044L76.8584 719.044ZM15.3704 744.152L13.3704 744.152L13.3704 746.152L15.3704 746.152L15.3704 744.152ZM15.3704 735.783L17.3704 735.783L17.3704 733.783L15.3704 733.783L15.3704 735.783ZM7.68444 735.783L5.68444 735.783L5.68444 737.783L7.68444 737.783L7.68444 735.783ZM7.68444 727.413L9.68444 727.413L9.68444 725.413L7.68444 725.413L7.68444 727.413ZM-0.00156535 727.413L-2.00157 727.413L-2.00157 729.413L-0.00156544 729.413L-0.00156535 727.413ZM-0.00156388 693.935L1.99844 693.935L-0.00156388 693.935ZM-0.00156279 668.827L-0.0015627 666.827L-2.00156 666.827L-2.00156 668.827L-0.00156279 668.827ZM7.68444 668.827L7.68444 670.827L9.68444 670.827L9.68444 668.827L7.68444 668.827ZM7.68444 660.457L7.68444 658.457L5.68444 658.457L5.68444 660.457L7.68444 660.457ZM15.3704 660.457L15.3704 662.457L17.3704 662.457L17.3704 660.457L15.3704 660.457ZM15.3704 652.088L15.3704 650.088L13.3704 650.088L13.3704 652.088L15.3704 652.088ZM76.8584 652.088L78.8584 652.088L78.8584 650.088L76.8584 650.088L76.8584 652.088ZM76.8584 660.457L74.8584 660.457L74.8584 662.457L76.8584 662.457L76.8584 660.457ZM84.5444 660.457L86.5444 660.457L86.5444 658.457L84.5444 658.457L84.5444 660.457ZM84.5444 668.827L82.5444 668.827L82.5444 670.827L84.5444 670.827L84.5444 668.827ZM92.2304 668.827L94.2304 668.827L94.2304 666.827L92.2304 666.827L92.2304 668.827ZM92.2304 685.566L94.2304 685.566L92.2304 685.566ZM92.2304 727.413L92.2304 729.413L94.2304 729.413L94.2304 727.413L92.2304 727.413ZM84.5444 727.413L84.5444 725.413L82.5444 725.413L82.5444 727.413L84.5444 727.413ZM84.5444 735.783L84.5444 737.783L86.5444 737.783L86.5444 735.783L84.5444 735.783ZM76.8584 735.783L76.8584 733.783L74.8584 733.783L74.8584 735.783L76.8584 735.783ZM76.8584 744.152L76.8584 746.152L78.8584 746.152L78.8584 744.152L76.8584 744.152ZM92.2304 760.936L94.2304 760.936L94.2304 758.936L92.2304 758.936L92.2304 760.936ZM92.2304 802.783L90.2304 802.783L92.2304 802.783ZM92.2304 836.261L92.2304 838.261L94.2304 838.261L94.2304 836.261L92.2304 836.261ZM84.5444 836.261L84.5444 834.261L82.5444 834.261L82.5444 836.261L84.5444 836.261ZM84.5444 844.63L84.5444 846.63L86.5444 846.63L86.5444 844.63L84.5444 844.63ZM76.8584 844.63L76.8584 842.63L74.8584 842.63L74.8584 844.63L76.8584 844.63ZM76.8584 853L76.8584 855L78.8584 855L78.8584 853L76.8584 853ZM46.1144 853L44.1144 853L44.1144 855L46.1144 855L46.1144 853ZM46.1144 844.63L48.1144 844.63L48.1144 842.63L46.1144 842.63L46.1144 844.63ZM38.4284 844.63L36.4284 844.63L36.4284 846.63L38.4284 846.63L38.4284 844.63ZM38.4284 836.261L40.4284 836.261L40.4284 834.261L38.4284 834.261L38.4284 836.261ZM30.7424 836.261L28.7424 836.261L28.7424 838.261L30.7424 838.261L30.7424 836.261ZM30.7424 802.783L28.7424 802.783L30.7424 802.783ZM30.7424 777.675L32.7424 777.675L32.7424 775.675L30.7424 775.675L30.7424 777.675ZM-0.00156755 777.675L-2.00157 777.675L-2.00157 779.675L-0.00156763 779.675L-0.00156755 777.675ZM-0.00156681 760.936L-0.00156673 758.936L-2.00157 758.936L-2.00157 760.936L-0.00156681 760.936ZM76.8584 802.783L74.8584 802.783L76.8584 802.783ZM76.8584 786.044L78.8584 786.044L76.8584 786.044ZM76.8584 777.675L78.8584 777.675L78.8584 775.675L76.8584 775.675L76.8584 777.675ZM46.1144 777.675L46.1144 775.675L44.1144 775.675L44.1144 777.675L46.1144 777.675ZM46.1144 786.044L48.1144 786.044L46.1144 786.044ZM46.1144 802.783L44.1144 802.783L46.1144 802.783ZM46.1144 811.153L48.1144 811.153L46.1144 811.153ZM46.1144 827.892L44.1144 827.892L44.1144 829.892L46.1144 829.892L46.1144 827.892ZM53.8004 827.892L55.8004 827.892L55.8004 825.892L53.8004 825.892L53.8004 827.892ZM53.8004 836.261L51.8004 836.261L51.8004 838.261L53.8004 838.261L53.8004 836.261ZM69.1724 836.261L69.1724 838.261L71.1724 838.261L71.1724 836.261L69.1724 836.261ZM69.1724 827.892L69.1724 825.892L67.1724 825.892L67.1724 827.892L69.1724 827.892ZM76.8584 827.892L76.8584 829.892L78.8584 829.892L78.8584 827.892L76.8584 827.892ZM76.8584 811.153L78.8584 811.153L76.8584 811.153ZM61.4865 76.3254L84.5445 76.3254L84.5445 72.3254L61.4865 72.3254L61.4865 76.3254ZM84.5445 76.3254L92.2305 76.3254L92.2305 72.3254L84.5445 72.3254L84.5445 76.3254ZM90.2305 74.3254L90.2305 91.0644L94.2305 91.0644L94.2305 74.3254L90.2305 74.3254ZM92.2305 89.0644L84.5445 89.0644L84.5445 93.0644L92.2305 93.0644L92.2305 89.0644ZM84.5445 89.0644L76.8585 89.0644L76.8585 93.0644L84.5445 93.0644L84.5445 89.0644ZM76.8585 89.0644L15.3705 89.0644L15.3705 93.0644L76.8585 93.0644L76.8585 89.0644ZM15.3705 89.0644L-0.00153745 89.0643L-0.00153762 93.0643L15.3705 93.0644L15.3705 89.0644ZM1.99846 91.0643L1.99846 74.3254L-2.00154 74.3254L-2.00154 91.0643L1.99846 91.0643ZM-0.00153689 76.3254L15.3705 76.3254L15.3705 72.3254L-0.00153671 72.3254L-0.00153689 76.3254ZM17.3705 74.3254L17.3705 65.9559L13.3705 65.9559L13.3705 74.3254L17.3705 74.3254ZM15.3705 67.9559L23.0565 67.9559L23.0565 63.9559L15.3705 63.9559L15.3705 67.9559ZM25.0565 65.9559L25.0565 57.5864L21.0565 57.5864L21.0565 65.9559L25.0565 65.9559ZM23.0565 59.5864L30.7425 59.5864L30.7425 55.5864L23.0565 55.5864L23.0565 59.5864ZM32.7425 57.5864L32.7425 49.2169L28.7425 49.2169L28.7425 57.5864L32.7425 57.5864ZM30.7425 51.2169L38.4285 51.2169L38.4285 47.2169L30.7425 47.2169L30.7425 51.2169ZM40.4285 49.2169L40.4285 40.8474L36.4285 40.8474L36.4285 49.2169L40.4285 49.2169ZM38.4285 42.8474L46.1145 42.8474L46.1145 38.8474L38.4285 38.8474L38.4285 42.8474ZM48.1145 40.8474L48.1145 32.4779L44.1145 32.4779L44.1145 40.8474L48.1145 40.8474ZM46.1145 34.4779L53.8005 34.4779L53.8005 30.4779L46.1145 30.4779L46.1145 34.4779ZM55.8005 32.4779L55.8005 24.1085L51.8005 24.1085L51.8005 32.4779L55.8005 32.4779ZM53.8005 26.1085L61.4865 26.1085L61.4865 22.1085L53.8005 22.1085L53.8005 26.1085ZM63.4865 24.1085L63.4865 15.739L59.4865 15.739L59.4865 24.1085L63.4865 24.1085ZM61.4865 13.739L38.4285 13.739L38.4285 17.739L61.4865 17.739L61.4865 13.739ZM38.4285 13.739L-0.00153415 13.739L-0.00153433 17.739L38.4285 17.739L38.4285 13.739ZM1.99847 15.739L1.99847 7.36948L-2.00153 7.36948L-2.00153 15.739L1.99847 15.739ZM1.99847 7.36948L1.99847 -1L-2.00153 -1L-2.00153 7.36948L1.99847 7.36948ZM-0.0015336 0.999996L7.68447 0.999996L7.68447 -3L-0.00153342 -3L-0.0015336 0.999996ZM7.68447 0.999996L15.3705 0.999997L15.3705 -3L7.68447 -3L7.68447 0.999996ZM15.3705 0.999997L23.0565 0.999997L23.0565 -3L15.3705 -3L15.3705 0.999997ZM23.0565 0.999997L38.4285 0.999998L38.4285 -3L23.0565 -3L23.0565 0.999997ZM38.4285 0.999998L46.1145 0.999998L46.1145 -3L38.4285 -3L38.4285 0.999998ZM46.1145 0.999998L53.8005 0.999998L53.8005 -3L46.1145 -3L46.1145 0.999998ZM53.8005 0.999998L61.4865 0.999999L61.4865 -3L53.8005 -3L53.8005 0.999998ZM61.4865 0.999999L69.1725 0.999999L69.1725 -3L61.4865 -3L61.4865 0.999999ZM69.1725 0.999999L76.8585 0.999999L76.8585 -3L69.1725 -3L69.1725 0.999999ZM76.8585 0.999999L84.5445 1L84.5445 -3L76.8585 -3L76.8585 0.999999ZM84.5445 1L92.2305 1L92.2305 -3L84.5445 -3L84.5445 1ZM90.2305 -1L90.2305 7.36949L94.2305 7.36949L94.2305 -1L90.2305 -1ZM90.2305 7.36949L90.2305 15.739L94.2305 15.739L94.2305 7.36949L90.2305 7.36949ZM92.2305 13.739L84.5445 13.739L84.5445 17.739L92.2305 17.739L92.2305 13.739ZM82.5445 15.739L82.5445 24.1085L86.5445 24.1085L86.5445 15.739L82.5445 15.739ZM84.5445 22.1085L76.8585 22.1085L76.8585 26.1085L84.5445 26.1085L84.5445 22.1085ZM74.8585 24.1085L74.8585 32.478L78.8585 32.478L78.8585 24.1085L74.8585 24.1085ZM76.8585 30.4779L69.1725 30.4779L69.1725 34.478L76.8585 34.478L76.8585 30.4779ZM67.1725 32.4779L67.1725 40.8474L71.1725 40.8474L71.1725 32.478L67.1725 32.4779ZM69.1725 38.8474L61.4865 38.8474L61.4865 42.8474L69.1725 42.8474L69.1725 38.8474ZM59.4865 40.8474L59.4865 49.2169L63.4865 49.2169L63.4865 40.8474L59.4865 40.8474ZM61.4865 47.2169L53.8005 47.2169L53.8005 51.2169L61.4865 51.2169L61.4865 47.2169ZM51.8005 49.2169L51.8005 57.5864L55.8005 57.5864L55.8005 49.2169L51.8005 49.2169ZM53.8005 55.5864L46.1145 55.5864L46.1145 59.5864L53.8005 59.5864L53.8005 55.5864ZM44.1145 57.5864L44.1145 65.9559L48.1145 65.9559L48.1145 57.5864L44.1145 57.5864ZM46.1145 63.9559L38.4285 63.9559L38.4285 67.9559L46.1145 67.9559L46.1145 63.9559ZM36.4285 65.9559L36.4285 74.3254L40.4285 74.3254L40.4285 65.9559L36.4285 65.9559ZM38.4285 76.3254L61.4865 76.3254L61.4865 72.3254L38.4285 72.3254L38.4285 76.3254ZM76.8585 109.848L84.5445 109.848L84.5445 105.848L76.8585 105.848L76.8585 109.848ZM84.5445 109.848L92.2305 109.848L92.2305 105.848L84.5445 105.848L84.5445 109.848ZM90.2305 107.848L90.2305 116.217L94.2305 116.217L94.2305 107.848L90.2305 107.848ZM90.2305 116.217L90.2305 124.587L94.2305 124.587L94.2305 116.217L90.2305 116.217ZM90.2305 124.587L90.2305 149.695L94.2305 149.695L94.2305 124.587L90.2305 124.587ZM90.2305 149.695L90.2305 199.912L94.2305 199.912L94.2305 149.695L90.2305 149.695ZM92.2305 197.912L76.8585 197.912L76.8585 201.912L92.2305 201.912L92.2305 197.912ZM78.8585 199.912L78.8585 191.543L74.8585 191.543L74.8585 199.912L78.8585 199.912ZM78.8585 191.543L78.8585 183.173L74.8585 183.173L74.8585 191.543L78.8585 191.543ZM78.8585 183.173L78.8585 166.434L74.8585 166.434L74.8585 183.173L78.8585 183.173ZM78.8585 166.434L78.8585 158.065L74.8585 158.065L74.8585 166.434L78.8585 166.434ZM78.8585 158.065L78.8585 149.695L74.8585 149.695L74.8585 158.065L78.8585 158.065ZM78.8585 149.695L78.8585 132.956L74.8585 132.956L74.8585 149.695L78.8585 149.695ZM78.8585 132.956L78.8585 124.587L74.8585 124.587L74.8585 132.956L78.8585 132.956ZM76.8585 122.587L53.8005 122.587L53.8005 126.587L76.8585 126.587L76.8585 122.587ZM51.8005 124.587L51.8005 183.173L55.8005 183.173L55.8005 124.587L51.8005 124.587ZM53.8005 181.173L38.4285 181.173L38.4285 185.173L53.8005 185.173L53.8005 181.173ZM40.4285 183.173L40.4285 124.587L36.4285 124.587L36.4285 183.173L40.4285 183.173ZM38.4285 122.587L-0.00153891 122.587L-0.00153909 126.587L38.4285 126.587L38.4285 122.587ZM1.99846 124.587L1.99846 116.217L-2.00154 116.217L-2.00154 124.587L1.99846 124.587ZM1.99846 116.217L1.99846 107.848L-2.00154 107.848L-2.00154 116.217L1.99846 116.217ZM-0.00153835 109.848L7.68447 109.848L7.68447 105.848L-0.00153818 105.848L-0.00153835 109.848ZM7.68447 109.848L15.3705 109.848L15.3705 105.848L7.68447 105.848L7.68447 109.848ZM15.3705 109.848L23.0565 109.848L23.0565 105.848L15.3705 105.848L15.3705 109.848ZM23.0565 109.848L38.4285 109.848L38.4285 105.848L23.0565 105.848L23.0565 109.848ZM38.4285 109.848L46.1145 109.848L46.1145 105.848L38.4285 105.848L38.4285 109.848ZM46.1145 109.848L53.8005 109.848L53.8005 105.848L46.1145 105.848L46.1145 109.848ZM53.8005 109.848L61.4865 109.848L61.4865 105.848L53.8005 105.848L53.8005 109.848ZM61.4865 109.848L69.1725 109.848L69.1725 105.848L61.4865 105.848L61.4865 109.848ZM69.1725 109.848L76.8585 109.848L76.8585 105.848L69.1725 105.848L69.1725 109.848ZM76.8585 218.696L84.5445 218.696L84.5445 214.696L76.8585 214.696L76.8585 218.696ZM84.5445 218.696L92.2305 218.696L92.2305 214.696L84.5445 214.696L84.5445 218.696ZM90.2305 216.696L90.2305 225.065L94.2305 225.065L94.2305 216.696L90.2305 216.696ZM90.2305 225.065L90.2305 233.435L94.2305 233.435L94.2305 225.065L90.2305 225.065ZM90.2305 233.435L90.2305 258.543L94.2305 258.543L94.2305 233.435L90.2305 233.435ZM90.2305 258.543L90.2305 300.391L94.2305 300.391L94.2305 258.543L90.2305 258.543ZM92.2305 298.391L76.8585 298.391L76.8585 302.391L92.2305 302.391L92.2305 298.391ZM78.8585 300.391L78.8585 292.021L74.8585 292.021L74.8585 300.391L78.8585 300.391ZM78.8585 292.021L78.8585 283.652L74.8585 283.652L74.8585 292.021L78.8585 292.021ZM78.8585 283.652L78.8585 266.913L74.8585 266.913L74.8585 283.652L78.8585 283.652ZM76.8585 264.913L38.4285 264.913L38.4285 268.913L76.8585 268.913L76.8585 264.913ZM38.4285 264.913L-0.00154513 264.913L-0.00154531 268.913L38.4285 268.913L38.4285 264.913ZM1.99845 266.913L1.99846 250.174L-2.00154 250.174L-2.00155 266.913L1.99845 266.913ZM-0.00154457 252.174L38.4285 252.174L38.4285 248.174L-0.0015444 248.174L-0.00154457 252.174ZM38.4285 252.174L76.8585 252.174L76.8585 248.174L38.4285 248.174L38.4285 252.174ZM78.8585 250.174L78.8585 241.804L74.8585 241.804L74.8585 250.174L78.8585 250.174ZM78.8585 241.804L78.8585 216.696L74.8585 216.696L74.8585 241.804L78.8585 241.804ZM30.7424 449.131L23.0564 449.131L23.0564 453.131L30.7424 453.131L30.7424 449.131ZM21.0564 451.131L21.0564 459.5L25.0564 459.5L25.0564 451.131L21.0564 451.131ZM23.0564 457.5L15.3704 457.5L15.3704 461.5L23.0564 461.5L23.0564 457.5ZM13.3704 459.5L13.3704 467.87L17.3704 467.87L17.3704 459.5L13.3704 459.5ZM13.3704 467.87L13.3704 476.239L17.3704 476.239L17.3704 467.87L13.3704 467.87ZM13.3704 476.239L13.3704 484.609L17.3704 484.609L17.3704 476.239L13.3704 476.239ZM13.3704 484.609L13.3704 492.978L17.3704 492.978L17.3704 484.609L13.3704 484.609ZM13.3704 492.978L13.3704 501.348L17.3704 501.348L17.3704 492.978L13.3704 492.978ZM15.3704 503.348L23.0564 503.348L23.0564 499.348L15.3704 499.348L15.3704 503.348ZM21.0564 501.348L21.0564 509.717L25.0564 509.717L25.0564 501.348L21.0564 501.348ZM23.0564 511.717L30.7424 511.717L30.7424 507.717L23.0564 507.717L23.0564 511.717ZM32.7424 509.717L32.7424 501.348L28.7424 501.348L28.7424 509.717L32.7424 509.717ZM30.7424 503.348L38.4284 503.348L38.4284 499.348L30.7424 499.348L30.7424 503.348ZM40.4284 501.348L40.4284 492.978L36.4284 492.978L36.4284 501.348L40.4284 501.348ZM40.4284 492.978L40.4284 484.609L36.4284 484.609L36.4284 492.978L40.4284 492.978ZM40.4284 484.609L40.4284 476.239L36.4284 476.239L36.4284 484.609L40.4284 484.609ZM40.4284 476.239L40.4285 451.131L36.4285 451.131L36.4284 476.239L40.4284 476.239ZM38.4285 453.131L46.1144 453.131L46.1144 449.131L38.4285 449.131L38.4285 453.131ZM48.1144 451.131L48.1144 442.761L44.1144 442.761L44.1144 451.131L48.1144 451.131ZM46.1144 444.761L53.8004 444.761L53.8004 440.761L46.1144 440.761L46.1144 444.761ZM55.8004 442.761L55.8004 434.392L51.8004 434.392L51.8004 442.761L55.8004 442.761ZM53.8004 436.392L61.4864 436.392L61.4864 432.392L53.8004 432.392L53.8004 436.392ZM61.4864 436.392L69.1724 436.392L69.1724 432.392L61.4864 432.392L61.4864 436.392ZM69.1724 436.392L76.8585 436.392L76.8585 432.392L69.1724 432.392L69.1724 436.392ZM74.8585 434.392L74.8585 442.761L78.8585 442.761L78.8585 434.392L74.8585 434.392ZM76.8585 444.761L84.5444 444.761L84.5444 440.761L76.8585 440.761L76.8585 444.761ZM82.5444 442.761L82.5444 451.131L86.5444 451.131L86.5444 442.761L82.5444 442.761ZM84.5444 453.131L92.2304 453.131L92.2304 449.131L84.5444 449.131L84.5444 453.131ZM90.2304 451.131L90.2304 467.87L94.2304 467.87L94.2304 451.131L90.2304 451.131ZM90.2304 467.87L90.2304 476.239L94.2304 476.239L94.2304 467.87L90.2304 467.87ZM90.2304 476.239L90.2304 484.609L94.2304 484.609L94.2304 476.239L90.2304 476.239ZM90.2304 484.609L90.2304 509.717L94.2304 509.717L94.2304 484.609L90.2304 484.609ZM92.2304 507.717L84.5444 507.717L84.5444 511.717L92.2304 511.717L92.2304 507.717ZM82.5444 509.717L82.5444 518.087L86.5444 518.087L86.5444 509.717L82.5444 509.717ZM84.5444 516.087L76.8584 516.087L76.8584 520.087L84.5444 520.087L84.5444 516.087ZM74.8584 518.087L74.8584 526.456L78.8584 526.456L78.8584 518.087L74.8584 518.087ZM76.8584 524.456L61.4864 524.456L61.4864 528.456L76.8584 528.456L76.8584 524.456ZM63.4864 526.456L63.4864 509.717L59.4864 509.717L59.4864 526.456L63.4864 526.456ZM61.4864 511.717L69.1724 511.717L69.1724 507.717L61.4864 507.717L61.4864 511.717ZM71.1724 509.717L71.1724 501.348L67.1724 501.348L67.1724 509.717L71.1724 509.717ZM69.1724 503.348L76.8584 503.348L76.8584 499.348L69.1724 499.348L69.1724 503.348ZM78.8584 501.348L78.8585 492.978L74.8584 492.978L74.8584 501.348L78.8584 501.348ZM78.8585 492.978L78.8585 484.609L74.8584 484.609L74.8584 492.978L78.8585 492.978ZM78.8585 484.609L78.8585 476.239L74.8585 476.239L74.8584 484.609L78.8585 484.609ZM78.8585 476.239L78.8585 467.87L74.8585 467.87L74.8585 476.239L78.8585 476.239ZM78.8585 467.87L78.8585 459.5L74.8585 459.5L74.8585 467.87L78.8585 467.87ZM76.8585 457.5L69.1724 457.5L69.1724 461.5L76.8585 461.5L76.8585 457.5ZM71.1724 459.5L71.1724 451.131L67.1724 451.131L67.1724 459.5L71.1724 459.5ZM69.1724 449.131L61.4864 449.131L61.4864 453.131L69.1724 453.131L69.1724 449.131ZM59.4864 451.131L59.4864 459.5L63.4864 459.5L63.4864 451.131L59.4864 451.131ZM61.4864 457.5L53.8004 457.5L53.8004 461.5L61.4864 461.5L61.4864 457.5ZM51.8004 459.5L51.8004 467.87L55.8004 467.87L55.8004 459.5L51.8004 459.5ZM51.8004 467.87L51.8004 476.239L55.8004 476.239L55.8004 467.87L51.8004 467.87ZM51.8004 476.239L51.8004 484.609L55.8004 484.609L55.8004 476.239L51.8004 476.239ZM51.8004 484.609L51.8004 509.717L55.8004 509.717L55.8004 484.609L51.8004 484.609ZM53.8004 507.717L46.1144 507.717L46.1144 511.717L53.8004 511.717L53.8004 507.717ZM44.1144 509.717L44.1144 518.087L48.1144 518.087L48.1144 509.717L44.1144 509.717ZM46.1144 516.087L38.4284 516.087L38.4284 520.087L46.1144 520.087L46.1144 516.087ZM36.4284 518.087L36.4284 526.456L40.4284 526.456L40.4284 518.087L36.4284 518.087ZM38.4284 524.456L30.7424 524.456L30.7424 528.456L38.4284 528.456L38.4284 524.456ZM30.7424 524.456L23.0564 524.456L23.0564 528.456L30.7424 528.456L30.7424 524.456ZM23.0564 524.456L15.3704 524.456L15.3704 528.456L23.0564 528.456L23.0564 524.456ZM17.3704 526.456L17.3704 518.087L13.3704 518.087L13.3704 526.456L17.3704 526.456ZM15.3704 516.087L7.68445 516.087L7.68445 520.087L15.3704 520.087L15.3704 516.087ZM9.68445 518.087L9.68445 509.717L5.68445 509.717L5.68445 518.087L9.68445 518.087ZM7.68445 507.717L-0.00155575 507.717L-0.00155592 511.717L7.68445 511.717L7.68445 507.717ZM1.99844 509.717L1.99845 484.609L-2.00155 484.609L-2.00156 509.717L1.99844 509.717ZM1.99845 484.609L1.99845 476.239L-2.00155 476.239L-2.00155 484.609L1.99845 484.609ZM1.99845 476.239L1.99845 451.131L-2.00155 451.131L-2.00155 476.239L1.99845 476.239ZM-0.00155336 453.131L7.68445 453.131L7.68445 449.131L-0.00155318 449.131L-0.00155336 453.131ZM9.68445 451.131L9.68445 442.761L5.68445 442.761L5.68445 451.131L9.68445 451.131ZM7.68445 444.761L15.3704 444.761L15.3704 440.761L7.68445 440.761L7.68445 444.761ZM17.3704 442.761L17.3704 434.392L13.3704 434.392L13.3704 442.761L17.3704 442.761ZM15.3704 436.392L30.7424 436.392L30.7424 432.392L15.3704 432.392L15.3704 436.392ZM28.7424 434.392L28.7424 451.131L32.7424 451.131L32.7424 434.392L28.7424 434.392ZM40.4284 618.565L40.4284 559.979L36.4284 559.979L36.4284 618.565L40.4284 618.565ZM38.4284 557.979L-0.00155794 557.979L-0.00155812 561.979L38.4284 561.979L38.4284 557.979ZM1.99844 559.979L1.99844 551.609L-2.00156 551.609L-2.00156 559.979L1.99844 559.979ZM1.99844 551.609L1.99844 543.24L-2.00156 543.24L-2.00156 551.609L1.99844 551.609ZM-0.00155739 545.24L7.68445 545.24L7.68445 541.24L-0.00155721 541.24L-0.00155739 545.24ZM7.68445 545.24L15.3704 545.24L15.3704 541.24L7.68445 541.24L7.68445 545.24ZM15.3704 545.24L23.0564 545.24L23.0564 541.24L15.3704 541.24L15.3704 545.24ZM23.0564 545.24L38.4284 545.24L38.4284 541.24L23.0564 541.24L23.0564 545.24ZM38.4284 545.24L46.1144 545.24L46.1144 541.24L38.4284 541.24L38.4284 545.24ZM46.1144 545.24L53.8004 545.24L53.8004 541.24L46.1144 541.24L46.1144 545.24ZM53.8004 545.24L61.4864 545.24L61.4864 541.24L53.8004 541.24L53.8004 545.24ZM61.4864 545.24L69.1724 545.24L69.1724 541.24L61.4864 541.24L61.4864 545.24ZM69.1724 545.24L76.8584 545.24L76.8584 541.24L69.1724 541.24L69.1724 545.24ZM76.8584 545.24L84.5444 545.24L84.5444 541.24L76.8584 541.24L76.8584 545.24ZM84.5444 545.24L92.2304 545.24L92.2304 541.24L84.5444 541.24L84.5444 545.24ZM90.2304 543.24L90.2304 551.609L94.2304 551.609L94.2304 543.24L90.2304 543.24ZM90.2304 551.609L90.2304 559.979L94.2304 559.979L94.2304 551.609L90.2304 551.609ZM92.2304 557.979L53.8004 557.979L53.8004 561.979L92.2304 561.979L92.2304 557.979ZM51.8004 559.979L51.8004 618.565L55.8004 618.565L55.8004 559.979L51.8004 559.979ZM53.8004 620.565L92.2304 620.565L92.2304 616.565L53.8004 616.565L53.8004 620.565ZM90.2304 618.565L90.2304 635.304L94.2304 635.304L94.2304 618.565L90.2304 618.565ZM92.2304 633.304L76.8584 633.304L76.8584 637.304L92.2304 637.304L92.2304 633.304ZM76.8584 633.304L15.3704 633.304L15.3704 637.304L76.8584 637.304L76.8584 633.304ZM15.3704 633.304L-0.00156123 633.304L-0.00156141 637.304L15.3704 637.304L15.3704 633.304ZM1.99844 635.304L1.99844 618.565L-2.00156 618.565L-2.00156 635.304L1.99844 635.304ZM-0.00156068 620.565L38.4284 620.565L38.4284 616.565L-0.0015605 616.565L-0.00156068 620.565ZM78.8584 693.935L78.8584 685.566L74.8584 685.566L74.8584 693.935L78.8584 693.935ZM78.8584 685.566L78.8584 677.196L74.8584 677.196L74.8584 685.566L78.8584 685.566ZM76.8584 675.196L69.1724 675.196L69.1724 679.196L76.8584 679.196L76.8584 675.196ZM71.1724 677.196L71.1724 668.827L67.1724 668.827L67.1724 677.196L71.1724 677.196ZM69.1724 666.827L61.4864 666.827L61.4864 670.827L69.1724 670.827L69.1724 666.827ZM61.4864 666.827L53.8004 666.827L53.8004 670.827L61.4864 670.827L61.4864 666.827ZM53.8004 666.827L38.4284 666.827L38.4284 670.827L53.8004 670.827L53.8004 666.827ZM38.4284 666.827L30.7424 666.827L30.7424 670.827L38.4284 670.827L38.4284 666.827ZM30.7424 666.827L23.0564 666.827L23.0564 670.827L30.7424 670.827L30.7424 666.827ZM21.0564 668.827L21.0564 677.196L25.0564 677.196L25.0564 668.827L21.0564 668.827ZM23.0564 675.196L15.3704 675.196L15.3704 679.196L23.0564 679.196L23.0564 675.196ZM13.3704 677.196L13.3704 685.566L17.3704 685.566L17.3704 677.196L13.3704 677.196ZM13.3704 685.566L13.3704 693.935L17.3704 693.935L17.3704 685.566L13.3704 685.566ZM13.3704 693.935L13.3704 702.305L17.3704 702.305L17.3704 693.935L13.3704 693.935ZM13.3704 702.305L13.3704 710.674L17.3704 710.674L17.3704 702.305L13.3704 702.305ZM13.3704 710.674L13.3704 719.044L17.3704 719.044L17.3704 710.674L13.3704 710.674ZM15.3704 721.044L23.0564 721.044L23.0564 717.044L15.3704 717.044L15.3704 721.044ZM21.0564 719.044L21.0564 727.413L25.0564 727.413L25.0564 719.044L21.0564 719.044ZM23.0564 729.413L30.7424 729.413L30.7424 725.413L23.0564 725.413L23.0564 729.413ZM30.7424 729.413L38.4284 729.413L38.4284 725.413L30.7424 725.413L30.7424 729.413ZM38.4284 729.413L61.4864 729.413L61.4864 725.413L38.4284 725.413L38.4284 729.413ZM61.4864 729.413L69.1724 729.413L69.1724 725.413L61.4864 725.413L61.4864 729.413ZM71.1724 727.413L71.1724 719.044L67.1724 719.044L67.1724 727.413L71.1724 727.413ZM69.1724 721.044L76.8584 721.044L76.8584 717.044L69.1724 717.044L69.1724 721.044ZM78.8584 719.044L78.8584 710.674L74.8584 710.674L74.8584 719.044L78.8584 719.044ZM78.8584 710.674L78.8584 702.305L74.8584 702.305L74.8584 710.674L78.8584 710.674ZM78.8584 702.305L78.8584 693.935L74.8584 693.935L74.8584 702.305L78.8584 702.305ZM38.4284 742.152L15.3704 742.152L15.3704 746.152L38.4284 746.152L38.4284 742.152ZM17.3704 744.152L17.3704 735.783L13.3704 735.783L13.3704 744.152L17.3704 744.152ZM15.3704 733.783L7.68444 733.783L7.68444 737.783L15.3704 737.783L15.3704 733.783ZM9.68444 735.783L9.68444 727.413L5.68444 727.413L5.68444 735.783L9.68444 735.783ZM7.68444 725.413L-0.00156526 725.413L-0.00156544 729.413L7.68444 729.413L7.68444 725.413ZM1.99843 727.413L1.99844 702.305L-2.00156 702.305L-2.00157 727.413L1.99843 727.413ZM1.99844 702.305L1.99844 693.935L-2.00156 693.935L-2.00156 702.305L1.99844 702.305ZM1.99844 693.935L1.99844 668.827L-2.00156 668.827L-2.00156 693.935L1.99844 693.935ZM-0.00156287 670.827L7.68444 670.827L7.68444 666.827L-0.0015627 666.827L-0.00156287 670.827ZM9.68444 668.827L9.68444 660.457L5.68444 660.457L5.68444 668.827L9.68444 668.827ZM7.68444 662.457L15.3704 662.457L15.3704 658.457L7.68444 658.457L7.68444 662.457ZM17.3704 660.457L17.3704 652.088L13.3704 652.088L13.3704 660.457L17.3704 660.457ZM15.3704 654.088L30.7424 654.088L30.7424 650.088L15.3704 650.088L15.3704 654.088ZM30.7424 654.088L38.4284 654.088L38.4284 650.088L30.7424 650.088L30.7424 654.088ZM38.4284 654.088L46.1144 654.088L46.1144 650.088L38.4284 650.088L38.4284 654.088ZM46.1144 654.088L53.8004 654.088L53.8004 650.088L46.1144 650.088L46.1144 654.088ZM53.8004 654.088L76.8584 654.088L76.8584 650.088L53.8004 650.088L53.8004 654.088ZM74.8584 652.088L74.8584 660.457L78.8584 660.457L78.8584 652.088L74.8584 652.088ZM76.8584 662.457L84.5444 662.457L84.5444 658.457L76.8584 658.457L76.8584 662.457ZM82.5444 660.457L82.5444 668.827L86.5444 668.827L86.5444 660.457L82.5444 660.457ZM84.5444 670.827L92.2304 670.827L92.2304 666.827L84.5444 666.827L84.5444 670.827ZM90.2304 668.827L90.2304 685.566L94.2304 685.566L94.2304 668.827L90.2304 668.827ZM90.2304 685.566L90.2304 693.935L94.2304 693.935L94.2304 685.566L90.2304 685.566ZM90.2304 693.935L90.2304 702.305L94.2304 702.305L94.2304 693.935L90.2304 693.935ZM90.2304 702.305L90.2304 727.413L94.2304 727.413L94.2304 702.305L90.2304 702.305ZM92.2304 725.413L84.5444 725.413L84.5444 729.413L92.2304 729.413L92.2304 725.413ZM82.5444 727.413L82.5444 735.783L86.5444 735.783L86.5444 727.413L82.5444 727.413ZM84.5444 733.783L76.8584 733.783L76.8584 737.783L84.5444 737.783L84.5444 733.783ZM74.8584 735.783L74.8584 744.152L78.8584 744.152L78.8584 735.783L74.8584 735.783ZM76.8584 742.152L61.4864 742.152L61.4864 746.152L76.8584 746.152L76.8584 742.152ZM61.4864 742.152L38.4284 742.152L38.4284 746.152L61.4864 746.152L61.4864 742.152ZM76.8584 762.936L84.5444 762.936L84.5444 758.936L76.8584 758.936L76.8584 762.936ZM84.5444 762.936L92.2304 762.936L92.2304 758.936L84.5444 758.936L84.5444 762.936ZM90.2304 760.936L90.2304 769.305L94.2304 769.305L94.2304 760.936L90.2304 760.936ZM90.2304 769.305L90.2304 777.675L94.2304 777.675L94.2304 769.305L90.2304 769.305ZM90.2304 777.675L90.2304 802.783L94.2304 802.783L94.2304 777.675L90.2304 777.675ZM90.2304 802.783L90.2304 836.261L94.2304 836.261L94.2304 802.783L90.2304 802.783ZM92.2304 834.261L84.5444 834.261L84.5444 838.261L92.2304 838.261L92.2304 834.261ZM82.5444 836.261L82.5444 844.63L86.5444 844.63L86.5444 836.261L82.5444 836.261ZM84.5444 842.63L76.8584 842.63L76.8584 846.63L84.5444 846.63L84.5444 842.63ZM74.8584 844.63L74.8584 853L78.8584 853L78.8584 844.63L74.8584 844.63ZM76.8584 851L61.4864 851L61.4864 855L76.8584 855L76.8584 851ZM61.4864 851L53.8004 851L53.8004 855L61.4864 855L61.4864 851ZM53.8004 851L46.1144 851L46.1144 855L53.8004 855L53.8004 851ZM48.1144 853L48.1144 844.63L44.1144 844.63L44.1144 853L48.1144 853ZM46.1144 842.63L38.4284 842.63L38.4284 846.63L46.1144 846.63L46.1144 842.63ZM40.4284 844.63L40.4284 836.261L36.4284 836.261L36.4284 844.63L40.4284 844.63ZM38.4284 834.261L30.7424 834.261L30.7424 838.261L38.4284 838.261L38.4284 834.261ZM32.7424 836.261L32.7424 802.783L28.7424 802.783L28.7424 836.261L32.7424 836.261ZM32.7424 802.783L32.7424 777.675L28.7424 777.675L28.7424 802.783L32.7424 802.783ZM30.7424 775.675L-0.00156746 775.675L-0.00156763 779.675L30.7424 779.675L30.7424 775.675ZM1.99843 777.675L1.99843 760.936L-2.00157 760.936L-2.00157 777.675L1.99843 777.675ZM-0.0015669 762.936L30.7424 762.936L30.7424 758.936L-0.00156673 758.936L-0.0015669 762.936ZM30.7424 762.936L38.4284 762.936L38.4284 758.936L30.7424 758.936L30.7424 762.936ZM38.4284 762.936L46.1144 762.936L46.1144 758.936L38.4284 758.936L38.4284 762.936ZM46.1144 762.936L53.8004 762.936L53.8004 758.936L46.1144 758.936L46.1144 762.936ZM53.8004 762.936L61.4864 762.936L61.4864 758.936L53.8004 758.936L53.8004 762.936ZM61.4864 762.936L69.1724 762.936L69.1724 758.936L61.4864 758.936L61.4864 762.936ZM69.1724 762.936L76.8584 762.936L76.8584 758.936L69.1724 758.936L69.1724 762.936ZM78.8584 802.783L78.8584 786.044L74.8584 786.044L74.8584 802.783L78.8584 802.783ZM78.8584 786.044L78.8584 777.675L74.8584 777.675L74.8584 786.044L78.8584 786.044ZM76.8584 775.675L53.8004 775.675L53.8004 779.675L76.8584 779.675L76.8584 775.675ZM53.8004 775.675L46.1144 775.675L46.1144 779.675L53.8004 779.675L53.8004 775.675ZM44.1144 777.675L44.1144 786.044L48.1144 786.044L48.1144 777.675L44.1144 777.675ZM44.1144 786.044L44.1144 802.783L48.1144 802.783L48.1144 786.044L44.1144 786.044ZM44.1144 802.783L44.1144 811.153L48.1144 811.153L48.1144 802.783L44.1144 802.783ZM44.1144 811.153L44.1144 819.522L48.1144 819.522L48.1144 811.153L44.1144 811.153ZM44.1144 819.522L44.1144 827.892L48.1144 827.892L48.1144 819.522L44.1144 819.522ZM46.1144 829.892L53.8004 829.892L53.8004 825.892L46.1144 825.892L46.1144 829.892ZM51.8004 827.892L51.8004 836.261L55.8004 836.261L55.8004 827.892L51.8004 827.892ZM53.8004 838.261L61.4864 838.261L61.4864 834.261L53.8004 834.261L53.8004 838.261ZM61.4864 838.261L69.1724 838.261L69.1724 834.261L61.4864 834.261L61.4864 838.261ZM71.1724 836.261L71.1724 827.892L67.1724 827.892L67.1724 836.261L71.1724 836.261ZM69.1724 829.892L76.8584 829.892L76.8584 825.892L69.1724 825.892L69.1724 829.892ZM78.8584 827.892L78.8584 819.522L74.8584 819.522L74.8584 827.892L78.8584 827.892ZM78.8584 819.522L78.8584 811.153L74.8584 811.153L74.8584 819.522L78.8584 819.522ZM78.8584 811.153L78.8584 802.783L74.8584 802.783L74.8584 811.153L78.8584 811.153Z" fill="#393939" mask="url(#path-1-outside-1_1344_5034)"/>
</svg>
