<svg width="73" height="600" viewBox="0 0 73 854" fill="none" xmlns="http://www.w3.org/2000/svg">
<g opacity="0.1">
<path d="M13.3333 820.653L13.3333 827.323L13.3333 833.992L20 833.992L20 840.661L26.6667 840.661L33.3334 840.661L46.6667 840.661L53.3334 840.661L60 840.661L60 833.992L66.6667 833.992L66.6667 827.322L66.6667 820.653L66.6667 813.984L66.6667 807.314L66.6667 800.645L60 800.645L60 793.976L53.3334 793.976L53.3334 780.637L66.6667 780.637L66.6667 787.306L73.3334 787.306L73.3334 793.976L80 793.976L80 813.984L80 820.653L80 840.661L73.3334 840.661L73.3334 847.331L66.6667 847.331L66.6667 854L53.3334 854L46.6667 854L40 854L33.3334 854L13.3333 854L13.3333 847.331L6.66667 847.331L6.66667 840.661L-5.83055e-07 840.661L-1.16611e-06 827.323L-1.45764e-06 820.653L-1.74917e-06 813.984L-2.62375e-06 793.976L6.66667 793.976L6.66667 787.306L13.3333 787.306L13.3333 780.637L26.6667 780.637L26.6667 793.976L20 793.976L20 800.645L13.3333 800.645L13.3333 807.314L13.3333 813.984L13.3333 820.653Z" fill="#FF7C06"/>
<path d="M46.6667 707.238L46.6667 753.924L80 753.924L80 760.593L80 767.263L73.3334 767.263L66.6667 767.263L60 767.263L46.6667 767.263L40 767.263L33.3333 767.263L26.6667 767.263L20 767.263L13.3333 767.263L6.66667 767.263L-3.79141e-06 767.263L-4.08294e-06 760.593L-4.37447e-06 753.924L33.3333 753.924L33.3333 707.238L-6.41516e-06 707.238L-6.99822e-06 693.899L13.3333 693.899L66.6667 693.899L80 693.899L80 707.238L46.6667 707.238Z" fill="#FF7C06"/>
<path d="M73.3334 680.525L66.6667 680.525L53.3334 680.525L40 680.525L33.3333 680.525L26.6667 680.525L26.6667 673.856L20 673.856L20 667.186L13.3333 667.186L13.3333 660.517L6.66666 660.517L6.66666 653.848L-8.74894e-06 653.848L-9.62352e-06 633.84L6.66666 633.84L6.66666 627.17L13.3333 627.17L13.3333 620.501L20 620.501L20 613.831L26.6667 613.831L26.6667 607.162L33.3333 607.162L40 607.162L53.3333 607.162L66.6667 607.162L73.3334 607.162L80 607.162L80 613.831L80 620.501L73.3334 620.501L66.6667 620.501L53.3333 620.501L53.3334 667.186L66.6667 667.186L73.3334 667.186L80 667.186L80 673.856L80 680.525L73.3334 680.525ZM40 620.501L33.3333 620.501L33.3333 627.17L26.6667 627.17L26.6667 633.84L20 633.84L20 640.509L13.3333 640.509L13.3333 647.178L20 647.178L20 653.848L26.6667 653.848L26.6667 660.517L33.3333 660.517L33.3333 667.186L40 667.186L40 620.501Z" fill="#FF7C06"/>
<path d="M13.3333 593.788L6.66666 593.788L-1.13742e-05 593.788L-1.16658e-05 587.118L-1.19573e-05 580.449L-1.28319e-05 560.441L-1.3998e-05 533.763L6.66666 533.763L6.66666 527.094L13.3333 527.094L13.3333 520.425L26.6667 520.425L33.3333 520.425L40 520.425L40 527.094L46.6667 527.094L46.6667 533.763L53.3333 533.763L60 533.763L60 527.094L66.6667 527.094L66.6667 520.425L73.3334 520.425L80 520.425L80 533.763L73.3334 533.763L73.3334 540.433L66.6667 540.433L66.6667 547.102L60 547.102L60 553.771L53.3333 553.771L53.3333 560.441L53.3333 580.449L80 580.449L80 593.788L53.3333 593.788L46.6667 593.788L40 593.788L33.3333 593.788L26.6667 593.788L20 593.788L13.3333 593.788ZM13.3333 560.441L13.3333 573.78L13.3333 580.449L33.3333 580.449L40 580.449L40 573.78L40 567.11L40 560.441L40 553.771L40 547.102L40 540.433L33.3333 540.433L33.3333 533.763L26.6667 533.763L20 533.763L20 540.433L13.3333 540.433L13.3333 547.102L13.3333 553.771L13.3333 560.441Z" fill="#FF7C06"/>
<path d="M73.3334 507.05L66.6667 507.05L53.3333 507.05L40 507.05L33.3333 507.05L26.6667 507.05L26.6667 500.381L20 500.381L20 493.712L13.3333 493.712L13.3333 487.042L6.66666 487.042L6.66666 480.373L-1.63318e-05 480.373L-1.72063e-05 460.365L6.66666 460.365L6.66665 453.695L13.3333 453.695L13.3333 447.026L20 447.026L20 440.357L26.6667 440.357L26.6667 433.687L33.3333 433.687L40 433.687L53.3333 433.687L66.6667 433.687L73.3334 433.687L80 433.687L80 440.357L80 447.026L73.3334 447.026L66.6667 447.026L53.3333 447.026L53.3333 493.712L66.6667 493.712L73.3334 493.712L80 493.712L80 500.381L80 507.05L73.3334 507.05ZM40 447.026L33.3333 447.026L33.3333 453.695L26.6667 453.695L26.6667 460.365L20 460.365L20 467.034L13.3333 467.034L13.3333 473.703L20 473.703L20 480.373L26.6667 480.373L26.6667 487.042L33.3333 487.042L33.3333 493.712L40 493.712L40 447.026Z" fill="#FF7C06"/>
<path d="M13.3333 386.966L13.3333 393.635L13.3333 400.305L20 400.305L20 406.974L26.6667 406.974L33.3333 406.974L46.6667 406.974L53.3333 406.974L60 406.974L60 400.305L66.6667 400.305L66.6667 393.635L66.6667 386.966L66.6667 380.297L66.6667 373.627L66.6667 366.958L60 366.958L60 360.289L53.3333 360.289L53.3333 346.95L66.6667 346.95L66.6667 353.619L73.3334 353.619L73.3334 360.289L80 360.289L80 380.297L80 386.966L80 406.974L73.3334 406.974L73.3334 413.643L66.6667 413.643L66.6667 420.313L53.3333 420.313L46.6667 420.313L40 420.313L33.3333 420.313L13.3333 420.313L13.3333 413.643L6.66665 413.643L6.66665 406.974L-1.95401e-05 406.974L-2.01232e-05 393.635L-2.04147e-05 386.966L-2.07062e-05 380.297L-2.15808e-05 360.289L6.66665 360.289L6.66665 353.619L13.3333 353.619L13.3333 346.95L26.6667 346.95L26.6667 360.289L20 360.289L20 366.958L13.3333 366.958L13.3333 373.627L13.3333 380.297L13.3333 386.966Z" fill="#FF7C06"/>
<path d="M13.3333 333.575L6.66665 333.575L-2.27485e-05 333.575L-2.304e-05 326.906L-2.33315e-05 320.237L-2.42061e-05 300.229L-2.56638e-05 266.882L13.3333 266.882L13.3333 273.551L13.3333 280.22L13.3333 293.559L46.6667 293.559L80 293.559L80 306.898L46.6667 306.898L13.3333 306.898L13.3333 313.567L13.3333 333.575Z" fill="#FF7C06"/>
<path d="M13.3333 246.838L6.66665 246.838L-2.65399e-05 246.838L-2.68314e-05 240.169L-2.71229e-05 233.499L-2.79975e-05 213.491L-2.97467e-05 173.475L13.3333 173.475L13.3333 180.144L13.3333 186.814L13.3333 200.152L13.3333 206.822L13.3333 213.491L13.3333 226.83L13.3333 233.499L33.3333 233.499L33.3333 186.814L46.6667 186.814L46.6667 233.499L66.6667 233.499L66.6667 226.83L66.6667 213.491L66.6667 206.822L66.6667 200.152L66.6667 186.814L66.6667 180.144L66.6667 173.475L80 173.475L80 213.491L80 233.499L80 240.169L80 246.838L73.3333 246.838L66.6667 246.838L60 246.838L46.6667 246.838L40 246.838L33.3333 246.838L26.6667 246.838L20 246.838L13.3333 246.838Z" fill="#FF7C06"/>
<path d="M13.3333 160.101L6.66664 160.101L-3.03313e-05 160.101L-3.06228e-05 153.431L-3.09144e-05 146.762L-3.17889e-05 126.754L-3.29551e-05 100.076L6.66664 100.076L6.66664 93.4068L13.3333 93.4068L13.3333 86.7375L26.6666 86.7375L33.3333 86.7375L40 86.7375L40 93.4068L46.6667 93.4068L46.6667 100.076L53.3333 100.076L60 100.076L60 93.4068L66.6667 93.4068L66.6667 86.7375L73.3333 86.7375L80 86.7375L80 100.076L73.3333 100.076L73.3333 106.746L66.6667 106.746L66.6667 113.415L60 113.415L60 120.084L53.3333 120.084L53.3333 126.754L53.3333 146.762L80 146.762L80 160.101L53.3333 160.101L46.6667 160.101L40 160.101L33.3333 160.101L26.6667 160.101L20 160.101L13.3333 160.101ZM13.3333 126.754L13.3333 140.092L13.3333 146.762L33.3333 146.762L40 146.762L40 140.092L40 133.423L40 126.754L40 120.084L40 113.415L40 106.746L33.3333 106.746L33.3333 100.076L26.6666 100.076L20 100.076L20 106.746L13.3333 106.746L13.3333 113.415L13.3333 120.084L13.3333 126.754Z" fill="#FF7C06"/>
<path d="M53.3333 60.0244L60 60.0244L60 53.355L66.6667 53.355L66.6667 46.6857L66.6667 40.0162L66.6667 33.3469L66.6667 26.6775L66.6667 20.0081L60 20.0081L60 13.3388L53.3333 13.3388L53.3333 20.0081L46.6667 20.0081L46.6667 26.6775L46.6667 33.3469L46.6667 40.0162L46.6667 60.0244L40 60.0244L40 66.6938L33.3333 66.6938L33.3333 73.3632L26.6666 73.3632L20 73.3632L13.3333 73.3632L13.3333 66.6938L6.66664 66.6938L6.66664 60.0244L-3.47058e-05 60.0244L-3.52888e-05 46.6857L-3.55804e-05 40.0162L-3.58719e-05 33.3469L-3.67465e-05 13.3388L6.66664 13.3388L6.66664 6.66937L13.3333 6.66937L13.3333 6.04523e-05L26.6666 5.98695e-05L26.6666 13.3388L20 13.3388L20 20.0081L13.3333 20.0081L13.3333 26.6776L13.3333 33.3469L13.3333 40.0162L13.3333 46.6857L13.3333 53.355L20 53.355L20 60.0244L26.6666 60.0244L26.6666 53.355L33.3333 53.355L33.3333 46.6857L33.3333 40.0162L33.3333 33.3469L33.3333 13.3388L40 13.3388L40 6.66937L46.6667 6.66937L46.6667 5.89953e-05L53.3333 5.87039e-05L60 5.84125e-05L66.6667 5.81211e-05L66.6667 6.66937L73.3333 6.66937L73.3333 13.3388L80 13.3388L80 33.3469L80 40.0162L80 60.0244L73.3333 60.0244L73.3333 66.6938L66.6667 66.6938L66.6667 73.3632L53.3333 73.3632L53.3333 60.0244Z" fill="#FF7C06"/>
</g>
</svg>
