<svg width="73" height="385" viewBox="0 0 73 385" fill="none" xmlns="http://www.w3.org/2000/svg">
<g opacity="0.1">
<path d="M66.9167 385L60.8333 385L48.6667 385L36.5 385L30.4167 385L24.3333 385L24.3333 378.891L18.25 378.891L18.25 372.782L12.1667 372.782L12.1667 366.673L6.08334 366.673L6.08334 360.564L-1.06814e-06 360.564L-1.86924e-06 342.237L6.08333 342.237L6.08333 336.128L12.1667 336.128L12.1667 330.019L18.25 330.019L18.25 323.91L24.3333 323.91L24.3333 317.801L30.4167 317.801L36.5 317.801L48.6667 317.801L60.8333 317.801L66.9167 317.801L73 317.801L73 323.91L73 330.019L66.9167 330.019L60.8333 330.019L48.6667 330.019L48.6667 372.782L60.8333 372.782L66.9167 372.782L73 372.782L73 378.891L73 385L66.9167 385ZM36.5 330.019L30.4167 330.019L30.4167 336.128L24.3333 336.128L24.3333 342.237L18.25 342.237L18.25 348.346L12.1667 348.346L12.1667 354.455L18.25 354.455L18.25 360.564L24.3333 360.564L24.3333 366.673L30.4167 366.673L30.4167 372.782L36.5 372.782L36.5 330.019Z" fill="url(#paint0_linear_1344_31532)"/>
<path d="M12.1667 305.55L6.08333 305.55L-3.47288e-06 305.55L-3.73991e-06 299.441L-4.00694e-06 293.332L-4.80805e-06 275.005L-5.87619e-06 250.568L6.08333 250.568L6.08333 244.459L12.1667 244.459L12.1667 238.35L24.3333 238.35L30.4167 238.35L36.5 238.35L36.5 244.459L42.5833 244.459L42.5833 250.568L48.6667 250.568L54.75 250.568L54.75 244.459L60.8333 244.459L60.8333 238.35L66.9167 238.35L73 238.35L73 250.568L66.9167 250.568L66.9167 256.678L60.8333 256.678L60.8333 262.787L54.75 262.787L54.75 268.896L48.6667 268.896L48.6667 275.005L48.6667 293.332L73 293.332L73 305.55L48.6667 305.55L42.5833 305.55L36.5 305.55L30.4167 305.55L24.3333 305.55L18.25 305.55L12.1667 305.55ZM12.1667 275.005L12.1667 287.223L12.1667 293.332L30.4167 293.332L36.5 293.332L36.5 287.223L36.5 281.114L36.5 275.005L36.5 268.896L36.5 262.787L36.5 256.678L30.4167 256.678L30.4167 250.568L24.3333 250.568L18.25 250.568L18.25 256.678L12.1667 256.678L12.1667 262.787L12.1667 268.896L12.1667 275.005Z" fill="url(#paint1_linear_1344_31532)"/>
<path d="M42.5833 213.882L73 213.882L73 219.991L73 226.1L66.9167 226.1L60.8333 226.1L54.75 226.1L42.5833 226.1L36.5 226.1L30.4167 226.1L24.3333 226.1L18.25 226.1L12.1667 226.1L6.08333 226.1L-6.94575e-06 226.1L-7.21279e-06 219.991L-7.47982e-06 213.882L6.08333 213.882L6.08333 207.773L12.1667 207.773L12.1667 201.664L18.25 201.664L18.25 195.555L24.3333 195.555L24.3333 189.445L18.25 189.445L18.25 183.336L12.1667 183.336L12.1667 177.227L6.08333 177.227L6.08333 171.118L-9.34906e-06 171.118L-9.88313e-06 158.9L6.08333 158.9L12.1667 158.9L60.8333 158.9L73 158.9L73 171.118L42.5833 171.118L24.3333 171.118L24.3333 177.227L30.4167 177.227L30.4167 183.336L36.5 183.336L36.5 189.445L42.5833 189.445L42.5833 195.555L36.5 195.555L36.5 201.664L30.4167 201.664L30.4167 207.773L24.3333 207.773L24.3333 213.882L42.5833 213.882Z" fill="url(#paint2_linear_1344_31532)"/>
<path d="M12.1667 116.104L12.1667 122.213L12.1667 128.322L18.25 128.322L18.25 134.432L24.3333 134.432L30.4167 134.432L42.5833 134.432L48.6667 134.432L54.75 134.432L54.75 128.322L60.8333 128.322L60.8333 122.213L60.8333 116.104L60.8333 109.995L60.8333 103.886L60.8333 97.7772L54.75 97.7772L54.75 91.6682L48.6667 91.6682L42.5833 91.6682L24.3333 91.6682L18.25 91.6682L18.25 97.7773L12.1667 97.7773L12.1667 103.886L12.1667 109.995L12.1667 116.104ZM42.5833 79.4501L60.8333 79.4501L60.8333 85.5591L66.9167 85.5591L66.9167 91.6682L73 91.6682L73 109.995L73 116.104L73 134.432L66.9167 134.432L66.9167 140.541L60.8333 140.541L60.8333 146.65L48.6667 146.65L42.5833 146.65L36.5 146.65L30.4167 146.65L12.1667 146.65L12.1667 140.541L6.08333 140.541L6.08333 134.432L-1.09527e-05 134.432L-1.14868e-05 122.213L-1.17538e-05 116.104L-1.20208e-05 109.995L-1.28219e-05 91.6682L6.08332 91.6682L6.08332 85.5591L12.1667 85.5591L12.1667 79.4501L24.3333 79.4501L42.5833 79.4501Z" fill="url(#paint3_linear_1344_31532)"/>
<path d="M12.1667 67.1995L6.08332 67.1995L-1.38915e-05 67.1995L-1.41585e-05 61.0904L-1.44256e-05 54.9814L-1.52267e-05 36.6543L-1.62948e-05 12.2181L6.08332 12.2181L6.08332 6.10901L12.1667 6.10901L12.1667 -5.31822e-07L24.3333 -1.06364e-06L30.4167 -1.32956e-06L36.5 -1.59547e-06L36.5 6.10901L42.5833 6.10901L42.5833 12.2181L48.6667 12.2181L54.75 12.2181L54.75 6.10901L60.8333 6.10901L60.8333 -2.65911e-06L66.9167 -2.92502e-06L73 -3.19093e-06L73 12.2181L66.9167 12.2181L66.9167 18.3271L60.8333 18.3271L60.8333 24.4362L54.75 24.4362L54.75 30.5452L48.6667 30.5452L48.6667 36.6543L48.6667 54.9814L73 54.9814L73 67.1995L48.6667 67.1995L42.5833 67.1995L36.5 67.1995L30.4167 67.1995L24.3333 67.1995L18.25 67.1995L12.1667 67.1995ZM12.1667 36.6543L12.1667 48.8723L12.1667 54.9814L30.4167 54.9814L36.5 54.9814L36.5 48.8723L36.5 42.7633L36.5 36.6543L36.5 30.5452L36.5 24.4362L36.5 18.3271L30.4167 18.3271L30.4167 12.2181L24.3333 12.2181L18.25 12.2181L18.25 18.3271L12.1667 18.3271L12.1667 24.4362L12.1667 30.5452L12.1667 36.6543Z" fill="url(#paint4_linear_1344_31532)"/>
</g>
<defs>
<linearGradient id="paint0_linear_1344_31532" x1="-8.41444e-06" y1="192.5" x2="73" y2="192.5" gradientUnits="userSpaceOnUse">
<stop stop-color="#FF7C06"/>
<stop offset="1" stop-color="#E45C00"/>
</linearGradient>
<linearGradient id="paint1_linear_1344_31532" x1="-8.41444e-06" y1="192.5" x2="73" y2="192.5" gradientUnits="userSpaceOnUse">
<stop stop-color="#FF7C06"/>
<stop offset="1" stop-color="#E45C00"/>
</linearGradient>
<linearGradient id="paint2_linear_1344_31532" x1="-8.41444e-06" y1="192.5" x2="73" y2="192.5" gradientUnits="userSpaceOnUse">
<stop stop-color="#FF7C06"/>
<stop offset="1" stop-color="#E45C00"/>
</linearGradient>
<linearGradient id="paint3_linear_1344_31532" x1="-8.41444e-06" y1="192.5" x2="73" y2="192.5" gradientUnits="userSpaceOnUse">
<stop stop-color="#FF7C06"/>
<stop offset="1" stop-color="#E45C00"/>
</linearGradient>
<linearGradient id="paint4_linear_1344_31532" x1="-8.41444e-06" y1="192.5" x2="73" y2="192.5" gradientUnits="userSpaceOnUse">
<stop stop-color="#FF7C06"/>
<stop offset="1" stop-color="#E45C00"/>
</linearGradient>
</defs>
</svg>
