<svg width="73" height="384" viewBox="0 0 73 384" fill="none" xmlns="http://www.w3.org/2000/svg">
<g opacity="0.1">
<path d="M12.1667 384L6.08334 384L0 384L-2.66341e-07 377.907L-5.32682e-07 371.814L-1.33171e-06 353.534L-2.39707e-06 329.161L6.08333 329.161L6.08333 323.068L12.1667 323.068L12.1667 316.975L24.3333 316.975L30.4167 316.975L30.4167 323.068L36.5 323.068L42.5833 323.068L42.5833 316.975L60.8333 316.975L60.8333 323.068L66.9167 323.068L66.9167 329.161L73 329.161L73 353.534L73 371.814L73 377.907L73 384L66.9167 384L60.8333 384L54.75 384L42.5833 384L36.5 384L30.4167 384L24.3333 384L18.25 384L12.1667 384ZM60.8333 365.72L60.8333 353.534L60.8333 347.441L60.8333 341.348L60.8333 335.255L54.75 335.255L54.75 329.161L48.6667 329.161L48.6667 335.255L42.5833 335.255L42.5833 371.814L60.8333 371.814L60.8333 365.72ZM12.1667 353.534L12.1667 365.72L12.1667 371.814L30.4167 371.814L30.4167 335.255L24.3333 335.255L24.3333 329.161L18.25 329.161L18.25 335.255L12.1667 335.255L12.1667 341.348L12.1667 347.441L12.1667 353.534Z" fill="#FF7C06"/>
<path d="M12.1667 274.29L12.1667 280.384L12.1667 286.477L18.25 286.477L18.25 292.57L24.3333 292.57L30.4167 292.57L42.5833 292.57L48.6667 292.57L54.75 292.57L54.75 286.477L60.8333 286.477L60.8333 280.384L60.8333 274.29L60.8333 268.197L60.8333 262.104L60.8333 256.011L54.75 256.011L54.75 249.918L48.6667 249.918L42.5833 249.918L24.3333 249.918L18.25 249.918L18.25 256.011L12.1667 256.011L12.1667 262.104L12.1667 268.197L12.1667 274.29ZM42.5833 237.731L60.8333 237.731L60.8333 243.824L66.9167 243.824L66.9167 249.918L73 249.918L73 268.197L73 274.29L73 292.57L66.9167 292.57L66.9167 298.663L60.8333 298.663L60.8333 304.756L48.6667 304.756L42.5833 304.756L36.5 304.756L30.4167 304.756L12.1667 304.756L12.1667 298.663L6.08333 298.663L6.08333 292.57L-3.99654e-06 292.57L-4.52922e-06 280.384L-4.79556e-06 274.29L-5.0619e-06 268.197L-5.86093e-06 249.918L6.08333 249.918L6.08333 243.824L12.1667 243.824L12.1667 237.731L24.3333 237.731L42.5833 237.731Z" fill="#FF7C06"/>
<path d="M12.1667 195.047L12.1667 201.14L12.1667 207.233L18.25 207.233L18.25 213.326L24.3333 213.326L30.4167 213.326L42.5833 213.326L48.6667 213.326L54.75 213.326L54.75 207.233L60.8333 207.233L60.8333 201.14L60.8333 195.047L60.8333 188.953L60.8333 182.86L60.8333 176.767L54.75 176.767L54.75 170.674L48.6667 170.674L42.5833 170.674L24.3333 170.674L18.25 170.674L18.25 176.767L12.1667 176.767L12.1667 182.86L12.1667 188.953L12.1667 195.047ZM42.5833 158.488L60.8333 158.488L60.8333 164.581L66.9167 164.581L66.9167 170.674L73 170.674L73 188.953L73 195.047L73 213.326L66.9167 213.326L66.9167 219.419L60.8333 219.419L60.8333 225.512L48.6667 225.512L42.5833 225.512L36.5 225.512L30.4167 225.512L12.1667 225.512L12.1667 219.419L6.08333 219.419L6.08333 213.326L-7.46039e-06 213.326L-7.99308e-06 201.14L-8.25942e-06 195.047L-8.52576e-06 188.953L-9.32478e-06 170.674L6.08333 170.674L6.08333 164.581L12.1667 164.581L12.1667 158.488L24.3333 158.488L42.5833 158.488Z" fill="#FF7C06"/>
<path d="M12.1667 146.269L6.08333 146.269L-1.03916e-05 146.269L-1.06579e-05 140.176L-1.09242e-05 134.082L-1.17233e-05 115.803L-1.3055e-05 85.3369L12.1667 85.3369L12.1667 91.4301L12.1667 97.5233L12.1667 109.71L42.5833 109.71L73 109.71L73 121.896L42.5833 121.896L12.1667 121.896L12.1667 127.989L12.1667 146.269Z" fill="#FF7C06"/>
<path d="M48.6667 54.8385L54.75 54.8385L54.75 48.7454L60.8333 48.7454L60.8333 42.6522L60.8333 36.559L60.8333 30.4658L60.8333 24.3727L60.8333 18.2795L54.75 18.2795L54.75 12.1863L48.6667 12.1863L48.6667 18.2795L42.5833 18.2795L42.5833 24.3727L42.5833 30.4658L42.5833 36.559L42.5833 54.8385L36.5 54.8385L36.5 60.9317L30.4167 60.9317L30.4167 67.0249L24.3333 67.0249L18.25 67.0249L12.1667 67.0249L12.1667 60.9317L6.08332 60.9317L6.08332 54.8385L-1.43881e-05 54.8385L-1.49208e-05 42.6522L-1.51871e-05 36.559L-1.54535e-05 30.4659L-1.62525e-05 12.1863L6.08332 12.1863L6.08332 6.09314L12.1667 6.09314L12.1667 -3.10494e-05L24.3333 -3.15812e-05L24.3333 12.1863L18.25 12.1863L18.25 18.2795L12.1667 18.2795L12.1667 24.3727L12.1667 30.4659L12.1667 36.559L12.1667 42.6522L12.1667 48.7454L18.25 48.7454L18.25 54.8385L24.3333 54.8385L24.3333 48.7454L30.4167 48.7454L30.4167 42.6522L30.4167 36.559L30.4167 30.4658L30.4167 12.1863L36.5 12.1863L36.5 6.09314L42.5833 6.09314L42.5833 -3.2379e-05L48.6667 -3.26449e-05L54.75 -3.29108e-05L60.8333 -3.31767e-05L60.8333 6.09314L66.9167 6.09314L66.9167 12.1863L73 12.1863L73 30.4658L73 36.559L73 54.8385L66.9167 54.8385L66.9167 60.9317L60.8333 60.9317L60.8333 67.0249L48.6667 67.0249L48.6667 54.8385Z" fill="#FF7C06"/>
</g>
</svg>
