<svg width="504" height="58" viewBox="0 0 504 58" fill="none" xmlns="http://www.w3.org/2000/svg">
<mask id="path-1-outside-1_1344_31792" maskUnits="userSpaceOnUse" x="0" y="0" width="504" height="58" fill="black">
<rect fill="white" width="504" height="58"/>
<path d="M46.1015 20V6.5V2H55.9018V6.5V11V47V56H46.1015V47H41.2013V42.5H36.3012V38H31.401V33.5H26.5008V29H21.6007V24.5H16.7005V20H11.8003V33.5V56H6.90017H2V51.5V47V42.5V33.5V29V24.5V20V15.5V11V6.5V2H6.90017H11.8003V6.5H16.7005V11H21.6007V15.5H26.5008V20H31.401V24.5H36.3012V29H41.2013V33.5H46.1015V20Z"/>
<path d="M65.7283 11V6.5V2H70.6285H75.5286H90.2292H119.63V11H114.73H109.83H100.029H95.1293H90.2292H80.4288H75.5286V24.5H109.83V33.5H75.5286V56H70.6285H65.7283V51.5V47V42.5V33.5V29V24.5V20V15.5V11Z"/>
<path d="M129.457 11V6.5V2H134.357H139.257H153.957H178.458V11H173.558H168.658H158.858V33.5V56H149.057V33.5V11H144.157H129.457Z"/>
<path d="M266.714 38V42.5H271.614V47H276.514H281.414H286.314H291.214H296.115V42.5H301.015V38H296.115V33.5H291.214H286.314H281.414H266.714V29H261.813V24.5H256.913V20V15.5V11H261.813V6.5H266.714V2H276.514H281.414H286.314H301.015V6.5H305.915V11H310.815V20H301.015V15.5H296.115V11H291.214H286.314H281.414H276.514H271.614V15.5H266.714V20H271.614V24.5H276.514H281.414H286.314H301.015V29H305.915V33.5H310.815V38V42.5V47H305.915V51.5H301.015V56H286.314H281.414H266.714V51.5H261.813V47H256.913V38H266.714Z"/>
<path d="M364.743 33.5H330.442V56H325.542H320.642V51.5V47V42.5V33.5V29V24.5V20V15.5V11V6.5V2H325.542H330.442V24.5H364.743V2H374.543V11V47V56H364.743V33.5Z"/>
<path d="M408.871 11H403.971H399.07V15.5H394.17V20V24.5V33.5V38V42.5H399.07V47H403.971H408.871H413.771H418.671H423.571V42.5H428.471V38V33.5V20V15.5H423.571V11H418.671H413.771H408.871ZM438.272 33.5V47H433.372V51.5H428.471V56H413.771H408.871H394.17V51.5H389.27V47H384.37V38V33.5V29V24.5V11H389.27V6.5H394.17V2H403.971H408.871H413.771H428.471V6.5H433.372V11H438.272V20V33.5Z"/>
<path d="M448.098 11V6.5V2H452.998H457.898H472.599H492.2V6.5H497.1V11H502V20V24.5V29H497.1V33.5H492.2V38H472.599H457.898V56H448.098V38V33.5V29V24.5V20V15.5V11ZM472.599 11H462.799H457.898V24.5V29H462.799H472.599H477.499H482.399H487.299V24.5H492.2V20V15.5H487.299V11H482.399H477.499H472.599Z"/>
</mask>
<path d="M46.1015 20V6.5V2H55.9018V6.5V11V47V56H46.1015V47H41.2013V42.5H36.3012V38H31.401V33.5H26.5008V29H21.6007V24.5H16.7005V20H11.8003V33.5V56H6.90017H2V51.5V47V42.5V33.5V29V24.5V20V15.5V11V6.5V2H6.90017H11.8003V6.5H16.7005V11H21.6007V15.5H26.5008V20H31.401V24.5H36.3012V29H41.2013V33.5H46.1015V20Z" fill="url(#paint0_linear_1344_31792)"/>
<path d="M65.7283 11V6.5V2H70.6285H75.5286H90.2292H119.63V11H114.73H109.83H100.029H95.1293H90.2292H80.4288H75.5286V24.5H109.83V33.5H75.5286V56H70.6285H65.7283V51.5V47V42.5V33.5V29V24.5V20V15.5V11Z" fill="url(#paint1_linear_1344_31792)"/>
<path d="M129.457 11V6.5V2H134.357H139.257H153.957H178.458V11H173.558H168.658H158.858V33.5V56H149.057V33.5V11H144.157H129.457Z" fill="url(#paint2_linear_1344_31792)"/>
<path d="M266.714 38V42.5H271.614V47H276.514H281.414H286.314H291.214H296.115V42.5H301.015V38H296.115V33.5H291.214H286.314H281.414H266.714V29H261.813V24.5H256.913V20V15.5V11H261.813V6.5H266.714V2H276.514H281.414H286.314H301.015V6.5H305.915V11H310.815V20H301.015V15.5H296.115V11H291.214H286.314H281.414H276.514H271.614V15.5H266.714V20H271.614V24.5H276.514H281.414H286.314H301.015V29H305.915V33.5H310.815V38V42.5V47H305.915V51.5H301.015V56H286.314H281.414H266.714V51.5H261.813V47H256.913V38H266.714Z" fill="url(#paint3_linear_1344_31792)"/>
<path d="M364.743 33.5H330.442V56H325.542H320.642V51.5V47V42.5V33.5V29V24.5V20V15.5V11V6.5V2H325.542H330.442V24.5H364.743V2H374.543V11V47V56H364.743V33.5Z" fill="url(#paint4_linear_1344_31792)"/>
<path d="M408.871 11H403.971H399.07V15.5H394.17V20V24.5V33.5V38V42.5H399.07V47H403.971H408.871H413.771H418.671H423.571V42.5H428.471V38V33.5V20V15.5H423.571V11H418.671H413.771H408.871ZM438.272 33.5V47H433.372V51.5H428.471V56H413.771H408.871H394.17V51.5H389.27V47H384.37V38V33.5V29V24.5V11H389.27V6.5H394.17V2H403.971H408.871H413.771H428.471V6.5H433.372V11H438.272V20V33.5Z" fill="url(#paint5_linear_1344_31792)"/>
<path d="M448.098 11V6.5V2H452.998H457.898H472.599H492.2V6.5H497.1V11H502V20V24.5V29H497.1V33.5H492.2V38H472.599H457.898V56H448.098V38V33.5V29V24.5V20V15.5V11ZM472.599 11H462.799H457.898V24.5V29H462.799H472.599H477.499H482.399H487.299V24.5H492.2V20V15.5H487.299V11H482.399H477.499H472.599Z" fill="url(#paint6_linear_1344_31792)"/>
<path d="M46.1015 2V0H44.1015V2H46.1015ZM55.9018 2H57.9018V0H55.9018V2ZM55.9018 56V58H57.9018V56H55.9018ZM46.1015 56H44.1015V58H46.1015V56ZM46.1015 47H48.1015V45H46.1015V47ZM41.2013 47H39.2013V49H41.2013V47ZM41.2013 42.5H43.2013V40.5H41.2013V42.5ZM36.3012 42.5H34.3012V44.5H36.3012V42.5ZM36.3012 38H38.3012V36H36.3012V38ZM31.401 38H29.401V40H31.401V38ZM31.401 33.5H33.401V31.5H31.401V33.5ZM26.5008 33.5H24.5008V35.5H26.5008V33.5ZM26.5008 29H28.5008V27H26.5008V29ZM21.6007 29H19.6007V31H21.6007V29ZM21.6007 24.5H23.6007V22.5H21.6007V24.5ZM16.7005 24.5H14.7005V26.5H16.7005V24.5ZM16.7005 20H18.7005V18H16.7005V20ZM11.8003 20V18H9.80034V20H11.8003ZM11.8003 56V58H13.8003V56H11.8003ZM2 56H0V58H2V56ZM2 2V0H0V2H2ZM11.8003 2H13.8003V0H11.8003V2ZM11.8003 6.5H9.80034V8.5H11.8003V6.5ZM16.7005 6.5H18.7005V4.5H16.7005V6.5ZM16.7005 11H14.7005V13H16.7005V11ZM21.6007 11H23.6007V9H21.6007V11ZM21.6007 15.5H19.6007V17.5H21.6007V15.5ZM26.5008 15.5H28.5008V13.5H26.5008V15.5ZM26.5008 20H24.5008V22H26.5008V20ZM31.401 20H33.401V18H31.401V20ZM31.401 24.5H29.401V26.5H31.401V24.5ZM36.3012 24.5H38.3012V22.5H36.3012V24.5ZM36.3012 29H34.3012V31H36.3012V29ZM41.2013 29H43.2013V27H41.2013V29ZM41.2013 33.5H39.2013V35.5H41.2013V33.5ZM46.1015 33.5V35.5H48.1015V33.5H46.1015ZM65.7283 2V0H63.7283V2H65.7283ZM119.63 2H121.63V0H119.63V2ZM119.63 11V13H121.63V11H119.63ZM75.5286 11V9H73.5286V11H75.5286ZM75.5286 24.5H73.5286V26.5H75.5286V24.5ZM109.83 24.5H111.83V22.5H109.83V24.5ZM109.83 33.5V35.5H111.83V33.5H109.83ZM75.5286 33.5V31.5H73.5286V33.5H75.5286ZM75.5286 56V58H77.5286V56H75.5286ZM65.7283 56H63.7283V58H65.7283V56ZM129.457 11H127.457V13H129.457V11ZM129.457 2V0H127.457V2H129.457ZM178.458 2H180.458V0H178.458V2ZM178.458 11V13H180.458V11H178.458ZM158.858 11V9H156.858V11H158.858ZM158.858 56V58H160.858V56H158.858ZM149.057 56H147.057V58H149.057V56ZM149.057 11H151.057V9H149.057V11ZM266.714 38H268.714V36H266.714V38ZM266.714 42.5H264.714V44.5H266.714V42.5ZM271.614 42.5H273.614V40.5H271.614V42.5ZM271.614 47H269.614V49H271.614V47ZM296.115 47V49H298.115V47H296.115ZM296.115 42.5V40.5H294.115V42.5H296.115ZM301.015 42.5V44.5H303.015V42.5H301.015ZM301.015 38H303.015V36H301.015V38ZM296.115 38H294.115V40H296.115V38ZM296.115 33.5H298.115V31.5H296.115V33.5ZM266.714 33.5H264.714V35.5H266.714V33.5ZM266.714 29H268.714V27H266.714V29ZM261.813 29H259.813V31H261.813V29ZM261.813 24.5H263.813V22.5H261.813V24.5ZM256.913 24.5H254.913V26.5H256.913V24.5ZM256.913 11V9H254.913V11H256.913ZM261.813 11V13H263.813V11H261.813ZM261.813 6.5V4.5H259.813V6.5H261.813ZM266.714 6.5V8.5H268.714V6.5H266.714ZM266.714 2V0H264.714V2H266.714ZM301.015 2H303.015V0H301.015V2ZM301.015 6.5H299.015V8.5H301.015V6.5ZM305.915 6.5H307.915V4.5H305.915V6.5ZM305.915 11H303.915V13H305.915V11ZM310.815 11H312.815V9H310.815V11ZM310.815 20V22H312.815V20H310.815ZM301.015 20H299.015V22H301.015V20ZM301.015 15.5H303.015V13.5H301.015V15.5ZM296.115 15.5H294.115V17.5H296.115V15.5ZM296.115 11H298.115V9H296.115V11ZM271.614 11V9H269.614V11H271.614ZM271.614 15.5V17.5H273.614V15.5H271.614ZM266.714 15.5V13.5H264.714V15.5H266.714ZM266.714 20H264.714V22H266.714V20ZM271.614 20H273.614V18H271.614V20ZM271.614 24.5H269.614V26.5H271.614V24.5ZM301.015 24.5H303.015V22.5H301.015V24.5ZM301.015 29H299.015V31H301.015V29ZM305.915 29H307.915V27H305.915V29ZM305.915 33.5H303.915V35.5H305.915V33.5ZM310.815 33.5H312.815V31.5H310.815V33.5ZM310.815 47V49H312.815V47H310.815ZM305.915 47V45H303.915V47H305.915ZM305.915 51.5V53.5H307.915V51.5H305.915ZM301.015 51.5V49.5H299.015V51.5H301.015ZM301.015 56V58H303.015V56H301.015ZM266.714 56H264.714V58H266.714V56ZM266.714 51.5H268.714V49.5H266.714V51.5ZM261.813 51.5H259.813V53.5H261.813V51.5ZM261.813 47H263.813V45H261.813V47ZM256.913 47H254.913V49H256.913V47ZM256.913 38V36H254.913V38H256.913ZM364.743 33.5H366.743V31.5H364.743V33.5ZM330.442 33.5V31.5H328.442V33.5H330.442ZM330.442 56V58H332.442V56H330.442ZM320.642 56H318.642V58H320.642V56ZM320.642 2V0H318.642V2H320.642ZM330.442 2H332.442V0H330.442V2ZM330.442 24.5H328.442V26.5H330.442V24.5ZM364.743 24.5V26.5H366.743V24.5H364.743ZM364.743 2V0H362.743V2H364.743ZM374.543 2H376.543V0H374.543V2ZM374.543 56V58H376.543V56H374.543ZM364.743 56H362.743V58H364.743V56ZM399.07 11V9H397.07V11H399.07ZM399.07 15.5V17.5H401.07V15.5H399.07ZM394.17 15.5V13.5H392.17V15.5H394.17ZM394.17 42.5H392.17V44.5H394.17V42.5ZM399.07 42.5H401.07V40.5H399.07V42.5ZM399.07 47H397.07V49H399.07V47ZM423.571 47V49H425.571V47H423.571ZM423.571 42.5V40.5H421.571V42.5H423.571ZM428.471 42.5V44.5H430.471V42.5H428.471ZM428.471 15.5H430.471V13.5H428.471V15.5ZM423.571 15.5H421.571V17.5H423.571V15.5ZM423.571 11H425.571V9H423.571V11ZM438.272 47V49H440.272V47H438.272ZM433.372 47V45H431.372V47H433.372ZM433.372 51.5V53.5H435.372V51.5H433.372ZM428.471 51.5V49.5H426.471V51.5H428.471ZM428.471 56V58H430.471V56H428.471ZM394.17 56H392.17V58H394.17V56ZM394.17 51.5H396.17V49.5H394.17V51.5ZM389.27 51.5H387.27V53.5H389.27V51.5ZM389.27 47H391.27V45H389.27V47ZM384.37 47H382.37V49H384.37V47ZM384.37 11V9H382.37V11H384.37ZM389.27 11V13H391.27V11H389.27ZM389.27 6.5V4.5H387.27V6.5H389.27ZM394.17 6.5V8.5H396.17V6.5H394.17ZM394.17 2V0H392.17V2H394.17ZM428.471 2H430.471V0H428.471V2ZM428.471 6.5H426.471V8.5H428.471V6.5ZM433.372 6.5H435.372V4.5H433.372V6.5ZM433.372 11H431.372V13H433.372V11ZM438.272 11H440.272V9H438.272V11ZM448.098 2V0H446.098V2H448.098ZM492.2 2H494.2V0H492.2V2ZM492.2 6.5H490.2V8.5H492.2V6.5ZM497.1 6.5H499.1V4.5H497.1V6.5ZM497.1 11H495.1V13H497.1V11ZM502 11H504V9H502V11ZM502 29V31H504V29H502ZM497.1 29V27H495.1V29H497.1ZM497.1 33.5V35.5H499.1V33.5H497.1ZM492.2 33.5V31.5H490.2V33.5H492.2ZM492.2 38V40H494.2V38H492.2ZM457.898 38V36H455.898V38H457.898ZM457.898 56V58H459.898V56H457.898ZM448.098 56H446.098V58H448.098V56ZM457.898 11V9H455.898V11H457.898ZM457.898 29H455.898V31H457.898V29ZM487.299 29V31H489.299V29H487.299ZM487.299 24.5V22.5H485.299V24.5H487.299ZM492.2 24.5V26.5H494.2V24.5H492.2ZM492.2 15.5H494.2V13.5H492.2V15.5ZM487.299 15.5H485.299V17.5H487.299V15.5ZM487.299 11H489.299V9H487.299V11ZM48.1015 20V6.5H44.1015V20H48.1015ZM48.1015 6.5V2H44.1015V6.5H48.1015ZM46.1015 4H55.9018V0H46.1015V4ZM53.9018 2V6.5H57.9018V2H53.9018ZM53.9018 6.5V11H57.9018V6.5H53.9018ZM53.9018 11V47H57.9018V11H53.9018ZM53.9018 47V56H57.9018V47H53.9018ZM55.9018 54H46.1015V58H55.9018V54ZM48.1015 56V47H44.1015V56H48.1015ZM46.1015 45H41.2013V49H46.1015V45ZM43.2013 47V42.5H39.2013V47H43.2013ZM41.2013 40.5H36.3012V44.5H41.2013V40.5ZM38.3012 42.5V38H34.3012V42.5H38.3012ZM36.3012 36H31.401V40H36.3012V36ZM33.401 38V33.5H29.401V38H33.401ZM31.401 31.5H26.5008V35.5H31.401V31.5ZM28.5008 33.5V29H24.5008V33.5H28.5008ZM26.5008 27H21.6007V31H26.5008V27ZM23.6007 29V24.5H19.6007V29H23.6007ZM21.6007 22.5H16.7005V26.5H21.6007V22.5ZM18.7005 24.5V20H14.7005V24.5H18.7005ZM16.7005 18H11.8003V22H16.7005V18ZM9.80034 20V33.5H13.8003V20H9.80034ZM9.80034 33.5V56H13.8003V33.5H9.80034ZM11.8003 54H6.90017V58H11.8003V54ZM6.90017 54H2V58H6.90017V54ZM4 56V51.5H0V56H4ZM4 51.5V47H0V51.5H4ZM4 47V42.5H0V47H4ZM4 42.5V33.5H0V42.5H4ZM4 33.5V29H0V33.5H4ZM4 29V24.5H0V29H4ZM4 24.5V20H0V24.5H4ZM4 20V15.5H0V20H4ZM4 15.5V11H0V15.5H4ZM4 11V6.5H0V11H4ZM4 6.5V2H0V6.5H4ZM2 4H6.90017V0H2V4ZM6.90017 4H11.8003V0H6.90017V4ZM9.80034 2V6.5H13.8003V2H9.80034ZM11.8003 8.5H16.7005V4.5H11.8003V8.5ZM14.7005 6.5V11H18.7005V6.5H14.7005ZM16.7005 13H21.6007V9H16.7005V13ZM19.6007 11V15.5H23.6007V11H19.6007ZM21.6007 17.5H26.5008V13.5H21.6007V17.5ZM24.5008 15.5V20H28.5008V15.5H24.5008ZM26.5008 22H31.401V18H26.5008V22ZM29.401 20V24.5H33.401V20H29.401ZM31.401 26.5H36.3012V22.5H31.401V26.5ZM34.3012 24.5V29H38.3012V24.5H34.3012ZM36.3012 31H41.2013V27H36.3012V31ZM39.2013 29V33.5H43.2013V29H39.2013ZM41.2013 35.5H46.1015V31.5H41.2013V35.5ZM48.1015 33.5V20H44.1015V33.5H48.1015ZM67.7283 11V6.5H63.7283V11H67.7283ZM67.7283 6.5V2H63.7283V6.5H67.7283ZM65.7283 4H70.6285V0H65.7283V4ZM70.6285 4H75.5286V0H70.6285V4ZM75.5286 4H90.2292V0H75.5286V4ZM90.2292 4H119.63V0H90.2292V4ZM117.63 2V11H121.63V2H117.63ZM119.63 9H114.73V13H119.63V9ZM114.73 9H109.83V13H114.73V9ZM109.83 9H100.029V13H109.83V9ZM100.029 9H95.1293V13H100.029V9ZM95.1293 9H90.2292V13H95.1293V9ZM90.2292 9H80.4288V13H90.2292V9ZM80.4288 9H75.5286V13H80.4288V9ZM73.5286 11V24.5H77.5286V11H73.5286ZM75.5286 26.5H109.83V22.5H75.5286V26.5ZM107.83 24.5V33.5H111.83V24.5H107.83ZM109.83 31.5H75.5286V35.5H109.83V31.5ZM73.5286 33.5V56H77.5286V33.5H73.5286ZM75.5286 54H70.6285V58H75.5286V54ZM70.6285 54H65.7283V58H70.6285V54ZM67.7283 56V51.5H63.7283V56H67.7283ZM67.7283 51.5V47H63.7283V51.5H67.7283ZM67.7283 47V42.5H63.7283V47H67.7283ZM67.7283 42.5V33.5H63.7283V42.5H67.7283ZM67.7283 33.5V29H63.7283V33.5H67.7283ZM67.7283 29V24.5H63.7283V29H67.7283ZM67.7283 24.5V20H63.7283V24.5H67.7283ZM67.7283 20V15.5H63.7283V20H67.7283ZM67.7283 15.5V11H63.7283V15.5H67.7283ZM131.457 11V6.5H127.457V11H131.457ZM131.457 6.5V2H127.457V6.5H131.457ZM129.457 4H134.357V0H129.457V4ZM134.357 4H139.257V0H134.357V4ZM139.257 4H153.957V0H139.257V4ZM153.957 4H178.458V0H153.957V4ZM176.458 2V11H180.458V2H176.458ZM178.458 9H173.558V13H178.458V9ZM173.558 9H168.658V13H173.558V9ZM168.658 9H158.858V13H168.658V9ZM156.858 11V33.5H160.858V11H156.858ZM156.858 33.5V56H160.858V33.5H156.858ZM158.858 54H149.057V58H158.858V54ZM151.057 56V33.5H147.057V56H151.057ZM151.057 33.5V11H147.057V33.5H151.057ZM149.057 9H144.157V13H149.057V9ZM144.157 9H129.457V13H144.157V9ZM264.714 38V42.5H268.714V38H264.714ZM266.714 44.5H271.614V40.5H266.714V44.5ZM269.614 42.5V47H273.614V42.5H269.614ZM271.614 49H276.514V45H271.614V49ZM276.514 49H281.414V45H276.514V49ZM281.414 49H286.314V45H281.414V49ZM286.314 49H291.214V45H286.314V49ZM291.214 49H296.115V45H291.214V49ZM298.115 47V42.5H294.115V47H298.115ZM296.115 44.5H301.015V40.5H296.115V44.5ZM303.015 42.5V38H299.015V42.5H303.015ZM301.015 36H296.115V40H301.015V36ZM298.115 38V33.5H294.115V38H298.115ZM296.115 31.5H291.214V35.5H296.115V31.5ZM291.214 31.5H286.314V35.5H291.214V31.5ZM286.314 31.5H281.414V35.5H286.314V31.5ZM281.414 31.5H266.714V35.5H281.414V31.5ZM268.714 33.5V29H264.714V33.5H268.714ZM266.714 27H261.813V31H266.714V27ZM263.813 29V24.5H259.813V29H263.813ZM261.813 22.5H256.913V26.5H261.813V22.5ZM258.913 24.5V20H254.913V24.5H258.913ZM258.913 20V15.5H254.913V20H258.913ZM258.913 15.5V11H254.913V15.5H258.913ZM256.913 13H261.813V9H256.913V13ZM263.813 11V6.5H259.813V11H263.813ZM261.813 8.5H266.714V4.5H261.813V8.5ZM268.714 6.5V2H264.714V6.5H268.714ZM266.714 4H276.514V0H266.714V4ZM276.514 4H281.414V0H276.514V4ZM281.414 4H286.314V0H281.414V4ZM286.314 4H301.015V0H286.314V4ZM299.015 2V6.5H303.015V2H299.015ZM301.015 8.5H305.915V4.5H301.015V8.5ZM303.915 6.5V11H307.915V6.5H303.915ZM305.915 13H310.815V9H305.915V13ZM308.815 11V20H312.815V11H308.815ZM310.815 18H301.015V22H310.815V18ZM303.015 20V15.5H299.015V20H303.015ZM301.015 13.5H296.115V17.5H301.015V13.5ZM298.115 15.5V11H294.115V15.5H298.115ZM296.115 9H291.214V13H296.115V9ZM291.214 9H286.314V13H291.214V9ZM286.314 9H281.414V13H286.314V9ZM281.414 9H276.514V13H281.414V9ZM276.514 9H271.614V13H276.514V9ZM269.614 11V15.5H273.614V11H269.614ZM271.614 13.5H266.714V17.5H271.614V13.5ZM264.714 15.5V20H268.714V15.5H264.714ZM266.714 22H271.614V18H266.714V22ZM269.614 20V24.5H273.614V20H269.614ZM271.614 26.5H276.514V22.5H271.614V26.5ZM276.514 26.5H281.414V22.5H276.514V26.5ZM281.414 26.5H286.314V22.5H281.414V26.5ZM286.314 26.5H301.015V22.5H286.314V26.5ZM299.015 24.5V29H303.015V24.5H299.015ZM301.015 31H305.915V27H301.015V31ZM303.915 29V33.5H307.915V29H303.915ZM305.915 35.5H310.815V31.5H305.915V35.5ZM308.815 33.5V38H312.815V33.5H308.815ZM308.815 38V42.5H312.815V38H308.815ZM308.815 42.5V47H312.815V42.5H308.815ZM310.815 45H305.915V49H310.815V45ZM303.915 47V51.5H307.915V47H303.915ZM305.915 49.5H301.015V53.5H305.915V49.5ZM299.015 51.5V56H303.015V51.5H299.015ZM301.015 54H286.314V58H301.015V54ZM286.314 54H281.414V58H286.314V54ZM281.414 54H266.714V58H281.414V54ZM268.714 56V51.5H264.714V56H268.714ZM266.714 49.5H261.813V53.5H266.714V49.5ZM263.813 51.5V47H259.813V51.5H263.813ZM261.813 45H256.913V49H261.813V45ZM258.913 47V38H254.913V47H258.913ZM256.913 40H266.714V36H256.913V40ZM364.743 31.5H330.442V35.5H364.743V31.5ZM328.442 33.5V56H332.442V33.5H328.442ZM330.442 54H325.542V58H330.442V54ZM325.542 54H320.642V58H325.542V54ZM322.642 56V51.5H318.642V56H322.642ZM322.642 51.5V47H318.642V51.5H322.642ZM322.642 47V42.5H318.642V47H322.642ZM322.642 42.5V33.5H318.642V42.5H322.642ZM322.642 33.5V29H318.642V33.5H322.642ZM322.642 29V24.5H318.642V29H322.642ZM322.642 24.5V20H318.642V24.5H322.642ZM322.642 20V15.5H318.642V20H322.642ZM322.642 15.5V11H318.642V15.5H322.642ZM322.642 11V6.5H318.642V11H322.642ZM322.642 6.5V2H318.642V6.5H322.642ZM320.642 4H325.542V0H320.642V4ZM325.542 4H330.442V0H325.542V4ZM328.442 2V24.5H332.442V2H328.442ZM330.442 26.5H364.743V22.5H330.442V26.5ZM366.743 24.5V2H362.743V24.5H366.743ZM364.743 4H374.543V0H364.743V4ZM372.543 2V11H376.543V2H372.543ZM372.543 11V47H376.543V11H372.543ZM372.543 47V56H376.543V47H372.543ZM374.543 54H364.743V58H374.543V54ZM366.743 56V33.5H362.743V56H366.743ZM408.871 9H403.971V13H408.871V9ZM403.971 9H399.07V13H403.971V9ZM397.07 11V15.5H401.07V11H397.07ZM399.07 13.5H394.17V17.5H399.07V13.5ZM392.17 15.5V20H396.17V15.5H392.17ZM392.17 20V24.5H396.17V20H392.17ZM392.17 24.5V33.5H396.17V24.5H392.17ZM392.17 33.5V38H396.17V33.5H392.17ZM392.17 38V42.5H396.17V38H392.17ZM394.17 44.5H399.07V40.5H394.17V44.5ZM397.07 42.5V47H401.07V42.5H397.07ZM399.07 49H403.971V45H399.07V49ZM403.971 49H408.871V45H403.971V49ZM408.871 49H413.771V45H408.871V49ZM413.771 49H418.671V45H413.771V49ZM418.671 49H423.571V45H418.671V49ZM425.571 47V42.5H421.571V47H425.571ZM423.571 44.5H428.471V40.5H423.571V44.5ZM430.471 42.5V38H426.471V42.5H430.471ZM430.471 38V33.5H426.471V38H430.471ZM430.471 33.5V20H426.471V33.5H430.471ZM430.471 20V15.5H426.471V20H430.471ZM428.471 13.5H423.571V17.5H428.471V13.5ZM425.571 15.5V11H421.571V15.5H425.571ZM423.571 9H418.671V13H423.571V9ZM418.671 9H413.771V13H418.671V9ZM413.771 9H408.871V13H413.771V9ZM436.272 33.5V47H440.272V33.5H436.272ZM438.272 45H433.372V49H438.272V45ZM431.372 47V51.5H435.372V47H431.372ZM433.372 49.5H428.471V53.5H433.372V49.5ZM426.471 51.5V56H430.471V51.5H426.471ZM428.471 54H413.771V58H428.471V54ZM413.771 54H408.871V58H413.771V54ZM408.871 54H394.17V58H408.871V54ZM396.17 56V51.5H392.17V56H396.17ZM394.17 49.5H389.27V53.5H394.17V49.5ZM391.27 51.5V47H387.27V51.5H391.27ZM389.27 45H384.37V49H389.27V45ZM386.37 47V38H382.37V47H386.37ZM386.37 38V33.5H382.37V38H386.37ZM386.37 33.5V29H382.37V33.5H386.37ZM386.37 29V24.5H382.37V29H386.37ZM386.37 24.5V11H382.37V24.5H386.37ZM384.37 13H389.27V9H384.37V13ZM391.27 11V6.5H387.27V11H391.27ZM389.27 8.5H394.17V4.5H389.27V8.5ZM396.17 6.5V2H392.17V6.5H396.17ZM394.17 4H403.971V0H394.17V4ZM403.971 4H408.871V0H403.971V4ZM408.871 4H413.771V0H408.871V4ZM413.771 4H428.471V0H413.771V4ZM426.471 2V6.5H430.471V2H426.471ZM428.471 8.5H433.372V4.5H428.471V8.5ZM431.372 6.5V11H435.372V6.5H431.372ZM433.372 13H438.272V9H433.372V13ZM436.272 11V20H440.272V11H436.272ZM436.272 20V33.5H440.272V20H436.272ZM450.098 11V6.5H446.098V11H450.098ZM450.098 6.5V2H446.098V6.5H450.098ZM448.098 4H452.998V0H448.098V4ZM452.998 4H457.898V0H452.998V4ZM457.898 4H472.599V0H457.898V4ZM472.599 4H492.2V0H472.599V4ZM490.2 2V6.5H494.2V2H490.2ZM492.2 8.5H497.1V4.5H492.2V8.5ZM495.1 6.5V11H499.1V6.5H495.1ZM497.1 13H502V9H497.1V13ZM500 11V20H504V11H500ZM500 20V24.5H504V20H500ZM500 24.5V29H504V24.5H500ZM502 27H497.1V31H502V27ZM495.1 29V33.5H499.1V29H495.1ZM497.1 31.5H492.2V35.5H497.1V31.5ZM490.2 33.5V38H494.2V33.5H490.2ZM492.2 36H472.599V40H492.2V36ZM472.599 36H457.898V40H472.599V36ZM455.898 38V56H459.898V38H455.898ZM457.898 54H448.098V58H457.898V54ZM450.098 56V38H446.098V56H450.098ZM450.098 38V33.5H446.098V38H450.098ZM450.098 33.5V29H446.098V33.5H450.098ZM450.098 29V24.5H446.098V29H450.098ZM450.098 24.5V20H446.098V24.5H450.098ZM450.098 20V15.5H446.098V20H450.098ZM450.098 15.5V11H446.098V15.5H450.098ZM472.599 9H462.799V13H472.599V9ZM462.799 9H457.898V13H462.799V9ZM455.898 11V24.5H459.898V11H455.898ZM455.898 24.5V29H459.898V24.5H455.898ZM457.898 31H462.799V27H457.898V31ZM462.799 31H472.599V27H462.799V31ZM472.599 31H477.499V27H472.599V31ZM477.499 31H482.399V27H477.499V31ZM482.399 31H487.299V27H482.399V31ZM489.299 29V24.5H485.299V29H489.299ZM487.299 26.5H492.2V22.5H487.299V26.5ZM494.2 24.5V20H490.2V24.5H494.2ZM494.2 20V15.5H490.2V20H494.2ZM492.2 13.5H487.299V17.5H492.2V13.5ZM489.299 15.5V11H485.299V15.5H489.299ZM487.299 9H482.399V13H487.299V9ZM482.399 9H477.499V13H482.399V9ZM477.499 9H472.599V13H477.499V9Z" fill="url(#paint7_linear_1344_31792)" mask="url(#path-1-outside-1_1344_31792)"/>
<defs>
<linearGradient id="paint0_linear_1344_31792" x1="252" y1="2" x2="252" y2="56" gradientUnits="userSpaceOnUse">
<stop stop-color="#FF7C06"/>
<stop offset="1" stop-color="#E45C00"/>
</linearGradient>
<linearGradient id="paint1_linear_1344_31792" x1="252" y1="2" x2="252" y2="56" gradientUnits="userSpaceOnUse">
<stop stop-color="#FF7C06"/>
<stop offset="1" stop-color="#E45C00"/>
</linearGradient>
<linearGradient id="paint2_linear_1344_31792" x1="252" y1="2" x2="252" y2="56" gradientUnits="userSpaceOnUse">
<stop stop-color="#FF7C06"/>
<stop offset="1" stop-color="#E45C00"/>
</linearGradient>
<linearGradient id="paint3_linear_1344_31792" x1="252" y1="2" x2="252" y2="56" gradientUnits="userSpaceOnUse">
<stop stop-color="#FF7C06"/>
<stop offset="1" stop-color="#E45C00"/>
</linearGradient>
<linearGradient id="paint4_linear_1344_31792" x1="252" y1="2" x2="252" y2="56" gradientUnits="userSpaceOnUse">
<stop stop-color="#FF7C06"/>
<stop offset="1" stop-color="#E45C00"/>
</linearGradient>
<linearGradient id="paint5_linear_1344_31792" x1="252" y1="2" x2="252" y2="56" gradientUnits="userSpaceOnUse">
<stop stop-color="#FF7C06"/>
<stop offset="1" stop-color="#E45C00"/>
</linearGradient>
<linearGradient id="paint6_linear_1344_31792" x1="252" y1="2" x2="252" y2="56" gradientUnits="userSpaceOnUse">
<stop stop-color="#FF7C06"/>
<stop offset="1" stop-color="#E45C00"/>
</linearGradient>
<linearGradient id="paint7_linear_1344_31792" x1="252" y1="2" x2="252" y2="56" gradientUnits="userSpaceOnUse">
<stop stop-color="#FF7C06"/>
<stop offset="1" stop-color="#E45C00"/>
</linearGradient>
</defs>
</svg>
