<svg width="75" height="658" viewBox="0 0 75 658" fill="none" xmlns="http://www.w3.org/2000/svg">
<g opacity="0.2">
<mask id="path-1-outside-1_3101_1067" maskUnits="userSpaceOnUse" x="-0.402372" y="-3.19093e-06" width="75" height="658" fill="black">
<rect fill="white" x="-0.402372" y="-3.19093e-06" width="75" height="658"/>
<path d="M49.0649 59.6571L66.7145 59.6572L72.5977 59.6572L72.5977 72.4698L66.7145 72.4698L60.8313 72.4698L13.7658 72.4698L1.99948 72.4698L1.99948 59.6571L13.7658 59.6571L13.7658 53.2508L19.649 53.2508L19.649 46.8444L25.5322 46.8444L25.5322 40.4381L31.4154 40.4381L31.4154 34.0317L37.2986 34.0317L37.2986 27.6254L43.1817 27.6254L43.1817 21.219L49.0649 21.219L49.0649 14.8127L31.4154 14.8127L1.99948 14.8127L1.99948 8.40635L1.99948 2L7.88267 2L13.7658 2L19.649 2L31.4154 2L37.2986 2L43.1817 2L49.0649 2L54.9481 2L60.8313 2L66.7145 2L72.5977 2L72.5977 8.40635L72.5977 14.8127L66.7145 14.8127L66.7145 21.219L60.8313 21.219L60.8313 27.6254L54.9481 27.6254L54.9481 34.0317L49.0649 34.0317L49.0649 40.4381L43.1817 40.4381L43.1817 46.8444L37.2986 46.8444L37.2986 53.2508L31.4154 53.2508L31.4154 59.6571L49.0649 59.6571Z"/>
<path d="M60.8313 85.3167L66.7145 85.3167L72.5977 85.3167L72.5977 91.7231L72.5977 98.1294L72.5977 117.348L72.5976 155.787L60.8313 155.787L60.8313 149.38L60.8313 142.974L60.8313 130.161L60.8313 123.755L60.8313 117.348L60.8313 104.536L60.8313 98.1294L43.1817 98.1294L43.1817 142.974L31.4154 142.974L31.4154 98.1294L1.99948 98.1294L1.99948 91.723L1.99948 85.3167L7.88266 85.3167L13.7658 85.3167L19.649 85.3167L31.4154 85.3167L37.2986 85.3167L43.1817 85.3167L49.0649 85.3167L54.9481 85.3167L60.8313 85.3167Z"/>
<path d="M60.8313 168.633L66.7145 168.633L72.5976 168.633L72.5976 175.04L72.5976 181.446L72.5976 200.665L72.5976 232.697L60.8313 232.697L60.8313 226.291L60.8313 219.884L60.8313 207.072L31.4154 207.072L1.99947 207.072L1.99947 194.259L31.4154 194.259L60.8313 194.259L60.8313 187.852L60.8313 168.633Z"/>
<path d="M25.5322 348.08L19.649 348.08L19.649 354.486L13.7658 354.486L13.7658 360.892L13.7658 367.299L13.7658 373.705L13.7658 380.111L13.7658 386.518L19.649 386.518L19.649 392.924L25.5322 392.924L25.5322 386.518L31.4154 386.518L31.4154 380.111L31.4154 373.705L31.4154 367.299L31.4154 348.08L37.2986 348.08L37.2986 341.673L43.1817 341.673L43.1817 335.267L49.0649 335.267L54.9481 335.267L60.8313 335.267L60.8313 341.673L66.7145 341.673L66.7145 348.08L72.5976 348.08L72.5976 360.892L72.5976 367.299L72.5976 373.705L72.5976 392.924L66.7145 392.924L66.7145 399.33L60.8313 399.33L60.8313 405.737L49.0649 405.737L49.0649 392.924L54.9481 392.924L54.9481 386.518L60.8313 386.518L60.8313 380.111L60.8313 373.705L60.8313 367.299L60.8313 360.892L60.8313 354.486L54.9481 354.486L54.9481 348.08L49.0649 348.08L49.0649 354.486L43.1817 354.486L43.1817 360.892L43.1817 367.299L43.1817 373.705L43.1817 392.924L37.2986 392.924L37.2986 399.33L31.4154 399.33L31.4154 405.737L25.5322 405.737L19.649 405.737L13.7658 405.737L13.7658 399.33L7.88265 399.33L7.88265 392.924L1.99946 392.924L1.99946 373.705L1.99947 367.299L1.99947 348.08L7.88265 348.08L7.88265 341.673L13.7658 341.673L13.7658 335.267L25.5322 335.267L25.5322 348.08Z"/>
<path d="M31.4154 476.241L31.4154 431.396L1.99946 431.396L1.99946 424.99L1.99946 418.584L7.88265 418.584L13.7658 418.584L19.649 418.584L31.4154 418.584L37.2986 418.584L43.1817 418.584L49.0649 418.584L54.9481 418.584L60.8313 418.584L66.7145 418.584L72.5976 418.584L72.5976 424.99L72.5976 431.396L43.1817 431.396L43.1817 476.241L72.5976 476.241L72.5976 489.053L60.8313 489.053L13.7658 489.053L1.99946 489.053L1.99946 476.241L31.4154 476.241Z"/>
<path d="M60.8313 533.932L60.8313 527.526L60.8313 521.119L54.9481 521.119L54.9481 514.713L49.0649 514.713L43.1817 514.713L31.4154 514.713L25.5322 514.713L19.649 514.713L19.649 521.119L13.7658 521.119L13.7658 527.526L13.7658 533.932L13.7658 540.338L13.7658 546.745L13.7658 553.151L19.649 553.151L19.649 559.557L25.5322 559.557L31.4154 559.557L49.0649 559.557L54.9481 559.557L54.9481 553.151L60.8313 553.151L60.8313 546.745L60.8313 540.338L60.8313 533.932ZM31.4154 572.37L13.7658 572.37L13.7658 565.964L7.88264 565.964L7.88264 559.557L1.99946 559.557L1.99946 540.338L1.99946 533.932L1.99946 514.713L7.88265 514.713L7.88265 508.307L13.7658 508.307L13.7658 501.9L25.5322 501.9L31.4154 501.9L37.2985 501.9L43.1817 501.9L60.8313 501.9L60.8313 508.307L66.7145 508.307L66.7145 514.713L72.5976 514.713L72.5976 527.526L72.5976 533.932L72.5976 540.338L72.5976 559.557L66.7144 559.557L66.7144 565.964L60.8313 565.964L60.8313 572.37L49.0649 572.37L31.4154 572.37Z"/>
<path d="M60.8313 585.217L66.7144 585.217L72.5976 585.217L72.5976 591.623L72.5976 598.03L72.5976 617.249L72.5976 642.874L66.7144 642.874L66.7144 649.28L60.8313 649.28L60.8313 655.687L49.0649 655.687L43.1817 655.687L37.2985 655.687L37.2985 649.28L31.4154 649.28L31.4154 642.874L25.5322 642.874L25.5322 617.249L25.5322 598.03L1.99946 598.03L1.99946 585.217L25.5322 585.217L31.4154 585.217L37.2985 585.217L43.1817 585.217L49.0649 585.217L54.9481 585.217L60.8313 585.217ZM60.8313 617.249L60.8313 604.436L60.8313 598.03L43.1817 598.03L37.2985 598.03L37.2985 604.436L37.2985 617.249L37.2985 623.655L37.2985 630.061L37.2985 636.468L43.1817 636.468L43.1817 642.874L49.0649 642.874L54.9481 642.874L54.9481 636.468L60.8313 636.468L60.8313 630.061L60.8313 623.655L60.8313 617.249Z"/>
</mask>
<path d="M49.0649 59.6571L66.7145 59.6572L72.5977 59.6572L72.5977 72.4698L66.7145 72.4698L60.8313 72.4698L13.7658 72.4698L1.99948 72.4698L1.99948 59.6571L13.7658 59.6571L13.7658 53.2508L19.649 53.2508L19.649 46.8444L25.5322 46.8444L25.5322 40.4381L31.4154 40.4381L31.4154 34.0317L37.2986 34.0317L37.2986 27.6254L43.1817 27.6254L43.1817 21.219L49.0649 21.219L49.0649 14.8127L31.4154 14.8127L1.99948 14.8127L1.99948 8.40635L1.99948 2L7.88267 2L13.7658 2L19.649 2L31.4154 2L37.2986 2L43.1817 2L49.0649 2L54.9481 2L60.8313 2L66.7145 2L72.5977 2L72.5977 8.40635L72.5977 14.8127L66.7145 14.8127L66.7145 21.219L60.8313 21.219L60.8313 27.6254L54.9481 27.6254L54.9481 34.0317L49.0649 34.0317L49.0649 40.4381L43.1817 40.4381L43.1817 46.8444L37.2986 46.8444L37.2986 53.2508L31.4154 53.2508L31.4154 59.6571L49.0649 59.6571Z" fill="#C6C6C6"/>
<path d="M60.8313 85.3167L66.7145 85.3167L72.5977 85.3167L72.5977 91.7231L72.5977 98.1294L72.5977 117.348L72.5976 155.787L60.8313 155.787L60.8313 149.38L60.8313 142.974L60.8313 130.161L60.8313 123.755L60.8313 117.348L60.8313 104.536L60.8313 98.1294L43.1817 98.1294L43.1817 142.974L31.4154 142.974L31.4154 98.1294L1.99948 98.1294L1.99948 91.723L1.99948 85.3167L7.88266 85.3167L13.7658 85.3167L19.649 85.3167L31.4154 85.3167L37.2986 85.3167L43.1817 85.3167L49.0649 85.3167L54.9481 85.3167L60.8313 85.3167Z" fill="#C6C6C6"/>
<path d="M60.8313 168.633L66.7145 168.633L72.5976 168.633L72.5976 175.04L72.5976 181.446L72.5976 200.665L72.5976 232.697L60.8313 232.697L60.8313 226.291L60.8313 219.884L60.8313 207.072L31.4154 207.072L1.99947 207.072L1.99947 194.259L31.4154 194.259L60.8313 194.259L60.8313 187.852L60.8313 168.633Z" fill="#C6C6C6"/>
<path d="M25.5322 348.08L19.649 348.08L19.649 354.486L13.7658 354.486L13.7658 360.892L13.7658 367.299L13.7658 373.705L13.7658 380.111L13.7658 386.518L19.649 386.518L19.649 392.924L25.5322 392.924L25.5322 386.518L31.4154 386.518L31.4154 380.111L31.4154 373.705L31.4154 367.299L31.4154 348.08L37.2986 348.08L37.2986 341.673L43.1817 341.673L43.1817 335.267L49.0649 335.267L54.9481 335.267L60.8313 335.267L60.8313 341.673L66.7145 341.673L66.7145 348.08L72.5976 348.08L72.5976 360.892L72.5976 367.299L72.5976 373.705L72.5976 392.924L66.7145 392.924L66.7145 399.33L60.8313 399.33L60.8313 405.737L49.0649 405.737L49.0649 392.924L54.9481 392.924L54.9481 386.518L60.8313 386.518L60.8313 380.111L60.8313 373.705L60.8313 367.299L60.8313 360.892L60.8313 354.486L54.9481 354.486L54.9481 348.08L49.0649 348.08L49.0649 354.486L43.1817 354.486L43.1817 360.892L43.1817 367.299L43.1817 373.705L43.1817 392.924L37.2986 392.924L37.2986 399.33L31.4154 399.33L31.4154 405.737L25.5322 405.737L19.649 405.737L13.7658 405.737L13.7658 399.33L7.88265 399.33L7.88265 392.924L1.99946 392.924L1.99946 373.705L1.99947 367.299L1.99947 348.08L7.88265 348.08L7.88265 341.673L13.7658 341.673L13.7658 335.267L25.5322 335.267L25.5322 348.08Z" fill="#C6C6C6"/>
<path d="M31.4154 476.241L31.4154 431.396L1.99946 431.396L1.99946 424.99L1.99946 418.584L7.88265 418.584L13.7658 418.584L19.649 418.584L31.4154 418.584L37.2986 418.584L43.1817 418.584L49.0649 418.584L54.9481 418.584L60.8313 418.584L66.7145 418.584L72.5976 418.584L72.5976 424.99L72.5976 431.396L43.1817 431.396L43.1817 476.241L72.5976 476.241L72.5976 489.053L60.8313 489.053L13.7658 489.053L1.99946 489.053L1.99946 476.241L31.4154 476.241Z" fill="#C6C6C6"/>
<path d="M60.8313 533.932L60.8313 527.526L60.8313 521.119L54.9481 521.119L54.9481 514.713L49.0649 514.713L43.1817 514.713L31.4154 514.713L25.5322 514.713L19.649 514.713L19.649 521.119L13.7658 521.119L13.7658 527.526L13.7658 533.932L13.7658 540.338L13.7658 546.745L13.7658 553.151L19.649 553.151L19.649 559.557L25.5322 559.557L31.4154 559.557L49.0649 559.557L54.9481 559.557L54.9481 553.151L60.8313 553.151L60.8313 546.745L60.8313 540.338L60.8313 533.932ZM31.4154 572.37L13.7658 572.37L13.7658 565.964L7.88264 565.964L7.88264 559.557L1.99946 559.557L1.99946 540.338L1.99946 533.932L1.99946 514.713L7.88265 514.713L7.88265 508.307L13.7658 508.307L13.7658 501.9L25.5322 501.9L31.4154 501.9L37.2985 501.9L43.1817 501.9L60.8313 501.9L60.8313 508.307L66.7145 508.307L66.7145 514.713L72.5976 514.713L72.5976 527.526L72.5976 533.932L72.5976 540.338L72.5976 559.557L66.7144 559.557L66.7144 565.964L60.8313 565.964L60.8313 572.37L49.0649 572.37L31.4154 572.37Z" fill="#C6C6C6"/>
<path d="M60.8313 585.217L66.7144 585.217L72.5976 585.217L72.5976 591.623L72.5976 598.03L72.5976 617.249L72.5976 642.874L66.7144 642.874L66.7144 649.28L60.8313 649.28L60.8313 655.687L49.0649 655.687L43.1817 655.687L37.2985 655.687L37.2985 649.28L31.4154 649.28L31.4154 642.874L25.5322 642.874L25.5322 617.249L25.5322 598.03L1.99946 598.03L1.99946 585.217L25.5322 585.217L31.4154 585.217L37.2985 585.217L43.1817 585.217L49.0649 585.217L54.9481 585.217L60.8313 585.217ZM60.8313 617.249L60.8313 604.436L60.8313 598.03L43.1817 598.03L37.2985 598.03L37.2985 604.436L37.2985 617.249L37.2985 623.655L37.2985 630.061L37.2985 636.468L43.1817 636.468L43.1817 642.874L49.0649 642.874L54.9481 642.874L54.9481 636.468L60.8313 636.468L60.8313 630.061L60.8313 623.655L60.8313 617.249Z" fill="#C6C6C6"/>
<path d="M66.7145 59.6572L66.7145 61.188L66.7145 59.6572ZM72.5977 59.6572L74.1285 59.6572L74.1285 58.1263L72.5977 58.1263L72.5977 59.6572ZM72.5977 72.4698L72.5977 74.0007L74.1285 74.0007L74.1285 72.4698L72.5977 72.4698ZM66.7145 72.4698L66.7145 74.0007L66.7145 72.4698ZM60.8313 72.4698L60.8313 70.939L60.8313 72.4698ZM13.7658 72.4698L13.7658 74.0007L13.7658 72.4698ZM1.99948 72.4698L0.468594 72.4698L0.468594 74.0007L1.99948 74.0007L1.99948 72.4698ZM1.99948 59.6571L1.99948 58.1263L0.468595 58.1263L0.468595 59.6571L1.99948 59.6571ZM13.7658 59.6571L13.7658 61.188L15.2967 61.188L15.2967 59.6571L13.7658 59.6571ZM13.7658 53.2508L13.7658 51.7199L12.235 51.7199L12.235 53.2508L13.7658 53.2508ZM19.649 53.2508L19.649 54.7817L21.1799 54.7817L21.1799 53.2508L19.649 53.2508ZM19.649 46.8444L19.649 45.3136L18.1181 45.3136L18.1181 46.8444L19.649 46.8444ZM25.5322 46.8444L25.5322 48.3753L27.0631 48.3753L27.0631 46.8444L25.5322 46.8444ZM25.5322 40.4381L25.5322 38.9072L24.0013 38.9072L24.0013 40.4381L25.5322 40.4381ZM31.4154 40.4381L31.4154 41.969L32.9463 41.969L32.9463 40.4381L31.4154 40.4381ZM31.4154 34.0317L31.4154 32.5009L29.8845 32.5009L29.8845 34.0317L31.4154 34.0317ZM37.2986 34.0317L37.2986 35.5626L38.8294 35.5626L38.8294 34.0317L37.2986 34.0317ZM37.2986 27.6254L37.2986 26.0945L35.7677 26.0945L35.7677 27.6254L37.2986 27.6254ZM43.1817 27.6254L43.1817 29.1563L44.7126 29.1563L44.7126 27.6254L43.1817 27.6254ZM43.1817 21.219L43.1817 19.6882L41.6509 19.6882L41.6509 21.219L43.1817 21.219ZM49.0649 21.219L49.0649 22.7499L50.5958 22.7499L50.5958 21.219L49.0649 21.219ZM49.0649 14.8127L50.5958 14.8127L50.5958 13.2818L49.0649 13.2818L49.0649 14.8127ZM1.99948 14.8127L0.468597 14.8127L0.468597 16.3436L1.99948 16.3436L1.99948 14.8127ZM1.99948 2L1.99948 0.469115L0.468597 0.469114L0.468597 2L1.99948 2ZM7.88267 2L7.88267 3.53088L7.88267 2ZM13.7658 2L13.7658 3.53088L13.7658 2ZM19.649 2L19.649 0.469115L19.649 2ZM31.4154 2L31.4154 3.53088L31.4154 2ZM37.2986 2L37.2986 0.469116L37.2986 2ZM43.1817 2L43.1817 0.469116L43.1817 2ZM49.0649 2L49.0649 3.53088L49.0649 2ZM54.9481 2L54.9481 0.469117L54.9481 2ZM60.8313 2L60.8313 0.469117L60.8313 2ZM66.7145 2L66.7145 3.53088L66.7145 2ZM72.5977 2L74.1285 2L74.1285 0.469118L72.5977 0.469118L72.5977 2ZM72.5977 14.8127L72.5977 16.3436L74.1285 16.3436L74.1285 14.8127L72.5977 14.8127ZM66.7145 14.8127L66.7145 13.2818L65.1836 13.2818L65.1836 14.8127L66.7145 14.8127ZM66.7145 21.219L66.7145 22.7499L68.2454 22.7499L68.2454 21.219L66.7145 21.219ZM60.8313 21.219L60.8313 19.6882L59.3004 19.6882L59.3004 21.219L60.8313 21.219ZM60.8313 27.6254L60.8313 29.1563L62.3622 29.1563L62.3622 27.6254L60.8313 27.6254ZM54.9481 27.6254L54.9481 26.0945L53.4172 26.0945L53.4172 27.6254L54.9481 27.6254ZM54.9481 34.0317L54.9481 35.5626L56.479 35.5626L56.479 34.0317L54.9481 34.0317ZM49.0649 34.0317L49.0649 32.5009L47.534 32.5009L47.534 34.0317L49.0649 34.0317ZM49.0649 40.4381L49.0649 41.969L50.5958 41.969L50.5958 40.4381L49.0649 40.4381ZM43.1817 40.4381L43.1817 38.9072L41.6509 38.9072L41.6509 40.4381L43.1817 40.4381ZM43.1817 46.8444L43.1817 48.3753L44.7126 48.3753L44.7126 46.8444L43.1817 46.8444ZM37.2986 46.8444L37.2986 45.3136L35.7677 45.3136L35.7677 46.8444L37.2986 46.8444ZM37.2986 53.2508L37.2986 54.7817L38.8294 54.7817L38.8294 53.2508L37.2986 53.2508ZM31.4154 53.2508L31.4154 51.7199L29.8845 51.7199L29.8845 53.2508L31.4154 53.2508ZM31.4154 59.6571L29.8845 59.6571L29.8845 61.188L31.4154 61.188L31.4154 59.6571ZM60.8313 85.3167L60.8313 83.7858L60.8313 85.3167ZM66.7145 85.3167L66.7145 86.8476L66.7145 85.3167ZM72.5977 85.3167L74.1285 85.3167L74.1285 83.7858L72.5977 83.7858L72.5977 85.3167ZM72.5977 91.7231L74.1285 91.7231L72.5977 91.7231ZM72.5977 98.1294L71.0668 98.1294L72.5977 98.1294ZM72.5977 117.348L71.0668 117.348L72.5977 117.348ZM72.5976 155.787L72.5976 157.317L74.1285 157.317L74.1285 155.787L72.5976 155.787ZM60.8313 155.787L59.3004 155.787L59.3004 157.317L60.8313 157.317L60.8313 155.787ZM60.8313 130.161L62.3622 130.161L60.8313 130.161ZM60.8313 123.755L59.3004 123.755L60.8313 123.755ZM60.8313 104.536L59.3004 104.536L60.8313 104.536ZM60.8313 98.1294L62.3622 98.1294L62.3622 96.5985L60.8313 96.5985L60.8313 98.1294ZM43.1817 98.1294L43.1817 96.5985L41.6509 96.5985L41.6509 98.1294L43.1817 98.1294ZM43.1817 142.974L43.1817 144.505L44.7126 144.505L44.7126 142.974L43.1817 142.974ZM31.4154 142.974L29.8845 142.974L29.8845 144.505L31.4154 144.505L31.4154 142.974ZM31.4154 98.1294L32.9463 98.1294L32.9463 96.5985L31.4154 96.5985L31.4154 98.1294ZM1.99948 98.1294L0.468593 98.1294L0.468593 99.6603L1.99948 99.6603L1.99948 98.1294ZM1.99948 91.723L3.53036 91.723L1.99948 91.723ZM1.99948 85.3167L1.99948 83.7858L0.468594 83.7858L0.468594 85.3167L1.99948 85.3167ZM7.88266 85.3167L7.88266 86.8476L7.88266 85.3167ZM13.7658 85.3167L13.7658 86.8476L13.7658 85.3167ZM19.649 85.3167L19.649 83.7858L19.649 85.3167ZM31.4154 85.3167L31.4154 86.8476L31.4154 85.3167ZM37.2986 85.3167L37.2986 83.7858L37.2986 85.3167ZM43.1817 85.3167L43.1817 83.7858L43.1817 85.3167ZM49.0649 85.3167L49.0649 86.8476L49.0649 85.3167ZM54.9481 85.3167L54.9481 83.7858L54.9481 85.3167ZM60.8313 168.633L60.8313 167.103L59.3004 167.103L59.3004 168.633L60.8313 168.633ZM66.7145 168.633L66.7145 170.164L66.7145 168.633ZM72.5976 168.633L74.1285 168.633L74.1285 167.103L72.5976 167.103L72.5976 168.633ZM72.5976 175.04L71.0668 175.04L72.5976 175.04ZM72.5976 181.446L74.1285 181.446L72.5976 181.446ZM72.5976 200.665L74.1285 200.665L72.5976 200.665ZM72.5976 232.697L72.5976 234.228L74.1285 234.228L74.1285 232.697L72.5976 232.697ZM60.8313 232.697L59.3004 232.697L59.3004 234.228L60.8313 234.228L60.8313 232.697ZM60.8313 226.291L62.3622 226.291L60.8313 226.291ZM60.8313 207.072L62.3622 207.072L62.3622 205.541L60.8313 205.541L60.8313 207.072ZM31.4154 207.072L31.4154 208.602L31.4154 207.072ZM1.99947 207.072L0.468588 207.072L0.468588 208.602L1.99947 208.602L1.99947 207.072ZM1.99947 194.259L1.99947 192.728L0.468589 192.728L0.468589 194.259L1.99947 194.259ZM31.4154 194.259L31.4154 195.79L31.4154 194.259ZM60.8313 194.259L60.8313 195.79L62.3622 195.79L62.3622 194.259L60.8313 194.259ZM60.8313 187.852L62.3622 187.852L60.8313 187.852ZM25.5322 348.08L25.5322 349.61L27.0631 349.61L27.0631 348.08L25.5322 348.08ZM19.649 348.08L19.649 346.549L18.1181 346.549L18.1181 348.08L19.649 348.08ZM19.649 354.486L19.649 356.017L21.1799 356.017L21.1799 354.486L19.649 354.486ZM13.7658 354.486L13.7658 352.955L12.2349 352.955L12.2349 354.486L13.7658 354.486ZM13.7658 360.892L12.2349 360.892L13.7658 360.892ZM13.7658 367.299L15.2967 367.299L13.7658 367.299ZM13.7658 386.518L12.2349 386.518L12.2349 388.049L13.7658 388.049L13.7658 386.518ZM19.649 386.518L21.1799 386.518L21.1799 384.987L19.649 384.987L19.649 386.518ZM19.649 392.924L18.1181 392.924L18.1181 394.455L19.649 394.455L19.649 392.924ZM25.5322 392.924L25.5322 394.455L27.0631 394.455L27.0631 392.924L25.5322 392.924ZM25.5322 386.518L25.5322 384.987L24.0013 384.987L24.0013 386.518L25.5322 386.518ZM31.4154 386.518L31.4154 388.049L32.9463 388.049L32.9463 386.518L31.4154 386.518ZM31.4154 367.299L32.9463 367.299L31.4154 367.299ZM31.4154 348.08L31.4154 346.549L29.8845 346.549L29.8845 348.08L31.4154 348.08ZM37.2986 348.08L37.2986 349.61L38.8294 349.61L38.8294 348.08L37.2986 348.08ZM37.2986 341.673L37.2986 340.142L35.7677 340.142L35.7677 341.673L37.2986 341.673ZM43.1817 341.673L43.1817 343.204L44.7126 343.204L44.7126 341.673L43.1817 341.673ZM43.1817 335.267L43.1817 333.736L41.6509 333.736L41.6509 335.267L43.1817 335.267ZM49.0649 335.267L49.0649 336.798L49.0649 335.267ZM54.9481 335.267L54.9481 336.798L54.9481 335.267ZM60.8313 335.267L62.3622 335.267L62.3622 333.736L60.8313 333.736L60.8313 335.267ZM60.8313 341.673L59.3004 341.673L59.3004 343.204L60.8313 343.204L60.8313 341.673ZM66.7145 341.673L68.2453 341.673L68.2453 340.142L66.7145 340.142L66.7145 341.673ZM66.7145 348.08L65.1836 348.08L65.1836 349.61L66.7145 349.61L66.7145 348.08ZM72.5976 348.08L74.1285 348.08L74.1285 346.549L72.5976 346.549L72.5976 348.08ZM72.5976 360.892L74.1285 360.892L72.5976 360.892ZM72.5976 373.705L74.1285 373.705L72.5976 373.705ZM72.5976 392.924L72.5976 394.455L74.1285 394.455L74.1285 392.924L72.5976 392.924ZM66.7145 392.924L66.7145 391.393L65.1836 391.393L65.1836 392.924L66.7145 392.924ZM66.7145 399.33L66.7145 400.861L68.2453 400.861L68.2453 399.33L66.7145 399.33ZM60.8313 399.33L60.8313 397.799L59.3004 397.799L59.3004 399.33L60.8313 399.33ZM60.8313 405.737L60.8313 407.268L62.3622 407.268L62.3622 405.737L60.8313 405.737ZM49.0649 405.737L47.534 405.737L47.534 407.268L49.0649 407.268L49.0649 405.737ZM49.0649 392.924L49.0649 391.393L47.534 391.393L47.534 392.924L49.0649 392.924ZM54.9481 392.924L54.9481 394.455L56.479 394.455L56.479 392.924L54.9481 392.924ZM54.9481 386.518L54.9481 384.987L53.4172 384.987L53.4172 386.518L54.9481 386.518ZM60.8313 386.518L60.8313 388.049L62.3622 388.049L62.3622 386.518L60.8313 386.518ZM60.8313 354.486L62.3622 354.486L62.3622 352.955L60.8313 352.955L60.8313 354.486ZM54.9481 354.486L53.4172 354.486L53.4172 356.017L54.9481 356.017L54.9481 354.486ZM54.9481 348.08L56.479 348.08L56.479 346.549L54.9481 346.549L54.9481 348.08ZM49.0649 348.08L49.0649 346.549L47.534 346.549L47.534 348.08L49.0649 348.08ZM49.0649 354.486L49.0649 356.017L50.5958 356.017L50.5958 354.486L49.0649 354.486ZM43.1817 354.486L43.1817 352.955L41.6509 352.955L41.6509 354.486L43.1817 354.486ZM43.1817 373.705L44.7126 373.705L43.1817 373.705ZM43.1817 392.924L43.1817 394.455L44.7126 394.455L44.7126 392.924L43.1817 392.924ZM37.2986 392.924L37.2986 391.393L35.7677 391.393L35.7677 392.924L37.2986 392.924ZM37.2986 399.33L37.2986 400.861L38.8294 400.861L38.8294 399.33L37.2986 399.33ZM31.4154 399.33L31.4154 397.799L29.8845 397.799L29.8845 399.33L31.4154 399.33ZM31.4154 405.737L31.4154 407.268L32.9463 407.268L32.9463 405.737L31.4154 405.737ZM25.5322 405.737L25.5322 404.206L25.5322 405.737ZM19.649 405.737L19.649 407.268L19.649 405.737ZM13.7658 405.737L12.2349 405.737L12.2349 407.268L13.7658 407.268L13.7658 405.737ZM13.7658 399.33L15.2967 399.33L15.2967 397.799L13.7658 397.799L13.7658 399.33ZM7.88265 399.33L6.35177 399.33L6.35177 400.861L7.88265 400.861L7.88265 399.33ZM7.88265 392.924L9.41353 392.924L9.41353 391.393L7.88265 391.393L7.88265 392.924ZM1.99946 392.924L0.46858 392.924L0.46858 394.455L1.99946 394.455L1.99946 392.924ZM1.99946 373.705L3.53035 373.705L1.99946 373.705ZM1.99947 367.299L3.53035 367.299L1.99947 367.299ZM1.99947 348.08L1.99947 346.549L0.468582 346.549L0.468582 348.08L1.99947 348.08ZM7.88265 348.08L7.88265 349.61L9.41353 349.61L9.41353 348.08L7.88265 348.08ZM7.88265 341.673L7.88265 340.142L6.35177 340.142L6.35177 341.673L7.88265 341.673ZM13.7658 341.673L13.7658 343.204L15.2967 343.204L15.2967 341.673L13.7658 341.673ZM13.7658 335.267L13.7658 333.736L12.2349 333.736L12.2349 335.267L13.7658 335.267ZM25.5322 335.267L27.0631 335.267L27.0631 333.736L25.5322 333.736L25.5322 335.267ZM31.4154 476.241L31.4154 477.772L32.9462 477.772L32.9462 476.241L31.4154 476.241ZM31.4154 431.396L32.9463 431.396L32.9463 429.865L31.4154 429.865L31.4154 431.396ZM1.99946 431.396L0.468579 431.396L0.468579 432.927L1.99946 432.927L1.99946 431.396ZM1.99946 424.99L0.468579 424.99L1.99946 424.99ZM1.99946 418.584L1.99946 417.053L0.468579 417.053L0.468579 418.584L1.99946 418.584ZM37.2986 418.584L37.2986 420.114L37.2986 418.584ZM43.1817 418.584L43.1817 417.053L43.1817 418.584ZM49.0649 418.584L49.0649 420.114L49.0649 418.584ZM54.9481 418.584L54.9481 420.114L54.9481 418.584ZM60.8313 418.584L60.8313 417.053L60.8313 418.584ZM66.7145 418.584L66.7145 420.114L66.7145 418.584ZM72.5976 418.584L74.1285 418.584L74.1285 417.053L72.5976 417.053L72.5976 418.584ZM72.5976 424.99L71.0668 424.99L72.5976 424.99ZM72.5976 431.396L72.5976 432.927L74.1285 432.927L74.1285 431.396L72.5976 431.396ZM43.1817 431.396L43.1817 429.865L41.6508 429.865L41.6508 431.396L43.1817 431.396ZM43.1817 476.241L41.6508 476.241L41.6508 477.772L43.1817 477.772L43.1817 476.241ZM72.5976 476.241L74.1285 476.241L74.1285 474.71L72.5976 474.71L72.5976 476.241ZM72.5976 489.053L72.5976 490.584L74.1285 490.584L74.1285 489.053L72.5976 489.053ZM60.8313 489.053L60.8313 487.522L60.8313 489.053ZM13.7658 489.053L13.7658 490.584L13.7658 489.053ZM1.99946 489.053L0.468576 489.053L0.468576 490.584L1.99946 490.584L1.99946 489.053ZM1.99946 476.241L1.99946 474.71L0.468577 474.71L0.468577 476.241L1.99946 476.241ZM60.8313 533.932L59.3004 533.932L60.8313 533.932ZM60.8313 527.526L62.3622 527.526L60.8313 527.526ZM60.8313 521.119L62.3622 521.119L62.3622 519.588L60.8313 519.588L60.8313 521.119ZM54.9481 521.119L53.4172 521.119L53.4172 522.65L54.9481 522.65L54.9481 521.119ZM54.9481 514.713L56.479 514.713L56.479 513.182L54.9481 513.182L54.9481 514.713ZM49.0649 514.713L49.0649 516.244L49.0649 514.713ZM43.1817 514.713L43.1817 513.182L43.1817 514.713ZM31.4154 514.713L31.4154 516.244L31.4154 514.713ZM19.649 514.713L19.649 513.182L18.1181 513.182L18.1181 514.713L19.649 514.713ZM19.649 521.119L19.649 522.65L21.1799 522.65L21.1799 521.119L19.649 521.119ZM13.7658 521.119L13.7658 519.588L12.2349 519.588L12.2349 521.119L13.7658 521.119ZM13.7658 527.526L12.2349 527.526L13.7658 527.526ZM13.7658 540.338L12.2349 540.338L13.7658 540.338ZM13.7658 546.745L15.2967 546.745L13.7658 546.745ZM13.7658 553.151L12.2349 553.151L12.2349 554.682L13.7658 554.682L13.7658 553.151ZM19.649 553.151L21.1799 553.151L21.1799 551.62L19.649 551.62L19.649 553.151ZM19.649 559.557L18.1181 559.557L18.1181 561.088L19.649 561.088L19.649 559.557ZM54.9481 559.557L54.9481 561.088L56.479 561.088L56.479 559.557L54.9481 559.557ZM54.9481 553.151L54.9481 551.62L53.4172 551.62L53.4172 553.151L54.9481 553.151ZM60.8313 553.151L60.8313 554.682L62.3622 554.682L62.3622 553.151L60.8313 553.151ZM60.8313 546.745L62.3622 546.745L60.8313 546.745ZM60.8313 540.338L59.3004 540.338L60.8313 540.338ZM13.7658 572.37L12.2349 572.37L12.2349 573.901L13.7658 573.901L13.7658 572.37ZM13.7658 565.964L15.2967 565.964L15.2967 564.433L13.7658 564.433L13.7658 565.964ZM7.88264 565.964L6.35176 565.964L6.35176 567.495L7.88264 567.495L7.88264 565.964ZM7.88264 559.557L9.41352 559.557L9.41352 558.026L7.88264 558.026L7.88264 559.557ZM1.99946 559.557L0.468573 559.557L0.468573 561.088L1.99946 561.088L1.99946 559.557ZM1.99946 540.338L0.468574 540.338L1.99946 540.338ZM1.99946 514.713L1.99946 513.182L0.468575 513.182L0.468575 514.713L1.99946 514.713ZM7.88265 514.713L7.88265 516.244L9.41353 516.244L9.41353 514.713L7.88265 514.713ZM7.88265 508.307L7.88265 506.776L6.35176 506.776L6.35176 508.307L7.88265 508.307ZM13.7658 508.307L13.7658 509.837L15.2967 509.837L15.2967 508.307L13.7658 508.307ZM13.7658 501.9L13.7658 500.369L12.2349 500.369L12.2349 501.9L13.7658 501.9ZM37.2985 501.9L37.2985 503.431L37.2985 501.9ZM43.1817 501.9L43.1817 500.369L43.1817 501.9ZM60.8313 501.9L62.3622 501.9L62.3622 500.369L60.8313 500.369L60.8313 501.9ZM60.8313 508.307L59.3004 508.307L59.3004 509.837L60.8313 509.837L60.8313 508.307ZM66.7145 508.307L68.2453 508.307L68.2453 506.776L66.7145 506.776L66.7145 508.307ZM66.7145 514.713L65.1836 514.713L65.1836 516.244L66.7145 516.244L66.7145 514.713ZM72.5976 514.713L74.1285 514.713L74.1285 513.182L72.5976 513.182L72.5976 514.713ZM72.5976 540.338L71.0668 540.338L72.5976 540.338ZM72.5976 559.557L72.5976 561.088L74.1285 561.088L74.1285 559.557L72.5976 559.557ZM66.7144 559.557L66.7144 558.026L65.1836 558.026L65.1836 559.557L66.7144 559.557ZM66.7144 565.964L66.7144 567.495L68.2453 567.495L68.2453 565.964L66.7144 565.964ZM60.8313 565.964L60.8313 564.433L59.3004 564.433L59.3004 565.964L60.8313 565.964ZM60.8313 572.37L60.8313 573.901L62.3622 573.901L62.3622 572.37L60.8313 572.37ZM72.5976 585.217L74.1285 585.217L74.1285 583.686L72.5976 583.686L72.5976 585.217ZM72.5976 598.03L71.0667 598.03L72.5976 598.03ZM72.5976 617.249L74.1285 617.249L72.5976 617.249ZM72.5976 642.874L72.5976 644.405L74.1285 644.405L74.1285 642.874L72.5976 642.874ZM66.7144 642.874L66.7144 641.343L65.1836 641.343L65.1836 642.874L66.7144 642.874ZM66.7144 649.28L66.7144 650.811L68.2453 650.811L68.2453 649.28L66.7144 649.28ZM60.8313 649.28L60.8313 647.75L59.3004 647.75L59.3004 649.28L60.8313 649.28ZM60.8313 655.687L60.8313 657.218L62.3621 657.218L62.3621 655.687L60.8313 655.687ZM37.2985 655.687L35.7677 655.687L35.7677 657.218L37.2985 657.218L37.2985 655.687ZM37.2985 649.28L38.8294 649.28L38.8294 647.75L37.2985 647.75L37.2985 649.28ZM31.4154 649.28L29.8845 649.28L29.8845 650.811L31.4154 650.811L31.4154 649.28ZM31.4154 642.874L32.9462 642.874L32.9462 641.343L31.4154 641.343L31.4154 642.874ZM25.5322 642.874L24.0013 642.874L24.0013 644.405L25.5322 644.405L25.5322 642.874ZM25.5322 598.03L27.0631 598.03L27.0631 596.499L25.5322 596.499L25.5322 598.03ZM1.99946 598.03L0.468571 598.03L0.468571 599.56L1.99946 599.56L1.99946 598.03ZM1.99946 585.217L1.99946 583.686L0.468572 583.686L0.468572 585.217L1.99946 585.217ZM60.8313 617.249L62.3622 617.249L60.8313 617.249ZM60.8313 604.436L59.3004 604.436L60.8313 604.436ZM60.8313 598.03L62.3622 598.03L62.3622 596.499L60.8313 596.499L60.8313 598.03ZM37.2985 598.03L37.2985 596.499L35.7677 596.499L35.7677 598.03L37.2985 598.03ZM37.2985 604.436L35.7677 604.436L37.2985 604.436ZM37.2985 617.249L38.8294 617.249L37.2985 617.249ZM37.2985 636.468L35.7677 636.468L35.7677 637.999L37.2985 637.999L37.2985 636.468ZM43.1817 636.468L44.7126 636.468L44.7126 634.937L43.1817 634.937L43.1817 636.468ZM43.1817 642.874L41.6508 642.874L41.6508 644.405L43.1817 644.405L43.1817 642.874ZM54.9481 642.874L54.9481 644.405L56.479 644.405L56.479 642.874L54.9481 642.874ZM54.9481 636.468L54.9481 634.937L53.4172 634.937L53.4172 636.468L54.9481 636.468ZM60.8313 636.468L60.8313 637.999L62.3622 637.999L62.3622 636.468L60.8313 636.468ZM49.0649 61.188L66.7145 61.188L66.7145 58.1263L49.0649 58.1263L49.0649 61.188ZM66.7145 61.188L72.5977 61.188L72.5977 58.1263L66.7145 58.1263L66.7145 61.188ZM71.0668 59.6572L71.0668 72.4698L74.1285 72.4698L74.1285 59.6572L71.0668 59.6572ZM72.5977 70.939L66.7145 70.939L66.7145 74.0007L72.5977 74.0007L72.5977 70.939ZM66.7145 70.939L60.8313 70.939L60.8313 74.0007L66.7145 74.0007L66.7145 70.939ZM60.8313 70.939L13.7658 70.939L13.7658 74.0007L60.8313 74.0007L60.8313 70.939ZM13.7658 70.939L1.99948 70.939L1.99948 74.0007L13.7658 74.0007L13.7658 70.939ZM3.53036 72.4698L3.53036 59.6571L0.468595 59.6571L0.468594 72.4698L3.53036 72.4698ZM1.99948 61.188L13.7658 61.188L13.7658 58.1263L1.99948 58.1263L1.99948 61.188ZM15.2967 59.6571L15.2967 53.2508L12.235 53.2508L12.235 59.6571L15.2967 59.6571ZM13.7658 54.7817L19.649 54.7817L19.649 51.7199L13.7658 51.7199L13.7658 54.7817ZM21.1799 53.2508L21.1799 46.8444L18.1181 46.8444L18.1181 53.2508L21.1799 53.2508ZM19.649 48.3753L25.5322 48.3753L25.5322 45.3136L19.649 45.3136L19.649 48.3753ZM27.0631 46.8444L27.0631 40.4381L24.0013 40.4381L24.0013 46.8444L27.0631 46.8444ZM25.5322 41.969L31.4154 41.969L31.4154 38.9072L25.5322 38.9072L25.5322 41.969ZM32.9463 40.4381L32.9463 34.0317L29.8845 34.0317L29.8845 40.4381L32.9463 40.4381ZM31.4154 35.5626L37.2986 35.5626L37.2986 32.5009L31.4154 32.5009L31.4154 35.5626ZM38.8294 34.0317L38.8294 27.6254L35.7677 27.6254L35.7677 34.0317L38.8294 34.0317ZM37.2986 29.1563L43.1817 29.1563L43.1817 26.0945L37.2986 26.0945L37.2986 29.1563ZM44.7126 27.6254L44.7126 21.219L41.6509 21.219L41.6509 27.6254L44.7126 27.6254ZM43.1817 22.7499L49.0649 22.7499L49.0649 19.6882L43.1817 19.6882L43.1817 22.7499ZM50.5958 21.219L50.5958 14.8127L47.534 14.8127L47.534 21.219L50.5958 21.219ZM49.0649 13.2818L31.4154 13.2818L31.4154 16.3436L49.0649 16.3436L49.0649 13.2818ZM31.4154 13.2818L1.99948 13.2818L1.99948 16.3436L31.4154 16.3436L31.4154 13.2818ZM3.53036 14.8127L3.53036 8.40635L0.468597 8.40635L0.468597 14.8127L3.53036 14.8127ZM3.53036 8.40635L3.53036 2L0.468597 2L0.468597 8.40635L3.53036 8.40635ZM1.99948 3.53088L7.88267 3.53088L7.88267 0.469115L1.99948 0.469115L1.99948 3.53088ZM7.88267 3.53088L13.7658 3.53088L13.7658 0.469115L7.88267 0.469115L7.88267 3.53088ZM13.7658 3.53088L19.649 3.53088L19.649 0.469115L13.7658 0.469115L13.7658 3.53088ZM19.649 3.53088L31.4154 3.53088L31.4154 0.469116L19.649 0.469115L19.649 3.53088ZM31.4154 3.53088L37.2986 3.53088L37.2986 0.469116L31.4154 0.469116L31.4154 3.53088ZM37.2986 3.53088L43.1817 3.53088L43.1817 0.469116L37.2986 0.469116L37.2986 3.53088ZM43.1817 3.53088L49.0649 3.53088L49.0649 0.469117L43.1817 0.469116L43.1817 3.53088ZM49.0649 3.53088L54.9481 3.53088L54.9481 0.469117L49.0649 0.469117L49.0649 3.53088ZM54.9481 3.53088L60.8313 3.53088L60.8313 0.469117L54.9481 0.469117L54.9481 3.53088ZM60.8313 3.53088L66.7145 3.53088L66.7145 0.469117L60.8313 0.469117L60.8313 3.53088ZM66.7145 3.53088L72.5977 3.53088L72.5977 0.469118L66.7145 0.469117L66.7145 3.53088ZM71.0668 2L71.0668 8.40635L74.1285 8.40635L74.1285 2L71.0668 2ZM71.0668 8.40635L71.0668 14.8127L74.1285 14.8127L74.1285 8.40635L71.0668 8.40635ZM72.5977 13.2818L66.7145 13.2818L66.7145 16.3436L72.5977 16.3436L72.5977 13.2818ZM65.1836 14.8127L65.1836 21.219L68.2454 21.219L68.2454 14.8127L65.1836 14.8127ZM66.7145 19.6882L60.8313 19.6882L60.8313 22.7499L66.7145 22.7499L66.7145 19.6882ZM59.3004 21.219L59.3004 27.6254L62.3622 27.6254L62.3622 21.219L59.3004 21.219ZM60.8313 26.0945L54.9481 26.0945L54.9481 29.1563L60.8313 29.1563L60.8313 26.0945ZM53.4172 27.6254L53.4172 34.0317L56.479 34.0317L56.479 27.6254L53.4172 27.6254ZM54.9481 32.5009L49.0649 32.5009L49.0649 35.5626L54.9481 35.5626L54.9481 32.5009ZM47.534 34.0317L47.534 40.4381L50.5958 40.4381L50.5958 34.0317L47.534 34.0317ZM49.0649 38.9072L43.1817 38.9072L43.1817 41.969L49.0649 41.969L49.0649 38.9072ZM41.6509 40.4381L41.6509 46.8444L44.7126 46.8444L44.7126 40.4381L41.6509 40.4381ZM43.1817 45.3136L37.2986 45.3136L37.2986 48.3753L43.1817 48.3753L43.1817 45.3136ZM35.7677 46.8444L35.7677 53.2508L38.8294 53.2508L38.8294 46.8444L35.7677 46.8444ZM37.2986 51.7199L31.4154 51.7199L31.4154 54.7817L37.2986 54.7817L37.2986 51.7199ZM29.8845 53.2508L29.8845 59.6571L32.9463 59.6571L32.9463 53.2508L29.8845 53.2508ZM31.4154 61.188L49.0649 61.188L49.0649 58.1263L31.4154 58.1263L31.4154 61.188ZM60.8313 86.8476L66.7145 86.8476L66.7145 83.7858L60.8313 83.7858L60.8313 86.8476ZM66.7145 86.8476L72.5977 86.8476L72.5977 83.7858L66.7145 83.7858L66.7145 86.8476ZM71.0668 85.3167L71.0668 91.7231L74.1285 91.7231L74.1285 85.3167L71.0668 85.3167ZM71.0668 91.7231L71.0668 98.1294L74.1285 98.1294L74.1285 91.7231L71.0668 91.7231ZM71.0668 98.1294L71.0668 117.348L74.1285 117.348L74.1285 98.1294L71.0668 98.1294ZM71.0668 117.348L71.0668 155.787L74.1285 155.787L74.1285 117.348L71.0668 117.348ZM72.5976 154.256L60.8313 154.256L60.8313 157.317L72.5976 157.317L72.5976 154.256ZM62.3622 155.787L62.3622 149.38L59.3004 149.38L59.3004 155.787L62.3622 155.787ZM62.3622 149.38L62.3622 142.974L59.3004 142.974L59.3004 149.38L62.3622 149.38ZM62.3622 142.974L62.3622 130.161L59.3004 130.161L59.3004 142.974L62.3622 142.974ZM62.3622 130.161L62.3622 123.755L59.3004 123.755L59.3004 130.161L62.3622 130.161ZM62.3622 123.755L62.3622 117.348L59.3004 117.348L59.3004 123.755L62.3622 123.755ZM62.3622 117.348L62.3622 104.536L59.3004 104.536L59.3004 117.348L62.3622 117.348ZM62.3622 104.536L62.3622 98.1294L59.3004 98.1294L59.3004 104.536L62.3622 104.536ZM60.8313 96.5985L43.1817 96.5985L43.1817 99.6603L60.8313 99.6603L60.8313 96.5985ZM41.6509 98.1294L41.6509 142.974L44.7126 142.974L44.7126 98.1294L41.6509 98.1294ZM43.1817 141.443L31.4154 141.443L31.4154 144.505L43.1817 144.505L43.1817 141.443ZM32.9463 142.974L32.9463 98.1294L29.8845 98.1294L29.8845 142.974L32.9463 142.974ZM31.4154 96.5985L1.99948 96.5985L1.99948 99.6603L31.4154 99.6603L31.4154 96.5985ZM3.53036 98.1294L3.53036 91.723L0.468593 91.723L0.468593 98.1294L3.53036 98.1294ZM3.53036 91.723L3.53036 85.3167L0.468594 85.3167L0.468593 91.723L3.53036 91.723ZM1.99948 86.8476L7.88266 86.8476L7.88266 83.7858L1.99948 83.7858L1.99948 86.8476ZM7.88266 86.8476L13.7658 86.8476L13.7658 83.7858L7.88266 83.7858L7.88266 86.8476ZM13.7658 86.8476L19.649 86.8476L19.649 83.7858L13.7658 83.7858L13.7658 86.8476ZM19.649 86.8476L31.4154 86.8476L31.4154 83.7858L19.649 83.7858L19.649 86.8476ZM31.4154 86.8476L37.2986 86.8476L37.2986 83.7858L31.4154 83.7858L31.4154 86.8476ZM37.2986 86.8476L43.1817 86.8476L43.1817 83.7858L37.2986 83.7858L37.2986 86.8476ZM43.1817 86.8476L49.0649 86.8476L49.0649 83.7858L43.1817 83.7858L43.1817 86.8476ZM49.0649 86.8476L54.9481 86.8476L54.9481 83.7858L49.0649 83.7858L49.0649 86.8476ZM54.9481 86.8476L60.8313 86.8476L60.8313 83.7858L54.9481 83.7858L54.9481 86.8476ZM60.8313 170.164L66.7145 170.164L66.7145 167.103L60.8313 167.103L60.8313 170.164ZM66.7145 170.164L72.5976 170.164L72.5976 167.103L66.7145 167.103L66.7145 170.164ZM71.0668 168.633L71.0668 175.04L74.1285 175.04L74.1285 168.633L71.0668 168.633ZM71.0668 175.04L71.0668 181.446L74.1285 181.446L74.1285 175.04L71.0668 175.04ZM71.0668 181.446L71.0668 200.665L74.1285 200.665L74.1285 181.446L71.0668 181.446ZM71.0668 200.665L71.0668 232.697L74.1285 232.697L74.1285 200.665L71.0668 200.665ZM72.5976 231.166L60.8313 231.166L60.8313 234.228L72.5976 234.228L72.5976 231.166ZM62.3622 232.697L62.3622 226.291L59.3004 226.291L59.3004 232.697L62.3622 232.697ZM62.3622 226.291L62.3622 219.884L59.3004 219.884L59.3004 226.291L62.3622 226.291ZM62.3622 219.884L62.3622 207.072L59.3004 207.072L59.3004 219.884L62.3622 219.884ZM60.8313 205.541L31.4154 205.541L31.4154 208.602L60.8313 208.602L60.8313 205.541ZM31.4154 205.541L1.99947 205.541L1.99947 208.602L31.4154 208.602L31.4154 205.541ZM3.53036 207.072L3.53036 194.259L0.468589 194.259L0.468588 207.072L3.53036 207.072ZM1.99947 195.79L31.4154 195.79L31.4154 192.728L1.99947 192.728L1.99947 195.79ZM31.4154 195.79L60.8313 195.79L60.8313 192.728L31.4154 192.728L31.4154 195.79ZM62.3622 194.259L62.3622 187.852L59.3004 187.852L59.3004 194.259L62.3622 194.259ZM62.3622 187.852L62.3622 168.633L59.3004 168.633L59.3004 187.852L62.3622 187.852ZM25.5322 346.549L19.649 346.549L19.649 349.61L25.5322 349.61L25.5322 346.549ZM18.1181 348.08L18.1181 354.486L21.1799 354.486L21.1799 348.08L18.1181 348.08ZM19.649 352.955L13.7658 352.955L13.7658 356.017L19.649 356.017L19.649 352.955ZM12.2349 354.486L12.2349 360.892L15.2967 360.892L15.2967 354.486L12.2349 354.486ZM12.2349 360.892L12.2349 367.299L15.2967 367.299L15.2967 360.892L12.2349 360.892ZM12.2349 367.299L12.2349 373.705L15.2967 373.705L15.2967 367.299L12.2349 367.299ZM12.2349 373.705L12.2349 380.111L15.2967 380.111L15.2967 373.705L12.2349 373.705ZM12.2349 380.111L12.2349 386.518L15.2967 386.518L15.2967 380.111L12.2349 380.111ZM13.7658 388.049L19.649 388.049L19.649 384.987L13.7658 384.987L13.7658 388.049ZM18.1181 386.518L18.1181 392.924L21.1799 392.924L21.1799 386.518L18.1181 386.518ZM19.649 394.455L25.5322 394.455L25.5322 391.393L19.649 391.393L19.649 394.455ZM27.0631 392.924L27.0631 386.518L24.0013 386.518L24.0013 392.924L27.0631 392.924ZM25.5322 388.049L31.4154 388.049L31.4154 384.987L25.5322 384.987L25.5322 388.049ZM32.9463 386.518L32.9463 380.111L29.8845 380.111L29.8845 386.518L32.9463 386.518ZM32.9463 380.111L32.9463 373.705L29.8845 373.705L29.8845 380.111L32.9463 380.111ZM32.9463 373.705L32.9463 367.299L29.8845 367.299L29.8845 373.705L32.9463 373.705ZM32.9463 367.299L32.9463 348.08L29.8845 348.08L29.8845 367.299L32.9463 367.299ZM31.4154 349.61L37.2986 349.61L37.2986 346.549L31.4154 346.549L31.4154 349.61ZM38.8294 348.08L38.8294 341.673L35.7677 341.673L35.7677 348.08L38.8294 348.08ZM37.2986 343.204L43.1817 343.204L43.1817 340.142L37.2986 340.142L37.2986 343.204ZM44.7126 341.673L44.7126 335.267L41.6509 335.267L41.6509 341.673L44.7126 341.673ZM43.1817 336.798L49.0649 336.798L49.0649 333.736L43.1817 333.736L43.1817 336.798ZM49.0649 336.798L54.9481 336.798L54.9481 333.736L49.0649 333.736L49.0649 336.798ZM54.9481 336.798L60.8313 336.798L60.8313 333.736L54.9481 333.736L54.9481 336.798ZM59.3004 335.267L59.3004 341.673L62.3622 341.673L62.3622 335.267L59.3004 335.267ZM60.8313 343.204L66.7145 343.204L66.7145 340.142L60.8313 340.142L60.8313 343.204ZM65.1836 341.673L65.1836 348.08L68.2453 348.08L68.2453 341.673L65.1836 341.673ZM66.7145 349.61L72.5976 349.61L72.5976 346.549L66.7145 346.549L66.7145 349.61ZM71.0668 348.08L71.0668 360.892L74.1285 360.892L74.1285 348.08L71.0668 348.08ZM71.0668 360.892L71.0668 367.299L74.1285 367.299L74.1285 360.892L71.0668 360.892ZM71.0668 367.299L71.0668 373.705L74.1285 373.705L74.1285 367.299L71.0668 367.299ZM71.0668 373.705L71.0668 392.924L74.1285 392.924L74.1285 373.705L71.0668 373.705ZM72.5976 391.393L66.7145 391.393L66.7145 394.455L72.5976 394.455L72.5976 391.393ZM65.1836 392.924L65.1836 399.33L68.2453 399.33L68.2453 392.924L65.1836 392.924ZM66.7145 397.799L60.8313 397.799L60.8313 400.861L66.7145 400.861L66.7145 397.799ZM59.3004 399.33L59.3004 405.737L62.3622 405.737L62.3622 399.33L59.3004 399.33ZM60.8313 404.206L49.0649 404.206L49.0649 407.268L60.8313 407.268L60.8313 404.206ZM50.5958 405.737L50.5958 392.924L47.534 392.924L47.534 405.737L50.5958 405.737ZM49.0649 394.455L54.9481 394.455L54.9481 391.393L49.0649 391.393L49.0649 394.455ZM56.479 392.924L56.479 386.518L53.4172 386.518L53.4172 392.924L56.479 392.924ZM54.9481 388.049L60.8313 388.049L60.8313 384.987L54.9481 384.987L54.9481 388.049ZM62.3622 386.518L62.3622 380.111L59.3004 380.111L59.3004 386.518L62.3622 386.518ZM62.3622 380.111L62.3622 373.705L59.3004 373.705L59.3004 380.111L62.3622 380.111ZM62.3622 373.705L62.3622 367.299L59.3004 367.299L59.3004 373.705L62.3622 373.705ZM62.3622 367.299L62.3622 360.892L59.3004 360.892L59.3004 367.299L62.3622 367.299ZM62.3622 360.892L62.3622 354.486L59.3004 354.486L59.3004 360.892L62.3622 360.892ZM60.8313 352.955L54.9481 352.955L54.9481 356.017L60.8313 356.017L60.8313 352.955ZM56.479 354.486L56.479 348.08L53.4172 348.08L53.4172 354.486L56.479 354.486ZM54.9481 346.549L49.0649 346.549L49.0649 349.61L54.9481 349.61L54.9481 346.549ZM47.534 348.08L47.534 354.486L50.5958 354.486L50.5958 348.08L47.534 348.08ZM49.0649 352.955L43.1817 352.955L43.1817 356.017L49.0649 356.017L49.0649 352.955ZM41.6509 354.486L41.6509 360.892L44.7126 360.892L44.7126 354.486L41.6509 354.486ZM41.6509 360.892L41.6509 367.299L44.7126 367.299L44.7126 360.892L41.6509 360.892ZM41.6509 367.299L41.6509 373.705L44.7126 373.705L44.7126 367.299L41.6509 367.299ZM41.6509 373.705L41.6509 392.924L44.7126 392.924L44.7126 373.705L41.6509 373.705ZM43.1817 391.393L37.2986 391.393L37.2986 394.455L43.1817 394.455L43.1817 391.393ZM35.7677 392.924L35.7677 399.33L38.8294 399.33L38.8294 392.924L35.7677 392.924ZM37.2986 397.799L31.4154 397.799L31.4154 400.861L37.2986 400.861L37.2986 397.799ZM29.8845 399.33L29.8845 405.737L32.9463 405.737L32.9463 399.33L29.8845 399.33ZM31.4154 404.206L25.5322 404.206L25.5322 407.268L31.4154 407.268L31.4154 404.206ZM25.5322 404.206L19.649 404.206L19.649 407.268L25.5322 407.268L25.5322 404.206ZM19.649 404.206L13.7658 404.206L13.7658 407.268L19.649 407.268L19.649 404.206ZM15.2967 405.737L15.2967 399.33L12.2349 399.33L12.2349 405.737L15.2967 405.737ZM13.7658 397.799L7.88265 397.799L7.88265 400.861L13.7658 400.861L13.7658 397.799ZM9.41353 399.33L9.41353 392.924L6.35177 392.924L6.35177 399.33L9.41353 399.33ZM7.88265 391.393L1.99946 391.393L1.99946 394.455L7.88265 394.455L7.88265 391.393ZM3.53035 392.924L3.53035 373.705L0.468581 373.705L0.46858 392.924L3.53035 392.924ZM3.53035 373.705L3.53035 367.299L0.468581 367.299L0.468581 373.705L3.53035 373.705ZM3.53035 367.299L3.53035 348.08L0.468582 348.08L0.468581 367.299L3.53035 367.299ZM1.99947 349.61L7.88265 349.61L7.88265 346.549L1.99947 346.549L1.99947 349.61ZM9.41353 348.08L9.41353 341.673L6.35177 341.673L6.35177 348.08L9.41353 348.08ZM7.88265 343.204L13.7658 343.204L13.7658 340.142L7.88265 340.142L7.88265 343.204ZM15.2967 341.673L15.2967 335.267L12.2349 335.267L12.2349 341.673L15.2967 341.673ZM13.7658 336.798L25.5322 336.798L25.5322 333.736L13.7658 333.736L13.7658 336.798ZM24.0013 335.267L24.0013 348.08L27.0631 348.08L27.0631 335.267L24.0013 335.267ZM32.9462 476.241L32.9463 431.396L29.8845 431.396L29.8845 476.241L32.9462 476.241ZM31.4154 429.865L1.99946 429.865L1.99946 432.927L31.4154 432.927L31.4154 429.865ZM3.53035 431.396L3.53035 424.99L0.468579 424.99L0.468579 431.396L3.53035 431.396ZM3.53035 424.99L3.53035 418.584L0.468579 418.584L0.468579 424.99L3.53035 424.99ZM1.99946 420.114L7.88265 420.114L7.88265 417.053L1.99946 417.053L1.99946 420.114ZM7.88265 420.114L13.7658 420.114L13.7658 417.053L7.88265 417.053L7.88265 420.114ZM13.7658 420.114L19.649 420.114L19.649 417.053L13.7658 417.053L13.7658 420.114ZM19.649 420.114L31.4154 420.114L31.4154 417.053L19.649 417.053L19.649 420.114ZM31.4154 420.114L37.2986 420.114L37.2986 417.053L31.4154 417.053L31.4154 420.114ZM37.2986 420.114L43.1817 420.114L43.1817 417.053L37.2986 417.053L37.2986 420.114ZM43.1817 420.114L49.0649 420.114L49.0649 417.053L43.1817 417.053L43.1817 420.114ZM49.0649 420.114L54.9481 420.114L54.9481 417.053L49.0649 417.053L49.0649 420.114ZM54.9481 420.114L60.8313 420.114L60.8313 417.053L54.9481 417.053L54.9481 420.114ZM60.8313 420.114L66.7145 420.114L66.7145 417.053L60.8313 417.053L60.8313 420.114ZM66.7145 420.114L72.5976 420.114L72.5976 417.053L66.7145 417.053L66.7145 420.114ZM71.0668 418.584L71.0668 424.99L74.1285 424.99L74.1285 418.584L71.0668 418.584ZM71.0668 424.99L71.0668 431.396L74.1285 431.396L74.1285 424.99L71.0668 424.99ZM72.5976 429.865L43.1817 429.865L43.1817 432.927L72.5976 432.927L72.5976 429.865ZM41.6508 431.396L41.6508 476.241L44.7126 476.241L44.7126 431.396L41.6508 431.396ZM43.1817 477.772L72.5976 477.772L72.5976 474.71L43.1817 474.71L43.1817 477.772ZM71.0668 476.241L71.0668 489.053L74.1285 489.053L74.1285 476.241L71.0668 476.241ZM72.5976 487.522L60.8313 487.522L60.8313 490.584L72.5976 490.584L72.5976 487.522ZM60.8313 487.522L13.7658 487.522L13.7658 490.584L60.8313 490.584L60.8313 487.522ZM13.7658 487.522L1.99946 487.522L1.99946 490.584L13.7658 490.584L13.7658 487.522ZM3.53034 489.053L3.53034 476.241L0.468577 476.241L0.468576 489.053L3.53034 489.053ZM1.99946 477.772L31.4154 477.772L31.4154 474.71L1.99946 474.71L1.99946 477.772ZM62.3622 533.932L62.3622 527.526L59.3004 527.526L59.3004 533.932L62.3622 533.932ZM62.3622 527.526L62.3622 521.119L59.3004 521.119L59.3004 527.526L62.3622 527.526ZM60.8313 519.588L54.9481 519.588L54.9481 522.65L60.8313 522.65L60.8313 519.588ZM56.479 521.119L56.479 514.713L53.4172 514.713L53.4172 521.119L56.479 521.119ZM54.9481 513.182L49.0649 513.182L49.0649 516.244L54.9481 516.244L54.9481 513.182ZM49.0649 513.182L43.1817 513.182L43.1817 516.244L49.0649 516.244L49.0649 513.182ZM43.1817 513.182L31.4154 513.182L31.4154 516.244L43.1817 516.244L43.1817 513.182ZM31.4154 513.182L25.5322 513.182L25.5322 516.244L31.4154 516.244L31.4154 513.182ZM25.5322 513.182L19.649 513.182L19.649 516.244L25.5322 516.244L25.5322 513.182ZM18.1181 514.713L18.1181 521.119L21.1799 521.119L21.1799 514.713L18.1181 514.713ZM19.649 519.588L13.7658 519.588L13.7658 522.65L19.649 522.65L19.649 519.588ZM12.2349 521.119L12.2349 527.526L15.2967 527.526L15.2967 521.119L12.2349 521.119ZM12.2349 527.526L12.2349 533.932L15.2967 533.932L15.2967 527.526L12.2349 527.526ZM12.2349 533.932L12.2349 540.338L15.2967 540.338L15.2967 533.932L12.2349 533.932ZM12.2349 540.338L12.2349 546.745L15.2967 546.745L15.2967 540.338L12.2349 540.338ZM12.2349 546.745L12.2349 553.151L15.2967 553.151L15.2967 546.745L12.2349 546.745ZM13.7658 554.682L19.649 554.682L19.649 551.62L13.7658 551.62L13.7658 554.682ZM18.1181 553.151L18.1181 559.557L21.1799 559.557L21.1799 553.151L18.1181 553.151ZM19.649 561.088L25.5322 561.088L25.5322 558.026L19.649 558.026L19.649 561.088ZM25.5322 561.088L31.4154 561.088L31.4154 558.026L25.5322 558.026L25.5322 561.088ZM31.4154 561.088L49.0649 561.088L49.0649 558.026L31.4154 558.026L31.4154 561.088ZM49.0649 561.088L54.9481 561.088L54.9481 558.026L49.0649 558.026L49.0649 561.088ZM56.479 559.557L56.479 553.151L53.4172 553.151L53.4172 559.557L56.479 559.557ZM54.9481 554.682L60.8313 554.682L60.8313 551.62L54.9481 551.62L54.9481 554.682ZM62.3622 553.151L62.3622 546.745L59.3004 546.745L59.3004 553.151L62.3622 553.151ZM62.3622 546.745L62.3622 540.338L59.3004 540.338L59.3004 546.745L62.3622 546.745ZM62.3622 540.338L62.3622 533.932L59.3004 533.932L59.3004 540.338L62.3622 540.338ZM31.4154 570.839L13.7658 570.839L13.7658 573.901L31.4154 573.901L31.4154 570.839ZM15.2967 572.37L15.2967 565.964L12.2349 565.964L12.2349 572.37L15.2967 572.37ZM13.7658 564.433L7.88264 564.433L7.88264 567.495L13.7658 567.495L13.7658 564.433ZM9.41352 565.964L9.41352 559.557L6.35176 559.557L6.35176 565.964L9.41352 565.964ZM7.88264 558.026L1.99946 558.026L1.99946 561.088L7.88264 561.088L7.88264 558.026ZM3.53034 559.557L3.53034 540.338L0.468574 540.338L0.468573 559.557L3.53034 559.557ZM3.53034 540.338L3.53034 533.932L0.468574 533.932L0.468574 540.338L3.53034 540.338ZM3.53034 533.932L3.53034 514.713L0.468575 514.713L0.468574 533.932L3.53034 533.932ZM1.99946 516.244L7.88265 516.244L7.88265 513.182L1.99946 513.182L1.99946 516.244ZM9.41353 514.713L9.41353 508.307L6.35176 508.307L6.35176 514.713L9.41353 514.713ZM7.88265 509.837L13.7658 509.837L13.7658 506.776L7.88265 506.776L7.88265 509.837ZM15.2967 508.307L15.2967 501.9L12.2349 501.9L12.2349 508.307L15.2967 508.307ZM13.7658 503.431L25.5322 503.431L25.5322 500.369L13.7658 500.369L13.7658 503.431ZM25.5322 503.431L31.4154 503.431L31.4154 500.369L25.5322 500.369L25.5322 503.431ZM31.4154 503.431L37.2985 503.431L37.2985 500.369L31.4154 500.369L31.4154 503.431ZM37.2985 503.431L43.1817 503.431L43.1817 500.369L37.2985 500.369L37.2985 503.431ZM43.1817 503.431L60.8313 503.431L60.8313 500.369L43.1817 500.369L43.1817 503.431ZM59.3004 501.9L59.3004 508.307L62.3622 508.307L62.3622 501.9L59.3004 501.9ZM60.8313 509.837L66.7145 509.837L66.7145 506.776L60.8313 506.776L60.8313 509.837ZM65.1836 508.307L65.1836 514.713L68.2453 514.713L68.2453 508.307L65.1836 508.307ZM66.7145 516.244L72.5976 516.244L72.5976 513.182L66.7145 513.182L66.7145 516.244ZM71.0668 514.713L71.0668 527.526L74.1285 527.526L74.1285 514.713L71.0668 514.713ZM71.0668 527.526L71.0668 533.932L74.1285 533.932L74.1285 527.526L71.0668 527.526ZM71.0668 533.932L71.0668 540.338L74.1285 540.338L74.1285 533.932L71.0668 533.932ZM71.0668 540.338L71.0667 559.557L74.1285 559.557L74.1285 540.338L71.0668 540.338ZM72.5976 558.026L66.7144 558.026L66.7144 561.088L72.5976 561.088L72.5976 558.026ZM65.1836 559.557L65.1836 565.964L68.2453 565.964L68.2453 559.557L65.1836 559.557ZM66.7144 564.433L60.8313 564.433L60.8313 567.495L66.7144 567.495L66.7144 564.433ZM59.3004 565.964L59.3004 572.37L62.3622 572.37L62.3622 565.964L59.3004 565.964ZM60.8313 570.839L49.0649 570.839L49.0649 573.901L60.8313 573.901L60.8313 570.839ZM49.0649 570.839L31.4154 570.839L31.4154 573.901L49.0649 573.901L49.0649 570.839ZM60.8313 586.748L66.7144 586.748L66.7144 583.686L60.8313 583.686L60.8313 586.748ZM66.7144 586.748L72.5976 586.748L72.5976 583.686L66.7144 583.686L66.7144 586.748ZM71.0667 585.217L71.0667 591.623L74.1285 591.623L74.1285 585.217L71.0667 585.217ZM71.0667 591.623L71.0667 598.03L74.1285 598.03L74.1285 591.623L71.0667 591.623ZM71.0667 598.03L71.0667 617.249L74.1285 617.249L74.1285 598.03L71.0667 598.03ZM71.0667 617.249L71.0667 642.874L74.1285 642.874L74.1285 617.249L71.0667 617.249ZM72.5976 641.343L66.7144 641.343L66.7144 644.405L72.5976 644.405L72.5976 641.343ZM65.1836 642.874L65.1836 649.28L68.2453 649.28L68.2453 642.874L65.1836 642.874ZM66.7144 647.75L60.8313 647.75L60.8313 650.811L66.7144 650.811L66.7144 647.75ZM59.3004 649.28L59.3004 655.687L62.3621 655.687L62.3621 649.28L59.3004 649.28ZM60.8313 654.156L49.0649 654.156L49.0649 657.218L60.8313 657.218L60.8313 654.156ZM49.0649 654.156L43.1817 654.156L43.1817 657.218L49.0649 657.218L49.0649 654.156ZM43.1817 654.156L37.2985 654.156L37.2985 657.218L43.1817 657.218L43.1817 654.156ZM38.8294 655.687L38.8294 649.28L35.7677 649.28L35.7677 655.687L38.8294 655.687ZM37.2985 647.75L31.4154 647.75L31.4154 650.811L37.2985 650.811L37.2985 647.75ZM32.9462 649.28L32.9462 642.874L29.8845 642.874L29.8845 649.28L32.9462 649.28ZM31.4154 641.343L25.5322 641.343L25.5322 644.405L31.4154 644.405L31.4154 641.343ZM27.0631 642.874L27.0631 617.249L24.0013 617.249L24.0013 642.874L27.0631 642.874ZM27.0631 617.249L27.0631 598.03L24.0013 598.03L24.0013 617.249L27.0631 617.249ZM25.5322 596.499L1.99946 596.499L1.99946 599.56L25.5322 599.56L25.5322 596.499ZM3.53034 598.03L3.53034 585.217L0.468572 585.217L0.468571 598.03L3.53034 598.03ZM1.99946 586.748L25.5322 586.748L25.5322 583.686L1.99946 583.686L1.99946 586.748ZM25.5322 586.748L31.4154 586.748L31.4154 583.686L25.5322 583.686L25.5322 586.748ZM31.4154 586.748L37.2985 586.748L37.2985 583.686L31.4154 583.686L31.4154 586.748ZM37.2985 586.748L43.1817 586.748L43.1817 583.686L37.2985 583.686L37.2985 586.748ZM43.1817 586.748L49.0649 586.748L49.0649 583.686L43.1817 583.686L43.1817 586.748ZM49.0649 586.748L54.9481 586.748L54.9481 583.686L49.0649 583.686L49.0649 586.748ZM54.9481 586.748L60.8313 586.748L60.8313 583.686L54.9481 583.686L54.9481 586.748ZM62.3622 617.249L62.3622 604.436L59.3004 604.436L59.3004 617.249L62.3622 617.249ZM62.3622 604.436L62.3622 598.03L59.3004 598.03L59.3004 604.436L62.3622 604.436ZM60.8313 596.499L43.1817 596.499L43.1817 599.56L60.8313 599.56L60.8313 596.499ZM43.1817 596.499L37.2985 596.499L37.2985 599.56L43.1817 599.56L43.1817 596.499ZM35.7677 598.03L35.7677 604.436L38.8294 604.436L38.8294 598.03L35.7677 598.03ZM35.7677 604.436L35.7677 617.249L38.8294 617.249L38.8294 604.436L35.7677 604.436ZM35.7677 617.249L35.7677 623.655L38.8294 623.655L38.8294 617.249L35.7677 617.249ZM35.7677 623.655L35.7677 630.061L38.8294 630.061L38.8294 623.655L35.7677 623.655ZM35.7677 630.061L35.7677 636.468L38.8294 636.468L38.8294 630.061L35.7677 630.061ZM37.2985 637.999L43.1817 637.999L43.1817 634.937L37.2985 634.937L37.2985 637.999ZM41.6508 636.468L41.6508 642.874L44.7126 642.874L44.7126 636.468L41.6508 636.468ZM43.1817 644.405L49.0649 644.405L49.0649 641.343L43.1817 641.343L43.1817 644.405ZM49.0649 644.405L54.9481 644.405L54.9481 641.343L49.0649 641.343L49.0649 644.405ZM56.479 642.874L56.479 636.468L53.4172 636.468L53.4172 642.874L56.479 642.874ZM54.9481 637.999L60.8313 637.999L60.8313 634.937L54.9481 634.937L54.9481 637.999ZM62.3622 636.468L62.3622 630.061L59.3004 630.061L59.3004 636.468L62.3622 636.468ZM62.3622 630.061L62.3622 623.655L59.3004 623.655L59.3004 630.061L62.3622 630.061ZM62.3622 623.655L62.3622 617.249L59.3004 617.249L59.3004 623.655L62.3622 623.655Z" fill="#C6C6C6" mask="url(#path-1-outside-1_3101_1067)"/>
</g>
</svg>
