<svg width="167" height="21" viewBox="0 0 167 21" fill="none" xmlns="http://www.w3.org/2000/svg">
<mask id="path-1-outside-1_1338_1247" maskUnits="userSpaceOnUse" x="0.0234375" y="0.310547" width="167" height="20" fill="black">
<rect fill="white" x="0.0234375" y="0.310547" width="167" height="20"/>
<path d="M15.5565 7.24222V2.79347V1.31055H18.7861V2.79347V4.27638V16.1397V19.1056H15.5565V16.1397H13.9417V14.6568H12.327V13.1739H10.7122V11.691H9.09738V10.2081H7.48259V8.72514H5.8678V7.24222H4.25302V11.691V19.1056H2.63823H1.02344V17.6226V16.1397V14.6568V11.691V10.2081V8.72514V7.24222V5.7593V4.27638V2.79347V1.31055H2.63823H4.25302V2.79347H5.8678V4.27638H7.48259V5.7593H9.09738V7.24222H10.7122V8.72514H12.327V10.2081H13.9417V11.691H15.5565V7.24222Z"/>
<path d="M22.0243 4.27638V2.79347V1.31055H23.6391H25.2539H30.0983H39.787V4.27638H38.1722H36.5574H33.3278H31.713H30.0983H26.8687H25.2539V8.72514H36.5574V11.691H25.2539V19.1056H23.6391H22.0243V17.6226V16.1397V14.6568V11.691V10.2081V8.72514V7.24222V5.7593V4.27638Z"/>
<path d="M43.0252 4.27638V2.79347V1.31055H44.64H46.2547H51.0991H59.1731V4.27638H57.5583H55.9435H52.7139V11.691V19.1056H49.4843V11.691V4.27638H47.8695H43.0252Z"/>
<path d="M88.2565 13.1739V14.6568H89.8713V16.1397H91.4861H93.1009H94.7156H96.3304H97.9452V14.6568H99.56V13.1739H97.9452V11.691H96.3304H94.7156H93.1009H88.2565V10.2081H86.6417V8.72514H85.0269V7.24222V5.7593V4.27638H86.6417V2.79347H88.2565V1.31055H91.4861H93.1009H94.7156H99.56V2.79347H101.175V4.27638H102.79V7.24222H99.56V5.7593H97.9452V4.27638H96.3304H94.7156H93.1009H91.4861H89.8713V5.7593H88.2565V7.24222H89.8713V8.72514H91.4861H93.1009H94.7156H99.56V10.2081H101.175V11.691H102.79V13.1739V14.6568V16.1397H101.175V17.6226H99.56V19.1056H94.7156H93.1009H88.2565V17.6226H86.6417V16.1397H85.0269V13.1739H88.2565Z"/>
<path d="M120.561 11.691H109.257V19.1056H107.643H106.028V17.6226V16.1397V14.6568V11.691V10.2081V8.72514V7.24222V5.7593V4.27638V2.79347V1.31055H107.643H109.257V8.72514H120.561V1.31055H123.79V4.27638V16.1397V19.1056H120.561V11.691Z"/>
<path d="M135.103 4.27638H133.488H131.873V5.7593H130.258V7.24222V8.72514V11.691V13.1739V14.6568H131.873V16.1397H133.488H135.103H136.717H138.332H139.947V14.6568H141.562V13.1739V11.691V7.24222V5.7593H139.947V4.27638H138.332H136.717H135.103ZM144.791 11.691V16.1397H143.177V17.6226H141.562V19.1056H136.717H135.103H130.258V17.6226H128.643V16.1397H127.029V13.1739V11.691V10.2081V8.72514V4.27638H128.643V2.79347H130.258V1.31055H133.488H135.103H136.717H141.562V2.79347H143.177V4.27638H144.791V7.24222V11.691Z"/>
<path d="M148.03 4.27638V2.79347V1.31055H149.644H151.259H156.103H162.563V2.79347H164.177V4.27638H165.792V7.24222V8.72514V10.2081H164.177V11.691H162.563V13.1739H156.103H151.259V19.1056H148.03V13.1739V11.691V10.2081V8.72514V7.24222V5.7593V4.27638ZM156.103 4.27638H152.874H151.259V8.72514V10.2081H152.874H156.103H157.718H159.333H160.948V8.72514H162.563V7.24222V5.7593H160.948V4.27638H159.333H157.718H156.103Z"/>
</mask>
<path d="M15.5565 7.24222V2.79347V1.31055H18.7861V2.79347V4.27638V16.1397V19.1056H15.5565V16.1397H13.9417V14.6568H12.327V13.1739H10.7122V11.691H9.09738V10.2081H7.48259V8.72514H5.8678V7.24222H4.25302V11.691V19.1056H2.63823H1.02344V17.6226V16.1397V14.6568V11.691V10.2081V8.72514V7.24222V5.7593V4.27638V2.79347V1.31055H2.63823H4.25302V2.79347H5.8678V4.27638H7.48259V5.7593H9.09738V7.24222H10.7122V8.72514H12.327V10.2081H13.9417V11.691H15.5565V7.24222Z" fill="#393939"/>
<path d="M22.0243 4.27638V2.79347V1.31055H23.6391H25.2539H30.0983H39.787V4.27638H38.1722H36.5574H33.3278H31.713H30.0983H26.8687H25.2539V8.72514H36.5574V11.691H25.2539V19.1056H23.6391H22.0243V17.6226V16.1397V14.6568V11.691V10.2081V8.72514V7.24222V5.7593V4.27638Z" fill="#393939"/>
<path d="M43.0252 4.27638V2.79347V1.31055H44.64H46.2547H51.0991H59.1731V4.27638H57.5583H55.9435H52.7139V11.691V19.1056H49.4843V11.691V4.27638H47.8695H43.0252Z" fill="#393939"/>
<path d="M88.2565 13.1739V14.6568H89.8713V16.1397H91.4861H93.1009H94.7156H96.3304H97.9452V14.6568H99.56V13.1739H97.9452V11.691H96.3304H94.7156H93.1009H88.2565V10.2081H86.6417V8.72514H85.0269V7.24222V5.7593V4.27638H86.6417V2.79347H88.2565V1.31055H91.4861H93.1009H94.7156H99.56V2.79347H101.175V4.27638H102.79V7.24222H99.56V5.7593H97.9452V4.27638H96.3304H94.7156H93.1009H91.4861H89.8713V5.7593H88.2565V7.24222H89.8713V8.72514H91.4861H93.1009H94.7156H99.56V10.2081H101.175V11.691H102.79V13.1739V14.6568V16.1397H101.175V17.6226H99.56V19.1056H94.7156H93.1009H88.2565V17.6226H86.6417V16.1397H85.0269V13.1739H88.2565Z" fill="#393939"/>
<path d="M120.561 11.691H109.257V19.1056H107.643H106.028V17.6226V16.1397V14.6568V11.691V10.2081V8.72514V7.24222V5.7593V4.27638V2.79347V1.31055H107.643H109.257V8.72514H120.561V1.31055H123.79V4.27638V16.1397V19.1056H120.561V11.691Z" fill="#393939"/>
<path d="M135.103 4.27638H133.488H131.873V5.7593H130.258V7.24222V8.72514V11.691V13.1739V14.6568H131.873V16.1397H133.488H135.103H136.717H138.332H139.947V14.6568H141.562V13.1739V11.691V7.24222V5.7593H139.947V4.27638H138.332H136.717H135.103ZM144.791 11.691V16.1397H143.177V17.6226H141.562V19.1056H136.717H135.103H130.258V17.6226H128.643V16.1397H127.029V13.1739V11.691V10.2081V8.72514V4.27638H128.643V2.79347H130.258V1.31055H133.488H135.103H136.717H141.562V2.79347H143.177V4.27638H144.791V7.24222V11.691Z" fill="#393939"/>
<path d="M148.03 4.27638V2.79347V1.31055H149.644H151.259H156.103H162.563V2.79347H164.177V4.27638H165.792V7.24222V8.72514V10.2081H164.177V11.691H162.563V13.1739H156.103H151.259V19.1056H148.03V13.1739V11.691V10.2081V8.72514V7.24222V5.7593V4.27638ZM156.103 4.27638H152.874H151.259V8.72514V10.2081H152.874H156.103H157.718H159.333H160.948V8.72514H162.563V7.24222V5.7593H160.948V4.27638H159.333H157.718H156.103Z" fill="#393939"/>
<path d="M15.5565 1.31055V0.310547H14.5565V1.31055H15.5565ZM18.7861 1.31055H19.7861V0.310547H18.7861V1.31055ZM18.7861 19.1056V20.1056H19.7861V19.1056H18.7861ZM15.5565 19.1056H14.5565V20.1056H15.5565V19.1056ZM15.5565 16.1397H16.5565V15.1397H15.5565V16.1397ZM13.9417 16.1397H12.9417V17.1397H13.9417V16.1397ZM13.9417 14.6568H14.9417V13.6568H13.9417V14.6568ZM12.327 14.6568H11.327V15.6568H12.327V14.6568ZM12.327 13.1739H13.327V12.1739H12.327V13.1739ZM10.7122 13.1739H9.71217V14.1739H10.7122V13.1739ZM10.7122 11.691H11.7122V10.691H10.7122V11.691ZM9.09738 11.691H8.09738V12.691H9.09738V11.691ZM9.09738 10.2081H10.0974V9.20806H9.09738V10.2081ZM7.48259 10.2081H6.48259V11.2081H7.48259V10.2081ZM7.48259 8.72514H8.48259V7.72514H7.48259V8.72514ZM5.8678 8.72514H4.8678V9.72514H5.8678V8.72514ZM5.8678 7.24222H6.8678V6.24222H5.8678V7.24222ZM4.25302 7.24222V6.24222H3.25302V7.24222H4.25302ZM4.25302 19.1056V20.1056H5.25302V19.1056H4.25302ZM1.02344 19.1056H0.0234375V20.1056H1.02344V19.1056ZM1.02344 1.31055V0.310547H0.0234375V1.31055H1.02344ZM4.25302 1.31055H5.25302V0.310547H4.25302V1.31055ZM4.25302 2.79347H3.25302V3.79347H4.25302V2.79347ZM5.8678 2.79347H6.8678V1.79347H5.8678V2.79347ZM5.8678 4.27638H4.8678V5.27638H5.8678V4.27638ZM7.48259 4.27638H8.48259V3.27638H7.48259V4.27638ZM7.48259 5.7593H6.48259V6.7593H7.48259V5.7593ZM9.09738 5.7593H10.0974V4.7593H9.09738V5.7593ZM9.09738 7.24222H8.09738V8.24222H9.09738V7.24222ZM10.7122 7.24222H11.7122V6.24222H10.7122V7.24222ZM10.7122 8.72514H9.71217V9.72514H10.7122V8.72514ZM12.327 8.72514H13.327V7.72514H12.327V8.72514ZM12.327 10.2081H11.327V11.2081H12.327V10.2081ZM13.9417 10.2081H14.9417V9.20806H13.9417V10.2081ZM13.9417 11.691H12.9417V12.691H13.9417V11.691ZM15.5565 11.691V12.691H16.5565V11.691H15.5565ZM22.0243 1.31055V0.310547H21.0243V1.31055H22.0243ZM39.787 1.31055H40.787V0.310547H39.787V1.31055ZM39.787 4.27638V5.27638H40.787V4.27638H39.787ZM25.2539 4.27638V3.27638H24.2539V4.27638H25.2539ZM25.2539 8.72514H24.2539V9.72514H25.2539V8.72514ZM36.5574 8.72514H37.5574V7.72514H36.5574V8.72514ZM36.5574 11.691V12.691H37.5574V11.691H36.5574ZM25.2539 11.691V10.691H24.2539V11.691H25.2539ZM25.2539 19.1056V20.1056H26.2539V19.1056H25.2539ZM22.0243 19.1056H21.0243V20.1056H22.0243V19.1056ZM43.0252 4.27638H42.0252V5.27638H43.0252V4.27638ZM43.0252 1.31055V0.310547H42.0252V1.31055H43.0252ZM59.1731 1.31055H60.1731V0.310547H59.1731V1.31055ZM59.1731 4.27638V5.27638H60.1731V4.27638H59.1731ZM52.7139 4.27638V3.27638H51.7139V4.27638H52.7139ZM52.7139 19.1056V20.1056H53.7139V19.1056H52.7139ZM49.4843 19.1056H48.4843V20.1056H49.4843V19.1056ZM49.4843 4.27638H50.4843V3.27638H49.4843V4.27638ZM88.2565 13.1739H89.2565V12.1739H88.2565V13.1739ZM88.2565 14.6568H87.2565V15.6568H88.2565V14.6568ZM89.8713 14.6568H90.8713V13.6568H89.8713V14.6568ZM89.8713 16.1397H88.8713V17.1397H89.8713V16.1397ZM97.9452 16.1397V17.1397H98.9452V16.1397H97.9452ZM97.9452 14.6568V13.6568H96.9452V14.6568H97.9452ZM99.56 14.6568V15.6568H100.56V14.6568H99.56ZM99.56 13.1739H100.56V12.1739H99.56V13.1739ZM97.9452 13.1739H96.9452V14.1739H97.9452V13.1739ZM97.9452 11.691H98.9452V10.691H97.9452V11.691ZM88.2565 11.691H87.2565V12.691H88.2565V11.691ZM88.2565 10.2081H89.2565V9.20806H88.2565V10.2081ZM86.6417 10.2081H85.6417V11.2081H86.6417V10.2081ZM86.6417 8.72514H87.6417V7.72514H86.6417V8.72514ZM85.0269 8.72514H84.0269V9.72514H85.0269V8.72514ZM85.0269 4.27638V3.27638H84.0269V4.27638H85.0269ZM86.6417 4.27638V5.27638H87.6417V4.27638H86.6417ZM86.6417 2.79347V1.79347H85.6417V2.79347H86.6417ZM88.2565 2.79347V3.79347H89.2565V2.79347H88.2565ZM88.2565 1.31055V0.310547H87.2565V1.31055H88.2565ZM99.56 1.31055H100.56V0.310547H99.56V1.31055ZM99.56 2.79347H98.56V3.79347H99.56V2.79347ZM101.175 2.79347H102.175V1.79347H101.175V2.79347ZM101.175 4.27638H100.175V5.27638H101.175V4.27638ZM102.79 4.27638H103.79V3.27638H102.79V4.27638ZM102.79 7.24222V8.24222H103.79V7.24222H102.79ZM99.56 7.24222H98.56V8.24222H99.56V7.24222ZM99.56 5.7593H100.56V4.7593H99.56V5.7593ZM97.9452 5.7593H96.9452V6.7593H97.9452V5.7593ZM97.9452 4.27638H98.9452V3.27638H97.9452V4.27638ZM89.8713 4.27638V3.27638H88.8713V4.27638H89.8713ZM89.8713 5.7593V6.7593H90.8713V5.7593H89.8713ZM88.2565 5.7593V4.7593H87.2565V5.7593H88.2565ZM88.2565 7.24222H87.2565V8.24222H88.2565V7.24222ZM89.8713 7.24222H90.8713V6.24222H89.8713V7.24222ZM89.8713 8.72514H88.8713V9.72514H89.8713V8.72514ZM99.56 8.72514H100.56V7.72514H99.56V8.72514ZM99.56 10.2081H98.56V11.2081H99.56V10.2081ZM101.175 10.2081H102.175V9.20806H101.175V10.2081ZM101.175 11.691H100.175V12.691H101.175V11.691ZM102.79 11.691H103.79V10.691H102.79V11.691ZM102.79 16.1397V17.1397H103.79V16.1397H102.79ZM101.175 16.1397V15.1397H100.175V16.1397H101.175ZM101.175 17.6226V18.6226H102.175V17.6226H101.175ZM99.56 17.6226V16.6226H98.56V17.6226H99.56ZM99.56 19.1056V20.1056H100.56V19.1056H99.56ZM88.2565 19.1056H87.2565V20.1056H88.2565V19.1056ZM88.2565 17.6226H89.2565V16.6226H88.2565V17.6226ZM86.6417 17.6226H85.6417V18.6226H86.6417V17.6226ZM86.6417 16.1397H87.6417V15.1397H86.6417V16.1397ZM85.0269 16.1397H84.0269V17.1397H85.0269V16.1397ZM85.0269 13.1739V12.1739H84.0269V13.1739H85.0269ZM120.561 11.691H121.561V10.691H120.561V11.691ZM109.257 11.691V10.691H108.257V11.691H109.257ZM109.257 19.1056V20.1056H110.257V19.1056H109.257ZM106.028 19.1056H105.028V20.1056H106.028V19.1056ZM106.028 1.31055V0.310547H105.028V1.31055H106.028ZM109.257 1.31055H110.257V0.310547H109.257V1.31055ZM109.257 8.72514H108.257V9.72514H109.257V8.72514ZM120.561 8.72514V9.72514H121.561V8.72514H120.561ZM120.561 1.31055V0.310547H119.561V1.31055H120.561ZM123.79 1.31055H124.79V0.310547H123.79V1.31055ZM123.79 19.1056V20.1056H124.79V19.1056H123.79ZM120.561 19.1056H119.561V20.1056H120.561V19.1056ZM131.873 4.27638V3.27638H130.873V4.27638H131.873ZM131.873 5.7593V6.7593H132.873V5.7593H131.873ZM130.258 5.7593V4.7593H129.258V5.7593H130.258ZM130.258 14.6568H129.258V15.6568H130.258V14.6568ZM131.873 14.6568H132.873V13.6568H131.873V14.6568ZM131.873 16.1397H130.873V17.1397H131.873V16.1397ZM139.947 16.1397V17.1397H140.947V16.1397H139.947ZM139.947 14.6568V13.6568H138.947V14.6568H139.947ZM141.562 14.6568V15.6568H142.562V14.6568H141.562ZM141.562 5.7593H142.562V4.7593H141.562V5.7593ZM139.947 5.7593H138.947V6.7593H139.947V5.7593ZM139.947 4.27638H140.947V3.27638H139.947V4.27638ZM144.791 16.1397V17.1397H145.791V16.1397H144.791ZM143.177 16.1397V15.1397H142.177V16.1397H143.177ZM143.177 17.6226V18.6226H144.177V17.6226H143.177ZM141.562 17.6226V16.6226H140.562V17.6226H141.562ZM141.562 19.1056V20.1056H142.562V19.1056H141.562ZM130.258 19.1056H129.258V20.1056H130.258V19.1056ZM130.258 17.6226H131.258V16.6226H130.258V17.6226ZM128.643 17.6226H127.643V18.6226H128.643V17.6226ZM128.643 16.1397H129.643V15.1397H128.643V16.1397ZM127.029 16.1397H126.029V17.1397H127.029V16.1397ZM127.029 4.27638V3.27638H126.029V4.27638H127.029ZM128.643 4.27638V5.27638H129.643V4.27638H128.643ZM128.643 2.79347V1.79347H127.643V2.79347H128.643ZM130.258 2.79347V3.79347H131.258V2.79347H130.258ZM130.258 1.31055V0.310547H129.258V1.31055H130.258ZM141.562 1.31055H142.562V0.310547H141.562V1.31055ZM141.562 2.79347H140.562V3.79347H141.562V2.79347ZM143.177 2.79347H144.177V1.79347H143.177V2.79347ZM143.177 4.27638H142.177V5.27638H143.177V4.27638ZM144.791 4.27638H145.791V3.27638H144.791V4.27638ZM148.03 1.31055V0.310547H147.03V1.31055H148.03ZM162.563 1.31055H163.563V0.310547H162.563V1.31055ZM162.563 2.79347H161.563V3.79347H162.563V2.79347ZM164.177 2.79347H165.177V1.79347H164.177V2.79347ZM164.177 4.27638H163.177V5.27638H164.177V4.27638ZM165.792 4.27638H166.792V3.27638H165.792V4.27638ZM165.792 10.2081V11.2081H166.792V10.2081H165.792ZM164.177 10.2081V9.20806H163.177V10.2081H164.177ZM164.177 11.691V12.691H165.177V11.691H164.177ZM162.563 11.691V10.691H161.563V11.691H162.563ZM162.563 13.1739V14.1739H163.563V13.1739H162.563ZM151.259 13.1739V12.1739H150.259V13.1739H151.259ZM151.259 19.1056V20.1056H152.259V19.1056H151.259ZM148.03 19.1056H147.03V20.1056H148.03V19.1056ZM151.259 4.27638V3.27638H150.259V4.27638H151.259ZM151.259 10.2081H150.259V11.2081H151.259V10.2081ZM160.948 10.2081V11.2081H161.948V10.2081H160.948ZM160.948 8.72514V7.72514H159.948V8.72514H160.948ZM162.563 8.72514V9.72514H163.563V8.72514H162.563ZM162.563 5.7593H163.563V4.7593H162.563V5.7593ZM160.948 5.7593H159.948V6.7593H160.948V5.7593ZM160.948 4.27638H161.948V3.27638H160.948V4.27638ZM16.5565 7.24222V2.79347H14.5565V7.24222H16.5565ZM16.5565 2.79347V1.31055H14.5565V2.79347H16.5565ZM15.5565 2.31055H18.7861V0.310547H15.5565V2.31055ZM17.7861 1.31055V2.79347H19.7861V1.31055H17.7861ZM17.7861 2.79347V4.27638H19.7861V2.79347H17.7861ZM17.7861 4.27638V16.1397H19.7861V4.27638H17.7861ZM17.7861 16.1397V19.1056H19.7861V16.1397H17.7861ZM18.7861 18.1056H15.5565V20.1056H18.7861V18.1056ZM16.5565 19.1056V16.1397H14.5565V19.1056H16.5565ZM15.5565 15.1397H13.9417V17.1397H15.5565V15.1397ZM14.9417 16.1397V14.6568H12.9417V16.1397H14.9417ZM13.9417 13.6568H12.327V15.6568H13.9417V13.6568ZM13.327 14.6568V13.1739H11.327V14.6568H13.327ZM12.327 12.1739H10.7122V14.1739H12.327V12.1739ZM11.7122 13.1739V11.691H9.71217V13.1739H11.7122ZM10.7122 10.691H9.09738V12.691H10.7122V10.691ZM10.0974 11.691V10.2081H8.09738V11.691H10.0974ZM9.09738 9.20806H7.48259V11.2081H9.09738V9.20806ZM8.48259 10.2081V8.72514H6.48259V10.2081H8.48259ZM7.48259 7.72514H5.8678V9.72514H7.48259V7.72514ZM6.8678 8.72514V7.24222H4.8678V8.72514H6.8678ZM5.8678 6.24222H4.25302V8.24222H5.8678V6.24222ZM3.25302 7.24222V11.691H5.25302V7.24222H3.25302ZM3.25302 11.691V19.1056H5.25302V11.691H3.25302ZM4.25302 18.1056H2.63823V20.1056H4.25302V18.1056ZM2.63823 18.1056H1.02344V20.1056H2.63823V18.1056ZM2.02344 19.1056V17.6226H0.0234375V19.1056H2.02344ZM2.02344 17.6226V16.1397H0.0234375V17.6226H2.02344ZM2.02344 16.1397V14.6568H0.0234375V16.1397H2.02344ZM2.02344 14.6568V11.691H0.0234375V14.6568H2.02344ZM2.02344 11.691V10.2081H0.0234375V11.691H2.02344ZM2.02344 10.2081V8.72514H0.0234375V10.2081H2.02344ZM2.02344 8.72514V7.24222H0.0234375V8.72514H2.02344ZM2.02344 7.24222V5.7593H0.0234375V7.24222H2.02344ZM2.02344 5.7593V4.27638H0.0234375V5.7593H2.02344ZM2.02344 4.27638V2.79347H0.0234375V4.27638H2.02344ZM2.02344 2.79347V1.31055H0.0234375V2.79347H2.02344ZM1.02344 2.31055H2.63823V0.310547H1.02344V2.31055ZM2.63823 2.31055H4.25302V0.310547H2.63823V2.31055ZM3.25302 1.31055V2.79347H5.25302V1.31055H3.25302ZM4.25302 3.79347H5.8678V1.79347H4.25302V3.79347ZM4.8678 2.79347V4.27638H6.8678V2.79347H4.8678ZM5.8678 5.27638H7.48259V3.27638H5.8678V5.27638ZM6.48259 4.27638V5.7593H8.48259V4.27638H6.48259ZM7.48259 6.7593H9.09738V4.7593H7.48259V6.7593ZM8.09738 5.7593V7.24222H10.0974V5.7593H8.09738ZM9.09738 8.24222H10.7122V6.24222H9.09738V8.24222ZM9.71217 7.24222V8.72514H11.7122V7.24222H9.71217ZM10.7122 9.72514H12.327V7.72514H10.7122V9.72514ZM11.327 8.72514V10.2081H13.327V8.72514H11.327ZM12.327 11.2081H13.9417V9.20806H12.327V11.2081ZM12.9417 10.2081V11.691H14.9417V10.2081H12.9417ZM13.9417 12.691H15.5565V10.691H13.9417V12.691ZM16.5565 11.691V7.24222H14.5565V11.691H16.5565ZM23.0243 4.27638V2.79347H21.0243V4.27638H23.0243ZM23.0243 2.79347V1.31055H21.0243V2.79347H23.0243ZM22.0243 2.31055H23.6391V0.310547H22.0243V2.31055ZM23.6391 2.31055H25.2539V0.310547H23.6391V2.31055ZM25.2539 2.31055H30.0983V0.310547H25.2539V2.31055ZM30.0983 2.31055H39.787V0.310547H30.0983V2.31055ZM38.787 1.31055V4.27638H40.787V1.31055H38.787ZM39.787 3.27638H38.1722V5.27638H39.787V3.27638ZM38.1722 3.27638H36.5574V5.27638H38.1722V3.27638ZM36.5574 3.27638H33.3278V5.27638H36.5574V3.27638ZM33.3278 3.27638H31.713V5.27638H33.3278V3.27638ZM31.713 3.27638H30.0983V5.27638H31.713V3.27638ZM30.0983 3.27638H26.8687V5.27638H30.0983V3.27638ZM26.8687 3.27638H25.2539V5.27638H26.8687V3.27638ZM24.2539 4.27638V8.72514H26.2539V4.27638H24.2539ZM25.2539 9.72514H36.5574V7.72514H25.2539V9.72514ZM35.5574 8.72514V11.691H37.5574V8.72514H35.5574ZM36.5574 10.691H25.2539V12.691H36.5574V10.691ZM24.2539 11.691V19.1056H26.2539V11.691H24.2539ZM25.2539 18.1056H23.6391V20.1056H25.2539V18.1056ZM23.6391 18.1056H22.0243V20.1056H23.6391V18.1056ZM23.0243 19.1056V17.6226H21.0243V19.1056H23.0243ZM23.0243 17.6226V16.1397H21.0243V17.6226H23.0243ZM23.0243 16.1397V14.6568H21.0243V16.1397H23.0243ZM23.0243 14.6568V11.691H21.0243V14.6568H23.0243ZM23.0243 11.691V10.2081H21.0243V11.691H23.0243ZM23.0243 10.2081V8.72514H21.0243V10.2081H23.0243ZM23.0243 8.72514V7.24222H21.0243V8.72514H23.0243ZM23.0243 7.24222V5.7593H21.0243V7.24222H23.0243ZM23.0243 5.7593V4.27638H21.0243V5.7593H23.0243ZM44.0252 4.27638V2.79347H42.0252V4.27638H44.0252ZM44.0252 2.79347V1.31055H42.0252V2.79347H44.0252ZM43.0252 2.31055H44.64V0.310547H43.0252V2.31055ZM44.64 2.31055H46.2547V0.310547H44.64V2.31055ZM46.2547 2.31055H51.0991V0.310547H46.2547V2.31055ZM51.0991 2.31055H59.1731V0.310547H51.0991V2.31055ZM58.1731 1.31055V4.27638H60.1731V1.31055H58.1731ZM59.1731 3.27638H57.5583V5.27638H59.1731V3.27638ZM57.5583 3.27638H55.9435V5.27638H57.5583V3.27638ZM55.9435 3.27638H52.7139V5.27638H55.9435V3.27638ZM51.7139 4.27638V11.691H53.7139V4.27638H51.7139ZM51.7139 11.691V19.1056H53.7139V11.691H51.7139ZM52.7139 18.1056H49.4843V20.1056H52.7139V18.1056ZM50.4843 19.1056V11.691H48.4843V19.1056H50.4843ZM50.4843 11.691V4.27638H48.4843V11.691H50.4843ZM49.4843 3.27638H47.8695V5.27638H49.4843V3.27638ZM47.8695 3.27638H43.0252V5.27638H47.8695V3.27638ZM87.2565 13.1739V14.6568H89.2565V13.1739H87.2565ZM88.2565 15.6568H89.8713V13.6568H88.2565V15.6568ZM88.8713 14.6568V16.1397H90.8713V14.6568H88.8713ZM89.8713 17.1397H91.4861V15.1397H89.8713V17.1397ZM91.4861 17.1397H93.1009V15.1397H91.4861V17.1397ZM93.1009 17.1397H94.7156V15.1397H93.1009V17.1397ZM94.7156 17.1397H96.3304V15.1397H94.7156V17.1397ZM96.3304 17.1397H97.9452V15.1397H96.3304V17.1397ZM98.9452 16.1397V14.6568H96.9452V16.1397H98.9452ZM97.9452 15.6568H99.56V13.6568H97.9452V15.6568ZM100.56 14.6568V13.1739H98.56V14.6568H100.56ZM99.56 12.1739H97.9452V14.1739H99.56V12.1739ZM98.9452 13.1739V11.691H96.9452V13.1739H98.9452ZM97.9452 10.691H96.3304V12.691H97.9452V10.691ZM96.3304 10.691H94.7156V12.691H96.3304V10.691ZM94.7156 10.691H93.1009V12.691H94.7156V10.691ZM93.1009 10.691H88.2565V12.691H93.1009V10.691ZM89.2565 11.691V10.2081H87.2565V11.691H89.2565ZM88.2565 9.20806H86.6417V11.2081H88.2565V9.20806ZM87.6417 10.2081V8.72514H85.6417V10.2081H87.6417ZM86.6417 7.72514H85.0269V9.72514H86.6417V7.72514ZM86.0269 8.72514V7.24222H84.0269V8.72514H86.0269ZM86.0269 7.24222V5.7593H84.0269V7.24222H86.0269ZM86.0269 5.7593V4.27638H84.0269V5.7593H86.0269ZM85.0269 5.27638H86.6417V3.27638H85.0269V5.27638ZM87.6417 4.27638V2.79347H85.6417V4.27638H87.6417ZM86.6417 3.79347H88.2565V1.79347H86.6417V3.79347ZM89.2565 2.79347V1.31055H87.2565V2.79347H89.2565ZM88.2565 2.31055H91.4861V0.310547H88.2565V2.31055ZM91.4861 2.31055H93.1009V0.310547H91.4861V2.31055ZM93.1009 2.31055H94.7156V0.310547H93.1009V2.31055ZM94.7156 2.31055H99.56V0.310547H94.7156V2.31055ZM98.56 1.31055V2.79347H100.56V1.31055H98.56ZM99.56 3.79347H101.175V1.79347H99.56V3.79347ZM100.175 2.79347V4.27638H102.175V2.79347H100.175ZM101.175 5.27638H102.79V3.27638H101.175V5.27638ZM101.79 4.27638V7.24222H103.79V4.27638H101.79ZM102.79 6.24222H99.56V8.24222H102.79V6.24222ZM100.56 7.24222V5.7593H98.56V7.24222H100.56ZM99.56 4.7593H97.9452V6.7593H99.56V4.7593ZM98.9452 5.7593V4.27638H96.9452V5.7593H98.9452ZM97.9452 3.27638H96.3304V5.27638H97.9452V3.27638ZM96.3304 3.27638H94.7156V5.27638H96.3304V3.27638ZM94.7156 3.27638H93.1009V5.27638H94.7156V3.27638ZM93.1009 3.27638H91.4861V5.27638H93.1009V3.27638ZM91.4861 3.27638H89.8713V5.27638H91.4861V3.27638ZM88.8713 4.27638V5.7593H90.8713V4.27638H88.8713ZM89.8713 4.7593H88.2565V6.7593H89.8713V4.7593ZM87.2565 5.7593V7.24222H89.2565V5.7593H87.2565ZM88.2565 8.24222H89.8713V6.24222H88.2565V8.24222ZM88.8713 7.24222V8.72514H90.8713V7.24222H88.8713ZM89.8713 9.72514H91.4861V7.72514H89.8713V9.72514ZM91.4861 9.72514H93.1009V7.72514H91.4861V9.72514ZM93.1009 9.72514H94.7156V7.72514H93.1009V9.72514ZM94.7156 9.72514H99.56V7.72514H94.7156V9.72514ZM98.56 8.72514V10.2081H100.56V8.72514H98.56ZM99.56 11.2081H101.175V9.20806H99.56V11.2081ZM100.175 10.2081V11.691H102.175V10.2081H100.175ZM101.175 12.691H102.79V10.691H101.175V12.691ZM101.79 11.691V13.1739H103.79V11.691H101.79ZM101.79 13.1739V14.6568H103.79V13.1739H101.79ZM101.79 14.6568V16.1397H103.79V14.6568H101.79ZM102.79 15.1397H101.175V17.1397H102.79V15.1397ZM100.175 16.1397V17.6226H102.175V16.1397H100.175ZM101.175 16.6226H99.56V18.6226H101.175V16.6226ZM98.56 17.6226V19.1056H100.56V17.6226H98.56ZM99.56 18.1056H94.7156V20.1056H99.56V18.1056ZM94.7156 18.1056H93.1009V20.1056H94.7156V18.1056ZM93.1009 18.1056H88.2565V20.1056H93.1009V18.1056ZM89.2565 19.1056V17.6226H87.2565V19.1056H89.2565ZM88.2565 16.6226H86.6417V18.6226H88.2565V16.6226ZM87.6417 17.6226V16.1397H85.6417V17.6226H87.6417ZM86.6417 15.1397H85.0269V17.1397H86.6417V15.1397ZM86.0269 16.1397V13.1739H84.0269V16.1397H86.0269ZM85.0269 14.1739H88.2565V12.1739H85.0269V14.1739ZM120.561 10.691H109.257V12.691H120.561V10.691ZM108.257 11.691V19.1056H110.257V11.691H108.257ZM109.257 18.1056H107.643V20.1056H109.257V18.1056ZM107.643 18.1056H106.028V20.1056H107.643V18.1056ZM107.028 19.1056V17.6226H105.028V19.1056H107.028ZM107.028 17.6226V16.1397H105.028V17.6226H107.028ZM107.028 16.1397V14.6568H105.028V16.1397H107.028ZM107.028 14.6568V11.691H105.028V14.6568H107.028ZM107.028 11.691V10.2081H105.028V11.691H107.028ZM107.028 10.2081V8.72514H105.028V10.2081H107.028ZM107.028 8.72514V7.24222H105.028V8.72514H107.028ZM107.028 7.24222V5.7593H105.028V7.24222H107.028ZM107.028 5.7593V4.27638H105.028V5.7593H107.028ZM107.028 4.27638V2.79347H105.028V4.27638H107.028ZM107.028 2.79347V1.31055H105.028V2.79347H107.028ZM106.028 2.31055H107.643V0.310547H106.028V2.31055ZM107.643 2.31055H109.257V0.310547H107.643V2.31055ZM108.257 1.31055V8.72514H110.257V1.31055H108.257ZM109.257 9.72514H120.561V7.72514H109.257V9.72514ZM121.561 8.72514V1.31055H119.561V8.72514H121.561ZM120.561 2.31055H123.79V0.310547H120.561V2.31055ZM122.79 1.31055V4.27638H124.79V1.31055H122.79ZM122.79 4.27638V16.1397H124.79V4.27638H122.79ZM122.79 16.1397V19.1056H124.79V16.1397H122.79ZM123.79 18.1056H120.561V20.1056H123.79V18.1056ZM121.561 19.1056V11.691H119.561V19.1056H121.561ZM135.103 3.27638H133.488V5.27638H135.103V3.27638ZM133.488 3.27638H131.873V5.27638H133.488V3.27638ZM130.873 4.27638V5.7593H132.873V4.27638H130.873ZM131.873 4.7593H130.258V6.7593H131.873V4.7593ZM129.258 5.7593V7.24222H131.258V5.7593H129.258ZM129.258 7.24222V8.72514H131.258V7.24222H129.258ZM129.258 8.72514V11.691H131.258V8.72514H129.258ZM129.258 11.691V13.1739H131.258V11.691H129.258ZM129.258 13.1739V14.6568H131.258V13.1739H129.258ZM130.258 15.6568H131.873V13.6568H130.258V15.6568ZM130.873 14.6568V16.1397H132.873V14.6568H130.873ZM131.873 17.1397H133.488V15.1397H131.873V17.1397ZM133.488 17.1397H135.103V15.1397H133.488V17.1397ZM135.103 17.1397H136.717V15.1397H135.103V17.1397ZM136.717 17.1397H138.332V15.1397H136.717V17.1397ZM138.332 17.1397H139.947V15.1397H138.332V17.1397ZM140.947 16.1397V14.6568H138.947V16.1397H140.947ZM139.947 15.6568H141.562V13.6568H139.947V15.6568ZM142.562 14.6568V13.1739H140.562V14.6568H142.562ZM142.562 13.1739V11.691H140.562V13.1739H142.562ZM142.562 11.691V7.24222H140.562V11.691H142.562ZM142.562 7.24222V5.7593H140.562V7.24222H142.562ZM141.562 4.7593H139.947V6.7593H141.562V4.7593ZM140.947 5.7593V4.27638H138.947V5.7593H140.947ZM139.947 3.27638H138.332V5.27638H139.947V3.27638ZM138.332 3.27638H136.717V5.27638H138.332V3.27638ZM136.717 3.27638H135.103V5.27638H136.717V3.27638ZM143.791 11.691V16.1397H145.791V11.691H143.791ZM144.791 15.1397H143.177V17.1397H144.791V15.1397ZM142.177 16.1397V17.6226H144.177V16.1397H142.177ZM143.177 16.6226H141.562V18.6226H143.177V16.6226ZM140.562 17.6226V19.1056H142.562V17.6226H140.562ZM141.562 18.1056H136.717V20.1056H141.562V18.1056ZM136.717 18.1056H135.103V20.1056H136.717V18.1056ZM135.103 18.1056H130.258V20.1056H135.103V18.1056ZM131.258 19.1056V17.6226H129.258V19.1056H131.258ZM130.258 16.6226H128.643V18.6226H130.258V16.6226ZM129.643 17.6226V16.1397H127.643V17.6226H129.643ZM128.643 15.1397H127.029V17.1397H128.643V15.1397ZM128.029 16.1397V13.1739H126.029V16.1397H128.029ZM128.029 13.1739V11.691H126.029V13.1739H128.029ZM128.029 11.691V10.2081H126.029V11.691H128.029ZM128.029 10.2081V8.72514H126.029V10.2081H128.029ZM128.029 8.72514V4.27638H126.029V8.72514H128.029ZM127.029 5.27638H128.643V3.27638H127.029V5.27638ZM129.643 4.27638V2.79347H127.643V4.27638H129.643ZM128.643 3.79347H130.258V1.79347H128.643V3.79347ZM131.258 2.79347V1.31055H129.258V2.79347H131.258ZM130.258 2.31055H133.488V0.310547H130.258V2.31055ZM133.488 2.31055H135.103V0.310547H133.488V2.31055ZM135.103 2.31055H136.717V0.310547H135.103V2.31055ZM136.717 2.31055H141.562V0.310547H136.717V2.31055ZM140.562 1.31055V2.79347H142.562V1.31055H140.562ZM141.562 3.79347H143.177V1.79347H141.562V3.79347ZM142.177 2.79347V4.27638H144.177V2.79347H142.177ZM143.177 5.27638H144.791V3.27638H143.177V5.27638ZM143.791 4.27638V7.24222H145.791V4.27638H143.791ZM143.791 7.24222V11.691H145.791V7.24222H143.791ZM149.03 4.27638V2.79347H147.03V4.27638H149.03ZM149.03 2.79347V1.31055H147.03V2.79347H149.03ZM148.03 2.31055H149.644V0.310547H148.03V2.31055ZM149.644 2.31055H151.259V0.310547H149.644V2.31055ZM151.259 2.31055H156.103V0.310547H151.259V2.31055ZM156.103 2.31055H162.563V0.310547H156.103V2.31055ZM161.563 1.31055V2.79347H163.563V1.31055H161.563ZM162.563 3.79347H164.177V1.79347H162.563V3.79347ZM163.177 2.79347V4.27638H165.177V2.79347H163.177ZM164.177 5.27638H165.792V3.27638H164.177V5.27638ZM164.792 4.27638V7.24222H166.792V4.27638H164.792ZM164.792 7.24222V8.72514H166.792V7.24222H164.792ZM164.792 8.72514V10.2081H166.792V8.72514H164.792ZM165.792 9.20806H164.177V11.2081H165.792V9.20806ZM163.177 10.2081V11.691H165.177V10.2081H163.177ZM164.177 10.691H162.563V12.691H164.177V10.691ZM161.563 11.691V13.1739H163.563V11.691H161.563ZM162.563 12.1739H156.103V14.1739H162.563V12.1739ZM156.103 12.1739H151.259V14.1739H156.103V12.1739ZM150.259 13.1739V19.1056H152.259V13.1739H150.259ZM151.259 18.1056H148.03V20.1056H151.259V18.1056ZM149.03 19.1056V13.1739H147.03V19.1056H149.03ZM149.03 13.1739V11.691H147.03V13.1739H149.03ZM149.03 11.691V10.2081H147.03V11.691H149.03ZM149.03 10.2081V8.72514H147.03V10.2081H149.03ZM149.03 8.72514V7.24222H147.03V8.72514H149.03ZM149.03 7.24222V5.7593H147.03V7.24222H149.03ZM149.03 5.7593V4.27638H147.03V5.7593H149.03ZM156.103 3.27638H152.874V5.27638H156.103V3.27638ZM152.874 3.27638H151.259V5.27638H152.874V3.27638ZM150.259 4.27638V8.72514H152.259V4.27638H150.259ZM150.259 8.72514V10.2081H152.259V8.72514H150.259ZM151.259 11.2081H152.874V9.20806H151.259V11.2081ZM152.874 11.2081H156.103V9.20806H152.874V11.2081ZM156.103 11.2081H157.718V9.20806H156.103V11.2081ZM157.718 11.2081H159.333V9.20806H157.718V11.2081ZM159.333 11.2081H160.948V9.20806H159.333V11.2081ZM161.948 10.2081V8.72514H159.948V10.2081H161.948ZM160.948 9.72514H162.563V7.72514H160.948V9.72514ZM163.563 8.72514V7.24222H161.563V8.72514H163.563ZM163.563 7.24222V5.7593H161.563V7.24222H163.563ZM162.563 4.7593H160.948V6.7593H162.563V4.7593ZM161.948 5.7593V4.27638H159.948V5.7593H161.948ZM160.948 3.27638H159.333V5.27638H160.948V3.27638ZM159.333 3.27638H157.718V5.27638H159.333V3.27638ZM157.718 3.27638H156.103V5.27638H157.718V3.27638Z" fill="#393939" mask="url(#path-1-outside-1_1338_1247)"/>
</svg>
