<svg width="167" height="21" viewBox="0 0 167 21" fill="none" xmlns="http://www.w3.org/2000/svg">
<mask id="path-1-outside-1_1340_4989" maskUnits="userSpaceOnUse" x="0.0234375" y="0.931641" width="167" height="20" fill="black">
<rect fill="white" x="0.0234375" y="0.931641" width="167" height="20"/>
<path d="M15.5565 7.86332V3.41456V1.93164H18.7861V3.41456V4.89748V16.7608V19.7267H15.5565V16.7608H13.9417V15.2779H12.327V13.795H10.7122V12.3121H9.09738V10.8292H7.48259V9.34623H5.8678V7.86332H4.25302V12.3121V19.7267H2.63823H1.02344V18.2437V16.7608V15.2779V12.3121V10.8292V9.34623V7.86332V6.3804V4.89748V3.41456V1.93164H2.63823H4.25302V3.41456H5.8678V4.89748H7.48259V6.3804H9.09738V7.86332H10.7122V9.34623H12.327V10.8292H13.9417V12.3121H15.5565V7.86332Z"/>
<path d="M22.0243 4.89748V3.41456V1.93164H23.6391H25.2539H30.0983H39.787V4.89748H38.1722H36.5574H33.3278H31.713H30.0983H26.8687H25.2539V9.34623H36.5574V12.3121H25.2539V19.7267H23.6391H22.0243V18.2437V16.7608V15.2779V12.3121V10.8292V9.34623V7.86332V6.3804V4.89748Z"/>
<path d="M43.0252 4.89748V3.41456V1.93164H44.64H46.2547H51.0991H59.1731V4.89748H57.5583H55.9435H52.7139V12.3121V19.7267H49.4843V12.3121V4.89748H47.8695H43.0252Z"/>
<path d="M88.2565 13.795V15.2779H89.8713V16.7608H91.4861H93.1009H94.7156H96.3304H97.9452V15.2779H99.56V13.795H97.9452V12.3121H96.3304H94.7156H93.1009H88.2565V10.8292H86.6417V9.34623H85.0269V7.86332V6.3804V4.89748H86.6417V3.41456H88.2565V1.93164H91.4861H93.1009H94.7156H99.56V3.41456H101.175V4.89748H102.79V7.86332H99.56V6.3804H97.9452V4.89748H96.3304H94.7156H93.1009H91.4861H89.8713V6.3804H88.2565V7.86332H89.8713V9.34623H91.4861H93.1009H94.7156H99.56V10.8292H101.175V12.3121H102.79V13.795V15.2779V16.7608H101.175V18.2437H99.56V19.7267H94.7156H93.1009H88.2565V18.2437H86.6417V16.7608H85.0269V13.795H88.2565Z"/>
<path d="M120.561 12.3121H109.257V19.7267H107.643H106.028V18.2437V16.7608V15.2779V12.3121V10.8292V9.34623V7.86332V6.3804V4.89748V3.41456V1.93164H107.643H109.257V9.34623H120.561V1.93164H123.79V4.89748V16.7608V19.7267H120.561V12.3121Z"/>
<path d="M135.103 4.89748H133.488H131.873V6.3804H130.258V7.86332V9.34623V12.3121V13.795V15.2779H131.873V16.7608H133.488H135.103H136.717H138.332H139.947V15.2779H141.562V13.795V12.3121V7.86332V6.3804H139.947V4.89748H138.332H136.717H135.103ZM144.791 12.3121V16.7608H143.177V18.2437H141.562V19.7267H136.717H135.103H130.258V18.2437H128.643V16.7608H127.029V13.795V12.3121V10.8292V9.34623V4.89748H128.643V3.41456H130.258V1.93164H133.488H135.103H136.717H141.562V3.41456H143.177V4.89748H144.791V7.86332V12.3121Z"/>
<path d="M148.03 4.89748V3.41456V1.93164H149.644H151.259H156.103H162.563V3.41456H164.177V4.89748H165.792V7.86332V9.34623V10.8292H164.177V12.3121H162.563V13.795H156.103H151.259V19.7267H148.03V13.795V12.3121V10.8292V9.34623V7.86332V6.3804V4.89748ZM156.103 4.89748H152.874H151.259V9.34623V10.8292H152.874H156.103H157.718H159.333H160.948V9.34623H162.563V7.86332V6.3804H160.948V4.89748H159.333H157.718H156.103Z"/>
</mask>
<path d="M15.5565 7.86332V3.41456V1.93164H18.7861V3.41456V4.89748V16.7608V19.7267H15.5565V16.7608H13.9417V15.2779H12.327V13.795H10.7122V12.3121H9.09738V10.8292H7.48259V9.34623H5.8678V7.86332H4.25302V12.3121V19.7267H2.63823H1.02344V18.2437V16.7608V15.2779V12.3121V10.8292V9.34623V7.86332V6.3804V4.89748V3.41456V1.93164H2.63823H4.25302V3.41456H5.8678V4.89748H7.48259V6.3804H9.09738V7.86332H10.7122V9.34623H12.327V10.8292H13.9417V12.3121H15.5565V7.86332Z" fill="white"/>
<path d="M22.0243 4.89748V3.41456V1.93164H23.6391H25.2539H30.0983H39.787V4.89748H38.1722H36.5574H33.3278H31.713H30.0983H26.8687H25.2539V9.34623H36.5574V12.3121H25.2539V19.7267H23.6391H22.0243V18.2437V16.7608V15.2779V12.3121V10.8292V9.34623V7.86332V6.3804V4.89748Z" fill="white"/>
<path d="M43.0252 4.89748V3.41456V1.93164H44.64H46.2547H51.0991H59.1731V4.89748H57.5583H55.9435H52.7139V12.3121V19.7267H49.4843V12.3121V4.89748H47.8695H43.0252Z" fill="white"/>
<path d="M88.2565 13.795V15.2779H89.8713V16.7608H91.4861H93.1009H94.7156H96.3304H97.9452V15.2779H99.56V13.795H97.9452V12.3121H96.3304H94.7156H93.1009H88.2565V10.8292H86.6417V9.34623H85.0269V7.86332V6.3804V4.89748H86.6417V3.41456H88.2565V1.93164H91.4861H93.1009H94.7156H99.56V3.41456H101.175V4.89748H102.79V7.86332H99.56V6.3804H97.9452V4.89748H96.3304H94.7156H93.1009H91.4861H89.8713V6.3804H88.2565V7.86332H89.8713V9.34623H91.4861H93.1009H94.7156H99.56V10.8292H101.175V12.3121H102.79V13.795V15.2779V16.7608H101.175V18.2437H99.56V19.7267H94.7156H93.1009H88.2565V18.2437H86.6417V16.7608H85.0269V13.795H88.2565Z" fill="white"/>
<path d="M120.561 12.3121H109.257V19.7267H107.643H106.028V18.2437V16.7608V15.2779V12.3121V10.8292V9.34623V7.86332V6.3804V4.89748V3.41456V1.93164H107.643H109.257V9.34623H120.561V1.93164H123.79V4.89748V16.7608V19.7267H120.561V12.3121Z" fill="white"/>
<path d="M135.103 4.89748H133.488H131.873V6.3804H130.258V7.86332V9.34623V12.3121V13.795V15.2779H131.873V16.7608H133.488H135.103H136.717H138.332H139.947V15.2779H141.562V13.795V12.3121V7.86332V6.3804H139.947V4.89748H138.332H136.717H135.103ZM144.791 12.3121V16.7608H143.177V18.2437H141.562V19.7267H136.717H135.103H130.258V18.2437H128.643V16.7608H127.029V13.795V12.3121V10.8292V9.34623V4.89748H128.643V3.41456H130.258V1.93164H133.488H135.103H136.717H141.562V3.41456H143.177V4.89748H144.791V7.86332V12.3121Z" fill="white"/>
<path d="M148.03 4.89748V3.41456V1.93164H149.644H151.259H156.103H162.563V3.41456H164.177V4.89748H165.792V7.86332V9.34623V10.8292H164.177V12.3121H162.563V13.795H156.103H151.259V19.7267H148.03V13.795V12.3121V10.8292V9.34623V7.86332V6.3804V4.89748ZM156.103 4.89748H152.874H151.259V9.34623V10.8292H152.874H156.103H157.718H159.333H160.948V9.34623H162.563V7.86332V6.3804H160.948V4.89748H159.333H157.718H156.103Z" fill="white"/>
<path d="M15.5565 1.93164V0.931641H14.5565V1.93164H15.5565ZM18.7861 1.93164H19.7861V0.931641H18.7861V1.93164ZM18.7861 19.7267V20.7267H19.7861V19.7267H18.7861ZM15.5565 19.7267H14.5565V20.7267H15.5565V19.7267ZM15.5565 16.7608H16.5565V15.7608H15.5565V16.7608ZM13.9417 16.7608H12.9417V17.7608H13.9417V16.7608ZM13.9417 15.2779H14.9417V14.2779H13.9417V15.2779ZM12.327 15.2779H11.327V16.2779H12.327V15.2779ZM12.327 13.795H13.327V12.795H12.327V13.795ZM10.7122 13.795H9.71217V14.795H10.7122V13.795ZM10.7122 12.3121H11.7122V11.3121H10.7122V12.3121ZM9.09738 12.3121H8.09738V13.3121H9.09738V12.3121ZM9.09738 10.8292H10.0974V9.82915H9.09738V10.8292ZM7.48259 10.8292H6.48259V11.8292H7.48259V10.8292ZM7.48259 9.34623H8.48259V8.34623H7.48259V9.34623ZM5.8678 9.34623H4.8678V10.3462H5.8678V9.34623ZM5.8678 7.86332H6.8678V6.86332H5.8678V7.86332ZM4.25302 7.86332V6.86332H3.25302V7.86332H4.25302ZM4.25302 19.7267V20.7267H5.25302V19.7267H4.25302ZM1.02344 19.7267H0.0234375V20.7267H1.02344V19.7267ZM1.02344 1.93164V0.931641H0.0234375V1.93164H1.02344ZM4.25302 1.93164H5.25302V0.931641H4.25302V1.93164ZM4.25302 3.41456H3.25302V4.41456H4.25302V3.41456ZM5.8678 3.41456H6.8678V2.41456H5.8678V3.41456ZM5.8678 4.89748H4.8678V5.89748H5.8678V4.89748ZM7.48259 4.89748H8.48259V3.89748H7.48259V4.89748ZM7.48259 6.3804H6.48259V7.3804H7.48259V6.3804ZM9.09738 6.3804H10.0974V5.3804H9.09738V6.3804ZM9.09738 7.86332H8.09738V8.86332H9.09738V7.86332ZM10.7122 7.86332H11.7122V6.86332H10.7122V7.86332ZM10.7122 9.34623H9.71217V10.3462H10.7122V9.34623ZM12.327 9.34623H13.327V8.34623H12.327V9.34623ZM12.327 10.8292H11.327V11.8292H12.327V10.8292ZM13.9417 10.8292H14.9417V9.82915H13.9417V10.8292ZM13.9417 12.3121H12.9417V13.3121H13.9417V12.3121ZM15.5565 12.3121V13.3121H16.5565V12.3121H15.5565ZM22.0243 1.93164V0.931641H21.0243V1.93164H22.0243ZM39.787 1.93164H40.787V0.931641H39.787V1.93164ZM39.787 4.89748V5.89748H40.787V4.89748H39.787ZM25.2539 4.89748V3.89748H24.2539V4.89748H25.2539ZM25.2539 9.34623H24.2539V10.3462H25.2539V9.34623ZM36.5574 9.34623H37.5574V8.34623H36.5574V9.34623ZM36.5574 12.3121V13.3121H37.5574V12.3121H36.5574ZM25.2539 12.3121V11.3121H24.2539V12.3121H25.2539ZM25.2539 19.7267V20.7267H26.2539V19.7267H25.2539ZM22.0243 19.7267H21.0243V20.7267H22.0243V19.7267ZM43.0252 4.89748H42.0252V5.89748H43.0252V4.89748ZM43.0252 1.93164V0.931641H42.0252V1.93164H43.0252ZM59.1731 1.93164H60.1731V0.931641H59.1731V1.93164ZM59.1731 4.89748V5.89748H60.1731V4.89748H59.1731ZM52.7139 4.89748V3.89748H51.7139V4.89748H52.7139ZM52.7139 19.7267V20.7267H53.7139V19.7267H52.7139ZM49.4843 19.7267H48.4843V20.7267H49.4843V19.7267ZM49.4843 4.89748H50.4843V3.89748H49.4843V4.89748ZM88.2565 13.795H89.2565V12.795H88.2565V13.795ZM88.2565 15.2779H87.2565V16.2779H88.2565V15.2779ZM89.8713 15.2779H90.8713V14.2779H89.8713V15.2779ZM89.8713 16.7608H88.8713V17.7608H89.8713V16.7608ZM97.9452 16.7608V17.7608H98.9452V16.7608H97.9452ZM97.9452 15.2779V14.2779H96.9452V15.2779H97.9452ZM99.56 15.2779V16.2779H100.56V15.2779H99.56ZM99.56 13.795H100.56V12.795H99.56V13.795ZM97.9452 13.795H96.9452V14.795H97.9452V13.795ZM97.9452 12.3121H98.9452V11.3121H97.9452V12.3121ZM88.2565 12.3121H87.2565V13.3121H88.2565V12.3121ZM88.2565 10.8292H89.2565V9.82915H88.2565V10.8292ZM86.6417 10.8292H85.6417V11.8292H86.6417V10.8292ZM86.6417 9.34623H87.6417V8.34623H86.6417V9.34623ZM85.0269 9.34623H84.0269V10.3462H85.0269V9.34623ZM85.0269 4.89748V3.89748H84.0269V4.89748H85.0269ZM86.6417 4.89748V5.89748H87.6417V4.89748H86.6417ZM86.6417 3.41456V2.41456H85.6417V3.41456H86.6417ZM88.2565 3.41456V4.41456H89.2565V3.41456H88.2565ZM88.2565 1.93164V0.931641H87.2565V1.93164H88.2565ZM99.56 1.93164H100.56V0.931641H99.56V1.93164ZM99.56 3.41456H98.56V4.41456H99.56V3.41456ZM101.175 3.41456H102.175V2.41456H101.175V3.41456ZM101.175 4.89748H100.175V5.89748H101.175V4.89748ZM102.79 4.89748H103.79V3.89748H102.79V4.89748ZM102.79 7.86332V8.86332H103.79V7.86332H102.79ZM99.56 7.86332H98.56V8.86332H99.56V7.86332ZM99.56 6.3804H100.56V5.3804H99.56V6.3804ZM97.9452 6.3804H96.9452V7.3804H97.9452V6.3804ZM97.9452 4.89748H98.9452V3.89748H97.9452V4.89748ZM89.8713 4.89748V3.89748H88.8713V4.89748H89.8713ZM89.8713 6.3804V7.3804H90.8713V6.3804H89.8713ZM88.2565 6.3804V5.3804H87.2565V6.3804H88.2565ZM88.2565 7.86332H87.2565V8.86332H88.2565V7.86332ZM89.8713 7.86332H90.8713V6.86332H89.8713V7.86332ZM89.8713 9.34623H88.8713V10.3462H89.8713V9.34623ZM99.56 9.34623H100.56V8.34623H99.56V9.34623ZM99.56 10.8292H98.56V11.8292H99.56V10.8292ZM101.175 10.8292H102.175V9.82915H101.175V10.8292ZM101.175 12.3121H100.175V13.3121H101.175V12.3121ZM102.79 12.3121H103.79V11.3121H102.79V12.3121ZM102.79 16.7608V17.7608H103.79V16.7608H102.79ZM101.175 16.7608V15.7608H100.175V16.7608H101.175ZM101.175 18.2437V19.2437H102.175V18.2437H101.175ZM99.56 18.2437V17.2437H98.56V18.2437H99.56ZM99.56 19.7267V20.7267H100.56V19.7267H99.56ZM88.2565 19.7267H87.2565V20.7267H88.2565V19.7267ZM88.2565 18.2437H89.2565V17.2437H88.2565V18.2437ZM86.6417 18.2437H85.6417V19.2437H86.6417V18.2437ZM86.6417 16.7608H87.6417V15.7608H86.6417V16.7608ZM85.0269 16.7608H84.0269V17.7608H85.0269V16.7608ZM85.0269 13.795V12.795H84.0269V13.795H85.0269ZM120.561 12.3121H121.561V11.3121H120.561V12.3121ZM109.257 12.3121V11.3121H108.257V12.3121H109.257ZM109.257 19.7267V20.7267H110.257V19.7267H109.257ZM106.028 19.7267H105.028V20.7267H106.028V19.7267ZM106.028 1.93164V0.931641H105.028V1.93164H106.028ZM109.257 1.93164H110.257V0.931641H109.257V1.93164ZM109.257 9.34623H108.257V10.3462H109.257V9.34623ZM120.561 9.34623V10.3462H121.561V9.34623H120.561ZM120.561 1.93164V0.931641H119.561V1.93164H120.561ZM123.79 1.93164H124.79V0.931641H123.79V1.93164ZM123.79 19.7267V20.7267H124.79V19.7267H123.79ZM120.561 19.7267H119.561V20.7267H120.561V19.7267ZM131.873 4.89748V3.89748H130.873V4.89748H131.873ZM131.873 6.3804V7.3804H132.873V6.3804H131.873ZM130.258 6.3804V5.3804H129.258V6.3804H130.258ZM130.258 15.2779H129.258V16.2779H130.258V15.2779ZM131.873 15.2779H132.873V14.2779H131.873V15.2779ZM131.873 16.7608H130.873V17.7608H131.873V16.7608ZM139.947 16.7608V17.7608H140.947V16.7608H139.947ZM139.947 15.2779V14.2779H138.947V15.2779H139.947ZM141.562 15.2779V16.2779H142.562V15.2779H141.562ZM141.562 6.3804H142.562V5.3804H141.562V6.3804ZM139.947 6.3804H138.947V7.3804H139.947V6.3804ZM139.947 4.89748H140.947V3.89748H139.947V4.89748ZM144.791 16.7608V17.7608H145.791V16.7608H144.791ZM143.177 16.7608V15.7608H142.177V16.7608H143.177ZM143.177 18.2437V19.2437H144.177V18.2437H143.177ZM141.562 18.2437V17.2437H140.562V18.2437H141.562ZM141.562 19.7267V20.7267H142.562V19.7267H141.562ZM130.258 19.7267H129.258V20.7267H130.258V19.7267ZM130.258 18.2437H131.258V17.2437H130.258V18.2437ZM128.643 18.2437H127.643V19.2437H128.643V18.2437ZM128.643 16.7608H129.643V15.7608H128.643V16.7608ZM127.029 16.7608H126.029V17.7608H127.029V16.7608ZM127.029 4.89748V3.89748H126.029V4.89748H127.029ZM128.643 4.89748V5.89748H129.643V4.89748H128.643ZM128.643 3.41456V2.41456H127.643V3.41456H128.643ZM130.258 3.41456V4.41456H131.258V3.41456H130.258ZM130.258 1.93164V0.931641H129.258V1.93164H130.258ZM141.562 1.93164H142.562V0.931641H141.562V1.93164ZM141.562 3.41456H140.562V4.41456H141.562V3.41456ZM143.177 3.41456H144.177V2.41456H143.177V3.41456ZM143.177 4.89748H142.177V5.89748H143.177V4.89748ZM144.791 4.89748H145.791V3.89748H144.791V4.89748ZM148.03 1.93164V0.931641H147.03V1.93164H148.03ZM162.563 1.93164H163.563V0.931641H162.563V1.93164ZM162.563 3.41456H161.563V4.41456H162.563V3.41456ZM164.177 3.41456H165.177V2.41456H164.177V3.41456ZM164.177 4.89748H163.177V5.89748H164.177V4.89748ZM165.792 4.89748H166.792V3.89748H165.792V4.89748ZM165.792 10.8292V11.8292H166.792V10.8292H165.792ZM164.177 10.8292V9.82915H163.177V10.8292H164.177ZM164.177 12.3121V13.3121H165.177V12.3121H164.177ZM162.563 12.3121V11.3121H161.563V12.3121H162.563ZM162.563 13.795V14.795H163.563V13.795H162.563ZM151.259 13.795V12.795H150.259V13.795H151.259ZM151.259 19.7267V20.7267H152.259V19.7267H151.259ZM148.03 19.7267H147.03V20.7267H148.03V19.7267ZM151.259 4.89748V3.89748H150.259V4.89748H151.259ZM151.259 10.8292H150.259V11.8292H151.259V10.8292ZM160.948 10.8292V11.8292H161.948V10.8292H160.948ZM160.948 9.34623V8.34623H159.948V9.34623H160.948ZM162.563 9.34623V10.3462H163.563V9.34623H162.563ZM162.563 6.3804H163.563V5.3804H162.563V6.3804ZM160.948 6.3804H159.948V7.3804H160.948V6.3804ZM160.948 4.89748H161.948V3.89748H160.948V4.89748ZM16.5565 7.86332V3.41456H14.5565V7.86332H16.5565ZM16.5565 3.41456V1.93164H14.5565V3.41456H16.5565ZM15.5565 2.93164H18.7861V0.931641H15.5565V2.93164ZM17.7861 1.93164V3.41456H19.7861V1.93164H17.7861ZM17.7861 3.41456V4.89748H19.7861V3.41456H17.7861ZM17.7861 4.89748V16.7608H19.7861V4.89748H17.7861ZM17.7861 16.7608V19.7267H19.7861V16.7608H17.7861ZM18.7861 18.7267H15.5565V20.7267H18.7861V18.7267ZM16.5565 19.7267V16.7608H14.5565V19.7267H16.5565ZM15.5565 15.7608H13.9417V17.7608H15.5565V15.7608ZM14.9417 16.7608V15.2779H12.9417V16.7608H14.9417ZM13.9417 14.2779H12.327V16.2779H13.9417V14.2779ZM13.327 15.2779V13.795H11.327V15.2779H13.327ZM12.327 12.795H10.7122V14.795H12.327V12.795ZM11.7122 13.795V12.3121H9.71217V13.795H11.7122ZM10.7122 11.3121H9.09738V13.3121H10.7122V11.3121ZM10.0974 12.3121V10.8292H8.09738V12.3121H10.0974ZM9.09738 9.82915H7.48259V11.8292H9.09738V9.82915ZM8.48259 10.8292V9.34623H6.48259V10.8292H8.48259ZM7.48259 8.34623H5.8678V10.3462H7.48259V8.34623ZM6.8678 9.34623V7.86332H4.8678V9.34623H6.8678ZM5.8678 6.86332H4.25302V8.86332H5.8678V6.86332ZM3.25302 7.86332V12.3121H5.25302V7.86332H3.25302ZM3.25302 12.3121V19.7267H5.25302V12.3121H3.25302ZM4.25302 18.7267H2.63823V20.7267H4.25302V18.7267ZM2.63823 18.7267H1.02344V20.7267H2.63823V18.7267ZM2.02344 19.7267V18.2437H0.0234375V19.7267H2.02344ZM2.02344 18.2437V16.7608H0.0234375V18.2437H2.02344ZM2.02344 16.7608V15.2779H0.0234375V16.7608H2.02344ZM2.02344 15.2779V12.3121H0.0234375V15.2779H2.02344ZM2.02344 12.3121V10.8292H0.0234375V12.3121H2.02344ZM2.02344 10.8292V9.34623H0.0234375V10.8292H2.02344ZM2.02344 9.34623V7.86332H0.0234375V9.34623H2.02344ZM2.02344 7.86332V6.3804H0.0234375V7.86332H2.02344ZM2.02344 6.3804V4.89748H0.0234375V6.3804H2.02344ZM2.02344 4.89748V3.41456H0.0234375V4.89748H2.02344ZM2.02344 3.41456V1.93164H0.0234375V3.41456H2.02344ZM1.02344 2.93164H2.63823V0.931641H1.02344V2.93164ZM2.63823 2.93164H4.25302V0.931641H2.63823V2.93164ZM3.25302 1.93164V3.41456H5.25302V1.93164H3.25302ZM4.25302 4.41456H5.8678V2.41456H4.25302V4.41456ZM4.8678 3.41456V4.89748H6.8678V3.41456H4.8678ZM5.8678 5.89748H7.48259V3.89748H5.8678V5.89748ZM6.48259 4.89748V6.3804H8.48259V4.89748H6.48259ZM7.48259 7.3804H9.09738V5.3804H7.48259V7.3804ZM8.09738 6.3804V7.86332H10.0974V6.3804H8.09738ZM9.09738 8.86332H10.7122V6.86332H9.09738V8.86332ZM9.71217 7.86332V9.34623H11.7122V7.86332H9.71217ZM10.7122 10.3462H12.327V8.34623H10.7122V10.3462ZM11.327 9.34623V10.8292H13.327V9.34623H11.327ZM12.327 11.8292H13.9417V9.82915H12.327V11.8292ZM12.9417 10.8292V12.3121H14.9417V10.8292H12.9417ZM13.9417 13.3121H15.5565V11.3121H13.9417V13.3121ZM16.5565 12.3121V7.86332H14.5565V12.3121H16.5565ZM23.0243 4.89748V3.41456H21.0243V4.89748H23.0243ZM23.0243 3.41456V1.93164H21.0243V3.41456H23.0243ZM22.0243 2.93164H23.6391V0.931641H22.0243V2.93164ZM23.6391 2.93164H25.2539V0.931641H23.6391V2.93164ZM25.2539 2.93164H30.0983V0.931641H25.2539V2.93164ZM30.0983 2.93164H39.787V0.931641H30.0983V2.93164ZM38.787 1.93164V4.89748H40.787V1.93164H38.787ZM39.787 3.89748H38.1722V5.89748H39.787V3.89748ZM38.1722 3.89748H36.5574V5.89748H38.1722V3.89748ZM36.5574 3.89748H33.3278V5.89748H36.5574V3.89748ZM33.3278 3.89748H31.713V5.89748H33.3278V3.89748ZM31.713 3.89748H30.0983V5.89748H31.713V3.89748ZM30.0983 3.89748H26.8687V5.89748H30.0983V3.89748ZM26.8687 3.89748H25.2539V5.89748H26.8687V3.89748ZM24.2539 4.89748V9.34623H26.2539V4.89748H24.2539ZM25.2539 10.3462H36.5574V8.34623H25.2539V10.3462ZM35.5574 9.34623V12.3121H37.5574V9.34623H35.5574ZM36.5574 11.3121H25.2539V13.3121H36.5574V11.3121ZM24.2539 12.3121V19.7267H26.2539V12.3121H24.2539ZM25.2539 18.7267H23.6391V20.7267H25.2539V18.7267ZM23.6391 18.7267H22.0243V20.7267H23.6391V18.7267ZM23.0243 19.7267V18.2437H21.0243V19.7267H23.0243ZM23.0243 18.2437V16.7608H21.0243V18.2437H23.0243ZM23.0243 16.7608V15.2779H21.0243V16.7608H23.0243ZM23.0243 15.2779V12.3121H21.0243V15.2779H23.0243ZM23.0243 12.3121V10.8292H21.0243V12.3121H23.0243ZM23.0243 10.8292V9.34623H21.0243V10.8292H23.0243ZM23.0243 9.34623V7.86332H21.0243V9.34623H23.0243ZM23.0243 7.86332V6.3804H21.0243V7.86332H23.0243ZM23.0243 6.3804V4.89748H21.0243V6.3804H23.0243ZM44.0252 4.89748V3.41456H42.0252V4.89748H44.0252ZM44.0252 3.41456V1.93164H42.0252V3.41456H44.0252ZM43.0252 2.93164H44.64V0.931641H43.0252V2.93164ZM44.64 2.93164H46.2547V0.931641H44.64V2.93164ZM46.2547 2.93164H51.0991V0.931641H46.2547V2.93164ZM51.0991 2.93164H59.1731V0.931641H51.0991V2.93164ZM58.1731 1.93164V4.89748H60.1731V1.93164H58.1731ZM59.1731 3.89748H57.5583V5.89748H59.1731V3.89748ZM57.5583 3.89748H55.9435V5.89748H57.5583V3.89748ZM55.9435 3.89748H52.7139V5.89748H55.9435V3.89748ZM51.7139 4.89748V12.3121H53.7139V4.89748H51.7139ZM51.7139 12.3121V19.7267H53.7139V12.3121H51.7139ZM52.7139 18.7267H49.4843V20.7267H52.7139V18.7267ZM50.4843 19.7267V12.3121H48.4843V19.7267H50.4843ZM50.4843 12.3121V4.89748H48.4843V12.3121H50.4843ZM49.4843 3.89748H47.8695V5.89748H49.4843V3.89748ZM47.8695 3.89748H43.0252V5.89748H47.8695V3.89748ZM87.2565 13.795V15.2779H89.2565V13.795H87.2565ZM88.2565 16.2779H89.8713V14.2779H88.2565V16.2779ZM88.8713 15.2779V16.7608H90.8713V15.2779H88.8713ZM89.8713 17.7608H91.4861V15.7608H89.8713V17.7608ZM91.4861 17.7608H93.1009V15.7608H91.4861V17.7608ZM93.1009 17.7608H94.7156V15.7608H93.1009V17.7608ZM94.7156 17.7608H96.3304V15.7608H94.7156V17.7608ZM96.3304 17.7608H97.9452V15.7608H96.3304V17.7608ZM98.9452 16.7608V15.2779H96.9452V16.7608H98.9452ZM97.9452 16.2779H99.56V14.2779H97.9452V16.2779ZM100.56 15.2779V13.795H98.56V15.2779H100.56ZM99.56 12.795H97.9452V14.795H99.56V12.795ZM98.9452 13.795V12.3121H96.9452V13.795H98.9452ZM97.9452 11.3121H96.3304V13.3121H97.9452V11.3121ZM96.3304 11.3121H94.7156V13.3121H96.3304V11.3121ZM94.7156 11.3121H93.1009V13.3121H94.7156V11.3121ZM93.1009 11.3121H88.2565V13.3121H93.1009V11.3121ZM89.2565 12.3121V10.8292H87.2565V12.3121H89.2565ZM88.2565 9.82915H86.6417V11.8292H88.2565V9.82915ZM87.6417 10.8292V9.34623H85.6417V10.8292H87.6417ZM86.6417 8.34623H85.0269V10.3462H86.6417V8.34623ZM86.0269 9.34623V7.86332H84.0269V9.34623H86.0269ZM86.0269 7.86332V6.3804H84.0269V7.86332H86.0269ZM86.0269 6.3804V4.89748H84.0269V6.3804H86.0269ZM85.0269 5.89748H86.6417V3.89748H85.0269V5.89748ZM87.6417 4.89748V3.41456H85.6417V4.89748H87.6417ZM86.6417 4.41456H88.2565V2.41456H86.6417V4.41456ZM89.2565 3.41456V1.93164H87.2565V3.41456H89.2565ZM88.2565 2.93164H91.4861V0.931641H88.2565V2.93164ZM91.4861 2.93164H93.1009V0.931641H91.4861V2.93164ZM93.1009 2.93164H94.7156V0.931641H93.1009V2.93164ZM94.7156 2.93164H99.56V0.931641H94.7156V2.93164ZM98.56 1.93164V3.41456H100.56V1.93164H98.56ZM99.56 4.41456H101.175V2.41456H99.56V4.41456ZM100.175 3.41456V4.89748H102.175V3.41456H100.175ZM101.175 5.89748H102.79V3.89748H101.175V5.89748ZM101.79 4.89748V7.86332H103.79V4.89748H101.79ZM102.79 6.86332H99.56V8.86332H102.79V6.86332ZM100.56 7.86332V6.3804H98.56V7.86332H100.56ZM99.56 5.3804H97.9452V7.3804H99.56V5.3804ZM98.9452 6.3804V4.89748H96.9452V6.3804H98.9452ZM97.9452 3.89748H96.3304V5.89748H97.9452V3.89748ZM96.3304 3.89748H94.7156V5.89748H96.3304V3.89748ZM94.7156 3.89748H93.1009V5.89748H94.7156V3.89748ZM93.1009 3.89748H91.4861V5.89748H93.1009V3.89748ZM91.4861 3.89748H89.8713V5.89748H91.4861V3.89748ZM88.8713 4.89748V6.3804H90.8713V4.89748H88.8713ZM89.8713 5.3804H88.2565V7.3804H89.8713V5.3804ZM87.2565 6.3804V7.86332H89.2565V6.3804H87.2565ZM88.2565 8.86332H89.8713V6.86332H88.2565V8.86332ZM88.8713 7.86332V9.34623H90.8713V7.86332H88.8713ZM89.8713 10.3462H91.4861V8.34623H89.8713V10.3462ZM91.4861 10.3462H93.1009V8.34623H91.4861V10.3462ZM93.1009 10.3462H94.7156V8.34623H93.1009V10.3462ZM94.7156 10.3462H99.56V8.34623H94.7156V10.3462ZM98.56 9.34623V10.8292H100.56V9.34623H98.56ZM99.56 11.8292H101.175V9.82915H99.56V11.8292ZM100.175 10.8292V12.3121H102.175V10.8292H100.175ZM101.175 13.3121H102.79V11.3121H101.175V13.3121ZM101.79 12.3121V13.795H103.79V12.3121H101.79ZM101.79 13.795V15.2779H103.79V13.795H101.79ZM101.79 15.2779V16.7608H103.79V15.2779H101.79ZM102.79 15.7608H101.175V17.7608H102.79V15.7608ZM100.175 16.7608V18.2437H102.175V16.7608H100.175ZM101.175 17.2437H99.56V19.2437H101.175V17.2437ZM98.56 18.2437V19.7267H100.56V18.2437H98.56ZM99.56 18.7267H94.7156V20.7267H99.56V18.7267ZM94.7156 18.7267H93.1009V20.7267H94.7156V18.7267ZM93.1009 18.7267H88.2565V20.7267H93.1009V18.7267ZM89.2565 19.7267V18.2437H87.2565V19.7267H89.2565ZM88.2565 17.2437H86.6417V19.2437H88.2565V17.2437ZM87.6417 18.2437V16.7608H85.6417V18.2437H87.6417ZM86.6417 15.7608H85.0269V17.7608H86.6417V15.7608ZM86.0269 16.7608V13.795H84.0269V16.7608H86.0269ZM85.0269 14.795H88.2565V12.795H85.0269V14.795ZM120.561 11.3121H109.257V13.3121H120.561V11.3121ZM108.257 12.3121V19.7267H110.257V12.3121H108.257ZM109.257 18.7267H107.643V20.7267H109.257V18.7267ZM107.643 18.7267H106.028V20.7267H107.643V18.7267ZM107.028 19.7267V18.2437H105.028V19.7267H107.028ZM107.028 18.2437V16.7608H105.028V18.2437H107.028ZM107.028 16.7608V15.2779H105.028V16.7608H107.028ZM107.028 15.2779V12.3121H105.028V15.2779H107.028ZM107.028 12.3121V10.8292H105.028V12.3121H107.028ZM107.028 10.8292V9.34623H105.028V10.8292H107.028ZM107.028 9.34623V7.86332H105.028V9.34623H107.028ZM107.028 7.86332V6.3804H105.028V7.86332H107.028ZM107.028 6.3804V4.89748H105.028V6.3804H107.028ZM107.028 4.89748V3.41456H105.028V4.89748H107.028ZM107.028 3.41456V1.93164H105.028V3.41456H107.028ZM106.028 2.93164H107.643V0.931641H106.028V2.93164ZM107.643 2.93164H109.257V0.931641H107.643V2.93164ZM108.257 1.93164V9.34623H110.257V1.93164H108.257ZM109.257 10.3462H120.561V8.34623H109.257V10.3462ZM121.561 9.34623V1.93164H119.561V9.34623H121.561ZM120.561 2.93164H123.79V0.931641H120.561V2.93164ZM122.79 1.93164V4.89748H124.79V1.93164H122.79ZM122.79 4.89748V16.7608H124.79V4.89748H122.79ZM122.79 16.7608V19.7267H124.79V16.7608H122.79ZM123.79 18.7267H120.561V20.7267H123.79V18.7267ZM121.561 19.7267V12.3121H119.561V19.7267H121.561ZM135.103 3.89748H133.488V5.89748H135.103V3.89748ZM133.488 3.89748H131.873V5.89748H133.488V3.89748ZM130.873 4.89748V6.3804H132.873V4.89748H130.873ZM131.873 5.3804H130.258V7.3804H131.873V5.3804ZM129.258 6.3804V7.86332H131.258V6.3804H129.258ZM129.258 7.86332V9.34623H131.258V7.86332H129.258ZM129.258 9.34623V12.3121H131.258V9.34623H129.258ZM129.258 12.3121V13.795H131.258V12.3121H129.258ZM129.258 13.795V15.2779H131.258V13.795H129.258ZM130.258 16.2779H131.873V14.2779H130.258V16.2779ZM130.873 15.2779V16.7608H132.873V15.2779H130.873ZM131.873 17.7608H133.488V15.7608H131.873V17.7608ZM133.488 17.7608H135.103V15.7608H133.488V17.7608ZM135.103 17.7608H136.717V15.7608H135.103V17.7608ZM136.717 17.7608H138.332V15.7608H136.717V17.7608ZM138.332 17.7608H139.947V15.7608H138.332V17.7608ZM140.947 16.7608V15.2779H138.947V16.7608H140.947ZM139.947 16.2779H141.562V14.2779H139.947V16.2779ZM142.562 15.2779V13.795H140.562V15.2779H142.562ZM142.562 13.795V12.3121H140.562V13.795H142.562ZM142.562 12.3121V7.86332H140.562V12.3121H142.562ZM142.562 7.86332V6.3804H140.562V7.86332H142.562ZM141.562 5.3804H139.947V7.3804H141.562V5.3804ZM140.947 6.3804V4.89748H138.947V6.3804H140.947ZM139.947 3.89748H138.332V5.89748H139.947V3.89748ZM138.332 3.89748H136.717V5.89748H138.332V3.89748ZM136.717 3.89748H135.103V5.89748H136.717V3.89748ZM143.791 12.3121V16.7608H145.791V12.3121H143.791ZM144.791 15.7608H143.177V17.7608H144.791V15.7608ZM142.177 16.7608V18.2437H144.177V16.7608H142.177ZM143.177 17.2437H141.562V19.2437H143.177V17.2437ZM140.562 18.2437V19.7267H142.562V18.2437H140.562ZM141.562 18.7267H136.717V20.7267H141.562V18.7267ZM136.717 18.7267H135.103V20.7267H136.717V18.7267ZM135.103 18.7267H130.258V20.7267H135.103V18.7267ZM131.258 19.7267V18.2437H129.258V19.7267H131.258ZM130.258 17.2437H128.643V19.2437H130.258V17.2437ZM129.643 18.2437V16.7608H127.643V18.2437H129.643ZM128.643 15.7608H127.029V17.7608H128.643V15.7608ZM128.029 16.7608V13.795H126.029V16.7608H128.029ZM128.029 13.795V12.3121H126.029V13.795H128.029ZM128.029 12.3121V10.8292H126.029V12.3121H128.029ZM128.029 10.8292V9.34623H126.029V10.8292H128.029ZM128.029 9.34623V4.89748H126.029V9.34623H128.029ZM127.029 5.89748H128.643V3.89748H127.029V5.89748ZM129.643 4.89748V3.41456H127.643V4.89748H129.643ZM128.643 4.41456H130.258V2.41456H128.643V4.41456ZM131.258 3.41456V1.93164H129.258V3.41456H131.258ZM130.258 2.93164H133.488V0.931641H130.258V2.93164ZM133.488 2.93164H135.103V0.931641H133.488V2.93164ZM135.103 2.93164H136.717V0.931641H135.103V2.93164ZM136.717 2.93164H141.562V0.931641H136.717V2.93164ZM140.562 1.93164V3.41456H142.562V1.93164H140.562ZM141.562 4.41456H143.177V2.41456H141.562V4.41456ZM142.177 3.41456V4.89748H144.177V3.41456H142.177ZM143.177 5.89748H144.791V3.89748H143.177V5.89748ZM143.791 4.89748V7.86332H145.791V4.89748H143.791ZM143.791 7.86332V12.3121H145.791V7.86332H143.791ZM149.03 4.89748V3.41456H147.03V4.89748H149.03ZM149.03 3.41456V1.93164H147.03V3.41456H149.03ZM148.03 2.93164H149.644V0.931641H148.03V2.93164ZM149.644 2.93164H151.259V0.931641H149.644V2.93164ZM151.259 2.93164H156.103V0.931641H151.259V2.93164ZM156.103 2.93164H162.563V0.931641H156.103V2.93164ZM161.563 1.93164V3.41456H163.563V1.93164H161.563ZM162.563 4.41456H164.177V2.41456H162.563V4.41456ZM163.177 3.41456V4.89748H165.177V3.41456H163.177ZM164.177 5.89748H165.792V3.89748H164.177V5.89748ZM164.792 4.89748V7.86332H166.792V4.89748H164.792ZM164.792 7.86332V9.34623H166.792V7.86332H164.792ZM164.792 9.34623V10.8292H166.792V9.34623H164.792ZM165.792 9.82915H164.177V11.8292H165.792V9.82915ZM163.177 10.8292V12.3121H165.177V10.8292H163.177ZM164.177 11.3121H162.563V13.3121H164.177V11.3121ZM161.563 12.3121V13.795H163.563V12.3121H161.563ZM162.563 12.795H156.103V14.795H162.563V12.795ZM156.103 12.795H151.259V14.795H156.103V12.795ZM150.259 13.795V19.7267H152.259V13.795H150.259ZM151.259 18.7267H148.03V20.7267H151.259V18.7267ZM149.03 19.7267V13.795H147.03V19.7267H149.03ZM149.03 13.795V12.3121H147.03V13.795H149.03ZM149.03 12.3121V10.8292H147.03V12.3121H149.03ZM149.03 10.8292V9.34623H147.03V10.8292H149.03ZM149.03 9.34623V7.86332H147.03V9.34623H149.03ZM149.03 7.86332V6.3804H147.03V7.86332H149.03ZM149.03 6.3804V4.89748H147.03V6.3804H149.03ZM156.103 3.89748H152.874V5.89748H156.103V3.89748ZM152.874 3.89748H151.259V5.89748H152.874V3.89748ZM150.259 4.89748V9.34623H152.259V4.89748H150.259ZM150.259 9.34623V10.8292H152.259V9.34623H150.259ZM151.259 11.8292H152.874V9.82915H151.259V11.8292ZM152.874 11.8292H156.103V9.82915H152.874V11.8292ZM156.103 11.8292H157.718V9.82915H156.103V11.8292ZM157.718 11.8292H159.333V9.82915H157.718V11.8292ZM159.333 11.8292H160.948V9.82915H159.333V11.8292ZM161.948 10.8292V9.34623H159.948V10.8292H161.948ZM160.948 10.3462H162.563V8.34623H160.948V10.3462ZM163.563 9.34623V7.86332H161.563V9.34623H163.563ZM163.563 7.86332V6.3804H161.563V7.86332H163.563ZM162.563 5.3804H160.948V7.3804H162.563V5.3804ZM161.948 6.3804V4.89748H159.948V6.3804H161.948ZM160.948 3.89748H159.333V5.89748H160.948V3.89748ZM159.333 3.89748H157.718V5.89748H159.333V3.89748ZM157.718 3.89748H156.103V5.89748H157.718V3.89748Z" fill="white" mask="url(#path-1-outside-1_1340_4989)"/>
</svg>
