<svg width="73" height="543" viewBox="0 0 73 543" fill="none" xmlns="http://www.w3.org/2000/svg">
<g opacity="0.1">
<path d="M30.4167 488.11L-2.39933e-06 488.11L-2.66593e-06 482.011L-2.93252e-06 475.912L6.08333 475.912L12.1667 475.912L18.25 475.912L30.4167 475.912L36.5 475.912L42.5833 475.912L48.6667 475.912L54.75 475.912L60.8334 475.912L66.9167 475.912L73 475.912L73 482.011L73 488.11L66.9167 488.11L66.9167 494.209L60.8334 494.209L60.8334 500.307L54.75 500.307L54.75 506.406L48.6667 506.406L48.6667 512.505L54.75 512.505L54.75 518.604L60.8334 518.604L60.8334 524.703L66.9167 524.703L66.9167 530.802L73 530.802L73 543L66.9167 543L60.8334 543L12.1667 543L0 543L-5.33186e-07 530.802L30.4167 530.802L48.6667 530.802L48.6667 524.703L42.5833 524.703L42.5833 518.604L36.5 518.604L36.5 512.505L30.4167 512.505L30.4167 506.406L36.5 506.406L36.5 500.307L42.5833 500.307L42.5833 494.209L48.6667 494.209L48.6667 488.11L30.4167 488.11Z" fill="url(#paint0_linear_1344_31533)"/>
<path d="M12.1667 463.681L6.08333 463.681L-3.46713e-06 463.681L-3.73372e-06 457.582L-4.00031e-06 451.484L-4.80009e-06 433.187L-6.39965e-06 396.593L12.1667 396.593L12.1667 402.692L12.1667 408.791L12.1667 420.989L12.1667 427.088L12.1667 433.187L12.1667 445.385L12.1667 451.484L30.4167 451.484L30.4167 408.791L42.5833 408.791L42.5833 451.484L60.8334 451.484L60.8334 445.385L60.8334 433.187L60.8333 427.088L60.8333 420.989L60.8333 408.791L60.8333 402.692L60.8333 396.593L73 396.593L73 433.187L73 451.484L73 457.582L73 463.681L66.9167 463.681L60.8334 463.681L54.75 463.681L42.5833 463.681L36.5 463.681L30.4167 463.681L24.3333 463.681L18.25 463.681L12.1667 463.681Z" fill="url(#paint1_linear_1344_31533)"/>
<path d="M66.9167 384.363L60.8333 384.363L48.6667 384.363L36.5 384.363L30.4167 384.363L24.3333 384.363L24.3333 378.264L18.25 378.264L18.25 372.165L12.1667 372.165L12.1667 366.066L6.08333 366.066L6.08333 359.967L-8.00063e-06 359.967L-8.8004e-06 341.67L6.08333 341.67L6.08333 335.571L12.1667 335.571L12.1667 329.472L18.25 329.472L18.25 323.373L24.3333 323.373L24.3333 317.275L30.4167 317.275L36.5 317.275L48.6667 317.275L60.8333 317.275L66.9167 317.275L73 317.275L73 323.373L73 329.472L66.9167 329.472L60.8333 329.472L48.6667 329.472L48.6667 372.165L60.8333 372.165L66.9167 372.165L73 372.165L73 378.264L73 384.363L66.9167 384.363ZM36.5 329.472L30.4167 329.472L30.4167 335.571L24.3333 335.571L24.3333 341.67L18.25 341.67L18.25 347.769L12.1667 347.769L12.1667 353.868L18.25 353.868L18.25 359.967L24.3333 359.967L24.3333 366.066L30.4167 366.066L30.4167 372.165L36.5 372.165L36.5 329.472Z" fill="url(#paint2_linear_1344_31533)"/>
<path d="M12.1667 305.044L6.08333 305.044L-1.04014e-05 305.044L-1.0668e-05 298.945L-1.09346e-05 292.846L-1.17343e-05 274.549L-1.28007e-05 250.154L6.08332 250.154L6.08332 244.055L12.1667 244.055L12.1667 237.956L24.3333 237.956L30.4167 237.956L36.5 237.956L36.5 244.055L42.5833 244.055L42.5833 250.154L48.6667 250.154L48.6667 274.549L48.6667 292.846L73 292.846L73 305.044L48.6667 305.044L42.5833 305.044L36.5 305.044L30.4167 305.044L24.3333 305.044L18.25 305.044L12.1667 305.044ZM12.1667 274.549L12.1667 286.747L12.1667 292.846L30.4167 292.846L36.5 292.846L36.5 286.747L36.5 274.549L36.5 268.451L36.5 262.352L36.5 256.253L30.4167 256.253L30.4167 250.154L24.3333 250.154L18.25 250.154L18.25 256.253L12.1667 256.253L12.1667 262.352L12.1667 268.451L12.1667 274.549Z" fill="url(#paint3_linear_1344_31533)"/>
<path d="M12.1667 195.231L12.1667 201.33L12.1667 207.429L18.25 207.429L18.25 213.528L24.3333 213.528L30.4167 213.528L42.5833 213.528L48.6667 213.528L54.75 213.528L54.75 207.429L60.8333 207.429L60.8333 201.33L60.8333 195.231L60.8333 189.132L60.8333 183.033L60.8333 176.934L54.75 176.934L54.75 170.835L48.6667 170.835L42.5833 170.835L24.3333 170.835L18.25 170.835L18.25 176.934L12.1667 176.934L12.1667 183.033L12.1667 189.132L12.1667 195.231ZM42.5833 158.637L60.8333 158.637L60.8333 164.736L66.9167 164.736L66.9167 170.835L73 170.835L73 189.132L73 195.231L73 213.528L66.9167 213.528L66.9167 219.627L60.8333 219.627L60.8333 225.725L48.6667 225.725L42.5833 225.725L36.5 225.725L30.4167 225.725L12.1667 225.725L12.1667 219.627L6.08332 219.627L6.08332 213.528L-1.44017e-05 213.528L-1.49349e-05 201.33L-1.52015e-05 195.231L-1.54681e-05 189.132L-1.62678e-05 170.835L6.08332 170.835L6.08332 164.736L12.1667 164.736L12.1667 158.637L24.3333 158.637L42.5833 158.637Z" fill="url(#paint4_linear_1344_31533)"/>
<path d="M24.3333 91.5165L6.08332 91.5165L-1.9735e-05 91.5165L-2.02682e-05 79.3186L6.08332 79.3186L12.1666 79.3186L60.8333 79.3186L73 79.3186L73 91.5165L60.8333 91.5165L60.8333 97.6154L54.75 97.6154L54.75 103.714L48.6667 103.714L48.6667 109.813L42.5833 109.813L42.5833 115.912L36.5 115.912L36.5 122.011L30.4167 122.011L30.4167 128.11L24.3333 128.11L24.3333 134.209L42.5833 134.209L73 134.209L73 140.308L73 146.407L66.9167 146.407L60.8333 146.407L54.75 146.407L42.5833 146.407L36.5 146.407L30.4167 146.407L24.3333 146.407L18.25 146.407L12.1667 146.407L6.08332 146.407L-1.73356e-05 146.407L-1.76022e-05 140.308L-1.78688e-05 134.209L6.08332 134.209L6.08332 128.11L12.1667 128.11L12.1667 122.011L18.25 122.011L18.25 115.912L24.3333 115.912L24.3333 109.813L30.4167 109.813L30.4167 103.714L36.5 103.714L36.5 97.6154L42.5833 97.6154L42.5833 91.5165L24.3333 91.5165Z" fill="url(#paint5_linear_1344_31533)"/>
<path d="M48.6667 54.8903L54.75 54.8903L54.75 48.7914L60.8333 48.7914L60.8333 42.6925L60.8333 36.5936L60.8333 30.4946L60.8333 24.3957L60.8333 18.2968L54.75 18.2968L54.75 12.1978L48.6667 12.1978L48.6667 18.2968L42.5833 18.2968L42.5833 24.3957L42.5833 30.4946L42.5833 36.5936L42.5833 54.8903L36.5 54.8903L36.5 60.9893L30.4167 60.9893L30.4167 67.0882L24.3333 67.0882L18.25 67.0882L12.1666 67.0882L12.1666 60.9893L6.08332 60.9893L6.08332 54.8904L-2.1336e-05 54.8904L-2.18691e-05 42.6925L-2.21357e-05 36.5936L-2.24023e-05 30.4946L-2.32021e-05 12.1978L6.08331 12.1978L6.08331 6.09888L12.1666 6.09888L12.1666 -6.1567e-05L24.3333 -6.20988e-05L24.3333 12.1978L18.25 12.1978L18.25 18.2968L12.1666 18.2968L12.1666 24.3957L12.1666 30.4946L12.1666 36.5936L12.1666 42.6925L12.1666 48.7914L18.25 48.7914L18.25 54.8903L24.3333 54.8903L24.3333 48.7914L30.4167 48.7914L30.4167 42.6925L30.4167 36.5936L30.4167 30.4946L30.4167 12.1978L36.5 12.1978L36.5 6.09888L42.5833 6.09888L42.5833 -6.28965e-05L48.6667 -6.31624e-05L54.75 -6.34284e-05L60.8333 -6.36943e-05L60.8333 6.09887L66.9167 6.09887L66.9167 12.1978L73 12.1978L73 30.4946L73 36.5936L73 54.8903L66.9167 54.8903L66.9167 60.9893L60.8333 60.9893L60.8333 67.0882L48.6667 67.0882L48.6667 54.8903Z" fill="url(#paint6_linear_1344_31533)"/>
</g>
<defs>
<linearGradient id="paint0_linear_1344_31533" x1="-1.18676e-05" y1="271.5" x2="73" y2="271.5" gradientUnits="userSpaceOnUse">
<stop stop-color="#FF7C06"/>
<stop offset="1" stop-color="#E45C00"/>
</linearGradient>
<linearGradient id="paint1_linear_1344_31533" x1="-1.18676e-05" y1="271.5" x2="73" y2="271.5" gradientUnits="userSpaceOnUse">
<stop stop-color="#FF7C06"/>
<stop offset="1" stop-color="#E45C00"/>
</linearGradient>
<linearGradient id="paint2_linear_1344_31533" x1="-1.18676e-05" y1="271.5" x2="73" y2="271.5" gradientUnits="userSpaceOnUse">
<stop stop-color="#FF7C06"/>
<stop offset="1" stop-color="#E45C00"/>
</linearGradient>
<linearGradient id="paint3_linear_1344_31533" x1="-1.18676e-05" y1="271.5" x2="73" y2="271.5" gradientUnits="userSpaceOnUse">
<stop stop-color="#FF7C06"/>
<stop offset="1" stop-color="#E45C00"/>
</linearGradient>
<linearGradient id="paint4_linear_1344_31533" x1="-1.18676e-05" y1="271.5" x2="73" y2="271.5" gradientUnits="userSpaceOnUse">
<stop stop-color="#FF7C06"/>
<stop offset="1" stop-color="#E45C00"/>
</linearGradient>
<linearGradient id="paint5_linear_1344_31533" x1="-1.18676e-05" y1="271.5" x2="73" y2="271.5" gradientUnits="userSpaceOnUse">
<stop stop-color="#FF7C06"/>
<stop offset="1" stop-color="#E45C00"/>
</linearGradient>
<linearGradient id="paint6_linear_1344_31533" x1="-1.18676e-05" y1="271.5" x2="73" y2="271.5" gradientUnits="userSpaceOnUse">
<stop stop-color="#FF7C06"/>
<stop offset="1" stop-color="#E45C00"/>
</linearGradient>
</defs>
</svg>
