<svg width="52" height="496" viewBox="0 0 52 496" fill="none" xmlns="http://www.w3.org/2000/svg">
<g opacity="0.1">
<path d="M8.66667 474.443L8.66667 478.754L8.66667 483.066L13 483.066L13 487.377L17.3333 487.377L21.6667 487.377L30.3333 487.377L34.6667 487.377L39 487.377L39 483.066L43.3334 483.066L43.3334 478.754L43.3334 474.443L43.3334 470.131L43.3334 465.82L43.3334 461.508L39 461.508L39 457.197L34.6667 457.197L34.6667 448.574L43.3334 448.574L43.3334 452.886L47.6667 452.886L47.6667 457.197L52 457.197L52 470.131L52 474.443L52 487.377L47.6667 487.377L47.6667 491.689L43.3334 491.689L43.3334 496L34.6667 496L30.3333 496L26 496L21.6667 496L8.66667 496L8.66667 491.689L4.33334 491.689L4.33334 487.377L-3.76918e-07 487.377L-7.53837e-07 478.754L-9.42296e-07 474.443L-1.13076e-06 470.131L-1.69613e-06 457.197L4.33334 457.197L4.33333 452.886L8.66667 452.886L8.66667 448.574L17.3333 448.574L17.3333 457.197L13 457.197L13 461.508L8.66667 461.508L8.66667 465.82L8.66667 470.131L8.66667 474.443Z" fill="#FF7C06"/>
<path d="M30.3333 401.125L30.3333 431.305L52 431.305L52 435.617L52 439.928L47.6667 439.928L43.3334 439.928L39 439.928L30.3333 439.928L26 439.928L21.6667 439.928L17.3333 439.928L13 439.928L8.66667 439.928L4.33333 439.928L-2.45097e-06 439.928L-2.63943e-06 435.617L-2.82789e-06 431.305L21.6667 431.305L21.6667 401.125L-4.14711e-06 401.125L-4.52403e-06 392.502L8.66666 392.502L43.3334 392.502L52 392.502L52 401.125L30.3333 401.125Z" fill="#FF7C06"/>
<path d="M47.6667 383.856L43.3334 383.856L34.6667 383.856L26 383.856L21.6667 383.856L17.3333 383.856L17.3333 379.545L13 379.545L13 375.234L8.66666 375.234L8.66666 370.922L4.33333 370.922L4.33333 366.611L-5.65579e-06 366.611L-6.22116e-06 353.676L4.33333 353.676L4.33333 349.365L8.66666 349.365L8.66666 345.053L13 345.053L13 340.742L17.3333 340.742L17.3333 336.431L21.6667 336.431L26 336.431L34.6667 336.431L43.3333 336.431L47.6667 336.431L52 336.431L52 340.742L52 345.053L47.6667 345.053L43.3333 345.053L34.6667 345.053L34.6667 375.234L43.3333 375.234L47.6667 375.234L52 375.234L52 379.545L52 383.856L47.6667 383.856ZM26 345.053L21.6667 345.053L21.6667 349.365L17.3333 349.365L17.3333 353.676L13 353.676L13 357.988L8.66666 357.988L8.66666 362.299L13 362.299L13 366.611L17.3333 366.611L17.3333 370.922L21.6667 370.922L21.6667 375.234L26 375.234L26 345.053Z" fill="#FF7C06"/>
<path d="M8.66666 327.785L4.33333 327.785L-7.35292e-06 327.785L-7.54138e-06 323.473L-7.72984e-06 319.162L-8.29522e-06 306.227L-9.04906e-06 288.982L4.33333 288.982L4.33333 284.67L8.66666 284.67L8.66666 280.359L17.3333 280.359L21.6667 280.359L26 280.359L26 284.67L30.3333 284.67L30.3333 288.982L34.6667 288.982L39 288.982L39 284.67L43.3333 284.67L43.3333 280.359L47.6667 280.359L52 280.359L52 288.982L47.6667 288.982L47.6667 293.293L43.3333 293.293L43.3333 297.605L39 297.605L39 301.916L34.6667 301.916L34.6667 306.227L34.6667 319.162L52 319.162L52 327.785L34.6667 327.785L30.3333 327.785L26 327.785L21.6667 327.785L17.3333 327.785L13 327.785L8.66666 327.785ZM8.66666 306.227L8.66666 314.85L8.66666 319.162L21.6667 319.162L26 319.162L26 314.85L26 310.539L26 306.227L26 301.916L26 297.605L26 293.293L21.6667 293.293L21.6667 288.982L17.3333 288.982L13 288.982L13 293.293L8.66666 293.293L8.66666 297.605L8.66666 301.916L8.66666 306.227Z" fill="#FF7C06"/>
<path d="M47.6667 271.713L43.3333 271.713L34.6667 271.713L26 271.713L21.6667 271.713L17.3333 271.713L17.3333 267.402L13 267.402L13 263.09L8.66666 263.09L8.66666 258.779L4.33333 258.779L4.33333 254.467L-1.05577e-05 254.467L-1.11231e-05 241.533L4.33333 241.533L4.33333 237.221L8.66666 237.221L8.66666 232.91L13 232.91L13 228.598L17.3333 228.598L17.3333 224.287L21.6667 224.287L26 224.287L34.6667 224.287L43.3333 224.287L47.6667 224.287L52 224.287L52 228.598L52 232.91L47.6667 232.91L43.3333 232.91L34.6667 232.91L34.6667 263.09L43.3333 263.09L47.6667 263.09L52 263.09L52 267.402L52 271.713L47.6667 271.713ZM26 232.91L21.6667 232.91L21.6667 237.221L17.3333 237.221L17.3333 241.533L13 241.533L13 245.844L8.66666 245.844L8.66666 250.156L13 250.156L13 254.467L17.3333 254.467L17.3333 258.779L21.6667 258.779L21.6667 263.09L26 263.09L26 232.91Z" fill="#FF7C06"/>
<path d="M8.66666 194.084L8.66666 198.395L8.66666 202.707L13 202.707L13 207.018L17.3333 207.018L21.6667 207.018L30.3333 207.018L34.6667 207.018L39 207.018L39 202.707L43.3333 202.707L43.3333 198.395L43.3333 194.084L43.3333 189.772L43.3333 185.461L43.3333 181.15L39 181.15L39 176.838L34.6667 176.838L34.6667 168.215L43.3333 168.215L43.3333 172.527L47.6667 172.527L47.6667 176.838L52 176.838L52 189.772L52 194.084L52 207.018L47.6667 207.018L47.6667 211.33L43.3333 211.33L43.3333 215.641L34.6667 215.641L30.3333 215.641L26 215.641L21.6667 215.641L8.66666 215.641L8.66666 211.33L4.33332 211.33L4.33332 207.018L-1.26318e-05 207.018L-1.30087e-05 198.395L-1.31972e-05 194.084L-1.33856e-05 189.772L-1.3951e-05 176.838L4.33332 176.838L4.33332 172.527L8.66665 172.527L8.66665 168.215L17.3333 168.215L17.3333 176.838L13 176.838L13 181.15L8.66666 181.15L8.66666 185.461L8.66666 189.772L8.66666 194.084Z" fill="#FF7C06"/>
<path d="M8.66665 159.569L4.33332 159.569L-1.47058e-05 159.569L-1.48943e-05 155.258L-1.50828e-05 150.947L-1.56481e-05 138.012L-1.65904e-05 116.455L8.66665 116.455L8.66665 120.766L8.66665 125.078L8.66665 133.701L30.3333 133.701L52 133.701L52 142.324L30.3333 142.324L8.66665 142.324L8.66665 146.635L8.66665 159.569Z" fill="#FF7C06"/>
<path d="M8.66665 103.498L4.33332 103.498L-1.71568e-05 103.498L-1.73453e-05 99.1862L-1.75337e-05 94.8748L-1.80991e-05 81.9404L-1.92299e-05 56.0718L8.66665 56.0718L8.66665 60.3832L8.66665 64.6947L8.66665 73.3175L8.66665 77.629L8.66665 81.9404L8.66665 90.5633L8.66665 94.8748L21.6667 94.8748L21.6667 64.6947L30.3333 64.6947L30.3333 94.8748L43.3333 94.8748L43.3333 90.5633L43.3333 81.9404L43.3333 77.629L43.3333 73.3175L43.3333 64.6947L43.3333 60.3832L43.3333 56.0718L52 56.0718L52 81.9404L52 94.8748L52 99.1862L52 103.498L47.6667 103.498L43.3333 103.498L39 103.498L30.3333 103.498L26 103.498L21.6667 103.498L17.3333 103.498L13 103.498L8.66665 103.498Z" fill="#FF7C06"/>
<path d="M8.66665 47.4259L4.33332 47.4259L-1.96078e-05 47.4259L-1.97963e-05 43.1144L-1.99847e-05 38.803L-2.05501e-05 25.8686L-2.13039e-05 8.62289L4.33332 8.62289L4.33332 4.3114L8.66665 4.3114L8.66665 -3.78832e-07L17.3333 -7.57664e-07L21.6667 -9.47081e-07L26 -1.1365e-06L26 4.3114L30.3333 4.3114L30.3333 8.62289L34.6667 8.62289L39 8.62289L39 4.3114L43.3333 4.3114L43.3333 -1.89416e-06L47.6667 -2.08358e-06L52 -2.27299e-06L52 8.62289L47.6667 8.62289L47.6667 12.9343L43.3333 12.9343L43.3333 17.2458L39 17.2458L39 21.5572L34.6667 21.5572L34.6667 25.8686L34.6667 38.803L52 38.803L52 47.4259L34.6667 47.4259L30.3333 47.4259L26 47.4259L21.6667 47.4259L17.3333 47.4259L13 47.4259L8.66665 47.4259ZM8.66665 25.8686L8.66665 34.4915L8.66665 38.803L21.6667 38.803L26 38.803L26 34.4915L26 30.1801L26 25.8686L26 21.5572L26 17.2458L26 12.9343L21.6667 12.9343L21.6667 8.62289L17.3333 8.62289L13 8.62289L13 12.9343L8.66665 12.9343L8.66665 17.2458L8.66665 21.5572L8.66665 25.8686Z" fill="#FF7C06"/>
</g>
</svg>
