<svg width="387" height="45" viewBox="0 0 387 45" fill="none" xmlns="http://www.w3.org/2000/svg">
<mask id="path-1-outside-1_3101_1024" maskUnits="userSpaceOnUse" x="0.195312" y="0" width="387" height="45" fill="black">
<rect fill="white" x="0.195312" width="387" height="45"/>
<path d="M35.9524 15.7779V5.44449V2H43.454V5.44449V8.88897V36.4449V43.3338H35.9524V36.4449H32.2016V33.0004H28.4508V29.5559H24.7001V26.1114H20.9493V22.6669H17.1985V19.2224H13.4477V15.7779H9.69689V26.1114V43.3338H5.9461H2.19531V39.8893V36.4449V33.0004V26.1114V22.6669V19.2224V15.7779V12.3335V8.88897V5.44449V2H5.9461H9.69689V5.44449H13.4477V8.88897H17.1985V12.3335H20.9493V15.7779H24.7001V19.2224H28.4508V22.6669H32.2016V26.1114H35.9524V15.7779Z"/>
<path d="M50.9756 8.88897V5.44449V2H54.7264H58.4772H69.7295H92.2343V8.88897H88.4835H84.7327H77.2311H73.4803H69.7295H62.228H58.4772V19.2224H84.7327V26.1114H58.4772V43.3338H54.7264H50.9756V39.8893V36.4449V33.0004V26.1114V22.6669V19.2224V15.7779V12.3335V8.88897Z"/>
<path d="M99.7559 8.88897V5.44449V2H103.507H107.257H118.51H137.264V8.88897H133.513H129.762H122.261V26.1114V43.3338H114.759V26.1114V8.88897H111.008H99.7559Z"/>
<path d="M204.818 29.5559V33.0004H208.569V36.4449H212.32H216.07H219.821H223.572H227.323V33.0004H231.074V29.5559H227.323V26.1114H223.572H219.821H216.07H204.818V22.6669H201.067V19.2224H197.316V15.7779V12.3335V8.88897H201.067V5.44449H204.818V2H212.32H216.07H219.821H231.074V5.44449H234.824V8.88897H238.575V15.7779H231.074V12.3335H227.323V8.88897H223.572H219.821H216.07H212.32H208.569V12.3335H204.818V15.7779H208.569V19.2224H212.32H216.07H219.821H231.074V22.6669H234.824V26.1114H238.575V29.5559V33.0004V36.4449H234.824V39.8893H231.074V43.3338H219.821H216.07H204.818V39.8893H201.067V36.4449H197.316V29.5559H204.818Z"/>
<path d="M279.854 26.1114H253.598V43.3338H249.847H246.097V39.8893V36.4449V33.0004V26.1114V22.6669V19.2224V15.7779V12.3335V8.88897V5.44449V2H249.847H253.598V19.2224H279.854V2H287.355V8.88897V36.4449V43.3338H279.854V26.1114Z"/>
<path d="M313.631 8.88897H309.88H306.129V12.3335H302.379V15.7779V19.2224V26.1114V29.5559V33.0004H306.129V36.4449H309.88H313.631H317.382H321.133H324.883V33.0004H328.634V29.5559V26.1114V15.7779V12.3335H324.883V8.88897H321.133H317.382H313.631ZM336.136 26.1114V36.4449H332.385V39.8893H328.634V43.3338H317.382H313.631H302.379V39.8893H298.628V36.4449H294.877V29.5559V26.1114V22.6669V19.2224V8.88897H298.628V5.44449H302.379V2H309.88H313.631H317.382H328.634V5.44449H332.385V8.88897H336.136V15.7779V26.1114Z"/>
<path d="M343.657 8.88897V5.44449V2H347.408H351.159H362.411H377.414V5.44449H381.165V8.88897H384.916V15.7779V19.2224V22.6669H381.165V26.1114H377.414V29.5559H362.411H351.159V43.3338H343.657V29.5559V26.1114V22.6669V19.2224V15.7779V12.3335V8.88897ZM362.411 8.88897H354.91H351.159V19.2224V22.6669H354.91H362.411H366.162H369.913H373.664V19.2224H377.414V15.7779V12.3335H373.664V8.88897H369.913H366.162H362.411Z"/>
</mask>
<path d="M35.9524 15.7779V5.44449V2H43.454V5.44449V8.88897V36.4449V43.3338H35.9524V36.4449H32.2016V33.0004H28.4508V29.5559H24.7001V26.1114H20.9493V22.6669H17.1985V19.2224H13.4477V15.7779H9.69689V26.1114V43.3338H5.9461H2.19531V39.8893V36.4449V33.0004V26.1114V22.6669V19.2224V15.7779V12.3335V8.88897V5.44449V2H5.9461H9.69689V5.44449H13.4477V8.88897H17.1985V12.3335H20.9493V15.7779H24.7001V19.2224H28.4508V22.6669H32.2016V26.1114H35.9524V15.7779Z" fill="url(#paint0_linear_3101_1024)"/>
<path d="M50.9756 8.88897V5.44449V2H54.7264H58.4772H69.7295H92.2343V8.88897H88.4835H84.7327H77.2311H73.4803H69.7295H62.228H58.4772V19.2224H84.7327V26.1114H58.4772V43.3338H54.7264H50.9756V39.8893V36.4449V33.0004V26.1114V22.6669V19.2224V15.7779V12.3335V8.88897Z" fill="url(#paint1_linear_3101_1024)"/>
<path d="M99.7559 8.88897V5.44449V2H103.507H107.257H118.51H137.264V8.88897H133.513H129.762H122.261V26.1114V43.3338H114.759V26.1114V8.88897H111.008H99.7559Z" fill="url(#paint2_linear_3101_1024)"/>
<path d="M204.818 29.5559V33.0004H208.569V36.4449H212.32H216.07H219.821H223.572H227.323V33.0004H231.074V29.5559H227.323V26.1114H223.572H219.821H216.07H204.818V22.6669H201.067V19.2224H197.316V15.7779V12.3335V8.88897H201.067V5.44449H204.818V2H212.32H216.07H219.821H231.074V5.44449H234.824V8.88897H238.575V15.7779H231.074V12.3335H227.323V8.88897H223.572H219.821H216.07H212.32H208.569V12.3335H204.818V15.7779H208.569V19.2224H212.32H216.07H219.821H231.074V22.6669H234.824V26.1114H238.575V29.5559V33.0004V36.4449H234.824V39.8893H231.074V43.3338H219.821H216.07H204.818V39.8893H201.067V36.4449H197.316V29.5559H204.818Z" fill="url(#paint3_linear_3101_1024)"/>
<path d="M279.854 26.1114H253.598V43.3338H249.847H246.097V39.8893V36.4449V33.0004V26.1114V22.6669V19.2224V15.7779V12.3335V8.88897V5.44449V2H249.847H253.598V19.2224H279.854V2H287.355V8.88897V36.4449V43.3338H279.854V26.1114Z" fill="url(#paint4_linear_3101_1024)"/>
<path d="M313.631 8.88897H309.88H306.129V12.3335H302.379V15.7779V19.2224V26.1114V29.5559V33.0004H306.129V36.4449H309.88H313.631H317.382H321.133H324.883V33.0004H328.634V29.5559V26.1114V15.7779V12.3335H324.883V8.88897H321.133H317.382H313.631ZM336.136 26.1114V36.4449H332.385V39.8893H328.634V43.3338H317.382H313.631H302.379V39.8893H298.628V36.4449H294.877V29.5559V26.1114V22.6669V19.2224V8.88897H298.628V5.44449H302.379V2H309.88H313.631H317.382H328.634V5.44449H332.385V8.88897H336.136V15.7779V26.1114Z" fill="url(#paint5_linear_3101_1024)"/>
<path d="M343.657 8.88897V5.44449V2H347.408H351.159H362.411H377.414V5.44449H381.165V8.88897H384.916V15.7779V19.2224V22.6669H381.165V26.1114H377.414V29.5559H362.411H351.159V43.3338H343.657V29.5559V26.1114V22.6669V19.2224V15.7779V12.3335V8.88897ZM362.411 8.88897H354.91H351.159V19.2224V22.6669H354.91H362.411H366.162H369.913H373.664V19.2224H377.414V15.7779V12.3335H373.664V8.88897H369.913H366.162H362.411Z" fill="url(#paint6_linear_3101_1024)"/>
<path d="M35.9524 2V0.469118H34.4215V2H35.9524ZM43.454 2H44.9849V0.469118H43.454V2ZM43.454 43.3338V44.8647H44.9849V43.3338H43.454ZM35.9524 43.3338H34.4215V44.8647H35.9524V43.3338ZM35.9524 36.4449H37.4833V34.914H35.9524V36.4449ZM32.2016 36.4449H30.6708V37.9757H32.2016V36.4449ZM32.2016 33.0004H33.7325V31.4695H32.2016V33.0004ZM28.4508 33.0004H26.92V34.5312H28.4508V33.0004ZM28.4508 29.5559H29.9817V28.025H28.4508V29.5559ZM24.7001 29.5559H23.1692V31.0868H24.7001V29.5559ZM24.7001 26.1114H26.2309V24.5805H24.7001V26.1114ZM20.9493 26.1114H19.4184V27.6423H20.9493V26.1114ZM20.9493 22.6669H22.4801V21.136H20.9493V22.6669ZM17.1985 22.6669H15.6676V24.1978H17.1985V22.6669ZM17.1985 19.2224H18.7294V17.6915H17.1985V19.2224ZM13.4477 19.2224H11.9168V20.7533H13.4477V19.2224ZM13.4477 15.7779H14.9786V14.2471H13.4477V15.7779ZM9.69689 15.7779V14.2471H8.16601V15.7779H9.69689ZM9.69689 43.3338V44.8647H11.2278V43.3338H9.69689ZM2.19531 43.3338H0.66443V44.8647H2.19531V43.3338ZM2.19531 2V0.469118H0.66443V2H2.19531ZM9.69689 2H11.2278V0.469118H9.69689V2ZM9.69689 5.44449H8.16601V6.97537H9.69689V5.44449ZM13.4477 5.44449H14.9786V3.9136H13.4477V5.44449ZM13.4477 8.88897H11.9168V10.4199H13.4477V8.88897ZM17.1985 8.88897H18.7294V7.35809H17.1985V8.88897ZM17.1985 12.3335H15.6676V13.8643H17.1985V12.3335ZM20.9493 12.3335H22.4801V10.8026H20.9493V12.3335ZM20.9493 15.7779H19.4184V17.3088H20.9493V15.7779ZM24.7001 15.7779H26.2309V14.2471H24.7001V15.7779ZM24.7001 19.2224H23.1692V20.7533H24.7001V19.2224ZM28.4508 19.2224H29.9817V17.6915H28.4508V19.2224ZM28.4508 22.6669H26.92V24.1978H28.4508V22.6669ZM32.2016 22.6669H33.7325V21.136H32.2016V22.6669ZM32.2016 26.1114H30.6708V27.6423H32.2016V26.1114ZM35.9524 26.1114V27.6423H37.4833V26.1114H35.9524ZM50.9756 2V0.469118H49.4447V2H50.9756ZM92.2343 2H93.7652V0.469118H92.2343V2ZM92.2343 8.88897V10.4199H93.7652V8.88897H92.2343ZM58.4772 8.88897V7.35809H56.9463V8.88897H58.4772ZM58.4772 19.2224H56.9463V20.7533H58.4772V19.2224ZM84.7327 19.2224H86.2636V17.6915H84.7327V19.2224ZM84.7327 26.1114V27.6423H86.2636V26.1114H84.7327ZM58.4772 26.1114V24.5805H56.9463V26.1114H58.4772ZM58.4772 43.3338V44.8647H60.008V43.3338H58.4772ZM50.9756 43.3338H49.4447V44.8647H50.9756V43.3338ZM99.7559 8.88897H98.225V10.4199H99.7559V8.88897ZM99.7559 2V0.469118H98.225V2H99.7559ZM137.264 2H138.795V0.469118H137.264V2ZM137.264 8.88897V10.4199H138.795V8.88897H137.264ZM122.261 8.88897V7.35809H120.73V8.88897H122.261ZM122.261 43.3338V44.8647H123.791V43.3338H122.261ZM114.759 43.3338H113.228V44.8647H114.759V43.3338ZM114.759 8.88897H116.29V7.35809H114.759V8.88897ZM204.818 29.5559H206.349V28.025H204.818V29.5559ZM204.818 33.0004H203.287V34.5312H204.818V33.0004ZM208.569 33.0004H210.1V31.4695H208.569V33.0004ZM208.569 36.4449H207.038V37.9757H208.569V36.4449ZM227.323 36.4449V37.9757H228.854V36.4449H227.323ZM227.323 33.0004V31.4695H225.792V33.0004H227.323ZM231.074 33.0004V34.5312H232.604V33.0004H231.074ZM231.074 29.5559H232.604V28.025H231.074V29.5559ZM227.323 29.5559H225.792V31.0868H227.323V29.5559ZM227.323 26.1114H228.854V24.5805H227.323V26.1114ZM204.818 26.1114H203.287V27.6423H204.818V26.1114ZM204.818 22.6669H206.349V21.136H204.818V22.6669ZM201.067 22.6669H199.536V24.1978H201.067V22.6669ZM201.067 19.2224H202.598V17.6915H201.067V19.2224ZM197.316 19.2224H195.786V20.7533H197.316V19.2224ZM197.316 8.88897V7.35809H195.786V8.88897H197.316ZM201.067 8.88897V10.4199H202.598V8.88897H201.067ZM201.067 5.44449V3.9136H199.536V5.44449H201.067ZM204.818 5.44449V6.97537H206.349V5.44449H204.818ZM204.818 2V0.469118H203.287V2H204.818ZM231.074 2H232.604V0.469118H231.074V2ZM231.074 5.44449H229.543V6.97537H231.074V5.44449ZM234.824 5.44449H236.355V3.9136H234.824V5.44449ZM234.824 8.88897H233.293V10.4199H234.824V8.88897ZM238.575 8.88897H240.106V7.35809H238.575V8.88897ZM238.575 15.7779V17.3088H240.106V15.7779H238.575ZM231.074 15.7779H229.543V17.3088H231.074V15.7779ZM231.074 12.3335H232.604V10.8026H231.074V12.3335ZM227.323 12.3335H225.792V13.8643H227.323V12.3335ZM227.323 8.88897H228.854V7.35809H227.323V8.88897ZM208.569 8.88897V7.35809H207.038V8.88897H208.569ZM208.569 12.3335V13.8643H210.1V12.3335H208.569ZM204.818 12.3335V10.8026H203.287V12.3335H204.818ZM204.818 15.7779H203.287V17.3088H204.818V15.7779ZM208.569 15.7779H210.1V14.2471H208.569V15.7779ZM208.569 19.2224H207.038V20.7533H208.569V19.2224ZM231.074 19.2224H232.604V17.6915H231.074V19.2224ZM231.074 22.6669H229.543V24.1978H231.074V22.6669ZM234.824 22.6669H236.355V21.136H234.824V22.6669ZM234.824 26.1114H233.293V27.6423H234.824V26.1114ZM238.575 26.1114H240.106V24.5805H238.575V26.1114ZM238.575 36.4449V37.9757H240.106V36.4449H238.575ZM234.824 36.4449V34.914H233.293V36.4449H234.824ZM234.824 39.8893V41.4202H236.355V39.8893H234.824ZM231.074 39.8893V38.3585H229.543V39.8893H231.074ZM231.074 43.3338V44.8647H232.604V43.3338H231.074ZM204.818 43.3338H203.287V44.8647H204.818V43.3338ZM204.818 39.8893H206.349V38.3585H204.818V39.8893ZM201.067 39.8893H199.536V41.4202H201.067V39.8893ZM201.067 36.4449H202.598V34.914H201.067V36.4449ZM197.316 36.4449H195.786V37.9757H197.316V36.4449ZM197.316 29.5559V28.025H195.786V29.5559H197.316ZM279.854 26.1114H281.385V24.5805H279.854V26.1114ZM253.598 26.1114V24.5805H252.067V26.1114H253.598ZM253.598 43.3338V44.8647H255.129V43.3338H253.598ZM246.097 43.3338H244.566V44.8647H246.097V43.3338ZM246.097 2V0.469118H244.566V2H246.097ZM253.598 2H255.129V0.469118H253.598V2ZM253.598 19.2224H252.067V20.7533H253.598V19.2224ZM279.854 19.2224V20.7533H281.385V19.2224H279.854ZM279.854 2V0.469118H278.323V2H279.854ZM287.355 2H288.886V0.469118H287.355V2ZM287.355 43.3338V44.8647H288.886V43.3338H287.355ZM279.854 43.3338H278.323V44.8647H279.854V43.3338ZM306.129 8.88897V7.35809H304.598V8.88897H306.129ZM306.129 12.3335V13.8643H307.66V12.3335H306.129ZM302.379 12.3335V10.8026H300.848V12.3335H302.379ZM302.379 33.0004H300.848V34.5312H302.379V33.0004ZM306.129 33.0004H307.66V31.4695H306.129V33.0004ZM306.129 36.4449H304.598V37.9757H306.129V36.4449ZM324.883 36.4449V37.9757H326.414V36.4449H324.883ZM324.883 33.0004V31.4695H323.352V33.0004H324.883ZM328.634 33.0004V34.5312H330.165V33.0004H328.634ZM328.634 12.3335H330.165V10.8026H328.634V12.3335ZM324.883 12.3335H323.352V13.8643H324.883V12.3335ZM324.883 8.88897H326.414V7.35809H324.883V8.88897ZM336.136 36.4449V37.9757H337.667V36.4449H336.136ZM332.385 36.4449V34.914H330.854V36.4449H332.385ZM332.385 39.8893V41.4202H333.916V39.8893H332.385ZM328.634 39.8893V38.3585H327.103V39.8893H328.634ZM328.634 43.3338V44.8647H330.165V43.3338H328.634ZM302.379 43.3338H300.848V44.8647H302.379V43.3338ZM302.379 39.8893H303.909V38.3585H302.379V39.8893ZM298.628 39.8893H297.097V41.4202H298.628V39.8893ZM298.628 36.4449H300.159V34.914H298.628V36.4449ZM294.877 36.4449H293.346V37.9757H294.877V36.4449ZM294.877 8.88897V7.35809H293.346V8.88897H294.877ZM298.628 8.88897V10.4199H300.159V8.88897H298.628ZM298.628 5.44449V3.9136H297.097V5.44449H298.628ZM302.379 5.44449V6.97537H303.909V5.44449H302.379ZM302.379 2V0.469118H300.848V2H302.379ZM328.634 2H330.165V0.469118H328.634V2ZM328.634 5.44449H327.103V6.97537H328.634V5.44449ZM332.385 5.44449H333.916V3.9136H332.385V5.44449ZM332.385 8.88897H330.854V10.4199H332.385V8.88897ZM336.136 8.88897H337.667V7.35809H336.136V8.88897ZM343.657 2V0.469118H342.126V2H343.657ZM377.414 2H378.945V0.469118H377.414V2ZM377.414 5.44449H375.883V6.97537H377.414V5.44449ZM381.165 5.44449H382.696V3.9136H381.165V5.44449ZM381.165 8.88897H379.634V10.4199H381.165V8.88897ZM384.916 8.88897H386.447V7.35809H384.916V8.88897ZM384.916 22.6669V24.1978H386.447V22.6669H384.916ZM381.165 22.6669V21.136H379.634V22.6669H381.165ZM381.165 26.1114V27.6423H382.696V26.1114H381.165ZM377.414 26.1114V24.5805H375.883V26.1114H377.414ZM377.414 29.5559V31.0868H378.945V29.5559H377.414ZM351.159 29.5559V28.025H349.628V29.5559H351.159ZM351.159 43.3338V44.8647H352.69V43.3338H351.159ZM343.657 43.3338H342.126V44.8647H343.657V43.3338ZM351.159 8.88897V7.35809H349.628V8.88897H351.159ZM351.159 22.6669H349.628V24.1978H351.159V22.6669ZM373.664 22.6669V24.1978H375.194V22.6669H373.664ZM373.664 19.2224V17.6915H372.133V19.2224H373.664ZM377.414 19.2224V20.7533H378.945V19.2224H377.414ZM377.414 12.3335H378.945V10.8026H377.414V12.3335ZM373.664 12.3335H372.133V13.8643H373.664V12.3335ZM373.664 8.88897H375.194V7.35809H373.664V8.88897ZM37.4833 15.7779V5.44449H34.4215V15.7779H37.4833ZM37.4833 5.44449V2H34.4215V5.44449H37.4833ZM35.9524 3.53088H43.454V0.469118H35.9524V3.53088ZM41.9231 2V5.44449H44.9849V2H41.9231ZM41.9231 5.44449V8.88897H44.9849V5.44449H41.9231ZM41.9231 8.88897V36.4449H44.9849V8.88897H41.9231ZM41.9231 36.4449V43.3338H44.9849V36.4449H41.9231ZM43.454 41.8029H35.9524V44.8647H43.454V41.8029ZM37.4833 43.3338V36.4449H34.4215V43.3338H37.4833ZM35.9524 34.914H32.2016V37.9757H35.9524V34.914ZM33.7325 36.4449V33.0004H30.6708V36.4449H33.7325ZM32.2016 31.4695H28.4508V34.5312H32.2016V31.4695ZM29.9817 33.0004V29.5559H26.92V33.0004H29.9817ZM28.4508 28.025H24.7001V31.0868H28.4508V28.025ZM26.2309 29.5559V26.1114H23.1692V29.5559H26.2309ZM24.7001 24.5805H20.9493V27.6423H24.7001V24.5805ZM22.4801 26.1114V22.6669H19.4184V26.1114H22.4801ZM20.9493 21.136H17.1985V24.1978H20.9493V21.136ZM18.7294 22.6669V19.2224H15.6676V22.6669H18.7294ZM17.1985 17.6915H13.4477V20.7533H17.1985V17.6915ZM14.9786 19.2224V15.7779H11.9168V19.2224H14.9786ZM13.4477 14.2471H9.69689V17.3088H13.4477V14.2471ZM8.16601 15.7779V26.1114H11.2278V15.7779H8.16601ZM8.16601 26.1114V43.3338H11.2278V26.1114H8.16601ZM9.69689 41.8029H5.9461V44.8647H9.69689V41.8029ZM5.9461 41.8029H2.19531V44.8647H5.9461V41.8029ZM3.72619 43.3338V39.8893H0.66443V43.3338H3.72619ZM3.72619 39.8893V36.4449H0.66443V39.8893H3.72619ZM3.72619 36.4449V33.0004H0.66443V36.4449H3.72619ZM3.72619 33.0004V26.1114H0.66443V33.0004H3.72619ZM3.72619 26.1114V22.6669H0.66443V26.1114H3.72619ZM3.72619 22.6669V19.2224H0.66443V22.6669H3.72619ZM3.72619 19.2224V15.7779H0.66443V19.2224H3.72619ZM3.72619 15.7779V12.3335H0.66443V15.7779H3.72619ZM3.72619 12.3335V8.88897H0.66443V12.3335H3.72619ZM3.72619 8.88897V5.44449H0.66443V8.88897H3.72619ZM3.72619 5.44449V2H0.66443V5.44449H3.72619ZM2.19531 3.53088H5.9461V0.469118H2.19531V3.53088ZM5.9461 3.53088H9.69689V0.469118H5.9461V3.53088ZM8.16601 2V5.44449H11.2278V2H8.16601ZM9.69689 6.97537H13.4477V3.9136H9.69689V6.97537ZM11.9168 5.44449V8.88897H14.9786V5.44449H11.9168ZM13.4477 10.4199H17.1985V7.35809H13.4477V10.4199ZM15.6676 8.88897V12.3335H18.7294V8.88897H15.6676ZM17.1985 13.8643H20.9493V10.8026H17.1985V13.8643ZM19.4184 12.3335V15.7779H22.4801V12.3335H19.4184ZM20.9493 17.3088H24.7001V14.2471H20.9493V17.3088ZM23.1692 15.7779V19.2224H26.2309V15.7779H23.1692ZM24.7001 20.7533H28.4508V17.6915H24.7001V20.7533ZM26.92 19.2224V22.6669H29.9817V19.2224H26.92ZM28.4508 24.1978H32.2016V21.136H28.4508V24.1978ZM30.6708 22.6669V26.1114H33.7325V22.6669H30.6708ZM32.2016 27.6423H35.9524V24.5805H32.2016V27.6423ZM37.4833 26.1114V15.7779H34.4215V26.1114H37.4833ZM52.5065 8.88897V5.44449H49.4447V8.88897H52.5065ZM52.5065 5.44449V2H49.4447V5.44449H52.5065ZM50.9756 3.53088H54.7264V0.469118H50.9756V3.53088ZM54.7264 3.53088H58.4772V0.469118H54.7264V3.53088ZM58.4772 3.53088H69.7295V0.469118H58.4772V3.53088ZM69.7295 3.53088H92.2343V0.469118H69.7295V3.53088ZM90.7034 2V8.88897H93.7652V2H90.7034ZM92.2343 7.35809H88.4835V10.4199H92.2343V7.35809ZM88.4835 7.35809H84.7327V10.4199H88.4835V7.35809ZM84.7327 7.35809H77.2311V10.4199H84.7327V7.35809ZM77.2311 7.35809H73.4803V10.4199H77.2311V7.35809ZM73.4803 7.35809H69.7295V10.4199H73.4803V7.35809ZM69.7295 7.35809H62.228V10.4199H69.7295V7.35809ZM62.228 7.35809H58.4772V10.4199H62.228V7.35809ZM56.9463 8.88897V19.2224H60.008V8.88897H56.9463ZM58.4772 20.7533H84.7327V17.6915H58.4772V20.7533ZM83.2018 19.2224V26.1114H86.2636V19.2224H83.2018ZM84.7327 24.5805H58.4772V27.6423H84.7327V24.5805ZM56.9463 26.1114V43.3338H60.008V26.1114H56.9463ZM58.4772 41.8029H54.7264V44.8647H58.4772V41.8029ZM54.7264 41.8029H50.9756V44.8647H54.7264V41.8029ZM52.5065 43.3338V39.8893H49.4447V43.3338H52.5065ZM52.5065 39.8893V36.4449H49.4447V39.8893H52.5065ZM52.5065 36.4449V33.0004H49.4447V36.4449H52.5065ZM52.5065 33.0004V26.1114H49.4447V33.0004H52.5065ZM52.5065 26.1114V22.6669H49.4447V26.1114H52.5065ZM52.5065 22.6669V19.2224H49.4447V22.6669H52.5065ZM52.5065 19.2224V15.7779H49.4447V19.2224H52.5065ZM52.5065 15.7779V12.3335H49.4447V15.7779H52.5065ZM52.5065 12.3335V8.88897H49.4447V12.3335H52.5065ZM101.287 8.88897V5.44449H98.225V8.88897H101.287ZM101.287 5.44449V2H98.225V5.44449H101.287ZM99.7559 3.53088H103.507V0.469118H99.7559V3.53088ZM103.507 3.53088H107.257V0.469118H103.507V3.53088ZM107.257 3.53088H118.51V0.469118H107.257V3.53088ZM118.51 3.53088H137.264V0.469118H118.51V3.53088ZM135.733 2V8.88897H138.795V2H135.733ZM137.264 7.35809H133.513V10.4199H137.264V7.35809ZM133.513 7.35809H129.762V10.4199H133.513V7.35809ZM129.762 7.35809H122.261V10.4199H129.762V7.35809ZM120.73 8.88897V26.1114H123.791V8.88897H120.73ZM120.73 26.1114V43.3338H123.791V26.1114H120.73ZM122.261 41.8029H114.759V44.8647H122.261V41.8029ZM116.29 43.3338V26.1114H113.228V43.3338H116.29ZM116.29 26.1114V8.88897H113.228V26.1114H116.29ZM114.759 7.35809H111.008V10.4199H114.759V7.35809ZM111.008 7.35809H99.7559V10.4199H111.008V7.35809ZM203.287 29.5559V33.0004H206.349V29.5559H203.287ZM204.818 34.5312H208.569V31.4695H204.818V34.5312ZM207.038 33.0004V36.4449H210.1V33.0004H207.038ZM208.569 37.9757H212.32V34.914H208.569V37.9757ZM212.32 37.9757H216.07V34.914H212.32V37.9757ZM216.07 37.9757H219.821V34.914H216.07V37.9757ZM219.821 37.9757H223.572V34.914H219.821V37.9757ZM223.572 37.9757H227.323V34.914H223.572V37.9757ZM228.854 36.4449V33.0004H225.792V36.4449H228.854ZM227.323 34.5312H231.074V31.4695H227.323V34.5312ZM232.604 33.0004V29.5559H229.543V33.0004H232.604ZM231.074 28.025H227.323V31.0868H231.074V28.025ZM228.854 29.5559V26.1114H225.792V29.5559H228.854ZM227.323 24.5805H223.572V27.6423H227.323V24.5805ZM223.572 24.5805H219.821V27.6423H223.572V24.5805ZM219.821 24.5805H216.07V27.6423H219.821V24.5805ZM216.07 24.5805H204.818V27.6423H216.07V24.5805ZM206.349 26.1114V22.6669H203.287V26.1114H206.349ZM204.818 21.136H201.067V24.1978H204.818V21.136ZM202.598 22.6669V19.2224H199.536V22.6669H202.598ZM201.067 17.6915H197.316V20.7533H201.067V17.6915ZM198.847 19.2224V15.7779H195.786V19.2224H198.847ZM198.847 15.7779V12.3335H195.786V15.7779H198.847ZM198.847 12.3335V8.88897H195.786V12.3335H198.847ZM197.316 10.4199H201.067V7.35809H197.316V10.4199ZM202.598 8.88897V5.44449H199.536V8.88897H202.598ZM201.067 6.97537H204.818V3.9136H201.067V6.97537ZM206.349 5.44449V2H203.287V5.44449H206.349ZM204.818 3.53088H212.32V0.469118H204.818V3.53088ZM212.32 3.53088H216.07V0.469118H212.32V3.53088ZM216.07 3.53088H219.821V0.469118H216.07V3.53088ZM219.821 3.53088H231.074V0.469118H219.821V3.53088ZM229.543 2V5.44449H232.604V2H229.543ZM231.074 6.97537H234.824V3.9136H231.074V6.97537ZM233.293 5.44449V8.88897H236.355V5.44449H233.293ZM234.824 10.4199H238.575V7.35809H234.824V10.4199ZM237.044 8.88897V15.7779H240.106V8.88897H237.044ZM238.575 14.2471H231.074V17.3088H238.575V14.2471ZM232.604 15.7779V12.3335H229.543V15.7779H232.604ZM231.074 10.8026H227.323V13.8643H231.074V10.8026ZM228.854 12.3335V8.88897H225.792V12.3335H228.854ZM227.323 7.35809H223.572V10.4199H227.323V7.35809ZM223.572 7.35809H219.821V10.4199H223.572V7.35809ZM219.821 7.35809H216.07V10.4199H219.821V7.35809ZM216.07 7.35809H212.32V10.4199H216.07V7.35809ZM212.32 7.35809H208.569V10.4199H212.32V7.35809ZM207.038 8.88897V12.3335H210.1V8.88897H207.038ZM208.569 10.8026H204.818V13.8643H208.569V10.8026ZM203.287 12.3335V15.7779H206.349V12.3335H203.287ZM204.818 17.3088H208.569V14.2471H204.818V17.3088ZM207.038 15.7779V19.2224H210.1V15.7779H207.038ZM208.569 20.7533H212.32V17.6915H208.569V20.7533ZM212.32 20.7533H216.07V17.6915H212.32V20.7533ZM216.07 20.7533H219.821V17.6915H216.07V20.7533ZM219.821 20.7533H231.074V17.6915H219.821V20.7533ZM229.543 19.2224V22.6669H232.604V19.2224H229.543ZM231.074 24.1978H234.824V21.136H231.074V24.1978ZM233.293 22.6669V26.1114H236.355V22.6669H233.293ZM234.824 27.6423H238.575V24.5805H234.824V27.6423ZM237.044 26.1114V29.5559H240.106V26.1114H237.044ZM237.044 29.5559V33.0004H240.106V29.5559H237.044ZM237.044 33.0004V36.4449H240.106V33.0004H237.044ZM238.575 34.914H234.824V37.9757H238.575V34.914ZM233.293 36.4449V39.8893H236.355V36.4449H233.293ZM234.824 38.3585H231.074V41.4202H234.824V38.3585ZM229.543 39.8893V43.3338H232.604V39.8893H229.543ZM231.074 41.8029H219.821V44.8647H231.074V41.8029ZM219.821 41.8029H216.07V44.8647H219.821V41.8029ZM216.07 41.8029H204.818V44.8647H216.07V41.8029ZM206.349 43.3338V39.8893H203.287V43.3338H206.349ZM204.818 38.3585H201.067V41.4202H204.818V38.3585ZM202.598 39.8893V36.4449H199.536V39.8893H202.598ZM201.067 34.914H197.316V37.9757H201.067V34.914ZM198.847 36.4449V29.5559H195.786V36.4449H198.847ZM197.316 31.0868H204.818V28.025H197.316V31.0868ZM279.854 24.5805H253.598V27.6423H279.854V24.5805ZM252.067 26.1114V43.3338H255.129V26.1114H252.067ZM253.598 41.8029H249.847V44.8647H253.598V41.8029ZM249.847 41.8029H246.097V44.8647H249.847V41.8029ZM247.628 43.3338V39.8893H244.566V43.3338H247.628ZM247.628 39.8893V36.4449H244.566V39.8893H247.628ZM247.628 36.4449V33.0004H244.566V36.4449H247.628ZM247.628 33.0004V26.1114H244.566V33.0004H247.628ZM247.628 26.1114V22.6669H244.566V26.1114H247.628ZM247.628 22.6669V19.2224H244.566V22.6669H247.628ZM247.628 19.2224V15.7779H244.566V19.2224H247.628ZM247.628 15.7779V12.3335H244.566V15.7779H247.628ZM247.628 12.3335V8.88897H244.566V12.3335H247.628ZM247.628 8.88897V5.44449H244.566V8.88897H247.628ZM247.628 5.44449V2H244.566V5.44449H247.628ZM246.097 3.53088H249.847V0.469118H246.097V3.53088ZM249.847 3.53088H253.598V0.469118H249.847V3.53088ZM252.067 2V19.2224H255.129V2H252.067ZM253.598 20.7533H279.854V17.6915H253.598V20.7533ZM281.385 19.2224V2H278.323V19.2224H281.385ZM279.854 3.53088H287.355V0.469118H279.854V3.53088ZM285.824 2V8.88897H288.886V2H285.824ZM285.824 8.88897V36.4449H288.886V8.88897H285.824ZM285.824 36.4449V43.3338H288.886V36.4449H285.824ZM287.355 41.8029H279.854V44.8647H287.355V41.8029ZM281.385 43.3338V26.1114H278.323V43.3338H281.385ZM313.631 7.35809H309.88V10.4199H313.631V7.35809ZM309.88 7.35809H306.129V10.4199H309.88V7.35809ZM304.598 8.88897V12.3335H307.66V8.88897H304.598ZM306.129 10.8026H302.379V13.8643H306.129V10.8026ZM300.848 12.3335V15.7779H303.909V12.3335H300.848ZM300.848 15.7779V19.2224H303.909V15.7779H300.848ZM300.848 19.2224V26.1114H303.909V19.2224H300.848ZM300.848 26.1114V29.5559H303.909V26.1114H300.848ZM300.848 29.5559V33.0004H303.909V29.5559H300.848ZM302.379 34.5312H306.129V31.4695H302.379V34.5312ZM304.598 33.0004V36.4449H307.66V33.0004H304.598ZM306.129 37.9757H309.88V34.914H306.129V37.9757ZM309.88 37.9757H313.631V34.914H309.88V37.9757ZM313.631 37.9757H317.382V34.914H313.631V37.9757ZM317.382 37.9757H321.133V34.914H317.382V37.9757ZM321.133 37.9757H324.883V34.914H321.133V37.9757ZM326.414 36.4449V33.0004H323.352V36.4449H326.414ZM324.883 34.5312H328.634V31.4695H324.883V34.5312ZM330.165 33.0004V29.5559H327.103V33.0004H330.165ZM330.165 29.5559V26.1114H327.103V29.5559H330.165ZM330.165 26.1114V15.7779H327.103V26.1114H330.165ZM330.165 15.7779V12.3335H327.103V15.7779H330.165ZM328.634 10.8026H324.883V13.8643H328.634V10.8026ZM326.414 12.3335V8.88897H323.352V12.3335H326.414ZM324.883 7.35809H321.133V10.4199H324.883V7.35809ZM321.133 7.35809H317.382V10.4199H321.133V7.35809ZM317.382 7.35809H313.631V10.4199H317.382V7.35809ZM334.605 26.1114V36.4449H337.667V26.1114H334.605ZM336.136 34.914H332.385V37.9757H336.136V34.914ZM330.854 36.4449V39.8893H333.916V36.4449H330.854ZM332.385 38.3585H328.634V41.4202H332.385V38.3585ZM327.103 39.8893V43.3338H330.165V39.8893H327.103ZM328.634 41.8029H317.382V44.8647H328.634V41.8029ZM317.382 41.8029H313.631V44.8647H317.382V41.8029ZM313.631 41.8029H302.379V44.8647H313.631V41.8029ZM303.909 43.3338V39.8893H300.848V43.3338H303.909ZM302.379 38.3585H298.628V41.4202H302.379V38.3585ZM300.159 39.8893V36.4449H297.097V39.8893H300.159ZM298.628 34.914H294.877V37.9757H298.628V34.914ZM296.408 36.4449V29.5559H293.346V36.4449H296.408ZM296.408 29.5559V26.1114H293.346V29.5559H296.408ZM296.408 26.1114V22.6669H293.346V26.1114H296.408ZM296.408 22.6669V19.2224H293.346V22.6669H296.408ZM296.408 19.2224V8.88897H293.346V19.2224H296.408ZM294.877 10.4199H298.628V7.35809H294.877V10.4199ZM300.159 8.88897V5.44449H297.097V8.88897H300.159ZM298.628 6.97537H302.379V3.9136H298.628V6.97537ZM303.909 5.44449V2H300.848V5.44449H303.909ZM302.379 3.53088H309.88V0.469118H302.379V3.53088ZM309.88 3.53088H313.631V0.469118H309.88V3.53088ZM313.631 3.53088H317.382V0.469118H313.631V3.53088ZM317.382 3.53088H328.634V0.469118H317.382V3.53088ZM327.103 2V5.44449H330.165V2H327.103ZM328.634 6.97537H332.385V3.9136H328.634V6.97537ZM330.854 5.44449V8.88897H333.916V5.44449H330.854ZM332.385 10.4199H336.136V7.35809H332.385V10.4199ZM334.605 8.88897V15.7779H337.667V8.88897H334.605ZM334.605 15.7779V26.1114H337.667V15.7779H334.605ZM345.188 8.88897V5.44449H342.126V8.88897H345.188ZM345.188 5.44449V2H342.126V5.44449H345.188ZM343.657 3.53088H347.408V0.469118H343.657V3.53088ZM347.408 3.53088H351.159V0.469118H347.408V3.53088ZM351.159 3.53088H362.411V0.469118H351.159V3.53088ZM362.411 3.53088H377.414V0.469118H362.411V3.53088ZM375.883 2V5.44449H378.945V2H375.883ZM377.414 6.97537H381.165V3.9136H377.414V6.97537ZM379.634 5.44449V8.88897H382.696V5.44449H379.634ZM381.165 10.4199H384.916V7.35809H381.165V10.4199ZM383.385 8.88897V15.7779H386.447V8.88897H383.385ZM383.385 15.7779V19.2224H386.447V15.7779H383.385ZM383.385 19.2224V22.6669H386.447V19.2224H383.385ZM384.916 21.136H381.165V24.1978H384.916V21.136ZM379.634 22.6669V26.1114H382.696V22.6669H379.634ZM381.165 24.5805H377.414V27.6423H381.165V24.5805ZM375.883 26.1114V29.5559H378.945V26.1114H375.883ZM377.414 28.025H362.411V31.0868H377.414V28.025ZM362.411 28.025H351.159V31.0868H362.411V28.025ZM349.628 29.5559V43.3338H352.69V29.5559H349.628ZM351.159 41.8029H343.657V44.8647H351.159V41.8029ZM345.188 43.3338V29.5559H342.126V43.3338H345.188ZM345.188 29.5559V26.1114H342.126V29.5559H345.188ZM345.188 26.1114V22.6669H342.126V26.1114H345.188ZM345.188 22.6669V19.2224H342.126V22.6669H345.188ZM345.188 19.2224V15.7779H342.126V19.2224H345.188ZM345.188 15.7779V12.3335H342.126V15.7779H345.188ZM345.188 12.3335V8.88897H342.126V12.3335H345.188ZM362.411 7.35809H354.91V10.4199H362.411V7.35809ZM354.91 7.35809H351.159V10.4199H354.91V7.35809ZM349.628 8.88897V19.2224H352.69V8.88897H349.628ZM349.628 19.2224V22.6669H352.69V19.2224H349.628ZM351.159 24.1978H354.91V21.136H351.159V24.1978ZM354.91 24.1978H362.411V21.136H354.91V24.1978ZM362.411 24.1978H366.162V21.136H362.411V24.1978ZM366.162 24.1978H369.913V21.136H366.162V24.1978ZM369.913 24.1978H373.664V21.136H369.913V24.1978ZM375.194 22.6669V19.2224H372.133V22.6669H375.194ZM373.664 20.7533H377.414V17.6915H373.664V20.7533ZM378.945 19.2224V15.7779H375.883V19.2224H378.945ZM378.945 15.7779V12.3335H375.883V15.7779H378.945ZM377.414 10.8026H373.664V13.8643H377.414V10.8026ZM375.194 12.3335V8.88897H372.133V12.3335H375.194ZM373.664 7.35809H369.913V10.4199H373.664V7.35809ZM369.913 7.35809H366.162V10.4199H369.913V7.35809ZM366.162 7.35809H362.411V10.4199H366.162V7.35809Z" fill="url(#paint7_linear_3101_1024)" mask="url(#path-1-outside-1_3101_1024)"/>
<defs>
<linearGradient id="paint0_linear_3101_1024" x1="193.556" y1="2" x2="193.556" y2="43.3338" gradientUnits="userSpaceOnUse">
<stop stop-color="#FF7C06"/>
<stop offset="1" stop-color="#E45C00"/>
</linearGradient>
<linearGradient id="paint1_linear_3101_1024" x1="193.556" y1="2" x2="193.556" y2="43.3338" gradientUnits="userSpaceOnUse">
<stop stop-color="#FF7C06"/>
<stop offset="1" stop-color="#E45C00"/>
</linearGradient>
<linearGradient id="paint2_linear_3101_1024" x1="193.556" y1="2" x2="193.556" y2="43.3338" gradientUnits="userSpaceOnUse">
<stop stop-color="#FF7C06"/>
<stop offset="1" stop-color="#E45C00"/>
</linearGradient>
<linearGradient id="paint3_linear_3101_1024" x1="193.556" y1="2" x2="193.556" y2="43.3338" gradientUnits="userSpaceOnUse">
<stop stop-color="#FF7C06"/>
<stop offset="1" stop-color="#E45C00"/>
</linearGradient>
<linearGradient id="paint4_linear_3101_1024" x1="193.556" y1="2" x2="193.556" y2="43.3338" gradientUnits="userSpaceOnUse">
<stop stop-color="#FF7C06"/>
<stop offset="1" stop-color="#E45C00"/>
</linearGradient>
<linearGradient id="paint5_linear_3101_1024" x1="193.556" y1="2" x2="193.556" y2="43.3338" gradientUnits="userSpaceOnUse">
<stop stop-color="#FF7C06"/>
<stop offset="1" stop-color="#E45C00"/>
</linearGradient>
<linearGradient id="paint6_linear_3101_1024" x1="193.556" y1="2" x2="193.556" y2="43.3338" gradientUnits="userSpaceOnUse">
<stop stop-color="#FF7C06"/>
<stop offset="1" stop-color="#E45C00"/>
</linearGradient>
<linearGradient id="paint7_linear_3101_1024" x1="193.556" y1="2" x2="193.556" y2="43.3338" gradientUnits="userSpaceOnUse">
<stop stop-color="#FF7C06"/>
<stop offset="1" stop-color="#E45C00"/>
</linearGradient>
</defs>
</svg>
