<svg width="178" height="60" viewBox="0 0 178 60" fill="none" xmlns="http://www.w3.org/2000/svg">
<rect x="2" y="17" width="174" height="37" fill="white"/>
<rect x="174" y="54" width="2" height="2" fill="black"/>
<rect width="2" height="2" transform="matrix(-1 0 0 1 4 54)" fill="black"/>
<rect width="2" height="2" transform="matrix(-1 0 0 1 4 52)" fill="#5A5A5A"/>
<rect width="2" height="2" transform="matrix(-1 0 0 1 4 50)" fill="#AFAFAF"/>
<rect width="2" height="2" transform="matrix(-1 0 0 1 174 54)" fill="#5A5A5A"/>
<rect width="2" height="2" transform="matrix(-1 0 0 1 176 52)" fill="#5A5A5A"/>
<rect width="2" height="2" transform="matrix(-1 0 0 1 174 52)" fill="#AFAFAF"/>
<rect width="2" height="2" transform="matrix(-1 0 0 1 176 50)" fill="#AFAFAF"/>
<rect width="2" height="2" transform="matrix(-1 0 0 1 6 54)" fill="#5A5A5A"/>
<rect width="2" height="2" transform="matrix(-1 0 0 1 6 52)" fill="#AFAFAF"/>
<rect width="166" height="2" transform="matrix(-1 0 0 1 172 56)" fill="#5A5A5A"/>
<rect width="166" height="2" transform="matrix(-1 0 0 1 172 54)" fill="#AFAFAF"/>
<rect x="174" y="15" width="2" height="2" fill="black"/>
<rect width="2" height="2" transform="matrix(-1 0 0 1 4 15)" fill="black"/>
<rect x="172" y="56" width="2" height="2" fill="black"/>
<rect width="2" height="2" transform="matrix(-1 0 0 1 6 56)" fill="black"/>
<rect x="6" y="58" width="166" height="2" fill="black"/>
<rect x="176" y="17" width="2" height="37" fill="black"/>
<rect width="2" height="37" transform="matrix(-1 0 0 1 2 17)" fill="black"/>
<path fill-rule="evenodd" clip-rule="evenodd" d="M170 0H8V2H6V4H4V47H6V49H8V51H170V49H172V47H174V4H172V2H170V0ZM170 2V4H172V47H170V49H8V47H6V4H8V2H170Z" fill="black"/>
<path fill-rule="evenodd" clip-rule="evenodd" d="M170 2H8V4H6V46H172V4H170V2Z" fill="#FB38FF"/>
<rect x="6" y="4" width="2" height="2" fill="#FECDFF"/>
<rect x="172" y="4" width="2" height="2" transform="rotate(90 172 4)" fill="#FECDFF"/>
<rect x="172" y="41" width="2" height="2" transform="rotate(-180 172 41)" fill="#FECDFF"/>
<rect x="6" y="41" width="2" height="2" transform="rotate(-90 6 41)" fill="#FECDFF"/>
<rect x="6" y="47" width="6" height="2" transform="rotate(-90 6 47)" fill="#54004C"/>
<rect x="8" y="4" width="2" height="2" fill="#B800A5"/>
<rect x="172" y="6" width="2" height="2" transform="rotate(90 172 6)" fill="#B800A5"/>
<rect x="170" y="41" width="2" height="2" transform="rotate(-180 170 41)" fill="#B800A5"/>
<rect x="6" y="39" width="2" height="2" transform="rotate(-90 6 39)" fill="#B800A5"/>
<rect x="6" y="6" width="2" height="2" fill="#B800A5"/>
<rect x="170" y="4" width="2" height="2" transform="rotate(90 170 4)" fill="#B800A5"/>
<rect x="172" y="39" width="2" height="2" transform="rotate(-180 172 39)" fill="#B800A5"/>
<rect x="8" y="41" width="2" height="2" transform="rotate(-90 8 41)" fill="#B800A5"/>
<rect x="172" y="47" width="2" height="6" transform="rotate(-180 172 47)" fill="#54004C"/>
<rect x="170" y="49" width="162" height="5.99999" transform="rotate(-180 170 49)" fill="#54004C"/>
<rect x="8" y="2" width="162" height="2" fill="#FECDFF"/>
<rect x="8" y="41" width="162" height="2" fill="#FECDFF"/>
<rect x="16" y="49" width="6" height="4" transform="rotate(-90 16 49)" fill="#D14FFF"/>
<rect width="6" height="4" transform="matrix(-1.31134e-07 -1 -1 1.31134e-07 158 49)" fill="#D14FFF"/>
<rect x="21" y="49" width="6" height="3" transform="rotate(-90 21 49)" fill="#D14FFF"/>
<rect width="6" height="3" transform="matrix(-1.31134e-07 -1 -1 1.31134e-07 153 49)" fill="#D14FFF"/>
<rect x="25" y="49" width="6" height="2" transform="rotate(-90 25 49)" fill="#D14FFF"/>
<rect width="6" height="2" transform="matrix(-1.31134e-07 -1 -1 1.31134e-07 149 49)" fill="#D14FFF"/>
<rect x="28" y="49" width="6" height="0.999999" transform="rotate(-90 28 49)" fill="#D14FFF"/>
<rect width="6" height="0.999999" transform="matrix(-1.31134e-07 -1 -1 1.31134e-07 146 49)" fill="#D14FFF"/>
<path d="M35.6 21.92V18.14V16.88H38.12V18.14V19.4V29.48V32H35.6V29.48H34.34V28.22H33.08V26.96H31.82V25.7H30.56V24.44H29.3V23.18H28.04V21.92H26.78V25.7V32H25.52H24.26V30.74V29.48V28.22V25.7V24.44V23.18V21.92V20.66V19.4V18.14V16.88H25.52H26.78V18.14H28.04V19.4H29.3V20.66H30.56V21.92H31.82V23.18H33.08V24.44H34.34V25.7H35.6V21.92ZM40.6467 19.4V18.14V16.88H41.9067H43.1667H46.9467H54.5067V19.4H53.2467H51.9867H49.4667H48.2067H46.9467H44.4267H43.1667V23.18H51.9867V25.7H43.1667V32H41.9067H40.6467V30.74V29.48V28.22V25.7V24.44V23.18V21.92V20.66V19.4ZM57.0334 19.4V18.14V16.88H58.2934H59.5534H63.3334H69.6334V19.4H68.3734H67.1134H64.5934V25.7V32H62.0734V25.7V19.4H60.8134H57.0334ZM92.3269 26.96V28.22H93.5869V29.48H94.8469H96.1069H97.3669H98.6269H99.8869V28.22H101.147V26.96H99.8869V25.7H98.6269H97.3669H96.1069H92.3269V24.44H91.0669V23.18H89.8069V21.92V20.66V19.4H91.0669V18.14H92.3269V16.88H94.8469H96.1069H97.3669H101.147V18.14H102.407V19.4H103.667V21.92H101.147V20.66H99.8869V19.4H98.6269H97.3669H96.1069H94.8469H93.5869V20.66H92.3269V21.92H93.5869V23.18H94.8469H96.1069H97.3669H101.147V24.44H102.407V25.7H103.667V26.96V28.22V29.48H102.407V30.74H101.147V32H97.3669H96.1069H92.3269V30.74H91.0669V29.48H89.8069V26.96H92.3269ZM117.534 25.7H108.714V32H107.454H106.194V30.74V29.48V28.22V25.7V24.44V23.18V21.92V20.66V19.4V18.14V16.88H107.454H108.714V23.18H117.534V16.88H120.054V19.4V29.48V32H117.534V25.7ZM128.88 19.4H127.62H126.36V20.66H125.1V21.92V23.18V25.7V26.96V28.22H126.36V29.48H127.62H128.88H130.14H131.4H132.66V28.22H133.92V26.96V25.7V21.92V20.66H132.66V19.4H131.4H130.14H128.88ZM136.44 25.7V29.48H135.18V30.74H133.92V32H130.14H128.88H125.1V30.74H123.84V29.48H122.58V26.96V25.7V24.44V23.18V19.4H123.84V18.14H125.1V16.88H127.62H128.88H130.14H133.92V18.14H135.18V19.4H136.44V21.92V25.7ZM138.967 19.4V18.14V16.88H140.227H141.487H145.267H150.307V18.14H151.567V19.4H152.827V21.92V23.18V24.44H151.567V25.7H150.307V26.96H145.267H141.487V32H138.967V26.96V25.7V24.44V23.18V21.92V20.66V19.4ZM145.267 19.4H142.747H141.487V23.18V24.44H142.747H145.267H146.527H147.787H149.047V23.18H150.307V21.92V20.66H149.047V19.4H147.787H146.527H145.267Z" fill="#393939"/>
<path d="M35.6 19.92V16.14V14.88H38.12V16.14V17.4V27.48V30H35.6V27.48H34.34V26.22H33.08V24.96H31.82V23.7H30.56V22.44H29.3V21.18H28.04V19.92H26.78V23.7V30H25.52H24.26V28.74V27.48V26.22V23.7V22.44V21.18V19.92V18.66V17.4V16.14V14.88H25.52H26.78V16.14H28.04V17.4H29.3V18.66H30.56V19.92H31.82V21.18H33.08V22.44H34.34V23.7H35.6V19.92ZM40.6467 17.4V16.14V14.88H41.9067H43.1667H46.9467H54.5067V17.4H53.2467H51.9867H49.4667H48.2067H46.9467H44.4267H43.1667V21.18H51.9867V23.7H43.1667V30H41.9067H40.6467V28.74V27.48V26.22V23.7V22.44V21.18V19.92V18.66V17.4ZM57.0334 17.4V16.14V14.88H58.2934H59.5534H63.3334H69.6334V17.4H68.3734H67.1134H64.5934V23.7V30H62.0734V23.7V17.4H60.8134H57.0334ZM92.3269 24.96V26.22H93.5869V27.48H94.8469H96.1069H97.3669H98.6269H99.8869V26.22H101.147V24.96H99.8869V23.7H98.6269H97.3669H96.1069H92.3269V22.44H91.0669V21.18H89.8069V19.92V18.66V17.4H91.0669V16.14H92.3269V14.88H94.8469H96.1069H97.3669H101.147V16.14H102.407V17.4H103.667V19.92H101.147V18.66H99.8869V17.4H98.6269H97.3669H96.1069H94.8469H93.5869V18.66H92.3269V19.92H93.5869V21.18H94.8469H96.1069H97.3669H101.147V22.44H102.407V23.7H103.667V24.96V26.22V27.48H102.407V28.74H101.147V30H97.3669H96.1069H92.3269V28.74H91.0669V27.48H89.8069V24.96H92.3269ZM117.534 23.7H108.714V30H107.454H106.194V28.74V27.48V26.22V23.7V22.44V21.18V19.92V18.66V17.4V16.14V14.88H107.454H108.714V21.18H117.534V14.88H120.054V17.4V27.48V30H117.534V23.7ZM128.88 17.4H127.62H126.36V18.66H125.1V19.92V21.18V23.7V24.96V26.22H126.36V27.48H127.62H128.88H130.14H131.4H132.66V26.22H133.92V24.96V23.7V19.92V18.66H132.66V17.4H131.4H130.14H128.88ZM136.44 23.7V27.48H135.18V28.74H133.92V30H130.14H128.88H125.1V28.74H123.84V27.48H122.58V24.96V23.7V22.44V21.18V17.4H123.84V16.14H125.1V14.88H127.62H128.88H130.14H133.92V16.14H135.18V17.4H136.44V19.92V23.7ZM138.967 17.4V16.14V14.88H140.227H141.487H145.267H150.307V16.14H151.567V17.4H152.827V19.92V21.18V22.44H151.567V23.7H150.307V24.96H145.267H141.487V30H138.967V24.96V23.7V22.44V21.18V19.92V18.66V17.4ZM145.267 17.4H142.747H141.487V21.18V22.44H142.747H145.267H146.527H147.787H149.047V21.18H150.307V19.92V18.66H149.047V17.4H147.787H146.527H145.267Z" fill="white"/>
</svg>
