<svg width="39" height="40" viewBox="0 0 39 40" fill="none" xmlns="http://www.w3.org/2000/svg">
<rect x="9.52344" y="3.80859" width="19.0478" height="30.4764" fill="white"/>
<rect x="1.90625" y="5.71582" width="34.286" height="26.6669" fill="white"/>
<rect x="3.80469" y="30.4756" width="1.90478" height="3.80955" transform="rotate(-180 3.80469 30.4756)" fill="#B5B5B5"/>
<rect x="5.71484" y="34.2871" width="1.90478" height="3.80955" transform="rotate(-180 5.71484 34.2871)" fill="#B5B5B5"/>
<rect x="7.61719" y="36.1914" width="1.90478" height="3.80955" transform="rotate(-180 7.61719 36.1914)" fill="#B5B5B5"/>
<rect x="30.4766" y="36.1904" width="1.90478" height="3.80955" transform="rotate(-180 30.4766 36.1904)" fill="#B5B5B5"/>
<rect x="32.3828" y="36.1904" width="1.90478" height="3.80955" transform="rotate(-180 32.3828 36.1904)" fill="#B5B5B5"/>
<rect x="34.2852" y="34.2871" width="1.90478" height="3.80955" transform="rotate(-180 34.2852 34.2871)" fill="#B5B5B5"/>
<rect x="36.1914" y="30.4756" width="1.90478" height="3.80955" transform="rotate(-180 36.1914 30.4756)" fill="#B5B5B5"/>
<rect x="9.52344" y="36.1914" width="1.90478" height="3.80955" transform="rotate(-180 9.52344 36.1914)" fill="#B5B5B5"/>
<rect x="28.5703" y="38.0957" width="19.0478" height="3.80955" transform="rotate(-180 28.5703 38.0957)" fill="#B5B5B5"/>
<rect x="9.52344" width="19.0478" height="1.90478" fill="#393939"/>
<rect x="5.71484" y="1.9043" width="3.80956" height="1.90478" fill="#393939"/>
<rect width="3.80956" height="1.90478" transform="matrix(-1 0 0 1 32.3867 1.9043)" fill="#393939"/>
<rect x="1.90625" y="34.2871" width="3.80956" height="1.90478" transform="rotate(-90 1.90625 34.2871)" fill="#393939"/>
<rect width="3.80956" height="1.90478" transform="matrix(4.37114e-08 -1 -1 -4.37114e-08 36.1914 34.2871)" fill="#393939"/>
<rect x="3.80469" y="3.80859" width="1.90478" height="1.90478" fill="#393939"/>
<rect width="1.90478" height="1.90478" transform="matrix(-1 0 0 1 34.2852 3.80957)" fill="#393939"/>
<rect x="3.80469" y="36.1914" width="1.90478" height="1.90478" transform="rotate(-90 3.80469 36.1914)" fill="#393939"/>
<rect width="1.90478" height="1.90478" transform="matrix(4.37114e-08 -1 -1 -4.37114e-08 34.2812 36.1914)" fill="#393939"/>
<rect x="1.90625" y="5.71582" width="1.90478" height="3.80956" fill="#393939"/>
<rect width="1.90478" height="3.80956" transform="matrix(-1 0 0 1 36.1914 5.71582)" fill="#393939"/>
<rect x="5.71484" y="38.0957" width="1.90478" height="3.80956" transform="rotate(-90 5.71484 38.0957)" fill="#393939"/>
<rect width="1.90478" height="3.80956" transform="matrix(4.37114e-08 -1 -1 -4.37114e-08 32.3867 38.0957)" fill="#393939"/>
<rect x="9.52344" y="38.0957" width="19.0478" height="1.90478" fill="#393939"/>
<rect x="38.0977" y="9.52344" width="20.9526" height="1.90478" transform="rotate(90 38.0977 9.52344)" fill="#393939"/>
<rect x="1.90625" y="9.52344" width="20.9526" height="1.90478" transform="rotate(90 1.90625 9.52344)" fill="#393939"/>
<rect x="28.5703" y="1.9043" width="1.90478" height="19.0478" transform="rotate(90 28.5703 1.9043)" fill="#E8E8E8"/>
<rect x="9.52344" y="34.2871" width="1.90478" height="19.0478" transform="rotate(-90 9.52344 34.2871)" fill="#E8E8E8"/>
<rect x="9.52344" y="3.80859" width="1.90478" height="3.80956" transform="rotate(90 9.52344 3.80859)" fill="#E8E8E8"/>
<rect x="28.5703" y="32.3809" width="1.90478" height="3.80956" transform="rotate(-90 28.5703 32.3809)" fill="#E8E8E8"/>
<rect x="5.71484" y="5.71582" width="1.90478" height="1.90478" transform="rotate(90 5.71484 5.71582)" fill="#E8E8E8"/>
<rect x="32.3867" y="30.4756" width="1.90478" height="1.90478" transform="rotate(-90 32.3867 30.4756)" fill="#E8E8E8"/>
<rect x="3.80469" y="9.52344" width="1.90478" height="1.90478" transform="rotate(90 3.80469 9.52344)" fill="#E8E8E8"/>
<rect x="34.2852" y="26.666" width="1.90478" height="1.90478" transform="rotate(-90 34.2852 26.666)" fill="#E8E8E8"/>
<rect x="34.2852" y="5.71582" width="1.90478" height="1.90478" transform="rotate(90 34.2852 5.71582)" fill="#E8E8E8"/>
<rect x="3.80469" y="30.4756" width="1.90478" height="1.90478" transform="rotate(-90 3.80469 30.4756)" fill="#E8E8E8"/>
<rect x="36.1914" y="9.52344" width="1.90478" height="1.90478" transform="rotate(90 36.1914 9.52344)" fill="#E8E8E8"/>
<rect x="1.90625" y="26.666" width="1.90478" height="1.90478" transform="rotate(-90 1.90625 26.666)" fill="#E8E8E8"/>
<rect x="32.3867" y="3.80859" width="1.90478" height="3.80956" transform="rotate(90 32.3867 3.80859)" fill="#E8E8E8"/>
<rect x="5.71484" y="32.3809" width="1.90478" height="3.80956" transform="rotate(-90 5.71484 32.3809)" fill="#E8E8E8"/>
<rect x="8" y="27" width="2" height="15" transform="rotate(-180 8 27)" fill="#FFBD82"/>
<rect x="33" y="27" width="2" height="15" transform="rotate(-180 33 27)" fill="#FFBD82"/>
<rect x="8" y="12" width="2" height="23" transform="rotate(-90 8 12)" fill="#FFBD82"/>
<rect x="8" y="29" width="2" height="23" transform="rotate(-90 8 29)" fill="#FFBD82"/>
<path d="M17.9091 5H16.2727V6.63636H17.9091V5Z" fill="#FF7C06"/>
<path d="M19.5455 5H17.9091V6.63636H19.5455V5Z" fill="#FF7C06"/>
<path d="M21.1818 5H19.5455V6.63636H21.1818V5Z" fill="#FF7C06"/>
<path d="M22.8182 5H21.1818V6.63636H22.8182V5Z" fill="#FF7C06"/>
<path d="M16.2727 6.63636H14.6364V8.27273H16.2727V6.63636Z" fill="#FF7C06"/>
<path d="M17.9091 6.63636H16.2727V8.27273H17.9091V6.63636Z" fill="#FF7C06"/>
<path d="M19.5455 6.63636H17.9091V8.27273H19.5455V6.63636Z" fill="#FF7C06"/>
<path d="M21.1818 6.63636H19.5455V8.27273H21.1818V6.63636Z" fill="#FF7C06"/>
<path d="M22.8182 6.63636H21.1818V8.27273H22.8182V6.63636Z" fill="#FF7C06"/>
<path d="M24.4545 6.63636H22.8182V8.27273H24.4545V6.63636Z" fill="#FF7C06"/>
<path d="M14.6364 8.27273H13V9.90909H14.6364V8.27273Z" fill="#FF7C06"/>
<path d="M16.2727 8.27273H14.6364V9.90909H16.2727V8.27273Z" fill="#FF7C06"/>
<path d="M17.9091 8.27273H16.2727V9.90909H17.9091V8.27273Z" fill="#FF7C06"/>
<path d="M19.5455 8.27273H17.9091V9.90909H19.5455V8.27273Z" fill="#FF7C06"/>
<path d="M21.1818 8.27273H19.5455V9.90909H21.1818V8.27273Z" fill="#FF7C06"/>
<path d="M22.8182 8.27273H21.1818V9.90909H22.8182V8.27273Z" fill="#FF7C06"/>
<path d="M24.4545 8.27273H22.8182V9.90909H24.4545V8.27273Z" fill="#FFBD82"/>
<path d="M26.0909 8.27273H24.4545V9.90909H26.0909V8.27273Z" fill="#FF7C06"/>
<path d="M14.6364 9.90909H13V11.5455H14.6364V9.90909Z" fill="#FF7C06"/>
<path d="M16.2727 9.90909H14.6364V11.5455H16.2727V9.90909Z" fill="#FF7C06"/>
<path d="M17.9091 9.90909H16.2727V11.5455H17.9091V9.90909Z" fill="#FF7C06"/>
<path d="M19.5455 9.90909H17.9091V11.5455H19.5455V9.90909Z" fill="#FF7C06"/>
<path d="M21.1818 9.90909H19.5455V11.5455H21.1818V9.90909Z" fill="#FF7C06"/>
<path d="M22.8182 9.90909H21.1818V11.5455H22.8182V9.90909Z" fill="#FF7C06"/>
<path d="M24.4545 9.90909H22.8182V11.5455H24.4545V9.90909Z" fill="#FFBD82"/>
<path d="M26.0909 9.90909H24.4545V11.5455H26.0909V9.90909Z" fill="#FF7C06"/>
<path d="M14.6364 11.5455H13V13.1818H14.6364V11.5455Z" fill="#FF7C06"/>
<path d="M16.2727 11.5455H14.6364V13.1818H16.2727V11.5455Z" fill="#FF7C06"/>
<path d="M17.9091 11.5455H16.2727V13.1818H17.9091V11.5455Z" fill="#FF7C06"/>
<path d="M19.5455 11.5455H17.9091V13.1818H19.5455V11.5455Z" fill="#FF7C06"/>
<path d="M21.1818 11.5455H19.5455V13.1818H21.1818V11.5455Z" fill="#FF7C06"/>
<path d="M22.8182 11.5455H21.1818V13.1818H22.8182V11.5455Z" fill="#FF7C06"/>
<path d="M24.4545 11.5455H22.8182V13.1818H24.4545V11.5455Z" fill="#FFBD82"/>
<path d="M26.0909 11.5455H24.4545V13.1818H26.0909V11.5455Z" fill="#FF7C06"/>
<path d="M14.6364 13.1818H13V14.8182H14.6364V13.1818Z" fill="#FF7C06"/>
<path d="M16.2727 13.1818H14.6364V14.8182H16.2727V13.1818Z" fill="#FF7C06"/>
<path d="M17.9091 13.1818H16.2727V14.8182H17.9091V13.1818Z" fill="#FF7C06"/>
<path d="M19.5455 13.1818H17.9091V14.8182H19.5455V13.1818Z" fill="#FF7C06"/>
<path d="M21.1818 13.1818H19.5455V14.8182H21.1818V13.1818Z" fill="#FF7C06"/>
<path d="M22.8182 13.1818H21.1818V14.8182H22.8182V13.1818Z" fill="#FF7C06"/>
<path d="M24.4545 13.1818H22.8182V14.8182H24.4545V13.1818Z" fill="#FFBD82"/>
<path d="M26.0909 13.1818H24.4545V14.8182H26.0909V13.1818Z" fill="#FF7C06"/>
<path d="M16.2727 14.8182H14.6364V16.4545H16.2727V14.8182Z" fill="#FF7C06"/>
<path d="M17.9091 14.8182H16.2727V16.4545H17.9091V14.8182Z" fill="#FF7C06"/>
<path d="M19.5455 14.8182H17.9091V16.4545H19.5455V14.8182Z" fill="#FF7C06"/>
<path d="M21.1818 14.8182H19.5455V16.4545H21.1818V14.8182Z" fill="#FF7C06"/>
<path d="M22.8182 14.8182H21.1818V16.4545H22.8182V14.8182Z" fill="#FFBD82"/>
<path d="M24.4545 14.8182H22.8182V16.4545H24.4545V14.8182Z" fill="#FF7C06"/>
<path d="M16.2727 16.4545H14.6364V18.0909H16.2727V16.4545Z" fill="#FF7C06"/>
<path d="M17.9091 16.4545H16.2727V18.0909H17.9091V16.4545Z" fill="#FF7C06"/>
<path d="M19.5455 16.4545H17.9091V18.0909H19.5455V16.4545Z" fill="#FF7C06"/>
<path d="M21.1818 16.4545H19.5455V18.0909H21.1818V16.4545Z" fill="#FF7C06"/>
<path d="M22.8182 16.4545H21.1818V18.0909H22.8182V16.4545Z" fill="#FFBD82"/>
<path d="M24.4545 16.4545H22.8182V18.0909H24.4545V16.4545Z" fill="#FF7C06"/>
<path d="M17.9091 18.0909H16.2727V19.7273H17.9091V18.0909Z" fill="#FF7C06"/>
<path d="M19.5455 18.0909H17.9091V19.7273H19.5455V18.0909Z" fill="#FF7C06"/>
<path d="M21.1818 18.0909H19.5455V19.7273H21.1818V18.0909Z" fill="#FFBD82"/>
<path d="M22.8182 18.0909H21.1818V19.7273H22.8182V18.0909Z" fill="#FF7C06"/>
<path d="M17.9091 19.7273H16.2727V21.3636H17.9091V19.7273Z" fill="#FF7C06"/>
<path d="M19.5455 19.7273H17.9091V21.3636H19.5455V19.7273Z" fill="#FF7C06"/>
<path d="M21.1818 19.7273H19.5455V21.3636H21.1818V19.7273Z" fill="#FFBD82"/>
<path d="M22.8182 19.7273H21.1818V21.3636H22.8182V19.7273Z" fill="#FF7C06"/>
<path d="M19.5455 21.3636H17.9091V23H19.5455V21.3636Z" fill="#FF7C06"/>
<path d="M21.1818 21.3636H19.5455V23H21.1818V21.3636Z" fill="#FF7C06"/>
<rect x="17.9062" y="9.90918" width="3.27273" height="3.27273" fill="white"/>
</svg>
