<svg width="39" height="40" viewBox="0 0 39 40" fill="none" xmlns="http://www.w3.org/2000/svg">
<rect x="9.52344" y="3.80859" width="19.0479" height="30.4766" fill="white"/>
<rect x="1.90625" y="5.71582" width="34.2861" height="26.667" fill="white"/>
<rect x="3.80469" y="30.4746" width="1.90479" height="3.80957" transform="rotate(-180 3.80469 30.4746)" fill="#B5B5B5"/>
<rect x="5.71484" y="34.2871" width="1.90479" height="3.80957" transform="rotate(-180 5.71484 34.2871)" fill="#B5B5B5"/>
<rect x="7.61719" y="36.1914" width="1.90479" height="3.80957" transform="rotate(-180 7.61719 36.1914)" fill="#B5B5B5"/>
<rect x="30.4805" y="36.1914" width="1.90479" height="3.80957" transform="rotate(-180 30.4805 36.1914)" fill="#B5B5B5"/>
<rect x="32.3828" y="36.1914" width="1.90479" height="3.80957" transform="rotate(-180 32.3828 36.1914)" fill="#B5B5B5"/>
<rect x="34.2852" y="34.2871" width="1.90479" height="3.80957" transform="rotate(-180 34.2852 34.2871)" fill="#B5B5B5"/>
<rect x="36.1914" y="30.4746" width="1.90479" height="3.80957" transform="rotate(-180 36.1914 30.4746)" fill="#B5B5B5"/>
<rect x="9.51953" y="36.1914" width="1.90479" height="3.80957" transform="rotate(-180 9.51953 36.1914)" fill="#B5B5B5"/>
<rect x="28.5703" y="38.0957" width="19.0479" height="3.80957" transform="rotate(-180 28.5703 38.0957)" fill="#B5B5B5"/>
<rect x="9.51953" width="19.0479" height="1.90479" fill="#393939"/>
<rect x="5.71484" y="1.9043" width="3.80957" height="1.90479" fill="#393939"/>
<rect width="3.80957" height="1.90479" transform="matrix(-1 0 0 1 32.3828 1.9043)" fill="#393939"/>
<rect x="1.90625" y="34.2871" width="3.80957" height="1.90479" transform="rotate(-90 1.90625 34.2871)" fill="#393939"/>
<rect width="3.80957" height="1.90479" transform="matrix(4.37114e-08 -1 -1 -4.37114e-08 36.1914 34.2871)" fill="#393939"/>
<rect x="3.80469" y="3.80859" width="1.90479" height="1.90479" fill="#393939"/>
<rect width="1.90479" height="1.90479" transform="matrix(-1 0 0 1 34.2852 3.80859)" fill="#393939"/>
<rect x="3.80469" y="36.1914" width="1.90479" height="1.90479" transform="rotate(-90 3.80469 36.1914)" fill="#393939"/>
<rect width="1.90479" height="1.90479" transform="matrix(4.37114e-08 -1 -1 -4.37114e-08 34.2812 36.1914)" fill="#393939"/>
<rect x="1.90625" y="5.71582" width="1.90479" height="3.80957" fill="#393939"/>
<rect width="1.90479" height="3.80957" transform="matrix(-1 0 0 1 36.1914 5.71582)" fill="#393939"/>
<rect x="5.71484" y="38.0957" width="1.90479" height="3.80957" transform="rotate(-90 5.71484 38.0957)" fill="#393939"/>
<rect width="1.90479" height="3.80957" transform="matrix(4.37114e-08 -1 -1 -4.37114e-08 32.3828 38.0957)" fill="#393939"/>
<rect x="9.52344" y="38.0957" width="19.0479" height="1.90479" fill="#393939"/>
<rect x="38.0977" y="9.52441" width="20.9526" height="1.90478" transform="rotate(90 38.0977 9.52441)" fill="#393939"/>
<rect x="1.90625" y="9.52441" width="20.9526" height="1.90478" transform="rotate(90 1.90625 9.52441)" fill="#393939"/>
<rect x="28.5703" y="1.9043" width="1.90479" height="19.0479" transform="rotate(90 28.5703 1.9043)" fill="#E8E8E8"/>
<rect x="9.52344" y="34.2871" width="1.90479" height="19.0479" transform="rotate(-90 9.52344 34.2871)" fill="#E8E8E8"/>
<rect x="9.52344" y="3.80859" width="1.90479" height="3.80957" transform="rotate(90 9.52344 3.80859)" fill="#E8E8E8"/>
<rect x="28.5703" y="32.3809" width="1.90479" height="3.80957" transform="rotate(-90 28.5703 32.3809)" fill="#E8E8E8"/>
<rect x="5.71484" y="5.71582" width="1.90479" height="1.90479" transform="rotate(90 5.71484 5.71582)" fill="#E8E8E8"/>
<rect x="32.3828" y="30.4746" width="1.90479" height="1.90479" transform="rotate(-90 32.3828 30.4746)" fill="#E8E8E8"/>
<rect x="3.80469" y="9.52441" width="1.90479" height="1.90479" transform="rotate(90 3.80469 9.52441)" fill="#E8E8E8"/>
<rect x="34.2852" y="26.666" width="1.90479" height="1.90479" transform="rotate(-90 34.2852 26.666)" fill="#E8E8E8"/>
<rect x="34.2852" y="5.71582" width="1.90479" height="1.90479" transform="rotate(90 34.2852 5.71582)" fill="#E8E8E8"/>
<rect x="3.80469" y="30.4746" width="1.90479" height="1.90479" transform="rotate(-90 3.80469 30.4746)" fill="#E8E8E8"/>
<rect x="36.1914" y="9.52441" width="1.90479" height="1.90479" transform="rotate(90 36.1914 9.52441)" fill="#E8E8E8"/>
<rect x="1.90625" y="26.666" width="1.90479" height="1.90479" transform="rotate(-90 1.90625 26.666)" fill="#E8E8E8"/>
<rect x="32.3828" y="3.80859" width="1.90479" height="3.80957" transform="rotate(90 32.3828 3.80859)" fill="#E8E8E8"/>
<rect x="5.71484" y="32.3809" width="1.90479" height="3.80957" transform="rotate(-90 5.71484 32.3809)" fill="#E8E8E8"/>
<rect x="7" y="7.80469" width="2.54441" height="12.722" transform="rotate(-45 7 7.80469)" fill="#FF7C06"/>
<rect x="10.2266" y="8.48535" width="2.54441" height="2.54441" transform="rotate(-45 10.2266 8.48535)" fill="#FF7C06"/>
<rect x="12.7695" y="8.48535" width="2.54441" height="2.54441" transform="rotate(-45 12.7695 8.48535)" fill="#FF7C06"/>
<rect x="7.67969" y="11.0293" width="2.54441" height="2.54441" transform="rotate(-45 7.67969 11.0293)" fill="#FF7C06"/>
<rect x="7.67969" y="13.5752" width="2.54441" height="2.54441" transform="rotate(-45 7.67969 13.5752)" fill="#FF7C06"/>
<rect x="31.1211" y="28.3359" width="2.54441" height="12.722" transform="rotate(135 31.1211 28.3359)" fill="#FF7C06"/>
<rect x="27.8984" y="27.6553" width="2.54441" height="2.54441" transform="rotate(135 27.8984 27.6553)" fill="#FF7C06"/>
<rect x="25.3516" y="27.6553" width="2.54441" height="2.54441" transform="rotate(135 25.3516 27.6553)" fill="#FF7C06"/>
<rect x="30.4414" y="25.1113" width="2.54441" height="2.54441" transform="rotate(135 30.4414 25.1113)" fill="#FF7C06"/>
<rect x="30.4375" y="22.5664" width="2.54441" height="2.54441" transform="rotate(135 30.4375 22.5664)" fill="#FF7C06"/>
<rect x="29.3203" y="6" width="2.54441" height="12.722" transform="rotate(45 29.3203 6)" fill="#FF7C06"/>
<rect x="28.6406" y="9.22559" width="2.54441" height="2.54441" transform="rotate(45 28.6406 9.22559)" fill="#FF7C06"/>
<rect x="28.6406" y="11.7695" width="2.54441" height="2.54441" transform="rotate(45 28.6406 11.7695)" fill="#FF7C06"/>
<rect x="26.0938" y="6.67969" width="2.54441" height="2.54441" transform="rotate(45 26.0938 6.67969)" fill="#FF7C06"/>
<rect x="23.5508" y="6.68066" width="2.54441" height="2.54441" transform="rotate(45 23.5508 6.68066)" fill="#FF7C06"/>
<rect x="8.80078" y="30.1348" width="2.54441" height="12.722" transform="rotate(-135 8.80078 30.1348)" fill="#FF7C06"/>
<rect x="9.48047" y="26.9092" width="2.54441" height="2.54441" transform="rotate(-135 9.48047 26.9092)" fill="#FF7C06"/>
<rect x="9.48047" y="24.3652" width="2.54441" height="2.54441" transform="rotate(-135 9.48047 24.3652)" fill="#FF7C06"/>
<rect x="12.0273" y="29.4551" width="2.54441" height="2.54441" transform="rotate(-135 12.0273 29.4551)" fill="#FF7C06"/>
<rect x="14.5703" y="29.4551" width="2.54441" height="2.54441" transform="rotate(-135 14.5703 29.4551)" fill="#FF7C06"/>
</svg>
