<svg id="click-network" style="display: none" width="165" height="41" viewBox="0 0 165 41" fill="none" xmlns="http://www.w3.org/2000/svg">
					<rect x="2" y="8" width="2" height="2" fill="black"/>
					<rect x="163" y="35" width="2" height="4" transform="rotate(-180 163 35)" fill="black"/>
					<rect x="4" y="31" width="4" height="2" transform="rotate(90 4 31)" fill="black"/>
					<rect x="10" y="33" width="2" height="2" transform="rotate(90 10 33)" fill="#FF9332"/>
					<rect x="155" y="37" width="2.00001" height="145" transform="rotate(90 155 37)" fill="#FF9332"/>
					<rect x="161" y="10" width="4" height="2" transform="rotate(-90 161 10)" fill="black"/>
					<rect x="2" y="6" width="2" height="2" fill="black"/>
					<rect x="161" y="37" width="2" height="2" transform="rotate(-180 161 37)" fill="black"/>
					<rect x="6" y="35" width="2" height="2" transform="rotate(90 6 35)" fill="black"/>
					<rect x="4" y="4" width="2" height="2" fill="black"/>
					<rect x="8" y="37" width="2" height="2" transform="rotate(90 8 37)" fill="black"/>
					<rect x="159" y="6" width="2" height="2" transform="rotate(-90 159 6)" fill="black"/>
					<rect x="6" y="2" width="4" height="2" fill="black"/>
					<rect x="159" y="39" width="4" height="2" transform="rotate(-180 159 39)" fill="black"/>
					<rect x="10" y="37" width="2" height="2" transform="rotate(90 10 37)" fill="black"/>
					<rect x="155" y="4" width="2" height="4" transform="rotate(-90 155 4)" fill="black"/>
					<rect x="10" width="145" height="2" fill="black"/>
					<rect x="10" y="39" width="145" height="2" fill="black"/>
					<rect y="10" width="2" height="21" fill="black"/>
					<rect x="165" y="31" width="2" height="21" transform="rotate(-180 165 31)" fill="black"/>
					<path fill-rule="evenodd" clip-rule="evenodd" d="M155 4.12121L10 4.1212V2L155 2.00001V4.12121ZM155 37H161V32.7576V30.6363V28.5152L163 28.5152V10.4848H161V8.00001H159V6.00001H157V4.12123L155 4.12121L8 4.12121V6H6L6 8H4L4 10.4848H2V28.5152L128.186 28.5152L4 28.5152L4 30.6364L4 37H6H10L155 37Z" fill="#FF9332"/>
					<rect x="155" y="2" width="2.00001" height="145" transform="rotate(90 155 2)" fill="#FF9332"/>
					<rect x="6" y="6" width="2" height="2" transform="rotate(90 6 6)" fill="#FF9332"/>
					<rect x="4" y="10" width="4" height="2" transform="rotate(90 4 10)" fill="#FF9332"/>
					<rect x="8" y="4" width="2" height="2" transform="rotate(90 8 4)" fill="#FF9332"/>
					<rect x="10" y="4" width="2" height="2" transform="rotate(90 10 4)" fill="#FF9332"/>
					<rect x="159" y="4" width="2" height="4" transform="rotate(90 159 4)" fill="#FF9332"/>
					<rect x="161" y="6" width="2" height="2" transform="rotate(90 161 6)" fill="#FF9332"/>
					<rect x="163" y="10" width="4" height="2" transform="rotate(90 163 10)" fill="#FF9332"/>
					<rect x="4" y="27" width="4" height="2" transform="rotate(90 4 27)" fill="#FF9332"/>
					<rect x="8" y="35" width="2" height="2" transform="rotate(90 8 35)" fill="#FF9332"/>
					<rect x="6" y="33" width="2" height="2" transform="rotate(90 6 33)" fill="#FF9332"/>
					<rect x="6" y="35" width="2" height="2" transform="rotate(90 6 35)" fill="black"/>
					<rect x="159" y="37" width="4" height="2" transform="rotate(-180 159 37)" fill="#FF9332"/>
					<rect x="161" y="35" width="2" height="2" transform="rotate(-180 161 35)" fill="#FF9332"/>
					<rect x="163" y="31" width="2" height="4" transform="rotate(-180 163 31)" fill="#FF9332"/>
					<rect width="2" height="2" transform="matrix(-1 0 0 1 161 35)" fill="black"/>
					
				</svg>