<svg width="16" height="15" viewBox="0 0 16 15" fill="none" xmlns="http://www.w3.org/2000/svg">
<path d="M8 10C9.65685 10 11 8.65685 11 7C11 5.34315 9.65685 4 8 4C6.34315 4 5 5.34315 5 7C5 8.65685 6.34315 10 8 10Z" fill="#FF7C06"/>
<path d="M8 0C6.41775 0 4.87103 0.439867 3.55544 1.26398C2.23985 2.08809 1.21447 3.25943 0.608967 4.62987C0.00346628 6.00032 -0.15496 7.50832 0.153721 8.96318C0.462403 10.418 1.22433 11.7544 2.34315 12.8033C3.46197 13.8522 4.88743 14.5665 6.43928 14.8559C7.99113 15.1453 9.59966 14.9967 11.0615 14.4291C12.5233 13.8614 13.7727 12.9001 14.6518 11.6668C15.5308 10.4334 16 8.98336 16 7.5C15.9959 5.51205 15.1518 3.60661 13.6524 2.20091C12.153 0.795212 10.1205 0.003812 8 0ZM13.0615 11.7115C12.5634 11.0416 11.9215 10.4767 11.1769 10.0529C10.322 10.8207 9.18389 11.2493 8 11.2493C6.81611 11.2493 5.67796 10.8207 4.82308 10.0529C4.07852 10.4767 3.4366 11.0416 2.93846 11.7115C2.07214 10.797 1.50619 9.66714 1.30874 8.45808C1.11129 7.24901 1.29074 6.01222 1.8255 4.89653C2.36027 3.78084 3.22755 2.8338 4.32298 2.16939C5.41841 1.50498 6.69531 1.1515 8 1.1515C9.3047 1.1515 10.5816 1.50498 11.677 2.16939C12.7725 2.8338 13.6397 3.78084 14.1745 4.89653C14.7093 6.01222 14.8887 7.24901 14.6913 8.45808C14.4938 9.66714 13.9279 10.797 13.0615 11.7115Z" fill="#FF7C06"/>
</svg>
