<svg width="170" height="165" viewBox="0 0 170 165" fill="none" xmlns="http://www.w3.org/2000/svg">
<g clip-path="url(#clip0_2968_174697)">
<path d="M117.503 0H124.043V6.6128H117.503V0Z" fill="#181425"/>
<path d="M110.964 0H117.504V6.6128H110.964V0Z" fill="#181425"/>
<path d="M104.425 0H110.965V6.6128H104.425V0Z" fill="#181425"/>
<path d="M97.8861 0H104.426V6.6128H97.8861V0Z" fill="#181425"/>
<path d="M91.3432 0H97.8828V6.6128H91.3432V0Z" fill="#181425"/>
<path d="M84.8041 0H91.3438V6.6128H84.8041V0Z" fill="#181425"/>
<path d="M78.265 0H84.8047V6.6128H78.265V0Z" fill="#181425"/>
<path d="M71.8315 0H78.3711V6.6128H71.8315V0Z" fill="#181425"/>
<path d="M65.2924 0H71.832V6.6128H65.2924V0Z" fill="#181425"/>
<path d="M130.581 6.61328H137.121V13.2261H130.581V6.61328Z" fill="#181425"/>
<path d="M124.042 6.61328H130.582V13.2261H124.042V6.61328Z" fill="#181425"/>
<path d="M117.503 6.61328H124.043V13.2261H117.503V6.61328Z" fill="#E45C00"/>
<path d="M110.964 6.61328H117.504V13.2261H110.964V6.61328Z" fill="#181425"/>
<path d="M104.425 6.61328H110.965V13.2261H104.425V6.61328Z" fill="#181425"/>
<path d="M97.8861 6.61328H104.426V13.2261H97.8861V6.61328Z" fill="#E45C00"/>
<path d="M91.3432 6.61328H97.8828V13.2261H91.3432V6.61328Z" fill="#E45C00"/>
<path d="M84.8041 6.61328H91.3438V13.2261H84.8041V6.61328Z" fill="#E45C00"/>
<path d="M78.265 6.61328H84.8047V13.2261H78.265V6.61328Z" fill="#FF7C06"/>
<path d="M71.8315 6.61328H78.3711V13.2261H71.8315V6.61328Z" fill="#FF7C06"/>
<path d="M65.2924 6.61328H71.832V13.2261H65.2924V6.61328Z" fill="#181425"/>
<path d="M58.7533 6.61328H65.293V13.2261H58.7533V6.61328Z" fill="#181425"/>
<path d="M52.2104 6.61328H58.75V13.2261H52.2104V6.61328Z" fill="#181425"/>
<path d="M137.015 13.2256H143.555V19.8384H137.015V13.2256Z" fill="#181425"/>
<path d="M130.581 13.2256H137.121V19.8384H130.581V13.2256Z" fill="white"/>
<path d="M124.042 13.2256H130.582V19.8384H124.042V13.2256Z" fill="white"/>
<path d="M117.503 13.2256H124.043V19.8384H117.503V13.2256Z" fill="#181425"/>
<path d="M110.964 13.2256H117.504V19.8384H110.964V13.2256Z" fill="white"/>
<path d="M104.425 13.2256H110.965V19.8384H104.425V13.2256Z" fill="#181425"/>
<path d="M97.8861 13.2256H104.426V19.8384H97.8861V13.2256Z" fill="#181425"/>
<path d="M91.3432 13.2256H97.8828V19.8384H91.3432V13.2256Z" fill="#181425"/>
<path d="M84.8041 13.2256H91.3438V19.8384H84.8041V13.2256Z" fill="#181425"/>
<path d="M78.265 13.2256H84.8047V19.8384H78.265V13.2256Z" fill="#181425"/>
<path d="M71.8315 13.2256H78.3711V19.8384H71.8315V13.2256Z" fill="#181425"/>
<path d="M65.2924 13.2256H71.832V19.8384H65.2924V13.2256Z" fill="#181425"/>
<path d="M58.7533 13.2256H65.293V19.8384H58.7533V13.2256Z" fill="white"/>
<path d="M52.2104 13.2256H58.75V19.8384H52.2104V13.2256Z" fill="white"/>
<path d="M45.6713 13.2256H52.2109V19.8384H45.6713V13.2256Z" fill="#181425"/>
<path d="M143.558 19.8389H150.098V26.4517H143.558V19.8389Z" fill="#181425"/>
<path d="M137.015 19.8389H143.555V26.4517H137.015V19.8389Z" fill="white"/>
<path d="M130.581 19.8389H137.121V26.4517H130.581V19.8389Z" fill="white"/>
<path d="M124.042 19.8389H130.582V26.4517H124.042V19.8389Z" fill="#181425"/>
<path d="M117.503 19.8389H124.043V26.4517H117.503V19.8389Z" fill="white"/>
<path d="M110.964 19.8389H117.504V26.4517H110.964V19.8389Z" fill="#C6C6C6"/>
<path d="M104.425 19.8389H110.965V26.4517H104.425V19.8389Z" fill="#181425"/>
<path d="M97.8861 19.8389H104.426V26.4517H97.8861V19.8389Z" fill="#E45C00"/>
<path d="M91.3432 19.8389H97.8828V26.4517H91.3432V19.8389Z" fill="#E45C00"/>
<path d="M84.8041 19.8389H91.3438V26.4517H84.8041V19.8389Z" fill="#FF7C06"/>
<path d="M78.265 19.8389H84.8047V26.4517H78.265V19.8389Z" fill="#FF7C06"/>
<path d="M71.8315 19.8389H78.3711V26.4517H71.8315V19.8389Z" fill="#FF7C06"/>
<path d="M65.2924 19.8389H71.832V26.4517H65.2924V19.8389Z" fill="#FF7C06"/>
<path d="M58.7533 19.8389H65.293V26.4517H58.7533V19.8389Z" fill="#181425"/>
<path d="M52.2104 19.8389H58.75V26.4517H52.2104V19.8389Z" fill="#C6C6C6"/>
<path d="M45.6713 19.8389H52.2109V26.4517H45.6713V19.8389Z" fill="white"/>
<path d="M39.1322 19.8389H45.6719V26.4517H39.1322V19.8389Z" fill="#181425"/>
<path d="M150.097 26.4512H156.637V33.064H150.097V26.4512Z" fill="#181425"/>
<path d="M143.558 26.4512H150.098V33.064H143.558V26.4512Z" fill="#181425"/>
<path d="M137.015 26.4512H143.555V33.064H137.015V26.4512Z" fill="#181425"/>
<path d="M130.581 26.4512H137.121V33.064H130.581V26.4512Z" fill="#181425"/>
<path d="M124.042 26.4512H130.582V33.064H124.042V26.4512Z" fill="white"/>
<path d="M117.503 26.4512H124.043V33.064H117.503V26.4512Z" fill="#C6C6C6"/>
<path d="M110.964 26.4512H117.504V33.064H110.964V26.4512Z" fill="#181425"/>
<path d="M104.425 26.4512H110.965V33.064H104.425V26.4512Z" fill="#E45C00"/>
<path d="M97.8861 26.4512H104.426V33.064H97.8861V26.4512Z" fill="#FF7C06"/>
<path d="M91.3432 26.4512H97.8828V33.064H91.3432V26.4512Z" fill="#FF7C06"/>
<path d="M84.8041 26.4512H91.3438V33.064H84.8041V26.4512Z" fill="#FF7C06"/>
<path d="M78.265 26.4512H84.8047V33.064H78.265V26.4512Z" fill="#FF7C06"/>
<path d="M71.8315 26.4512H78.3711V33.064H71.8315V26.4512Z" fill="#FF7C06"/>
<path d="M65.2924 26.4512H71.832V33.064H65.2924V26.4512Z" fill="#FF7C06"/>
<path d="M58.7533 26.4512H65.293V33.064H58.7533V26.4512Z" fill="#FF7C06"/>
<path d="M52.2104 26.4512H58.75V33.064H52.2104V26.4512Z" fill="#181425"/>
<path d="M45.6713 26.4512H52.2109V33.064H45.6713V26.4512Z" fill="white"/>
<path d="M39.1322 26.4512H45.6719V33.064H39.1322V26.4512Z" fill="#181425"/>
<path d="M32.5932 26.4512H39.1328V33.064H32.5932V26.4512Z" fill="#181425"/>
<path d="M150.097 32.957H156.637V39.5698H150.097V32.957Z" fill="#181425"/>
<path d="M143.558 32.957H150.098V39.5698H143.558V32.957Z" fill="#E45C00"/>
<path d="M137.015 32.957H143.555V39.5698H137.015V32.957Z" fill="#E45C00"/>
<path d="M130.581 32.957H137.121V39.5698H130.581V32.957Z" fill="#181425"/>
<path d="M124.042 32.957H130.582V39.5698H124.042V32.957Z" fill="#181425"/>
<path d="M117.503 32.957H124.043V39.5698H117.503V32.957Z" fill="#181425"/>
<path d="M110.964 32.957H117.504V39.5698H110.964V32.957Z" fill="#E45C00"/>
<path d="M104.425 32.957H110.965V39.5698H104.425V32.957Z" fill="#FF7C06"/>
<path d="M97.8861 32.957H104.426V39.5698H97.8861V32.957Z" fill="#181425"/>
<path d="M91.3432 32.957H97.8828V39.5698H91.3432V32.957Z" fill="#181425"/>
<path d="M84.8041 32.957H91.3438V39.5698H84.8041V32.957Z" fill="#FF7C06"/>
<path d="M78.265 32.957H84.8047V39.5698H78.265V32.957Z" fill="#FF7C06"/>
<path d="M71.8315 32.957H78.3711V39.5698H71.8315V32.957Z" fill="#FF7C06"/>
<path d="M65.2924 32.957H71.832V39.5698H65.2924V32.957Z" fill="#FF7C06"/>
<path d="M58.7533 32.957H65.293V39.5698H58.7533V32.957Z" fill="#181425"/>
<path d="M52.2104 32.957H58.75V39.5698H52.2104V32.957Z" fill="#FF7C06"/>
<path d="M45.6713 32.957H52.2109V39.5698H45.6713V32.957Z" fill="#181425"/>
<path d="M39.1322 32.957H45.6719V39.5698H39.1322V32.957Z" fill="#FF7C06"/>
<path d="M32.5932 32.957H39.1328V39.5698H32.5932V32.957Z" fill="#181425"/>
<path d="M156.636 39.5703H163.176V46.1831H156.636V39.5703Z" fill="#181425"/>
<path d="M150.097 39.5703H156.637V46.1831H150.097V39.5703Z" fill="#E45C00"/>
<path d="M143.558 39.5703H150.098V46.1831H143.558V39.5703Z" fill="#E45C00"/>
<path d="M137.015 39.5703H143.555V46.1831H137.015V39.5703Z" fill="#181425"/>
<path d="M130.581 39.5703H137.121V46.1831H130.581V39.5703Z" fill="#FF7C06"/>
<path d="M124.042 39.5703H130.582V46.1831H124.042V39.5703Z" fill="#181425"/>
<path d="M117.503 39.5703H124.043V46.1831H117.503V39.5703Z" fill="#E45C00"/>
<path d="M110.964 39.5703H117.504V46.1831H110.964V39.5703Z" fill="#E45C00"/>
<path d="M104.425 39.5703H110.965V46.1831H104.425V39.5703Z" fill="#FF7C06"/>
<path d="M97.8861 39.5703H104.426V46.1831H97.8861V39.5703Z" fill="#FF7C06"/>
<path d="M91.3432 39.5703H97.8828V46.1831H91.3432V39.5703Z" fill="#FF7C06"/>
<path d="M84.8041 39.5703H91.3438V46.1831H84.8041V39.5703Z" fill="#FF7C06"/>
<path d="M78.265 39.5703H84.8047V46.1831H78.265V39.5703Z" fill="#FF7C06"/>
<path d="M71.8315 39.5703H78.3711V46.1831H71.8315V39.5703Z" fill="#FF7C06"/>
<path d="M65.2924 39.5703H71.832V46.1831H65.2924V39.5703Z" fill="#FF7C06"/>
<path d="M58.7533 39.5703H65.293V46.1831H58.7533V39.5703Z" fill="#FF7C06"/>
<path d="M52.2104 39.5703H58.75V46.1831H52.2104V39.5703Z" fill="#FF7C06"/>
<path d="M45.6713 39.5703H52.2109V46.1831H45.6713V39.5703Z" fill="#FF7C06"/>
<path d="M39.1322 39.5703H45.6719V46.1831H39.1322V39.5703Z" fill="#181425"/>
<path d="M32.5932 39.5703H39.1328V46.1831H32.5932V39.5703Z" fill="#FF7C06"/>
<path d="M26.0541 39.5703H32.5938V46.1831H26.0541V39.5703Z" fill="#181425"/>
<path d="M156.636 46.1826H163.176V52.7954H156.636V46.1826Z" fill="#181425"/>
<path d="M150.097 46.1826H156.637V52.7954H150.097V46.1826Z" fill="#181425"/>
<path d="M143.558 46.1826H150.098V52.7954H143.558V46.1826Z" fill="#181425"/>
<path d="M137.015 46.1826H143.555V52.7954H137.015V46.1826Z" fill="#181425"/>
<path d="M130.581 46.1826H137.121V52.7954H130.581V46.1826Z" fill="#FF7C06"/>
<path d="M124.042 46.1826H130.582V52.7954H124.042V46.1826Z" fill="#181425"/>
<path d="M117.503 46.1826H124.043V52.7954H117.503V46.1826Z" fill="#E45C00"/>
<path d="M110.964 46.1826H117.504V52.7954H110.964V46.1826Z" fill="#181425"/>
<path d="M104.425 46.1826H110.965V52.7954H104.425V46.1826Z" fill="#181425"/>
<path d="M97.8861 46.1826H104.426V52.7954H97.8861V46.1826Z" fill="#181425"/>
<path d="M91.3432 46.1826H97.8828V52.7954H91.3432V46.1826Z" fill="#181425"/>
<path d="M84.8041 46.1826H91.3438V52.7954H84.8041V46.1826Z" fill="#FF7C06"/>
<path d="M78.265 46.1826H84.8047V52.7954H78.265V46.1826Z" fill="#FF7C06"/>
<path d="M71.8315 46.1826H78.3711V52.7954H71.8315V46.1826Z" fill="#FF7C06"/>
<path d="M65.2924 46.1826H71.832V52.7954H65.2924V46.1826Z" fill="#FF7C06"/>
<path d="M58.7533 46.1826H65.293V52.7954H58.7533V46.1826Z" fill="#FF7C06"/>
<path d="M52.2104 46.1826H58.75V52.7954H52.2104V46.1826Z" fill="#181425"/>
<path d="M45.6713 46.1826H52.2109V52.7954H45.6713V46.1826Z" fill="#181425"/>
<path d="M39.1322 46.1826H45.6719V52.7954H39.1322V46.1826Z" fill="#181425"/>
<path d="M32.5932 46.1826H39.1328V52.7954H32.5932V46.1826Z" fill="#FF7C06"/>
<path d="M26.0541 46.1826H32.5938V52.7954H26.0541V46.1826Z" fill="#181425"/>
<path d="M163.175 52.7959H169.715V59.4087H163.175V52.7959Z" fill="#181425"/>
<path d="M156.636 52.7959H163.176V59.4087H156.636V52.7959Z" fill="#C6C6C6"/>
<path d="M150.097 52.7959H156.637V59.4087H150.097V52.7959Z" fill="white"/>
<path d="M143.558 52.7959H150.098V59.4087H143.558V52.7959Z" fill="#181425"/>
<path d="M137.015 52.7959H143.555V59.4087H137.015V52.7959Z" fill="white"/>
<path d="M130.581 52.7959H137.121V59.4087H130.581V52.7959Z" fill="#181425"/>
<path d="M124.042 52.7959H130.582V59.4087H124.042V52.7959Z" fill="#181425"/>
<path d="M117.503 52.7959H124.043V59.4087H117.503V52.7959Z" fill="#181425"/>
<path d="M110.964 52.7959H117.504V59.4087H110.964V52.7959Z" fill="#181425"/>
<path d="M104.425 52.7959H110.965V59.4087H104.425V52.7959Z" fill="#181425"/>
<path d="M97.8861 52.7959H104.426V59.4087H97.8861V52.7959Z" fill="#181425"/>
<path d="M91.3432 52.7959H97.8828V59.4087H91.3432V52.7959Z" fill="#181425"/>
<path d="M84.8041 52.7959H91.3438V59.4087H84.8041V52.7959Z" fill="#181425"/>
<path d="M78.265 52.7959H84.8047V59.4087H78.265V52.7959Z" fill="#FF7C06"/>
<path d="M71.8315 52.7959H78.3711V59.4087H71.8315V52.7959Z" fill="#FF7C06"/>
<path d="M65.2924 52.7959H71.832V59.4087H65.2924V52.7959Z" fill="#FF7C06"/>
<path d="M58.7533 52.7959H65.293V59.4087H58.7533V52.7959Z" fill="#181425"/>
<path d="M52.2104 52.7959H58.75V59.4087H52.2104V52.7959Z" fill="#181425"/>
<path d="M45.6713 52.7959H52.2109V59.4087H45.6713V52.7959Z" fill="#181425"/>
<path d="M39.1322 52.7959H45.6719V59.4087H39.1322V52.7959Z" fill="#181425"/>
<path d="M32.5932 52.7959H39.1328V59.4087H32.5932V52.7959Z" fill="#181425"/>
<path d="M26.0541 52.7959H32.5938V59.4087H26.0541V52.7959Z" fill="white"/>
<path d="M19.515 52.7959H26.0547V59.4087H19.515V52.7959Z" fill="#181425"/>
<path d="M163.175 59.4082H169.715V66.021H163.175V59.4082Z" fill="#181425"/>
<path d="M156.636 59.4082H163.176V66.021H156.636V59.4082Z" fill="#C6C6C6"/>
<path d="M150.097 59.4082H156.637V66.021H150.097V59.4082Z" fill="white"/>
<path d="M143.558 59.4082H150.098V66.021H143.558V59.4082Z" fill="#181425"/>
<path d="M137.015 59.4082H143.555V66.021H137.015V59.4082Z" fill="white"/>
<path d="M130.581 59.4082H137.121V66.021H130.581V59.4082Z" fill="#181425"/>
<path d="M124.042 59.4082H130.582V66.021H124.042V59.4082Z" fill="#181425"/>
<path d="M117.503 59.4082H124.043V66.021H117.503V59.4082Z" fill="#181425"/>
<path d="M110.964 59.4082H117.504V66.021H110.964V59.4082Z" fill="#181425"/>
<path d="M104.425 59.4082H110.965V66.021H104.425V59.4082Z" fill="white"/>
<path d="M97.8861 59.4082H104.426V66.021H97.8861V59.4082Z" fill="#3978A8"/>
<path d="M91.3432 59.4082H97.8828V66.021H91.3432V59.4082Z" fill="#3978A8"/>
<path d="M84.8041 59.4082H91.3438V66.021H84.8041V59.4082Z" fill="#181425"/>
<path d="M78.265 59.4082H84.8047V66.021H78.265V59.4082Z" fill="#181425"/>
<path d="M71.8315 59.4082H78.3711V66.021H71.8315V59.4082Z" fill="#181425"/>
<path d="M65.2924 59.4082H71.832V66.021H65.2924V59.4082Z" fill="#181425"/>
<path d="M58.7533 59.4082H65.293V66.021H58.7533V59.4082Z" fill="#181425"/>
<path d="M52.2104 59.4082H58.75V66.021H52.2104V59.4082Z" fill="#181425"/>
<path d="M45.6713 59.4082H52.2109V66.021H45.6713V59.4082Z" fill="#3978A8"/>
<path d="M39.1322 59.4082H45.6719V66.021H39.1322V59.4082Z" fill="#3978A8"/>
<path d="M32.5932 59.4082H39.1328V66.021H32.5932V59.4082Z" fill="#181425"/>
<path d="M26.0541 59.4082H32.5938V66.021H26.0541V59.4082Z" fill="white"/>
<path d="M19.515 59.4082H26.0547V66.021H19.515V59.4082Z" fill="#181425"/>
<path d="M163.175 66.0215H169.715V72.6343H163.175V66.0215Z" fill="#181425"/>
<path d="M156.636 66.0215H163.176V72.6343H156.636V66.0215Z" fill="#C6C6C6"/>
<path d="M150.097 66.0215H156.637V72.6343H150.097V66.0215Z" fill="white"/>
<path d="M143.558 66.0215H150.098V72.6343H143.558V66.0215Z" fill="#181425"/>
<path d="M137.015 66.0215H143.555V72.6343H137.015V66.0215Z" fill="white"/>
<path d="M130.581 66.0215H137.121V72.6343H130.581V66.0215Z" fill="#181425"/>
<path d="M124.042 66.0215H130.582V72.6343H124.042V66.0215Z" fill="#E45C00"/>
<path d="M117.503 66.0215H124.043V72.6343H117.503V66.0215Z" fill="#181425"/>
<path d="M110.964 66.0215H117.504V72.6343H110.964V66.0215Z" fill="white"/>
<path d="M104.425 66.0215H110.965V72.6343H104.425V66.0215Z" fill="white"/>
<path d="M97.8861 66.0215H104.426V72.6343H97.8861V66.0215Z" fill="#3978A8"/>
<path d="M91.3432 66.0215H97.8828V72.6343H91.3432V66.0215Z" fill="#394778"/>
<path d="M84.8041 66.0215H91.3438V72.6343H84.8041V66.0215Z" fill="white"/>
<path d="M78.265 66.0215H84.8047V72.6343H78.265V66.0215Z" fill="#181425"/>
<path d="M71.8315 66.0215H78.3711V72.6343H71.8315V66.0215Z" fill="#181425"/>
<path d="M65.2924 66.0215H71.832V72.6343H65.2924V66.0215Z" fill="#181425"/>
<path d="M58.7533 66.0215H65.293V72.6343H58.7533V66.0215Z" fill="#181425"/>
<path d="M52.2104 66.0215H58.75V72.6343H52.2104V66.0215Z" fill="white"/>
<path d="M45.6713 66.0215H52.2109V72.6343H45.6713V66.0215Z" fill="#394778"/>
<path d="M39.1322 66.0215H45.6719V72.6343H39.1322V66.0215Z" fill="#3978A8"/>
<path d="M32.5932 66.0215H39.1328V72.6343H32.5932V66.0215Z" fill="#181425"/>
<path d="M26.0541 66.0215H32.5938V72.6343H26.0541V66.0215Z" fill="white"/>
<path d="M19.515 66.0215H26.0547V72.6343H19.515V66.0215Z" fill="#181425"/>
<path d="M163.175 72.6338H169.715V79.2466H163.175V72.6338Z" fill="#181425"/>
<path d="M156.636 72.6338H163.176V79.2466H156.636V72.6338Z" fill="#C6C6C6"/>
<path d="M150.097 72.6338H156.637V79.2466H150.097V72.6338Z" fill="white"/>
<path d="M143.558 72.6338H150.098V79.2466H143.558V72.6338Z" fill="#181425"/>
<path d="M137.015 72.6338H143.555V79.2466H137.015V72.6338Z" fill="white"/>
<path d="M130.581 72.6338H137.121V79.2466H130.581V72.6338Z" fill="#181425"/>
<path d="M124.042 72.6338H130.582V79.2466H124.042V72.6338Z" fill="#E45C00"/>
<path d="M117.503 72.6338H124.043V79.2466H117.503V72.6338Z" fill="#181425"/>
<path d="M110.964 72.6338H117.504V79.2466H110.964V72.6338Z" fill="#181425"/>
<path d="M104.425 72.6338H110.965V79.2466H104.425V72.6338Z" fill="white"/>
<path d="M97.8861 72.6338H104.426V79.2466H97.8861V72.6338Z" fill="white"/>
<path d="M91.3432 72.6338H97.8828V79.2466H91.3432V72.6338Z" fill="#394778"/>
<path d="M84.8041 72.6338H91.3438V79.2466H84.8041V72.6338Z" fill="#181425"/>
<path d="M78.265 72.6338H84.8047V79.2466H78.265V72.6338Z" fill="#181425"/>
<path d="M71.8315 72.6338H78.3711V79.2466H71.8315V72.6338Z" fill="#FF7C06"/>
<path d="M65.2924 72.6338H71.832V79.2466H65.2924V72.6338Z" fill="#FF7C06"/>
<path d="M58.7533 72.6338H65.293V79.2466H58.7533V72.6338Z" fill="#181425"/>
<path d="M52.2104 72.6338H58.75V79.2466H52.2104V72.6338Z" fill="#181425"/>
<path d="M45.6713 72.6338H52.2109V79.2466H45.6713V72.6338Z" fill="#394778"/>
<path d="M39.1322 72.6338H45.6719V79.2466H39.1322V72.6338Z" fill="#181425"/>
<path d="M32.5932 72.6338H39.1328V79.2466H32.5932V72.6338Z" fill="#181425"/>
<path d="M26.0541 72.6338H32.5938V79.2466H26.0541V72.6338Z" fill="white"/>
<path d="M19.515 72.6338H26.0547V79.2466H19.515V72.6338Z" fill="#181425"/>
<path d="M156.636 79.2471H163.176V85.8599H156.636V79.2471Z" fill="#181425"/>
<path d="M150.097 79.2471H156.637V85.8599H150.097V79.2471Z" fill="#181425"/>
<path d="M143.558 79.2471H150.098V85.8599H143.558V79.2471Z" fill="#181425"/>
<path d="M137.015 79.2471H143.555V85.8599H137.015V79.2471Z" fill="#181425"/>
<path d="M130.581 79.2471H137.121V85.8599H130.581V79.2471Z" fill="#FF7C06"/>
<path d="M124.042 79.2471H130.582V85.8599H124.042V79.2471Z" fill="#181425"/>
<path d="M117.503 79.2471H124.043V85.8599H117.503V79.2471Z" fill="#E45C00"/>
<path d="M110.964 79.2471H117.504V85.8599H110.964V79.2471Z" fill="#181425"/>
<path d="M104.425 79.2471H110.965V85.8599H104.425V79.2471Z" fill="#181425"/>
<path d="M97.8861 79.2471H104.426V85.8599H97.8861V79.2471Z" fill="#181425"/>
<path d="M91.3432 79.2471H97.8828V85.8599H91.3432V79.2471Z" fill="#181425"/>
<path d="M84.8041 79.2471H91.3438V85.8599H84.8041V79.2471Z" fill="#181425"/>
<path d="M78.265 79.2471H84.8047V85.8599H78.265V79.2471Z" fill="#FF7C06"/>
<path d="M71.8315 79.2471H78.3711V85.8599H71.8315V79.2471Z" fill="#FF7C06"/>
<path d="M65.2924 79.2471H71.832V85.8599H65.2924V79.2471Z" fill="#FF7C06"/>
<path d="M58.7533 79.2471H65.293V85.8599H58.7533V79.2471Z" fill="#FF7C06"/>
<path d="M52.2104 79.2471H58.75V85.8599H52.2104V79.2471Z" fill="#181425"/>
<path d="M45.6713 79.2471H52.2109V85.8599H45.6713V79.2471Z" fill="#181425"/>
<path d="M39.1322 79.2471H45.6719V85.8599H39.1322V79.2471Z" fill="#181425"/>
<path d="M32.5932 79.2471H39.1328V85.8599H32.5932V79.2471Z" fill="#FF7C06"/>
<path d="M26.0541 79.2471H32.5938V85.8599H26.0541V79.2471Z" fill="#181425"/>
<path d="M156.636 85.8594H163.176V92.4722H156.636V85.8594Z" fill="#181425"/>
<path d="M150.097 85.8594H156.637V92.4722H150.097V85.8594Z" fill="#262B44"/>
<path d="M143.558 85.8594H150.098V92.4722H143.558V85.8594Z" fill="#262B44"/>
<path d="M137.015 85.8594H143.555V92.4722H137.015V85.8594Z" fill="#181425"/>
<path d="M130.581 85.8594H137.121V92.4722H130.581V85.8594Z" fill="#FF7C06"/>
<path d="M124.042 85.8594H130.582V92.4722H124.042V85.8594Z" fill="#181425"/>
<path d="M117.503 85.8594H124.043V92.4722H117.503V85.8594Z" fill="#E45C00"/>
<path d="M110.964 85.8594H117.504V92.4722H110.964V85.8594Z" fill="#E45C00"/>
<path d="M104.425 85.8594H110.965V92.4722H104.425V85.8594Z" fill="#181425"/>
<path d="M97.8861 85.8594H104.426V92.4722H97.8861V85.8594Z" fill="#181425"/>
<path d="M91.3432 85.8594H97.8828V92.4722H91.3432V85.8594Z" fill="#181425"/>
<path d="M84.8041 85.8594H91.3438V92.4722H84.8041V85.8594Z" fill="#FF7C06"/>
<path d="M78.265 85.8594H84.8047V92.4722H78.265V85.8594Z" fill="#FF7C06"/>
<path d="M71.8315 85.8594H78.3711V92.4722H71.8315V85.8594Z" fill="#FF7C06"/>
<path d="M65.2924 85.8594H71.832V92.4722H65.2924V85.8594Z" fill="#FF7C06"/>
<path d="M58.7533 85.8594H65.293V92.4722H58.7533V85.8594Z" fill="#181425"/>
<path d="M52.2104 85.8594H58.75V92.4722H52.2104V85.8594Z" fill="#FF7C06"/>
<path d="M45.6713 85.8594H52.2109V92.4722H45.6713V85.8594Z" fill="#181425"/>
<path d="M39.1322 85.8594H45.6719V92.4722H39.1322V85.8594Z" fill="#181425"/>
<path d="M32.5932 85.8594H39.1328V92.4722H32.5932V85.8594Z" fill="#FF7C06"/>
<path d="M26.0541 85.8594H32.5938V92.4722H26.0541V85.8594Z" fill="#181425"/>
<path d="M163.175 92.3662H169.715V98.979H163.175V92.3662Z" fill="#181425"/>
<path d="M156.636 92.3662H163.176V98.979H156.636V92.3662Z" fill="#262B44"/>
<path d="M150.097 92.3662H156.637V98.979H150.097V92.3662Z" fill="#262B44"/>
<path d="M143.558 92.3662H150.098V98.979H143.558V92.3662Z" fill="#181425"/>
<path d="M137.015 92.3662H143.555V98.979H137.015V92.3662Z" fill="#E45C00"/>
<path d="M130.581 92.3662H137.121V98.979H130.581V92.3662Z" fill="#181425"/>
<path d="M124.042 92.3662H130.582V98.979H124.042V92.3662Z" fill="#181425"/>
<path d="M117.503 92.3662H124.043V98.979H117.503V92.3662Z" fill="#181425"/>
<path d="M110.964 92.3662H117.504V98.979H110.964V92.3662Z" fill="#E45C00"/>
<path d="M104.425 92.3662H110.965V98.979H104.425V92.3662Z" fill="#FF7C06"/>
<path d="M97.8861 92.3662H104.426V98.979H97.8861V92.3662Z" fill="#FF7C06"/>
<path d="M91.3432 92.3662H97.8828V98.979H91.3432V92.3662Z" fill="#FF7C06"/>
<path d="M84.8041 92.3662H91.3438V98.979H84.8041V92.3662Z" fill="#FF7C06"/>
<path d="M78.265 92.3662H84.8047V98.979H78.265V92.3662Z" fill="#181425"/>
<path d="M71.8315 92.3662H78.3711V98.979H71.8315V92.3662Z" fill="#181425"/>
<path d="M65.2924 92.3662H71.832V98.979H65.2924V92.3662Z" fill="#181425"/>
<path d="M58.7533 92.3662H65.293V98.979H58.7533V92.3662Z" fill="#FF7C06"/>
<path d="M52.2104 92.3662H58.75V98.979H52.2104V92.3662Z" fill="#FF7C06"/>
<path d="M45.6713 92.3662H52.2109V98.979H45.6713V92.3662Z" fill="#181425"/>
<path d="M39.1322 92.3662H45.6719V98.979H39.1322V92.3662Z" fill="#FF7C06"/>
<path d="M32.5932 92.3662H39.1328V98.979H32.5932V92.3662Z" fill="#181425"/>
<path d="M26.0541 92.3662H32.5938V98.979H26.0541V92.3662Z" fill="#262B44"/>
<path d="M19.515 92.3662H26.0547V98.979H19.515V92.3662Z" fill="#181425"/>
<path d="M163.175 98.9785H169.715V105.591H163.175V98.9785Z" fill="#181425"/>
<path d="M156.636 98.9785H163.176V105.591H156.636V98.9785Z" fill="#262B44"/>
<path d="M150.097 98.9785H156.637V105.591H150.097V98.9785Z" fill="#181425"/>
<path d="M143.558 98.9785H150.098V105.591H143.558V98.9785Z" fill="#181425"/>
<path d="M137.015 98.9785H143.555V105.591H137.015V98.9785Z" fill="#181425"/>
<path d="M130.581 98.9785H137.121V105.591H130.581V98.9785Z" fill="#181425"/>
<path d="M124.042 98.9785H130.582V105.591H124.042V98.9785Z" fill="white"/>
<path d="M117.503 98.9785H124.043V105.591H117.503V98.9785Z" fill="white"/>
<path d="M110.964 98.9785H117.504V105.591H110.964V98.9785Z" fill="#181425"/>
<path d="M104.425 98.9785H110.965V105.591H104.425V98.9785Z" fill="#E45C00"/>
<path d="M97.8861 98.9785H104.426V105.591H97.8861V98.9785Z" fill="#FF7C06"/>
<path d="M91.3432 98.9785H97.8828V105.591H91.3432V98.9785Z" fill="#FF7C06"/>
<path d="M84.8041 98.9785H91.3438V105.591H84.8041V98.9785Z" fill="#FF7C06"/>
<path d="M78.265 98.9785H84.8047V105.591H78.265V98.9785Z" fill="#FF7C06"/>
<path d="M71.8315 98.9785H78.3711V105.591H71.8315V98.9785Z" fill="#FF7C06"/>
<path d="M65.2924 98.9785H71.832V105.591H65.2924V98.9785Z" fill="#FF7C06"/>
<path d="M58.7533 98.9785H65.293V105.591H58.7533V98.9785Z" fill="#FF7C06"/>
<path d="M52.2104 98.9785H58.75V105.591H52.2104V98.9785Z" fill="#181425"/>
<path d="M45.6713 98.9785H52.2109V105.591H45.6713V98.9785Z" fill="white"/>
<path d="M39.1322 98.9785H45.6719V105.591H39.1322V98.9785Z" fill="#181425"/>
<path d="M32.5932 98.9785H39.1328V105.591H32.5932V98.9785Z" fill="#181425"/>
<path d="M26.0541 98.9785H32.5938V105.591H26.0541V98.9785Z" fill="#262B44"/>
<path d="M19.515 98.9785H26.0547V105.591H19.515V98.9785Z" fill="#181425"/>
<path d="M12.976 98.9785H19.5156V105.591H12.976V98.9785Z" fill="#181425"/>
<path d="M6.53848 98.9785H13.0781V105.591H6.53848V98.9785Z" fill="#181425"/>
<path d="M156.636 105.592H163.176V112.205H156.636V105.592Z" fill="#181425"/>
<path d="M150.097 105.592H156.637V112.205H150.097V105.592Z" fill="#C6C6C6"/>
<path d="M143.558 105.592H150.098V112.205H143.558V105.592Z" fill="white"/>
<path d="M137.015 105.592H143.555V112.205H137.015V105.592Z" fill="white"/>
<path d="M130.581 105.592H137.121V112.205H130.581V105.592Z" fill="#181425"/>
<path d="M124.042 105.592H130.582V112.205H124.042V105.592Z" fill="#181425"/>
<path d="M117.503 105.592H124.043V112.205H117.503V105.592Z" fill="#C6C6C6"/>
<path d="M110.964 105.592H117.504V112.205H110.964V105.592Z" fill="white"/>
<path d="M104.425 105.592H110.965V112.205H104.425V105.592Z" fill="#181425"/>
<path d="M97.8861 105.592H104.426V112.205H97.8861V105.592Z" fill="#E45C00"/>
<path d="M91.3432 105.592H97.8828V112.205H91.3432V105.592Z" fill="#E45C00"/>
<path d="M84.8041 105.592H91.3438V112.205H84.8041V105.592Z" fill="#FF7C06"/>
<path d="M78.265 105.592H84.8047V112.205H78.265V105.592Z" fill="#FF7C06"/>
<path d="M71.8315 105.592H78.3711V112.205H71.8315V105.592Z" fill="#FF7C06"/>
<path d="M65.2924 105.592H71.832V112.205H65.2924V105.592Z" fill="#FF7C06"/>
<path d="M58.7533 105.592H65.293V112.205H58.7533V105.592Z" fill="#181425"/>
<path d="M52.2104 105.592H58.75V112.205H52.2104V105.592Z" fill="white"/>
<path d="M45.6713 105.592H52.2109V112.205H45.6713V105.592Z" fill="white"/>
<path d="M39.1322 105.592H45.6719V112.205H39.1322V105.592Z" fill="#181425"/>
<path d="M26.0541 105.592H32.5938V112.205H26.0541V105.592Z" fill="#181425"/>
<path d="M19.515 105.592H26.0547V112.205H19.515V105.592Z" fill="#C6C6C6"/>
<path d="M12.976 105.592H19.5156V112.205H12.976V105.592Z" fill="white"/>
<path d="M6.53848 105.592H13.0781V112.205H6.53848V105.592Z" fill="white"/>
<path d="M-0.000579357 105.592H6.53906V112.205H-0.000579357V105.592Z" fill="#181425"/>
<path d="M156.636 112.204H163.176V118.817H156.636V112.204Z" fill="#181425"/>
<path d="M150.097 112.204H156.637V118.817H150.097V112.204Z" fill="#C6C6C6"/>
<path d="M143.558 112.204H150.098V118.817H143.558V112.204Z" fill="white"/>
<path d="M137.015 112.204H143.555V118.817H137.015V112.204Z" fill="white"/>
<path d="M130.581 112.204H137.121V118.817H130.581V112.204Z" fill="#181425"/>
<path d="M124.042 112.204H130.582V118.817H124.042V112.204Z" fill="#C6C6C6"/>
<path d="M117.503 112.204H124.043V118.817H117.503V112.204Z" fill="#181425"/>
<path d="M110.964 112.204H117.504V118.817H110.964V112.204Z" fill="white"/>
<path d="M104.425 112.204H110.965V118.817H104.425V112.204Z" fill="#181425"/>
<path d="M97.8861 112.204H104.426V118.817H97.8861V112.204Z" fill="#181425"/>
<path d="M91.3432 112.204H97.8828V118.817H91.3432V112.204Z" fill="#181425"/>
<path d="M84.8041 112.204H91.3438V118.817H84.8041V112.204Z" fill="#181425"/>
<path d="M78.265 112.204H84.8047V118.817H78.265V112.204Z" fill="#181425"/>
<path d="M71.8315 112.204H78.3711V118.817H71.8315V112.204Z" fill="#181425"/>
<path d="M65.2924 112.204H71.832V118.817H65.2924V112.204Z" fill="#181425"/>
<path d="M58.7533 112.204H65.293V118.817H58.7533V112.204Z" fill="white"/>
<path d="M52.2104 112.204H58.75V118.817H52.2104V112.204Z" fill="white"/>
<path d="M45.6713 112.204H52.2109V118.817H45.6713V112.204Z" fill="#181425"/>
<path d="M26.0541 112.204H32.5938V118.817H26.0541V112.204Z" fill="#181425"/>
<path d="M19.515 112.204H26.0547V118.817H19.515V112.204Z" fill="#C6C6C6"/>
<path d="M12.976 112.204H19.5156V118.817H12.976V112.204Z" fill="white"/>
<path d="M6.53848 112.204H13.0781V118.817H6.53848V112.204Z" fill="white"/>
<path d="M-0.000579357 112.204H6.53906V118.817H-0.000579357V112.204Z" fill="#181425"/>
<path d="M156.636 118.817H163.176V125.43H156.636V118.817Z" fill="#181425"/>
<path d="M150.097 118.817H156.637V125.43H150.097V118.817Z" fill="#C6C6C6"/>
<path d="M143.558 118.817H150.098V125.43H143.558V118.817Z" fill="white"/>
<path d="M137.015 118.817H143.555V125.43H137.015V118.817Z" fill="white"/>
<path d="M130.581 118.817H137.121V125.43H130.581V118.817Z" fill="#181425"/>
<path d="M124.042 118.817H130.582V125.43H124.042V118.817Z" fill="#181425"/>
<path d="M117.503 118.817H124.043V125.43H117.503V118.817Z" fill="#181425"/>
<path d="M110.964 118.817H117.504V125.43H110.964V118.817Z" fill="#181425"/>
<path d="M104.425 118.817H110.965V125.43H104.425V118.817Z" fill="#181425"/>
<path d="M97.8861 118.817H104.426V125.43H97.8861V118.817Z" fill="#E45C00"/>
<path d="M91.3432 118.817H97.8828V125.43H91.3432V118.817Z" fill="#E45C00"/>
<path d="M84.8041 118.817H91.3438V125.43H84.8041V118.817Z" fill="#E45C00"/>
<path d="M78.265 118.817H84.8047V125.43H78.265V118.817Z" fill="#FF7C06"/>
<path d="M71.8315 118.817H78.3711V125.43H71.8315V118.817Z" fill="#FF7C06"/>
<path d="M65.2924 118.817H71.832V125.43H65.2924V118.817Z" fill="#181425"/>
<path d="M58.7533 118.817H65.293V125.43H58.7533V118.817Z" fill="#181425"/>
<path d="M52.2104 118.817H58.75V125.43H52.2104V118.817Z" fill="#181425"/>
<path d="M26.0541 118.817H32.5938V125.43H26.0541V118.817Z" fill="#181425"/>
<path d="M19.515 118.817H26.0547V125.43H19.515V118.817Z" fill="#C6C6C6"/>
<path d="M12.976 118.817H19.5156V125.43H12.976V118.817Z" fill="white"/>
<path d="M6.53848 118.817H13.0781V125.43H6.53848V118.817Z" fill="white"/>
<path d="M-0.000579357 118.817H6.53906V125.43H-0.000579357V118.817Z" fill="#181425"/>
<path d="M150.097 125.43H156.637V132.042H150.097V125.43Z" fill="#181425"/>
<path d="M143.558 125.43H150.098V132.042H143.558V125.43Z" fill="#181425"/>
<path d="M137.015 125.43H143.555V132.042H137.015V125.43Z" fill="#181425"/>
<path d="M124.042 125.43H130.582V132.042H124.042V125.43Z" fill="#181425"/>
<path d="M117.503 125.43H124.043V132.042H117.503V125.43Z" fill="#262B44"/>
<path d="M110.964 125.43H117.504V132.042H110.964V125.43Z" fill="#181425"/>
<path d="M104.425 125.43H110.965V132.042H104.425V125.43Z" fill="#181425"/>
<path d="M97.8861 125.43H104.426V132.042H97.8861V125.43Z" fill="#181425"/>
<path d="M91.3432 125.43H97.8828V132.042H91.3432V125.43Z" fill="#181425"/>
<path d="M84.8041 125.43H91.3438V132.042H84.8041V125.43Z" fill="#181425"/>
<path d="M78.265 125.43H84.8047V132.042H78.265V125.43Z" fill="#181425"/>
<path d="M71.8315 125.43H78.3711V132.042H71.8315V125.43Z" fill="#181425"/>
<path d="M65.2924 125.43H71.832V132.042H65.2924V125.43Z" fill="#181425"/>
<path d="M58.7533 125.43H65.293V132.042H58.7533V125.43Z" fill="#262B44"/>
<path d="M52.2104 125.43H58.75V132.042H52.2104V125.43Z" fill="#181425"/>
<path d="M19.515 125.43H26.0547V132.042H19.515V125.43Z" fill="#181425"/>
<path d="M12.976 125.43H19.5156V132.042H12.976V125.43Z" fill="#181425"/>
<path d="M6.53848 125.43H13.0781V132.042H6.53848V125.43Z" fill="#181425"/>
<path d="M124.042 132.043H130.582V138.656H124.042V132.043Z" fill="#181425"/>
<path d="M117.503 132.043H124.043V138.656H117.503V132.043Z" fill="#262B44"/>
<path d="M110.964 132.043H117.504V138.656H110.964V132.043Z" fill="#181425"/>
<path d="M65.2924 132.043H71.832V138.656H65.2924V132.043Z" fill="#181425"/>
<path d="M58.7533 132.043H65.293V138.656H58.7533V132.043Z" fill="#262B44"/>
<path d="M52.2104 132.043H58.75V138.656H52.2104V132.043Z" fill="#262B44"/>
<path d="M45.6713 132.043H52.2109V138.656H45.6713V132.043Z" fill="#181425"/>
<path d="M130.581 138.655H137.121V145.268H130.581V138.655Z" fill="#181425"/>
<path d="M124.042 138.655H130.582V145.268H124.042V138.655Z" fill="#181425"/>
<path d="M117.503 138.655H124.043V145.268H117.503V138.655Z" fill="#181425"/>
<path d="M110.964 138.655H117.504V145.268H110.964V138.655Z" fill="#181425"/>
<path d="M58.7533 138.655H65.293V145.268H58.7533V138.655Z" fill="#181425"/>
<path d="M52.2104 138.655H58.75V145.268H52.2104V138.655Z" fill="#181425"/>
<path d="M45.6713 138.655H52.2109V145.268H45.6713V138.655Z" fill="#181425"/>
<path d="M39.1322 138.655H45.6719V145.268H39.1322V138.655Z" fill="#181425"/>
<path d="M137.015 145.269H143.555V151.881H137.015V145.269Z" fill="#181425"/>
<path d="M130.581 145.269H137.121V151.881H130.581V145.269Z" fill="#FF7C06"/>
<path d="M124.042 145.269H130.582V151.881H124.042V145.269Z" fill="white"/>
<path d="M117.503 145.269H124.043V151.881H117.503V145.269Z" fill="white"/>
<path d="M110.964 145.269H117.504V151.881H110.964V145.269Z" fill="#FF7C06"/>
<path d="M104.425 145.269H110.965V151.881H104.425V145.269Z" fill="#181425"/>
<path d="M65.2924 145.269H71.832V151.881H65.2924V145.269Z" fill="#181425"/>
<path d="M58.7533 145.269H65.293V151.881H58.7533V145.269Z" fill="#FF7C06"/>
<path d="M52.2104 145.269H58.75V151.881H52.2104V145.269Z" fill="#FF7C06"/>
<path d="M45.6713 145.269H52.2109V151.881H45.6713V145.269Z" fill="white"/>
<path d="M39.1322 145.269H45.6719V151.881H39.1322V145.269Z" fill="white"/>
<path d="M32.5932 145.269H39.1328V151.881H32.5932V145.269Z" fill="#181425"/>
<path d="M137.015 151.881H143.555V158.494H137.015V151.881Z" fill="#181425"/>
<path d="M130.581 151.881H137.121V158.494H130.581V151.881Z" fill="#E45C00"/>
<path d="M124.042 151.881H130.582V158.494H124.042V151.881Z" fill="#E45C00"/>
<path d="M117.503 151.881H124.043V158.494H117.503V151.881Z" fill="#E45C00"/>
<path d="M110.964 151.881H117.504V158.494H110.964V151.881Z" fill="#E45C00"/>
<path d="M104.425 151.881H110.965V158.494H104.425V151.881Z" fill="#181425"/>
<path d="M65.2924 151.881H71.832V158.494H65.2924V151.881Z" fill="#181425"/>
<path d="M58.7533 151.881H65.293V158.494H58.7533V151.881Z" fill="#E45C00"/>
<path d="M52.2104 151.881H58.75V158.494H52.2104V151.881Z" fill="#E45C00"/>
<path d="M45.6713 151.881H52.2109V158.494H45.6713V151.881Z" fill="#E45C00"/>
<path d="M39.1322 151.881H45.6719V158.494H39.1322V151.881Z" fill="#E45C00"/>
<path d="M32.5932 151.881H39.1328V158.494H32.5932V151.881Z" fill="#E45C00"/>
<path d="M26.0541 151.881H32.5938V158.494H26.0541V151.881Z" fill="#181425"/>
<path d="M137.015 158.387H143.555V165H137.015V158.387Z" fill="#181425"/>
<path d="M130.581 158.387H137.121V165H130.581V158.387Z" fill="#181425"/>
<path d="M124.042 158.387H130.582V165H124.042V158.387Z" fill="#181425"/>
<path d="M117.503 158.387H124.043V165H117.503V158.387Z" fill="#181425"/>
<path d="M110.964 158.387H117.504V165H110.964V158.387Z" fill="#181425"/>
<path d="M104.425 158.387H110.965V165H104.425V158.387Z" fill="#181425"/>
<path d="M65.2924 158.387H71.832V165H65.2924V158.387Z" fill="#181425"/>
<path d="M58.7533 158.387H65.293V165H58.7533V158.387Z" fill="#181425"/>
<path d="M52.2104 158.387H58.75V165H52.2104V158.387Z" fill="#181425"/>
<path d="M45.6713 158.387H52.2109V165H45.6713V158.387Z" fill="#181425"/>
<path d="M39.1322 158.387H45.6719V165H39.1322V158.387Z" fill="#181425"/>
<path d="M32.5932 158.387H39.1328V165H32.5932V158.387Z" fill="#181425"/>
<path d="M26.0541 158.387H32.5938V165H26.0541V158.387Z" fill="#181425"/>
</g>
<defs>
<clipPath id="clip0_2968_174697">
<rect width="169.714" height="165" fill="white" transform="matrix(-1 0 0 1 169.715 0)"/>
</clipPath>
</defs>
</svg>
