<svg width="214" height="198" viewBox="0 0 214 198" fill="none" xmlns="http://www.w3.org/2000/svg">
<g opacity="0.15" clip-path="url(#clip0_175_8938)" filter="url(#filter0_d_175_8938)">
<path d="M189.154 0H199.459V10.4202H189.154V0Z" fill="#181425"/>
<path d="M178.849 0H189.154V10.4202H178.849V0Z" fill="#181425"/>
<path d="M168.545 0H178.85V10.4202H168.545V0Z" fill="#181425"/>
<path d="M158.24 0H168.545V10.4202H158.24V0Z" fill="#181425"/>
<path d="M147.935 0H158.24V10.4202H147.935V0Z" fill="#181425"/>
<path d="M137.631 0H147.936V10.4202H137.631V0Z" fill="#181425"/>
<path d="M127.326 0H137.631V10.4202H127.326V0Z" fill="#181425"/>
<path d="M117.187 0H127.492V10.4202H117.187V0Z" fill="#181425"/>
<path d="M106.883 0H117.188V10.4202H106.883V0Z" fill="#181425"/>
<path d="M209.765 10.4204H220.07V20.8406H209.765V10.4204Z" fill="#181425"/>
<path d="M199.459 10.4204H209.764V20.8406H199.459V10.4204Z" fill="#181425"/>
<path d="M189.154 10.4204H199.459V20.8406H189.154V10.4204Z" fill="#E45C00"/>
<path d="M178.849 10.4204H189.154V20.8406H178.849V10.4204Z" fill="#181425"/>
<path d="M168.545 10.4204H178.85V20.8406H168.545V10.4204Z" fill="#181425"/>
<path d="M158.24 10.4204H168.545V20.8406H158.24V10.4204Z" fill="#E45C00"/>
<path d="M147.935 10.4204H158.24V20.8406H147.935V10.4204Z" fill="#E45C00"/>
<path d="M137.631 10.4204H147.936V20.8406H137.631V10.4204Z" fill="#E45C00"/>
<path d="M127.326 10.4204H137.631V20.8406H127.326V10.4204Z" fill="#FF7C06"/>
<path d="M117.187 10.4204H127.492V20.8406H117.187V10.4204Z" fill="#FF7C06"/>
<path d="M106.883 10.4204H117.188V20.8406H106.883V10.4204Z" fill="#181425"/>
<path d="M96.5779 10.4204H106.883V20.8406H96.5779V10.4204Z" fill="#181425"/>
<path d="M86.2713 10.4204H96.5762V20.8406H86.2713V10.4204Z" fill="#181425"/>
<path d="M209.765 20.8403H220.07V31.2605H209.765V20.8403Z" fill="white"/>
<path d="M199.459 20.8403H209.764V31.2605H199.459V20.8403Z" fill="white"/>
<path d="M189.154 20.8403H199.459V31.2605H189.154V20.8403Z" fill="#181425"/>
<path d="M178.849 20.8403H189.154V31.2605H178.849V20.8403Z" fill="white"/>
<path d="M168.545 20.8403H178.85V31.2605H168.545V20.8403Z" fill="#181425"/>
<path d="M158.24 20.8403H168.545V31.2605H158.24V20.8403Z" fill="#181425"/>
<path d="M147.935 20.8403H158.24V31.2605H147.935V20.8403Z" fill="#181425"/>
<path d="M137.631 20.8403H147.936V31.2605H137.631V20.8403Z" fill="#181425"/>
<path d="M127.326 20.8403H137.631V31.2605H127.326V20.8403Z" fill="#181425"/>
<path d="M117.187 20.8403H127.492V31.2605H117.187V20.8403Z" fill="#181425"/>
<path d="M106.883 20.8403H117.188V31.2605H106.883V20.8403Z" fill="#181425"/>
<path d="M96.5779 20.8403H106.883V31.2605H96.5779V20.8403Z" fill="white"/>
<path d="M86.2713 20.8403H96.5762V31.2605H86.2713V20.8403Z" fill="white"/>
<path d="M75.9666 20.8403H86.2715V31.2605H75.9666V20.8403Z" fill="#181425"/>
<path d="M209.765 31.2607H220.07V41.6809H209.765V31.2607Z" fill="white"/>
<path d="M199.459 31.2607H209.764V41.6809H199.459V31.2607Z" fill="#181425"/>
<path d="M189.154 31.2607H199.459V41.6809H189.154V31.2607Z" fill="white"/>
<path d="M178.849 31.2607H189.154V41.6809H178.849V31.2607Z" fill="#C6C6C6"/>
<path d="M168.545 31.2607H178.85V41.6809H168.545V31.2607Z" fill="#181425"/>
<path d="M158.24 31.2607H168.545V41.6809H158.24V31.2607Z" fill="#E45C00"/>
<path d="M147.935 31.2607H158.24V41.6809H147.935V31.2607Z" fill="#E45C00"/>
<path d="M137.631 31.2607H147.936V41.6809H137.631V31.2607Z" fill="#FF7C06"/>
<path d="M127.326 31.2607H137.631V41.6809H127.326V31.2607Z" fill="#FF7C06"/>
<path d="M117.187 31.2607H127.492V41.6809H117.187V31.2607Z" fill="#FF7C06"/>
<path d="M106.883 31.2607H117.188V41.6809H106.883V31.2607Z" fill="#FF7C06"/>
<path d="M96.5779 31.2607H106.883V41.6809H96.5779V31.2607Z" fill="#181425"/>
<path d="M86.2713 31.2607H96.5762V41.6809H86.2713V31.2607Z" fill="#C6C6C6"/>
<path d="M75.9666 31.2607H86.2715V41.6809H75.9666V31.2607Z" fill="white"/>
<path d="M65.6619 31.2607H75.9668V41.6809H65.6619V31.2607Z" fill="#181425"/>
<path d="M209.765 41.6807H220.07V52.1008H209.765V41.6807Z" fill="#181425"/>
<path d="M199.459 41.6807H209.764V52.1008H199.459V41.6807Z" fill="white"/>
<path d="M189.154 41.6807H199.459V52.1008H189.154V41.6807Z" fill="#C6C6C6"/>
<path d="M178.849 41.6807H189.154V52.1008H178.849V41.6807Z" fill="#181425"/>
<path d="M168.545 41.6807H178.85V52.1008H168.545V41.6807Z" fill="#E45C00"/>
<path d="M158.24 41.6807H168.545V52.1008H158.24V41.6807Z" fill="#FF7C06"/>
<path d="M147.935 41.6807H158.24V52.1008H147.935V41.6807Z" fill="#FF7C06"/>
<path d="M137.631 41.6807H147.936V52.1008H137.631V41.6807Z" fill="#FF7C06"/>
<path d="M127.326 41.6807H137.631V52.1008H127.326V41.6807Z" fill="#FF7C06"/>
<path d="M117.187 41.6807H127.492V52.1008H117.187V41.6807Z" fill="#FF7C06"/>
<path d="M106.883 41.6807H117.188V52.1008H106.883V41.6807Z" fill="#FF7C06"/>
<path d="M96.5779 41.6807H106.883V52.1008H96.5779V41.6807Z" fill="#FF7C06"/>
<path d="M86.2713 41.6807H96.5762V52.1008H86.2713V41.6807Z" fill="#181425"/>
<path d="M75.9666 41.6807H86.2715V52.1008H75.9666V41.6807Z" fill="white"/>
<path d="M65.6619 41.6807H75.9668V52.1008H65.6619V41.6807Z" fill="#181425"/>
<path d="M55.3572 41.6807H65.6621V52.1008H55.3572V41.6807Z" fill="#181425"/>
<path d="M209.765 51.9326H220.07V62.3528H209.765V51.9326Z" fill="#181425"/>
<path d="M199.459 51.9326H209.764V62.3528H199.459V51.9326Z" fill="#181425"/>
<path d="M189.154 51.9326H199.459V62.3528H189.154V51.9326Z" fill="#181425"/>
<path d="M178.849 51.9326H189.154V62.3528H178.849V51.9326Z" fill="#E45C00"/>
<path d="M168.545 51.9326H178.85V62.3528H168.545V51.9326Z" fill="#FF7C06"/>
<path d="M158.24 51.9326H168.545V62.3528H158.24V51.9326Z" fill="#181425"/>
<path d="M147.935 51.9326H158.24V62.3528H147.935V51.9326Z" fill="#181425"/>
<path d="M137.631 51.9326H147.936V62.3528H137.631V51.9326Z" fill="#FF7C06"/>
<path d="M127.326 51.9326H137.631V62.3528H127.326V51.9326Z" fill="#FF7C06"/>
<path d="M117.187 51.9326H127.492V62.3528H117.187V51.9326Z" fill="#FF7C06"/>
<path d="M106.883 51.9326H117.188V62.3528H106.883V51.9326Z" fill="#FF7C06"/>
<path d="M96.5779 51.9326H106.883V62.3528H96.5779V51.9326Z" fill="#181425"/>
<path d="M86.2713 51.9326H96.5762V62.3528H86.2713V51.9326Z" fill="#FF7C06"/>
<path d="M75.9666 51.9326H86.2715V62.3528H75.9666V51.9326Z" fill="#181425"/>
<path d="M65.6619 51.9326H75.9668V62.3528H65.6619V51.9326Z" fill="#FF7C06"/>
<path d="M55.3572 51.9326H65.6621V62.3528H55.3572V51.9326Z" fill="#181425"/>
<path d="M209.765 62.353H220.07V72.7732H209.765V62.353Z" fill="#FF7C06"/>
<path d="M199.459 62.353H209.764V72.7732H199.459V62.353Z" fill="#181425"/>
<path d="M189.154 62.353H199.459V72.7732H189.154V62.353Z" fill="#E45C00"/>
<path d="M178.849 62.353H189.154V72.7732H178.849V62.353Z" fill="#E45C00"/>
<path d="M168.545 62.353H178.85V72.7732H168.545V62.353Z" fill="#FF7C06"/>
<path d="M158.24 62.353H168.545V72.7732H158.24V62.353Z" fill="#FF7C06"/>
<path d="M147.935 62.353H158.24V72.7732H147.935V62.353Z" fill="#FF7C06"/>
<path d="M137.631 62.353H147.936V72.7732H137.631V62.353Z" fill="#FF7C06"/>
<path d="M127.326 62.353H137.631V72.7732H127.326V62.353Z" fill="#FF7C06"/>
<path d="M117.187 62.353H127.492V72.7732H117.187V62.353Z" fill="#FF7C06"/>
<path d="M106.883 62.353H117.188V72.7732H106.883V62.353Z" fill="#FF7C06"/>
<path d="M96.5779 62.353H106.883V72.7732H96.5779V62.353Z" fill="#FF7C06"/>
<path d="M86.2713 62.353H96.5762V72.7732H86.2713V62.353Z" fill="#FF7C06"/>
<path d="M75.9666 62.353H86.2715V72.7732H75.9666V62.353Z" fill="#FF7C06"/>
<path d="M65.6619 62.353H75.9668V72.7732H65.6619V62.353Z" fill="#181425"/>
<path d="M55.3572 62.353H65.6621V72.7732H55.3572V62.353Z" fill="#FF7C06"/>
<path d="M45.0525 62.353H55.3574V72.7732H45.0525V62.353Z" fill="#181425"/>
<path d="M209.765 72.7729H220.07V83.1931H209.765V72.7729Z" fill="#FF7C06"/>
<path d="M199.459 72.7729H209.764V83.1931H199.459V72.7729Z" fill="#181425"/>
<path d="M189.154 72.7729H199.459V83.1931H189.154V72.7729Z" fill="#E45C00"/>
<path d="M178.849 72.7729H189.154V83.1931H178.849V72.7729Z" fill="#181425"/>
<path d="M168.545 72.7729H178.85V83.1931H168.545V72.7729Z" fill="#181425"/>
<path d="M158.24 72.7729H168.545V83.1931H158.24V72.7729Z" fill="#181425"/>
<path d="M147.935 72.7729H158.24V83.1931H147.935V72.7729Z" fill="#181425"/>
<path d="M137.631 72.7729H147.936V83.1931H137.631V72.7729Z" fill="#FF7C06"/>
<path d="M127.326 72.7729H137.631V83.1931H127.326V72.7729Z" fill="#FF7C06"/>
<path d="M117.187 72.7729H127.492V83.1931H117.187V72.7729Z" fill="#FF7C06"/>
<path d="M106.883 72.7729H117.188V83.1931H106.883V72.7729Z" fill="#FF7C06"/>
<path d="M96.5779 72.7729H106.883V83.1931H96.5779V72.7729Z" fill="#FF7C06"/>
<path d="M86.2713 72.7729H96.5762V83.1931H86.2713V72.7729Z" fill="#181425"/>
<path d="M75.9666 72.7729H86.2715V83.1931H75.9666V72.7729Z" fill="#181425"/>
<path d="M65.6619 72.7729H75.9668V83.1931H65.6619V72.7729Z" fill="#181425"/>
<path d="M55.3572 72.7729H65.6621V83.1931H55.3572V72.7729Z" fill="#FF7C06"/>
<path d="M45.0525 72.7729H55.3574V83.1931H45.0525V72.7729Z" fill="#181425"/>
<path d="M209.765 83.1934H220.07V93.6135H209.765V83.1934Z" fill="#181425"/>
<path d="M199.459 83.1934H209.764V93.6135H199.459V83.1934Z" fill="#181425"/>
<path d="M189.154 83.1934H199.459V93.6135H189.154V83.1934Z" fill="#181425"/>
<path d="M178.849 83.1934H189.154V93.6135H178.849V83.1934Z" fill="#181425"/>
<path d="M168.545 83.1934H178.85V93.6135H168.545V83.1934Z" fill="#181425"/>
<path d="M158.24 83.1934H168.545V93.6135H158.24V83.1934Z" fill="#181425"/>
<path d="M147.935 83.1934H158.24V93.6135H147.935V83.1934Z" fill="#181425"/>
<path d="M137.631 83.1934H147.936V93.6135H137.631V83.1934Z" fill="#181425"/>
<path d="M127.326 83.1934H137.631V93.6135H127.326V83.1934Z" fill="#FF7C06"/>
<path d="M117.187 83.1934H127.492V93.6135H117.187V83.1934Z" fill="#FF7C06"/>
<path d="M106.883 83.1934H117.188V93.6135H106.883V83.1934Z" fill="#FF7C06"/>
<path d="M96.5779 83.1934H106.883V93.6135H96.5779V83.1934Z" fill="#181425"/>
<path d="M86.2713 83.1934H96.5762V93.6135H86.2713V83.1934Z" fill="#181425"/>
<path d="M75.9666 83.1934H86.2715V93.6135H75.9666V83.1934Z" fill="#181425"/>
<path d="M65.6619 83.1934H75.9668V93.6135H65.6619V83.1934Z" fill="#181425"/>
<path d="M55.3572 83.1934H65.6621V93.6135H55.3572V83.1934Z" fill="#181425"/>
<path d="M45.0525 83.1934H55.3574V93.6135H45.0525V83.1934Z" fill="white"/>
<path d="M34.7478 83.1934H45.0527V93.6135H34.7478V83.1934Z" fill="#181425"/>
<path d="M209.765 93.6133H220.07V104.033H209.765V93.6133Z" fill="#181425"/>
<path d="M199.459 93.6133H209.764V104.033H199.459V93.6133Z" fill="#181425"/>
<path d="M189.154 93.6133H199.459V104.033H189.154V93.6133Z" fill="#181425"/>
<path d="M178.849 93.6133H189.154V104.033H178.849V93.6133Z" fill="#181425"/>
<path d="M168.545 93.6133H178.85V104.033H168.545V93.6133Z" fill="white"/>
<path d="M158.24 93.6133H168.545V104.033H158.24V93.6133Z" fill="#3978A8"/>
<path d="M147.935 93.6133H158.24V104.033H147.935V93.6133Z" fill="#3978A8"/>
<path d="M137.631 93.6133H147.936V104.033H137.631V93.6133Z" fill="#181425"/>
<path d="M127.326 93.6133H137.631V104.033H127.326V93.6133Z" fill="#181425"/>
<path d="M117.187 93.6133H127.492V104.033H117.187V93.6133Z" fill="#181425"/>
<path d="M106.883 93.6133H117.188V104.033H106.883V93.6133Z" fill="#181425"/>
<path d="M96.5779 93.6133H106.883V104.033H96.5779V93.6133Z" fill="#181425"/>
<path d="M86.2713 93.6133H96.5762V104.033H86.2713V93.6133Z" fill="#181425"/>
<path d="M75.9666 93.6133H86.2715V104.033H75.9666V93.6133Z" fill="#3978A8"/>
<path d="M65.6619 93.6133H75.9668V104.033H65.6619V93.6133Z" fill="#3978A8"/>
<path d="M55.3572 93.6133H65.6621V104.033H55.3572V93.6133Z" fill="#181425"/>
<path d="M45.0525 93.6133H55.3574V104.033H45.0525V93.6133Z" fill="white"/>
<path d="M34.7478 93.6133H45.0527V104.033H34.7478V93.6133Z" fill="#181425"/>
<path d="M209.765 104.034H220.07V114.454H209.765V104.034Z" fill="#181425"/>
<path d="M199.459 104.034H209.764V114.454H199.459V104.034Z" fill="#E45C00"/>
<path d="M189.154 104.034H199.459V114.454H189.154V104.034Z" fill="#181425"/>
<path d="M178.849 104.034H189.154V114.454H178.849V104.034Z" fill="white"/>
<path d="M168.545 104.034H178.85V114.454H168.545V104.034Z" fill="white"/>
<path d="M158.24 104.034H168.545V114.454H158.24V104.034Z" fill="#3978A8"/>
<path d="M147.935 104.034H158.24V114.454H147.935V104.034Z" fill="#394778"/>
<path d="M137.631 104.034H147.936V114.454H137.631V104.034Z" fill="white"/>
<path d="M127.326 104.034H137.631V114.454H127.326V104.034Z" fill="#181425"/>
<path d="M117.187 104.034H127.492V114.454H117.187V104.034Z" fill="#181425"/>
<path d="M106.883 104.034H117.188V114.454H106.883V104.034Z" fill="#181425"/>
<path d="M96.5779 104.034H106.883V114.454H96.5779V104.034Z" fill="#181425"/>
<path d="M86.2713 104.034H96.5762V114.454H86.2713V104.034Z" fill="white"/>
<path d="M75.9666 104.034H86.2715V114.454H75.9666V104.034Z" fill="#394778"/>
<path d="M65.6619 104.034H75.9668V114.454H65.6619V104.034Z" fill="#3978A8"/>
<path d="M55.3572 104.034H65.6621V114.454H55.3572V104.034Z" fill="#181425"/>
<path d="M45.0525 104.034H55.3574V114.454H45.0525V104.034Z" fill="white"/>
<path d="M34.7478 104.034H45.0527V114.454H34.7478V104.034Z" fill="#181425"/>
<path d="M209.765 114.454H220.07V124.874H209.765V114.454Z" fill="#181425"/>
<path d="M199.459 114.454H209.764V124.874H199.459V114.454Z" fill="#E45C00"/>
<path d="M189.154 114.454H199.459V124.874H189.154V114.454Z" fill="#181425"/>
<path d="M178.849 114.454H189.154V124.874H178.849V114.454Z" fill="#181425"/>
<path d="M168.545 114.454H178.85V124.874H168.545V114.454Z" fill="white"/>
<path d="M158.24 114.454H168.545V124.874H158.24V114.454Z" fill="white"/>
<path d="M147.935 114.454H158.24V124.874H147.935V114.454Z" fill="#394778"/>
<path d="M137.631 114.454H147.936V124.874H137.631V114.454Z" fill="#181425"/>
<path d="M127.326 114.454H137.631V124.874H127.326V114.454Z" fill="#181425"/>
<path d="M117.187 114.454H127.492V124.874H117.187V114.454Z" fill="#FF7C06"/>
<path d="M106.883 114.454H117.188V124.874H106.883V114.454Z" fill="#FF7C06"/>
<path d="M96.5779 114.454H106.883V124.874H96.5779V114.454Z" fill="#181425"/>
<path d="M86.2713 114.454H96.5762V124.874H86.2713V114.454Z" fill="#181425"/>
<path d="M75.9666 114.454H86.2715V124.874H75.9666V114.454Z" fill="#394778"/>
<path d="M65.6619 114.454H75.9668V124.874H65.6619V114.454Z" fill="#181425"/>
<path d="M55.3572 114.454H65.6621V124.874H55.3572V114.454Z" fill="#181425"/>
<path d="M45.0525 114.454H55.3574V124.874H45.0525V114.454Z" fill="white"/>
<path d="M34.7478 114.454H45.0527V124.874H34.7478V114.454Z" fill="#181425"/>
<path d="M209.765 124.874H220.07V135.294H209.765V124.874Z" fill="#FF7C06"/>
<path d="M199.459 124.874H209.764V135.294H199.459V124.874Z" fill="#181425"/>
<path d="M189.154 124.874H199.459V135.294H189.154V124.874Z" fill="#E45C00"/>
<path d="M178.849 124.874H189.154V135.294H178.849V124.874Z" fill="#181425"/>
<path d="M168.545 124.874H178.85V135.294H168.545V124.874Z" fill="#181425"/>
<path d="M158.24 124.874H168.545V135.294H158.24V124.874Z" fill="#181425"/>
<path d="M147.935 124.874H158.24V135.294H147.935V124.874Z" fill="#181425"/>
<path d="M137.631 124.874H147.936V135.294H137.631V124.874Z" fill="#181425"/>
<path d="M127.326 124.874H137.631V135.294H127.326V124.874Z" fill="#FF7C06"/>
<path d="M117.187 124.874H127.492V135.294H117.187V124.874Z" fill="#FF7C06"/>
<path d="M106.883 124.874H117.188V135.294H106.883V124.874Z" fill="#FF7C06"/>
<path d="M96.5779 124.874H106.883V135.294H96.5779V124.874Z" fill="#FF7C06"/>
<path d="M86.2713 124.874H96.5762V135.294H86.2713V124.874Z" fill="#181425"/>
<path d="M75.9666 124.874H86.2715V135.294H75.9666V124.874Z" fill="#181425"/>
<path d="M65.6619 124.874H75.9668V135.294H65.6619V124.874Z" fill="#181425"/>
<path d="M55.3572 124.874H65.6621V135.294H55.3572V124.874Z" fill="#FF7C06"/>
<path d="M45.0525 124.874H55.3574V135.294H45.0525V124.874Z" fill="#181425"/>
<path d="M209.765 135.294H220.07V145.714H209.765V135.294Z" fill="#FF7C06"/>
<path d="M199.459 135.294H209.764V145.714H199.459V135.294Z" fill="#181425"/>
<path d="M189.154 135.294H199.459V145.714H189.154V135.294Z" fill="#E45C00"/>
<path d="M178.849 135.294H189.154V145.714H178.849V135.294Z" fill="#E45C00"/>
<path d="M168.545 135.294H178.85V145.714H168.545V135.294Z" fill="#181425"/>
<path d="M158.24 135.294H168.545V145.714H158.24V135.294Z" fill="#181425"/>
<path d="M147.935 135.294H158.24V145.714H147.935V135.294Z" fill="#181425"/>
<path d="M137.631 135.294H147.936V145.714H137.631V135.294Z" fill="#FF7C06"/>
<path d="M127.326 135.294H137.631V145.714H127.326V135.294Z" fill="#FF7C06"/>
<path d="M117.187 135.294H127.492V145.714H117.187V135.294Z" fill="#FF7C06"/>
<path d="M106.883 135.294H117.188V145.714H106.883V135.294Z" fill="#FF7C06"/>
<path d="M96.5779 135.294H106.883V145.714H96.5779V135.294Z" fill="#181425"/>
<path d="M86.2713 135.294H96.5762V145.714H86.2713V135.294Z" fill="#FF7C06"/>
<path d="M75.9666 135.294H86.2715V145.714H75.9666V135.294Z" fill="#181425"/>
<path d="M65.6619 135.294H75.9668V145.714H65.6619V135.294Z" fill="#181425"/>
<path d="M55.3572 135.294H65.6621V145.714H55.3572V135.294Z" fill="#FF7C06"/>
<path d="M45.0525 135.294H55.3574V145.714H45.0525V135.294Z" fill="#181425"/>
<path d="M209.765 145.546H220.07V155.967H209.765V145.546Z" fill="#181425"/>
<path d="M199.459 145.546H209.764V155.967H199.459V145.546Z" fill="#181425"/>
<path d="M189.154 145.546H199.459V155.967H189.154V145.546Z" fill="#181425"/>
<path d="M178.849 145.546H189.154V155.967H178.849V145.546Z" fill="#E45C00"/>
<path d="M168.545 145.546H178.85V155.967H168.545V145.546Z" fill="#FF7C06"/>
<path d="M158.24 145.546H168.545V155.967H158.24V145.546Z" fill="#FF7C06"/>
<path d="M147.935 145.546H158.24V155.967H147.935V145.546Z" fill="#FF7C06"/>
<path d="M137.631 145.546H147.936V155.967H137.631V145.546Z" fill="#FF7C06"/>
<path d="M127.326 145.546H137.631V155.967H127.326V145.546Z" fill="#181425"/>
<path d="M117.187 145.546H127.492V155.967H117.187V145.546Z" fill="#181425"/>
<path d="M106.883 145.546H117.188V155.967H106.883V145.546Z" fill="#181425"/>
<path d="M96.5779 145.546H106.883V155.967H96.5779V145.546Z" fill="#FF7C06"/>
<path d="M86.2713 145.546H96.5762V155.967H86.2713V145.546Z" fill="#FF7C06"/>
<path d="M75.9666 145.546H86.2715V155.967H75.9666V145.546Z" fill="#181425"/>
<path d="M65.6619 145.546H75.9668V155.967H65.6619V145.546Z" fill="#FF7C06"/>
<path d="M55.3572 145.546H65.6621V155.967H55.3572V145.546Z" fill="#181425"/>
<path d="M45.0525 145.546H55.3574V155.967H45.0525V145.546Z" fill="#262B44"/>
<path d="M34.7478 145.546H45.0527V155.967H34.7478V145.546Z" fill="#181425"/>
<path d="M209.765 155.966H220.07V166.386H209.765V155.966Z" fill="#181425"/>
<path d="M199.459 155.966H209.764V166.386H199.459V155.966Z" fill="white"/>
<path d="M189.154 155.966H199.459V166.386H189.154V155.966Z" fill="white"/>
<path d="M178.849 155.966H189.154V166.386H178.849V155.966Z" fill="#181425"/>
<path d="M168.545 155.966H178.85V166.386H168.545V155.966Z" fill="#E45C00"/>
<path d="M158.24 155.966H168.545V166.386H158.24V155.966Z" fill="#FF7C06"/>
<path d="M147.935 155.966H158.24V166.386H147.935V155.966Z" fill="#FF7C06"/>
<path d="M137.631 155.966H147.936V166.386H137.631V155.966Z" fill="#FF7C06"/>
<path d="M127.326 155.966H137.631V166.386H127.326V155.966Z" fill="#FF7C06"/>
<path d="M117.187 155.966H127.492V166.386H117.187V155.966Z" fill="#FF7C06"/>
<path d="M106.883 155.966H117.188V166.386H106.883V155.966Z" fill="#FF7C06"/>
<path d="M96.5779 155.966H106.883V166.386H96.5779V155.966Z" fill="#FF7C06"/>
<path d="M86.2713 155.966H96.5762V166.386H86.2713V155.966Z" fill="#181425"/>
<path d="M75.9666 155.966H86.2715V166.386H75.9666V155.966Z" fill="white"/>
<path d="M65.6619 155.966H75.9668V166.386H65.6619V155.966Z" fill="#181425"/>
<path d="M55.3572 155.966H65.6621V166.386H55.3572V155.966Z" fill="#181425"/>
<path d="M45.0525 155.966H55.3574V166.386H45.0525V155.966Z" fill="#262B44"/>
<path d="M34.7478 155.966H45.0527V166.386H34.7478V155.966Z" fill="#181425"/>
<path d="M24.4432 155.966H34.748V166.386H24.4432V155.966Z" fill="#181425"/>
<path d="M14.3045 155.966H24.6094V166.386H14.3045V155.966Z" fill="#181425"/>
<path d="M209.765 166.387H220.07V176.807H209.765V166.387Z" fill="#181425"/>
<path d="M199.459 166.387H209.764V176.807H199.459V166.387Z" fill="#181425"/>
<path d="M189.154 166.387H199.459V176.807H189.154V166.387Z" fill="#C6C6C6"/>
<path d="M178.849 166.387H189.154V176.807H178.849V166.387Z" fill="white"/>
<path d="M168.545 166.387H178.85V176.807H168.545V166.387Z" fill="#181425"/>
<path d="M158.24 166.387H168.545V176.807H158.24V166.387Z" fill="#E45C00"/>
<path d="M147.935 166.387H158.24V176.807H147.935V166.387Z" fill="#E45C00"/>
<path d="M137.631 166.387H147.936V176.807H137.631V166.387Z" fill="#FF7C06"/>
<path d="M127.326 166.387H137.631V176.807H127.326V166.387Z" fill="#FF7C06"/>
<path d="M117.187 166.387H127.492V176.807H117.187V166.387Z" fill="#FF7C06"/>
<path d="M106.883 166.387H117.188V176.807H106.883V166.387Z" fill="#FF7C06"/>
<path d="M96.5779 166.387H106.883V176.807H96.5779V166.387Z" fill="#181425"/>
<path d="M86.2713 166.387H96.5762V176.807H86.2713V166.387Z" fill="white"/>
<path d="M75.9666 166.387H86.2715V176.807H75.9666V166.387Z" fill="white"/>
<path d="M65.6619 166.387H75.9668V176.807H65.6619V166.387Z" fill="#181425"/>
<path d="M45.0525 166.387H55.3574V176.807H45.0525V166.387Z" fill="#181425"/>
<path d="M34.7478 166.387H45.0527V176.807H34.7478V166.387Z" fill="#C6C6C6"/>
<path d="M24.4432 166.387H34.748V176.807H24.4432V166.387Z" fill="white"/>
<path d="M14.3045 166.387H24.6094V176.807H14.3045V166.387Z" fill="white"/>
<path d="M3.9998 166.387H14.3047V176.807H3.9998V166.387Z" fill="#181425"/>
<path d="M209.765 176.807H220.07V187.227H209.765V176.807Z" fill="#181425"/>
<path d="M199.459 176.807H209.764V187.227H199.459V176.807Z" fill="#C6C6C6"/>
<path d="M189.154 176.807H199.459V187.227H189.154V176.807Z" fill="#181425"/>
<path d="M178.849 176.807H189.154V187.227H178.849V176.807Z" fill="white"/>
<path d="M168.545 176.807H178.85V187.227H168.545V176.807Z" fill="#181425"/>
<path d="M158.24 176.807H168.545V187.227H158.24V176.807Z" fill="#181425"/>
<path d="M147.935 176.807H158.24V187.227H147.935V176.807Z" fill="#181425"/>
<path d="M137.631 176.807H147.936V187.227H137.631V176.807Z" fill="#181425"/>
<path d="M127.326 176.807H137.631V187.227H127.326V176.807Z" fill="#181425"/>
<path d="M117.187 176.807H127.492V187.227H117.187V176.807Z" fill="#181425"/>
<path d="M106.883 176.807H117.188V187.227H106.883V176.807Z" fill="#181425"/>
<path d="M96.5779 176.807H106.883V187.227H96.5779V176.807Z" fill="white"/>
<path d="M86.2713 176.807H96.5762V187.227H86.2713V176.807Z" fill="white"/>
<path d="M75.9666 176.807H86.2715V187.227H75.9666V176.807Z" fill="#181425"/>
<path d="M45.0525 176.807H55.3574V187.227H45.0525V176.807Z" fill="#181425"/>
<path d="M34.7478 176.807H45.0527V187.227H34.7478V176.807Z" fill="#C6C6C6"/>
<path d="M24.4432 176.807H34.748V187.227H24.4432V176.807Z" fill="white"/>
<path d="M14.3045 176.807H24.6094V187.227H14.3045V176.807Z" fill="white"/>
<path d="M3.9998 176.807H14.3047V187.227H3.9998V176.807Z" fill="#181425"/>
<path d="M209.765 187.227H220.07V197.647H209.765V187.227Z" fill="#181425"/>
<path d="M199.459 187.227H209.764V197.647H199.459V187.227Z" fill="#181425"/>
<path d="M189.154 187.227H199.459V197.647H189.154V187.227Z" fill="#181425"/>
<path d="M178.849 187.227H189.154V197.647H178.849V187.227Z" fill="#181425"/>
<path d="M168.545 187.227H178.85V197.647H168.545V187.227Z" fill="#181425"/>
<path d="M158.24 187.227H168.545V197.647H158.24V187.227Z" fill="#E45C00"/>
<path d="M147.935 187.227H158.24V197.647H147.935V187.227Z" fill="#E45C00"/>
<path d="M137.631 187.227H147.936V197.647H137.631V187.227Z" fill="#E45C00"/>
<path d="M127.326 187.227H137.631V197.647H127.326V187.227Z" fill="#FF7C06"/>
<path d="M117.187 187.227H127.492V197.647H117.187V187.227Z" fill="#FF7C06"/>
<path d="M106.883 187.227H117.188V197.647H106.883V187.227Z" fill="#181425"/>
<path d="M96.5779 187.227H106.883V197.647H96.5779V187.227Z" fill="#181425"/>
<path d="M86.2713 187.227H96.5762V197.647H86.2713V187.227Z" fill="#181425"/>
<path d="M45.0525 187.227H55.3574V197.647H45.0525V187.227Z" fill="#181425"/>
<path d="M34.7478 187.227H45.0527V197.647H34.7478V187.227Z" fill="#C6C6C6"/>
<path d="M24.4432 187.227H34.748V197.647H24.4432V187.227Z" fill="white"/>
<path d="M14.3045 187.227H24.6094V197.647H14.3045V187.227Z" fill="white"/>
<path d="M3.9998 187.227H14.3047V197.647H3.9998V187.227Z" fill="#181425"/>
<path d="M199.459 197.647H209.764V208.067H199.459V197.647Z" fill="#181425"/>
<path d="M189.154 197.647H199.459V208.067H189.154V197.647Z" fill="#262B44"/>
<path d="M178.849 197.647H189.154V208.067H178.849V197.647Z" fill="#181425"/>
<path d="M168.545 197.647H178.85V208.067H168.545V197.647Z" fill="#181425"/>
<path d="M158.24 197.647H168.545V208.067H158.24V197.647Z" fill="#181425"/>
<path d="M147.935 197.647H158.24V208.067H147.935V197.647Z" fill="#181425"/>
<path d="M137.631 197.647H147.936V208.067H137.631V197.647Z" fill="#181425"/>
<path d="M127.326 197.647H137.631V208.067H127.326V197.647Z" fill="#181425"/>
<path d="M117.187 197.647H127.492V208.067H117.187V197.647Z" fill="#181425"/>
<path d="M106.883 197.647H117.188V208.067H106.883V197.647Z" fill="#181425"/>
<path d="M96.5779 197.647H106.883V208.067H96.5779V197.647Z" fill="#262B44"/>
<path d="M86.2713 197.647H96.5762V208.067H86.2713V197.647Z" fill="#181425"/>
<path d="M34.7478 197.647H45.0527V208.067H34.7478V197.647Z" fill="#181425"/>
<path d="M24.4432 197.647H34.748V208.067H24.4432V197.647Z" fill="#181425"/>
<path d="M14.3045 197.647H24.6094V208.067H14.3045V197.647Z" fill="#181425"/>
</g>
<defs>
<filter id="filter0_d_175_8938" x="0" y="0" width="275.428" height="268" filterUnits="userSpaceOnUse" color-interpolation-filters="sRGB">
<feFlood flood-opacity="0" result="BackgroundImageFix"/>
<feColorMatrix in="SourceAlpha" type="matrix" values="0 0 0 0 0 0 0 0 0 0 0 0 0 0 0 0 0 0 127 0" result="hardAlpha"/>
<feOffset dy="4"/>
<feGaussianBlur stdDeviation="2"/>
<feComposite in2="hardAlpha" operator="out"/>
<feColorMatrix type="matrix" values="0 0 0 0 0 0 0 0 0 0 0 0 0 0 0 0 0 0 0.25 0"/>
<feBlend mode="normal" in2="BackgroundImageFix" result="effect1_dropShadow_175_8938"/>
<feBlend mode="normal" in="SourceGraphic" in2="effect1_dropShadow_175_8938" result="shape"/>
</filter>
<clipPath id="clip0_175_8938">
<rect width="267.429" height="260" fill="white" transform="matrix(-1 0 0 1 271.428 0)"/>
</clipPath>
</defs>
</svg>
