<svg width="181" height="10" viewBox="0 0 181 10" fill="none" xmlns="http://www.w3.org/2000/svg">
<path d="M0.819 1.81V0.991V0.171999H1.638H2.457H4.914H8.19V0.991H9.009V1.81H9.828V3.448V4.267V5.086H9.009V5.905H8.19V6.724H4.914H2.457V10H0.819V6.724V5.905V5.086V4.267V3.448V2.629V1.81ZM4.914 1.81H3.276H2.457V4.267V5.086H3.276H4.914H5.733H6.552H7.371V4.267H8.19V3.448V2.629H7.371V1.81H6.552H5.733H4.914ZM18.8414 10H13.1084H12.2894H11.4704V9.181V8.362V7.543V5.905V5.086V4.267V3.448V2.629V1.81V0.991V0.171999H12.2894H13.1084V8.362H18.8414V6.724H20.4794V8.362V10H18.8414ZM22.1217 9.181V8.362V6.724V5.086V4.267V3.448H22.9407V2.629H23.7597V1.81H24.5787V0.991H25.3977V0.171999H27.8547V0.991H28.6737V1.81H29.4927V2.629H30.3117V3.448H31.1307V4.267V5.086V6.724V8.362V9.181V10H30.3117H29.4927V9.181V8.362V6.724H23.7597V8.362V9.181V10H22.9407H22.1217V9.181ZM29.4927 5.086V4.267H28.6737V3.448H27.8547V2.629H27.0357V1.81H26.2167V2.629H25.3977V3.448H24.5787V4.267H23.7597V5.086H29.4927ZM40.9631 0.991V1.81V2.629V3.448H40.1441V4.267H39.3251V5.086H38.5061V5.905H37.6871V6.724V10H36.0491V6.724V5.905H35.2301V5.086H34.4111V4.267H33.5921V3.448H32.7731V2.629V1.81V0.991V0.171999H33.5921H34.4111V0.991V1.81V2.629H35.2301V3.448H36.0491V4.267H36.8681H37.6871V3.448H38.5061V2.629H39.3251V1.81V0.991V0.171999H40.1441H40.9631V0.991ZM43.4245 1.81V0.991V0.171999H44.2435H45.0625H47.5195H52.4335V1.81H51.6145H50.7955H49.1575H48.3385H47.5195H45.8815H45.0625V4.267H50.7955V5.905H45.0625V8.362H45.8815H47.5195H48.3385H49.1575H50.7955H51.6145H52.4335V10H47.5195H45.0625H44.2435H43.4245V9.181V8.362V7.543V5.905V5.086V4.267V3.448V2.629V1.81ZM54.0758 1.81V0.991V0.171999H54.8948H55.7138H58.1708H61.4468V0.991H62.2658V1.81H63.0848V3.448V4.267V5.086H62.2658V5.905H61.4468V6.724V7.543H62.2658V8.362H63.0848V9.181V10H61.4468V9.181H60.6278V8.362H59.8088V7.543H58.9898V6.724H58.1708H55.7138V10H54.0758V6.724V5.905V5.086V4.267V3.448V2.629V1.81ZM58.1708 1.81H56.5328H55.7138V4.267V5.086H56.5328H57.3518H58.1708H58.9898H59.8088H60.6278V4.267H61.4468V3.448V2.629H60.6278V1.81H59.8088H58.9898H58.1708ZM66.3652 6.724V7.543H67.1842V8.362H68.0032H68.8222H69.6412H70.4602H71.2792V7.543H72.0982V6.724H71.2792V5.905H70.4602H69.6412H68.8222H66.3652V5.086H65.5462V4.267H64.7272V3.448V2.629V1.81H65.5462V0.991H66.3652V0.171999H68.0032H68.8222H69.6412H72.0982V0.991H72.9172V1.81H73.7362V3.448H72.0982V2.629H71.2792V1.81H70.4602H69.6412H68.8222H68.0032H67.1842V2.629H66.3652V3.448H67.1842V4.267H68.0032H68.8222H69.6412H72.0982V5.086H72.9172V5.905H73.7362V6.724V7.543V8.362H72.9172V9.181H72.0982V10H69.6412H68.8222H66.3652V9.181H65.5462V8.362H64.7272V6.724H66.3652ZM86.0299 9.181V8.362V6.724V5.086V4.267V3.448H86.8489V2.629H87.6679V1.81H88.4869V0.991H89.3059V0.171999H91.7629V0.991H92.5819V1.81H93.4009V2.629H94.2199V3.448H95.0389V4.267V5.086V6.724V8.362V9.181V10H94.2199H93.4009V9.181V8.362V6.724H87.6679V8.362V9.181V10H86.8489H86.0299V9.181ZM93.4009 5.086V4.267H92.5819V3.448H91.7629V2.629H90.9439V1.81H90.1249V2.629H89.3059V3.448H88.4869V4.267H87.6679V5.086H93.4009ZM104.052 3.448V0.991V0.171999H105.69V0.991V1.81V8.362V10H104.052V8.362H103.233V7.543H102.414V6.724H101.595V5.905H100.776V5.086H99.9573V4.267H99.1383V3.448H98.3193V5.905V10H97.5003H96.6813V9.181V8.362V7.543V5.905V5.086V4.267V3.448V2.629V1.81V0.991V0.171999H97.5003H98.3193V0.991H99.1383V1.81H99.9573V2.629H100.776V3.448H101.595V4.267H102.414V5.086H103.233V5.905H104.052V3.448ZM111.428 1.81H109.79H108.971V5.905V8.362H109.79H111.428H112.247H113.066H113.885V7.543H114.704V6.724V5.905V3.448V2.629H113.885V1.81H113.066H112.247H111.428ZM107.333 1.81V0.991V0.171999H108.152H108.971H111.428H114.704V0.991H115.523V1.81H116.342V3.448V4.267V5.086V5.905V8.362H115.523V9.181H114.704V10H111.428H108.971H108.152H107.333V9.181V8.362V7.543V5.905V5.086V4.267V3.448V2.629V1.81ZM130.273 6.724V7.543H131.092V8.362H131.911H132.73H133.549H134.368H135.187V7.543H136.006V6.724H135.187V5.905H134.368H133.549H132.73H130.273V5.086H129.454V4.267H128.635V3.448V2.629V1.81H129.454V0.991H130.273V0.171999H131.911H132.73H133.549H136.006V0.991H136.825V1.81H137.644V3.448H136.006V2.629H135.187V1.81H134.368H133.549H132.73H131.911H131.092V2.629H130.273V3.448H131.092V4.267H131.911H132.73H133.549H136.006V5.086H136.825V5.905H137.644V6.724V7.543V8.362H136.825V9.181H136.006V10H133.549H132.73H130.273V9.181H129.454V8.362H128.635V6.724H130.273ZM139.287 1.81V0.991V0.171999H140.106H140.925H143.382H147.477V1.81H146.658H145.839H144.201V5.905V10H142.563V5.905V1.81H141.744H139.287ZM149.938 9.181V8.362V6.724V5.086V4.267V3.448H150.757V2.629H151.576V1.81H152.395V0.991H153.214V0.171999H155.671V0.991H156.49V1.81H157.309V2.629H158.128V3.448H158.947V4.267V5.086V6.724V8.362V9.181V10H158.128H157.309V9.181V8.362V6.724H151.576V8.362V9.181V10H150.757H149.938V9.181ZM157.309 5.086V4.267H156.49V3.448H155.671V2.629H154.852V1.81H154.033V2.629H153.214V3.448H152.395V4.267H151.576V5.086H157.309ZM160.59 1.81V0.991V0.171999H161.409H162.228H164.685H168.78V1.81H167.961H167.142H165.504V5.905V10H163.866V5.905V1.81H163.047H160.59ZM172.879 6.724V7.543H173.698V8.362H174.517H175.336H176.155H176.974H177.793V7.543H178.612V6.724H177.793V5.905H176.974H176.155H175.336H172.879V5.086H172.06V4.267H171.241V3.448V2.629V1.81H172.06V0.991H172.879V0.171999H174.517H175.336H176.155H178.612V0.991H179.431V1.81H180.25V3.448H178.612V2.629H177.793V1.81H176.974H176.155H175.336H174.517H173.698V2.629H172.879V3.448H173.698V4.267H174.517H175.336H176.155H178.612V5.086H179.431V5.905H180.25V6.724V7.543V8.362H179.431V9.181H178.612V10H176.155H175.336H172.879V9.181H172.06V8.362H171.241V6.724H172.879Z" fill="#FF7C06"/>
</svg>
