<svg width="251" height="233" viewBox="0 0 251 233" fill="none" xmlns="http://www.w3.org/2000/svg">
<g clip-path="url(#clip0_3120_792)">
<path d="M181.113 0H191.18V10.1797H181.113V0Z" fill="#181425"/>
<path d="M171.046 0H181.113V10.1797H171.046V0Z" fill="#181425"/>
<path d="M160.98 0H171.047V10.1797H160.98V0Z" fill="#181425"/>
<path d="M150.913 0H160.98V10.1797H150.913V0Z" fill="#181425"/>
<path d="M140.847 0H150.914V10.1797H140.847V0Z" fill="#181425"/>
<path d="M130.777 0H140.844V10.1797H130.777V0Z" fill="#181425"/>
<path d="M120.71 0H130.777V10.1797H120.71V0Z" fill="#181425"/>
<path d="M110.808 0H120.875V10.1797H110.808V0Z" fill="#181425"/>
<path d="M100.742 0H110.809V10.1797H100.742V0Z" fill="#181425"/>
<path d="M201.249 10.1797H211.316V20.3594H201.249V10.1797Z" fill="#181425"/>
<path d="M191.183 10.1797H201.25V20.3594H191.183V10.1797Z" fill="#181425"/>
<path d="M181.113 10.1797H191.18V20.3594H181.113V10.1797Z" fill="#E45C00"/>
<path d="M171.046 10.1797H181.113V20.3594H171.046V10.1797Z" fill="#181425"/>
<path d="M160.98 10.1797H171.047V20.3594H160.98V10.1797Z" fill="#181425"/>
<path d="M150.913 10.1797H160.98V20.3594H150.913V10.1797Z" fill="#E45C00"/>
<path d="M140.847 10.1797H150.914V20.3594H140.847V10.1797Z" fill="#E45C00"/>
<path d="M130.777 10.1797H140.844V20.3594H130.777V10.1797Z" fill="#E45C00"/>
<path d="M120.71 10.1797H130.777V20.3594H120.71V10.1797Z" fill="#FF7C06"/>
<path d="M110.808 10.1797H120.875V20.3594H110.808V10.1797Z" fill="#FF7C06"/>
<path d="M100.742 10.1797H110.809V20.3594H100.742V10.1797Z" fill="#181425"/>
<path d="M90.6712 10.1797H100.738V20.3594H90.6712V10.1797Z" fill="#181425"/>
<path d="M80.6048 10.1797H90.6719V20.3594H80.6048V10.1797Z" fill="#181425"/>
<path d="M211.152 20.3594H221.219V30.5391H211.152V20.3594Z" fill="#181425"/>
<path d="M201.249 20.3594H211.316V30.5391H201.249V20.3594Z" fill="white"/>
<path d="M191.183 20.3594H201.25V30.5391H191.183V20.3594Z" fill="white"/>
<path d="M181.113 20.3594H191.18V30.5391H181.113V20.3594Z" fill="#181425"/>
<path d="M171.046 20.3594H181.113V30.5391H171.046V20.3594Z" fill="white"/>
<path d="M160.98 20.3594H171.047V30.5391H160.98V20.3594Z" fill="#181425"/>
<path d="M150.913 20.3594H160.98V30.5391H150.913V20.3594Z" fill="#181425"/>
<path d="M140.847 20.3594H150.914V30.5391H140.847V20.3594Z" fill="#181425"/>
<path d="M130.777 20.3594H140.844V30.5391H130.777V20.3594Z" fill="#181425"/>
<path d="M120.71 20.3594H130.777V30.5391H120.71V20.3594Z" fill="#181425"/>
<path d="M110.808 20.3594H120.875V30.5391H110.808V20.3594Z" fill="#181425"/>
<path d="M100.742 20.3594H110.809V30.5391H100.742V20.3594Z" fill="#181425"/>
<path d="M90.6712 20.3594H100.738V30.5391H90.6712V20.3594Z" fill="white"/>
<path d="M80.6048 20.3594H90.6719V30.5391H80.6048V20.3594Z" fill="white"/>
<path d="M70.5384 20.3594H80.6055V30.5391H70.5384V20.3594Z" fill="#181425"/>
<path d="M221.218 30.5391H231.285V40.7188H221.218V30.5391Z" fill="#181425"/>
<path d="M211.152 30.5391H221.219V40.7188H211.152V30.5391Z" fill="white"/>
<path d="M201.249 30.5391H211.316V40.7188H201.249V30.5391Z" fill="white"/>
<path d="M191.183 30.5391H201.25V40.7188H191.183V30.5391Z" fill="#181425"/>
<path d="M181.113 30.5391H191.18V40.7188H181.113V30.5391Z" fill="white"/>
<path d="M171.046 30.5391H181.113V40.7188H171.046V30.5391Z" fill="#C6C6C6"/>
<path d="M160.98 30.5391H171.047V40.7188H160.98V30.5391Z" fill="#181425"/>
<path d="M150.913 30.5391H160.98V40.7188H150.913V30.5391Z" fill="#E45C00"/>
<path d="M140.847 30.5391H150.914V40.7188H140.847V30.5391Z" fill="#E45C00"/>
<path d="M130.777 30.5391H140.844V40.7188H130.777V30.5391Z" fill="#FF7C06"/>
<path d="M120.71 30.5391H130.777V40.7188H120.71V30.5391Z" fill="#FF7C06"/>
<path d="M110.808 30.5391H120.875V40.7188H110.808V30.5391Z" fill="#FF7C06"/>
<path d="M100.742 30.5391H110.809V40.7188H100.742V30.5391Z" fill="#FF7C06"/>
<path d="M90.6712 30.5391H100.738V40.7188H90.6712V30.5391Z" fill="#181425"/>
<path d="M80.6048 30.5391H90.6719V40.7188H80.6048V30.5391Z" fill="#C6C6C6"/>
<path d="M70.5384 30.5391H80.6055V40.7188H70.5384V30.5391Z" fill="white"/>
<path d="M60.472 30.5391H70.5391V40.7188H60.472V30.5391Z" fill="#181425"/>
<path d="M231.288 40.7188H241.355V50.8984H231.288V40.7188Z" fill="#181425"/>
<path d="M221.218 40.7188H231.285V50.8984H221.218V40.7188Z" fill="#181425"/>
<path d="M211.152 40.7188H221.219V50.8984H211.152V40.7188Z" fill="#181425"/>
<path d="M201.249 40.7188H211.316V50.8984H201.249V40.7188Z" fill="#181425"/>
<path d="M191.183 40.7188H201.25V50.8984H191.183V40.7188Z" fill="white"/>
<path d="M181.113 40.7188H191.18V50.8984H181.113V40.7188Z" fill="#C6C6C6"/>
<path d="M171.046 40.7188H181.113V50.8984H171.046V40.7188Z" fill="#181425"/>
<path d="M160.98 40.7188H171.047V50.8984H160.98V40.7188Z" fill="#E45C00"/>
<path d="M150.913 40.7188H160.98V50.8984H150.913V40.7188Z" fill="#FF7C06"/>
<path d="M140.847 40.7188H150.914V50.8984H140.847V40.7188Z" fill="#FF7C06"/>
<path d="M130.777 40.7188H140.844V50.8984H130.777V40.7188Z" fill="#FF7C06"/>
<path d="M120.71 40.7188H130.777V50.8984H120.71V40.7188Z" fill="#FF7C06"/>
<path d="M110.808 40.7188H120.875V50.8984H110.808V40.7188Z" fill="#FF7C06"/>
<path d="M100.742 40.7188H110.809V50.8984H100.742V40.7188Z" fill="#FF7C06"/>
<path d="M90.6712 40.7188H100.738V50.8984H90.6712V40.7188Z" fill="#FF7C06"/>
<path d="M80.6048 40.7188H90.6719V50.8984H80.6048V40.7188Z" fill="#181425"/>
<path d="M70.5384 40.7188H80.6055V50.8984H70.5384V40.7188Z" fill="white"/>
<path d="M60.472 40.7188H70.5391V50.8984H60.472V40.7188Z" fill="#181425"/>
<path d="M50.4056 40.7188H60.4727V50.8984H50.4056V40.7188Z" fill="#181425"/>
<path d="M231.288 50.7344H241.355V60.9141H231.288V50.7344Z" fill="#181425"/>
<path d="M221.218 50.7344H231.285V60.9141H221.218V50.7344Z" fill="#E45C00"/>
<path d="M211.152 50.7344H221.219V60.9141H211.152V50.7344Z" fill="#E45C00"/>
<path d="M201.249 50.7344H211.316V60.9141H201.249V50.7344Z" fill="#181425"/>
<path d="M191.183 50.7344H201.25V60.9141H191.183V50.7344Z" fill="#181425"/>
<path d="M181.113 50.7344H191.18V60.9141H181.113V50.7344Z" fill="#181425"/>
<path d="M171.046 50.7344H181.113V60.9141H171.046V50.7344Z" fill="#E45C00"/>
<path d="M160.98 50.7344H171.047V60.9141H160.98V50.7344Z" fill="#FF7C06"/>
<path d="M150.913 50.7344H160.98V60.9141H150.913V50.7344Z" fill="#181425"/>
<path d="M140.847 50.7344H150.914V60.9141H140.847V50.7344Z" fill="#181425"/>
<path d="M130.777 50.7344H140.844V60.9141H130.777V50.7344Z" fill="#FF7C06"/>
<path d="M120.71 50.7344H130.777V60.9141H120.71V50.7344Z" fill="#FF7C06"/>
<path d="M110.808 50.7344H120.875V60.9141H110.808V50.7344Z" fill="#FF7C06"/>
<path d="M100.742 50.7344H110.809V60.9141H100.742V50.7344Z" fill="#FF7C06"/>
<path d="M90.6712 50.7344H100.738V60.9141H90.6712V50.7344Z" fill="#181425"/>
<path d="M80.6048 50.7344H90.6719V60.9141H80.6048V50.7344Z" fill="#FF7C06"/>
<path d="M70.5384 50.7344H80.6055V60.9141H70.5384V50.7344Z" fill="#181425"/>
<path d="M60.472 50.7344H70.5391V60.9141H60.472V50.7344Z" fill="#FF7C06"/>
<path d="M50.4056 50.7344H60.4727V60.9141H50.4056V50.7344Z" fill="#181425"/>
<path d="M241.355 60.9141H251.422V71.0938H241.355V60.9141Z" fill="#181425"/>
<path d="M231.288 60.9141H241.355V71.0938H231.288V60.9141Z" fill="#E45C00"/>
<path d="M221.218 60.9141H231.285V71.0938H221.218V60.9141Z" fill="#E45C00"/>
<path d="M211.152 60.9141H221.219V71.0938H211.152V60.9141Z" fill="#181425"/>
<path d="M201.249 60.9141H211.316V71.0938H201.249V60.9141Z" fill="#FF7C06"/>
<path d="M191.183 60.9141H201.25V71.0938H191.183V60.9141Z" fill="#181425"/>
<path d="M181.113 60.9141H191.18V71.0938H181.113V60.9141Z" fill="#E45C00"/>
<path d="M171.046 60.9141H181.113V71.0938H171.046V60.9141Z" fill="#E45C00"/>
<path d="M160.98 60.9141H171.047V71.0938H160.98V60.9141Z" fill="#FF7C06"/>
<path d="M150.913 60.9141H160.98V71.0938H150.913V60.9141Z" fill="#FF7C06"/>
<path d="M140.847 60.9141H150.914V71.0938H140.847V60.9141Z" fill="#FF7C06"/>
<path d="M130.777 60.9141H140.844V71.0938H130.777V60.9141Z" fill="#FF7C06"/>
<path d="M120.71 60.9141H130.777V71.0938H120.71V60.9141Z" fill="#FF7C06"/>
<path d="M110.808 60.9141H120.875V71.0938H110.808V60.9141Z" fill="#FF7C06"/>
<path d="M100.742 60.9141H110.809V71.0938H100.742V60.9141Z" fill="#FF7C06"/>
<path d="M90.6712 60.9141H100.738V71.0938H90.6712V60.9141Z" fill="#FF7C06"/>
<path d="M80.6048 60.9141H90.6719V71.0938H80.6048V60.9141Z" fill="#FF7C06"/>
<path d="M70.5384 60.9141H80.6055V71.0938H70.5384V60.9141Z" fill="#FF7C06"/>
<path d="M60.472 60.9141H70.5391V71.0938H60.472V60.9141Z" fill="#181425"/>
<path d="M50.4056 60.9141H60.4727V71.0938H50.4056V60.9141Z" fill="#FF7C06"/>
<path d="M40.3353 60.9141H50.4023V71.0938H40.3353V60.9141Z" fill="#181425"/>
<path d="M241.355 71.0938H251.422V81.2734H241.355V71.0938Z" fill="#181425"/>
<path d="M231.288 71.0938H241.355V81.2734H231.288V71.0938Z" fill="#181425"/>
<path d="M221.218 71.0938H231.285V81.2734H221.218V71.0938Z" fill="#181425"/>
<path d="M211.152 71.0938H221.219V81.2734H211.152V71.0938Z" fill="#181425"/>
<path d="M201.249 71.0938H211.316V81.2734H201.249V71.0938Z" fill="#FF7C06"/>
<path d="M191.183 71.0938H201.25V81.2734H191.183V71.0938Z" fill="#181425"/>
<path d="M181.113 71.0938H191.18V81.2734H181.113V71.0938Z" fill="#E45C00"/>
<path d="M171.046 71.0938H181.113V81.2734H171.046V71.0938Z" fill="#181425"/>
<path d="M160.98 71.0938H171.047V81.2734H160.98V71.0938Z" fill="#181425"/>
<path d="M150.913 71.0938H160.98V81.2734H150.913V71.0938Z" fill="#181425"/>
<path d="M140.847 71.0938H150.914V81.2734H140.847V71.0938Z" fill="#181425"/>
<path d="M130.777 71.0938H140.844V81.2734H130.777V71.0938Z" fill="#FF7C06"/>
<path d="M120.71 71.0938H130.777V81.2734H120.71V71.0938Z" fill="#FF7C06"/>
<path d="M110.808 71.0938H120.875V81.2734H110.808V71.0938Z" fill="#FF7C06"/>
<path d="M100.742 71.0938H110.809V81.2734H100.742V71.0938Z" fill="#FF7C06"/>
<path d="M90.6712 71.0938H100.738V81.2734H90.6712V71.0938Z" fill="#FF7C06"/>
<path d="M80.6048 71.0938H90.6719V81.2734H80.6048V71.0938Z" fill="#181425"/>
<path d="M70.5384 71.0938H80.6055V81.2734H70.5384V71.0938Z" fill="#181425"/>
<path d="M60.472 71.0938H70.5391V81.2734H60.472V71.0938Z" fill="#181425"/>
<path d="M50.4056 71.0938H60.4727V81.2734H50.4056V71.0938Z" fill="#FF7C06"/>
<path d="M40.3353 71.0938H50.4023V81.2734H40.3353V71.0938Z" fill="#181425"/>
<path d="M241.355 81.2734H251.422V91.4531H241.355V81.2734Z" fill="#C6C6C6"/>
<path d="M231.288 81.2734H241.355V91.4531H231.288V81.2734Z" fill="white"/>
<path d="M221.218 81.2734H231.285V91.4531H221.218V81.2734Z" fill="#181425"/>
<path d="M211.152 81.2734H221.219V91.4531H211.152V81.2734Z" fill="white"/>
<path d="M201.249 81.2734H211.316V91.4531H201.249V81.2734Z" fill="#181425"/>
<path d="M191.183 81.2734H201.25V91.4531H191.183V81.2734Z" fill="#181425"/>
<path d="M181.113 81.2734H191.18V91.4531H181.113V81.2734Z" fill="#181425"/>
<path d="M171.046 81.2734H181.113V91.4531H171.046V81.2734Z" fill="#181425"/>
<path d="M160.98 81.2734H171.047V91.4531H160.98V81.2734Z" fill="#181425"/>
<path d="M150.913 81.2734H160.98V91.4531H150.913V81.2734Z" fill="#181425"/>
<path d="M140.847 81.2734H150.914V91.4531H140.847V81.2734Z" fill="#181425"/>
<path d="M130.777 81.2734H140.844V91.4531H130.777V81.2734Z" fill="#181425"/>
<path d="M120.71 81.2734H130.777V91.4531H120.71V81.2734Z" fill="#FF7C06"/>
<path d="M110.808 81.2734H120.875V91.4531H110.808V81.2734Z" fill="#FF7C06"/>
<path d="M100.742 81.2734H110.809V91.4531H100.742V81.2734Z" fill="#FF7C06"/>
<path d="M90.6712 81.2734H100.738V91.4531H90.6712V81.2734Z" fill="#181425"/>
<path d="M80.6048 81.2734H90.6719V91.4531H80.6048V81.2734Z" fill="#181425"/>
<path d="M70.5384 81.2734H80.6055V91.4531H70.5384V81.2734Z" fill="#181425"/>
<path d="M60.472 81.2734H70.5391V91.4531H60.472V81.2734Z" fill="#181425"/>
<path d="M50.4056 81.2734H60.4727V91.4531H50.4056V81.2734Z" fill="#181425"/>
<path d="M40.3353 81.2734H50.4023V91.4531H40.3353V81.2734Z" fill="white"/>
<path d="M30.2689 81.2734H40.3359V91.4531H30.2689V81.2734Z" fill="#181425"/>
<path d="M241.355 91.4531H251.422V101.633H241.355V91.4531Z" fill="#C6C6C6"/>
<path d="M231.288 91.4531H241.355V101.633H231.288V91.4531Z" fill="white"/>
<path d="M221.218 91.4531H231.285V101.633H221.218V91.4531Z" fill="#181425"/>
<path d="M211.152 91.4531H221.219V101.633H211.152V91.4531Z" fill="white"/>
<path d="M201.249 91.4531H211.316V101.633H201.249V91.4531Z" fill="#181425"/>
<path d="M191.183 91.4531H201.25V101.633H191.183V91.4531Z" fill="#181425"/>
<path d="M181.113 91.4531H191.18V101.633H181.113V91.4531Z" fill="#181425"/>
<path d="M171.046 91.4531H181.113V101.633H171.046V91.4531Z" fill="#181425"/>
<path d="M160.98 91.4531H171.047V101.633H160.98V91.4531Z" fill="white"/>
<path d="M150.913 91.4531H160.98V101.633H150.913V91.4531Z" fill="#3978A8"/>
<path d="M140.847 91.4531H150.914V101.633H140.847V91.4531Z" fill="#3978A8"/>
<path d="M130.777 91.4531H140.844V101.633H130.777V91.4531Z" fill="#181425"/>
<path d="M120.71 91.4531H130.777V101.633H120.71V91.4531Z" fill="#181425"/>
<path d="M110.808 91.4531H120.875V101.633H110.808V91.4531Z" fill="#181425"/>
<path d="M100.742 91.4531H110.809V101.633H100.742V91.4531Z" fill="#181425"/>
<path d="M90.6712 91.4531H100.738V101.633H90.6712V91.4531Z" fill="#181425"/>
<path d="M80.6048 91.4531H90.6719V101.633H80.6048V91.4531Z" fill="#181425"/>
<path d="M70.5384 91.4531H80.6055V101.633H70.5384V91.4531Z" fill="#3978A8"/>
<path d="M60.472 91.4531H70.5391V101.633H60.472V91.4531Z" fill="#3978A8"/>
<path d="M50.4056 91.4531H60.4727V101.633H50.4056V91.4531Z" fill="#181425"/>
<path d="M40.3353 91.4531H50.4023V101.633H40.3353V91.4531Z" fill="white"/>
<path d="M30.2689 91.4531H40.3359V101.633H30.2689V91.4531Z" fill="#181425"/>
<path d="M241.355 101.633H251.422V111.813H241.355V101.633Z" fill="#C6C6C6"/>
<path d="M231.288 101.633H241.355V111.813H231.288V101.633Z" fill="white"/>
<path d="M221.218 101.633H231.285V111.813H221.218V101.633Z" fill="#181425"/>
<path d="M211.152 101.633H221.219V111.813H211.152V101.633Z" fill="white"/>
<path d="M201.249 101.633H211.316V111.813H201.249V101.633Z" fill="#181425"/>
<path d="M191.183 101.633H201.25V111.813H191.183V101.633Z" fill="#E45C00"/>
<path d="M181.113 101.633H191.18V111.813H181.113V101.633Z" fill="#181425"/>
<path d="M171.046 101.633H181.113V111.813H171.046V101.633Z" fill="white"/>
<path d="M160.98 101.633H171.047V111.813H160.98V101.633Z" fill="white"/>
<path d="M150.913 101.633H160.98V111.813H150.913V101.633Z" fill="#3978A8"/>
<path d="M140.847 101.633H150.914V111.813H140.847V101.633Z" fill="#394778"/>
<path d="M130.777 101.633H140.844V111.813H130.777V101.633Z" fill="white"/>
<path d="M120.71 101.633H130.777V111.813H120.71V101.633Z" fill="#181425"/>
<path d="M110.808 101.633H120.875V111.813H110.808V101.633Z" fill="#181425"/>
<path d="M100.742 101.633H110.809V111.813H100.742V101.633Z" fill="#181425"/>
<path d="M90.6712 101.633H100.738V111.813H90.6712V101.633Z" fill="#181425"/>
<path d="M80.6048 101.633H90.6719V111.813H80.6048V101.633Z" fill="white"/>
<path d="M70.5384 101.633H80.6055V111.813H70.5384V101.633Z" fill="#394778"/>
<path d="M60.472 101.633H70.5391V111.813H60.472V101.633Z" fill="#3978A8"/>
<path d="M50.4056 101.633H60.4727V111.813H50.4056V101.633Z" fill="#181425"/>
<path d="M40.3353 101.633H50.4023V111.813H40.3353V101.633Z" fill="white"/>
<path d="M30.2689 101.633H40.3359V111.813H30.2689V101.633Z" fill="#181425"/>
<path d="M241.355 111.812H251.422V121.992H241.355V111.812Z" fill="#C6C6C6"/>
<path d="M231.288 111.812H241.355V121.992H231.288V111.812Z" fill="white"/>
<path d="M221.218 111.812H231.285V121.992H221.218V111.812Z" fill="#181425"/>
<path d="M211.152 111.812H221.219V121.992H211.152V111.812Z" fill="white"/>
<path d="M201.249 111.812H211.316V121.992H201.249V111.812Z" fill="#181425"/>
<path d="M191.183 111.812H201.25V121.992H191.183V111.812Z" fill="#E45C00"/>
<path d="M181.113 111.812H191.18V121.992H181.113V111.812Z" fill="#181425"/>
<path d="M171.046 111.812H181.113V121.992H171.046V111.812Z" fill="#181425"/>
<path d="M160.98 111.812H171.047V121.992H160.98V111.812Z" fill="white"/>
<path d="M150.913 111.812H160.98V121.992H150.913V111.812Z" fill="white"/>
<path d="M140.847 111.812H150.914V121.992H140.847V111.812Z" fill="#394778"/>
<path d="M130.777 111.812H140.844V121.992H130.777V111.812Z" fill="#181425"/>
<path d="M120.71 111.812H130.777V121.992H120.71V111.812Z" fill="#181425"/>
<path d="M110.808 111.812H120.875V121.992H110.808V111.812Z" fill="#FF7C06"/>
<path d="M100.742 111.812H110.809V121.992H100.742V111.812Z" fill="#FF7C06"/>
<path d="M90.6712 111.812H100.738V121.992H90.6712V111.812Z" fill="#181425"/>
<path d="M80.6048 111.812H90.6719V121.992H80.6048V111.812Z" fill="#181425"/>
<path d="M70.5384 111.812H80.6055V121.992H70.5384V111.812Z" fill="#394778"/>
<path d="M60.472 111.812H70.5391V121.992H60.472V111.812Z" fill="#181425"/>
<path d="M50.4056 111.812H60.4727V121.992H50.4056V111.812Z" fill="#181425"/>
<path d="M40.3353 111.812H50.4023V121.992H40.3353V111.812Z" fill="white"/>
<path d="M30.2689 111.812H40.3359V121.992H30.2689V111.812Z" fill="#181425"/>
<path d="M241.355 121.992H251.422V132.172H241.355V121.992Z" fill="#181425"/>
<path d="M231.288 121.992H241.355V132.172H231.288V121.992Z" fill="#181425"/>
<path d="M221.218 121.992H231.285V132.172H221.218V121.992Z" fill="#181425"/>
<path d="M211.152 121.992H221.219V132.172H211.152V121.992Z" fill="#181425"/>
<path d="M201.249 121.992H211.316V132.172H201.249V121.992Z" fill="#FF7C06"/>
<path d="M191.183 121.992H201.25V132.172H191.183V121.992Z" fill="#181425"/>
<path d="M181.113 121.992H191.18V132.172H181.113V121.992Z" fill="#E45C00"/>
<path d="M171.046 121.992H181.113V132.172H171.046V121.992Z" fill="#181425"/>
<path d="M160.98 121.992H171.047V132.172H160.98V121.992Z" fill="#181425"/>
<path d="M150.913 121.992H160.98V132.172H150.913V121.992Z" fill="#181425"/>
<path d="M140.847 121.992H150.914V132.172H140.847V121.992Z" fill="#181425"/>
<path d="M130.777 121.992H140.844V132.172H130.777V121.992Z" fill="#181425"/>
<path d="M120.71 121.992H130.777V132.172H120.71V121.992Z" fill="#FF7C06"/>
<path d="M110.808 121.992H120.875V132.172H110.808V121.992Z" fill="#FF7C06"/>
<path d="M100.742 121.992H110.809V132.172H100.742V121.992Z" fill="#FF7C06"/>
<path d="M90.6712 121.992H100.738V132.172H90.6712V121.992Z" fill="#FF7C06"/>
<path d="M80.6048 121.992H90.6719V132.172H80.6048V121.992Z" fill="#181425"/>
<path d="M70.5384 121.992H80.6055V132.172H70.5384V121.992Z" fill="#181425"/>
<path d="M60.472 121.992H70.5391V132.172H60.472V121.992Z" fill="#181425"/>
<path d="M50.4056 121.992H60.4727V132.172H50.4056V121.992Z" fill="#FF7C06"/>
<path d="M40.3353 121.992H50.4023V132.172H40.3353V121.992Z" fill="#181425"/>
<path d="M241.355 132.172H251.422V142.352H241.355V132.172Z" fill="#181425"/>
<path d="M231.288 132.172H241.355V142.352H231.288V132.172Z" fill="#262B44"/>
<path d="M221.218 132.172H231.285V142.352H221.218V132.172Z" fill="#262B44"/>
<path d="M211.152 132.172H221.219V142.352H211.152V132.172Z" fill="#181425"/>
<path d="M201.249 132.172H211.316V142.352H201.249V132.172Z" fill="#FF7C06"/>
<path d="M191.183 132.172H201.25V142.352H191.183V132.172Z" fill="#181425"/>
<path d="M181.113 132.172H191.18V142.352H181.113V132.172Z" fill="#E45C00"/>
<path d="M171.046 132.172H181.113V142.352H171.046V132.172Z" fill="#E45C00"/>
<path d="M160.98 132.172H171.047V142.352H160.98V132.172Z" fill="#181425"/>
<path d="M150.913 132.172H160.98V142.352H150.913V132.172Z" fill="#181425"/>
<path d="M140.847 132.172H150.914V142.352H140.847V132.172Z" fill="#181425"/>
<path d="M130.777 132.172H140.844V142.352H130.777V132.172Z" fill="#FF7C06"/>
<path d="M120.71 132.172H130.777V142.352H120.71V132.172Z" fill="#FF7C06"/>
<path d="M110.808 132.172H120.875V142.352H110.808V132.172Z" fill="#FF7C06"/>
<path d="M100.742 132.172H110.809V142.352H100.742V132.172Z" fill="#FF7C06"/>
<path d="M90.6712 132.172H100.738V142.352H90.6712V132.172Z" fill="#181425"/>
<path d="M80.6048 132.172H90.6719V142.352H80.6048V132.172Z" fill="#FF7C06"/>
<path d="M70.5384 132.172H80.6055V142.352H70.5384V132.172Z" fill="#181425"/>
<path d="M60.472 132.172H70.5391V142.352H60.472V132.172Z" fill="#181425"/>
<path d="M50.4056 132.172H60.4727V142.352H50.4056V132.172Z" fill="#FF7C06"/>
<path d="M40.3353 132.172H50.4023V142.352H40.3353V132.172Z" fill="#181425"/>
<path d="M241.355 142.188H251.422V152.367H241.355V142.188Z" fill="#262B44"/>
<path d="M231.288 142.188H241.355V152.367H231.288V142.188Z" fill="#262B44"/>
<path d="M221.218 142.188H231.285V152.367H221.218V142.188Z" fill="#181425"/>
<path d="M211.152 142.188H221.219V152.367H211.152V142.188Z" fill="#E45C00"/>
<path d="M201.249 142.188H211.316V152.367H201.249V142.188Z" fill="#181425"/>
<path d="M191.183 142.188H201.25V152.367H191.183V142.188Z" fill="#181425"/>
<path d="M181.113 142.188H191.18V152.367H181.113V142.188Z" fill="#181425"/>
<path d="M171.046 142.188H181.113V152.367H171.046V142.188Z" fill="#E45C00"/>
<path d="M160.98 142.188H171.047V152.367H160.98V142.188Z" fill="#FF7C06"/>
<path d="M150.913 142.188H160.98V152.367H150.913V142.188Z" fill="#FF7C06"/>
<path d="M140.847 142.188H150.914V152.367H140.847V142.188Z" fill="#FF7C06"/>
<path d="M130.777 142.188H140.844V152.367H130.777V142.188Z" fill="#FF7C06"/>
<path d="M120.71 142.188H130.777V152.367H120.71V142.188Z" fill="#181425"/>
<path d="M110.808 142.188H120.875V152.367H110.808V142.188Z" fill="#181425"/>
<path d="M100.742 142.188H110.809V152.367H100.742V142.188Z" fill="#181425"/>
<path d="M90.6712 142.188H100.738V152.367H90.6712V142.188Z" fill="#FF7C06"/>
<path d="M80.6048 142.188H90.6719V152.367H80.6048V142.188Z" fill="#FF7C06"/>
<path d="M70.5384 142.188H80.6055V152.367H70.5384V142.188Z" fill="#181425"/>
<path d="M60.472 142.188H70.5391V152.367H60.472V142.188Z" fill="#FF7C06"/>
<path d="M50.4056 142.188H60.4727V152.367H50.4056V142.188Z" fill="#181425"/>
<path d="M40.3353 142.188H50.4023V152.367H40.3353V142.188Z" fill="#262B44"/>
<path d="M30.2689 142.188H40.3359V152.367H30.2689V142.188Z" fill="#181425"/>
<path d="M241.355 152.367H251.422V162.547H241.355V152.367Z" fill="#262B44"/>
<path d="M231.288 152.367H241.355V162.547H231.288V152.367Z" fill="#181425"/>
<path d="M221.218 152.367H231.285V162.547H221.218V152.367Z" fill="#181425"/>
<path d="M211.152 152.367H221.219V162.547H211.152V152.367Z" fill="#181425"/>
<path d="M201.249 152.367H211.316V162.547H201.249V152.367Z" fill="#181425"/>
<path d="M191.183 152.367H201.25V162.547H191.183V152.367Z" fill="white"/>
<path d="M181.113 152.367H191.18V162.547H181.113V152.367Z" fill="white"/>
<path d="M171.046 152.367H181.113V162.547H171.046V152.367Z" fill="#181425"/>
<path d="M160.98 152.367H171.047V162.547H160.98V152.367Z" fill="#E45C00"/>
<path d="M150.913 152.367H160.98V162.547H150.913V152.367Z" fill="#FF7C06"/>
<path d="M140.847 152.367H150.914V162.547H140.847V152.367Z" fill="#FF7C06"/>
<path d="M130.777 152.367H140.844V162.547H130.777V152.367Z" fill="#FF7C06"/>
<path d="M120.71 152.367H130.777V162.547H120.71V152.367Z" fill="#FF7C06"/>
<path d="M110.808 152.367H120.875V162.547H110.808V152.367Z" fill="#FF7C06"/>
<path d="M100.742 152.367H110.809V162.547H100.742V152.367Z" fill="#FF7C06"/>
<path d="M90.6712 152.367H100.738V162.547H90.6712V152.367Z" fill="#FF7C06"/>
<path d="M80.6048 152.367H90.6719V162.547H80.6048V152.367Z" fill="#181425"/>
<path d="M70.5384 152.367H80.6055V162.547H70.5384V152.367Z" fill="white"/>
<path d="M60.472 152.367H70.5391V162.547H60.472V152.367Z" fill="#181425"/>
<path d="M50.4056 152.367H60.4727V162.547H50.4056V152.367Z" fill="#181425"/>
<path d="M40.3353 152.367H50.4023V162.547H40.3353V152.367Z" fill="#262B44"/>
<path d="M30.2689 152.367H40.3359V162.547H30.2689V152.367Z" fill="#181425"/>
<path d="M20.2024 152.367H30.2695V162.547H20.2024V152.367Z" fill="#181425"/>
<path d="M10.3001 152.367H20.3672V162.547H10.3001V152.367Z" fill="#181425"/>
<path d="M241.355 162.547H251.422V172.727H241.355V162.547Z" fill="#181425"/>
<path d="M231.288 162.547H241.355V172.727H231.288V162.547Z" fill="#C6C6C6"/>
<path d="M221.218 162.547H231.285V172.727H221.218V162.547Z" fill="white"/>
<path d="M211.152 162.547H221.219V172.727H211.152V162.547Z" fill="white"/>
<path d="M201.249 162.547H211.316V172.727H201.249V162.547Z" fill="#181425"/>
<path d="M191.183 162.547H201.25V172.727H191.183V162.547Z" fill="#181425"/>
<path d="M181.113 162.547H191.18V172.727H181.113V162.547Z" fill="#C6C6C6"/>
<path d="M171.046 162.547H181.113V172.727H171.046V162.547Z" fill="white"/>
<path d="M160.98 162.547H171.047V172.727H160.98V162.547Z" fill="#181425"/>
<path d="M150.913 162.547H160.98V172.727H150.913V162.547Z" fill="#E45C00"/>
<path d="M140.847 162.547H150.914V172.727H140.847V162.547Z" fill="#E45C00"/>
<path d="M130.777 162.547H140.844V172.727H130.777V162.547Z" fill="#FF7C06"/>
<path d="M120.71 162.547H130.777V172.727H120.71V162.547Z" fill="#FF7C06"/>
<path d="M110.808 162.547H120.875V172.727H110.808V162.547Z" fill="#FF7C06"/>
<path d="M100.742 162.547H110.809V172.727H100.742V162.547Z" fill="#FF7C06"/>
<path d="M90.6712 162.547H100.738V172.727H90.6712V162.547Z" fill="#181425"/>
<path d="M80.6048 162.547H90.6719V172.727H80.6048V162.547Z" fill="white"/>
<path d="M70.5384 162.547H80.6055V172.727H70.5384V162.547Z" fill="white"/>
<path d="M60.472 162.547H70.5391V172.727H60.472V162.547Z" fill="#181425"/>
<path d="M40.3353 162.547H50.4023V172.727H40.3353V162.547Z" fill="#181425"/>
<path d="M30.2689 162.547H40.3359V172.727H30.2689V162.547Z" fill="#C6C6C6"/>
<path d="M20.2024 162.547H30.2695V172.727H20.2024V162.547Z" fill="white"/>
<path d="M10.3001 162.547H20.3672V172.727H10.3001V162.547Z" fill="white"/>
<path d="M0.229791 162.547H10.2969V172.727H0.229791V162.547Z" fill="#181425"/>
<path d="M241.355 172.727H251.422V182.906H241.355V172.727Z" fill="#181425"/>
<path d="M231.288 172.727H241.355V182.906H231.288V172.727Z" fill="#C6C6C6"/>
<path d="M221.218 172.727H231.285V182.906H221.218V172.727Z" fill="white"/>
<path d="M211.152 172.727H221.219V182.906H211.152V172.727Z" fill="white"/>
<path d="M201.249 172.727H211.316V182.906H201.249V172.727Z" fill="#181425"/>
<path d="M191.183 172.727H201.25V182.906H191.183V172.727Z" fill="#C6C6C6"/>
<path d="M181.113 172.727H191.18V182.906H181.113V172.727Z" fill="#181425"/>
<path d="M171.046 172.727H181.113V182.906H171.046V172.727Z" fill="white"/>
<path d="M160.98 172.727H171.047V182.906H160.98V172.727Z" fill="#181425"/>
<path d="M150.913 172.727H160.98V182.906H150.913V172.727Z" fill="#181425"/>
<path d="M140.847 172.727H150.914V182.906H140.847V172.727Z" fill="#181425"/>
<path d="M130.777 172.727H140.844V182.906H130.777V172.727Z" fill="#181425"/>
<path d="M120.71 172.727H130.777V182.906H120.71V172.727Z" fill="#181425"/>
<path d="M110.808 172.727H120.875V182.906H110.808V172.727Z" fill="#181425"/>
<path d="M100.742 172.727H110.809V182.906H100.742V172.727Z" fill="#181425"/>
<path d="M90.6712 172.727H100.738V182.906H90.6712V172.727Z" fill="white"/>
<path d="M80.6048 172.727H90.6719V182.906H80.6048V172.727Z" fill="white"/>
<path d="M70.5384 172.727H80.6055V182.906H70.5384V172.727Z" fill="#181425"/>
<path d="M40.3353 172.727H50.4023V182.906H40.3353V172.727Z" fill="#181425"/>
<path d="M30.2689 172.727H40.3359V182.906H30.2689V172.727Z" fill="#C6C6C6"/>
<path d="M20.2024 172.727H30.2695V182.906H20.2024V172.727Z" fill="white"/>
<path d="M10.3001 172.727H20.3672V182.906H10.3001V172.727Z" fill="white"/>
<path d="M0.229791 172.727H10.2969V182.906H0.229791V172.727Z" fill="#181425"/>
<path d="M241.355 182.906H251.422V193.086H241.355V182.906Z" fill="#181425"/>
<path d="M231.288 182.906H241.355V193.086H231.288V182.906Z" fill="#C6C6C6"/>
<path d="M221.218 182.906H231.285V193.086H221.218V182.906Z" fill="white"/>
<path d="M211.152 182.906H221.219V193.086H211.152V182.906Z" fill="white"/>
<path d="M201.249 182.906H211.316V193.086H201.249V182.906Z" fill="#181425"/>
<path d="M191.183 182.906H201.25V193.086H191.183V182.906Z" fill="#181425"/>
<path d="M181.113 182.906H191.18V193.086H181.113V182.906Z" fill="#181425"/>
<path d="M171.046 182.906H181.113V193.086H171.046V182.906Z" fill="#181425"/>
<path d="M160.98 182.906H171.047V193.086H160.98V182.906Z" fill="#181425"/>
<path d="M150.913 182.906H160.98V193.086H150.913V182.906Z" fill="#E45C00"/>
<path d="M140.847 182.906H150.914V193.086H140.847V182.906Z" fill="#E45C00"/>
<path d="M130.777 182.906H140.844V193.086H130.777V182.906Z" fill="#E45C00"/>
<path d="M120.71 182.906H130.777V193.086H120.71V182.906Z" fill="#FF7C06"/>
<path d="M110.808 182.906H120.875V193.086H110.808V182.906Z" fill="#FF7C06"/>
<path d="M100.742 182.906H110.809V193.086H100.742V182.906Z" fill="#181425"/>
<path d="M90.6712 182.906H100.738V193.086H90.6712V182.906Z" fill="#181425"/>
<path d="M80.6048 182.906H90.6719V193.086H80.6048V182.906Z" fill="#181425"/>
<path d="M40.3353 182.906H50.4023V193.086H40.3353V182.906Z" fill="#181425"/>
<path d="M30.2689 182.906H40.3359V193.086H30.2689V182.906Z" fill="#C6C6C6"/>
<path d="M20.2024 182.906H30.2695V193.086H20.2024V182.906Z" fill="white"/>
<path d="M10.3001 182.906H20.3672V193.086H10.3001V182.906Z" fill="white"/>
<path d="M0.229791 182.906H10.2969V193.086H0.229791V182.906Z" fill="#181425"/>
<path d="M231.288 193.086H241.355V203.266H231.288V193.086Z" fill="#181425"/>
<path d="M221.218 193.086H231.285V203.266H221.218V193.086Z" fill="#181425"/>
<path d="M211.152 193.086H221.219V203.266H211.152V193.086Z" fill="#181425"/>
<path d="M191.183 193.086H201.25V203.266H191.183V193.086Z" fill="#181425"/>
<path d="M181.113 193.086H191.18V203.266H181.113V193.086Z" fill="#262B44"/>
<path d="M171.046 193.086H181.113V203.266H171.046V193.086Z" fill="#181425"/>
<path d="M160.98 193.086H171.047V203.266H160.98V193.086Z" fill="#181425"/>
<path d="M150.913 193.086H160.98V203.266H150.913V193.086Z" fill="#181425"/>
<path d="M140.847 193.086H150.914V203.266H140.847V193.086Z" fill="#181425"/>
<path d="M130.777 193.086H140.844V203.266H130.777V193.086Z" fill="#181425"/>
<path d="M120.71 193.086H130.777V203.266H120.71V193.086Z" fill="#181425"/>
<path d="M110.808 193.086H120.875V203.266H110.808V193.086Z" fill="#181425"/>
<path d="M100.742 193.086H110.809V203.266H100.742V193.086Z" fill="#181425"/>
<path d="M90.6712 193.086H100.738V203.266H90.6712V193.086Z" fill="#262B44"/>
<path d="M80.6048 193.086H90.6719V203.266H80.6048V193.086Z" fill="#181425"/>
<path d="M30.2689 193.086H40.3359V203.266H30.2689V193.086Z" fill="#181425"/>
<path d="M20.2024 193.086H30.2695V203.266H20.2024V193.086Z" fill="#181425"/>
<path d="M10.3001 193.086H20.3672V203.266H10.3001V193.086Z" fill="#181425"/>
<path d="M191.183 203.266H201.25V213.445H191.183V203.266Z" fill="#181425"/>
<path d="M181.113 203.266H191.18V213.445H181.113V203.266Z" fill="#262B44"/>
<path d="M171.046 203.266H181.113V213.445H171.046V203.266Z" fill="#181425"/>
<path d="M100.742 203.266H110.809V213.445H100.742V203.266Z" fill="#181425"/>
<path d="M90.6712 203.266H100.738V213.445H90.6712V203.266Z" fill="#262B44"/>
<path d="M80.6048 203.266H90.6719V213.445H80.6048V203.266Z" fill="#262B44"/>
<path d="M70.5384 203.266H80.6055V213.445H70.5384V203.266Z" fill="#181425"/>
<path d="M201.249 213.445H211.316V223.625H201.249V213.445Z" fill="#181425"/>
<path d="M191.183 213.445H201.25V223.625H191.183V213.445Z" fill="#181425"/>
<path d="M181.113 213.445H191.18V223.625H181.113V213.445Z" fill="#181425"/>
<path d="M171.046 213.445H181.113V223.625H171.046V213.445Z" fill="#181425"/>
<path d="M90.6712 213.445H100.738V223.625H90.6712V213.445Z" fill="#181425"/>
<path d="M80.6048 213.445H90.6719V223.625H80.6048V213.445Z" fill="#181425"/>
<path d="M70.5384 213.445H80.6055V223.625H70.5384V213.445Z" fill="#181425"/>
<path d="M60.472 213.445H70.5391V223.625H60.472V213.445Z" fill="#181425"/>
<path d="M211.152 223.625H221.219V233.805H211.152V223.625Z" fill="#181425"/>
<path d="M201.249 223.625H211.316V233.805H201.249V223.625Z" fill="#FF7C06"/>
<path d="M191.183 223.625H201.25V233.805H191.183V223.625Z" fill="white"/>
<path d="M181.113 223.625H191.18V233.805H181.113V223.625Z" fill="white"/>
<path d="M171.046 223.625H181.113V233.805H171.046V223.625Z" fill="#FF7C06"/>
<path d="M160.98 223.625H171.047V233.805H160.98V223.625Z" fill="#181425"/>
<path d="M100.742 223.625H110.809V233.805H100.742V223.625Z" fill="#181425"/>
<path d="M90.6712 223.625H100.738V233.805H90.6712V223.625Z" fill="#FF7C06"/>
<path d="M80.6048 223.625H90.6719V233.805H80.6048V223.625Z" fill="#FF7C06"/>
<path d="M70.5384 223.625H80.6055V233.805H70.5384V223.625Z" fill="white"/>
<path d="M60.472 223.625H70.5391V233.805H60.472V223.625Z" fill="white"/>
<path d="M50.4056 223.625H60.4727V233.805H50.4056V223.625Z" fill="#181425"/>
</g>
<defs>
<clipPath id="clip0_3120_792">
<rect width="261.257" height="254" fill="white" transform="matrix(-1 0 0 1 261.488 0)"/>
</clipPath>
</defs>
</svg>
