<svg width="27" height="23" viewBox="0 0 27 23" fill="none" xmlns="http://www.w3.org/2000/svg">
<path d="M14.4713 14.461V14.591C14.4713 15.24 14.4713 15.8888 14.4713 16.5373C14.4713 17.2331 14.7642 17.7603 15.3723 18.1115C16.3157 18.656 17.2506 19.2156 18.1993 19.7502C18.798 20.0877 19.4102 20.0988 20.0147 19.736C20.9327 19.1853 21.8565 18.6431 22.7749 18.091C23.3434 17.7487 23.6412 17.2403 23.6439 16.5743C23.6492 15.4546 23.6515 14.335 23.6439 13.2153C23.639 12.5529 23.3505 12.04 22.7722 11.7017C21.8413 11.1586 20.9109 10.6141 19.976 10.0768C19.3398 9.71082 18.7059 9.70236 18.0617 10.0799C15.9382 11.3217 13.8115 12.5579 11.6817 13.7887C10.5029 14.4739 9.32668 15.1635 8.14648 15.8455C7.5299 16.2017 6.9102 16.2226 6.28159 15.8557C4.47948 14.8069 2.67558 13.7665 0.877019 12.7181C0.298721 12.3811 0 11.8709 0 11.1977C0 9.08429 0 6.97099 0 4.85783C0 4.22389 0.267112 3.7511 0.827158 3.42789C2.68626 2.35054 4.5378 1.25983 6.392 0.175351C6.57942 0.0653899 6.77531 -0.0107372 7.00191 0.00395403C7.19047 0.0166962 7.3797 0.0161011 7.56819 0.00217328C7.77208 -0.0129631 7.9466 0.0524795 8.11488 0.151311C9.77691 1.12746 11.4378 2.1039 13.0974 3.08064C13.3049 3.20307 13.5203 3.3157 13.7127 3.45861C14.1654 3.79561 14.4018 4.25104 14.4014 4.82177C14.4014 5.55232 14.4014 6.28243 14.4036 7.01298C14.4068 7.049 14.3988 7.08514 14.3805 7.11634C14.3622 7.14755 14.3347 7.17227 14.3016 7.18705C13.5116 7.64114 12.7224 8.09716 11.9341 8.55511C11.9034 8.57247 11.8709 8.58672 11.8224 8.61076C11.8193 8.55066 11.8153 8.50792 11.8153 8.46518C11.8153 7.76802 11.8184 7.07086 11.8153 6.3728C11.8108 5.74954 11.541 5.26295 11.0139 4.93797C10.039 4.33785 9.06402 3.73596 8.07303 3.16345C7.51476 2.84024 6.91999 2.82422 6.34615 3.15276C5.3979 3.69678 4.45588 4.25015 3.5103 4.79996C3.0019 5.09467 2.68225 5.51893 2.60123 6.10881C2.59314 6.17125 2.58927 6.23416 2.58965 6.29712C2.58965 7.45016 2.58253 8.60319 2.58965 9.75623C2.59455 10.3719 2.86656 10.8594 3.39099 11.1808C4.36284 11.7805 5.33691 12.3762 6.32166 12.9504C6.89239 13.2821 7.49562 13.3066 8.07703 12.9589C9.31911 12.2208 10.5514 11.4653 11.7966 10.733C12.4737 10.3354 13.174 9.97615 13.856 9.58839C14.8238 9.03502 15.785 8.46919 16.7497 7.90692C17.2426 7.61933 17.726 7.31527 18.2264 7.04192C18.7985 6.73029 19.3839 6.70625 19.9626 7.04192C21.7838 8.09553 23.6029 9.15137 25.4202 10.2094C25.9802 10.5366 26.2856 11.0295 26.2865 11.6888C26.2883 13.8577 26.2883 16.0265 26.2865 18.1952C26.2865 18.8372 25.9918 19.3251 25.438 19.6478C23.6276 20.7012 21.8172 21.7525 20.0067 22.802C19.7841 22.9311 19.5553 23.0188 19.2904 22.9965C19.1423 22.984 18.9934 22.984 18.8452 22.9965C18.6155 23.0161 18.4174 22.944 18.222 22.8309C17.5542 22.4396 16.8833 22.0523 16.2137 21.6637C15.0634 20.9962 13.9133 20.3284 12.7635 19.6603C12.2146 19.3398 11.9016 18.863 11.8914 18.2188C11.8798 17.4887 11.8865 16.7581 11.8914 16.0276C11.8934 16.0017 11.9011 15.9766 11.9139 15.954C11.9266 15.9314 11.9442 15.9118 11.9653 15.8967C12.7806 15.4189 13.5968 14.944 14.4138 14.4721C14.4326 14.4665 14.4518 14.4628 14.4713 14.461Z" fill="#FF7C06"/>
</svg>
