<svg width="184" height="130" viewBox="0 0 184 130" fill="none" xmlns="http://www.w3.org/2000/svg">
<g opacity="0.5">
<path d="M84.1071 73.3895H113.439V38.6518H112.781H90.5555C89.0722 38.6518 88.115 37.6307 88.3694 36.321C88.5547 35.3627 89.3363 34.7579 90.4202 34.7547C92.7777 34.7483 95.1348 34.7483 97.4915 34.7547C105.326 34.7547 113.159 34.7579 120.992 34.7643C124.519 34.7696 126.999 37.2825 127 40.8166C127 50.9548 127 61.0923 127 71.2291C127 74.762 124.508 77.2643 120.982 77.2654C101.361 77.2654 81.7411 77.2654 62.1213 77.2654C57.4064 77.2654 52.6919 77.2654 47.9777 77.2654C44.5374 77.2654 42.0064 74.7418 42.0064 71.2951C42.0021 55.4958 42 39.6911 42 23.8811C42 17.9083 42 11.9356 42 5.96282C42 2.54591 44.5555 0 47.9937 0C57.1381 0.00425916 66.2829 0.00745352 75.428 0.0095831C76.4928 0.0095831 77.5576 0 78.6224 0.0095831C82.018 0.0468507 84.5053 2.57785 84.5043 5.9724C84.5043 18.2359 84.5043 30.4995 84.5043 42.763C84.5043 52.2439 84.4964 61.7251 84.4808 71.2067C84.4744 71.9148 84.2434 72.6186 84.1071 73.3895ZM80.5933 59.855V10.6703H45.8971V59.855H80.5933ZM45.8577 63.7809V64.341C45.8577 66.6125 45.8595 68.8805 45.8631 71.145C45.8631 72.6814 46.5648 73.4055 48.0991 73.4066C58.2359 73.4144 68.3723 73.4176 78.5084 73.4162C79.8543 73.4162 80.6316 72.6357 80.638 71.2717C80.638 68.9504 80.638 66.6288 80.638 64.3069C80.638 64.1376 80.621 63.9672 80.6125 63.7809H45.8577ZM117.353 73.3406C117.402 73.3672 117.455 73.3875 117.51 73.4012C118.589 73.4076 119.67 73.4012 120.751 73.4162C122.428 73.43 123.142 72.723 123.142 71.0374V50.1516C123.142 47.0339 123.142 43.9158 123.142 40.7974C123.142 39.4057 122.391 38.6604 121.013 38.6582C119.967 38.6582 118.922 38.6582 117.877 38.6582C117.708 38.6582 117.538 38.6785 117.356 38.6902L117.353 73.3406ZM80.5752 6.75289C80.8648 4.85011 80.0236 3.86093 78.1815 3.86944C68.1012 3.91417 58.0208 3.88755 47.9415 3.88861C46.3784 3.88861 45.4925 5.16636 45.9568 6.75289H80.5752Z" fill="#FF7C06"/>
<path d="M115.203 23.4621C114.819 22.0459 114.554 20.6862 114.085 19.3999C111.539 12.4227 106.764 7.66986 99.7601 5.14134C97.4858 4.33014 95.0907 3.90964 92.6761 3.89767C92.4106 3.9059 92.1449 3.89701 91.8807 3.87105C91.3922 3.80451 90.947 3.55569 90.6343 3.17453C90.3217 2.79336 90.1648 2.30805 90.1951 1.816C90.2046 1.57087 90.2623 1.33001 90.3651 1.10725C90.4678 0.88449 90.6136 0.684215 90.7939 0.517914C90.9743 0.351613 91.1857 0.222561 91.416 0.138162C91.6464 0.0537632 91.8911 0.0156789 92.1362 0.0260943C93.7249 0.0974352 95.338 0.132573 96.8916 0.430714C106.418 2.28771 113.15 7.6979 117.142 16.5293C117.435 17.2119 117.694 17.9088 117.918 18.6173C118.153 19.319 118.344 20.0345 118.599 20.8779C118.932 20.3093 119.22 19.8237 119.501 19.3339C119.821 18.7738 120.289 18.4288 120.933 18.3543C121.719 18.2638 122.375 18.513 122.826 19.1774C123.288 19.8589 123.279 20.5776 122.882 21.2857C122.258 22.3973 121.621 23.5026 120.988 24.6089C120.363 25.6992 119.74 26.7917 119.109 27.8789C118.441 29.0331 117.372 29.3227 116.223 28.6679C114.07 27.4391 111.917 26.2103 109.764 24.9816C108.672 24.3576 108.311 23.2396 108.875 22.2387C109.438 21.2378 110.6 20.9609 111.679 21.57C112.759 22.179 113.832 22.7977 114.91 23.411C115.006 23.4359 115.104 23.453 115.203 23.4621Z" fill="#FF7C06"/>
<path d="M63.207 70.5105C62.2157 70.5105 61.2244 70.5233 60.2331 70.5105C59.0948 70.4924 58.2738 69.6587 58.2813 68.5673C58.2888 67.4759 59.1193 66.6507 60.2607 66.6507C62.2256 66.6386 64.1902 66.6386 66.1544 66.6507C67.2703 66.6507 68.1349 67.5099 68.1423 68.5779C68.1498 69.6459 67.3171 70.4892 66.1799 70.5137C65.1897 70.5339 64.1973 70.5137 63.207 70.5137V70.5105Z" fill="#FF7C06"/>
</g>
<path d="M1.24238 93.1856V92.1776V91.1696H2.25038H3.25838H6.28238H10.3144V92.1776H11.3224V93.1856H12.3304V95.2016V96.2096V97.2176H11.3224V98.2256H10.3144V99.2336H6.28238H3.25838V103.266H1.24238V99.2336V98.2256V97.2176V96.2096V95.2016V94.1936V93.1856ZM6.28238 93.1856H4.26638H3.25838V96.2096V97.2176H4.26638H6.28238H7.29038H8.29838H9.30638V96.2096H10.3144V95.2016V94.1936H9.30638V93.1856H8.29838H7.29038H6.28238ZM23.4238 103.266H16.3678H15.3598H14.3518V102.258V101.25V100.242V98.2256V97.2176V96.2096V95.2016V94.1936V93.1856V92.1776V91.1696H15.3598H16.3678V101.25H23.4238V99.2336H25.4398V101.25V103.266H23.4238ZM27.4611 93.1856V92.1776V91.1696H28.4691H29.4771H32.5011H38.5491V93.1856H37.5411H36.5331H34.5171H33.5091H32.5011H30.4851H29.4771V96.2096H36.5331V98.2256H29.4771V101.25H30.4851H32.5011H33.5091H34.5171H36.5331H37.5411H38.5491V103.266H32.5011H29.4771H28.4691H27.4611V102.258V101.25V100.242V98.2256V97.2176V96.2096V95.2016V94.1936V93.1856ZM40.5705 102.258V101.25V99.2336V97.2176V96.2096V95.2016H41.5785V94.1936H42.5865V93.1856H43.5945V92.1776H44.6025V91.1696H47.6265V92.1776H48.6345V93.1856H49.6425V94.1936H50.6505V95.2016H51.6585V96.2096V97.2176V99.2336V101.25V102.258V103.266H50.6505H49.6425V102.258V101.25V99.2336H42.5865V101.25V102.258V103.266H41.5785H40.5705V102.258ZM49.6425 97.2176V96.2096H48.6345V95.2016H47.6265V94.1936H46.6185V93.1856H45.6105V94.1936H44.6025V95.2016H43.5945V96.2096H42.5865V97.2176H49.6425ZM55.6959 99.2336V100.242H56.7039V101.25H57.7119H58.7199H59.7279H60.7359H61.7439V100.242H62.7519V99.2336H61.7439V98.2256H60.7359H59.7279H58.7199H55.6959V97.2176H54.6879V96.2096H53.6799V95.2016V94.1936V93.1856H54.6879V92.1776H55.6959V91.1696H57.7119H58.7199H59.7279H62.7519V92.1776H63.7599V93.1856H64.7679V95.2016H62.7519V94.1936H61.7439V93.1856H60.7359H59.7279H58.7199H57.7119H56.7039V94.1936H55.6959V95.2016H56.7039V96.2096H57.7119H58.7199H59.7279H62.7519V97.2176H63.7599V98.2256H64.7679V99.2336V100.242V101.25H63.7599V102.258H62.7519V103.266H59.7279H58.7199H55.6959V102.258H54.6879V101.25H53.6799V99.2336H55.6959ZM66.7893 93.1856V92.1776V91.1696H67.7973H68.8053H71.8293H77.8773V93.1856H76.8693H75.8613H73.8453H72.8373H71.8293H69.8133H68.8053V96.2096H75.8613V98.2256H68.8053V101.25H69.8133H71.8293H72.8373H73.8453H75.8613H76.8693H77.8773V103.266H71.8293H68.8053H67.7973H66.7893V102.258V101.25V100.242V98.2256V97.2176V96.2096V95.2016V94.1936V93.1856ZM93.008 93.1856V92.1776V91.1696H94.016H95.024H98.048H102.08V92.1776H103.088V93.1856H104.096V95.2016V96.2096V97.2176H103.088V98.2256H102.08V99.2336V100.242H103.088V101.25H104.096V102.258V103.266H102.08V102.258H101.072V101.25H100.064V100.242H99.056V99.2336H98.048H95.024V103.266H93.008V99.2336V98.2256V97.2176V96.2096V95.2016V94.1936V93.1856ZM98.048 93.1856H96.032H95.024V96.2096V97.2176H96.032H97.04H98.048H99.056H100.064H101.072V96.2096H102.08V95.2016V94.1936H101.072V93.1856H100.064H99.056H98.048ZM111.157 93.1856H110.149H109.141V94.1936H108.133V95.2016V96.2096V98.2256V99.2336V100.242H109.141V101.25H110.149H111.157H112.165H113.173H114.181V100.242H115.189V99.2336V98.2256V95.2016V94.1936H114.181V93.1856H113.173H112.165H111.157ZM117.205 98.2256V101.25H116.197V102.258H115.189V103.266H112.165H111.157H108.133V102.258H107.125V101.25H106.117V99.2336V98.2256V97.2176V96.2096V93.1856H107.125V92.1776H108.133V91.1696H110.149H111.157H112.165H115.189V92.1776H116.197V93.1856H117.205V95.2016V98.2256ZM119.227 93.1856V92.1776V91.1696H120.235H121.243H124.267H129.307V93.1856H128.299H127.291H125.275V98.2256V103.266H123.259V98.2256V93.1856H122.251H119.227ZM132.336 102.258V101.25V99.2336V97.2176V96.2096V95.2016H133.344V94.1936H134.352V93.1856H135.36V92.1776H136.368V91.1696H139.392V92.1776H140.4V93.1856H141.408V94.1936H142.416V95.2016H143.424V96.2096V97.2176V99.2336V101.25V102.258V103.266H142.416H141.408V102.258V101.25V99.2336H134.352V101.25V102.258V103.266H133.344H132.336V102.258ZM141.408 97.2176V96.2096H140.4V95.2016H139.392V94.1936H138.384V93.1856H137.376V94.1936H136.368V95.2016H135.36V96.2096H134.352V97.2176H141.408ZM145.446 93.1856V92.1776V91.1696H146.454H147.462H150.486H155.526V93.1856H154.518H153.51H151.494V98.2256V103.266H149.478V98.2256V93.1856H148.47H145.446ZM158.555 93.1856V92.1776V91.1696H159.563H160.571H163.595H169.643V93.1856H168.635H167.627H165.611H164.603H163.595H161.579H160.571V96.2096H167.627V98.2256H160.571V101.25H161.579H163.595H164.603H165.611H167.627H168.635H169.643V103.266H163.595H160.571H159.563H158.555V102.258V101.25V100.242V98.2256V97.2176V96.2096V95.2016V94.1936V93.1856ZM30.9864 113.178V114.186V115.194V116.202H29.9784V117.21H28.9704V118.218H27.9624V119.226H26.9544V120.234V124.266H24.9384V120.234V119.226H23.9304V118.218H22.9224V117.21H21.9144V116.202H20.9064V115.194V114.186V113.178V112.17H21.9144H22.9224V113.178V114.186V115.194H23.9304V116.202H24.9384V117.21H25.9464H26.9544V116.202H27.9624V115.194H28.9704V114.186V113.178V112.17H29.9784H30.9864V113.178ZM39.0558 114.186H38.0478H37.0398V115.194H36.0318V116.202V117.21V119.226V120.234V121.242H37.0398V122.25H38.0478H39.0558H40.0638H41.0718H42.0798V121.242H43.0878V120.234V119.226V116.202V115.194H42.0798V114.186H41.0718H40.0638H39.0558ZM45.1038 119.226V122.25H44.0958V123.258H43.0878V124.266H40.0638H39.0558H36.0318V123.258H35.0238V122.25H34.0158V120.234V119.226V118.218V117.21V114.186H35.0238V113.178H36.0318V112.17H38.0478H39.0558H40.0638H43.0878V113.178H44.0958V114.186H45.1038V116.202V119.226ZM49.1412 112.17V116.202V117.21V119.226V120.234V121.242H50.1492V122.25H51.1572H52.1652H53.1732H54.1812H55.1892V121.242H56.1972V120.234V112.17H58.2132V120.234V122.25H57.2052V123.258H56.1972V124.266H53.1732H52.1652H49.1412V123.258H48.1332V122.25H47.1252V120.234V119.226V118.218V117.21V112.17H49.1412ZM60.2346 114.186V113.178V112.17H61.2426H62.2506H65.2746H69.3066V113.178H70.3146V114.186H71.3226V116.202V117.21V118.218H70.3146V119.226H69.3066V120.234V121.242H70.3146V122.25H71.3226V123.258V124.266H69.3066V123.258H68.2986V122.25H67.2906V121.242H66.2826V120.234H65.2746H62.2506V124.266H60.2346V120.234V119.226V118.218V117.21V116.202V115.194V114.186ZM65.2746 114.186H63.2586H62.2506V117.21V118.218H63.2586H64.2666H65.2746H66.2826H67.2906H68.2986V117.21H69.3066V116.202V115.194H68.2986V114.186H67.2906H66.2826H65.2746ZM91.4933 114.186H89.4773H88.4693V119.226V122.25H89.4773H91.4933H92.5013H93.5093H94.5173V121.242H95.5253V120.234V119.226V116.202V115.194H94.5173V114.186H93.5093H92.5013H91.4933ZM86.4533 114.186V113.178V112.17H87.4613H88.4693H91.4933H95.5253V113.178H96.5333V114.186H97.5413V116.202V117.21V118.218V119.226V122.25H96.5333V123.258H95.5253V124.266H91.4933H88.4693H87.4613H86.4533V123.258V122.25V121.242V119.226V118.218V117.21V116.202V115.194V114.186ZM107.627 122.25V124.266H106.619H105.611H103.595H102.587H101.579V122.25H102.587H103.595V116.202V114.186H102.587H101.579V112.17H102.587H103.595H104.603H105.611H106.619H107.627V114.186H106.619H105.611V122.25H106.619H107.627ZM123.76 113.178V114.186V116.202V118.218V119.226V120.234H122.752V121.242H121.744V122.25H120.736V123.258H119.728V124.266H116.704V123.258H115.696V122.25H114.688V121.242H113.68V120.234H112.672V119.226V118.218V116.202V114.186V113.178V112.17H113.68H114.688V113.178V114.186V118.218V119.226H115.696V120.234H116.704V121.242H117.712V122.25H118.72V121.242H119.728V120.234H120.736V119.226H121.744V118.218V114.186V113.178V112.17H122.752H123.76V113.178ZM125.781 114.186V113.178V112.17H126.789H127.797H130.821H136.869V114.186H135.861H134.853H132.837H131.829H130.821H128.805H127.797V117.21H134.853V119.226H127.797V122.25H128.805H130.821H131.829H132.837H134.853H135.861H136.869V124.266H130.821H127.797H126.789H125.781V123.258V122.25V121.242V119.226V118.218V117.21V116.202V115.194V114.186ZM143.931 114.186H142.923H141.915V115.194H140.907V116.202V117.21V119.226V120.234V121.242H141.915V122.25H142.923H143.931H144.939H145.947H146.955V121.242H147.963V120.234H149.979V122.25H148.971V123.258H147.963V124.266H144.939H143.931H140.907V123.258H139.899V122.25H138.891V120.234V119.226V118.218V117.21V114.186H139.899V113.178H140.907V112.17H142.923H143.931H144.939H147.963V113.178H148.971V114.186H149.979V116.202H147.963V115.194H146.955V114.186H145.947H144.939H143.931ZM152 114.186V113.178V112.17H153.008H154.016H157.04H163.088V114.186H162.08H161.072H159.056H158.048H157.04H155.024H154.016V117.21H161.072V119.226H154.016V122.25H155.024H157.04H158.048H159.056H161.072H162.08H163.088V124.266H157.04H154.016H153.008H152V123.258V122.25V121.242V119.226V118.218V117.21V116.202V115.194V114.186Z" fill="#393939"/>
</svg>
