<svg width="26" height="24" viewBox="0 0 26 24" fill="none" xmlns="http://www.w3.org/2000/svg">
<path d="M20.2494 20.4414V23.2424H0V0H20.2455V2.7797H3.2456V20.4414H20.2494Z" fill="#FF7C06"/>
<path d="M25.2143 8.4849H22.309C22.1785 7.59734 21.5529 7.23711 20.78 7.06022C19.9789 6.87707 19.1833 6.89899 18.428 7.26254C17.7698 7.57953 17.5172 8.05736 17.6359 8.70836C17.7183 9.15997 17.9942 9.49241 18.4073 9.62019C18.9965 9.80343 19.6005 9.93509 20.2125 10.0137C21.3703 10.1595 22.5295 10.2761 23.5998 10.7923C24.9478 11.4425 25.6184 12.5457 25.6698 14.0132C25.7512 16.3352 24.6181 17.8701 22.3657 18.5136C20.5448 19.0331 18.7438 18.9791 17.0086 18.1773C15.7735 17.6055 14.8398 16.7299 14.4737 15.3651C14.3974 15.0806 14.3778 14.781 14.3281 14.4629C14.4561 14.4466 14.5367 14.4276 14.6173 14.4274C15.3673 14.4251 16.1175 14.4308 16.8675 14.4225C17.057 14.4206 17.1186 14.4881 17.2002 14.6673C17.3473 14.988 17.5272 15.3316 17.7872 15.5555C18.8092 16.4319 20.7301 16.5254 21.8671 15.801C22.5729 15.351 22.8064 14.6844 22.5338 13.9185C22.3739 13.47 22.0536 13.1667 21.613 13.0491C21.0584 12.9012 20.4879 12.8024 19.9186 12.7222C18.826 12.5678 17.7469 12.3651 16.7451 11.8714C15.2971 11.1576 14.6189 9.96789 14.6347 8.37709C14.6496 6.85437 15.4466 5.78894 16.7636 5.15908C18.6859 4.23942 20.699 4.11576 22.6702 4.96615C24.0223 5.54944 24.9222 6.60744 25.2033 8.10863C25.2145 8.17186 25.221 8.23582 25.2229 8.29999C25.2254 8.35126 25.2188 8.40311 25.2143 8.4849Z" fill="#FF7C06"/>
</svg>
