<svg width="10" height="10" viewBox="0 0 10 10" fill="none" xmlns="http://www.w3.org/2000/svg">
<path d="M4.8046 0.00360077C2.22545 0.0915728 0.121138 2.02233 0.00617579 4.41609C-0.0365603 5.20938 0.143063 5.99941 0.527575 6.70934C0.912087 7.41927 1.4884 8.02494 2.20045 8.46743V9.25918C2.20045 9.45566 2.28471 9.64409 2.43469 9.78302C2.58467 9.92195 2.78809 10 3.00019 10H3.40006C3.45309 10 3.50394 9.98049 3.54144 9.94576C3.57893 9.91102 3.6 9.86392 3.6 9.8148V8.71746C3.59835 8.62134 3.63613 8.52823 3.70571 8.4569C3.77528 8.38558 3.87147 8.34136 3.97487 8.33316C4.02945 8.33 4.08414 8.33723 4.13558 8.35442C4.18702 8.37162 4.2341 8.3984 4.27392 8.43312C4.31374 8.46783 4.34545 8.50974 4.36709 8.55626C4.38873 8.60278 4.39984 8.65292 4.39973 8.70357V9.8148C4.39973 9.86392 4.4208 9.91102 4.45829 9.94576C4.49579 9.98049 4.54664 10 4.59967 10H5.3994C5.45243 10 5.50328 9.98049 5.54078 9.94576C5.57827 9.91102 5.59934 9.86392 5.59934 9.8148V8.71746C5.5977 8.62134 5.63547 8.52823 5.70505 8.4569C5.77463 8.38558 5.87082 8.34136 5.97422 8.33316C6.02879 8.33 6.08349 8.33723 6.13492 8.35442C6.18636 8.37162 6.23344 8.3984 6.27326 8.43312C6.31308 8.46783 6.34479 8.50974 6.36643 8.55626C6.38807 8.60278 6.39918 8.65292 6.39908 8.70357V9.8148C6.39908 9.86392 6.42014 9.91102 6.45763 9.94576C6.49513 9.98049 6.54598 10 6.59901 10H6.99888C7.21098 10 7.4144 9.92195 7.56438 9.78302C7.71436 9.64409 7.79862 9.45566 7.79862 9.25918V8.46743C8.69959 7.90393 9.37768 7.08368 9.73009 6.13104C10.0825 5.1784 10.09 4.1453 9.75149 3.18834C9.41298 2.23139 8.74689 1.40275 7.85419 0.828048C6.9615 0.253343 5.89087 -0.0360975 4.8046 0.00360077ZM3.20013 6.29592C3.00241 6.29592 2.80913 6.24161 2.64474 6.13985C2.48034 6.0381 2.35221 5.89348 2.27655 5.72427C2.20089 5.55506 2.18109 5.36887 2.21966 5.18924C2.25824 5.00961 2.35345 4.8446 2.49325 4.7151C2.63306 4.58559 2.81118 4.4974 3.0051 4.46167C3.19902 4.42594 3.40002 4.44427 3.58268 4.51436C3.76535 4.58445 3.92148 4.70314 4.03132 4.85542C4.14117 5.00771 4.1998 5.18674 4.1998 5.36989C4.19848 5.61512 4.09274 5.84995 3.90555 6.02335C3.71836 6.19674 3.46485 6.2947 3.20013 6.29592ZM6.79894 6.29592C6.60123 6.29592 6.40795 6.24161 6.24356 6.13985C6.07916 6.0381 5.95103 5.89348 5.87537 5.72427C5.79971 5.55506 5.77991 5.36887 5.81848 5.18924C5.85705 5.00961 5.95226 4.8446 6.09207 4.7151C6.23188 4.58559 6.41 4.4974 6.60392 4.46167C6.79784 4.42594 6.99884 4.44427 7.1815 4.51436C7.36417 4.58445 7.5203 4.70314 7.63014 4.85542C7.73999 5.00771 7.79862 5.18674 7.79862 5.36989C7.7973 5.61512 7.69156 5.84995 7.50437 6.02335C7.31718 6.19674 7.06367 6.2947 6.79894 6.29592Z" fill="#393939"/>
</svg>
