<svg width="22" height="22" viewBox="0 0 22 22" fill="none" xmlns="http://www.w3.org/2000/svg">
<rect width="10.4763" height="16.7621" transform="matrix(-1 0 0 1 16.6218 2.09521)" fill="#FF9638"/>
<rect width="18.8573" height="14.6668" transform="matrix(-1 0 0 1 20.8113 3.14355)" fill="#FF9638"/>
<rect width="1.04763" height="2.09526" transform="matrix(1 -8.74228e-08 -8.74228e-08 -1 19.7661 16.7615)" fill="#ED7000"/>
<rect width="1.04763" height="2.09526" transform="matrix(1 -8.74228e-08 -8.74228e-08 -1 18.7153 18.8582)" fill="#ED7000"/>
<rect width="1.04763" height="2.09526" transform="matrix(1 -8.74228e-08 -8.74228e-08 -1 17.6702 19.905)" fill="#ED7000"/>
<rect width="1.04763" height="2.09526" transform="matrix(1 -8.74228e-08 -8.74228e-08 -1 5.0968 19.905)" fill="#ED7000"/>
<rect width="1.04763" height="2.09526" transform="matrix(1 -8.74228e-08 -8.74228e-08 -1 4.04834 19.905)" fill="#ED7000"/>
<rect width="1.04763" height="2.09526" transform="matrix(1 -8.74228e-08 -8.74228e-08 -1 3.0033 18.8582)" fill="#ED7000"/>
<rect width="1.04763" height="2.09526" transform="matrix(1 -8.74228e-08 -8.74228e-08 -1 1.95483 16.7615)" fill="#ED7000"/>
<rect width="1.04763" height="2.09526" transform="matrix(1 -8.74228e-08 -8.74228e-08 -1 16.6226 19.905)" fill="#ED7000"/>
<rect width="10.4763" height="2.09526" transform="matrix(1 -8.74228e-08 -8.74228e-08 -1 6.1449 20.9524)" fill="#ED7000"/>
<rect width="10.4763" height="1.04763" transform="matrix(-1 0 0 1 16.6226 0)" fill="#393939"/>
<rect width="2.09526" height="1.04763" transform="matrix(-1 0 0 1 18.7153 1.04736)" fill="#393939"/>
<rect x="4.04785" y="1.04736" width="2.09526" height="1.04763" fill="#393939"/>
<rect width="2.09526" height="1.04763" transform="matrix(4.37114e-08 -1 -1 -4.37114e-08 20.8113 18.8582)" fill="#393939"/>
<rect x="1.95483" y="18.8582" width="2.09526" height="1.04763" transform="rotate(-90 1.95483 18.8582)" fill="#393939"/>
<rect width="1.04763" height="1.04763" transform="matrix(-1 0 0 1 19.7661 2.09521)" fill="#393939"/>
<rect x="3.0033" y="2.09521" width="1.04763" height="1.04763" fill="#393939"/>
<rect width="1.04763" height="1.04763" transform="matrix(4.37114e-08 -1 -1 -4.37114e-08 19.7661 19.905)" fill="#393939"/>
<rect x="3.00378" y="19.905" width="1.04763" height="1.04763" transform="rotate(-90 3.00378 19.905)" fill="#393939"/>
<rect width="1.04763" height="2.09526" transform="matrix(-1 0 0 1 20.8113 3.14355)" fill="#393939"/>
<rect x="1.95483" y="3.14355" width="1.04763" height="2.09526" fill="#393939"/>
<rect width="1.04763" height="2.09526" transform="matrix(4.37114e-08 -1 -1 -4.37114e-08 18.7153 20.9524)" fill="#393939"/>
<rect x="4.04785" y="20.9524" width="1.04763" height="2.09526" transform="rotate(-90 4.04785 20.9524)" fill="#393939"/>
<rect width="10.4763" height="1.04763" transform="matrix(-1 0 0 1 16.6218 20.9524)" fill="#393939"/>
<rect width="11.5239" height="1.04763" transform="matrix(4.37114e-08 1 1 -4.37114e-08 0.905884 5.23828)" fill="#393939"/>
<rect width="11.5239" height="1.04763" transform="matrix(4.37114e-08 1 1 -4.37114e-08 20.8113 5.23828)" fill="#393939"/>
<rect width="1.04763" height="10.4763" transform="matrix(4.37114e-08 1 1 -4.37114e-08 6.1449 1.04736)" fill="#FFC088"/>
<rect width="1.04763" height="10.4763" transform="matrix(-1.31134e-07 -1 -1 1.31134e-07 16.6218 18.8582)" fill="#FFC088"/>
<rect width="1.04763" height="2.09526" transform="matrix(4.37114e-08 1 1 -4.37114e-08 16.6218 2.09521)" fill="#FFC088"/>
<rect width="1.04763" height="2.09526" transform="matrix(-1.31134e-07 -1 -1 1.31134e-07 6.1449 17.8093)" fill="#FFC088"/>
<rect width="1.04763" height="1.04763" transform="matrix(4.37114e-08 1 1 -4.37114e-08 18.7153 3.14355)" fill="#FFC088"/>
<rect width="1.04763" height="1.04763" transform="matrix(-1.31134e-07 -1 -1 1.31134e-07 4.04785 16.7615)" fill="#FFC088"/>
<rect width="1.04763" height="1.04763" transform="matrix(4.37114e-08 1 1 -4.37114e-08 19.7661 5.23828)" fill="#FFC088"/>
<rect width="1.04763" height="1.04763" transform="matrix(-1.31134e-07 -1 -1 1.31134e-07 3.0033 14.6665)" fill="#FFC088"/>
<rect width="1.04763" height="1.04763" transform="matrix(4.37114e-08 1 1 -4.37114e-08 3.0033 3.14355)" fill="#FFC088"/>
<rect width="1.04763" height="1.04763" transform="matrix(-1.31134e-07 -1 -1 1.31134e-07 19.7661 16.7615)" fill="#FFC088"/>
<rect width="1.04763" height="1.04763" transform="matrix(4.37114e-08 1 1 -4.37114e-08 1.95483 5.23828)" fill="#FFC088"/>
<rect width="1.04763" height="1.04763" transform="matrix(-1.31134e-07 -1 -1 1.31134e-07 20.8113 14.6665)" fill="#FFC088"/>
<rect width="1.04763" height="2.09526" transform="matrix(4.37114e-08 1 1 -4.37114e-08 4.04785 2.09521)" fill="#FFC088"/>
<rect width="1.04763" height="2.09526" transform="matrix(-1.31134e-07 -1 -1 1.31134e-07 18.7153 17.8093)" fill="#FFC088"/>
</svg>
