<svg width="22" height="22" viewBox="0 0 22 22" fill="none" xmlns="http://www.w3.org/2000/svg">
<rect x="6.19023" y="2.09521" width="10.4763" height="16.7621" fill="white"/>
<rect x="2.00074" y="3.14355" width="18.8573" height="14.6668" fill="white"/>
<rect x="3.04585" y="16.7615" width="1.04763" height="2.09526" transform="rotate(-180 3.04585 16.7615)" fill="#AAAAAA"/>
<rect x="4.09672" y="18.8582" width="1.04763" height="2.09526" transform="rotate(-180 4.09672 18.8582)" fill="#AAAAAA"/>
<rect x="5.14182" y="19.905" width="1.04763" height="2.09526" transform="rotate(-180 5.14182 19.905)" fill="#AAAAAA"/>
<rect x="17.7152" y="19.905" width="1.04763" height="2.09526" transform="rotate(-180 17.7152 19.905)" fill="#AAAAAA"/>
<rect x="18.7636" y="19.905" width="1.04763" height="2.09526" transform="rotate(-180 18.7636 19.905)" fill="#AAAAAA"/>
<rect x="19.8087" y="18.8582" width="1.04763" height="2.09526" transform="rotate(-180 19.8087 18.8582)" fill="#AAAAAA"/>
<rect x="20.8571" y="16.7615" width="1.04763" height="2.09526" transform="rotate(-180 20.8571 16.7615)" fill="#AAAAAA"/>
<rect x="6.18941" y="19.905" width="1.04763" height="2.09526" transform="rotate(-180 6.18941 19.905)" fill="#AAAAAA"/>
<rect x="16.6671" y="20.9524" width="10.4763" height="2.09526" transform="rotate(-180 16.6671 20.9524)" fill="#AAAAAA"/>
<rect x="6.18941" width="10.4763" height="1.04763" fill="#393939"/>
<rect x="4.09672" y="1.04736" width="2.09526" height="1.04763" fill="#393939"/>
<rect width="2.09526" height="1.04763" transform="matrix(-1 0 0 1 18.7642 1.04736)" fill="#393939"/>
<rect x="2.00074" y="18.8582" width="2.09526" height="1.04763" transform="rotate(-90 2.00074 18.8582)" fill="#393939"/>
<rect width="2.09526" height="1.04763" transform="matrix(4.37114e-08 -1 -1 -4.37114e-08 20.8571 18.8582)" fill="#393939"/>
<rect x="3.04585" y="2.09521" width="1.04763" height="1.04763" fill="#393939"/>
<rect width="1.04763" height="1.04763" transform="matrix(-1 0 0 1 19.8087 2.09521)" fill="#393939"/>
<rect x="3.04585" y="19.905" width="1.04763" height="1.04763" transform="rotate(-90 3.04585 19.905)" fill="#393939"/>
<rect width="1.04763" height="1.04763" transform="matrix(4.37114e-08 -1 -1 -4.37114e-08 19.8082 19.905)" fill="#393939"/>
<rect x="2.00074" y="3.14355" width="1.04763" height="2.09526" fill="#393939"/>
<rect width="1.04763" height="2.09526" transform="matrix(-1 0 0 1 20.8571 3.14355)" fill="#393939"/>
<rect x="4.09672" y="20.9524" width="1.04763" height="2.09526" transform="rotate(-90 4.09672 20.9524)" fill="#393939"/>
<rect width="1.04763" height="2.09526" transform="matrix(4.37114e-08 -1 -1 -4.37114e-08 18.7642 20.9524)" fill="#393939"/>
<rect x="6.19023" y="20.9524" width="10.4763" height="1.04763" fill="#393939"/>
<rect x="21.9061" y="5.23828" width="11.5239" height="1.04763" transform="rotate(90 21.9061 5.23828)" fill="#393939"/>
<rect x="2.00074" y="5.23828" width="11.5239" height="1.04763" transform="rotate(90 2.00074 5.23828)" fill="#393939"/>
<rect x="16.6671" y="1.04736" width="1.04763" height="10.4763" transform="rotate(90 16.6671 1.04736)" fill="#EDEDED"/>
<rect x="6.19023" y="18.8582" width="1.04763" height="10.4763" transform="rotate(-90 6.19023 18.8582)" fill="#EDEDED"/>
<rect x="6.19023" y="2.09521" width="1.04763" height="2.09526" transform="rotate(90 6.19023 2.09521)" fill="#EDEDED"/>
<rect x="16.6671" y="17.8093" width="1.04763" height="2.09526" transform="rotate(-90 16.6671 17.8093)" fill="#EDEDED"/>
<rect x="4.09672" y="3.14355" width="1.04763" height="1.04763" transform="rotate(90 4.09672 3.14355)" fill="#EDEDED"/>
<rect x="18.7642" y="16.7615" width="1.04763" height="1.04763" transform="rotate(-90 18.7642 16.7615)" fill="#EDEDED"/>
<rect x="3.04585" y="5.23828" width="1.04763" height="1.04763" transform="rotate(90 3.04585 5.23828)" fill="#EDEDED"/>
<rect x="19.8087" y="14.6665" width="1.04763" height="1.04763" transform="rotate(-90 19.8087 14.6665)" fill="#EDEDED"/>
<rect x="19.8087" y="3.14355" width="1.04763" height="1.04763" transform="rotate(90 19.8087 3.14355)" fill="#EDEDED"/>
<rect x="3.04585" y="16.7615" width="1.04763" height="1.04763" transform="rotate(-90 3.04585 16.7615)" fill="#EDEDED"/>
<rect x="20.8571" y="5.23828" width="1.04763" height="1.04763" transform="rotate(90 20.8571 5.23828)" fill="#EDEDED"/>
<rect x="2.00074" y="14.6665" width="1.04763" height="1.04763" transform="rotate(-90 2.00074 14.6665)" fill="#EDEDED"/>
<rect x="18.7642" y="2.09521" width="1.04763" height="2.09526" transform="rotate(90 18.7642 2.09521)" fill="#EDEDED"/>
<rect x="4.09672" y="17.8093" width="1.04763" height="2.09526" transform="rotate(-90 4.09672 17.8093)" fill="#EDEDED"/>
</svg>
