<svg width="22" height="22" viewBox="0 0 22 22" fill="none" xmlns="http://www.w3.org/2000/svg">
<rect x="6.19006" y="2.09521" width="10.4763" height="16.7621" fill="#FB38FF"/>
<rect x="2.00055" y="3.14355" width="18.8573" height="14.6668" fill="#FB38FF"/>
<rect x="3.04565" y="16.7615" width="1.04763" height="2.09526" transform="rotate(-180 3.04565 16.7615)" fill="#A1009A"/>
<rect x="4.09656" y="18.8582" width="1.04763" height="2.09526" transform="rotate(-180 4.09656 18.8582)" fill="#A1009A"/>
<rect x="5.14166" y="19.905" width="1.04763" height="2.09526" transform="rotate(-180 5.14166 19.905)" fill="#A1009A"/>
<rect x="17.7151" y="19.905" width="1.04763" height="2.09526" transform="rotate(-180 17.7151 19.905)" fill="#A1009A"/>
<rect x="18.7635" y="19.905" width="1.04763" height="2.09526" transform="rotate(-180 18.7635 19.905)" fill="#A1009A"/>
<rect x="19.8085" y="18.8582" width="1.04763" height="2.09526" transform="rotate(-180 19.8085 18.8582)" fill="#A1009A"/>
<rect x="20.857" y="16.7615" width="1.04763" height="2.09526" transform="rotate(-180 20.857 16.7615)" fill="#A1009A"/>
<rect x="6.18921" y="19.905" width="1.04763" height="2.09526" transform="rotate(-180 6.18921 19.905)" fill="#A1009A"/>
<rect x="16.6669" y="20.9524" width="10.4763" height="2.09526" transform="rotate(-180 16.6669 20.9524)" fill="#A1009A"/>
<rect x="6.18921" width="10.4763" height="1.04763" fill="#393939"/>
<rect x="4.09656" y="1.04736" width="2.09526" height="1.04763" fill="#393939"/>
<rect width="2.09526" height="1.04763" transform="matrix(-1 0 0 1 18.764 1.04736)" fill="#393939"/>
<rect x="2.00055" y="18.8582" width="2.09526" height="1.04763" transform="rotate(-90 2.00055 18.8582)" fill="#393939"/>
<rect width="2.09526" height="1.04763" transform="matrix(4.37114e-08 -1 -1 -4.37114e-08 20.857 18.8582)" fill="#393939"/>
<rect x="3.04565" y="2.09521" width="1.04763" height="1.04763" fill="#393939"/>
<rect width="1.04763" height="1.04763" transform="matrix(-1 0 0 1 19.8085 2.09521)" fill="#393939"/>
<rect x="3.04565" y="19.905" width="1.04763" height="1.04763" transform="rotate(-90 3.04565 19.905)" fill="#393939"/>
<rect width="1.04763" height="1.04763" transform="matrix(4.37114e-08 -1 -1 -4.37114e-08 19.808 19.905)" fill="#393939"/>
<rect x="2.00055" y="3.14355" width="1.04763" height="2.09526" fill="#393939"/>
<rect width="1.04763" height="2.09526" transform="matrix(-1 0 0 1 20.857 3.14355)" fill="#393939"/>
<rect x="4.09656" y="20.9524" width="1.04763" height="2.09526" transform="rotate(-90 4.09656 20.9524)" fill="#393939"/>
<rect width="1.04763" height="2.09526" transform="matrix(4.37114e-08 -1 -1 -4.37114e-08 18.764 20.9524)" fill="#393939"/>
<rect x="6.19006" y="20.9524" width="10.4763" height="1.04763" fill="#393939"/>
<rect x="21.9059" y="5.23828" width="11.5239" height="1.04763" transform="rotate(90 21.9059 5.23828)" fill="#393939"/>
<rect x="2.00055" y="5.23828" width="11.5239" height="1.04763" transform="rotate(90 2.00055 5.23828)" fill="#393939"/>
<rect x="16.6669" y="1.04736" width="1.04763" height="10.4763" transform="rotate(90 16.6669 1.04736)" fill="#EE88FF"/>
<rect x="6.19006" y="18.8582" width="1.04763" height="10.4763" transform="rotate(-90 6.19006 18.8582)" fill="#EE88FF"/>
<rect x="6.19006" y="2.09521" width="1.04763" height="2.09526" transform="rotate(90 6.19006 2.09521)" fill="#EE88FF"/>
<rect x="16.6669" y="17.8093" width="1.04763" height="2.09526" transform="rotate(-90 16.6669 17.8093)" fill="#EE88FF"/>
<rect x="4.09656" y="3.14355" width="1.04763" height="1.04763" transform="rotate(90 4.09656 3.14355)" fill="#EE88FF"/>
<rect x="18.764" y="16.7615" width="1.04763" height="1.04763" transform="rotate(-90 18.764 16.7615)" fill="#EE88FF"/>
<rect x="3.04565" y="5.23828" width="1.04763" height="1.04763" transform="rotate(90 3.04565 5.23828)" fill="#EE88FF"/>
<rect x="19.8085" y="14.6665" width="1.04763" height="1.04763" transform="rotate(-90 19.8085 14.6665)" fill="#EE88FF"/>
<rect x="19.8085" y="3.14355" width="1.04763" height="1.04763" transform="rotate(90 19.8085 3.14355)" fill="#EE88FF"/>
<rect x="3.04565" y="16.7615" width="1.04763" height="1.04763" transform="rotate(-90 3.04565 16.7615)" fill="#EE88FF"/>
<rect x="20.857" y="5.23828" width="1.04763" height="1.04763" transform="rotate(90 20.857 5.23828)" fill="#EE88FF"/>
<rect x="2.00055" y="14.6665" width="1.04763" height="1.04763" transform="rotate(-90 2.00055 14.6665)" fill="#EE88FF"/>
<rect x="18.764" y="2.09521" width="1.04763" height="2.09526" transform="rotate(90 18.764 2.09521)" fill="#EE88FF"/>
<rect x="4.09656" y="17.8093" width="1.04763" height="2.09526" transform="rotate(-90 4.09656 17.8093)" fill="#EE88FF"/>
</svg>
