<svg width="205" height="46" viewBox="0 0 205 46" fill="none" xmlns="http://www.w3.org/2000/svg">
<path fill-rule="evenodd" clip-rule="evenodd" d="M0.0802632 0.51432C0.000199482 0.594007 -0.0240862 8.97486 0.0262103 19.1379L0.117567 37.6164L1.73698 37.7204L3.35639 37.8244L3.45972 39.6199L3.56339 41.4154H5.42709H7.29114V43.2964V45.1775L185.519 45.1768H204.167V26.5375V7.89822H202.474H200.781L200.677 6.10269L200.574 4.30716L198.795 4.20422L197.016 4.10162L196.913 2.32319L196.81 0.545103L178.308 0.456524C168.133 0.40796 0.160327 0.43429 0.0802632 0.51432ZM193.218 34.2326H178.144L3.48983 34.2333L3.59419 35.8578L3.69854 37.4823L5.49484 37.5856L7.29114 37.6893V39.5522V41.4154L181.945 41.4148H197.017L196.914 39.6192L196.81 37.8237L195.014 37.7204L193.218 37.6168V35.9249V34.2326ZM193.218 34.2326V19.1844V4.13616H195.1H196.981V6.01719V7.89822H198.863H200.745V22.7755V37.6527H198.863H196.981V35.9427V34.2326H195.1H193.218ZM189.454 30.4706V17.3034V4.13616H176.461L3.88603 4.13684L3.79229 16.7336C3.74063 23.6619 3.74815 29.5872 3.80905 29.9008C3.90999 30.4213 164.635 30.4706 176.477 30.4706H189.454Z" fill="#393939"/>
<path d="M22.73 20.326V21.8684H24.2737V23.4108H25.8174H27.3611H28.9048H30.4486H31.9923V21.8684H33.536V20.326H31.9923V18.7835H30.4486H28.9048H27.3611H22.73V17.2411H21.1863V15.6987H19.6426V14.1563V12.6138V11.0714H21.1863V9.529H22.73V7.98657H25.8174H27.3611H28.9048H33.536V9.529H35.0797V11.0714H36.6234V14.1563H33.536V12.6138H31.9923V11.0714H30.4486H28.9048H27.3611H25.8174H24.2737V12.6138H22.73V14.1563H24.2737V15.6987H25.8174H27.3611H28.9048H33.536V17.2411H35.0797V18.7835H36.6234V20.326V21.8684V23.4108H35.0797V24.9532H33.536V26.4957H28.9048H27.3611H22.73V24.9532H21.1863V23.4108H19.6426V20.326H22.73Z" fill="#FF7C06"/>
<path d="M39.7191 11.0714V9.529V7.98657H41.2628H42.8065H47.4376H53.6125V9.529H55.1562V11.0714H56.6999V14.1563V15.6987V17.2411H55.1562V18.7835H53.6125V20.326H47.4376H42.8065V26.4957H39.7191V20.326V18.7835V17.2411V15.6987V14.1563V12.6138V11.0714ZM47.4376 11.0714H44.3502H42.8065V15.6987V17.2411H44.3502H47.4376H48.9813H50.525H52.0688V15.6987H53.6125V14.1563V12.6138H52.0688V11.0714H50.525H48.9813H47.4376Z" fill="#FF7C06"/>
<path d="M59.7955 24.9532V23.4108V20.326V17.2411V15.6987V14.1563H61.3392V12.6138H62.883V11.0714H64.4267V9.529H65.9704V7.98657H70.6015V9.529H72.1452V11.0714H73.6889V12.6138H75.2327V14.1563H76.7764V15.6987V17.2411V20.326V23.4108V24.9532V26.4957H75.2327H73.6889V24.9532V23.4108V20.326H62.883V23.4108V24.9532V26.4957H61.3392H59.7955V24.9532ZM73.6889 17.2411V15.6987H72.1452V14.1563H70.6015V12.6138H69.0578V11.0714H67.5141V12.6138H65.9704V14.1563H64.4267V15.6987H62.883V17.2411H73.6889Z" fill="#FF7C06"/>
<path d="M87.5906 11.0714H86.0469H84.5032V12.6138H82.9594V14.1563V15.6987V18.7835V20.326V21.8684H84.5032V23.4108H86.0469H87.5906H89.1343H90.678H92.2217V21.8684H93.7654V20.326H96.8528V23.4108H95.3091V24.9532H93.7654V26.4957H89.1343H87.5906H82.9594V24.9532H81.4157V23.4108H79.872V20.326V18.7835V17.2411V15.6987V11.0714H81.4157V9.529H82.9594V7.98657H86.0469H87.5906H89.1343H93.7654V9.529H95.3091V11.0714H96.8528V14.1563H93.7654V12.6138H92.2217V11.0714H90.678H89.1343H87.5906Z" fill="#FF7C06"/>
<path d="M99.9485 11.0714V9.529V7.98657H101.492H103.036H107.667H116.929V11.0714H115.386H113.842H110.754H109.211H107.667H104.58H103.036V15.6987H113.842V18.7835H103.036V23.4108H104.58H107.667H109.211H110.754H113.842H115.386H116.929V26.4957H107.667H103.036H101.492H99.9485V24.9532V23.4108V21.8684V18.7835V17.2411V15.6987V14.1563V12.6138V11.0714Z" fill="#FF7C06"/>
<path d="M120.025 11.0714V9.529V7.98657H121.569H123.112H127.744H133.918V9.529H135.462V11.0714H137.006V14.1563V15.6987H135.462V17.2411V18.7835H137.006V23.4108H135.462V24.9532H133.918V26.4957H127.744H123.112H121.569H120.025V24.9532V23.4108V21.8684V18.7835V17.2411V15.6987V14.1563V12.6138V11.0714ZM124.656 23.4108H127.744H129.287H130.831H132.375V21.8684H133.918V20.326H132.375V18.7835H123.112V23.4108H124.656ZM127.744 11.0714H124.656H123.112V15.6987H132.375V14.1563H133.918V12.6138H132.375V11.0714H130.831H129.287H127.744Z" fill="#FF7C06"/>
<path d="M140.101 24.9532V23.4108V20.326V17.2411V15.6987V14.1563H141.645V12.6138H143.189V11.0714H144.733V9.529H146.276V7.98657H150.907V9.529H152.451V11.0714H153.995V12.6138H155.539V14.1563H157.082V15.6987V17.2411V20.326V23.4108V24.9532V26.4957H155.539H153.995V24.9532V23.4108V20.326H143.189V23.4108V24.9532V26.4957H141.645H140.101V24.9532ZM153.995 17.2411V15.6987H152.451V14.1563H150.907V12.6138H149.364V11.0714H147.82V12.6138H146.276V14.1563H144.733V15.6987H143.189V17.2411H153.995Z" fill="#FF7C06"/>
<path d="M160.178 11.0714V9.529V7.98657H161.722H163.265H167.897H174.071V9.529H175.615V11.0714H177.159V14.1563V15.6987V17.2411H175.615V18.7835H174.071V20.326V21.8684H175.615V23.4108H177.159V24.9532V26.4957H174.071V24.9532H172.528V23.4108H170.984V21.8684H169.44V20.326H167.897H163.265V26.4957H160.178V20.326V18.7835V17.2411V15.6987V14.1563V12.6138V11.0714ZM167.897 11.0714H164.809H163.265V15.6987V17.2411H164.809H166.353H167.897H169.44H170.984H172.528V15.6987H174.071V14.1563V12.6138H172.528V11.0714H170.984H169.44H167.897Z" fill="#FF7C06"/>
</svg>
