<svg width="351" height="120" viewBox="0 0 351 120" fill="none" xmlns="http://www.w3.org/2000/svg">
<rect x="4.92969" y="34" width="342.134" height="74.0002" fill="white"/>
<rect x="343.141" y="108" width="3.93257" height="4.00001" fill="black"/>
<rect width="3.93257" height="4.00001" transform="matrix(-1 0 0 1 8.86719 108)" fill="black"/>
<rect width="3.93257" height="4.00001" transform="matrix(-1 0 0 1 8.86719 104)" fill="#5A5A5A"/>
<rect width="3.93257" height="4.00001" transform="matrix(-1 0 0 1 8.86719 100)" fill="#AFAFAF"/>
<rect width="3.93257" height="4.00001" transform="matrix(-1 0 0 1 343.141 108)" fill="#5A5A5A"/>
<rect width="3.93257" height="4.00001" transform="matrix(-1 0 0 1 347.062 104)" fill="#5A5A5A"/>
<rect width="3.93257" height="4.00001" transform="matrix(-1 0 0 1 343.141 104)" fill="#AFAFAF"/>
<rect width="3.93257" height="4.00001" transform="matrix(-1 0 0 1 347.062 100)" fill="#AFAFAF"/>
<rect width="3.93257" height="4.00001" transform="matrix(-1 0 0 1 12.7969 108)" fill="#5A5A5A"/>
<rect width="3.93257" height="4.00001" transform="matrix(-1 0 0 1 12.7969 104)" fill="#AFAFAF"/>
<rect width="326.404" height="4.00001" transform="matrix(-1 0 0 1 339.203 112.001)" fill="#5A5A5A"/>
<rect width="326.404" height="4.00001" transform="matrix(-1 0 0 1 339.203 108)" fill="#AFAFAF"/>
<rect x="343.141" y="30" width="3.93257" height="4.00001" fill="black"/>
<rect width="3.93257" height="4.00001" transform="matrix(-1 0 0 1 8.86719 30)" fill="black"/>
<rect x="339.203" y="112.001" width="3.93257" height="4.00001" fill="black"/>
<rect width="3.93257" height="4.00001" transform="matrix(-1 0 0 1 12.7969 112.001)" fill="black"/>
<rect x="12.7969" y="116" width="326.404" height="4.00001" fill="black"/>
<rect x="347.062" y="34" width="3.93257" height="74.0002" fill="black"/>
<rect width="3.93257" height="74.0002" transform="matrix(-1 0 0 1 4.92969 34)" fill="black"/>
<path fill-rule="evenodd" clip-rule="evenodd" d="M335.273 0H16.7344V4H12.8047V8.00001H16.7373V4.00001H335.273V0ZM339.206 4H335.273V8.00001L339.203 8V94.0002L335.273 94V98H339.206V94L343.136 94.0002V8L339.206 8.00001V4ZM8.86719 8H12.7998V94.0002H8.86719V8ZM12.8047 94H16.7373V98L335.273 98V102H16.7344V98L12.8047 98V94Z" fill="black"/>
<path fill-rule="evenodd" clip-rule="evenodd" d="M335.273 4H16.7344V8H12.7969V92.0002H339.201V8H335.273V4Z" fill="#FF9638"/>
<rect x="12.7969" y="8" width="3.93257" height="4.00001" fill="#FFC088"/>
<rect x="339.203" y="8" width="4.00001" height="3.93257" transform="rotate(90 339.203 8)" fill="#FFC088"/>
<rect x="339.203" y="82.001" width="3.93257" height="4.00001" transform="rotate(-180 339.203 82.001)" fill="#FFC088"/>
<rect x="12.7969" y="82.001" width="4.00001" height="3.93257" transform="rotate(-90 12.7969 82.001)" fill="#FFC088"/>
<rect x="12.7969" y="94" width="12" height="3.93257" transform="rotate(-90 12.7969 94)" fill="#ED7000"/>
<rect x="16.7344" y="8" width="3.93257" height="4.00001" fill="#DC7519"/>
<rect x="339.203" y="12" width="4.00001" height="3.93257" transform="rotate(90 339.203 12)" fill="#DC7519"/>
<rect x="335.273" y="82.001" width="3.93257" height="4.00001" transform="rotate(-180 335.273 82.001)" fill="#DC7519"/>
<rect x="12.7969" y="78" width="4.00001" height="3.93257" transform="rotate(-90 12.7969 78)" fill="#DC7519"/>
<rect x="12.7969" y="12" width="3.93257" height="4.00001" fill="#DC7519"/>
<rect x="335.273" y="8" width="4.00001" height="3.93257" transform="rotate(90 335.273 8)" fill="#DC7519"/>
<rect x="339.203" y="78" width="3.93257" height="4.00001" transform="rotate(-180 339.203 78)" fill="#DC7519"/>
<rect x="16.7344" y="82.001" width="4.00001" height="3.93257" transform="rotate(-90 16.7344 82.001)" fill="#DC7519"/>
<rect x="339.203" y="94" width="3.93258" height="12" transform="rotate(-180 339.203 94)" fill="#ED7000"/>
<rect x="335.273" y="98" width="318.539" height="12" transform="rotate(-180 335.273 98)" fill="#ED7000"/>
<rect x="16.7344" y="4" width="318.539" height="4.00001" fill="#FFC088"/>
<rect x="16.7344" y="82.001" width="318.539" height="4.00001" fill="#FFC088"/>
<rect x="32.4609" y="98" width="12" height="7.86515" transform="rotate(-90 32.4609 98)" fill="#FFA24F"/>
<rect width="12" height="7.86515" transform="matrix(-1.28923e-07 -1 -1 1.33383e-07 311.672 98)" fill="#FFA24F"/>
<rect x="42.2891" y="98" width="12" height="5.89886" transform="rotate(-90 42.2891 98)" fill="#FFA24F"/>
<rect width="12" height="5.89886" transform="matrix(-1.28923e-07 -1 -1 1.33383e-07 301.844 98)" fill="#FFA24F"/>
<rect x="50.1562" y="98" width="12" height="3.93257" transform="rotate(-90 50.1562 98)" fill="#FFA24F"/>
<rect width="12" height="3.93257" transform="matrix(-1.28923e-07 -1 -1 1.33383e-07 293.984 98)" fill="#FFA24F"/>
<rect x="56.0547" y="98" width="12" height="1.96629" transform="rotate(-90 56.0547 98)" fill="#FFA24F"/>
<rect width="12" height="1.96629" transform="matrix(-1.28923e-07 -1 -1 1.33383e-07 288.078 98)" fill="#FFA24F"/>
<path d="M58.5165 40.6667V32.6667V30H63.9655V32.6667V35.3333V56.6667V62H58.5165V56.6667H55.792V54H53.0675V51.3333H50.3431V48.6667H47.6186V46H44.8941V43.3333H42.1696V40.6667H39.4451V48.6667V62H36.7206H33.9961V59.3333V56.6667V54V48.6667V46V43.3333V40.6667V38V35.3333V32.6667V30H36.7206H39.4451V32.6667H42.1696V35.3333H44.8941V38H47.6186V40.6667H50.3431V43.3333H53.0675V46H55.792V48.6667H58.5165V40.6667Z" fill="#393939"/>
<path d="M69.429 35.3333V32.6667V30H72.1535H74.878H83.0515H99.3985V35.3333H96.674H93.9495H88.5005H85.776H83.0515H77.6025H74.878V43.3333H93.9495V48.6667H74.878V56.6667H77.6025H83.0515H85.776H88.5005H93.9495H96.674H99.3985V62H83.0515H74.878H72.1535H69.429V59.3333V56.6667V54V48.6667V46V43.3333V40.6667V38V35.3333Z" fill="#393939"/>
<path d="M129.382 43.3333V30H132.107H134.831V32.6667V35.3333V38V43.3333V46V48.6667V51.3333V54V56.6667V59.3333V62H132.107H129.382V59.3333H126.658V56.6667H123.933V54H121.209V51.3333H118.484V54H115.76V56.6667H113.035V59.3333H110.311V62H104.862V59.3333V56.6667V35.3333V30H110.311V43.3333V51.3333H113.035V48.6667H115.76V46H118.484V43.3333H121.209V46H123.933V48.6667H126.658V51.3333H129.382V43.3333Z" fill="#393939"/>
<path d="M189.35 35.3333H186.626H183.901V38H181.177V40.6667V43.3333V48.6667V51.3333V54H183.901V56.6667H186.626H189.35H192.075H194.799H197.524V54H200.248V51.3333V48.6667H189.35H186.626V43.3333H189.35H200.248H205.697V51.3333V54V56.6667H202.973V59.3333H200.248V62H192.075H189.35H181.177V59.3333H178.452V56.6667H175.728V51.3333V48.6667V46V43.3333V35.3333H178.452V32.6667H181.177V30H186.626H189.35H192.075H202.973V32.6667H205.697V38H200.248V35.3333H194.799H192.075H189.35Z" fill="#393939"/>
<path d="M211.161 59.3333V56.6667V51.3333V46V43.3333V40.6667H213.885V38H216.61V35.3333H219.334V32.6667H222.059V30H230.232V32.6667H232.957V35.3333H235.681V38H238.406V40.6667H241.13V43.3333V46V51.3333V56.6667V59.3333V62H238.406H235.681V59.3333V56.6667V51.3333H216.61V56.6667V59.3333V62H213.885H211.161V59.3333ZM235.681 46V43.3333H232.957V40.6667H230.232V38H227.508V35.3333H224.783V38H222.059V40.6667H219.334V43.3333H216.61V46H235.681Z" fill="#393939"/>
<path d="M252.043 48.6667V62H249.318H246.594V59.3333V56.6667V54V48.6667V46V43.3333V40.6667V38V35.3333V32.6667V30H249.318H252.043V32.6667H254.767V35.3333H257.492V38H260.216V40.6667H262.941V38H265.665V35.3333H268.39V32.6667H271.114V30H276.563V32.6667V35.3333V56.6667V62H271.114V48.6667V40.6667H268.39V43.3333H265.665V46H262.941V48.6667H260.216V46H257.492V43.3333H254.767V40.6667H252.043V48.6667Z" fill="#393939"/>
<path d="M282.027 35.3333V32.6667V30H284.751H287.476H295.649H311.996V35.3333H309.272H306.547H301.098H298.374H295.649H290.2H287.476V43.3333H306.547V48.6667H287.476V56.6667H290.2H295.649H298.374H301.098H306.547H309.272H311.996V62H295.649H287.476H284.751H282.027V59.3333V56.6667V54V48.6667V46V43.3333V40.6667V38V35.3333Z" fill="#393939"/>
<path d="M58.5165 37V28.75V26H63.9655V28.75V31.5V53.5V59H58.5165V53.5H55.792V50.75H53.0675V48H50.3431V45.25H47.6186V42.5H44.8941V39.75H42.1696V37H39.4451V45.25V59H36.7206H33.9961V56.25V53.5V50.75V45.25V42.5V39.75V37V34.25V31.5V28.75V26H36.7206H39.4451V28.75H42.1696V31.5H44.8941V34.25H47.6186V37H50.3431V39.75H53.0675V42.5H55.792V45.25H58.5165V37Z" fill="white"/>
<path d="M69.429 31.5V28.75V26H72.1535H74.878H83.0515H99.3985V31.5H96.674H93.9495H88.5005H85.776H83.0515H77.6025H74.878V39.75H93.9495V45.25H74.878V53.5H77.6025H83.0515H85.776H88.5005H93.9495H96.674H99.3985V59H83.0515H74.878H72.1535H69.429V56.25V53.5V50.75V45.25V42.5V39.75V37V34.25V31.5Z" fill="white"/>
<path d="M129.382 39.75V26H132.107H134.831V28.75V31.5V34.25V39.75V42.5V45.25V48V50.75V53.5V56.25V59H132.107H129.382V56.25H126.658V53.5H123.933V50.75H121.209V48H118.484V50.75H115.76V53.5H113.035V56.25H110.311V59H104.862V56.25V53.5V31.5V26H110.311V39.75V48H113.035V45.25H115.76V42.5H118.484V39.75H121.209V42.5H123.933V45.25H126.658V48H129.382V39.75Z" fill="white"/>
<path d="M189.35 31.5H186.626H183.901V34.25H181.177V37V39.75V45.25V48V50.75H183.901V53.5H186.626H189.35H192.075H194.799H197.524V50.75H200.248V48V45.25H189.35H186.626V39.75H189.35H200.248H205.697V48V50.75V53.5H202.973V56.25H200.248V59H192.075H189.35H181.177V56.25H178.452V53.5H175.728V48V45.25V42.5V39.75V31.5H178.452V28.75H181.177V26H186.626H189.35H192.075H202.973V28.75H205.697V34.25H200.248V31.5H194.799H192.075H189.35Z" fill="white"/>
<path d="M211.161 56.25V53.5V48V42.5V39.75V37H213.885V34.25H216.61V31.5H219.334V28.75H222.059V26H230.232V28.75H232.957V31.5H235.681V34.25H238.406V37H241.13V39.75V42.5V48V53.5V56.25V59H238.406H235.681V56.25V53.5V48H216.61V53.5V56.25V59H213.885H211.161V56.25ZM235.681 42.5V39.75H232.957V37H230.232V34.25H227.508V31.5H224.783V34.25H222.059V37H219.334V39.75H216.61V42.5H235.681Z" fill="white"/>
<path d="M252.043 45.25V59H249.318H246.594V56.25V53.5V50.75V45.25V42.5V39.75V37V34.25V31.5V28.75V26H249.318H252.043V28.75H254.767V31.5H257.492V34.25H260.216V37H262.941V34.25H265.665V31.5H268.39V28.75H271.114V26H276.563V28.75V31.5V53.5V59H271.114V45.25V37H268.39V39.75H265.665V42.5H262.941V45.25H260.216V42.5H257.492V39.75H254.767V37H252.043V45.25Z" fill="white"/>
<path d="M282.027 31.5V28.75V26H284.751H287.476H295.649H311.996V31.5H309.272H306.547H301.098H298.374H295.649H290.2H287.476V39.75H306.547V45.25H287.476V53.5H290.2H295.649H298.374H301.098H306.547H309.272H311.996V59H295.649H287.476H284.751H282.027V56.25V53.5V50.75V45.25V42.5V39.75V37V34.25V31.5Z" fill="white"/>
</svg>
