<svg width="16" height="16" viewBox="0 0 16 16" fill="none" xmlns="http://www.w3.org/2000/svg">
<path fill-rule="evenodd" clip-rule="evenodd" d="M4.10938 1H11.8872V2.55566H13.4436V4.11111H15V11.8889H13.4436V13.4446H11.8872V15H4.10938V13.4446H2.55469V11.8889H1V4.11111L2.55469 4.11111V2.55566H4.10938V1Z" fill="url(#paint0_linear_3125_859)"/>
<path d="M11.8872 1H12.3872V0.5H11.8872V1ZM4.10938 1V0.5H3.60938V1H4.10938ZM11.8872 2.55566H11.3872V3.05566H11.8872V2.55566ZM13.4436 2.55566H13.9436V2.05566H13.4436V2.55566ZM13.4436 4.11111H12.9436V4.61111H13.4436V4.11111ZM15 4.11111H15.5V3.61111H15V4.11111ZM15 11.8889V12.3889H15.5V11.8889H15ZM13.4436 11.8889V11.3889H12.9436V11.8889H13.4436ZM13.4436 13.4446V13.9446H13.9436V13.4446H13.4436ZM11.8872 13.4446V12.9446H11.3872V13.4446H11.8872ZM11.8872 15V15.5H12.3872V15H11.8872ZM4.10938 15H3.60938V15.5H4.10938V15ZM4.10938 13.4446H4.60938V12.9446H4.10938V13.4446ZM2.55469 13.4446H2.05469V13.9446H2.55469V13.4446ZM2.55469 11.8889H3.05469V11.3889H2.55469V11.8889ZM1 11.8889H0.5V12.3889H1V11.8889ZM1 4.11111L1 3.61111L0.5 3.61111V4.11111H1ZM2.55469 4.11111L2.55469 4.61111L3.05469 4.61111V4.11111H2.55469ZM2.55469 2.55566V2.05566H2.05469V2.55566H2.55469ZM4.10938 2.55566V3.05566H4.60938V2.55566H4.10938ZM11.8872 0.5H4.10938V1.5H11.8872V0.5ZM12.3872 2.55566V1H11.3872V2.55566H12.3872ZM11.8872 3.05566H13.4436V2.05566H11.8872V3.05566ZM12.9436 2.55566V4.11111H13.9436V2.55566H12.9436ZM15 3.61111H13.4436V4.61111H15V3.61111ZM15.5 11.8889V4.11111H14.5V11.8889H15.5ZM13.4436 12.3889H15V11.3889H13.4436V12.3889ZM12.9436 11.8889V13.4446H13.9436V11.8889H12.9436ZM13.4436 12.9446H11.8872V13.9446H13.4436V12.9446ZM12.3872 15V13.4446H11.3872V15H12.3872ZM4.10938 15.5H11.8872V14.5H4.10938V15.5ZM3.60938 13.4446V15H4.60938V13.4446H3.60938ZM4.10938 12.9446H2.55469V13.9446H4.10938V12.9446ZM3.05469 13.4446V11.8889H2.05469V13.4446H3.05469ZM1 12.3889H2.55469V11.3889H1V12.3889ZM0.5 4.11111V11.8889H1.5V4.11111H0.5ZM2.55469 3.61111L1 3.61111L1 4.61111L2.55469 4.61111L2.55469 3.61111ZM3.05469 4.11111V2.55566H2.05469V4.11111H3.05469ZM2.55469 3.05566H4.10938V2.05566H2.55469V3.05566ZM3.60938 1V2.55566H4.60938V1H3.60938Z" fill="black" fill-opacity="0.7"/>
<defs>
<linearGradient id="paint0_linear_3125_859" x1="8" y1="1" x2="8" y2="15" gradientUnits="userSpaceOnUse">
<stop stop-color="#41AA57"/>
<stop offset="1" stop-color="#BDFEC0"/>
</linearGradient>
</defs>
</svg>
