<svg width="10" height="10" viewBox="0 0 10 10" fill="none" xmlns="http://www.w3.org/2000/svg">
<path d="M9.8882 0.111819C9.81413 0.0395889 9.7146 -0.000577083 9.61115 6.26643e-06L6.51017 0.00972915C6.45269 0.00980353 6.39593 0.0224631 6.34387 0.0468187C6.29181 0.0711742 6.24571 0.106635 6.20882 0.15071L2.78704 4.29264L2.38362 3.88914C2.23721 3.74486 2.03992 3.66397 1.83438 3.66397C1.62884 3.66397 1.43155 3.74486 1.28515 3.88914L0.667864 4.50655C0.595268 4.57842 0.537638 4.66398 0.498308 4.75827C0.458977 4.85256 0.438727 4.95372 0.438727 5.05589C0.438727 5.15805 0.458977 5.25921 0.498308 5.3535C0.537638 5.44779 0.595268 5.53335 0.667864 5.60523L1.68371 6.62126L0.22556 8.07483C0.0809953 8.22209 0 8.42022 0 8.6266C0 8.83298 0.0809953 9.03111 0.22556 9.17837L0.8234 9.77633C0.971228 9.91977 1.1691 10 1.37506 10C1.58103 10 1.7789 9.91977 1.92673 9.77633L3.38001 8.3179L4.39585 9.33394C4.54226 9.47823 4.73955 9.55911 4.94509 9.55911C5.15063 9.55911 5.34792 9.47823 5.49432 9.33394L6.11161 8.71654C6.1842 8.64466 6.24183 8.5591 6.28116 8.46481C6.32049 8.37052 6.34074 8.26937 6.34074 8.1672C6.34074 8.06503 6.32049 7.96387 6.28116 7.86958C6.24183 7.77529 6.1842 7.68973 6.11161 7.61786L5.70819 7.21436L9.84932 3.79192C9.89338 3.75501 9.92884 3.70891 9.95319 3.65684C9.97754 3.60476 9.9902 3.54799 9.99027 3.49051L9.99999 0.38892C10.0006 0.28545 9.96042 0.185908 9.8882 0.111819ZM9.21259 3.30577L5.15409 6.66016L4.52223 6.02817L7.16633 3.38842C7.22834 3.31285 7.26002 3.21692 7.25523 3.11929C7.25044 3.02165 7.2095 2.92928 7.14039 2.86016C7.07128 2.79104 6.97894 2.7501 6.88132 2.7453C6.7837 2.74051 6.68779 2.7722 6.61224 2.83422L3.97299 5.47883L3.34113 4.84684L6.69486 0.787557L9.22232 0.777834L9.21259 3.30577Z" fill="#393939"/>
</svg>
