<svg width="157" height="28" viewBox="0 0 157 28" fill="none" xmlns="http://www.w3.org/2000/svg">
<path fill-rule="evenodd" clip-rule="evenodd" d="M9 2L9 1L151 1.00001V2.00001L154 2.00001V4L4 3.99999L4 2L9 2ZM157 20L2 20L2 17.3997H1.28906V6.44416H2L2 4H154L155 4.00001V6.44416H157V17V17.3997V20ZM155 22H157V20L3 20L3 22H6L6 23L155 23V22Z" fill="#FF9332"/>
<rect x="1.28906" y="5.15527" width="1.28889" height="1.28889" fill="#393939"/>
<rect x="3" y="20" width="3" height="2" transform="rotate(90 3 20)" fill="#393939"/>
<rect x="6" y="22" width="1" height="1" transform="rotate(90 6 22)" fill="#FFBD82"/>
<rect x="154.867" y="6.15527" width="2.57778" height="1.28889" transform="rotate(-90 154.867 6.15527)" fill="#393939"/>
<rect x="1.28906" y="3.86621" width="1.28889" height="1.28889" fill="#393939"/>
<rect x="4" y="22" width="1" height="1" transform="rotate(90 4 22)" fill="#393939"/>
<rect x="2.57812" y="2.57812" width="1.28889" height="1.28889" fill="#393939"/>
<rect x="5" y="22" width="2" height="1" transform="rotate(90 5 22)" fill="#393939"/>
<rect x="153.578" y="3.57715" width="1.28889" height="1.28889" transform="rotate(-90 153.578 3.57715)" fill="#393939"/>
<rect x="6" y="23" width="1" height="1" transform="rotate(90 6 23)" fill="#393939"/>
<rect x="151.004" y="2.28906" width="1.28889" height="2.57778" transform="rotate(-90 151.004 2.28906)" fill="#393939"/>
<rect x="6" width="145" height="1" fill="#393939"/>
<rect y="6" width="2" height="14" fill="#393939"/>
<rect x="157" y="19" width="1" height="13" transform="rotate(-180 157 19)" fill="#393939"/>
<rect x="151" y="1" width="1.00001" height="145" transform="rotate(90 151 1)" fill="#FFBD82"/>
<rect x="3.86719" y="3.86621" width="1.28889" height="1.28889" transform="rotate(90 3.86719 3.86621)" fill="#FFBD82"/>
<rect x="2.57812" y="6.44434" width="2.57778" height="1.28889" transform="rotate(90 2.57812 6.44434)" fill="#FFBD82"/>
<rect x="5.15625" y="2.57812" width="1.28889" height="1.28889" transform="rotate(90 5.15625 2.57812)" fill="#FFBD82"/>
<rect x="6.44531" y="2.57812" width="1.28889" height="1.28889" transform="rotate(90 6.44531 2.57812)" fill="#FFBD82"/>
<rect x="153.578" y="2.28906" width="1.28889" height="2.57778" transform="rotate(90 153.578 2.28906)" fill="#FFBD82"/>
<rect x="154.867" y="3.57715" width="1.28889" height="1.28889" transform="rotate(90 154.867 3.57715)" fill="#FFBD82"/>
<rect x="156.156" y="6.15527" width="2.57778" height="1.28889" transform="rotate(90 156.156 6.15527)" fill="#FFBD82"/>
<rect x="2.57812" y="17.4004" width="2.57778" height="1.28889" transform="rotate(90 2.57812 17.4004)" fill="#FFBD82"/>
<rect x="5.15625" y="21.2666" width="1.28889" height="1.28889" transform="rotate(90 5.15625 21.2666)" fill="#FFBD82"/>
<rect x="4" y="20" width="2" height="1" transform="rotate(90 4 20)" fill="#FFBD82"/>
<rect x="153.578" y="23.2891" width="2.57778" height="1.28889" transform="rotate(-180 153.578 23.2891)" fill="#FFBD82"/>
<rect x="155" y="22" width="2" height="1" transform="rotate(-180 155 22)" fill="#FFBD82"/>
<rect x="156.156" y="18.6885" width="1.28889" height="2.57778" transform="rotate(-180 156.156 18.6885)" fill="#FFBD82"/>
<rect x="6" y="24" width="145" height="1" fill="#393939"/>
<rect x="157" y="22" width="2" height="3" transform="rotate(-180 157 22)" fill="#393939"/>
<path d="M155 23L153 23L153 22L155 22L155 23Z" fill="#393939"/>
<rect x="153.578" y="24.2891" width="2.57778" height="1.28889" transform="rotate(-180 153.578 24.2891)" fill="#393939"/>
<rect x="151" y="23" width="1.00001" height="145" transform="rotate(90 151 23)" fill="#FFBD82"/>
<rect x="3.86719" y="1.28906" width="2.57778" height="1.28889" fill="#393939"/>
</svg>
