<svg width="178" height="60" viewBox="0 0 178 60" fill="none" xmlns="http://www.w3.org/2000/svg">
<rect x="2" y="17" width="174" height="37" fill="white"/>
<rect x="174" y="54" width="2" height="2" fill="black"/>
<rect width="2" height="2" transform="matrix(-1 0 0 1 4 54)" fill="black"/>
<rect width="2" height="2" transform="matrix(-1 0 0 1 4 52)" fill="#5A5A5A"/>
<rect width="2" height="2" transform="matrix(-1 0 0 1 4 50)" fill="#AFAFAF"/>
<rect width="2" height="2" transform="matrix(-1 0 0 1 174 54)" fill="#5A5A5A"/>
<rect width="2" height="2" transform="matrix(-1 0 0 1 176 52)" fill="#5A5A5A"/>
<rect width="2" height="2" transform="matrix(-1 0 0 1 174 52)" fill="#AFAFAF"/>
<rect width="2" height="2" transform="matrix(-1 0 0 1 176 50)" fill="#AFAFAF"/>
<rect width="2" height="2" transform="matrix(-1 0 0 1 6 54)" fill="#5A5A5A"/>
<rect width="2" height="2" transform="matrix(-1 0 0 1 6 52)" fill="#AFAFAF"/>
<rect width="166" height="2" transform="matrix(-1 0 0 1 172 56)" fill="#5A5A5A"/>
<rect width="166" height="2" transform="matrix(-1 0 0 1 172 54)" fill="#AFAFAF"/>
<rect x="174" y="15" width="2" height="2" fill="black"/>
<rect width="2" height="2" transform="matrix(-1 0 0 1 4 15)" fill="black"/>
<rect x="172" y="56" width="2" height="2" fill="black"/>
<rect width="2" height="2" transform="matrix(-1 0 0 1 6 56)" fill="black"/>
<rect x="6" y="58" width="166" height="2" fill="black"/>
<rect x="176" y="17" width="2" height="37" fill="black"/>
<rect width="2" height="37" transform="matrix(-1 0 0 1 2 17)" fill="black"/>
<path fill-rule="evenodd" clip-rule="evenodd" d="M170 0H8V2H6V4H4V47H6V49H8V51H170V49H172V47H174V4H172V2H170V0ZM170 2V4H172V47H170V49H8V47H6V4H8V2H170Z" fill="black"/>
<path fill-rule="evenodd" clip-rule="evenodd" d="M170 2H8V4H6V46H172V4H170V2Z" fill="#38ACFF"/>
<rect x="6" y="4" width="2" height="2" fill="#B9E2FF"/>
<rect x="172" y="4" width="2" height="2" transform="rotate(90 172 4)" fill="#B9E2FF"/>
<rect x="172" y="41" width="2" height="2" transform="rotate(-180 172 41)" fill="#B9E2FF"/>
<rect x="6" y="41" width="2" height="2" transform="rotate(-90 6 41)" fill="#B9E2FF"/>
<rect x="6" y="47" width="6" height="2" transform="rotate(-90 6 47)" fill="#007ABE"/>
<rect x="8" y="4" width="2" height="2" fill="#005EEB"/>
<rect x="172" y="6" width="2" height="2" transform="rotate(90 172 6)" fill="#005EEB"/>
<rect x="170" y="41" width="2" height="2" transform="rotate(-180 170 41)" fill="#005EEB"/>
<rect x="6" y="39" width="2" height="2" transform="rotate(-90 6 39)" fill="#005EEB"/>
<rect x="6" y="6" width="2" height="2" fill="#005EEB"/>
<rect x="170" y="4" width="2" height="2" transform="rotate(90 170 4)" fill="#005EEB"/>
<rect x="172" y="39" width="2" height="2" transform="rotate(-180 172 39)" fill="#005EEB"/>
<rect x="8" y="41" width="2" height="2" transform="rotate(-90 8 41)" fill="#005EEB"/>
<rect x="172" y="47" width="2" height="6" transform="rotate(-180 172 47)" fill="#007ABE"/>
<rect x="170" y="49" width="162" height="5.99999" transform="rotate(-180 170 49)" fill="#007ABE"/>
<rect x="8" y="2" width="162" height="2" fill="#B9E2FF"/>
<rect x="8" y="41" width="162" height="2" fill="#B9E2FF"/>
<rect x="16" y="49" width="6" height="4" transform="rotate(-90 16 49)" fill="#7CD0FF"/>
<rect width="6" height="4" transform="matrix(-1.31134e-07 -1 -1 1.31134e-07 158 49)" fill="#7CD0FF"/>
<rect x="21" y="49" width="6" height="3" transform="rotate(-90 21 49)" fill="#7CD0FF"/>
<rect width="6" height="3" transform="matrix(-1.31134e-07 -1 -1 1.31134e-07 153 49)" fill="#7CD0FF"/>
<rect x="25" y="49" width="6" height="2" transform="rotate(-90 25 49)" fill="#7CD0FF"/>
<rect width="6" height="2" transform="matrix(-1.31134e-07 -1 -1 1.31134e-07 149 49)" fill="#7CD0FF"/>
<rect x="28" y="49" width="6" height="0.999999" transform="rotate(-90 28 49)" fill="#7CD0FF"/>
<rect width="6" height="0.999999" transform="matrix(-1.31134e-07 -1 -1 1.31134e-07 146 49)" fill="#7CD0FF"/>
<path d="M18.008 19.92V18.912V17.904H19.016H20.024H23.048H28.088V19.92H27.08H26.072H24.056V24.96V30H22.04V24.96V19.92H21.032H18.008ZM36.1574 19.92H35.1494H34.1414V20.928H33.1334V21.936V22.944V24.96V25.968V26.976H34.1414V27.984H35.1494H36.1574H37.1654H38.1734H39.1814V26.976H40.1894V25.968V24.96V21.936V20.928H39.1814V19.92H38.1734H37.1654H36.1574ZM42.2054 24.96V27.984H41.1974V28.992H40.1894V30H37.1654H36.1574H33.1334V28.992H32.1254V27.984H31.1174V25.968V24.96V23.952V22.944V19.92H32.1254V18.912H33.1334V17.904H35.1494H36.1574H37.1654H40.1894V18.912H41.1974V19.92H42.2054V21.936V24.96ZM46.2428 17.904V21.936V22.944V24.96V25.968V26.976H47.2508V27.984H48.2588H49.2668H50.2748H51.2828H52.2908V26.976H53.2988V25.968V17.904H55.3148V25.968V27.984H54.3068V28.992H53.2988V30H50.2748H49.2668H46.2428V28.992H45.2348V27.984H44.2268V25.968V24.96V23.952V22.944V17.904H46.2428ZM57.3361 19.92V18.912V17.904H58.3441H59.3521H62.3761H66.4081V18.912H67.4161V19.92H68.4241V21.936V22.944V23.952H67.4161V24.96H66.4081V25.968V26.976H67.4161V27.984H68.4241V28.992V30H66.4081V28.992H65.4001V27.984H64.3921V26.976H63.3841V25.968H62.3761H59.3521V30H57.3361V25.968V24.96V23.952V22.944V21.936V20.928V19.92ZM62.3761 19.92H60.3601H59.3521V22.944V23.952H60.3601H61.3681H62.3761H63.3841H64.3921H65.4001V22.944H66.4081V21.936V20.928H65.4001V19.92H64.3921H63.3841H62.3761ZM79.5175 21.936V18.912V17.904H81.5335V18.912V19.92V27.984V30H79.5175V27.984H78.5095V26.976H77.5015V25.968H76.4935V24.96H75.4855V23.952H74.4775V22.944H73.4695V21.936H72.4615V24.96V30H71.4535H70.4455V28.992V27.984V26.976V24.96V23.952V22.944V21.936V20.928V19.92V18.912V17.904H71.4535H72.4615V18.912H73.4695V19.92H74.4775V20.928H75.4855V21.936H76.4935V22.944H77.5015V23.952H78.5095V24.96H79.5175V21.936ZM83.5549 28.992V27.984V25.968V23.952V22.944V21.936H84.5629V20.928H85.5709V19.92H86.5789V18.912H87.5869V17.904H90.6109V18.912H91.6189V19.92H92.6269V20.928H93.6349V21.936H94.6429V22.944V23.952V25.968V27.984V28.992V30H93.6349H92.6269V28.992V27.984V25.968H85.5709V27.984V28.992V30H84.5629H83.5549V28.992ZM92.6269 23.952V22.944H91.6189V21.936H90.6109V20.928H89.6029V19.92H88.5949V20.928H87.5869V21.936H86.5789V22.944H85.5709V23.952H92.6269ZM98.6803 24.96V30H97.6723H96.6643V28.992V27.984V26.976V24.96V23.952V22.944V21.936V20.928V19.92V18.912V17.904H97.6723H98.6803V18.912H99.6883V19.92H100.696V20.928H101.704V21.936H102.712V20.928H103.72V19.92H104.728V18.912H105.736V17.904H107.752V18.912V19.92V27.984V30H105.736V24.96V21.936H104.728V22.944H103.72V23.952H102.712V24.96H101.704V23.952H100.696V22.944H99.6883V21.936H98.6803V24.96ZM109.774 19.92V18.912V17.904H110.782H111.79H114.814H120.862V19.92H119.854H118.846H116.83H115.822H114.814H112.798H111.79V22.944H118.846V24.96H111.79V27.984H112.798H114.814H115.822H116.83H118.846H119.854H120.862V30H114.814H111.79H110.782H109.774V28.992V27.984V26.976V24.96V23.952V22.944V21.936V20.928V19.92ZM131.955 21.936V18.912V17.904H133.971V18.912V19.92V27.984V30H131.955V27.984H130.947V26.976H129.939V25.968H128.931V24.96H127.923V23.952H126.915V22.944H125.907V21.936H124.899V24.96V30H123.891H122.883V28.992V27.984V26.976V24.96V23.952V22.944V21.936V20.928V19.92V18.912V17.904H123.891H124.899V18.912H125.907V19.92H126.915V20.928H127.923V21.936H128.931V22.944H129.939V23.952H130.947V24.96H131.955V21.936ZM135.992 19.92V18.912V17.904H137H138.008H141.032H146.072V19.92H145.064H144.056H142.04V24.96V30H140.024V24.96V19.92H139.016H135.992ZM151.118 25.968V26.976H152.126V27.984H153.134H154.142H155.15H156.158H157.166V26.976H158.174V25.968H157.166V24.96H156.158H155.15H154.142H151.118V23.952H150.11V22.944H149.102V21.936V20.928V19.92H150.11V18.912H151.118V17.904H153.134H154.142H155.15H158.174V18.912H159.182V19.92H160.19V21.936H158.174V20.928H157.166V19.92H156.158H155.15H154.142H153.134H152.126V20.928H151.118V21.936H152.126V22.944H153.134H154.142H155.15H158.174V23.952H159.182V24.96H160.19V25.968V26.976V27.984H159.182V28.992H158.174V30H155.15H154.142H151.118V28.992H150.11V27.984H149.102V25.968H151.118Z" fill="#393939"/>
<path d="M18.008 17.92V16.912V15.904H19.016H20.024H23.048H28.088V17.92H27.08H26.072H24.056V22.96V28H22.04V22.96V17.92H21.032H18.008ZM36.1574 17.92H35.1494H34.1414V18.928H33.1334V19.936V20.944V22.96V23.968V24.976H34.1414V25.984H35.1494H36.1574H37.1654H38.1734H39.1814V24.976H40.1894V23.968V22.96V19.936V18.928H39.1814V17.92H38.1734H37.1654H36.1574ZM42.2054 22.96V25.984H41.1974V26.992H40.1894V28H37.1654H36.1574H33.1334V26.992H32.1254V25.984H31.1174V23.968V22.96V21.952V20.944V17.92H32.1254V16.912H33.1334V15.904H35.1494H36.1574H37.1654H40.1894V16.912H41.1974V17.92H42.2054V19.936V22.96ZM46.2428 15.904V19.936V20.944V22.96V23.968V24.976H47.2508V25.984H48.2588H49.2668H50.2748H51.2828H52.2908V24.976H53.2988V23.968V15.904H55.3148V23.968V25.984H54.3068V26.992H53.2988V28H50.2748H49.2668H46.2428V26.992H45.2348V25.984H44.2268V23.968V22.96V21.952V20.944V15.904H46.2428ZM57.3361 17.92V16.912V15.904H58.3441H59.3521H62.3761H66.4081V16.912H67.4161V17.92H68.4241V19.936V20.944V21.952H67.4161V22.96H66.4081V23.968V24.976H67.4161V25.984H68.4241V26.992V28H66.4081V26.992H65.4001V25.984H64.3921V24.976H63.3841V23.968H62.3761H59.3521V28H57.3361V23.968V22.96V21.952V20.944V19.936V18.928V17.92ZM62.3761 17.92H60.3601H59.3521V20.944V21.952H60.3601H61.3681H62.3761H63.3841H64.3921H65.4001V20.944H66.4081V19.936V18.928H65.4001V17.92H64.3921H63.3841H62.3761ZM79.5175 19.936V16.912V15.904H81.5335V16.912V17.92V25.984V28H79.5175V25.984H78.5095V24.976H77.5015V23.968H76.4935V22.96H75.4855V21.952H74.4775V20.944H73.4695V19.936H72.4615V22.96V28H71.4535H70.4455V26.992V25.984V24.976V22.96V21.952V20.944V19.936V18.928V17.92V16.912V15.904H71.4535H72.4615V16.912H73.4695V17.92H74.4775V18.928H75.4855V19.936H76.4935V20.944H77.5015V21.952H78.5095V22.96H79.5175V19.936ZM83.5549 26.992V25.984V23.968V21.952V20.944V19.936H84.5629V18.928H85.5709V17.92H86.5789V16.912H87.5869V15.904H90.6109V16.912H91.6189V17.92H92.6269V18.928H93.6349V19.936H94.6429V20.944V21.952V23.968V25.984V26.992V28H93.6349H92.6269V26.992V25.984V23.968H85.5709V25.984V26.992V28H84.5629H83.5549V26.992ZM92.6269 21.952V20.944H91.6189V19.936H90.6109V18.928H89.6029V17.92H88.5949V18.928H87.5869V19.936H86.5789V20.944H85.5709V21.952H92.6269ZM98.6803 22.96V28H97.6723H96.6643V26.992V25.984V24.976V22.96V21.952V20.944V19.936V18.928V17.92V16.912V15.904H97.6723H98.6803V16.912H99.6883V17.92H100.696V18.928H101.704V19.936H102.712V18.928H103.72V17.92H104.728V16.912H105.736V15.904H107.752V16.912V17.92V25.984V28H105.736V22.96V19.936H104.728V20.944H103.72V21.952H102.712V22.96H101.704V21.952H100.696V20.944H99.6883V19.936H98.6803V22.96ZM109.774 17.92V16.912V15.904H110.782H111.79H114.814H120.862V17.92H119.854H118.846H116.83H115.822H114.814H112.798H111.79V20.944H118.846V22.96H111.79V25.984H112.798H114.814H115.822H116.83H118.846H119.854H120.862V28H114.814H111.79H110.782H109.774V26.992V25.984V24.976V22.96V21.952V20.944V19.936V18.928V17.92ZM131.955 19.936V16.912V15.904H133.971V16.912V17.92V25.984V28H131.955V25.984H130.947V24.976H129.939V23.968H128.931V22.96H127.923V21.952H126.915V20.944H125.907V19.936H124.899V22.96V28H123.891H122.883V26.992V25.984V24.976V22.96V21.952V20.944V19.936V18.928V17.92V16.912V15.904H123.891H124.899V16.912H125.907V17.92H126.915V18.928H127.923V19.936H128.931V20.944H129.939V21.952H130.947V22.96H131.955V19.936ZM135.992 17.92V16.912V15.904H137H138.008H141.032H146.072V17.92H145.064H144.056H142.04V22.96V28H140.024V22.96V17.92H139.016H135.992ZM151.118 23.968V24.976H152.126V25.984H153.134H154.142H155.15H156.158H157.166V24.976H158.174V23.968H157.166V22.96H156.158H155.15H154.142H151.118V21.952H150.11V20.944H149.102V19.936V18.928V17.92H150.11V16.912H151.118V15.904H153.134H154.142H155.15H158.174V16.912H159.182V17.92H160.19V19.936H158.174V18.928H157.166V17.92H156.158H155.15H154.142H153.134H152.126V18.928H151.118V19.936H152.126V20.944H153.134H154.142H155.15H158.174V21.952H159.182V22.96H160.19V23.968V24.976V25.984H159.182V26.992H158.174V28H155.15H154.142H151.118V26.992H150.11V25.984H149.102V23.968H151.118Z" fill="white"/>
</svg>
