<svg width="51" height="39" viewBox="0 0 51 39" fill="none" xmlns="http://www.w3.org/2000/svg">
<g opacity="0.4">
<path d="M25.0712 2.32141V4.64282V9.28564V13.9285V16.2499V18.5713H22.792V20.8927H20.5128V23.2141H18.2336V25.5355H15.9544V27.8569H9.11681V25.5355H6.83761V23.2141H4.5584V20.8927H2.2792V18.5713H0V16.2499V13.9285V9.28564V4.64282V2.32141V0H2.2792H4.5584V2.32141V4.64282V13.9285V16.2499H6.83761V18.5713H9.11681V20.8927H11.396V23.2141H13.6752V20.8927H15.9544V18.5713H18.2336V16.2499H20.5128V13.9285V4.64282V2.32141V0H22.792H25.0712V2.32141Z" fill="#FF7C06"/>
<path d="M29.6287 29.7148V32.0362H31.9079V34.3577H34.1871H36.4663H38.7455H41.0247H43.3039V32.0362H45.5831V29.7148H43.3039V27.3934H41.0247H38.7455H36.4663H29.6287V25.072H27.3495V22.7506H25.0703V20.4292V18.1078V15.7864H27.3495V13.465H29.6287V11.1436H34.1871H36.4663H38.7455H45.5831V13.465H47.8623V15.7864H50.1415V20.4292H45.5831V18.1078H43.3039V15.7864H41.0247H38.7455H36.4663H34.1871H31.9079V18.1078H29.6287V20.4292H31.9079V22.7506H34.1871H36.4663H38.7455H45.5831V25.072H47.8623V27.3934H50.1415V29.7148V32.0362V34.3577H47.8623V36.6791H45.5831V39.0005H38.7455H36.4663H29.6287V36.6791H27.3495V34.3577H25.0703V29.7148H29.6287Z" fill="#FF7C06"/>
</g>
</svg>
