<svg width="11" height="8" viewBox="0 0 11 8" fill="none" xmlns="http://www.w3.org/2000/svg">
<path d="M9.73077 0H1.26923C0.933039 0.00131618 0.611013 0.128167 0.373287 0.352926C0.135561 0.577685 0.00139212 0.882146 0 1.2V6.8C0.00139212 7.11785 0.135561 7.42232 0.373287 7.64707C0.611013 7.87183 0.933039 7.99868 1.26923 8H9.73077C10.067 7.99868 10.389 7.87183 10.6267 7.64707C10.8644 7.42232 10.9986 7.11785 11 6.8V1.2C10.9986 0.882146 10.8644 0.577685 10.6267 0.352926C10.389 0.128167 10.067 0.00131618 9.73077 0ZM6.74279 3.84C6.68352 4.1102 6.52757 4.35284 6.3012 4.52703C6.07483 4.70122 5.79187 4.79633 5.5 4.79633C5.20813 4.79633 4.92517 4.70122 4.6988 4.52703C4.47243 4.35284 4.31648 4.1102 4.25721 3.84C4.21725 3.65956 4.11299 3.49756 3.96187 3.38107C3.81074 3.26459 3.62191 3.20067 3.42692 3.2H0.846154V2.4H10.1538V3.2H7.57308C7.37809 3.20067 7.18926 3.26459 7.03813 3.38107C6.88701 3.49756 6.78275 3.65956 6.74279 3.84ZM1.26923 0.8H9.73077C9.84298 0.8 9.95059 0.842143 10.0299 0.917157C10.1093 0.992172 10.1538 1.09391 10.1538 1.2V1.6H0.846154V1.2C0.846154 1.09391 0.890728 0.992172 0.97007 0.917157C1.04941 0.842143 1.15702 0.8 1.26923 0.8Z" fill="#393939"/>
</svg>
