<svg width="80" height="78" viewBox="0 0 80 78" fill="none" xmlns="http://www.w3.org/2000/svg">
<mask id="path-1-inside-1_3085_14662" fill="white">
<path fill-rule="evenodd" clip-rule="evenodd" d="M73.2495 0.579069H6.52775V2.54148H4.56534V4.50388H2.60294V6.46629H0.64053V71.8798H2.60294V73.8422H4.56534V75.8046H6.52775V77.767H73.2495V75.8046H75.212V73.8422H77.1744V71.8798H79.1368V6.46629H77.1744V4.50388H75.212V2.54148H73.2495V0.579069Z"/>
</mask>
<path fill-rule="evenodd" clip-rule="evenodd" d="M73.2495 0.579069H6.52775V2.54148H4.56534V4.50388H2.60294V6.46629H0.64053V71.8798H2.60294V73.8422H4.56534V75.8046H6.52775V77.767H73.2495V75.8046H75.212V73.8422H77.1744V71.8798H79.1368V6.46629H77.1744V4.50388H75.212V2.54148H73.2495V0.579069Z" fill="#5097F8"/>
<path d="M6.52775 0.579069V-1.42093H4.52775V0.579069H6.52775ZM73.2495 0.579069H75.2495V-1.42093H73.2495V0.579069ZM6.52775 2.54148V4.54148H8.52775V2.54148H6.52775ZM4.56534 2.54148V0.541475H2.56534V2.54148H4.56534ZM4.56534 4.50388V6.50388H6.56534V4.50388H4.56534ZM2.60294 4.50388V2.50388H0.602936V4.50388H2.60294ZM2.60294 6.46629V8.46629H4.60294V6.46629H2.60294ZM0.64053 6.46629V4.46629H-1.35947V6.46629H0.64053ZM0.64053 71.8798H-1.35947V73.8798H0.64053V71.8798ZM2.60294 71.8798H4.60294V69.8798H2.60294V71.8798ZM2.60294 73.8422H0.602936V75.8422H2.60294V73.8422ZM4.56534 73.8422H6.56534V71.8422H4.56534V73.8422ZM4.56534 75.8046H2.56534V77.8046H4.56534V75.8046ZM6.52775 75.8046H8.52775V73.8046H6.52775V75.8046ZM6.52775 77.767H4.52775V79.767H6.52775V77.767ZM73.2495 77.767V79.767H75.2495V77.767H73.2495ZM73.2495 75.8046V73.8046H71.2495V75.8046H73.2495ZM75.212 75.8046V77.8046H77.212V75.8046H75.212ZM75.212 73.8422V71.8422H73.212V73.8422H75.212ZM77.1744 73.8422V75.8422H79.1744V73.8422H77.1744ZM77.1744 71.8798V69.8798H75.1744V71.8798H77.1744ZM79.1368 71.8798V73.8798H81.1368V71.8798H79.1368ZM79.1368 6.46629H81.1368V4.46629H79.1368V6.46629ZM77.1744 6.46629H75.1744V8.46629H77.1744V6.46629ZM77.1744 4.50388H79.1744V2.50388H77.1744V4.50388ZM75.212 4.50388H73.212V6.50388H75.212V4.50388ZM75.212 2.54148H77.212V0.541475H75.212V2.54148ZM73.2495 2.54148H71.2495V4.54148H73.2495V2.54148ZM6.52775 2.57907H73.2495V-1.42093H6.52775V2.57907ZM8.52775 2.54148V0.579069H4.52775V2.54148H8.52775ZM6.52775 0.541475H4.56534V4.54148H6.52775V0.541475ZM2.56534 2.54148V4.50388H6.56534V2.54148H2.56534ZM4.56534 2.50388H2.60294V6.50388H4.56534V2.50388ZM0.602936 4.50388V6.46629H4.60294V4.50388H0.602936ZM2.60294 4.46629H0.64053V8.46629H2.60294V4.46629ZM-1.35947 6.46629V71.8798H2.64053V6.46629H-1.35947ZM0.64053 73.8798H2.60294V69.8798H0.64053V73.8798ZM0.602936 71.8798V73.8422H4.60294V71.8798H0.602936ZM2.60294 75.8422H4.56534V71.8422H2.60294V75.8422ZM2.56534 73.8422V75.8046H6.56534V73.8422H2.56534ZM4.56534 77.8046H6.52775V73.8046H4.56534V77.8046ZM8.52775 77.767V75.8046H4.52775V77.767H8.52775ZM73.2495 75.767H6.52775V79.767H73.2495V75.767ZM71.2495 75.8046V77.767H75.2495V75.8046H71.2495ZM73.2495 77.8046H75.212V73.8046H73.2495V77.8046ZM77.212 75.8046V73.8422H73.212V75.8046H77.212ZM75.212 75.8422H77.1744V71.8422H75.212V75.8422ZM79.1744 73.8422V71.8798H75.1744V73.8422H79.1744ZM77.1744 73.8798H79.1368V69.8798H77.1744V73.8798ZM81.1368 71.8798V6.46629H77.1368V71.8798H81.1368ZM79.1368 4.46629H77.1744V8.46629H79.1368V4.46629ZM79.1744 6.46629V4.50388H75.1744V6.46629H79.1744ZM77.1744 2.50388H75.212V6.50388H77.1744V2.50388ZM77.212 4.50388V2.54148H73.212V4.50388H77.212ZM75.212 0.541475H73.2495V4.54148H75.212V0.541475ZM71.2495 0.579069V2.54148H75.2495V0.579069H71.2495Z" fill="#FF7C06" mask="url(#path-1-inside-1_3085_14662)"/>
<path d="M24.3115 29.6429C32.7335 21.4172 46.4049 21.4172 54.8269 29.6429L55.8408 30.6405C56.266 31.0493 56.266 31.7198 55.8408 32.1287L52.3739 35.5138C52.1613 35.7264 51.8179 35.7264 51.6053 35.5138L50.2152 34.1565C44.328 28.4164 34.8103 28.4164 28.9231 34.1565L27.435 35.6119C27.2224 35.8245 26.879 35.8245 26.6664 35.6119L23.1994 32.2268C22.7743 31.8179 22.7743 31.1475 23.1994 30.7386L24.3115 29.6429ZM62.006 36.6422L65.0968 39.6512C65.522 40.0601 65.522 40.7305 65.0968 41.1394L51.1801 54.729C50.7549 55.1379 50.0681 55.1379 49.6592 54.729L39.7818 45.0805C39.6837 44.9824 39.5038 44.9824 39.4056 45.0805L29.5282 54.729C29.103 55.1379 28.4162 55.1379 28.0073 54.729L14.0415 41.1394C13.6164 40.7305 13.6164 40.0601 14.0415 39.6512L17.1323 36.6422C17.5575 36.2334 18.2444 36.2334 18.6532 36.6422L28.5306 46.2907C28.6288 46.3888 28.8087 46.3888 28.9068 46.2907L38.7842 36.6422C39.2094 36.2334 39.8962 36.2334 40.3051 36.6422L50.1825 46.2907C50.2806 46.3888 50.4605 46.3888 50.5587 46.2907L60.4361 36.6422C60.894 36.2334 61.5808 36.2334 62.006 36.6422Z" fill="white"/>
</svg>
