<?xml version="1.0" encoding="UTF-8"?>
<svg xmlns="http://www.w3.org/2000/svg" xmlns:xlink="http://www.w3.org/1999/xlink" width="60px" height="42px" viewBox="0 0 60 42" version="1.1">
<g id="surface1">
<path style=" stroke:none;fill-rule:nonzero;fill:rgb(100%,100%,100%);fill-opacity:1;" d="M 15.828125 11.890625 C 23.65625 4.132812 36.34375 4.132812 44.171875 11.890625 L 45.117188 12.824219 C 45.507812 13.210938 45.507812 13.839844 45.117188 14.226562 L 41.894531 17.421875 C 41.695312 17.613281 41.378906 17.613281 41.183594 17.421875 L 39.886719 16.136719 C 34.425781 10.726562 25.574219 10.726562 20.113281 16.136719 L 18.722656 17.511719 C 18.527344 17.707031 18.210938 17.707031 18.015625 17.511719 L 14.792969 14.320312 C 14.402344 13.929688 14.402344 13.300781 14.792969 12.914062 Z M 50.839844 18.492188 L 53.707031 21.335938 C 54.097656 21.722656 54.097656 22.351562 53.707031 22.738281 L 40.773438 35.554688 C 40.382812 35.941406 39.746094 35.941406 39.355469 35.554688 L 30.175781 26.460938 C 30.078125 26.363281 29.921875 26.363281 29.824219 26.460938 L 20.644531 35.554688 C 20.253906 35.941406 19.617188 35.941406 19.226562 35.554688 L 6.292969 22.738281 C 5.902344 22.351562 5.902344 21.722656 6.292969 21.335938 L 9.160156 18.492188 C 9.554688 18.105469 10.1875 18.105469 10.578125 18.492188 L 19.757812 27.589844 C 19.855469 27.6875 20.015625 27.6875 20.113281 27.589844 L 29.292969 18.492188 C 29.683594 18.105469 30.316406 18.105469 30.707031 18.492188 L 39.886719 27.589844 C 39.984375 27.6875 40.144531 27.6875 40.242188 27.589844 L 49.421875 18.492188 C 49.8125 18.105469 50.445312 18.105469 50.839844 18.492188 Z M 50.839844 18.492188 "/>
</g>
</svg>
