<svg width="188" height="44" viewBox="0 0 188 44" fill="none" xmlns="http://www.w3.org/2000/svg">
<path d="M59 24.1351V22.653V19.6888V16.7246V15.2425V13.7604H60.4848V12.2783H61.9697V10.7962H63.4545V9.31413H64.9394V7.83203H69.3939V9.31413H70.8788V10.7962H72.3636V12.2783H73.8485V13.7604H75.3333V15.2425V16.7246V19.6888V22.653V24.1351V25.6172H73.8485H72.3636V24.1351V22.653V19.6888H61.9697V22.653V24.1351V25.6172H60.4848H59V24.1351ZM72.3636 16.7246V15.2425H70.8788V13.7604H69.3939V12.2783H67.9091V10.7962H66.4242V12.2783H64.9394V13.7604H63.4545V15.2425H61.9697V16.7246H72.3636Z" fill="#FF7C06"/>
<path d="M108.97 19.6888V21.1709H110.455V22.653H111.939H113.424H114.909H116.394H117.879V21.1709H119.364V19.6888H117.879V18.2067H116.394H114.909H113.424H108.97V16.7246H107.485V15.2425H106V13.7604V12.2783V10.7962H107.485V9.31413H108.97V7.83203H111.939H113.424H114.909H119.364V9.31413H120.848V10.7962H122.333V13.7604H119.364V12.2783H117.879V10.7962H116.394H114.909H113.424H111.939H110.455V12.2783H108.97V13.7604H110.455V15.2425H111.939H113.424H114.909H119.364V16.7246H120.848V18.2067H122.333V19.6888V21.1709V22.653H120.848V24.1351H119.364V25.6172H114.909H113.424H108.97V24.1351H107.485V22.653H106V19.6888H108.97Z" fill="#FF7C06"/>
<path d="M160.259 10.7962H157.356H155.904V18.2067V22.653H157.356H160.259H161.711H163.163H164.615V21.1709H166.067V19.6888V18.2067V13.7604V12.2783H164.615V10.7962H163.163H161.711H160.259ZM153 10.7962V9.31413V7.83203H154.452H155.904H160.259H166.067V9.31413H167.519V10.7962H168.97V13.7604V15.2425V16.7246V18.2067V22.653H167.519V24.1351H166.067V25.6172H160.259H155.904H154.452H153V24.1351V22.653V21.1709V18.2067V16.7246V15.2425V13.7604V12.2783V10.7962Z" fill="#FF7C06"/>
<path d="M21.0667 15.2425V7.83203H22.5185H23.9704V9.31413V10.7962V12.2783V15.2425V16.7246V18.2067V19.6888V21.1709V22.653V24.1351V25.6172H22.5185H21.0667V24.1351H19.6148V22.653H18.163V21.1709H16.7111V19.6888H15.2593V21.1709H13.8074V22.653H12.3556V24.1351H10.9037V25.6172H8V24.1351V22.653V10.7962V7.83203H10.9037V15.2425V19.6888H12.3556V18.2067H13.8074V16.7246H15.2593V15.2425H16.7111V16.7246H18.163V18.2067H19.6148V19.6888H21.0667V15.2425Z" fill="#FF7C06"/>
<path fill-rule="evenodd" clip-rule="evenodd" d="M0 18.2918V36.2021H1.80824H3.61648V38.0095V39.817H5.42472H7.23296V41.6245V43.4319H25.151H43.069V25.5216V7.61134H41.2607H39.4525V5.80388V3.99641H37.6443H35.836V2.18895V0.381493H17.918H0V18.2918ZM32.2195 32.5872V18.2918V3.99641H34.0278H35.836V5.80388V7.61134H37.6443H39.4525V21.9067V36.2021H37.6443H35.836V34.3946V32.5872H34.0278H32.2195ZM32.2195 32.5872H17.918H3.61648V34.3775V36.1676L5.34253 36.2671L7.06857 36.3664L7.16786 38.0917L7.26747 39.817H21.5516H35.836V38.0095V36.2021H34.0278H32.2195V34.3946V32.5872ZM28.6031 16.4843V28.9722H16.1098H3.61648V16.4843V3.99641H16.1098H28.6031V16.4843ZM50.9299 17.9103V35.8206H52.7382H54.5464V37.628V39.4355H56.3547H58.1629V41.2429V43.0504H76.0808H93.9988V25.1401V7.22985H92.1906H90.3824V5.42238V3.61492H88.5741H86.7659V1.80746V0H68.8479H50.9299V17.9103ZM83.1494 32.2057H68.8479H54.5464V34.0131V35.8206H56.3547H58.1629V37.628V39.4355H72.4644H86.7659V37.628V35.8206H88.5741H90.3824V21.5252V7.22985H88.5741H86.7659V5.42238V3.61492H84.9577H83.1494V17.9103V32.2057ZM83.1494 32.2057V34.0131V35.8206H84.9577H86.7659V34.0131V32.2057H84.9577H83.1494ZM97.6153 17.9103V35.8206H99.4236H101.232V37.628V39.4355H103.04H104.848V41.2429V43.0504H122.766H140.684V25.1401V7.22985H138.876H137.068V5.42238V3.61492H135.26H133.451V1.80746V0H115.533H97.6153V17.9103ZM129.835 32.2057H115.533H101.232V34.0131V35.8206H103.04H104.848V37.628V39.4355H119.15H133.451V37.628V35.8206H135.26H137.068V21.5252V7.22985H135.26H133.451V5.42238V3.61492H131.643H129.835V17.9103V32.2057ZM129.835 32.2057V34.0131V35.8206H131.643H133.451V34.0131V32.2057H131.643H129.835ZM144.276 0.325375C144.199 0.401945 144.176 8.45499 144.224 18.2205L144.312 35.9764L145.868 36.0763L147.424 36.1762L147.523 37.9015L147.623 39.6268H149.414H151.205V41.4342V43.2417H169.123H187.041V25.3314V7.42113H185.414H183.788L183.688 5.69583L183.589 3.97053L181.88 3.87162L180.17 3.77303L180.071 2.06416L179.972 0.35561L162.194 0.270496C152.416 0.223831 144.353 0.248475 144.276 0.325375ZM176.52 32.7256V34.3516V35.9774L178.246 36.0769L179.972 36.1762L180.072 37.9015L180.171 39.6268H165.688H151.205V37.8364V36.0464L149.479 35.9468L147.753 35.8476L147.653 34.2866L147.552 32.7256H162.036H176.52ZM176.52 32.7256V18.2659V3.80622H178.329H180.137V5.61368V7.42113H181.945H183.753V21.7165V36.0119H181.945H180.137V34.3687V32.7256H178.329H176.52ZM79.5329 16.1028V28.5907H67.0396H54.5464V16.1028V3.61492H67.0396H79.5329V16.1028ZM126.218 16.1028V28.5907H113.725H101.232V16.1028V3.61492H113.725H126.218V16.1028ZM172.904 16.4584V29.1107H160.435C149.055 29.1107 147.956 29.0627 147.859 28.5625C147.801 28.2611 147.793 22.5676 147.843 15.9103L147.933 3.80622H160.418H172.904V16.4584Z" fill="#393939"/>
</svg>
