<svg width="11" height="10" viewBox="0 0 11 10" fill="none" xmlns="http://www.w3.org/2000/svg">
<path d="M10.7041 3.205C10.5915 3.07853 10.454 2.97717 10.3003 2.90743C10.1466 2.83769 9.98016 2.8011 9.81164 2.8H7.13935V2C7.13804 1.46997 6.92868 0.962032 6.55705 0.587245C6.18542 0.212458 5.68176 0.00132012 5.15619 0C5.08251 0.000602675 5.01037 0.0213906 4.9475 0.060141C4.88462 0.0988914 4.83337 0.154147 4.79923 0.22L2.92515 4H0.793261C0.582875 4 0.381106 4.08429 0.232341 4.23431C0.0835754 4.38434 0 4.58783 0 4.8V9.2C0 9.41217 0.0835754 9.61566 0.232341 9.76569C0.381106 9.91571 0.582875 10 0.793261 10H9.2167C9.50612 9.99879 9.78526 9.89168 10.0023 9.69857C10.2193 9.50545 10.3594 9.23946 10.3967 8.95L10.9916 4.15C11.0114 3.98098 10.9961 3.80966 10.9466 3.64695C10.897 3.48424 10.8145 3.33373 10.7041 3.205ZM0.793261 4.8H2.77641V9.2H0.793261V4.8Z" fill="#24B500"/>
</svg>
