<svg width="16" height="16" viewBox="0 0 16 16" fill="none" xmlns="http://www.w3.org/2000/svg">
<path d="M7 0H6V1H7V0Z" fill="#16171A"/>
<path d="M8 0H7V1H8V0Z" fill="#16171A"/>
<path d="M9 0H8V1H9V0Z" fill="#16171A"/>
<path d="M10 0H9V1H10V0Z" fill="#16171A"/>
<path d="M5 1H4V2H5V1Z" fill="#16171A"/>
<path d="M6 1H5V2H6V1Z" fill="#16171A"/>
<path d="M7 1H6V2H7V1Z" fill="#FF8426"/>
<path d="M8 1H7V2H8V1Z" fill="#FF8426"/>
<path d="M9 1H8V2H9V1Z" fill="#FF8426"/>
<path d="M10 1H9V2H10V1Z" fill="#FF8426"/>
<path d="M11 1H10V2H11V1Z" fill="#16171A"/>
<path d="M12 1H11V2H12V1Z" fill="#16171A"/>
<path d="M4 2H3V3H4V2Z" fill="#16171A"/>
<path d="M5 2H4V3H5V2Z" fill="#FF8426"/>
<path d="M6 2H5V3H6V2Z" fill="#FF8426"/>
<path d="M7 2H6V3H7V2Z" fill="#D62411"/>
<path d="M8 2H7V3H8V2Z" fill="#D62411"/>
<path d="M9 2H8V3H9V2Z" fill="#D62411"/>
<path d="M10 2H9V3H10V2Z" fill="#D62411"/>
<path d="M11 2H10V3H11V2Z" fill="#FF8426"/>
<path d="M12 2H11V3H12V2Z" fill="#FF8426"/>
<path d="M13 2H12V3H13V2Z" fill="#16171A"/>
<path d="M3 3H2V4H3V3Z" fill="#16171A"/>
<path d="M4 3H3V4H4V3Z" fill="#FF8426"/>
<path d="M5 3H4V4H5V3Z" fill="#D62411"/>
<path d="M6 3H5V4H6V3Z" fill="#16171A"/>
<path d="M7 3H6V4H7V3Z" fill="#16171A"/>
<path d="M8 3H7V4H8V3Z" fill="#16171A"/>
<path d="M9 3H8V4H9V3Z" fill="#16171A"/>
<path d="M10 3H9V4H10V3Z" fill="#D62411"/>
<path d="M11 3H10V4H11V3Z" fill="#D62411"/>
<path d="M12 3H11V4H12V3Z" fill="#D62411"/>
<path d="M13 3H12V4H13V3Z" fill="#FF8426"/>
<path d="M14 3H13V4H14V3Z" fill="#16171A"/>
<path d="M2 4H1V5H2V4Z" fill="#16171A"/>
<path d="M3 4H2V5H3V4Z" fill="#FF8426"/>
<path d="M4 4H3V5H4V4Z" fill="#D62411"/>
<path d="M5 4H4V5H5V4Z" fill="#16171A"/>
<path d="M6 4H5V5H6V4Z" fill="#FAFDFF"/>
<path d="M7 4H6V5H7V4Z" fill="#FAFDFF"/>
<path d="M8 4H7V5H8V4Z" fill="#FAFDFF"/>
<path d="M9 4H8V5H9V4Z" fill="#FAFDFF"/>
<path d="M10 4H9V5H10V4Z" fill="#16171A"/>
<path d="M11 4H10V5H11V4Z" fill="#16171A"/>
<path d="M12 4H11V5H12V4Z" fill="#16171A"/>
<path d="M13 4H12V5H13V4Z" fill="#D62411"/>
<path d="M14 4H13V5H14V4Z" fill="#7F0622"/>
<path d="M15 4H14V5H15V4Z" fill="#16171A"/>
<path d="M2 5H1V6H2V5Z" fill="#16171A"/>
<path d="M3 5H2V6H3V5Z" fill="#FF8426"/>
<path d="M4 5H3V6H4V5Z" fill="#16171A"/>
<path d="M5 5H4V6H5V5Z" fill="#D9D9D9"/>
<path d="M6 5H5V6H6V5Z" fill="#FAFDFF"/>
<path d="M7 5H6V6H7V5Z" fill="#FAFDFF"/>
<path d="M8 5H7V6H8V5Z" fill="#FAFDFF"/>
<path d="M9 5H8V6H9V5Z" fill="#FAFDFF"/>
<path d="M10 5H9V6H10V5Z" fill="#D9D9D9"/>
<path d="M11 5H10V6H11V5Z" fill="#16171A"/>
<path d="M12 5H11V6H12V5Z" fill="#FAFDFF"/>
<path d="M13 5H12V6H13V5Z" fill="#16171A"/>
<path d="M14 5H13V6H14V5Z" fill="#7F0622"/>
<path d="M15 5H14V6H15V5Z" fill="#16171A"/>
<path d="M1 6H0V7H1V6Z" fill="#16171A"/>
<path d="M2 6H1V7H2V6Z" fill="#FF8426"/>
<path d="M3 6H2V7H3V6Z" fill="#D62411"/>
<path d="M4 6H3V7H4V6Z" fill="#16171A"/>
<path d="M5 6H4V7H5V6Z" fill="#FAFDFF"/>
<path d="M6 6H5V7H6V6Z" fill="#FAFDFF"/>
<path d="M7 6H6V7H7V6Z" fill="#FAFDFF"/>
<path d="M8 6H7V7H8V6Z" fill="#FAFDFF"/>
<path d="M9 6H8V7H9V6Z" fill="#FAFDFF"/>
<path d="M10 6H9V7H10V6Z" fill="#D9D9D9"/>
<path d="M11 6H10V7H11V6Z" fill="#16171A"/>
<path d="M12 6H11V7H12V6Z" fill="#D9D9D9"/>
<path d="M13 6H12V7H13V6Z" fill="#16171A"/>
<path d="M14 6H13V7H14V6Z" fill="#D62411"/>
<path d="M15 6H14V7H15V6Z" fill="#7F0622"/>
<path d="M16 6H15V7H16V6Z" fill="#16171A"/>
<path d="M1 7H0V8H1V7Z" fill="#16171A"/>
<path d="M2 7H1V8H2V7Z" fill="#FF8426"/>
<path d="M3 7H2V8H3V7Z" fill="#D62411"/>
<path d="M4 7H3V8H4V7Z" fill="#16171A"/>
<path d="M5 7H4V8H5V7Z" fill="#D9D9D9"/>
<path d="M6 7H5V8H6V7Z" fill="#FAFDFF"/>
<path d="M7 7H6V8H7V7Z" fill="#FAFDFF"/>
<path d="M8 7H7V8H8V7Z" fill="#FAFDFF"/>
<path d="M9 7H8V8H9V7Z" fill="#FAFDFF"/>
<path d="M10 7H9V8H10V7Z" fill="#D9D9D9"/>
<path d="M11 7H10V8H11V7Z" fill="#16171A"/>
<path d="M12 7H11V8H12V7Z" fill="#D9D9D9"/>
<path d="M13 7H12V8H13V7Z" fill="#16171A"/>
<path d="M14 7H13V8H14V7Z" fill="#D62411"/>
<path d="M15 7H14V8H15V7Z" fill="#7F0622"/>
<path d="M16 7H15V8H16V7Z" fill="#16171A"/>
<path d="M1 8H0V9H1V8Z" fill="#16171A"/>
<path d="M2 8H1V9H2V8Z" fill="#FF8426"/>
<path d="M3 8H2V9H3V8Z" fill="#D62411"/>
<path d="M4 8H3V9H4V8Z" fill="#16171A"/>
<path d="M5 8H4V9H5V8Z" fill="#FAFDFF"/>
<path d="M6 8H5V9H6V8Z" fill="#FAFDFF"/>
<path d="M7 8H6V9H7V8Z" fill="#FAFDFF"/>
<path d="M8 8H7V9H8V8Z" fill="#FAFDFF"/>
<path d="M9 8H8V9H9V8Z" fill="#FAFDFF"/>
<path d="M10 8H9V9H10V8Z" fill="#D9D9D9"/>
<path d="M11 8H10V9H11V8Z" fill="#16171A"/>
<path d="M12 8H11V9H12V8Z" fill="#B8B8B8"/>
<path d="M13 8H12V9H13V8Z" fill="#16171A"/>
<path d="M14 8H13V9H14V8Z" fill="#D62411"/>
<path d="M15 8H14V9H15V8Z" fill="#7F0622"/>
<path d="M16 8H15V9H16V8Z" fill="#16171A"/>
<path d="M1 9H0V10H1V9Z" fill="#16171A"/>
<path d="M2 9H1V10H2V9Z" fill="#FF8426"/>
<path d="M3 9H2V10H3V9Z" fill="#D62411"/>
<path d="M4 9H3V10H4V9Z" fill="#16171A"/>
<path d="M5 9H4V10H5V9Z" fill="#D9D9D9"/>
<path d="M6 9H5V10H6V9Z" fill="#D9D9D9"/>
<path d="M7 9H6V10H7V9Z" fill="#D9D9D9"/>
<path d="M8 9H7V10H8V9Z" fill="#FAFDFF"/>
<path d="M9 9H8V10H9V9Z" fill="#FAFDFF"/>
<path d="M10 9H9V10H10V9Z" fill="#D9D9D9"/>
<path d="M11 9H10V10H11V9Z" fill="#16171A"/>
<path d="M12 9H11V10H12V9Z" fill="#16171A"/>
<path d="M13 9H12V10H13V9Z" fill="#D62411"/>
<path d="M14 9H13V10H14V9Z" fill="#D62411"/>
<path d="M15 9H14V10H15V9Z" fill="#7F0622"/>
<path d="M16 9H15V10H16V9Z" fill="#16171A"/>
<path d="M2 10H1V11H2V10Z" fill="#16171A"/>
<path d="M3 10H2V11H3V10Z" fill="#FF8426"/>
<path d="M4 10H3V11H4V10Z" fill="#D62411"/>
<path d="M5 10H4V11H5V10Z" fill="#16171A"/>
<path d="M6 10H5V11H6V10Z" fill="#16171A"/>
<path d="M7 10H6V11H7V10Z" fill="#16171A"/>
<path d="M8 10H7V11H8V10Z" fill="#FAFDFF"/>
<path d="M9 10H8V11H9V10Z" fill="#D9D9D9"/>
<path d="M10 10H9V11H10V10Z" fill="#16171A"/>
<path d="M11 10H10V11H11V10Z" fill="#D62411"/>
<path d="M12 10H11V11H12V10Z" fill="#D62411"/>
<path d="M13 10H12V11H13V10Z" fill="#D62411"/>
<path d="M14 10H13V11H14V10Z" fill="#7F0622"/>
<path d="M15 10H14V11H15V10Z" fill="#16171A"/>
<path d="M2 11H1V12H2V11Z" fill="#16171A"/>
<path d="M3 11H2V12H3V11Z" fill="#FF8426"/>
<path d="M4 11H3V12H4V11Z" fill="#D62411"/>
<path d="M5 11H4V12H5V11Z" fill="#D62411"/>
<path d="M6 11H5V12H6V11Z" fill="#16171A"/>
<path d="M7 11H6V12H7V11Z" fill="#FAFDFF"/>
<path d="M8 11H7V12H8V11Z" fill="#D9D9D9"/>
<path d="M9 11H8V12H9V11Z" fill="#16171A"/>
<path d="M10 11H9V12H10V11Z" fill="#D62411"/>
<path d="M11 11H10V12H11V11Z" fill="#D62411"/>
<path d="M12 11H11V12H12V11Z" fill="#D62411"/>
<path d="M13 11H12V12H13V11Z" fill="#D62411"/>
<path d="M14 11H13V12H14V11Z" fill="#7F0622"/>
<path d="M15 11H14V12H15V11Z" fill="#16171A"/>
<path d="M3 12H2V13H3V12Z" fill="#16171A"/>
<path d="M4 12H3V13H4V12Z" fill="#FF8426"/>
<path d="M5 12H4V13H5V12Z" fill="#D62411"/>
<path d="M6 12H5V13H6V12Z" fill="#16171A"/>
<path d="M7 12H6V13H7V12Z" fill="#D9D9D9"/>
<path d="M8 12H7V13H8V12Z" fill="#D9D9D9"/>
<path d="M9 12H8V13H9V12Z" fill="#16171A"/>
<path d="M10 12H9V13H10V12Z" fill="#D62411"/>
<path d="M11 12H10V13H11V12Z" fill="#D62411"/>
<path d="M12 12H11V13H12V12Z" fill="#D62411"/>
<path d="M13 12H12V13H13V12Z" fill="#7F0622"/>
<path d="M14 12H13V13H14V12Z" fill="#16171A"/>
<path d="M4 13H3V14H4V13Z" fill="#16171A"/>
<path d="M5 13H4V14H5V13Z" fill="#7F0622"/>
<path d="M6 13H5V14H6V13Z" fill="#7F0622"/>
<path d="M7 13H6V14H7V13Z" fill="#16171A"/>
<path d="M8 13H7V14H8V13Z" fill="#16171A"/>
<path d="M9 13H8V14H9V13Z" fill="#D62411"/>
<path d="M10 13H9V14H10V13Z" fill="#D62411"/>
<path d="M11 13H10V14H11V13Z" fill="#7F0622"/>
<path d="M12 13H11V14H12V13Z" fill="#7F0622"/>
<path d="M13 13H12V14H13V13Z" fill="#16171A"/>
<path d="M5 14H4V15H5V14Z" fill="#16171A"/>
<path d="M6 14H5V15H6V14Z" fill="#16171A"/>
<path d="M7 14H6V15H7V14Z" fill="#7F0622"/>
<path d="M8 14H7V15H8V14Z" fill="#7F0622"/>
<path d="M9 14H8V15H9V14Z" fill="#7F0622"/>
<path d="M10 14H9V15H10V14Z" fill="#7F0622"/>
<path d="M11 14H10V15H11V14Z" fill="#16171A"/>
<path d="M12 14H11V15H12V14Z" fill="#16171A"/>
<path d="M7 15H6V16H7V15Z" fill="#16171A"/>
<path d="M8 15H7V16H8V15Z" fill="#16171A"/>
<path d="M9 15H8V16H9V15Z" fill="#16171A"/>
<path d="M10 15H9V16H10V15Z" fill="#16171A"/>
</svg>
