<svg width="269" height="46" viewBox="0 0 269 46" fill="none" xmlns="http://www.w3.org/2000/svg">
<path fill-rule="evenodd" clip-rule="evenodd" d="M83 4.19921L228 4.19922H11V6.1992L259 6.19922H6L6 8.1992L263 8.19922H4L4 10.1992L263.059 10.1992L2 10.1992V35.1992H83L267 35.1992V10.1992H265V8.19924L263 8.19922V6.19923L259 6.19922V4.19924L228 4.19922V2.19923L83 2.19922V4.19921Z" fill="#FF9332"/>
<rect x="2" y="8.19922" width="2" height="2" fill="#393939"/>
<rect x="267" y="39.1992" width="2" height="4" transform="rotate(-180 267 39.1992)" fill="#393939"/>
<rect x="4" y="35.1992" width="4" height="2" transform="rotate(90 4 35.1992)" fill="#393939"/>
<rect x="10" y="33.1992" width="2" height="2" transform="rotate(90 10 33.1992)" fill="#FFBD82"/>
<rect x="259" y="35.1992" width="2.00001" height="249" transform="rotate(90 259 35.1992)" fill="#FFBD82"/>
<rect x="265" y="10.1992" width="4" height="2" transform="rotate(-90 265 10.1992)" fill="#393939"/>
<rect x="2" y="6.19922" width="2" height="2" fill="#393939"/>
<rect x="265" y="41.1992" width="2" height="2" transform="rotate(-180 265 41.1992)" fill="#393939"/>
<rect x="6" y="39.1992" width="2" height="2" transform="rotate(90 6 39.1992)" fill="#393939"/>
<rect x="4" y="4.19922" width="2" height="2" fill="#393939"/>
<rect x="8" y="41.1992" width="2" height="2" transform="rotate(90 8 41.1992)" fill="#393939"/>
<rect x="263" y="6.19922" width="2" height="2" transform="rotate(-90 263 6.19922)" fill="#393939"/>
<rect x="6" y="2.19922" width="4" height="2" fill="#393939"/>
<rect x="263" y="43.1992" width="4" height="2" transform="rotate(-180 263 43.1992)" fill="#393939"/>
<rect x="4" y="35.1992" width="2" height="6" transform="rotate(-180 4 35.1992)" fill="#EE7000"/>
<rect x="8" y="39.1992" width="4" height="6" transform="rotate(-180 8 39.1992)" fill="#EE7000"/>
<rect x="10" y="41.1992" width="4" height="6" transform="rotate(-180 10 41.1992)" fill="#EE7000"/>
<rect x="259" y="43.1992" width="249" height="5.99998" transform="rotate(-180 259 43.1992)" fill="#EE7000"/>
<rect x="263" y="41.1992" width="4" height="6" transform="rotate(-180 263 41.1992)" fill="#EE7000"/>
<rect x="263" y="39.1992" width="2" height="6" transform="rotate(-180 263 39.1992)" fill="#EE7000"/>
<rect x="265" y="39.1992" width="2" height="8" transform="rotate(-180 265 39.1992)" fill="#EE7000"/>
<rect x="267" y="35.1992" width="2" height="6" transform="rotate(-180 267 35.1992)" fill="#EE7000"/>
<rect x="10" y="41.1992" width="2" height="2" transform="rotate(90 10 41.1992)" fill="#393939"/>
<rect x="259" y="4.19922" width="2" height="4" transform="rotate(-90 259 4.19922)" fill="#393939"/>
<rect x="10" y="0.199219" width="249" height="2" fill="#393939"/>
<rect x="10" y="43.1992" width="249" height="2" fill="#393939"/>
<rect y="10.1992" width="2" height="25" fill="#393939"/>
<rect x="269" y="35.1992" width="2" height="25" transform="rotate(-180 269 35.1992)" fill="#393939"/>
<rect x="259" y="2.19922" width="2.00001" height="249" transform="rotate(90 259 2.19922)" fill="#FFBD82"/>
<rect x="6" y="6.19922" width="2" height="2" transform="rotate(90 6 6.19922)" fill="#FFBD82"/>
<rect x="4" y="10.1992" width="4" height="2" transform="rotate(90 4 10.1992)" fill="#FFBD82"/>
<rect x="8" y="4.19922" width="2" height="2" transform="rotate(90 8 4.19922)" fill="#FFBD82"/>
<rect x="10" y="4.19922" width="2" height="2" transform="rotate(90 10 4.19922)" fill="#FFBD82"/>
<rect x="263" y="4.19922" width="2" height="4" transform="rotate(90 263 4.19922)" fill="#FFBD82"/>
<rect x="265" y="6.19922" width="2" height="2" transform="rotate(90 265 6.19922)" fill="#FFBD82"/>
<rect x="267" y="10.1992" width="4" height="2" transform="rotate(90 267 10.1992)" fill="#FFBD82"/>
<rect width="6" height="4" transform="matrix(-1.31134e-07 -1 -1 1.31134e-07 33 43.1992)" fill="#FFDDBE"/>
<rect width="6" height="4" transform="matrix(-1.31134e-07 -1 -1 1.31134e-07 208 43.1992)" fill="#FFDDBE"/>
<rect width="6" height="3" transform="matrix(-1.31134e-07 -1 -1 1.31134e-07 28 43.1992)" fill="#FFDDBE"/>
<rect width="6" height="3" transform="matrix(-1.31134e-07 -1 -1 1.31134e-07 203 43.1992)" fill="#FFDDBE"/>
<rect width="6" height="2" transform="matrix(-1.31134e-07 -1 -1 1.31134e-07 24 43.1992)" fill="#FFDDBE"/>
<rect width="6" height="2" transform="matrix(-1.31134e-07 -1 -1 1.31134e-07 199 43.1992)" fill="#FFDDBE"/>
<rect width="6" height="0.999999" transform="matrix(-1.31134e-07 -1 -1 1.31134e-07 21 43.1992)" fill="#FFDDBE"/>
<rect width="6" height="0.999999" transform="matrix(-1.31134e-07 -1 -1 1.31134e-07 196 43.1992)" fill="#FFDDBE"/>
<rect x="4" y="27.1992" width="4" height="2" transform="rotate(90 4 27.1992)" fill="#FFBD82"/>
<rect x="8" y="33.1992" width="2" height="2" transform="rotate(90 8 33.1992)" fill="#FFBD82"/>
<rect x="6" y="31.1992" width="2" height="2" transform="rotate(90 6 31.1992)" fill="#FFBD82"/>
<rect x="263" y="35.1992" width="4" height="2" transform="rotate(-180 263 35.1992)" fill="#FFBD82"/>
<rect x="265" y="33.1992" width="2" height="2" transform="rotate(-180 265 33.1992)" fill="#FFBD82"/>
<rect x="267" y="29.1992" width="2" height="4" transform="rotate(-180 267 29.1992)" fill="#FFBD82"/>
</svg>
