<svg width="127" height="39" viewBox="0 0 127 39" fill="none" xmlns="http://www.w3.org/2000/svg">
<path fill-rule="evenodd" clip-rule="evenodd" d="M123.929 0.669922H3.92927V2.1514H123.929V0.669922ZM3.92854 2.15155H2.44706V3.63303H3.92854V2.15155ZM125.407 2.15155H123.926V3.63303H125.407V2.15155ZM125.407 35.485H123.926V36.9661H3.92927V38.4476H123.929V36.9665H125.407V35.485ZM125.408 3.6326H126.889V35.4845H125.408V3.6326ZM0.964844 3.6326H2.44633V35.4845H0.964844V3.6326ZM2.44706 35.485H3.92854V36.9665H2.44706V35.485Z" fill="black"/>
<path fill-rule="evenodd" clip-rule="evenodd" d="M123.924 2.15039H3.92362V3.63202H2.44141V34.7431H125.404V3.63202H123.924V2.15039Z" fill="#EA0000"/>
<rect x="2.44141" y="3.63281" width="1.48148" height="1.48148" fill="#FFC0C0"/>
<rect x="125.402" y="3.63281" width="1.48148" height="1.48148" transform="rotate(90 125.402 3.63281)" fill="#FFC0C0"/>
<rect x="125.402" y="31.041" width="1.48148" height="1.48148" transform="rotate(-180 125.402 31.041)" fill="#FFC0C0"/>
<rect x="2.44141" y="31.041" width="1.48148" height="1.48148" transform="rotate(-90 2.44141 31.041)" fill="#FFC0C0"/>
<rect x="2.44141" y="35.4844" width="4.44445" height="1.48148" transform="rotate(-90 2.44141 35.4844)" fill="#A50000"/>
<rect x="3.92188" y="3.63281" width="1.48148" height="1.48148" fill="#BB0000"/>
<rect x="125.402" y="5.11426" width="1.48148" height="1.48148" transform="rotate(90 125.402 5.11426)" fill="#BB0000"/>
<rect x="123.922" y="31.041" width="1.48148" height="1.48148" transform="rotate(-180 123.922 31.041)" fill="#BB0000"/>
<rect x="2.44141" y="29.5596" width="1.48148" height="1.48148" transform="rotate(-90 2.44141 29.5596)" fill="#BB0000"/>
<rect x="2.44141" y="5.11426" width="1.48148" height="1.48148" fill="#BB0000"/>
<rect x="123.922" y="3.63281" width="1.48148" height="1.48148" transform="rotate(90 123.922 3.63281)" fill="#BB0000"/>
<rect x="125.402" y="29.5596" width="1.48148" height="1.48148" transform="rotate(-180 125.402 29.5596)" fill="#BB0000"/>
<rect x="3.92188" y="31.041" width="1.48148" height="1.48148" transform="rotate(-90 3.92188 31.041)" fill="#BB0000"/>
<rect x="125.402" y="35.4844" width="1.48148" height="4.44445" transform="rotate(-180 125.402 35.4844)" fill="#A50000"/>
<rect x="123.922" y="36.9658" width="120" height="4.44444" transform="rotate(-180 123.922 36.9658)" fill="#A50000"/>
<rect x="3.92188" y="2.15137" width="120" height="1.48148" fill="#FFC0C0"/>
<rect x="3.92188" y="31.041" width="120" height="1.48148" fill="#FFC0C0"/>
<rect x="9.84766" y="36.9658" width="4.44445" height="2.96296" transform="rotate(-90 9.84766 36.9658)" fill="#FFB1B1"/>
<rect width="4.44445" height="2.96296" transform="matrix(-1.31134e-07 -1 -1 1.31134e-07 115.031 36.9658)" fill="#FFB1B1"/>
<rect x="13.5508" y="36.9658" width="4.44445" height="2.22222" transform="rotate(-90 13.5508 36.9658)" fill="#FFB1B1"/>
<rect width="4.44445" height="2.22222" transform="matrix(-1.31134e-07 -1 -1 1.31134e-07 111.328 36.9658)" fill="#FFB1B1"/>
<rect x="16.5156" y="36.9658" width="4.44445" height="1.48148" transform="rotate(-90 16.5156 36.9658)" fill="#FFB1B1"/>
<rect width="4.44445" height="1.48148" transform="matrix(-1.31134e-07 -1 -1 1.31134e-07 108.367 36.9658)" fill="#FFB1B1"/>
<rect x="18.7422" y="36.9658" width="4.44445" height="0.74074" transform="rotate(-90 18.7422 36.9658)" fill="#FFB1B1"/>
<rect width="4.44445" height="0.74074" transform="matrix(-1.31134e-07 -1 -1 1.31134e-07 106.145 36.9658)" fill="#FFB1B1"/>
<path d="M35.63 14.2215V13.5915V12.9615H36.26H36.89H38.78H41.3V13.5915H41.93V14.2215H42.56V15.4815V16.1115H41.93V16.7415V17.3715H42.56V19.2615H41.93V19.8915H41.3V20.5215H38.78H36.89H36.26H35.63V19.8915V19.2615V18.6315V17.3715V16.7415V16.1115V15.4815V14.8515V14.2215ZM37.52 19.2615H38.78H39.41H40.04H40.67V18.6315H41.3V18.0015H40.67V17.3715H36.89V19.2615H37.52ZM38.78 14.2215H37.52H36.89V16.1115H40.67V15.4815H41.3V14.8515H40.67V14.2215H40.04H39.41H38.78ZM43.8234 19.8915V19.2615V18.0015V16.7415V16.1115V15.4815H44.4534V14.8515H45.0834V14.2215H45.7134V13.5915H46.3434V12.9615H48.2334V13.5915H48.8634V14.2215H49.4934V14.8515H50.1234V15.4815H50.7534V16.1115V16.7415V18.0015V19.2615V19.8915V20.5215H50.1234H49.4934V19.8915V19.2615V18.0015H45.0834V19.2615V19.8915V20.5215H44.4534H43.8234V19.8915ZM49.4934 16.7415V16.1115H48.8634V15.4815H48.2334V14.8515H47.6034V14.2215H46.9734V14.8515H46.3434V15.4815H45.7134V16.1115H45.0834V16.7415H49.4934ZM57.6867 20.5215H53.2767H52.6467H52.0167V19.8915V19.2615V18.6315V17.3715V16.7415V16.1115V15.4815V14.8515V14.2215V13.5915V12.9615H52.6467H53.2767V19.2615H57.6867V18.0015H58.9467V19.2615V20.5215H57.6867ZM60.2101 19.8915V19.2615V18.0015V16.7415V16.1115V15.4815H60.8401V14.8515H61.4701V14.2215H62.1001V13.5915H62.7301V12.9615H64.6201V13.5915H65.2501V14.2215H65.8801V14.8515H66.5101V15.4815H67.1401V16.1115V16.7415V18.0015V19.2615V19.8915V20.5215H66.5101H65.8801V19.8915V19.2615V18.0015H61.4701V19.2615V19.8915V20.5215H60.8401H60.2101V19.8915ZM65.8801 16.7415V16.1115H65.2501V15.4815H64.6201V14.8515H63.9901V14.2215H63.3601V14.8515H62.7301V15.4815H62.1001V16.1115H61.4701V16.7415H65.8801ZM74.0734 15.4815V13.5915V12.9615H75.3334V13.5915V14.2215V19.2615V20.5215H74.0734V19.2615H73.4434V18.6315H72.8134V18.0015H72.1834V17.3715H71.5534V16.7415H70.9234V16.1115H70.2934V15.4815H69.6634V17.3715V20.5215H69.0334H68.4034V19.8915V19.2615V18.6315V17.3715V16.7415V16.1115V15.4815V14.8515V14.2215V13.5915V12.9615H69.0334H69.6634V13.5915H70.2934V14.2215H70.9234V14.8515H71.5534V15.4815H72.1834V16.1115H72.8134V16.7415H73.4434V17.3715H74.0734V15.4815ZM79.7468 14.2215H79.1168H78.4868V14.8515H77.8568V15.4815V16.1115V17.3715V18.0015V18.6315H78.4868V19.2615H79.1168H79.7468H80.3768H81.0068H81.6368V18.6315H82.2668V18.0015H83.5268V19.2615H82.8968V19.8915H82.2668V20.5215H80.3768H79.7468H77.8568V19.8915H77.2268V19.2615H76.5968V18.0015V17.3715V16.7415V16.1115V14.2215H77.2268V13.5915H77.8568V12.9615H79.1168H79.7468H80.3768H82.2668V13.5915H82.8968V14.2215H83.5268V15.4815H82.2668V14.8515H81.6368V14.2215H81.0068H80.3768H79.7468ZM84.7902 14.2215V13.5915V12.9615H85.4202H86.0502H87.9402H91.7202V14.2215H91.0902H90.4602H89.2002H88.5702H87.9402H86.6802H86.0502V16.1115H90.4602V17.3715H86.0502V19.2615H86.6802H87.9402H88.5702H89.2002H90.4602H91.0902H91.7202V20.5215H87.9402H86.0502H85.4202H84.7902V19.8915V19.2615V18.6315V17.3715V16.7415V16.1115V15.4815V14.8515V14.2215Z" fill="#393939"/>
<path d="M35.63 12.74V12.11V11.48H36.26H36.89H38.78H41.3V12.11H41.93V12.74H42.56V14V14.63H41.93V15.26V15.89H42.56V17.78H41.93V18.41H41.3V19.04H38.78H36.89H36.26H35.63V18.41V17.78V17.15V15.89V15.26V14.63V14V13.37V12.74ZM37.52 17.78H38.78H39.41H40.04H40.67V17.15H41.3V16.52H40.67V15.89H36.89V17.78H37.52ZM38.78 12.74H37.52H36.89V14.63H40.67V14H41.3V13.37H40.67V12.74H40.04H39.41H38.78ZM43.8234 18.41V17.78V16.52V15.26V14.63V14H44.4534V13.37H45.0834V12.74H45.7134V12.11H46.3434V11.48H48.2334V12.11H48.8634V12.74H49.4934V13.37H50.1234V14H50.7534V14.63V15.26V16.52V17.78V18.41V19.04H50.1234H49.4934V18.41V17.78V16.52H45.0834V17.78V18.41V19.04H44.4534H43.8234V18.41ZM49.4934 15.26V14.63H48.8634V14H48.2334V13.37H47.6034V12.74H46.9734V13.37H46.3434V14H45.7134V14.63H45.0834V15.26H49.4934ZM57.6867 19.04H53.2767H52.6467H52.0167V18.41V17.78V17.15V15.89V15.26V14.63V14V13.37V12.74V12.11V11.48H52.6467H53.2767V17.78H57.6867V16.52H58.9467V17.78V19.04H57.6867ZM60.2101 18.41V17.78V16.52V15.26V14.63V14H60.8401V13.37H61.4701V12.74H62.1001V12.11H62.7301V11.48H64.6201V12.11H65.2501V12.74H65.8801V13.37H66.5101V14H67.1401V14.63V15.26V16.52V17.78V18.41V19.04H66.5101H65.8801V18.41V17.78V16.52H61.4701V17.78V18.41V19.04H60.8401H60.2101V18.41ZM65.8801 15.26V14.63H65.2501V14H64.6201V13.37H63.9901V12.74H63.3601V13.37H62.7301V14H62.1001V14.63H61.4701V15.26H65.8801ZM74.0734 14V12.11V11.48H75.3334V12.11V12.74V17.78V19.04H74.0734V17.78H73.4434V17.15H72.8134V16.52H72.1834V15.89H71.5534V15.26H70.9234V14.63H70.2934V14H69.6634V15.89V19.04H69.0334H68.4034V18.41V17.78V17.15V15.89V15.26V14.63V14V13.37V12.74V12.11V11.48H69.0334H69.6634V12.11H70.2934V12.74H70.9234V13.37H71.5534V14H72.1834V14.63H72.8134V15.26H73.4434V15.89H74.0734V14ZM79.7468 12.74H79.1168H78.4868V13.37H77.8568V14V14.63V15.89V16.52V17.15H78.4868V17.78H79.1168H79.7468H80.3768H81.0068H81.6368V17.15H82.2668V16.52H83.5268V17.78H82.8968V18.41H82.2668V19.04H80.3768H79.7468H77.8568V18.41H77.2268V17.78H76.5968V16.52V15.89V15.26V14.63V12.74H77.2268V12.11H77.8568V11.48H79.1168H79.7468H80.3768H82.2668V12.11H82.8968V12.74H83.5268V14H82.2668V13.37H81.6368V12.74H81.0068H80.3768H79.7468ZM84.7902 12.74V12.11V11.48H85.4202H86.0502H87.9402H91.7202V12.74H91.0902H90.4602H89.2002H88.5702H87.9402H86.6802H86.0502V14.63H90.4602V15.89H86.0502V17.78H86.6802H87.9402H88.5702H89.2002H90.4602H91.0902H91.7202V19.04H87.9402H86.0502H85.4202H84.7902V18.41V17.78V17.15V15.89V15.26V14.63V14V13.37V12.74Z" fill="white"/>
</svg>
