<svg width="170" height="51" viewBox="0 0 170 51" fill="none" xmlns="http://www.w3.org/2000/svg">
<path fill-rule="evenodd" clip-rule="evenodd" d="M166 0H4V2H2V4H0V47H2V49H4V51H166V49H168V47H170V4H168V2H166V0ZM166 2V4H168V47H166V49H4V47H2V4H4V2H166Z" fill="black"/>
<path fill-rule="evenodd" clip-rule="evenodd" d="M166 2H4V4H2V46H168V4H166V2Z" fill="#EA0000"/>
<rect x="2" y="4" width="2" height="2" fill="#FFC0C0"/>
<rect x="168" y="4" width="2" height="2" transform="rotate(90 168 4)" fill="#FFC0C0"/>
<rect x="168" y="41" width="2" height="2" transform="rotate(-180 168 41)" fill="#FFC0C0"/>
<rect x="2" y="41" width="2" height="2" transform="rotate(-90 2 41)" fill="#FFC0C0"/>
<rect x="2" y="47" width="6" height="2" transform="rotate(-90 2 47)" fill="#A50000"/>
<rect x="4" y="4" width="2" height="2" fill="#BB0000"/>
<rect x="168" y="6" width="2" height="2" transform="rotate(90 168 6)" fill="#BB0000"/>
<rect x="166" y="41" width="2" height="2" transform="rotate(-180 166 41)" fill="#BB0000"/>
<rect x="2" y="39" width="2" height="2" transform="rotate(-90 2 39)" fill="#BB0000"/>
<rect x="2" y="6" width="2" height="2" fill="#BB0000"/>
<rect x="166" y="4" width="2" height="2" transform="rotate(90 166 4)" fill="#BB0000"/>
<rect x="168" y="39" width="2" height="2" transform="rotate(-180 168 39)" fill="#BB0000"/>
<rect x="4" y="41" width="2" height="2" transform="rotate(-90 4 41)" fill="#BB0000"/>
<rect x="168" y="47" width="2" height="6" transform="rotate(-180 168 47)" fill="#A50000"/>
<rect x="166" y="49" width="162" height="5.99999" transform="rotate(-180 166 49)" fill="#A50000"/>
<rect x="4" y="2" width="162" height="2" fill="#FFC0C0"/>
<rect x="4" y="41" width="162" height="2" fill="#FFC0C0"/>
<rect x="12" y="49" width="6" height="4" transform="rotate(-90 12 49)" fill="#FFB1B1"/>
<rect width="6" height="4" transform="matrix(-1.31134e-07 -1 -1 1.31134e-07 154 49)" fill="#FFB1B1"/>
<rect x="17" y="49" width="6" height="3" transform="rotate(-90 17 49)" fill="#FFB1B1"/>
<rect width="6" height="3" transform="matrix(-1.31134e-07 -1 -1 1.31134e-07 149 49)" fill="#FFB1B1"/>
<rect x="21" y="49" width="6" height="2" transform="rotate(-90 21 49)" fill="#FFB1B1"/>
<rect width="6" height="2" transform="matrix(-1.31134e-07 -1 -1 1.31134e-07 145 49)" fill="#FFB1B1"/>
<rect x="24" y="49" width="6" height="0.999999" transform="rotate(-90 24 49)" fill="#FFB1B1"/>
<rect width="6" height="0.999999" transform="matrix(-1.31134e-07 -1 -1 1.31134e-07 142 49)" fill="#FFB1B1"/>
<path d="M29.26 19.4V18.14V16.88H30.52H31.78H35.56H40.6V18.14H41.86V19.4H43.12V21.92V23.18H41.86V24.44V25.7H43.12V29.48H41.86V30.74H40.6V32H35.56H31.78H30.52H29.26V30.74V29.48V28.22V25.7V24.44V23.18V21.92V20.66V19.4ZM33.04 29.48H35.56H36.82H38.08H39.34V28.22H40.6V26.96H39.34V25.7H31.78V29.48H33.04ZM35.56 19.4H33.04H31.78V23.18H39.34V21.92H40.6V20.66H39.34V19.4H38.08H36.82H35.56ZM45.6467 30.74V29.48V26.96V24.44V23.18V21.92H46.9067V20.66H48.1667V19.4H49.4267V18.14H50.6867V16.88H54.4667V18.14H55.7267V19.4H56.9867V20.66H58.2467V21.92H59.5067V23.18V24.44V26.96V29.48V30.74V32H58.2467H56.9867V30.74V29.48V26.96H48.1667V29.48V30.74V32H46.9067H45.6467V30.74ZM56.9867 24.44V23.18H55.7267V21.92H54.4667V20.66H53.2067V19.4H51.9467V20.66H50.6867V21.92H49.4267V23.18H48.1667V24.44H56.9867ZM73.3734 32H64.5534H63.2934H62.0334V30.74V29.48V28.22V25.7V24.44V23.18V21.92V20.66V19.4V18.14V16.88H63.2934H64.5534V29.48H73.3734V26.96H75.8934V29.48V32H73.3734ZM78.4202 30.74V29.48V26.96V24.44V23.18V21.92H79.6802V20.66H80.9402V19.4H82.2002V18.14H83.4602V16.88H87.2402V18.14H88.5002V19.4H89.7602V20.66H91.0202V21.92H92.2802V23.18V24.44V26.96V29.48V30.74V32H91.0202H89.7602V30.74V29.48V26.96H80.9402V29.48V30.74V32H79.6802H78.4202V30.74ZM89.7602 24.44V23.18H88.5002V21.92H87.2402V20.66H85.9802V19.4H84.7202V20.66H83.4602V21.92H82.2002V23.18H80.9402V24.44H89.7602ZM106.147 21.92V18.14V16.88H108.667V18.14V19.4V29.48V32H106.147V29.48H104.887V28.22H103.627V26.96H102.367V25.7H101.107V24.44H99.8469V23.18H98.5869V21.92H97.3269V25.7V32H96.0669H94.8069V30.74V29.48V28.22V25.7V24.44V23.18V21.92V20.66V19.4V18.14V16.88H96.0669H97.3269V18.14H98.5869V19.4H99.8469V20.66H101.107V21.92H102.367V23.18H103.627V24.44H104.887V25.7H106.147V21.92ZM117.494 19.4H116.234H114.974V20.66H113.714V21.92V23.18V25.7V26.96V28.22H114.974V29.48H116.234H117.494H118.754H120.014H121.274V28.22H122.534V26.96H125.054V29.48H123.794V30.74H122.534V32H118.754H117.494H113.714V30.74H112.454V29.48H111.194V26.96V25.7V24.44V23.18V19.4H112.454V18.14H113.714V16.88H116.234H117.494H118.754H122.534V18.14H123.794V19.4H125.054V21.92H122.534V20.66H121.274V19.4H120.014H118.754H117.494ZM127.58 19.4V18.14V16.88H128.84H130.1H133.88H141.44V19.4H140.18H138.92H136.4H135.14H133.88H131.36H130.1V23.18H138.92V25.7H130.1V29.48H131.36H133.88H135.14H136.4H138.92H140.18H141.44V32H133.88H130.1H128.84H127.58V30.74V29.48V28.22V25.7V24.44V23.18V21.92V20.66V19.4Z" fill="#393939"/>
<path d="M29.26 17.4V16.14V14.88H30.52H31.78H35.56H40.6V16.14H41.86V17.4H43.12V19.92V21.18H41.86V22.44V23.7H43.12V27.48H41.86V28.74H40.6V30H35.56H31.78H30.52H29.26V28.74V27.48V26.22V23.7V22.44V21.18V19.92V18.66V17.4ZM33.04 27.48H35.56H36.82H38.08H39.34V26.22H40.6V24.96H39.34V23.7H31.78V27.48H33.04ZM35.56 17.4H33.04H31.78V21.18H39.34V19.92H40.6V18.66H39.34V17.4H38.08H36.82H35.56ZM45.6467 28.74V27.48V24.96V22.44V21.18V19.92H46.9067V18.66H48.1667V17.4H49.4267V16.14H50.6867V14.88H54.4667V16.14H55.7267V17.4H56.9867V18.66H58.2467V19.92H59.5067V21.18V22.44V24.96V27.48V28.74V30H58.2467H56.9867V28.74V27.48V24.96H48.1667V27.48V28.74V30H46.9067H45.6467V28.74ZM56.9867 22.44V21.18H55.7267V19.92H54.4667V18.66H53.2067V17.4H51.9467V18.66H50.6867V19.92H49.4267V21.18H48.1667V22.44H56.9867ZM73.3734 30H64.5534H63.2934H62.0334V28.74V27.48V26.22V23.7V22.44V21.18V19.92V18.66V17.4V16.14V14.88H63.2934H64.5534V27.48H73.3734V24.96H75.8934V27.48V30H73.3734ZM78.4202 28.74V27.48V24.96V22.44V21.18V19.92H79.6802V18.66H80.9402V17.4H82.2002V16.14H83.4602V14.88H87.2402V16.14H88.5002V17.4H89.7602V18.66H91.0202V19.92H92.2802V21.18V22.44V24.96V27.48V28.74V30H91.0202H89.7602V28.74V27.48V24.96H80.9402V27.48V28.74V30H79.6802H78.4202V28.74ZM89.7602 22.44V21.18H88.5002V19.92H87.2402V18.66H85.9802V17.4H84.7202V18.66H83.4602V19.92H82.2002V21.18H80.9402V22.44H89.7602ZM106.147 19.92V16.14V14.88H108.667V16.14V17.4V27.48V30H106.147V27.48H104.887V26.22H103.627V24.96H102.367V23.7H101.107V22.44H99.8469V21.18H98.5869V19.92H97.3269V23.7V30H96.0669H94.8069V28.74V27.48V26.22V23.7V22.44V21.18V19.92V18.66V17.4V16.14V14.88H96.0669H97.3269V16.14H98.5869V17.4H99.8469V18.66H101.107V19.92H102.367V21.18H103.627V22.44H104.887V23.7H106.147V19.92ZM117.494 17.4H116.234H114.974V18.66H113.714V19.92V21.18V23.7V24.96V26.22H114.974V27.48H116.234H117.494H118.754H120.014H121.274V26.22H122.534V24.96H125.054V27.48H123.794V28.74H122.534V30H118.754H117.494H113.714V28.74H112.454V27.48H111.194V24.96V23.7V22.44V21.18V17.4H112.454V16.14H113.714V14.88H116.234H117.494H118.754H122.534V16.14H123.794V17.4H125.054V19.92H122.534V18.66H121.274V17.4H120.014H118.754H117.494ZM127.58 17.4V16.14V14.88H128.84H130.1H133.88H141.44V17.4H140.18H138.92H136.4H135.14H133.88H131.36H130.1V21.18H138.92V23.7H130.1V27.48H131.36H133.88H135.14H136.4H138.92H140.18H141.44V30H133.88H130.1H128.84H127.58V28.74V27.48V26.22V23.7V22.44V21.18V19.92V18.66V17.4Z" fill="white"/>
</svg>
