<svg width="131" height="39" viewBox="0 0 131 39" fill="none" xmlns="http://www.w3.org/2000/svg">
<path fill-rule="evenodd" clip-rule="evenodd" d="M127.913 0.669922H4.02746V2.15142H127.906V3.63254H129.436V2.15104H127.913V0.669922ZM4.02167 2.15104H2.49222V3.63254H4.02167V2.15104ZM129.436 35.4856H127.906V36.9667H4.02746V38.4482H127.913V36.9671H129.436V35.4856ZM129.434 3.63315H130.963V35.4854H129.434V3.63315ZM0.964844 3.63315H2.49429V35.4854H0.964844V3.63315ZM2.49222 35.4856H4.02167V36.9671H2.49222V35.4856Z" fill="black"/>
<path fill-rule="evenodd" clip-rule="evenodd" d="M127.901 2.15039H4.01566V3.63151H2.48828V34.743H129.433V3.63151H127.901V2.15039Z" fill="#EA0000"/>
<rect x="2.48828" y="3.63281" width="1.52945" height="1.4815" fill="#FFC0C0"/>
<rect x="129.43" y="3.63281" width="1.4815" height="1.52945" transform="rotate(90 129.43 3.63281)" fill="#FFC0C0"/>
<rect x="129.43" y="31.041" width="1.52945" height="1.4815" transform="rotate(-180 129.43 31.041)" fill="#FFC0C0"/>
<rect x="2.48828" y="31.041" width="1.4815" height="1.52945" transform="rotate(-90 2.48828 31.041)" fill="#FFC0C0"/>
<rect x="2.48828" y="35.4844" width="4.4445" height="1.52945" transform="rotate(-90 2.48828 35.4844)" fill="#A50000"/>
<rect x="4.01953" y="3.63281" width="1.52945" height="1.4815" fill="#BB0000"/>
<rect x="129.43" y="5.11426" width="1.4815" height="1.52945" transform="rotate(90 129.43 5.11426)" fill="#BB0000"/>
<rect x="127.902" y="31.041" width="1.52945" height="1.4815" transform="rotate(-180 127.902 31.041)" fill="#BB0000"/>
<rect x="2.48828" y="29.5605" width="1.4815" height="1.52945" transform="rotate(-90 2.48828 29.5605)" fill="#BB0000"/>
<rect x="2.48828" y="5.11426" width="1.52945" height="1.4815" fill="#BB0000"/>
<rect x="127.902" y="3.63281" width="1.4815" height="1.52945" transform="rotate(90 127.902 3.63281)" fill="#BB0000"/>
<rect x="129.43" y="29.5605" width="1.52945" height="1.4815" transform="rotate(-180 129.43 29.5605)" fill="#BB0000"/>
<rect x="4.01953" y="31.041" width="1.4815" height="1.52945" transform="rotate(-90 4.01953 31.041)" fill="#BB0000"/>
<rect x="129.43" y="35.4844" width="1.52945" height="4.4445" transform="rotate(-180 129.43 35.4844)" fill="#A50000"/>
<rect x="127.902" y="36.9668" width="123.885" height="4.44449" transform="rotate(-180 127.902 36.9668)" fill="#A50000"/>
<rect x="4.01953" y="2.15137" width="123.885" height="1.4815" fill="#FFC0C0"/>
<rect x="4.01953" y="31.041" width="123.885" height="1.4815" fill="#FFC0C0"/>
<rect x="10.1367" y="36.9668" width="4.4445" height="3.0589" transform="rotate(-90 10.1367 36.9668)" fill="#FFB1B1"/>
<rect width="4.4445" height="3.0589" transform="matrix(-1.35378e-07 -1 -1 1.27023e-07 118.723 36.9668)" fill="#FFB1B1"/>
<rect x="13.957" y="36.9668" width="4.4445" height="2.29417" transform="rotate(-90 13.957 36.9668)" fill="#FFB1B1"/>
<rect width="4.4445" height="2.29417" transform="matrix(-1.35378e-07 -1 -1 1.27023e-07 114.898 36.9668)" fill="#FFB1B1"/>
<rect x="17.0195" y="36.9668" width="4.4445" height="1.52945" transform="rotate(-90 17.0195 36.9668)" fill="#FFB1B1"/>
<rect width="4.4445" height="1.52945" transform="matrix(-1.35378e-07 -1 -1 1.27023e-07 111.844 36.9668)" fill="#FFB1B1"/>
<rect x="19.3164" y="36.9668" width="4.4445" height="0.764724" transform="rotate(-90 19.3164 36.9668)" fill="#FFB1B1"/>
<rect width="4.4445" height="0.764724" transform="matrix(-1.35378e-07 -1 -1 1.27023e-07 109.551 36.9668)" fill="#FFB1B1"/>
<path d="M36.7316 14.2215V13.5915V12.9615H37.3616H37.9916H39.8816H42.4016V13.5915H43.0316V14.2215H43.6616V15.4815V16.1115H43.0316V16.7415V17.3715H43.6616V19.2615H43.0316V19.8915H42.4016V20.5215H39.8816H37.9916H37.3616H36.7316V19.8915V19.2615V18.6315V17.3715V16.7415V16.1115V15.4815V14.8515V14.2215ZM38.6216 19.2615H39.8816H40.5116H41.1416H41.7716V18.6315H42.4016V18.0015H41.7716V17.3715H37.9916V19.2615H38.6216ZM39.8816 14.2215H38.6216H37.9916V16.1115H41.7716V15.4815H42.4016V14.8515H41.7716V14.2215H41.1416H40.5116H39.8816ZM44.9249 19.8915V19.2615V18.0015V16.7415V16.1115V15.4815H45.5549V14.8515H46.1849V14.2215H46.8149V13.5915H47.4449V12.9615H49.3349V13.5915H49.9649V14.2215H50.5949V14.8515H51.2249V15.4815H51.8549V16.1115V16.7415V18.0015V19.2615V19.8915V20.5215H51.2249H50.5949V19.8915V19.2615V18.0015H46.1849V19.2615V19.8915V20.5215H45.5549H44.9249V19.8915ZM50.5949 16.7415V16.1115H49.9649V15.4815H49.3349V14.8515H48.7049V14.2215H48.0749V14.8515H47.4449V15.4815H46.8149V16.1115H46.1849V16.7415H50.5949ZM58.7883 20.5215H54.3783H53.7483H53.1183V19.8915V19.2615V18.6315V17.3715V16.7415V16.1115V15.4815V14.8515V14.2215V13.5915V12.9615H53.7483H54.3783V19.2615H58.7883V18.0015H60.0483V19.2615V20.5215H58.7883ZM61.3116 19.8915V19.2615V18.0015V16.7415V16.1115V15.4815H61.9416V14.8515H62.5716V14.2215H63.2016V13.5915H63.8316V12.9615H65.7216V13.5915H66.3516V14.2215H66.9816V14.8515H67.6116V15.4815H68.2416V16.1115V16.7415V18.0015V19.2615V19.8915V20.5215H67.6116H66.9816V19.8915V19.2615V18.0015H62.5716V19.2615V19.8915V20.5215H61.9416H61.3116V19.8915ZM66.9816 16.7415V16.1115H66.3516V15.4815H65.7216V14.8515H65.0916V14.2215H64.4616V14.8515H63.8316V15.4815H63.2016V16.1115H62.5716V16.7415H66.9816ZM75.175 15.4815V13.5915V12.9615H76.435V13.5915V14.2215V19.2615V20.5215H75.175V19.2615H74.545V18.6315H73.915V18.0015H73.285V17.3715H72.655V16.7415H72.025V16.1115H71.395V15.4815H70.765V17.3715V20.5215H70.135H69.505V19.8915V19.2615V18.6315V17.3715V16.7415V16.1115V15.4815V14.8515V14.2215V13.5915V12.9615H70.135H70.765V13.5915H71.395V14.2215H72.025V14.8515H72.655V15.4815H73.285V16.1115H73.915V16.7415H74.545V17.3715H75.175V15.4815ZM80.8484 14.2215H80.2184H79.5884V14.8515H78.9584V15.4815V16.1115V17.3715V18.0015V18.6315H79.5884V19.2615H80.2184H80.8484H81.4784H82.1084H82.7384V18.6315H83.3684V18.0015H84.6284V19.2615H83.9984V19.8915H83.3684V20.5215H81.4784H80.8484H78.9584V19.8915H78.3284V19.2615H77.6984V18.0015V17.3715V16.7415V16.1115V14.2215H78.3284V13.5915H78.9584V12.9615H80.2184H80.8484H81.4784H83.3684V13.5915H83.9984V14.2215H84.6284V15.4815H83.3684V14.8515H82.7384V14.2215H82.1084H81.4784H80.8484ZM85.8917 14.2215V13.5915V12.9615H86.5217H87.1517H89.0417H92.8217V14.2215H92.1917H91.5617H90.3017H89.6717H89.0417H87.7817H87.1517V16.1115H91.5617V17.3715H87.1517V19.2615H87.7817H89.0417H89.6717H90.3017H91.5617H92.1917H92.8217V20.5215H89.0417H87.1517H86.5217H85.8917V19.8915V19.2615V18.6315V17.3715V16.7415V16.1115V15.4815V14.8515V14.2215Z" fill="#393939"/>
<path d="M36.7316 12.74V12.11V11.48H37.3616H37.9916H39.8816H42.4016V12.11H43.0316V12.74H43.6616V14V14.63H43.0316V15.26V15.89H43.6616V17.78H43.0316V18.41H42.4016V19.04H39.8816H37.9916H37.3616H36.7316V18.41V17.78V17.15V15.89V15.26V14.63V14V13.37V12.74ZM38.6216 17.78H39.8816H40.5116H41.1416H41.7716V17.15H42.4016V16.52H41.7716V15.89H37.9916V17.78H38.6216ZM39.8816 12.74H38.6216H37.9916V14.63H41.7716V14H42.4016V13.37H41.7716V12.74H41.1416H40.5116H39.8816ZM44.9249 18.41V17.78V16.52V15.26V14.63V14H45.5549V13.37H46.1849V12.74H46.8149V12.11H47.4449V11.48H49.3349V12.11H49.9649V12.74H50.5949V13.37H51.2249V14H51.8549V14.63V15.26V16.52V17.78V18.41V19.04H51.2249H50.5949V18.41V17.78V16.52H46.1849V17.78V18.41V19.04H45.5549H44.9249V18.41ZM50.5949 15.26V14.63H49.9649V14H49.3349V13.37H48.7049V12.74H48.0749V13.37H47.4449V14H46.8149V14.63H46.1849V15.26H50.5949ZM58.7883 19.04H54.3783H53.7483H53.1183V18.41V17.78V17.15V15.89V15.26V14.63V14V13.37V12.74V12.11V11.48H53.7483H54.3783V17.78H58.7883V16.52H60.0483V17.78V19.04H58.7883ZM61.3116 18.41V17.78V16.52V15.26V14.63V14H61.9416V13.37H62.5716V12.74H63.2016V12.11H63.8316V11.48H65.7216V12.11H66.3516V12.74H66.9816V13.37H67.6116V14H68.2416V14.63V15.26V16.52V17.78V18.41V19.04H67.6116H66.9816V18.41V17.78V16.52H62.5716V17.78V18.41V19.04H61.9416H61.3116V18.41ZM66.9816 15.26V14.63H66.3516V14H65.7216V13.37H65.0916V12.74H64.4616V13.37H63.8316V14H63.2016V14.63H62.5716V15.26H66.9816ZM75.175 14V12.11V11.48H76.435V12.11V12.74V17.78V19.04H75.175V17.78H74.545V17.15H73.915V16.52H73.285V15.89H72.655V15.26H72.025V14.63H71.395V14H70.765V15.89V19.04H70.135H69.505V18.41V17.78V17.15V15.89V15.26V14.63V14V13.37V12.74V12.11V11.48H70.135H70.765V12.11H71.395V12.74H72.025V13.37H72.655V14H73.285V14.63H73.915V15.26H74.545V15.89H75.175V14ZM80.8484 12.74H80.2184H79.5884V13.37H78.9584V14V14.63V15.89V16.52V17.15H79.5884V17.78H80.2184H80.8484H81.4784H82.1084H82.7384V17.15H83.3684V16.52H84.6284V17.78H83.9984V18.41H83.3684V19.04H81.4784H80.8484H78.9584V18.41H78.3284V17.78H77.6984V16.52V15.89V15.26V14.63V12.74H78.3284V12.11H78.9584V11.48H80.2184H80.8484H81.4784H83.3684V12.11H83.9984V12.74H84.6284V14H83.3684V13.37H82.7384V12.74H82.1084H81.4784H80.8484ZM85.8917 12.74V12.11V11.48H86.5217H87.1517H89.0417H92.8217V12.74H92.1917H91.5617H90.3017H89.6717H89.0417H87.7817H87.1517V14.63H91.5617V15.89H87.1517V17.78H87.7817H89.0417H89.6717H90.3017H91.5617H92.1917H92.8217V19.04H89.0417H87.1517H86.5217H85.8917V18.41V17.78V17.15V15.89V15.26V14.63V14V13.37V12.74Z" fill="white"/>
</svg>
