<svg width="170" height="51" viewBox="0 0 170 51" fill="none" xmlns="http://www.w3.org/2000/svg">
<path fill-rule="evenodd" clip-rule="evenodd" d="M166 0H4V2H2V4H0V47H2V49H4V51H166V49H168V47H170V4H168V2H166V0ZM166 2V4H168V47H166V49H4V47H2V4H4V2H166Z" fill="black"/>
<path fill-rule="evenodd" clip-rule="evenodd" d="M166 2H4V4H2V46H168V4H166V2Z" fill="#03CCC0"/>
<rect x="2" y="4" width="2" height="2" fill="#96FFF9"/>
<rect x="168" y="4" width="2" height="2" transform="rotate(90 168 4)" fill="#96FFF9"/>
<rect x="168" y="41" width="2" height="2" transform="rotate(-180 168 41)" fill="#96FFF9"/>
<rect x="2" y="41" width="2" height="2" transform="rotate(-90 2 41)" fill="#96FFF9"/>
<rect x="2" y="47" width="6" height="2" transform="rotate(-90 2 47)" fill="#007B8C"/>
<rect x="4" y="4" width="2" height="2" fill="#00514C"/>
<rect x="168" y="6" width="2" height="2" transform="rotate(90 168 6)" fill="#00514C"/>
<rect x="166" y="41" width="2" height="2" transform="rotate(-180 166 41)" fill="#00514C"/>
<rect x="2" y="39" width="2" height="2" transform="rotate(-90 2 39)" fill="#00514C"/>
<rect x="2" y="6" width="2" height="2" fill="#00514C"/>
<rect x="166" y="4" width="2" height="2" transform="rotate(90 166 4)" fill="#00514C"/>
<rect x="168" y="39" width="2" height="2" transform="rotate(-180 168 39)" fill="#00514C"/>
<rect x="4" y="41" width="2" height="2" transform="rotate(-90 4 41)" fill="#00514C"/>
<rect x="168" y="47" width="2" height="6" transform="rotate(-180 168 47)" fill="#007B8C"/>
<rect x="166" y="49" width="162" height="5.99999" transform="rotate(-180 166 49)" fill="#007B8C"/>
<rect x="4" y="2" width="162" height="2" fill="#96FFF9"/>
<rect x="4" y="41" width="162" height="2" fill="#96FFF9"/>
<rect x="12" y="49" width="6" height="4" transform="rotate(-90 12 49)" fill="#DDFFF3"/>
<rect width="6" height="4" transform="matrix(-1.31134e-07 -1 -1 1.31134e-07 154 49)" fill="#DDFFF3"/>
<rect x="17" y="49" width="6" height="3" transform="rotate(-90 17 49)" fill="#DDFFF3"/>
<rect width="6" height="3" transform="matrix(-1.31134e-07 -1 -1 1.31134e-07 149 49)" fill="#DDFFF3"/>
<rect x="21" y="49" width="6" height="2" transform="rotate(-90 21 49)" fill="#DDFFF3"/>
<rect width="6" height="2" transform="matrix(-1.31134e-07 -1 -1 1.31134e-07 145 49)" fill="#DDFFF3"/>
<rect x="24" y="49" width="6" height="0.999999" transform="rotate(-90 24 49)" fill="#DDFFF3"/>
<rect width="6" height="0.999999" transform="matrix(-1.31134e-07 -1 -1 1.31134e-07 142 49)" fill="#DDFFF3"/>
<path d="M61.26 16.4V15.14V13.88H62.52H63.78H67.56H72.6V15.14H73.86V16.4H75.12V18.92V20.18H73.86V21.44V22.7H75.12V26.48H73.86V27.74H72.6V29H67.56H63.78H62.52H61.26V27.74V26.48V25.22V22.7V21.44V20.18V18.92V17.66V16.4ZM65.04 26.48H67.56H68.82H70.08H71.34V25.22H72.6V23.96H71.34V22.7H63.78V26.48H65.04ZM67.56 16.4H65.04H63.78V20.18H71.34V18.92H72.6V17.66H71.34V16.4H70.08H68.82H67.56ZM80.1667 13.88V18.92V20.18V22.7V23.96V25.22H81.4267V26.48H82.6867H83.9467H85.2067H86.4667H87.7267V25.22H88.9867V23.96V13.88H91.5067V23.96V26.48H90.2467V27.74H88.9867V29H85.2067H83.9467H80.1667V27.74H78.9067V26.48H77.6467V23.96V22.7V21.44V20.18V13.88H80.1667ZM106.633 15.14V16.4V17.66V18.92H105.373V20.18H104.113V21.44H102.853V22.7H101.593V23.96V29H99.0734V23.96V22.7H97.8134V21.44H96.5534V20.18H95.2934V18.92H94.0334V17.66V16.4V15.14V13.88H95.2934H96.5534V15.14V16.4V17.66H97.8134V18.92H99.0734V20.18H100.333H101.593V18.92H102.853V17.66H104.113V16.4V15.14V13.88H105.373H106.633V15.14Z" fill="#393939"/>
<path d="M61.26 14.4V13.14V11.88H62.52H63.78H67.56H72.6V13.14H73.86V14.4H75.12V16.92V18.18H73.86V19.44V20.7H75.12V24.48H73.86V25.74H72.6V27H67.56H63.78H62.52H61.26V25.74V24.48V23.22V20.7V19.44V18.18V16.92V15.66V14.4ZM65.04 24.48H67.56H68.82H70.08H71.34V23.22H72.6V21.96H71.34V20.7H63.78V24.48H65.04ZM67.56 14.4H65.04H63.78V18.18H71.34V16.92H72.6V15.66H71.34V14.4H70.08H68.82H67.56ZM80.1667 11.88V16.92V18.18V20.7V21.96V23.22H81.4267V24.48H82.6867H83.9467H85.2067H86.4667H87.7267V23.22H88.9867V21.96V11.88H91.5067V21.96V24.48H90.2467V25.74H88.9867V27H85.2067H83.9467H80.1667V25.74H78.9067V24.48H77.6467V21.96V20.7V19.44V18.18V11.88H80.1667ZM106.633 13.14V14.4V15.66V16.92H105.373V18.18H104.113V19.44H102.853V20.7H101.593V21.96V27H99.0734V21.96V20.7H97.8134V19.44H96.5534V18.18H95.2934V16.92H94.0334V15.66V14.4V13.14V11.88H95.2934H96.5534V13.14V14.4V15.66H97.8134V16.92H99.0734V18.18H100.333H101.593V16.92H102.853V15.66H104.113V14.4V13.14V11.88H105.373H106.633V13.14Z" fill="white"/>
</svg>
