<svg width="161" height="35" viewBox="0 0 161 35" fill="none" xmlns="http://www.w3.org/2000/svg">
<rect x="161" y="27" width="2" height="2" transform="rotate(-180 161 27)" fill="#FFBD82"/>
<rect x="2" y="25" width="2" height="2" transform="rotate(90 2 25)" fill="#FFBD82"/>
<rect x="4" y="27" width="2" height="2" transform="rotate(90 4 27)" fill="#FFBD82"/>
<rect x="6" y="29" width="2" height="2" transform="rotate(90 6 29)" fill="#FFBD82"/>
<rect x="8" y="31" width="2" height="2" transform="rotate(90 8 31)" fill="#FFBD82"/>
<rect x="153" y="33" width="2.00001" height="145" transform="rotate(90 153 33)" fill="#FFBD82"/>
<rect x="159" y="29" width="2" height="2" transform="rotate(-180 159 29)" fill="#FFBD82"/>
<rect x="157" y="31" width="2" height="2" transform="rotate(-180 157 31)" fill="#FFBD82"/>
<rect x="155" y="33" width="2" height="2" transform="rotate(-180 155 33)" fill="#FFBD82"/>
<path fill-rule="evenodd" clip-rule="evenodd" d="M153 2L8 1.99999V0L153 1.26362e-05V2ZM155 4L6 3.99999V2H153L155 2.00001V4ZM157 6L4 5.99999V4H155L157 4.00001V6ZM157 27H2L2 25L124.353 25L0 25V7.99999L156.965 8L2 7.99999L2 6H157L159 6.00001V8H161V25L159 25V27L157 27ZM155 29H4L4 27L157 27V29L155 29ZM153 31L155 31V29L6 29L6 31H153ZM153 31V33L8 33V31L153 31Z" fill="#FF9332"/>
<rect x="153" width="2.00001" height="145" transform="rotate(90 153 0)" fill="#FFBD82"/>
<rect x="2" y="8" width="2" height="2" transform="rotate(90 2 8)" fill="#FFBD82"/>
<rect x="4" y="6" width="2" height="2" transform="rotate(90 4 6)" fill="#FFBD82"/>
<rect x="6" y="4" width="2" height="2" transform="rotate(90 6 4)" fill="#FFBD82"/>
<rect x="8" y="2" width="2" height="2" transform="rotate(90 8 2)" fill="#FFBD82"/>
<rect x="155" y="2" width="2" height="2" transform="rotate(90 155 2)" fill="#FFBD82"/>
<rect x="157" y="4" width="2" height="2" transform="rotate(90 157 4)" fill="#FFBD82"/>
<rect x="159" y="6" width="2" height="2" transform="rotate(90 159 6)" fill="#FFBD82"/>
<rect x="161" y="8" width="2" height="2" transform="rotate(90 161 8)" fill="#FFBD82"/>
<path d="M13.8596 13.3095H13.0877H12.3158V14.0814H11.5438V14.8533V15.6252V17.1691V17.941V18.7129H12.3158V19.4849H13.0877H13.8596H14.6315H15.4035H16.1754V18.7129H16.9473V17.941H18.4912V19.4849H17.7192V20.2568H16.9473V21.0287H14.6315H13.8596H11.5438V20.2568H10.7719V19.4849H10V17.941V17.1691V16.3972V15.6252V13.3095H10.7719V12.5376H11.5438V11.7656H13.0877H13.8596H14.6315H16.9473V12.5376H17.7192V13.3095H18.4912V14.8533H16.9473V14.0814H16.1754V13.3095H15.4035H14.6315H13.8596Z" fill="#333333"/>
<path d="M26.9865 17.1691H21.583V21.0287H20.8111H20.0391V20.2568V19.4849V18.7129V17.1691V16.3972V15.6252V14.8533V14.0814V13.3095V12.5376V11.7656H20.8111H21.583V15.6252H26.9865V11.7656H28.5303V13.3095V19.4849V21.0287H26.9865V17.1691Z" fill="#333333"/>
<path d="M30.0783 20.2568V19.4849V17.941V16.3972V15.6252V14.8533H30.8502V14.0814H31.6221V13.3095H32.3941V12.5376H33.166V11.7656H35.4818V12.5376H36.2537V13.3095H37.0256V14.0814H37.7975V14.8533H38.5695V15.6252V16.3972V17.941V19.4849V20.2568V21.0287H37.7975H37.0256V20.2568V19.4849V17.941H31.6221V19.4849V20.2568V21.0287H30.8502H30.0783V20.2568ZM37.0256 16.3972V15.6252H36.2537V14.8533H35.4818V14.0814H34.7098V13.3095H33.9379V14.0814H33.166V14.8533H32.3941V15.6252H31.6221V16.3972H37.0256Z" fill="#333333"/>
<path d="M47.0647 14.8533V12.5376V11.7656H48.6086V12.5376V13.3095V19.4849V21.0287H47.0647V19.4849H46.2928V18.7129H45.5209V17.941H44.749V17.1691H43.977V16.3972H43.2051V15.6252H42.4332V14.8533H41.6613V17.1691V21.0287H40.8893H40.1174V20.2568V19.4849V18.7129V17.1691V16.3972V15.6252V14.8533V14.0814V13.3095V12.5376V11.7656H40.8893H41.6613V12.5376H42.4332V13.3095H43.2051V14.0814H43.977V14.8533H44.749V15.6252H45.5209V16.3972H46.2928V17.1691H47.0647V14.8533Z" fill="#333333"/>
<path d="M54.0162 13.3095H53.2443H52.4723V14.0814H51.7004V14.8533V15.6252V17.1691V17.941V18.7129H52.4723V19.4849H53.2443H54.0162H54.7881H55.56H56.332V18.7129H57.1039V17.941V17.1691H54.0162H53.2443V15.6252H54.0162H57.1039H58.6477V17.941V18.7129V19.4849H57.8758V20.2568H57.1039V21.0287H54.7881H54.0162H51.7004V20.2568H50.9285V19.4849H50.1566V17.941V17.1691V16.3972V15.6252V13.3095H50.9285V12.5376H51.7004V11.7656H53.2443H54.0162H54.7881H57.8758V12.5376H58.6477V14.0814H57.1039V13.3095H55.56H54.7881H54.0162Z" fill="#333333"/>
<path d="M60.1957 13.3095V12.5376V11.7656H60.9676H61.7395H64.0553H68.6869V13.3095H67.9149H67.143H65.5992H64.8272H64.0553H62.5115H61.7395V15.6252H67.143V17.1691H61.7395V19.4849H62.5115H64.0553H64.8272H65.5992H67.143H67.9149H68.6869V21.0287H64.0553H61.7395H60.9676H60.1957V20.2568V19.4849V18.7129V17.1691V16.3972V15.6252V14.8533V14.0814V13.3095Z" fill="#333333"/>
<path d="M87.2213 14.8533V12.5376V11.7656H88.7652V12.5376V13.3095V19.4849V21.0287H87.2213V19.4849H86.4494V18.7129H85.6775V17.941H84.9055V17.1691H84.1336V16.3972H83.3617V15.6252H82.5898V14.8533H81.8178V17.1691V21.0287H81.0459H80.274V20.2568V19.4849V18.7129V17.1691V16.3972V15.6252V14.8533V14.0814V13.3095V12.5376V11.7656H81.0459H81.8178V12.5376H82.5898V13.3095H83.3617V14.0814H84.1336V14.8533H84.9055V15.6252H85.6775V16.3972H86.4494V17.1691H87.2213V14.8533Z" fill="#333333"/>
<path d="M90.3131 13.3095V12.5376V11.7656H91.085H91.857H94.1727H98.8043V13.3095H98.0324H97.2604H95.7166H94.9447H94.1727H92.6289H91.857V15.6252H97.2604V17.1691H91.857V19.4849H92.6289H94.1727H94.9447H95.7166H97.2604H98.0324H98.8043V21.0287H94.1727H91.857H91.085H90.3131V20.2568V19.4849V18.7129V17.1691V16.3972V15.6252V14.8533V14.0814V13.3095Z" fill="#333333"/>
<path d="M100.352 13.3095V12.5376V11.7656H101.124H101.896H104.212H108.072V13.3095H107.3H106.528H104.984V17.1691V21.0287H103.44V17.1691V13.3095H102.668H100.352Z" fill="#333333"/>
<path d="M117.339 15.6252V11.7656H118.111H118.883V12.5376V13.3095V14.0814V15.6252V16.3972V17.1691V17.941V18.7129V19.4849V20.2568V21.0287H118.111H117.339V20.2568H116.567V19.4849H115.795V18.7129H115.023V17.941H114.251V18.7129H113.479V19.4849H112.707V20.2568H111.935V21.0287H110.391V20.2568V19.4849V13.3095V11.7656H111.935V15.6252V17.941H112.707V17.1691H113.479V16.3972H114.251V15.6252H115.023V16.3972H115.795V17.1691H116.567V17.941H117.339V15.6252Z" fill="#333333"/>
<path d="M124.29 13.3095H123.518H122.746V14.0814H121.974V14.8533V15.6252V17.1691V17.941V18.7129H122.746V19.4849H123.518H124.29H125.062H125.834H126.606V18.7129H127.378V17.941V17.1691V14.8533V14.0814H126.606V13.3095H125.834H125.062H124.29ZM128.922 17.1691V19.4849H128.15V20.2568H127.378V21.0287H125.062H124.29H121.974V20.2568H121.202V19.4849H120.431V17.941V17.1691V16.3972V15.6252V13.3095H121.202V12.5376H121.974V11.7656H123.518H124.29H125.062H127.378V12.5376H128.15V13.3095H128.922V14.8533V17.1691Z" fill="#333333"/>
<path d="M130.47 13.3095V12.5376V11.7656H131.242H132.014H134.329H137.417V12.5376H138.189V13.3095H138.961V14.8533V15.6252V16.3972H138.189V17.1691H137.417V17.941V18.7129H138.189V19.4849H138.961V20.2568V21.0287H137.417V20.2568H136.645V19.4849H135.873V18.7129H135.101V17.941H134.329H132.014V21.0287H130.47V17.941V17.1691V16.3972V15.6252V14.8533V14.0814V13.3095ZM134.329 13.3095H132.785H132.014V15.6252V16.3972H132.785H133.557H134.329H135.101H135.873H136.645V15.6252H137.417V14.8533V14.0814H136.645V13.3095H135.873H135.101H134.329Z" fill="#333333"/>
<path d="M149 13.3095H148.228V14.0814H147.456V14.8533H146.684V15.6252H145.912V16.3972V17.1691H146.684V17.941H147.456V18.7129H148.228V19.4849H149V21.0287H147.456V20.2568H146.684V19.4849H145.912V18.7129H145.14V17.941H144.368H143.597V18.7129H142.825V19.4849H142.053V21.0287H141.281H140.509V20.2568V19.4849V18.7129V17.1691V16.3972V15.6252V14.8533V14.0814V13.3095V12.5376V11.7656H141.281H142.053V17.1691H142.825V16.3972H143.597V15.6252H144.368V14.8533H145.14V14.0814H145.912V13.3095H146.684V12.5376H147.456V11.7656H148.228H149V12.5376V13.3095Z" fill="#333333"/>
<path d="M13.8596 12.5438H13.0877H12.3158V13.3158H11.5438V14.0877V14.8596V16.4035V17.1754V17.9473H12.3158V18.7192H13.0877H13.8596H14.6315H15.4035H16.1754V17.9473H16.9473V17.1754H18.4912V18.7192H17.7192V19.4912H16.9473V20.2631H14.6315H13.8596H11.5438V19.4912H10.7719V18.7192H10V17.1754V16.4035V15.6315V14.8596V12.5438H10.7719V11.7719H11.5438V11H13.0877H13.8596H14.6315H16.9473V11.7719H17.7192V12.5438H18.4912V14.0877H16.9473V13.3158H16.1754V12.5438H15.4035H14.6315H13.8596Z" fill="white"/>
<path d="M26.9865 16.4035H21.583V20.2631H20.8111H20.0391V19.4912V18.7192V17.9473V16.4035V15.6315V14.8596V14.0877V13.3158V12.5438V11.7719V11H20.8111H21.583V14.8596H26.9865V11H28.5303V12.5438V18.7192V20.2631H26.9865V16.4035Z" fill="white"/>
<path d="M30.0783 19.4912V18.7192V17.1754V15.6315V14.8596V14.0877H30.8502V13.3158H31.6221V12.5438H32.3941V11.7719H33.166V11H35.4818V11.7719H36.2537V12.5438H37.0256V13.3158H37.7975V14.0877H38.5695V14.8596V15.6315V17.1754V18.7192V19.4912V20.2631H37.7975H37.0256V19.4912V18.7192V17.1754H31.6221V18.7192V19.4912V20.2631H30.8502H30.0783V19.4912ZM37.0256 15.6315V14.8596H36.2537V14.0877H35.4818V13.3158H34.7098V12.5438H33.9379V13.3158H33.166V14.0877H32.3941V14.8596H31.6221V15.6315H37.0256Z" fill="white"/>
<path d="M47.0647 14.0877V11.7719V11H48.6086V11.7719V12.5438V18.7192V20.2631H47.0647V18.7192H46.2928V17.9473H45.5209V17.1754H44.749V16.4035H43.977V15.6315H43.2051V14.8596H42.4332V14.0877H41.6613V16.4035V20.2631H40.8893H40.1174V19.4912V18.7192V17.9473V16.4035V15.6315V14.8596V14.0877V13.3158V12.5438V11.7719V11H40.8893H41.6613V11.7719H42.4332V12.5438H43.2051V13.3158H43.977V14.0877H44.749V14.8596H45.5209V15.6315H46.2928V16.4035H47.0647V14.0877Z" fill="white"/>
<path d="M54.0162 12.5438H53.2443H52.4723V13.3158H51.7004V14.0877V14.8596V16.4035V17.1754V17.9473H52.4723V18.7192H53.2443H54.0162H54.7881H55.56H56.332V17.9473H57.1039V17.1754V16.4035H54.0162H53.2443V14.8596H54.0162H57.1039H58.6477V17.1754V17.9473V18.7192H57.8758V19.4912H57.1039V20.2631H54.7881H54.0162H51.7004V19.4912H50.9285V18.7192H50.1566V17.1754V16.4035V15.6315V14.8596V12.5438H50.9285V11.7719H51.7004V11H53.2443H54.0162H54.7881H57.8758V11.7719H58.6477V13.3158H57.1039V12.5438H55.56H54.7881H54.0162Z" fill="white"/>
<path d="M60.1957 12.5438V11.7719V11H60.9676H61.7395H64.0553H68.6869V12.5438H67.9149H67.143H65.5992H64.8272H64.0553H62.5115H61.7395V14.8596H67.143V16.4035H61.7395V18.7192H62.5115H64.0553H64.8272H65.5992H67.143H67.9149H68.6869V20.2631H64.0553H61.7395H60.9676H60.1957V19.4912V18.7192V17.9473V16.4035V15.6315V14.8596V14.0877V13.3158V12.5438Z" fill="white"/>
<path d="M87.2213 14.0877V11.7719V11H88.7652V11.7719V12.5438V18.7192V20.2631H87.2213V18.7192H86.4494V17.9473H85.6775V17.1754H84.9055V16.4035H84.1336V15.6315H83.3617V14.8596H82.5898V14.0877H81.8178V16.4035V20.2631H81.0459H80.274V19.4912V18.7192V17.9473V16.4035V15.6315V14.8596V14.0877V13.3158V12.5438V11.7719V11H81.0459H81.8178V11.7719H82.5898V12.5438H83.3617V13.3158H84.1336V14.0877H84.9055V14.8596H85.6775V15.6315H86.4494V16.4035H87.2213V14.0877Z" fill="white"/>
<path d="M90.3131 12.5438V11.7719V11H91.085H91.857H94.1727H98.8043V12.5438H98.0324H97.2604H95.7166H94.9447H94.1727H92.6289H91.857V14.8596H97.2604V16.4035H91.857V18.7192H92.6289H94.1727H94.9447H95.7166H97.2604H98.0324H98.8043V20.2631H94.1727H91.857H91.085H90.3131V19.4912V18.7192V17.9473V16.4035V15.6315V14.8596V14.0877V13.3158V12.5438Z" fill="white"/>
<path d="M100.352 12.5438V11.7719V11H101.124H101.896H104.212H108.072V12.5438H107.3H106.528H104.984V16.4035V20.2631H103.44V16.4035V12.5438H102.668H100.352Z" fill="white"/>
<path d="M117.339 14.8596V11H118.111H118.883V11.7719V12.5438V13.3158V14.8596V15.6315V16.4035V17.1754V17.9473V18.7192V19.4912V20.2631H118.111H117.339V19.4912H116.567V18.7192H115.795V17.9473H115.023V17.1754H114.251V17.9473H113.479V18.7192H112.707V19.4912H111.935V20.2631H110.391V19.4912V18.7192V12.5438V11H111.935V14.8596V17.1754H112.707V16.4035H113.479V15.6315H114.251V14.8596H115.023V15.6315H115.795V16.4035H116.567V17.1754H117.339V14.8596Z" fill="white"/>
<path d="M124.29 12.5438H123.518H122.746V13.3158H121.974V14.0877V14.8596V16.4035V17.1754V17.9473H122.746V18.7192H123.518H124.29H125.062H125.834H126.606V17.9473H127.378V17.1754V16.4035V14.0877V13.3158H126.606V12.5438H125.834H125.062H124.29ZM128.922 16.4035V18.7192H128.15V19.4912H127.378V20.2631H125.062H124.29H121.974V19.4912H121.202V18.7192H120.431V17.1754V16.4035V15.6315V14.8596V12.5438H121.202V11.7719H121.974V11H123.518H124.29H125.062H127.378V11.7719H128.15V12.5438H128.922V14.0877V16.4035Z" fill="white"/>
<path d="M130.47 12.5438V11.7719V11H131.242H132.014H134.329H137.417V11.7719H138.189V12.5438H138.961V14.0877V14.8596V15.6315H138.189V16.4035H137.417V17.1754V17.9473H138.189V18.7192H138.961V19.4912V20.2631H137.417V19.4912H136.645V18.7192H135.873V17.9473H135.101V17.1754H134.329H132.014V20.2631H130.47V17.1754V16.4035V15.6315V14.8596V14.0877V13.3158V12.5438ZM134.329 12.5438H132.785H132.014V14.8596V15.6315H132.785H133.557H134.329H135.101H135.873H136.645V14.8596H137.417V14.0877V13.3158H136.645V12.5438H135.873H135.101H134.329Z" fill="white"/>
<path d="M149 12.5438H148.228V13.3158H147.456V14.0877H146.684V14.8596H145.912V15.6315V16.4035H146.684V17.1754H147.456V17.9473H148.228V18.7192H149V20.2631H147.456V19.4912H146.684V18.7192H145.912V17.9473H145.14V17.1754H144.368H143.597V17.9473H142.825V18.7192H142.053V20.2631H141.281H140.509V19.4912V18.7192V17.9473V16.4035V15.6315V14.8596V14.0877V13.3158V12.5438V11.7719V11H141.281H142.053V16.4035H142.825V15.6315H143.597V14.8596H144.368V14.0877H145.14V13.3158H145.912V12.5438H146.684V11.7719H147.456V11H148.228H149V11.7719V12.5438Z" fill="white"/>
</svg>
