<svg width="170" height="51" viewBox="0 0 170 51" fill="none" xmlns="http://www.w3.org/2000/svg">
<path fill-rule="evenodd" clip-rule="evenodd" d="M166 0H4V2H2V4H0V47H2V49H4V51H166V49H168V47H170V4H168V2H166V0ZM166 2V4H168V47H166V49H4V47H2V4H4V2H166Z" fill="black"/>
<path fill-rule="evenodd" clip-rule="evenodd" d="M166 2H4V4H2V46H168V4H166V2Z" fill="#9C38FF"/>
<rect x="2" y="4" width="2" height="2" fill="#E3B9FF"/>
<rect x="168" y="4" width="2" height="2" transform="rotate(90 168 4)" fill="#E3B9FF"/>
<rect x="168" y="41" width="2" height="2" transform="rotate(-180 168 41)" fill="#E3B9FF"/>
<rect x="2" y="41" width="2" height="2" transform="rotate(-90 2 41)" fill="#E3B9FF"/>
<rect x="2" y="47" width="6" height="2" transform="rotate(-90 2 47)" fill="#5F00BE"/>
<rect x="4" y="4" width="2" height="2" fill="#5300A7"/>
<rect x="168" y="6" width="2" height="2" transform="rotate(90 168 6)" fill="#5300A7"/>
<rect x="166" y="41" width="2" height="2" transform="rotate(-180 166 41)" fill="#5300A7"/>
<rect x="2" y="39" width="2" height="2" transform="rotate(-90 2 39)" fill="#5300A7"/>
<rect x="2" y="6" width="2" height="2" fill="#5300A7"/>
<rect x="166" y="4" width="2" height="2" transform="rotate(90 166 4)" fill="#5300A7"/>
<rect x="168" y="39" width="2" height="2" transform="rotate(-180 168 39)" fill="#5300A7"/>
<rect x="4" y="41" width="2" height="2" transform="rotate(-90 4 41)" fill="#5300A7"/>
<rect x="168" y="47" width="2" height="6" transform="rotate(-180 168 47)" fill="#5F00BE"/>
<rect x="166" y="49" width="162" height="5.99999" transform="rotate(-180 166 49)" fill="#5F00BE"/>
<rect x="4" y="2" width="162" height="2" fill="#E3B9FF"/>
<rect x="4" y="41" width="162" height="2" fill="#E3B9FF"/>
<rect x="12" y="49" width="6" height="4" transform="rotate(-90 12 49)" fill="#A746BD"/>
<rect width="6" height="4" transform="matrix(-1.31134e-07 -1 -1 1.31134e-07 154 49)" fill="#A746BD"/>
<rect x="17" y="49" width="6" height="3" transform="rotate(-90 17 49)" fill="#A746BD"/>
<rect width="6" height="3" transform="matrix(-1.31134e-07 -1 -1 1.31134e-07 149 49)" fill="#A746BD"/>
<rect x="21" y="49" width="6" height="2" transform="rotate(-90 21 49)" fill="#A746BD"/>
<rect width="6" height="2" transform="matrix(-1.31134e-07 -1 -1 1.31134e-07 145 49)" fill="#A746BD"/>
<rect x="24" y="49" width="6" height="0.999999" transform="rotate(-90 24 49)" fill="#A746BD"/>
<rect width="6" height="0.999999" transform="matrix(-1.31134e-07 -1 -1 1.31134e-07 142 49)" fill="#A746BD"/>
<path d="M43.048 19.92H41.032H40.024V24.96V27.984H41.032H43.048H44.056H45.064H46.072V26.976H47.08V25.968V24.96V21.936V20.928H46.072V19.92H45.064H44.056H43.048ZM38.008 19.92V18.912V17.904H39.016H40.024H43.048H47.08V18.912H48.088V19.92H49.096V21.936V22.944V23.952V24.96V27.984H48.088V28.992H47.08V30H43.048H40.024H39.016H38.008V28.992V27.984V26.976V24.96V23.952V22.944V21.936V20.928V19.92ZM59.1814 27.984V30H58.1734H57.1654H55.1494H54.1414H53.1334V27.984H54.1414H55.1494V21.936V19.92H54.1414H53.1334V17.904H54.1414H55.1494H56.1574H57.1654H58.1734H59.1814V19.92H58.1734H57.1654V27.984H58.1734H59.1814ZM66.2428 25.968V26.976H67.2508V27.984H68.2588H69.2668H70.2748H71.2828H72.2908V26.976H73.2988V25.968H72.2908V24.96H71.2828H70.2748H69.2668H66.2428V23.952H65.2348V22.944H64.2268V21.936V20.928V19.92H65.2348V18.912H66.2428V17.904H68.2588H69.2668H70.2748H73.2988V18.912H74.3068V19.92H75.3148V21.936H73.2988V20.928H72.2908V19.92H71.2828H70.2748H69.2668H68.2588H67.2508V20.928H66.2428V21.936H67.2508V22.944H68.2588H69.2668H70.2748H73.2988V23.952H74.3068V24.96H75.3148V25.968V26.976V27.984H74.3068V28.992H73.2988V30H70.2748H69.2668H66.2428V28.992H65.2348V27.984H64.2268V25.968H66.2428ZM82.3761 19.92H81.3681H80.3601V20.928H79.3521V21.936V22.944V24.96V25.968V26.976H80.3601V27.984H81.3681H82.3761H83.3841H84.3921H85.4001V26.976H86.4081V25.968H88.4241V27.984H87.4161V28.992H86.4081V30H83.3841H82.3761H79.3521V28.992H78.3441V27.984H77.3361V25.968V24.96V23.952V22.944V19.92H78.3441V18.912H79.3521V17.904H81.3681H82.3761H83.3841H86.4081V18.912H87.4161V19.92H88.4241V21.936H86.4081V20.928H85.4001V19.92H84.3921H83.3841H82.3761ZM95.4855 19.92H94.4775H93.4695V20.928H92.4615V21.936V22.944V24.96V25.968V26.976H93.4695V27.984H94.4775H95.4855H96.4935H97.5015H98.5095V26.976H99.5175V25.968V24.96V21.936V20.928H98.5095V19.92H97.5015H96.4935H95.4855ZM101.534 24.96V27.984H100.526V28.992H99.5175V30H96.4935H95.4855H92.4615V28.992H91.4535V27.984H90.4455V25.968V24.96V23.952V22.944V19.92H91.4535V18.912H92.4615V17.904H94.4775H95.4855H96.4935H99.5175V18.912H100.526V19.92H101.534V21.936V24.96ZM103.555 19.92V18.912V17.904H104.563H105.571H108.595H112.627V18.912H113.635V19.92H114.643V21.936V22.944V23.952H113.635V24.96H112.627V25.968V26.976H113.635V27.984H114.643V28.992V30H112.627V28.992H111.619V27.984H110.611V26.976H109.603V25.968H108.595H105.571V30H103.555V25.968V24.96V23.952V22.944V21.936V20.928V19.92ZM108.595 19.92H106.579H105.571V22.944V23.952H106.579H107.587H108.595H109.603H110.611H111.619V22.944H112.627V21.936V20.928H111.619V19.92H110.611H109.603H108.595ZM121.704 19.92H119.688H118.68V24.96V27.984H119.688H121.704H122.712H123.72H124.728V26.976H125.736V25.968V24.96V21.936V20.928H124.728V19.92H123.72H122.712H121.704ZM116.664 19.92V18.912V17.904H117.672H118.68H121.704H125.736V18.912H126.744V19.92H127.752V21.936V22.944V23.952V24.96V27.984H126.744V28.992H125.736V30H121.704H118.68H117.672H116.664V28.992V27.984V26.976V24.96V23.952V22.944V21.936V20.928V19.92Z" fill="#393939"/>
<path d="M43.048 17.92H41.032H40.024V22.96V25.984H41.032H43.048H44.056H45.064H46.072V24.976H47.08V23.968V22.96V19.936V18.928H46.072V17.92H45.064H44.056H43.048ZM38.008 17.92V16.912V15.904H39.016H40.024H43.048H47.08V16.912H48.088V17.92H49.096V19.936V20.944V21.952V22.96V25.984H48.088V26.992H47.08V28H43.048H40.024H39.016H38.008V26.992V25.984V24.976V22.96V21.952V20.944V19.936V18.928V17.92ZM59.1814 25.984V28H58.1734H57.1654H55.1494H54.1414H53.1334V25.984H54.1414H55.1494V19.936V17.92H54.1414H53.1334V15.904H54.1414H55.1494H56.1574H57.1654H58.1734H59.1814V17.92H58.1734H57.1654V25.984H58.1734H59.1814ZM66.2428 23.968V24.976H67.2508V25.984H68.2588H69.2668H70.2748H71.2828H72.2908V24.976H73.2988V23.968H72.2908V22.96H71.2828H70.2748H69.2668H66.2428V21.952H65.2348V20.944H64.2268V19.936V18.928V17.92H65.2348V16.912H66.2428V15.904H68.2588H69.2668H70.2748H73.2988V16.912H74.3068V17.92H75.3148V19.936H73.2988V18.928H72.2908V17.92H71.2828H70.2748H69.2668H68.2588H67.2508V18.928H66.2428V19.936H67.2508V20.944H68.2588H69.2668H70.2748H73.2988V21.952H74.3068V22.96H75.3148V23.968V24.976V25.984H74.3068V26.992H73.2988V28H70.2748H69.2668H66.2428V26.992H65.2348V25.984H64.2268V23.968H66.2428ZM82.3761 17.92H81.3681H80.3601V18.928H79.3521V19.936V20.944V22.96V23.968V24.976H80.3601V25.984H81.3681H82.3761H83.3841H84.3921H85.4001V24.976H86.4081V23.968H88.4241V25.984H87.4161V26.992H86.4081V28H83.3841H82.3761H79.3521V26.992H78.3441V25.984H77.3361V23.968V22.96V21.952V20.944V17.92H78.3441V16.912H79.3521V15.904H81.3681H82.3761H83.3841H86.4081V16.912H87.4161V17.92H88.4241V19.936H86.4081V18.928H85.4001V17.92H84.3921H83.3841H82.3761ZM95.4855 17.92H94.4775H93.4695V18.928H92.4615V19.936V20.944V22.96V23.968V24.976H93.4695V25.984H94.4775H95.4855H96.4935H97.5015H98.5095V24.976H99.5175V23.968V22.96V19.936V18.928H98.5095V17.92H97.5015H96.4935H95.4855ZM101.534 22.96V25.984H100.526V26.992H99.5175V28H96.4935H95.4855H92.4615V26.992H91.4535V25.984H90.4455V23.968V22.96V21.952V20.944V17.92H91.4535V16.912H92.4615V15.904H94.4775H95.4855H96.4935H99.5175V16.912H100.526V17.92H101.534V19.936V22.96ZM103.555 17.92V16.912V15.904H104.563H105.571H108.595H112.627V16.912H113.635V17.92H114.643V19.936V20.944V21.952H113.635V22.96H112.627V23.968V24.976H113.635V25.984H114.643V26.992V28H112.627V26.992H111.619V25.984H110.611V24.976H109.603V23.968H108.595H105.571V28H103.555V23.968V22.96V21.952V20.944V19.936V18.928V17.92ZM108.595 17.92H106.579H105.571V20.944V21.952H106.579H107.587H108.595H109.603H110.611H111.619V20.944H112.627V19.936V18.928H111.619V17.92H110.611H109.603H108.595ZM121.704 17.92H119.688H118.68V22.96V25.984H119.688H121.704H122.712H123.72H124.728V24.976H125.736V23.968V22.96V19.936V18.928H124.728V17.92H123.72H122.712H121.704ZM116.664 17.92V16.912V15.904H117.672H118.68H121.704H125.736V16.912H126.744V17.92H127.752V19.936V20.944V21.952V22.96V25.984H126.744V26.992H125.736V28H121.704H118.68H117.672H116.664V26.992V25.984V24.976V22.96V21.952V20.944V19.936V18.928V17.92Z" fill="white"/>
<path d="M27.1481 17.3513C29.4068 20.8381 30.5223 24.7712 30.1053 29.299C30.1035 29.3182 30.094 29.3358 30.079 29.3473C28.3686 30.666 26.7113 31.4663 25.0773 31.9971C25.0646 32.0011 25.051 32.0009 25.0384 31.9964C25.0258 31.992 25.0148 31.9835 25.0071 31.9721C24.6296 31.4207 24.2866 30.8393 23.9861 30.2287C23.9688 30.1928 23.9846 30.1495 24.0201 30.1353C24.5648 29.9198 25.0828 29.6615 25.5811 29.3557C25.6203 29.3316 25.6228 29.2725 25.5866 29.2442C25.4808 29.1617 25.3761 29.0751 25.2758 28.9885C25.2571 28.9725 25.2318 28.9693 25.2106 28.9801C21.9758 30.5484 18.4323 30.5484 15.1593 28.9801C15.1381 28.9701 15.1128 28.9735 15.0946 28.9893C14.9946 29.0759 14.8896 29.1617 14.7848 29.2442C14.7486 29.2725 14.7516 29.3316 14.7911 29.3557C15.2893 29.6557 15.8073 29.9198 16.3513 30.1363C16.3866 30.1505 16.4033 30.1928 16.3858 30.2287C16.0918 30.8401 15.7488 31.4215 15.3643 31.9729C15.3476 31.9952 15.3201 32.0055 15.2941 31.9971C13.6678 31.4663 12.0106 30.666 10.3001 29.3473C10.2858 29.3358 10.2756 29.3174 10.2741 29.2982C9.92558 25.3817 10.6358 21.4161 13.2286 17.3505C13.2348 17.3398 13.2443 17.3314 13.2553 17.3264C14.5311 16.7116 15.8978 16.2594 17.3263 16.0011C17.3523 15.9969 17.3783 16.0095 17.3918 16.0337C17.5683 16.3618 17.7701 16.7825 17.9066 17.1264C19.4123 16.8849 20.9416 16.8849 22.4788 17.1264C22.6153 16.7899 22.8101 16.3618 22.9858 16.0337C22.9921 16.0217 23.0018 16.0121 23.0135 16.0062C23.0253 16.0004 23.0385 15.9986 23.0513 16.0011C24.4806 16.2602 25.8473 16.7124 27.1221 17.3264C27.1333 17.3314 27.1426 17.3398 27.1481 17.3513ZM18.6721 24.798C18.6878 23.6401 17.8838 22.6821 16.8746 22.6821C15.8736 22.6821 15.0773 23.6317 15.0773 24.798C15.0773 25.9639 15.8893 26.9136 16.8746 26.9136C17.8758 26.9136 18.6721 25.9639 18.6721 24.798ZM25.3176 24.798C25.3333 23.6401 24.5293 22.6821 23.5203 22.6821C22.5191 22.6821 21.7228 23.6317 21.7228 24.798C21.7228 25.9639 22.5348 26.9136 23.5203 26.9136C24.5293 26.9136 25.3176 25.9639 25.3176 24.798Z" fill="#393939"/>
<path d="M26.9566 15.3513C29.2154 18.8381 30.3309 22.7712 29.9139 27.299C29.9121 27.3182 29.9026 27.3358 29.8876 27.3473C28.1771 28.666 26.5199 29.4663 24.8859 29.9971C24.8732 30.0011 24.8596 30.0009 24.847 29.9964C24.8344 29.992 24.8234 29.9835 24.8156 29.9721C24.4382 29.4207 24.0952 28.8393 23.7947 28.2287C23.7774 28.1928 23.7932 28.1495 23.8287 28.1353C24.3734 27.9198 24.8914 27.6615 25.3896 27.3557C25.4289 27.3316 25.4314 27.2725 25.3951 27.2442C25.2894 27.1617 25.1846 27.0751 25.0844 26.9885C25.0656 26.9725 25.0404 26.9693 25.0191 26.9801C21.7844 28.5484 18.2409 28.5484 14.9679 26.9801C14.9467 26.9701 14.9214 26.9735 14.9032 26.9893C14.8032 27.0759 14.6982 27.1617 14.5934 27.2442C14.5572 27.2725 14.5602 27.3316 14.5997 27.3557C15.0979 27.6557 15.6159 27.9198 16.1599 28.1363C16.1952 28.1505 16.2119 28.1928 16.1944 28.2287C15.9004 28.8401 15.5574 29.4215 15.1729 29.9729C15.1562 29.9952 15.1287 30.0055 15.1027 29.9971C13.4764 29.4663 11.8192 28.666 10.1087 27.3473C10.0944 27.3358 10.0842 27.3174 10.0827 27.2982C9.73418 23.3817 10.4444 19.4161 13.0372 15.3505C13.0434 15.3398 13.0529 15.3314 13.0639 15.3264C14.3397 14.7116 15.7064 14.2594 17.1349 14.0011C17.1609 13.9969 17.1869 14.0095 17.2004 14.0337C17.3769 14.3618 17.5787 14.7825 17.7152 15.1264C19.2209 14.8849 20.7502 14.8849 22.2874 15.1264C22.4239 14.7899 22.6187 14.3618 22.7944 14.0337C22.8007 14.0217 22.8104 14.0121 22.8221 14.0062C22.8339 14.0004 22.8471 13.9986 22.8599 14.0011C24.2892 14.2602 25.6559 14.7124 26.9306 15.3264C26.9419 15.3314 26.9511 15.3398 26.9566 15.3513ZM18.4807 22.798C18.4964 21.6401 17.6924 20.6821 16.6832 20.6821C15.6822 20.6821 14.8859 21.6317 14.8859 22.798C14.8859 23.9639 15.6979 24.9136 16.6832 24.9136C17.6844 24.9136 18.4807 23.9639 18.4807 22.798ZM25.1261 22.798C25.1419 21.6401 24.3379 20.6821 23.3289 20.6821C22.3277 20.6821 21.5314 21.6317 21.5314 22.798C21.5314 23.9639 22.3434 24.9136 23.3289 24.9136C24.3379 24.9136 25.1261 23.9639 25.1261 22.798Z" fill="white"/>
</svg>
