<svg width="170" height="51" viewBox="0 0 170 51" fill="none" xmlns="http://www.w3.org/2000/svg">
<path fill-rule="evenodd" clip-rule="evenodd" d="M166 0H4V2H2V4H0V47H2V49H4V51H166V49H168V47H170V4H168V2H166V0ZM166 2V4H168V47H166V49H4V47H2V4H4V2H166Z" fill="#393939"/>
<path fill-rule="evenodd" clip-rule="evenodd" d="M166 2H4V4H2V46H168V4H166V2Z" fill="#1FCC03"/>
<rect x="2" y="4" width="2" height="2" fill="#D1FF96"/>
<rect x="168" y="4" width="2" height="2" transform="rotate(90 168 4)" fill="#D1FF96"/>
<rect x="168" y="41" width="2" height="2" transform="rotate(-180 168 41)" fill="#D1FF96"/>
<rect x="2" y="41" width="2" height="2" transform="rotate(-90 2 41)" fill="#D1FF96"/>
<rect x="2" y="47" width="6" height="2" transform="rotate(-90 2 47)" fill="#468C00"/>
<rect x="4" y="4" width="2" height="2" fill="#039800"/>
<rect x="168" y="6" width="2" height="2" transform="rotate(90 168 6)" fill="#039800"/>
<rect x="166" y="41" width="2" height="2" transform="rotate(-180 166 41)" fill="#039800"/>
<rect x="2" y="39" width="2" height="2" transform="rotate(-90 2 39)" fill="#039800"/>
<rect x="2" y="6" width="2" height="2" fill="#039800"/>
<rect x="166" y="4" width="2" height="2" transform="rotate(90 166 4)" fill="#039800"/>
<rect x="168" y="39" width="2" height="2" transform="rotate(-180 168 39)" fill="#039800"/>
<rect x="4" y="41" width="2" height="2" transform="rotate(-90 4 41)" fill="#039800"/>
<rect x="168" y="47" width="2" height="6" transform="rotate(-180 168 47)" fill="#468C00"/>
<rect x="166" y="49" width="162" height="5.99999" transform="rotate(-180 166 49)" fill="#468C00"/>
<rect x="4" y="2" width="162" height="2" fill="#D1FF96"/>
<rect x="4" y="41" width="162" height="2" fill="#D1FF96"/>
<rect x="12" y="49" width="6" height="4" transform="rotate(-90 12 49)" fill="#E3FF95"/>
<rect width="6" height="4" transform="matrix(-1.31134e-07 -1 -1 1.31134e-07 154 49)" fill="#E3FF95"/>
<rect x="17" y="49" width="6" height="3" transform="rotate(-90 17 49)" fill="#E3FF95"/>
<rect width="6" height="3" transform="matrix(-1.31134e-07 -1 -1 1.31134e-07 149 49)" fill="#E3FF95"/>
<rect x="21" y="49" width="6" height="2" transform="rotate(-90 21 49)" fill="#E3FF95"/>
<rect width="6" height="2" transform="matrix(-1.31134e-07 -1 -1 1.31134e-07 145 49)" fill="#E3FF95"/>
<rect x="24" y="49" width="6" height="0.999999" transform="rotate(-90 24 49)" fill="#E3FF95"/>
<rect width="6" height="0.999999" transform="matrix(-1.31134e-07 -1 -1 1.31134e-07 142 49)" fill="#E3FF95"/>
<path d="M36.26 19.4V18.14V16.88H37.52H38.78H42.56H50.12V19.4H48.86H47.6H45.08H43.82H42.56H40.04H38.78V23.18H47.6V25.7H38.78V32H37.52H36.26V30.74V29.48V28.22V25.7V24.44V23.18V21.92V20.66V19.4ZM66.5067 29.48V32H62.7267H61.4667H55.1667H52.6467V29.48V28.22V26.96V25.7H53.9067V24.44H55.1667V23.18H58.9467H60.2067H61.4667H62.7267V21.92H63.9867V20.66H62.7267V19.4H61.4667H60.2067H58.9467H57.6867H56.4267V20.66H55.1667V21.92H52.6467V19.4H53.9067V18.14H55.1667V16.88H58.9467H60.2067H61.4667H63.9867V18.14H65.2467V19.4H66.5067V20.66V21.92V23.18H65.2467V24.44H63.9867V25.7H60.2067H58.9467H57.6867H56.4267V26.96H55.1667V29.48H56.4267H57.6867H61.4667H62.7267H63.9867H65.2467H66.5067ZM69.0334 19.4V18.14V16.88H70.2934H71.5534H75.3334H80.3734V18.14H81.6334V19.4H82.8934V21.92V23.18V24.44H81.6334V25.7H80.3734V26.96H75.3334H71.5534V32H69.0334V26.96V25.7V24.44V23.18V21.92V20.66V19.4ZM75.3334 19.4H72.8134H71.5534V23.18V24.44H72.8134H75.3334H76.5934H77.8534H79.1134V23.18H80.3734V21.92V20.66H79.1134V19.4H77.8534H76.5934H75.3334ZM96.7602 32H87.9402H86.6802H85.4202V30.74V29.48V28.22V25.7V24.44V23.18V21.92V20.66V19.4V18.14V16.88H86.6802H87.9402V29.48H96.7602V26.96H99.2802V29.48V32H96.7602ZM101.807 30.74V29.48V26.96V24.44V23.18V21.92H103.067V20.66H104.327V19.4H105.587V18.14H106.847V16.88H110.627V18.14H111.887V19.4H113.147V20.66H114.407V21.92H115.667V23.18V24.44V26.96V29.48V30.74V32H114.407H113.147V30.74V29.48V26.96H104.327V29.48V30.74V32H103.067H101.807V30.74ZM113.147 24.44V23.18H111.887V21.92H110.627V20.66H109.367V19.4H108.107V20.66H106.847V21.92H105.587V23.18H104.327V24.44H113.147ZM130.794 18.14V19.4V20.66V21.92H129.534V23.18H128.274V24.44H127.014V25.7H125.754V26.96V32H123.234V26.96V25.7H121.974V24.44H120.714V23.18H119.454V21.92H118.194V20.66V19.4V18.14V16.88H119.454H120.714V18.14V19.4V20.66H121.974V21.92H123.234V23.18H124.494H125.754V21.92H127.014V20.66H128.274V19.4V18.14V16.88H129.534H130.794V18.14Z" fill="#393939"/>
<path d="M36.26 17.4V16.14V14.88H37.52H38.78H42.56H50.12V17.4H48.86H47.6H45.08H43.82H42.56H40.04H38.78V21.18H47.6V23.7H38.78V30H37.52H36.26V28.74V27.48V26.22V23.7V22.44V21.18V19.92V18.66V17.4ZM66.5067 27.48V30H62.7267H61.4667H55.1667H52.6467V27.48V26.22V24.96V23.7H53.9067V22.44H55.1667V21.18H58.9467H60.2067H61.4667H62.7267V19.92H63.9867V18.66H62.7267V17.4H61.4667H60.2067H58.9467H57.6867H56.4267V18.66H55.1667V19.92H52.6467V17.4H53.9067V16.14H55.1667V14.88H58.9467H60.2067H61.4667H63.9867V16.14H65.2467V17.4H66.5067V18.66V19.92V21.18H65.2467V22.44H63.9867V23.7H60.2067H58.9467H57.6867H56.4267V24.96H55.1667V27.48H56.4267H57.6867H61.4667H62.7267H63.9867H65.2467H66.5067ZM69.0334 17.4V16.14V14.88H70.2934H71.5534H75.3334H80.3734V16.14H81.6334V17.4H82.8934V19.92V21.18V22.44H81.6334V23.7H80.3734V24.96H75.3334H71.5534V30H69.0334V24.96V23.7V22.44V21.18V19.92V18.66V17.4ZM75.3334 17.4H72.8134H71.5534V21.18V22.44H72.8134H75.3334H76.5934H77.8534H79.1134V21.18H80.3734V19.92V18.66H79.1134V17.4H77.8534H76.5934H75.3334ZM96.7602 30H87.9402H86.6802H85.4202V28.74V27.48V26.22V23.7V22.44V21.18V19.92V18.66V17.4V16.14V14.88H86.6802H87.9402V27.48H96.7602V24.96H99.2802V27.48V30H96.7602ZM101.807 28.74V27.48V24.96V22.44V21.18V19.92H103.067V18.66H104.327V17.4H105.587V16.14H106.847V14.88H110.627V16.14H111.887V17.4H113.147V18.66H114.407V19.92H115.667V21.18V22.44V24.96V27.48V28.74V30H114.407H113.147V28.74V27.48V24.96H104.327V27.48V28.74V30H103.067H101.807V28.74ZM113.147 22.44V21.18H111.887V19.92H110.627V18.66H109.367V17.4H108.107V18.66H106.847V19.92H105.587V21.18H104.327V22.44H113.147ZM130.794 16.14V17.4V18.66V19.92H129.534V21.18H128.274V22.44H127.014V23.7H125.754V24.96V30H123.234V24.96V23.7H121.974V22.44H120.714V21.18H119.454V19.92H118.194V18.66V17.4V16.14V14.88H119.454H120.714V16.14V17.4V18.66H121.974V19.92H123.234V21.18H124.494H125.754V19.92H127.014V18.66H128.274V17.4V16.14V14.88H129.534H130.794V16.14Z" fill="white"/>
</svg>
