<svg width="122" height="51" viewBox="0 0 170 51" fill="none" xmlns="http://www.w3.org/2000/svg">
<path fill-rule="evenodd" clip-rule="evenodd" d="M166 0H4V2H2V4H0V47H2V49H4V51H166V49H168V47H170V4H168V2H166V0ZM166 2V4H168V47H166V49H4V47H2V4H4V2H166Z" fill="black"/>
<path fill-rule="evenodd" clip-rule="evenodd" d="M166 2H4V4H2V46H168V4H166V2Z" fill="#1FCC03"/>
<rect x="2" y="4" width="2" height="2" fill="#D1FF96"/>
<rect x="168" y="4" width="2" height="2" transform="rotate(90 168 4)" fill="#D1FF96"/>
<rect x="168" y="41" width="2" height="2" transform="rotate(-180 168 41)" fill="#D1FF96"/>
<rect x="2" y="41" width="2" height="2" transform="rotate(-90 2 41)" fill="#D1FF96"/>
<rect x="2" y="47" width="6" height="2" transform="rotate(-90 2 47)" fill="#468C00"/>
<rect x="4" y="4" width="2" height="2" fill="#039800"/>
<rect x="168" y="6" width="2" height="2" transform="rotate(90 168 6)" fill="#039800"/>
<rect x="166" y="41" width="2" height="2" transform="rotate(-180 166 41)" fill="#039800"/>
<rect x="2" y="39" width="2" height="2" transform="rotate(-90 2 39)" fill="#039800"/>
<rect x="2" y="6" width="2" height="2" fill="#039800"/>
<rect x="166" y="4" width="2" height="2" transform="rotate(90 166 4)" fill="#039800"/>
<rect x="168" y="39" width="2" height="2" transform="rotate(-180 168 39)" fill="#039800"/>
<rect x="4" y="41" width="2" height="2" transform="rotate(-90 4 41)" fill="#039800"/>
<rect x="168" y="47" width="2" height="6" transform="rotate(-180 168 47)" fill="#468C00"/>
<rect x="166" y="49" width="162" height="5.99999" transform="rotate(-180 166 49)" fill="#468C00"/>
<rect x="4" y="2" width="162" height="2" fill="#D1FF96"/>
<rect x="4" y="41" width="162" height="2" fill="#D1FF96"/>
<rect x="12" y="49" width="6" height="4" transform="rotate(-90 12 49)" fill="#E3FF95"/>
<rect width="6" height="4" transform="matrix(-1.31134e-07 -1 -1 1.31134e-07 154 49)" fill="#E3FF95"/>
<rect x="17" y="49" width="6" height="3" transform="rotate(-90 17 49)" fill="#E3FF95"/>
<rect width="6" height="3" transform="matrix(-1.31134e-07 -1 -1 1.31134e-07 149 49)" fill="#E3FF95"/>
<rect x="21" y="49" width="6" height="2" transform="rotate(-90 21 49)" fill="#E3FF95"/>
<rect width="6" height="2" transform="matrix(-1.31134e-07 -1 -1 1.31134e-07 145 49)" fill="#E3FF95"/>
<rect x="24" y="49" width="6" height="0.999999" transform="rotate(-90 24 49)" fill="#E3FF95"/>
<rect width="6" height="0.999999" transform="matrix(-1.31134e-07 -1 -1 1.31134e-07 142 49)" fill="#E3FF95"/>
<path d="M64.6 25.7H55.78V32H54.52H53.26V30.74V29.48V28.22V25.7V24.44V23.18V21.92V20.66V19.4V18.14V16.88H54.52H55.78V23.18H64.6V16.88H67.12V19.4V29.48V32H64.6V25.7ZM75.9467 19.4H74.6867H73.4267V20.66H72.1667V21.92V23.18V25.7V26.96V28.22H73.4267V29.48H74.6867H75.9467H77.2067H78.4667H79.7267V28.22H80.9867V26.96V25.7V21.92V20.66H79.7267V19.4H78.4667H77.2067H75.9467ZM83.5067 25.7V29.48H82.2467V30.74H80.9867V32H77.2067H75.9467H72.1667V30.74H70.9067V29.48H69.6467V26.96V25.7V24.44V23.18V19.4H70.9067V18.14H72.1667V16.88H74.6867H75.9467H77.2067H80.9867V18.14H82.2467V19.4H83.5067V21.92V25.7ZM88.5534 25.7V32H87.2934H86.0334V30.74V29.48V28.22V25.7V24.44V23.18V21.92V20.66V19.4V18.14V16.88H87.2934H88.5534V18.14H89.8134V19.4H91.0734V20.66H92.3334V21.92H93.5934V20.66H94.8534V19.4H96.1134V18.14H97.3734V16.88H99.8934V18.14V19.4V29.48V32H97.3734V25.7V21.92H96.1134V23.18H94.8534V24.44H93.5934V25.7H92.3334V24.44H91.0734V23.18H89.8134V21.92H88.5534V25.7ZM102.42 19.4V18.14V16.88H103.68H104.94H108.72H116.28V19.4H115.02H113.76H111.24H109.98H108.72H106.2H104.94V23.18H113.76V25.7H104.94V29.48H106.2H108.72H109.98H111.24H113.76H115.02H116.28V32H108.72H104.94H103.68H102.42V30.74V29.48V28.22V25.7V24.44V23.18V21.92V20.66V19.4Z" fill="#393939"/>
<path d="M64.6 23.7H55.78V30H54.52H53.26V28.74V27.48V26.22V23.7V22.44V21.18V19.92V18.66V17.4V16.14V14.88H54.52H55.78V21.18H64.6V14.88H67.12V17.4V27.48V30H64.6V23.7ZM75.9467 17.4H74.6867H73.4267V18.66H72.1667V19.92V21.18V23.7V24.96V26.22H73.4267V27.48H74.6867H75.9467H77.2067H78.4667H79.7267V26.22H80.9867V24.96V23.7V19.92V18.66H79.7267V17.4H78.4667H77.2067H75.9467ZM83.5067 23.7V27.48H82.2467V28.74H80.9867V30H77.2067H75.9467H72.1667V28.74H70.9067V27.48H69.6467V24.96V23.7V22.44V21.18V17.4H70.9067V16.14H72.1667V14.88H74.6867H75.9467H77.2067H80.9867V16.14H82.2467V17.4H83.5067V19.92V23.7ZM88.5534 23.7V30H87.2934H86.0334V28.74V27.48V26.22V23.7V22.44V21.18V19.92V18.66V17.4V16.14V14.88H87.2934H88.5534V16.14H89.8134V17.4H91.0734V18.66H92.3334V19.92H93.5934V18.66H94.8534V17.4H96.1134V16.14H97.3734V14.88H99.8934V16.14V17.4V27.48V30H97.3734V23.7V19.92H96.1134V21.18H94.8534V22.44H93.5934V23.7H92.3334V22.44H91.0734V21.18H89.8134V19.92H88.5534V23.7ZM102.42 17.4V16.14V14.88H103.68H104.94H108.72H116.28V17.4H115.02H113.76H111.24H109.98H108.72H106.2H104.94V21.18H113.76V23.7H104.94V27.48H106.2H108.72H109.98H111.24H113.76H115.02H116.28V30H108.72H104.94H103.68H102.42V28.74V27.48V26.22V23.7V22.44V21.18V19.92V18.66V17.4Z" fill="white"/>
</svg>
