<svg width="130" height="38" viewBox="0 0 130 38" fill="none" xmlns="http://www.w3.org/2000/svg">
<path fill-rule="evenodd" clip-rule="evenodd" d="M126.947 0H3.06203V1.48148H126.942V2.96293L128.469 2.96289V34.8148H129.998V2.96289L128.471 2.96293V1.48145H126.947V0ZM3.05668 1.48145H1.52723V2.96268H0V34.8145H1.52945V2.96293H3.05668V1.48145ZM128.471 34.8154H126.942V36.2959H3.06203V37.7774H126.947V36.2969H128.471V34.8154ZM1.52723 34.8154H3.05668V36.2969H1.52723V34.8154Z" fill="black"/>
<path fill-rule="evenodd" clip-rule="evenodd" d="M126.936 1.48145H3.05066V2.96289H1.52344V34.074H128.468V2.96289H126.936V1.48145Z" fill="#1FCC03"/>
<rect x="1.52344" y="2.96289" width="1.52945" height="1.48148" fill="#D1FF96"/>
<rect x="128.469" y="2.96289" width="1.48148" height="1.52945" transform="rotate(90 128.469 2.96289)" fill="#D1FF96"/>
<rect x="128.469" y="30.3711" width="1.52945" height="1.48148" transform="rotate(-180 128.469 30.3711)" fill="#D1FF96"/>
<rect x="1.52344" y="30.3711" width="1.48148" height="1.52945" transform="rotate(-90 1.52344 30.3711)" fill="#D1FF96"/>
<rect x="1.52344" y="34.8154" width="4.44445" height="1.52945" transform="rotate(-90 1.52344 34.8154)" fill="#468C00"/>
<rect x="3.05469" y="2.96289" width="1.52945" height="1.48148" fill="#039800"/>
<rect x="128.469" y="4.44434" width="1.48148" height="1.52945" transform="rotate(90 128.469 4.44434)" fill="#039800"/>
<rect x="126.938" y="30.3711" width="1.52945" height="1.48148" transform="rotate(-180 126.938 30.3711)" fill="#039800"/>
<rect x="1.52344" y="28.8896" width="1.48148" height="1.52945" transform="rotate(-90 1.52344 28.8896)" fill="#039800"/>
<rect x="1.52344" y="4.44434" width="1.52945" height="1.48148" fill="#039800"/>
<rect x="126.938" y="2.96289" width="1.48148" height="1.52945" transform="rotate(90 126.938 2.96289)" fill="#039800"/>
<rect x="128.469" y="28.8896" width="1.52945" height="1.48148" transform="rotate(-180 128.469 28.8896)" fill="#039800"/>
<rect x="3.05469" y="30.3711" width="1.48148" height="1.52945" transform="rotate(-90 3.05469 30.3711)" fill="#039800"/>
<rect x="128.469" y="34.8154" width="1.52945" height="4.44445" transform="rotate(-180 128.469 34.8154)" fill="#468C00"/>
<rect x="126.938" y="36.2969" width="123.885" height="4.44444" transform="rotate(-180 126.938 36.2969)" fill="#468C00"/>
<rect x="3.05469" y="1.48145" width="123.885" height="1.48148" fill="#D1FF96"/>
<rect x="3.05469" y="30.3711" width="123.885" height="1.48148" fill="#D1FF96"/>
<rect x="9.17578" y="36.2969" width="4.44445" height="3.0589" transform="rotate(-90 9.17578 36.2969)" fill="#E3FF95"/>
<rect width="4.44445" height="3.0589" transform="matrix(-1.3538e-07 -1 -1 1.27021e-07 117.758 36.2969)" fill="#E3FF95"/>
<rect x="12.9961" y="36.2969" width="4.44445" height="2.29417" transform="rotate(-90 12.9961 36.2969)" fill="#E3FF95"/>
<rect width="4.44445" height="2.29417" transform="matrix(-1.3538e-07 -1 -1 1.27021e-07 113.938 36.2969)" fill="#E3FF95"/>
<rect x="16.0586" y="36.2969" width="4.44445" height="1.52945" transform="rotate(-90 16.0586 36.2969)" fill="#E3FF95"/>
<rect width="4.44445" height="1.52945" transform="matrix(-1.3538e-07 -1 -1 1.27021e-07 110.883 36.2969)" fill="#E3FF95"/>
<rect x="18.3516" y="36.2969" width="4.44445" height="0.764724" transform="rotate(-90 18.3516 36.2969)" fill="#E3FF95"/>
<rect width="4.44445" height="0.764724" transform="matrix(-1.3538e-07 -1 -1 1.27021e-07 108.586 36.2969)" fill="#E3FF95"/>
<path d="M55.2883 18.3314H50.8783V21.4814H50.2483H49.6183V20.8514V20.2214V19.5914V18.3314V17.7014V17.0714V16.4414V15.8114V15.1814V14.5514V13.9214H50.2483H50.8783V17.0714H55.2883V13.9214H56.5483V15.1814V20.2214V21.4814H55.2883V18.3314ZM60.9616 15.1814H60.3316H59.7016V15.8114H59.0716V16.4414V17.0714V18.3314V18.9614V19.5914H59.7016V20.2214H60.3316H60.9616H61.5916H62.2216H62.8516V19.5914H63.4816V18.9614V18.3314V16.4414V15.8114H62.8516V15.1814H62.2216H61.5916H60.9616ZM64.7416 18.3314V20.2214H64.1116V20.8514H63.4816V21.4814H61.5916H60.9616H59.0716V20.8514H58.4416V20.2214H57.8116V18.9614V18.3314V17.7014V17.0714V15.1814H58.4416V14.5514H59.0716V13.9214H60.3316H60.9616H61.5916H63.4816V14.5514H64.1116V15.1814H64.7416V16.4414V18.3314ZM67.265 18.3314V21.4814H66.635H66.005V20.8514V20.2214V19.5914V18.3314V17.7014V17.0714V16.4414V15.8114V15.1814V14.5514V13.9214H66.635H67.265V14.5514H67.895V15.1814H68.525V15.8114H69.155V16.4414H69.785V15.8114H70.415V15.1814H71.045V14.5514H71.675V13.9214H72.935V14.5514V15.1814V20.2214V21.4814H71.675V18.3314V16.4414H71.045V17.0714H70.415V17.7014H69.785V18.3314H69.155V17.7014H68.525V17.0714H67.895V16.4414H67.265V18.3314ZM74.1984 15.1814V14.5514V13.9214H74.8284H75.4584H77.3484H81.1284V15.1814H80.4984H79.8684H78.6084H77.9784H77.3484H76.0884H75.4584V17.0714H79.8684V18.3314H75.4584V20.2214H76.0884H77.3484H77.9784H78.6084H79.8684H80.4984H81.1284V21.4814H77.3484H75.4584H74.8284H74.1984V20.8514V20.2214V19.5914V18.3314V17.7014V17.0714V16.4414V15.8114V15.1814Z" fill="#393939"/>
<path d="M55.2883 16.85H50.8783V20H50.2483H49.6183V19.37V18.74V18.11V16.85V16.22V15.59V14.96V14.33V13.7V13.07V12.44H50.2483H50.8783V15.59H55.2883V12.44H56.5483V13.7V18.74V20H55.2883V16.85ZM60.9616 13.7H60.3316H59.7016V14.33H59.0716V14.96V15.59V16.85V17.48V18.11H59.7016V18.74H60.3316H60.9616H61.5916H62.2216H62.8516V18.11H63.4816V17.48V16.85V14.96V14.33H62.8516V13.7H62.2216H61.5916H60.9616ZM64.7416 16.85V18.74H64.1116V19.37H63.4816V20H61.5916H60.9616H59.0716V19.37H58.4416V18.74H57.8116V17.48V16.85V16.22V15.59V13.7H58.4416V13.07H59.0716V12.44H60.3316H60.9616H61.5916H63.4816V13.07H64.1116V13.7H64.7416V14.96V16.85ZM67.265 16.85V20H66.635H66.005V19.37V18.74V18.11V16.85V16.22V15.59V14.96V14.33V13.7V13.07V12.44H66.635H67.265V13.07H67.895V13.7H68.525V14.33H69.155V14.96H69.785V14.33H70.415V13.7H71.045V13.07H71.675V12.44H72.935V13.07V13.7V18.74V20H71.675V16.85V14.96H71.045V15.59H70.415V16.22H69.785V16.85H69.155V16.22H68.525V15.59H67.895V14.96H67.265V16.85ZM74.1984 13.7V13.07V12.44H74.8284H75.4584H77.3484H81.1284V13.7H80.4984H79.8684H78.6084H77.9784H77.3484H76.0884H75.4584V15.59H79.8684V16.85H75.4584V18.74H76.0884H77.3484H77.9784H78.6084H79.8684H80.4984H81.1284V20H77.3484H75.4584H74.8284H74.1984V19.37V18.74V18.11V16.85V16.22V15.59V14.96V14.33V13.7Z" fill="white"/>
</svg>
