<svg width="127" height="38" viewBox="0 0 127 38" fill="none" xmlns="http://www.w3.org/2000/svg">
<path fill-rule="evenodd" clip-rule="evenodd" d="M123.93 0.000976562H3.92969V1.48246H123.93V0.000976562ZM3.92679 1.48242H2.44531V2.96366H0.964844V34.8155H2.44633V2.9639H3.92679V1.48242ZM125.407 1.48261H123.926V2.96409H125.406V34.8157H126.888V2.96387H125.407V1.48261ZM125.407 34.8164H123.926V36.2969H3.92969V37.7784H123.93V36.2979H125.407V34.8164ZM2.44531 34.8164H3.92679V36.2979H2.44531V34.8164Z" fill="black"/>
<path fill-rule="evenodd" clip-rule="evenodd" d="M123.922 1.48242H3.92188V2.96405H2.44141V34.0752H125.404V2.96405H123.922V1.48242Z" fill="#1FCC03"/>
<rect x="2.44141" y="2.96387" width="1.48148" height="1.48148" fill="#D1FF96"/>
<rect x="125.406" y="2.96387" width="1.48148" height="1.48148" transform="rotate(90 125.406 2.96387)" fill="#D1FF96"/>
<rect x="125.406" y="30.3721" width="1.48148" height="1.48148" transform="rotate(-180 125.406 30.3721)" fill="#D1FF96"/>
<rect x="2.44141" y="30.3721" width="1.48148" height="1.48148" transform="rotate(-90 2.44141 30.3721)" fill="#D1FF96"/>
<rect x="2.44141" y="34.8164" width="4.44445" height="1.48148" transform="rotate(-90 2.44141 34.8164)" fill="#468C00"/>
<rect x="3.92188" y="2.96387" width="1.48148" height="1.48148" fill="#039800"/>
<rect x="125.406" y="4.44531" width="1.48148" height="1.48148" transform="rotate(90 125.406 4.44531)" fill="#039800"/>
<rect x="123.922" y="30.3721" width="1.48148" height="1.48148" transform="rotate(-180 123.922 30.3721)" fill="#039800"/>
<rect x="2.44141" y="28.8906" width="1.48148" height="1.48148" transform="rotate(-90 2.44141 28.8906)" fill="#039800"/>
<rect x="2.44141" y="4.44531" width="1.48148" height="1.48148" fill="#039800"/>
<rect x="123.922" y="2.96387" width="1.48148" height="1.48148" transform="rotate(90 123.922 2.96387)" fill="#039800"/>
<rect x="125.406" y="28.8906" width="1.48148" height="1.48148" transform="rotate(-180 125.406 28.8906)" fill="#039800"/>
<rect x="3.92188" y="30.3721" width="1.48148" height="1.48148" transform="rotate(-90 3.92188 30.3721)" fill="#039800"/>
<rect x="125.406" y="34.8164" width="1.48148" height="4.44445" transform="rotate(-180 125.406 34.8164)" fill="#468C00"/>
<rect x="123.922" y="36.2979" width="120" height="4.44444" transform="rotate(-180 123.922 36.2979)" fill="#468C00"/>
<rect x="3.92188" y="1.48242" width="120" height="1.48148" fill="#D1FF96"/>
<rect x="3.92188" y="30.3721" width="120" height="1.48148" fill="#D1FF96"/>
<rect x="9.85156" y="36.2979" width="4.44445" height="2.96296" transform="rotate(-90 9.85156 36.2979)" fill="#E3FF95"/>
<rect width="4.44445" height="2.96296" transform="matrix(-1.31134e-07 -1 -1 1.31134e-07 115.031 36.2979)" fill="#E3FF95"/>
<rect x="13.5508" y="36.2979" width="4.44445" height="2.22222" transform="rotate(-90 13.5508 36.2979)" fill="#E3FF95"/>
<rect width="4.44445" height="2.22222" transform="matrix(-1.31134e-07 -1 -1 1.31134e-07 111.328 36.2979)" fill="#E3FF95"/>
<rect x="16.5195" y="36.2979" width="4.44445" height="1.48148" transform="rotate(-90 16.5195 36.2979)" fill="#E3FF95"/>
<rect width="4.44445" height="1.48148" transform="matrix(-1.31134e-07 -1 -1 1.31134e-07 108.367 36.2979)" fill="#E3FF95"/>
<rect x="18.7422" y="36.2979" width="4.44445" height="0.74074" transform="rotate(-90 18.7422 36.2979)" fill="#E3FF95"/>
<rect width="4.44445" height="0.74074" transform="matrix(-1.31134e-07 -1 -1 1.31134e-07 106.145 36.2979)" fill="#E3FF95"/>
<path d="M53.3 18.3324H48.89V21.4824H48.26H47.63V20.8524V20.2224V19.5924V18.3324V17.7024V17.0724V16.4424V15.8124V15.1824V14.5524V13.9224H48.26H48.89V17.0724H53.3V13.9224H54.56V15.1824V20.2224V21.4824H53.3V18.3324ZM58.9734 15.1824H58.3434H57.7134V15.8124H57.0834V16.4424V17.0724V18.3324V18.9624V19.5924H57.7134V20.2224H58.3434H58.9734H59.6034H60.2334H60.8634V19.5924H61.4934V18.9624V18.3324V16.4424V15.8124H60.8634V15.1824H60.2334H59.6034H58.9734ZM62.7534 18.3324V20.2224H62.1234V20.8524H61.4934V21.4824H59.6034H58.9734H57.0834V20.8524H56.4534V20.2224H55.8234V18.9624V18.3324V17.7024V17.0724V15.1824H56.4534V14.5524H57.0834V13.9224H58.3434H58.9734H59.6034H61.4934V14.5524H62.1234V15.1824H62.7534V16.4424V18.3324ZM65.2767 18.3324V21.4824H64.6467H64.0167V20.8524V20.2224V19.5924V18.3324V17.7024V17.0724V16.4424V15.8124V15.1824V14.5524V13.9224H64.6467H65.2767V14.5524H65.9067V15.1824H66.5367V15.8124H67.1667V16.4424H67.7967V15.8124H68.4267V15.1824H69.0567V14.5524H69.6867V13.9224H70.9467V14.5524V15.1824V20.2224V21.4824H69.6867V18.3324V16.4424H69.0567V17.0724H68.4267V17.7024H67.7967V18.3324H67.1667V17.7024H66.5367V17.0724H65.9067V16.4424H65.2767V18.3324ZM72.2101 15.1824V14.5524V13.9224H72.8401H73.4701H75.3601H79.1401V15.1824H78.5101H77.8801H76.6201H75.9901H75.3601H74.1001H73.4701V17.0724H77.8801V18.3324H73.4701V20.2224H74.1001H75.3601H75.9901H76.6201H77.8801H78.5101H79.1401V21.4824H75.3601H73.4701H72.8401H72.2101V20.8524V20.2224V19.5924V18.3324V17.7024V17.0724V16.4424V15.8124V15.1824Z" fill="#393939"/>
<path d="M53.3 16.851H48.89V20.001H48.26H47.63V19.371V18.741V18.111V16.851V16.221V15.591V14.961V14.331V13.701V13.071V12.441H48.26H48.89V15.591H53.3V12.441H54.56V13.701V18.741V20.001H53.3V16.851ZM58.9734 13.701H58.3434H57.7134V14.331H57.0834V14.961V15.591V16.851V17.481V18.111H57.7134V18.741H58.3434H58.9734H59.6034H60.2334H60.8634V18.111H61.4934V17.481V16.851V14.961V14.331H60.8634V13.701H60.2334H59.6034H58.9734ZM62.7534 16.851V18.741H62.1234V19.371H61.4934V20.001H59.6034H58.9734H57.0834V19.371H56.4534V18.741H55.8234V17.481V16.851V16.221V15.591V13.701H56.4534V13.071H57.0834V12.441H58.3434H58.9734H59.6034H61.4934V13.071H62.1234V13.701H62.7534V14.961V16.851ZM65.2767 16.851V20.001H64.6467H64.0167V19.371V18.741V18.111V16.851V16.221V15.591V14.961V14.331V13.701V13.071V12.441H64.6467H65.2767V13.071H65.9067V13.701H66.5367V14.331H67.1667V14.961H67.7967V14.331H68.4267V13.701H69.0567V13.071H69.6867V12.441H70.9467V13.071V13.701V18.741V20.001H69.6867V16.851V14.961H69.0567V15.591H68.4267V16.221H67.7967V16.851H67.1667V16.221H66.5367V15.591H65.9067V14.961H65.2767V16.851ZM72.2101 13.701V13.071V12.441H72.8401H73.4701H75.3601H79.1401V13.701H78.5101H77.8801H76.6201H75.9901H75.3601H74.1001H73.4701V15.591H77.8801V16.851H73.4701V18.741H74.1001H75.3601H75.9901H76.6201H77.8801H78.5101H79.1401V20.001H75.3601H73.4701H72.8401H72.2101V19.371V18.741V18.111V16.851V16.221V15.591V14.961V14.331V13.701Z" fill="white"/>
</svg>
