<svg width="131" height="39" viewBox="0 0 131 39" fill="none" xmlns="http://www.w3.org/2000/svg">
<path fill-rule="evenodd" clip-rule="evenodd" d="M127.913 0.889648H4.02746V2.37115H127.906V3.85227H129.436V2.37077H127.913V0.889648ZM4.02167 2.37077H2.49222V3.85227H4.02167V2.37077ZM129.436 35.7053H127.906V37.1864H4.02746V38.6679H127.913V37.1868H129.436V35.7053ZM129.434 3.85287H130.963V35.7051H129.434V3.85287ZM0.964844 3.85287H2.49429V35.7051H0.964844V3.85287ZM2.49222 35.7053H4.02167V37.1868H2.49222V35.7053Z" fill="black"/>
<path fill-rule="evenodd" clip-rule="evenodd" d="M127.901 2.37109H4.01566V3.85221H2.48828V34.9637H129.433V3.85221H127.901V2.37109Z" fill="#00D6BC"/>
<rect x="2.48828" y="3.85352" width="1.52945" height="1.4815" fill="#E0FFFD"/>
<rect x="2.48828" y="31.2607" width="1.4815" height="1.52945" transform="rotate(-90 2.48828 31.2607)" fill="#E0FFFD"/>
<rect x="2.48828" y="35.7051" width="4.4445" height="1.52945" transform="rotate(-90 2.48828 35.7051)" fill="#0F9C94"/>
<rect x="4.01953" y="3.85352" width="1.52945" height="1.4815" fill="#008D7C"/>
<rect x="2.48828" y="29.7803" width="1.4815" height="1.52945" transform="rotate(-90 2.48828 29.7803)" fill="#008D7C"/>
<rect x="2.48828" y="5.33496" width="1.52945" height="1.4815" fill="#008D7C"/>
<rect x="4.01953" y="31.2607" width="1.4815" height="1.52945" transform="rotate(-90 4.01953 31.2607)" fill="#008D7C"/>
<rect x="127.902" y="37.1885" width="123.885" height="4.44449" transform="rotate(-180 127.902 37.1885)" fill="#0F9C94"/>
<rect x="4.01953" y="2.37109" width="123.885" height="1.4815" fill="#E0FFFD"/>
<rect x="4.01953" y="31.2607" width="123.885" height="1.4815" fill="#E0FFFD"/>
<rect x="10.1367" y="37.1885" width="4.4445" height="3.0589" transform="rotate(-90 10.1367 37.1885)" fill="#AFEFEB"/>
<rect width="4.4445" height="3.0589" transform="matrix(-1.35378e-07 -1 -1 1.27023e-07 118.723 37.1885)" fill="#AFEFEB"/>
<rect x="13.957" y="37.1885" width="4.4445" height="2.29417" transform="rotate(-90 13.957 37.1885)" fill="#AFEFEB"/>
<rect width="4.4445" height="2.29417" transform="matrix(-1.35378e-07 -1 -1 1.27023e-07 114.898 37.1885)" fill="#AFEFEB"/>
<rect x="17.0195" y="37.1885" width="4.4445" height="1.52945" transform="rotate(-90 17.0195 37.1885)" fill="#AFEFEB"/>
<rect width="4.4445" height="1.52945" transform="matrix(-1.35378e-07 -1 -1 1.27023e-07 111.844 37.1885)" fill="#AFEFEB"/>
<rect x="19.3164" y="37.1885" width="4.4445" height="0.764724" transform="rotate(-90 19.3164 37.1885)" fill="#AFEFEB"/>
<rect width="4.4445" height="0.764724" transform="matrix(-1.35378e-07 -1 -1 1.27023e-07 109.551 37.1885)" fill="#AFEFEB"/>
<path d="M33.5098 20.2214V21.4814H32.8798H32.2498H30.9898H30.3598H29.7298V20.2214H30.3598H30.9898V16.4414V15.1814H30.3598H29.7298V13.9214H30.3598H30.9898H31.6198H32.2498H32.8798H33.5098V15.1814H32.8798H32.2498V20.2214H32.8798H33.5098ZM42.3332 16.4414V14.5514V13.9214H43.5932V14.5514V15.1814V20.2214V21.4814H42.3332V20.2214H41.7032V19.5914H41.0732V18.9614H40.4432V18.3314H39.8132V17.7014H39.1832V17.0714H38.5532V16.4414H37.9232V18.3314V21.4814H37.2932H36.6632V20.8514V20.2214V19.5914V18.3314V17.7014V17.0714V16.4414V15.8114V15.1814V14.5514V13.9214H37.2932H37.9232V14.5514H38.5532V15.1814H39.1832V15.8114H39.8132V16.4414H40.4432V17.0714H41.0732V17.7014H41.7032V18.3314H42.3332V16.4414ZM51.7866 14.5514V15.1814V16.4414V17.7014V18.3314V18.9614H51.1566V19.5914H50.5266V20.2214H49.8966V20.8514H49.2666V21.4814H47.3766V20.8514H46.7466V20.2214H46.1166V19.5914H45.4866V18.9614H44.8566V18.3314V17.7014V16.4414V15.1814V14.5514V13.9214H45.4866H46.1166V14.5514V15.1814V17.7014V18.3314H46.7466V18.9614H47.3766V19.5914H48.0066V20.2214H48.6366V19.5914H49.2666V18.9614H49.8966V18.3314H50.5266V17.7014V15.1814V14.5514V13.9214H51.1566H51.7866V14.5514ZM53.0499 15.1814V14.5514V13.9214H53.6799H54.3099H56.1999H59.9799V15.1814H59.3499H58.7199H57.4599H56.8299H56.1999H54.9399H54.3099V17.0714H58.7199V18.3314H54.3099V20.2214H54.9399H56.1999H56.8299H57.4599H58.7199H59.3499H59.9799V21.4814H56.1999H54.3099H53.6799H53.0499V20.8514V20.2214V19.5914V18.3314V17.7014V17.0714V16.4414V15.8114V15.1814ZM66.9133 16.4414V14.5514V13.9214H68.1733V14.5514V15.1814V20.2214V21.4814H66.9133V20.2214H66.2833V19.5914H65.6533V18.9614H65.0233V18.3314H64.3933V17.7014H63.7633V17.0714H63.1333V16.4414H62.5033V18.3314V21.4814H61.8733H61.2433V20.8514V20.2214V19.5914V18.3314V17.7014V17.0714V16.4414V15.8114V15.1814V14.5514V13.9214H61.8733H62.5033V14.5514H63.1333V15.1814H63.7633V15.8114H64.3933V16.4414H65.0233V17.0714H65.6533V17.7014H66.2833V18.3314H66.9133V16.4414ZM69.4366 15.1814V14.5514V13.9214H70.0666H70.6966H72.5866H75.7366V15.1814H75.1066H74.4766H73.2166V18.3314V21.4814H71.9566V18.3314V15.1814H71.3266H69.4366ZM80.78 15.1814H80.15H79.52V15.8114H78.89V16.4414V17.0714V18.3314V18.9614V19.5914H79.52V20.2214H80.15H80.78H81.41H82.04H82.67V19.5914H83.3V18.9614V18.3314V16.4414V15.8114H82.67V15.1814H82.04H81.41H80.78ZM84.56 18.3314V20.2214H83.93V20.8514H83.3V21.4814H81.41H80.78H78.89V20.8514H78.26V20.2214H77.63V18.9614V18.3314V17.7014V17.0714V15.1814H78.26V14.5514H78.89V13.9214H80.15H80.78H81.41H83.3V14.5514H83.93V15.1814H84.56V16.4414V18.3314ZM85.8234 15.1814V14.5514V13.9214H86.4534H87.0834H88.9734H91.4934V14.5514H92.1234V15.1814H92.7534V16.4414V17.0714V17.7014H92.1234V18.3314H91.4934V18.9614V19.5914H92.1234V20.2214H92.7534V20.8514V21.4814H91.4934V20.8514H90.8634V20.2214H90.2334V19.5914H89.6034V18.9614H88.9734H87.0834V21.4814H85.8234V18.9614V18.3314V17.7014V17.0714V16.4414V15.8114V15.1814ZM88.9734 15.1814H87.7134H87.0834V17.0714V17.7014H87.7134H88.3434H88.9734H89.6034H90.2334H90.8634V17.0714H91.4934V16.4414V15.8114H90.8634V15.1814H90.2334H89.6034H88.9734ZM100.317 14.5514V15.1814V15.8114V16.4414H99.6867V17.0714H99.0567V17.7014H98.4267V18.3314H97.7967V18.9614V21.4814H96.5367V18.9614V18.3314H95.9067V17.7014H95.2767V17.0714H94.6467V16.4414H94.0167V15.8114V15.1814V14.5514V13.9214H94.6467H95.2767V14.5514V15.1814V15.8114H95.9067V16.4414H96.5367V17.0714H97.1667H97.7967V16.4414H98.4267V15.8114H99.0567V15.1814V14.5514V13.9214H99.6867H100.317V14.5514Z" fill="#393939"/>
<path d="M33.5098 18.74V20H32.8798H32.2498H30.9898H30.3598H29.7298V18.74H30.3598H30.9898V14.96V13.7H30.3598H29.7298V12.44H30.3598H30.9898H31.6198H32.2498H32.8798H33.5098V13.7H32.8798H32.2498V18.74H32.8798H33.5098ZM42.3332 14.96V13.07V12.44H43.5932V13.07V13.7V18.74V20H42.3332V18.74H41.7032V18.11H41.0732V17.48H40.4432V16.85H39.8132V16.22H39.1832V15.59H38.5532V14.96H37.9232V16.85V20H37.2932H36.6632V19.37V18.74V18.11V16.85V16.22V15.59V14.96V14.33V13.7V13.07V12.44H37.2932H37.9232V13.07H38.5532V13.7H39.1832V14.33H39.8132V14.96H40.4432V15.59H41.0732V16.22H41.7032V16.85H42.3332V14.96ZM51.7866 13.07V13.7V14.96V16.22V16.85V17.48H51.1566V18.11H50.5266V18.74H49.8966V19.37H49.2666V20H47.3766V19.37H46.7466V18.74H46.1166V18.11H45.4866V17.48H44.8566V16.85V16.22V14.96V13.7V13.07V12.44H45.4866H46.1166V13.07V13.7V16.22V16.85H46.7466V17.48H47.3766V18.11H48.0066V18.74H48.6366V18.11H49.2666V17.48H49.8966V16.85H50.5266V16.22V13.7V13.07V12.44H51.1566H51.7866V13.07ZM53.0499 13.7V13.07V12.44H53.6799H54.3099H56.1999H59.9799V13.7H59.3499H58.7199H57.4599H56.8299H56.1999H54.9399H54.3099V15.59H58.7199V16.85H54.3099V18.74H54.9399H56.1999H56.8299H57.4599H58.7199H59.3499H59.9799V20H56.1999H54.3099H53.6799H53.0499V19.37V18.74V18.11V16.85V16.22V15.59V14.96V14.33V13.7ZM66.9133 14.96V13.07V12.44H68.1733V13.07V13.7V18.74V20H66.9133V18.74H66.2833V18.11H65.6533V17.48H65.0233V16.85H64.3933V16.22H63.7633V15.59H63.1333V14.96H62.5033V16.85V20H61.8733H61.2433V19.37V18.74V18.11V16.85V16.22V15.59V14.96V14.33V13.7V13.07V12.44H61.8733H62.5033V13.07H63.1333V13.7H63.7633V14.33H64.3933V14.96H65.0233V15.59H65.6533V16.22H66.2833V16.85H66.9133V14.96ZM69.4366 13.7V13.07V12.44H70.0666H70.6966H72.5866H75.7366V13.7H75.1066H74.4766H73.2166V16.85V20H71.9566V16.85V13.7H71.3266H69.4366ZM80.78 13.7H80.15H79.52V14.33H78.89V14.96V15.59V16.85V17.48V18.11H79.52V18.74H80.15H80.78H81.41H82.04H82.67V18.11H83.3V17.48V16.85V14.96V14.33H82.67V13.7H82.04H81.41H80.78ZM84.56 16.85V18.74H83.93V19.37H83.3V20H81.41H80.78H78.89V19.37H78.26V18.74H77.63V17.48V16.85V16.22V15.59V13.7H78.26V13.07H78.89V12.44H80.15H80.78H81.41H83.3V13.07H83.93V13.7H84.56V14.96V16.85ZM85.8234 13.7V13.07V12.44H86.4534H87.0834H88.9734H91.4934V13.07H92.1234V13.7H92.7534V14.96V15.59V16.22H92.1234V16.85H91.4934V17.48V18.11H92.1234V18.74H92.7534V19.37V20H91.4934V19.37H90.8634V18.74H90.2334V18.11H89.6034V17.48H88.9734H87.0834V20H85.8234V17.48V16.85V16.22V15.59V14.96V14.33V13.7ZM88.9734 13.7H87.7134H87.0834V15.59V16.22H87.7134H88.3434H88.9734H89.6034H90.2334H90.8634V15.59H91.4934V14.96V14.33H90.8634V13.7H90.2334H89.6034H88.9734ZM100.317 13.07V13.7V14.33V14.96H99.6867V15.59H99.0567V16.22H98.4267V16.85H97.7967V17.48V20H96.5367V17.48V16.85H95.9067V16.22H95.2767V15.59H94.6467V14.96H94.0167V14.33V13.7V13.07V12.44H94.6467H95.2767V13.07V13.7V14.33H95.9067V14.96H96.5367V15.59H97.1667H97.7967V14.96H98.4267V14.33H99.0567V13.7V13.07V12.44H99.6867H100.317V13.07Z" fill="white"/>
</svg>
