<svg width="122" height="51" viewBox="0 0 170 51" fill="none" xmlns="http://www.w3.org/2000/svg">
<path fill-rule="evenodd" clip-rule="evenodd" d="M166 0H4V2H2V4H0V47H2V49H4V51H166V49H168V47H170V4H168V2H166V0ZM166 2V4H168V47H166V49H4V47H2V4H4V2H166Z" fill="black"/>
<path fill-rule="evenodd" clip-rule="evenodd" d="M166 2H4V4H2V46H168V4H166V2Z" fill="#00D6BC"/>
<rect x="2" y="4" width="2" height="2" fill="#E0FFFD"/>
<rect x="168" y="4" width="2" height="2" transform="rotate(90 168 4)" fill="#E0FFFD"/>
<rect x="168" y="41" width="2" height="2" transform="rotate(-180 168 41)" fill="#E0FFFD"/>
<rect x="2" y="41" width="2" height="2" transform="rotate(-90 2 41)" fill="#E0FFFD"/>
<rect x="2" y="47" width="6" height="2" transform="rotate(-90 2 47)" fill="#0F9C94"/>
<rect x="4" y="4" width="2" height="2" fill="#008D7C"/>
<rect x="168" y="6" width="2" height="2" transform="rotate(90 168 6)" fill="#008D7C"/>
<rect x="166" y="41" width="2" height="2" transform="rotate(-180 166 41)" fill="#008D7C"/>
<rect x="2" y="39" width="2" height="2" transform="rotate(-90 2 39)" fill="#008D7C"/>
<rect x="2" y="6" width="2" height="2" fill="#008D7C"/>
<rect x="166" y="4" width="2" height="2" transform="rotate(90 166 4)" fill="#008D7C"/>
<rect x="168" y="39" width="2" height="2" transform="rotate(-180 168 39)" fill="#008D7C"/>
<rect x="4" y="41" width="2" height="2" transform="rotate(-90 4 41)" fill="#008D7C"/>
<rect x="168" y="47" width="2" height="6" transform="rotate(-180 168 47)" fill="#0F9C94"/>
<rect x="166" y="49" width="162" height="5.99999" transform="rotate(-180 166 49)" fill="#0F9C94"/>
<rect x="4" y="2" width="162" height="2" fill="#E0FFFD"/>
<rect x="4" y="41" width="162" height="2" fill="#E0FFFD"/>
<rect x="12" y="49" width="6" height="4" transform="rotate(-90 12 49)" fill="#AFEFEB"/>
<rect width="6" height="4" transform="matrix(-1.31134e-07 -1 -1 1.31134e-07 154 49)" fill="#AFEFEB"/>
<rect x="17" y="49" width="6" height="3" transform="rotate(-90 17 49)" fill="#AFEFEB"/>
<rect width="6" height="3" transform="matrix(-1.31134e-07 -1 -1 1.31134e-07 149 49)" fill="#AFEFEB"/>
<rect x="21" y="49" width="6" height="2" transform="rotate(-90 21 49)" fill="#AFEFEB"/>
<rect width="6" height="2" transform="matrix(-1.31134e-07 -1 -1 1.31134e-07 145 49)" fill="#AFEFEB"/>
<rect x="24" y="49" width="6" height="0.999999" transform="rotate(-90 24 49)" fill="#AFEFEB"/>
<rect width="6" height="0.999999" transform="matrix(-1.31134e-07 -1 -1 1.31134e-07 142 49)" fill="#AFEFEB"/>
<path d="M35.072 27.984V30H34.064H33.056H31.04H30.032H29.024V27.984H30.032H31.04V21.936V19.92H30.032H29.024V17.904H30.032H31.04H32.048H33.056H34.064H35.072V19.92H34.064H33.056V27.984H34.064H35.072ZM49.1894 21.936V18.912V17.904H51.2054V18.912V19.92V27.984V30H49.1894V27.984H48.1814V26.976H47.1734V25.968H46.1654V24.96H45.1574V23.952H44.1494V22.944H43.1414V21.936H42.1334V24.96V30H41.1254H40.1174V28.992V27.984V26.976V24.96V23.952V22.944V21.936V20.928V19.92V18.912V17.904H41.1254H42.1334V18.912H43.1414V19.92H44.1494V20.928H45.1574V21.936H46.1654V22.944H47.1734V23.952H48.1814V24.96H49.1894V21.936ZM64.3148 18.912V19.92V21.936V23.952V24.96V25.968H63.3068V26.976H62.2988V27.984H61.2908V28.992H60.2828V30H57.2588V28.992H56.2508V27.984H55.2428V26.976H54.2348V25.968H53.2268V24.96V23.952V21.936V19.92V18.912V17.904H54.2348H55.2428V18.912V19.92V23.952V24.96H56.2508V25.968H57.2588V26.976H58.2668V27.984H59.2748V26.976H60.2828V25.968H61.2908V24.96H62.2988V23.952V19.92V18.912V17.904H63.3068H64.3148V18.912ZM66.3361 19.92V18.912V17.904H67.3441H68.3521H71.3761H77.4241V19.92H76.4161H75.4081H73.3921H72.3841H71.3761H69.3601H68.3521V22.944H75.4081V24.96H68.3521V27.984H69.3601H71.3761H72.3841H73.3921H75.4081H76.4161H77.4241V30H71.3761H68.3521H67.3441H66.3361V28.992V27.984V26.976V24.96V23.952V22.944V21.936V20.928V19.92ZM88.5175 21.936V18.912V17.904H90.5335V18.912V19.92V27.984V30H88.5175V27.984H87.5095V26.976H86.5015V25.968H85.4935V24.96H84.4855V23.952H83.4775V22.944H82.4695V21.936H81.4615V24.96V30H80.4535H79.4455V28.992V27.984V26.976V24.96V23.952V22.944V21.936V20.928V19.92V18.912V17.904H80.4535H81.4615V18.912H82.4695V19.92H83.4775V20.928H84.4855V21.936H85.4935V22.944H86.5015V23.952H87.5095V24.96H88.5175V21.936ZM92.5549 19.92V18.912V17.904H93.5629H94.5709H97.5949H102.635V19.92H101.627H100.619H98.6029V24.96V30H96.5869V24.96V19.92H95.5789H92.5549ZM110.704 19.92H109.696H108.688V20.928H107.68V21.936V22.944V24.96V25.968V26.976H108.688V27.984H109.696H110.704H111.712H112.72H113.728V26.976H114.736V25.968V24.96V21.936V20.928H113.728V19.92H112.72H111.712H110.704ZM116.752 24.96V27.984H115.744V28.992H114.736V30H111.712H110.704H107.68V28.992H106.672V27.984H105.664V25.968V24.96V23.952V22.944V19.92H106.672V18.912H107.68V17.904H109.696H110.704H111.712H114.736V18.912H115.744V19.92H116.752V21.936V24.96ZM118.774 19.92V18.912V17.904H119.782H120.79H123.814H127.846V18.912H128.854V19.92H129.862V21.936V22.944V23.952H128.854V24.96H127.846V25.968V26.976H128.854V27.984H129.862V28.992V30H127.846V28.992H126.838V27.984H125.83V26.976H124.822V25.968H123.814H120.79V30H118.774V25.968V24.96V23.952V22.944V21.936V20.928V19.92ZM123.814 19.92H121.798H120.79V22.944V23.952H121.798H122.806H123.814H124.822H125.83H126.838V22.944H127.846V21.936V20.928H126.838V19.92H125.83H124.822H123.814ZM141.963 18.912V19.92V20.928V21.936H140.955V22.944H139.947V23.952H138.939V24.96H137.931V25.968V30H135.915V25.968V24.96H134.907V23.952H133.899V22.944H132.891V21.936H131.883V20.928V19.92V18.912V17.904H132.891H133.899V18.912V19.92V20.928H134.907V21.936H135.915V22.944H136.923H137.931V21.936H138.939V20.928H139.947V19.92V18.912V17.904H140.955H141.963V18.912Z" fill="#393939"/>
<path d="M35.072 25.984V28H34.064H33.056H31.04H30.032H29.024V25.984H30.032H31.04V19.936V17.92H30.032H29.024V15.904H30.032H31.04H32.048H33.056H34.064H35.072V17.92H34.064H33.056V25.984H34.064H35.072ZM49.1894 19.936V16.912V15.904H51.2054V16.912V17.92V25.984V28H49.1894V25.984H48.1814V24.976H47.1734V23.968H46.1654V22.96H45.1574V21.952H44.1494V20.944H43.1414V19.936H42.1334V22.96V28H41.1254H40.1174V26.992V25.984V24.976V22.96V21.952V20.944V19.936V18.928V17.92V16.912V15.904H41.1254H42.1334V16.912H43.1414V17.92H44.1494V18.928H45.1574V19.936H46.1654V20.944H47.1734V21.952H48.1814V22.96H49.1894V19.936ZM64.3148 16.912V17.92V19.936V21.952V22.96V23.968H63.3068V24.976H62.2988V25.984H61.2908V26.992H60.2828V28H57.2588V26.992H56.2508V25.984H55.2428V24.976H54.2348V23.968H53.2268V22.96V21.952V19.936V17.92V16.912V15.904H54.2348H55.2428V16.912V17.92V21.952V22.96H56.2508V23.968H57.2588V24.976H58.2668V25.984H59.2748V24.976H60.2828V23.968H61.2908V22.96H62.2988V21.952V17.92V16.912V15.904H63.3068H64.3148V16.912ZM66.3361 17.92V16.912V15.904H67.3441H68.3521H71.3761H77.4241V17.92H76.4161H75.4081H73.3921H72.3841H71.3761H69.3601H68.3521V20.944H75.4081V22.96H68.3521V25.984H69.3601H71.3761H72.3841H73.3921H75.4081H76.4161H77.4241V28H71.3761H68.3521H67.3441H66.3361V26.992V25.984V24.976V22.96V21.952V20.944V19.936V18.928V17.92ZM88.5175 19.936V16.912V15.904H90.5335V16.912V17.92V25.984V28H88.5175V25.984H87.5095V24.976H86.5015V23.968H85.4935V22.96H84.4855V21.952H83.4775V20.944H82.4695V19.936H81.4615V22.96V28H80.4535H79.4455V26.992V25.984V24.976V22.96V21.952V20.944V19.936V18.928V17.92V16.912V15.904H80.4535H81.4615V16.912H82.4695V17.92H83.4775V18.928H84.4855V19.936H85.4935V20.944H86.5015V21.952H87.5095V22.96H88.5175V19.936ZM92.5549 17.92V16.912V15.904H93.5629H94.5709H97.5949H102.635V17.92H101.627H100.619H98.6029V22.96V28H96.5869V22.96V17.92H95.5789H92.5549ZM110.704 17.92H109.696H108.688V18.928H107.68V19.936V20.944V22.96V23.968V24.976H108.688V25.984H109.696H110.704H111.712H112.72H113.728V24.976H114.736V23.968V22.96V19.936V18.928H113.728V17.92H112.72H111.712H110.704ZM116.752 22.96V25.984H115.744V26.992H114.736V28H111.712H110.704H107.68V26.992H106.672V25.984H105.664V23.968V22.96V21.952V20.944V17.92H106.672V16.912H107.68V15.904H109.696H110.704H111.712H114.736V16.912H115.744V17.92H116.752V19.936V22.96ZM118.774 17.92V16.912V15.904H119.782H120.79H123.814H127.846V16.912H128.854V17.92H129.862V19.936V20.944V21.952H128.854V22.96H127.846V23.968V24.976H128.854V25.984H129.862V26.992V28H127.846V26.992H126.838V25.984H125.83V24.976H124.822V23.968H123.814H120.79V28H118.774V23.968V22.96V21.952V20.944V19.936V18.928V17.92ZM123.814 17.92H121.798H120.79V20.944V21.952H121.798H122.806H123.814H124.822H125.83H126.838V20.944H127.846V19.936V18.928H126.838V17.92H125.83H124.822H123.814ZM141.963 16.912V17.92V18.928V19.936H140.955V20.944H139.947V21.952H138.939V22.96H137.931V23.968V28H135.915V23.968V22.96H134.907V21.952H133.899V20.944H132.891V19.936H131.883V18.928V17.92V16.912V15.904H132.891H133.899V16.912V17.92V18.928H134.907V19.936H135.915V20.944H136.923H137.931V19.936H138.939V18.928H139.947V17.92V16.912V15.904H140.955H141.963V16.912Z" fill="white"/>
</svg>
