<svg width="127" height="39" viewBox="0 0 127 39" fill="none" xmlns="http://www.w3.org/2000/svg">
<path fill-rule="evenodd" clip-rule="evenodd" d="M123.929 0.889648H3.92927V2.37113H123.929V0.889648ZM3.92854 2.37128H2.44706V3.85276H3.92854V2.37128ZM125.407 2.37128H123.926V3.85276H125.407V2.37128ZM125.407 35.7048H123.926V37.1858H3.92927V38.6673H123.929V37.1863H125.407V35.7048ZM125.408 3.85233H126.889V35.7042H125.408V3.85233ZM0.964844 3.85233H2.44633V35.7042H0.964844V3.85233ZM2.44706 35.7048H3.92854V37.1863H2.44706V35.7048Z" fill="black"/>
<path fill-rule="evenodd" clip-rule="evenodd" d="M123.924 2.37109H3.92362V3.85272H2.44141V34.9639H125.404V3.85272H123.924V2.37109Z" fill="#00D6BC"/>
<rect x="2.44141" y="3.85352" width="1.48148" height="1.48148" fill="#E0FFFD"/>
<rect x="2.44141" y="31.2607" width="1.48148" height="1.48148" transform="rotate(-90 2.44141 31.2607)" fill="#E0FFFD"/>
<rect x="2.44141" y="35.7051" width="4.44445" height="1.48148" transform="rotate(-90 2.44141 35.7051)" fill="#0F9C94"/>
<rect x="3.92188" y="3.85352" width="1.48148" height="1.48148" fill="#008D7C"/>
<rect x="2.44141" y="29.7793" width="1.48148" height="1.48148" transform="rotate(-90 2.44141 29.7793)" fill="#008D7C"/>
<rect x="2.44141" y="5.33496" width="1.48148" height="1.48148" fill="#008D7C"/>
<rect x="3.92188" y="31.2607" width="1.48148" height="1.48148" transform="rotate(-90 3.92188 31.2607)" fill="#008D7C"/>
<rect x="123.922" y="37.1875" width="120" height="4.44444" transform="rotate(-180 123.922 37.1875)" fill="#0F9C94"/>
<rect x="3.92188" y="2.37109" width="120" height="1.48148" fill="#E0FFFD"/>
<rect x="3.92188" y="31.2607" width="120" height="1.48148" fill="#E0FFFD"/>
<rect x="9.84766" y="37.1875" width="4.44445" height="2.96296" transform="rotate(-90 9.84766 37.1875)" fill="#AFEFEB"/>
<rect width="4.44445" height="2.96296" transform="matrix(-1.31134e-07 -1 -1 1.31134e-07 115.031 37.1875)" fill="#AFEFEB"/>
<rect x="13.5508" y="37.1875" width="4.44445" height="2.22222" transform="rotate(-90 13.5508 37.1875)" fill="#AFEFEB"/>
<rect width="4.44445" height="2.22222" transform="matrix(-1.31134e-07 -1 -1 1.31134e-07 111.328 37.1875)" fill="#AFEFEB"/>
<rect x="16.5156" y="37.1875" width="4.44445" height="1.48148" transform="rotate(-90 16.5156 37.1875)" fill="#AFEFEB"/>
<rect width="4.44445" height="1.48148" transform="matrix(-1.31134e-07 -1 -1 1.31134e-07 108.367 37.1875)" fill="#AFEFEB"/>
<rect x="18.7422" y="37.1875" width="4.44445" height="0.74074" transform="rotate(-90 18.7422 37.1875)" fill="#AFEFEB"/>
<rect width="4.44445" height="0.74074" transform="matrix(-1.31134e-07 -1 -1 1.31134e-07 106.145 37.1875)" fill="#AFEFEB"/>
<path d="M32.67 20.2224V21.4824H32.04H31.41H30.15H29.52H28.89V20.2224H29.52H30.15V16.4424V15.1824H29.52H28.89V13.9224H29.52H30.15H30.78H31.41H32.04H32.67V15.1824H32.04H31.41V20.2224H32.04H32.67ZM41.4934 16.4424V14.5524V13.9224H42.7534V14.5524V15.1824V20.2224V21.4824H41.4934V20.2224H40.8634V19.5924H40.2334V18.9624H39.6034V18.3324H38.9734V17.7024H38.3434V17.0724H37.7134V16.4424H37.0834V18.3324V21.4824H36.4534H35.8234V20.8524V20.2224V19.5924V18.3324V17.7024V17.0724V16.4424V15.8124V15.1824V14.5524V13.9224H36.4534H37.0834V14.5524H37.7134V15.1824H38.3434V15.8124H38.9734V16.4424H39.6034V17.0724H40.2334V17.7024H40.8634V18.3324H41.4934V16.4424ZM50.9467 14.5524V15.1824V16.4424V17.7024V18.3324V18.9624H50.3167V19.5924H49.6867V20.2224H49.0567V20.8524H48.4267V21.4824H46.5367V20.8524H45.9067V20.2224H45.2767V19.5924H44.6467V18.9624H44.0167V18.3324V17.7024V16.4424V15.1824V14.5524V13.9224H44.6467H45.2767V14.5524V15.1824V17.7024V18.3324H45.9067V18.9624H46.5367V19.5924H47.1667V20.2224H47.7967V19.5924H48.4267V18.9624H49.0567V18.3324H49.6867V17.7024V15.1824V14.5524V13.9224H50.3167H50.9467V14.5524ZM52.2101 15.1824V14.5524V13.9224H52.8401H53.4701H55.3601H59.1401V15.1824H58.5101H57.8801H56.6201H55.9901H55.3601H54.1001H53.4701V17.0724H57.8801V18.3324H53.4701V20.2224H54.1001H55.3601H55.9901H56.6201H57.8801H58.5101H59.1401V21.4824H55.3601H53.4701H52.8401H52.2101V20.8524V20.2224V19.5924V18.3324V17.7024V17.0724V16.4424V15.8124V15.1824ZM66.0734 16.4424V14.5524V13.9224H67.3334V14.5524V15.1824V20.2224V21.4824H66.0734V20.2224H65.4434V19.5924H64.8134V18.9624H64.1834V18.3324H63.5534V17.7024H62.9234V17.0724H62.2934V16.4424H61.6634V18.3324V21.4824H61.0334H60.4034V20.8524V20.2224V19.5924V18.3324V17.7024V17.0724V16.4424V15.8124V15.1824V14.5524V13.9224H61.0334H61.6634V14.5524H62.2934V15.1824H62.9234V15.8124H63.5534V16.4424H64.1834V17.0724H64.8134V17.7024H65.4434V18.3324H66.0734V16.4424ZM68.5968 15.1824V14.5524V13.9224H69.2268H69.8568H71.7468H74.8968V15.1824H74.2668H73.6368H72.3768V18.3324V21.4824H71.1168V18.3324V15.1824H70.4868H68.5968ZM79.9402 15.1824H79.3102H78.6802V15.8124H78.0502V16.4424V17.0724V18.3324V18.9624V19.5924H78.6802V20.2224H79.3102H79.9402H80.5702H81.2002H81.8302V19.5924H82.4602V18.9624V18.3324V16.4424V15.8124H81.8302V15.1824H81.2002H80.5702H79.9402ZM83.7202 18.3324V20.2224H83.0902V20.8524H82.4602V21.4824H80.5702H79.9402H78.0502V20.8524H77.4202V20.2224H76.7902V18.9624V18.3324V17.7024V17.0724V15.1824H77.4202V14.5524H78.0502V13.9224H79.3102H79.9402H80.5702H82.4602V14.5524H83.0902V15.1824H83.7202V16.4424V18.3324ZM84.9835 15.1824V14.5524V13.9224H85.6135H86.2435H88.1335H90.6535V14.5524H91.2835V15.1824H91.9135V16.4424V17.0724V17.7024H91.2835V18.3324H90.6535V18.9624V19.5924H91.2835V20.2224H91.9135V20.8524V21.4824H90.6535V20.8524H90.0235V20.2224H89.3935V19.5924H88.7635V18.9624H88.1335H86.2435V21.4824H84.9835V18.9624V18.3324V17.7024V17.0724V16.4424V15.8124V15.1824ZM88.1335 15.1824H86.8735H86.2435V17.0724V17.7024H86.8735H87.5035H88.1335H88.7635H89.3935H90.0235V17.0724H90.6535V16.4424V15.8124H90.0235V15.1824H89.3935H88.7635H88.1335ZM99.4769 14.5524V15.1824V15.8124V16.4424H98.8469V17.0724H98.2169V17.7024H97.5869V18.3324H96.9569V18.9624V21.4824H95.6969V18.9624V18.3324H95.0669V17.7024H94.4369V17.0724H93.8069V16.4424H93.1769V15.8124V15.1824V14.5524V13.9224H93.8069H94.4369V14.5524V15.1824V15.8124H95.0669V16.4424H95.6969V17.0724H96.3269H96.9569V16.4424H97.5869V15.8124H98.2169V15.1824V14.5524V13.9224H98.8469H99.4769V14.5524Z" fill="#393939"/>
<path d="M32.67 18.741V20.001H32.04H31.41H30.15H29.52H28.89V18.741H29.52H30.15V14.961V13.701H29.52H28.89V12.441H29.52H30.15H30.78H31.41H32.04H32.67V13.701H32.04H31.41V18.741H32.04H32.67ZM41.4934 14.961V13.071V12.441H42.7534V13.071V13.701V18.741V20.001H41.4934V18.741H40.8634V18.111H40.2334V17.481H39.6034V16.851H38.9734V16.221H38.3434V15.591H37.7134V14.961H37.0834V16.851V20.001H36.4534H35.8234V19.371V18.741V18.111V16.851V16.221V15.591V14.961V14.331V13.701V13.071V12.441H36.4534H37.0834V13.071H37.7134V13.701H38.3434V14.331H38.9734V14.961H39.6034V15.591H40.2334V16.221H40.8634V16.851H41.4934V14.961ZM50.9467 13.071V13.701V14.961V16.221V16.851V17.481H50.3167V18.111H49.6867V18.741H49.0567V19.371H48.4267V20.001H46.5367V19.371H45.9067V18.741H45.2767V18.111H44.6467V17.481H44.0167V16.851V16.221V14.961V13.701V13.071V12.441H44.6467H45.2767V13.071V13.701V16.221V16.851H45.9067V17.481H46.5367V18.111H47.1667V18.741H47.7967V18.111H48.4267V17.481H49.0567V16.851H49.6867V16.221V13.701V13.071V12.441H50.3167H50.9467V13.071ZM52.2101 13.701V13.071V12.441H52.8401H53.4701H55.3601H59.1401V13.701H58.5101H57.8801H56.6201H55.9901H55.3601H54.1001H53.4701V15.591H57.8801V16.851H53.4701V18.741H54.1001H55.3601H55.9901H56.6201H57.8801H58.5101H59.1401V20.001H55.3601H53.4701H52.8401H52.2101V19.371V18.741V18.111V16.851V16.221V15.591V14.961V14.331V13.701ZM66.0734 14.961V13.071V12.441H67.3334V13.071V13.701V18.741V20.001H66.0734V18.741H65.4434V18.111H64.8134V17.481H64.1834V16.851H63.5534V16.221H62.9234V15.591H62.2934V14.961H61.6634V16.851V20.001H61.0334H60.4034V19.371V18.741V18.111V16.851V16.221V15.591V14.961V14.331V13.701V13.071V12.441H61.0334H61.6634V13.071H62.2934V13.701H62.9234V14.331H63.5534V14.961H64.1834V15.591H64.8134V16.221H65.4434V16.851H66.0734V14.961ZM68.5968 13.701V13.071V12.441H69.2268H69.8568H71.7468H74.8968V13.701H74.2668H73.6368H72.3768V16.851V20.001H71.1168V16.851V13.701H70.4868H68.5968ZM79.9402 13.701H79.3102H78.6802V14.331H78.0502V14.961V15.591V16.851V17.481V18.111H78.6802V18.741H79.3102H79.9402H80.5702H81.2002H81.8302V18.111H82.4602V17.481V16.851V14.961V14.331H81.8302V13.701H81.2002H80.5702H79.9402ZM83.7202 16.851V18.741H83.0902V19.371H82.4602V20.001H80.5702H79.9402H78.0502V19.371H77.4202V18.741H76.7902V17.481V16.851V16.221V15.591V13.701H77.4202V13.071H78.0502V12.441H79.3102H79.9402H80.5702H82.4602V13.071H83.0902V13.701H83.7202V14.961V16.851ZM84.9835 13.701V13.071V12.441H85.6135H86.2435H88.1335H90.6535V13.071H91.2835V13.701H91.9135V14.961V15.591V16.221H91.2835V16.851H90.6535V17.481V18.111H91.2835V18.741H91.9135V19.371V20.001H90.6535V19.371H90.0235V18.741H89.3935V18.111H88.7635V17.481H88.1335H86.2435V20.001H84.9835V17.481V16.851V16.221V15.591V14.961V14.331V13.701ZM88.1335 13.701H86.8735H86.2435V15.591V16.221H86.8735H87.5035H88.1335H88.7635H89.3935H90.0235V15.591H90.6535V14.961V14.331H90.0235V13.701H89.3935H88.7635H88.1335ZM99.4769 13.071V13.701V14.331V14.961H98.8469V15.591H98.2169V16.221H97.5869V16.851H96.9569V17.481V20.001H95.6969V17.481V16.851H95.0669V16.221H94.4369V15.591H93.8069V14.961H93.1769V14.331V13.701V13.071V12.441H93.8069H94.4369V13.071V13.701V14.331H95.0669V14.961H95.6969V15.591H96.3269H96.9569V14.961H97.5869V14.331H98.2169V13.701V13.071V12.441H98.8469H99.4769V13.071Z" fill="white"/>
</svg>
