<svg width="131" height="39" viewBox="0 0 131 39" fill="none" xmlns="http://www.w3.org/2000/svg">
<path fill-rule="evenodd" clip-rule="evenodd" d="M127.913 0.780273H4.02746V2.26177H127.906V3.74289H129.436V2.26139H127.913V0.780273ZM4.02167 2.26139H2.49222V3.74289H4.02167V2.26139ZM129.436 35.5959H127.906V37.0771H4.02746V38.5586H127.913V37.0774H129.436V35.5959ZM129.434 3.7435H130.963V35.5958H129.434V3.7435ZM0.964844 3.7435H2.49429V35.5958H0.964844V3.7435ZM2.49222 35.5959H4.02167V37.0774H2.49222V35.5959Z" fill="black"/>
<path fill-rule="evenodd" clip-rule="evenodd" d="M127.901 2.26172H4.01566V3.74284H2.48828V34.8544H129.433V3.74284H127.901V2.26172Z" fill="#DDD400"/>
<rect x="2.48828" y="3.74316" width="1.52945" height="1.4815" fill="#FFF8B8"/>
<rect x="129.43" y="3.74316" width="1.4815" height="1.52945" transform="rotate(90 129.43 3.74316)" fill="#FFF8B8"/>
<rect x="129.43" y="31.1514" width="1.52945" height="1.4815" transform="rotate(-180 129.43 31.1514)" fill="#FFF8B8"/>
<rect x="2.48828" y="31.1514" width="1.4815" height="1.52945" transform="rotate(-90 2.48828 31.1514)" fill="#FFF8B8"/>
<rect x="2.48828" y="35.5957" width="4.4445" height="1.52945" transform="rotate(-90 2.48828 35.5957)" fill="#B4A200"/>
<rect x="4.01953" y="3.74316" width="1.52945" height="1.4815" fill="#BBA800"/>
<rect x="129.43" y="5.22461" width="1.4815" height="1.52945" transform="rotate(90 129.43 5.22461)" fill="#BBA800"/>
<rect x="127.902" y="31.1514" width="1.52945" height="1.4815" transform="rotate(-180 127.902 31.1514)" fill="#BBA800"/>
<rect x="2.48828" y="29.6719" width="1.4815" height="1.52945" transform="rotate(-90 2.48828 29.6719)" fill="#BBA800"/>
<rect x="2.48828" y="5.22461" width="1.52945" height="1.4815" fill="#BBA800"/>
<rect x="127.902" y="3.74316" width="1.4815" height="1.52945" transform="rotate(90 127.902 3.74316)" fill="#BBA800"/>
<rect x="129.43" y="29.6719" width="1.52945" height="1.4815" transform="rotate(-180 129.43 29.6719)" fill="#BBA800"/>
<rect x="4.01953" y="31.1514" width="1.4815" height="1.52945" transform="rotate(-90 4.01953 31.1514)" fill="#BBA800"/>
<rect x="129.43" y="35.5957" width="1.52945" height="4.4445" transform="rotate(-180 129.43 35.5957)" fill="#B4A200"/>
<rect x="127.902" y="37.0781" width="123.885" height="4.44449" transform="rotate(-180 127.902 37.0781)" fill="#B4A200"/>
<rect x="4.01953" y="2.2627" width="123.885" height="1.4815" fill="#FFF8B8"/>
<rect x="4.01953" y="31.1514" width="123.885" height="1.4815" fill="#FFF8B8"/>
<rect x="10.1367" y="37.0781" width="4.4445" height="3.0589" transform="rotate(-90 10.1367 37.0781)" fill="#FFED4F"/>
<rect width="4.4445" height="3.0589" transform="matrix(-1.35378e-07 -1 -1 1.27023e-07 118.723 37.0781)" fill="#FFED4F"/>
<rect x="13.957" y="37.0781" width="4.4445" height="2.29417" transform="rotate(-90 13.957 37.0781)" fill="#FFED4F"/>
<rect width="4.4445" height="2.29417" transform="matrix(-1.35378e-07 -1 -1 1.27023e-07 114.898 37.0781)" fill="#FFED4F"/>
<rect x="17.0195" y="37.0781" width="4.4445" height="1.52945" transform="rotate(-90 17.0195 37.0781)" fill="#FFED4F"/>
<rect width="4.4445" height="1.52945" transform="matrix(-1.35378e-07 -1 -1 1.27023e-07 111.844 37.0781)" fill="#FFED4F"/>
<rect x="19.3164" y="37.0781" width="4.4445" height="0.764724" transform="rotate(-90 19.3164 37.0781)" fill="#FFED4F"/>
<rect width="4.4445" height="0.764724" transform="matrix(-1.35378e-07 -1 -1 1.27023e-07 109.551 37.0781)" fill="#FFED4F"/>
<path d="M42.4016 20.6328H37.9916H37.3616H36.7316V20.0028V19.3728V18.7428V17.4828V16.8528V16.2228V15.5928V14.9628V14.3328V13.7028V13.0728H37.3616H37.9916V19.3728H42.4016V18.1128H43.6616V19.3728V20.6328H42.4016ZM48.0749 14.3328H47.4449H46.8149V14.9628H46.1849V15.5928V16.2228V17.4828V18.1128V18.7428H46.8149V19.3728H47.4449H48.0749H48.7049H49.3349H49.9649V18.7428H50.5949V18.1128V17.4828V15.5928V14.9628H49.9649V14.3328H49.3349H48.7049H48.0749ZM51.8549 17.4828V19.3728H51.2249V20.0028H50.5949V20.6328H48.7049H48.0749H46.1849V20.0028H45.5549V19.3728H44.9249V18.1128V17.4828V16.8528V16.2228V14.3328H45.5549V13.7028H46.1849V13.0728H47.4449H48.0749H48.7049H50.5949V13.7028H51.2249V14.3328H51.8549V15.5928V17.4828ZM53.1183 14.3328V13.7028V13.0728H53.7483H54.3783H56.2683H59.4183V14.3328H58.7883H58.1583H56.8983V17.4828V20.6328H55.6383V17.4828V14.3328H55.0083H53.1183ZM61.3116 14.3328V13.7028V13.0728H61.9416H62.5716H64.4616H67.6116V14.3328H66.9816H66.3516H65.0916V17.4828V20.6328H63.8316V17.4828V14.3328H63.2016H61.3116ZM69.505 14.3328V13.7028V13.0728H70.135H70.765H72.655H76.435V14.3328H75.805H75.175H73.915H73.285H72.655H71.395H70.765V16.2228H75.175V17.4828H70.765V19.3728H71.395H72.655H73.285H73.915H75.175H75.805H76.435V20.6328H72.655H70.765H70.135H69.505V20.0028V19.3728V18.7428V17.4828V16.8528V16.2228V15.5928V14.9628V14.3328ZM77.6984 14.3328V13.7028V13.0728H78.3284H78.9584H80.8484H83.3684V13.7028H83.9984V14.3328H84.6284V15.5928V16.2228V16.8528H83.9984V17.4828H83.3684V18.1128V18.7428H83.9984V19.3728H84.6284V20.0028V20.6328H83.3684V20.0028H82.7384V19.3728H82.1084V18.7428H81.4784V18.1128H80.8484H78.9584V20.6328H77.6984V18.1128V17.4828V16.8528V16.2228V15.5928V14.9628V14.3328ZM80.8484 14.3328H79.5884H78.9584V16.2228V16.8528H79.5884H80.2184H80.8484H81.4784H82.1084H82.7384V16.2228H83.3684V15.5928V14.9628H82.7384V14.3328H82.1084H81.4784H80.8484ZM92.1917 13.7028V14.3328V14.9628V15.5928H91.5617V16.2228H90.9317V16.8528H90.3017V17.4828H89.6717V18.1128V20.6328H88.4117V18.1128V17.4828H87.7817V16.8528H87.1517V16.2228H86.5217V15.5928H85.8917V14.9628V14.3328V13.7028V13.0728H86.5217H87.1517V13.7028V14.3328V14.9628H87.7817V15.5928H88.4117V16.2228H89.0417H89.6717V15.5928H90.3017V14.9628H90.9317V14.3328V13.7028V13.0728H91.5617H92.1917V13.7028Z" fill="#393939"/>
<path d="M42.4016 19.1514H37.9916H37.3616H36.7316V18.5214V17.8914V17.2614V16.0014V15.3714V14.7414V14.1114V13.4814V12.8514V12.2214V11.5914H37.3616H37.9916V17.8914H42.4016V16.6314H43.6616V17.8914V19.1514H42.4016ZM48.0749 12.8514H47.4449H46.8149V13.4814H46.1849V14.1114V14.7414V16.0014V16.6314V17.2614H46.8149V17.8914H47.4449H48.0749H48.7049H49.3349H49.9649V17.2614H50.5949V16.6314V16.0014V14.1114V13.4814H49.9649V12.8514H49.3349H48.7049H48.0749ZM51.8549 16.0014V17.8914H51.2249V18.5214H50.5949V19.1514H48.7049H48.0749H46.1849V18.5214H45.5549V17.8914H44.9249V16.6314V16.0014V15.3714V14.7414V12.8514H45.5549V12.2214H46.1849V11.5914H47.4449H48.0749H48.7049H50.5949V12.2214H51.2249V12.8514H51.8549V14.1114V16.0014ZM53.1183 12.8514V12.2214V11.5914H53.7483H54.3783H56.2683H59.4183V12.8514H58.7883H58.1583H56.8983V16.0014V19.1514H55.6383V16.0014V12.8514H55.0083H53.1183ZM61.3116 12.8514V12.2214V11.5914H61.9416H62.5716H64.4616H67.6116V12.8514H66.9816H66.3516H65.0916V16.0014V19.1514H63.8316V16.0014V12.8514H63.2016H61.3116ZM69.505 12.8514V12.2214V11.5914H70.135H70.765H72.655H76.435V12.8514H75.805H75.175H73.915H73.285H72.655H71.395H70.765V14.7414H75.175V16.0014H70.765V17.8914H71.395H72.655H73.285H73.915H75.175H75.805H76.435V19.1514H72.655H70.765H70.135H69.505V18.5214V17.8914V17.2614V16.0014V15.3714V14.7414V14.1114V13.4814V12.8514ZM77.6984 12.8514V12.2214V11.5914H78.3284H78.9584H80.8484H83.3684V12.2214H83.9984V12.8514H84.6284V14.1114V14.7414V15.3714H83.9984V16.0014H83.3684V16.6314V17.2614H83.9984V17.8914H84.6284V18.5214V19.1514H83.3684V18.5214H82.7384V17.8914H82.1084V17.2614H81.4784V16.6314H80.8484H78.9584V19.1514H77.6984V16.6314V16.0014V15.3714V14.7414V14.1114V13.4814V12.8514ZM80.8484 12.8514H79.5884H78.9584V14.7414V15.3714H79.5884H80.2184H80.8484H81.4784H82.1084H82.7384V14.7414H83.3684V14.1114V13.4814H82.7384V12.8514H82.1084H81.4784H80.8484ZM92.1917 12.2214V12.8514V13.4814V14.1114H91.5617V14.7414H90.9317V15.3714H90.3017V16.0014H89.6717V16.6314V19.1514H88.4117V16.6314V16.0014H87.7817V15.3714H87.1517V14.7414H86.5217V14.1114H85.8917V13.4814V12.8514V12.2214V11.5914H86.5217H87.1517V12.2214V12.8514V13.4814H87.7817V14.1114H88.4117V14.7414H89.0417H89.6717V14.1114H90.3017V13.4814H90.9317V12.8514V12.2214V11.5914H91.5617H92.1917V12.2214Z" fill="white"/>
</svg>
