<svg width="122" height="51" viewBox="0 0 170 51" fill="none" xmlns="http://www.w3.org/2000/svg">
<path fill-rule="evenodd" clip-rule="evenodd" d="M166 0H4V2H2V4H0V47H2V49H4V51H166V49H168V47H170V4H168V2H166V0ZM166 2V4H168V47H166V49H4V47H2V4H4V2H166Z" fill="black"/>
<path fill-rule="evenodd" clip-rule="evenodd" d="M166 2H4V4H2V46H168V4H166V2Z" fill="#DDD400"/>
<rect x="2" y="4" width="2" height="2" fill="#FFF8B8"/>
<rect x="168" y="4" width="2" height="2" transform="rotate(90 168 4)" fill="#FFF8B8"/>
<rect x="168" y="41" width="2" height="2" transform="rotate(-180 168 41)" fill="#FFF8B8"/>
<rect x="2" y="41" width="2" height="2" transform="rotate(-90 2 41)" fill="#FFF8B8"/>
<rect x="2" y="47" width="6" height="2" transform="rotate(-90 2 47)" fill="#B4A200"/>
<rect x="4" y="4" width="2" height="2" fill="#BBA800"/>
<rect x="168" y="6" width="2" height="2" transform="rotate(90 168 6)" fill="#BBA800"/>
<rect x="166" y="41" width="2" height="2" transform="rotate(-180 166 41)" fill="#BBA800"/>
<rect x="2" y="39" width="2" height="2" transform="rotate(-90 2 39)" fill="#BBA800"/>
<rect x="2" y="6" width="2" height="2" fill="#BBA800"/>
<rect x="166" y="4" width="2" height="2" transform="rotate(90 166 4)" fill="#BBA800"/>
<rect x="168" y="39" width="2" height="2" transform="rotate(-180 168 39)" fill="#BBA800"/>
<rect x="4" y="41" width="2" height="2" transform="rotate(-90 4 41)" fill="#BBA800"/>
<rect x="168" y="47" width="2" height="6" transform="rotate(-180 168 47)" fill="#B4A200"/>
<rect x="166" y="49" width="162" height="5.99999" transform="rotate(-180 166 49)" fill="#B4A200"/>
<rect x="4" y="2" width="162" height="2" fill="#FFF8B8"/>
<rect x="4" y="41" width="162" height="2" fill="#FFF8B8"/>
<rect x="12" y="49" width="6" height="4" transform="rotate(-90 12 49)" fill="#FFED4F"/>
<rect width="6" height="4" transform="matrix(-1.31134e-07 -1 -1 1.31134e-07 154 49)" fill="#FFED4F"/>
<rect x="17" y="49" width="6" height="3" transform="rotate(-90 17 49)" fill="#FFED4F"/>
<rect width="6" height="3" transform="matrix(-1.31134e-07 -1 -1 1.31134e-07 149 49)" fill="#FFED4F"/>
<rect x="21" y="49" width="6" height="2" transform="rotate(-90 21 49)" fill="#FFED4F"/>
<rect width="6" height="2" transform="matrix(-1.31134e-07 -1 -1 1.31134e-07 145 49)" fill="#FFED4F"/>
<rect x="24" y="49" width="6" height="0.999999" transform="rotate(-90 24 49)" fill="#FFED4F"/>
<rect width="6" height="0.999999" transform="matrix(-1.31134e-07 -1 -1 1.31134e-07 142 49)" fill="#FFED4F"/>
<path d="M40.6 32H31.78H30.52H29.26V30.74V29.48V28.22V25.7V24.44V23.18V21.92V20.66V19.4V18.14V16.88H30.52H31.78V29.48H40.6V26.96H43.12V29.48V32H40.6ZM51.9467 19.4H50.6867H49.4267V20.66H48.1667V21.92V23.18V25.7V26.96V28.22H49.4267V29.48H50.6867H51.9467H53.2067H54.4667H55.7267V28.22H56.9867V26.96V25.7V21.92V20.66H55.7267V19.4H54.4667H53.2067H51.9467ZM59.5067 25.7V29.48H58.2467V30.74H56.9867V32H53.2067H51.9467H48.1667V30.74H46.9067V29.48H45.6467V26.96V25.7V24.44V23.18V19.4H46.9067V18.14H48.1667V16.88H50.6867H51.9467H53.2067H56.9867V18.14H58.2467V19.4H59.5067V21.92V25.7ZM62.0334 19.4V18.14V16.88H63.2934H64.5534H68.3334H74.6334V19.4H73.3734H72.1134H69.5934V25.7V32H67.0734V25.7V19.4H65.8134H62.0334ZM78.4202 19.4V18.14V16.88H79.6802H80.9402H84.7202H91.0202V19.4H89.7602H88.5002H85.9802V25.7V32H83.4602V25.7V19.4H82.2002H78.4202ZM94.8069 19.4V18.14V16.88H96.0669H97.3269H101.107H108.667V19.4H107.407H106.147H103.627H102.367H101.107H98.5869H97.3269V23.18H106.147V25.7H97.3269V29.48H98.5869H101.107H102.367H103.627H106.147H107.407H108.667V32H101.107H97.3269H96.0669H94.8069V30.74V29.48V28.22V25.7V24.44V23.18V21.92V20.66V19.4ZM111.194 19.4V18.14V16.88H112.454H113.714H117.494H122.534V18.14H123.794V19.4H125.054V21.92V23.18V24.44H123.794V25.7H122.534V26.96V28.22H123.794V29.48H125.054V30.74V32H122.534V30.74H121.274V29.48H120.014V28.22H118.754V26.96H117.494H113.714V32H111.194V26.96V25.7V24.44V23.18V21.92V20.66V19.4ZM117.494 19.4H114.974H113.714V23.18V24.44H114.974H116.234H117.494H118.754H120.014H121.274V23.18H122.534V21.92V20.66H121.274V19.4H120.014H118.754H117.494ZM140.18 18.14V19.4V20.66V21.92H138.92V23.18H137.66V24.44H136.4V25.7H135.14V26.96V32H132.62V26.96V25.7H131.36V24.44H130.1V23.18H128.84V21.92H127.58V20.66V19.4V18.14V16.88H128.84H130.1V18.14V19.4V20.66H131.36V21.92H132.62V23.18H133.88H135.14V21.92H136.4V20.66H137.66V19.4V18.14V16.88H138.92H140.18V18.14Z" fill="#393939"/>
<path d="M40.6 30H31.78H30.52H29.26V28.74V27.48V26.22V23.7V22.44V21.18V19.92V18.66V17.4V16.14V14.88H30.52H31.78V27.48H40.6V24.96H43.12V27.48V30H40.6ZM51.9467 17.4H50.6867H49.4267V18.66H48.1667V19.92V21.18V23.7V24.96V26.22H49.4267V27.48H50.6867H51.9467H53.2067H54.4667H55.7267V26.22H56.9867V24.96V23.7V19.92V18.66H55.7267V17.4H54.4667H53.2067H51.9467ZM59.5067 23.7V27.48H58.2467V28.74H56.9867V30H53.2067H51.9467H48.1667V28.74H46.9067V27.48H45.6467V24.96V23.7V22.44V21.18V17.4H46.9067V16.14H48.1667V14.88H50.6867H51.9467H53.2067H56.9867V16.14H58.2467V17.4H59.5067V19.92V23.7ZM62.0334 17.4V16.14V14.88H63.2934H64.5534H68.3334H74.6334V17.4H73.3734H72.1134H69.5934V23.7V30H67.0734V23.7V17.4H65.8134H62.0334ZM78.4202 17.4V16.14V14.88H79.6802H80.9402H84.7202H91.0202V17.4H89.7602H88.5002H85.9802V23.7V30H83.4602V23.7V17.4H82.2002H78.4202ZM94.8069 17.4V16.14V14.88H96.0669H97.3269H101.107H108.667V17.4H107.407H106.147H103.627H102.367H101.107H98.5869H97.3269V21.18H106.147V23.7H97.3269V27.48H98.5869H101.107H102.367H103.627H106.147H107.407H108.667V30H101.107H97.3269H96.0669H94.8069V28.74V27.48V26.22V23.7V22.44V21.18V19.92V18.66V17.4ZM111.194 17.4V16.14V14.88H112.454H113.714H117.494H122.534V16.14H123.794V17.4H125.054V19.92V21.18V22.44H123.794V23.7H122.534V24.96V26.22H123.794V27.48H125.054V28.74V30H122.534V28.74H121.274V27.48H120.014V26.22H118.754V24.96H117.494H113.714V30H111.194V24.96V23.7V22.44V21.18V19.92V18.66V17.4ZM117.494 17.4H114.974H113.714V21.18V22.44H114.974H116.234H117.494H118.754H120.014H121.274V21.18H122.534V19.92V18.66H121.274V17.4H120.014H118.754H117.494ZM140.18 16.14V17.4V18.66V19.92H138.92V21.18H137.66V22.44H136.4V23.7H135.14V24.96V30H132.62V24.96V23.7H131.36V22.44H130.1V21.18H128.84V19.92H127.58V18.66V17.4V16.14V14.88H128.84H130.1V16.14V17.4V18.66H131.36V19.92H132.62V21.18H133.88H135.14V19.92H136.4V18.66H137.66V17.4V16.14V14.88H138.92H140.18V16.14Z" fill="white"/>
</svg>
