<svg width="127" height="39" viewBox="0 0 127 39" fill="none" xmlns="http://www.w3.org/2000/svg">
<path fill-rule="evenodd" clip-rule="evenodd" d="M123.929 0.780273H3.92927V2.26176H123.929V0.780273ZM3.92854 2.2619H2.44706V3.74339H3.92854V2.2619ZM125.407 2.2619H123.926V3.74339H125.407V2.2619ZM125.407 35.5954H123.926V37.0764H3.92927V38.5579H123.929V37.0769H125.407V35.5954ZM125.408 3.74295H126.889V35.5948H125.408V3.74295ZM0.964844 3.74295H2.44633V35.5948H0.964844V3.74295ZM2.44706 35.5954H3.92854V37.0769H2.44706V35.5954Z" fill="black"/>
<path fill-rule="evenodd" clip-rule="evenodd" d="M123.924 2.26172H3.92362V3.74335H2.44141V34.8545H125.404V3.74335H123.924V2.26172Z" fill="#DDD400"/>
<rect x="2.44141" y="3.74316" width="1.48148" height="1.48148" fill="#FFF8B8"/>
<rect x="125.402" y="3.74316" width="1.48148" height="1.48148" transform="rotate(90 125.402 3.74316)" fill="#FFF8B8"/>
<rect x="125.402" y="31.1514" width="1.48148" height="1.48148" transform="rotate(-180 125.402 31.1514)" fill="#FFF8B8"/>
<rect x="2.44141" y="31.1514" width="1.48148" height="1.48148" transform="rotate(-90 2.44141 31.1514)" fill="#FFF8B8"/>
<rect x="2.44141" y="35.5957" width="4.44445" height="1.48148" transform="rotate(-90 2.44141 35.5957)" fill="#B4A200"/>
<rect x="3.92188" y="3.74316" width="1.48148" height="1.48148" fill="#BBA800"/>
<rect x="125.402" y="5.22461" width="1.48148" height="1.48148" transform="rotate(90 125.402 5.22461)" fill="#BBA800"/>
<rect x="123.922" y="31.1514" width="1.48148" height="1.48148" transform="rotate(-180 123.922 31.1514)" fill="#BBA800"/>
<rect x="2.44141" y="29.6709" width="1.48148" height="1.48148" transform="rotate(-90 2.44141 29.6709)" fill="#BBA800"/>
<rect x="2.44141" y="5.22461" width="1.48148" height="1.48148" fill="#BBA800"/>
<rect x="123.922" y="3.74316" width="1.48148" height="1.48148" transform="rotate(90 123.922 3.74316)" fill="#BBA800"/>
<rect x="125.402" y="29.6709" width="1.48148" height="1.48148" transform="rotate(-180 125.402 29.6709)" fill="#BBA800"/>
<rect x="3.92188" y="31.1514" width="1.48148" height="1.48148" transform="rotate(-90 3.92188 31.1514)" fill="#BBA800"/>
<rect x="125.402" y="35.5957" width="1.48148" height="4.44445" transform="rotate(-180 125.402 35.5957)" fill="#B4A200"/>
<rect x="123.922" y="37.0771" width="120" height="4.44444" transform="rotate(-180 123.922 37.0771)" fill="#B4A200"/>
<rect x="3.92188" y="2.2627" width="120" height="1.48148" fill="#FFF8B8"/>
<rect x="3.92188" y="31.1514" width="120" height="1.48148" fill="#FFF8B8"/>
<rect x="9.84766" y="37.0771" width="4.44445" height="2.96296" transform="rotate(-90 9.84766 37.0771)" fill="#FFED4F"/>
<rect width="4.44445" height="2.96296" transform="matrix(-1.31134e-07 -1 -1 1.31134e-07 115.031 37.0771)" fill="#FFED4F"/>
<rect x="13.5508" y="37.0771" width="4.44445" height="2.22222" transform="rotate(-90 13.5508 37.0771)" fill="#FFED4F"/>
<rect width="4.44445" height="2.22222" transform="matrix(-1.31134e-07 -1 -1 1.31134e-07 111.328 37.0771)" fill="#FFED4F"/>
<rect x="16.5156" y="37.0771" width="4.44445" height="1.48148" transform="rotate(-90 16.5156 37.0771)" fill="#FFED4F"/>
<rect width="4.44445" height="1.48148" transform="matrix(-1.31134e-07 -1 -1 1.31134e-07 108.367 37.0771)" fill="#FFED4F"/>
<rect x="18.7422" y="37.0771" width="4.44445" height="0.74074" transform="rotate(-90 18.7422 37.0771)" fill="#FFED4F"/>
<rect width="4.44445" height="0.74074" transform="matrix(-1.31134e-07 -1 -1 1.31134e-07 106.145 37.0771)" fill="#FFED4F"/>
<path d="M41.3 20.6328H36.89H36.26H35.63V20.0028V19.3728V18.7428V17.4828V16.8528V16.2228V15.5928V14.9628V14.3328V13.7028V13.0728H36.26H36.89V19.3728H41.3V18.1128H42.56V19.3728V20.6328H41.3ZM46.9734 14.3328H46.3434H45.7134V14.9628H45.0834V15.5928V16.2228V17.4828V18.1128V18.7428H45.7134V19.3728H46.3434H46.9734H47.6034H48.2334H48.8634V18.7428H49.4934V18.1128V17.4828V15.5928V14.9628H48.8634V14.3328H48.2334H47.6034H46.9734ZM50.7534 17.4828V19.3728H50.1234V20.0028H49.4934V20.6328H47.6034H46.9734H45.0834V20.0028H44.4534V19.3728H43.8234V18.1128V17.4828V16.8528V16.2228V14.3328H44.4534V13.7028H45.0834V13.0728H46.3434H46.9734H47.6034H49.4934V13.7028H50.1234V14.3328H50.7534V15.5928V17.4828ZM52.0167 14.3328V13.7028V13.0728H52.6467H53.2767H55.1667H58.3167V14.3328H57.6867H57.0567H55.7967V17.4828V20.6328H54.5367V17.4828V14.3328H53.9067H52.0167ZM60.2101 14.3328V13.7028V13.0728H60.8401H61.4701H63.3601H66.5101V14.3328H65.8801H65.2501H63.9901V17.4828V20.6328H62.7301V17.4828V14.3328H62.1001H60.2101ZM68.4034 14.3328V13.7028V13.0728H69.0334H69.6634H71.5534H75.3334V14.3328H74.7034H74.0734H72.8134H72.1834H71.5534H70.2934H69.6634V16.2228H74.0734V17.4828H69.6634V19.3728H70.2934H71.5534H72.1834H72.8134H74.0734H74.7034H75.3334V20.6328H71.5534H69.6634H69.0334H68.4034V20.0028V19.3728V18.7428V17.4828V16.8528V16.2228V15.5928V14.9628V14.3328ZM76.5968 14.3328V13.7028V13.0728H77.2268H77.8568H79.7468H82.2668V13.7028H82.8968V14.3328H83.5268V15.5928V16.2228V16.8528H82.8968V17.4828H82.2668V18.1128V18.7428H82.8968V19.3728H83.5268V20.0028V20.6328H82.2668V20.0028H81.6368V19.3728H81.0068V18.7428H80.3768V18.1128H79.7468H77.8568V20.6328H76.5968V18.1128V17.4828V16.8528V16.2228V15.5928V14.9628V14.3328ZM79.7468 14.3328H78.4868H77.8568V16.2228V16.8528H78.4868H79.1168H79.7468H80.3768H81.0068H81.6368V16.2228H82.2668V15.5928V14.9628H81.6368V14.3328H81.0068H80.3768H79.7468ZM91.0902 13.7028V14.3328V14.9628V15.5928H90.4602V16.2228H89.8302V16.8528H89.2002V17.4828H88.5702V18.1128V20.6328H87.3102V18.1128V17.4828H86.6802V16.8528H86.0502V16.2228H85.4202V15.5928H84.7902V14.9628V14.3328V13.7028V13.0728H85.4202H86.0502V13.7028V14.3328V14.9628H86.6802V15.5928H87.3102V16.2228H87.9402H88.5702V15.5928H89.2002V14.9628H89.8302V14.3328V13.7028V13.0728H90.4602H91.0902V13.7028Z" fill="#393939"/>
<path d="M41.3 19.1514H36.89H36.26H35.63V18.5214V17.8914V17.2614V16.0014V15.3714V14.7414V14.1114V13.4814V12.8514V12.2214V11.5914H36.26H36.89V17.8914H41.3V16.6314H42.56V17.8914V19.1514H41.3ZM46.9734 12.8514H46.3434H45.7134V13.4814H45.0834V14.1114V14.7414V16.0014V16.6314V17.2614H45.7134V17.8914H46.3434H46.9734H47.6034H48.2334H48.8634V17.2614H49.4934V16.6314V16.0014V14.1114V13.4814H48.8634V12.8514H48.2334H47.6034H46.9734ZM50.7534 16.0014V17.8914H50.1234V18.5214H49.4934V19.1514H47.6034H46.9734H45.0834V18.5214H44.4534V17.8914H43.8234V16.6314V16.0014V15.3714V14.7414V12.8514H44.4534V12.2214H45.0834V11.5914H46.3434H46.9734H47.6034H49.4934V12.2214H50.1234V12.8514H50.7534V14.1114V16.0014ZM52.0167 12.8514V12.2214V11.5914H52.6467H53.2767H55.1667H58.3167V12.8514H57.6867H57.0567H55.7967V16.0014V19.1514H54.5367V16.0014V12.8514H53.9067H52.0167ZM60.2101 12.8514V12.2214V11.5914H60.8401H61.4701H63.3601H66.5101V12.8514H65.8801H65.2501H63.9901V16.0014V19.1514H62.7301V16.0014V12.8514H62.1001H60.2101ZM68.4034 12.8514V12.2214V11.5914H69.0334H69.6634H71.5534H75.3334V12.8514H74.7034H74.0734H72.8134H72.1834H71.5534H70.2934H69.6634V14.7414H74.0734V16.0014H69.6634V17.8914H70.2934H71.5534H72.1834H72.8134H74.0734H74.7034H75.3334V19.1514H71.5534H69.6634H69.0334H68.4034V18.5214V17.8914V17.2614V16.0014V15.3714V14.7414V14.1114V13.4814V12.8514ZM76.5968 12.8514V12.2214V11.5914H77.2268H77.8568H79.7468H82.2668V12.2214H82.8968V12.8514H83.5268V14.1114V14.7414V15.3714H82.8968V16.0014H82.2668V16.6314V17.2614H82.8968V17.8914H83.5268V18.5214V19.1514H82.2668V18.5214H81.6368V17.8914H81.0068V17.2614H80.3768V16.6314H79.7468H77.8568V19.1514H76.5968V16.6314V16.0014V15.3714V14.7414V14.1114V13.4814V12.8514ZM79.7468 12.8514H78.4868H77.8568V14.7414V15.3714H78.4868H79.1168H79.7468H80.3768H81.0068H81.6368V14.7414H82.2668V14.1114V13.4814H81.6368V12.8514H81.0068H80.3768H79.7468ZM91.0902 12.2214V12.8514V13.4814V14.1114H90.4602V14.7414H89.8302V15.3714H89.2002V16.0014H88.5702V16.6314V19.1514H87.3102V16.6314V16.0014H86.6802V15.3714H86.0502V14.7414H85.4202V14.1114H84.7902V13.4814V12.8514V12.2214V11.5914H85.4202H86.0502V12.2214V12.8514V13.4814H86.6802V14.1114H87.3102V14.7414H87.9402H88.5702V14.1114H89.2002V13.4814H89.8302V12.8514V12.2214V11.5914H90.4602H91.0902V12.2214Z" fill="white"/>
</svg>
