<svg width="131" height="38" viewBox="0 0 131 38" fill="none" xmlns="http://www.w3.org/2000/svg">
<path fill-rule="evenodd" clip-rule="evenodd" d="M127.913 0.335938H4.02746V1.80604H127.906V3.27577H129.436V1.80566H127.913V0.335938ZM4.02167 1.80566H2.49222V3.27577H4.02167V1.80566ZM129.436 34.8838H127.906V36.3535H4.02746V37.8236H127.913V36.3539H129.436V34.8838ZM129.434 3.27637H130.963V34.8836H129.434V3.27637ZM0.964844 3.27637H2.49429V34.8836H0.964844V3.27637ZM2.49222 34.8838H4.02167V36.3539H2.49222V34.8838Z" fill="black"/>
<path fill-rule="evenodd" clip-rule="evenodd" d="M127.901 1.80566H4.01566V3.27539H2.48828V34.1476H129.433V3.27539H127.901V1.80566Z" fill="#A24AE8"/>
<rect x="2.48828" y="3.27539" width="1.52945" height="1.4701" fill="#EECAFF"/>
<rect x="129.43" y="3.27539" width="1.4701" height="1.52945" transform="rotate(90 129.43 3.27539)" fill="#EECAFF"/>
<rect x="129.43" y="30.4727" width="1.52945" height="1.4701" transform="rotate(-180 129.43 30.4727)" fill="#EECAFF"/>
<rect x="2.48828" y="30.4727" width="1.4701" height="1.52945" transform="rotate(-90 2.48828 30.4727)" fill="#EECAFF"/>
<rect x="2.48828" y="34.8828" width="4.41032" height="1.52945" transform="rotate(-90 2.48828 34.8828)" fill="#6B00BE"/>
<rect x="4.01953" y="3.27539" width="1.52945" height="1.4701" fill="#8619DC"/>
<rect x="129.43" y="4.74512" width="1.4701" height="1.52945" transform="rotate(90 129.43 4.74512)" fill="#8619DC"/>
<rect x="127.902" y="30.4727" width="1.52945" height="1.4701" transform="rotate(-180 127.902 30.4727)" fill="#8619DC"/>
<rect x="2.48828" y="29.0029" width="1.4701" height="1.52945" transform="rotate(-90 2.48828 29.0029)" fill="#8619DC"/>
<rect x="2.48828" y="4.74512" width="1.52945" height="1.4701" fill="#8619DC"/>
<rect x="127.902" y="3.27539" width="1.4701" height="1.52945" transform="rotate(90 127.902 3.27539)" fill="#8619DC"/>
<rect x="129.43" y="29.0029" width="1.52945" height="1.4701" transform="rotate(-180 129.43 29.0029)" fill="#8619DC"/>
<rect x="4.01953" y="30.4727" width="1.4701" height="1.52945" transform="rotate(-90 4.01953 30.4727)" fill="#8619DC"/>
<rect x="129.43" y="34.8828" width="1.52945" height="4.41031" transform="rotate(-180 129.43 34.8828)" fill="#6B00BE"/>
<rect x="127.902" y="36.3535" width="123.885" height="4.4103" transform="rotate(-180 127.902 36.3535)" fill="#6B00BE"/>
<rect x="4.01953" y="1.80469" width="123.885" height="1.4701" fill="#EECAFF"/>
<rect x="4.01953" y="30.4727" width="123.885" height="1.4701" fill="#EECAFF"/>
<rect x="10.1367" y="36.3535" width="4.41032" height="3.0589" transform="rotate(-90 10.1367 36.3535)" fill="#DC4FFF"/>
<rect width="4.41032" height="3.0589" transform="matrix(-1.36428e-07 -1 -1 1.26046e-07 118.723 36.3535)" fill="#DC4FFF"/>
<rect x="13.957" y="36.3535" width="4.41032" height="2.29417" transform="rotate(-90 13.957 36.3535)" fill="#DC4FFF"/>
<rect width="4.41032" height="2.29417" transform="matrix(-1.36428e-07 -1 -1 1.26046e-07 114.898 36.3535)" fill="#DC4FFF"/>
<rect x="17.0195" y="36.3535" width="4.41032" height="1.52945" transform="rotate(-90 17.0195 36.3535)" fill="#DC4FFF"/>
<rect width="4.41032" height="1.52945" transform="matrix(-1.36428e-07 -1 -1 1.26046e-07 111.844 36.3535)" fill="#DC4FFF"/>
<rect x="19.3164" y="36.3535" width="4.41031" height="0.764724" transform="rotate(-90 19.3164 36.3535)" fill="#DC4FFF"/>
<rect width="4.41031" height="0.764724" transform="matrix(-1.36428e-07 -1 -1 1.26046e-07 109.551 36.3535)" fill="#DC4FFF"/>
<path d="M20.4408 17.6781V20.8281H19.8108H19.1808V20.1981V19.5681V18.9381V17.6781V17.0481V16.4181V15.7881V15.1581V14.5281V13.8981V13.2681H19.8108H20.4408V13.8981H21.0708V14.5281H21.7008V15.1581H22.3308V15.7881H22.9608V15.1581H23.5908V14.5281H24.2208V13.8981H24.8508V13.2681H26.1108V13.8981V14.5281V19.5681V20.8281H24.8508V17.6781V15.7881H24.2208V16.4181H23.5908V17.0481H22.9608V17.6781H22.3308V17.0481H21.7008V16.4181H21.0708V15.7881H20.4408V17.6781ZM33.6741 13.8981V14.5281V15.1581V15.7881H33.0441V16.4181H32.4141V17.0481H31.7841V17.6781H31.1541V18.3081V20.8281H29.8941V18.3081V17.6781H29.2641V17.0481H28.6341V16.4181H28.0041V15.7881H27.3741V15.1581V14.5281V13.8981V13.2681H28.0041H28.6341V13.8981V14.5281V15.1581H29.2641V15.7881H29.8941V16.4181H30.5241H31.1541V15.7881H31.7841V15.1581H32.4141V14.5281V13.8981V13.2681H33.0441H33.6741V13.8981ZM36.8275 18.3081V18.9381H37.4575V19.5681H38.0875H38.7175H39.3475H39.9775H40.6075V18.9381H41.2375V18.3081H40.6075V17.6781H39.9775H39.3475H38.7175H36.8275V17.0481H36.1975V16.4181H35.5675V15.7881V15.1581V14.5281H36.1975V13.8981H36.8275V13.2681H38.0875H38.7175H39.3475H41.2375V13.8981H41.8675V14.5281H42.4975V15.7881H41.2375V15.1581H40.6075V14.5281H39.9775H39.3475H38.7175H38.0875H37.4575V15.1581H36.8275V15.7881H37.4575V16.4181H38.0875H38.7175H39.3475H41.2375V17.0481H41.8675V17.6781H42.4975V18.3081V18.9381V19.5681H41.8675V20.1981H41.2375V20.8281H39.3475H38.7175H36.8275V20.1981H36.1975V19.5681H35.5675V18.3081H36.8275ZM43.7609 14.5281V13.8981V13.2681H44.3909H45.0209H46.9109H50.0609V14.5281H49.4309H48.8009H47.5409V17.6781V20.8281H46.2809V17.6781V14.5281H45.6509H43.7609ZM51.9542 14.5281V13.8981V13.2681H52.5842H53.2142H55.1042H58.8842V14.5281H58.2542H57.6242H56.3642H55.7342H55.1042H53.8442H53.2142V16.4181H57.6242V17.6781H53.2142V19.5681H53.8442H55.1042H55.7342H56.3642H57.6242H58.2542H58.8842V20.8281H55.1042H53.2142H52.5842H51.9542V20.1981V19.5681V18.9381V17.6781V17.0481V16.4181V15.7881V15.1581V14.5281ZM60.1476 14.5281V13.8981V13.2681H60.7776H61.4076H63.2976H65.8176V13.8981H66.4476V14.5281H67.0776V15.7881V16.4181V17.0481H66.4476V17.6781H65.8176V18.3081V18.9381H66.4476V19.5681H67.0776V20.1981V20.8281H65.8176V20.1981H65.1876V19.5681H64.5576V18.9381H63.9276V18.3081H63.2976H61.4076V20.8281H60.1476V18.3081V17.6781V17.0481V16.4181V15.7881V15.1581V14.5281ZM63.2976 14.5281H62.0376H61.4076V16.4181V17.0481H62.0376H62.6676H63.2976H63.9276H64.5576H65.1876V16.4181H65.8176V15.7881V15.1581H65.1876V14.5281H64.5576H63.9276H63.2976ZM74.6409 13.8981V14.5281V15.1581V15.7881H74.0109V16.4181H73.3809V17.0481H72.7509V17.6781H72.1209V18.3081V20.8281H70.8609V18.3081V17.6781H70.2309V17.0481H69.6009V16.4181H68.9709V15.7881H68.3409V15.1581V14.5281V13.8981V13.2681H68.9709H69.6009V13.8981V14.5281V15.1581H70.2309V15.7881H70.8609V16.4181H71.4909H72.1209V15.7881H72.7509V15.1581H73.3809V14.5281V13.8981V13.2681H74.0109H74.6409V13.8981ZM84.7277 14.5281V13.8981V13.2681H85.3577H85.9877H87.8777H90.3977V13.8981H91.0277V14.5281H91.6577V15.7881V16.4181H91.0277V17.0481V17.6781H91.6577V19.5681H91.0277V20.1981H90.3977V20.8281H87.8777H85.9877H85.3577H84.7277V20.1981V19.5681V18.9381V17.6781V17.0481V16.4181V15.7881V15.1581V14.5281ZM86.6177 19.5681H87.8777H88.5077H89.1377H89.7677V18.9381H90.3977V18.3081H89.7677V17.6781H85.9877V19.5681H86.6177ZM87.8777 14.5281H86.6177H85.9877V16.4181H89.7677V15.7881H90.3977V15.1581H89.7677V14.5281H89.1377H88.5077H87.8777ZM96.071 14.5281H95.441H94.811V15.1581H94.181V15.7881V16.4181V17.6781V18.3081V18.9381H94.811V19.5681H95.441H96.071H96.701H97.331H97.961V18.9381H98.591V18.3081V17.6781V15.7881V15.1581H97.961V14.5281H97.331H96.701H96.071ZM99.851 17.6781V19.5681H99.221V20.1981H98.591V20.8281H96.701H96.071H94.181V20.1981H93.551V19.5681H92.921V18.3081V17.6781V17.0481V16.4181V14.5281H93.551V13.8981H94.181V13.2681H95.441H96.071H96.701H98.591V13.8981H99.221V14.5281H99.851V15.7881V17.6781ZM108.044 14.5281H107.414V15.1581H106.784V15.7881H106.154V16.4181H105.524V17.0481V17.6781H106.154V18.3081H106.784V18.9381H107.414V19.5681H108.044V20.8281H106.784V20.1981H106.154V19.5681H105.524V18.9381H104.894V18.3081H104.264V18.9381H103.634V19.5681H103.004V20.1981H102.374V20.8281H101.744H101.114V20.1981V19.5681H101.744V18.9381H102.374V18.3081H103.004V17.6781H103.634V17.0481V16.4181H103.004V15.7881H102.374V15.1581H101.744V14.5281H101.114V13.2681H102.374V13.8981H103.004V14.5281H103.634V15.1581H104.264V15.7881H104.894V15.1581H105.524V14.5281H106.154V13.8981H106.784V13.2681H107.414H108.044V13.8981V14.5281Z" fill="#393939"/>
<path d="M20.4408 16.2084V19.3584H19.8108H19.1808V18.7284V18.0984V17.4684V16.2084V15.5784V14.9484V14.3184V13.6884V13.0584V12.4284V11.7984H19.8108H20.4408V12.4284H21.0708V13.0584H21.7008V13.6884H22.3308V14.3184H22.9608V13.6884H23.5908V13.0584H24.2208V12.4284H24.8508V11.7984H26.1108V12.4284V13.0584V18.0984V19.3584H24.8508V16.2084V14.3184H24.2208V14.9484H23.5908V15.5784H22.9608V16.2084H22.3308V15.5784H21.7008V14.9484H21.0708V14.3184H20.4408V16.2084ZM33.6741 12.4284V13.0584V13.6884V14.3184H33.0441V14.9484H32.4141V15.5784H31.7841V16.2084H31.1541V16.8384V19.3584H29.8941V16.8384V16.2084H29.2641V15.5784H28.6341V14.9484H28.0041V14.3184H27.3741V13.6884V13.0584V12.4284V11.7984H28.0041H28.6341V12.4284V13.0584V13.6884H29.2641V14.3184H29.8941V14.9484H30.5241H31.1541V14.3184H31.7841V13.6884H32.4141V13.0584V12.4284V11.7984H33.0441H33.6741V12.4284ZM36.8275 16.8384V17.4684H37.4575V18.0984H38.0875H38.7175H39.3475H39.9775H40.6075V17.4684H41.2375V16.8384H40.6075V16.2084H39.9775H39.3475H38.7175H36.8275V15.5784H36.1975V14.9484H35.5675V14.3184V13.6884V13.0584H36.1975V12.4284H36.8275V11.7984H38.0875H38.7175H39.3475H41.2375V12.4284H41.8675V13.0584H42.4975V14.3184H41.2375V13.6884H40.6075V13.0584H39.9775H39.3475H38.7175H38.0875H37.4575V13.6884H36.8275V14.3184H37.4575V14.9484H38.0875H38.7175H39.3475H41.2375V15.5784H41.8675V16.2084H42.4975V16.8384V17.4684V18.0984H41.8675V18.7284H41.2375V19.3584H39.3475H38.7175H36.8275V18.7284H36.1975V18.0984H35.5675V16.8384H36.8275ZM43.7609 13.0584V12.4284V11.7984H44.3909H45.0209H46.9109H50.0609V13.0584H49.4309H48.8009H47.5409V16.2084V19.3584H46.2809V16.2084V13.0584H45.6509H43.7609ZM51.9542 13.0584V12.4284V11.7984H52.5842H53.2142H55.1042H58.8842V13.0584H58.2542H57.6242H56.3642H55.7342H55.1042H53.8442H53.2142V14.9484H57.6242V16.2084H53.2142V18.0984H53.8442H55.1042H55.7342H56.3642H57.6242H58.2542H58.8842V19.3584H55.1042H53.2142H52.5842H51.9542V18.7284V18.0984V17.4684V16.2084V15.5784V14.9484V14.3184V13.6884V13.0584ZM60.1476 13.0584V12.4284V11.7984H60.7776H61.4076H63.2976H65.8176V12.4284H66.4476V13.0584H67.0776V14.3184V14.9484V15.5784H66.4476V16.2084H65.8176V16.8384V17.4684H66.4476V18.0984H67.0776V18.7284V19.3584H65.8176V18.7284H65.1876V18.0984H64.5576V17.4684H63.9276V16.8384H63.2976H61.4076V19.3584H60.1476V16.8384V16.2084V15.5784V14.9484V14.3184V13.6884V13.0584ZM63.2976 13.0584H62.0376H61.4076V14.9484V15.5784H62.0376H62.6676H63.2976H63.9276H64.5576H65.1876V14.9484H65.8176V14.3184V13.6884H65.1876V13.0584H64.5576H63.9276H63.2976ZM74.6409 12.4284V13.0584V13.6884V14.3184H74.0109V14.9484H73.3809V15.5784H72.7509V16.2084H72.1209V16.8384V19.3584H70.8609V16.8384V16.2084H70.2309V15.5784H69.6009V14.9484H68.9709V14.3184H68.3409V13.6884V13.0584V12.4284V11.7984H68.9709H69.6009V12.4284V13.0584V13.6884H70.2309V14.3184H70.8609V14.9484H71.4909H72.1209V14.3184H72.7509V13.6884H73.3809V13.0584V12.4284V11.7984H74.0109H74.6409V12.4284ZM84.7277 13.0584V12.4284V11.7984H85.3577H85.9877H87.8777H90.3977V12.4284H91.0277V13.0584H91.6577V14.3184V14.9484H91.0277V15.5784V16.2084H91.6577V18.0984H91.0277V18.7284H90.3977V19.3584H87.8777H85.9877H85.3577H84.7277V18.7284V18.0984V17.4684V16.2084V15.5784V14.9484V14.3184V13.6884V13.0584ZM86.6177 18.0984H87.8777H88.5077H89.1377H89.7677V17.4684H90.3977V16.8384H89.7677V16.2084H85.9877V18.0984H86.6177ZM87.8777 13.0584H86.6177H85.9877V14.9484H89.7677V14.3184H90.3977V13.6884H89.7677V13.0584H89.1377H88.5077H87.8777ZM96.071 13.0584H95.441H94.811V13.6884H94.181V14.3184V14.9484V16.2084V16.8384V17.4684H94.811V18.0984H95.441H96.071H96.701H97.331H97.961V17.4684H98.591V16.8384V16.2084V14.3184V13.6884H97.961V13.0584H97.331H96.701H96.071ZM99.851 16.2084V18.0984H99.221V18.7284H98.591V19.3584H96.701H96.071H94.181V18.7284H93.551V18.0984H92.921V16.8384V16.2084V15.5784V14.9484V13.0584H93.551V12.4284H94.181V11.7984H95.441H96.071H96.701H98.591V12.4284H99.221V13.0584H99.851V14.3184V16.2084ZM108.044 13.0584H107.414V13.6884H106.784V14.3184H106.154V14.9484H105.524V15.5784V16.2084H106.154V16.8384H106.784V17.4684H107.414V18.0984H108.044V19.3584H106.784V18.7284H106.154V18.0984H105.524V17.4684H104.894V16.8384H104.264V17.4684H103.634V18.0984H103.004V18.7284H102.374V19.3584H101.744H101.114V18.7284V18.0984H101.744V17.4684H102.374V16.8384H103.004V16.2084H103.634V15.5784V14.9484H103.004V14.3184H102.374V13.6884H101.744V13.0584H101.114V11.7984H102.374V12.4284H103.004V13.0584H103.634V13.6884H104.264V14.3184H104.894V13.6884H105.524V13.0584H106.154V12.4284H106.784V11.7984H107.414H108.044V12.4284V13.0584Z" fill="white"/>
</svg>
