<svg width="127" height="39" viewBox="0 0 127 39" fill="none" xmlns="http://www.w3.org/2000/svg">
<path fill-rule="evenodd" clip-rule="evenodd" d="M123.929 0.335938H3.92927V1.81742H123.929V0.335938ZM3.92854 1.81757H2.44706V3.29905H3.92854V1.81757ZM125.407 1.81757H123.926V3.29905H125.407V1.81757ZM125.407 35.1511H123.926V36.6321H3.92927V38.1136H123.929V36.6325H125.407V35.1511ZM125.408 3.29862H126.889V35.1505H125.408V3.29862ZM0.964844 3.29862H2.44633V35.1505H0.964844V3.29862ZM2.44706 35.1511H3.92854V36.6325H2.44706V35.1511Z" fill="black"/>
<path fill-rule="evenodd" clip-rule="evenodd" d="M123.924 1.81641H3.92362V3.29804H2.44141V34.4092H125.404V3.29804H123.924V1.81641Z" fill="#A24AE8"/>
<rect x="2.44141" y="3.29785" width="1.48148" height="1.48148" fill="#EECAFF"/>
<rect x="125.402" y="3.29785" width="1.48148" height="1.48148" transform="rotate(90 125.402 3.29785)" fill="#EECAFF"/>
<rect x="125.402" y="30.7061" width="1.48148" height="1.48148" transform="rotate(-180 125.402 30.7061)" fill="#EECAFF"/>
<rect x="2.44141" y="30.7061" width="1.48148" height="1.48148" transform="rotate(-90 2.44141 30.7061)" fill="#EECAFF"/>
<rect x="2.44141" y="35.1504" width="4.44445" height="1.48148" transform="rotate(-90 2.44141 35.1504)" fill="#6B00BE"/>
<rect x="3.92188" y="3.29785" width="1.48148" height="1.48148" fill="#8619DC"/>
<rect x="125.402" y="4.7793" width="1.48148" height="1.48148" transform="rotate(90 125.402 4.7793)" fill="#8619DC"/>
<rect x="123.922" y="30.7061" width="1.48148" height="1.48148" transform="rotate(-180 123.922 30.7061)" fill="#8619DC"/>
<rect x="2.44141" y="29.2246" width="1.48148" height="1.48148" transform="rotate(-90 2.44141 29.2246)" fill="#8619DC"/>
<rect x="2.44141" y="4.7793" width="1.48148" height="1.48148" fill="#8619DC"/>
<rect x="123.922" y="3.29785" width="1.48148" height="1.48148" transform="rotate(90 123.922 3.29785)" fill="#8619DC"/>
<rect x="125.402" y="29.2246" width="1.48148" height="1.48148" transform="rotate(-180 125.402 29.2246)" fill="#8619DC"/>
<rect x="3.92188" y="30.7061" width="1.48148" height="1.48148" transform="rotate(-90 3.92188 30.7061)" fill="#8619DC"/>
<rect x="125.402" y="35.1504" width="1.48148" height="4.44445" transform="rotate(-180 125.402 35.1504)" fill="#6B00BE"/>
<rect x="123.922" y="36.6318" width="120" height="4.44444" transform="rotate(-180 123.922 36.6318)" fill="#6B00BE"/>
<rect x="3.92188" y="1.81641" width="120" height="1.48148" fill="#EECAFF"/>
<rect x="3.92188" y="30.7061" width="120" height="1.48148" fill="#EECAFF"/>
<rect x="9.84766" y="36.6318" width="4.44445" height="2.96296" transform="rotate(-90 9.84766 36.6318)" fill="#DC4FFF"/>
<rect width="4.44445" height="2.96296" transform="matrix(-1.31134e-07 -1 -1 1.31134e-07 115.031 36.6318)" fill="#DC4FFF"/>
<rect x="13.5508" y="36.6318" width="4.44445" height="2.22222" transform="rotate(-90 13.5508 36.6318)" fill="#DC4FFF"/>
<rect width="4.44445" height="2.22222" transform="matrix(-1.31134e-07 -1 -1 1.31134e-07 111.328 36.6318)" fill="#DC4FFF"/>
<rect x="16.5156" y="36.6318" width="4.44445" height="1.48148" transform="rotate(-90 16.5156 36.6318)" fill="#DC4FFF"/>
<rect width="4.44445" height="1.48148" transform="matrix(-1.31134e-07 -1 -1 1.31134e-07 108.367 36.6318)" fill="#DC4FFF"/>
<rect x="18.7422" y="36.6318" width="4.44445" height="0.74074" transform="rotate(-90 18.7422 36.6318)" fill="#DC4FFF"/>
<rect width="4.44445" height="0.74074" transform="matrix(-1.31134e-07 -1 -1 1.31134e-07 106.145 36.6318)" fill="#DC4FFF"/>
<path d="M19.89 17.7758V20.9258H19.26H18.63V20.2958V19.6658V19.0358V17.7758V17.1458V16.5158V15.8858V15.2558V14.6258V13.9958V13.3658H19.26H19.89V13.9958H20.52V14.6258H21.15V15.2558H21.78V15.8858H22.41V15.2558H23.04V14.6258H23.67V13.9958H24.3V13.3658H25.56V13.9958V14.6258V19.6658V20.9258H24.3V17.7758V15.8858H23.67V16.5158H23.04V17.1458H22.41V17.7758H21.78V17.1458H21.15V16.5158H20.52V15.8858H19.89V17.7758ZM33.1234 13.9958V14.6258V15.2558V15.8858H32.4934V16.5158H31.8634V17.1458H31.2334V17.7758H30.6034V18.4058V20.9258H29.3434V18.4058V17.7758H28.7134V17.1458H28.0834V16.5158H27.4534V15.8858H26.8234V15.2558V14.6258V13.9958V13.3658H27.4534H28.0834V13.9958V14.6258V15.2558H28.7134V15.8858H29.3434V16.5158H29.9734H30.6034V15.8858H31.2334V15.2558H31.8634V14.6258V13.9958V13.3658H32.4934H33.1234V13.9958ZM36.2767 18.4058V19.0358H36.9067V19.6658H37.5367H38.1667H38.7967H39.4267H40.0567V19.0358H40.6867V18.4058H40.0567V17.7758H39.4267H38.7967H38.1667H36.2767V17.1458H35.6467V16.5158H35.0167V15.8858V15.2558V14.6258H35.6467V13.9958H36.2767V13.3658H37.5367H38.1667H38.7967H40.6867V13.9958H41.3167V14.6258H41.9467V15.8858H40.6867V15.2558H40.0567V14.6258H39.4267H38.7967H38.1667H37.5367H36.9067V15.2558H36.2767V15.8858H36.9067V16.5158H37.5367H38.1667H38.7967H40.6867V17.1458H41.3167V17.7758H41.9467V18.4058V19.0358V19.6658H41.3167V20.2958H40.6867V20.9258H38.7967H38.1667H36.2767V20.2958H35.6467V19.6658H35.0167V18.4058H36.2767ZM43.2101 14.6258V13.9958V13.3658H43.8401H44.4701H46.3601H49.5101V14.6258H48.8801H48.2501H46.9901V17.7758V20.9258H45.7301V17.7758V14.6258H45.1001H43.2101ZM51.4034 14.6258V13.9958V13.3658H52.0334H52.6634H54.5534H58.3334V14.6258H57.7034H57.0734H55.8134H55.1834H54.5534H53.2934H52.6634V16.5158H57.0734V17.7758H52.6634V19.6658H53.2934H54.5534H55.1834H55.8134H57.0734H57.7034H58.3334V20.9258H54.5534H52.6634H52.0334H51.4034V20.2958V19.6658V19.0358V17.7758V17.1458V16.5158V15.8858V15.2558V14.6258ZM59.5968 14.6258V13.9958V13.3658H60.2268H60.8568H62.7468H65.2668V13.9958H65.8968V14.6258H66.5268V15.8858V16.5158V17.1458H65.8968V17.7758H65.2668V18.4058V19.0358H65.8968V19.6658H66.5268V20.2958V20.9258H65.2668V20.2958H64.6368V19.6658H64.0068V19.0358H63.3768V18.4058H62.7468H60.8568V20.9258H59.5968V18.4058V17.7758V17.1458V16.5158V15.8858V15.2558V14.6258ZM62.7468 14.6258H61.4868H60.8568V16.5158V17.1458H61.4868H62.1168H62.7468H63.3768H64.0068H64.6368V16.5158H65.2668V15.8858V15.2558H64.6368V14.6258H64.0068H63.3768H62.7468ZM74.0902 13.9958V14.6258V15.2558V15.8858H73.4602V16.5158H72.8302V17.1458H72.2002V17.7758H71.5702V18.4058V20.9258H70.3102V18.4058V17.7758H69.6802V17.1458H69.0502V16.5158H68.4202V15.8858H67.7902V15.2558V14.6258V13.9958V13.3658H68.4202H69.0502V13.9958V14.6258V15.2558H69.6802V15.8858H70.3102V16.5158H70.9402H71.5702V15.8858H72.2002V15.2558H72.8302V14.6258V13.9958V13.3658H73.4602H74.0902V13.9958ZM84.1769 14.6258V13.9958V13.3658H84.8069H85.4369H87.3269H89.8469V13.9958H90.4769V14.6258H91.1069V15.8858V16.5158H90.4769V17.1458V17.7758H91.1069V19.6658H90.4769V20.2958H89.8469V20.9258H87.3269H85.4369H84.8069H84.1769V20.2958V19.6658V19.0358V17.7758V17.1458V16.5158V15.8858V15.2558V14.6258ZM86.0669 19.6658H87.3269H87.9569H88.5869H89.2169V19.0358H89.8469V18.4058H89.2169V17.7758H85.4369V19.6658H86.0669ZM87.3269 14.6258H86.0669H85.4369V16.5158H89.2169V15.8858H89.8469V15.2558H89.2169V14.6258H88.5869H87.9569H87.3269ZM95.5202 14.6258H94.8902H94.2602V15.2558H93.6302V15.8858V16.5158V17.7758V18.4058V19.0358H94.2602V19.6658H94.8902H95.5202H96.1502H96.7802H97.4102V19.0358H98.0402V18.4058V17.7758V15.8858V15.2558H97.4102V14.6258H96.7802H96.1502H95.5202ZM99.3002 17.7758V19.6658H98.6702V20.2958H98.0402V20.9258H96.1502H95.5202H93.6302V20.2958H93.0002V19.6658H92.3702V18.4058V17.7758V17.1458V16.5158V14.6258H93.0002V13.9958H93.6302V13.3658H94.8902H95.5202H96.1502H98.0402V13.9958H98.6702V14.6258H99.3002V15.8858V17.7758ZM107.494 14.6258H106.864V15.2558H106.234V15.8858H105.604V16.5158H104.974V17.1458V17.7758H105.604V18.4058H106.234V19.0358H106.864V19.6658H107.494V20.9258H106.234V20.2958H105.604V19.6658H104.974V19.0358H104.344V18.4058H103.714V19.0358H103.084V19.6658H102.454V20.2958H101.824V20.9258H101.194H100.564V20.2958V19.6658H101.194V19.0358H101.824V18.4058H102.454V17.7758H103.084V17.1458V16.5158H102.454V15.8858H101.824V15.2558H101.194V14.6258H100.564V13.3658H101.824V13.9958H102.454V14.6258H103.084V15.2558H103.714V15.8858H104.344V15.2558H104.974V14.6258H105.604V13.9958H106.234V13.3658H106.864H107.494V13.9958V14.6258Z" fill="#393939"/>
<path d="M19.89 16.2943V19.4443H19.26H18.63V18.8143V18.1843V17.5543V16.2943V15.6643V15.0343V14.4043V13.7743V13.1443V12.5143V11.8843H19.26H19.89V12.5143H20.52V13.1443H21.15V13.7743H21.78V14.4043H22.41V13.7743H23.04V13.1443H23.67V12.5143H24.3V11.8843H25.56V12.5143V13.1443V18.1843V19.4443H24.3V16.2943V14.4043H23.67V15.0343H23.04V15.6643H22.41V16.2943H21.78V15.6643H21.15V15.0343H20.52V14.4043H19.89V16.2943ZM33.1234 12.5143V13.1443V13.7743V14.4043H32.4934V15.0343H31.8634V15.6643H31.2334V16.2943H30.6034V16.9243V19.4443H29.3434V16.9243V16.2943H28.7134V15.6643H28.0834V15.0343H27.4534V14.4043H26.8234V13.7743V13.1443V12.5143V11.8843H27.4534H28.0834V12.5143V13.1443V13.7743H28.7134V14.4043H29.3434V15.0343H29.9734H30.6034V14.4043H31.2334V13.7743H31.8634V13.1443V12.5143V11.8843H32.4934H33.1234V12.5143ZM36.2767 16.9243V17.5543H36.9067V18.1843H37.5367H38.1667H38.7967H39.4267H40.0567V17.5543H40.6867V16.9243H40.0567V16.2943H39.4267H38.7967H38.1667H36.2767V15.6643H35.6467V15.0343H35.0167V14.4043V13.7743V13.1443H35.6467V12.5143H36.2767V11.8843H37.5367H38.1667H38.7967H40.6867V12.5143H41.3167V13.1443H41.9467V14.4043H40.6867V13.7743H40.0567V13.1443H39.4267H38.7967H38.1667H37.5367H36.9067V13.7743H36.2767V14.4043H36.9067V15.0343H37.5367H38.1667H38.7967H40.6867V15.6643H41.3167V16.2943H41.9467V16.9243V17.5543V18.1843H41.3167V18.8143H40.6867V19.4443H38.7967H38.1667H36.2767V18.8143H35.6467V18.1843H35.0167V16.9243H36.2767ZM43.2101 13.1443V12.5143V11.8843H43.8401H44.4701H46.3601H49.5101V13.1443H48.8801H48.2501H46.9901V16.2943V19.4443H45.7301V16.2943V13.1443H45.1001H43.2101ZM51.4034 13.1443V12.5143V11.8843H52.0334H52.6634H54.5534H58.3334V13.1443H57.7034H57.0734H55.8134H55.1834H54.5534H53.2934H52.6634V15.0343H57.0734V16.2943H52.6634V18.1843H53.2934H54.5534H55.1834H55.8134H57.0734H57.7034H58.3334V19.4443H54.5534H52.6634H52.0334H51.4034V18.8143V18.1843V17.5543V16.2943V15.6643V15.0343V14.4043V13.7743V13.1443ZM59.5968 13.1443V12.5143V11.8843H60.2268H60.8568H62.7468H65.2668V12.5143H65.8968V13.1443H66.5268V14.4043V15.0343V15.6643H65.8968V16.2943H65.2668V16.9243V17.5543H65.8968V18.1843H66.5268V18.8143V19.4443H65.2668V18.8143H64.6368V18.1843H64.0068V17.5543H63.3768V16.9243H62.7468H60.8568V19.4443H59.5968V16.9243V16.2943V15.6643V15.0343V14.4043V13.7743V13.1443ZM62.7468 13.1443H61.4868H60.8568V15.0343V15.6643H61.4868H62.1168H62.7468H63.3768H64.0068H64.6368V15.0343H65.2668V14.4043V13.7743H64.6368V13.1443H64.0068H63.3768H62.7468ZM74.0902 12.5143V13.1443V13.7743V14.4043H73.4602V15.0343H72.8302V15.6643H72.2002V16.2943H71.5702V16.9243V19.4443H70.3102V16.9243V16.2943H69.6802V15.6643H69.0502V15.0343H68.4202V14.4043H67.7902V13.7743V13.1443V12.5143V11.8843H68.4202H69.0502V12.5143V13.1443V13.7743H69.6802V14.4043H70.3102V15.0343H70.9402H71.5702V14.4043H72.2002V13.7743H72.8302V13.1443V12.5143V11.8843H73.4602H74.0902V12.5143ZM84.1769 13.1443V12.5143V11.8843H84.8069H85.4369H87.3269H89.8469V12.5143H90.4769V13.1443H91.1069V14.4043V15.0343H90.4769V15.6643V16.2943H91.1069V18.1843H90.4769V18.8143H89.8469V19.4443H87.3269H85.4369H84.8069H84.1769V18.8143V18.1843V17.5543V16.2943V15.6643V15.0343V14.4043V13.7743V13.1443ZM86.0669 18.1843H87.3269H87.9569H88.5869H89.2169V17.5543H89.8469V16.9243H89.2169V16.2943H85.4369V18.1843H86.0669ZM87.3269 13.1443H86.0669H85.4369V15.0343H89.2169V14.4043H89.8469V13.7743H89.2169V13.1443H88.5869H87.9569H87.3269ZM95.5202 13.1443H94.8902H94.2602V13.7743H93.6302V14.4043V15.0343V16.2943V16.9243V17.5543H94.2602V18.1843H94.8902H95.5202H96.1502H96.7802H97.4102V17.5543H98.0402V16.9243V16.2943V14.4043V13.7743H97.4102V13.1443H96.7802H96.1502H95.5202ZM99.3002 16.2943V18.1843H98.6702V18.8143H98.0402V19.4443H96.1502H95.5202H93.6302V18.8143H93.0002V18.1843H92.3702V16.9243V16.2943V15.6643V15.0343V13.1443H93.0002V12.5143H93.6302V11.8843H94.8902H95.5202H96.1502H98.0402V12.5143H98.6702V13.1443H99.3002V14.4043V16.2943ZM107.494 13.1443H106.864V13.7743H106.234V14.4043H105.604V15.0343H104.974V15.6643V16.2943H105.604V16.9243H106.234V17.5543H106.864V18.1843H107.494V19.4443H106.234V18.8143H105.604V18.1843H104.974V17.5543H104.344V16.9243H103.714V17.5543H103.084V18.1843H102.454V18.8143H101.824V19.4443H101.194H100.564V18.8143V18.1843H101.194V17.5543H101.824V16.9243H102.454V16.2943H103.084V15.6643V15.0343H102.454V14.4043H101.824V13.7743H101.194V13.1443H100.564V11.8843H101.824V12.5143H102.454V13.1443H103.084V13.7743H103.714V14.4043H104.344V13.7743H104.974V13.1443H105.604V12.5143H106.234V11.8843H106.864H107.494V12.5143V13.1443Z" fill="white"/>
</svg>
