<svg width="122" height="51" viewBox="0 0 170 51" fill="none" xmlns="http://www.w3.org/2000/svg">
<path fill-rule="evenodd" clip-rule="evenodd" d="M166 0H4V2H2V4H0V47H2V49H4V51H166V49H168V47H170V4H168V2H166V0ZM166 2V4H168V47H166V49H4V47H2V4H4V2H166Z" fill="black"/>
<path fill-rule="evenodd" clip-rule="evenodd" d="M166 2H4V4H2V46H168V4H166V2Z" fill="#A24AE8"/>
<rect x="2" y="4" width="2" height="2" fill="#EECAFF"/>
<rect x="168" y="4" width="2" height="2" transform="rotate(90 168 4)" fill="#EECAFF"/>
<rect x="168" y="41" width="2" height="2" transform="rotate(-180 168 41)" fill="#EECAFF"/>
<rect x="2" y="41" width="2" height="2" transform="rotate(-90 2 41)" fill="#EECAFF"/>
<rect x="2" y="47" width="6" height="2" transform="rotate(-90 2 47)" fill="#6B00BE"/>
<rect x="4" y="4" width="2" height="2" fill="#8619DC"/>
<rect x="168" y="6" width="2" height="2" transform="rotate(90 168 6)" fill="#8619DC"/>
<rect x="166" y="41" width="2" height="2" transform="rotate(-180 166 41)" fill="#8619DC"/>
<rect x="2" y="39" width="2" height="2" transform="rotate(-90 2 39)" fill="#8619DC"/>
<rect x="2" y="6" width="2" height="2" fill="#8619DC"/>
<rect x="166" y="4" width="2" height="2" transform="rotate(90 166 4)" fill="#8619DC"/>
<rect x="168" y="39" width="2" height="2" transform="rotate(-180 168 39)" fill="#8619DC"/>
<rect x="4" y="41" width="2" height="2" transform="rotate(-90 4 41)" fill="#8619DC"/>
<rect x="168" y="47" width="2" height="6" transform="rotate(-180 168 47)" fill="#6B00BE"/>
<rect x="166" y="49" width="162" height="5.99999" transform="rotate(-180 166 49)" fill="#6B00BE"/>
<rect x="4" y="2" width="162" height="2" fill="#EECAFF"/>
<rect x="4" y="41" width="162" height="2" fill="#EECAFF"/>
<rect x="12" y="49" width="6" height="4" transform="rotate(-90 12 49)" fill="#DC4FFF"/>
<rect width="6" height="4" transform="matrix(-1.31134e-07 -1 -1 1.31134e-07 154 49)" fill="#DC4FFF"/>
<rect x="17" y="49" width="6" height="3" transform="rotate(-90 17 49)" fill="#DC4FFF"/>
<rect width="6" height="3" transform="matrix(-1.31134e-07 -1 -1 1.31134e-07 149 49)" fill="#DC4FFF"/>
<rect x="21" y="49" width="6" height="2" transform="rotate(-90 21 49)" fill="#DC4FFF"/>
<rect width="6" height="2" transform="matrix(-1.31134e-07 -1 -1 1.31134e-07 145 49)" fill="#DC4FFF"/>
<rect x="24" y="49" width="6" height="0.999999" transform="rotate(-90 24 49)" fill="#DC4FFF"/>
<rect width="6" height="0.999999" transform="matrix(-1.31134e-07 -1 -1 1.31134e-07 142 49)" fill="#DC4FFF"/>
<path d="M16.024 24.96V30H15.016H14.008V28.992V27.984V26.976V24.96V23.952V22.944V21.936V20.928V19.92V18.912V17.904H15.016H16.024V18.912H17.032V19.92H18.04V20.928H19.048V21.936H20.056V20.928H21.064V19.92H22.072V18.912H23.08V17.904H25.096V18.912V19.92V27.984V30H23.08V24.96V21.936H22.072V22.944H21.064V23.952H20.056V24.96H19.048V23.952H18.04V22.944H17.032V21.936H16.024V24.96ZM37.1974 18.912V19.92V20.928V21.936H36.1894V22.944H35.1814V23.952H34.1734V24.96H33.1654V25.968V30H31.1494V25.968V24.96H30.1414V23.952H29.1334V22.944H28.1254V21.936H27.1174V20.928V19.92V18.912V17.904H28.1254H29.1334V18.912V19.92V20.928H30.1414V21.936H31.1494V22.944H32.1574H33.1654V21.936H34.1734V20.928H35.1814V19.92V18.912V17.904H36.1894H37.1974V18.912ZM42.2428 25.968V26.976H43.2508V27.984H44.2588H45.2668H46.2748H47.2828H48.2908V26.976H49.2988V25.968H48.2908V24.96H47.2828H46.2748H45.2668H42.2428V23.952H41.2348V22.944H40.2268V21.936V20.928V19.92H41.2348V18.912H42.2428V17.904H44.2588H45.2668H46.2748H49.2988V18.912H50.3068V19.92H51.3148V21.936H49.2988V20.928H48.2908V19.92H47.2828H46.2748H45.2668H44.2588H43.2508V20.928H42.2428V21.936H43.2508V22.944H44.2588H45.2668H46.2748H49.2988V23.952H50.3068V24.96H51.3148V25.968V26.976V27.984H50.3068V28.992H49.2988V30H46.2748H45.2668H42.2428V28.992H41.2348V27.984H40.2268V25.968H42.2428ZM53.3361 19.92V18.912V17.904H54.3441H55.3521H58.3761H63.4161V19.92H62.4081H61.4001H59.3841V24.96V30H57.3681V24.96V19.92H56.3601H53.3361ZM66.4455 19.92V18.912V17.904H67.4535H68.4615H71.4855H77.5335V19.92H76.5255H75.5175H73.5015H72.4935H71.4855H69.4695H68.4615V22.944H75.5175V24.96H68.4615V27.984H69.4695H71.4855H72.4935H73.5015H75.5175H76.5255H77.5335V30H71.4855H68.4615H67.4535H66.4455V28.992V27.984V26.976V24.96V23.952V22.944V21.936V20.928V19.92ZM79.5549 19.92V18.912V17.904H80.5629H81.5709H84.5949H88.6269V18.912H89.6349V19.92H90.6429V21.936V22.944V23.952H89.6349V24.96H88.6269V25.968V26.976H89.6349V27.984H90.6429V28.992V30H88.6269V28.992H87.6189V27.984H86.6109V26.976H85.6029V25.968H84.5949H81.5709V30H79.5549V25.968V24.96V23.952V22.944V21.936V20.928V19.92ZM84.5949 19.92H82.5789H81.5709V22.944V23.952H82.5789H83.5869H84.5949H85.6029H86.6109H87.6189V22.944H88.6269V21.936V20.928H87.6189V19.92H86.6109H85.6029H84.5949ZM102.744 18.912V19.92V20.928V21.936H101.736V22.944H100.728V23.952H99.7203V24.96H98.7123V25.968V30H96.6963V25.968V24.96H95.6883V23.952H94.6803V22.944H93.6723V21.936H92.6643V20.928V19.92V18.912V17.904H93.6723H94.6803V18.912V19.92V20.928H95.6883V21.936H96.6963V22.944H97.7043H98.7123V21.936H99.7203V20.928H100.728V19.92V18.912V17.904H101.736H102.744V18.912ZM118.883 19.92V18.912V17.904H119.891H120.899H123.923H127.955V18.912H128.963V19.92H129.971V21.936V22.944H128.963V23.952V24.96H129.971V27.984H128.963V28.992H127.955V30H123.923H120.899H119.891H118.883V28.992V27.984V26.976V24.96V23.952V22.944V21.936V20.928V19.92ZM121.907 27.984H123.923H124.931H125.939H126.947V26.976H127.955V25.968H126.947V24.96H120.899V27.984H121.907ZM123.923 19.92H121.907H120.899V22.944H126.947V21.936H127.955V20.928H126.947V19.92H125.939H124.931H123.923ZM137.032 19.92H136.024H135.016V20.928H134.008V21.936V22.944V24.96V25.968V26.976H135.016V27.984H136.024H137.032H138.04H139.048H140.056V26.976H141.064V25.968V24.96V21.936V20.928H140.056V19.92H139.048H138.04H137.032ZM143.08 24.96V27.984H142.072V28.992H141.064V30H138.04H137.032H134.008V28.992H133V27.984H131.992V25.968V24.96V23.952V22.944V19.92H133V18.912H134.008V17.904H136.024H137.032H138.04H141.064V18.912H142.072V19.92H143.08V21.936V24.96ZM156.19 19.92H155.182V20.928H154.174V21.936H153.166V22.944H152.158V23.952V24.96H153.166V25.968H154.174V26.976H155.182V27.984H156.19V30H154.174V28.992H153.166V27.984H152.158V26.976H151.15V25.968H150.142V26.976H149.134V27.984H148.126V28.992H147.118V30H146.11H145.102V28.992V27.984H146.11V26.976H147.118V25.968H148.126V24.96H149.134V23.952V22.944H148.126V21.936H147.118V20.928H146.11V19.92H145.102V17.904H147.118V18.912H148.126V19.92H149.134V20.928H150.142V21.936H151.15V20.928H152.158V19.92H153.166V18.912H154.174V17.904H155.182H156.19V18.912V19.92Z" fill="#393939"/>
<path d="M16.024 22.96V28H15.016H14.008V26.992V25.984V24.976V22.96V21.952V20.944V19.936V18.928V17.92V16.912V15.904H15.016H16.024V16.912H17.032V17.92H18.04V18.928H19.048V19.936H20.056V18.928H21.064V17.92H22.072V16.912H23.08V15.904H25.096V16.912V17.92V25.984V28H23.08V22.96V19.936H22.072V20.944H21.064V21.952H20.056V22.96H19.048V21.952H18.04V20.944H17.032V19.936H16.024V22.96ZM37.1974 16.912V17.92V18.928V19.936H36.1894V20.944H35.1814V21.952H34.1734V22.96H33.1654V23.968V28H31.1494V23.968V22.96H30.1414V21.952H29.1334V20.944H28.1254V19.936H27.1174V18.928V17.92V16.912V15.904H28.1254H29.1334V16.912V17.92V18.928H30.1414V19.936H31.1494V20.944H32.1574H33.1654V19.936H34.1734V18.928H35.1814V17.92V16.912V15.904H36.1894H37.1974V16.912ZM42.2428 23.968V24.976H43.2508V25.984H44.2588H45.2668H46.2748H47.2828H48.2908V24.976H49.2988V23.968H48.2908V22.96H47.2828H46.2748H45.2668H42.2428V21.952H41.2348V20.944H40.2268V19.936V18.928V17.92H41.2348V16.912H42.2428V15.904H44.2588H45.2668H46.2748H49.2988V16.912H50.3068V17.92H51.3148V19.936H49.2988V18.928H48.2908V17.92H47.2828H46.2748H45.2668H44.2588H43.2508V18.928H42.2428V19.936H43.2508V20.944H44.2588H45.2668H46.2748H49.2988V21.952H50.3068V22.96H51.3148V23.968V24.976V25.984H50.3068V26.992H49.2988V28H46.2748H45.2668H42.2428V26.992H41.2348V25.984H40.2268V23.968H42.2428ZM53.3361 17.92V16.912V15.904H54.3441H55.3521H58.3761H63.4161V17.92H62.4081H61.4001H59.3841V22.96V28H57.3681V22.96V17.92H56.3601H53.3361ZM66.4455 17.92V16.912V15.904H67.4535H68.4615H71.4855H77.5335V17.92H76.5255H75.5175H73.5015H72.4935H71.4855H69.4695H68.4615V20.944H75.5175V22.96H68.4615V25.984H69.4695H71.4855H72.4935H73.5015H75.5175H76.5255H77.5335V28H71.4855H68.4615H67.4535H66.4455V26.992V25.984V24.976V22.96V21.952V20.944V19.936V18.928V17.92ZM79.5549 17.92V16.912V15.904H80.5629H81.5709H84.5949H88.6269V16.912H89.6349V17.92H90.6429V19.936V20.944V21.952H89.6349V22.96H88.6269V23.968V24.976H89.6349V25.984H90.6429V26.992V28H88.6269V26.992H87.6189V25.984H86.6109V24.976H85.6029V23.968H84.5949H81.5709V28H79.5549V23.968V22.96V21.952V20.944V19.936V18.928V17.92ZM84.5949 17.92H82.5789H81.5709V20.944V21.952H82.5789H83.5869H84.5949H85.6029H86.6109H87.6189V20.944H88.6269V19.936V18.928H87.6189V17.92H86.6109H85.6029H84.5949ZM102.744 16.912V17.92V18.928V19.936H101.736V20.944H100.728V21.952H99.7203V22.96H98.7123V23.968V28H96.6963V23.968V22.96H95.6883V21.952H94.6803V20.944H93.6723V19.936H92.6643V18.928V17.92V16.912V15.904H93.6723H94.6803V16.912V17.92V18.928H95.6883V19.936H96.6963V20.944H97.7043H98.7123V19.936H99.7203V18.928H100.728V17.92V16.912V15.904H101.736H102.744V16.912ZM118.883 17.92V16.912V15.904H119.891H120.899H123.923H127.955V16.912H128.963V17.92H129.971V19.936V20.944H128.963V21.952V22.96H129.971V25.984H128.963V26.992H127.955V28H123.923H120.899H119.891H118.883V26.992V25.984V24.976V22.96V21.952V20.944V19.936V18.928V17.92ZM121.907 25.984H123.923H124.931H125.939H126.947V24.976H127.955V23.968H126.947V22.96H120.899V25.984H121.907ZM123.923 17.92H121.907H120.899V20.944H126.947V19.936H127.955V18.928H126.947V17.92H125.939H124.931H123.923ZM137.032 17.92H136.024H135.016V18.928H134.008V19.936V20.944V22.96V23.968V24.976H135.016V25.984H136.024H137.032H138.04H139.048H140.056V24.976H141.064V23.968V22.96V19.936V18.928H140.056V17.92H139.048H138.04H137.032ZM143.08 22.96V25.984H142.072V26.992H141.064V28H138.04H137.032H134.008V26.992H133V25.984H131.992V23.968V22.96V21.952V20.944V17.92H133V16.912H134.008V15.904H136.024H137.032H138.04H141.064V16.912H142.072V17.92H143.08V19.936V22.96ZM156.19 17.92H155.182V18.928H154.174V19.936H153.166V20.944H152.158V21.952V22.96H153.166V23.968H154.174V24.976H155.182V25.984H156.19V28H154.174V26.992H153.166V25.984H152.158V24.976H151.15V23.968H150.142V24.976H149.134V25.984H148.126V26.992H147.118V28H146.11H145.102V26.992V25.984H146.11V24.976H147.118V23.968H148.126V22.96H149.134V21.952V20.944H148.126V19.936H147.118V18.928H146.11V17.92H145.102V15.904H147.118V16.912H148.126V17.92H149.134V18.928H150.142V19.936H151.15V18.928H152.158V17.92H153.166V16.912H154.174V15.904H155.182H156.19V16.912V17.92Z" fill="white"/>
</svg>
