<svg width="336" height="102" viewBox="0 0 336 102" fill="none" xmlns="http://www.w3.org/2000/svg">
<path fill-rule="evenodd" clip-rule="evenodd" d="M327.277 0H8.73828V4H4.80859V8.00001H8.74117V4.00001H327.277V0ZM331.21 4H327.277V8.00001L331.207 8V94.0002L327.277 94V98H331.21V94L335.14 94.0002V8L331.21 8.00001V4ZM0.871094 8H4.80367V94.0002H0.871094V8ZM4.80859 94H8.74117V98L327.277 98V102H8.73828V98L4.80859 98V94Z" fill="black"/>
<path fill-rule="evenodd" clip-rule="evenodd" d="M327.277 4H8.73828V8H4.80078V92.0002H331.204V8H327.277V4Z" fill="#FF9638"/>
<rect x="4.80078" y="8" width="3.93257" height="4.00001" fill="#FFC088"/>
<rect x="331.207" y="8" width="4.00001" height="3.93257" transform="rotate(90 331.207 8)" fill="#FFC088"/>
<rect x="331.207" y="82.001" width="3.93257" height="4.00001" transform="rotate(-180 331.207 82.001)" fill="#FFC088"/>
<rect x="4.80078" y="82.001" width="4.00001" height="3.93257" transform="rotate(-90 4.80078 82.001)" fill="#FFC088"/>
<rect x="4.80078" y="94" width="12" height="3.93257" transform="rotate(-90 4.80078 94)" fill="#ED7000"/>
<rect x="8.73828" y="8" width="3.93257" height="4.00001" fill="#DC7519"/>
<rect x="331.207" y="12" width="4.00001" height="3.93257" transform="rotate(90 331.207 12)" fill="#DC7519"/>
<rect x="327.277" y="82.001" width="3.93257" height="4.00001" transform="rotate(-180 327.277 82.001)" fill="#DC7519"/>
<rect x="4.80078" y="78" width="4.00001" height="3.93257" transform="rotate(-90 4.80078 78)" fill="#DC7519"/>
<rect x="4.80078" y="12" width="3.93257" height="4.00001" fill="#DC7519"/>
<rect x="327.277" y="8" width="4.00001" height="3.93257" transform="rotate(90 327.277 8)" fill="#DC7519"/>
<rect x="331.207" y="78" width="3.93257" height="4.00001" transform="rotate(-180 331.207 78)" fill="#DC7519"/>
<rect x="8.73828" y="82.001" width="4.00001" height="3.93257" transform="rotate(-90 8.73828 82.001)" fill="#DC7519"/>
<rect x="331.207" y="94" width="3.93258" height="12" transform="rotate(-180 331.207 94)" fill="#ED7000"/>
<rect x="327.277" y="98" width="318.539" height="12" transform="rotate(-180 327.277 98)" fill="#ED7000"/>
<rect x="8.73828" y="4" width="318.539" height="4.00001" fill="#FFC088"/>
<rect x="8.73828" y="82.001" width="318.539" height="4.00001" fill="#FFC088"/>
<rect x="24.4648" y="98" width="12" height="7.86515" transform="rotate(-90 24.4648 98)" fill="#FFA24F"/>
<rect width="12" height="7.86515" transform="matrix(-1.28923e-07 -1 -1 1.33383e-07 303.676 98)" fill="#FFA24F"/>
<rect x="34.293" y="98" width="12" height="5.89886" transform="rotate(-90 34.293 98)" fill="#FFA24F"/>
<rect width="12" height="5.89886" transform="matrix(-1.28923e-07 -1 -1 1.33383e-07 293.848 98)" fill="#FFA24F"/>
<rect x="42.1602" y="98" width="12" height="3.93257" transform="rotate(-90 42.1602 98)" fill="#FFA24F"/>
<rect width="12" height="3.93257" transform="matrix(-1.28923e-07 -1 -1 1.33383e-07 285.988 98)" fill="#FFA24F"/>
<rect x="48.0586" y="98" width="12" height="1.96629" transform="rotate(-90 48.0586 98)" fill="#FFA24F"/>
<rect width="12" height="1.96629" transform="matrix(-1.28923e-07 -1 -1 1.33383e-07 280.082 98)" fill="#FFA24F"/>
<path d="M50.5204 40.6667V32.6667V30H55.9694V32.6667V35.3333V56.6667V62H50.5204V56.6667H47.7959V54H45.0715V51.3333H42.347V48.6667H39.6225V46H36.898V43.3333H34.1735V40.6667H31.449V48.6667V62H28.7245H26V59.3333V56.6667V54V48.6667V46V43.3333V40.6667V38V35.3333V32.6667V30H28.7245H31.449V32.6667H34.1735V35.3333H36.898V38H39.6225V40.6667H42.347V43.3333H45.0715V46H47.7959V48.6667H50.5204V40.6667Z" fill="#393939"/>
<path d="M61.4329 35.3333V32.6667V30H64.1574H66.8819H75.0554H91.4024V35.3333H88.6779H85.9534H80.5044H77.7799H75.0554H69.6064H66.8819V43.3333H85.9534V48.6667H66.8819V56.6667H69.6064H75.0554H77.7799H80.5044H85.9534H88.6779H91.4024V62H75.0554H66.8819H64.1574H61.4329V59.3333V56.6667V54V48.6667V46V43.3333V40.6667V38V35.3333Z" fill="#393939"/>
<path d="M121.386 43.3333V30H124.111H126.835V32.6667V35.3333V38V43.3333V46V48.6667V51.3333V54V56.6667V59.3333V62H124.111H121.386V59.3333H118.662V56.6667H115.937V54H113.213V51.3333H110.488V54H107.764V56.6667H105.039V59.3333H102.315V62H96.8659V59.3333V56.6667V35.3333V30H102.315V43.3333V51.3333H105.039V48.6667H107.764V46H110.488V43.3333H113.213V46H115.937V48.6667H118.662V51.3333H121.386V43.3333Z" fill="#393939"/>
<path d="M181.354 35.3333H178.63H175.905V38H173.181V40.6667V43.3333V48.6667V51.3333V54H175.905V56.6667H178.63H181.354H184.079H186.803H189.528V54H192.252V51.3333V48.6667H181.354H178.63V43.3333H181.354H192.252H197.701V51.3333V54V56.6667H194.977V59.3333H192.252V62H184.079H181.354H173.181V59.3333H170.456V56.6667H167.732V51.3333V48.6667V46V43.3333V35.3333H170.456V32.6667H173.181V30H178.63H181.354H184.079H194.977V32.6667H197.701V38H192.252V35.3333H186.803H184.079H181.354Z" fill="#393939"/>
<path d="M203.165 59.3333V56.6667V51.3333V46V43.3333V40.6667H205.889V38H208.614V35.3333H211.338V32.6667H214.063V30H222.236V32.6667H224.961V35.3333H227.685V38H230.41V40.6667H233.134V43.3333V46V51.3333V56.6667V59.3333V62H230.41H227.685V59.3333V56.6667V51.3333H208.614V56.6667V59.3333V62H205.889H203.165V59.3333ZM227.685 46V43.3333H224.961V40.6667H222.236V38H219.512V35.3333H216.787V38H214.063V40.6667H211.338V43.3333H208.614V46H227.685Z" fill="#393939"/>
<path d="M244.047 48.6667V62H241.322H238.598V59.3333V56.6667V54V48.6667V46V43.3333V40.6667V38V35.3333V32.6667V30H241.322H244.047V32.6667H246.771V35.3333H249.496V38H252.22V40.6667H254.945V38H257.669V35.3333H260.394V32.6667H263.118V30H268.567V32.6667V35.3333V56.6667V62H263.118V48.6667V40.6667H260.394V43.3333H257.669V46H254.945V48.6667H252.22V46H249.496V43.3333H246.771V40.6667H244.047V48.6667Z" fill="#393939"/>
<path d="M274.031 35.3333V32.6667V30H276.755H279.48H287.653H304V35.3333H301.276H298.551H293.102H290.378H287.653H282.204H279.48V43.3333H298.551V48.6667H279.48V56.6667H282.204H287.653H290.378H293.102H298.551H301.276H304V62H287.653H279.48H276.755H274.031V59.3333V56.6667V54V48.6667V46V43.3333V40.6667V38V35.3333Z" fill="#393939"/>
<path d="M50.5204 37V28.75V26H55.9694V28.75V31.5V53.5V59H50.5204V53.5H47.7959V50.75H45.0715V48H42.347V45.25H39.6225V42.5H36.898V39.75H34.1735V37H31.449V45.25V59H28.7245H26V56.25V53.5V50.75V45.25V42.5V39.75V37V34.25V31.5V28.75V26H28.7245H31.449V28.75H34.1735V31.5H36.898V34.25H39.6225V37H42.347V39.75H45.0715V42.5H47.7959V45.25H50.5204V37Z" fill="white"/>
<path d="M61.4329 31.5V28.75V26H64.1574H66.8819H75.0554H91.4024V31.5H88.6779H85.9534H80.5044H77.7799H75.0554H69.6064H66.8819V39.75H85.9534V45.25H66.8819V53.5H69.6064H75.0554H77.7799H80.5044H85.9534H88.6779H91.4024V59H75.0554H66.8819H64.1574H61.4329V56.25V53.5V50.75V45.25V42.5V39.75V37V34.25V31.5Z" fill="white"/>
<path d="M121.386 39.75V26H124.111H126.835V28.75V31.5V34.25V39.75V42.5V45.25V48V50.75V53.5V56.25V59H124.111H121.386V56.25H118.662V53.5H115.937V50.75H113.213V48H110.488V50.75H107.764V53.5H105.039V56.25H102.315V59H96.8659V56.25V53.5V31.5V26H102.315V39.75V48H105.039V45.25H107.764V42.5H110.488V39.75H113.213V42.5H115.937V45.25H118.662V48H121.386V39.75Z" fill="white"/>
<path d="M181.354 31.5H178.63H175.905V34.25H173.181V37V39.75V45.25V48V50.75H175.905V53.5H178.63H181.354H184.079H186.803H189.528V50.75H192.252V48V45.25H181.354H178.63V39.75H181.354H192.252H197.701V48V50.75V53.5H194.977V56.25H192.252V59H184.079H181.354H173.181V56.25H170.456V53.5H167.732V48V45.25V42.5V39.75V31.5H170.456V28.75H173.181V26H178.63H181.354H184.079H194.977V28.75H197.701V34.25H192.252V31.5H186.803H184.079H181.354Z" fill="white"/>
<path d="M203.165 56.25V53.5V48V42.5V39.75V37H205.889V34.25H208.614V31.5H211.338V28.75H214.063V26H222.236V28.75H224.961V31.5H227.685V34.25H230.41V37H233.134V39.75V42.5V48V53.5V56.25V59H230.41H227.685V56.25V53.5V48H208.614V53.5V56.25V59H205.889H203.165V56.25ZM227.685 42.5V39.75H224.961V37H222.236V34.25H219.512V31.5H216.787V34.25H214.063V37H211.338V39.75H208.614V42.5H227.685Z" fill="white"/>
<path d="M244.047 45.25V59H241.322H238.598V56.25V53.5V50.75V45.25V42.5V39.75V37V34.25V31.5V28.75V26H241.322H244.047V28.75H246.771V31.5H249.496V34.25H252.22V37H254.945V34.25H257.669V31.5H260.394V28.75H263.118V26H268.567V28.75V31.5V53.5V59H263.118V45.25V37H260.394V39.75H257.669V42.5H254.945V45.25H252.22V42.5H249.496V39.75H246.771V37H244.047V45.25Z" fill="white"/>
<path d="M274.031 31.5V28.75V26H276.755H279.48H287.653H304V31.5H301.276H298.551H293.102H290.378H287.653H282.204H279.48V39.75H298.551V45.25H279.48V53.5H282.204H287.653H290.378H293.102H298.551H301.276H304V59H287.653H279.48H276.755H274.031V56.25V53.5V50.75V45.25V42.5V39.75V37V34.25V31.5Z" fill="white"/>
</svg>
