<svg width="131" height="40" viewBox="0 0 131 40" fill="none" xmlns="http://www.w3.org/2000/svg">
<path fill-rule="evenodd" clip-rule="evenodd" d="M127.918 0.870361H3.08314V2.39976H1.54321V3.92917H3.08439V2.39978H127.918V0.870361ZM129.46 2.39976H127.919V3.92917L129.459 3.92915V36.8116L127.919 36.8115V38.3409H129.46V36.8115L131 36.8116V3.92915L129.46 3.92917V2.39976ZM0 3.92915H1.54118V36.8116H0V3.92915ZM1.54321 36.8115H3.08439V38.3409H1.54321V36.8115ZM127.918 38.3409H3.08325V39.8704H127.918V38.3409Z" fill="black"/>
<path fill-rule="evenodd" clip-rule="evenodd" d="M127.918 2.40002H3.08314V3.9294H1.54053V36.0471H129.458V3.9294H127.918V2.40002Z" fill="#FF9638"/>
<rect x="1.54053" y="3.9292" width="1.54118" height="1.52942" fill="#FFC088"/>
<rect x="129.459" y="3.9292" width="1.52942" height="1.54118" transform="rotate(90 129.459 3.9292)" fill="#FFC088"/>
<rect x="129.459" y="32.2237" width="1.54118" height="1.52942" transform="rotate(-180 129.459 32.2237)" fill="#FFC088"/>
<rect x="1.54053" y="32.2237" width="1.52942" height="1.54118" transform="rotate(-90 1.54053 32.2237)" fill="#FFC088"/>
<rect x="1.54053" y="36.8115" width="4.58825" height="1.54118" transform="rotate(-90 1.54053 36.8115)" fill="#ED7000"/>
<rect x="3.0835" y="3.9292" width="1.54118" height="1.52942" fill="#DC7519"/>
<rect x="129.459" y="5.45862" width="1.52942" height="1.54118" transform="rotate(90 129.459 5.45862)" fill="#DC7519"/>
<rect x="127.919" y="32.2237" width="1.54118" height="1.52942" transform="rotate(-180 127.919 32.2237)" fill="#DC7519"/>
<rect x="1.54053" y="30.6939" width="1.52942" height="1.54118" transform="rotate(-90 1.54053 30.6939)" fill="#DC7519"/>
<rect x="1.54053" y="5.45862" width="1.54118" height="1.52942" fill="#DC7519"/>
<rect x="127.919" y="3.9292" width="1.52942" height="1.54118" transform="rotate(90 127.919 3.9292)" fill="#DC7519"/>
<rect x="129.459" y="30.6939" width="1.54118" height="1.52942" transform="rotate(-180 129.459 30.6939)" fill="#DC7519"/>
<rect x="3.0835" y="32.2237" width="1.52942" height="1.54118" transform="rotate(-90 3.0835 32.2237)" fill="#DC7519"/>
<rect x="129.459" y="36.8115" width="1.54118" height="4.58825" transform="rotate(-180 129.459 36.8115)" fill="#ED7000"/>
<rect x="127.919" y="38.3409" width="124.835" height="4.58824" transform="rotate(-180 127.919 38.3409)" fill="#ED7000"/>
<rect x="3.0835" y="2.39978" width="124.835" height="1.52942" fill="#FFC088"/>
<rect x="3.0835" y="32.2237" width="124.835" height="1.52942" fill="#FFC088"/>
<rect x="9.24683" y="38.3409" width="4.58825" height="3.08235" transform="rotate(-90 9.24683 38.3409)" fill="#FFA24F"/>
<rect width="4.58825" height="3.08235" transform="matrix(-1.32142e-07 -1 -1 1.30134e-07 118.669 38.3409)" fill="#FFA24F"/>
<rect x="13.0984" y="38.3409" width="4.58825" height="2.31176" transform="rotate(-90 13.0984 38.3409)" fill="#FFA24F"/>
<rect width="4.58825" height="2.31176" transform="matrix(-1.32142e-07 -1 -1 1.30134e-07 114.818 38.3409)" fill="#FFA24F"/>
<rect x="16.1816" y="38.3409" width="4.58825" height="1.54118" transform="rotate(-90 16.1816 38.3409)" fill="#FFA24F"/>
<rect width="4.58825" height="1.54118" transform="matrix(-1.32142e-07 -1 -1 1.30134e-07 111.738 38.3409)" fill="#FFA24F"/>
<rect x="18.4932" y="38.3409" width="4.58825" height="0.770587" transform="rotate(-90 18.4932 38.3409)" fill="#FFA24F"/>
<rect width="4.58825" height="0.770587" transform="matrix(-1.32142e-07 -1 -1 1.30134e-07 109.423 38.3409)" fill="#FFA24F"/>
<path d="M27.8961 16.378V15.4507V14.5234H28.8234H29.7507H32.5326H36.2418V15.4507H37.1691V16.378H38.0964V18.2326V19.1599V20.0872H37.1691V21.0145H36.2418V21.9418H32.5326H29.7507V25.6511H27.8961V21.9418V21.0145V20.0872V19.1599V18.2326V17.3053V16.378ZM32.5326 16.378H30.678H29.7507V19.1599V20.0872H30.678H32.5326H33.4599H34.3872H35.3145V19.1599H36.2418V18.2326V17.3053H35.3145V16.378H34.3872H33.4599H32.5326ZM50.1563 23.7965V25.6511H47.3744H46.4471H41.8105H39.9559V23.7965V22.8692V21.9418V21.0145H40.8832V20.0872H41.8105V19.1599H44.5925H45.5198H46.4471H47.3744V18.2326H48.3017V17.3053H47.3744V16.378H46.4471H45.5198H44.5925H43.6652H42.7379V17.3053H41.8105V18.2326H39.9559V16.378H40.8832V15.4507H41.8105V14.5234H44.5925H45.5198H46.4471H48.3017V15.4507H49.229V16.378H50.1563V17.3053V18.2326V19.1599H49.229V20.0872H48.3017V21.0145H45.5198H44.5925H43.6652H42.7379V21.9418H41.8105V23.7965H42.7379H43.6652H46.4471H47.3744H48.3017H49.229H50.1563ZM52.0158 16.378V15.4507V14.5234H52.9431H53.8704H56.6523H60.3616V15.4507H61.2889V16.378H62.2162V18.2326V19.1599V20.0872H61.2889V21.0145H60.3616V21.9418H56.6523H53.8704V25.6511H52.0158V21.9418V21.0145V20.0872V19.1599V18.2326V17.3053V16.378ZM56.6523 16.378H54.7977H53.8704V19.1599V20.0872H54.7977H56.6523H57.5797H58.507H59.4343V19.1599H60.3616V18.2326V17.3053H59.4343V16.378H58.507H57.5797H56.6523ZM72.4214 25.6511H65.9303H65.003H64.0757V24.7238V23.7965V22.8692V21.0145V20.0872V19.1599V18.2326V17.3053V16.378V15.4507V14.5234H65.003H65.9303V23.7965H72.4214V21.9418H74.2761V23.7965V25.6511H72.4214ZM76.1356 24.7238V23.7965V21.9418V20.0872V19.1599V18.2326H77.0629V17.3053H77.9902V16.378H78.9175V15.4507H79.8448V14.5234H82.6267V15.4507H83.554V16.378H84.4813V17.3053H85.4086V18.2326H86.3359V19.1599V20.0872V21.9418V23.7965V24.7238V25.6511H85.4086H84.4813V24.7238V23.7965V21.9418H77.9902V23.7965V24.7238V25.6511H77.0629H76.1356V24.7238ZM84.4813 20.0872V19.1599H83.554V18.2326H82.6267V17.3053H81.6994V16.378H80.7721V17.3053H79.8448V18.2326H78.9175V19.1599H77.9902V20.0872H84.4813ZM97.4685 15.4507V16.378V17.3053V18.2326H96.5412V19.1599H95.6139V20.0872H94.6866V21.0145H93.7593V21.9418V25.6511H91.9047V21.9418V21.0145H90.9774V20.0872H90.0501V19.1599H89.1228V18.2326H88.1955V17.3053V16.378V15.4507V14.5234H89.1228H90.0501V15.4507V16.378V17.3053H90.9774V18.2326H91.9047V19.1599H92.832H93.7593V18.2326H94.6866V17.3053H95.6139V16.378V15.4507V14.5234H96.5412H97.4685V15.4507Z" fill="#393939"/>
<path d="M27.8961 14.8744V13.9471V13.0198H28.8234H29.7507H32.5326H36.2418V13.9471H37.1691V14.8744H38.0964V16.729V17.6563V18.5836H37.1691V19.5109H36.2418V20.4382H32.5326H29.7507V24.1474H27.8961V20.4382V19.5109V18.5836V17.6563V16.729V15.8017V14.8744ZM32.5326 14.8744H30.678H29.7507V17.6563V18.5836H30.678H32.5326H33.4599H34.3872H35.3145V17.6563H36.2418V16.729V15.8017H35.3145V14.8744H34.3872H33.4599H32.5326ZM50.1563 22.2928V24.1474H47.3744H46.4471H41.8105H39.9559V22.2928V21.3655V20.4382V19.5109H40.8832V18.5836H41.8105V17.6563H44.5925H45.5198H46.4471H47.3744V16.729H48.3017V15.8017H47.3744V14.8744H46.4471H45.5198H44.5925H43.6652H42.7379V15.8017H41.8105V16.729H39.9559V14.8744H40.8832V13.9471H41.8105V13.0198H44.5925H45.5198H46.4471H48.3017V13.9471H49.229V14.8744H50.1563V15.8017V16.729V17.6563H49.229V18.5836H48.3017V19.5109H45.5198H44.5925H43.6652H42.7379V20.4382H41.8105V22.2928H42.7379H43.6652H46.4471H47.3744H48.3017H49.229H50.1563ZM52.0158 14.8744V13.9471V13.0198H52.9431H53.8704H56.6523H60.3616V13.9471H61.2889V14.8744H62.2162V16.729V17.6563V18.5836H61.2889V19.5109H60.3616V20.4382H56.6523H53.8704V24.1474H52.0158V20.4382V19.5109V18.5836V17.6563V16.729V15.8017V14.8744ZM56.6523 14.8744H54.7977H53.8704V17.6563V18.5836H54.7977H56.6523H57.5797H58.507H59.4343V17.6563H60.3616V16.729V15.8017H59.4343V14.8744H58.507H57.5797H56.6523ZM72.4214 24.1474H65.9303H65.003H64.0757V23.2201V22.2928V21.3655V19.5109V18.5836V17.6563V16.729V15.8017V14.8744V13.9471V13.0198H65.003H65.9303V22.2928H72.4214V20.4382H74.2761V22.2928V24.1474H72.4214ZM76.1356 23.2201V22.2928V20.4382V18.5836V17.6563V16.729H77.0629V15.8017H77.9902V14.8744H78.9175V13.9471H79.8448V13.0198H82.6267V13.9471H83.554V14.8744H84.4813V15.8017H85.4086V16.729H86.3359V17.6563V18.5836V20.4382V22.2928V23.2201V24.1474H85.4086H84.4813V23.2201V22.2928V20.4382H77.9902V22.2928V23.2201V24.1474H77.0629H76.1356V23.2201ZM84.4813 18.5836V17.6563H83.554V16.729H82.6267V15.8017H81.6994V14.8744H80.7721V15.8017H79.8448V16.729H78.9175V17.6563H77.9902V18.5836H84.4813ZM97.4685 13.9471V14.8744V15.8017V16.729H96.5412V17.6563H95.6139V18.5836H94.6866V19.5109H93.7593V20.4382V24.1474H91.9047V20.4382V19.5109H90.9774V18.5836H90.0501V17.6563H89.1228V16.729H88.1955V15.8017V14.8744V13.9471V13.0198H89.1228H90.0501V13.9471V14.8744V15.8017H90.9774V16.729H91.9047V17.6563H92.832H93.7593V16.729H94.6866V15.8017H95.6139V14.8744V13.9471V13.0198H96.5412H97.4685V13.9471Z" fill="white"/>
</svg>
