<svg width="131" height="40" viewBox="0 0 131 40" fill="none" xmlns="http://www.w3.org/2000/svg">
<path fill-rule="evenodd" clip-rule="evenodd" d="M127.918 0.655273H3.08264V2.18464H1.5415V3.71405H3.08268V2.18469H127.918V3.71405H129.459V2.18464H127.918V0.655273ZM129.459 36.5964H127.918V38.1258H129.459V36.5964ZM129.459 3.71406H131V36.5964H129.459V3.71406ZM0 3.71406H1.54118V36.5964H0V3.71406ZM1.5415 36.5964H3.08268V38.1258H1.5415V36.5964ZM127.918 38.1258H3.08252V39.6553H127.918V38.1258Z" fill="black"/>
<path fill-rule="evenodd" clip-rule="evenodd" d="M127.918 2.18469H3.08264V3.71413H1.5415V35.8318H129.459V3.71413H127.918V2.18469Z" fill="#1FCC03"/>
<rect x="1.5415" y="3.71405" width="1.54118" height="1.52941" fill="#D1FF96"/>
<rect x="129.459" y="3.71405" width="1.52941" height="1.54118" transform="rotate(90 129.459 3.71405)" fill="#D1FF96"/>
<rect x="129.459" y="32.0082" width="1.54118" height="1.52941" transform="rotate(-180 129.459 32.0082)" fill="#D1FF96"/>
<rect x="1.5415" y="32.0082" width="1.52941" height="1.54118" transform="rotate(-90 1.5415 32.0082)" fill="#D1FF96"/>
<rect x="1.5415" y="36.5965" width="4.58824" height="1.54118" transform="rotate(-90 1.5415 36.5965)" fill="#468C00"/>
<rect x="3.08228" y="3.71405" width="1.54118" height="1.52941" fill="#039800"/>
<rect x="129.459" y="5.24353" width="1.52941" height="1.54118" transform="rotate(90 129.459 5.24353)" fill="#039800"/>
<rect x="127.918" y="32.0082" width="1.54118" height="1.52941" transform="rotate(-180 127.918 32.0082)" fill="#039800"/>
<rect x="1.5415" y="30.4788" width="1.52941" height="1.54118" transform="rotate(-90 1.5415 30.4788)" fill="#039800"/>
<rect x="1.5415" y="5.24353" width="1.54118" height="1.52941" fill="#039800"/>
<rect x="127.918" y="3.71405" width="1.52941" height="1.54118" transform="rotate(90 127.918 3.71405)" fill="#039800"/>
<rect x="129.459" y="30.4788" width="1.54118" height="1.52941" transform="rotate(-180 129.459 30.4788)" fill="#039800"/>
<rect x="3.08228" y="32.0082" width="1.52941" height="1.54118" transform="rotate(-90 3.08228 32.0082)" fill="#039800"/>
<rect x="129.459" y="36.5965" width="1.54118" height="4.58824" transform="rotate(-180 129.459 36.5965)" fill="#468C00"/>
<rect x="127.918" y="38.1259" width="124.835" height="4.58823" transform="rotate(-180 127.918 38.1259)" fill="#468C00"/>
<rect x="3.08228" y="2.18469" width="124.835" height="1.52941" fill="#D1FF96"/>
<rect x="3.08228" y="32.0082" width="124.835" height="1.52941" fill="#D1FF96"/>
<rect x="9.24707" y="38.1259" width="4.58824" height="3.08235" transform="rotate(-90 9.24707 38.1259)" fill="#E3FF95"/>
<rect width="4.58824" height="3.08235" transform="matrix(-1.32143e-07 -1 -1 1.30133e-07 118.671 38.1259)" fill="#E3FF95"/>
<rect x="13.1003" y="38.1259" width="4.58824" height="2.31176" transform="rotate(-90 13.1003 38.1259)" fill="#E3FF95"/>
<rect width="4.58824" height="2.31176" transform="matrix(-1.32143e-07 -1 -1 1.30133e-07 114.818 38.1259)" fill="#E3FF95"/>
<rect x="16.1824" y="38.1259" width="4.58824" height="1.54118" transform="rotate(-90 16.1824 38.1259)" fill="#E3FF95"/>
<rect width="4.58824" height="1.54118" transform="matrix(-1.32143e-07 -1 -1 1.30133e-07 111.735 38.1259)" fill="#E3FF95"/>
<rect x="18.4944" y="38.1259" width="4.58824" height="0.770588" transform="rotate(-90 18.4944 38.1259)" fill="#E3FF95"/>
<rect width="4.58824" height="0.770588" transform="matrix(-1.32143e-07 -1 -1 1.30133e-07 109.424 38.1259)" fill="#E3FF95"/>
<path d="M27.898 15.6175V14.6902V13.7629H28.8253H29.7526H32.5345H38.0983V15.6175H37.171H36.2437H34.3891H33.4618H32.5345H30.6799H29.7526V18.3994H36.2437V20.254H29.7526V24.8905H28.8253H27.898V23.9632V23.0359V22.1086V20.254V19.3267V18.3994V17.4721V16.5448V15.6175ZM50.1582 23.0359V24.8905H47.3763H46.449H41.8125H39.9579V23.0359V22.1086V21.1813V20.254H40.8852V19.3267H41.8125V18.3994H44.5944H45.5217H46.449H47.3763V17.4721H48.3036V16.5448H47.3763V15.6175H46.449H45.5217H44.5944H43.6671H42.7398V16.5448H41.8125V17.4721H39.9579V15.6175H40.8852V14.6902H41.8125V13.7629H44.5944H45.5217H46.449H48.3036V14.6902H49.2309V15.6175H50.1582V16.5448V17.4721V18.3994H49.2309V19.3267H48.3036V20.254H45.5217H44.5944H43.6671H42.7398V21.1813H41.8125V23.0359H42.7398H43.6671H46.449H47.3763H48.3036H49.2309H50.1582ZM52.0178 15.6175V14.6902V13.7629H52.9451H53.8724H56.6543H60.3635V14.6902H61.2908V15.6175H62.2181V17.4721V18.3994V19.3267H61.2908V20.254H60.3635V21.1813H56.6543H53.8724V24.8905H52.0178V21.1813V20.254V19.3267V18.3994V17.4721V16.5448V15.6175ZM56.6543 15.6175H54.7997H53.8724V18.3994V19.3267H54.7997H56.6543H57.5816H58.5089H59.4362V18.3994H60.3635V17.4721V16.5448H59.4362V15.6175H58.5089H57.5816H56.6543ZM72.4234 24.8905H65.9323H65.005H64.0777V23.9632V23.0359V22.1086V20.254V19.3267V18.3994V17.4721V16.5448V15.6175V14.6902V13.7629H65.005H65.9323V23.0359H72.4234V21.1813H74.278V23.0359V24.8905H72.4234ZM76.1376 23.9632V23.0359V21.1813V19.3267V18.3994V17.4721H77.0649V16.5448H77.9922V15.6175H78.9195V14.6902H79.8468V13.7629H82.6287V14.6902H83.556V15.6175H84.4833V16.5448H85.4106V17.4721H86.3379V18.3994V19.3267V21.1813V23.0359V23.9632V24.8905H85.4106H84.4833V23.9632V23.0359V21.1813H77.9922V23.0359V23.9632V24.8905H77.0649H76.1376V23.9632ZM84.4833 19.3267V18.3994H83.556V17.4721H82.6287V16.5448H81.7014V15.6175H80.7741V16.5448H79.8468V17.4721H78.9195V18.3994H77.9922V19.3267H84.4833ZM97.4705 14.6902V15.6175V16.5448V17.4721H96.5432V18.3994H95.6159V19.3267H94.6886V20.254H93.7613V21.1813V24.8905H91.9067V21.1813V20.254H90.9794V19.3267H90.0521V18.3994H89.1248V17.4721H88.1974V16.5448V15.6175V14.6902V13.7629H89.1248H90.0521V14.6902V15.6175V16.5448H90.9794V17.4721H91.9067V18.3994H92.834H93.7613V17.4721H94.6886V16.5448H95.6159V15.6175V14.6902V13.7629H96.5432H97.4705V14.6902Z" fill="#393939"/>
<path d="M27.898 14.0881V13.1608V12.2335H28.8253H29.7526H32.5345H38.0983V14.0881H37.171H36.2437H34.3891H33.4618H32.5345H30.6799H29.7526V16.87H36.2437V18.7246H29.7526V23.3611H28.8253H27.898V22.4338V21.5065V20.5792V18.7246V17.7973V16.87V15.9427V15.0154V14.0881ZM50.1582 21.5065V23.3611H47.3763H46.449H41.8125H39.9579V21.5065V20.5792V19.6519V18.7246H40.8852V17.7973H41.8125V16.87H44.5944H45.5217H46.449H47.3763V15.9427H48.3036V15.0154H47.3763V14.0881H46.449H45.5217H44.5944H43.6671H42.7398V15.0154H41.8125V15.9427H39.9579V14.0881H40.8852V13.1608H41.8125V12.2335H44.5944H45.5217H46.449H48.3036V13.1608H49.2309V14.0881H50.1582V15.0154V15.9427V16.87H49.2309V17.7973H48.3036V18.7246H45.5217H44.5944H43.6671H42.7398V19.6519H41.8125V21.5065H42.7398H43.6671H46.449H47.3763H48.3036H49.2309H50.1582ZM52.0178 14.0881V13.1608V12.2335H52.9451H53.8724H56.6543H60.3635V13.1608H61.2908V14.0881H62.2181V15.9427V16.87V17.7973H61.2908V18.7246H60.3635V19.6519H56.6543H53.8724V23.3611H52.0178V19.6519V18.7246V17.7973V16.87V15.9427V15.0154V14.0881ZM56.6543 14.0881H54.7997H53.8724V16.87V17.7973H54.7997H56.6543H57.5816H58.5089H59.4362V16.87H60.3635V15.9427V15.0154H59.4362V14.0881H58.5089H57.5816H56.6543ZM72.4234 23.3611H65.9323H65.005H64.0777V22.4338V21.5065V20.5792V18.7246V17.7973V16.87V15.9427V15.0154V14.0881V13.1608V12.2335H65.005H65.9323V21.5065H72.4234V19.6519H74.278V21.5065V23.3611H72.4234ZM76.1376 22.4338V21.5065V19.6519V17.7973V16.87V15.9427H77.0649V15.0154H77.9922V14.0881H78.9195V13.1608H79.8468V12.2335H82.6287V13.1608H83.556V14.0881H84.4833V15.0154H85.4106V15.9427H86.3379V16.87V17.7973V19.6519V21.5065V22.4338V23.3611H85.4106H84.4833V22.4338V21.5065V19.6519H77.9922V21.5065V22.4338V23.3611H77.0649H76.1376V22.4338ZM84.4833 17.7973V16.87H83.556V15.9427H82.6287V15.0154H81.7014V14.0881H80.7741V15.0154H79.8468V15.9427H78.9195V16.87H77.9922V17.7973H84.4833ZM97.4705 13.1608V14.0881V15.0154V15.9427H96.5432V16.87H95.6159V17.7973H94.6886V18.7246H93.7613V19.6519V23.3611H91.9067V19.6519V18.7246H90.9794V17.7973H90.0521V16.87H89.1248V15.9427H88.1974V15.0154V14.0881V13.1608V12.2335H89.1248H90.0521V13.1608V14.0881V15.0154H90.9794V15.9427H91.9067V16.87H92.834H93.7613V15.9427H94.6886V15.0154H95.6159V14.0881V13.1608V12.2335H96.5432H97.4705V13.1608Z" fill="white"/>
</svg>
