<svg width="336" height="102" viewBox="0 0 336 102" fill="none" xmlns="http://www.w3.org/2000/svg">
<path fill-rule="evenodd" clip-rule="evenodd" d="M327.276 0H8.73724V4H4.80756V8.00001H8.74013V4.00001H327.276V0ZM331.209 4H327.276V8.00001L331.206 8V94.0002L327.276 94V98H331.209V94L335.139 94.0002V8L331.209 8.00001V4ZM0.870056 8H4.80263V94.0002H0.870056V8ZM4.80756 94H8.74013V98L327.276 98V102H8.73724V98L4.80756 98V94Z" fill="black"/>
<path fill-rule="evenodd" clip-rule="evenodd" d="M327.276 4H8.73724V8H4.79974V92.0002H331.203V8H327.276V4Z" fill="#1FCC03"/>
<rect x="4.79974" y="8" width="3.93257" height="4.00001" fill="#D1FF96"/>
<rect x="331.206" y="8" width="4.00001" height="3.93257" transform="rotate(90 331.206 8)" fill="#D1FF96"/>
<rect x="331.206" y="82.001" width="3.93257" height="4.00001" transform="rotate(-180 331.206 82.001)" fill="#D1FF96"/>
<rect x="4.79974" y="82.001" width="4.00001" height="3.93257" transform="rotate(-90 4.79974 82.001)" fill="#D1FF96"/>
<rect x="4.79974" y="94" width="12" height="3.93257" transform="rotate(-90 4.79974 94)" fill="#468C00"/>
<rect x="8.73724" y="8" width="3.93257" height="4.00001" fill="#039800"/>
<rect x="331.206" y="12" width="4.00001" height="3.93257" transform="rotate(90 331.206 12)" fill="#039800"/>
<rect x="327.276" y="82.001" width="3.93257" height="4.00001" transform="rotate(-180 327.276 82.001)" fill="#039800"/>
<rect x="4.79974" y="78" width="4.00001" height="3.93257" transform="rotate(-90 4.79974 78)" fill="#039800"/>
<rect x="4.79974" y="12" width="3.93257" height="4.00001" fill="#039800"/>
<rect x="327.276" y="8" width="4.00001" height="3.93257" transform="rotate(90 327.276 8)" fill="#039800"/>
<rect x="331.206" y="78" width="3.93257" height="4.00001" transform="rotate(-180 331.206 78)" fill="#039800"/>
<rect x="8.73724" y="82.001" width="4.00001" height="3.93257" transform="rotate(-90 8.73724 82.001)" fill="#039800"/>
<rect x="331.206" y="94" width="3.93258" height="12" transform="rotate(-180 331.206 94)" fill="#468C00"/>
<rect x="327.276" y="98" width="318.539" height="12" transform="rotate(-180 327.276 98)" fill="#468C00"/>
<rect x="8.73724" y="4" width="318.539" height="4.00001" fill="#D1FF96"/>
<rect x="8.73724" y="82.001" width="318.539" height="4.00001" fill="#D1FF96"/>
<rect x="24.4638" y="98" width="12" height="7.86515" transform="rotate(-90 24.4638 98)" fill="#E3FF95"/>
<rect width="12" height="7.86515" transform="matrix(-1.28923e-07 -1 -1 1.33383e-07 303.675 98)" fill="#E3FF95"/>
<rect x="34.2919" y="98" width="12" height="5.89886" transform="rotate(-90 34.2919 98)" fill="#E3FF95"/>
<rect width="12" height="5.89886" transform="matrix(-1.28923e-07 -1 -1 1.33383e-07 293.847 98)" fill="#E3FF95"/>
<rect x="42.1591" y="98" width="12" height="3.93257" transform="rotate(-90 42.1591 98)" fill="#E3FF95"/>
<rect width="12" height="3.93257" transform="matrix(-1.28923e-07 -1 -1 1.33383e-07 285.987 98)" fill="#E3FF95"/>
<rect x="48.0576" y="98" width="12" height="1.96629" transform="rotate(-90 48.0576 98)" fill="#E3FF95"/>
<rect width="12" height="1.96629" transform="matrix(-1.28923e-07 -1 -1 1.33383e-07 280.081 98)" fill="#E3FF95"/>
<path d="M50.5194 40.6667V32.6667V30H55.9684V32.6667V35.3333V56.6667V62H50.5194V56.6667H47.7949V54H45.0704V51.3333H42.3459V48.6667H39.6214V46H36.8969V43.3333H34.1724V40.6667H31.4479V48.6667V62H28.7235H25.999V59.3333V56.6667V54V48.6667V46V43.3333V40.6667V38V35.3333V32.6667V30H28.7235H31.4479V32.6667H34.1724V35.3333H36.8969V38H39.6214V40.6667H42.3459V43.3333H45.0704V46H47.7949V48.6667H50.5194V40.6667Z" fill="#393939"/>
<path d="M61.4319 35.3333V32.6667V30H64.1564H66.8809H75.0544H91.4013V35.3333H88.6768H85.9523H80.5034H77.7789H75.0544H69.6054H66.8809V43.3333H85.9523V48.6667H66.8809V56.6667H69.6054H75.0544H77.7789H80.5034H85.9523H88.6768H91.4013V62H75.0544H66.8809H64.1564H61.4319V59.3333V56.6667V54V48.6667V46V43.3333V40.6667V38V35.3333Z" fill="#393939"/>
<path d="M121.385 43.3333V30H124.11H126.834V32.6667V35.3333V38V43.3333V46V48.6667V51.3333V54V56.6667V59.3333V62H124.11H121.385V59.3333H118.661V56.6667H115.936V54H113.212V51.3333H110.487V54H107.763V56.6667H105.038V59.3333H102.314V62H96.8648V59.3333V56.6667V35.3333V30H102.314V43.3333V51.3333H105.038V48.6667H107.763V46H110.487V43.3333H113.212V46H115.936V48.6667H118.661V51.3333H121.385V43.3333Z" fill="#393939"/>
<path d="M181.353 35.3333H178.629H175.904V38H173.18V40.6667V43.3333V48.6667V51.3333V54H175.904V56.6667H178.629H181.353H184.078H186.802H189.527V54H192.251V51.3333V48.6667H181.353H178.629V43.3333H181.353H192.251H197.7V51.3333V54V56.6667H194.976V59.3333H192.251V62H184.078H181.353H173.18V59.3333H170.455V56.6667H167.731V51.3333V48.6667V46V43.3333V35.3333H170.455V32.6667H173.18V30H178.629H181.353H184.078H194.976V32.6667H197.7V38H192.251V35.3333H186.802H184.078H181.353Z" fill="#393939"/>
<path d="M203.164 59.3333V56.6667V51.3333V46V43.3333V40.6667H205.888V38H208.613V35.3333H211.337V32.6667H214.062V30H222.235V32.6667H224.96V35.3333H227.684V38H230.409V40.6667H233.133V43.3333V46V51.3333V56.6667V59.3333V62H230.409H227.684V59.3333V56.6667V51.3333H208.613V56.6667V59.3333V62H205.888H203.164V59.3333ZM227.684 46V43.3333H224.96V40.6667H222.235V38H219.511V35.3333H216.786V38H214.062V40.6667H211.337V43.3333H208.613V46H227.684Z" fill="#393939"/>
<path d="M244.046 48.6667V62H241.321H238.597V59.3333V56.6667V54V48.6667V46V43.3333V40.6667V38V35.3333V32.6667V30H241.321H244.046V32.6667H246.77V35.3333H249.495V38H252.219V40.6667H254.944V38H257.668V35.3333H260.393V32.6667H263.117V30H268.566V32.6667V35.3333V56.6667V62H263.117V48.6667V40.6667H260.393V43.3333H257.668V46H254.944V48.6667H252.219V46H249.495V43.3333H246.77V40.6667H244.046V48.6667Z" fill="#393939"/>
<path d="M274.03 35.3333V32.6667V30H276.754H279.479H287.652H303.999V35.3333H301.274H298.55H293.101H290.377H287.652H282.203H279.479V43.3333H298.55V48.6667H279.479V56.6667H282.203H287.652H290.377H293.101H298.55H301.274H303.999V62H287.652H279.479H276.754H274.03V59.3333V56.6667V54V48.6667V46V43.3333V40.6667V38V35.3333Z" fill="#393939"/>
<path d="M50.5194 37V28.75V26H55.9684V28.75V31.5V53.5V59H50.5194V53.5H47.7949V50.75H45.0704V48H42.3459V45.25H39.6214V42.5H36.8969V39.75H34.1724V37H31.4479V45.25V59H28.7235H25.999V56.25V53.5V50.75V45.25V42.5V39.75V37V34.25V31.5V28.75V26H28.7235H31.4479V28.75H34.1724V31.5H36.8969V34.25H39.6214V37H42.3459V39.75H45.0704V42.5H47.7949V45.25H50.5194V37Z" fill="white"/>
<path d="M61.4319 31.5V28.75V26H64.1564H66.8809H75.0544H91.4013V31.5H88.6768H85.9523H80.5034H77.7789H75.0544H69.6054H66.8809V39.75H85.9523V45.25H66.8809V53.5H69.6054H75.0544H77.7789H80.5034H85.9523H88.6768H91.4013V59H75.0544H66.8809H64.1564H61.4319V56.25V53.5V50.75V45.25V42.5V39.75V37V34.25V31.5Z" fill="white"/>
<path d="M121.385 39.75V26H124.11H126.834V28.75V31.5V34.25V39.75V42.5V45.25V48V50.75V53.5V56.25V59H124.11H121.385V56.25H118.661V53.5H115.936V50.75H113.212V48H110.487V50.75H107.763V53.5H105.038V56.25H102.314V59H96.8648V56.25V53.5V31.5V26H102.314V39.75V48H105.038V45.25H107.763V42.5H110.487V39.75H113.212V42.5H115.936V45.25H118.661V48H121.385V39.75Z" fill="white"/>
<path d="M181.353 31.5H178.629H175.904V34.25H173.18V37V39.75V45.25V48V50.75H175.904V53.5H178.629H181.353H184.078H186.802H189.527V50.75H192.251V48V45.25H181.353H178.629V39.75H181.353H192.251H197.7V48V50.75V53.5H194.976V56.25H192.251V59H184.078H181.353H173.18V56.25H170.455V53.5H167.731V48V45.25V42.5V39.75V31.5H170.455V28.75H173.18V26H178.629H181.353H184.078H194.976V28.75H197.7V34.25H192.251V31.5H186.802H184.078H181.353Z" fill="white"/>
<path d="M203.164 56.25V53.5V48V42.5V39.75V37H205.888V34.25H208.613V31.5H211.337V28.75H214.062V26H222.235V28.75H224.96V31.5H227.684V34.25H230.409V37H233.133V39.75V42.5V48V53.5V56.25V59H230.409H227.684V56.25V53.5V48H208.613V53.5V56.25V59H205.888H203.164V56.25ZM227.684 42.5V39.75H224.96V37H222.235V34.25H219.511V31.5H216.786V34.25H214.062V37H211.337V39.75H208.613V42.5H227.684Z" fill="white"/>
<path d="M244.046 45.25V59H241.321H238.597V56.25V53.5V50.75V45.25V42.5V39.75V37V34.25V31.5V28.75V26H241.321H244.046V28.75H246.77V31.5H249.495V34.25H252.219V37H254.944V34.25H257.668V31.5H260.393V28.75H263.117V26H268.566V28.75V31.5V53.5V59H263.117V45.25V37H260.393V39.75H257.668V42.5H254.944V45.25H252.219V42.5H249.495V39.75H246.77V37H244.046V45.25Z" fill="white"/>
<path d="M274.03 31.5V28.75V26H276.754H279.479H287.652H303.999V31.5H301.274H298.55H293.101H290.377H287.652H282.203H279.479V39.75H298.55V45.25H279.479V53.5H282.203H287.652H290.377H293.101H298.55H301.274H303.999V59H287.652H279.479H276.754H274.03V56.25V53.5V50.75V45.25V42.5V39.75V37V34.25V31.5Z" fill="white"/>
</svg>
