<svg width="131" height="39" viewBox="0 0 131 39" fill="none" xmlns="http://www.w3.org/2000/svg">
<path fill-rule="evenodd" clip-rule="evenodd" d="M127.922 0.444336H4.03112V1.92586H127.911V3.40666H129.441V1.92514H127.922V0.444336ZM4.02168 1.92514H2.49217V3.40666H4.02168V1.92514ZM129.441 35.2607H127.911V36.7416H4.03112V38.2231H127.922V36.7423H129.441V35.2607ZM129.435 3.40789H130.964V35.2606H129.435V3.40789ZM0.964844 3.40789H2.49436V35.2606H0.964844V3.40789ZM2.49217 35.2607H4.02168V36.7423H2.49217V35.2607Z" fill="black"/>
<path fill-rule="evenodd" clip-rule="evenodd" d="M127.91 1.92773H4.01951V3.40854H2.49219V34.5205H129.442V3.40854H127.91V1.92773Z" fill="#FB38FF"/>
<rect x="2.48828" y="3.4082" width="1.52952" height="1.48152" fill="#FECDFF"/>
<rect x="129.43" y="3.4082" width="1.48152" height="1.52952" transform="rotate(90 129.43 3.4082)" fill="#FECDFF"/>
<rect x="129.43" y="30.8164" width="1.52952" height="1.48152" transform="rotate(-180 129.43 30.8164)" fill="#FECDFF"/>
<rect x="2.48828" y="30.8164" width="1.48152" height="1.52952" transform="rotate(-90 2.48828 30.8164)" fill="#FECDFF"/>
<rect x="2.48828" y="35.2607" width="4.44457" height="1.52952" transform="rotate(-90 2.48828 35.2607)" fill="#54004C"/>
<rect x="4.02344" y="3.4082" width="1.52952" height="1.48152" fill="#B800A5"/>
<rect x="129.43" y="4.88867" width="1.48152" height="1.52952" transform="rotate(90 129.43 4.88867)" fill="#B800A5"/>
<rect x="127.906" y="30.8164" width="1.52952" height="1.48152" transform="rotate(-180 127.906 30.8164)" fill="#B800A5"/>
<rect x="2.48828" y="29.335" width="1.48152" height="1.52952" transform="rotate(-90 2.48828 29.335)" fill="#B800A5"/>
<rect x="2.48828" y="4.88867" width="1.52952" height="1.48152" fill="#B800A5"/>
<rect x="127.906" y="3.4082" width="1.48152" height="1.52952" transform="rotate(90 127.906 3.4082)" fill="#B800A5"/>
<rect x="129.43" y="29.335" width="1.52952" height="1.48152" transform="rotate(-180 129.43 29.335)" fill="#B800A5"/>
<rect x="4.02344" y="30.8164" width="1.48152" height="1.52952" transform="rotate(-90 4.02344 30.8164)" fill="#B800A5"/>
<rect x="129.43" y="35.2607" width="1.52952" height="4.44457" transform="rotate(-180 129.43 35.2607)" fill="#54004C"/>
<rect x="127.906" y="36.7422" width="123.891" height="4.44455" transform="rotate(-180 127.906 36.7422)" fill="#54004C"/>
<rect x="4.02344" y="1.9248" width="123.891" height="1.48152" fill="#FECDFF"/>
<rect x="4.02344" y="30.8164" width="123.891" height="1.48152" fill="#FECDFF"/>
<rect x="10.1367" y="36.7422" width="4.44457" height="3.05903" transform="rotate(-90 10.1367 36.7422)" fill="#D14FFF"/>
<rect width="4.44457" height="3.05903" transform="matrix(-1.35382e-07 -1 -1 1.27019e-07 118.727 36.7422)" fill="#D14FFF"/>
<rect x="13.9492" y="36.7422" width="4.44457" height="2.29427" transform="rotate(-90 13.9492 36.7422)" fill="#D14FFF"/>
<rect width="4.44457" height="2.29427" transform="matrix(-1.35382e-07 -1 -1 1.27019e-07 114.906 36.7422)" fill="#D14FFF"/>
<rect x="17.0156" y="36.7422" width="4.44457" height="1.52952" transform="rotate(-90 17.0156 36.7422)" fill="#D14FFF"/>
<rect width="4.44457" height="1.52952" transform="matrix(-1.35382e-07 -1 -1 1.27019e-07 111.852 36.7422)" fill="#D14FFF"/>
<rect x="19.3164" y="36.7422" width="4.44457" height="0.764758" transform="rotate(-90 19.3164 36.7422)" fill="#D14FFF"/>
<rect width="4.44457" height="0.764758" transform="matrix(-1.35382e-07 -1 -1 1.27019e-07 109.559 36.7422)" fill="#D14FFF"/>
<path d="M38.2766 16.625V14.735V14.105H39.5366V14.735V15.365V20.405V21.665H38.2766V20.405H37.6466V19.775H37.0166V19.145H36.3866V18.515H35.7566V17.885H35.1266V17.255H34.4966V16.625H33.8666V18.515V21.665H33.2366H32.6066V21.035V20.405V19.775V18.515V17.885V17.255V16.625V15.995V15.365V14.735V14.105H33.2366H33.8666V14.735H34.4966V15.365H35.1266V15.995H35.7566V16.625H36.3866V17.255H37.0166V17.885H37.6466V18.515H38.2766V16.625ZM40.7999 15.365V14.735V14.105H41.4299H42.0599H43.9499H47.7299V15.365H47.0999H46.4699H45.2099H44.5799H43.9499H42.6899H42.0599V17.255H46.4699V18.515H42.0599V21.665H41.4299H40.7999V21.035V20.405V19.775V18.515V17.885V17.255V16.625V15.995V15.365ZM48.9933 15.365V14.735V14.105H49.6233H50.2533H52.1433H55.2933V15.365H54.6633H54.0333H52.7733V18.515V21.665H51.5133V18.515V15.365H50.8833H48.9933ZM66.64 19.145V19.775H67.27V20.405H67.9H68.53H69.16H69.79H70.42V19.775H71.05V19.145H70.42V18.515H69.79H69.16H68.53H66.64V17.885H66.01V17.255H65.38V16.625V15.995V15.365H66.01V14.735H66.64V14.105H67.9H68.53H69.16H71.05V14.735H71.68V15.365H72.31V16.625H71.05V15.995H70.42V15.365H69.79H69.16H68.53H67.9H67.27V15.995H66.64V16.625H67.27V17.255H67.9H68.53H69.16H71.05V17.885H71.68V18.515H72.31V19.145V19.775V20.405H71.68V21.035H71.05V21.665H69.16H68.53H66.64V21.035H66.01V20.405H65.38V19.145H66.64ZM79.2434 18.515H74.8334V21.665H74.2034H73.5734V21.035V20.405V19.775V18.515V17.885V17.255V16.625V15.995V15.365V14.735V14.105H74.2034H74.8334V17.255H79.2434V14.105H80.5034V15.365V20.405V21.665H79.2434V18.515ZM84.9167 15.365H84.2867H83.6567V15.995H83.0267V16.625V17.255V18.515V19.145V19.775H83.6567V20.405H84.2867H84.9167H85.5467H86.1767H86.8067V19.775H87.4367V19.145V18.515V16.625V15.995H86.8067V15.365H86.1767H85.5467H84.9167ZM88.6967 18.515V20.405H88.0667V21.035H87.4367V21.665H85.5467H84.9167H83.0267V21.035H82.3967V20.405H81.7667V19.145V18.515V17.885V17.255V15.365H82.3967V14.735H83.0267V14.105H84.2867H84.9167H85.5467H87.4367V14.735H88.0667V15.365H88.6967V16.625V18.515ZM89.9601 15.365V14.735V14.105H90.5901H91.2201H93.1101H95.6301V14.735H96.2601V15.365H96.8901V16.625V17.255V17.885H96.2601V18.515H95.6301V19.145H93.1101H91.2201V21.665H89.9601V19.145V18.515V17.885V17.255V16.625V15.995V15.365ZM93.1101 15.365H91.8501H91.2201V17.255V17.885H91.8501H93.1101H93.7401H94.3701H95.0001V17.255H95.6301V16.625V15.995H95.0001V15.365H94.3701H93.7401H93.1101Z" fill="#393939"/>
<path d="M38.2766 15.1446V13.2546V12.6246H39.5366V13.2546V13.8846V18.9246V20.1846H38.2766V18.9246H37.6466V18.2946H37.0166V17.6646H36.3866V17.0346H35.7566V16.4046H35.1266V15.7746H34.4966V15.1446H33.8666V17.0346V20.1846H33.2366H32.6066V19.5546V18.9246V18.2946V17.0346V16.4046V15.7746V15.1446V14.5146V13.8846V13.2546V12.6246H33.2366H33.8666V13.2546H34.4966V13.8846H35.1266V14.5146H35.7566V15.1446H36.3866V15.7746H37.0166V16.4046H37.6466V17.0346H38.2766V15.1446ZM40.7999 13.8846V13.2546V12.6246H41.4299H42.0599H43.9499H47.7299V13.8846H47.0999H46.4699H45.2099H44.5799H43.9499H42.6899H42.0599V15.7746H46.4699V17.0346H42.0599V20.1846H41.4299H40.7999V19.5546V18.9246V18.2946V17.0346V16.4046V15.7746V15.1446V14.5146V13.8846ZM48.9933 13.8846V13.2546V12.6246H49.6233H50.2533H52.1433H55.2933V13.8846H54.6633H54.0333H52.7733V17.0346V20.1846H51.5133V17.0346V13.8846H50.8833H48.9933ZM66.64 17.6646V18.2946H67.27V18.9246H67.9H68.53H69.16H69.79H70.42V18.2946H71.05V17.6646H70.42V17.0346H69.79H69.16H68.53H66.64V16.4046H66.01V15.7746H65.38V15.1446V14.5146V13.8846H66.01V13.2546H66.64V12.6246H67.9H68.53H69.16H71.05V13.2546H71.68V13.8846H72.31V15.1446H71.05V14.5146H70.42V13.8846H69.79H69.16H68.53H67.9H67.27V14.5146H66.64V15.1446H67.27V15.7746H67.9H68.53H69.16H71.05V16.4046H71.68V17.0346H72.31V17.6646V18.2946V18.9246H71.68V19.5546H71.05V20.1846H69.16H68.53H66.64V19.5546H66.01V18.9246H65.38V17.6646H66.64ZM79.2434 17.0346H74.8334V20.1846H74.2034H73.5734V19.5546V18.9246V18.2946V17.0346V16.4046V15.7746V15.1446V14.5146V13.8846V13.2546V12.6246H74.2034H74.8334V15.7746H79.2434V12.6246H80.5034V13.8846V18.9246V20.1846H79.2434V17.0346ZM84.9167 13.8846H84.2867H83.6567V14.5146H83.0267V15.1446V15.7746V17.0346V17.6646V18.2946H83.6567V18.9246H84.2867H84.9167H85.5467H86.1767H86.8067V18.2946H87.4367V17.6646V17.0346V15.1446V14.5146H86.8067V13.8846H86.1767H85.5467H84.9167ZM88.6967 17.0346V18.9246H88.0667V19.5546H87.4367V20.1846H85.5467H84.9167H83.0267V19.5546H82.3967V18.9246H81.7667V17.6646V17.0346V16.4046V15.7746V13.8846H82.3967V13.2546H83.0267V12.6246H84.2867H84.9167H85.5467H87.4367V13.2546H88.0667V13.8846H88.6967V15.1446V17.0346ZM89.9601 13.8846V13.2546V12.6246H90.5901H91.2201H93.1101H95.6301V13.2546H96.2601V13.8846H96.8901V15.1446V15.7746V16.4046H96.2601V17.0346H95.6301V17.6646H93.1101H91.2201V20.1846H89.9601V17.6646V17.0346V16.4046V15.7746V15.1446V14.5146V13.8846ZM93.1101 13.8846H91.8501H91.2201V15.7746V16.4046H91.8501H93.1101H93.7401H94.3701H95.0001V15.7746H95.6301V15.1446V14.5146H95.0001V13.8846H94.3701H93.7401H93.1101Z" fill="white"/>
</svg>
