<svg width="127" height="39" viewBox="0 0 127 39" fill="none" xmlns="http://www.w3.org/2000/svg">
<path fill-rule="evenodd" clip-rule="evenodd" d="M123.929 0.444336H3.92927V1.92582H123.929V0.444336ZM3.92854 1.92597H2.44706V3.40745H3.92854V1.92597ZM125.407 1.92597H123.926V3.40745H125.407V1.92597ZM125.407 35.2595H123.926V36.7405H3.92927V38.222H123.929V36.7409H125.407V35.2595ZM125.408 3.40702H126.889V35.2589H125.408V3.40702ZM0.964844 3.40702H2.44633V35.2589H0.964844V3.40702ZM2.44706 35.2595H3.92854V36.7409H2.44706V35.2595Z" fill="black"/>
<path fill-rule="evenodd" clip-rule="evenodd" d="M123.924 1.92578H3.92362V3.40741H2.44141V34.5185H125.404V3.40741H123.924V1.92578Z" fill="#FB38FF"/>
<rect x="2.44141" y="3.40723" width="1.48148" height="1.48148" fill="#FECDFF"/>
<rect x="125.402" y="3.40723" width="1.48148" height="1.48148" transform="rotate(90 125.402 3.40723)" fill="#FECDFF"/>
<rect x="125.402" y="30.8154" width="1.48148" height="1.48148" transform="rotate(-180 125.402 30.8154)" fill="#FECDFF"/>
<rect x="2.44141" y="30.8154" width="1.48148" height="1.48148" transform="rotate(-90 2.44141 30.8154)" fill="#FECDFF"/>
<rect x="2.44141" y="35.2598" width="4.44445" height="1.48148" transform="rotate(-90 2.44141 35.2598)" fill="#54004C"/>
<rect x="3.92188" y="3.40723" width="1.48148" height="1.48148" fill="#B800A5"/>
<rect x="125.402" y="4.88867" width="1.48148" height="1.48148" transform="rotate(90 125.402 4.88867)" fill="#B800A5"/>
<rect x="123.922" y="30.8154" width="1.48148" height="1.48148" transform="rotate(-180 123.922 30.8154)" fill="#B800A5"/>
<rect x="2.44141" y="29.334" width="1.48148" height="1.48148" transform="rotate(-90 2.44141 29.334)" fill="#B800A5"/>
<rect x="2.44141" y="4.88867" width="1.48148" height="1.48148" fill="#B800A5"/>
<rect x="123.922" y="3.40723" width="1.48148" height="1.48148" transform="rotate(90 123.922 3.40723)" fill="#B800A5"/>
<rect x="125.402" y="29.334" width="1.48148" height="1.48148" transform="rotate(-180 125.402 29.334)" fill="#B800A5"/>
<rect x="3.92188" y="30.8154" width="1.48148" height="1.48148" transform="rotate(-90 3.92188 30.8154)" fill="#B800A5"/>
<rect x="125.402" y="35.2598" width="1.48148" height="4.44445" transform="rotate(-180 125.402 35.2598)" fill="#54004C"/>
<rect x="123.922" y="36.7412" width="120" height="4.44444" transform="rotate(-180 123.922 36.7412)" fill="#54004C"/>
<rect x="3.92188" y="1.92578" width="120" height="1.48148" fill="#FECDFF"/>
<rect x="3.92188" y="30.8154" width="120" height="1.48148" fill="#FECDFF"/>
<rect x="9.84766" y="36.7412" width="4.44445" height="2.96296" transform="rotate(-90 9.84766 36.7412)" fill="#D14FFF"/>
<rect width="4.44445" height="2.96296" transform="matrix(-1.31134e-07 -1 -1 1.31134e-07 115.031 36.7412)" fill="#D14FFF"/>
<rect x="13.5508" y="36.7412" width="4.44445" height="2.22222" transform="rotate(-90 13.5508 36.7412)" fill="#D14FFF"/>
<rect width="4.44445" height="2.22222" transform="matrix(-1.31134e-07 -1 -1 1.31134e-07 111.328 36.7412)" fill="#D14FFF"/>
<rect x="16.5156" y="36.7412" width="4.44445" height="1.48148" transform="rotate(-90 16.5156 36.7412)" fill="#D14FFF"/>
<rect width="4.44445" height="1.48148" transform="matrix(-1.31134e-07 -1 -1 1.31134e-07 108.367 36.7412)" fill="#D14FFF"/>
<rect x="18.7422" y="36.7412" width="4.44445" height="0.74074" transform="rotate(-90 18.7422 36.7412)" fill="#D14FFF"/>
<rect width="4.44445" height="0.74074" transform="matrix(-1.31134e-07 -1 -1 1.31134e-07 106.145 36.7412)" fill="#D14FFF"/>
<path d="M37.3 16.627V14.737V14.107H38.56V14.737V15.367V20.407V21.667H37.3V20.407H36.67V19.777H36.04V19.147H35.41V18.517H34.78V17.887H34.15V17.257H33.52V16.627H32.89V18.517V21.667H32.26H31.63V21.037V20.407V19.777V18.517V17.887V17.257V16.627V15.997V15.367V14.737V14.107H32.26H32.89V14.737H33.52V15.367H34.15V15.997H34.78V16.627H35.41V17.257H36.04V17.887H36.67V18.517H37.3V16.627ZM39.8234 15.367V14.737V14.107H40.4534H41.0834H42.9734H46.7534V15.367H46.1234H45.4934H44.2334H43.6034H42.9734H41.7134H41.0834V17.257H45.4934V18.517H41.0834V21.667H40.4534H39.8234V21.037V20.407V19.777V18.517V17.887V17.257V16.627V15.997V15.367ZM48.0167 15.367V14.737V14.107H48.6467H49.2767H51.1667H54.3167V15.367H53.6867H53.0567H51.7967V18.517V21.667H50.5367V18.517V15.367H49.9067H48.0167ZM65.6634 19.147V19.777H66.2934V20.407H66.9234H67.5534H68.1834H68.8134H69.4434V19.777H70.0734V19.147H69.4434V18.517H68.8134H68.1834H67.5534H65.6634V17.887H65.0334V17.257H64.4034V16.627V15.997V15.367H65.0334V14.737H65.6634V14.107H66.9234H67.5534H68.1834H70.0734V14.737H70.7034V15.367H71.3334V16.627H70.0734V15.997H69.4434V15.367H68.8134H68.1834H67.5534H66.9234H66.2934V15.997H65.6634V16.627H66.2934V17.257H66.9234H67.5534H68.1834H70.0734V17.887H70.7034V18.517H71.3334V19.147V19.777V20.407H70.7034V21.037H70.0734V21.667H68.1834H67.5534H65.6634V21.037H65.0334V20.407H64.4034V19.147H65.6634ZM78.2668 18.517H73.8568V21.667H73.2268H72.5968V21.037V20.407V19.777V18.517V17.887V17.257V16.627V15.997V15.367V14.737V14.107H73.2268H73.8568V17.257H78.2668V14.107H79.5268V15.367V20.407V21.667H78.2668V18.517ZM83.9402 15.367H83.3102H82.6802V15.997H82.0502V16.627V17.257V18.517V19.147V19.777H82.6802V20.407H83.3102H83.9402H84.5702H85.2002H85.8302V19.777H86.4602V19.147V18.517V16.627V15.997H85.8302V15.367H85.2002H84.5702H83.9402ZM87.7202 18.517V20.407H87.0902V21.037H86.4602V21.667H84.5702H83.9402H82.0502V21.037H81.4202V20.407H80.7902V19.147V18.517V17.887V17.257V15.367H81.4202V14.737H82.0502V14.107H83.3102H83.9402H84.5702H86.4602V14.737H87.0902V15.367H87.7202V16.627V18.517ZM88.9835 15.367V14.737V14.107H89.6135H90.2435H92.1335H94.6535V14.737H95.2835V15.367H95.9135V16.627V17.257V17.887H95.2835V18.517H94.6535V19.147H92.1335H90.2435V21.667H88.9835V19.147V18.517V17.887V17.257V16.627V15.997V15.367ZM92.1335 15.367H90.8735H90.2435V17.257V17.887H90.8735H92.1335H92.7635H93.3935H94.0235V17.257H94.6535V16.627V15.997H94.0235V15.367H93.3935H92.7635H92.1335Z" fill="#393939"/>
<path d="M37.3 15.1455V13.2555V12.6255H38.56V13.2555V13.8855V18.9255V20.1855H37.3V18.9255H36.67V18.2955H36.04V17.6655H35.41V17.0355H34.78V16.4055H34.15V15.7755H33.52V15.1455H32.89V17.0355V20.1855H32.26H31.63V19.5555V18.9255V18.2955V17.0355V16.4055V15.7755V15.1455V14.5155V13.8855V13.2555V12.6255H32.26H32.89V13.2555H33.52V13.8855H34.15V14.5155H34.78V15.1455H35.41V15.7755H36.04V16.4055H36.67V17.0355H37.3V15.1455ZM39.8234 13.8855V13.2555V12.6255H40.4534H41.0834H42.9734H46.7534V13.8855H46.1234H45.4934H44.2334H43.6034H42.9734H41.7134H41.0834V15.7755H45.4934V17.0355H41.0834V20.1855H40.4534H39.8234V19.5555V18.9255V18.2955V17.0355V16.4055V15.7755V15.1455V14.5155V13.8855ZM48.0167 13.8855V13.2555V12.6255H48.6467H49.2767H51.1667H54.3167V13.8855H53.6867H53.0567H51.7967V17.0355V20.1855H50.5367V17.0355V13.8855H49.9067H48.0167ZM65.6634 17.6655V18.2955H66.2934V18.9255H66.9234H67.5534H68.1834H68.8134H69.4434V18.2955H70.0734V17.6655H69.4434V17.0355H68.8134H68.1834H67.5534H65.6634V16.4055H65.0334V15.7755H64.4034V15.1455V14.5155V13.8855H65.0334V13.2555H65.6634V12.6255H66.9234H67.5534H68.1834H70.0734V13.2555H70.7034V13.8855H71.3334V15.1455H70.0734V14.5155H69.4434V13.8855H68.8134H68.1834H67.5534H66.9234H66.2934V14.5155H65.6634V15.1455H66.2934V15.7755H66.9234H67.5534H68.1834H70.0734V16.4055H70.7034V17.0355H71.3334V17.6655V18.2955V18.9255H70.7034V19.5555H70.0734V20.1855H68.1834H67.5534H65.6634V19.5555H65.0334V18.9255H64.4034V17.6655H65.6634ZM78.2668 17.0355H73.8568V20.1855H73.2268H72.5968V19.5555V18.9255V18.2955V17.0355V16.4055V15.7755V15.1455V14.5155V13.8855V13.2555V12.6255H73.2268H73.8568V15.7755H78.2668V12.6255H79.5268V13.8855V18.9255V20.1855H78.2668V17.0355ZM83.9402 13.8855H83.3102H82.6802V14.5155H82.0502V15.1455V15.7755V17.0355V17.6655V18.2955H82.6802V18.9255H83.3102H83.9402H84.5702H85.2002H85.8302V18.2955H86.4602V17.6655V17.0355V15.1455V14.5155H85.8302V13.8855H85.2002H84.5702H83.9402ZM87.7202 17.0355V18.9255H87.0902V19.5555H86.4602V20.1855H84.5702H83.9402H82.0502V19.5555H81.4202V18.9255H80.7902V17.6655V17.0355V16.4055V15.7755V13.8855H81.4202V13.2555H82.0502V12.6255H83.3102H83.9402H84.5702H86.4602V13.2555H87.0902V13.8855H87.7202V15.1455V17.0355ZM88.9835 13.8855V13.2555V12.6255H89.6135H90.2435H92.1335H94.6535V13.2555H95.2835V13.8855H95.9135V15.1455V15.7755V16.4055H95.2835V17.0355H94.6535V17.6655H92.1335H90.2435V20.1855H88.9835V17.6655V17.0355V16.4055V15.7755V15.1455V14.5155V13.8855ZM92.1335 13.8855H90.8735H90.2435V15.7755V16.4055H90.8735H92.1335H92.7635H93.3935H94.0235V15.7755H94.6535V15.1455V14.5155H94.0235V13.8855H93.3935H92.7635H92.1335Z" fill="white"/>
</svg>
