<svg width="170" height="51" viewBox="0 0 170 51" fill="none" xmlns="http://www.w3.org/2000/svg">
<path fill-rule="evenodd" clip-rule="evenodd" d="M166 0H4V2H2V4H0V47H2V49H4V51H166V49H168V47H170V4H168V2H166V0ZM166 2V4H168V47H166V49H4V47H2V4H4V2H166Z" fill="black"/>
<path fill-rule="evenodd" clip-rule="evenodd" d="M166 2H4V4H2V46H168V4H166V2Z" fill="#FB38FF"/>
<rect x="2" y="4" width="2" height="2" fill="#FECDFF"/>
<rect x="168" y="4" width="2" height="2" transform="rotate(90 168 4)" fill="#FECDFF"/>
<rect x="168" y="41" width="2" height="2" transform="rotate(-180 168 41)" fill="#FECDFF"/>
<rect x="2" y="41" width="2" height="2" transform="rotate(-90 2 41)" fill="#FECDFF"/>
<rect x="2" y="47" width="6" height="2" transform="rotate(-90 2 47)" fill="#54004C"/>
<rect x="4" y="4" width="2" height="2" fill="#B800A5"/>
<rect x="168" y="6" width="2" height="2" transform="rotate(90 168 6)" fill="#B800A5"/>
<rect x="166" y="41" width="2" height="2" transform="rotate(-180 166 41)" fill="#B800A5"/>
<rect x="2" y="39" width="2" height="2" transform="rotate(-90 2 39)" fill="#B800A5"/>
<rect x="2" y="6" width="2" height="2" fill="#B800A5"/>
<rect x="166" y="4" width="2" height="2" transform="rotate(90 166 4)" fill="#B800A5"/>
<rect x="168" y="39" width="2" height="2" transform="rotate(-180 168 39)" fill="#B800A5"/>
<rect x="4" y="41" width="2" height="2" transform="rotate(-90 4 41)" fill="#B800A5"/>
<rect x="168" y="47" width="2" height="6" transform="rotate(-180 168 47)" fill="#54004C"/>
<rect x="166" y="49" width="162" height="5.99999" transform="rotate(-180 166 49)" fill="#54004C"/>
<rect x="4" y="2" width="162" height="2" fill="#FECDFF"/>
<rect x="4" y="41" width="162" height="2" fill="#FECDFF"/>
<rect x="12" y="49" width="6" height="4" transform="rotate(-90 12 49)" fill="#D14FFF"/>
<rect width="6" height="4" transform="matrix(-1.31134e-07 -1 -1 1.31134e-07 154 49)" fill="#D14FFF"/>
<rect x="17" y="49" width="6" height="3" transform="rotate(-90 17 49)" fill="#D14FFF"/>
<rect width="6" height="3" transform="matrix(-1.31134e-07 -1 -1 1.31134e-07 149 49)" fill="#D14FFF"/>
<rect x="21" y="49" width="6" height="2" transform="rotate(-90 21 49)" fill="#D14FFF"/>
<rect width="6" height="2" transform="matrix(-1.31134e-07 -1 -1 1.31134e-07 145 49)" fill="#D14FFF"/>
<rect x="24" y="49" width="6" height="0.999999" transform="rotate(-90 24 49)" fill="#D14FFF"/>
<rect width="6" height="0.999999" transform="matrix(-1.31134e-07 -1 -1 1.31134e-07 142 49)" fill="#D14FFF"/>
<path d="M31.6 21.92V18.14V16.88H34.12V18.14V19.4V29.48V32H31.6V29.48H30.34V28.22H29.08V26.96H27.82V25.7H26.56V24.44H25.3V23.18H24.04V21.92H22.78V25.7V32H21.52H20.26V30.74V29.48V28.22V25.7V24.44V23.18V21.92V20.66V19.4V18.14V16.88H21.52H22.78V18.14H24.04V19.4H25.3V20.66H26.56V21.92H27.82V23.18H29.08V24.44H30.34V25.7H31.6V21.92ZM36.6467 19.4V18.14V16.88H37.9067H39.1667H42.9467H50.5067V19.4H49.2467H47.9867H45.4667H44.2067H42.9467H40.4267H39.1667V23.18H47.9867V25.7H39.1667V32H37.9067H36.6467V30.74V29.48V28.22V25.7V24.44V23.18V21.92V20.66V19.4ZM53.0334 19.4V18.14V16.88H54.2934H55.5534H59.3334H65.6334V19.4H64.3734H63.1134H60.5934V25.7V32H58.0734V25.7V19.4H56.8134H53.0334ZM88.3269 26.96V28.22H89.5869V29.48H90.8469H92.1069H93.3669H94.6269H95.8869V28.22H97.1469V26.96H95.8869V25.7H94.6269H93.3669H92.1069H88.3269V24.44H87.0669V23.18H85.8069V21.92V20.66V19.4H87.0669V18.14H88.3269V16.88H90.8469H92.1069H93.3669H97.1469V18.14H98.4069V19.4H99.6669V21.92H97.1469V20.66H95.8869V19.4H94.6269H93.3669H92.1069H90.8469H89.5869V20.66H88.3269V21.92H89.5869V23.18H90.8469H92.1069H93.3669H97.1469V24.44H98.4069V25.7H99.6669V26.96V28.22V29.48H98.4069V30.74H97.1469V32H93.3669H92.1069H88.3269V30.74H87.0669V29.48H85.8069V26.96H88.3269ZM113.534 25.7H104.714V32H103.454H102.194V30.74V29.48V28.22V25.7V24.44V23.18V21.92V20.66V19.4V18.14V16.88H103.454H104.714V23.18H113.534V16.88H116.054V19.4V29.48V32H113.534V25.7ZM124.88 19.4H123.62H122.36V20.66H121.1V21.92V23.18V25.7V26.96V28.22H122.36V29.48H123.62H124.88H126.14H127.4H128.66V28.22H129.92V26.96V25.7V21.92V20.66H128.66V19.4H127.4H126.14H124.88ZM132.44 25.7V29.48H131.18V30.74H129.92V32H126.14H124.88H121.1V30.74H119.84V29.48H118.58V26.96V25.7V24.44V23.18V19.4H119.84V18.14H121.1V16.88H123.62H124.88H126.14H129.92V18.14H131.18V19.4H132.44V21.92V25.7ZM134.967 19.4V18.14V16.88H136.227H137.487H141.267H146.307V18.14H147.567V19.4H148.827V21.92V23.18V24.44H147.567V25.7H146.307V26.96H141.267H137.487V32H134.967V26.96V25.7V24.44V23.18V21.92V20.66V19.4ZM141.267 19.4H138.747H137.487V23.18V24.44H138.747H141.267H142.527H143.787H145.047V23.18H146.307V21.92V20.66H145.047V19.4H143.787H142.527H141.267Z" fill="#393939"/>
<path d="M31.6 19.92V16.14V14.88H34.12V16.14V17.4V27.48V30H31.6V27.48H30.34V26.22H29.08V24.96H27.82V23.7H26.56V22.44H25.3V21.18H24.04V19.92H22.78V23.7V30H21.52H20.26V28.74V27.48V26.22V23.7V22.44V21.18V19.92V18.66V17.4V16.14V14.88H21.52H22.78V16.14H24.04V17.4H25.3V18.66H26.56V19.92H27.82V21.18H29.08V22.44H30.34V23.7H31.6V19.92ZM36.6467 17.4V16.14V14.88H37.9067H39.1667H42.9467H50.5067V17.4H49.2467H47.9867H45.4667H44.2067H42.9467H40.4267H39.1667V21.18H47.9867V23.7H39.1667V30H37.9067H36.6467V28.74V27.48V26.22V23.7V22.44V21.18V19.92V18.66V17.4ZM53.0334 17.4V16.14V14.88H54.2934H55.5534H59.3334H65.6334V17.4H64.3734H63.1134H60.5934V23.7V30H58.0734V23.7V17.4H56.8134H53.0334ZM88.3269 24.96V26.22H89.5869V27.48H90.8469H92.1069H93.3669H94.6269H95.8869V26.22H97.1469V24.96H95.8869V23.7H94.6269H93.3669H92.1069H88.3269V22.44H87.0669V21.18H85.8069V19.92V18.66V17.4H87.0669V16.14H88.3269V14.88H90.8469H92.1069H93.3669H97.1469V16.14H98.4069V17.4H99.6669V19.92H97.1469V18.66H95.8869V17.4H94.6269H93.3669H92.1069H90.8469H89.5869V18.66H88.3269V19.92H89.5869V21.18H90.8469H92.1069H93.3669H97.1469V22.44H98.4069V23.7H99.6669V24.96V26.22V27.48H98.4069V28.74H97.1469V30H93.3669H92.1069H88.3269V28.74H87.0669V27.48H85.8069V24.96H88.3269ZM113.534 23.7H104.714V30H103.454H102.194V28.74V27.48V26.22V23.7V22.44V21.18V19.92V18.66V17.4V16.14V14.88H103.454H104.714V21.18H113.534V14.88H116.054V17.4V27.48V30H113.534V23.7ZM124.88 17.4H123.62H122.36V18.66H121.1V19.92V21.18V23.7V24.96V26.22H122.36V27.48H123.62H124.88H126.14H127.4H128.66V26.22H129.92V24.96V23.7V19.92V18.66H128.66V17.4H127.4H126.14H124.88ZM132.44 23.7V27.48H131.18V28.74H129.92V30H126.14H124.88H121.1V28.74H119.84V27.48H118.58V24.96V23.7V22.44V21.18V17.4H119.84V16.14H121.1V14.88H123.62H124.88H126.14H129.92V16.14H131.18V17.4H132.44V19.92V23.7ZM134.967 17.4V16.14V14.88H136.227H137.487H141.267H146.307V16.14H147.567V17.4H148.827V19.92V21.18V22.44H147.567V23.7H146.307V24.96H141.267H137.487V30H134.967V24.96V23.7V22.44V21.18V19.92V18.66V17.4ZM141.267 17.4H138.747H137.487V21.18V22.44H138.747H141.267H142.527H143.787H145.047V21.18H146.307V19.92V18.66H145.047V17.4H143.787H142.527H141.267Z" fill="white"/>
</svg>
