<svg width="170" height="52" viewBox="0 0 170 52" fill="none" xmlns="http://www.w3.org/2000/svg">
<path fill-rule="evenodd" clip-rule="evenodd" d="M166.004 0H4.00361V2.0343H2.00508V4.0686H4.00508V2.0343H166.004V0ZM168.004 2.0343H166.004V4.0686L168.003 4.06859V47.8061L166.004 47.806V49.8403H168.004V47.806L170.003 47.8061V4.06859L168.004 4.0686V2.0343ZM0.00256348 4.06859H2.00257V47.8061H0.00256348V4.06859ZM2.00508 47.806H4.00508V49.8403L166.004 49.8403V51.8746H4.00361V49.8403L2.00508 49.8403V47.806Z" fill="black"/>
<path fill-rule="evenodd" clip-rule="evenodd" d="M166.004 2.03467H4.00361V4.06897H2.0011V46.7893H168.002V4.06897H166.004V2.03467Z" fill="#FF9638"/>
<rect x="2.0011" y="4.06836" width="2.00001" height="2.0343" fill="#FFC088"/>
<rect x="168.003" y="4.06836" width="2.0343" height="2.00001" transform="rotate(90 168.003 4.06836)" fill="#FFC088"/>
<rect x="168.003" y="41.7036" width="2.00001" height="2.0343" transform="rotate(-180 168.003 41.7036)" fill="#FFC088"/>
<rect x="2.0011" y="41.7036" width="2.0343" height="2.00001" transform="rotate(-90 2.0011 41.7036)" fill="#FFC088"/>
<rect x="2.0011" y="47.8062" width="6.10291" height="2.00001" transform="rotate(-90 2.0011 47.8062)" fill="#ED7000"/>
<rect x="4.00366" y="4.06836" width="2.00001" height="2.0343" fill="#DC7519"/>
<rect x="168.003" y="6.10303" width="2.0343" height="2.00001" transform="rotate(90 168.003 6.10303)" fill="#DC7519"/>
<rect x="166.004" y="41.7036" width="2.00001" height="2.0343" transform="rotate(-180 166.004 41.7036)" fill="#DC7519"/>
<rect x="2.0011" y="39.6689" width="2.0343" height="2.00001" transform="rotate(-90 2.0011 39.6689)" fill="#DC7519"/>
<rect x="2.0011" y="6.10303" width="2.00001" height="2.0343" fill="#DC7519"/>
<rect x="166.004" y="4.06836" width="2.0343" height="2.00001" transform="rotate(90 166.004 4.06836)" fill="#DC7519"/>
<rect x="168.003" y="39.6689" width="2.00001" height="2.0343" transform="rotate(-180 168.003 39.6689)" fill="#DC7519"/>
<rect x="4.00366" y="41.7036" width="2.0343" height="2.00001" transform="rotate(-90 4.00366 41.7036)" fill="#DC7519"/>
<rect x="168.003" y="47.8062" width="2.00001" height="6.10291" transform="rotate(-180 168.003 47.8062)" fill="#ED7000"/>
<rect x="166.004" y="49.8403" width="162.001" height="6.10289" transform="rotate(-180 166.004 49.8403)" fill="#ED7000"/>
<rect x="4.00366" y="2.03418" width="162.001" height="2.0343" fill="#FFC088"/>
<rect x="4.00366" y="41.7036" width="162.001" height="2.0343" fill="#FFC088"/>
<rect x="12.0017" y="49.8403" width="6.10291" height="4.00001" transform="rotate(-90 12.0017 49.8403)" fill="#FFA24F"/>
<rect width="6.10291" height="4.00001" transform="matrix(-1.28923e-07 -1 -1 1.33383e-07 154.001 49.8403)" fill="#FFA24F"/>
<rect x="17.0001" y="49.8403" width="6.10291" height="3.00001" transform="rotate(-90 17.0001 49.8403)" fill="#FFA24F"/>
<rect width="6.10291" height="3.00001" transform="matrix(-1.28923e-07 -1 -1 1.33383e-07 149.003 49.8403)" fill="#FFA24F"/>
<rect x="21.0011" y="49.8403" width="6.10291" height="2.00001" transform="rotate(-90 21.0011 49.8403)" fill="#FFA24F"/>
<rect width="6.10291" height="2.00001" transform="matrix(-1.28923e-07 -1 -1 1.33383e-07 145.006 49.8403)" fill="#FFA24F"/>
<rect x="24.001" y="49.8403" width="6.10291" height="1" transform="rotate(-90 24.001 49.8403)" fill="#FFA24F"/>
<rect width="6.10291" height="1" transform="matrix(-1.28923e-07 -1 -1 1.33383e-07 142.002 49.8403)" fill="#FFA24F"/>
<path d="M36.26 20.4V19.14V17.88H37.52H38.78H42.56H47.6V19.14H48.86V20.4H50.12V22.92V24.18V25.44H48.86V26.7H47.6V27.96H42.56H38.78V33H36.26V27.96V26.7V25.44V24.18V22.92V21.66V20.4ZM42.56 20.4H40.04H38.78V24.18V25.44H40.04H42.56H43.82H45.08H46.34V24.18H47.6V22.92V21.66H46.34V20.4H45.08H43.82H42.56ZM66.5067 30.48V33H62.7267H61.4667H55.1667H52.6467V30.48V29.22V27.96V26.7H53.9067V25.44H55.1667V24.18H58.9467H60.2067H61.4667H62.7267V22.92H63.9867V21.66H62.7267V20.4H61.4667H60.2067H58.9467H57.6867H56.4267V21.66H55.1667V22.92H52.6467V20.4H53.9067V19.14H55.1667V17.88H58.9467H60.2067H61.4667H63.9867V19.14H65.2467V20.4H66.5067V21.66V22.92V24.18H65.2467V25.44H63.9867V26.7H60.2067H58.9467H57.6867H56.4267V27.96H55.1667V30.48H56.4267H57.6867H61.4667H62.7267H63.9867H65.2467H66.5067ZM69.0334 20.4V19.14V17.88H70.2934H71.5534H75.3334H80.3734V19.14H81.6334V20.4H82.8934V22.92V24.18V25.44H81.6334V26.7H80.3734V27.96H75.3334H71.5534V33H69.0334V27.96V26.7V25.44V24.18V22.92V21.66V20.4ZM75.3334 20.4H72.8134H71.5534V24.18V25.44H72.8134H75.3334H76.5934H77.8534H79.1134V24.18H80.3734V22.92V21.66H79.1134V20.4H77.8534H76.5934H75.3334ZM96.7602 33H87.9402H86.6802H85.4202V31.74V30.48V29.22V26.7V25.44V24.18V22.92V21.66V20.4V19.14V17.88H86.6802H87.9402V30.48H96.7602V27.96H99.2802V30.48V33H96.7602ZM101.807 31.74V30.48V27.96V25.44V24.18V22.92H103.067V21.66H104.327V20.4H105.587V19.14H106.847V17.88H110.627V19.14H111.887V20.4H113.147V21.66H114.407V22.92H115.667V24.18V25.44V27.96V30.48V31.74V33H114.407H113.147V31.74V30.48V27.96H104.327V30.48V31.74V33H103.067H101.807V31.74ZM113.147 25.44V24.18H111.887V22.92H110.627V21.66H109.367V20.4H108.107V21.66H106.847V22.92H105.587V24.18H104.327V25.44H113.147ZM130.794 19.14V20.4V21.66V22.92H129.534V24.18H128.274V25.44H127.014V26.7H125.754V27.96V33H123.234V27.96V26.7H121.974V25.44H120.714V24.18H119.454V22.92H118.194V21.66V20.4V19.14V17.88H119.454H120.714V19.14V20.4V21.66H121.974V22.92H123.234V24.18H124.494H125.754V22.92H127.014V21.66H128.274V20.4V19.14V17.88H129.534H130.794V19.14Z" fill="#393939"/>
<path d="M36.26 18.4V17.14V15.88H37.52H38.78H42.56H47.6V17.14H48.86V18.4H50.12V20.92V22.18V23.44H48.86V24.7H47.6V25.96H42.56H38.78V31H36.26V25.96V24.7V23.44V22.18V20.92V19.66V18.4ZM42.56 18.4H40.04H38.78V22.18V23.44H40.04H42.56H43.82H45.08H46.34V22.18H47.6V20.92V19.66H46.34V18.4H45.08H43.82H42.56ZM66.5067 28.48V31H62.7267H61.4667H55.1667H52.6467V28.48V27.22V25.96V24.7H53.9067V23.44H55.1667V22.18H58.9467H60.2067H61.4667H62.7267V20.92H63.9867V19.66H62.7267V18.4H61.4667H60.2067H58.9467H57.6867H56.4267V19.66H55.1667V20.92H52.6467V18.4H53.9067V17.14H55.1667V15.88H58.9467H60.2067H61.4667H63.9867V17.14H65.2467V18.4H66.5067V19.66V20.92V22.18H65.2467V23.44H63.9867V24.7H60.2067H58.9467H57.6867H56.4267V25.96H55.1667V28.48H56.4267H57.6867H61.4667H62.7267H63.9867H65.2467H66.5067ZM69.0334 18.4V17.14V15.88H70.2934H71.5534H75.3334H80.3734V17.14H81.6334V18.4H82.8934V20.92V22.18V23.44H81.6334V24.7H80.3734V25.96H75.3334H71.5534V31H69.0334V25.96V24.7V23.44V22.18V20.92V19.66V18.4ZM75.3334 18.4H72.8134H71.5534V22.18V23.44H72.8134H75.3334H76.5934H77.8534H79.1134V22.18H80.3734V20.92V19.66H79.1134V18.4H77.8534H76.5934H75.3334ZM96.7602 31H87.9402H86.6802H85.4202V29.74V28.48V27.22V24.7V23.44V22.18V20.92V19.66V18.4V17.14V15.88H86.6802H87.9402V28.48H96.7602V25.96H99.2802V28.48V31H96.7602ZM101.807 29.74V28.48V25.96V23.44V22.18V20.92H103.067V19.66H104.327V18.4H105.587V17.14H106.847V15.88H110.627V17.14H111.887V18.4H113.147V19.66H114.407V20.92H115.667V22.18V23.44V25.96V28.48V29.74V31H114.407H113.147V29.74V28.48V25.96H104.327V28.48V29.74V31H103.067H101.807V29.74ZM113.147 23.44V22.18H111.887V20.92H110.627V19.66H109.367V18.4H108.107V19.66H106.847V20.92H105.587V22.18H104.327V23.44H113.147ZM130.794 17.14V18.4V19.66V20.92H129.534V22.18H128.274V23.44H127.014V24.7H125.754V25.96V31H123.234V25.96V24.7H121.974V23.44H120.714V22.18H119.454V20.92H118.194V19.66V18.4V17.14V15.88H119.454H120.714V17.14V18.4V19.66H121.974V20.92H123.234V22.18H124.494H125.754V20.92H127.014V19.66H128.274V18.4V17.14V15.88H129.534H130.794V17.14Z" fill="white"/>
</svg>
