<svg width="158" height="28" viewBox="0 0 158 28" fill="none" xmlns="http://www.w3.org/2000/svg">
<path fill-rule="evenodd" clip-rule="evenodd" d="M9 2L9 1L151 1.00001V2.00001L154 2.00001V4L4 3.99999L4 2L9 2ZM157 20L2 20L2 17.3997H1.28906V6.44416H2L2 4H154L155 4.00001V6.44416H157V17V17.3997V20ZM155 22H157V20L3 20L3 22H6L6 23L155 23V22Z" fill="#FF9332"/>
<rect x="1.28906" y="5.15527" width="1.28889" height="1.28889" fill="#393939"/>
<rect x="2.57812" y="22.5557" width="2.57778" height="1.28889" transform="rotate(90 2.57812 22.5557)" fill="#393939"/>
<rect x="6.44531" y="21.2666" width="1.28889" height="1.28889" transform="rotate(90 6.44531 21.2666)" fill="#FFBD82"/>
<rect x="154.867" y="6.15527" width="2.57778" height="1.28889" transform="rotate(-90 154.867 6.15527)" fill="#393939"/>
<rect x="1.28906" y="3.86621" width="1.28889" height="1.28889" fill="#393939"/>
<rect x="3.86719" y="25.1338" width="1.28889" height="1.28889" transform="rotate(90 3.86719 25.1338)" fill="#393939"/>
<rect x="2.57812" y="2.57812" width="1.28889" height="1.28889" fill="#393939"/>
<rect x="5.15625" y="26.4219" width="1.28889" height="1.28889" transform="rotate(90 5.15625 26.4219)" fill="#393939"/>
<rect x="153.578" y="3.57715" width="1.28889" height="1.28889" transform="rotate(-90 153.578 3.57715)" fill="#393939"/>
<path fill-rule="evenodd" clip-rule="evenodd" d="M154.863 22.5551H156.152V18.6885L154.863 18.6885V22.5551ZM2.57795 22.562H1.28906L1.28906 18.6953L2.57795 18.6953L2.57795 22.562ZM2.5783 23.851H2.57812L2.57813 19.9844L3.86701 19.9844V21.2734L5.15608 21.2734V22.5625L6.44514 22.5625V24.0005L151 24.0005V28.0005L5.99983 28.0004V26.4292H3.86736V25.1401H2.5783L2.5783 23.851ZM153.578 26.4223H151V22.5557H152.289V21.2666H153.574V19.9777L154.863 19.9777V25.1333H153.578V26.4223Z" fill="#EE7000"/>
<rect x="6.44531" y="26.4219" width="1.28889" height="1.28889" transform="rotate(90 6.44531 26.4219)" fill="#393939"/>
<rect x="151.004" y="2.28906" width="1.28889" height="2.57778" transform="rotate(-90 151.004 2.28906)" fill="#393939"/>
<rect x="6" width="145" height="1" fill="#393939"/>
<rect y="6.44434" width="1.28889" height="16.1111" fill="#393939"/>
<rect x="157.445" y="22.2666" width="1.28889" height="16.1111" transform="rotate(-180 157.445 22.2666)" fill="#393939"/>
<rect x="151" y="1" width="1.00001" height="145" transform="rotate(90 151 1)" fill="#FFBD82"/>
<rect x="3.86719" y="3.86621" width="1.28889" height="1.28889" transform="rotate(90 3.86719 3.86621)" fill="#FFBD82"/>
<rect x="2.57812" y="6.44434" width="2.57778" height="1.28889" transform="rotate(90 2.57812 6.44434)" fill="#FFBD82"/>
<rect x="5.15625" y="2.57812" width="1.28889" height="1.28889" transform="rotate(90 5.15625 2.57812)" fill="#FFBD82"/>
<rect x="6.44531" y="2.57812" width="1.28889" height="1.28889" transform="rotate(90 6.44531 2.57812)" fill="#FFBD82"/>
<rect x="153.578" y="2.28906" width="1.28889" height="2.57778" transform="rotate(90 153.578 2.28906)" fill="#FFBD82"/>
<rect x="154.867" y="3.57715" width="1.28889" height="1.28889" transform="rotate(90 154.867 3.57715)" fill="#FFBD82"/>
<rect x="156.156" y="6.15527" width="2.57778" height="1.28889" transform="rotate(90 156.156 6.15527)" fill="#FFBD82"/>
<rect width="3.86667" height="2.57778" transform="matrix(-1.31134e-07 -1 -1 1.31134e-07 23.8438 27.7109)" fill="#FFDDBE"/>
<rect width="3.86667" height="2.57778" transform="matrix(-1.31134e-07 -1 -1 1.31134e-07 145.379 27.8662)" fill="#FFDDBE"/>
<rect width="3.86667" height="1.93333" transform="matrix(-1.31134e-07 -1 -1 1.31134e-07 20.6211 27.7109)" fill="#FFDDBE"/>
<rect width="3.86667" height="1.93333" transform="matrix(-1.31134e-07 -1 -1 1.31134e-07 142.156 27.8662)" fill="#FFDDBE"/>
<rect width="3.86667" height="1.28889" transform="matrix(-1.31134e-07 -1 -1 1.31134e-07 18.043 27.7109)" fill="#FFDDBE"/>
<rect width="3.86667" height="1.28889" transform="matrix(-1.31134e-07 -1 -1 1.31134e-07 139.578 27.8662)" fill="#FFDDBE"/>
<rect width="3.86667" height="0.644444" transform="matrix(-1.31134e-07 -1 -1 1.31134e-07 16.1094 27.7109)" fill="#FFDDBE"/>
<rect width="3.86667" height="0.644444" transform="matrix(-1.31134e-07 -1 -1 1.31134e-07 137.645 27.8662)" fill="#FFDDBE"/>
<rect x="2.57812" y="17.4004" width="2.57778" height="1.28889" transform="rotate(90 2.57812 17.4004)" fill="#FFBD82"/>
<rect x="5.15625" y="21.2666" width="1.28889" height="1.28889" transform="rotate(90 5.15625 21.2666)" fill="#FFBD82"/>
<rect x="3.86719" y="19.9775" width="1.28889" height="1.28889" transform="rotate(90 3.86719 19.9775)" fill="#FFBD82"/>
<rect x="153.578" y="22.5557" width="2.57778" height="1.28889" transform="rotate(-180 153.578 22.5557)" fill="#FFBD82"/>
<rect x="154.867" y="21.2666" width="1.28889" height="1.28889" transform="rotate(-180 154.867 21.2666)" fill="#FFBD82"/>
<rect x="156.156" y="18.6885" width="1.28889" height="2.57778" transform="rotate(-180 156.156 18.6885)" fill="#FFBD82"/>
<rect x="6" y="27" width="145" height="1" fill="#393939"/>
<rect x="156.156" y="24.5781" width="1.28889" height="2.57778" transform="rotate(-180 156.156 24.5781)" fill="#393939"/>
<rect x="154.867" y="25.8662" width="1.28889" height="1.28889" transform="rotate(-180 154.867 25.8662)" fill="#393939"/>
<rect x="153.578" y="27.1553" width="2.57778" height="1.28889" transform="rotate(-180 153.578 27.1553)" fill="#393939"/>
<rect x="151" y="23" width="1.00001" height="145" transform="rotate(90 151 23)" fill="#FFBD82"/>
<rect x="3.86719" y="1.28906" width="2.57778" height="1.28889" fill="#393939"/>
</svg>
