<svg width="170" height="51" viewBox="0 0 170 51" fill="none" xmlns="http://www.w3.org/2000/svg">
<path fill-rule="evenodd" clip-rule="evenodd" d="M166 0H4V2H2V4H0V47H2V49H4V51H166V49H168V47H170V4H168V2H166V0ZM166 2V4H168V47H166V49H4V47H2V4H4V2H166Z" fill="black"/>
<path fill-rule="evenodd" clip-rule="evenodd" d="M166 2H4V4H2V46H168V4H166V2Z" fill="#77C6FF"/>
<rect x="2" y="4" width="2" height="2" fill="#B9E2FF"/>
<rect x="168" y="4" width="2" height="2" transform="rotate(90 168 4)" fill="#B9E2FF"/>
<rect x="168" y="41" width="2" height="2" transform="rotate(-180 168 41)" fill="#B9E2FF"/>
<rect x="2" y="41" width="2" height="2" transform="rotate(-90 2 41)" fill="#B9E2FF"/>
<rect x="2" y="47" width="6" height="2" transform="rotate(-90 2 47)" fill="#007ABE"/>
<rect x="4" y="4" width="2" height="2" fill="#005EEB"/>
<rect x="168" y="6" width="2" height="2" transform="rotate(90 168 6)" fill="#005EEB"/>
<rect x="166" y="41" width="2" height="2" transform="rotate(-180 166 41)" fill="#005EEB"/>
<rect x="2" y="39" width="2" height="2" transform="rotate(-90 2 39)" fill="#005EEB"/>
<rect x="2" y="6" width="2" height="2" fill="#005EEB"/>
<rect x="166" y="4" width="2" height="2" transform="rotate(90 166 4)" fill="#005EEB"/>
<rect x="168" y="39" width="2" height="2" transform="rotate(-180 168 39)" fill="#005EEB"/>
<rect x="4" y="41" width="2" height="2" transform="rotate(-90 4 41)" fill="#005EEB"/>
<rect x="168" y="47" width="2" height="6" transform="rotate(-180 168 47)" fill="#007ABE"/>
<rect x="166" y="49" width="162" height="5.99999" transform="rotate(-180 166 49)" fill="#007ABE"/>
<rect x="4" y="2" width="162" height="2" fill="#B9E2FF"/>
<rect x="4" y="41" width="162" height="2" fill="#B9E2FF"/>
<rect x="12" y="49" width="6" height="4" transform="rotate(-90 12 49)" fill="#7CD0FF"/>
<rect width="6" height="4" transform="matrix(-1.31134e-07 -1 -1 1.31134e-07 154 49)" fill="#7CD0FF"/>
<rect x="17" y="49" width="6" height="3" transform="rotate(-90 17 49)" fill="#7CD0FF"/>
<rect width="6" height="3" transform="matrix(-1.31134e-07 -1 -1 1.31134e-07 149 49)" fill="#7CD0FF"/>
<rect x="21" y="49" width="6" height="2" transform="rotate(-90 21 49)" fill="#7CD0FF"/>
<rect width="6" height="2" transform="matrix(-1.31134e-07 -1 -1 1.31134e-07 145 49)" fill="#7CD0FF"/>
<rect x="24" y="49" width="6" height="0.999999" transform="rotate(-90 24 49)" fill="#7CD0FF"/>
<rect width="6" height="0.999999" transform="matrix(-1.31134e-07 -1 -1 1.31134e-07 142 49)" fill="#7CD0FF"/>
<path d="M38.008 18.92V17.912V16.904H39.016H40.024H43.048H48.088V18.92H47.08H46.072H44.056V23.96V29H42.04V23.96V18.92H41.032H38.008ZM51.1174 18.92V17.912V16.904H52.1254H53.1334H56.1574H62.2054V18.92H61.1974H60.1894H58.1734H57.1654H56.1574H54.1414H53.1334V21.944H60.1894V23.96H53.1334V26.984H54.1414H56.1574H57.1654H58.1734H60.1894H61.1974H62.2054V29H56.1574H53.1334H52.1254H51.1174V27.992V26.984V25.976V23.96V22.952V21.944V20.936V19.928V18.92ZM73.2988 29H66.2428H65.2348H64.2268V27.992V26.984V25.976V23.96V22.952V21.944V20.936V19.928V18.92V17.912V16.904H65.2348H66.2428V26.984H73.2988V24.968H75.3148V26.984V29H73.2988ZM77.3361 18.92V17.912V16.904H78.3441H79.3521H82.3761H88.4241V18.92H87.4161H86.4081H84.3921H83.3841H82.3761H80.3601H79.3521V21.944H86.4081V23.96H79.3521V26.984H80.3601H82.3761H83.3841H84.3921H86.4081H87.4161H88.4241V29H82.3761H79.3521H78.3441H77.3361V27.992V26.984V25.976V23.96V22.952V21.944V20.936V19.928V18.92ZM95.4855 18.92H94.4775H93.4695V19.928H92.4615V20.936V21.944V23.96V24.968V25.976H93.4695V26.984H94.4775H95.4855H96.4935H97.5015H98.5095V25.976H99.5175V24.968V23.96H95.4855H94.4775V21.944H95.4855H99.5175H101.534V24.968V25.976V26.984H100.526V27.992H99.5175V29H96.4935H95.4855H92.4615V27.992H91.4535V26.984H90.4455V24.968V23.96V22.952V21.944V18.92H91.4535V17.912H92.4615V16.904H94.4775H95.4855H96.4935H100.526V17.912H101.534V19.928H99.5175V18.92H97.5015H96.4935H95.4855ZM103.555 18.92V17.912V16.904H104.563H105.571H108.595H112.627V17.912H113.635V18.92H114.643V20.936V21.944V22.952H113.635V23.96H112.627V24.968V25.976H113.635V26.984H114.643V27.992V29H112.627V27.992H111.619V26.984H110.611V25.976H109.603V24.968H108.595H105.571V29H103.555V24.968V23.96V22.952V21.944V20.936V19.928V18.92ZM108.595 18.92H106.579H105.571V21.944V22.952H106.579H107.587H108.595H109.603H110.611H111.619V21.944H112.627V20.936V19.928H111.619V18.92H110.611H109.603H108.595ZM116.664 27.992V26.984V24.968V22.952V21.944V20.936H117.672V19.928H118.68V18.92H119.688V17.912H120.696V16.904H123.72V17.912H124.728V18.92H125.736V19.928H126.744V20.936H127.752V21.944V22.952V24.968V26.984V27.992V29H126.744H125.736V27.992V26.984V24.968H118.68V26.984V27.992V29H117.672H116.664V27.992ZM125.736 22.952V21.944H124.728V20.936H123.72V19.928H122.712V18.92H121.704V19.928H120.696V20.936H119.688V21.944H118.68V22.952H125.736ZM131.79 23.96V29H130.782H129.774V27.992V26.984V25.976V23.96V22.952V21.944V20.936V19.928V18.92V17.912V16.904H130.782H131.79V17.912H132.798V18.92H133.806V19.928H134.814V20.936H135.822V19.928H136.83V18.92H137.838V17.912H138.846V16.904H140.862V17.912V18.92V26.984V29H138.846V23.96V20.936H137.838V21.944H136.83V22.952H135.822V23.96H134.814V22.952H133.806V21.944H132.798V20.936H131.79V23.96Z" fill="#393939"/>
<path d="M38.008 16.92V15.912V14.904H39.016H40.024H43.048H48.088V16.92H47.08H46.072H44.056V21.96V27H42.04V21.96V16.92H41.032H38.008ZM51.1174 16.92V15.912V14.904H52.1254H53.1334H56.1574H62.2054V16.92H61.1974H60.1894H58.1734H57.1654H56.1574H54.1414H53.1334V19.944H60.1894V21.96H53.1334V24.984H54.1414H56.1574H57.1654H58.1734H60.1894H61.1974H62.2054V27H56.1574H53.1334H52.1254H51.1174V25.992V24.984V23.976V21.96V20.952V19.944V18.936V17.928V16.92ZM73.2988 27H66.2428H65.2348H64.2268V25.992V24.984V23.976V21.96V20.952V19.944V18.936V17.928V16.92V15.912V14.904H65.2348H66.2428V24.984H73.2988V22.968H75.3148V24.984V27H73.2988ZM77.3361 16.92V15.912V14.904H78.3441H79.3521H82.3761H88.4241V16.92H87.4161H86.4081H84.3921H83.3841H82.3761H80.3601H79.3521V19.944H86.4081V21.96H79.3521V24.984H80.3601H82.3761H83.3841H84.3921H86.4081H87.4161H88.4241V27H82.3761H79.3521H78.3441H77.3361V25.992V24.984V23.976V21.96V20.952V19.944V18.936V17.928V16.92ZM95.4855 16.92H94.4775H93.4695V17.928H92.4615V18.936V19.944V21.96V22.968V23.976H93.4695V24.984H94.4775H95.4855H96.4935H97.5015H98.5095V23.976H99.5175V22.968V21.96H95.4855H94.4775V19.944H95.4855H99.5175H101.534V22.968V23.976V24.984H100.526V25.992H99.5175V27H96.4935H95.4855H92.4615V25.992H91.4535V24.984H90.4455V22.968V21.96V20.952V19.944V16.92H91.4535V15.912H92.4615V14.904H94.4775H95.4855H96.4935H100.526V15.912H101.534V17.928H99.5175V16.92H97.5015H96.4935H95.4855ZM103.555 16.92V15.912V14.904H104.563H105.571H108.595H112.627V15.912H113.635V16.92H114.643V18.936V19.944V20.952H113.635V21.96H112.627V22.968V23.976H113.635V24.984H114.643V25.992V27H112.627V25.992H111.619V24.984H110.611V23.976H109.603V22.968H108.595H105.571V27H103.555V22.968V21.96V20.952V19.944V18.936V17.928V16.92ZM108.595 16.92H106.579H105.571V19.944V20.952H106.579H107.587H108.595H109.603H110.611H111.619V19.944H112.627V18.936V17.928H111.619V16.92H110.611H109.603H108.595ZM116.664 25.992V24.984V22.968V20.952V19.944V18.936H117.672V17.928H118.68V16.92H119.688V15.912H120.696V14.904H123.72V15.912H124.728V16.92H125.736V17.928H126.744V18.936H127.752V19.944V20.952V22.968V24.984V25.992V27H126.744H125.736V25.992V24.984V22.968H118.68V24.984V25.992V27H117.672H116.664V25.992ZM125.736 20.952V19.944H124.728V18.936H123.72V17.928H122.712V16.92H121.704V17.928H120.696V18.936H119.688V19.944H118.68V20.952H125.736ZM131.79 21.96V27H130.782H129.774V25.992V24.984V23.976V21.96V20.952V19.944V18.936V17.928V16.92V15.912V14.904H130.782H131.79V15.912H132.798V16.92H133.806V17.928H134.814V18.936H135.822V17.928H136.83V16.92H137.838V15.912H138.846V14.904H140.862V15.912V16.92V24.984V27H138.846V21.96V18.936H137.838V19.944H136.83V20.952H135.822V21.96H134.814V20.952H133.806V19.944H132.798V18.936H131.79V21.96Z" fill="white"/>
<path d="M27.806 15.1072L12.4147 23.984C11.8137 24.3292 11.8901 25.1658 12.4878 25.4181L16.0177 26.8986L25.558 18.4933C25.7406 18.3306 25.9996 18.5796 25.8435 18.7688L17.844 28.512V31.1843C17.844 31.9677 18.7904 32.2765 19.2553 31.7088L21.364 29.1427L25.5015 30.8756C25.973 31.0747 26.511 30.7793 26.5973 30.2714L28.9882 15.9305C29.1011 15.26 28.3805 14.7753 27.806 15.1072Z" fill="#393939"/>
<path d="M27.806 13.1072L12.4147 21.984C11.8137 22.3292 11.8901 23.1658 12.4878 23.4181L16.0177 24.8986L25.558 16.4933C25.7406 16.3306 25.9996 16.5796 25.8435 16.7688L17.844 26.512V29.1843C17.844 29.9677 18.7904 30.2765 19.2553 29.7088L21.364 27.1427L25.5015 28.8756C25.973 29.0747 26.511 28.7793 26.5973 28.2714L28.9882 13.9305C29.1011 13.26 28.3805 12.7753 27.806 13.1072Z" fill="white"/>
</svg>
