<svg width="122" height="51" viewBox="0 0 170 51" fill="none" xmlns="http://www.w3.org/2000/svg">
<path fill-rule="evenodd" clip-rule="evenodd" d="M166 0H4V2H2V4H0V47H2V49H4V51H166V49H168V47H170V4H168V2H166V0ZM166 2V4H168V47H166V49H4V47H2V4H4V2H166Z" fill="black"/>
<path fill-rule="evenodd" clip-rule="evenodd" d="M166 2H4V4H2V46H168V4H166V2Z" fill="#38ACFF"/>
<rect x="2" y="4" width="2" height="2" fill="#B9E2FF"/>
<rect x="168" y="4" width="2" height="2" transform="rotate(90 168 4)" fill="#B9E2FF"/>
<rect x="168" y="41" width="2" height="2" transform="rotate(-180 168 41)" fill="#B9E2FF"/>
<rect x="2" y="41" width="2" height="2" transform="rotate(-90 2 41)" fill="#B9E2FF"/>
<rect x="2" y="47" width="6" height="2" transform="rotate(-90 2 47)" fill="#007ABE"/>
<rect x="4" y="4" width="2" height="2" fill="#005EEB"/>
<rect x="168" y="6" width="2" height="2" transform="rotate(90 168 6)" fill="#005EEB"/>
<rect x="166" y="41" width="2" height="2" transform="rotate(-180 166 41)" fill="#005EEB"/>
<rect x="2" y="39" width="2" height="2" transform="rotate(-90 2 39)" fill="#005EEB"/>
<rect x="2" y="6" width="2" height="2" fill="#005EEB"/>
<rect x="166" y="4" width="2" height="2" transform="rotate(90 166 4)" fill="#005EEB"/>
<rect x="168" y="39" width="2" height="2" transform="rotate(-180 168 39)" fill="#005EEB"/>
<rect x="4" y="41" width="2" height="2" transform="rotate(-90 4 41)" fill="#005EEB"/>
<rect x="168" y="47" width="2" height="6" transform="rotate(-180 168 47)" fill="#007ABE"/>
<rect x="166" y="49" width="162" height="5.99999" transform="rotate(-180 166 49)" fill="#007ABE"/>
<rect x="4" y="2" width="162" height="2" fill="#B9E2FF"/>
<rect x="4" y="41" width="162" height="2" fill="#B9E2FF"/>
<rect x="12" y="49" width="6" height="4" transform="rotate(-90 12 49)" fill="#7CD0FF"/>
<rect width="6" height="4" transform="matrix(-1.31134e-07 -1 -1 1.31134e-07 154 49)" fill="#7CD0FF"/>
<rect x="17" y="49" width="6" height="3" transform="rotate(-90 17 49)" fill="#7CD0FF"/>
<rect width="6" height="3" transform="matrix(-1.31134e-07 -1 -1 1.31134e-07 149 49)" fill="#7CD0FF"/>
<rect x="21" y="49" width="6" height="2" transform="rotate(-90 21 49)" fill="#7CD0FF"/>
<rect width="6" height="2" transform="matrix(-1.31134e-07 -1 -1 1.31134e-07 145 49)" fill="#7CD0FF"/>
<rect x="24" y="49" width="6" height="0.999999" transform="rotate(-90 24 49)" fill="#7CD0FF"/>
<rect width="6" height="0.999999" transform="matrix(-1.31134e-07 -1 -1 1.31134e-07 142 49)" fill="#7CD0FF"/>
<path d="M14.008 19.92V18.912V17.904H15.016H16.024H19.048H24.088V19.92H23.08H22.072H20.056V24.96V30H18.04V24.96V19.92H17.032H14.008ZM32.1574 19.92H31.1494H30.1414V20.928H29.1334V21.936V22.944V24.96V25.968V26.976H30.1414V27.984H31.1494H32.1574H33.1654H34.1734H35.1814V26.976H36.1894V25.968V24.96V21.936V20.928H35.1814V19.92H34.1734H33.1654H32.1574ZM38.2054 24.96V27.984H37.1974V28.992H36.1894V30H33.1654H32.1574H29.1334V28.992H28.1254V27.984H27.1174V25.968V24.96V23.952V22.944V19.92H28.1254V18.912H29.1334V17.904H31.1494H32.1574H33.1654H36.1894V18.912H37.1974V19.92H38.2054V21.936V24.96ZM42.2428 17.904V21.936V22.944V24.96V25.968V26.976H43.2508V27.984H44.2588H45.2668H46.2748H47.2828H48.2908V26.976H49.2988V25.968V17.904H51.3148V25.968V27.984H50.3068V28.992H49.2988V30H46.2748H45.2668H42.2428V28.992H41.2348V27.984H40.2268V25.968V24.96V23.952V22.944V17.904H42.2428ZM53.3361 19.92V18.912V17.904H54.3441H55.3521H58.3761H62.4081V18.912H63.4161V19.92H64.4241V21.936V22.944V23.952H63.4161V24.96H62.4081V25.968V26.976H63.4161V27.984H64.4241V28.992V30H62.4081V28.992H61.4001V27.984H60.3921V26.976H59.3841V25.968H58.3761H55.3521V30H53.3361V25.968V24.96V23.952V22.944V21.936V20.928V19.92ZM58.3761 19.92H56.3601H55.3521V22.944V23.952H56.3601H57.3681H58.3761H59.3841H60.3921H61.4001V22.944H62.4081V21.936V20.928H61.4001V19.92H60.3921H59.3841H58.3761ZM75.5175 21.936V18.912V17.904H77.5335V18.912V19.92V27.984V30H75.5175V27.984H74.5095V26.976H73.5015V25.968H72.4935V24.96H71.4855V23.952H70.4775V22.944H69.4695V21.936H68.4615V24.96V30H67.4535H66.4455V28.992V27.984V26.976V24.96V23.952V22.944V21.936V20.928V19.92V18.912V17.904H67.4535H68.4615V18.912H69.4695V19.92H70.4775V20.928H71.4855V21.936H72.4935V22.944H73.5015V23.952H74.5095V24.96H75.5175V21.936ZM79.5549 28.992V27.984V25.968V23.952V22.944V21.936H80.5629V20.928H81.5709V19.92H82.5789V18.912H83.5869V17.904H86.6109V18.912H87.6189V19.92H88.6269V20.928H89.6349V21.936H90.6429V22.944V23.952V25.968V27.984V28.992V30H89.6349H88.6269V28.992V27.984V25.968H81.5709V27.984V28.992V30H80.5629H79.5549V28.992ZM88.6269 23.952V22.944H87.6189V21.936H86.6109V20.928H85.6029V19.92H84.5949V20.928H83.5869V21.936H82.5789V22.944H81.5709V23.952H88.6269ZM94.6803 24.96V30H93.6723H92.6643V28.992V27.984V26.976V24.96V23.952V22.944V21.936V20.928V19.92V18.912V17.904H93.6723H94.6803V18.912H95.6883V19.92H96.6963V20.928H97.7043V21.936H98.7123V20.928H99.7203V19.92H100.728V18.912H101.736V17.904H103.752V18.912V19.92V27.984V30H101.736V24.96V21.936H100.728V22.944H99.7203V23.952H98.7123V24.96H97.7043V23.952H96.6963V22.944H95.6883V21.936H94.6803V24.96ZM105.774 19.92V18.912V17.904H106.782H107.79H110.814H116.862V19.92H115.854H114.846H112.83H111.822H110.814H108.798H107.79V22.944H114.846V24.96H107.79V27.984H108.798H110.814H111.822H112.83H114.846H115.854H116.862V30H110.814H107.79H106.782H105.774V28.992V27.984V26.976V24.96V23.952V22.944V21.936V20.928V19.92ZM127.955 21.936V18.912V17.904H129.971V18.912V19.92V27.984V30H127.955V27.984H126.947V26.976H125.939V25.968H124.931V24.96H123.923V23.952H122.915V22.944H121.907V21.936H120.899V24.96V30H119.891H118.883V28.992V27.984V26.976V24.96V23.952V22.944V21.936V20.928V19.92V18.912V17.904H119.891H120.899V18.912H121.907V19.92H122.915V20.928H123.923V21.936H124.931V22.944H125.939V23.952H126.947V24.96H127.955V21.936ZM131.992 19.92V18.912V17.904H133H134.008H137.032H142.072V19.92H141.064H140.056H138.04V24.96V30H136.024V24.96V19.92H135.016H131.992ZM147.118 25.968V26.976H148.126V27.984H149.134H150.142H151.15H152.158H153.166V26.976H154.174V25.968H153.166V24.96H152.158H151.15H150.142H147.118V23.952H146.11V22.944H145.102V21.936V20.928V19.92H146.11V18.912H147.118V17.904H149.134H150.142H151.15H154.174V18.912H155.182V19.92H156.19V21.936H154.174V20.928H153.166V19.92H152.158H151.15H150.142H149.134H148.126V20.928H147.118V21.936H148.126V22.944H149.134H150.142H151.15H154.174V23.952H155.182V24.96H156.19V25.968V26.976V27.984H155.182V28.992H154.174V30H151.15H150.142H147.118V28.992H146.11V27.984H145.102V25.968H147.118Z" fill="#393939"/>
<path d="M14.008 17.92V16.912V15.904H15.016H16.024H19.048H24.088V17.92H23.08H22.072H20.056V22.96V28H18.04V22.96V17.92H17.032H14.008ZM32.1574 17.92H31.1494H30.1414V18.928H29.1334V19.936V20.944V22.96V23.968V24.976H30.1414V25.984H31.1494H32.1574H33.1654H34.1734H35.1814V24.976H36.1894V23.968V22.96V19.936V18.928H35.1814V17.92H34.1734H33.1654H32.1574ZM38.2054 22.96V25.984H37.1974V26.992H36.1894V28H33.1654H32.1574H29.1334V26.992H28.1254V25.984H27.1174V23.968V22.96V21.952V20.944V17.92H28.1254V16.912H29.1334V15.904H31.1494H32.1574H33.1654H36.1894V16.912H37.1974V17.92H38.2054V19.936V22.96ZM42.2428 15.904V19.936V20.944V22.96V23.968V24.976H43.2508V25.984H44.2588H45.2668H46.2748H47.2828H48.2908V24.976H49.2988V23.968V15.904H51.3148V23.968V25.984H50.3068V26.992H49.2988V28H46.2748H45.2668H42.2428V26.992H41.2348V25.984H40.2268V23.968V22.96V21.952V20.944V15.904H42.2428ZM53.3361 17.92V16.912V15.904H54.3441H55.3521H58.3761H62.4081V16.912H63.4161V17.92H64.4241V19.936V20.944V21.952H63.4161V22.96H62.4081V23.968V24.976H63.4161V25.984H64.4241V26.992V28H62.4081V26.992H61.4001V25.984H60.3921V24.976H59.3841V23.968H58.3761H55.3521V28H53.3361V23.968V22.96V21.952V20.944V19.936V18.928V17.92ZM58.3761 17.92H56.3601H55.3521V20.944V21.952H56.3601H57.3681H58.3761H59.3841H60.3921H61.4001V20.944H62.4081V19.936V18.928H61.4001V17.92H60.3921H59.3841H58.3761ZM75.5175 19.936V16.912V15.904H77.5335V16.912V17.92V25.984V28H75.5175V25.984H74.5095V24.976H73.5015V23.968H72.4935V22.96H71.4855V21.952H70.4775V20.944H69.4695V19.936H68.4615V22.96V28H67.4535H66.4455V26.992V25.984V24.976V22.96V21.952V20.944V19.936V18.928V17.92V16.912V15.904H67.4535H68.4615V16.912H69.4695V17.92H70.4775V18.928H71.4855V19.936H72.4935V20.944H73.5015V21.952H74.5095V22.96H75.5175V19.936ZM79.5549 26.992V25.984V23.968V21.952V20.944V19.936H80.5629V18.928H81.5709V17.92H82.5789V16.912H83.5869V15.904H86.6109V16.912H87.6189V17.92H88.6269V18.928H89.6349V19.936H90.6429V20.944V21.952V23.968V25.984V26.992V28H89.6349H88.6269V26.992V25.984V23.968H81.5709V25.984V26.992V28H80.5629H79.5549V26.992ZM88.6269 21.952V20.944H87.6189V19.936H86.6109V18.928H85.6029V17.92H84.5949V18.928H83.5869V19.936H82.5789V20.944H81.5709V21.952H88.6269ZM94.6803 22.96V28H93.6723H92.6643V26.992V25.984V24.976V22.96V21.952V20.944V19.936V18.928V17.92V16.912V15.904H93.6723H94.6803V16.912H95.6883V17.92H96.6963V18.928H97.7043V19.936H98.7123V18.928H99.7203V17.92H100.728V16.912H101.736V15.904H103.752V16.912V17.92V25.984V28H101.736V22.96V19.936H100.728V20.944H99.7203V21.952H98.7123V22.96H97.7043V21.952H96.6963V20.944H95.6883V19.936H94.6803V22.96ZM105.774 17.92V16.912V15.904H106.782H107.79H110.814H116.862V17.92H115.854H114.846H112.83H111.822H110.814H108.798H107.79V20.944H114.846V22.96H107.79V25.984H108.798H110.814H111.822H112.83H114.846H115.854H116.862V28H110.814H107.79H106.782H105.774V26.992V25.984V24.976V22.96V21.952V20.944V19.936V18.928V17.92ZM127.955 19.936V16.912V15.904H129.971V16.912V17.92V25.984V28H127.955V25.984H126.947V24.976H125.939V23.968H124.931V22.96H123.923V21.952H122.915V20.944H121.907V19.936H120.899V22.96V28H119.891H118.883V26.992V25.984V24.976V22.96V21.952V20.944V19.936V18.928V17.92V16.912V15.904H119.891H120.899V16.912H121.907V17.92H122.915V18.928H123.923V19.936H124.931V20.944H125.939V21.952H126.947V22.96H127.955V19.936ZM131.992 17.92V16.912V15.904H133H134.008H137.032H142.072V17.92H141.064H140.056H138.04V22.96V28H136.024V22.96V17.92H135.016H131.992ZM147.118 23.968V24.976H148.126V25.984H149.134H150.142H151.15H152.158H153.166V24.976H154.174V23.968H153.166V22.96H152.158H151.15H150.142H147.118V21.952H146.11V20.944H145.102V19.936V18.928V17.92H146.11V16.912H147.118V15.904H149.134H150.142H151.15H154.174V16.912H155.182V17.92H156.19V19.936H154.174V18.928H153.166V17.92H152.158H151.15H150.142H149.134H148.126V18.928H147.118V19.936H148.126V20.944H149.134H150.142H151.15H154.174V21.952H155.182V22.96H156.19V23.968V24.976V25.984H155.182V26.992H154.174V28H151.15H150.142H147.118V26.992H146.11V25.984H145.102V23.968H147.118Z" fill="white"/>
</svg>
