<svg width="131" height="39" viewBox="0 0 131 39" fill="none" xmlns="http://www.w3.org/2000/svg">
<path fill-rule="evenodd" clip-rule="evenodd" d="M127.913 0.225586H4.02746V1.70709H127.906V3.18821H129.436V1.70671H127.913V0.225586ZM4.02167 1.70671H2.49222V3.18821H4.02167V1.70671ZM129.436 35.0413H127.906V36.5224H4.02746V38.0039H127.913V36.5228H129.436V35.0413ZM129.434 3.18881H130.963V35.0411H129.434V3.18881ZM0.964844 3.18881H2.49429V35.0411H0.964844V3.18881ZM2.49222 35.0413H4.02167V36.5228H2.49222V35.0413Z" fill="black"/>
<path fill-rule="evenodd" clip-rule="evenodd" d="M127.901 1.70605H4.01566V3.18717H2.48828V34.2987H129.433V3.18717H127.901V1.70605Z" fill="#38ACFF"/>
<rect x="2.48828" y="3.18848" width="1.52945" height="1.4815" fill="#B9E2FF"/>
<rect x="129.43" y="3.18848" width="1.4815" height="1.52945" transform="rotate(90 129.43 3.18848)" fill="#B9E2FF"/>
<rect x="129.43" y="30.5967" width="1.52945" height="1.4815" transform="rotate(-180 129.43 30.5967)" fill="#B9E2FF"/>
<rect x="2.48828" y="30.5967" width="1.4815" height="1.52945" transform="rotate(-90 2.48828 30.5967)" fill="#B9E2FF"/>
<rect x="2.48828" y="35.041" width="4.4445" height="1.52945" transform="rotate(-90 2.48828 35.041)" fill="#007ABE"/>
<rect x="4.01953" y="3.18848" width="1.52945" height="1.4815" fill="#005EEB"/>
<rect x="129.43" y="4.66992" width="1.4815" height="1.52945" transform="rotate(90 129.43 4.66992)" fill="#005EEB"/>
<rect x="127.902" y="30.5967" width="1.52945" height="1.4815" transform="rotate(-180 127.902 30.5967)" fill="#005EEB"/>
<rect x="2.48828" y="29.1152" width="1.4815" height="1.52945" transform="rotate(-90 2.48828 29.1152)" fill="#005EEB"/>
<rect x="2.48828" y="4.66992" width="1.52945" height="1.4815" fill="#005EEB"/>
<rect x="127.902" y="3.18848" width="1.4815" height="1.52945" transform="rotate(90 127.902 3.18848)" fill="#005EEB"/>
<rect x="129.43" y="29.1152" width="1.52945" height="1.4815" transform="rotate(-180 129.43 29.1152)" fill="#005EEB"/>
<rect x="4.01953" y="30.5967" width="1.4815" height="1.52945" transform="rotate(-90 4.01953 30.5967)" fill="#005EEB"/>
<rect x="129.43" y="35.041" width="1.52945" height="4.4445" transform="rotate(-180 129.43 35.041)" fill="#007ABE"/>
<rect x="127.902" y="36.5225" width="123.885" height="4.44449" transform="rotate(-180 127.902 36.5225)" fill="#007ABE"/>
<rect x="4.01953" y="1.70605" width="123.885" height="1.4815" fill="#B9E2FF"/>
<rect x="4.01953" y="30.5967" width="123.885" height="1.4815" fill="#B9E2FF"/>
<rect x="10.1367" y="36.5225" width="4.4445" height="3.0589" transform="rotate(-90 10.1367 36.5225)" fill="#7CD0FF"/>
<rect width="4.4445" height="3.0589" transform="matrix(-1.35378e-07 -1 -1 1.27023e-07 118.723 36.5225)" fill="#7CD0FF"/>
<rect x="13.957" y="36.5225" width="4.4445" height="2.29417" transform="rotate(-90 13.957 36.5225)" fill="#7CD0FF"/>
<rect width="4.4445" height="2.29417" transform="matrix(-1.35378e-07 -1 -1 1.27023e-07 114.898 36.5225)" fill="#7CD0FF"/>
<rect x="17.0195" y="36.5225" width="4.4445" height="1.52945" transform="rotate(-90 17.0195 36.5225)" fill="#7CD0FF"/>
<rect width="4.4445" height="1.52945" transform="matrix(-1.35378e-07 -1 -1 1.27023e-07 111.844 36.5225)" fill="#7CD0FF"/>
<rect x="19.3164" y="36.5225" width="4.4445" height="0.764724" transform="rotate(-90 19.3164 36.5225)" fill="#7CD0FF"/>
<rect width="4.4445" height="0.764724" transform="matrix(-1.35378e-07 -1 -1 1.27023e-07 109.551 36.5225)" fill="#7CD0FF"/>
<path d="M20.2159 14.5174V13.8874V13.2574H20.8459H21.4759H23.3659H26.5159V14.5174H25.8859H25.2559H23.9959V17.6674V20.8174H22.7359V17.6674V14.5174H22.1059H20.2159ZM31.5593 14.5174H30.9293H30.2993V15.1474H29.6693V15.7774V16.4074V17.6674V18.2974V18.9274H30.2993V19.5574H30.9293H31.5593H32.1893H32.8193H33.4493V18.9274H34.0793V18.2974V17.6674V15.7774V15.1474H33.4493V14.5174H32.8193H32.1893H31.5593ZM35.3393 17.6674V19.5574H34.7093V20.1874H34.0793V20.8174H32.1893H31.5593H29.6693V20.1874H29.0393V19.5574H28.4093V18.2974V17.6674V17.0374V16.4074V14.5174H29.0393V13.8874H29.6693V13.2574H30.9293H31.5593H32.1893H34.0793V13.8874H34.7093V14.5174H35.3393V15.7774V17.6674ZM37.8627 13.2574V15.7774V16.4074V17.6674V18.2974V18.9274H38.4927V19.5574H39.1227H39.7527H40.3827H41.0127H41.6427V18.9274H42.2727V18.2974V13.2574H43.5327V18.2974V19.5574H42.9027V20.1874H42.2727V20.8174H40.3827H39.7527H37.8627V20.1874H37.2327V19.5574H36.6027V18.2974V17.6674V17.0374V16.4074V13.2574H37.8627ZM44.796 14.5174V13.8874V13.2574H45.426H46.056H47.946H50.466V13.8874H51.096V14.5174H51.726V15.7774V16.4074V17.0374H51.096V17.6674H50.466V18.2974V18.9274H51.096V19.5574H51.726V20.1874V20.8174H50.466V20.1874H49.836V19.5574H49.206V18.9274H48.576V18.2974H47.946H46.056V20.8174H44.796V18.2974V17.6674V17.0374V16.4074V15.7774V15.1474V14.5174ZM47.946 14.5174H46.686H46.056V16.4074V17.0374H46.686H47.316H47.946H48.576H49.206H49.836V16.4074H50.466V15.7774V15.1474H49.836V14.5174H49.206H48.576H47.946ZM58.6594 15.7774V13.8874V13.2574H59.9194V13.8874V14.5174V19.5574V20.8174H58.6594V19.5574H58.0294V18.9274H57.3994V18.2974H56.7694V17.6674H56.1394V17.0374H55.5094V16.4074H54.8794V15.7774H54.2494V17.6674V20.8174H53.6194H52.9894V20.1874V19.5574V18.9274V17.6674V17.0374V16.4074V15.7774V15.1474V14.5174V13.8874V13.2574H53.6194H54.2494V13.8874H54.8794V14.5174H55.5094V15.1474H56.1394V15.7774H56.7694V16.4074H57.3994V17.0374H58.0294V17.6674H58.6594V15.7774ZM61.1827 20.1874V19.5574V18.2974V17.0374V16.4074V15.7774H61.8127V15.1474H62.4427V14.5174H63.0727V13.8874H63.7027V13.2574H65.5927V13.8874H66.2227V14.5174H66.8527V15.1474H67.4827V15.7774H68.1127V16.4074V17.0374V18.2974V19.5574V20.1874V20.8174H67.4827H66.8527V20.1874V19.5574V18.2974H62.4427V19.5574V20.1874V20.8174H61.8127H61.1827V20.1874ZM66.8527 17.0374V16.4074H66.2227V15.7774H65.5927V15.1474H64.9627V14.5174H64.3327V15.1474H63.7027V15.7774H63.0727V16.4074H62.4427V17.0374H66.8527ZM70.6361 17.6674V20.8174H70.0061H69.3761V20.1874V19.5574V18.9274V17.6674V17.0374V16.4074V15.7774V15.1474V14.5174V13.8874V13.2574H70.0061H70.6361V13.8874H71.2661V14.5174H71.8961V15.1474H72.5261V15.7774H73.1561V15.1474H73.7861V14.5174H74.4161V13.8874H75.0461V13.2574H76.3061V13.8874V14.5174V19.5574V20.8174H75.0461V17.6674V15.7774H74.4161V16.4074H73.7861V17.0374H73.1561V17.6674H72.5261V17.0374H71.8961V16.4074H71.2661V15.7774H70.6361V17.6674ZM77.5695 14.5174V13.8874V13.2574H78.1995H78.8295H80.7195H84.4995V14.5174H83.8695H83.2395H81.9795H81.3495H80.7195H79.4595H78.8295V16.4074H83.2395V17.6674H78.8295V19.5574H79.4595H80.7195H81.3495H81.9795H83.2395H83.8695H84.4995V20.8174H80.7195H78.8295H78.1995H77.5695V20.1874V19.5574V18.9274V17.6674V17.0374V16.4074V15.7774V15.1474V14.5174ZM91.4328 15.7774V13.8874V13.2574H92.6928V13.8874V14.5174V19.5574V20.8174H91.4328V19.5574H90.8028V18.9274H90.1728V18.2974H89.5428V17.6674H88.9128V17.0374H88.2828V16.4074H87.6528V15.7774H87.0228V17.6674V20.8174H86.3928H85.7628V20.1874V19.5574V18.9274V17.6674V17.0374V16.4074V15.7774V15.1474V14.5174V13.8874V13.2574H86.3928H87.0228V13.8874H87.6528V14.5174H88.2828V15.1474H88.9128V15.7774H89.5428V16.4074H90.1728V17.0374H90.8028V17.6674H91.4328V15.7774ZM93.9562 14.5174V13.8874V13.2574H94.5862H95.2162H97.1062H100.256V14.5174H99.6262H98.9962H97.7362V17.6674V20.8174H96.4762V17.6674V14.5174H95.8462H93.9562ZM103.41 18.2974V18.9274H104.04V19.5574H104.67H105.3H105.93H106.56H107.19V18.9274H107.82V18.2974H107.19V17.6674H106.56H105.93H105.3H103.41V17.0374H102.78V16.4074H102.15V15.7774V15.1474V14.5174H102.78V13.8874H103.41V13.2574H104.67H105.3H105.93H107.82V13.8874H108.45V14.5174H109.08V15.7774H107.82V15.1474H107.19V14.5174H106.56H105.93H105.3H104.67H104.04V15.1474H103.41V15.7774H104.04V16.4074H104.67H105.3H105.93H107.82V17.0374H108.45V17.6674H109.08V18.2974V18.9274V19.5574H108.45V20.1874H107.82V20.8174H105.93H105.3H103.41V20.1874H102.78V19.5574H102.15V18.2974H103.41Z" fill="#393939"/>
<path d="M20.2159 13.0359V12.4059V11.7759H20.8459H21.4759H23.3659H26.5159V13.0359H25.8859H25.2559H23.9959V16.1859V19.3359H22.7359V16.1859V13.0359H22.1059H20.2159ZM31.5593 13.0359H30.9293H30.2993V13.6659H29.6693V14.2959V14.9259V16.1859V16.8159V17.4459H30.2993V18.0759H30.9293H31.5593H32.1893H32.8193H33.4493V17.4459H34.0793V16.8159V16.1859V14.2959V13.6659H33.4493V13.0359H32.8193H32.1893H31.5593ZM35.3393 16.1859V18.0759H34.7093V18.7059H34.0793V19.3359H32.1893H31.5593H29.6693V18.7059H29.0393V18.0759H28.4093V16.8159V16.1859V15.5559V14.9259V13.0359H29.0393V12.4059H29.6693V11.7759H30.9293H31.5593H32.1893H34.0793V12.4059H34.7093V13.0359H35.3393V14.2959V16.1859ZM37.8627 11.7759V14.2959V14.9259V16.1859V16.8159V17.4459H38.4927V18.0759H39.1227H39.7527H40.3827H41.0127H41.6427V17.4459H42.2727V16.8159V11.7759H43.5327V16.8159V18.0759H42.9027V18.7059H42.2727V19.3359H40.3827H39.7527H37.8627V18.7059H37.2327V18.0759H36.6027V16.8159V16.1859V15.5559V14.9259V11.7759H37.8627ZM44.796 13.0359V12.4059V11.7759H45.426H46.056H47.946H50.466V12.4059H51.096V13.0359H51.726V14.2959V14.9259V15.5559H51.096V16.1859H50.466V16.8159V17.4459H51.096V18.0759H51.726V18.7059V19.3359H50.466V18.7059H49.836V18.0759H49.206V17.4459H48.576V16.8159H47.946H46.056V19.3359H44.796V16.8159V16.1859V15.5559V14.9259V14.2959V13.6659V13.0359ZM47.946 13.0359H46.686H46.056V14.9259V15.5559H46.686H47.316H47.946H48.576H49.206H49.836V14.9259H50.466V14.2959V13.6659H49.836V13.0359H49.206H48.576H47.946ZM58.6594 14.2959V12.4059V11.7759H59.9194V12.4059V13.0359V18.0759V19.3359H58.6594V18.0759H58.0294V17.4459H57.3994V16.8159H56.7694V16.1859H56.1394V15.5559H55.5094V14.9259H54.8794V14.2959H54.2494V16.1859V19.3359H53.6194H52.9894V18.7059V18.0759V17.4459V16.1859V15.5559V14.9259V14.2959V13.6659V13.0359V12.4059V11.7759H53.6194H54.2494V12.4059H54.8794V13.0359H55.5094V13.6659H56.1394V14.2959H56.7694V14.9259H57.3994V15.5559H58.0294V16.1859H58.6594V14.2959ZM61.1827 18.7059V18.0759V16.8159V15.5559V14.9259V14.2959H61.8127V13.6659H62.4427V13.0359H63.0727V12.4059H63.7027V11.7759H65.5927V12.4059H66.2227V13.0359H66.8527V13.6659H67.4827V14.2959H68.1127V14.9259V15.5559V16.8159V18.0759V18.7059V19.3359H67.4827H66.8527V18.7059V18.0759V16.8159H62.4427V18.0759V18.7059V19.3359H61.8127H61.1827V18.7059ZM66.8527 15.5559V14.9259H66.2227V14.2959H65.5927V13.6659H64.9627V13.0359H64.3327V13.6659H63.7027V14.2959H63.0727V14.9259H62.4427V15.5559H66.8527ZM70.6361 16.1859V19.3359H70.0061H69.3761V18.7059V18.0759V17.4459V16.1859V15.5559V14.9259V14.2959V13.6659V13.0359V12.4059V11.7759H70.0061H70.6361V12.4059H71.2661V13.0359H71.8961V13.6659H72.5261V14.2959H73.1561V13.6659H73.7861V13.0359H74.4161V12.4059H75.0461V11.7759H76.3061V12.4059V13.0359V18.0759V19.3359H75.0461V16.1859V14.2959H74.4161V14.9259H73.7861V15.5559H73.1561V16.1859H72.5261V15.5559H71.8961V14.9259H71.2661V14.2959H70.6361V16.1859ZM77.5695 13.0359V12.4059V11.7759H78.1995H78.8295H80.7195H84.4995V13.0359H83.8695H83.2395H81.9795H81.3495H80.7195H79.4595H78.8295V14.9259H83.2395V16.1859H78.8295V18.0759H79.4595H80.7195H81.3495H81.9795H83.2395H83.8695H84.4995V19.3359H80.7195H78.8295H78.1995H77.5695V18.7059V18.0759V17.4459V16.1859V15.5559V14.9259V14.2959V13.6659V13.0359ZM91.4328 14.2959V12.4059V11.7759H92.6928V12.4059V13.0359V18.0759V19.3359H91.4328V18.0759H90.8028V17.4459H90.1728V16.8159H89.5428V16.1859H88.9128V15.5559H88.2828V14.9259H87.6528V14.2959H87.0228V16.1859V19.3359H86.3928H85.7628V18.7059V18.0759V17.4459V16.1859V15.5559V14.9259V14.2959V13.6659V13.0359V12.4059V11.7759H86.3928H87.0228V12.4059H87.6528V13.0359H88.2828V13.6659H88.9128V14.2959H89.5428V14.9259H90.1728V15.5559H90.8028V16.1859H91.4328V14.2959ZM93.9562 13.0359V12.4059V11.7759H94.5862H95.2162H97.1062H100.256V13.0359H99.6262H98.9962H97.7362V16.1859V19.3359H96.4762V16.1859V13.0359H95.8462H93.9562ZM103.41 16.8159V17.4459H104.04V18.0759H104.67H105.3H105.93H106.56H107.19V17.4459H107.82V16.8159H107.19V16.1859H106.56H105.93H105.3H103.41V15.5559H102.78V14.9259H102.15V14.2959V13.6659V13.0359H102.78V12.4059H103.41V11.7759H104.67H105.3H105.93H107.82V12.4059H108.45V13.0359H109.08V14.2959H107.82V13.6659H107.19V13.0359H106.56H105.93H105.3H104.67H104.04V13.6659H103.41V14.2959H104.04V14.9259H104.67H105.3H105.93H107.82V15.5559H108.45V16.1859H109.08V16.8159V17.4459V18.0759H108.45V18.7059H107.82V19.3359H105.93H105.3H103.41V18.7059H102.78V18.0759H102.15V16.8159H103.41Z" fill="white"/>
</svg>
