<svg width="127" height="39" viewBox="0 0 127 39" fill="none" xmlns="http://www.w3.org/2000/svg">
<path fill-rule="evenodd" clip-rule="evenodd" d="M123.929 0.225586H3.92927V1.70707H123.929V0.225586ZM3.92854 1.70722H2.44706V3.1887H3.92854V1.70722ZM125.407 1.70722H123.926V3.1887H125.407V1.70722ZM125.407 35.0407H123.926V36.5218H3.92927V38.0032H123.929V36.5222H125.407V35.0407ZM125.408 3.18827H126.889V35.0401H125.408V3.18827ZM0.964844 3.18827H2.44633V35.0401H0.964844V3.18827ZM2.44706 35.0407H3.92854V36.5222H2.44706V35.0407Z" fill="black"/>
<path fill-rule="evenodd" clip-rule="evenodd" d="M123.924 1.70605H3.92362V3.18769H2.44141V34.2988H125.404V3.18769H123.924V1.70605Z" fill="#38ACFF"/>
<rect x="2.44141" y="3.18848" width="1.48148" height="1.48148" fill="#B9E2FF"/>
<rect x="125.402" y="3.18848" width="1.48148" height="1.48148" transform="rotate(90 125.402 3.18848)" fill="#B9E2FF"/>
<rect x="125.402" y="30.5967" width="1.48148" height="1.48148" transform="rotate(-180 125.402 30.5967)" fill="#B9E2FF"/>
<rect x="2.44141" y="30.5967" width="1.48148" height="1.48148" transform="rotate(-90 2.44141 30.5967)" fill="#B9E2FF"/>
<rect x="2.44141" y="35.041" width="4.44445" height="1.48148" transform="rotate(-90 2.44141 35.041)" fill="#007ABE"/>
<rect x="3.92188" y="3.18848" width="1.48148" height="1.48148" fill="#005EEB"/>
<rect x="125.402" y="4.66992" width="1.48148" height="1.48148" transform="rotate(90 125.402 4.66992)" fill="#005EEB"/>
<rect x="123.922" y="30.5967" width="1.48148" height="1.48148" transform="rotate(-180 123.922 30.5967)" fill="#005EEB"/>
<rect x="2.44141" y="29.1143" width="1.48148" height="1.48148" transform="rotate(-90 2.44141 29.1143)" fill="#005EEB"/>
<rect x="2.44141" y="4.66992" width="1.48148" height="1.48148" fill="#005EEB"/>
<rect x="123.922" y="3.18848" width="1.48148" height="1.48148" transform="rotate(90 123.922 3.18848)" fill="#005EEB"/>
<rect x="125.402" y="29.1143" width="1.48148" height="1.48148" transform="rotate(-180 125.402 29.1143)" fill="#005EEB"/>
<rect x="3.92188" y="30.5967" width="1.48148" height="1.48148" transform="rotate(-90 3.92188 30.5967)" fill="#005EEB"/>
<rect x="125.402" y="35.041" width="1.48148" height="4.44445" transform="rotate(-180 125.402 35.041)" fill="#007ABE"/>
<rect x="123.922" y="36.5215" width="120" height="4.44444" transform="rotate(-180 123.922 36.5215)" fill="#007ABE"/>
<rect x="3.92188" y="1.70605" width="120" height="1.48148" fill="#B9E2FF"/>
<rect x="3.92188" y="30.5967" width="120" height="1.48148" fill="#B9E2FF"/>
<rect x="9.84766" y="36.5215" width="4.44445" height="2.96296" transform="rotate(-90 9.84766 36.5215)" fill="#7CD0FF"/>
<rect width="4.44445" height="2.96296" transform="matrix(-1.31134e-07 -1 -1 1.31134e-07 115.031 36.5215)" fill="#7CD0FF"/>
<rect x="13.5508" y="36.5215" width="4.44445" height="2.22222" transform="rotate(-90 13.5508 36.5215)" fill="#7CD0FF"/>
<rect width="4.44445" height="2.22222" transform="matrix(-1.31134e-07 -1 -1 1.31134e-07 111.328 36.5215)" fill="#7CD0FF"/>
<rect x="16.5156" y="36.5215" width="4.44445" height="1.48148" transform="rotate(-90 16.5156 36.5215)" fill="#7CD0FF"/>
<rect width="4.44445" height="1.48148" transform="matrix(-1.31134e-07 -1 -1 1.31134e-07 108.367 36.5215)" fill="#7CD0FF"/>
<rect x="18.7422" y="36.5215" width="4.44445" height="0.74074" transform="rotate(-90 18.7422 36.5215)" fill="#7CD0FF"/>
<rect width="4.44445" height="0.74074" transform="matrix(-1.31134e-07 -1 -1 1.31134e-07 106.145 36.5215)" fill="#7CD0FF"/>
<path d="M19.63 14.5184V13.8884V13.2584H20.26H20.89H22.78H25.93V14.5184H25.3H24.67H23.41V17.6684V20.8184H22.15V17.6684V14.5184H21.52H19.63ZM30.9734 14.5184H30.3434H29.7134V15.1484H29.0834V15.7784V16.4084V17.6684V18.2984V18.9284H29.7134V19.5584H30.3434H30.9734H31.6034H32.2334H32.8634V18.9284H33.4934V18.2984V17.6684V15.7784V15.1484H32.8634V14.5184H32.2334H31.6034H30.9734ZM34.7534 17.6684V19.5584H34.1234V20.1884H33.4934V20.8184H31.6034H30.9734H29.0834V20.1884H28.4534V19.5584H27.8234V18.2984V17.6684V17.0384V16.4084V14.5184H28.4534V13.8884H29.0834V13.2584H30.3434H30.9734H31.6034H33.4934V13.8884H34.1234V14.5184H34.7534V15.7784V17.6684ZM37.2767 13.2584V15.7784V16.4084V17.6684V18.2984V18.9284H37.9067V19.5584H38.5367H39.1667H39.7967H40.4267H41.0567V18.9284H41.6867V18.2984V13.2584H42.9467V18.2984V19.5584H42.3167V20.1884H41.6867V20.8184H39.7967H39.1667H37.2767V20.1884H36.6467V19.5584H36.0167V18.2984V17.6684V17.0384V16.4084V13.2584H37.2767ZM44.2101 14.5184V13.8884V13.2584H44.8401H45.4701H47.3601H49.8801V13.8884H50.5101V14.5184H51.1401V15.7784V16.4084V17.0384H50.5101V17.6684H49.8801V18.2984V18.9284H50.5101V19.5584H51.1401V20.1884V20.8184H49.8801V20.1884H49.2501V19.5584H48.6201V18.9284H47.9901V18.2984H47.3601H45.4701V20.8184H44.2101V18.2984V17.6684V17.0384V16.4084V15.7784V15.1484V14.5184ZM47.3601 14.5184H46.1001H45.4701V16.4084V17.0384H46.1001H46.7301H47.3601H47.9901H48.6201H49.2501V16.4084H49.8801V15.7784V15.1484H49.2501V14.5184H48.6201H47.9901H47.3601ZM58.0734 15.7784V13.8884V13.2584H59.3334V13.8884V14.5184V19.5584V20.8184H58.0734V19.5584H57.4434V18.9284H56.8134V18.2984H56.1834V17.6684H55.5534V17.0384H54.9234V16.4084H54.2934V15.7784H53.6634V17.6684V20.8184H53.0334H52.4034V20.1884V19.5584V18.9284V17.6684V17.0384V16.4084V15.7784V15.1484V14.5184V13.8884V13.2584H53.0334H53.6634V13.8884H54.2934V14.5184H54.9234V15.1484H55.5534V15.7784H56.1834V16.4084H56.8134V17.0384H57.4434V17.6684H58.0734V15.7784ZM60.5968 20.1884V19.5584V18.2984V17.0384V16.4084V15.7784H61.2268V15.1484H61.8568V14.5184H62.4868V13.8884H63.1168V13.2584H65.0068V13.8884H65.6368V14.5184H66.2668V15.1484H66.8968V15.7784H67.5268V16.4084V17.0384V18.2984V19.5584V20.1884V20.8184H66.8968H66.2668V20.1884V19.5584V18.2984H61.8568V19.5584V20.1884V20.8184H61.2268H60.5968V20.1884ZM66.2668 17.0384V16.4084H65.6368V15.7784H65.0068V15.1484H64.3768V14.5184H63.7468V15.1484H63.1168V15.7784H62.4868V16.4084H61.8568V17.0384H66.2668ZM70.0502 17.6684V20.8184H69.4202H68.7902V20.1884V19.5584V18.9284V17.6684V17.0384V16.4084V15.7784V15.1484V14.5184V13.8884V13.2584H69.4202H70.0502V13.8884H70.6802V14.5184H71.3102V15.1484H71.9402V15.7784H72.5702V15.1484H73.2002V14.5184H73.8302V13.8884H74.4602V13.2584H75.7202V13.8884V14.5184V19.5584V20.8184H74.4602V17.6684V15.7784H73.8302V16.4084H73.2002V17.0384H72.5702V17.6684H71.9402V17.0384H71.3102V16.4084H70.6802V15.7784H70.0502V17.6684ZM76.9835 14.5184V13.8884V13.2584H77.6135H78.2435H80.1335H83.9135V14.5184H83.2835H82.6535H81.3935H80.7635H80.1335H78.8735H78.2435V16.4084H82.6535V17.6684H78.2435V19.5584H78.8735H80.1335H80.7635H81.3935H82.6535H83.2835H83.9135V20.8184H80.1335H78.2435H77.6135H76.9835V20.1884V19.5584V18.9284V17.6684V17.0384V16.4084V15.7784V15.1484V14.5184ZM90.8469 15.7784V13.8884V13.2584H92.1069V13.8884V14.5184V19.5584V20.8184H90.8469V19.5584H90.2169V18.9284H89.5869V18.2984H88.9569V17.6684H88.3269V17.0384H87.6969V16.4084H87.0669V15.7784H86.4369V17.6684V20.8184H85.8069H85.1769V20.1884V19.5584V18.9284V17.6684V17.0384V16.4084V15.7784V15.1484V14.5184V13.8884V13.2584H85.8069H86.4369V13.8884H87.0669V14.5184H87.6969V15.1484H88.3269V15.7784H88.9569V16.4084H89.5869V17.0384H90.2169V17.6684H90.8469V15.7784ZM93.3702 14.5184V13.8884V13.2584H94.0002H94.6302H96.5202H99.6702V14.5184H99.0402H98.4102H97.1502V17.6684V20.8184H95.8902V17.6684V14.5184H95.2602H93.3702ZM102.824 18.2984V18.9284H103.454V19.5584H104.084H104.714H105.344H105.974H106.604V18.9284H107.234V18.2984H106.604V17.6684H105.974H105.344H104.714H102.824V17.0384H102.194V16.4084H101.564V15.7784V15.1484V14.5184H102.194V13.8884H102.824V13.2584H104.084H104.714H105.344H107.234V13.8884H107.864V14.5184H108.494V15.7784H107.234V15.1484H106.604V14.5184H105.974H105.344H104.714H104.084H103.454V15.1484H102.824V15.7784H103.454V16.4084H104.084H104.714H105.344H107.234V17.0384H107.864V17.6684H108.494V18.2984V18.9284V19.5584H107.864V20.1884H107.234V20.8184H105.344H104.714H102.824V20.1884H102.194V19.5584H101.564V18.2984H102.824Z" fill="#393939"/>
<path d="M19.63 13.0369V12.4069V11.7769H20.26H20.89H22.78H25.93V13.0369H25.3H24.67H23.41V16.1869V19.3369H22.15V16.1869V13.0369H21.52H19.63ZM30.9734 13.0369H30.3434H29.7134V13.6669H29.0834V14.2969V14.9269V16.1869V16.8169V17.4469H29.7134V18.0769H30.3434H30.9734H31.6034H32.2334H32.8634V17.4469H33.4934V16.8169V16.1869V14.2969V13.6669H32.8634V13.0369H32.2334H31.6034H30.9734ZM34.7534 16.1869V18.0769H34.1234V18.7069H33.4934V19.3369H31.6034H30.9734H29.0834V18.7069H28.4534V18.0769H27.8234V16.8169V16.1869V15.5569V14.9269V13.0369H28.4534V12.4069H29.0834V11.7769H30.3434H30.9734H31.6034H33.4934V12.4069H34.1234V13.0369H34.7534V14.2969V16.1869ZM37.2767 11.7769V14.2969V14.9269V16.1869V16.8169V17.4469H37.9067V18.0769H38.5367H39.1667H39.7967H40.4267H41.0567V17.4469H41.6867V16.8169V11.7769H42.9467V16.8169V18.0769H42.3167V18.7069H41.6867V19.3369H39.7967H39.1667H37.2767V18.7069H36.6467V18.0769H36.0167V16.8169V16.1869V15.5569V14.9269V11.7769H37.2767ZM44.2101 13.0369V12.4069V11.7769H44.8401H45.4701H47.3601H49.8801V12.4069H50.5101V13.0369H51.1401V14.2969V14.9269V15.5569H50.5101V16.1869H49.8801V16.8169V17.4469H50.5101V18.0769H51.1401V18.7069V19.3369H49.8801V18.7069H49.2501V18.0769H48.6201V17.4469H47.9901V16.8169H47.3601H45.4701V19.3369H44.2101V16.8169V16.1869V15.5569V14.9269V14.2969V13.6669V13.0369ZM47.3601 13.0369H46.1001H45.4701V14.9269V15.5569H46.1001H46.7301H47.3601H47.9901H48.6201H49.2501V14.9269H49.8801V14.2969V13.6669H49.2501V13.0369H48.6201H47.9901H47.3601ZM58.0734 14.2969V12.4069V11.7769H59.3334V12.4069V13.0369V18.0769V19.3369H58.0734V18.0769H57.4434V17.4469H56.8134V16.8169H56.1834V16.1869H55.5534V15.5569H54.9234V14.9269H54.2934V14.2969H53.6634V16.1869V19.3369H53.0334H52.4034V18.7069V18.0769V17.4469V16.1869V15.5569V14.9269V14.2969V13.6669V13.0369V12.4069V11.7769H53.0334H53.6634V12.4069H54.2934V13.0369H54.9234V13.6669H55.5534V14.2969H56.1834V14.9269H56.8134V15.5569H57.4434V16.1869H58.0734V14.2969ZM60.5968 18.7069V18.0769V16.8169V15.5569V14.9269V14.2969H61.2268V13.6669H61.8568V13.0369H62.4868V12.4069H63.1168V11.7769H65.0068V12.4069H65.6368V13.0369H66.2668V13.6669H66.8968V14.2969H67.5268V14.9269V15.5569V16.8169V18.0769V18.7069V19.3369H66.8968H66.2668V18.7069V18.0769V16.8169H61.8568V18.0769V18.7069V19.3369H61.2268H60.5968V18.7069ZM66.2668 15.5569V14.9269H65.6368V14.2969H65.0068V13.6669H64.3768V13.0369H63.7468V13.6669H63.1168V14.2969H62.4868V14.9269H61.8568V15.5569H66.2668ZM70.0502 16.1869V19.3369H69.4202H68.7902V18.7069V18.0769V17.4469V16.1869V15.5569V14.9269V14.2969V13.6669V13.0369V12.4069V11.7769H69.4202H70.0502V12.4069H70.6802V13.0369H71.3102V13.6669H71.9402V14.2969H72.5702V13.6669H73.2002V13.0369H73.8302V12.4069H74.4602V11.7769H75.7202V12.4069V13.0369V18.0769V19.3369H74.4602V16.1869V14.2969H73.8302V14.9269H73.2002V15.5569H72.5702V16.1869H71.9402V15.5569H71.3102V14.9269H70.6802V14.2969H70.0502V16.1869ZM76.9835 13.0369V12.4069V11.7769H77.6135H78.2435H80.1335H83.9135V13.0369H83.2835H82.6535H81.3935H80.7635H80.1335H78.8735H78.2435V14.9269H82.6535V16.1869H78.2435V18.0769H78.8735H80.1335H80.7635H81.3935H82.6535H83.2835H83.9135V19.3369H80.1335H78.2435H77.6135H76.9835V18.7069V18.0769V17.4469V16.1869V15.5569V14.9269V14.2969V13.6669V13.0369ZM90.8469 14.2969V12.4069V11.7769H92.1069V12.4069V13.0369V18.0769V19.3369H90.8469V18.0769H90.2169V17.4469H89.5869V16.8169H88.9569V16.1869H88.3269V15.5569H87.6969V14.9269H87.0669V14.2969H86.4369V16.1869V19.3369H85.8069H85.1769V18.7069V18.0769V17.4469V16.1869V15.5569V14.9269V14.2969V13.6669V13.0369V12.4069V11.7769H85.8069H86.4369V12.4069H87.0669V13.0369H87.6969V13.6669H88.3269V14.2969H88.9569V14.9269H89.5869V15.5569H90.2169V16.1869H90.8469V14.2969ZM93.3702 13.0369V12.4069V11.7769H94.0002H94.6302H96.5202H99.6702V13.0369H99.0402H98.4102H97.1502V16.1869V19.3369H95.8902V16.1869V13.0369H95.2602H93.3702ZM102.824 16.8169V17.4469H103.454V18.0769H104.084H104.714H105.344H105.974H106.604V17.4469H107.234V16.8169H106.604V16.1869H105.974H105.344H104.714H102.824V15.5569H102.194V14.9269H101.564V14.2969V13.6669V13.0369H102.194V12.4069H102.824V11.7769H104.084H104.714H105.344H107.234V12.4069H107.864V13.0369H108.494V14.2969H107.234V13.6669H106.604V13.0369H105.974H105.344H104.714H104.084H103.454V13.6669H102.824V14.2969H103.454V14.9269H104.084H104.714H105.344H107.234V15.5569H107.864V16.1869H108.494V16.8169V17.4469V18.0769H107.864V18.7069H107.234V19.3369H105.344H104.714H102.824V18.7069H102.194V18.0769H101.564V16.8169H102.824Z" fill="white"/>
</svg>
