<svg width="170" height="51" viewBox="0 0 170 51" fill="none" xmlns="http://www.w3.org/2000/svg">
<path fill-rule="evenodd" clip-rule="evenodd" d="M166 0H4V2H2V4H0V47H2V49H4V51H166V49H168V47H170V4H168V2H166V0ZM166 2V4H168V47H166V49H4V47H2V4H4V2H166Z" fill="black"/>
<path fill-rule="evenodd" clip-rule="evenodd" d="M166 2H4V4H2V46H168V4H166V2Z" fill="#797979"/>
<rect x="2" y="4" width="2" height="2" fill="#BFBFBF"/>
<rect x="168" y="4" width="2" height="2" transform="rotate(90 168 4)" fill="#BFBFBF"/>
<rect x="168" y="41" width="2" height="2" transform="rotate(-180 168 41)" fill="#BFBFBF"/>
<rect x="2" y="41" width="2" height="2" transform="rotate(-90 2 41)" fill="#BFBFBF"/>
<rect x="2" y="47" width="6" height="2" transform="rotate(-90 2 47)" fill="#3D3D3D"/>
<rect x="4" y="4" width="2" height="2" fill="#575757"/>
<rect x="168" y="6" width="2" height="2" transform="rotate(90 168 6)" fill="#575757"/>
<rect x="166" y="41" width="2" height="2" transform="rotate(-180 166 41)" fill="#575757"/>
<rect x="2" y="39" width="2" height="2" transform="rotate(-90 2 39)" fill="#575757"/>
<rect x="2" y="6" width="2" height="2" fill="#575757"/>
<rect x="166" y="4" width="2" height="2" transform="rotate(90 166 4)" fill="#575757"/>
<rect x="168" y="39" width="2" height="2" transform="rotate(-180 168 39)" fill="#575757"/>
<rect x="4" y="41" width="2" height="2" transform="rotate(-90 4 41)" fill="#575757"/>
<rect x="168" y="47" width="2" height="6" transform="rotate(-180 168 47)" fill="#3D3D3D"/>
<rect x="166" y="49" width="162" height="5.99999" transform="rotate(-180 166 49)" fill="#3D3D3D"/>
<rect x="4" y="2" width="162" height="2" fill="#BFBFBF"/>
<rect x="4" y="41" width="162" height="2" fill="#BFBFBF"/>
<rect x="12" y="49" width="6" height="4" transform="rotate(-90 12 49)" fill="#909090"/>
<rect width="6" height="4" transform="matrix(-1.31134e-07 -1 -1 1.31134e-07 154 49)" fill="#909090"/>
<rect x="17" y="49" width="6" height="3" transform="rotate(-90 17 49)" fill="#909090"/>
<rect width="6" height="3" transform="matrix(-1.31134e-07 -1 -1 1.31134e-07 149 49)" fill="#909090"/>
<rect x="21" y="49" width="6" height="2" transform="rotate(-90 21 49)" fill="#909090"/>
<rect width="6" height="2" transform="matrix(-1.31134e-07 -1 -1 1.31134e-07 145 49)" fill="#909090"/>
<rect x="24" y="49" width="6" height="0.999999" transform="rotate(-90 24 49)" fill="#909090"/>
<rect width="6" height="0.999999" transform="matrix(-1.31134e-07 -1 -1 1.31134e-07 142 49)" fill="#909090"/>
<path d="M38.008 19.92V18.912V17.904H39.016H40.024H43.048H48.088V19.92H47.08H46.072H44.056V24.96V30H42.04V24.96V19.92H41.032H38.008ZM60.1894 22.944V17.904H61.1974H62.2054V18.912V19.92V20.928V22.944V23.952V24.96V25.968V26.976V27.984V28.992V30H61.1974H60.1894V28.992H59.1814V27.984H58.1734V26.976H57.1654V25.968H56.1574V26.976H55.1494V27.984H54.1414V28.992H53.1334V30H51.1174V28.992V27.984V19.92V17.904H53.1334V22.944V25.968H54.1414V24.96H55.1494V23.952H56.1574V22.944H57.1654V23.952H58.1734V24.96H59.1814V25.968H60.1894V22.944ZM72.2908 27.984V30H71.2828H70.2748H68.2588H67.2508H66.2428V27.984H67.2508H68.2588V21.936V19.92H67.2508H66.2428V17.904H67.2508H68.2588H69.2668H70.2748H71.2828H72.2908V19.92H71.2828H70.2748V27.984H71.2828H72.2908ZM77.3361 19.92V18.912V17.904H78.3441H79.3521H82.3761H87.4161V19.92H86.4081H85.4001H83.3841V24.96V30H81.3681V24.96V19.92H80.3601H77.3361ZM90.4455 19.92V18.912V17.904H91.4535H92.4615H95.4855H100.526V19.92H99.5175H98.5095H96.4935V24.96V30H94.4775V24.96V19.92H93.4695H90.4455ZM103.555 19.92V18.912V17.904H104.563H105.571H108.595H114.643V19.92H113.635H112.627H110.611H109.603H108.595H106.579H105.571V22.944H112.627V24.96H105.571V27.984H106.579H108.595H109.603H110.611H112.627H113.635H114.643V30H108.595H105.571H104.563H103.555V28.992V27.984V26.976V24.96V23.952V22.944V21.936V20.928V19.92ZM116.664 19.92V18.912V17.904H117.672H118.68H121.704H125.736V18.912H126.744V19.92H127.752V21.936V22.944V23.952H126.744V24.96H125.736V25.968V26.976H126.744V27.984H127.752V28.992V30H125.736V28.992H124.728V27.984H123.72V26.976H122.712V25.968H121.704H118.68V30H116.664V25.968V24.96V23.952V22.944V21.936V20.928V19.92ZM121.704 19.92H119.688H118.68V22.944V23.952H119.688H120.696H121.704H122.712H123.72H124.728V22.944H125.736V21.936V20.928H124.728V19.92H123.72H122.712H121.704ZM136.83 27.984V30H134.814V28.992H133.806V27.984H132.798V25.968V24.96V23.952V22.944V19.92H133.806V18.912H134.814V17.904H136.83V19.92H135.822V20.928H134.814V21.936V22.944V24.96V25.968V26.976H135.822V27.984H136.83ZM153.971 19.92H152.963V20.928H151.955V21.936H150.947V22.944H149.939V23.952V24.96H150.947V25.968H151.955V26.976H152.963V27.984H153.971V30H151.955V28.992H150.947V27.984H149.939V26.976H148.931V25.968H147.923V26.976H146.915V27.984H145.907V28.992H144.899V30H143.891H142.883V28.992V27.984H143.891V26.976H144.899V25.968H145.907V24.96H146.915V23.952V22.944H145.907V21.936H144.899V20.928H143.891V19.92H142.883V17.904H144.899V18.912H145.907V19.92H146.915V20.928H147.923V21.936H148.931V20.928H149.939V19.92H150.947V18.912H151.955V17.904H152.963H153.971V18.912V19.92ZM159.016 19.92V17.904H161.032V18.912H162.04V19.92H163.048V21.936V22.944V23.952V24.96V27.984H162.04V28.992H161.032V30H159.016V27.984H160.024V26.976H161.032V25.968V24.96V22.944V21.936V20.928H160.024V19.92H159.016Z" fill="#393939"/>
<path d="M38.008 17.92V16.912V15.904H39.016H40.024H43.048H48.088V17.92H47.08H46.072H44.056V22.96V28H42.04V22.96V17.92H41.032H38.008ZM60.1894 20.944V15.904H61.1974H62.2054V16.912V17.92V18.928V20.944V21.952V22.96V23.968V24.976V25.984V26.992V28H61.1974H60.1894V26.992H59.1814V25.984H58.1734V24.976H57.1654V23.968H56.1574V24.976H55.1494V25.984H54.1414V26.992H53.1334V28H51.1174V26.992V25.984V17.92V15.904H53.1334V20.944V23.968H54.1414V22.96H55.1494V21.952H56.1574V20.944H57.1654V21.952H58.1734V22.96H59.1814V23.968H60.1894V20.944ZM72.2908 25.984V28H71.2828H70.2748H68.2588H67.2508H66.2428V25.984H67.2508H68.2588V19.936V17.92H67.2508H66.2428V15.904H67.2508H68.2588H69.2668H70.2748H71.2828H72.2908V17.92H71.2828H70.2748V25.984H71.2828H72.2908ZM77.3361 17.92V16.912V15.904H78.3441H79.3521H82.3761H87.4161V17.92H86.4081H85.4001H83.3841V22.96V28H81.3681V22.96V17.92H80.3601H77.3361ZM90.4455 17.92V16.912V15.904H91.4535H92.4615H95.4855H100.526V17.92H99.5175H98.5095H96.4935V22.96V28H94.4775V22.96V17.92H93.4695H90.4455ZM103.555 17.92V16.912V15.904H104.563H105.571H108.595H114.643V17.92H113.635H112.627H110.611H109.603H108.595H106.579H105.571V20.944H112.627V22.96H105.571V25.984H106.579H108.595H109.603H110.611H112.627H113.635H114.643V28H108.595H105.571H104.563H103.555V26.992V25.984V24.976V22.96V21.952V20.944V19.936V18.928V17.92ZM116.664 17.92V16.912V15.904H117.672H118.68H121.704H125.736V16.912H126.744V17.92H127.752V19.936V20.944V21.952H126.744V22.96H125.736V23.968V24.976H126.744V25.984H127.752V26.992V28H125.736V26.992H124.728V25.984H123.72V24.976H122.712V23.968H121.704H118.68V28H116.664V23.968V22.96V21.952V20.944V19.936V18.928V17.92ZM121.704 17.92H119.688H118.68V20.944V21.952H119.688H120.696H121.704H122.712H123.72H124.728V20.944H125.736V19.936V18.928H124.728V17.92H123.72H122.712H121.704ZM136.83 25.984V28H134.814V26.992H133.806V25.984H132.798V23.968V22.96V21.952V20.944V17.92H133.806V16.912H134.814V15.904H136.83V17.92H135.822V18.928H134.814V19.936V20.944V22.96V23.968V24.976H135.822V25.984H136.83ZM153.971 17.92H152.963V18.928H151.955V19.936H150.947V20.944H149.939V21.952V22.96H150.947V23.968H151.955V24.976H152.963V25.984H153.971V28H151.955V26.992H150.947V25.984H149.939V24.976H148.931V23.968H147.923V24.976H146.915V25.984H145.907V26.992H144.899V28H143.891H142.883V26.992V25.984H143.891V24.976H144.899V23.968H145.907V22.96H146.915V21.952V20.944H145.907V19.936H144.899V18.928H143.891V17.92H142.883V15.904H144.899V16.912H145.907V17.92H146.915V18.928H147.923V19.936H148.931V18.928H149.939V17.92H150.947V16.912H151.955V15.904H152.963H153.971V16.912V17.92ZM159.016 17.92V15.904H161.032V16.912H162.04V17.92H163.048V19.936V20.944V21.952V22.96V25.984H162.04V26.992H161.032V28H159.016V25.984H160.024V24.976H161.032V23.968V22.96V20.944V19.936V18.928H160.024V17.92H159.016Z" fill="white"/>
<path d="M25.99 13.25H29.298L22.071 21.51L30.573 32.75H23.916L18.702 25.933L12.736 32.75H9.426L17.156 23.915L9 13.25H15.826L20.539 19.481L25.99 13.25ZM24.829 30.77H26.662L14.83 15.126H12.863L24.829 30.77Z" fill="#393939"/>
<path d="M25.99 11H29.298L22.071 19.26L30.573 30.5H23.916L18.702 23.683L12.736 30.5H9.426L17.156 21.665L9 11H15.826L20.539 17.231L25.99 11ZM24.829 28.52H26.662L14.83 12.876H12.863L24.829 28.52Z" fill="white"/>
</svg>
