<svg width="9" height="9" viewBox="0 0 9 9" fill="none" xmlns="http://www.w3.org/2000/svg">
<path fill-rule="evenodd" clip-rule="evenodd" d="M7.31543 0H2.43841V1.21918H1.21932V2.43844H2.43857V1.21925H7.31543V0ZM1.21932 7.31548L3.04807 7.31548L3.04807 4.26734L3.04807 3.04808H4.26732H7.31546V4.26734H4.26732V7.31548L3.0482 7.31548V8.53473H1.21932V7.31548ZM8.53478 3.04806V1.21918H7.31553V3.04806H8.53478ZM0 2.43849H1.21925V7.31551H0V2.43849Z" fill="#7000F2"/>
<path fill-rule="evenodd" clip-rule="evenodd" d="M7.31486 1.21973H2.43784V2.43891H1.21875V7.31593H3.04763V3.04861H7.31486V1.21973Z" fill="#EAD8FF"/>
<rect x="3.04688" y="2.43848" width="4.26739" height="0.609627" fill="#CCA0FF"/>
<rect x="3.04688" y="3.04785" width="4.26739" height="0.609627" transform="rotate(90 3.04688 3.04785)" fill="#CCA0FF"/>
</svg>
