<svg width="108" height="106" viewBox="0 0 108 106" fill="none" xmlns="http://www.w3.org/2000/svg">
<g clip-path="url(#clip0_178_3073)" filter="url(#filter0_d_178_3073)">
<path d="M34.7632 0H30.9102V3.89331H34.7632V0Z" fill="#181425"/>
<path d="M38.6148 0H34.7617V3.89331H38.6148V0Z" fill="#181425"/>
<path d="M42.4683 0H38.6152V3.89331H42.4683V0Z" fill="#181425"/>
<path d="M46.3218 0H42.4688V3.89331H46.3218V0Z" fill="#181425"/>
<path d="M50.1754 0H46.3223V3.89331H50.1754V0Z" fill="#181425"/>
<path d="M54.0289 0H50.1758V3.89331H54.0289V0Z" fill="#181425"/>
<path d="M57.8804 0H54.0273V3.89331H57.8804V0Z" fill="#181425"/>
<path d="M61.6714 0H57.8184V3.89331H61.6714V0Z" fill="#181425"/>
<path d="M65.525 0H61.6719V3.89331H65.525V0Z" fill="#181425"/>
<path d="M27.0562 3.89355H23.2031V7.78686H27.0562V3.89355Z" fill="#181425"/>
<path d="M30.9097 3.89355H27.0566V7.78686H30.9097V3.89355Z" fill="#181425"/>
<path d="M34.7632 3.89355H30.9102V7.78686H34.7632V3.89355Z" fill="#E45C00"/>
<path d="M38.6148 3.89355H34.7617V7.78686H38.6148V3.89355Z" fill="#181425"/>
<path d="M42.4683 3.89355H38.6152V7.78686H42.4683V3.89355Z" fill="#181425"/>
<path d="M46.3218 3.89355H42.4688V7.78686H46.3218V3.89355Z" fill="#E45C00"/>
<path d="M50.1754 3.89355H46.3223V7.78686H50.1754V3.89355Z" fill="#E45C00"/>
<path d="M54.0289 3.89355H50.1758V7.78686H54.0289V3.89355Z" fill="#E45C00"/>
<path d="M57.8804 3.89355H54.0273V7.78686H57.8804V3.89355Z" fill="#FF7C06"/>
<path d="M61.6714 3.89355H57.8184V7.78686H61.6714V3.89355Z" fill="#FF7C06"/>
<path d="M65.525 3.89355H61.6719V7.78686H65.525V3.89355Z" fill="#181425"/>
<path d="M69.3785 3.89355H65.5254V7.78686H69.3785V3.89355Z" fill="#181425"/>
<path d="M73.232 3.89355H69.3789V7.78686H73.232V3.89355Z" fill="#181425"/>
<path d="M23.2652 7.78613H19.4121V11.6794H23.2652V7.78613Z" fill="#181425"/>
<path d="M27.0562 7.78613H23.2031V11.6794H27.0562V7.78613Z" fill="white"/>
<path d="M30.9097 7.78613H27.0566V11.6794H30.9097V7.78613Z" fill="white"/>
<path d="M34.7632 7.78613H30.9102V11.6794H34.7632V7.78613Z" fill="#181425"/>
<path d="M38.6148 7.78613H34.7617V11.6794H38.6148V7.78613Z" fill="white"/>
<path d="M42.4683 7.78613H38.6152V11.6794H42.4683V7.78613Z" fill="#181425"/>
<path d="M46.3218 7.78613H42.4688V11.6794H46.3218V7.78613Z" fill="#181425"/>
<path d="M50.1754 7.78613H46.3223V11.6794H50.1754V7.78613Z" fill="#181425"/>
<path d="M54.0289 7.78613H50.1758V11.6794H54.0289V7.78613Z" fill="#181425"/>
<path d="M57.8804 7.78613H54.0273V11.6794H57.8804V7.78613Z" fill="#181425"/>
<path d="M61.6714 7.78613H57.8184V11.6794H61.6714V7.78613Z" fill="#181425"/>
<path d="M65.525 7.78613H61.6719V11.6794H65.525V7.78613Z" fill="#181425"/>
<path d="M69.3785 7.78613H65.5254V11.6794H69.3785V7.78613Z" fill="white"/>
<path d="M73.232 7.78613H69.3789V11.6794H73.232V7.78613Z" fill="white"/>
<path d="M77.0836 7.78613H73.2305V11.6794H77.0836V7.78613Z" fill="#181425"/>
<path d="M19.4117 11.6797H15.5586V15.573H19.4117V11.6797Z" fill="#181425"/>
<path d="M23.2652 11.6797H19.4121V15.573H23.2652V11.6797Z" fill="white"/>
<path d="M27.0562 11.6797H23.2031V15.573H27.0562V11.6797Z" fill="white"/>
<path d="M30.9097 11.6797H27.0566V15.573H30.9097V11.6797Z" fill="#181425"/>
<path d="M34.7632 11.6797H30.9102V15.573H34.7632V11.6797Z" fill="white"/>
<path d="M38.6148 11.6797H34.7617V15.573H38.6148V11.6797Z" fill="#C6C6C6"/>
<path d="M42.4683 11.6797H38.6152V15.573H42.4683V11.6797Z" fill="#181425"/>
<path d="M46.3218 11.6797H42.4688V15.573H46.3218V11.6797Z" fill="#E45C00"/>
<path d="M50.1754 11.6797H46.3223V15.573H50.1754V11.6797Z" fill="#E45C00"/>
<path d="M54.0289 11.6797H50.1758V15.573H54.0289V11.6797Z" fill="#FF7C06"/>
<path d="M57.8804 11.6797H54.0273V15.573H57.8804V11.6797Z" fill="#FF7C06"/>
<path d="M61.6714 11.6797H57.8184V15.573H61.6714V11.6797Z" fill="#FF7C06"/>
<path d="M65.525 11.6797H61.6719V15.573H65.525V11.6797Z" fill="#FF7C06"/>
<path d="M69.3785 11.6797H65.5254V15.573H69.3785V11.6797Z" fill="#181425"/>
<path d="M73.232 11.6797H69.3789V15.573H73.232V11.6797Z" fill="#C6C6C6"/>
<path d="M77.0836 11.6797H73.2305V15.573H77.0836V11.6797Z" fill="white"/>
<path d="M80.9371 11.6797H77.084V15.573H80.9371V11.6797Z" fill="#181425"/>
<path d="M15.5601 15.5732H11.707V19.4665H15.5601V15.5732Z" fill="#181425"/>
<path d="M19.4117 15.5732H15.5586V19.4665H19.4117V15.5732Z" fill="#181425"/>
<path d="M23.2652 15.5732H19.4121V19.4665H23.2652V15.5732Z" fill="#181425"/>
<path d="M27.0562 15.5732H23.2031V19.4665H27.0562V15.5732Z" fill="#181425"/>
<path d="M30.9097 15.5732H27.0566V19.4665H30.9097V15.5732Z" fill="white"/>
<path d="M34.7632 15.5732H30.9102V19.4665H34.7632V15.5732Z" fill="#C6C6C6"/>
<path d="M38.6148 15.5732H34.7617V19.4665H38.6148V15.5732Z" fill="#181425"/>
<path d="M42.4683 15.5732H38.6152V19.4665H42.4683V15.5732Z" fill="#E45C00"/>
<path d="M46.3218 15.5732H42.4688V19.4665H46.3218V15.5732Z" fill="#FF7C06"/>
<path d="M50.1754 15.5732H46.3223V19.4665H50.1754V15.5732Z" fill="#FF7C06"/>
<path d="M54.0289 15.5732H50.1758V19.4665H54.0289V15.5732Z" fill="#FF7C06"/>
<path d="M57.8804 15.5732H54.0273V19.4665H57.8804V15.5732Z" fill="#FF7C06"/>
<path d="M61.6714 15.5732H57.8184V19.4665H61.6714V15.5732Z" fill="#FF7C06"/>
<path d="M65.525 15.5732H61.6719V19.4665H65.525V15.5732Z" fill="#FF7C06"/>
<path d="M69.3785 15.5732H65.5254V19.4665H69.3785V15.5732Z" fill="#FF7C06"/>
<path d="M73.232 15.5732H69.3789V19.4665H73.232V15.5732Z" fill="#181425"/>
<path d="M77.0836 15.5732H73.2305V19.4665H77.0836V15.5732Z" fill="white"/>
<path d="M80.9371 15.5732H77.084V19.4665H80.9371V15.5732Z" fill="#181425"/>
<path d="M84.7906 15.5732H80.9375V19.4665H84.7906V15.5732Z" fill="#181425"/>
<path d="M15.5601 19.4033H11.707V23.2966H15.5601V19.4033Z" fill="#181425"/>
<path d="M19.4117 19.4033H15.5586V23.2966H19.4117V19.4033Z" fill="#E45C00"/>
<path d="M23.2652 19.4033H19.4121V23.2966H23.2652V19.4033Z" fill="#E45C00"/>
<path d="M27.0562 19.4033H23.2031V23.2966H27.0562V19.4033Z" fill="#181425"/>
<path d="M30.9097 19.4033H27.0566V23.2966H30.9097V19.4033Z" fill="#181425"/>
<path d="M34.7632 19.4033H30.9102V23.2966H34.7632V19.4033Z" fill="#181425"/>
<path d="M38.6148 19.4033H34.7617V23.2966H38.6148V19.4033Z" fill="#E45C00"/>
<path d="M42.4683 19.4033H38.6152V23.2966H42.4683V19.4033Z" fill="#FF7C06"/>
<path d="M46.3218 19.4033H42.4688V23.2966H46.3218V19.4033Z" fill="#181425"/>
<path d="M50.1754 19.4033H46.3223V23.2966H50.1754V19.4033Z" fill="#181425"/>
<path d="M54.0289 19.4033H50.1758V23.2966H54.0289V19.4033Z" fill="#FF7C06"/>
<path d="M57.8804 19.4033H54.0273V23.2966H57.8804V19.4033Z" fill="#FF7C06"/>
<path d="M61.6714 19.4033H57.8184V23.2966H61.6714V19.4033Z" fill="#FF7C06"/>
<path d="M65.525 19.4033H61.6719V23.2966H65.525V19.4033Z" fill="#FF7C06"/>
<path d="M69.3785 19.4033H65.5254V23.2966H69.3785V19.4033Z" fill="#181425"/>
<path d="M73.232 19.4033H69.3789V23.2966H73.232V19.4033Z" fill="#FF7C06"/>
<path d="M77.0836 19.4033H73.2305V23.2966H77.0836V19.4033Z" fill="#181425"/>
<path d="M80.9371 19.4033H77.084V23.2966H80.9371V19.4033Z" fill="#FF7C06"/>
<path d="M84.7906 19.4033H80.9375V23.2966H84.7906V19.4033Z" fill="#181425"/>
<path d="M11.7066 23.2969H7.85352V27.1902H11.7066V23.2969Z" fill="#181425"/>
<path d="M15.5601 23.2969H11.707V27.1902H15.5601V23.2969Z" fill="#E45C00"/>
<path d="M19.4117 23.2969H15.5586V27.1902H19.4117V23.2969Z" fill="#E45C00"/>
<path d="M23.2652 23.2969H19.4121V27.1902H23.2652V23.2969Z" fill="#181425"/>
<path d="M27.0562 23.2969H23.2031V27.1902H27.0562V23.2969Z" fill="#FF7C06"/>
<path d="M30.9097 23.2969H27.0566V27.1902H30.9097V23.2969Z" fill="#181425"/>
<path d="M34.7632 23.2969H30.9102V27.1902H34.7632V23.2969Z" fill="#E45C00"/>
<path d="M38.6148 23.2969H34.7617V27.1902H38.6148V23.2969Z" fill="#E45C00"/>
<path d="M42.4683 23.2969H38.6152V27.1902H42.4683V23.2969Z" fill="#FF7C06"/>
<path d="M46.3218 23.2969H42.4688V27.1902H46.3218V23.2969Z" fill="#FF7C06"/>
<path d="M50.1754 23.2969H46.3223V27.1902H50.1754V23.2969Z" fill="#FF7C06"/>
<path d="M54.0289 23.2969H50.1758V27.1902H54.0289V23.2969Z" fill="#FF7C06"/>
<path d="M57.8804 23.2969H54.0273V27.1902H57.8804V23.2969Z" fill="#FF7C06"/>
<path d="M61.6714 23.2969H57.8184V27.1902H61.6714V23.2969Z" fill="#FF7C06"/>
<path d="M65.525 23.2969H61.6719V27.1902H65.525V23.2969Z" fill="#FF7C06"/>
<path d="M69.3785 23.2969H65.5254V27.1902H69.3785V23.2969Z" fill="#FF7C06"/>
<path d="M73.232 23.2969H69.3789V27.1902H73.232V23.2969Z" fill="#FF7C06"/>
<path d="M77.0836 23.2969H73.2305V27.1902H77.0836V23.2969Z" fill="#FF7C06"/>
<path d="M80.9371 23.2969H77.084V27.1902H80.9371V23.2969Z" fill="#181425"/>
<path d="M84.7906 23.2969H80.9375V27.1902H84.7906V23.2969Z" fill="#FF7C06"/>
<path d="M88.6441 23.2969H84.791V27.1902H88.6441V23.2969Z" fill="#181425"/>
<path d="M11.7066 27.1904H7.85352V31.0837H11.7066V27.1904Z" fill="#181425"/>
<path d="M15.5601 27.1904H11.707V31.0837H15.5601V27.1904Z" fill="#181425"/>
<path d="M19.4117 27.1904H15.5586V31.0837H19.4117V27.1904Z" fill="#181425"/>
<path d="M23.2652 27.1904H19.4121V31.0837H23.2652V27.1904Z" fill="#181425"/>
<path d="M27.0562 27.1904H23.2031V31.0837H27.0562V27.1904Z" fill="#FF7C06"/>
<path d="M30.9097 27.1904H27.0566V31.0837H30.9097V27.1904Z" fill="#181425"/>
<path d="M34.7632 27.1904H30.9102V31.0837H34.7632V27.1904Z" fill="#E45C00"/>
<path d="M38.6148 27.1904H34.7617V31.0837H38.6148V27.1904Z" fill="#181425"/>
<path d="M42.4683 27.1904H38.6152V31.0837H42.4683V27.1904Z" fill="#181425"/>
<path d="M46.3218 27.1904H42.4688V31.0837H46.3218V27.1904Z" fill="#181425"/>
<path d="M50.1754 27.1904H46.3223V31.0837H50.1754V27.1904Z" fill="#181425"/>
<path d="M54.0289 27.1904H50.1758V31.0837H54.0289V27.1904Z" fill="#FF7C06"/>
<path d="M57.8804 27.1904H54.0273V31.0837H57.8804V27.1904Z" fill="#FF7C06"/>
<path d="M61.6714 27.1904H57.8184V31.0837H61.6714V27.1904Z" fill="#FF7C06"/>
<path d="M65.525 27.1904H61.6719V31.0837H65.525V27.1904Z" fill="#FF7C06"/>
<path d="M69.3785 27.1904H65.5254V31.0837H69.3785V27.1904Z" fill="#FF7C06"/>
<path d="M73.232 27.1904H69.3789V31.0837H73.232V27.1904Z" fill="#181425"/>
<path d="M77.0836 27.1904H73.2305V31.0837H77.0836V27.1904Z" fill="#181425"/>
<path d="M80.9371 27.1904H77.084V31.0837H80.9371V27.1904Z" fill="#181425"/>
<path d="M84.7906 27.1904H80.9375V31.0837H84.7906V27.1904Z" fill="#FF7C06"/>
<path d="M88.6441 27.1904H84.791V31.0837H88.6441V27.1904Z" fill="#181425"/>
<path d="M7.85309 31.084H4V34.9773H7.85309V31.084Z" fill="#181425"/>
<path d="M11.7066 31.084H7.85352V34.9773H11.7066V31.084Z" fill="#C6C6C6"/>
<path d="M15.5601 31.084H11.707V34.9773H15.5601V31.084Z" fill="white"/>
<path d="M19.4117 31.084H15.5586V34.9773H19.4117V31.084Z" fill="#181425"/>
<path d="M23.2652 31.084H19.4121V34.9773H23.2652V31.084Z" fill="white"/>
<path d="M27.0562 31.084H23.2031V34.9773H27.0562V31.084Z" fill="#181425"/>
<path d="M30.9097 31.084H27.0566V34.9773H30.9097V31.084Z" fill="#181425"/>
<path d="M34.7632 31.084H30.9102V34.9773H34.7632V31.084Z" fill="#181425"/>
<path d="M38.6148 31.084H34.7617V34.9773H38.6148V31.084Z" fill="#181425"/>
<path d="M42.4683 31.084H38.6152V34.9773H42.4683V31.084Z" fill="#181425"/>
<path d="M46.3218 31.084H42.4688V34.9773H46.3218V31.084Z" fill="#181425"/>
<path d="M50.1754 31.084H46.3223V34.9773H50.1754V31.084Z" fill="#181425"/>
<path d="M54.0289 31.084H50.1758V34.9773H54.0289V31.084Z" fill="#181425"/>
<path d="M57.8804 31.084H54.0273V34.9773H57.8804V31.084Z" fill="#FF7C06"/>
<path d="M61.6714 31.084H57.8184V34.9773H61.6714V31.084Z" fill="#FF7C06"/>
<path d="M65.525 31.084H61.6719V34.9773H65.525V31.084Z" fill="#FF7C06"/>
<path d="M69.3785 31.084H65.5254V34.9773H69.3785V31.084Z" fill="#181425"/>
<path d="M73.232 31.084H69.3789V34.9773H73.232V31.084Z" fill="#181425"/>
<path d="M77.0836 31.084H73.2305V34.9773H77.0836V31.084Z" fill="#181425"/>
<path d="M80.9371 31.084H77.084V34.9773H80.9371V31.084Z" fill="#181425"/>
<path d="M84.7906 31.084H80.9375V34.9773H84.7906V31.084Z" fill="#181425"/>
<path d="M88.6441 31.084H84.791V34.9773H88.6441V31.084Z" fill="white"/>
<path d="M92.4976 31.084H88.6445V34.9773H92.4976V31.084Z" fill="#181425"/>
<path d="M7.85309 34.9766H4V38.8699H7.85309V34.9766Z" fill="#181425"/>
<path d="M11.7066 34.9766H7.85352V38.8699H11.7066V34.9766Z" fill="#C6C6C6"/>
<path d="M15.5601 34.9766H11.707V38.8699H15.5601V34.9766Z" fill="white"/>
<path d="M19.4117 34.9766H15.5586V38.8699H19.4117V34.9766Z" fill="#181425"/>
<path d="M23.2652 34.9766H19.4121V38.8699H23.2652V34.9766Z" fill="white"/>
<path d="M27.0562 34.9766H23.2031V38.8699H27.0562V34.9766Z" fill="#181425"/>
<path d="M30.9097 34.9766H27.0566V38.8699H30.9097V34.9766Z" fill="#181425"/>
<path d="M34.7632 34.9766H30.9102V38.8699H34.7632V34.9766Z" fill="#181425"/>
<path d="M38.6148 34.9766H34.7617V38.8699H38.6148V34.9766Z" fill="#181425"/>
<path d="M42.4683 34.9766H38.6152V38.8699H42.4683V34.9766Z" fill="white"/>
<path d="M46.3218 34.9766H42.4688V38.8699H46.3218V34.9766Z" fill="#3978A8"/>
<path d="M50.1754 34.9766H46.3223V38.8699H50.1754V34.9766Z" fill="#3978A8"/>
<path d="M54.0289 34.9766H50.1758V38.8699H54.0289V34.9766Z" fill="#181425"/>
<path d="M57.8804 34.9766H54.0273V38.8699H57.8804V34.9766Z" fill="#181425"/>
<path d="M61.6714 34.9766H57.8184V38.8699H61.6714V34.9766Z" fill="#181425"/>
<path d="M65.525 34.9766H61.6719V38.8699H65.525V34.9766Z" fill="#181425"/>
<path d="M69.3785 34.9766H65.5254V38.8699H69.3785V34.9766Z" fill="#181425"/>
<path d="M73.232 34.9766H69.3789V38.8699H73.232V34.9766Z" fill="#181425"/>
<path d="M77.0836 34.9766H73.2305V38.8699H77.0836V34.9766Z" fill="#3978A8"/>
<path d="M80.9371 34.9766H77.084V38.8699H80.9371V34.9766Z" fill="#3978A8"/>
<path d="M84.7906 34.9766H80.9375V38.8699H84.7906V34.9766Z" fill="#181425"/>
<path d="M88.6441 34.9766H84.791V38.8699H88.6441V34.9766Z" fill="white"/>
<path d="M92.4976 34.9766H88.6445V38.8699H92.4976V34.9766Z" fill="#181425"/>
<path d="M7.85309 38.8701H4V42.7634H7.85309V38.8701Z" fill="#181425"/>
<path d="M11.7066 38.8701H7.85352V42.7634H11.7066V38.8701Z" fill="#C6C6C6"/>
<path d="M15.5601 38.8701H11.707V42.7634H15.5601V38.8701Z" fill="white"/>
<path d="M19.4117 38.8701H15.5586V42.7634H19.4117V38.8701Z" fill="#181425"/>
<path d="M23.2652 38.8701H19.4121V42.7634H23.2652V38.8701Z" fill="white"/>
<path d="M27.0562 38.8701H23.2031V42.7634H27.0562V38.8701Z" fill="#181425"/>
<path d="M30.9097 38.8701H27.0566V42.7634H30.9097V38.8701Z" fill="#E45C00"/>
<path d="M34.7632 38.8701H30.9102V42.7634H34.7632V38.8701Z" fill="#181425"/>
<path d="M38.6148 38.8701H34.7617V42.7634H38.6148V38.8701Z" fill="white"/>
<path d="M42.4683 38.8701H38.6152V42.7634H42.4683V38.8701Z" fill="white"/>
<path d="M46.3218 38.8701H42.4688V42.7634H46.3218V38.8701Z" fill="#3978A8"/>
<path d="M50.1754 38.8701H46.3223V42.7634H50.1754V38.8701Z" fill="#394778"/>
<path d="M54.0289 38.8701H50.1758V42.7634H54.0289V38.8701Z" fill="white"/>
<path d="M57.8804 38.8701H54.0273V42.7634H57.8804V38.8701Z" fill="#181425"/>
<path d="M61.6714 38.8701H57.8184V42.7634H61.6714V38.8701Z" fill="#181425"/>
<path d="M65.525 38.8701H61.6719V42.7634H65.525V38.8701Z" fill="#181425"/>
<path d="M69.3785 38.8701H65.5254V42.7634H69.3785V38.8701Z" fill="#181425"/>
<path d="M73.232 38.8701H69.3789V42.7634H73.232V38.8701Z" fill="white"/>
<path d="M77.0836 38.8701H73.2305V42.7634H77.0836V38.8701Z" fill="#394778"/>
<path d="M80.9371 38.8701H77.084V42.7634H80.9371V38.8701Z" fill="#3978A8"/>
<path d="M84.7906 38.8701H80.9375V42.7634H84.7906V38.8701Z" fill="#181425"/>
<path d="M88.6441 38.8701H84.791V42.7634H88.6441V38.8701Z" fill="white"/>
<path d="M92.4976 38.8701H88.6445V42.7634H92.4976V38.8701Z" fill="#181425"/>
<path d="M7.85309 42.7637H4V46.657H7.85309V42.7637Z" fill="#181425"/>
<path d="M11.7066 42.7637H7.85352V46.657H11.7066V42.7637Z" fill="#C6C6C6"/>
<path d="M15.5601 42.7637H11.707V46.657H15.5601V42.7637Z" fill="white"/>
<path d="M19.4117 42.7637H15.5586V46.657H19.4117V42.7637Z" fill="#181425"/>
<path d="M23.2652 42.7637H19.4121V46.657H23.2652V42.7637Z" fill="white"/>
<path d="M27.0562 42.7637H23.2031V46.657H27.0562V42.7637Z" fill="#181425"/>
<path d="M30.9097 42.7637H27.0566V46.657H30.9097V42.7637Z" fill="#E45C00"/>
<path d="M34.7632 42.7637H30.9102V46.657H34.7632V42.7637Z" fill="#181425"/>
<path d="M38.6148 42.7637H34.7617V46.657H38.6148V42.7637Z" fill="#181425"/>
<path d="M42.4683 42.7637H38.6152V46.657H42.4683V42.7637Z" fill="white"/>
<path d="M46.3218 42.7637H42.4688V46.657H46.3218V42.7637Z" fill="white"/>
<path d="M50.1754 42.7637H46.3223V46.657H50.1754V42.7637Z" fill="#394778"/>
<path d="M54.0289 42.7637H50.1758V46.657H54.0289V42.7637Z" fill="#181425"/>
<path d="M57.8804 42.7637H54.0273V46.657H57.8804V42.7637Z" fill="#181425"/>
<path d="M61.6714 42.7637H57.8184V46.657H61.6714V42.7637Z" fill="#FF7C06"/>
<path d="M65.525 42.7637H61.6719V46.657H65.525V42.7637Z" fill="#FF7C06"/>
<path d="M69.3785 42.7637H65.5254V46.657H69.3785V42.7637Z" fill="#181425"/>
<path d="M73.232 42.7637H69.3789V46.657H73.232V42.7637Z" fill="#181425"/>
<path d="M77.0836 42.7637H73.2305V46.657H77.0836V42.7637Z" fill="#394778"/>
<path d="M80.9371 42.7637H77.084V46.657H80.9371V42.7637Z" fill="#181425"/>
<path d="M84.7906 42.7637H80.9375V46.657H84.7906V42.7637Z" fill="#181425"/>
<path d="M88.6441 42.7637H84.791V46.657H88.6441V42.7637Z" fill="white"/>
<path d="M92.4976 42.7637H88.6445V46.657H92.4976V42.7637Z" fill="#181425"/>
<path d="M11.7066 46.6572H7.85352V50.5505H11.7066V46.6572Z" fill="#181425"/>
<path d="M15.5601 46.6572H11.707V50.5505H15.5601V46.6572Z" fill="#181425"/>
<path d="M19.4117 46.6572H15.5586V50.5505H19.4117V46.6572Z" fill="#181425"/>
<path d="M23.2652 46.6572H19.4121V50.5505H23.2652V46.6572Z" fill="#181425"/>
<path d="M27.0562 46.6572H23.2031V50.5505H27.0562V46.6572Z" fill="#FF7C06"/>
<path d="M30.9097 46.6572H27.0566V50.5505H30.9097V46.6572Z" fill="#181425"/>
<path d="M34.7632 46.6572H30.9102V50.5505H34.7632V46.6572Z" fill="#E45C00"/>
<path d="M38.6148 46.6572H34.7617V50.5505H38.6148V46.6572Z" fill="#181425"/>
<path d="M42.4683 46.6572H38.6152V50.5505H42.4683V46.6572Z" fill="#181425"/>
<path d="M46.3218 46.6572H42.4688V50.5505H46.3218V46.6572Z" fill="#181425"/>
<path d="M50.1754 46.6572H46.3223V50.5505H50.1754V46.6572Z" fill="#181425"/>
<path d="M54.0289 46.6572H50.1758V50.5505H54.0289V46.6572Z" fill="#181425"/>
<path d="M57.8804 46.6572H54.0273V50.5505H57.8804V46.6572Z" fill="#FF7C06"/>
<path d="M61.6714 46.6572H57.8184V50.5505H61.6714V46.6572Z" fill="#FF7C06"/>
<path d="M65.525 46.6572H61.6719V50.5505H65.525V46.6572Z" fill="#FF7C06"/>
<path d="M69.3785 46.6572H65.5254V50.5505H69.3785V46.6572Z" fill="#FF7C06"/>
<path d="M73.232 46.6572H69.3789V50.5505H73.232V46.6572Z" fill="#181425"/>
<path d="M77.0836 46.6572H73.2305V50.5505H77.0836V46.6572Z" fill="#181425"/>
<path d="M80.9371 46.6572H77.084V50.5505H80.9371V46.6572Z" fill="#181425"/>
<path d="M84.7906 46.6572H80.9375V50.5505H84.7906V46.6572Z" fill="#FF7C06"/>
<path d="M88.6441 46.6572H84.791V50.5505H88.6441V46.6572Z" fill="#181425"/>
<path d="M11.7066 50.5498H7.85352V54.4431H11.7066V50.5498Z" fill="#181425"/>
<path d="M15.5601 50.5498H11.707V54.4431H15.5601V50.5498Z" fill="#262B44"/>
<path d="M19.4117 50.5498H15.5586V54.4431H19.4117V50.5498Z" fill="#262B44"/>
<path d="M23.2652 50.5498H19.4121V54.4431H23.2652V50.5498Z" fill="#181425"/>
<path d="M27.0562 50.5498H23.2031V54.4431H27.0562V50.5498Z" fill="#FF7C06"/>
<path d="M30.9097 50.5498H27.0566V54.4431H30.9097V50.5498Z" fill="#181425"/>
<path d="M34.7632 50.5498H30.9102V54.4431H34.7632V50.5498Z" fill="#E45C00"/>
<path d="M38.6148 50.5498H34.7617V54.4431H38.6148V50.5498Z" fill="#E45C00"/>
<path d="M42.4683 50.5498H38.6152V54.4431H42.4683V50.5498Z" fill="#181425"/>
<path d="M46.3218 50.5498H42.4688V54.4431H46.3218V50.5498Z" fill="#181425"/>
<path d="M50.1754 50.5498H46.3223V54.4431H50.1754V50.5498Z" fill="#181425"/>
<path d="M54.0289 50.5498H50.1758V54.4431H54.0289V50.5498Z" fill="#FF7C06"/>
<path d="M57.8804 50.5498H54.0273V54.4431H57.8804V50.5498Z" fill="#FF7C06"/>
<path d="M61.6714 50.5498H57.8184V54.4431H61.6714V50.5498Z" fill="#FF7C06"/>
<path d="M65.525 50.5498H61.6719V54.4431H65.525V50.5498Z" fill="#FF7C06"/>
<path d="M69.3785 50.5498H65.5254V54.4431H69.3785V50.5498Z" fill="#181425"/>
<path d="M73.232 50.5498H69.3789V54.4431H73.232V50.5498Z" fill="#FF7C06"/>
<path d="M77.0836 50.5498H73.2305V54.4431H77.0836V50.5498Z" fill="#181425"/>
<path d="M80.9371 50.5498H77.084V54.4431H80.9371V50.5498Z" fill="#181425"/>
<path d="M84.7906 50.5498H80.9375V54.4431H84.7906V50.5498Z" fill="#FF7C06"/>
<path d="M88.6441 50.5498H84.791V54.4431H88.6441V50.5498Z" fill="#181425"/>
<path d="M7.85309 54.3809H4V58.2742H7.85309V54.3809Z" fill="#181425"/>
<path d="M11.7066 54.3809H7.85352V58.2742H11.7066V54.3809Z" fill="#262B44"/>
<path d="M15.5601 54.3809H11.707V58.2742H15.5601V54.3809Z" fill="#262B44"/>
<path d="M19.4117 54.3809H15.5586V58.2742H19.4117V54.3809Z" fill="#181425"/>
<path d="M23.2652 54.3809H19.4121V58.2742H23.2652V54.3809Z" fill="#E45C00"/>
<path d="M27.0562 54.3809H23.2031V58.2742H27.0562V54.3809Z" fill="#181425"/>
<path d="M30.9097 54.3809H27.0566V58.2742H30.9097V54.3809Z" fill="#181425"/>
<path d="M34.7632 54.3809H30.9102V58.2742H34.7632V54.3809Z" fill="#181425"/>
<path d="M38.6148 54.3809H34.7617V58.2742H38.6148V54.3809Z" fill="#E45C00"/>
<path d="M42.4683 54.3809H38.6152V58.2742H42.4683V54.3809Z" fill="#FF7C06"/>
<path d="M46.3218 54.3809H42.4688V58.2742H46.3218V54.3809Z" fill="#FF7C06"/>
<path d="M50.1754 54.3809H46.3223V58.2742H50.1754V54.3809Z" fill="#FF7C06"/>
<path d="M54.0289 54.3809H50.1758V58.2742H54.0289V54.3809Z" fill="#FF7C06"/>
<path d="M57.8804 54.3809H54.0273V58.2742H57.8804V54.3809Z" fill="#181425"/>
<path d="M61.6714 54.3809H57.8184V58.2742H61.6714V54.3809Z" fill="#181425"/>
<path d="M65.525 54.3809H61.6719V58.2742H65.525V54.3809Z" fill="#181425"/>
<path d="M69.3785 54.3809H65.5254V58.2742H69.3785V54.3809Z" fill="#FF7C06"/>
<path d="M73.232 54.3809H69.3789V58.2742H73.232V54.3809Z" fill="#FF7C06"/>
<path d="M77.0836 54.3809H73.2305V58.2742H77.0836V54.3809Z" fill="#181425"/>
<path d="M80.9371 54.3809H77.084V58.2742H80.9371V54.3809Z" fill="#FF7C06"/>
<path d="M84.7906 54.3809H80.9375V58.2742H84.7906V54.3809Z" fill="#181425"/>
<path d="M88.6441 54.3809H84.791V58.2742H88.6441V54.3809Z" fill="#262B44"/>
<path d="M92.4976 54.3809H88.6445V58.2742H92.4976V54.3809Z" fill="#181425"/>
<path d="M7.85309 58.2744H4V62.1677H7.85309V58.2744Z" fill="#181425"/>
<path d="M11.7066 58.2744H7.85352V62.1677H11.7066V58.2744Z" fill="#262B44"/>
<path d="M15.5601 58.2744H11.707V62.1677H15.5601V58.2744Z" fill="#181425"/>
<path d="M19.4117 58.2744H15.5586V62.1677H19.4117V58.2744Z" fill="#181425"/>
<path d="M23.2652 58.2744H19.4121V62.1677H23.2652V58.2744Z" fill="#181425"/>
<path d="M27.0562 58.2744H23.2031V62.1677H27.0562V58.2744Z" fill="#181425"/>
<path d="M30.9097 58.2744H27.0566V62.1677H30.9097V58.2744Z" fill="white"/>
<path d="M34.7632 58.2744H30.9102V62.1677H34.7632V58.2744Z" fill="white"/>
<path d="M38.6148 58.2744H34.7617V62.1677H38.6148V58.2744Z" fill="#181425"/>
<path d="M42.4683 58.2744H38.6152V62.1677H42.4683V58.2744Z" fill="#E45C00"/>
<path d="M46.3218 58.2744H42.4688V62.1677H46.3218V58.2744Z" fill="#FF7C06"/>
<path d="M50.1754 58.2744H46.3223V62.1677H50.1754V58.2744Z" fill="#FF7C06"/>
<path d="M54.0289 58.2744H50.1758V62.1677H54.0289V58.2744Z" fill="#FF7C06"/>
<path d="M57.8804 58.2744H54.0273V62.1677H57.8804V58.2744Z" fill="#FF7C06"/>
<path d="M61.6714 58.2744H57.8184V62.1677H61.6714V58.2744Z" fill="#FF7C06"/>
<path d="M65.525 58.2744H61.6719V62.1677H65.525V58.2744Z" fill="#FF7C06"/>
<path d="M69.3785 58.2744H65.5254V62.1677H69.3785V58.2744Z" fill="#FF7C06"/>
<path d="M73.232 58.2744H69.3789V62.1677H73.232V58.2744Z" fill="#181425"/>
<path d="M77.0836 58.2744H73.2305V62.1677H77.0836V58.2744Z" fill="white"/>
<path d="M80.9371 58.2744H77.084V62.1677H80.9371V58.2744Z" fill="#181425"/>
<path d="M84.7906 58.2744H80.9375V62.1677H84.7906V58.2744Z" fill="#181425"/>
<path d="M88.6441 58.2744H84.791V62.1677H88.6441V58.2744Z" fill="#262B44"/>
<path d="M92.4976 58.2744H88.6445V62.1677H92.4976V58.2744Z" fill="#181425"/>
<path d="M96.3492 58.2744H92.4961V62.1677H96.3492V58.2744Z" fill="#181425"/>
<path d="M100.14 58.2744H96.2871V62.1677H100.14V58.2744Z" fill="#181425"/>
<path d="M11.7066 62.167H7.85352V66.0603H11.7066V62.167Z" fill="#181425"/>
<path d="M15.5601 62.167H11.707V66.0603H15.5601V62.167Z" fill="#C6C6C6"/>
<path d="M19.4117 62.167H15.5586V66.0603H19.4117V62.167Z" fill="white"/>
<path d="M23.2652 62.167H19.4121V66.0603H23.2652V62.167Z" fill="white"/>
<path d="M27.0562 62.167H23.2031V66.0603H27.0562V62.167Z" fill="#181425"/>
<path d="M30.9097 62.167H27.0566V66.0603H30.9097V62.167Z" fill="#181425"/>
<path d="M34.7632 62.167H30.9102V66.0603H34.7632V62.167Z" fill="#C6C6C6"/>
<path d="M38.6148 62.167H34.7617V66.0603H38.6148V62.167Z" fill="white"/>
<path d="M42.4683 62.167H38.6152V66.0603H42.4683V62.167Z" fill="#181425"/>
<path d="M46.3218 62.167H42.4688V66.0603H46.3218V62.167Z" fill="#E45C00"/>
<path d="M50.1754 62.167H46.3223V66.0603H50.1754V62.167Z" fill="#E45C00"/>
<path d="M54.0289 62.167H50.1758V66.0603H54.0289V62.167Z" fill="#FF7C06"/>
<path d="M57.8804 62.167H54.0273V66.0603H57.8804V62.167Z" fill="#FF7C06"/>
<path d="M61.6714 62.167H57.8184V66.0603H61.6714V62.167Z" fill="#FF7C06"/>
<path d="M65.525 62.167H61.6719V66.0603H65.525V62.167Z" fill="#FF7C06"/>
<path d="M69.3785 62.167H65.5254V66.0603H69.3785V62.167Z" fill="#181425"/>
<path d="M73.232 62.167H69.3789V66.0603H73.232V62.167Z" fill="white"/>
<path d="M77.0836 62.167H73.2305V66.0603H77.0836V62.167Z" fill="white"/>
<path d="M80.9371 62.167H77.084V66.0603H80.9371V62.167Z" fill="#181425"/>
<path d="M88.6441 62.167H84.791V66.0603H88.6441V62.167Z" fill="#181425"/>
<path d="M92.4976 62.167H88.6445V66.0603H92.4976V62.167Z" fill="#C6C6C6"/>
<path d="M96.3492 62.167H92.4961V66.0603H96.3492V62.167Z" fill="white"/>
<path d="M100.14 62.167H96.2871V66.0603H100.14V62.167Z" fill="white"/>
<path d="M103.994 62.167H100.141V66.0603H103.994V62.167Z" fill="#181425"/>
<path d="M11.7066 66.0605H7.85352V69.9539H11.7066V66.0605Z" fill="#181425"/>
<path d="M15.5601 66.0605H11.707V69.9539H15.5601V66.0605Z" fill="#C6C6C6"/>
<path d="M19.4117 66.0605H15.5586V69.9539H19.4117V66.0605Z" fill="white"/>
<path d="M23.2652 66.0605H19.4121V69.9539H23.2652V66.0605Z" fill="white"/>
<path d="M27.0562 66.0605H23.2031V69.9539H27.0562V66.0605Z" fill="#181425"/>
<path d="M30.9097 66.0605H27.0566V69.9539H30.9097V66.0605Z" fill="#C6C6C6"/>
<path d="M34.7632 66.0605H30.9102V69.9539H34.7632V66.0605Z" fill="#181425"/>
<path d="M38.6148 66.0605H34.7617V69.9539H38.6148V66.0605Z" fill="white"/>
<path d="M42.4683 66.0605H38.6152V69.9539H42.4683V66.0605Z" fill="#181425"/>
<path d="M46.3218 66.0605H42.4688V69.9539H46.3218V66.0605Z" fill="#181425"/>
<path d="M50.1754 66.0605H46.3223V69.9539H50.1754V66.0605Z" fill="#181425"/>
<path d="M54.0289 66.0605H50.1758V69.9539H54.0289V66.0605Z" fill="#181425"/>
<path d="M57.8804 66.0605H54.0273V69.9539H57.8804V66.0605Z" fill="#181425"/>
<path d="M61.6714 66.0605H57.8184V69.9539H61.6714V66.0605Z" fill="#181425"/>
<path d="M65.525 66.0605H61.6719V69.9539H65.525V66.0605Z" fill="#181425"/>
<path d="M69.3785 66.0605H65.5254V69.9539H69.3785V66.0605Z" fill="white"/>
<path d="M73.232 66.0605H69.3789V69.9539H73.232V66.0605Z" fill="white"/>
<path d="M77.0836 66.0605H73.2305V69.9539H77.0836V66.0605Z" fill="#181425"/>
<path d="M88.6441 66.0605H84.791V69.9539H88.6441V66.0605Z" fill="#181425"/>
<path d="M92.4976 66.0605H88.6445V69.9539H92.4976V66.0605Z" fill="#C6C6C6"/>
<path d="M96.3492 66.0605H92.4961V69.9539H96.3492V66.0605Z" fill="white"/>
<path d="M100.14 66.0605H96.2871V69.9539H100.14V66.0605Z" fill="white"/>
<path d="M103.994 66.0605H100.141V69.9539H103.994V66.0605Z" fill="#181425"/>
<path d="M11.7066 69.9541H7.85352V73.8474H11.7066V69.9541Z" fill="#181425"/>
<path d="M15.5601 69.9541H11.707V73.8474H15.5601V69.9541Z" fill="#C6C6C6"/>
<path d="M19.4117 69.9541H15.5586V73.8474H19.4117V69.9541Z" fill="white"/>
<path d="M23.2652 69.9541H19.4121V73.8474H23.2652V69.9541Z" fill="white"/>
<path d="M27.0562 69.9541H23.2031V73.8474H27.0562V69.9541Z" fill="#181425"/>
<path d="M30.9097 69.9541H27.0566V73.8474H30.9097V69.9541Z" fill="#181425"/>
<path d="M34.7632 69.9541H30.9102V73.8474H34.7632V69.9541Z" fill="#181425"/>
<path d="M38.6148 69.9541H34.7617V73.8474H38.6148V69.9541Z" fill="#181425"/>
<path d="M42.4683 69.9541H38.6152V73.8474H42.4683V69.9541Z" fill="#181425"/>
<path d="M46.3218 69.9541H42.4688V73.8474H46.3218V69.9541Z" fill="#E45C00"/>
<path d="M50.1754 69.9541H46.3223V73.8474H50.1754V69.9541Z" fill="#E45C00"/>
<path d="M54.0289 69.9541H50.1758V73.8474H54.0289V69.9541Z" fill="#E45C00"/>
<path d="M57.8804 69.9541H54.0273V73.8474H57.8804V69.9541Z" fill="#FF7C06"/>
<path d="M61.6714 69.9541H57.8184V73.8474H61.6714V69.9541Z" fill="#FF7C06"/>
<path d="M65.525 69.9541H61.6719V73.8474H65.525V69.9541Z" fill="#181425"/>
<path d="M69.3785 69.9541H65.5254V73.8474H69.3785V69.9541Z" fill="#181425"/>
<path d="M73.232 69.9541H69.3789V73.8474H73.232V69.9541Z" fill="#181425"/>
<path d="M88.6441 69.9541H84.791V73.8474H88.6441V69.9541Z" fill="#181425"/>
<path d="M92.4976 69.9541H88.6445V73.8474H92.4976V69.9541Z" fill="#C6C6C6"/>
<path d="M96.3492 69.9541H92.4961V73.8474H96.3492V69.9541Z" fill="white"/>
<path d="M100.14 69.9541H96.2871V73.8474H100.14V69.9541Z" fill="white"/>
<path d="M103.994 69.9541H100.141V73.8474H103.994V69.9541Z" fill="#181425"/>
<path d="M15.5601 73.8477H11.707V77.741H15.5601V73.8477Z" fill="#181425"/>
<path d="M19.4117 73.8477H15.5586V77.741H19.4117V73.8477Z" fill="#181425"/>
<path d="M23.2652 73.8477H19.4121V77.741H23.2652V73.8477Z" fill="#181425"/>
<path d="M30.9097 73.8477H27.0566V77.741H30.9097V73.8477Z" fill="#181425"/>
<path d="M34.7632 73.8477H30.9102V77.741H34.7632V73.8477Z" fill="#262B44"/>
<path d="M38.6148 73.8477H34.7617V77.741H38.6148V73.8477Z" fill="#181425"/>
<path d="M42.4683 73.8477H38.6152V77.741H42.4683V73.8477Z" fill="#181425"/>
<path d="M46.3218 73.8477H42.4688V77.741H46.3218V73.8477Z" fill="#181425"/>
<path d="M50.1754 73.8477H46.3223V77.741H50.1754V73.8477Z" fill="#181425"/>
<path d="M54.0289 73.8477H50.1758V77.741H54.0289V73.8477Z" fill="#181425"/>
<path d="M57.8804 73.8477H54.0273V77.741H57.8804V73.8477Z" fill="#181425"/>
<path d="M61.6714 73.8477H57.8184V77.741H61.6714V73.8477Z" fill="#181425"/>
<path d="M65.525 73.8477H61.6719V77.741H65.525V73.8477Z" fill="#181425"/>
<path d="M69.3785 73.8477H65.5254V77.741H69.3785V73.8477Z" fill="#262B44"/>
<path d="M73.232 73.8477H69.3789V77.741H73.232V73.8477Z" fill="#181425"/>
<path d="M92.4976 73.8477H88.6445V77.741H92.4976V73.8477Z" fill="#181425"/>
<path d="M96.3492 73.8477H92.4961V77.741H96.3492V73.8477Z" fill="#181425"/>
<path d="M100.14 73.8477H96.2871V77.741H100.14V73.8477Z" fill="#181425"/>
<path d="M30.9097 77.7402H27.0566V81.6335H30.9097V77.7402Z" fill="#181425"/>
<path d="M34.7632 77.7402H30.9102V81.6335H34.7632V77.7402Z" fill="#262B44"/>
<path d="M38.6148 77.7402H34.7617V81.6335H38.6148V77.7402Z" fill="#181425"/>
<path d="M65.525 77.7402H61.6719V81.6335H65.525V77.7402Z" fill="#181425"/>
<path d="M69.3785 77.7402H65.5254V81.6335H69.3785V77.7402Z" fill="#262B44"/>
<path d="M73.232 77.7402H69.3789V81.6335H73.232V77.7402Z" fill="#262B44"/>
<path d="M77.0836 77.7402H73.2305V81.6335H77.0836V77.7402Z" fill="#181425"/>
<path d="M27.0562 81.6338H23.2031V85.5271H27.0562V81.6338Z" fill="#181425"/>
<path d="M30.9097 81.6338H27.0566V85.5271H30.9097V81.6338Z" fill="#181425"/>
<path d="M34.7632 81.6338H30.9102V85.5271H34.7632V81.6338Z" fill="#181425"/>
<path d="M38.6148 81.6338H34.7617V85.5271H38.6148V81.6338Z" fill="#181425"/>
<path d="M69.3785 81.6338H65.5254V85.5271H69.3785V81.6338Z" fill="#181425"/>
<path d="M73.232 81.6338H69.3789V85.5271H73.232V81.6338Z" fill="#181425"/>
<path d="M77.0836 81.6338H73.2305V85.5271H77.0836V81.6338Z" fill="#181425"/>
<path d="M80.9371 81.6338H77.084V85.5271H80.9371V81.6338Z" fill="#181425"/>
<path d="M23.2652 85.5273H19.4121V89.4207H23.2652V85.5273Z" fill="#181425"/>
<path d="M27.0562 85.5273H23.2031V89.4207H27.0562V85.5273Z" fill="#FF7C06"/>
<path d="M30.9097 85.5273H27.0566V89.4207H30.9097V85.5273Z" fill="white"/>
<path d="M34.7632 85.5273H30.9102V89.4207H34.7632V85.5273Z" fill="white"/>
<path d="M38.6148 85.5273H34.7617V89.4207H38.6148V85.5273Z" fill="#FF7C06"/>
<path d="M42.4683 85.5273H38.6152V89.4207H42.4683V85.5273Z" fill="#181425"/>
<path d="M65.525 85.5273H61.6719V89.4207H65.525V85.5273Z" fill="#181425"/>
<path d="M69.3785 85.5273H65.5254V89.4207H69.3785V85.5273Z" fill="#FF7C06"/>
<path d="M73.232 85.5273H69.3789V89.4207H73.232V85.5273Z" fill="#FF7C06"/>
<path d="M77.0836 85.5273H73.2305V89.4207H77.0836V85.5273Z" fill="white"/>
<path d="M80.9371 85.5273H77.084V89.4207H80.9371V85.5273Z" fill="white"/>
<path d="M84.7906 85.5273H80.9375V89.4207H84.7906V85.5273Z" fill="#181425"/>
<path d="M23.2652 89.4209H19.4121V93.3142H23.2652V89.4209Z" fill="#181425"/>
<path d="M27.0562 89.4209H23.2031V93.3142H27.0562V89.4209Z" fill="#E45C00"/>
<path d="M30.9097 89.4209H27.0566V93.3142H30.9097V89.4209Z" fill="#E45C00"/>
<path d="M34.7632 89.4209H30.9102V93.3142H34.7632V89.4209Z" fill="#E45C00"/>
<path d="M38.6148 89.4209H34.7617V93.3142H38.6148V89.4209Z" fill="#E45C00"/>
<path d="M42.4683 89.4209H38.6152V93.3142H42.4683V89.4209Z" fill="#181425"/>
<path d="M65.525 89.4209H61.6719V93.3142H65.525V89.4209Z" fill="#181425"/>
<path d="M69.3785 89.4209H65.5254V93.3142H69.3785V89.4209Z" fill="#E45C00"/>
<path d="M73.232 89.4209H69.3789V93.3142H73.232V89.4209Z" fill="#E45C00"/>
<path d="M77.0836 89.4209H73.2305V93.3142H77.0836V89.4209Z" fill="#E45C00"/>
<path d="M80.9371 89.4209H77.084V93.3142H80.9371V89.4209Z" fill="#E45C00"/>
<path d="M84.7906 89.4209H80.9375V93.3142H84.7906V89.4209Z" fill="#E45C00"/>
<path d="M88.6441 89.4209H84.791V93.3142H88.6441V89.4209Z" fill="#181425"/>
<path d="M23.2652 93.251H19.4121V97.1443H23.2652V93.251Z" fill="#181425"/>
<path d="M27.0562 93.251H23.2031V97.1443H27.0562V93.251Z" fill="#181425"/>
<path d="M30.9097 93.251H27.0566V97.1443H30.9097V93.251Z" fill="#181425"/>
<path d="M34.7632 93.251H30.9102V97.1443H34.7632V93.251Z" fill="#181425"/>
<path d="M38.6148 93.251H34.7617V97.1443H38.6148V93.251Z" fill="#181425"/>
<path d="M42.4683 93.251H38.6152V97.1443H42.4683V93.251Z" fill="#181425"/>
<path d="M65.525 93.251H61.6719V97.1443H65.525V93.251Z" fill="#181425"/>
<path d="M69.3785 93.251H65.5254V97.1443H69.3785V93.251Z" fill="#181425"/>
<path d="M73.232 93.251H69.3789V97.1443H73.232V93.251Z" fill="#181425"/>
<path d="M77.0836 93.251H73.2305V97.1443H77.0836V93.251Z" fill="#181425"/>
<path d="M80.9371 93.251H77.084V97.1443H80.9371V93.251Z" fill="#181425"/>
<path d="M84.7906 93.251H80.9375V97.1443H84.7906V93.251Z" fill="#181425"/>
<path d="M88.6441 93.251H84.791V97.1443H88.6441V93.251Z" fill="#181425"/>
</g>
<path fill-rule="evenodd" clip-rule="evenodd" d="M30.9154 0H34.7687H38.6214H42.4746H46.3279H50.1806H54.0338H57.825H57.8871H61.6777H65.531V3.89335H69.3842H73.2369V7.7867H77.0902V11.6798H80.9434V15.5732H84.7966V19.4037V19.4665V23.297H88.6494V27.1904V31.0837H92.5026V34.9771V38.8702V42.7635V46.6569H88.6494V50.5502V54.3808H92.5026V58.2741H96.2938H96.3558H100.147V62.1672H104V66.0606V69.9539V73.8473H100.147V77.7406H96.3558H96.2938H92.5026H88.6494V73.8473H84.7966V69.9539V66.0606V62.1672H80.9434V66.0606H77.0902V69.9539H73.2369V73.8473V77.7406H77.0902V81.634H80.9434V85.5271H84.7966V89.4204H88.6494V93.251V93.3138V97.1443H84.7966H80.9434H77.0902H73.2369H69.3842H65.531H61.6777V93.3138V93.251V89.4204V85.5271H65.531V81.634H61.6777V77.7406H57.8871H57.825H54.0338H50.1806H46.3279H42.4746H38.6214V81.634V85.5271H42.4746V89.4204V93.251V93.3138V97.1443H38.6214H34.7687H30.9154H27.0622H23.2715H23.209H19.4183V93.3138V93.251V89.4204V85.5271H23.209V81.634H27.0622V77.7406V73.8473H23.2715V77.7406H19.4183H15.5651H11.7118V73.8473H7.85909V69.9539V66.0606V62.1672H4.00586V58.2741V54.3808H7.85909V50.5502V46.6569H4.00586V42.7635V38.8702V34.9771V31.0837H7.85909V27.1904V23.297H11.7118V19.4665V19.4037V15.5732H15.5651V11.6798H19.4183V7.7867H23.209V3.89335H27.0622H30.9154V0Z" fill="#595959" fill-opacity="0.5"/>
<defs>
<filter id="filter0_d_178_3073" x="0" y="0" width="107.994" height="105.145" filterUnits="userSpaceOnUse" color-interpolation-filters="sRGB">
<feFlood flood-opacity="0" result="BackgroundImageFix"/>
<feColorMatrix in="SourceAlpha" type="matrix" values="0 0 0 0 0 0 0 0 0 0 0 0 0 0 0 0 0 0 127 0" result="hardAlpha"/>
<feOffset dy="4"/>
<feGaussianBlur stdDeviation="2"/>
<feComposite in2="hardAlpha" operator="out"/>
<feColorMatrix type="matrix" values="0 0 0 0 0 0 0 0 0 0 0 0 0 0 0 0 0 0 0.25 0"/>
<feBlend mode="normal" in2="BackgroundImageFix" result="effect1_dropShadow_178_3073"/>
<feBlend mode="normal" in="SourceGraphic" in2="effect1_dropShadow_178_3073" result="shape"/>
</filter>
<clipPath id="clip0_178_3073">
<rect width="99.9939" height="97.1443" fill="white" transform="translate(4)"/>
</clipPath>
</defs>
</svg>
