<svg width="32" height="21" viewBox="0 0 32 21" fill="none" xmlns="http://www.w3.org/2000/svg">
<g opacity="0.3">
<mask id="path-1-inside-1_615_14565" fill="white">
<path fill-rule="evenodd" clip-rule="evenodd" d="M28 1H1V3H0V8H1V9H17V13H19V15H20V17H21V20H23V21H28V20V17V14H27V11H26V9H28V8H29V6H32V2H29V3H28V1Z"/>
</mask>
<path fill-rule="evenodd" clip-rule="evenodd" d="M28 1H1V3H0V8H1V9H17V13H19V15H20V17H21V20H23V21H28V20V17V14H27V11H26V9H28V8H29V6H32V2H29V3H28V1Z" fill="#D9D9D9"/>
<path d="M1 1V0H0V1H1ZM28 1H29V0H28V1ZM1 3V4H2V3H1ZM0 3V2H-1V3H0ZM0 8H-1V9H0V8ZM1 8H2V7H1V8ZM1 9H0V10H1V9ZM17 9H18V8H17V9ZM17 13H16V14H17V13ZM19 13H20V12H19V13ZM19 15H18V16H19V15ZM20 15H21V14H20V15ZM20 17H19V18H20V17ZM21 17H22V16H21V17ZM21 20H20V21H21V20ZM23 20H24V19H23V20ZM23 21H22V22H23V21ZM28 21V22H29V21H28ZM28 14H29V13H28V14ZM27 14H26V15H27V14ZM27 11H28V10H27V11ZM26 11H25V12H26V11ZM26 9V8H25V9H26ZM28 9V10H29V9H28ZM28 8V7H27V8H28ZM29 8V9H30V8H29ZM29 6V5H28V6H29ZM32 6V7H33V6H32ZM32 2H33V1H32V2ZM29 2V1H28V2H29ZM29 3V4H30V3H29ZM28 3H27V4H28V3ZM1 2H28V0H1V2ZM2 3V1H0V3H2ZM0 4H1V2H0V4ZM1 8V3H-1V8H1ZM1 7H0V9H1V7ZM2 9V8H0V9H2ZM17 8H1V10H17V8ZM18 13V9H16V13H18ZM19 12H17V14H19V12ZM20 15V13H18V15H20ZM20 14H19V16H20V14ZM21 17V15H19V17H21ZM21 16H20V18H21V16ZM22 20V17H20V20H22ZM23 19H21V21H23V19ZM24 21V20H22V21H24ZM28 20H23V22H28V20ZM27 20V21H29V20H27ZM27 17V20H29V17H27ZM27 14V17H29V14H27ZM27 15H28V13H27V15ZM26 11V14H28V11H26ZM26 12H27V10H26V12ZM25 9V11H27V9H25ZM28 8H26V10H28V8ZM27 8V9H29V8H27ZM29 7H28V9H29V7ZM28 6V8H30V6H28ZM32 5H29V7H32V5ZM31 2V6H33V2H31ZM29 3H32V1H29V3ZM30 3V2H28V3H30ZM28 4H29V2H28V4ZM27 1V3H29V1H27Z" fill="black" mask="url(#path-1-inside-1_615_14565)"/>
<rect width="25" height="2" transform="matrix(1 0 0 -1 2 4)" fill="#848484"/>
<rect x="1" y="4" width="27" height="3" fill="#B3B3B3"/>
<rect x="17" y="2" width="3" height="2" fill="white"/>
<rect x="21" y="2" width="2" height="2" fill="white"/>
<rect x="24" y="2" width="1" height="2" fill="white"/>
<rect x="9" y="5" width="17" height="2" fill="#848484"/>
<rect x="21" y="8" width="3" height="5" fill="#B3B3B3"/>
<rect x="22" y="13" width="3" height="2" fill="#B3B3B3"/>
<rect x="23" y="15" width="2" height="2" fill="#B3B3B3"/>
<rect x="24" y="19" width="3" height="1" fill="#848484"/>
<rect x="19" y="8" width="1" height="3" fill="#252525"/>
<rect x="2" width="2" height="1" fill="#252525"/>
<rect x="26" width="1" height="1" fill="#252525"/>
<rect x="1" y="4" width="1" height="3" fill="#848484"/>
</g>
</svg>
