<svg width="107" height="29" viewBox="0 0 107 29" fill="none" xmlns="http://www.w3.org/2000/svg">
<rect x="1.28906" y="5.15527" width="1.28889" height="1.28889" fill="#393939"/>
<rect x="105.043" y="25.1338" width="1.28889" height="2.57778" transform="rotate(-180 105.043 25.1338)" fill="#393939"/>
<rect x="2.57812" y="22.5557" width="2.57778" height="1.28889" transform="rotate(90 2.57812 22.5557)" fill="#393939"/>
<rect x="6.44531" y="21.2666" width="1.28889" height="1.28889" transform="rotate(90 6.44531 21.2666)" fill="#FFBD82"/>
<rect x="99.8906" y="22.5557" width="1.28889" height="93.4444" transform="rotate(90 99.8906 22.5557)" fill="#FFBD82"/>
<rect x="103.754" y="6.44434" width="2.57778" height="1.28889" transform="rotate(-90 103.754 6.44434)" fill="#393939"/>
<rect x="1.28906" y="3.86621" width="1.28889" height="1.28889" fill="#393939"/>
<rect x="103.754" y="26.4219" width="1.28889" height="1.28889" transform="rotate(-180 103.754 26.4219)" fill="#393939"/>
<rect x="3.86719" y="25.1338" width="1.28889" height="1.28889" transform="rotate(90 3.86719 25.1338)" fill="#393939"/>
<rect x="2.57812" y="2.57812" width="1.28889" height="1.28889" fill="#393939"/>
<rect x="5.15625" y="26.4219" width="1.28889" height="1.28889" transform="rotate(90 5.15625 26.4219)" fill="#393939"/>
<rect x="102.465" y="3.86621" width="1.28889" height="1.28889" transform="rotate(-90 102.465 3.86621)" fill="#393939"/>
<rect x="3.86719" y="1.28906" width="2.57778" height="1.28889" fill="#393939"/>
<rect x="102.465" y="27.7109" width="2.57778" height="1.28889" transform="rotate(-180 102.465 27.7109)" fill="#393939"/>
<path fill-rule="evenodd" clip-rule="evenodd" d="M2.57795 22.5551H1.28906V18.6885H2.57795L2.57795 22.5551ZM2.5783 23.8442H2.57812L2.57813 19.9775L3.86701 19.9775V21.2666L5.15608 21.2666V22.5557L6.44514 22.5557L6.44514 26.4223H3.86736V25.1333H2.5783L2.5783 23.8442ZM6.44601 27.7114L99.8904 27.7114V23.8447L6.44601 23.8447L6.44601 27.7114ZM102.469 25.1333V26.4223H99.8908L99.8908 22.5557L101.18 22.5557V21.2666H102.465V19.9777L103.754 19.9777V25.1333H102.469ZM103.754 22.5551H105.043V18.6885H103.754V22.5551Z" fill="#EE7000"/>
<rect x="6.44531" y="26.4219" width="1.28889" height="1.28889" transform="rotate(90 6.44531 26.4219)" fill="#393939"/>
<rect x="99.8906" y="2.57812" width="1.28889" height="2.57778" transform="rotate(-90 99.8906 2.57812)" fill="#393939"/>
<rect x="6.44531" width="93.4444" height="1.28889" fill="#393939"/>
<rect x="6.44531" y="27.7109" width="93.4444" height="1.28889" fill="#393939"/>
<rect y="6.44434" width="1.28889" height="16.1111" fill="#393939"/>
<rect x="106.332" y="22.5557" width="1.28889" height="16.1111" transform="rotate(-180 106.332 22.5557)" fill="#393939"/>
<path fill-rule="evenodd" clip-rule="evenodd" d="M99.8923 2.57795L6.44785 2.57794V1.28906L99.8923 1.28907V2.57795ZM5.15913 3.86701L101.181 3.86701V2.57813L5.15913 2.57812V3.86701ZM3.87041 3.86719L3.87041 5.15527H2.57778L2.57778 6.44415L102.396 6.44416L1.28906 6.44416V17.3997L105.045 17.3997V6.44416H103.756V5.15528H102.47V3.86719L3.87041 3.86719ZM2.57778 17.4002L2.57778 18.6891L103.756 18.6891V17.4002L2.57778 17.4002ZM2.57778 19.9782L2.57778 18.6893L103.756 18.6893V19.9782L2.57778 19.9782ZM3.87041 19.9784L3.87041 21.2672H6.44785V22.5553L99.8923 22.5553V21.2672H102.47V19.9783L3.87041 19.9784Z" fill="#FF9332"/>
<rect x="99.8906" y="1.28906" width="1.28889" height="93.4444" transform="rotate(90 99.8906 1.28906)" fill="#FFBD82"/>
<rect x="3.86719" y="3.86621" width="1.28889" height="1.28889" transform="rotate(90 3.86719 3.86621)" fill="#FFBD82"/>
<rect x="2.57812" y="6.44434" width="2.57778" height="1.28889" transform="rotate(90 2.57812 6.44434)" fill="#FFBD82"/>
<rect x="5.15625" y="2.57812" width="1.28889" height="1.28889" transform="rotate(90 5.15625 2.57812)" fill="#FFBD82"/>
<rect x="6.44531" y="2.57812" width="1.28889" height="1.28889" transform="rotate(90 6.44531 2.57812)" fill="#FFBD82"/>
<rect x="102.465" y="2.57812" width="1.28889" height="2.57778" transform="rotate(90 102.465 2.57812)" fill="#FFBD82"/>
<rect x="103.754" y="3.86621" width="1.28889" height="1.28889" transform="rotate(90 103.754 3.86621)" fill="#FFBD82"/>
<rect x="105.043" y="6.44434" width="2.57778" height="1.28889" transform="rotate(90 105.043 6.44434)" fill="#FFBD82"/>
<rect width="3.86667" height="2.57778" transform="matrix(-1.31134e-07 -1 -1 1.31134e-07 23.8438 27.7109)" fill="#FFDDBE"/>
<rect width="3.86667" height="2.57778" transform="matrix(-1.31134e-07 -1 -1 1.31134e-07 87 27.7109)" fill="#FFDDBE"/>
<rect width="3.86667" height="1.93333" transform="matrix(-1.31134e-07 -1 -1 1.31134e-07 20.6211 27.7109)" fill="#FFDDBE"/>
<rect width="3.86667" height="1.93333" transform="matrix(-1.31134e-07 -1 -1 1.31134e-07 83.7773 27.7109)" fill="#FFDDBE"/>
<rect width="3.86667" height="1.28889" transform="matrix(-1.31134e-07 -1 -1 1.31134e-07 18.043 27.7109)" fill="#FFDDBE"/>
<rect width="3.86667" height="1.28889" transform="matrix(-1.31134e-07 -1 -1 1.31134e-07 81.1992 27.7109)" fill="#FFDDBE"/>
<rect width="3.86667" height="0.644444" transform="matrix(-1.31134e-07 -1 -1 1.31134e-07 16.1094 27.7109)" fill="#FFDDBE"/>
<rect width="3.86667" height="0.644444" transform="matrix(-1.31134e-07 -1 -1 1.31134e-07 79.2656 27.7109)" fill="#FFDDBE"/>
<rect x="2.57812" y="17.4004" width="2.57778" height="1.28889" transform="rotate(90 2.57812 17.4004)" fill="#FFBD82"/>
<rect x="5.15625" y="21.2666" width="1.28889" height="1.28889" transform="rotate(90 5.15625 21.2666)" fill="#FFBD82"/>
<rect x="3.86719" y="19.9775" width="1.28889" height="1.28889" transform="rotate(90 3.86719 19.9775)" fill="#FFBD82"/>
<rect x="102.465" y="22.5557" width="2.57778" height="1.28889" transform="rotate(-180 102.465 22.5557)" fill="#FFBD82"/>
<rect x="103.754" y="21.2666" width="1.28889" height="1.28889" transform="rotate(-180 103.754 21.2666)" fill="#FFBD82"/>
<rect x="105.043" y="18.6885" width="1.28889" height="2.57778" transform="rotate(-180 105.043 18.6885)" fill="#FFBD82"/>
<path d="M8.008 9.92V8.912V7.904H9.016H10.024H13.048H17.08V8.912H18.088V9.92H19.096V11.936V12.944H18.088V13.952V14.96H19.096V17.984H18.088V18.992H17.08V20H13.048H10.024H9.016H8.008V18.992V17.984V16.976V14.96V13.952V12.944V11.936V10.928V9.92ZM11.032 17.984H13.048H14.056H15.064H16.072V16.976H17.08V15.968H16.072V14.96H10.024V17.984H11.032ZM13.048 9.92H11.032H10.024V12.944H16.072V11.936H17.08V10.928H16.072V9.92H15.064H14.056H13.048ZM23.1334 7.904V11.936V12.944V14.96V15.968V16.976H24.1414V17.984H25.1494H26.1574H27.1654H28.1734H29.1814V16.976H30.1894V15.968V7.904H32.2054V15.968V17.984H31.1974V18.992H30.1894V20H27.1654H26.1574H23.1334V18.992H22.1254V17.984H21.1174V15.968V14.96V13.952V12.944V7.904H23.1334ZM44.3068 8.912V9.92V10.928V11.936H43.2988V12.944H42.2908V13.952H41.2828V14.96H40.2748V15.968V20H38.2588V15.968V14.96H37.2508V13.952H36.2428V12.944H35.2348V11.936H34.2268V10.928V9.92V8.912V7.904H35.2348H36.2428V8.912V9.92V10.928H37.2508V11.936H38.2588V12.944H39.2668H40.2748V11.936H41.2828V10.928H42.2908V9.92V8.912V7.904H43.2988H44.3068V8.912ZM69.5175 11.936V8.912V7.904H71.5335V8.912V9.92V17.984V20H69.5175V17.984H68.5095V16.976H67.5015V15.968H66.4935V14.96H65.4855V13.952H64.4775V12.944H63.4695V11.936H62.4615V14.96V20H61.4535H60.4455V18.992V17.984V16.976V14.96V13.952V12.944V11.936V10.928V9.92V8.912V7.904H61.4535H62.4615V8.912H63.4695V9.92H64.4775V10.928H65.4855V11.936H66.4935V12.944H67.5015V13.952H68.5095V14.96H69.5175V11.936ZM78.5949 9.92H77.5869H76.5789V10.928H75.5709V11.936V12.944V14.96V15.968V16.976H76.5789V17.984H77.5869H78.5949H79.6029H80.6109H81.6189V16.976H82.6269V15.968V14.96V11.936V10.928H81.6189V9.92H80.6109H79.6029H78.5949ZM84.6429 14.96V17.984H83.6349V18.992H82.6269V20H79.6029H78.5949H75.5709V18.992H74.5629V17.984H73.5549V15.968V14.96V13.952V12.944V9.92H74.5629V8.912H75.5709V7.904H77.5869H78.5949H79.6029H82.6269V8.912H83.6349V9.92H84.6429V11.936V14.96ZM95.7363 12.944V7.904H96.7443H97.7523V8.912V9.92V10.928V12.944V13.952V14.96V15.968V16.976V17.984V18.992V20H96.7443H95.7363V18.992H94.7283V17.984H93.7203V16.976H92.7123V15.968H91.7043V16.976H90.6963V17.984H89.6883V18.992H88.6803V20H86.6643V18.992V17.984V9.92V7.904H88.6803V12.944V15.968H89.6883V14.96H90.6963V13.952H91.7043V12.944H92.7123V13.952H93.7203V14.96H94.7283V15.968H95.7363V12.944Z" fill="#393939"/>
<path d="M8.008 7.92V6.912V5.904H9.016H10.024H13.048H17.08V6.912H18.088V7.92H19.096V9.936V10.944H18.088V11.952V12.96H19.096V15.984H18.088V16.992H17.08V18H13.048H10.024H9.016H8.008V16.992V15.984V14.976V12.96V11.952V10.944V9.936V8.928V7.92ZM11.032 15.984H13.048H14.056H15.064H16.072V14.976H17.08V13.968H16.072V12.96H10.024V15.984H11.032ZM13.048 7.92H11.032H10.024V10.944H16.072V9.936H17.08V8.928H16.072V7.92H15.064H14.056H13.048ZM23.1334 5.904V9.936V10.944V12.96V13.968V14.976H24.1414V15.984H25.1494H26.1574H27.1654H28.1734H29.1814V14.976H30.1894V13.968V5.904H32.2054V13.968V15.984H31.1974V16.992H30.1894V18H27.1654H26.1574H23.1334V16.992H22.1254V15.984H21.1174V13.968V12.96V11.952V10.944V5.904H23.1334ZM44.3068 6.912V7.92V8.928V9.936H43.2988V10.944H42.2908V11.952H41.2828V12.96H40.2748V13.968V18H38.2588V13.968V12.96H37.2508V11.952H36.2428V10.944H35.2348V9.936H34.2268V8.928V7.92V6.912V5.904H35.2348H36.2428V6.912V7.92V8.928H37.2508V9.936H38.2588V10.944H39.2668H40.2748V9.936H41.2828V8.928H42.2908V7.92V6.912V5.904H43.2988H44.3068V6.912ZM69.5175 9.936V6.912V5.904H71.5335V6.912V7.92V15.984V18H69.5175V15.984H68.5095V14.976H67.5015V13.968H66.4935V12.96H65.4855V11.952H64.4775V10.944H63.4695V9.936H62.4615V12.96V18H61.4535H60.4455V16.992V15.984V14.976V12.96V11.952V10.944V9.936V8.928V7.92V6.912V5.904H61.4535H62.4615V6.912H63.4695V7.92H64.4775V8.928H65.4855V9.936H66.4935V10.944H67.5015V11.952H68.5095V12.96H69.5175V9.936ZM78.5949 7.92H77.5869H76.5789V8.928H75.5709V9.936V10.944V12.96V13.968V14.976H76.5789V15.984H77.5869H78.5949H79.6029H80.6109H81.6189V14.976H82.6269V13.968V12.96V9.936V8.928H81.6189V7.92H80.6109H79.6029H78.5949ZM84.6429 12.96V15.984H83.6349V16.992H82.6269V18H79.6029H78.5949H75.5709V16.992H74.5629V15.984H73.5549V13.968V12.96V11.952V10.944V7.92H74.5629V6.912H75.5709V5.904H77.5869H78.5949H79.6029H82.6269V6.912H83.6349V7.92H84.6429V9.936V12.96ZM95.7363 10.944V5.904H96.7443H97.7523V6.912V7.92V8.928V10.944V11.952V12.96V13.968V14.976V15.984V16.992V18H96.7443H95.7363V16.992H94.7283V15.984H93.7203V14.976H92.7123V13.968H91.7043V14.976H90.6963V15.984H89.6883V16.992H88.6803V18H86.6643V16.992V15.984V7.92V5.904H88.6803V10.944V13.968H89.6883V12.96H90.6963V11.952H91.7043V10.944H92.7123V11.952H93.7203V12.96H94.7283V13.968H95.7363V10.944Z" fill="white"/>
</svg>
