<svg width="25" height="25" viewBox="0 0 25 25" fill="none" xmlns="http://www.w3.org/2000/svg">
<g clip-path="url(#clip0_3367_447)">
<path d="M17.3101 0H18.2734V0.968541H17.3101V0Z" fill="#181425"/>
<path d="M16.3453 0H17.3086V0.968541H16.3453V0Z" fill="#181425"/>
<path d="M15.3804 0H16.3438V0.968541H15.3804V0Z" fill="#181425"/>
<path d="M14.4195 0H15.3828V0.968541H14.4195V0Z" fill="#181425"/>
<path d="M13.4546 0H14.418V0.968541H13.4546V0Z" fill="#181425"/>
<path d="M12.4937 0H13.457V0.968541H12.4937V0Z" fill="#181425"/>
<path d="M11.5289 0H12.4922V0.968541H11.5289V0Z" fill="#181425"/>
<path d="M10.5796 0H11.543V0.968541H10.5796V0Z" fill="#181425"/>
<path d="M9.6187 0H10.582V0.968541H9.6187V0Z" fill="#181425"/>
<path d="M19.2359 0.96875H20.1992V1.93729H19.2359V0.96875Z" fill="#181425"/>
<path d="M18.271 0.96875H19.2344V1.93729H18.271V0.96875Z" fill="#181425"/>
<path d="M17.3101 0.96875H18.2734V1.93729H17.3101V0.96875Z" fill="#E45C00"/>
<path d="M16.3453 0.96875H17.3086V1.93729H16.3453V0.96875Z" fill="#181425"/>
<path d="M15.3804 0.96875H16.3438V1.93729H15.3804V0.96875Z" fill="#181425"/>
<path d="M14.4195 0.96875H15.3828V1.93729H14.4195V0.96875Z" fill="#E45C00"/>
<path d="M13.4546 0.96875H14.418V1.93729H13.4546V0.96875Z" fill="#E45C00"/>
<path d="M12.4937 0.96875H13.457V1.93729H12.4937V0.96875Z" fill="#E45C00"/>
<path d="M11.5289 0.96875H12.4922V1.93729H11.5289V0.96875Z" fill="#FF7C06"/>
<path d="M10.5796 0.96875H11.543V1.93729H10.5796V0.96875Z" fill="#FF7C06"/>
<path d="M9.6187 0.96875H10.582V1.93729H9.6187V0.96875Z" fill="#181425"/>
<path d="M8.65385 0.96875H9.61719V1.93729H8.65385V0.96875Z" fill="#181425"/>
<path d="M7.69292 0.96875H8.65625V1.93729H7.69292V0.96875Z" fill="#181425"/>
<path d="M20.1851 1.9375H21.1484V2.90604H20.1851V1.9375Z" fill="#181425"/>
<path d="M19.2359 1.9375H20.1992V2.90604H19.2359V1.9375Z" fill="white"/>
<path d="M18.271 1.9375H19.2344V2.90604H18.271V1.9375Z" fill="white"/>
<path d="M17.3101 1.9375H18.2734V2.90604H17.3101V1.9375Z" fill="#181425"/>
<path d="M16.3453 1.9375H17.3086V2.90604H16.3453V1.9375Z" fill="white"/>
<path d="M15.3804 1.9375H16.3438V2.90604H15.3804V1.9375Z" fill="#181425"/>
<path d="M14.4195 1.9375H15.3828V2.90604H14.4195V1.9375Z" fill="#181425"/>
<path d="M13.4546 1.9375H14.418V2.90604H13.4546V1.9375Z" fill="#181425"/>
<path d="M12.4937 1.9375H13.457V2.90604H12.4937V1.9375Z" fill="#181425"/>
<path d="M11.5289 1.9375H12.4922V2.90604H11.5289V1.9375Z" fill="#181425"/>
<path d="M10.5796 1.9375H11.543V2.90604H10.5796V1.9375Z" fill="#181425"/>
<path d="M9.6187 1.9375H10.582V2.90604H9.6187V1.9375Z" fill="#181425"/>
<path d="M8.65385 1.9375H9.61719V2.90604H8.65385V1.9375Z" fill="white"/>
<path d="M7.69292 1.9375H8.65625V2.90604H7.69292V1.9375Z" fill="white"/>
<path d="M6.72808 1.9375H7.69141V2.90604H6.72808V1.9375Z" fill="#181425"/>
<path d="M21.146 2.90527H22.1094V3.87381H21.146V2.90527Z" fill="#181425"/>
<path d="M20.1851 2.90527H21.1484V3.87381H20.1851V2.90527Z" fill="white"/>
<path d="M19.2359 2.90527H20.1992V3.87381H19.2359V2.90527Z" fill="white"/>
<path d="M18.271 2.90527H19.2344V3.87381H18.271V2.90527Z" fill="#181425"/>
<path d="M17.3101 2.90527H18.2734V3.87381H17.3101V2.90527Z" fill="white"/>
<path d="M16.3453 2.90527H17.3086V3.87381H16.3453V2.90527Z" fill="#C6C6C6"/>
<path d="M15.3804 2.90527H16.3438V3.87381H15.3804V2.90527Z" fill="#181425"/>
<path d="M14.4195 2.90527H15.3828V3.87381H14.4195V2.90527Z" fill="#E45C00"/>
<path d="M13.4546 2.90527H14.418V3.87381H13.4546V2.90527Z" fill="#E45C00"/>
<path d="M12.4937 2.90527H13.457V3.87381H12.4937V2.90527Z" fill="#FF7C06"/>
<path d="M11.5289 2.90527H12.4922V3.87381H11.5289V2.90527Z" fill="#FF7C06"/>
<path d="M10.5796 2.90527H11.543V3.87381H10.5796V2.90527Z" fill="#FF7C06"/>
<path d="M9.6187 2.90527H10.582V3.87381H9.6187V2.90527Z" fill="#FF7C06"/>
<path d="M8.65385 2.90527H9.61719V3.87381H8.65385V2.90527Z" fill="#181425"/>
<path d="M7.69292 2.90527H8.65625V3.87381H7.69292V2.90527Z" fill="#C6C6C6"/>
<path d="M6.72808 2.90527H7.69141V3.87381H6.72808V2.90527Z" fill="white"/>
<path d="M5.76323 2.90527H6.72656V3.87381H5.76323V2.90527Z" fill="#181425"/>
<path d="M22.1109 3.87402H23.0742V4.84256H22.1109V3.87402Z" fill="#181425"/>
<path d="M21.146 3.87402H22.1094V4.84256H21.146V3.87402Z" fill="#181425"/>
<path d="M20.1851 3.87402H21.1484V4.84256H20.1851V3.87402Z" fill="#181425"/>
<path d="M19.2359 3.87402H20.1992V4.84256H19.2359V3.87402Z" fill="#181425"/>
<path d="M18.271 3.87402H19.2344V4.84256H18.271V3.87402Z" fill="white"/>
<path d="M17.3101 3.87402H18.2734V4.84256H17.3101V3.87402Z" fill="#C6C6C6"/>
<path d="M16.3453 3.87402H17.3086V4.84256H16.3453V3.87402Z" fill="#181425"/>
<path d="M15.3804 3.87402H16.3438V4.84256H15.3804V3.87402Z" fill="#E45C00"/>
<path d="M14.4195 3.87402H15.3828V4.84256H14.4195V3.87402Z" fill="#FF7C06"/>
<path d="M13.4546 3.87402H14.418V4.84256H13.4546V3.87402Z" fill="#FF7C06"/>
<path d="M12.4937 3.87402H13.457V4.84256H12.4937V3.87402Z" fill="#FF7C06"/>
<path d="M11.5289 3.87402H12.4922V4.84256H11.5289V3.87402Z" fill="#FF7C06"/>
<path d="M10.5796 3.87402H11.543V4.84256H10.5796V3.87402Z" fill="#FF7C06"/>
<path d="M9.6187 3.87402H10.582V4.84256H9.6187V3.87402Z" fill="#FF7C06"/>
<path d="M8.65385 3.87402H9.61719V4.84256H8.65385V3.87402Z" fill="#FF7C06"/>
<path d="M7.69292 3.87402H8.65625V4.84256H7.69292V3.87402Z" fill="#181425"/>
<path d="M6.72808 3.87402H7.69141V4.84256H6.72808V3.87402Z" fill="white"/>
<path d="M5.76323 3.87402H6.72656V4.84256H5.76323V3.87402Z" fill="#181425"/>
<path d="M4.80229 3.87402H5.76562V4.84256H4.80229V3.87402Z" fill="#181425"/>
<path d="M22.1109 4.82715H23.0742V5.79569H22.1109V4.82715Z" fill="#181425"/>
<path d="M21.146 4.82715H22.1094V5.79569H21.146V4.82715Z" fill="#E45C00"/>
<path d="M20.1851 4.82715H21.1484V5.79569H20.1851V4.82715Z" fill="#E45C00"/>
<path d="M19.2359 4.82715H20.1992V5.79569H19.2359V4.82715Z" fill="#181425"/>
<path d="M18.271 4.82715H19.2344V5.79569H18.271V4.82715Z" fill="#181425"/>
<path d="M17.3101 4.82715H18.2734V5.79569H17.3101V4.82715Z" fill="#181425"/>
<path d="M16.3453 4.82715H17.3086V5.79569H16.3453V4.82715Z" fill="#E45C00"/>
<path d="M15.3804 4.82715H16.3438V5.79569H15.3804V4.82715Z" fill="#FF7C06"/>
<path d="M14.4195 4.82715H15.3828V5.79569H14.4195V4.82715Z" fill="#181425"/>
<path d="M13.4546 4.82715H14.418V5.79569H13.4546V4.82715Z" fill="#181425"/>
<path d="M12.4937 4.82715H13.457V5.79569H12.4937V4.82715Z" fill="#FF7C06"/>
<path d="M11.5289 4.82715H12.4922V5.79569H11.5289V4.82715Z" fill="#FF7C06"/>
<path d="M10.5796 4.82715H11.543V5.79569H10.5796V4.82715Z" fill="#FF7C06"/>
<path d="M9.6187 4.82715H10.582V5.79569H9.6187V4.82715Z" fill="#FF7C06"/>
<path d="M8.65385 4.82715H9.61719V5.79569H8.65385V4.82715Z" fill="#181425"/>
<path d="M7.69292 4.82715H8.65625V5.79569H7.69292V4.82715Z" fill="#FF7C06"/>
<path d="M6.72808 4.82715H7.69141V5.79569H6.72808V4.82715Z" fill="#181425"/>
<path d="M5.76323 4.82715H6.72656V5.79569H5.76323V4.82715Z" fill="#FF7C06"/>
<path d="M4.80229 4.82715H5.76562V5.79569H4.80229V4.82715Z" fill="#181425"/>
<path d="M23.0718 5.7959H24.0352V6.76444H23.0718V5.7959Z" fill="#181425"/>
<path d="M22.1109 5.7959H23.0742V6.76444H22.1109V5.7959Z" fill="#E45C00"/>
<path d="M21.146 5.7959H22.1094V6.76444H21.146V5.7959Z" fill="#E45C00"/>
<path d="M20.1851 5.7959H21.1484V6.76444H20.1851V5.7959Z" fill="#181425"/>
<path d="M19.2359 5.7959H20.1992V6.76444H19.2359V5.7959Z" fill="#FF7C06"/>
<path d="M18.271 5.7959H19.2344V6.76444H18.271V5.7959Z" fill="#181425"/>
<path d="M17.3101 5.7959H18.2734V6.76444H17.3101V5.7959Z" fill="#E45C00"/>
<path d="M16.3453 5.7959H17.3086V6.76444H16.3453V5.7959Z" fill="#E45C00"/>
<path d="M15.3804 5.7959H16.3438V6.76444H15.3804V5.7959Z" fill="#FF7C06"/>
<path d="M14.4195 5.7959H15.3828V6.76444H14.4195V5.7959Z" fill="#FF7C06"/>
<path d="M13.4546 5.7959H14.418V6.76444H13.4546V5.7959Z" fill="#FF7C06"/>
<path d="M12.4937 5.7959H13.457V6.76444H12.4937V5.7959Z" fill="#FF7C06"/>
<path d="M11.5289 5.7959H12.4922V6.76444H11.5289V5.7959Z" fill="#FF7C06"/>
<path d="M10.5796 5.7959H11.543V6.76444H10.5796V5.7959Z" fill="#FF7C06"/>
<path d="M9.6187 5.7959H10.582V6.76444H9.6187V5.7959Z" fill="#FF7C06"/>
<path d="M8.65385 5.7959H9.61719V6.76444H8.65385V5.7959Z" fill="#FF7C06"/>
<path d="M7.69292 5.7959H8.65625V6.76444H7.69292V5.7959Z" fill="#FF7C06"/>
<path d="M6.72808 5.7959H7.69141V6.76444H6.72808V5.7959Z" fill="#FF7C06"/>
<path d="M5.76323 5.7959H6.72656V6.76444H5.76323V5.7959Z" fill="#181425"/>
<path d="M4.80229 5.7959H5.76562V6.76444H4.80229V5.7959Z" fill="#FF7C06"/>
<path d="M3.83745 5.7959H4.80078V6.76444H3.83745V5.7959Z" fill="#181425"/>
<path d="M23.0718 6.76465H24.0352V7.73319H23.0718V6.76465Z" fill="#181425"/>
<path d="M22.1109 6.76465H23.0742V7.73319H22.1109V6.76465Z" fill="#181425"/>
<path d="M21.146 6.76465H22.1094V7.73319H21.146V6.76465Z" fill="#181425"/>
<path d="M20.1851 6.76465H21.1484V7.73319H20.1851V6.76465Z" fill="#181425"/>
<path d="M19.2359 6.76465H20.1992V7.73319H19.2359V6.76465Z" fill="#FF7C06"/>
<path d="M18.271 6.76465H19.2344V7.73319H18.271V6.76465Z" fill="#181425"/>
<path d="M17.3101 6.76465H18.2734V7.73319H17.3101V6.76465Z" fill="#E45C00"/>
<path d="M16.3453 6.76465H17.3086V7.73319H16.3453V6.76465Z" fill="#181425"/>
<path d="M15.3804 6.76465H16.3438V7.73319H15.3804V6.76465Z" fill="#181425"/>
<path d="M14.4195 6.76465H15.3828V7.73319H14.4195V6.76465Z" fill="#181425"/>
<path d="M13.4546 6.76465H14.418V7.73319H13.4546V6.76465Z" fill="#181425"/>
<path d="M12.4937 6.76465H13.457V7.73319H12.4937V6.76465Z" fill="#FF7C06"/>
<path d="M11.5289 6.76465H12.4922V7.73319H11.5289V6.76465Z" fill="#FF7C06"/>
<path d="M10.5796 6.76465H11.543V7.73319H10.5796V6.76465Z" fill="#FF7C06"/>
<path d="M9.6187 6.76465H10.582V7.73319H9.6187V6.76465Z" fill="#FF7C06"/>
<path d="M8.65385 6.76465H9.61719V7.73319H8.65385V6.76465Z" fill="#FF7C06"/>
<path d="M7.69292 6.76465H8.65625V7.73319H7.69292V6.76465Z" fill="#181425"/>
<path d="M6.72808 6.76465H7.69141V7.73319H6.72808V6.76465Z" fill="#181425"/>
<path d="M5.76323 6.76465H6.72656V7.73319H5.76323V6.76465Z" fill="#181425"/>
<path d="M4.80229 6.76465H5.76562V7.73319H4.80229V6.76465Z" fill="#FF7C06"/>
<path d="M3.83745 6.76465H4.80078V7.73319H3.83745V6.76465Z" fill="#181425"/>
<path d="M24.0367 7.73242H25V8.70096H24.0367V7.73242Z" fill="#181425"/>
<path d="M23.0718 7.73242H24.0352V8.70096H23.0718V7.73242Z" fill="#C6C6C6"/>
<path d="M22.1109 7.73242H23.0742V8.70096H22.1109V7.73242Z" fill="white"/>
<path d="M21.146 7.73242H22.1094V8.70096H21.146V7.73242Z" fill="#181425"/>
<path d="M20.1851 7.73242H21.1484V8.70096H20.1851V7.73242Z" fill="white"/>
<path d="M19.2359 7.73242H20.1992V8.70096H19.2359V7.73242Z" fill="#181425"/>
<path d="M18.271 7.73242H19.2344V8.70096H18.271V7.73242Z" fill="#181425"/>
<path d="M17.3101 7.73242H18.2734V8.70096H17.3101V7.73242Z" fill="#181425"/>
<path d="M16.3453 7.73242H17.3086V8.70096H16.3453V7.73242Z" fill="#181425"/>
<path d="M15.3804 7.73242H16.3438V8.70096H15.3804V7.73242Z" fill="#181425"/>
<path d="M14.4195 7.73242H15.3828V8.70096H14.4195V7.73242Z" fill="#181425"/>
<path d="M13.4546 7.73242H14.418V8.70096H13.4546V7.73242Z" fill="#181425"/>
<path d="M12.4937 7.73242H13.457V8.70096H12.4937V7.73242Z" fill="#181425"/>
<path d="M11.5289 7.73242H12.4922V8.70096H11.5289V7.73242Z" fill="#FF7C06"/>
<path d="M10.5796 7.73242H11.543V8.70096H10.5796V7.73242Z" fill="#FF7C06"/>
<path d="M9.6187 7.73242H10.582V8.70096H9.6187V7.73242Z" fill="#FF7C06"/>
<path d="M8.65385 7.73242H9.61719V8.70096H8.65385V7.73242Z" fill="#181425"/>
<path d="M7.69292 7.73242H8.65625V8.70096H7.69292V7.73242Z" fill="#181425"/>
<path d="M6.72808 7.73242H7.69141V8.70096H6.72808V7.73242Z" fill="#181425"/>
<path d="M5.76323 7.73242H6.72656V8.70096H5.76323V7.73242Z" fill="#181425"/>
<path d="M4.80229 7.73242H5.76562V8.70096H4.80229V7.73242Z" fill="#181425"/>
<path d="M3.83745 7.73242H4.80078V8.70096H3.83745V7.73242Z" fill="white"/>
<path d="M2.87261 7.73242H3.83594V8.70096H2.87261V7.73242Z" fill="#181425"/>
<path d="M24.0367 8.70117H25V9.66971H24.0367V8.70117Z" fill="#181425"/>
<path d="M23.0718 8.70117H24.0352V9.66971H23.0718V8.70117Z" fill="#C6C6C6"/>
<path d="M22.1109 8.70117H23.0742V9.66971H22.1109V8.70117Z" fill="white"/>
<path d="M21.146 8.70117H22.1094V9.66971H21.146V8.70117Z" fill="#181425"/>
<path d="M20.1851 8.70117H21.1484V9.66971H20.1851V8.70117Z" fill="white"/>
<path d="M19.2359 8.70117H20.1992V9.66971H19.2359V8.70117Z" fill="#181425"/>
<path d="M18.271 8.70117H19.2344V9.66971H18.271V8.70117Z" fill="#181425"/>
<path d="M17.3101 8.70117H18.2734V9.66971H17.3101V8.70117Z" fill="#181425"/>
<path d="M16.3453 8.70117H17.3086V9.66971H16.3453V8.70117Z" fill="#181425"/>
<path d="M15.3804 8.70117H16.3438V9.66971H15.3804V8.70117Z" fill="white"/>
<path d="M14.4195 8.70117H15.3828V9.66971H14.4195V8.70117Z" fill="#3978A8"/>
<path d="M13.4546 8.70117H14.418V9.66971H13.4546V8.70117Z" fill="#3978A8"/>
<path d="M12.4937 8.70117H13.457V9.66971H12.4937V8.70117Z" fill="#181425"/>
<path d="M11.5289 8.70117H12.4922V9.66971H11.5289V8.70117Z" fill="#181425"/>
<path d="M10.5796 8.70117H11.543V9.66971H10.5796V8.70117Z" fill="#181425"/>
<path d="M9.6187 8.70117H10.582V9.66971H9.6187V8.70117Z" fill="#181425"/>
<path d="M8.65385 8.70117H9.61719V9.66971H8.65385V8.70117Z" fill="#181425"/>
<path d="M7.69292 8.70117H8.65625V9.66971H7.69292V8.70117Z" fill="#181425"/>
<path d="M6.72808 8.70117H7.69141V9.66971H6.72808V8.70117Z" fill="#3978A8"/>
<path d="M5.76323 8.70117H6.72656V9.66971H5.76323V8.70117Z" fill="#3978A8"/>
<path d="M4.80229 8.70117H5.76562V9.66971H4.80229V8.70117Z" fill="#181425"/>
<path d="M3.83745 8.70117H4.80078V9.66971H3.83745V8.70117Z" fill="white"/>
<path d="M2.87261 8.70117H3.83594V9.66971H2.87261V8.70117Z" fill="#181425"/>
<path d="M24.0367 9.66992H25V10.6385H24.0367V9.66992Z" fill="#181425"/>
<path d="M23.0718 9.66992H24.0352V10.6385H23.0718V9.66992Z" fill="#C6C6C6"/>
<path d="M22.1109 9.66992H23.0742V10.6385H22.1109V9.66992Z" fill="white"/>
<path d="M21.146 9.66992H22.1094V10.6385H21.146V9.66992Z" fill="#181425"/>
<path d="M20.1851 9.66992H21.1484V10.6385H20.1851V9.66992Z" fill="white"/>
<path d="M19.2359 9.66992H20.1992V10.6385H19.2359V9.66992Z" fill="#181425"/>
<path d="M18.271 9.66992H19.2344V10.6385H18.271V9.66992Z" fill="#E45C00"/>
<path d="M17.3101 9.66992H18.2734V10.6385H17.3101V9.66992Z" fill="#181425"/>
<path d="M16.3453 9.66992H17.3086V10.6385H16.3453V9.66992Z" fill="white"/>
<path d="M15.3804 9.66992H16.3438V10.6385H15.3804V9.66992Z" fill="white"/>
<path d="M14.4195 9.66992H15.3828V10.6385H14.4195V9.66992Z" fill="#3978A8"/>
<path d="M13.4546 9.66992H14.418V10.6385H13.4546V9.66992Z" fill="#394778"/>
<path d="M12.4937 9.66992H13.457V10.6385H12.4937V9.66992Z" fill="white"/>
<path d="M11.5289 9.66992H12.4922V10.6385H11.5289V9.66992Z" fill="#181425"/>
<path d="M10.5796 9.66992H11.543V10.6385H10.5796V9.66992Z" fill="#181425"/>
<path d="M9.6187 9.66992H10.582V10.6385H9.6187V9.66992Z" fill="#181425"/>
<path d="M8.65385 9.66992H9.61719V10.6385H8.65385V9.66992Z" fill="#181425"/>
<path d="M7.69292 9.66992H8.65625V10.6385H7.69292V9.66992Z" fill="white"/>
<path d="M6.72808 9.66992H7.69141V10.6385H6.72808V9.66992Z" fill="#394778"/>
<path d="M5.76323 9.66992H6.72656V10.6385H5.76323V9.66992Z" fill="#3978A8"/>
<path d="M4.80229 9.66992H5.76562V10.6385H4.80229V9.66992Z" fill="#181425"/>
<path d="M3.83745 9.66992H4.80078V10.6385H3.83745V9.66992Z" fill="white"/>
<path d="M2.87261 9.66992H3.83594V10.6385H2.87261V9.66992Z" fill="#181425"/>
<path d="M24.0367 10.6387H25V11.6072H24.0367V10.6387Z" fill="#181425"/>
<path d="M23.0718 10.6387H24.0352V11.6072H23.0718V10.6387Z" fill="#C6C6C6"/>
<path d="M22.1109 10.6387H23.0742V11.6072H22.1109V10.6387Z" fill="white"/>
<path d="M21.146 10.6387H22.1094V11.6072H21.146V10.6387Z" fill="#181425"/>
<path d="M20.1851 10.6387H21.1484V11.6072H20.1851V10.6387Z" fill="white"/>
<path d="M19.2359 10.6387H20.1992V11.6072H19.2359V10.6387Z" fill="#181425"/>
<path d="M18.271 10.6387H19.2344V11.6072H18.271V10.6387Z" fill="#E45C00"/>
<path d="M17.3101 10.6387H18.2734V11.6072H17.3101V10.6387Z" fill="#181425"/>
<path d="M16.3453 10.6387H17.3086V11.6072H16.3453V10.6387Z" fill="#181425"/>
<path d="M15.3804 10.6387H16.3438V11.6072H15.3804V10.6387Z" fill="white"/>
<path d="M14.4195 10.6387H15.3828V11.6072H14.4195V10.6387Z" fill="white"/>
<path d="M13.4546 10.6387H14.418V11.6072H13.4546V10.6387Z" fill="#394778"/>
<path d="M12.4937 10.6387H13.457V11.6072H12.4937V10.6387Z" fill="#181425"/>
<path d="M11.5289 10.6387H12.4922V11.6072H11.5289V10.6387Z" fill="#181425"/>
<path d="M10.5796 10.6387H11.543V11.6072H10.5796V10.6387Z" fill="#FF7C06"/>
<path d="M9.6187 10.6387H10.582V11.6072H9.6187V10.6387Z" fill="#FF7C06"/>
<path d="M8.65385 10.6387H9.61719V11.6072H8.65385V10.6387Z" fill="#181425"/>
<path d="M7.69292 10.6387H8.65625V11.6072H7.69292V10.6387Z" fill="#181425"/>
<path d="M6.72808 10.6387H7.69141V11.6072H6.72808V10.6387Z" fill="#394778"/>
<path d="M5.76323 10.6387H6.72656V11.6072H5.76323V10.6387Z" fill="#181425"/>
<path d="M4.80229 10.6387H5.76562V11.6072H4.80229V10.6387Z" fill="#181425"/>
<path d="M3.83745 10.6387H4.80078V11.6072H3.83745V10.6387Z" fill="white"/>
<path d="M2.87261 10.6387H3.83594V11.6072H2.87261V10.6387Z" fill="#181425"/>
<path d="M23.0718 11.6064H24.0352V12.575H23.0718V11.6064Z" fill="#181425"/>
<path d="M22.1109 11.6064H23.0742V12.575H22.1109V11.6064Z" fill="#181425"/>
<path d="M21.146 11.6064H22.1094V12.575H21.146V11.6064Z" fill="#181425"/>
<path d="M20.1851 11.6064H21.1484V12.575H20.1851V11.6064Z" fill="#181425"/>
<path d="M19.2359 11.6064H20.1992V12.575H19.2359V11.6064Z" fill="#FF7C06"/>
<path d="M18.271 11.6064H19.2344V12.575H18.271V11.6064Z" fill="#181425"/>
<path d="M17.3101 11.6064H18.2734V12.575H17.3101V11.6064Z" fill="#E45C00"/>
<path d="M16.3453 11.6064H17.3086V12.575H16.3453V11.6064Z" fill="#181425"/>
<path d="M15.3804 11.6064H16.3438V12.575H15.3804V11.6064Z" fill="#181425"/>
<path d="M14.4195 11.6064H15.3828V12.575H14.4195V11.6064Z" fill="#181425"/>
<path d="M13.4546 11.6064H14.418V12.575H13.4546V11.6064Z" fill="#181425"/>
<path d="M12.4937 11.6064H13.457V12.575H12.4937V11.6064Z" fill="#181425"/>
<path d="M11.5289 11.6064H12.4922V12.575H11.5289V11.6064Z" fill="#FF7C06"/>
<path d="M10.5796 11.6064H11.543V12.575H10.5796V11.6064Z" fill="#FF7C06"/>
<path d="M9.6187 11.6064H10.582V12.575H9.6187V11.6064Z" fill="#FF7C06"/>
<path d="M8.65385 11.6064H9.61719V12.575H8.65385V11.6064Z" fill="#FF7C06"/>
<path d="M7.69292 11.6064H8.65625V12.575H7.69292V11.6064Z" fill="#181425"/>
<path d="M6.72808 11.6064H7.69141V12.575H6.72808V11.6064Z" fill="#181425"/>
<path d="M5.76323 11.6064H6.72656V12.575H5.76323V11.6064Z" fill="#181425"/>
<path d="M4.80229 11.6064H5.76562V12.575H4.80229V11.6064Z" fill="#FF7C06"/>
<path d="M3.83745 11.6064H4.80078V12.575H3.83745V11.6064Z" fill="#181425"/>
<path d="M23.0718 12.5752H24.0352V13.5437H23.0718V12.5752Z" fill="#181425"/>
<path d="M22.1109 12.5752H23.0742V13.5437H22.1109V12.5752Z" fill="#262B44"/>
<path d="M21.146 12.5752H22.1094V13.5437H21.146V12.5752Z" fill="#262B44"/>
<path d="M20.1851 12.5752H21.1484V13.5437H20.1851V12.5752Z" fill="#181425"/>
<path d="M19.2359 12.5752H20.1992V13.5437H19.2359V12.5752Z" fill="#FF7C06"/>
<path d="M18.271 12.5752H19.2344V13.5437H18.271V12.5752Z" fill="#181425"/>
<path d="M17.3101 12.5752H18.2734V13.5437H17.3101V12.5752Z" fill="#E45C00"/>
<path d="M16.3453 12.5752H17.3086V13.5437H16.3453V12.5752Z" fill="#E45C00"/>
<path d="M15.3804 12.5752H16.3438V13.5437H15.3804V12.5752Z" fill="#181425"/>
<path d="M14.4195 12.5752H15.3828V13.5437H14.4195V12.5752Z" fill="#181425"/>
<path d="M13.4546 12.5752H14.418V13.5437H13.4546V12.5752Z" fill="#181425"/>
<path d="M12.4937 12.5752H13.457V13.5437H12.4937V12.5752Z" fill="#FF7C06"/>
<path d="M11.5289 12.5752H12.4922V13.5437H11.5289V12.5752Z" fill="#FF7C06"/>
<path d="M10.5796 12.5752H11.543V13.5437H10.5796V12.5752Z" fill="#FF7C06"/>
<path d="M9.6187 12.5752H10.582V13.5437H9.6187V12.5752Z" fill="#FF7C06"/>
<path d="M8.65385 12.5752H9.61719V13.5437H8.65385V12.5752Z" fill="#181425"/>
<path d="M7.69292 12.5752H8.65625V13.5437H7.69292V12.5752Z" fill="#FF7C06"/>
<path d="M6.72808 12.5752H7.69141V13.5437H6.72808V12.5752Z" fill="#181425"/>
<path d="M5.76323 12.5752H6.72656V13.5437H5.76323V12.5752Z" fill="#181425"/>
<path d="M4.80229 12.5752H5.76562V13.5437H4.80229V12.5752Z" fill="#FF7C06"/>
<path d="M3.83745 12.5752H4.80078V13.5437H3.83745V12.5752Z" fill="#181425"/>
<path d="M24.0367 13.5283H25V14.4969H24.0367V13.5283Z" fill="#181425"/>
<path d="M23.0718 13.5283H24.0352V14.4969H23.0718V13.5283Z" fill="#262B44"/>
<path d="M22.1109 13.5283H23.0742V14.4969H22.1109V13.5283Z" fill="#262B44"/>
<path d="M21.146 13.5283H22.1094V14.4969H21.146V13.5283Z" fill="#181425"/>
<path d="M20.1851 13.5283H21.1484V14.4969H20.1851V13.5283Z" fill="#E45C00"/>
<path d="M19.2359 13.5283H20.1992V14.4969H19.2359V13.5283Z" fill="#181425"/>
<path d="M18.271 13.5283H19.2344V14.4969H18.271V13.5283Z" fill="#181425"/>
<path d="M17.3101 13.5283H18.2734V14.4969H17.3101V13.5283Z" fill="#181425"/>
<path d="M16.3453 13.5283H17.3086V14.4969H16.3453V13.5283Z" fill="#E45C00"/>
<path d="M15.3804 13.5283H16.3438V14.4969H15.3804V13.5283Z" fill="#FF7C06"/>
<path d="M14.4195 13.5283H15.3828V14.4969H14.4195V13.5283Z" fill="#FF7C06"/>
<path d="M13.4546 13.5283H14.418V14.4969H13.4546V13.5283Z" fill="#FF7C06"/>
<path d="M12.4937 13.5283H13.457V14.4969H12.4937V13.5283Z" fill="#FF7C06"/>
<path d="M11.5289 13.5283H12.4922V14.4969H11.5289V13.5283Z" fill="#181425"/>
<path d="M10.5796 13.5283H11.543V14.4969H10.5796V13.5283Z" fill="#181425"/>
<path d="M9.6187 13.5283H10.582V14.4969H9.6187V13.5283Z" fill="#181425"/>
<path d="M8.65385 13.5283H9.61719V14.4969H8.65385V13.5283Z" fill="#FF7C06"/>
<path d="M7.69292 13.5283H8.65625V14.4969H7.69292V13.5283Z" fill="#FF7C06"/>
<path d="M6.72808 13.5283H7.69141V14.4969H6.72808V13.5283Z" fill="#181425"/>
<path d="M5.76323 13.5283H6.72656V14.4969H5.76323V13.5283Z" fill="#FF7C06"/>
<path d="M4.80229 13.5283H5.76562V14.4969H4.80229V13.5283Z" fill="#181425"/>
<path d="M3.83745 13.5283H4.80078V14.4969H3.83745V13.5283Z" fill="#262B44"/>
<path d="M2.87261 13.5283H3.83594V14.4969H2.87261V13.5283Z" fill="#181425"/>
<path d="M24.0367 14.4971H25V15.4656H24.0367V14.4971Z" fill="#181425"/>
<path d="M23.0718 14.4971H24.0352V15.4656H23.0718V14.4971Z" fill="#262B44"/>
<path d="M22.1109 14.4971H23.0742V15.4656H22.1109V14.4971Z" fill="#181425"/>
<path d="M21.146 14.4971H22.1094V15.4656H21.146V14.4971Z" fill="#181425"/>
<path d="M20.1851 14.4971H21.1484V15.4656H20.1851V14.4971Z" fill="#181425"/>
<path d="M19.2359 14.4971H20.1992V15.4656H19.2359V14.4971Z" fill="#181425"/>
<path d="M18.271 14.4971H19.2344V15.4656H18.271V14.4971Z" fill="white"/>
<path d="M17.3101 14.4971H18.2734V15.4656H17.3101V14.4971Z" fill="white"/>
<path d="M16.3453 14.4971H17.3086V15.4656H16.3453V14.4971Z" fill="#181425"/>
<path d="M15.3804 14.4971H16.3438V15.4656H15.3804V14.4971Z" fill="#E45C00"/>
<path d="M14.4195 14.4971H15.3828V15.4656H14.4195V14.4971Z" fill="#FF7C06"/>
<path d="M13.4546 14.4971H14.418V15.4656H13.4546V14.4971Z" fill="#FF7C06"/>
<path d="M12.4937 14.4971H13.457V15.4656H12.4937V14.4971Z" fill="#FF7C06"/>
<path d="M11.5289 14.4971H12.4922V15.4656H11.5289V14.4971Z" fill="#FF7C06"/>
<path d="M10.5796 14.4971H11.543V15.4656H10.5796V14.4971Z" fill="#FF7C06"/>
<path d="M9.6187 14.4971H10.582V15.4656H9.6187V14.4971Z" fill="#FF7C06"/>
<path d="M8.65385 14.4971H9.61719V15.4656H8.65385V14.4971Z" fill="#FF7C06"/>
<path d="M7.69292 14.4971H8.65625V15.4656H7.69292V14.4971Z" fill="#181425"/>
<path d="M6.72808 14.4971H7.69141V15.4656H6.72808V14.4971Z" fill="white"/>
<path d="M5.76323 14.4971H6.72656V15.4656H5.76323V14.4971Z" fill="#181425"/>
<path d="M4.80229 14.4971H5.76562V15.4656H4.80229V14.4971Z" fill="#181425"/>
<path d="M3.83745 14.4971H4.80078V15.4656H3.83745V14.4971Z" fill="#262B44"/>
<path d="M2.87261 14.4971H3.83594V15.4656H2.87261V14.4971Z" fill="#181425"/>
<path d="M1.91167 14.4971H2.875V15.4656H1.91167V14.4971Z" fill="#181425"/>
<path d="M0.96245 14.4971H1.92578V15.4656H0.96245V14.4971Z" fill="#181425"/>
<path d="M23.0718 15.4658H24.0352V16.4344H23.0718V15.4658Z" fill="#181425"/>
<path d="M22.1109 15.4658H23.0742V16.4344H22.1109V15.4658Z" fill="#C6C6C6"/>
<path d="M21.146 15.4658H22.1094V16.4344H21.146V15.4658Z" fill="white"/>
<path d="M20.1851 15.4658H21.1484V16.4344H20.1851V15.4658Z" fill="white"/>
<path d="M19.2359 15.4658H20.1992V16.4344H19.2359V15.4658Z" fill="#181425"/>
<path d="M18.271 15.4658H19.2344V16.4344H18.271V15.4658Z" fill="#181425"/>
<path d="M17.3101 15.4658H18.2734V16.4344H17.3101V15.4658Z" fill="#C6C6C6"/>
<path d="M16.3453 15.4658H17.3086V16.4344H16.3453V15.4658Z" fill="white"/>
<path d="M15.3804 15.4658H16.3438V16.4344H15.3804V15.4658Z" fill="#181425"/>
<path d="M14.4195 15.4658H15.3828V16.4344H14.4195V15.4658Z" fill="#E45C00"/>
<path d="M13.4546 15.4658H14.418V16.4344H13.4546V15.4658Z" fill="#E45C00"/>
<path d="M12.4937 15.4658H13.457V16.4344H12.4937V15.4658Z" fill="#FF7C06"/>
<path d="M11.5289 15.4658H12.4922V16.4344H11.5289V15.4658Z" fill="#FF7C06"/>
<path d="M10.5796 15.4658H11.543V16.4344H10.5796V15.4658Z" fill="#FF7C06"/>
<path d="M9.6187 15.4658H10.582V16.4344H9.6187V15.4658Z" fill="#FF7C06"/>
<path d="M8.65385 15.4658H9.61719V16.4344H8.65385V15.4658Z" fill="#181425"/>
<path d="M7.69292 15.4658H8.65625V16.4344H7.69292V15.4658Z" fill="white"/>
<path d="M6.72808 15.4658H7.69141V16.4344H6.72808V15.4658Z" fill="white"/>
<path d="M5.76323 15.4658H6.72656V16.4344H5.76323V15.4658Z" fill="#181425"/>
<path d="M3.83745 15.4658H4.80078V16.4344H3.83745V15.4658Z" fill="#181425"/>
<path d="M2.87261 15.4658H3.83594V16.4344H2.87261V15.4658Z" fill="#C6C6C6"/>
<path d="M1.91167 15.4658H2.875V16.4344H1.91167V15.4658Z" fill="white"/>
<path d="M0.96245 15.4658H1.92578V16.4344H0.96245V15.4658Z" fill="white"/>
<path d="M0.00151265 15.4658H0.964844V16.4344H0.00151265V15.4658Z" fill="#181425"/>
<path d="M23.0718 16.4336H24.0352V17.4021H23.0718V16.4336Z" fill="#181425"/>
<path d="M22.1109 16.4336H23.0742V17.4021H22.1109V16.4336Z" fill="#C6C6C6"/>
<path d="M21.146 16.4336H22.1094V17.4021H21.146V16.4336Z" fill="white"/>
<path d="M20.1851 16.4336H21.1484V17.4021H20.1851V16.4336Z" fill="white"/>
<path d="M19.2359 16.4336H20.1992V17.4021H19.2359V16.4336Z" fill="#181425"/>
<path d="M18.271 16.4336H19.2344V17.4021H18.271V16.4336Z" fill="#C6C6C6"/>
<path d="M17.3101 16.4336H18.2734V17.4021H17.3101V16.4336Z" fill="#181425"/>
<path d="M16.3453 16.4336H17.3086V17.4021H16.3453V16.4336Z" fill="white"/>
<path d="M15.3804 16.4336H16.3438V17.4021H15.3804V16.4336Z" fill="#181425"/>
<path d="M14.4195 16.4336H15.3828V17.4021H14.4195V16.4336Z" fill="#181425"/>
<path d="M13.4546 16.4336H14.418V17.4021H13.4546V16.4336Z" fill="#181425"/>
<path d="M12.4937 16.4336H13.457V17.4021H12.4937V16.4336Z" fill="#181425"/>
<path d="M11.5289 16.4336H12.4922V17.4021H11.5289V16.4336Z" fill="#181425"/>
<path d="M10.5796 16.4336H11.543V17.4021H10.5796V16.4336Z" fill="#181425"/>
<path d="M9.6187 16.4336H10.582V17.4021H9.6187V16.4336Z" fill="#181425"/>
<path d="M8.65385 16.4336H9.61719V17.4021H8.65385V16.4336Z" fill="white"/>
<path d="M7.69292 16.4336H8.65625V17.4021H7.69292V16.4336Z" fill="white"/>
<path d="M6.72808 16.4336H7.69141V17.4021H6.72808V16.4336Z" fill="#181425"/>
<path d="M3.83745 16.4336H4.80078V17.4021H3.83745V16.4336Z" fill="#181425"/>
<path d="M2.87261 16.4336H3.83594V17.4021H2.87261V16.4336Z" fill="#C6C6C6"/>
<path d="M1.91167 16.4336H2.875V17.4021H1.91167V16.4336Z" fill="white"/>
<path d="M0.96245 16.4336H1.92578V17.4021H0.96245V16.4336Z" fill="white"/>
<path d="M0.00151265 16.4336H0.964844V17.4021H0.00151265V16.4336Z" fill="#181425"/>
<path d="M23.0718 17.4023H24.0352V18.3709H23.0718V17.4023Z" fill="#181425"/>
<path d="M22.1109 17.4023H23.0742V18.3709H22.1109V17.4023Z" fill="#C6C6C6"/>
<path d="M21.146 17.4023H22.1094V18.3709H21.146V17.4023Z" fill="white"/>
<path d="M20.1851 17.4023H21.1484V18.3709H20.1851V17.4023Z" fill="white"/>
<path d="M19.2359 17.4023H20.1992V18.3709H19.2359V17.4023Z" fill="#181425"/>
<path d="M18.271 17.4023H19.2344V18.3709H18.271V17.4023Z" fill="#181425"/>
<path d="M17.3101 17.4023H18.2734V18.3709H17.3101V17.4023Z" fill="#181425"/>
<path d="M16.3453 17.4023H17.3086V18.3709H16.3453V17.4023Z" fill="#181425"/>
<path d="M15.3804 17.4023H16.3438V18.3709H15.3804V17.4023Z" fill="#181425"/>
<path d="M14.4195 17.4023H15.3828V18.3709H14.4195V17.4023Z" fill="#E45C00"/>
<path d="M13.4546 17.4023H14.418V18.3709H13.4546V17.4023Z" fill="#E45C00"/>
<path d="M12.4937 17.4023H13.457V18.3709H12.4937V17.4023Z" fill="#E45C00"/>
<path d="M11.5289 17.4023H12.4922V18.3709H11.5289V17.4023Z" fill="#FF7C06"/>
<path d="M10.5796 17.4023H11.543V18.3709H10.5796V17.4023Z" fill="#FF7C06"/>
<path d="M9.6187 17.4023H10.582V18.3709H9.6187V17.4023Z" fill="#181425"/>
<path d="M8.65385 17.4023H9.61719V18.3709H8.65385V17.4023Z" fill="#181425"/>
<path d="M7.69292 17.4023H8.65625V18.3709H7.69292V17.4023Z" fill="#181425"/>
<path d="M3.83745 17.4023H4.80078V18.3709H3.83745V17.4023Z" fill="#181425"/>
<path d="M2.87261 17.4023H3.83594V18.3709H2.87261V17.4023Z" fill="#C6C6C6"/>
<path d="M1.91167 17.4023H2.875V18.3709H1.91167V17.4023Z" fill="white"/>
<path d="M0.96245 17.4023H1.92578V18.3709H0.96245V17.4023Z" fill="white"/>
<path d="M0.00151265 17.4023H0.964844V18.3709H0.00151265V17.4023Z" fill="#181425"/>
<path d="M22.1109 18.3711H23.0742V19.3396H22.1109V18.3711Z" fill="#181425"/>
<path d="M21.146 18.3711H22.1094V19.3396H21.146V18.3711Z" fill="#181425"/>
<path d="M20.1851 18.3711H21.1484V19.3396H20.1851V18.3711Z" fill="#181425"/>
<path d="M18.271 18.3711H19.2344V19.3396H18.271V18.3711Z" fill="#181425"/>
<path d="M17.3101 18.3711H18.2734V19.3396H17.3101V18.3711Z" fill="#262B44"/>
<path d="M16.3453 18.3711H17.3086V19.3396H16.3453V18.3711Z" fill="#181425"/>
<path d="M15.3804 18.3711H16.3438V19.3396H15.3804V18.3711Z" fill="#181425"/>
<path d="M14.4195 18.3711H15.3828V19.3396H14.4195V18.3711Z" fill="#181425"/>
<path d="M13.4546 18.3711H14.418V19.3396H13.4546V18.3711Z" fill="#181425"/>
<path d="M12.4937 18.3711H13.457V19.3396H12.4937V18.3711Z" fill="#181425"/>
<path d="M11.5289 18.3711H12.4922V19.3396H11.5289V18.3711Z" fill="#181425"/>
<path d="M10.5796 18.3711H11.543V19.3396H10.5796V18.3711Z" fill="#181425"/>
<path d="M9.6187 18.3711H10.582V19.3396H9.6187V18.3711Z" fill="#181425"/>
<path d="M8.65385 18.3711H9.61719V19.3396H8.65385V18.3711Z" fill="#262B44"/>
<path d="M7.69292 18.3711H8.65625V19.3396H7.69292V18.3711Z" fill="#181425"/>
<path d="M2.87261 18.3711H3.83594V19.3396H2.87261V18.3711Z" fill="#181425"/>
<path d="M1.91167 18.3711H2.875V19.3396H1.91167V18.3711Z" fill="#181425"/>
<path d="M0.96245 18.3711H1.92578V19.3396H0.96245V18.3711Z" fill="#181425"/>
<path d="M18.271 19.3398H19.2344V20.3084H18.271V19.3398Z" fill="#181425"/>
<path d="M17.3101 19.3398H18.2734V20.3084H17.3101V19.3398Z" fill="#262B44"/>
<path d="M16.3453 19.3398H17.3086V20.3084H16.3453V19.3398Z" fill="#181425"/>
<path d="M9.6187 19.3398H10.582V20.3084H9.6187V19.3398Z" fill="#181425"/>
<path d="M8.65385 19.3398H9.61719V20.3084H8.65385V19.3398Z" fill="#262B44"/>
<path d="M7.69292 19.3398H8.65625V20.3084H7.69292V19.3398Z" fill="#262B44"/>
<path d="M6.72808 19.3398H7.69141V20.3084H6.72808V19.3398Z" fill="#181425"/>
<path d="M19.2359 20.3086H20.1992V21.2771H19.2359V20.3086Z" fill="#181425"/>
<path d="M18.271 20.3086H19.2344V21.2771H18.271V20.3086Z" fill="#181425"/>
<path d="M17.3101 20.3086H18.2734V21.2771H17.3101V20.3086Z" fill="#181425"/>
<path d="M16.3453 20.3086H17.3086V21.2771H16.3453V20.3086Z" fill="#181425"/>
<path d="M8.65385 20.3086H9.61719V21.2771H8.65385V20.3086Z" fill="#181425"/>
<path d="M7.69292 20.3086H8.65625V21.2771H7.69292V20.3086Z" fill="#181425"/>
<path d="M6.72808 20.3086H7.69141V21.2771H6.72808V20.3086Z" fill="#181425"/>
<path d="M5.76323 20.3086H6.72656V21.2771H5.76323V20.3086Z" fill="#181425"/>
<path d="M20.1851 21.2764H21.1484V22.2449H20.1851V21.2764Z" fill="#181425"/>
<path d="M19.2359 21.2764H20.1992V22.2449H19.2359V21.2764Z" fill="#FF7C06"/>
<path d="M18.271 21.2764H19.2344V22.2449H18.271V21.2764Z" fill="white"/>
<path d="M17.3101 21.2764H18.2734V22.2449H17.3101V21.2764Z" fill="white"/>
<path d="M16.3453 21.2764H17.3086V22.2449H16.3453V21.2764Z" fill="#FF7C06"/>
<path d="M15.3804 21.2764H16.3438V22.2449H15.3804V21.2764Z" fill="#181425"/>
<path d="M9.6187 21.2764H10.582V22.2449H9.6187V21.2764Z" fill="#181425"/>
<path d="M8.65385 21.2764H9.61719V22.2449H8.65385V21.2764Z" fill="#FF7C06"/>
<path d="M7.69292 21.2764H8.65625V22.2449H7.69292V21.2764Z" fill="#FF7C06"/>
<path d="M6.72808 21.2764H7.69141V22.2449H6.72808V21.2764Z" fill="white"/>
<path d="M5.76323 21.2764H6.72656V22.2449H5.76323V21.2764Z" fill="white"/>
<path d="M4.80229 21.2764H5.76562V22.2449H4.80229V21.2764Z" fill="#181425"/>
<path d="M20.1851 22.2451H21.1484V23.2137H20.1851V22.2451Z" fill="#181425"/>
<path d="M19.2359 22.2451H20.1992V23.2137H19.2359V22.2451Z" fill="#E45C00"/>
<path d="M18.271 22.2451H19.2344V23.2137H18.271V22.2451Z" fill="#E45C00"/>
<path d="M17.3101 22.2451H18.2734V23.2137H17.3101V22.2451Z" fill="#E45C00"/>
<path d="M16.3453 22.2451H17.3086V23.2137H16.3453V22.2451Z" fill="#E45C00"/>
<path d="M15.3804 22.2451H16.3438V23.2137H15.3804V22.2451Z" fill="#181425"/>
<path d="M9.6187 22.2451H10.582V23.2137H9.6187V22.2451Z" fill="#181425"/>
<path d="M8.65385 22.2451H9.61719V23.2137H8.65385V22.2451Z" fill="#E45C00"/>
<path d="M7.69292 22.2451H8.65625V23.2137H7.69292V22.2451Z" fill="#E45C00"/>
<path d="M6.72808 22.2451H7.69141V23.2137H6.72808V22.2451Z" fill="#E45C00"/>
<path d="M5.76323 22.2451H6.72656V23.2137H5.76323V22.2451Z" fill="#E45C00"/>
<path d="M4.80229 22.2451H5.76562V23.2137H4.80229V22.2451Z" fill="#E45C00"/>
<path d="M3.83745 22.2451H4.80078V23.2137H3.83745V22.2451Z" fill="#181425"/>
<path d="M20.1851 23.1982H21.1484V24.1668H20.1851V23.1982Z" fill="#181425"/>
<path d="M19.2359 23.1982H20.1992V24.1668H19.2359V23.1982Z" fill="#181425"/>
<path d="M18.271 23.1982H19.2344V24.1668H18.271V23.1982Z" fill="#181425"/>
<path d="M17.3101 23.1982H18.2734V24.1668H17.3101V23.1982Z" fill="#181425"/>
<path d="M16.3453 23.1982H17.3086V24.1668H16.3453V23.1982Z" fill="#181425"/>
<path d="M15.3804 23.1982H16.3438V24.1668H15.3804V23.1982Z" fill="#181425"/>
<path d="M9.6187 23.1982H10.582V24.1668H9.6187V23.1982Z" fill="#181425"/>
<path d="M8.65385 23.1982H9.61719V24.1668H8.65385V23.1982Z" fill="#181425"/>
<path d="M7.69292 23.1982H8.65625V24.1668H7.69292V23.1982Z" fill="#181425"/>
<path d="M6.72808 23.1982H7.69141V24.1668H6.72808V23.1982Z" fill="#181425"/>
<path d="M5.76323 23.1982H6.72656V24.1668H5.76323V23.1982Z" fill="#181425"/>
<path d="M4.80229 23.1982H5.76562V24.1668H4.80229V23.1982Z" fill="#181425"/>
<path d="M3.83745 23.1982H4.80078V24.1668H3.83745V23.1982Z" fill="#181425"/>
</g>
<defs>
<clipPath id="clip0_3367_447">
<rect width="25" height="24.1667" fill="white" transform="matrix(-1 0 0 1 25 0)"/>
</clipPath>
</defs>
</svg>
