<svg width="422" height="36" viewBox="0 0 422 36" fill="none" xmlns="http://www.w3.org/2000/svg">
<mask id="path-1-outside-1_2521_140898" maskUnits="userSpaceOnUse" x="0" y="0" width="422" height="36" fill="black">
<rect fill="white" width="422" height="36"/>
<path d="M2 7.33333V4.66667V2H4.71325H7.42651H15.5663H31.8458V7.33333H29.1325H26.4193H20.9928H18.2795H15.5663H10.1398H7.42651V15.3333H26.4193V20.6667H7.42651V34H4.71325H2V31.3333V28.6667V26V20.6667V18V15.3333V12.6667V10V7.33333Z"/>
<path d="M58.9928 28.6667V34H56.2795H53.5663H48.1398H45.4265H42.7133V28.6667H45.4265H48.1398V12.6667V7.33333H45.4265H42.7133V2H45.4265H48.1398H50.853H53.5663H56.2795H58.9928V7.33333H56.2795H53.5663V28.6667H56.2795H58.9928Z"/>
<path d="M72.5735 7.33333V4.66667V2H75.2868H78H86.1398H99.706V7.33333H96.9928H94.2795H88.853V20.6667V34H83.4265V20.6667V7.33333H80.7132H72.5735Z"/>
<path d="M107.86 7.33333V4.66667V2H110.573H113.287H121.427H134.993V7.33333H132.28H129.566H124.14V20.6667V34H118.713V20.6667V7.33333H116H107.86Z"/>
<path d="M164.853 28.6667V34H162.14H159.426H154H151.287H148.573V28.6667H151.287H154V12.6667V7.33333H151.287H148.573V2H151.287H154H156.713H159.426H162.14H164.853V7.33333H162.14H159.426V28.6667H162.14H164.853Z"/>
<path d="M202.853 12.6667V4.66667V2H208.28V4.66667V7.33333V28.6667V34H202.853V28.6667H200.14V26H197.426V23.3333H194.713V20.6667H192V18H189.287V15.3333H186.574V12.6667H183.86V20.6667V34H181.147H178.434V31.3333V28.6667V26V20.6667V18V15.3333V12.6667V10V7.33333V4.66667V2H181.147H183.86V4.66667H186.574V7.33333H189.287V10H192V12.6667H194.713V15.3333H197.426V18H200.14V20.6667H202.853V12.6667Z"/>
<path d="M227.287 7.33333H224.573H221.86V10H219.147V12.6667V15.3333V20.6667V23.3333V26H221.86V28.6667H224.573H227.287H230H232.713H235.426V26H238.14V23.3333V20.6667H227.287H224.573V15.3333H227.287H238.14H243.566V23.3333V26V28.6667H240.853V31.3333H238.14V34H230H227.287H219.147V31.3333H216.434V28.6667H213.72V23.3333V20.6667V18V15.3333V7.33333H216.434V4.66667H219.147V2H224.573H227.287H230H240.853V4.66667H243.566V10H238.14V7.33333H232.713H230H227.287Z"/>
<path d="M284.294 7.33333V4.66667V2H287.007H289.72H297.86H308.713V4.66667H311.426V7.33333H314.14V12.6667V15.3333V18H311.426V20.6667H308.713V23.3333V26H311.426V28.6667H314.14V31.3333V34H308.713V31.3333H306V28.6667H303.287V26H300.573V23.3333H297.86H289.72V34H284.294V23.3333V20.6667V18V15.3333V12.6667V10V7.33333ZM297.86 7.33333H292.434H289.72V15.3333V18H292.434H295.147H297.86H300.573H303.287H306V15.3333H308.713V12.6667V10H306V7.33333H303.287H300.573H297.86Z"/>
<path d="M333.147 7.33333H330.434H327.72V10H325.007V12.6667V15.3333V20.6667V23.3333V26H327.72V28.6667H330.434H333.147H335.86H338.574H341.287V26H344V23.3333V20.6667V12.6667V10H341.287V7.33333H338.574H335.86H333.147ZM349.427 20.6667V28.6667H346.713V31.3333H344V34H335.86H333.147H325.007V31.3333H322.294V28.6667H319.581V23.3333V20.6667V18V15.3333V7.33333H322.294V4.66667H325.007V2H330.434H333.147H335.86H344V4.66667H346.713V7.33333H349.427V12.6667V20.6667Z"/>
<path d="M368.434 7.33333H365.72H363.007V10H360.294V12.6667V15.3333V20.6667V23.3333V26H363.007V28.6667H365.72H368.434H371.147H373.86H376.574V26H379.287V23.3333V20.6667V12.6667V10H376.574V7.33333H373.86H371.147H368.434ZM384.713 20.6667V28.6667H382V31.3333H379.287V34H371.147H368.434H360.294V31.3333H357.581V28.6667H354.867V23.3333V20.6667V18V15.3333V7.33333H357.581V4.66667H360.294V2H365.72H368.434H371.147H379.287V4.66667H382V7.33333H384.713V12.6667V20.6667Z"/>
<path d="M395.581 20.6667V34H392.867H390.154V31.3333V28.6667V26V20.6667V18V15.3333V12.6667V10V7.33333V4.66667V2H392.867H395.581V4.66667H398.294V7.33333H401.007V10H403.72V12.6667H406.434V10H409.147V7.33333H411.86V4.66667H414.573V2H420V4.66667V7.33333V28.6667V34H414.573V20.6667V12.6667H411.86V15.3333H409.147V18H406.434V20.6667H403.72V18H401.007V15.3333H398.294V12.6667H395.581V20.6667Z"/>
</mask>
<path d="M2 7.33333V4.66667V2H4.71325H7.42651H15.5663H31.8458V7.33333H29.1325H26.4193H20.9928H18.2795H15.5663H10.1398H7.42651V15.3333H26.4193V20.6667H7.42651V34H4.71325H2V31.3333V28.6667V26V20.6667V18V15.3333V12.6667V10V7.33333Z" fill="url(#paint0_linear_2521_140898)"/>
<path d="M58.9928 28.6667V34H56.2795H53.5663H48.1398H45.4265H42.7133V28.6667H45.4265H48.1398V12.6667V7.33333H45.4265H42.7133V2H45.4265H48.1398H50.853H53.5663H56.2795H58.9928V7.33333H56.2795H53.5663V28.6667H56.2795H58.9928Z" fill="url(#paint1_linear_2521_140898)"/>
<path d="M72.5735 7.33333V4.66667V2H75.2868H78H86.1398H99.706V7.33333H96.9928H94.2795H88.853V20.6667V34H83.4265V20.6667V7.33333H80.7132H72.5735Z" fill="url(#paint2_linear_2521_140898)"/>
<path d="M107.86 7.33333V4.66667V2H110.573H113.287H121.427H134.993V7.33333H132.28H129.566H124.14V20.6667V34H118.713V20.6667V7.33333H116H107.86Z" fill="url(#paint3_linear_2521_140898)"/>
<path d="M164.853 28.6667V34H162.14H159.426H154H151.287H148.573V28.6667H151.287H154V12.6667V7.33333H151.287H148.573V2H151.287H154H156.713H159.426H162.14H164.853V7.33333H162.14H159.426V28.6667H162.14H164.853Z" fill="url(#paint4_linear_2521_140898)"/>
<path d="M202.853 12.6667V4.66667V2H208.28V4.66667V7.33333V28.6667V34H202.853V28.6667H200.14V26H197.426V23.3333H194.713V20.6667H192V18H189.287V15.3333H186.574V12.6667H183.86V20.6667V34H181.147H178.434V31.3333V28.6667V26V20.6667V18V15.3333V12.6667V10V7.33333V4.66667V2H181.147H183.86V4.66667H186.574V7.33333H189.287V10H192V12.6667H194.713V15.3333H197.426V18H200.14V20.6667H202.853V12.6667Z" fill="url(#paint5_linear_2521_140898)"/>
<path d="M227.287 7.33333H224.573H221.86V10H219.147V12.6667V15.3333V20.6667V23.3333V26H221.86V28.6667H224.573H227.287H230H232.713H235.426V26H238.14V23.3333V20.6667H227.287H224.573V15.3333H227.287H238.14H243.566V23.3333V26V28.6667H240.853V31.3333H238.14V34H230H227.287H219.147V31.3333H216.434V28.6667H213.72V23.3333V20.6667V18V15.3333V7.33333H216.434V4.66667H219.147V2H224.573H227.287H230H240.853V4.66667H243.566V10H238.14V7.33333H232.713H230H227.287Z" fill="url(#paint6_linear_2521_140898)"/>
<path d="M284.294 7.33333V4.66667V2H287.007H289.72H297.86H308.713V4.66667H311.426V7.33333H314.14V12.6667V15.3333V18H311.426V20.6667H308.713V23.3333V26H311.426V28.6667H314.14V31.3333V34H308.713V31.3333H306V28.6667H303.287V26H300.573V23.3333H297.86H289.72V34H284.294V23.3333V20.6667V18V15.3333V12.6667V10V7.33333ZM297.86 7.33333H292.434H289.72V15.3333V18H292.434H295.147H297.86H300.573H303.287H306V15.3333H308.713V12.6667V10H306V7.33333H303.287H300.573H297.86Z" fill="url(#paint7_linear_2521_140898)"/>
<path d="M333.147 7.33333H330.434H327.72V10H325.007V12.6667V15.3333V20.6667V23.3333V26H327.72V28.6667H330.434H333.147H335.86H338.574H341.287V26H344V23.3333V20.6667V12.6667V10H341.287V7.33333H338.574H335.86H333.147ZM349.427 20.6667V28.6667H346.713V31.3333H344V34H335.86H333.147H325.007V31.3333H322.294V28.6667H319.581V23.3333V20.6667V18V15.3333V7.33333H322.294V4.66667H325.007V2H330.434H333.147H335.86H344V4.66667H346.713V7.33333H349.427V12.6667V20.6667Z" fill="url(#paint8_linear_2521_140898)"/>
<path d="M368.434 7.33333H365.72H363.007V10H360.294V12.6667V15.3333V20.6667V23.3333V26H363.007V28.6667H365.72H368.434H371.147H373.86H376.574V26H379.287V23.3333V20.6667V12.6667V10H376.574V7.33333H373.86H371.147H368.434ZM384.713 20.6667V28.6667H382V31.3333H379.287V34H371.147H368.434H360.294V31.3333H357.581V28.6667H354.867V23.3333V20.6667V18V15.3333V7.33333H357.581V4.66667H360.294V2H365.72H368.434H371.147H379.287V4.66667H382V7.33333H384.713V12.6667V20.6667Z" fill="url(#paint9_linear_2521_140898)"/>
<path d="M395.581 20.6667V34H392.867H390.154V31.3333V28.6667V26V20.6667V18V15.3333V12.6667V10V7.33333V4.66667V2H392.867H395.581V4.66667H398.294V7.33333H401.007V10H403.72V12.6667H406.434V10H409.147V7.33333H411.86V4.66667H414.573V2H420V4.66667V7.33333V28.6667V34H414.573V20.6667V12.6667H411.86V15.3333H409.147V18H406.434V20.6667H403.72V18H401.007V15.3333H398.294V12.6667H395.581V20.6667Z" fill="url(#paint10_linear_2521_140898)"/>
<path d="M2 7.33333V4.66667V2H4.71325H7.42651H15.5663H31.8458V7.33333H29.1325H26.4193H20.9928H18.2795H15.5663H10.1398H7.42651V15.3333H26.4193V20.6667H7.42651V34H4.71325H2V31.3333V28.6667V26V20.6667V18V15.3333V12.6667V10V7.33333Z" stroke="url(#paint11_linear_2521_140898)" stroke-width="3" mask="url(#path-1-outside-1_2521_140898)"/>
<path d="M58.9928 28.6667V34H56.2795H53.5663H48.1398H45.4265H42.7133V28.6667H45.4265H48.1398V12.6667V7.33333H45.4265H42.7133V2H45.4265H48.1398H50.853H53.5663H56.2795H58.9928V7.33333H56.2795H53.5663V28.6667H56.2795H58.9928Z" stroke="url(#paint12_linear_2521_140898)" stroke-width="3" mask="url(#path-1-outside-1_2521_140898)"/>
<path d="M72.5735 7.33333V4.66667V2H75.2868H78H86.1398H99.706V7.33333H96.9928H94.2795H88.853V20.6667V34H83.4265V20.6667V7.33333H80.7132H72.5735Z" stroke="url(#paint13_linear_2521_140898)" stroke-width="3" mask="url(#path-1-outside-1_2521_140898)"/>
<path d="M107.86 7.33333V4.66667V2H110.573H113.287H121.427H134.993V7.33333H132.28H129.566H124.14V20.6667V34H118.713V20.6667V7.33333H116H107.86Z" stroke="url(#paint14_linear_2521_140898)" stroke-width="3" mask="url(#path-1-outside-1_2521_140898)"/>
<path d="M164.853 28.6667V34H162.14H159.426H154H151.287H148.573V28.6667H151.287H154V12.6667V7.33333H151.287H148.573V2H151.287H154H156.713H159.426H162.14H164.853V7.33333H162.14H159.426V28.6667H162.14H164.853Z" stroke="url(#paint15_linear_2521_140898)" stroke-width="3" mask="url(#path-1-outside-1_2521_140898)"/>
<path d="M202.853 12.6667V4.66667V2H208.28V4.66667V7.33333V28.6667V34H202.853V28.6667H200.14V26H197.426V23.3333H194.713V20.6667H192V18H189.287V15.3333H186.574V12.6667H183.86V20.6667V34H181.147H178.434V31.3333V28.6667V26V20.6667V18V15.3333V12.6667V10V7.33333V4.66667V2H181.147H183.86V4.66667H186.574V7.33333H189.287V10H192V12.6667H194.713V15.3333H197.426V18H200.14V20.6667H202.853V12.6667Z" stroke="url(#paint16_linear_2521_140898)" stroke-width="3" mask="url(#path-1-outside-1_2521_140898)"/>
<path d="M227.287 7.33333H224.573H221.86V10H219.147V12.6667V15.3333V20.6667V23.3333V26H221.86V28.6667H224.573H227.287H230H232.713H235.426V26H238.14V23.3333V20.6667H227.287H224.573V15.3333H227.287H238.14H243.566V23.3333V26V28.6667H240.853V31.3333H238.14V34H230H227.287H219.147V31.3333H216.434V28.6667H213.72V23.3333V20.6667V18V15.3333V7.33333H216.434V4.66667H219.147V2H224.573H227.287H230H240.853V4.66667H243.566V10H238.14V7.33333H232.713H230H227.287Z" stroke="url(#paint17_linear_2521_140898)" stroke-width="3" mask="url(#path-1-outside-1_2521_140898)"/>
<path d="M284.294 7.33333V4.66667V2H287.007H289.72H297.86H308.713V4.66667H311.426V7.33333H314.14V12.6667V15.3333V18H311.426V20.6667H308.713V23.3333V26H311.426V28.6667H314.14V31.3333V34H308.713V31.3333H306V28.6667H303.287V26H300.573V23.3333H297.86H289.72V34H284.294V23.3333V20.6667V18V15.3333V12.6667V10V7.33333ZM297.86 7.33333H292.434H289.72V15.3333V18H292.434H295.147H297.86H300.573H303.287H306V15.3333H308.713V12.6667V10H306V7.33333H303.287H300.573H297.86Z" stroke="url(#paint18_linear_2521_140898)" stroke-width="3" mask="url(#path-1-outside-1_2521_140898)"/>
<path d="M333.147 7.33333H330.434H327.72V10H325.007V12.6667V15.3333V20.6667V23.3333V26H327.72V28.6667H330.434H333.147H335.86H338.574H341.287V26H344V23.3333V20.6667V12.6667V10H341.287V7.33333H338.574H335.86H333.147ZM349.427 20.6667V28.6667H346.713V31.3333H344V34H335.86H333.147H325.007V31.3333H322.294V28.6667H319.581V23.3333V20.6667V18V15.3333V7.33333H322.294V4.66667H325.007V2H330.434H333.147H335.86H344V4.66667H346.713V7.33333H349.427V12.6667V20.6667Z" stroke="url(#paint19_linear_2521_140898)" stroke-width="3" mask="url(#path-1-outside-1_2521_140898)"/>
<path d="M368.434 7.33333H365.72H363.007V10H360.294V12.6667V15.3333V20.6667V23.3333V26H363.007V28.6667H365.72H368.434H371.147H373.86H376.574V26H379.287V23.3333V20.6667V12.6667V10H376.574V7.33333H373.86H371.147H368.434ZM384.713 20.6667V28.6667H382V31.3333H379.287V34H371.147H368.434H360.294V31.3333H357.581V28.6667H354.867V23.3333V20.6667V18V15.3333V7.33333H357.581V4.66667H360.294V2H365.72H368.434H371.147H379.287V4.66667H382V7.33333H384.713V12.6667V20.6667Z" stroke="url(#paint20_linear_2521_140898)" stroke-width="3" mask="url(#path-1-outside-1_2521_140898)"/>
<path d="M395.581 20.6667V34H392.867H390.154V31.3333V28.6667V26V20.6667V18V15.3333V12.6667V10V7.33333V4.66667V2H392.867H395.581V4.66667H398.294V7.33333H401.007V10H403.72V12.6667H406.434V10H409.147V7.33333H411.86V4.66667H414.573V2H420V4.66667V7.33333V28.6667V34H414.573V20.6667V12.6667H411.86V15.3333H409.147V18H406.434V20.6667H403.72V18H401.007V15.3333H398.294V12.6667H395.581V20.6667Z" stroke="url(#paint21_linear_2521_140898)" stroke-width="3" mask="url(#path-1-outside-1_2521_140898)"/>
<defs>
<linearGradient id="paint0_linear_2521_140898" x1="211" y1="2" x2="211" y2="34" gradientUnits="userSpaceOnUse">
<stop stop-color="#FF7C06"/>
<stop offset="1" stop-color="#E45C00"/>
</linearGradient>
<linearGradient id="paint1_linear_2521_140898" x1="211" y1="2" x2="211" y2="34" gradientUnits="userSpaceOnUse">
<stop stop-color="#FF7C06"/>
<stop offset="1" stop-color="#E45C00"/>
</linearGradient>
<linearGradient id="paint2_linear_2521_140898" x1="211" y1="2" x2="211" y2="34" gradientUnits="userSpaceOnUse">
<stop stop-color="#FF7C06"/>
<stop offset="1" stop-color="#E45C00"/>
</linearGradient>
<linearGradient id="paint3_linear_2521_140898" x1="211" y1="2" x2="211" y2="34" gradientUnits="userSpaceOnUse">
<stop stop-color="#FF7C06"/>
<stop offset="1" stop-color="#E45C00"/>
</linearGradient>
<linearGradient id="paint4_linear_2521_140898" x1="211" y1="2" x2="211" y2="34" gradientUnits="userSpaceOnUse">
<stop stop-color="#FF7C06"/>
<stop offset="1" stop-color="#E45C00"/>
</linearGradient>
<linearGradient id="paint5_linear_2521_140898" x1="211" y1="2" x2="211" y2="34" gradientUnits="userSpaceOnUse">
<stop stop-color="#FF7C06"/>
<stop offset="1" stop-color="#E45C00"/>
</linearGradient>
<linearGradient id="paint6_linear_2521_140898" x1="211" y1="2" x2="211" y2="34" gradientUnits="userSpaceOnUse">
<stop stop-color="#FF7C06"/>
<stop offset="1" stop-color="#E45C00"/>
</linearGradient>
<linearGradient id="paint7_linear_2521_140898" x1="211" y1="2" x2="211" y2="34" gradientUnits="userSpaceOnUse">
<stop stop-color="#FF7C06"/>
<stop offset="1" stop-color="#E45C00"/>
</linearGradient>
<linearGradient id="paint8_linear_2521_140898" x1="211" y1="2" x2="211" y2="34" gradientUnits="userSpaceOnUse">
<stop stop-color="#FF7C06"/>
<stop offset="1" stop-color="#E45C00"/>
</linearGradient>
<linearGradient id="paint9_linear_2521_140898" x1="211" y1="2" x2="211" y2="34" gradientUnits="userSpaceOnUse">
<stop stop-color="#FF7C06"/>
<stop offset="1" stop-color="#E45C00"/>
</linearGradient>
<linearGradient id="paint10_linear_2521_140898" x1="211" y1="2" x2="211" y2="34" gradientUnits="userSpaceOnUse">
<stop stop-color="#FF7C06"/>
<stop offset="1" stop-color="#E45C00"/>
</linearGradient>
<linearGradient id="paint11_linear_2521_140898" x1="211" y1="2" x2="211" y2="34" gradientUnits="userSpaceOnUse">
<stop stop-color="#FF7C06"/>
<stop offset="1" stop-color="#E45C00"/>
</linearGradient>
<linearGradient id="paint12_linear_2521_140898" x1="211" y1="2" x2="211" y2="34" gradientUnits="userSpaceOnUse">
<stop stop-color="#FF7C06"/>
<stop offset="1" stop-color="#E45C00"/>
</linearGradient>
<linearGradient id="paint13_linear_2521_140898" x1="211" y1="2" x2="211" y2="34" gradientUnits="userSpaceOnUse">
<stop stop-color="#FF7C06"/>
<stop offset="1" stop-color="#E45C00"/>
</linearGradient>
<linearGradient id="paint14_linear_2521_140898" x1="211" y1="2" x2="211" y2="34" gradientUnits="userSpaceOnUse">
<stop stop-color="#FF7C06"/>
<stop offset="1" stop-color="#E45C00"/>
</linearGradient>
<linearGradient id="paint15_linear_2521_140898" x1="211" y1="2" x2="211" y2="34" gradientUnits="userSpaceOnUse">
<stop stop-color="#FF7C06"/>
<stop offset="1" stop-color="#E45C00"/>
</linearGradient>
<linearGradient id="paint16_linear_2521_140898" x1="211" y1="2" x2="211" y2="34" gradientUnits="userSpaceOnUse">
<stop stop-color="#FF7C06"/>
<stop offset="1" stop-color="#E45C00"/>
</linearGradient>
<linearGradient id="paint17_linear_2521_140898" x1="211" y1="2" x2="211" y2="34" gradientUnits="userSpaceOnUse">
<stop stop-color="#FF7C06"/>
<stop offset="1" stop-color="#E45C00"/>
</linearGradient>
<linearGradient id="paint18_linear_2521_140898" x1="211" y1="2" x2="211" y2="34" gradientUnits="userSpaceOnUse">
<stop stop-color="#FF7C06"/>
<stop offset="1" stop-color="#E45C00"/>
</linearGradient>
<linearGradient id="paint19_linear_2521_140898" x1="211" y1="2" x2="211" y2="34" gradientUnits="userSpaceOnUse">
<stop stop-color="#FF7C06"/>
<stop offset="1" stop-color="#E45C00"/>
</linearGradient>
<linearGradient id="paint20_linear_2521_140898" x1="211" y1="2" x2="211" y2="34" gradientUnits="userSpaceOnUse">
<stop stop-color="#FF7C06"/>
<stop offset="1" stop-color="#E45C00"/>
</linearGradient>
<linearGradient id="paint21_linear_2521_140898" x1="211" y1="2" x2="211" y2="34" gradientUnits="userSpaceOnUse">
<stop stop-color="#FF7C06"/>
<stop offset="1" stop-color="#E45C00"/>
</linearGradient>
</defs>
</svg>
