<svg width="269" height="24" viewBox="0 0 269 24" fill="none" xmlns="http://www.w3.org/2000/svg">
<mask id="path-1-outside-1_3300_77089" maskUnits="userSpaceOnUse" x="-0.367188" y="0" width="270" height="24" fill="black">
<rect fill="white" x="-0.367188" width="270" height="24"/>
<path d="M1.63281 5.33333V3.66667V2H3.35943H5.08604H10.2659H20.6256V5.33333H18.899H17.1724H13.7191H11.9925H10.2659H6.81266H5.08604V10.3333H17.1724V13.6667H5.08604V22H3.35943H1.63281V20.3333V18.6667V17V13.6667V12V10.3333V8.66667V7V5.33333Z"/>
<path d="M37.9009 18.6667V22H36.1743H34.4477H30.9945H29.2679H27.5412V18.6667H29.2679H30.9945V8.66667V5.33333H29.2679H27.5412V2H29.2679H30.9945H32.7211H34.4477H36.1743H37.9009V5.33333H36.1743H34.4477V18.6667H36.1743H37.9009Z"/>
<path d="M46.5432 5.33333V3.66667V2H48.2698H49.9965H55.1763H63.8094V5.33333H62.0828H60.3561H56.9029V13.6667V22H53.4497V13.6667V5.33333H51.7231H46.5432Z"/>
<path d="M68.9984 5.33333V3.66667V2H70.725H72.4517H77.6315H86.2646V5.33333H84.538H82.8113H79.3581V13.6667V22H75.9049V13.6667V5.33333H74.1783H68.9984Z"/>
<path d="M105.267 18.6667V22H103.54H101.813H98.3601H96.6335H94.9069V18.6667H96.6335H98.3601V8.66667V5.33333H96.6335H94.9069V2H96.6335H98.3601H100.087H101.813H103.54H105.267V5.33333H103.54H101.813V18.6667H103.54H105.267Z"/>
<path d="M129.448 8.66667V3.66667V2H132.902V3.66667V5.33333V18.6667V22H129.448V18.6667H127.722V17H125.995V15.3333H124.269V13.6667H122.542V12H120.815V10.3333H119.089V8.66667H117.362V13.6667V22H115.635H113.909V20.3333V18.6667V17V13.6667V12V10.3333V8.66667V7V5.33333V3.66667V2H115.635H117.362V3.66667H119.089V5.33333H120.815V7H122.542V8.66667H124.269V10.3333H125.995V12H127.722V13.6667H129.448V8.66667Z"/>
<path d="M144.997 5.33333H143.27H141.544V7H139.817V8.66667V10.3333V13.6667V15.3333V17H141.544V18.6667H143.27H144.997H146.724H148.45H150.177V17H151.904V15.3333V13.6667H144.997H143.27V10.3333H144.997H151.904H155.357V15.3333V17V18.6667H153.63V20.3333H151.904V22H146.724H144.997H139.817V20.3333H138.091V18.6667H136.364V15.3333V13.6667V12V10.3333V5.33333H138.091V3.66667H139.817V2H143.27H144.997H146.724H153.63V3.66667H155.357V7H151.904V5.33333H148.45H146.724H144.997Z"/>
<path d="M181.274 5.33333V3.66667V2H183.001H184.728H189.908H196.814V3.66667H198.541V5.33333H200.267V8.66667V10.3333V12H198.541V13.6667H196.814V15.3333V17H198.541V18.6667H200.267V20.3333V22H196.814V20.3333H195.087V18.6667H193.361V17H191.634V15.3333H189.908H184.728V22H181.274V15.3333V13.6667V12V10.3333V8.66667V7V5.33333ZM189.908 5.33333H186.454H184.728V10.3333V12H186.454H188.181H189.908H191.634H193.361H195.087V10.3333H196.814V8.66667V7H195.087V5.33333H193.361H191.634H189.908Z"/>
<path d="M212.363 5.33333H210.636H208.909V7H207.183V8.66667V10.3333V13.6667V15.3333V17H208.909V18.6667H210.636H212.363H214.089H215.816H217.543V17H219.269V15.3333V13.6667V8.66667V7H217.543V5.33333H215.816H214.089H212.363ZM222.722 13.6667V18.6667H220.996V20.3333H219.269V22H214.089H212.363H207.183V20.3333H205.456V18.6667H203.73V15.3333V13.6667V12V10.3333V5.33333H205.456V3.66667H207.183V2H210.636H212.363H214.089H219.269V3.66667H220.996V5.33333H222.722V8.66667V13.6667Z"/>
<path d="M234.818 5.33333H233.091H231.365V7H229.638V8.66667V10.3333V13.6667V15.3333V17H231.365V18.6667H233.091H234.818H236.545H238.271H239.998V17H241.724V15.3333V13.6667V8.66667V7H239.998V5.33333H238.271H236.545H234.818ZM245.178 13.6667V18.6667H243.451V20.3333H241.724V22H236.545H234.818H229.638V20.3333H227.911V18.6667H226.185V15.3333V13.6667V12V10.3333V5.33333H227.911V3.66667H229.638V2H233.091H234.818H236.545H241.724V3.66667H243.451V5.33333H245.178V8.66667V13.6667Z"/>
<path d="M252.093 13.6667V22H250.367H248.64V20.3333V18.6667V17V13.6667V12V10.3333V8.66667V7V5.33333V3.66667V2H250.367H252.093V3.66667H253.82V5.33333H255.547V7H257.273V8.66667H259V7H260.726V5.33333H262.453V3.66667H264.18V2H267.633V3.66667V5.33333V18.6667V22H264.18V13.6667V8.66667H262.453V10.3333H260.726V12H259V13.6667H257.273V12H255.547V10.3333H253.82V8.66667H252.093V13.6667Z"/>
</mask>
<path d="M1.63281 5.33333V3.66667V2H3.35943H5.08604H10.2659H20.6256V5.33333H18.899H17.1724H13.7191H11.9925H10.2659H6.81266H5.08604V10.3333H17.1724V13.6667H5.08604V22H3.35943H1.63281V20.3333V18.6667V17V13.6667V12V10.3333V8.66667V7V5.33333Z" fill="url(#paint0_linear_3300_77089)"/>
<path d="M37.9009 18.6667V22H36.1743H34.4477H30.9945H29.2679H27.5412V18.6667H29.2679H30.9945V8.66667V5.33333H29.2679H27.5412V2H29.2679H30.9945H32.7211H34.4477H36.1743H37.9009V5.33333H36.1743H34.4477V18.6667H36.1743H37.9009Z" fill="url(#paint1_linear_3300_77089)"/>
<path d="M46.5432 5.33333V3.66667V2H48.2698H49.9965H55.1763H63.8094V5.33333H62.0828H60.3561H56.9029V13.6667V22H53.4497V13.6667V5.33333H51.7231H46.5432Z" fill="url(#paint2_linear_3300_77089)"/>
<path d="M68.9984 5.33333V3.66667V2H70.725H72.4517H77.6315H86.2646V5.33333H84.538H82.8113H79.3581V13.6667V22H75.9049V13.6667V5.33333H74.1783H68.9984Z" fill="url(#paint3_linear_3300_77089)"/>
<path d="M105.267 18.6667V22H103.54H101.813H98.3601H96.6335H94.9069V18.6667H96.6335H98.3601V8.66667V5.33333H96.6335H94.9069V2H96.6335H98.3601H100.087H101.813H103.54H105.267V5.33333H103.54H101.813V18.6667H103.54H105.267Z" fill="url(#paint4_linear_3300_77089)"/>
<path d="M129.448 8.66667V3.66667V2H132.902V3.66667V5.33333V18.6667V22H129.448V18.6667H127.722V17H125.995V15.3333H124.269V13.6667H122.542V12H120.815V10.3333H119.089V8.66667H117.362V13.6667V22H115.635H113.909V20.3333V18.6667V17V13.6667V12V10.3333V8.66667V7V5.33333V3.66667V2H115.635H117.362V3.66667H119.089V5.33333H120.815V7H122.542V8.66667H124.269V10.3333H125.995V12H127.722V13.6667H129.448V8.66667Z" fill="url(#paint5_linear_3300_77089)"/>
<path d="M144.997 5.33333H143.27H141.544V7H139.817V8.66667V10.3333V13.6667V15.3333V17H141.544V18.6667H143.27H144.997H146.724H148.45H150.177V17H151.904V15.3333V13.6667H144.997H143.27V10.3333H144.997H151.904H155.357V15.3333V17V18.6667H153.63V20.3333H151.904V22H146.724H144.997H139.817V20.3333H138.091V18.6667H136.364V15.3333V13.6667V12V10.3333V5.33333H138.091V3.66667H139.817V2H143.27H144.997H146.724H153.63V3.66667H155.357V7H151.904V5.33333H148.45H146.724H144.997Z" fill="url(#paint6_linear_3300_77089)"/>
<path d="M181.274 5.33333V3.66667V2H183.001H184.728H189.908H196.814V3.66667H198.541V5.33333H200.267V8.66667V10.3333V12H198.541V13.6667H196.814V15.3333V17H198.541V18.6667H200.267V20.3333V22H196.814V20.3333H195.087V18.6667H193.361V17H191.634V15.3333H189.908H184.728V22H181.274V15.3333V13.6667V12V10.3333V8.66667V7V5.33333ZM189.908 5.33333H186.454H184.728V10.3333V12H186.454H188.181H189.908H191.634H193.361H195.087V10.3333H196.814V8.66667V7H195.087V5.33333H193.361H191.634H189.908Z" fill="url(#paint7_linear_3300_77089)"/>
<path d="M212.363 5.33333H210.636H208.909V7H207.183V8.66667V10.3333V13.6667V15.3333V17H208.909V18.6667H210.636H212.363H214.089H215.816H217.543V17H219.269V15.3333V13.6667V8.66667V7H217.543V5.33333H215.816H214.089H212.363ZM222.722 13.6667V18.6667H220.996V20.3333H219.269V22H214.089H212.363H207.183V20.3333H205.456V18.6667H203.73V15.3333V13.6667V12V10.3333V5.33333H205.456V3.66667H207.183V2H210.636H212.363H214.089H219.269V3.66667H220.996V5.33333H222.722V8.66667V13.6667Z" fill="url(#paint8_linear_3300_77089)"/>
<path d="M234.818 5.33333H233.091H231.365V7H229.638V8.66667V10.3333V13.6667V15.3333V17H231.365V18.6667H233.091H234.818H236.545H238.271H239.998V17H241.724V15.3333V13.6667V8.66667V7H239.998V5.33333H238.271H236.545H234.818ZM245.178 13.6667V18.6667H243.451V20.3333H241.724V22H236.545H234.818H229.638V20.3333H227.911V18.6667H226.185V15.3333V13.6667V12V10.3333V5.33333H227.911V3.66667H229.638V2H233.091H234.818H236.545H241.724V3.66667H243.451V5.33333H245.178V8.66667V13.6667Z" fill="url(#paint9_linear_3300_77089)"/>
<path d="M252.093 13.6667V22H250.367H248.64V20.3333V18.6667V17V13.6667V12V10.3333V8.66667V7V5.33333V3.66667V2H250.367H252.093V3.66667H253.82V5.33333H255.547V7H257.273V8.66667H259V7H260.726V5.33333H262.453V3.66667H264.18V2H267.633V3.66667V5.33333V18.6667V22H264.18V13.6667V8.66667H262.453V10.3333H260.726V12H259V13.6667H257.273V12H255.547V10.3333H253.82V8.66667H252.093V13.6667Z" fill="url(#paint10_linear_3300_77089)"/>
<path d="M1.63281 5.33333V3.66667V2H3.35943H5.08604H10.2659H20.6256V5.33333H18.899H17.1724H13.7191H11.9925H10.2659H6.81266H5.08604V10.3333H17.1724V13.6667H5.08604V22H3.35943H1.63281V20.3333V18.6667V17V13.6667V12V10.3333V8.66667V7V5.33333Z" stroke="url(#paint11_linear_3300_77089)" stroke-width="2.03425" mask="url(#path-1-outside-1_3300_77089)"/>
<path d="M37.9009 18.6667V22H36.1743H34.4477H30.9945H29.2679H27.5412V18.6667H29.2679H30.9945V8.66667V5.33333H29.2679H27.5412V2H29.2679H30.9945H32.7211H34.4477H36.1743H37.9009V5.33333H36.1743H34.4477V18.6667H36.1743H37.9009Z" stroke="url(#paint12_linear_3300_77089)" stroke-width="2.03425" mask="url(#path-1-outside-1_3300_77089)"/>
<path d="M46.5432 5.33333V3.66667V2H48.2698H49.9965H55.1763H63.8094V5.33333H62.0828H60.3561H56.9029V13.6667V22H53.4497V13.6667V5.33333H51.7231H46.5432Z" stroke="url(#paint13_linear_3300_77089)" stroke-width="2.03425" mask="url(#path-1-outside-1_3300_77089)"/>
<path d="M68.9984 5.33333V3.66667V2H70.725H72.4517H77.6315H86.2646V5.33333H84.538H82.8113H79.3581V13.6667V22H75.9049V13.6667V5.33333H74.1783H68.9984Z" stroke="url(#paint14_linear_3300_77089)" stroke-width="2.03425" mask="url(#path-1-outside-1_3300_77089)"/>
<path d="M105.267 18.6667V22H103.54H101.813H98.3601H96.6335H94.9069V18.6667H96.6335H98.3601V8.66667V5.33333H96.6335H94.9069V2H96.6335H98.3601H100.087H101.813H103.54H105.267V5.33333H103.54H101.813V18.6667H103.54H105.267Z" stroke="url(#paint15_linear_3300_77089)" stroke-width="2.03425" mask="url(#path-1-outside-1_3300_77089)"/>
<path d="M129.448 8.66667V3.66667V2H132.902V3.66667V5.33333V18.6667V22H129.448V18.6667H127.722V17H125.995V15.3333H124.269V13.6667H122.542V12H120.815V10.3333H119.089V8.66667H117.362V13.6667V22H115.635H113.909V20.3333V18.6667V17V13.6667V12V10.3333V8.66667V7V5.33333V3.66667V2H115.635H117.362V3.66667H119.089V5.33333H120.815V7H122.542V8.66667H124.269V10.3333H125.995V12H127.722V13.6667H129.448V8.66667Z" stroke="url(#paint16_linear_3300_77089)" stroke-width="2.03425" mask="url(#path-1-outside-1_3300_77089)"/>
<path d="M144.997 5.33333H143.27H141.544V7H139.817V8.66667V10.3333V13.6667V15.3333V17H141.544V18.6667H143.27H144.997H146.724H148.45H150.177V17H151.904V15.3333V13.6667H144.997H143.27V10.3333H144.997H151.904H155.357V15.3333V17V18.6667H153.63V20.3333H151.904V22H146.724H144.997H139.817V20.3333H138.091V18.6667H136.364V15.3333V13.6667V12V10.3333V5.33333H138.091V3.66667H139.817V2H143.27H144.997H146.724H153.63V3.66667H155.357V7H151.904V5.33333H148.45H146.724H144.997Z" stroke="url(#paint17_linear_3300_77089)" stroke-width="2.03425" mask="url(#path-1-outside-1_3300_77089)"/>
<path d="M181.274 5.33333V3.66667V2H183.001H184.728H189.908H196.814V3.66667H198.541V5.33333H200.267V8.66667V10.3333V12H198.541V13.6667H196.814V15.3333V17H198.541V18.6667H200.267V20.3333V22H196.814V20.3333H195.087V18.6667H193.361V17H191.634V15.3333H189.908H184.728V22H181.274V15.3333V13.6667V12V10.3333V8.66667V7V5.33333ZM189.908 5.33333H186.454H184.728V10.3333V12H186.454H188.181H189.908H191.634H193.361H195.087V10.3333H196.814V8.66667V7H195.087V5.33333H193.361H191.634H189.908Z" stroke="url(#paint18_linear_3300_77089)" stroke-width="2.03425" mask="url(#path-1-outside-1_3300_77089)"/>
<path d="M212.363 5.33333H210.636H208.909V7H207.183V8.66667V10.3333V13.6667V15.3333V17H208.909V18.6667H210.636H212.363H214.089H215.816H217.543V17H219.269V15.3333V13.6667V8.66667V7H217.543V5.33333H215.816H214.089H212.363ZM222.722 13.6667V18.6667H220.996V20.3333H219.269V22H214.089H212.363H207.183V20.3333H205.456V18.6667H203.73V15.3333V13.6667V12V10.3333V5.33333H205.456V3.66667H207.183V2H210.636H212.363H214.089H219.269V3.66667H220.996V5.33333H222.722V8.66667V13.6667Z" stroke="url(#paint19_linear_3300_77089)" stroke-width="2.03425" mask="url(#path-1-outside-1_3300_77089)"/>
<path d="M234.818 5.33333H233.091H231.365V7H229.638V8.66667V10.3333V13.6667V15.3333V17H231.365V18.6667H233.091H234.818H236.545H238.271H239.998V17H241.724V15.3333V13.6667V8.66667V7H239.998V5.33333H238.271H236.545H234.818ZM245.178 13.6667V18.6667H243.451V20.3333H241.724V22H236.545H234.818H229.638V20.3333H227.911V18.6667H226.185V15.3333V13.6667V12V10.3333V5.33333H227.911V3.66667H229.638V2H233.091H234.818H236.545H241.724V3.66667H243.451V5.33333H245.178V8.66667V13.6667Z" stroke="url(#paint20_linear_3300_77089)" stroke-width="2.03425" mask="url(#path-1-outside-1_3300_77089)"/>
<path d="M252.093 13.6667V22H250.367H248.64V20.3333V18.6667V17V13.6667V12V10.3333V8.66667V7V5.33333V3.66667V2H250.367H252.093V3.66667H253.82V5.33333H255.547V7H257.273V8.66667H259V7H260.726V5.33333H262.453V3.66667H264.18V2H267.633V3.66667V5.33333V18.6667V22H264.18V13.6667V8.66667H262.453V10.3333H260.726V12H259V13.6667H257.273V12H255.547V10.3333H253.82V8.66667H252.093V13.6667Z" stroke="url(#paint21_linear_3300_77089)" stroke-width="2.03425" mask="url(#path-1-outside-1_3300_77089)"/>
<defs>
<linearGradient id="paint0_linear_3300_77089" x1="134.633" y1="2" x2="134.633" y2="22" gradientUnits="userSpaceOnUse">
<stop stop-color="#FF7C06"/>
<stop offset="1" stop-color="#E45C00"/>
</linearGradient>
<linearGradient id="paint1_linear_3300_77089" x1="134.633" y1="2" x2="134.633" y2="22" gradientUnits="userSpaceOnUse">
<stop stop-color="#FF7C06"/>
<stop offset="1" stop-color="#E45C00"/>
</linearGradient>
<linearGradient id="paint2_linear_3300_77089" x1="134.633" y1="2" x2="134.633" y2="22" gradientUnits="userSpaceOnUse">
<stop stop-color="#FF7C06"/>
<stop offset="1" stop-color="#E45C00"/>
</linearGradient>
<linearGradient id="paint3_linear_3300_77089" x1="134.633" y1="2" x2="134.633" y2="22" gradientUnits="userSpaceOnUse">
<stop stop-color="#FF7C06"/>
<stop offset="1" stop-color="#E45C00"/>
</linearGradient>
<linearGradient id="paint4_linear_3300_77089" x1="134.633" y1="2" x2="134.633" y2="22" gradientUnits="userSpaceOnUse">
<stop stop-color="#FF7C06"/>
<stop offset="1" stop-color="#E45C00"/>
</linearGradient>
<linearGradient id="paint5_linear_3300_77089" x1="134.633" y1="2" x2="134.633" y2="22" gradientUnits="userSpaceOnUse">
<stop stop-color="#FF7C06"/>
<stop offset="1" stop-color="#E45C00"/>
</linearGradient>
<linearGradient id="paint6_linear_3300_77089" x1="134.633" y1="2" x2="134.633" y2="22" gradientUnits="userSpaceOnUse">
<stop stop-color="#FF7C06"/>
<stop offset="1" stop-color="#E45C00"/>
</linearGradient>
<linearGradient id="paint7_linear_3300_77089" x1="134.633" y1="2" x2="134.633" y2="22" gradientUnits="userSpaceOnUse">
<stop stop-color="#FF7C06"/>
<stop offset="1" stop-color="#E45C00"/>
</linearGradient>
<linearGradient id="paint8_linear_3300_77089" x1="134.633" y1="2" x2="134.633" y2="22" gradientUnits="userSpaceOnUse">
<stop stop-color="#FF7C06"/>
<stop offset="1" stop-color="#E45C00"/>
</linearGradient>
<linearGradient id="paint9_linear_3300_77089" x1="134.633" y1="2" x2="134.633" y2="22" gradientUnits="userSpaceOnUse">
<stop stop-color="#FF7C06"/>
<stop offset="1" stop-color="#E45C00"/>
</linearGradient>
<linearGradient id="paint10_linear_3300_77089" x1="134.633" y1="2" x2="134.633" y2="22" gradientUnits="userSpaceOnUse">
<stop stop-color="#FF7C06"/>
<stop offset="1" stop-color="#E45C00"/>
</linearGradient>
<linearGradient id="paint11_linear_3300_77089" x1="134.633" y1="2" x2="134.633" y2="22" gradientUnits="userSpaceOnUse">
<stop stop-color="#FF7C06"/>
<stop offset="1" stop-color="#E45C00"/>
</linearGradient>
<linearGradient id="paint12_linear_3300_77089" x1="134.633" y1="2" x2="134.633" y2="22" gradientUnits="userSpaceOnUse">
<stop stop-color="#FF7C06"/>
<stop offset="1" stop-color="#E45C00"/>
</linearGradient>
<linearGradient id="paint13_linear_3300_77089" x1="134.633" y1="2" x2="134.633" y2="22" gradientUnits="userSpaceOnUse">
<stop stop-color="#FF7C06"/>
<stop offset="1" stop-color="#E45C00"/>
</linearGradient>
<linearGradient id="paint14_linear_3300_77089" x1="134.633" y1="2" x2="134.633" y2="22" gradientUnits="userSpaceOnUse">
<stop stop-color="#FF7C06"/>
<stop offset="1" stop-color="#E45C00"/>
</linearGradient>
<linearGradient id="paint15_linear_3300_77089" x1="134.633" y1="2" x2="134.633" y2="22" gradientUnits="userSpaceOnUse">
<stop stop-color="#FF7C06"/>
<stop offset="1" stop-color="#E45C00"/>
</linearGradient>
<linearGradient id="paint16_linear_3300_77089" x1="134.633" y1="2" x2="134.633" y2="22" gradientUnits="userSpaceOnUse">
<stop stop-color="#FF7C06"/>
<stop offset="1" stop-color="#E45C00"/>
</linearGradient>
<linearGradient id="paint17_linear_3300_77089" x1="134.633" y1="2" x2="134.633" y2="22" gradientUnits="userSpaceOnUse">
<stop stop-color="#FF7C06"/>
<stop offset="1" stop-color="#E45C00"/>
</linearGradient>
<linearGradient id="paint18_linear_3300_77089" x1="134.633" y1="2" x2="134.633" y2="22" gradientUnits="userSpaceOnUse">
<stop stop-color="#FF7C06"/>
<stop offset="1" stop-color="#E45C00"/>
</linearGradient>
<linearGradient id="paint19_linear_3300_77089" x1="134.633" y1="2" x2="134.633" y2="22" gradientUnits="userSpaceOnUse">
<stop stop-color="#FF7C06"/>
<stop offset="1" stop-color="#E45C00"/>
</linearGradient>
<linearGradient id="paint20_linear_3300_77089" x1="134.633" y1="2" x2="134.633" y2="22" gradientUnits="userSpaceOnUse">
<stop stop-color="#FF7C06"/>
<stop offset="1" stop-color="#E45C00"/>
</linearGradient>
<linearGradient id="paint21_linear_3300_77089" x1="134.633" y1="2" x2="134.633" y2="22" gradientUnits="userSpaceOnUse">
<stop stop-color="#FF7C06"/>
<stop offset="1" stop-color="#E45C00"/>
</linearGradient>
</defs>
</svg>
