<svg width="94" height="92" viewBox="0 0 94 92" fill="none" xmlns="http://www.w3.org/2000/svg">
<g clip-path="url(#clip0_1340_5020)" filter="url(#filter0_d_1340_5020)">
<path d="M63.0874 1H66.3203V4.26665H63.0874V1Z" fill="#181425"/>
<path d="M59.853 1H63.0859V4.26665H59.853V1Z" fill="#181425"/>
<path d="M56.6226 1H59.8555V4.26665H56.6226V1Z" fill="#181425"/>
<path d="M53.3882 1H56.6211V4.26665H53.3882V1Z" fill="#181425"/>
<path d="M50.1538 1H53.3867V4.26665H50.1538V1Z" fill="#181425"/>
<path d="M46.9233 1H50.1562V4.26665H46.9233V1Z" fill="#181425"/>
<path d="M43.689 1H46.9219V4.26665H43.689V1Z" fill="#181425"/>
<path d="M40.5093 1H43.7422V4.26665H40.5093V1Z" fill="#181425"/>
<path d="M37.2749 1H40.5078V4.26665H37.2749V1Z" fill="#181425"/>
<path d="M69.5522 4.2666H72.7852V7.53325H69.5522V4.2666Z" fill="#181425"/>
<path d="M66.3218 4.2666H69.5547V7.53325H66.3218V4.2666Z" fill="#181425"/>
<path d="M63.0874 4.2666H66.3203V7.53325H63.0874V4.2666Z" fill="#E45C00"/>
<path d="M59.853 4.2666H63.0859V7.53325H59.853V4.2666Z" fill="#181425"/>
<path d="M56.6226 4.2666H59.8555V7.53325H56.6226V4.2666Z" fill="#181425"/>
<path d="M53.3882 4.2666H56.6211V7.53325H53.3882V4.2666Z" fill="#E45C00"/>
<path d="M50.1538 4.2666H53.3867V7.53325H50.1538V4.2666Z" fill="#E45C00"/>
<path d="M46.9233 4.2666H50.1562V7.53325H46.9233V4.2666Z" fill="#E45C00"/>
<path d="M43.689 4.2666H46.9219V7.53325H43.689V4.2666Z" fill="#FF7C06"/>
<path d="M40.5093 4.2666H43.7422V7.53325H40.5093V4.2666Z" fill="#FF7C06"/>
<path d="M37.2749 4.2666H40.5078V7.53325H37.2749V4.2666Z" fill="#181425"/>
<path d="M34.0444 4.2666H37.2773V7.53325H34.0444V4.2666Z" fill="#181425"/>
<path d="M30.8101 4.2666H34.043V7.53325H30.8101V4.2666Z" fill="#181425"/>
<path d="M72.7358 7.5332H75.9688V10.7999H72.7358V7.5332Z" fill="#181425"/>
<path d="M69.5522 7.5332H72.7852V10.7999H69.5522V7.5332Z" fill="white"/>
<path d="M66.3218 7.5332H69.5547V10.7999H66.3218V7.5332Z" fill="white"/>
<path d="M63.0874 7.5332H66.3203V10.7999H63.0874V7.5332Z" fill="#181425"/>
<path d="M59.853 7.5332H63.0859V10.7999H59.853V7.5332Z" fill="white"/>
<path d="M56.6226 7.5332H59.8555V10.7999H56.6226V7.5332Z" fill="#181425"/>
<path d="M53.3882 7.5332H56.6211V10.7999H53.3882V7.5332Z" fill="#181425"/>
<path d="M50.1538 7.5332H53.3867V10.7999H50.1538V7.5332Z" fill="#181425"/>
<path d="M46.9233 7.5332H50.1562V10.7999H46.9233V7.5332Z" fill="#181425"/>
<path d="M43.689 7.5332H46.9219V10.7999H43.689V7.5332Z" fill="#181425"/>
<path d="M40.5093 7.5332H43.7422V10.7999H40.5093V7.5332Z" fill="#181425"/>
<path d="M37.2749 7.5332H40.5078V10.7999H37.2749V7.5332Z" fill="#181425"/>
<path d="M34.0444 7.5332H37.2773V10.7999H34.0444V7.5332Z" fill="white"/>
<path d="M30.8101 7.5332H34.043V10.7999H30.8101V7.5332Z" fill="white"/>
<path d="M27.5757 7.5332H30.8086V10.7999H27.5757V7.5332Z" fill="#181425"/>
<path d="M75.9663 10.7998H79.1992V14.0665H75.9663V10.7998Z" fill="#181425"/>
<path d="M72.7358 10.7998H75.9688V14.0665H72.7358V10.7998Z" fill="white"/>
<path d="M69.5522 10.7998H72.7852V14.0665H69.5522V10.7998Z" fill="white"/>
<path d="M66.3218 10.7998H69.5547V14.0665H66.3218V10.7998Z" fill="#181425"/>
<path d="M63.0874 10.7998H66.3203V14.0665H63.0874V10.7998Z" fill="white"/>
<path d="M59.853 10.7998H63.0859V14.0665H59.853V10.7998Z" fill="#C6C6C6"/>
<path d="M56.6226 10.7998H59.8555V14.0665H56.6226V10.7998Z" fill="#181425"/>
<path d="M53.3882 10.7998H56.6211V14.0665H53.3882V10.7998Z" fill="#E45C00"/>
<path d="M50.1538 10.7998H53.3867V14.0665H50.1538V10.7998Z" fill="#E45C00"/>
<path d="M46.9233 10.7998H50.1562V14.0665H46.9233V10.7998Z" fill="#FF7C06"/>
<path d="M43.689 10.7998H46.9219V14.0665H43.689V10.7998Z" fill="#FF7C06"/>
<path d="M40.5093 10.7998H43.7422V14.0665H40.5093V10.7998Z" fill="#FF7C06"/>
<path d="M37.2749 10.7998H40.5078V14.0665H37.2749V10.7998Z" fill="#FF7C06"/>
<path d="M34.0444 10.7998H37.2773V14.0665H34.0444V10.7998Z" fill="#181425"/>
<path d="M30.8101 10.7998H34.043V14.0665H30.8101V10.7998Z" fill="#C6C6C6"/>
<path d="M27.5757 10.7998H30.8086V14.0665H27.5757V10.7998Z" fill="white"/>
<path d="M24.3452 10.7998H27.5781V14.0665H24.3452V10.7998Z" fill="#181425"/>
<path d="M79.2007 14.0664H82.4336V17.3331H79.2007V14.0664Z" fill="#181425"/>
<path d="M75.9663 14.0664H79.1992V17.3331H75.9663V14.0664Z" fill="#181425"/>
<path d="M72.7358 14.0664H75.9688V17.3331H72.7358V14.0664Z" fill="#181425"/>
<path d="M69.5522 14.0664H72.7852V17.3331H69.5522V14.0664Z" fill="#181425"/>
<path d="M66.3218 14.0664H69.5547V17.3331H66.3218V14.0664Z" fill="white"/>
<path d="M63.0874 14.0664H66.3203V17.3331H63.0874V14.0664Z" fill="#C6C6C6"/>
<path d="M59.853 14.0664H63.0859V17.3331H59.853V14.0664Z" fill="#181425"/>
<path d="M56.6226 14.0664H59.8555V17.3331H56.6226V14.0664Z" fill="#E45C00"/>
<path d="M53.3882 14.0664H56.6211V17.3331H53.3882V14.0664Z" fill="#FF7C06"/>
<path d="M50.1538 14.0664H53.3867V17.3331H50.1538V14.0664Z" fill="#FF7C06"/>
<path d="M46.9233 14.0664H50.1562V17.3331H46.9233V14.0664Z" fill="#FF7C06"/>
<path d="M43.689 14.0664H46.9219V17.3331H43.689V14.0664Z" fill="#FF7C06"/>
<path d="M40.5093 14.0664H43.7422V17.3331H40.5093V14.0664Z" fill="#FF7C06"/>
<path d="M37.2749 14.0664H40.5078V17.3331H37.2749V14.0664Z" fill="#FF7C06"/>
<path d="M34.0444 14.0664H37.2773V17.3331H34.0444V14.0664Z" fill="#FF7C06"/>
<path d="M30.8101 14.0664H34.043V17.3331H30.8101V14.0664Z" fill="#181425"/>
<path d="M27.5757 14.0664H30.8086V17.3331H27.5757V14.0664Z" fill="white"/>
<path d="M24.3452 14.0664H27.5781V17.3331H24.3452V14.0664Z" fill="#181425"/>
<path d="M21.1108 14.0664H24.3438V17.3331H21.1108V14.0664Z" fill="#181425"/>
<path d="M79.2007 17.2803H82.4336V20.5469H79.2007V17.2803Z" fill="#181425"/>
<path d="M75.9663 17.2803H79.1992V20.5469H75.9663V17.2803Z" fill="#E45C00"/>
<path d="M72.7358 17.2803H75.9688V20.5469H72.7358V17.2803Z" fill="#E45C00"/>
<path d="M69.5522 17.2803H72.7852V20.5469H69.5522V17.2803Z" fill="#181425"/>
<path d="M66.3218 17.2803H69.5547V20.5469H66.3218V17.2803Z" fill="#181425"/>
<path d="M63.0874 17.2803H66.3203V20.5469H63.0874V17.2803Z" fill="#181425"/>
<path d="M59.853 17.2803H63.0859V20.5469H59.853V17.2803Z" fill="#E45C00"/>
<path d="M56.6226 17.2803H59.8555V20.5469H56.6226V17.2803Z" fill="#FF7C06"/>
<path d="M53.3882 17.2803H56.6211V20.5469H53.3882V17.2803Z" fill="#181425"/>
<path d="M50.1538 17.2803H53.3867V20.5469H50.1538V17.2803Z" fill="#181425"/>
<path d="M46.9233 17.2803H50.1562V20.5469H46.9233V17.2803Z" fill="#FF7C06"/>
<path d="M43.689 17.2803H46.9219V20.5469H43.689V17.2803Z" fill="#FF7C06"/>
<path d="M40.5093 17.2803H43.7422V20.5469H40.5093V17.2803Z" fill="#FF7C06"/>
<path d="M37.2749 17.2803H40.5078V20.5469H37.2749V17.2803Z" fill="#FF7C06"/>
<path d="M34.0444 17.2803H37.2773V20.5469H34.0444V17.2803Z" fill="#181425"/>
<path d="M30.8101 17.2803H34.043V20.5469H30.8101V17.2803Z" fill="#FF7C06"/>
<path d="M27.5757 17.2803H30.8086V20.5469H27.5757V17.2803Z" fill="#181425"/>
<path d="M24.3452 17.2803H27.5781V20.5469H24.3452V17.2803Z" fill="#FF7C06"/>
<path d="M21.1108 17.2803H24.3438V20.5469H21.1108V17.2803Z" fill="#181425"/>
<path d="M82.4312 20.5469H85.6641V23.8135H82.4312V20.5469Z" fill="#181425"/>
<path d="M79.2007 20.5469H82.4336V23.8135H79.2007V20.5469Z" fill="#E45C00"/>
<path d="M75.9663 20.5469H79.1992V23.8135H75.9663V20.5469Z" fill="#E45C00"/>
<path d="M72.7358 20.5469H75.9688V23.8135H72.7358V20.5469Z" fill="#181425"/>
<path d="M69.5522 20.5469H72.7852V23.8135H69.5522V20.5469Z" fill="#FF7C06"/>
<path d="M66.3218 20.5469H69.5547V23.8135H66.3218V20.5469Z" fill="#181425"/>
<path d="M63.0874 20.5469H66.3203V23.8135H63.0874V20.5469Z" fill="#E45C00"/>
<path d="M59.853 20.5469H63.0859V23.8135H59.853V20.5469Z" fill="#E45C00"/>
<path d="M56.6226 20.5469H59.8555V23.8135H56.6226V20.5469Z" fill="#FF7C06"/>
<path d="M53.3882 20.5469H56.6211V23.8135H53.3882V20.5469Z" fill="#FF7C06"/>
<path d="M50.1538 20.5469H53.3867V23.8135H50.1538V20.5469Z" fill="#FF7C06"/>
<path d="M46.9233 20.5469H50.1562V23.8135H46.9233V20.5469Z" fill="#FF7C06"/>
<path d="M43.689 20.5469H46.9219V23.8135H43.689V20.5469Z" fill="#FF7C06"/>
<path d="M40.5093 20.5469H43.7422V23.8135H40.5093V20.5469Z" fill="#FF7C06"/>
<path d="M37.2749 20.5469H40.5078V23.8135H37.2749V20.5469Z" fill="#FF7C06"/>
<path d="M34.0444 20.5469H37.2773V23.8135H34.0444V20.5469Z" fill="#FF7C06"/>
<path d="M30.8101 20.5469H34.043V23.8135H30.8101V20.5469Z" fill="#FF7C06"/>
<path d="M27.5757 20.5469H30.8086V23.8135H27.5757V20.5469Z" fill="#FF7C06"/>
<path d="M24.3452 20.5469H27.5781V23.8135H24.3452V20.5469Z" fill="#181425"/>
<path d="M21.1108 20.5469H24.3438V23.8135H21.1108V20.5469Z" fill="#FF7C06"/>
<path d="M17.8804 20.5469H21.1133V23.8135H17.8804V20.5469Z" fill="#181425"/>
<path d="M82.4312 23.8135H85.6641V27.0801H82.4312V23.8135Z" fill="#181425"/>
<path d="M79.2007 23.8135H82.4336V27.0801H79.2007V23.8135Z" fill="#181425"/>
<path d="M75.9663 23.8135H79.1992V27.0801H75.9663V23.8135Z" fill="#181425"/>
<path d="M72.7358 23.8135H75.9688V27.0801H72.7358V23.8135Z" fill="#181425"/>
<path d="M69.5522 23.8135H72.7852V27.0801H69.5522V23.8135Z" fill="#FF7C06"/>
<path d="M66.3218 23.8135H69.5547V27.0801H66.3218V23.8135Z" fill="#181425"/>
<path d="M63.0874 23.8135H66.3203V27.0801H63.0874V23.8135Z" fill="#E45C00"/>
<path d="M59.853 23.8135H63.0859V27.0801H59.853V23.8135Z" fill="#181425"/>
<path d="M56.6226 23.8135H59.8555V27.0801H56.6226V23.8135Z" fill="#181425"/>
<path d="M53.3882 23.8135H56.6211V27.0801H53.3882V23.8135Z" fill="#181425"/>
<path d="M50.1538 23.8135H53.3867V27.0801H50.1538V23.8135Z" fill="#181425"/>
<path d="M46.9233 23.8135H50.1562V27.0801H46.9233V23.8135Z" fill="#FF7C06"/>
<path d="M43.689 23.8135H46.9219V27.0801H43.689V23.8135Z" fill="#FF7C06"/>
<path d="M40.5093 23.8135H43.7422V27.0801H40.5093V23.8135Z" fill="#FF7C06"/>
<path d="M37.2749 23.8135H40.5078V27.0801H37.2749V23.8135Z" fill="#FF7C06"/>
<path d="M34.0444 23.8135H37.2773V27.0801H34.0444V23.8135Z" fill="#FF7C06"/>
<path d="M30.8101 23.8135H34.043V27.0801H30.8101V23.8135Z" fill="#181425"/>
<path d="M27.5757 23.8135H30.8086V27.0801H27.5757V23.8135Z" fill="#181425"/>
<path d="M24.3452 23.8135H27.5781V27.0801H24.3452V23.8135Z" fill="#181425"/>
<path d="M21.1108 23.8135H24.3438V27.0801H21.1108V23.8135Z" fill="#FF7C06"/>
<path d="M17.8804 23.8135H21.1133V27.0801H17.8804V23.8135Z" fill="#181425"/>
<path d="M85.6655 27.0801H88.8984V30.3467H85.6655V27.0801Z" fill="#181425"/>
<path d="M82.4312 27.0801H85.6641V30.3467H82.4312V27.0801Z" fill="#C6C6C6"/>
<path d="M79.2007 27.0801H82.4336V30.3467H79.2007V27.0801Z" fill="white"/>
<path d="M75.9663 27.0801H79.1992V30.3467H75.9663V27.0801Z" fill="#181425"/>
<path d="M72.7358 27.0801H75.9688V30.3467H72.7358V27.0801Z" fill="white"/>
<path d="M69.5522 27.0801H72.7852V30.3467H69.5522V27.0801Z" fill="#181425"/>
<path d="M66.3218 27.0801H69.5547V30.3467H66.3218V27.0801Z" fill="#181425"/>
<path d="M63.0874 27.0801H66.3203V30.3467H63.0874V27.0801Z" fill="#181425"/>
<path d="M59.853 27.0801H63.0859V30.3467H59.853V27.0801Z" fill="#181425"/>
<path d="M56.6226 27.0801H59.8555V30.3467H56.6226V27.0801Z" fill="#181425"/>
<path d="M53.3882 27.0801H56.6211V30.3467H53.3882V27.0801Z" fill="#181425"/>
<path d="M50.1538 27.0801H53.3867V30.3467H50.1538V27.0801Z" fill="#181425"/>
<path d="M46.9233 27.0801H50.1562V30.3467H46.9233V27.0801Z" fill="#181425"/>
<path d="M43.689 27.0801H46.9219V30.3467H43.689V27.0801Z" fill="#FF7C06"/>
<path d="M40.5093 27.0801H43.7422V30.3467H40.5093V27.0801Z" fill="#FF7C06"/>
<path d="M37.2749 27.0801H40.5078V30.3467H37.2749V27.0801Z" fill="#FF7C06"/>
<path d="M34.0444 27.0801H37.2773V30.3467H34.0444V27.0801Z" fill="#181425"/>
<path d="M30.8101 27.0801H34.043V30.3467H30.8101V27.0801Z" fill="#181425"/>
<path d="M27.5757 27.0801H30.8086V30.3467H27.5757V27.0801Z" fill="#181425"/>
<path d="M24.3452 27.0801H27.5781V30.3467H24.3452V27.0801Z" fill="#181425"/>
<path d="M21.1108 27.0801H24.3438V30.3467H21.1108V27.0801Z" fill="#181425"/>
<path d="M17.8804 27.0801H21.1133V30.3467H17.8804V27.0801Z" fill="white"/>
<path d="M14.646 27.0801H17.8789V30.3467H14.646V27.0801Z" fill="#181425"/>
<path d="M85.6655 30.3477H88.8984V33.6143H85.6655V30.3477Z" fill="#181425"/>
<path d="M82.4312 30.3477H85.6641V33.6143H82.4312V30.3477Z" fill="#C6C6C6"/>
<path d="M79.2007 30.3477H82.4336V33.6143H79.2007V30.3477Z" fill="white"/>
<path d="M75.9663 30.3477H79.1992V33.6143H75.9663V30.3477Z" fill="#181425"/>
<path d="M72.7358 30.3477H75.9688V33.6143H72.7358V30.3477Z" fill="white"/>
<path d="M69.5522 30.3477H72.7852V33.6143H69.5522V30.3477Z" fill="#181425"/>
<path d="M66.3218 30.3477H69.5547V33.6143H66.3218V30.3477Z" fill="#181425"/>
<path d="M63.0874 30.3477H66.3203V33.6143H63.0874V30.3477Z" fill="#181425"/>
<path d="M59.853 30.3477H63.0859V33.6143H59.853V30.3477Z" fill="#181425"/>
<path d="M56.6226 30.3477H59.8555V33.6143H56.6226V30.3477Z" fill="white"/>
<path d="M53.3882 30.3477H56.6211V33.6143H53.3882V30.3477Z" fill="#3978A8"/>
<path d="M50.1538 30.3477H53.3867V33.6143H50.1538V30.3477Z" fill="#3978A8"/>
<path d="M46.9233 30.3477H50.1562V33.6143H46.9233V30.3477Z" fill="#181425"/>
<path d="M43.689 30.3477H46.9219V33.6143H43.689V30.3477Z" fill="#181425"/>
<path d="M40.5093 30.3477H43.7422V33.6143H40.5093V30.3477Z" fill="#181425"/>
<path d="M37.2749 30.3477H40.5078V33.6143H37.2749V30.3477Z" fill="#181425"/>
<path d="M34.0444 30.3477H37.2773V33.6143H34.0444V30.3477Z" fill="#181425"/>
<path d="M30.8101 30.3477H34.043V33.6143H30.8101V30.3477Z" fill="#181425"/>
<path d="M27.5757 30.3477H30.8086V33.6143H27.5757V30.3477Z" fill="#3978A8"/>
<path d="M24.3452 30.3477H27.5781V33.6143H24.3452V30.3477Z" fill="#3978A8"/>
<path d="M21.1108 30.3477H24.3438V33.6143H21.1108V30.3477Z" fill="#181425"/>
<path d="M17.8804 30.3477H21.1133V33.6143H17.8804V30.3477Z" fill="white"/>
<path d="M14.646 30.3477H17.8789V33.6143H14.646V30.3477Z" fill="#181425"/>
<path d="M85.6655 33.6143H88.8984V36.8809H85.6655V33.6143Z" fill="#181425"/>
<path d="M82.4312 33.6143H85.6641V36.8809H82.4312V33.6143Z" fill="#C6C6C6"/>
<path d="M79.2007 33.6143H82.4336V36.8809H79.2007V33.6143Z" fill="white"/>
<path d="M75.9663 33.6143H79.1992V36.8809H75.9663V33.6143Z" fill="#181425"/>
<path d="M72.7358 33.6143H75.9688V36.8809H72.7358V33.6143Z" fill="white"/>
<path d="M69.5522 33.6143H72.7852V36.8809H69.5522V33.6143Z" fill="#181425"/>
<path d="M66.3218 33.6143H69.5547V36.8809H66.3218V33.6143Z" fill="#E45C00"/>
<path d="M63.0874 33.6143H66.3203V36.8809H63.0874V33.6143Z" fill="#181425"/>
<path d="M59.853 33.6143H63.0859V36.8809H59.853V33.6143Z" fill="white"/>
<path d="M56.6226 33.6143H59.8555V36.8809H56.6226V33.6143Z" fill="white"/>
<path d="M53.3882 33.6143H56.6211V36.8809H53.3882V33.6143Z" fill="#3978A8"/>
<path d="M50.1538 33.6143H53.3867V36.8809H50.1538V33.6143Z" fill="#394778"/>
<path d="M46.9233 33.6143H50.1562V36.8809H46.9233V33.6143Z" fill="white"/>
<path d="M43.689 33.6143H46.9219V36.8809H43.689V33.6143Z" fill="#181425"/>
<path d="M40.5093 33.6143H43.7422V36.8809H40.5093V33.6143Z" fill="#181425"/>
<path d="M37.2749 33.6143H40.5078V36.8809H37.2749V33.6143Z" fill="#181425"/>
<path d="M34.0444 33.6143H37.2773V36.8809H34.0444V33.6143Z" fill="#181425"/>
<path d="M30.8101 33.6143H34.043V36.8809H30.8101V33.6143Z" fill="white"/>
<path d="M27.5757 33.6143H30.8086V36.8809H27.5757V33.6143Z" fill="#394778"/>
<path d="M24.3452 33.6143H27.5781V36.8809H24.3452V33.6143Z" fill="#3978A8"/>
<path d="M21.1108 33.6143H24.3438V36.8809H21.1108V33.6143Z" fill="#181425"/>
<path d="M17.8804 33.6143H21.1133V36.8809H17.8804V33.6143Z" fill="white"/>
<path d="M14.646 33.6143H17.8789V36.8809H14.646V33.6143Z" fill="#181425"/>
<path d="M85.6655 36.8809H88.8984V40.1475H85.6655V36.8809Z" fill="#181425"/>
<path d="M82.4312 36.8809H85.6641V40.1475H82.4312V36.8809Z" fill="#C6C6C6"/>
<path d="M79.2007 36.8809H82.4336V40.1475H79.2007V36.8809Z" fill="white"/>
<path d="M75.9663 36.8809H79.1992V40.1475H75.9663V36.8809Z" fill="#181425"/>
<path d="M72.7358 36.8809H75.9688V40.1475H72.7358V36.8809Z" fill="white"/>
<path d="M69.5522 36.8809H72.7852V40.1475H69.5522V36.8809Z" fill="#181425"/>
<path d="M66.3218 36.8809H69.5547V40.1475H66.3218V36.8809Z" fill="#E45C00"/>
<path d="M63.0874 36.8809H66.3203V40.1475H63.0874V36.8809Z" fill="#181425"/>
<path d="M59.853 36.8809H63.0859V40.1475H59.853V36.8809Z" fill="#181425"/>
<path d="M56.6226 36.8809H59.8555V40.1475H56.6226V36.8809Z" fill="white"/>
<path d="M53.3882 36.8809H56.6211V40.1475H53.3882V36.8809Z" fill="white"/>
<path d="M50.1538 36.8809H53.3867V40.1475H50.1538V36.8809Z" fill="#394778"/>
<path d="M46.9233 36.8809H50.1562V40.1475H46.9233V36.8809Z" fill="#181425"/>
<path d="M43.689 36.8809H46.9219V40.1475H43.689V36.8809Z" fill="#181425"/>
<path d="M40.5093 36.8809H43.7422V40.1475H40.5093V36.8809Z" fill="#FF7C06"/>
<path d="M37.2749 36.8809H40.5078V40.1475H37.2749V36.8809Z" fill="#FF7C06"/>
<path d="M34.0444 36.8809H37.2773V40.1475H34.0444V36.8809Z" fill="#181425"/>
<path d="M30.8101 36.8809H34.043V40.1475H30.8101V36.8809Z" fill="#181425"/>
<path d="M27.5757 36.8809H30.8086V40.1475H27.5757V36.8809Z" fill="#394778"/>
<path d="M24.3452 36.8809H27.5781V40.1475H24.3452V36.8809Z" fill="#181425"/>
<path d="M21.1108 36.8809H24.3438V40.1475H21.1108V36.8809Z" fill="#181425"/>
<path d="M17.8804 36.8809H21.1133V40.1475H17.8804V36.8809Z" fill="white"/>
<path d="M14.646 36.8809H17.8789V40.1475H14.646V36.8809Z" fill="#181425"/>
<path d="M82.4312 40.1475H85.6641V43.4141H82.4312V40.1475Z" fill="#181425"/>
<path d="M79.2007 40.1475H82.4336V43.4141H79.2007V40.1475Z" fill="#181425"/>
<path d="M75.9663 40.1475H79.1992V43.4141H75.9663V40.1475Z" fill="#181425"/>
<path d="M72.7358 40.1475H75.9688V43.4141H72.7358V40.1475Z" fill="#181425"/>
<path d="M69.5522 40.1475H72.7852V43.4141H69.5522V40.1475Z" fill="#FF7C06"/>
<path d="M66.3218 40.1475H69.5547V43.4141H66.3218V40.1475Z" fill="#181425"/>
<path d="M63.0874 40.1475H66.3203V43.4141H63.0874V40.1475Z" fill="#E45C00"/>
<path d="M59.853 40.1475H63.0859V43.4141H59.853V40.1475Z" fill="#181425"/>
<path d="M56.6226 40.1475H59.8555V43.4141H56.6226V40.1475Z" fill="#181425"/>
<path d="M53.3882 40.1475H56.6211V43.4141H53.3882V40.1475Z" fill="#181425"/>
<path d="M50.1538 40.1475H53.3867V43.4141H50.1538V40.1475Z" fill="#181425"/>
<path d="M46.9233 40.1475H50.1562V43.4141H46.9233V40.1475Z" fill="#181425"/>
<path d="M43.689 40.1475H46.9219V43.4141H43.689V40.1475Z" fill="#FF7C06"/>
<path d="M40.5093 40.1475H43.7422V43.4141H40.5093V40.1475Z" fill="#FF7C06"/>
<path d="M37.2749 40.1475H40.5078V43.4141H37.2749V40.1475Z" fill="#FF7C06"/>
<path d="M34.0444 40.1475H37.2773V43.4141H34.0444V40.1475Z" fill="#FF7C06"/>
<path d="M30.8101 40.1475H34.043V43.4141H30.8101V40.1475Z" fill="#181425"/>
<path d="M27.5757 40.1475H30.8086V43.4141H27.5757V40.1475Z" fill="#181425"/>
<path d="M24.3452 40.1475H27.5781V43.4141H24.3452V40.1475Z" fill="#181425"/>
<path d="M21.1108 40.1475H24.3438V43.4141H21.1108V40.1475Z" fill="#FF7C06"/>
<path d="M17.8804 40.1475H21.1133V43.4141H17.8804V40.1475Z" fill="#181425"/>
<path d="M82.4312 43.4141H85.6641V46.6807H82.4312V43.4141Z" fill="#181425"/>
<path d="M79.2007 43.4141H82.4336V46.6807H79.2007V43.4141Z" fill="#262B44"/>
<path d="M75.9663 43.4141H79.1992V46.6807H75.9663V43.4141Z" fill="#262B44"/>
<path d="M72.7358 43.4141H75.9688V46.6807H72.7358V43.4141Z" fill="#181425"/>
<path d="M69.5522 43.4141H72.7852V46.6807H69.5522V43.4141Z" fill="#FF7C06"/>
<path d="M66.3218 43.4141H69.5547V46.6807H66.3218V43.4141Z" fill="#181425"/>
<path d="M63.0874 43.4141H66.3203V46.6807H63.0874V43.4141Z" fill="#E45C00"/>
<path d="M59.853 43.4141H63.0859V46.6807H59.853V43.4141Z" fill="#E45C00"/>
<path d="M56.6226 43.4141H59.8555V46.6807H56.6226V43.4141Z" fill="#181425"/>
<path d="M53.3882 43.4141H56.6211V46.6807H53.3882V43.4141Z" fill="#181425"/>
<path d="M50.1538 43.4141H53.3867V46.6807H50.1538V43.4141Z" fill="#181425"/>
<path d="M46.9233 43.4141H50.1562V46.6807H46.9233V43.4141Z" fill="#FF7C06"/>
<path d="M43.689 43.4141H46.9219V46.6807H43.689V43.4141Z" fill="#FF7C06"/>
<path d="M40.5093 43.4141H43.7422V46.6807H40.5093V43.4141Z" fill="#FF7C06"/>
<path d="M37.2749 43.4141H40.5078V46.6807H37.2749V43.4141Z" fill="#FF7C06"/>
<path d="M34.0444 43.4141H37.2773V46.6807H34.0444V43.4141Z" fill="#181425"/>
<path d="M30.8101 43.4141H34.043V46.6807H30.8101V43.4141Z" fill="#FF7C06"/>
<path d="M27.5757 43.4141H30.8086V46.6807H27.5757V43.4141Z" fill="#181425"/>
<path d="M24.3452 43.4141H27.5781V46.6807H24.3452V43.4141Z" fill="#181425"/>
<path d="M21.1108 43.4141H24.3438V46.6807H21.1108V43.4141Z" fill="#FF7C06"/>
<path d="M17.8804 43.4141H21.1133V46.6807H17.8804V43.4141Z" fill="#181425"/>
<path d="M85.6655 46.6279H88.8984V49.8946H85.6655V46.6279Z" fill="#181425"/>
<path d="M82.4312 46.6279H85.6641V49.8946H82.4312V46.6279Z" fill="#262B44"/>
<path d="M79.2007 46.6279H82.4336V49.8946H79.2007V46.6279Z" fill="#262B44"/>
<path d="M75.9663 46.6279H79.1992V49.8946H75.9663V46.6279Z" fill="#181425"/>
<path d="M72.7358 46.6279H75.9688V49.8946H72.7358V46.6279Z" fill="#E45C00"/>
<path d="M69.5522 46.6279H72.7852V49.8946H69.5522V46.6279Z" fill="#181425"/>
<path d="M66.3218 46.6279H69.5547V49.8946H66.3218V46.6279Z" fill="#181425"/>
<path d="M63.0874 46.6279H66.3203V49.8946H63.0874V46.6279Z" fill="#181425"/>
<path d="M59.853 46.6279H63.0859V49.8946H59.853V46.6279Z" fill="#E45C00"/>
<path d="M56.6226 46.6279H59.8555V49.8946H56.6226V46.6279Z" fill="#FF7C06"/>
<path d="M53.3882 46.6279H56.6211V49.8946H53.3882V46.6279Z" fill="#FF7C06"/>
<path d="M50.1538 46.6279H53.3867V49.8946H50.1538V46.6279Z" fill="#FF7C06"/>
<path d="M46.9233 46.6279H50.1562V49.8946H46.9233V46.6279Z" fill="#FF7C06"/>
<path d="M43.689 46.6279H46.9219V49.8946H43.689V46.6279Z" fill="#181425"/>
<path d="M40.5093 46.6279H43.7422V49.8946H40.5093V46.6279Z" fill="#181425"/>
<path d="M37.2749 46.6279H40.5078V49.8946H37.2749V46.6279Z" fill="#181425"/>
<path d="M34.0444 46.6279H37.2773V49.8946H34.0444V46.6279Z" fill="#FF7C06"/>
<path d="M30.8101 46.6279H34.043V49.8946H30.8101V46.6279Z" fill="#FF7C06"/>
<path d="M27.5757 46.6279H30.8086V49.8946H27.5757V46.6279Z" fill="#181425"/>
<path d="M24.3452 46.6279H27.5781V49.8946H24.3452V46.6279Z" fill="#FF7C06"/>
<path d="M21.1108 46.6279H24.3438V49.8946H21.1108V46.6279Z" fill="#181425"/>
<path d="M17.8804 46.6279H21.1133V49.8946H17.8804V46.6279Z" fill="#262B44"/>
<path d="M14.646 46.6279H17.8789V49.8946H14.646V46.6279Z" fill="#181425"/>
<path d="M85.6655 49.8945H88.8984V53.1612H85.6655V49.8945Z" fill="#181425"/>
<path d="M82.4312 49.8945H85.6641V53.1612H82.4312V49.8945Z" fill="#262B44"/>
<path d="M79.2007 49.8945H82.4336V53.1612H79.2007V49.8945Z" fill="#181425"/>
<path d="M75.9663 49.8945H79.1992V53.1612H75.9663V49.8945Z" fill="#181425"/>
<path d="M72.7358 49.8945H75.9688V53.1612H72.7358V49.8945Z" fill="#181425"/>
<path d="M69.5522 49.8945H72.7852V53.1612H69.5522V49.8945Z" fill="#181425"/>
<path d="M66.3218 49.8945H69.5547V53.1612H66.3218V49.8945Z" fill="white"/>
<path d="M63.0874 49.8945H66.3203V53.1612H63.0874V49.8945Z" fill="white"/>
<path d="M59.853 49.8945H63.0859V53.1612H59.853V49.8945Z" fill="#181425"/>
<path d="M56.6226 49.8945H59.8555V53.1612H56.6226V49.8945Z" fill="#E45C00"/>
<path d="M53.3882 49.8945H56.6211V53.1612H53.3882V49.8945Z" fill="#FF7C06"/>
<path d="M50.1538 49.8945H53.3867V53.1612H50.1538V49.8945Z" fill="#FF7C06"/>
<path d="M46.9233 49.8945H50.1562V53.1612H46.9233V49.8945Z" fill="#FF7C06"/>
<path d="M43.689 49.8945H46.9219V53.1612H43.689V49.8945Z" fill="#FF7C06"/>
<path d="M40.5093 49.8945H43.7422V53.1612H40.5093V49.8945Z" fill="#FF7C06"/>
<path d="M37.2749 49.8945H40.5078V53.1612H37.2749V49.8945Z" fill="#FF7C06"/>
<path d="M34.0444 49.8945H37.2773V53.1612H34.0444V49.8945Z" fill="#FF7C06"/>
<path d="M30.8101 49.8945H34.043V53.1612H30.8101V49.8945Z" fill="#181425"/>
<path d="M27.5757 49.8945H30.8086V53.1612H27.5757V49.8945Z" fill="white"/>
<path d="M24.3452 49.8945H27.5781V53.1612H24.3452V49.8945Z" fill="#181425"/>
<path d="M21.1108 49.8945H24.3438V53.1612H21.1108V49.8945Z" fill="#181425"/>
<path d="M17.8804 49.8945H21.1133V53.1612H17.8804V49.8945Z" fill="#262B44"/>
<path d="M14.646 49.8945H17.8789V53.1612H14.646V49.8945Z" fill="#181425"/>
<path d="M11.4116 49.8945H14.6445V53.1612H11.4116V49.8945Z" fill="#181425"/>
<path d="M8.23194 49.8945H11.4648V53.1612H8.23194V49.8945Z" fill="#181425"/>
<path d="M82.4312 53.1611H85.6641V56.4278H82.4312V53.1611Z" fill="#181425"/>
<path d="M79.2007 53.1611H82.4336V56.4278H79.2007V53.1611Z" fill="#C6C6C6"/>
<path d="M75.9663 53.1611H79.1992V56.4278H75.9663V53.1611Z" fill="white"/>
<path d="M72.7358 53.1611H75.9688V56.4278H72.7358V53.1611Z" fill="white"/>
<path d="M69.5522 53.1611H72.7852V56.4278H69.5522V53.1611Z" fill="#181425"/>
<path d="M66.3218 53.1611H69.5547V56.4278H66.3218V53.1611Z" fill="#181425"/>
<path d="M63.0874 53.1611H66.3203V56.4278H63.0874V53.1611Z" fill="#C6C6C6"/>
<path d="M59.853 53.1611H63.0859V56.4278H59.853V53.1611Z" fill="white"/>
<path d="M56.6226 53.1611H59.8555V56.4278H56.6226V53.1611Z" fill="#181425"/>
<path d="M53.3882 53.1611H56.6211V56.4278H53.3882V53.1611Z" fill="#E45C00"/>
<path d="M50.1538 53.1611H53.3867V56.4278H50.1538V53.1611Z" fill="#E45C00"/>
<path d="M46.9233 53.1611H50.1562V56.4278H46.9233V53.1611Z" fill="#FF7C06"/>
<path d="M43.689 53.1611H46.9219V56.4278H43.689V53.1611Z" fill="#FF7C06"/>
<path d="M40.5093 53.1611H43.7422V56.4278H40.5093V53.1611Z" fill="#FF7C06"/>
<path d="M37.2749 53.1611H40.5078V56.4278H37.2749V53.1611Z" fill="#FF7C06"/>
<path d="M34.0444 53.1611H37.2773V56.4278H34.0444V53.1611Z" fill="#181425"/>
<path d="M30.8101 53.1611H34.043V56.4278H30.8101V53.1611Z" fill="white"/>
<path d="M27.5757 53.1611H30.8086V56.4278H27.5757V53.1611Z" fill="white"/>
<path d="M24.3452 53.1611H27.5781V56.4278H24.3452V53.1611Z" fill="#181425"/>
<path d="M17.8804 53.1611H21.1133V56.4278H17.8804V53.1611Z" fill="#181425"/>
<path d="M14.646 53.1611H17.8789V56.4278H14.646V53.1611Z" fill="#C6C6C6"/>
<path d="M11.4116 53.1611H14.6445V56.4278H11.4116V53.1611Z" fill="white"/>
<path d="M8.23194 53.1611H11.4648V56.4278H8.23194V53.1611Z" fill="white"/>
<path d="M4.99756 53.1611H8.23047V56.4278H4.99756V53.1611Z" fill="#181425"/>
<path d="M82.4312 56.4277H85.6641V59.6944H82.4312V56.4277Z" fill="#181425"/>
<path d="M79.2007 56.4277H82.4336V59.6944H79.2007V56.4277Z" fill="#C6C6C6"/>
<path d="M75.9663 56.4277H79.1992V59.6944H75.9663V56.4277Z" fill="white"/>
<path d="M72.7358 56.4277H75.9688V59.6944H72.7358V56.4277Z" fill="white"/>
<path d="M69.5522 56.4277H72.7852V59.6944H69.5522V56.4277Z" fill="#181425"/>
<path d="M66.3218 56.4277H69.5547V59.6944H66.3218V56.4277Z" fill="#C6C6C6"/>
<path d="M63.0874 56.4277H66.3203V59.6944H63.0874V56.4277Z" fill="#181425"/>
<path d="M59.853 56.4277H63.0859V59.6944H59.853V56.4277Z" fill="white"/>
<path d="M56.6226 56.4277H59.8555V59.6944H56.6226V56.4277Z" fill="#181425"/>
<path d="M53.3882 56.4277H56.6211V59.6944H53.3882V56.4277Z" fill="#181425"/>
<path d="M50.1538 56.4277H53.3867V59.6944H50.1538V56.4277Z" fill="#181425"/>
<path d="M46.9233 56.4277H50.1562V59.6944H46.9233V56.4277Z" fill="#181425"/>
<path d="M43.689 56.4277H46.9219V59.6944H43.689V56.4277Z" fill="#181425"/>
<path d="M40.5093 56.4277H43.7422V59.6944H40.5093V56.4277Z" fill="#181425"/>
<path d="M37.2749 56.4277H40.5078V59.6944H37.2749V56.4277Z" fill="#181425"/>
<path d="M34.0444 56.4277H37.2773V59.6944H34.0444V56.4277Z" fill="white"/>
<path d="M30.8101 56.4277H34.043V59.6944H30.8101V56.4277Z" fill="white"/>
<path d="M27.5757 56.4277H30.8086V59.6944H27.5757V56.4277Z" fill="#181425"/>
<path d="M17.8804 56.4277H21.1133V59.6944H17.8804V56.4277Z" fill="#181425"/>
<path d="M14.646 56.4277H17.8789V59.6944H14.646V56.4277Z" fill="#C6C6C6"/>
<path d="M11.4116 56.4277H14.6445V59.6944H11.4116V56.4277Z" fill="white"/>
<path d="M8.23194 56.4277H11.4648V59.6944H8.23194V56.4277Z" fill="white"/>
<path d="M4.99756 56.4277H8.23047V59.6944H4.99756V56.4277Z" fill="#181425"/>
<path d="M82.4312 59.6943H85.6641V62.961H82.4312V59.6943Z" fill="#181425"/>
<path d="M79.2007 59.6943H82.4336V62.961H79.2007V59.6943Z" fill="#C6C6C6"/>
<path d="M75.9663 59.6943H79.1992V62.961H75.9663V59.6943Z" fill="white"/>
<path d="M72.7358 59.6943H75.9688V62.961H72.7358V59.6943Z" fill="white"/>
<path d="M69.5522 59.6943H72.7852V62.961H69.5522V59.6943Z" fill="#181425"/>
<path d="M66.3218 59.6943H69.5547V62.961H66.3218V59.6943Z" fill="#181425"/>
<path d="M63.0874 59.6943H66.3203V62.961H63.0874V59.6943Z" fill="#181425"/>
<path d="M59.853 59.6943H63.0859V62.961H59.853V59.6943Z" fill="#181425"/>
<path d="M56.6226 59.6943H59.8555V62.961H56.6226V59.6943Z" fill="#181425"/>
<path d="M53.3882 59.6943H56.6211V62.961H53.3882V59.6943Z" fill="#E45C00"/>
<path d="M50.1538 59.6943H53.3867V62.961H50.1538V59.6943Z" fill="#E45C00"/>
<path d="M46.9233 59.6943H50.1562V62.961H46.9233V59.6943Z" fill="#E45C00"/>
<path d="M43.689 59.6943H46.9219V62.961H43.689V59.6943Z" fill="#FF7C06"/>
<path d="M40.5093 59.6943H43.7422V62.961H40.5093V59.6943Z" fill="#FF7C06"/>
<path d="M37.2749 59.6943H40.5078V62.961H37.2749V59.6943Z" fill="#181425"/>
<path d="M34.0444 59.6943H37.2773V62.961H34.0444V59.6943Z" fill="#181425"/>
<path d="M30.8101 59.6943H34.043V62.961H30.8101V59.6943Z" fill="#181425"/>
<path d="M17.8804 59.6943H21.1133V62.961H17.8804V59.6943Z" fill="#181425"/>
<path d="M14.646 59.6943H17.8789V62.961H14.646V59.6943Z" fill="#C6C6C6"/>
<path d="M11.4116 59.6943H14.6445V62.961H11.4116V59.6943Z" fill="white"/>
<path d="M8.23194 59.6943H11.4648V62.961H8.23194V59.6943Z" fill="white"/>
<path d="M4.99756 59.6943H8.23047V62.961H4.99756V59.6943Z" fill="#181425"/>
<path d="M79.2007 62.9609H82.4336V66.2276H79.2007V62.9609Z" fill="#181425"/>
<path d="M75.9663 62.9609H79.1992V66.2276H75.9663V62.9609Z" fill="#181425"/>
<path d="M72.7358 62.9609H75.9688V66.2276H72.7358V62.9609Z" fill="#181425"/>
<path d="M66.3218 62.9609H69.5547V66.2276H66.3218V62.9609Z" fill="#181425"/>
<path d="M63.0874 62.9609H66.3203V66.2276H63.0874V62.9609Z" fill="#262B44"/>
<path d="M59.853 62.9609H63.0859V66.2276H59.853V62.9609Z" fill="#181425"/>
<path d="M56.6226 62.9609H59.8555V66.2276H56.6226V62.9609Z" fill="#181425"/>
<path d="M53.3882 62.9609H56.6211V66.2276H53.3882V62.9609Z" fill="#181425"/>
<path d="M50.1538 62.9609H53.3867V66.2276H50.1538V62.9609Z" fill="#181425"/>
<path d="M46.9233 62.9609H50.1562V66.2276H46.9233V62.9609Z" fill="#181425"/>
<path d="M43.689 62.9609H46.9219V66.2276H43.689V62.9609Z" fill="#181425"/>
<path d="M40.5093 62.9609H43.7422V66.2276H40.5093V62.9609Z" fill="#181425"/>
<path d="M37.2749 62.9609H40.5078V66.2276H37.2749V62.9609Z" fill="#181425"/>
<path d="M34.0444 62.9609H37.2773V66.2276H34.0444V62.9609Z" fill="#262B44"/>
<path d="M30.8101 62.9609H34.043V66.2276H30.8101V62.9609Z" fill="#181425"/>
<path d="M14.646 62.9609H17.8789V66.2276H14.646V62.9609Z" fill="#181425"/>
<path d="M11.4116 62.9609H14.6445V66.2276H11.4116V62.9609Z" fill="#181425"/>
<path d="M8.23194 62.9609H11.4648V66.2276H8.23194V62.9609Z" fill="#181425"/>
<path d="M66.3218 66.2275H69.5547V69.4942H66.3218V66.2275Z" fill="#181425"/>
<path d="M63.0874 66.2275H66.3203V69.4942H63.0874V66.2275Z" fill="#262B44"/>
<path d="M59.853 66.2275H63.0859V69.4942H59.853V66.2275Z" fill="#181425"/>
<path d="M37.2749 66.2275H40.5078V69.4942H37.2749V66.2275Z" fill="#181425"/>
<path d="M34.0444 66.2275H37.2773V69.4942H34.0444V66.2275Z" fill="#262B44"/>
<path d="M30.8101 66.2275H34.043V69.4942H30.8101V66.2275Z" fill="#262B44"/>
<path d="M27.5757 66.2275H30.8086V69.4942H27.5757V66.2275Z" fill="#181425"/>
<path d="M69.5522 69.4941H72.7852V72.7608H69.5522V69.4941Z" fill="#181425"/>
<path d="M66.3218 69.4941H69.5547V72.7608H66.3218V69.4941Z" fill="#181425"/>
<path d="M63.0874 69.4941H66.3203V72.7608H63.0874V69.4941Z" fill="#181425"/>
<path d="M59.853 69.4941H63.0859V72.7608H59.853V69.4941Z" fill="#181425"/>
<path d="M34.0444 69.4941H37.2773V72.7608H34.0444V69.4941Z" fill="#181425"/>
<path d="M30.8101 69.4941H34.043V72.7608H30.8101V69.4941Z" fill="#181425"/>
<path d="M27.5757 69.4941H30.8086V72.7608H27.5757V69.4941Z" fill="#181425"/>
<path d="M24.3452 69.4941H27.5781V72.7608H24.3452V69.4941Z" fill="#181425"/>
<path d="M72.7358 72.7607H75.9688V76.0274H72.7358V72.7607Z" fill="#181425"/>
<path d="M69.5522 72.7607H72.7852V76.0274H69.5522V72.7607Z" fill="#FF7C06"/>
<path d="M66.3218 72.7607H69.5547V76.0274H66.3218V72.7607Z" fill="white"/>
<path d="M63.0874 72.7607H66.3203V76.0274H63.0874V72.7607Z" fill="white"/>
<path d="M59.853 72.7607H63.0859V76.0274H59.853V72.7607Z" fill="#FF7C06"/>
<path d="M56.6226 72.7607H59.8555V76.0274H56.6226V72.7607Z" fill="#181425"/>
<path d="M37.2749 72.7607H40.5078V76.0274H37.2749V72.7607Z" fill="#181425"/>
<path d="M34.0444 72.7607H37.2773V76.0274H34.0444V72.7607Z" fill="#FF7C06"/>
<path d="M30.8101 72.7607H34.043V76.0274H30.8101V72.7607Z" fill="#FF7C06"/>
<path d="M27.5757 72.7607H30.8086V76.0274H27.5757V72.7607Z" fill="white"/>
<path d="M24.3452 72.7607H27.5781V76.0274H24.3452V72.7607Z" fill="white"/>
<path d="M21.1108 72.7607H24.3438V76.0274H21.1108V72.7607Z" fill="#181425"/>
<path d="M72.7358 76.0273H75.9688V79.294H72.7358V76.0273Z" fill="#181425"/>
<path d="M69.5522 76.0273H72.7852V79.294H69.5522V76.0273Z" fill="#E45C00"/>
<path d="M66.3218 76.0273H69.5547V79.294H66.3218V76.0273Z" fill="#E45C00"/>
<path d="M63.0874 76.0273H66.3203V79.294H63.0874V76.0273Z" fill="#E45C00"/>
<path d="M59.853 76.0273H63.0859V79.294H59.853V76.0273Z" fill="#E45C00"/>
<path d="M56.6226 76.0273H59.8555V79.294H56.6226V76.0273Z" fill="#181425"/>
<path d="M37.2749 76.0273H40.5078V79.294H37.2749V76.0273Z" fill="#181425"/>
<path d="M34.0444 76.0273H37.2773V79.294H34.0444V76.0273Z" fill="#E45C00"/>
<path d="M30.8101 76.0273H34.043V79.294H30.8101V76.0273Z" fill="#E45C00"/>
<path d="M27.5757 76.0273H30.8086V79.294H27.5757V76.0273Z" fill="#E45C00"/>
<path d="M24.3452 76.0273H27.5781V79.294H24.3452V76.0273Z" fill="#E45C00"/>
<path d="M21.1108 76.0273H24.3438V79.294H21.1108V76.0273Z" fill="#E45C00"/>
<path d="M17.8804 76.0273H21.1133V79.294H17.8804V76.0273Z" fill="#181425"/>
<path d="M72.7358 79.2412H75.9688V82.5079H72.7358V79.2412Z" fill="#181425"/>
<path d="M69.5522 79.2412H72.7852V82.5079H69.5522V79.2412Z" fill="#181425"/>
<path d="M66.3218 79.2412H69.5547V82.5079H66.3218V79.2412Z" fill="#181425"/>
<path d="M63.0874 79.2412H66.3203V82.5079H63.0874V79.2412Z" fill="#181425"/>
<path d="M59.853 79.2412H63.0859V82.5079H59.853V79.2412Z" fill="#181425"/>
<path d="M56.6226 79.2412H59.8555V82.5079H56.6226V79.2412Z" fill="#181425"/>
<path d="M37.2749 79.2412H40.5078V82.5079H37.2749V79.2412Z" fill="#181425"/>
<path d="M34.0444 79.2412H37.2773V82.5079H34.0444V79.2412Z" fill="#181425"/>
<path d="M30.8101 79.2412H34.043V82.5079H30.8101V79.2412Z" fill="#181425"/>
<path d="M27.5757 79.2412H30.8086V82.5079H27.5757V79.2412Z" fill="#181425"/>
<path d="M24.3452 79.2412H27.5781V82.5079H24.3452V79.2412Z" fill="#181425"/>
<path d="M21.1108 79.2412H24.3438V82.5079H21.1108V79.2412Z" fill="#181425"/>
<path d="M17.8804 79.2412H21.1133V82.5079H17.8804V79.2412Z" fill="#181425"/>
</g>
<defs>
<filter id="filter0_d_1340_5020" x="0" y="0" width="93.8984" height="91.5078" filterUnits="userSpaceOnUse" color-interpolation-filters="sRGB">
<feFlood flood-opacity="0" result="BackgroundImageFix"/>
<feColorMatrix in="SourceAlpha" type="matrix" values="0 0 0 0 0 0 0 0 0 0 0 0 0 0 0 0 0 0 127 0" result="hardAlpha"/>
<feOffset dy="4"/>
<feGaussianBlur stdDeviation="2.5"/>
<feComposite in2="hardAlpha" operator="out"/>
<feColorMatrix type="matrix" values="0 0 0 0 0 0 0 0 0 0 0 0 0 0 0 0 0 0 0.1 0"/>
<feBlend mode="normal" in2="BackgroundImageFix" result="effect1_dropShadow_1340_5020"/>
<feBlend mode="normal" in="SourceGraphic" in2="effect1_dropShadow_1340_5020" result="shape"/>
</filter>
<clipPath id="clip0_1340_5020">
<rect width="83.8991" height="81.5082" fill="white" transform="matrix(-1 0 0 1 88.8984 1)"/>
</clipPath>
</defs>
</svg>
