<svg width="85" height="82" viewBox="0 0 85 82" fill="none" xmlns="http://www.w3.org/2000/svg">
<path d="M25.8646 3.26642V4.08303H35.5618V3.26642H42.0273V0H32.328V3.26642H25.8646Z" fill="#181425"/>
<path d="M42.0243 6.5332H47.6797V9.79962H42.0243V6.5332Z" fill="#181425"/>
<path d="M25.8646 4.08594V6.53358H32.3302V9.8H42.0273V6.53358H35.5618V4.08594H25.8646Z" fill="#181425"/>
<path d="M51.7262 10.6182H53.3398V13.0658H51.7262V10.6182Z" fill="#181425"/>
<path d="M47.6844 6.5332V9.79962H51.7262V10.6162H53.3398V6.5332H47.6844Z" fill="#181425"/>
<path d="M53.3395 6.5332H54.9531V10.6162H53.3395V6.5332Z" fill="#181425"/>
<path d="M53.3395 10.6182H54.9531V13.0658H53.3395V10.6182Z" fill="#181425"/>
<path d="M42.0243 0H47.6797V3.26642H42.0243V0Z" fill="#181425"/>
<path d="M47.6844 0V3.26642H51.7262V4.08303H53.3398V0H47.6844Z" fill="#181425"/>
<path d="M51.7262 4.08594H53.3398V6.53358H51.7262V4.08594Z" fill="#181425"/>
<path d="M53.3407 0V4.08303H58.1882V3.26642H58.9961V0H53.3407Z" fill="#181425"/>
<path d="M53.3439 4.08594H58.1914V6.53358H53.3439V4.08594Z" fill="#181425"/>
<path d="M58.9981 0H61.4219V3.26642H58.9981V0Z" fill="#181425"/>
<path d="M58.1882 3.2666H58.9961V4.08321H58.1882V3.2666Z" fill="#0E7DAD"/>
<path d="M58.1882 4.08594H58.9961V6.53358H58.1882V4.08594Z" fill="#0E7DAD"/>
<path d="M58.9981 4.08594H61.4219V6.53358H58.9981V4.08594Z" fill="#0E7DAD"/>
<path d="M58.9981 3.2666H61.4219V4.08321H58.9981V3.2666Z" fill="#0E7DAD"/>
<path d="M51.7205 3.2666H51.7227V4.08321H51.7205V3.2666Z" fill="#181425"/>
<path d="M42.0243 3.2666H47.6797V4.08321H42.0243V3.2666Z" fill="#0E7DAD"/>
<path d="M42.0243 4.08594H47.6797V6.53358H42.0243V4.08594Z" fill="#0E7DAD"/>
<path d="M47.6831 3.2666H51.7227V4.08321H47.6831V3.2666Z" fill="#0E7DAD"/>
<path d="M47.6831 4.08594H51.7227V6.53358H47.6831V4.08594Z" fill="#0E7DAD"/>
<path d="M51.7205 3.2666H51.7227V4.08321H51.7205V3.2666Z" fill="#265C42"/>
<path d="M51.7205 4.08594H51.7227V4.90254H51.7205V4.08594Z" fill="#181425"/>
<path d="M51.7205 4.08594H51.7227V4.90254H51.7205V4.08594Z" fill="#265C42"/>
<path d="M51.7205 4.89941H51.7227V5.71602H51.7205V4.89941Z" fill="#181425"/>
<path d="M51.7205 4.89941H51.7227V5.71602H51.7205V4.89941Z" fill="#265C42"/>
<path d="M64.659 4.08594H67.8906V6.53358H64.659V4.08594Z" fill="#181425"/>
<path d="M64.659 3.2666H67.8906V4.08321H64.659V3.2666Z" fill="#181425"/>
<path d="M61.4226 3.2666H62.2305V4.08321H61.4226V3.2666Z" fill="#181425"/>
<path d="M61.4226 4.08594H62.2305V6.53358H61.4226V4.08594Z" fill="#181425"/>
<path d="M62.2347 4.08594H64.6562V6.53358H62.2347V4.08594Z" fill="#181425"/>
<path d="M62.2347 3.2666H64.6562V4.08321H62.2347V3.2666Z" fill="#181425"/>
<path d="M51.7205 5.7168H51.7227V6.5334H51.7205V5.7168Z" fill="#181425"/>
<path d="M51.7205 5.7168H51.7227V6.5334H51.7205V5.7168Z" fill="#265C42"/>
<path d="M64.659 6.5332H67.8906V9.79962H64.659V6.5332Z" fill="#C6C6C6"/>
<path d="M61.4226 6.5332H62.2305V9.79962H61.4226V6.5332Z" fill="#C6C6C6"/>
<path d="M62.2347 6.5332H64.6562V9.79962H62.2347V6.5332Z" fill="#C6C6C6"/>
<path d="M58.1882 6.5332H58.9961V9.79962H58.1882V6.5332Z" fill="#181425"/>
<path d="M58.9981 6.5332H61.4219V9.79962H58.9981V6.5332Z" fill="#181425"/>
<path d="M54.9597 6.5332H58.1914V10.6162H54.9597V6.5332Z" fill="white"/>
<path d="M54.9597 10.6182H58.1914V13.0658H54.9597V10.6182Z" fill="white"/>
<path d="M54.9549 6.5332H54.957V7.34981H54.9549V6.5332Z" fill="#CFC6B8"/>
<path d="M54.9549 6.5332H54.957V7.34981H54.9549V6.5332Z" fill="#181425"/>
<path d="M32.326 6.5332H32.3281V7.34981H32.326V6.5332Z" fill="#181425"/>
<path d="M25.8621 10.6182H29.0938V13.0658H25.8621V10.6182Z" fill="white"/>
<path d="M25.8609 6.5332V10.6162H29.0925V9.79962H32.3242V6.5332H25.8609Z" fill="white"/>
<path d="M32.326 6.5332H32.3281V7.34981H32.326V6.5332Z" fill="#CFC6B8"/>
<path d="M54.9549 7.34961H54.957V8.16621H54.9549V7.34961Z" fill="#CFC6B8"/>
<path d="M54.9549 7.34961H54.957V8.16621H54.9549V7.34961Z" fill="#181425"/>
<path d="M32.326 7.34961H32.3281V8.16621H32.326V7.34961Z" fill="#181425"/>
<path d="M32.326 7.34961H32.3281V8.16621H32.326V7.34961Z" fill="#CFC6B8"/>
<path d="M54.9549 8.16602H54.957V8.98262H54.9549V8.16602Z" fill="#CFC6B8"/>
<path d="M54.9549 8.16602H54.957V8.98262H54.9549V8.16602Z" fill="#181425"/>
<path d="M32.326 8.16602H32.3281V8.98262H32.326V8.16602Z" fill="#181425"/>
<path d="M32.326 8.16602H32.3281V8.98262H32.326V8.16602Z" fill="#CFC6B8"/>
<path d="M67.8909 6.5332H70.3125V9.79962H67.8909V6.5332Z" fill="#181425"/>
<path d="M70.3132 6.5332H71.1211V9.79962H70.3132V6.5332Z" fill="#181425"/>
<path d="M54.9549 8.98242H54.957V9.79903H54.9549V8.98242Z" fill="#CFC6B8"/>
<path d="M54.9549 8.98242H54.957V9.79903H54.9549V8.98242Z" fill="#181425"/>
<path d="M32.326 8.98242H32.3281V9.79903H32.326V8.98242Z" fill="#181425"/>
<path d="M32.326 8.98242H32.3281V9.79903H32.326V8.98242Z" fill="#CFC6B8"/>
<path d="M22.6342 6.5332H24.25V9.79962H22.6342V6.5332Z" fill="#181425"/>
<path d="M24.2435 6.5332H25.8594V9.79962H24.2435V6.5332Z" fill="#181425"/>
<path d="M67.8909 9.7998H70.3125V10.6164H67.8909V9.7998Z" fill="#C6C6C6"/>
<path d="M70.3132 9.7998H71.1211V10.6164H70.3132V9.7998Z" fill="#C6C6C6"/>
<path d="M70.3132 10.6182H71.1211V13.0658H70.3132V10.6182Z" fill="#C6C6C6"/>
<path d="M67.8909 10.6182H70.3125V13.0658H67.8909V10.6182Z" fill="#C6C6C6"/>
<path d="M64.659 9.7998H67.8906V10.6164H64.659V9.7998Z" fill="#C6C6C6"/>
<path d="M64.659 10.6182H67.8906V13.0658H64.659V10.6182Z" fill="#C6C6C6"/>
<path d="M62.2347 10.6182H64.6562V13.0658H62.2347V10.6182Z" fill="#181425"/>
<path d="M62.2347 9.7998H64.6562V10.6164H62.2347V9.7998Z" fill="#181425"/>
<path d="M61.4226 9.7998H62.2305V10.6164H61.4226V9.7998Z" fill="#181425"/>
<path d="M61.4226 10.6182H62.2305V13.0658H61.4226V10.6182Z" fill="#181425"/>
<path d="M58.1882 10.6182H58.9961V16.3322H58.1882V10.6182Z" fill="white"/>
<path d="M58.1882 9.7998H58.9961V10.6164H58.1882V9.7998Z" fill="white"/>
<path d="M62.2347 13.0654H64.6562V16.3319H62.2347V13.0654Z" fill="white"/>
<path d="M58.9988 10.6182V16.3322H62.2305V13.0658H61.4226V10.6182H58.9988Z" fill="white"/>
<path d="M58.9981 9.7998H61.4219V10.6164H58.9981V9.7998Z" fill="white"/>
<path d="M54.9549 9.7998H54.957V10.6164H54.9549V9.7998Z" fill="#CFC6B8"/>
<path d="M54.9549 9.7998H54.957V10.6164H54.9549V9.7998Z" fill="#181425"/>
<path d="M51.7205 9.7998H51.7227V10.6164H51.7205V9.7998Z" fill="#181425"/>
<path d="M47.6831 10.6182H51.7227V13.0658H47.6831V10.6182Z" fill="#0E7DAD"/>
<path d="M45.2581 10.6182H47.6797V13.0658H45.2581V10.6182Z" fill="#0E7DAD"/>
<path d="M45.2581 9.7998H47.6797V10.6164H45.2581V9.7998Z" fill="#0E7DAD"/>
<path d="M47.6831 9.7998H51.7227V10.6164H47.6831V9.7998Z" fill="#0E7DAD"/>
<path d="M51.7205 9.7998H51.7227V10.6164H51.7205V9.7998Z" fill="#265C42"/>
<path d="M45.2595 9.7998H45.2617V10.6164H45.2595V9.7998Z" fill="#265C42"/>
<path d="M45.2595 9.7998H45.2617V10.6164H45.2595V9.7998Z" fill="#4D8B5C"/>
<path d="M32.326 9.7998H32.3281V10.6164H32.326V9.7998Z" fill="#4D8B5C"/>
<path d="M29.0925 10.6182H32.3242V13.0658H29.0925V10.6182Z" fill="#181425"/>
<path d="M29.0925 9.7998H32.3242V10.6164H29.0925V9.7998Z" fill="#181425"/>
<path d="M32.326 9.7998H32.3281V10.6164H32.326V9.7998Z" fill="#181425"/>
<path d="M22.6342 10.6182H24.25V16.3322H22.6342V10.6182Z" fill="white"/>
<path d="M24.2435 10.6182H25.8594V16.3322H24.2435V10.6182Z" fill="white"/>
<path d="M24.2435 9.7998H25.8594V10.6164H24.2435V9.7998Z" fill="white"/>
<path d="M22.6342 9.7998H24.25V10.6164H22.6342V9.7998Z" fill="white"/>
<path d="M54.9549 10.6182H54.957V11.4348H54.9549V10.6182Z" fill="#CFC6B8"/>
<path d="M54.9549 10.6182H54.957V11.4348H54.9549V10.6182Z" fill="#181425"/>
<path d="M51.7205 10.6182H51.7227V11.4348H51.7205V10.6182Z" fill="#181425"/>
<path d="M51.7205 10.6182H51.7227V11.4348H51.7205V10.6182Z" fill="#265C42"/>
<path d="M45.2595 10.6182H45.2617V11.4348H45.2595V10.6182Z" fill="#265C42"/>
<path d="M45.2595 10.6182H45.2617V11.4348H45.2595V10.6182Z" fill="#4D8B5C"/>
<path d="M32.326 10.6182H32.3281V11.4348H32.326V10.6182Z" fill="#4D8B5C"/>
<path d="M32.326 10.6182H32.3281V11.4348H32.326V10.6182Z" fill="#181425"/>
<path d="M54.9549 11.4346H54.957V12.2512H54.9549V11.4346Z" fill="#CFC6B8"/>
<path d="M54.9549 11.4346H54.957V12.2512H54.9549V11.4346Z" fill="#181425"/>
<path d="M51.7205 11.4346H51.7227V12.2512H51.7205V11.4346Z" fill="#181425"/>
<path d="M51.7205 11.4346H51.7227V12.2512H51.7205V11.4346Z" fill="#265C42"/>
<path d="M45.2595 11.4346H45.2617V12.2512H45.2595V11.4346Z" fill="#265C42"/>
<path d="M45.2595 11.4346H45.2617V12.2512H45.2595V11.4346Z" fill="#4D8B5C"/>
<path d="M32.326 11.4346H32.3281V12.2512H32.326V11.4346Z" fill="#4D8B5C"/>
<path d="M32.326 11.4346H32.3281V12.2512H32.326V11.4346Z" fill="#181425"/>
<path d="M54.9549 12.249H54.957V13.0656H54.9549V12.249Z" fill="#CFC6B8"/>
<path d="M54.9549 12.249H54.957V13.0656H54.9549V12.249Z" fill="#181425"/>
<path d="M51.7205 12.249H51.7227V13.0656H51.7205V12.249Z" fill="#181425"/>
<path d="M51.7205 12.249H51.7227V13.0656H51.7205V12.249Z" fill="#265C42"/>
<path d="M45.2595 12.249H45.2617V13.0656H45.2595V12.249Z" fill="#265C42"/>
<path d="M45.2595 12.249H45.2617V13.0656H45.2595V12.249Z" fill="#4D8B5C"/>
<path d="M32.326 12.249H32.3281V13.0656H32.326V12.249Z" fill="#4D8B5C"/>
<path d="M32.326 12.249H32.3281V13.0656H32.326V12.249Z" fill="#181425"/>
<path d="M54.9597 13.0654H58.1914V16.3319H54.9597V13.0654Z" fill="#181425"/>
<path d="M54.9549 13.0654H54.957V13.882H54.9549V13.0654Z" fill="#181425"/>
<path d="M53.3395 13.0654H54.9531V16.3319H53.3395V13.0654Z" fill="#0E7DAD"/>
<path d="M51.7262 13.0654H53.3398V16.3319H51.7262V13.0654Z" fill="#0E7DAD"/>
<path d="M54.9549 13.0654H54.957V13.882H54.9549V13.0654Z" fill="#265C42"/>
<path d="M51.7205 13.0654H51.7227V13.882H51.7205V13.0654Z" fill="#265C42"/>
<path d="M51.7205 13.0654H51.7227V13.882H51.7205V13.0654Z" fill="#4D8B5C"/>
<path d="M25.8621 13.0654H29.0938V16.3319H25.8621V13.0654Z" fill="#181425"/>
<path d="M54.9549 13.8828H54.957V14.6994H54.9549V13.8828Z" fill="#181425"/>
<path d="M54.9549 13.8828H54.957V14.6994H54.9549V13.8828Z" fill="#265C42"/>
<path d="M51.7205 13.8828H51.7227V14.6994H51.7205V13.8828Z" fill="#265C42"/>
<path d="M51.7205 13.8828H51.7227V14.6994H51.7205V13.8828Z" fill="#4D8B5C"/>
<path d="M54.9549 14.6982H54.957V15.5148H54.9549V14.6982Z" fill="#181425"/>
<path d="M54.9549 14.6982H54.957V15.5148H54.9549V14.6982Z" fill="#265C42"/>
<path d="M51.7205 14.6982H51.7227V15.5148H51.7205V14.6982Z" fill="#265C42"/>
<path d="M51.7205 14.6982H51.7227V15.5148H51.7205V14.6982Z" fill="#4D8B5C"/>
<path d="M71.1238 9.7998H74.3555V10.6164H71.1238V9.7998Z" fill="#181425"/>
<path d="M64.659 13.0654H67.8906V16.3319H64.659V13.0654Z" fill="#181425"/>
<path d="M70.3159 13.0658V16.3322H74.3555V10.6182H71.1238V13.0658H70.3159Z" fill="#181425"/>
<path d="M67.8909 13.0654H70.3125V16.3319H67.8909V13.0654Z" fill="#181425"/>
<path d="M54.9549 15.5156H54.957V16.3322H54.9549V15.5156Z" fill="#181425"/>
<path d="M54.9549 15.5156H54.957V16.3322H54.9549V15.5156Z" fill="#265C42"/>
<path d="M51.7205 15.5156H51.7227V16.3322H51.7205V15.5156Z" fill="#265C42"/>
<path d="M51.7205 15.5156H51.7227V16.3322H51.7205V15.5156Z" fill="#4D8B5C"/>
<path d="M70.3159 16.3311H74.3555V17.1477H70.3159V16.3311Z" fill="#0E7DAD"/>
<path d="M70.3159 17.1514H74.3555V19.599H70.3159V17.1514Z" fill="#0E7DAD"/>
<path d="M67.8909 17.1514H70.3125V19.599H67.8909V17.1514Z" fill="#0E7DAD"/>
<path d="M67.8909 16.3311H70.3125V17.1477H67.8909V16.3311Z" fill="#0E7DAD"/>
<path d="M62.2347 17.1514H64.6562V24.4986H62.2347V17.1514Z" fill="#181425"/>
<path d="M61.4226 24.501H62.2305V26.1342H61.4226V24.501Z" fill="#181425"/>
<path d="M58.9988 16.3311H62.2305V17.1477H58.9988V16.3311Z" fill="#181425"/>
<path d="M62.2305 17.1514H58.9988V19.599H61.4226V24.4986H62.2305V17.1514Z" fill="#181425"/>
<path d="M58.1882 17.1514H58.9961V19.599H58.1882V17.1514Z" fill="#181425"/>
<path d="M58.1882 16.3311H58.9961V17.1477H58.1882V16.3311Z" fill="#181425"/>
<path d="M62.2347 16.3311H64.6562V17.1477H62.2347V16.3311Z" fill="#181425"/>
<path d="M64.659 16.3311H67.8906V17.1477H64.659V16.3311Z" fill="#181425"/>
<path d="M64.659 17.1514H67.8906V19.599H64.659V17.1514Z" fill="#181425"/>
<path d="M62.2347 24.501H64.6562V26.1342H62.2347V24.501Z" fill="#181425"/>
<path d="M54.9597 17.1514H58.1914V22.8654H54.9597V17.1514Z" fill="#0E7DAD"/>
<path d="M54.9597 16.3311H58.1914V17.1477H54.9597V16.3311Z" fill="#0E7DAD"/>
<path d="M54.9549 16.3311H54.957V17.1477H54.9549V16.3311Z" fill="#265C42"/>
<path d="M53.3395 16.3311H54.9531V17.1477H53.3395V16.3311Z" fill="#39B0E3"/>
<path d="M51.7262 16.3311H53.3398V17.1477H51.7262V16.3311Z" fill="#39B0E3"/>
<path d="M54.9549 16.3311H54.957V17.1477H54.9549V16.3311Z" fill="#4D8B5C"/>
<path d="M51.7205 16.3311H51.7227V17.1477H51.7205V16.3311Z" fill="#4D8B5C"/>
<path d="M45.2581 16.3311H47.6797V17.1477H45.2581V16.3311Z" fill="#181425"/>
<path d="M45.2581 17.1514H47.6797V19.599H45.2581V17.1514Z" fill="#181425"/>
<path d="M47.6831 16.3311H51.7227V17.1477H47.6831V16.3311Z" fill="#181425"/>
<path d="M47.6831 17.1514H51.7227V19.599H47.6831V17.1514Z" fill="#181425"/>
<path d="M51.7205 16.3311H51.7227V17.1477H51.7205V16.3311Z" fill="#181425"/>
<path d="M45.2595 16.3311H45.2617V17.1477H45.2595V16.3311Z" fill="#181425"/>
<path d="M45.2595 16.3311H45.2617V17.1477H45.2595V16.3311Z" fill="#4D8B5C"/>
<path d="M32.326 16.3311H32.3281V17.1477H32.326V16.3311Z" fill="#4D8B5C"/>
<path d="M29.0925 16.3311H32.3242V17.1477H29.0925V16.3311Z" fill="#181425"/>
<path d="M29.0925 17.1514H32.3242V19.599H29.0925V17.1514Z" fill="#181425"/>
<path d="M32.326 16.3311H32.3281V17.1477H32.326V16.3311Z" fill="#181425"/>
<path d="M22.6342 16.3311H24.25V17.1477H22.6342V16.3311Z" fill="#181425"/>
<path d="M22.6342 17.1514H24.25V19.599H22.6342V17.1514Z" fill="#181425"/>
<path d="M24.2435 16.3311H25.8594V17.1477H24.2435V16.3311Z" fill="#181425"/>
<path d="M24.2435 17.1514H25.8594V19.599H24.2435V17.1514Z" fill="#181425"/>
<path d="M54.9549 17.1514H54.957V17.968H54.9549V17.1514Z" fill="#265C42"/>
<path d="M54.9549 17.1514H54.957V17.968H54.9549V17.1514Z" fill="#4D8B5C"/>
<path d="M51.7205 17.1514H51.7227V17.968H51.7205V17.1514Z" fill="#4D8B5C"/>
<path d="M51.7205 17.1514H51.7227V17.968H51.7205V17.1514Z" fill="#181425"/>
<path d="M45.2595 17.1514H45.2617V17.968H45.2595V17.1514Z" fill="#181425"/>
<path d="M45.2595 17.1514H45.2617V17.968H45.2595V17.1514Z" fill="#4D8B5C"/>
<path d="M32.326 17.1514H32.3281V17.968H32.326V17.1514Z" fill="#4D8B5C"/>
<path d="M32.326 17.1514H32.3281V17.968H32.326V17.1514Z" fill="#181425"/>
<path d="M54.9549 17.9668H54.957V18.7834H54.9549V17.9668Z" fill="#265C42"/>
<path d="M54.9549 17.9668H54.957V18.7834H54.9549V17.9668Z" fill="#4D8B5C"/>
<path d="M51.7205 17.9668H51.7227V18.7834H51.7205V17.9668Z" fill="#4D8B5C"/>
<path d="M51.7205 17.9668H51.7227V18.7834H51.7205V17.9668Z" fill="#181425"/>
<path d="M45.2595 17.9668H45.2617V18.7834H45.2595V17.9668Z" fill="#181425"/>
<path d="M45.2595 17.9668H45.2617V18.7834H45.2595V17.9668Z" fill="#4D8B5C"/>
<path d="M32.326 17.9668H32.3281V18.7834H32.326V17.9668Z" fill="#4D8B5C"/>
<path d="M32.326 17.9668H32.3281V18.7834H32.326V17.9668Z" fill="#181425"/>
<path d="M76.7741 17.1514H77.582V19.599H76.7741V17.1514Z" fill="#181425"/>
<path d="M76.7741 13.0654H77.582V17.1485H76.7741V13.0654Z" fill="#181425"/>
<path d="M74.3558 13.0654H76.7773V17.1485H74.3558V13.0654Z" fill="#181425"/>
<path d="M74.3558 17.1514H76.7773V19.599H74.3558V17.1514Z" fill="#181425"/>
<path d="M54.9549 18.7812H54.957V19.5979H54.9549V18.7812Z" fill="#265C42"/>
<path d="M54.9549 18.7812H54.957V19.5979H54.9549V18.7812Z" fill="#4D8B5C"/>
<path d="M51.7205 18.7812H51.7227V19.5979H51.7205V18.7812Z" fill="#4D8B5C"/>
<path d="M51.7205 18.7812H51.7227V19.5979H51.7205V18.7812Z" fill="#181425"/>
<path d="M45.2595 18.7812H45.2617V19.5979H45.2595V18.7812Z" fill="#181425"/>
<path d="M45.2595 18.7812H45.2617V19.5979H45.2595V18.7812Z" fill="#4D8B5C"/>
<path d="M32.326 18.7812H32.3281V19.5979H32.326V18.7812Z" fill="#4D8B5C"/>
<path d="M32.326 18.7812H32.3281V19.5979H32.326V18.7812Z" fill="#181425"/>
<path d="M19.3972 9.7998H22.6289V10.6164H19.3972V9.7998Z" fill="#181425"/>
<path d="M19.3972 10.6182H22.6289V13.0658H19.3972V10.6182Z" fill="#181425"/>
<path d="M18.5893 13.0654V17.1485H19.3972V16.3319H22.6289V13.0654H18.5893Z" fill="#181425"/>
<path d="M18.5905 17.1514H19.3984V19.599H18.5905V17.1514Z" fill="#181425"/>
<path d="M16.1661 13.0654H18.5898V17.1485H16.1661V13.0654Z" fill="#181425"/>
<path d="M16.1661 17.1514H18.5898V19.599H16.1661V17.1514Z" fill="#181425"/>
<path d="M76.7741 19.5986H77.582V22.8651H76.7741V19.5986Z" fill="#0E7DAD"/>
<path d="M74.3558 19.5986H76.7773V22.8651H74.3558V19.5986Z" fill="#0E7DAD"/>
<path d="M71.1238 19.5986H74.3555V22.8651H71.1238V19.5986Z" fill="#0E7DAD"/>
<path d="M67.8909 24.501H70.3125V26.1342H67.8909V24.501Z" fill="#181425"/>
<path d="M67.8909 19.5986H70.3125V24.4983H67.8909V19.5986Z" fill="#181425"/>
<path d="M74.3558 22.8643H76.7773V24.4975H74.3558V22.8643Z" fill="#181425"/>
<path d="M71.1238 31.0332H74.3555V37.5639H71.1238V31.0332Z" fill="#181425"/>
<path d="M71.1238 37.5664H74.3555V45.7303H71.1238V37.5664Z" fill="#181425"/>
<path d="M74.3558 39.1992H76.7773V42.4635H74.3558V39.1992Z" fill="#181425"/>
<path d="M76.7807 39.1992V42.4635H77.5886V45.7299H80.8203V39.1992H76.7807Z" fill="#181425"/>
<path d="M70.3159 24.501V26.132H71.1238V31.0316H74.3555V24.501H70.3159Z" fill="#181425"/>
<path d="M71.1238 45.7314H74.3555V48.9957H71.1238V45.7314Z" fill="#181425"/>
<path d="M70.3132 26.1318H71.1211V26.134H70.3132V26.1318Z" fill="#181425"/>
<path d="M74.3558 24.501H76.7773V26.1342H74.3558V24.501Z" fill="#181425"/>
<path d="M71.1238 19.5986H70.3159V24.4983H74.3555V22.8651H71.1238V19.5986Z" fill="#181425"/>
<path d="M77.5886 22.8651H76.7807V24.4983H80.8203V19.5986H77.5886V22.8651Z" fill="#181425"/>
<path d="M76.7807 24.501H80.8203V26.1342H76.7807V24.501Z" fill="#181425"/>
<path d="M58.9981 19.5986H61.4219V24.4983H58.9981V19.5986Z" fill="#0E7DAD"/>
<path d="M58.9981 24.501H61.4219V26.1342H58.9981V24.501Z" fill="#0E7DAD"/>
<path d="M58.1882 24.501H58.9961V26.1342H58.1882V24.501Z" fill="#0E7DAD"/>
<path d="M58.1882 19.5986H58.9961V24.4983H58.1882V19.5986Z" fill="#0E7DAD"/>
<path d="M54.9549 19.5986H54.957V20.4152H54.9549V19.5986Z" fill="#265C42"/>
<path d="M54.9549 19.5986H54.957V20.4152H54.9549V19.5986Z" fill="#4D8B5C"/>
<path d="M22.6342 19.5986H24.25V22.8651H22.6342V19.5986Z" fill="#39B0E3"/>
<path d="M16.1661 31.0332H18.5898V37.5639H16.1661V31.0332Z" fill="#181425"/>
<path d="M16.1661 37.5664H18.5898V39.1974H16.1661V37.5664Z" fill="#181425"/>
<path d="M18.5893 37.5664V39.1974H19.3972V45.7303H22.6289V37.5664H18.5893Z" fill="#181425"/>
<path d="M18.5893 31.0332V37.5639H22.6289V35.9307H19.3972V31.0332H18.5893Z" fill="#181425"/>
<path d="M16.1661 19.5986H18.5898V24.4983H16.1661V19.5986Z" fill="#39B0E3"/>
<path d="M16.1661 24.501H18.5898V26.132H16.1661V24.501Z" fill="#39B0E3"/>
<path d="M18.5905 24.501H19.3984V26.132H18.5905V24.501Z" fill="#39B0E3"/>
<path d="M18.5905 19.5986H19.3984V24.4983H18.5905V19.5986Z" fill="#39B0E3"/>
<path d="M12.9307 24.501H16.1602V26.132H12.9307V24.501Z" fill="#181425"/>
<path d="M12.9307 19.5986H16.1602V24.4983H12.9307V19.5986Z" fill="#181425"/>
<path d="M54.9549 20.415H54.957V21.2316H54.9549V20.415Z" fill="#265C42"/>
<path d="M54.9549 20.415H54.957V21.2316H54.9549V20.415Z" fill="#4D8B5C"/>
<path d="M54.9549 21.2324H54.957V22.049H54.9549V21.2324Z" fill="#265C42"/>
<path d="M54.9549 21.2324H54.957V22.049H54.9549V21.2324Z" fill="#4D8B5C"/>
<path d="M54.9549 22.0479H54.957V22.8645H54.9549V22.0479Z" fill="#265C42"/>
<path d="M54.9549 22.0479H54.957V22.8645H54.9549V22.0479Z" fill="#4D8B5C"/>
<path d="M47.6844 24.501H53.3398V26.1342H47.6844V24.501Z" fill="#181425"/>
<path d="M47.6844 22.8643H53.3398V24.4975H47.6844V22.8643Z" fill="#181425"/>
<path d="M45.2581 24.501H47.6797V26.1342H45.2581V24.501Z" fill="#181425"/>
<path d="M45.2581 22.8643H47.6797V24.4975H45.2581V22.8643Z" fill="#181425"/>
<path d="M53.3439 22.8643H58.1914V24.4975H53.3439V22.8643Z" fill="#181425"/>
<path d="M53.3439 24.501H58.1914V26.1342H53.3439V24.501Z" fill="#181425"/>
<path d="M45.2595 22.8643H45.2617V23.6809H45.2595V22.8643Z" fill="#181425"/>
<path d="M45.2595 22.8643H45.2617V23.6809H45.2595V22.8643Z" fill="#4D8B5C"/>
<path d="M24.25 24.4983V22.8651H22.6342V19.5986H19.4025V24.4983H24.25Z" fill="#181425"/>
<path d="M24.2462 22.8643H29.0938V24.4975H24.2462V22.8643Z" fill="#181425"/>
<path d="M24.2462 24.501H29.0938V26.1342H24.2462V24.501Z" fill="#181425"/>
<path d="M22.6342 26.1318H24.25V26.134H22.6342V26.1318Z" fill="#181425"/>
<path d="M45.2595 23.6816H45.2617V24.4982H45.2595V23.6816Z" fill="#181425"/>
<path d="M45.2595 23.6816H45.2617V24.4982H45.2595V23.6816Z" fill="#4D8B5C"/>
<path d="M45.2595 24.501H45.2617V25.3176H45.2595V24.501Z" fill="#181425"/>
<path d="M45.2595 24.501H45.2617V25.3176H45.2595V24.501Z" fill="#4D8B5C"/>
<path d="M67.0827 26.1318H67.8906V26.134H67.0827V26.1318Z" fill="#3E8948"/>
<path d="M66.278 26.1318H67.0859V26.134H66.278V26.1318Z" fill="#3E8948"/>
<path d="M65.4616 26.1318H66.2695V26.134H65.4616V26.1318Z" fill="#3E8948"/>
<path d="M64.6608 26.1318H65.4688V26.134H64.6608V26.1318Z" fill="#3E8948"/>
<path d="M45.2595 25.3164H45.2617V26.133H45.2595V25.3164Z" fill="#181425"/>
<path d="M44.4516 26.1308V26.133H45.2617V25.3164H45.2595V26.1308H44.4516Z" fill="#4D8B5C"/>
<path d="M43.6452 26.1318H44.4531V26.134H43.6452V26.1318Z" fill="#4D8B5C"/>
<path d="M42.8327 26.1318H43.6406V26.134H42.8327V26.1318Z" fill="#4D8B5C"/>
<path d="M42.028 26.1318H42.8359V26.134H42.028V26.1318Z" fill="#4D8B5C"/>
<path d="M32.3238 26.1318H32.3281V26.1362H32.3238V26.1318Z" fill="#4D8B5C"/>
<path d="M31.5202 26.1318H32.3281V26.134H31.5202V26.1318Z" fill="#4D8B5C"/>
<path d="M30.7116 26.1318H31.5195V26.134H30.7116V26.1318Z" fill="#4D8B5C"/>
<path d="M29.9008 26.1318H30.7109V26.134H29.9008V26.1318Z" fill="#4D8B5C"/>
<path d="M29.0944 26.1318H29.9023V26.134H29.0944V26.1318Z" fill="#4D8B5C"/>
<path d="M18.5905 26.1318H19.3984V26.134H18.5905V26.1318Z" fill="#3E8948"/>
<path d="M17.7819 26.1318H18.5898V26.134H17.7819V26.1318Z" fill="#3E8948"/>
<path d="M16.9733 26.1318H17.7812V26.134H16.9733V26.1318Z" fill="#3E8948"/>
<path d="M16.1647 26.1318H16.9727V26.134H16.1647V26.1318Z" fill="#3E8948"/>
<path d="M15.3522 26.1318H16.1602V26.134H15.3522V26.1318Z" fill="#181425"/>
<path d="M14.5454 26.1318H15.3555V26.134H14.5454V26.1318Z" fill="#181425"/>
<path d="M13.739 26.1318H14.5469V26.134H13.739V26.1318Z" fill="#181425"/>
<path d="M12.9304 26.1318H13.7383V26.134H12.9304V26.1318Z" fill="#181425"/>
<path d="M76.7807 26.1328H80.8203V31.0303H76.7807V26.1328Z" fill="#C6C6C6"/>
<path d="M76.7807 37.5664H80.8203V39.1974H76.7807V37.5664Z" fill="#C6C6C6"/>
<path d="M76.7807 31.0332H80.8203V37.5639H76.7807V31.0332Z" fill="#C6C6C6"/>
<path d="M74.3558 37.5664H76.7773V39.1974H74.3558V37.5664Z" fill="#C6C6C6"/>
<path d="M74.3558 31.0332H76.7773V37.5639H74.3558V31.0332Z" fill="#C6C6C6"/>
<path d="M74.3558 26.1328H76.7773V31.0303H74.3558V26.1328Z" fill="#C6C6C6"/>
<path d="M80.0124 26.1318H80.8203V26.134H80.0124V26.1318Z" fill="#A0938E"/>
<path d="M79.2038 26.1318H80.0117V26.134H79.2038V26.1318Z" fill="#A0938E"/>
<path d="M78.3952 26.1318H79.2031V26.134H78.3952V26.1318Z" fill="#A0938E"/>
<path d="M77.5905 26.1318H78.3984V26.134H77.5905V26.1318Z" fill="#A0938E"/>
<path d="M76.7741 26.1318H77.582V26.134H76.7741V26.1318Z" fill="#A0938E"/>
<path d="M75.9694 26.1318H76.7773V26.134H75.9694V26.1318Z" fill="#A0938E"/>
<path d="M75.1587 26.1318H75.9688V26.134H75.1587V26.1318Z" fill="#A0938E"/>
<path d="M74.3601 26.1318H75.168V26.134H74.3601V26.1318Z" fill="#A0938E"/>
<path d="M70.3132 37.5664H71.1211V39.1974H70.3132V37.5664Z" fill="white"/>
<path d="M70.3132 31.0332H71.1211V37.5639H70.3132V31.0332Z" fill="white"/>
<path d="M70.3132 26.1328H71.1211V31.0303H70.3132V26.1328Z" fill="white"/>
<path d="M67.8909 26.1328H70.3125V31.0303H67.8909V26.1328Z" fill="white"/>
<path d="M67.8909 31.0332H70.3125V37.5639H67.8909V31.0332Z" fill="white"/>
<path d="M67.8909 37.5664H70.3125V39.1974H67.8909V37.5664Z" fill="white"/>
<path d="M70.3132 26.1318H71.1211V26.134H70.3132V26.1318Z" fill="#CFC6B8"/>
<path d="M69.5046 26.1318H70.3125V26.134H69.5046V26.1318Z" fill="#CFC6B8"/>
<path d="M68.7016 26.1318H69.5117V26.134H68.7016V26.1318Z" fill="#CFC6B8"/>
<path d="M67.8874 26.1318H68.6953V26.134H67.8874V26.1318Z" fill="#CFC6B8"/>
<path d="M64.659 37.5664H67.8906V39.1974H64.659V37.5664Z" fill="#181425"/>
<path d="M64.659 31.0332H67.8906V37.5639H64.659V31.0332Z" fill="#181425"/>
<path d="M64.659 26.1328H67.8906V31.0303H64.659V26.1328Z" fill="#181425"/>
<path d="M53.3407 26.1328V29.3971H54.9565V31.0303H58.9961V26.1328H53.3407Z" fill="#181425"/>
<path d="M62.2347 31.0332H64.6562V32.6642H62.2347V31.0332Z" fill="#181425"/>
<path d="M62.2347 26.1328H64.6562V31.0303H62.2347V26.1328Z" fill="#181425"/>
<path d="M58.9988 26.1328H62.2305V31.0303H58.9988V26.1328Z" fill="#181425"/>
<path d="M58.9981 37.5664H61.4219V39.1974H58.9981V37.5664Z" fill="#181425"/>
<path d="M54.9565 31.0332V32.6642H58.1882V35.9307H54.9565V37.5639H58.9961V31.0332H54.9565Z" fill="#181425"/>
<path d="M54.9565 37.5664H58.9961V39.1974H54.9565V37.5664Z" fill="#181425"/>
<path d="M62.2305 31.0332H58.9988V37.5639H61.4226V32.6642H62.2305V31.0332Z" fill="#181425"/>
<path d="M47.6844 26.1328H53.3398V29.3971H47.6844V26.1328Z" fill="#181425"/>
<path d="M42.0222 31.0332H45.2539V32.6642H42.0222V31.0332Z" fill="#181425"/>
<path d="M42.0243 26.1328V31.0303H45.2559V29.3971H47.6797V26.1328H42.0243Z" fill="#181425"/>
<path d="M67.0827 26.1318H67.8906V26.134H67.0827V26.1318Z" fill="#181425"/>
<path d="M66.278 26.1318H67.0859V26.134H66.278V26.1318Z" fill="#181425"/>
<path d="M65.4616 26.1318H66.2695V26.134H65.4616V26.1318Z" fill="#181425"/>
<path d="M64.6608 26.1318H65.4688V26.134H64.6608V26.1318Z" fill="#181425"/>
<path d="M63.8483 26.1318H64.6562V26.134H63.8483V26.1318Z" fill="#181425"/>
<path d="M63.0397 26.1318H63.8477V26.134H63.0397V26.1318Z" fill="#181425"/>
<path d="M62.239 26.1318H63.0469V26.134H62.239V26.1318Z" fill="#181425"/>
<path d="M61.4226 26.1318H62.2305V26.134H61.4226V26.1318Z" fill="#181425"/>
<path d="M60.6118 26.1318H61.4219V26.134H60.6118V26.1318Z" fill="#181425"/>
<path d="M59.8093 26.1318H60.6172V26.134H59.8093V26.1318Z" fill="#181425"/>
<path d="M59.0007 26.1318H59.8086V26.134H59.0007V26.1318Z" fill="#181425"/>
<path d="M58.1882 26.1318H58.9961V26.134H58.1882V26.1318Z" fill="#181425"/>
<path d="M57.3835 26.1318H58.1914V26.134H57.3835V26.1318Z" fill="#181425"/>
<path d="M56.571 26.1318H57.3789V26.134H56.571V26.1318Z" fill="#181425"/>
<path d="M55.7663 26.1318H56.5742V26.134H55.7663V26.1318Z" fill="#181425"/>
<path d="M54.9516 26.1318H55.7617V26.134H54.9516V26.1318Z" fill="#181425"/>
<path d="M54.1491 26.1318H54.957V26.134H54.1491V26.1318Z" fill="#181425"/>
<path d="M53.3405 26.1318H54.1484V26.134H53.3405V26.1318Z" fill="#181425"/>
<path d="M52.5319 26.1318H53.3398V26.134H52.5319V26.1318Z" fill="#181425"/>
<path d="M51.7233 26.1318H52.5312V26.134H51.7233V26.1318Z" fill="#181425"/>
<path d="M50.9126 26.1318H51.7227V26.134H50.9126V26.1318Z" fill="#181425"/>
<path d="M50.1079 26.1318H50.918V26.134H50.1079V26.1318Z" fill="#181425"/>
<path d="M49.2976 26.1318H50.1055V26.134H49.2976V26.1318Z" fill="#181425"/>
<path d="M48.4929 26.1318H49.3008V26.134H48.4929V26.1318Z" fill="#181425"/>
<path d="M47.6882 26.1318H48.4961V26.134H47.6882V26.1318Z" fill="#181425"/>
<path d="M46.8718 26.1318H47.6797V26.134H46.8718V26.1318Z" fill="#181425"/>
<path d="M46.0671 26.1318H46.875V26.134H46.0671V26.1318Z" fill="#181425"/>
<path d="M45.2546 26.1318H46.0625V26.134H45.2546V26.1318Z" fill="#181425"/>
<path d="M44.4516 26.1318H45.2617V26.134H44.4516V26.1318Z" fill="#181425"/>
<path d="M43.6452 26.1318H44.4531V26.134H43.6452V26.1318Z" fill="#181425"/>
<path d="M42.8327 26.1318H43.6406V26.134H42.8327V26.1318Z" fill="#181425"/>
<path d="M42.028 26.1318H42.8359V26.134H42.028V26.1318Z" fill="#181425"/>
<path d="M32.326 26.1318H32.3281V26.9484H32.326V26.1318Z" fill="#4D8B5C"/>
<path d="M19.4025 26.1342H18.5946V31.0316H19.4025V29.3984H24.25V26.1342H22.6342V26.132H24.25V24.501H19.4025V26.1342Z" fill="#181425"/>
<path d="M16.1661 26.1328H18.5898V31.0303H16.1661V26.1328Z" fill="#181425"/>
<path d="M24.2488 26.1328V29.3971H25.8646V31.0303H42.0273V29.3971H32.328V26.1328H24.2488Z" fill="#181425"/>
<path d="M25.8609 37.5664V42.4639H29.0925V39.1974H32.3242V37.5664H25.8609Z" fill="#181425"/>
<path d="M25.8646 31.0332V32.6642H29.0963V35.9307H25.8646V37.5639H32.328V35.9307H42.0273V31.0332H25.8646Z" fill="#181425"/>
<path d="M31.5202 26.1318V26.134H32.326V26.9484H32.3281V26.1318H31.5202Z" fill="#181425"/>
<path d="M30.7116 26.1318H31.5195V26.134H30.7116V26.1318Z" fill="#181425"/>
<path d="M29.9008 26.1318H30.7109V26.134H29.9008V26.1318Z" fill="#181425"/>
<path d="M29.0944 26.1318H29.9023V26.134H29.0944V26.1318Z" fill="#181425"/>
<path d="M28.2858 26.1318H29.0938V26.134H28.2858V26.1318Z" fill="#181425"/>
<path d="M27.4772 26.1318H28.2852V26.134H27.4772V26.1318Z" fill="#181425"/>
<path d="M26.6665 26.1318H27.4766V26.134H26.6665V26.1318Z" fill="#181425"/>
<path d="M25.864 26.1318H26.6719V26.134H25.864V26.1318Z" fill="#181425"/>
<path d="M25.0515 26.1318H25.8594V26.134H25.0515V26.1318Z" fill="#181425"/>
<path d="M24.2468 26.1318H25.0547V26.134H24.2468V26.1318Z" fill="#181425"/>
<path d="M23.4421 26.1318H24.25V26.134H23.4421V26.1318Z" fill="#181425"/>
<path d="M22.6296 26.1318H23.4375V26.134H22.6296V26.1318Z" fill="#181425"/>
<path d="M18.5905 26.1318H19.3984V26.134H18.5905V26.1318Z" fill="#181425"/>
<path d="M17.7819 26.1318H18.5898V26.134H17.7819V26.1318Z" fill="#181425"/>
<path d="M16.9733 26.1318H17.7812V26.134H16.9733V26.1318Z" fill="#181425"/>
<path d="M16.1647 26.1318H16.9727V26.134H16.1647V26.1318Z" fill="#181425"/>
<path d="M12.9307 26.1328H16.1602V31.0303H12.9307V26.1328Z" fill="white"/>
<path d="M12.9307 37.5664H16.1602V39.1974H12.9307V37.5664Z" fill="white"/>
<path d="M12.9307 31.0332H16.1602V37.5639H12.9307V31.0332Z" fill="white"/>
<path d="M15.3522 26.1318H16.1602V26.134H15.3522V26.1318Z" fill="#CFC6B8"/>
<path d="M14.5454 26.1318H15.3555V26.134H14.5454V26.1318Z" fill="#CFC6B8"/>
<path d="M13.739 26.1318H14.5469V26.134H13.739V26.1318Z" fill="#CFC6B8"/>
<path d="M12.9304 26.1318H13.7383V26.134H12.9304V26.1318Z" fill="#CFC6B8"/>
<path d="M9.70192 26.1318H12.9336V31.0315H9.70192V26.1318Z" fill="#181425"/>
<path d="M9.70192 37.5664H12.9336V39.1996H9.70192V37.5664Z" fill="#181425"/>
<path d="M9.70192 31.0332H12.9336V37.5639H9.70192V31.0332Z" fill="#181425"/>
<path d="M32.326 26.9482H32.3281V27.7648H32.326V26.9482Z" fill="#4D8B5C"/>
<path d="M32.326 26.9482H32.3281V27.7648H32.326V26.9482Z" fill="#181425"/>
<path d="M32.326 27.7646H32.3281V28.5813H32.326V27.7646Z" fill="#181425"/>
<path d="M32.326 28.582H32.3281V29.3986H32.326V28.582Z" fill="#181425"/>
<path d="M54.9549 29.3975H54.957V30.2141H54.9549V29.3975Z" fill="#181425"/>
<path d="M53.3395 29.3975H54.9531V31.0307H53.3395V29.3975Z" fill="white"/>
<path d="M53.3395 37.5664H54.9531V39.1974H53.3395V37.5664Z" fill="white"/>
<path d="M48.4923 37.5664H53.3398V39.1974H48.4923V37.5664Z" fill="white"/>
<path d="M48.4923 35.9307V37.5639H53.3398V31.0332H51.7262V35.9307H48.4923Z" fill="white"/>
<path d="M51.7262 29.3975H53.3398V31.0307H51.7262V29.3975Z" fill="white"/>
<path d="M54.9549 29.3975H54.957V30.2141H54.9549V29.3975Z" fill="#CFC6B8"/>
<path d="M51.7205 29.3975H51.7227V30.2141H51.7205V29.3975Z" fill="#CFC6B8"/>
<path d="M50.9126 29.3975H51.7227V30.2141H50.9126V29.3975Z" fill="#3978A8"/>
<path d="M50.1079 29.3975H50.918V30.2141H50.1079V29.3975Z" fill="#3978A8"/>
<path d="M49.2976 29.3975H50.1055V30.2141H49.2976V29.3975Z" fill="#3978A8"/>
<path d="M48.4929 29.3975H49.3008V30.2141H48.4929V29.3975Z" fill="#3978A8"/>
<path d="M47.6882 29.3975H48.4961V30.2141H47.6882V29.3975Z" fill="#3978A8"/>
<path d="M46.8718 29.3975H47.6797V30.2141H46.8718V29.3975Z" fill="#3978A8"/>
<path d="M46.0671 29.3975H46.875V30.2141H46.0671V29.3975Z" fill="#3978A8"/>
<path d="M45.2546 29.3975H46.0625V30.2141H45.2546V29.3975Z" fill="#3978A8"/>
<path d="M45.2595 29.3975H45.2617V30.2141H45.2595V29.3975Z" fill="#181425"/>
<path d="M25.0515 29.3975H25.8594V30.2141H25.0515V29.3975Z" fill="#3978A8"/>
<path d="M24.2468 29.3975H25.0547V30.2141H24.2468V29.3975Z" fill="#3978A8"/>
<path d="M23.4421 29.3975H24.25V30.2141H23.4421V29.3975Z" fill="#3978A8"/>
<path d="M22.6296 29.3975H23.4375V30.2141H22.6296V29.3975Z" fill="#3978A8"/>
<path d="M21.821 29.3975H22.6289V30.2141H21.821V29.3975Z" fill="#3978A8"/>
<path d="M21.0102 29.3975H21.8203V30.2141H21.0102V29.3975Z" fill="#3978A8"/>
<path d="M20.2038 29.3975H21.0117V30.2141H20.2038V29.3975Z" fill="#3978A8"/>
<path d="M19.3952 29.3975H20.2031V30.2141H19.3952V29.3975Z" fill="#3978A8"/>
<path d="M54.9549 30.2148H54.957V31.0315H54.9549V30.2148Z" fill="#181425"/>
<path d="M54.9549 30.2148H54.957V31.0315H54.9549V30.2148Z" fill="#CFC6B8"/>
<path d="M51.7205 30.2148H51.7227V31.0315H51.7205V30.2148Z" fill="#CFC6B8"/>
<path d="M50.9126 30.2148H51.7227V31.0315H50.9126V30.2148Z" fill="#3978A8"/>
<path d="M50.1079 30.2148H50.918V31.0315H50.1079V30.2148Z" fill="#3978A8"/>
<path d="M49.3019 30.2148H50.1055V31.0315H49.3019V30.2148Z" fill="#3978A8"/>
<path d="M48.4924 30.2148H49.3047V31.0315H48.4968L48.4924 30.2148Z" fill="#3978A8"/>
<path d="M47.6882 30.2148H48.4961V31.0315H47.6882V30.2148Z" fill="#3978A8"/>
<path d="M46.8718 30.2148H47.6797V31.0315H46.8718V30.2148Z" fill="#3978A8"/>
<path d="M46.0671 30.2148H46.875V31.0315H46.0671V30.2148Z" fill="#3978A8"/>
<path d="M45.2546 30.2148H46.0625V31.0315H45.2546V30.2148Z" fill="#3978A8"/>
<path d="M45.2595 30.2148H45.2617V31.0315H45.2595V30.2148Z" fill="#181425"/>
<path d="M25.0515 30.2148H25.8594V31.0315H25.0515V30.2148Z" fill="#3978A8"/>
<path d="M24.2468 30.2148H25.0547V31.0315H24.2468V30.2148Z" fill="#3978A8"/>
<path d="M23.4421 30.2148H24.25V31.0315H23.4421V30.2148Z" fill="#3978A8"/>
<path d="M22.6296 30.2148H23.4375V31.0315H22.6296V30.2148Z" fill="#3978A8"/>
<path d="M21.821 30.2148H22.6289V31.0315H21.821V30.2148Z" fill="#3978A8"/>
<path d="M21.0102 30.2148H21.8203V31.0315H21.0102V30.2148Z" fill="#3978A8"/>
<path d="M20.2038 30.2148H21.0117V31.0315H20.2038V30.2148Z" fill="#3978A8"/>
<path d="M19.3952 30.2148H20.2031V31.0315H19.3952V30.2148Z" fill="#3978A8"/>
<path d="M54.9549 31.0332H54.957V31.8498H54.9549V31.0332Z" fill="#181425"/>
<path d="M54.9549 31.0332H54.957V31.8498H54.9549V31.0332Z" fill="#CFC6B8"/>
<path d="M51.7205 31.0332H51.7227V31.8498H51.7205V31.0332Z" fill="#CFC6B8"/>
<path d="M50.9126 31.0332H51.7227V31.8498H50.9126V31.0332Z" fill="#3978A8"/>
<path d="M50.1079 31.0332H50.918V31.8498H50.1079V31.0332Z" fill="#3978A8"/>
<path d="M49.3019 31.0332H50.1055V31.8498H49.3019V31.0332Z" fill="#3978A8"/>
<path d="M48.4924 31.0332H49.3047V31.8498H48.4968L48.4924 31.0332Z" fill="#3978A8"/>
<path d="M47.6882 31.0332H48.4961V31.8498H47.6882V31.0332Z" fill="#3978A8"/>
<path d="M46.8718 31.0332H47.6797V31.8498H46.8718V31.0332Z" fill="#3978A8"/>
<path d="M46.0671 31.0332H46.875V31.8498H46.0671V31.0332Z" fill="#3978A8"/>
<path d="M45.2546 31.0332H46.0625V31.8498H45.2546V31.0332Z" fill="#3978A8"/>
<path d="M45.2595 31.0332H45.2617V31.8498H45.2595V31.0332Z" fill="#181425"/>
<path d="M25.0515 31.0332H25.8594V31.8498H25.0515V31.0332Z" fill="#3978A8"/>
<path d="M24.2468 31.0332H25.0547V31.8498H24.2468V31.0332Z" fill="#3978A8"/>
<path d="M23.4421 31.0332H24.25V31.8498H23.4421V31.0332Z" fill="#3978A8"/>
<path d="M22.6296 31.0332H23.4375V31.8498H22.6296V31.0332Z" fill="#3978A8"/>
<path d="M21.821 31.0332H22.6289V31.8498H21.821V31.0332Z" fill="#3978A8"/>
<path d="M21.0102 31.0332H21.8203V31.8498H21.0102V31.0332Z" fill="#3978A8"/>
<path d="M20.2038 31.0332H21.0117V31.8498H20.2038V31.0332Z" fill="#3978A8"/>
<path d="M19.3952 31.0332H20.2031V31.8498H19.3952V31.0332Z" fill="#3978A8"/>
<path d="M63.8483 32.665H64.6562V32.6672H63.8483V32.665Z" fill="#181425"/>
<path d="M63.0397 32.665H63.8477V32.6672H63.0397V32.665Z" fill="#181425"/>
<path d="M62.239 32.665H63.0469V32.6672H62.239V32.665Z" fill="#181425"/>
<path d="M61.4226 32.665H62.2305V32.6672H61.4226V32.665Z" fill="#181425"/>
<path d="M57.3835 32.665H58.1914V32.6672H57.3835V32.665Z" fill="#181425"/>
<path d="M56.571 32.665H57.3789V32.6672H56.571V32.665Z" fill="#181425"/>
<path d="M55.7663 32.665H56.5742V32.6672H55.7663V32.665Z" fill="#181425"/>
<path d="M54.9516 31.8506V32.6672H55.7617V32.665H54.9538V31.8506H54.9516Z" fill="#181425"/>
<path d="M54.9549 31.8506H54.957V32.6672H54.9549V31.8506Z" fill="#CFC6B8"/>
<path d="M51.7205 31.8506H51.7227V32.6672H51.7205V31.8506Z" fill="#CFC6B8"/>
<path d="M50.9126 31.8506H51.7227V32.6672H50.9126V31.8506Z" fill="#3978A8"/>
<path d="M50.1079 31.8506H50.918V32.6672H50.1079V31.8506Z" fill="#3978A8"/>
<path d="M49.3019 31.8506H50.1055V32.6672H49.3019V31.8506Z" fill="#3978A8"/>
<path d="M48.4924 31.8506H49.3047V32.6672H48.4968L48.4924 31.8506Z" fill="#3978A8"/>
<path d="M47.6882 31.8506H48.4961V32.6672H47.6882V31.8506Z" fill="#3978A8"/>
<path d="M46.8718 31.8506H47.6797V32.6672H46.8718V31.8506Z" fill="#3978A8"/>
<path d="M46.0671 31.8506H46.875V32.6672H46.0671V31.8506Z" fill="#3978A8"/>
<path d="M45.2546 31.8506H46.0625V32.6672H45.2546V31.8506Z" fill="#3978A8"/>
<path d="M44.4516 32.665V32.6672H45.2617V31.8506H45.2595V32.665H44.4516Z" fill="#181425"/>
<path d="M43.6452 32.665H44.4531V32.6672H43.6452V32.665Z" fill="#181425"/>
<path d="M42.8327 32.665H43.6406V32.6672H42.8327V32.665Z" fill="#181425"/>
<path d="M42.028 32.665H42.8359V32.6672H42.028V32.665Z" fill="#181425"/>
<path d="M28.2858 32.665H29.0938V32.6672H28.2858V32.665Z" fill="#181425"/>
<path d="M27.4772 32.665H28.2852V32.6672H27.4772V32.665Z" fill="#181425"/>
<path d="M26.6665 32.665H27.4766V32.6672H26.6665V32.665Z" fill="#181425"/>
<path d="M25.864 32.665H26.6719V32.6672H25.864V32.665Z" fill="#181425"/>
<path d="M25.0515 31.8506H25.8594V32.6672H25.0515V31.8506Z" fill="#3978A8"/>
<path d="M24.2468 31.8506H25.0547V32.6672H24.2468V31.8506Z" fill="#3978A8"/>
<path d="M23.4421 31.8506H24.25V32.6672H23.4421V31.8506Z" fill="#3978A8"/>
<path d="M22.6296 31.8506H23.4375V32.6672H22.6296V31.8506Z" fill="#3978A8"/>
<path d="M21.821 31.8506H22.6289V32.6672H21.821V31.8506Z" fill="#3978A8"/>
<path d="M21.0102 31.8506H21.8203V32.6672H21.0102V31.8506Z" fill="#3978A8"/>
<path d="M20.2038 31.8506H21.0117V32.6672H20.2038V31.8506Z" fill="#3978A8"/>
<path d="M19.3952 31.8506H20.2031V32.6672H19.3952V31.8506Z" fill="#3978A8"/>
<path d="M62.2347 32.667H64.6562V37.5645H62.2347V32.667Z" fill="#0E7DAD"/>
<path d="M61.4226 32.667H62.2305V37.5645H61.4226V32.667Z" fill="#0E7DAD"/>
<path d="M61.4226 37.5664H62.2305V39.1974H61.4226V37.5664Z" fill="#0E7DAD"/>
<path d="M62.2347 37.5664H64.6562V39.1974H62.2347V37.5664Z" fill="#0E7DAD"/>
<path d="M63.8483 32.665H64.6562V32.6672H63.8483V32.665Z" fill="#265C42"/>
<path d="M63.0397 32.665H63.8477V32.6672H63.0397V32.665Z" fill="#265C42"/>
<path d="M62.239 32.665H63.0469V32.6672H62.239V32.665Z" fill="#265C42"/>
<path d="M61.4226 32.665H62.2305V32.6672H61.4226V32.665Z" fill="#265C42"/>
<path d="M53.3439 31.0332V37.5639H54.9576V35.9307H58.1914V32.6664H54.9576V31.0332H53.3439Z" fill="white"/>
<path d="M57.3835 32.665H58.1914V32.6672H57.3835V32.665Z" fill="#CFC6B8"/>
<path d="M56.571 32.665H57.3789V32.6672H56.571V32.665Z" fill="#CFC6B8"/>
<path d="M55.7663 32.665H56.5742V32.6672H55.7663V32.665Z" fill="#CFC6B8"/>
<path d="M54.9516 32.665H55.7617V32.6672H54.9516V32.665Z" fill="#CFC6B8"/>
<path d="M54.9527 32.665H54.957V32.6694H54.9527V32.665Z" fill="#CFC6B8"/>
<path d="M51.7205 32.665H51.7227V33.4816H51.7205V32.665Z" fill="#CFC6B8"/>
<path d="M50.9126 32.665H51.7227V33.4816H50.9126V32.665Z" fill="#394778"/>
<path d="M50.1079 32.665H50.918V33.4816H50.1079V32.665Z" fill="#394778"/>
<path d="M49.3019 32.665H50.1055V33.4816H49.3019V32.665Z" fill="#394778"/>
<path d="M48.4924 32.665H49.3047V33.4816H48.4968L48.4924 32.665Z" fill="#394778"/>
<path d="M47.6882 32.665H48.4961V33.4816H47.6882V32.665Z" fill="#39314B"/>
<path d="M46.8718 32.665H47.6797V33.4816H46.8718V32.665Z" fill="#39314B"/>
<path d="M46.0671 32.665H46.875V33.4816H46.0671V32.665Z" fill="#39314B"/>
<path d="M45.2546 32.665H46.0625V33.4816H45.2546V32.665Z" fill="#39314B"/>
<path d="M42.0222 32.667H45.2539V35.9312H42.0222V32.667Z" fill="white"/>
<path d="M44.4516 32.665V32.6672H45.2595V33.4816H45.2617V32.665H44.4516Z" fill="#CFC6B8"/>
<path d="M43.6452 32.665H44.4531V32.6672H43.6452V32.665Z" fill="#CFC6B8"/>
<path d="M42.8327 32.665H43.6406V32.6672H42.8327V32.665Z" fill="#CFC6B8"/>
<path d="M42.028 32.665H42.8359V32.6672H42.028V32.665Z" fill="#CFC6B8"/>
<path d="M25.8621 32.667H29.0938V35.9312H25.8621V32.667Z" fill="white"/>
<path d="M28.2858 32.665H29.0938V32.6672H28.2858V32.665Z" fill="#CFC6B8"/>
<path d="M27.4772 32.665H28.2852V32.6672H27.4772V32.665Z" fill="#CFC6B8"/>
<path d="M26.6665 32.665H27.4766V32.6672H26.6665V32.665Z" fill="#CFC6B8"/>
<path d="M25.864 32.665H26.6719V32.6672H25.864V32.665Z" fill="#CFC6B8"/>
<path d="M25.0515 32.665H25.8594V33.4816H25.0515V32.665Z" fill="#39314B"/>
<path d="M24.2468 32.665H25.0547V33.4816H24.2468V32.665Z" fill="#39314B"/>
<path d="M23.4421 32.665H24.25V33.4816H23.4421V32.665Z" fill="#39314B"/>
<path d="M22.6296 32.665H23.4375V33.4816H22.6296V32.665Z" fill="#39314B"/>
<path d="M21.821 32.665H22.6289V33.4816H21.821V32.665Z" fill="#394778"/>
<path d="M21.0102 32.665H21.8203V33.4816H21.0102V32.665Z" fill="#394778"/>
<path d="M20.2038 32.665H21.0117V33.4816H20.2038V32.665Z" fill="#394778"/>
<path d="M19.3952 32.665H20.2031V33.4816H19.3952V32.665Z" fill="#394778"/>
<path d="M51.7205 33.4805H51.7227V34.2971H51.7205V33.4805Z" fill="#CFC6B8"/>
<path d="M50.9126 33.4805H51.7227V34.2971H50.9126V33.4805Z" fill="#394778"/>
<path d="M50.1079 33.4805H50.918V34.2971H50.1079V33.4805Z" fill="#394778"/>
<path d="M49.3019 33.4805H50.1055V34.2971H49.3019V33.4805Z" fill="#394778"/>
<path d="M48.4924 33.4805H49.3047V34.2971H48.4968L48.4924 33.4805Z" fill="#394778"/>
<path d="M47.6882 33.4805H48.4961V34.2971H47.6882V33.4805Z" fill="#39314B"/>
<path d="M46.8718 33.4805H47.6797V34.2971H46.8718V33.4805Z" fill="#39314B"/>
<path d="M46.0671 33.4805H46.875V34.2971H46.0671V33.4805Z" fill="#39314B"/>
<path d="M45.2546 33.4805H46.0625V34.2971H45.2546V33.4805Z" fill="#39314B"/>
<path d="M45.2595 33.4805H45.2617V34.2971H45.2595V33.4805Z" fill="#CFC6B8"/>
<path d="M25.0515 33.4805H25.8594V34.2971H25.0515V33.4805Z" fill="#39314B"/>
<path d="M24.2468 33.4805H25.0547V34.2971H24.2468V33.4805Z" fill="#39314B"/>
<path d="M23.4421 33.4805H24.25V34.2971H23.4421V33.4805Z" fill="#39314B"/>
<path d="M22.6296 33.4805H23.4375V34.2971H22.6296V33.4805Z" fill="#39314B"/>
<path d="M21.821 33.4805H22.6289V34.2971H21.821V33.4805Z" fill="#394778"/>
<path d="M21.0102 33.4805H21.8203V34.2971H21.0102V33.4805Z" fill="#394778"/>
<path d="M20.2038 33.4805H21.0117V34.2971H20.2038V33.4805Z" fill="#394778"/>
<path d="M19.3952 33.4805H20.2031V34.2971H19.3952V33.4805Z" fill="#394778"/>
<path d="M51.7205 34.2979H51.7227V35.1145H51.7205V34.2979Z" fill="#CFC6B8"/>
<path d="M50.9126 34.2979H51.7227V35.1145H50.9126V34.2979Z" fill="#394778"/>
<path d="M50.1079 34.2979H50.918V35.1145H50.1079V34.2979Z" fill="#394778"/>
<path d="M49.3019 34.2979H50.1055V35.1145H49.3019V34.2979Z" fill="#394778"/>
<path d="M48.4924 34.2979H49.3047V35.1145H48.4968L48.4924 34.2979Z" fill="#394778"/>
<path d="M47.6882 34.2979H48.4961V35.1145H47.6882V34.2979Z" fill="#39314B"/>
<path d="M46.8718 34.2979H47.6797V35.1145H46.8718V34.2979Z" fill="#39314B"/>
<path d="M46.0671 34.2979H46.875V35.1145H46.0671V34.2979Z" fill="#39314B"/>
<path d="M45.2546 34.2979H46.0625V35.1145H45.2546V34.2979Z" fill="#39314B"/>
<path d="M45.2595 34.2979H45.2617V35.1145H45.2595V34.2979Z" fill="#CFC6B8"/>
<path d="M25.0515 34.2979H25.8594V35.1145H25.0515V34.2979Z" fill="#39314B"/>
<path d="M24.2468 34.2979H25.0547V35.1145H24.2468V34.2979Z" fill="#39314B"/>
<path d="M23.4421 34.2979H24.25V35.1145H23.4421V34.2979Z" fill="#39314B"/>
<path d="M22.6296 34.2979H23.4375V35.1145H22.6296V34.2979Z" fill="#39314B"/>
<path d="M21.821 34.2979H22.6289V35.1145H21.821V34.2979Z" fill="#394778"/>
<path d="M21.0102 34.2979H21.8203V35.1145H21.0102V34.2979Z" fill="#394778"/>
<path d="M20.2038 34.2979H21.0117V35.1145H20.2038V34.2979Z" fill="#394778"/>
<path d="M19.3952 34.2979H20.2031V35.1145H19.3952V34.2979Z" fill="#394778"/>
<path d="M51.7205 35.1133H51.7227V35.9299H51.7205V35.1133Z" fill="#CFC6B8"/>
<path d="M50.9126 35.1133H51.7227V35.9299H50.9126V35.1133Z" fill="#394778"/>
<path d="M50.1079 35.1133H50.918V35.9299H50.1079V35.1133Z" fill="#394778"/>
<path d="M49.2976 35.1133H50.1055V35.9299H49.2976V35.1133Z" fill="#394778"/>
<path d="M48.4929 35.1133H49.3008V35.9299H48.4929V35.1133Z" fill="#394778"/>
<path d="M47.6882 35.1133H48.4961V35.9299H47.6882V35.1133Z" fill="#39314B"/>
<path d="M46.8718 35.1133H47.6797V35.9299H46.8718V35.1133Z" fill="#39314B"/>
<path d="M46.0671 35.1133H46.875V35.9299H46.0671V35.1133Z" fill="#39314B"/>
<path d="M45.2546 35.1133H46.0625V35.9299H45.2546V35.1133Z" fill="#39314B"/>
<path d="M45.2595 35.1133H45.2617V35.9299H45.2595V35.1133Z" fill="#CFC6B8"/>
<path d="M25.0515 35.1133H25.8594V35.9299H25.0515V35.1133Z" fill="#39314B"/>
<path d="M24.2468 35.1133H25.0547V35.9299H24.2468V35.1133Z" fill="#39314B"/>
<path d="M23.4421 35.1133H24.25V35.9299H23.4421V35.1133Z" fill="#39314B"/>
<path d="M22.6296 35.1133H23.4375V35.9299H22.6296V35.1133Z" fill="#39314B"/>
<path d="M21.821 35.1133H22.6289V35.9299H21.821V35.1133Z" fill="#394778"/>
<path d="M21.0102 35.1133H21.8203V35.9299H21.0102V35.1133Z" fill="#394778"/>
<path d="M20.2038 35.1133H21.0117V35.9299H20.2038V35.1133Z" fill="#394778"/>
<path d="M19.3952 35.1133H20.2031V35.9299H19.3952V35.1133Z" fill="#394778"/>
<path d="M54.9549 35.9307H54.957V36.7473H54.9549V35.9307Z" fill="#181425"/>
<path d="M54.9549 35.9307H54.957V36.7473H54.9549V35.9307Z" fill="#CFC6B8"/>
<path d="M47.6882 35.9307H48.4961V36.7473H47.6882V35.9307Z" fill="#39314B"/>
<path d="M46.8718 35.9307H47.6797V36.7473H46.8718V35.9307Z" fill="#39314B"/>
<path d="M46.0671 35.9307H46.875V36.7473H46.0671V35.9307Z" fill="#39314B"/>
<path d="M45.2546 35.9307H46.0625V36.7473H45.2546V35.9307Z" fill="#39314B"/>
<path d="M42.0222 37.5664H45.2539V39.1974H42.0222V37.5664Z" fill="#181425"/>
<path d="M42.0222 35.9307H45.2539V37.5639H42.0222V35.9307Z" fill="#181425"/>
<path d="M38.7957 37.5664H42.0273V39.1974H38.7957V37.5664Z" fill="#181425"/>
<path d="M38.7957 35.9307H42.0273V37.5639H38.7957V35.9307Z" fill="#181425"/>
<path d="M45.2595 35.9307H45.2617V36.7473H45.2595V35.9307Z" fill="#181425"/>
<path d="M32.326 35.9307H32.3281V36.7473H32.326V35.9307Z" fill="#4D8B5C"/>
<path d="M32.326 35.9307H32.3281V36.7473H32.326V35.9307Z" fill="#181425"/>
<path d="M25.0515 35.9307H25.8594V36.7473H25.0515V35.9307Z" fill="#39314B"/>
<path d="M24.2468 35.9307H25.0547V36.7473H24.2468V35.9307Z" fill="#39314B"/>
<path d="M23.4421 35.9307H24.25V36.7473H23.4421V35.9307Z" fill="#39314B"/>
<path d="M22.6296 35.9307H23.4375V36.7473H22.6296V35.9307Z" fill="#39314B"/>
<path d="M54.9549 36.748H54.957V37.5647H54.9549V36.748Z" fill="#181425"/>
<path d="M54.9549 36.748H54.957V37.5647H54.9549V36.748Z" fill="#CFC6B8"/>
<path d="M47.6882 36.748H48.4961V37.5647H47.6882V36.748Z" fill="#39314B"/>
<path d="M46.8718 36.748H47.6797V37.5733H46.8718V36.748Z" fill="#39314B"/>
<path d="M46.0671 36.748H46.875V37.5733H46.0671V36.748Z" fill="#39314B"/>
<path d="M45.2546 36.748H46.0625V37.5647H45.2546V36.748Z" fill="#39314B"/>
<path d="M45.2595 36.748H45.2617V37.5647H45.2595V36.748Z" fill="#181425"/>
<path d="M32.326 36.748H32.3281V37.5647H32.326V36.748Z" fill="#4D8B5C"/>
<path d="M32.326 36.748H32.3281V37.5647H32.326V36.748Z" fill="#181425"/>
<path d="M25.0515 36.748H25.8594V37.5647H25.0515V36.748Z" fill="#39314B"/>
<path d="M24.2468 36.748H25.0547V37.5733H24.2468V36.748Z" fill="#39314B"/>
<path d="M23.4421 36.748H24.25V37.5733H23.4421V36.748Z" fill="#39314B"/>
<path d="M22.6296 36.748H23.4375V37.5647H22.6296V36.748Z" fill="#39314B"/>
<path d="M54.9549 37.5664H54.957V38.383H54.9549V37.5664Z" fill="#181425"/>
<path d="M54.9549 37.5664H54.957V38.383H54.9549V37.5664Z" fill="#CFC6B8"/>
<path d="M47.6882 37.5664H48.4961V38.383H47.6882V37.5664Z" fill="#39314B"/>
<path d="M46.8718 37.5723H47.6797V38.3889H46.8718V37.5723Z" fill="#39314B"/>
<path d="M46.0671 37.5723H46.875V38.3889H46.0671V37.5723Z" fill="#39314B"/>
<path d="M45.2546 37.5664H46.0625V38.383H45.2546V37.5664Z" fill="#39314B"/>
<path d="M45.2595 37.5664H45.2617V38.383H45.2595V37.5664Z" fill="#181425"/>
<path d="M32.326 37.5664H32.3281V38.383H32.326V37.5664Z" fill="#4D8B5C"/>
<path d="M32.326 37.5664H32.3281V38.383H32.326V37.5664Z" fill="#181425"/>
<path d="M25.0515 37.5664H25.8594V38.383H25.0515V37.5664Z" fill="#39314B"/>
<path d="M24.2468 37.5723H25.0547V38.3889H24.2468V37.5723Z" fill="#39314B"/>
<path d="M23.4421 37.5723H24.25V38.3889H23.4421V37.5723Z" fill="#39314B"/>
<path d="M22.6296 37.5664H23.4375V38.383H22.6296V37.5664Z" fill="#39314B"/>
<path d="M82.4389 26.1318H84.0547V31.0315H82.4389V26.1318Z" fill="#181425"/>
<path d="M82.4389 31.0332H84.0547V37.5639H82.4389V31.0332Z" fill="#181425"/>
<path d="M82.4389 37.5664H84.0547V39.1996H82.4389V37.5664Z" fill="#181425"/>
<path d="M80.8217 37.5664H82.4375V39.1996H80.8217V37.5664Z" fill="#181425"/>
<path d="M80.8217 31.0332H82.4375V37.5639H80.8217V31.0332Z" fill="#181425"/>
<path d="M80.8217 26.1318H82.4375V31.0315H80.8217V26.1318Z" fill="#181425"/>
<path d="M80.0124 39.1973H80.8203V39.1994H80.0124V39.1973Z" fill="#A0938E"/>
<path d="M79.2038 39.1973H80.0117V39.1994H79.2038V39.1973Z" fill="#A0938E"/>
<path d="M78.3952 39.1973H79.2031V39.1994H78.3952V39.1973Z" fill="#A0938E"/>
<path d="M77.5905 39.1973H78.3984V39.1994H77.5905V39.1973Z" fill="#A0938E"/>
<path d="M76.7741 39.1973H77.582V39.1994H76.7741V39.1973Z" fill="#A0938E"/>
<path d="M75.9694 39.1973H76.7773V39.1994H75.9694V39.1973Z" fill="#A0938E"/>
<path d="M75.1587 39.1973H75.9688V39.1994H75.1587V39.1973Z" fill="#A0938E"/>
<path d="M74.3601 39.1973H75.168V39.1994H74.3601V39.1973Z" fill="#A0938E"/>
<path d="M70.3132 39.1973H71.1211V39.1994H70.3132V39.1973Z" fill="#CFC6B8"/>
<path d="M69.5046 39.1973H70.3125V39.1994H69.5046V39.1973Z" fill="#CFC6B8"/>
<path d="M68.7016 39.1973H69.5117V39.1994H68.7016V39.1973Z" fill="#CFC6B8"/>
<path d="M67.8874 39.1973H68.6953V39.1994H67.8874V39.1973Z" fill="#CFC6B8"/>
<path d="M67.0827 39.1973H67.8906V39.1994H67.0827V39.1973Z" fill="#181425"/>
<path d="M66.278 39.1973H67.0859V39.1994H66.278V39.1973Z" fill="#181425"/>
<path d="M65.4616 39.1973H66.2695V39.1994H65.4616V39.1973Z" fill="#181425"/>
<path d="M64.6608 39.1973H65.4688V39.1994H64.6608V39.1973Z" fill="#181425"/>
<path d="M63.8483 39.1973H64.6562V39.1994H63.8483V39.1973Z" fill="#265C42"/>
<path d="M63.0397 39.1973H63.8477V39.1994H63.0397V39.1973Z" fill="#265C42"/>
<path d="M62.239 39.1973H63.0469V39.1994H62.239V39.1973Z" fill="#265C42"/>
<path d="M61.4226 39.1973H62.2305V39.1994H61.4226V39.1973Z" fill="#265C42"/>
<path d="M60.6118 39.1973H61.4219V39.1994H60.6118V39.1973Z" fill="#181425"/>
<path d="M59.8093 39.1973H60.6172V39.1994H59.8093V39.1973Z" fill="#181425"/>
<path d="M59.0007 39.1973H59.8086V39.1994H59.0007V39.1973Z" fill="#181425"/>
<path d="M58.1882 39.1973H58.9961V39.1994H58.1882V39.1973Z" fill="#181425"/>
<path d="M57.3835 39.1973H58.1914V39.1994H57.3835V39.1973Z" fill="#181425"/>
<path d="M56.571 39.1973H57.3789V39.1994H56.571V39.1973Z" fill="#181425"/>
<path d="M55.7663 39.1973H56.5742V39.1994H55.7663V39.1973Z" fill="#181425"/>
<path d="M54.9516 38.3828V39.1994H55.7617V39.1972H54.9538V38.3828H54.9516Z" fill="#181425"/>
<path d="M54.1491 39.1972V39.1994H54.957V38.3828H54.9549V39.1972H54.1491Z" fill="#CFC6B8"/>
<path d="M53.3405 39.1973H54.1484V39.1994H53.3405V39.1973Z" fill="#CFC6B8"/>
<path d="M52.5319 39.1973H53.3398V39.1994H52.5319V39.1973Z" fill="#CFC6B8"/>
<path d="M51.7233 39.1973H52.5312V39.1994H51.7233V39.1973Z" fill="#CFC6B8"/>
<path d="M50.9126 39.1973H51.7227V39.1994H50.9126V39.1973Z" fill="#CFC6B8"/>
<path d="M50.1079 39.1973H50.918V39.1994H50.1079V39.1973Z" fill="#CFC6B8"/>
<path d="M49.2976 39.1973H50.1055V39.1994H49.2976V39.1973Z" fill="#CFC6B8"/>
<path d="M48.4929 39.1973H49.3008V39.1994H48.4929V39.1973Z" fill="#CFC6B8"/>
<path d="M47.6882 38.3828H48.4961V39.1994H47.6882V38.3828Z" fill="#39314B"/>
<path d="M46.8718 38.3828H47.6797V39.1994H46.8718V38.3828Z" fill="#39314B"/>
<path d="M46.0671 38.3828H46.875V39.1994H46.0671V38.3828Z" fill="#39314B"/>
<path d="M45.2546 38.3828H46.0625V39.1994H45.2546V38.3828Z" fill="#39314B"/>
<path d="M44.4516 39.1972V39.1994H45.2617V38.3828H45.2595V39.1972H44.4516Z" fill="#181425"/>
<path d="M43.6452 39.1973H44.4531V39.1994H43.6452V39.1973Z" fill="#181425"/>
<path d="M42.8327 39.1973H43.6406V39.1994H42.8327V39.1973Z" fill="#181425"/>
<path d="M42.028 39.1973H42.8359V39.1994H42.028V39.1973Z" fill="#181425"/>
<path d="M41.2194 39.1973H42.0273V39.1994H41.2194V39.1973Z" fill="#181425"/>
<path d="M40.4069 39.1973H41.2148V39.1994H40.4069V39.1973Z" fill="#181425"/>
<path d="M39.5983 39.1973H40.4062V39.1994H39.5983V39.1973Z" fill="#181425"/>
<path d="M38.7897 39.1973H39.5977V39.1994H38.7897V39.1973Z" fill="#181425"/>
<path d="M32.326 38.3828H32.3281V39.1994H32.326V38.3828Z" fill="#4D8B5C"/>
<path d="M31.5202 39.1972V39.1994H32.3281V38.3828H32.326V39.1972H31.5202Z" fill="#181425"/>
<path d="M30.7116 39.1973H31.5195V39.1994H30.7116V39.1973Z" fill="#181425"/>
<path d="M29.9008 39.1973H30.7109V39.1994H29.9008V39.1973Z" fill="#181425"/>
<path d="M29.0944 39.1973H29.9023V39.1994H29.0944V39.1973Z" fill="#181425"/>
<path d="M22.6342 39.1992H24.25V45.7299H22.6342V39.1992Z" fill="#181425"/>
<path d="M22.6342 45.7314H24.25V48.9957H22.6342V45.7314Z" fill="#181425"/>
<path d="M24.2435 39.1992H25.8594V45.7299H24.2435V39.1992Z" fill="#181425"/>
<path d="M24.2435 45.7314H25.8594V48.9957H24.2435V45.7314Z" fill="#181425"/>
<path d="M25.0515 38.3828H25.8594V39.1994H25.0515V38.3828Z" fill="#39314B"/>
<path d="M24.2468 38.3828H25.0547V39.1994H24.2468V38.3828Z" fill="#39314B"/>
<path d="M23.4421 38.3828H24.25V39.1994H23.4421V38.3828Z" fill="#39314B"/>
<path d="M22.6296 38.3828H23.4375V39.1994H22.6296V38.3828Z" fill="#39314B"/>
<path d="M18.5905 39.1973H19.3984V39.1994H18.5905V39.1973Z" fill="#181425"/>
<path d="M17.7819 39.1973H18.5898V39.1994H17.7819V39.1973Z" fill="#181425"/>
<path d="M16.9733 39.1973H17.7812V39.1994H16.9733V39.1973Z" fill="#181425"/>
<path d="M16.1647 39.1973H16.9727V39.1994H16.1647V39.1973Z" fill="#181425"/>
<path d="M15.3522 39.1973H16.1602V39.1994H15.3522V39.1973Z" fill="#CFC6B8"/>
<path d="M14.5454 39.1973H15.3555V39.1994H14.5454V39.1973Z" fill="#CFC6B8"/>
<path d="M13.739 39.1973H14.5469V39.1994H13.739V39.1973Z" fill="#CFC6B8"/>
<path d="M12.9304 39.1973H13.7383V39.1994H12.9304V39.1973Z" fill="#CFC6B8"/>
<path d="M80.0124 39.1973H80.8203V39.1994H80.0124V39.1973Z" fill="#181425"/>
<path d="M79.2038 39.1973H80.0117V39.1994H79.2038V39.1973Z" fill="#181425"/>
<path d="M78.3952 39.1973H79.2031V39.1994H78.3952V39.1973Z" fill="#181425"/>
<path d="M77.5905 39.1973H78.3984V39.1994H77.5905V39.1973Z" fill="#181425"/>
<path d="M76.7741 39.1973H77.582V39.1994H76.7741V39.1973Z" fill="#181425"/>
<path d="M75.9694 39.1973H76.7773V39.1994H75.9694V39.1973Z" fill="#181425"/>
<path d="M75.1587 39.1973H75.9688V39.1994H75.1587V39.1973Z" fill="#181425"/>
<path d="M74.3601 39.1973H75.168V39.1994H74.3601V39.1973Z" fill="#181425"/>
<path d="M67.8909 39.1992H70.3125V45.7299H67.8909V39.1992Z" fill="#181425"/>
<path d="M70.3132 39.1992H71.1211V45.7299H70.3132V39.1992Z" fill="#181425"/>
<path d="M70.3132 39.1973H71.1211V39.1994H70.3132V39.1973Z" fill="#181425"/>
<path d="M69.5046 39.1973H70.3125V39.1994H69.5046V39.1973Z" fill="#181425"/>
<path d="M68.7016 39.1973H69.5117V39.1994H68.7016V39.1973Z" fill="#181425"/>
<path d="M67.8874 39.1973H68.6953V39.1994H67.8874V39.1973Z" fill="#181425"/>
<path d="M61.4226 39.1992H62.2305V45.7299H61.4226V39.1992Z" fill="#181425"/>
<path d="M62.2347 39.1992H64.6562V45.7299H62.2347V39.1992Z" fill="#181425"/>
<path d="M63.8483 39.1973H64.6562V39.1994H63.8483V39.1973Z" fill="#181425"/>
<path d="M63.0397 39.1973H63.8477V39.1994H63.0397V39.1973Z" fill="#181425"/>
<path d="M62.239 39.1973H63.0469V39.1994H62.239V39.1973Z" fill="#181425"/>
<path d="M61.4226 39.1973H62.2305V39.1994H61.4226V39.1973Z" fill="#181425"/>
<path d="M58.9981 39.1992H61.4219V45.7299H58.9981V39.1992Z" fill="#0E7DAD"/>
<path d="M54.9565 42.4635V45.7299H58.9961V39.1992H58.1882V42.4635H54.9565Z" fill="#0E7DAD"/>
<path d="M54.9597 45.7314H58.1914V48.9957H54.9597V45.7314Z" fill="#0E7DAD"/>
<path d="M60.6118 39.1973H61.4219V39.1994H60.6118V39.1973Z" fill="#265C42"/>
<path d="M59.8093 39.1973H60.6172V39.1994H59.8093V39.1973Z" fill="#265C42"/>
<path d="M59.0007 39.1973H59.8086V39.1994H59.0007V39.1973Z" fill="#265C42"/>
<path d="M58.1882 39.1973H58.9961V39.1994H58.1882V39.1973Z" fill="#265C42"/>
<path d="M53.3439 39.1992V45.7299H54.9576V42.4635H58.1914V39.1992H53.3439Z" fill="#181425"/>
<path d="M47.6844 39.1992H53.3398V45.7299H47.6844V39.1992Z" fill="#181425"/>
<path d="M42.0243 39.1992V42.4635H45.2581V45.7299H47.6797V39.1992H42.0243Z" fill="#181425"/>
<path d="M57.3835 39.1973H58.1914V39.1994H57.3835V39.1973Z" fill="#181425"/>
<path d="M56.571 39.1973H57.3789V39.1994H56.571V39.1973Z" fill="#181425"/>
<path d="M55.7663 39.1973H56.5742V39.1994H55.7663V39.1973Z" fill="#181425"/>
<path d="M54.9516 39.1973H55.7617V39.1994H54.9516V39.1973Z" fill="#181425"/>
<path d="M54.1491 39.1973H54.957V39.1994H54.1491V39.1973Z" fill="#181425"/>
<path d="M53.3405 39.1973H54.1484V39.1994H53.3405V39.1973Z" fill="#181425"/>
<path d="M52.5319 39.1973H53.3398V39.1994H52.5319V39.1973Z" fill="#181425"/>
<path d="M51.7233 39.1973H52.5312V39.1994H51.7233V39.1973Z" fill="#181425"/>
<path d="M50.9126 39.1973H51.7227V39.1994H50.9126V39.1973Z" fill="#181425"/>
<path d="M50.1079 39.1973H50.918V39.1994H50.1079V39.1973Z" fill="#181425"/>
<path d="M49.2976 39.1973H50.1055V39.1994H49.2976V39.1973Z" fill="#181425"/>
<path d="M48.4929 39.1973H49.3008V39.1994H48.4929V39.1973Z" fill="#181425"/>
<path d="M47.6882 39.1973H48.4961V39.1994H47.6882V39.1973Z" fill="#181425"/>
<path d="M46.8718 39.1973H47.6797V39.1994H46.8718V39.1973Z" fill="#181425"/>
<path d="M46.0671 39.1973H46.875V39.1994H46.0671V39.1973Z" fill="#181425"/>
<path d="M45.2546 39.1973H46.0625V39.1994H45.2546V39.1973Z" fill="#181425"/>
<path d="M44.4516 39.1973H45.2617V39.1994H44.4516V39.1973Z" fill="#181425"/>
<path d="M43.6452 39.1973H44.4531V39.1994H43.6452V39.1973Z" fill="#181425"/>
<path d="M42.8327 39.1973H43.6406V39.1994H42.8327V39.1973Z" fill="#181425"/>
<path d="M42.028 39.1973H42.8359V39.1994H42.028V39.1973Z" fill="#181425"/>
<path d="M32.3275 35.9307H38.793V37.5639H32.3275V35.9307Z" fill="#39B0E3"/>
<path d="M42.0222 42.4639H45.2539V45.7303H42.0222V42.4639Z" fill="#39B0E3"/>
<path d="M41.2194 39.1973H42.0273V39.1994H41.2194V39.1973Z" fill="#4D8B5C"/>
<path d="M40.4069 39.1973H41.2148V39.1994H40.4069V39.1973Z" fill="#4D8B5C"/>
<path d="M39.5983 39.1973H40.4062V39.1994H39.5983V39.1973Z" fill="#4D8B5C"/>
<path d="M38.7897 39.1973H39.5977V39.1994H38.7897V39.1973Z" fill="#4D8B5C"/>
<path d="M32.3238 39.1973H32.3281V39.2016H32.3238V39.1973Z" fill="#4D8B5C"/>
<path d="M31.5202 39.1973H32.3281V39.1994H31.5202V39.1973Z" fill="#4D8B5C"/>
<path d="M30.7116 39.1973H31.5195V39.1994H30.7116V39.1973Z" fill="#4D8B5C"/>
<path d="M29.9008 39.1973H30.7109V39.1994H29.9008V39.1973Z" fill="#4D8B5C"/>
<path d="M29.0944 39.1973H29.9023V39.1994H29.0944V39.1973Z" fill="#4D8B5C"/>
<path d="M25.0515 39.1973H25.8594V39.1994H25.0515V39.1973Z" fill="#181425"/>
<path d="M24.2468 39.1973H25.0547V39.1994H24.2468V39.1973Z" fill="#181425"/>
<path d="M23.4421 39.1973H24.25V39.1994H23.4421V39.1973Z" fill="#181425"/>
<path d="M22.6296 39.1973H23.4375V39.1994H22.6296V39.1973Z" fill="#181425"/>
<path d="M18.5905 39.1973H19.3984V39.1994H18.5905V39.1973Z" fill="#3E8948"/>
<path d="M17.7819 39.1973H18.5898V39.1994H17.7819V39.1973Z" fill="#3E8948"/>
<path d="M16.9733 39.1973H17.7812V39.1994H16.9733V39.1973Z" fill="#3E8948"/>
<path d="M16.1647 39.1973H16.9727V39.1994H16.1647V39.1973Z" fill="#3E8948"/>
<path d="M12.9307 39.1992H16.1602V45.7299H12.9307V39.1992Z" fill="#181425"/>
<path d="M15.3522 39.1973H16.1602V39.1994H15.3522V39.1973Z" fill="#181425"/>
<path d="M14.5454 39.1973H15.3555V39.1994H14.5454V39.1973Z" fill="#181425"/>
<path d="M13.739 39.1973H14.5469V39.1994H13.739V39.1973Z" fill="#181425"/>
<path d="M12.9304 39.1973H13.7383V39.1994H12.9304V39.1973Z" fill="#181425"/>
<path d="M76.7741 42.4639H77.582V43.2805H76.7741V42.4639Z" fill="#262B44"/>
<path d="M75.9694 42.4639H76.7773V43.2805H75.9694V42.4639Z" fill="#262B44"/>
<path d="M75.1587 42.4639H75.9688V43.2805H75.1587V42.4639Z" fill="#262B44"/>
<path d="M74.3601 42.4639H75.168V43.2805H74.3601V42.4639Z" fill="#262B44"/>
<path d="M54.9549 42.4639H54.957V43.2805H54.9549V42.4639Z" fill="#265C42"/>
<path d="M54.9549 42.4639H54.957V43.2805H54.9549V42.4639Z" fill="#181425"/>
<path d="M45.2595 42.4639H45.2617V43.2805H45.2595V42.4639Z" fill="#181425"/>
<path d="M45.2595 42.4639H45.2617V43.2805H45.2595V42.4639Z" fill="#4D8B5C"/>
<path d="M32.326 42.4639H32.3281V43.2805H32.326V42.4639Z" fill="#4D8B5C"/>
<path d="M29.0925 42.4639H32.3242V45.7303H29.0925V42.4639Z" fill="#181425"/>
<path d="M32.326 42.4639H32.3281V43.2805H32.326V42.4639Z" fill="#181425"/>
<path d="M76.7741 43.2812H77.582V44.0979H76.7741V43.2812Z" fill="#262B44"/>
<path d="M75.9694 43.2812H76.7773V44.0892H75.9694V43.2812Z" fill="#262B44"/>
<path d="M75.1587 43.2812H75.9688V44.0892H75.1587V43.2812Z" fill="#262B44"/>
<path d="M74.3601 43.2812H75.168V44.0892H74.3601V43.2812Z" fill="#262B44"/>
<path d="M54.9549 43.2812H54.957V44.0979H54.9549V43.2812Z" fill="#265C42"/>
<path d="M54.9549 43.2812H54.957V44.0979H54.9549V43.2812Z" fill="#181425"/>
<path d="M45.2595 43.2812H45.2617V44.0979H45.2595V43.2812Z" fill="#181425"/>
<path d="M45.2595 43.2812H45.2617V44.0979H45.2595V43.2812Z" fill="#4D8B5C"/>
<path d="M32.326 43.2812H32.3281V44.0979H32.326V43.2812Z" fill="#4D8B5C"/>
<path d="M32.326 43.2812H32.3281V44.0979H32.326V43.2812Z" fill="#181425"/>
<path d="M76.7741 44.0967H77.582V44.9133H76.7741V44.0967Z" fill="#262B44"/>
<path d="M75.9694 44.0879H76.7773V44.9045H75.9694V44.0879Z" fill="#262B44"/>
<path d="M75.1587 44.0879H75.9688V44.9045H75.1587V44.0879Z" fill="#262B44"/>
<path d="M74.3601 44.0879H75.168V44.9045H74.3601V44.0879Z" fill="#262B44"/>
<path d="M54.9549 44.0967H54.957V44.9133H54.9549V44.0967Z" fill="#265C42"/>
<path d="M54.9549 44.0967H54.957V44.9133H54.9549V44.0967Z" fill="#181425"/>
<path d="M45.2595 44.0967H45.2617V44.9133H45.2595V44.0967Z" fill="#181425"/>
<path d="M45.2595 44.0967H45.2617V44.9133H45.2595V44.0967Z" fill="#4D8B5C"/>
<path d="M32.326 44.0967H32.3281V44.9133H32.326V44.0967Z" fill="#4D8B5C"/>
<path d="M32.326 44.0967H32.3281V44.9133H32.326V44.0967Z" fill="#181425"/>
<path d="M76.7741 44.9121H77.582V45.7287H76.7741V44.9121Z" fill="#262B44"/>
<path d="M75.9694 44.9121H76.7773V45.7287H75.9694V44.9121Z" fill="#262B44"/>
<path d="M75.1587 44.9121H75.9688V45.7287H75.1587V44.9121Z" fill="#262B44"/>
<path d="M74.3601 44.9121H75.168V45.7287H74.3601V44.9121Z" fill="#262B44"/>
<path fill-rule="evenodd" clip-rule="evenodd" d="M67.086 39.1982H66.278V40.0148H67.086V39.1982ZM67.8945 39.1983H67.0866V40.0149H67.8945V39.1983ZM65.4722 39.1982H66.2775V40.0148H65.4722H65.4695H64.6643V39.1982H65.4695H65.4722ZM67.0866 40.015H67.8945V40.8316H67.0866V40.015ZM67.086 40.015H66.278V40.8316H67.086V40.015ZM65.4722 40.015H66.2775V40.8316H65.4722H65.4695H64.6643V40.015H65.4695H65.4722ZM67.0866 40.8318H67.8945V41.6477V41.6484V42.4643H67.0866V41.6484V41.6477V40.8318ZM67.086 40.8318H66.278V41.6477V41.6484V42.4643H67.086V41.6484V41.6477V40.8318ZM65.4722 40.8318H66.2775V41.6477V41.6484V42.4643H65.4722H65.4695H64.6643V41.6484V41.6477V40.8318H65.4695H65.4722ZM67.0866 42.4653H67.8945V43.2804V43.2819V44.0883H67.0866V43.2819V43.2804V42.4653ZM67.086 42.4653H66.278V43.2804V43.2819V44.0883H67.086V43.2819V43.2804V42.4653ZM65.4722 42.4653H66.2775V43.2804V43.2819V44.0883H65.4722H65.4695H64.6643V43.2819V43.2804V42.4653H65.4695H65.4722ZM67.0866 44.0889H67.8945V44.9055H67.0866V44.0889ZM67.086 44.0889H66.278V44.9055H67.086V44.0889ZM65.4722 44.0889H66.2775V44.9055H65.4722H65.4695H64.6643V44.0889H65.4695H65.4722ZM67.0866 44.9148H67.8945V45.7314H67.0866V44.9148ZM67.086 44.9148H66.278V45.7314H67.086V44.9148ZM65.4722 44.9148H66.2775V45.7314H65.4722H65.4695H64.6643V44.9148H65.4695H65.4722Z" fill="#39B0E3"/>
<path d="M54.9549 44.9121H54.957V45.7287H54.9549V44.9121Z" fill="#265C42"/>
<path d="M54.9549 44.9121H54.957V45.7287H54.9549V44.9121Z" fill="#181425"/>
<path d="M45.2595 44.9121H45.2617V45.7287H45.2595V44.9121Z" fill="#181425"/>
<path d="M45.2595 44.9121H45.2617V45.7287H45.2595V44.9121Z" fill="#4D8B5C"/>
<path d="M32.326 44.9121H32.3281V45.7287H32.326V44.9121Z" fill="#4D8B5C"/>
<path d="M32.326 44.9121H32.3281V45.7287H32.326V44.9121Z" fill="#181425"/>
<path d="M82.4389 51.4482H84.0547V52.2648H82.4389V51.4482Z" fill="#181425"/>
<path d="M82.4389 45.7314H84.0547V51.4455H82.4389V45.7314Z" fill="#181425"/>
<path d="M80.8217 51.4482H82.4375V52.2648H80.8217V51.4482Z" fill="#181425"/>
<path d="M80.8217 45.7314H82.4375V51.4455H80.8217V45.7314Z" fill="#181425"/>
<path d="M80.0124 45.7314H80.8203V46.548H80.0124V45.7314Z" fill="#262B44"/>
<path d="M79.2038 45.7314H80.0117V46.548H79.2038V45.7314Z" fill="#262B44"/>
<path d="M78.3952 45.7314H79.2031V46.548H78.3952V45.7314Z" fill="#262B44"/>
<path d="M77.5905 45.7314H78.3984V46.548H77.5905V45.7314Z" fill="#262B44"/>
<path d="M76.7741 45.7314H77.582V46.548H76.7741V45.7314Z" fill="#262B44"/>
<path d="M75.9694 45.7314H76.7773V46.548H75.9694V45.7314Z" fill="#262B44"/>
<path d="M75.1587 45.7314H75.9688V46.548H75.1587V45.7314Z" fill="#262B44"/>
<path d="M74.3601 45.7314H75.168V46.548H74.3601V45.7314Z" fill="#262B44"/>
<path d="M67.8909 45.7314H70.3125V48.9957H67.8909V45.7314Z" fill="#0E7DAD"/>
<path d="M70.3132 45.7314H71.1211V48.9957H70.3132V45.7314Z" fill="#0E7DAD"/>
<path d="M74.3558 51.4482H76.7773V52.2648H74.3558V51.4482Z" fill="#181425"/>
<path d="M74.3558 48.9971H76.7773V51.4469H74.3558V48.9971Z" fill="#181425"/>
<path d="M76.7741 51.4482H77.582V52.2648H76.7741V51.4482Z" fill="#181425"/>
<path d="M76.7741 48.9971H77.582V51.4469H76.7741V48.9971Z" fill="#181425"/>
<path d="M67.8909 51.4482H70.3125V52.2648H67.8909V51.4482Z" fill="#181425"/>
<path d="M67.8909 48.9971H70.3125V51.4469H67.8909V48.9971Z" fill="#181425"/>
<path d="M70.3159 51.4482H74.3555V52.2648H70.3159V51.4482Z" fill="#181425"/>
<path d="M70.3159 48.9971H74.3555V51.4469H70.3159V48.9971Z" fill="#181425"/>
<path d="M64.659 51.4482H67.8906V57.9789H64.659V51.4482Z" fill="#181425"/>
<path d="M58.9988 45.7314H62.2305V48.9957H58.9988V45.7314Z" fill="#181425"/>
<path d="M58.1882 45.7314H58.9961V48.9957H58.1882V45.7314Z" fill="#181425"/>
<path d="M64.659 45.7314H67.8906V51.4455H64.659V45.7314Z" fill="#181425"/>
<path d="M62.2347 45.7314H64.6562V48.9957H62.2347V45.7314Z" fill="#181425"/>
<path d="M54.9549 45.7314H54.957V46.548H54.9549V45.7314Z" fill="#265C42"/>
<path d="M54.9549 45.7314H54.957V46.548H54.9549V45.7314Z" fill="#4D8B5C"/>
<path d="M32.3302 45.7314H42.0273V48.9957H32.3302V45.7314Z" fill="#181425"/>
<path d="M32.326 45.7314H32.3281V46.548H32.326V45.7314Z" fill="#181425"/>
<path d="M32.326 45.7314H32.3281V46.548H32.326V45.7314Z" fill="#4D8B5C"/>
<path d="M19.3972 45.7314H18.5893V51.4455H22.6289V48.9957H19.3972V45.7314Z" fill="#181425"/>
<path d="M18.5893 51.4482V52.2648H19.3972V55.5291H22.6289V51.4482H18.5893Z" fill="#181425"/>
<path d="M16.1661 51.4482H18.5898V52.2648H16.1661V51.4482Z" fill="#181425"/>
<path d="M16.1661 45.7314H18.5898V51.4455H16.1661V45.7314Z" fill="#181425"/>
<path d="M12.9307 51.4482H16.1602V52.2648H12.9307V51.4482Z" fill="#272A44"/>
<path d="M12.9307 45.7314H16.1602V51.4455H12.9307V45.7314Z" fill="#272A44"/>
<path d="M4.04176 48.9971H7.27344V51.4469H4.04176V48.9971Z" fill="#181425"/>
<path d="M7.26983 48.9971H9.69141V51.4469H7.26983V48.9971Z" fill="#181425"/>
<path d="M9.70192 45.7314H12.9336V51.4455H9.70192V45.7314Z" fill="#181425"/>
<path d="M9.70192 51.4482H12.9336V52.2648H9.70192V51.4482Z" fill="#181425"/>
<path d="M80.0124 46.5469H80.8203V47.3635H80.0124V46.5469Z" fill="#262B44"/>
<path d="M79.2038 46.5469H80.0117V47.3635H79.2038V46.5469Z" fill="#262B44"/>
<path d="M78.3952 46.5469H79.2031V47.3635H78.3952V46.5469Z" fill="#262B44"/>
<path d="M77.5905 46.5469H78.3984V47.3635H77.5905V46.5469Z" fill="#262B44"/>
<path d="M76.7741 46.5469H77.582V47.3635H76.7741V46.5469Z" fill="#262B44"/>
<path d="M75.9694 46.5469H76.7773V47.3635H75.9694V46.5469Z" fill="#262B44"/>
<path d="M75.1587 46.5469H75.9688V47.3635H75.1587V46.5469Z" fill="#262B44"/>
<path d="M74.3601 46.5469H75.168V47.3635H74.3601V46.5469Z" fill="#262B44"/>
<path d="M54.9549 46.5469H54.957V47.3635H54.9549V46.5469Z" fill="#265C42"/>
<path d="M54.9549 46.5469H54.957V47.3635H54.9549V46.5469Z" fill="#4D8B5C"/>
<path d="M32.326 46.5469H32.3281V47.3635H32.326V46.5469Z" fill="#181425"/>
<path d="M32.326 46.5469H32.3281V47.3635H32.326V46.5469Z" fill="#4D8B5C"/>
<path d="M80.0124 47.3633H80.8203V48.1799H80.0124V47.3633Z" fill="#262B44"/>
<path d="M79.2038 47.3633H80.0117V48.1799H79.2038V47.3633Z" fill="#262B44"/>
<path d="M78.3952 47.3633H79.2031V48.1799H78.3952V47.3633Z" fill="#262B44"/>
<path d="M77.5905 47.3633H78.3984V48.1799H77.5905V47.3633Z" fill="#262B44"/>
<path d="M76.7741 47.3633H77.582V48.1799H76.7741V47.3633Z" fill="#262B44"/>
<path d="M75.9694 47.3633H76.7773V48.1799H75.9694V47.3633Z" fill="#262B44"/>
<path d="M75.1587 47.3633H75.9688V48.1799H75.1587V47.3633Z" fill="#262B44"/>
<path d="M74.3601 47.3633H75.168V48.1799H74.3601V47.3633Z" fill="#262B44"/>
<path d="M54.9549 47.3633H54.957V48.1799H54.9549V47.3633Z" fill="#265C42"/>
<path d="M54.9549 47.3633H54.957V48.1799H54.9549V47.3633Z" fill="#4D8B5C"/>
<path d="M32.326 47.3633H32.3281V48.1799H32.326V47.3633Z" fill="#181425"/>
<path d="M32.326 47.3633H32.3281V48.1799H32.326V47.3633Z" fill="#4D8B5C"/>
<path d="M80.0124 48.1797H80.8203V48.9963H80.0124V48.1797Z" fill="#262B44"/>
<path d="M79.2038 48.1797H80.0117V48.9963H79.2038V48.1797Z" fill="#262B44"/>
<path d="M78.3952 48.1797H79.2031V48.9963H78.3952V48.1797Z" fill="#262B44"/>
<path d="M77.5905 48.1797H78.3984V48.9963H77.5905V48.1797Z" fill="#262B44"/>
<path d="M76.7741 48.1797H77.582V48.9963H76.7741V48.1797Z" fill="#262B44"/>
<path d="M75.9694 48.1797H76.7773V48.9963H75.9694V48.1797Z" fill="#262B44"/>
<path d="M75.1587 48.1797H75.9688V48.9963H75.1587V48.1797Z" fill="#262B44"/>
<path d="M74.3601 48.1797H75.168V48.9963H74.3601V48.1797Z" fill="#262B44"/>
<path d="M54.9549 48.1797H54.957V48.9963H54.9549V48.1797Z" fill="#265C42"/>
<path d="M54.9549 48.1797H54.957V48.9963H54.9549V48.1797Z" fill="#4D8B5C"/>
<path d="M32.326 48.1797H32.3281V48.9963H32.326V48.1797Z" fill="#181425"/>
<path d="M32.326 48.1797H32.3281V48.9963H32.326V48.1797Z" fill="#4D8B5C"/>
<path d="M80.0124 48.9971H80.8203V49.8137H80.0124V48.9971Z" fill="#262B44"/>
<path d="M79.2038 48.9971H80.0117V49.8137H79.2038V48.9971Z" fill="#262B44"/>
<path d="M78.3952 48.9971H79.2031V49.8137H78.3952V48.9971Z" fill="#262B44"/>
<path d="M77.5905 48.9971H78.3984V49.8137H77.5905V48.9971Z" fill="#262B44"/>
<path d="M62.2347 48.9971H64.6562V51.4469H62.2347V48.9971Z" fill="white"/>
<path d="M62.2347 51.4482H64.6562V52.2648H62.2347V51.4482Z" fill="white"/>
<path d="M54.9597 48.9971H58.1914V51.4469H54.9597V48.9971Z" fill="#181425"/>
<path d="M54.9597 51.4482H58.1914V52.2648H54.9597V51.4482Z" fill="#181425"/>
<path d="M54.9549 48.9971H54.957V49.8137H54.9549V48.9971Z" fill="#181425"/>
<path d="M53.3395 48.9971H54.9531V51.4469H53.3395V48.9971Z" fill="#0E7DAD"/>
<path d="M53.3395 51.4482H54.9531V52.2648H53.3395V51.4482Z" fill="#0E7DAD"/>
<path d="M51.7262 48.9971H53.3398V51.4469H51.7262V48.9971Z" fill="#0E7DAD"/>
<path d="M51.7262 51.4482H53.3398V52.2648H51.7262V51.4482Z" fill="#0E7DAD"/>
<path d="M54.9549 48.9971H54.957V49.8137H54.9549V48.9971Z" fill="#265C42"/>
<path d="M51.7205 48.9971H51.7227V49.8137H51.7205V48.9971Z" fill="#265C42"/>
<path d="M29.0963 51.4482H42.0273V52.2648H29.0963V51.4482Z" fill="#39B0E3"/>
<path d="M51.7205 48.9971H51.7227V49.8137H51.7205V48.9971Z" fill="#4D8B5C"/>
<path d="M25.8621 51.4482H29.0938V52.2648H25.8621V51.4482Z" fill="#181425"/>
<path d="M25.8621 48.9971H29.0938V51.4469H25.8621V48.9971Z" fill="#181425"/>
<path d="M24.2435 48.9971H25.8594V51.4469H24.2435V48.9971Z" fill="white"/>
<path d="M22.6342 48.9971H24.25V51.4469H22.6342V48.9971Z" fill="white"/>
<path d="M7.26983 51.4482H9.69141V52.2648H7.26983V51.4482Z" fill="#181425"/>
<path d="M4.04176 51.4482H7.27344V52.2648H4.04176V51.4482Z" fill="#181425"/>
<path d="M3.23114 48.9971H4.03906V51.4469H3.23114V48.9971Z" fill="#181425"/>
<path d="M3.23114 51.4482H4.03906V52.2648H3.23114V51.4482Z" fill="#181425"/>
<path d="M80.0124 49.8125H80.8203V50.6291H80.0124V49.8125Z" fill="#262B44"/>
<path d="M79.2038 49.8125H80.0117V50.6291H79.2038V49.8125Z" fill="#262B44"/>
<path d="M78.3952 49.8125H79.2031V50.6291H78.3952V49.8125Z" fill="#262B44"/>
<path d="M77.5905 49.8125H78.3984V50.6291H77.5905V49.8125Z" fill="#262B44"/>
<path d="M54.9549 49.8125H54.957V50.6291H54.9549V49.8125Z" fill="#181425"/>
<path d="M54.9549 49.8125H54.957V50.6291H54.9549V49.8125Z" fill="#265C42"/>
<path d="M51.7205 49.8125H51.7227V50.6291H51.7205V49.8125Z" fill="#265C42"/>
<path d="M51.7205 49.8125H51.7227V50.6291H51.7205V49.8125Z" fill="#4D8B5C"/>
<path d="M80.0124 50.6289H80.8203V51.4455H80.0124V50.6289Z" fill="#262B44"/>
<path d="M79.2038 50.6289H80.0117V51.4455H79.2038V50.6289Z" fill="#262B44"/>
<path d="M78.3952 50.6289H79.2031V51.4455H78.3952V50.6289Z" fill="#262B44"/>
<path d="M77.5905 50.6289H78.3984V51.4455H77.5905V50.6289Z" fill="#262B44"/>
<path d="M54.9549 50.6289H54.957V51.4455H54.9549V50.6289Z" fill="#181425"/>
<path d="M54.9549 50.6289H54.957V51.4455H54.9549V50.6289Z" fill="#265C42"/>
<path d="M51.7205 50.6289H51.7227V51.4455H51.7205V50.6289Z" fill="#265C42"/>
<path d="M51.7205 50.6289H51.7227V51.4455H51.7205V50.6289Z" fill="#4D8B5C"/>
<path d="M80.0124 51.4482H80.8203V52.2648H80.0124V51.4482Z" fill="#262B44"/>
<path d="M79.2038 51.4482H80.0117V52.2648H79.2038V51.4482Z" fill="#262B44"/>
<path d="M78.3952 51.4482H79.2031V52.2648H78.3952V51.4482Z" fill="#262B44"/>
<path d="M77.5905 51.4482H78.3984V52.2648H77.5905V51.4482Z" fill="#262B44"/>
<path d="M54.9549 51.4482H54.957V52.2648H54.9549V51.4482Z" fill="#181425"/>
<path d="M54.9549 51.4482H54.957V52.2648H54.9549V51.4482Z" fill="#265C42"/>
<path d="M51.7205 51.4482H51.7227V52.2648H51.7205V51.4482Z" fill="#265C42"/>
<path d="M51.7205 51.4482H51.7227V52.2648H51.7205V51.4482Z" fill="#4D8B5C"/>
<path d="M77.5886 52.2646H80.8203V57.9787H77.5886V52.2646Z" fill="#181425"/>
<path d="M77.5886 57.9814H80.8203V62.0623H77.5886V57.9814Z" fill="#181425"/>
<path d="M67.8909 52.2646H70.3125V57.9787H67.8909V52.2646Z" fill="white"/>
<path d="M67.8909 57.9814H70.3125V62.0623H67.8909V57.9814Z" fill="white"/>
<path d="M70.3159 52.2646H74.3555V57.9787H70.3159V52.2646Z" fill="white"/>
<path d="M70.3159 57.9814H74.3555V62.0623H70.3159V57.9814Z" fill="white"/>
<path d="M76.7741 52.2646H77.582V57.9787H76.7741V52.2646Z" fill="#C6C6C6"/>
<path d="M76.7741 57.9814H77.582V62.0623H76.7741V57.9814Z" fill="#C6C6C6"/>
<path d="M74.3558 52.2646H76.7773V57.9787H74.3558V52.2646Z" fill="#C6C6C6"/>
<path d="M74.3558 57.9814H76.7773V62.0623H74.3558V57.9814Z" fill="#C6C6C6"/>
<path d="M61.4226 52.2646H62.2305V55.5289H61.4226V52.2646Z" fill="#181425"/>
<path d="M62.2347 52.2646H64.6562V55.5289H62.2347V52.2646Z" fill="#181425"/>
<path d="M54.9549 52.2646H54.957V53.0813H54.9549V52.2646Z" fill="#CFC6B8"/>
<path d="M53.3395 52.2646H54.9531V57.9787H53.3395V52.2646Z" fill="#181425"/>
<path d="M47.6844 55.5289V57.9787H53.3398V52.2646H51.7262V55.5289H47.6844Z" fill="#181425"/>
<path d="M54.9549 52.2646H54.957V53.0813H54.9549V52.2646Z" fill="#181425"/>
<path d="M51.7205 52.2646H51.7227V53.0813H51.7205V52.2646Z" fill="#181425"/>
<path d="M47.6831 52.2646H51.7227V55.5289H47.6831V52.2646Z" fill="#0E7DAD"/>
<path d="M45.2581 52.2646H47.6797V55.5289H45.2581V52.2646Z" fill="#0E7DAD"/>
<path d="M51.7205 52.2646H51.7227V53.0813H51.7205V52.2646Z" fill="#265C42"/>
<path d="M45.2595 52.2646H45.2617V53.0813H45.2595V52.2646Z" fill="#265C42"/>
<path d="M45.2595 52.2646H45.2617V53.0813H45.2595V52.2646Z" fill="#4D8B5C"/>
<path d="M32.326 52.2646H32.3281V53.0813H32.326V52.2646Z" fill="#4D8B5C"/>
<path d="M29.0925 52.2646H32.3242V55.5289H29.0925V52.2646Z" fill="#181425"/>
<path d="M32.326 52.2646H32.3281V53.0813H32.326V52.2646Z" fill="#181425"/>
<path d="M22.6342 51.4482H24.25V55.5291H22.6342V51.4482Z" fill="white"/>
<path d="M24.245 51.4482V55.5291H25.8609V57.9789H32.3242V55.5291H29.0925V52.2648H25.8609V51.4482H24.245Z" fill="white"/>
<path d="M12.9307 52.2646H16.1602V57.9787H12.9307V52.2646Z" fill="#181425"/>
<path d="M12.9307 57.9814H16.1602V62.0623H12.9307V57.9814Z" fill="#181425"/>
<path d="M3.23331 57.9814H4.03906V62.0623H3.23331V57.9814Z" fill="white"/>
<path d="M3.23331 52.2646H4.03906V57.9787H3.23331V52.2646Z" fill="white"/>
<path d="M4.04176 52.2646H7.27344V57.9787H4.04176V52.2646Z" fill="white"/>
<path d="M4.04176 57.9814H7.27344V62.0623H4.04176V57.9814Z" fill="white"/>
<path d="M7.26983 57.9814H9.69141V62.0623H7.26983V57.9814Z" fill="white"/>
<path d="M7.26983 52.2646H9.69141V57.9787H7.26983V52.2646Z" fill="white"/>
<path d="M9.70192 52.2646H12.9336V57.9787H9.70192V52.2646Z" fill="#C6C6C6"/>
<path d="M9.70192 57.9814H12.9336V62.0623H9.70192V57.9814Z" fill="#C6C6C6"/>
<path d="M3.2283 52.2646H3.23047V53.0813H3.2283V52.2646Z" fill="#CFC6B8"/>
<path d="M0.00135076 52.2646H1.61719V57.9787H0.00135076V52.2646Z" fill="#181425"/>
<path d="M0.00135076 57.9814H1.61719V62.0623H0.00135076V57.9814Z" fill="#181425"/>
<path d="M1.61681 57.9814H3.23047V62.0623H1.61681V57.9814Z" fill="#181425"/>
<path d="M1.61681 52.2646H3.23047V57.9787H1.61681V52.2646Z" fill="#181425"/>
<path d="M3.2283 52.2646H3.23047V53.0813H3.2283V52.2646Z" fill="#181425"/>
<path d="M54.9549 53.0801H54.957V53.8967H54.9549V53.0801Z" fill="#CFC6B8"/>
<path d="M54.9549 53.0801H54.957V53.8967H54.9549V53.0801Z" fill="#181425"/>
<path d="M51.7205 53.0801H51.7227V53.8967H51.7205V53.0801Z" fill="#181425"/>
<path d="M51.7205 53.0801H51.7227V53.8967H51.7205V53.0801Z" fill="#265C42"/>
<path d="M45.2595 53.0801H45.2617V53.8967H45.2595V53.0801Z" fill="#265C42"/>
<path d="M45.2595 53.0801H45.2617V53.8967H45.2595V53.0801Z" fill="#4D8B5C"/>
<path d="M32.326 53.0801H32.3281V53.8967H32.326V53.0801Z" fill="#4D8B5C"/>
<path d="M32.326 53.0801H32.3281V53.8967H32.326V53.0801Z" fill="#181425"/>
<path d="M3.2283 53.0801H3.23047V53.8967H3.2283V53.0801Z" fill="#CFC6B8"/>
<path d="M3.2283 53.0801H3.23047V53.8967H3.2283V53.0801Z" fill="#181425"/>
<path d="M54.9549 53.8965H54.957V54.7131H54.9549V53.8965Z" fill="#CFC6B8"/>
<path d="M54.9549 53.8965H54.957V54.7131H54.9549V53.8965Z" fill="#181425"/>
<path d="M51.7205 53.8965H51.7227V54.7131H51.7205V53.8965Z" fill="#181425"/>
<path d="M51.7205 53.8965H51.7227V54.7131H51.7205V53.8965Z" fill="#265C42"/>
<path d="M45.2595 53.8965H45.2617V54.7131H45.2595V53.8965Z" fill="#265C42"/>
<path d="M45.2595 53.8965H45.2617V54.7131H45.2595V53.8965Z" fill="#4D8B5C"/>
<path d="M32.326 53.8965H32.3281V54.7131H32.326V53.8965Z" fill="#4D8B5C"/>
<path d="M32.326 53.8965H32.3281V54.7131H32.326V53.8965Z" fill="#181425"/>
<path d="M3.2283 53.8965H3.23047V54.7131H3.2283V53.8965Z" fill="#CFC6B8"/>
<path d="M3.2283 53.8965H3.23047V54.7131H3.2283V53.8965Z" fill="#181425"/>
<path d="M64.659 57.9814H67.8906V62.0623H64.659V57.9814Z" fill="#181425"/>
<path d="M58.9988 48.9971H62.2305V51.4469H58.9988V48.9971Z" fill="white"/>
<path d="M58.9988 51.4482V55.5291H61.4226V52.2648H62.2305V51.4482H58.9988Z" fill="white"/>
<path d="M58.1882 48.9971H58.9961V51.4469H58.1882V48.9971Z" fill="white"/>
<path d="M54.9565 52.2648V57.9789H58.1882V55.5291H58.9961V51.4482H58.1882V52.2648H54.9565Z" fill="white"/>
<path d="M54.9597 57.9814H58.1914V58.7981H54.9597V57.9814Z" fill="white"/>
<path d="M54.9549 54.7129H54.957V55.5295H54.9549V54.7129Z" fill="#CFC6B8"/>
<path d="M42.0243 57.9814H47.6797V58.7981H42.0243V57.9814Z" fill="#181425"/>
<path d="M42.0243 55.5283H47.6797V57.9781H42.0243V55.5283Z" fill="#181425"/>
<path d="M32.3302 55.5283H42.0273V57.9781H32.3302V55.5283Z" fill="#181425"/>
<path d="M42.0243 62.0625H47.6797V65.3289H42.0243V62.0625Z" fill="#181425"/>
<path d="M32.3269 66.1475H35.5586V68.5951H32.3269V66.1475Z" fill="#181425"/>
<path d="M25.8646 58.7981V65.3287H29.0963V62.0623H32.3302V66.1453H35.5618V65.3287H42.0273V62.0623H35.5618V58.7981H42.0273V57.9814H32.3302V58.7981H25.8646Z" fill="#181425"/>
<path d="M47.6844 62.0621V65.3285H53.3398V58.7979H51.7262V62.0621H47.6844Z" fill="#181425"/>
<path d="M47.6844 57.9814H53.3398V58.7981H47.6844V57.9814Z" fill="#181425"/>
<path d="M53.3395 57.9814H54.9531V58.7981H53.3395V57.9814Z" fill="#181425"/>
<path d="M54.9549 54.7129H54.957V55.5295H54.9549V54.7129Z" fill="#181425"/>
<path d="M51.7205 54.7129H51.7227V55.5295H51.7205V54.7129Z" fill="#181425"/>
<path d="M51.7205 54.7129H51.7227V55.5295H51.7205V54.7129Z" fill="#265C42"/>
<path d="M45.2595 54.7129H45.2617V55.5295H45.2595V54.7129Z" fill="#265C42"/>
<path d="M45.2595 54.7129H45.2617V55.5295H45.2595V54.7129Z" fill="#4D8B5C"/>
<path d="M32.326 54.7129H32.3281V55.5295H32.326V54.7129Z" fill="#4D8B5C"/>
<path d="M32.326 54.7129H32.3281V55.5295H32.326V54.7129Z" fill="#181425"/>
<path d="M3.2283 54.7129H3.23047V55.5295H3.2283V54.7129Z" fill="#CFC6B8"/>
<path d="M3.2283 54.7129H3.23047V55.5295H3.2283V54.7129Z" fill="#181425"/>
<path d="M62.2347 57.9814H64.6562V58.7981H62.2347V57.9814Z" fill="#C6C6C6"/>
<path d="M61.4226 57.9814H62.2305V58.7981H61.4226V57.9814Z" fill="#C6C6C6"/>
<path d="M62.2347 55.5283H64.6562V57.9781H62.2347V55.5283Z" fill="#C6C6C6"/>
<path d="M61.4226 55.5283H62.2305V57.9781H61.4226V55.5283Z" fill="#C6C6C6"/>
<path d="M58.9981 57.9814H61.4219V58.7981H58.9981V57.9814Z" fill="#181425"/>
<path d="M58.1882 55.5283H58.9961V57.9781H58.1882V55.5283Z" fill="#181425"/>
<path d="M58.1882 57.9814H58.9961V58.7981H58.1882V57.9814Z" fill="#181425"/>
<path d="M58.9981 55.5283H61.4219V57.9781H58.9981V55.5283Z" fill="#181425"/>
<path d="M54.9549 55.5283H54.957V56.3449H54.9549V55.5283Z" fill="#CFC6B8"/>
<path d="M54.9549 55.5283H54.957V56.3449H54.9549V55.5283Z" fill="#181425"/>
<path d="M32.326 55.5283H32.3281V56.3449H32.326V55.5283Z" fill="#181425"/>
<path d="M25.8609 57.9814H32.3242V58.7981H25.8609V57.9814Z" fill="white"/>
<path d="M32.326 55.5283H32.3281V56.3449H32.326V55.5283Z" fill="#CFC6B8"/>
<path d="M22.6342 57.9814H24.25V58.7981H22.6342V57.9814Z" fill="#181425"/>
<path d="M22.6342 55.5283H24.25V57.9781H22.6342V55.5283Z" fill="#181425"/>
<path d="M24.2435 57.9814H25.8594V58.7981H24.2435V57.9814Z" fill="#181425"/>
<path d="M24.2435 55.5283H25.8594V57.9781H24.2435V55.5283Z" fill="#181425"/>
<path d="M3.2283 55.5283H3.23047V56.3449H3.2283V55.5283Z" fill="#CFC6B8"/>
<path d="M3.2283 55.5283H3.23047V56.3449H3.2283V55.5283Z" fill="#181425"/>
<path d="M54.9549 56.3457H54.957V57.1623H54.9549V56.3457Z" fill="#CFC6B8"/>
<path d="M54.9549 56.3457H54.957V57.1623H54.9549V56.3457Z" fill="#181425"/>
<path d="M32.326 56.3457H32.3281V57.1623H32.326V56.3457Z" fill="#181425"/>
<path d="M32.326 56.3457H32.3281V57.1623H32.326V56.3457Z" fill="#CFC6B8"/>
<path d="M3.2283 56.3457H3.23047V57.1623H3.2283V56.3457Z" fill="#CFC6B8"/>
<path d="M3.2283 56.3457H3.23047V57.1623H3.2283V56.3457Z" fill="#181425"/>
<path d="M54.9549 57.1631H54.957V57.9797H54.9549V57.1631Z" fill="#CFC6B8"/>
<path d="M54.9549 57.1631H54.957V57.9797H54.9549V57.1631Z" fill="#181425"/>
<path d="M32.326 57.1631H32.3281V57.9797H32.326V57.1631Z" fill="#181425"/>
<path d="M32.326 57.1631H32.3281V57.9797H32.326V57.1631Z" fill="#CFC6B8"/>
<path d="M3.2283 57.1631H3.23047V57.9797H3.2283V57.1631Z" fill="#CFC6B8"/>
<path d="M3.2283 57.1631H3.23047V57.9797H3.2283V57.1631Z" fill="#181425"/>
<path d="M54.9549 57.9814H54.957V58.7981H54.9549V57.9814Z" fill="#CFC6B8"/>
<path d="M54.9549 57.9814H54.957V58.7981H54.9549V57.9814Z" fill="#181425"/>
<path d="M32.326 57.9814H32.3281V58.7981H32.326V57.9814Z" fill="#181425"/>
<path d="M32.326 57.9814H32.3281V58.7981H32.326V57.9814Z" fill="#CFC6B8"/>
<path d="M3.2283 57.9814H3.23047V58.7981H3.2283V57.9814Z" fill="#CFC6B8"/>
<path d="M3.2283 57.9814H3.23047V58.7981H3.2283V57.9814Z" fill="#181425"/>
<path d="M58.9988 58.7979H62.2305V66.1451H58.9988V58.7979Z" fill="#181425"/>
<path d="M53.3407 58.7979V65.3285H54.9543V66.1451H58.9961V58.7979H53.3407Z" fill="#181425"/>
<path d="M62.2347 58.7979H64.6562V66.1451H62.2347V58.7979Z" fill="#181425"/>
<path d="M51.7205 58.7979H51.7227V59.6145H51.7205V58.7979Z" fill="#181425"/>
<path d="M47.6831 58.7979H51.7227V62.0621H47.6831V58.7979Z" fill="#0E7DAD"/>
<path d="M42.0243 58.7979H47.6797V62.0621H42.0243V58.7979Z" fill="#0E7DAD"/>
<path d="M51.7205 58.7979H51.7227V59.6145H51.7205V58.7979Z" fill="#265C42"/>
<path d="M35.5618 58.7979H42.0273V62.0621H35.5618V58.7979Z" fill="#39B0E3"/>
<path d="M3.2283 58.7979H3.23047V59.6145H3.2283V58.7979Z" fill="#CFC6B8"/>
<path d="M3.2283 58.7979H3.23047V59.6145H3.2283V58.7979Z" fill="#181425"/>
<path d="M51.7205 59.6123H51.7227V60.4289H51.7205V59.6123Z" fill="#181425"/>
<path d="M51.7205 59.6123H51.7227V60.4289H51.7205V59.6123Z" fill="#265C42"/>
<path d="M3.2283 59.6123H3.23047V60.4289H3.2283V59.6123Z" fill="#CFC6B8"/>
<path d="M3.2283 59.6123H3.23047V60.4289H3.2283V59.6123Z" fill="#181425"/>
<path d="M51.7205 60.4287H51.7227V61.2453H51.7205V60.4287Z" fill="#181425"/>
<path d="M51.7205 60.4287H51.7227V61.2453H51.7205V60.4287Z" fill="#265C42"/>
<path d="M3.2283 60.4287H3.23047V61.2453H3.2283V60.4287Z" fill="#CFC6B8"/>
<path d="M3.2283 60.4287H3.23047V61.2453H3.2283V60.4287Z" fill="#181425"/>
<path d="M51.7205 61.2451H51.7227V62.0617H51.7205V61.2451Z" fill="#181425"/>
<path d="M51.7205 61.2451H51.7227V62.0617H51.7205V61.2451Z" fill="#265C42"/>
<path d="M3.2283 61.2451H3.23047V62.0617H3.2283V61.2451Z" fill="#CFC6B8"/>
<path d="M3.2283 61.2451H3.23047V62.0617H3.2283V61.2451Z" fill="#181425"/>
<path d="M32.326 62.0625H32.3281V62.8791H32.326V62.0625Z" fill="#181425"/>
<path d="M31.5202 62.0625H32.3281V62.8791H31.5202V62.0625Z" fill="#262B44"/>
<path d="M30.7116 62.0625H31.5195V62.8791H30.7116V62.0625Z" fill="#262B44"/>
<path d="M29.9008 62.0625H30.7109V62.8791H29.9008V62.0625Z" fill="#262B44"/>
<path d="M29.0944 62.0625H29.9023V62.8791H29.0944V62.0625Z" fill="#262B44"/>
<path d="M9.70192 62.0625H12.9336V65.3289H9.70192V62.0625Z" fill="#181425"/>
<path d="M4.04176 62.0625H7.27344V65.3289H4.04176V62.0625Z" fill="#181425"/>
<path d="M3.23114 62.0625H4.03906V65.3289H3.23114V62.0625Z" fill="#181425"/>
<path d="M7.26983 62.0625H9.69141V65.3289H7.26983V62.0625Z" fill="#181425"/>
<path d="M32.326 62.8789H32.3281V63.6955H32.326V62.8789Z" fill="#181425"/>
<path d="M31.5202 62.8789H32.3281V63.6955H31.5202V62.8789Z" fill="#262B44"/>
<path d="M30.7116 62.8789H31.5195V63.6955H30.7116V62.8789Z" fill="#262B44"/>
<path d="M29.9008 62.8789H30.7109V63.6955H29.9008V62.8789Z" fill="#262B44"/>
<path d="M29.0944 62.8789H29.9023V63.6955H29.0944V62.8789Z" fill="#262B44"/>
<path d="M32.326 63.6963H32.3281V64.5129H32.326V63.6963Z" fill="#181425"/>
<path d="M31.5202 63.6963H32.3281V64.5129H31.5202V63.6963Z" fill="#262B44"/>
<path d="M30.7116 63.6963H31.5195V64.5042H30.7116V63.6963Z" fill="#262B44"/>
<path d="M29.9008 63.6963H30.7109V64.5042H29.9008V63.6963Z" fill="#262B44"/>
<path d="M29.0944 63.6963H29.9023V64.5129H29.0944V63.6963Z" fill="#262B44"/>
<path d="M74.3558 62.0625H76.7773V65.3289H74.3558V62.0625Z" fill="#181425"/>
<path d="M76.7741 62.0625H77.582V65.3289H76.7741V62.0625Z" fill="#181425"/>
<path d="M67.8909 62.0625H70.3125V65.3289H67.8909V62.0625Z" fill="#181425"/>
<path d="M70.3159 62.0625H74.3555V65.3289H70.3159V62.0625Z" fill="#181425"/>
<path d="M32.326 64.5117H32.3281V65.3283H32.326V64.5117Z" fill="#181425"/>
<path d="M31.5202 64.5117H32.3281V65.3283H31.5202V64.5117Z" fill="#262B44"/>
<path d="M30.7116 64.5029H31.5195V65.3195H30.7116V64.5029Z" fill="#262B44"/>
<path d="M29.9008 64.5029H30.7109V65.3195H29.9008V64.5029Z" fill="#262B44"/>
<path d="M29.0944 64.5117H29.9023V65.3283H29.0944V64.5117Z" fill="#262B44"/>
<path d="M32.326 65.3271H32.3281V66.1438H32.326V65.3271Z" fill="#181425"/>
<path d="M31.5202 65.3271H32.3281V66.1438H31.5202V65.3271Z" fill="#262B44"/>
<path d="M30.7116 65.3271H31.5195V66.1438H30.7116V65.3271Z" fill="#262B44"/>
<path d="M29.9008 65.3271H30.7109V66.1438H29.9008V65.3271Z" fill="#262B44"/>
<path d="M29.0944 65.3271H29.9023V66.1438H29.0944V65.3271Z" fill="#262B44"/>
<path d="M28.2858 65.3271H29.0938V66.1438H28.2858V65.3271Z" fill="#262B44"/>
<path d="M27.4772 65.3271H28.2852V66.1438H27.4772V65.3271Z" fill="#262B44"/>
<path d="M26.6665 65.3271H27.4766V66.1438H26.6665V65.3271Z" fill="#262B44"/>
<path d="M25.864 65.3271H26.6719V66.1438H25.864V65.3271Z" fill="#262B44"/>
<path d="M19.4025 68.5951V71.8615H24.25V66.1475H22.6342V68.5951H19.4025Z" fill="#181425"/>
<path d="M24.2435 65.3271H25.8594V66.1438H24.2435V65.3271Z" fill="#181425"/>
<path d="M25.8626 66.1475H24.2468V71.8615H32.3281V68.5951H25.8626V66.1475Z" fill="#181425"/>
<path d="M22.6342 65.3271H24.25V66.1438H22.6342V65.3271Z" fill="#181425"/>
<path d="M32.326 66.1475H32.3281V66.9641H32.326V66.1475Z" fill="#181425"/>
<path d="M31.5202 66.1475H32.3281V66.9641H31.5202V66.1475Z" fill="#262B44"/>
<path d="M30.7116 66.1475H31.5195V66.9641H30.7116V66.1475Z" fill="#262B44"/>
<path d="M29.9008 66.1475H30.7109V66.9641H29.9008V66.1475Z" fill="#262B44"/>
<path d="M29.0944 66.1475H29.9023V66.9641H29.0944V66.1475Z" fill="#262B44"/>
<path d="M28.2858 66.1475H29.0938V66.9641H28.2858V66.1475Z" fill="#262B44"/>
<path d="M27.4772 66.1475H28.2852V66.9641H27.4772V66.1475Z" fill="#262B44"/>
<path d="M26.6665 66.1475H27.4766V66.9641H26.6665V66.1475Z" fill="#262B44"/>
<path d="M25.864 66.1475H26.6719V66.9641H25.864V66.1475Z" fill="#262B44"/>
<path d="M32.326 66.9619H32.3281V67.7785H32.326V66.9619Z" fill="#181425"/>
<path d="M31.5202 66.9619H32.3281V67.7785H31.5202V66.9619Z" fill="#262B44"/>
<path d="M30.7116 66.9619H31.5195V67.7785H30.7116V66.9619Z" fill="#262B44"/>
<path d="M29.9008 66.9619H30.7109V67.7785H29.9008V66.9619Z" fill="#262B44"/>
<path d="M29.0944 66.9619H29.9023V67.7785H29.0944V66.9619Z" fill="#262B44"/>
<path d="M28.2858 66.9619H29.0938V67.7785H28.2858V66.9619Z" fill="#262B44"/>
<path d="M27.4772 66.9619H28.2852V67.7785H27.4772V66.9619Z" fill="#262B44"/>
<path d="M26.6665 66.9619H27.4766V67.7785H26.6665V66.9619Z" fill="#262B44"/>
<path d="M25.864 66.9619H26.6719V67.7785H25.864V66.9619Z" fill="#262B44"/>
<path d="M32.326 67.7783H32.3281V68.5949H32.326V67.7783Z" fill="#181425"/>
<path d="M31.5202 67.7783H32.3281V68.5949H31.5202V67.7783Z" fill="#262B44"/>
<path d="M30.7116 67.7783H31.5195V68.5949H30.7116V67.7783Z" fill="#262B44"/>
<path d="M29.9008 67.7783H30.7109V68.5949H29.9008V67.7783Z" fill="#262B44"/>
<path d="M29.0944 67.7783H29.9023V68.5949H29.0944V67.7783Z" fill="#262B44"/>
<path d="M28.2858 67.7783H29.0938V68.5949H28.2858V67.7783Z" fill="#262B44"/>
<path d="M27.4772 67.7783H28.2852V68.5949H27.4772V67.7783Z" fill="#262B44"/>
<path d="M26.6665 67.7783H27.4766V68.5949H26.6665V67.7783Z" fill="#262B44"/>
<path d="M25.864 67.7783H26.6719V68.5949H25.864V67.7783Z" fill="#262B44"/>
<path d="M62.2347 66.1475H64.6562V69.4117H62.2347V66.1475Z" fill="#181425"/>
<path d="M64.659 68.5947H67.8906V69.4113H64.659V68.5947Z" fill="#181425"/>
<path d="M58.9988 66.1475H62.2305V69.4117H58.9988V66.1475Z" fill="#39314B"/>
<path d="M58.9988 63.124H62.2305V66.3883H58.9988V63.124Z" fill="#39314B"/>
<path d="M54.9543 66.1475H58.9961V69.4117H54.9543V66.1475Z" fill="#181425"/>
<path d="M62.2347 69.4121H64.6562V71.8619H62.2347V69.4121Z" fill="#181425"/>
<path d="M64.659 69.4121H67.8906V71.8619H64.659V69.4121Z" fill="#181425"/>
<path d="M54.9543 69.4121H58.9961V71.8619H54.9543V69.4121Z" fill="#181425"/>
<path d="M58.9988 69.4121H62.2305V71.8619H58.9988V69.4121Z" fill="#181425"/>
<path d="M67.8909 71.8604H70.3125V72.677H67.8909V71.8604Z" fill="#181425"/>
<path d="M70.3132 71.8604H71.1211V72.677H70.3132V71.8604Z" fill="#181425"/>
<path d="M62.2347 78.3955H64.6562V81.6598H62.2347V78.3955Z" fill="#181425"/>
<path d="M58.9988 78.3955H62.2305V81.6598H58.9988V78.3955Z" fill="#181425"/>
<path d="M70.3132 78.3955H71.1211V81.6598H70.3132V78.3955Z" fill="#181425"/>
<path d="M67.8909 78.3955H70.3125V81.6598H67.8909V78.3955Z" fill="#181425"/>
<path d="M64.659 78.3955H67.8906V81.6598H64.659V78.3955Z" fill="#181425"/>
<path d="M53.3407 78.3955H58.9961V81.6598H53.3407V78.3955Z" fill="#181425"/>
<path d="M51.724 78.3955H53.3398V81.6598H51.724V78.3955Z" fill="#181425"/>
<path d="M70.3132 72.6797H71.1211V78.3938H70.3132V72.6797Z" fill="#181425"/>
<path d="M67.8909 72.6797H70.3125V78.3938H67.8909V72.6797Z" fill="#181425"/>
<path d="M58.1882 71.8604H58.9961V72.677H58.1882V71.8604Z" fill="white"/>
<path d="M58.9988 71.8604H62.2305V72.677H58.9988V71.8604Z" fill="white"/>
<path d="M58.9988 72.6797H62.2305V75.1273H58.9988V72.6797Z" fill="white"/>
<path d="M58.1882 72.6797H58.9961V75.1273H58.1882V72.6797Z" fill="white"/>
<path d="M62.2347 72.6797H64.6562V75.1273H62.2347V72.6797Z" fill="white"/>
<path d="M62.2347 71.8604H64.6562V72.677H62.2347V71.8604Z" fill="white"/>
<path d="M54.9549 71.8604H54.957V72.677H54.9549V71.8604Z" fill="#4D8B5C"/>
<path d="M54.9549 71.8604H54.957V72.677H54.9549V71.8604Z" fill="#181425"/>
<path d="M51.724 71.8604H53.3398V72.677H51.724V71.8604Z" fill="#181425"/>
<path d="M51.724 72.6797H53.3398V78.3938H51.724V72.6797Z" fill="#181425"/>
<path d="M53.3395 71.8604H54.9531V72.677H53.3395V71.8604Z" fill="#181425"/>
<path d="M53.3395 72.6797H54.9531V78.3938H53.3395V72.6797Z" fill="#181425"/>
<path d="M12.9307 78.3955H16.1602V81.6598H12.9307V78.3955Z" fill="#181425"/>
<path d="M12.9307 75.1279H16.1602V78.3943H12.9307V75.1279Z" fill="#181425"/>
<path d="M16.1661 78.3955H18.5898V81.6598H16.1661V78.3955Z" fill="#181425"/>
<path d="M18.5946 78.3955H24.25V81.6598H18.5946V78.3955Z" fill="#181425"/>
<path d="M24.2456 78.3955H35.5586V81.6598H24.2456V78.3955Z" fill="#181425"/>
<path d="M32.3269 72.6797H35.5586V78.3938H32.3269V72.6797Z" fill="#181425"/>
<path d="M32.3269 71.8604H35.5586V72.677H32.3269V71.8604Z" fill="#181425"/>
<path d="M32.326 71.8604H32.3281V72.677H32.326V71.8604Z" fill="#181425"/>
<path d="M35.5618 4.08594H42.0273V6.53358H35.5618V4.08594Z" fill="#39B0E3"/>
<path d="M35.5618 3.2666H42.0273V4.08321H35.5618V3.2666Z" fill="#39B0E3"/>
<path d="M47.6831 13.0654H51.7227V16.3319H47.6831V13.0654Z" fill="#39B0E3"/>
<path d="M42.0222 9.7998H45.2539V10.6164H42.0222V9.7998Z" fill="#39B0E3"/>
<path d="M25.8646 17.1514H29.0963V19.599H32.3302V17.1514H42.0273V24.4986H29.0963V22.8654H24.2488V19.599H25.8646V17.1514Z" fill="#39B0E3"/>
<path d="M25.8621 16.3311H29.0938V17.1477H25.8621V16.3311Z" fill="#39B0E3"/>
<path d="M42.0222 24.501H45.2539V26.132H42.0222V24.501Z" fill="#39B0E3"/>
<path d="M45.2559 13.0658H47.6797V16.3322H45.2559V17.1488H42.0243V10.6182H45.2559V13.0658Z" fill="#39B0E3"/>
<path d="M45.2559 19.599H47.6797V22.8654H45.2559V24.4986H42.0243V17.1514H45.2559V19.599Z" fill="#39B0E3"/>
<path d="M32.3302 16.3322H29.0963V13.0658H32.3302V10.6182H42.0273V17.1488H32.3302V16.3322Z" fill="#39B0E3"/>
<path d="M32.3302 9.7998H42.0273V10.6164H32.3302V9.7998Z" fill="#39B0E3"/>
<path d="M51.7262 17.1514H53.3398V22.8654H47.6844V19.599H51.7262V17.1514Z" fill="#39B0E3"/>
<path d="M53.3395 17.1514H54.9531V22.8654H53.3395V17.1514Z" fill="#39B0E3"/>
<path d="M19.3972 16.3311H22.6289V17.1477H19.3972V16.3311Z" fill="#39B0E3"/>
<path d="M19.3972 17.1514H22.6289V19.599H19.3972V17.1514Z" fill="#39B0E3"/>
<path d="M64.659 24.501H67.8906V26.132H64.659V24.501Z" fill="#39B0E3"/>
<path d="M64.659 19.5986H67.8906V24.4983H64.659V19.5986Z" fill="#39B0E3"/>
<path d="M29.0963 24.501V26.132H32.3302V27.7652H32.328V29.3984H42.0273V24.501H29.0963Z" fill="#39B0E3"/>
<path d="M29.0963 39.1996V42.4639H32.3302V45.7303H42.0273V39.1996H38.7957V37.5664H32.3302V39.1996H29.0963Z" fill="#39B0E3"/>
<path d="M16.1661 39.1992H18.5898V45.7299H16.1661V39.1992Z" fill="#39B0E3"/>
<path d="M18.5905 39.1992H19.3984V45.7299H18.5905V39.1992Z" fill="#39B0E3"/>
<path d="M25.8621 42.4639H29.0938V45.7303H25.8621V42.4639Z" fill="#39B0E3"/>
<path d="M19.3972 45.7314H22.6289V48.9957H19.3972V45.7314Z" fill="#39B0E3"/>
<path d="M53.3395 45.7314H54.9531V48.9957H53.3395V45.7314Z" fill="#39B0E3"/>
<path d="M53.3398 48.9957H51.724V51.4455H47.6844V45.7314H53.3398V48.9957Z" fill="#39B0E3"/>
<path d="M47.6797 48.9957V51.4455H42.0243V48.9957V45.7314H47.6797V48.9957Z" fill="#39B0E3"/>
<path d="M25.8646 45.7314V48.9957H29.0963V51.4455H42.0273V48.9957H32.328V45.7314H25.8646Z" fill="#39B0E3"/>
<path d="M47.6831 51.4482H51.7227V52.2648H47.6831V51.4482Z" fill="#39B0E3"/>
<path d="M47.6797 52.2648H45.2559V55.5291H42.0243V52.2648V51.4482H47.6797V52.2648Z" fill="#39B0E3"/>
<path d="M32.3302 52.2646H42.0273V55.5289H32.3302V52.2646Z" fill="#39B0E3"/>
<path d="M64.659 72.6797H67.8906V75.1273H64.659V72.6797Z" fill="#39B0E3"/>
<path d="M64.659 71.8604H67.8906V72.677H64.659V71.8604Z" fill="#39B0E3"/>
<path d="M54.9597 71.8604H58.1914V72.677H54.9597V71.8604Z" fill="#39B0E3"/>
<path d="M54.9597 72.6797H58.1914V75.1273H54.9597V72.6797Z" fill="#39B0E3"/>
<path d="M25.8609 72.6797H32.3242V75.1273H25.8609V72.6797Z" fill="#39B0E3"/>
<path d="M25.8609 71.8604H32.3242V72.677H25.8609V71.8604Z" fill="#39B0E3"/>
<path d="M32.326 71.8604H32.3281V72.677H32.326V71.8604Z" fill="#4D8B5C"/>
<path d="M24.2435 72.6797H25.8594V75.1273H24.2435V72.6797Z" fill="white"/>
<path d="M24.2435 71.8604H25.8594V72.677H24.2435V71.8604Z" fill="white"/>
<path d="M19.4025 71.8604H24.25V72.677H19.4025V71.8604Z" fill="white"/>
</svg>
