<svg width="84" height="82" viewBox="0 0 84 82" fill="none" xmlns="http://www.w3.org/2000/svg">
<path d="M58.0818 3.26033V4.07541H48.4027V3.26033H41.9492V0H51.6305V3.26033H58.0818Z" fill="#181425"/>
<path d="M41.9496 6.52051H36.3047V9.78084H41.9496V6.52051Z" fill="#181425"/>
<path d="M58.0818 4.07812V6.5212H51.6283V9.78153H41.9492V6.5212H48.4027V4.07812H58.0818Z" fill="#181425"/>
<path d="M32.2669 10.5986H30.6562V13.0417H32.2669V10.5986Z" fill="#181425"/>
<path d="M36.3011 6.52051V9.78084H32.2669V10.5959H30.6562V6.52051H36.3011Z" fill="#181425"/>
<path d="M30.6536 6.52051H29.043V10.5959H30.6536V6.52051Z" fill="#181425"/>
<path d="M30.6536 10.5986H29.043V13.0417H30.6536V10.5986Z" fill="#181425"/>
<path d="M41.9496 0H36.3047V3.26033H41.9496V0Z" fill="#181425"/>
<path d="M36.3011 0V3.26033H32.2669V4.07541H30.6562V0H36.3011Z" fill="#181425"/>
<path d="M32.2669 4.07812H30.6562V6.5212H32.2669V4.07812Z" fill="#181425"/>
<path d="M30.6566 0V4.07541H25.8181V3.26033H25.0117V0H30.6566Z" fill="#181425"/>
<path d="M30.6549 4.07812H25.8164V6.5212H30.6549V4.07812Z" fill="#181425"/>
<path d="M25.0091 0H22.5898V3.26033H25.0091V0Z" fill="#181425"/>
<path d="M25.8181 3.25977H25.0117V4.07485H25.8181V3.25977Z" fill="#2B7F3D"/>
<path d="M25.8181 4.07812H25.0117V6.5212H25.8181V4.07812Z" fill="#2B7F3D"/>
<path d="M25.0091 4.07812H22.5898V6.5212H25.0091V4.07812Z" fill="#2B7F3D"/>
<path d="M25.0091 3.25977H22.5898V4.07485H25.0091V3.25977Z" fill="#2B7F3D"/>
<path d="M32.2717 3.25977H32.2695V4.07485H32.2717V3.25977Z" fill="#181425"/>
<path d="M41.9496 3.25977H36.3047V4.07485H41.9496V3.25977Z" fill="#2B7F3D"/>
<path d="M41.9496 4.07812H36.3047V6.5212H41.9496V4.07812Z" fill="#2B7F3D"/>
<path d="M36.3016 3.25977H32.2695V4.07485H36.3016V3.25977Z" fill="#2B7F3D"/>
<path d="M36.3016 4.07812H32.2695V6.5212H36.3016V4.07812Z" fill="#2B7F3D"/>
<path d="M32.2717 3.25977H32.2695V4.07485H32.2717V3.25977Z" fill="#265C42"/>
<path d="M32.2717 4.07812H32.2695V4.89321H32.2717V4.07812Z" fill="#181425"/>
<path d="M32.2717 4.07812H32.2695V4.89321H32.2717V4.07812Z" fill="#265C42"/>
<path d="M32.2717 4.89062H32.2695V5.70571H32.2717V4.89062Z" fill="#181425"/>
<path d="M32.2717 4.89062H32.2695V5.70571H32.2717V4.89062Z" fill="#265C42"/>
<path d="M19.3585 4.07812H16.1328V6.5212H19.3585V4.07812Z" fill="#181425"/>
<path d="M19.3585 3.25977H16.1328V4.07485H19.3585V3.25977Z" fill="#181425"/>
<path d="M22.5877 3.25977H21.7812V4.07485H22.5877V3.25977Z" fill="#181425"/>
<path d="M22.5877 4.07812H21.7812V6.5212H22.5877V4.07812Z" fill="#181425"/>
<path d="M21.7764 4.07812H19.3594V6.5212H21.7764V4.07812Z" fill="#181425"/>
<path d="M21.7764 3.25977H19.3594V4.07485H21.7764V3.25977Z" fill="#181425"/>
<path d="M32.2717 5.70605H32.2695V6.52114H32.2717V5.70605Z" fill="#181425"/>
<path d="M32.2717 5.70605H32.2695V6.52114H32.2717V5.70605Z" fill="#265C42"/>
<path d="M19.3585 6.52051H16.1328V9.78084H19.3585V6.52051Z" fill="#C6C6C6"/>
<path d="M22.5877 6.52051H21.7812V9.78084H22.5877V6.52051Z" fill="#C6C6C6"/>
<path d="M21.7764 6.52051H19.3594V9.78084H21.7764V6.52051Z" fill="#C6C6C6"/>
<path d="M25.8181 6.52051H25.0117V9.78084H25.8181V6.52051Z" fill="#181425"/>
<path d="M25.0091 6.52051H22.5898V9.78084H25.0091V6.52051Z" fill="#181425"/>
<path d="M29.0421 6.52051H25.8164V10.5959H29.0421V6.52051Z" fill="white"/>
<path d="M29.0421 10.5986H25.8164V13.0417H29.0421V10.5986Z" fill="white"/>
<path d="M29.0412 6.52051H29.0391V7.33559H29.0412V6.52051Z" fill="#CFC6B8"/>
<path d="M29.0412 6.52051H29.0391V7.33559H29.0412V6.52051Z" fill="#181425"/>
<path d="M51.6311 6.52051H51.6289V7.33559H51.6311V6.52051Z" fill="#181425"/>
<path d="M58.0811 10.5986H54.8555V13.0417H58.0811V10.5986Z" fill="white"/>
<path d="M58.0841 6.52051V10.5959H54.8585V9.78084H51.6328V6.52051H58.0841Z" fill="white"/>
<path d="M51.6311 6.52051H51.6289V7.33559H51.6311V6.52051Z" fill="#CFC6B8"/>
<path d="M29.0412 7.33594H29.0391V8.15102H29.0412V7.33594Z" fill="#CFC6B8"/>
<path d="M29.0412 7.33594H29.0391V8.15102H29.0412V7.33594Z" fill="#181425"/>
<path d="M51.6311 7.33594H51.6289V8.15102H51.6311V7.33594Z" fill="#181425"/>
<path d="M51.6311 7.33594H51.6289V8.15102H51.6311V7.33594Z" fill="#CFC6B8"/>
<path d="M29.0412 8.15039H29.0391V8.96547H29.0412V8.15039Z" fill="#CFC6B8"/>
<path d="M29.0412 8.15039H29.0391V8.96547H29.0412V8.15039Z" fill="#181425"/>
<path d="M51.6311 8.15039H51.6289V8.96547H51.6311V8.15039Z" fill="#181425"/>
<path d="M51.6311 8.15039H51.6289V8.96547H51.6311V8.15039Z" fill="#CFC6B8"/>
<path d="M16.1319 6.52051H13.7148V9.78084H16.1319V6.52051Z" fill="#181425"/>
<path d="M13.7127 6.52051H12.9062V9.78084H13.7127V6.52051Z" fill="#181425"/>
<path d="M29.0412 8.96582H29.0391V9.7809H29.0412V8.96582Z" fill="#CFC6B8"/>
<path d="M29.0412 8.96582H29.0391V9.7809H29.0412V8.96582Z" fill="#181425"/>
<path d="M51.6311 8.96582H51.6289V9.7809H51.6311V8.96582Z" fill="#181425"/>
<path d="M51.6311 8.96582H51.6289V9.7809H51.6311V8.96582Z" fill="#CFC6B8"/>
<path d="M61.312 6.52051H59.6992V9.78084H61.312V6.52051Z" fill="#181425"/>
<path d="M59.6949 6.52051H58.082V9.78084H59.6949V6.52051Z" fill="#181425"/>
<path d="M16.1319 9.78125H13.7148V10.5963H16.1319V9.78125Z" fill="#C6C6C6"/>
<path d="M13.7127 9.78125H12.9062V10.5963H13.7127V9.78125Z" fill="#C6C6C6"/>
<path d="M13.7127 10.5986H12.9062V13.0417H13.7127V10.5986Z" fill="#C6C6C6"/>
<path d="M16.1319 10.5986H13.7148V13.0417H16.1319V10.5986Z" fill="#C6C6C6"/>
<path d="M19.3585 9.78125H16.1328V10.5963H19.3585V9.78125Z" fill="#C6C6C6"/>
<path d="M19.3585 10.5986H16.1328V13.0417H19.3585V10.5986Z" fill="#C6C6C6"/>
<path d="M21.7764 10.5986H19.3594V13.0417H21.7764V10.5986Z" fill="#181425"/>
<path d="M21.7764 9.78125H19.3594V10.5963H21.7764V9.78125Z" fill="#181425"/>
<path d="M22.5877 9.78125H21.7812V10.5963H22.5877V9.78125Z" fill="#181425"/>
<path d="M22.5877 10.5986H21.7812V13.0417H22.5877V10.5986Z" fill="#181425"/>
<path d="M25.8181 10.5986H25.0117V16.302H25.8181V10.5986Z" fill="white"/>
<path d="M25.8181 9.78125H25.0117V10.5963H25.8181V9.78125Z" fill="white"/>
<path d="M21.7764 13.042H19.3594V16.3023H21.7764V13.042Z" fill="white"/>
<path d="M25.0069 10.5986V16.302H21.7812V13.0417H22.5877V10.5986H25.0069Z" fill="white"/>
<path d="M25.0091 9.78125H22.5898V10.5963H25.0091V9.78125Z" fill="white"/>
<path d="M29.0412 9.78125H29.0391V10.5963H29.0412V9.78125Z" fill="#CFC6B8"/>
<path d="M29.0412 9.78125H29.0391V10.5963H29.0412V9.78125Z" fill="#181425"/>
<path d="M32.2717 9.78125H32.2695V10.5963H32.2717V9.78125Z" fill="#181425"/>
<path d="M36.3016 10.5986H32.2695V13.0417H36.3016V10.5986Z" fill="#2B7F3D"/>
<path d="M38.7218 10.5986H36.3047V13.0417H38.7218V10.5986Z" fill="#2B7F3D"/>
<path d="M38.7218 9.78125H36.3047V10.5963H38.7218V9.78125Z" fill="#2B7F3D"/>
<path d="M36.3016 9.78125H32.2695V10.5963H36.3016V9.78125Z" fill="#2B7F3D"/>
<path d="M32.2717 9.78125H32.2695V10.5963H32.2717V9.78125Z" fill="#265C42"/>
<path d="M38.7209 9.78125H38.7188V10.5963H38.7209V9.78125Z" fill="#265C42"/>
<path d="M38.7209 9.78125H38.7188V10.5963H38.7209V9.78125Z" fill="#4D8B5C"/>
<path d="M51.6311 9.78125H51.6289V10.5963H51.6311V9.78125Z" fill="#4D8B5C"/>
<path d="M54.8585 10.5986H51.6328V13.0417H54.8585V10.5986Z" fill="#181425"/>
<path d="M54.8585 9.78125H51.6328V10.5963H54.8585V9.78125Z" fill="#181425"/>
<path d="M51.6311 9.78125H51.6289V10.5963H51.6311V9.78125Z" fill="#181425"/>
<path d="M61.312 10.5986H59.6992V16.302H61.312V10.5986Z" fill="white"/>
<path d="M59.6949 10.5986H58.082V16.302H59.6949V10.5986Z" fill="white"/>
<path d="M59.6949 9.78125H58.082V10.5963H59.6949V9.78125Z" fill="white"/>
<path d="M61.312 9.78125H59.6992V10.5963H61.312V9.78125Z" fill="white"/>
<path d="M29.0412 10.5986H29.0391V11.4137H29.0412V10.5986Z" fill="#CFC6B8"/>
<path d="M29.0412 10.5986H29.0391V11.4137H29.0412V10.5986Z" fill="#181425"/>
<path d="M32.2717 10.5986H32.2695V11.4137H32.2717V10.5986Z" fill="#181425"/>
<path d="M32.2717 10.5986H32.2695V11.4137H32.2717V10.5986Z" fill="#265C42"/>
<path d="M38.7209 10.5986H38.7188V11.4137H38.7209V10.5986Z" fill="#265C42"/>
<path d="M38.7209 10.5986H38.7188V11.4137H38.7209V10.5986Z" fill="#4D8B5C"/>
<path d="M51.6311 10.5986H51.6289V11.4137H51.6311V10.5986Z" fill="#4D8B5C"/>
<path d="M51.6311 10.5986H51.6289V11.4137H51.6311V10.5986Z" fill="#181425"/>
<path d="M29.0412 11.4131H29.0391V12.2282H29.0412V11.4131Z" fill="#CFC6B8"/>
<path d="M29.0412 11.4131H29.0391V12.2282H29.0412V11.4131Z" fill="#181425"/>
<path d="M32.2717 11.4131H32.2695V12.2282H32.2717V11.4131Z" fill="#181425"/>
<path d="M32.2717 11.4131H32.2695V12.2282H32.2717V11.4131Z" fill="#265C42"/>
<path d="M38.7209 11.4131H38.7188V12.2282H38.7209V11.4131Z" fill="#265C42"/>
<path d="M38.7209 11.4131H38.7188V12.2282H38.7209V11.4131Z" fill="#4D8B5C"/>
<path d="M51.6311 11.4131H51.6289V12.2282H51.6311V11.4131Z" fill="#4D8B5C"/>
<path d="M51.6311 11.4131H51.6289V12.2282H51.6311V11.4131Z" fill="#181425"/>
<path d="M29.0412 12.2256H29.0391V13.0407H29.0412V12.2256Z" fill="#CFC6B8"/>
<path d="M29.0412 12.2256H29.0391V13.0407H29.0412V12.2256Z" fill="#181425"/>
<path d="M32.2717 12.2256H32.2695V13.0407H32.2717V12.2256Z" fill="#181425"/>
<path d="M32.2717 12.2256H32.2695V13.0407H32.2717V12.2256Z" fill="#265C42"/>
<path d="M38.7209 12.2256H38.7188V13.0407H38.7209V12.2256Z" fill="#265C42"/>
<path d="M38.7209 12.2256H38.7188V13.0407H38.7209V12.2256Z" fill="#4D8B5C"/>
<path d="M51.6311 12.2256H51.6289V13.0407H51.6311V12.2256Z" fill="#4D8B5C"/>
<path d="M51.6311 12.2256H51.6289V13.0407H51.6311V12.2256Z" fill="#181425"/>
<path d="M29.0421 13.042H25.8164V16.3023H29.0421V13.042Z" fill="#181425"/>
<path d="M29.0412 13.042H29.0391V13.8571H29.0412V13.042Z" fill="#181425"/>
<path d="M30.6536 13.042H29.043V16.3023H30.6536V13.042Z" fill="#2B7F3D"/>
<path d="M32.2669 13.042H30.6562V16.3023H32.2669V13.042Z" fill="#2B7F3D"/>
<path d="M29.0412 13.042H29.0391V13.8571H29.0412V13.042Z" fill="#265C42"/>
<path d="M32.2717 13.042H32.2695V13.8571H32.2717V13.042Z" fill="#265C42"/>
<path d="M32.2717 13.042H32.2695V13.8571H32.2717V13.042Z" fill="#4D8B5C"/>
<path d="M58.0811 13.042H54.8555V16.3023H58.0811V13.042Z" fill="#181425"/>
<path d="M29.0412 13.8564H29.0391V14.6715H29.0412V13.8564Z" fill="#181425"/>
<path d="M29.0412 13.8564H29.0391V14.6715H29.0412V13.8564Z" fill="#265C42"/>
<path d="M32.2717 13.8564H32.2695V14.6715H32.2717V13.8564Z" fill="#265C42"/>
<path d="M32.2717 13.8564H32.2695V14.6715H32.2717V13.8564Z" fill="#4D8B5C"/>
<path d="M29.0412 14.6709H29.0391V15.486H29.0412V14.6709Z" fill="#181425"/>
<path d="M29.0412 14.6709H29.0391V15.486H29.0412V14.6709Z" fill="#265C42"/>
<path d="M32.2717 14.6709H32.2695V15.486H32.2717V14.6709Z" fill="#265C42"/>
<path d="M32.2717 14.6709H32.2695V15.486H32.2717V14.6709Z" fill="#4D8B5C"/>
<path d="M12.9092 9.78125H9.68359V10.5963H12.9092V9.78125Z" fill="#181425"/>
<path d="M19.3585 13.042H16.1328V16.3023H19.3585V13.042Z" fill="#181425"/>
<path d="M13.7156 13.0417V16.302H9.68359V10.5986H12.9092V13.0417H13.7156Z" fill="#181425"/>
<path d="M16.1319 13.042H13.7148V16.3023H16.1319V13.042Z" fill="#181425"/>
<path d="M29.0412 15.4863H29.0391V16.3014H29.0412V15.4863Z" fill="#181425"/>
<path d="M29.0412 15.4863H29.0391V16.3014H29.0412V15.4863Z" fill="#265C42"/>
<path d="M32.2717 15.4863H32.2695V16.3014H32.2717V15.4863Z" fill="#265C42"/>
<path d="M32.2717 15.4863H32.2695V16.3014H32.2717V15.4863Z" fill="#4D8B5C"/>
<path d="M13.7156 16.3018H9.68359V17.1168H13.7156V16.3018Z" fill="#2B7F3D"/>
<path d="M13.7156 17.1191H9.68359V19.5622H13.7156V17.1191Z" fill="#2B7F3D"/>
<path d="M16.1319 17.1191H13.7148V19.5622H16.1319V17.1191Z" fill="#2B7F3D"/>
<path d="M16.1319 16.3018H13.7148V17.1168H16.1319V16.3018Z" fill="#2B7F3D"/>
<path d="M21.7764 17.1191H19.3594V24.4527H21.7764V17.1191Z" fill="#181425"/>
<path d="M22.5877 24.4551H21.7812V26.0852H22.5877V24.4551Z" fill="#181425"/>
<path d="M25.0069 16.3018H21.7812V17.1168H25.0069V16.3018Z" fill="#181425"/>
<path d="M21.7812 17.1191H25.0069V19.5622H22.5877V24.4527H21.7812V17.1191Z" fill="#181425"/>
<path d="M25.8181 17.1191H25.0117V19.5622H25.8181V17.1191Z" fill="#181425"/>
<path d="M25.8181 16.3018H25.0117V17.1168H25.8181V16.3018Z" fill="#181425"/>
<path d="M21.7764 16.3018H19.3594V17.1168H21.7764V16.3018Z" fill="#181425"/>
<path d="M19.3585 16.3018H16.1328V17.1168H19.3585V16.3018Z" fill="#181425"/>
<path d="M19.3585 17.1191H16.1328V19.5622H19.3585V17.1191Z" fill="#181425"/>
<path d="M21.7764 24.4551H19.3594V26.0852H21.7764V24.4551Z" fill="#181425"/>
<path d="M29.0421 17.1191H25.8164V22.8225H29.0421V17.1191Z" fill="#2B7F3D"/>
<path d="M29.0421 16.3018H25.8164V17.1168H29.0421V16.3018Z" fill="#2B7F3D"/>
<path d="M29.0412 16.3018H29.0391V17.1168H29.0412V16.3018Z" fill="#265C42"/>
<path d="M30.6536 16.3018H29.043V17.1168H30.6536V16.3018Z" fill="#41AA57"/>
<path d="M32.2669 16.3018H30.6562V17.1168H32.2669V16.3018Z" fill="#41AA57"/>
<path d="M29.0412 16.3018H29.0391V17.1168H29.0412V16.3018Z" fill="#4D8B5C"/>
<path d="M32.2717 16.3018H32.2695V17.1168H32.2717V16.3018Z" fill="#4D8B5C"/>
<path d="M38.7218 16.3018H36.3047V17.1168H38.7218V16.3018Z" fill="#181425"/>
<path d="M38.7218 17.1191H36.3047V19.5622H38.7218V17.1191Z" fill="#181425"/>
<path d="M36.3016 16.3018H32.2695V17.1168H36.3016V16.3018Z" fill="#181425"/>
<path d="M36.3016 17.1191H32.2695V19.5622H36.3016V17.1191Z" fill="#181425"/>
<path d="M32.2717 16.3018H32.2695V17.1168H32.2717V16.3018Z" fill="#181425"/>
<path d="M38.7209 16.3018H38.7188V17.1168H38.7209V16.3018Z" fill="#181425"/>
<path d="M38.7209 16.3018H38.7188V17.1168H38.7209V16.3018Z" fill="#4D8B5C"/>
<path d="M51.6311 16.3018H51.6289V17.1168H51.6311V16.3018Z" fill="#4D8B5C"/>
<path d="M54.8585 16.3018H51.6328V17.1168H54.8585V16.3018Z" fill="#181425"/>
<path d="M54.8585 17.1191H51.6328V19.5622H54.8585V17.1191Z" fill="#181425"/>
<path d="M51.6311 16.3018H51.6289V17.1168H51.6311V16.3018Z" fill="#181425"/>
<path d="M61.312 16.3018H59.6992V17.1168H61.312V16.3018Z" fill="#181425"/>
<path d="M61.312 17.1191H59.6992V19.5622H61.312V17.1191Z" fill="#181425"/>
<path d="M59.6949 16.3018H58.082V17.1168H59.6949V16.3018Z" fill="#181425"/>
<path d="M59.6949 17.1191H58.082V19.5622H59.6949V17.1191Z" fill="#181425"/>
<path d="M29.0412 17.1191H29.0391V17.9342H29.0412V17.1191Z" fill="#265C42"/>
<path d="M29.0412 17.1191H29.0391V17.9342H29.0412V17.1191Z" fill="#4D8B5C"/>
<path d="M32.2717 17.1191H32.2695V17.9342H32.2717V17.1191Z" fill="#4D8B5C"/>
<path d="M32.2717 17.1191H32.2695V17.9342H32.2717V17.1191Z" fill="#181425"/>
<path d="M38.7209 17.1191H38.7188V17.9342H38.7209V17.1191Z" fill="#181425"/>
<path d="M38.7209 17.1191H38.7188V17.9342H38.7209V17.1191Z" fill="#4D8B5C"/>
<path d="M51.6311 17.1191H51.6289V17.9342H51.6311V17.1191Z" fill="#4D8B5C"/>
<path d="M51.6311 17.1191H51.6289V17.9342H51.6311V17.1191Z" fill="#181425"/>
<path d="M29.0412 17.9346H29.0391V18.7497H29.0412V17.9346Z" fill="#265C42"/>
<path d="M29.0412 17.9346H29.0391V18.7497H29.0412V17.9346Z" fill="#4D8B5C"/>
<path d="M32.2717 17.9346H32.2695V18.7497H32.2717V17.9346Z" fill="#4D8B5C"/>
<path d="M32.2717 17.9346H32.2695V18.7497H32.2717V17.9346Z" fill="#181425"/>
<path d="M38.7209 17.9346H38.7188V18.7497H38.7209V17.9346Z" fill="#181425"/>
<path d="M38.7209 17.9346H38.7188V18.7497H38.7209V17.9346Z" fill="#4D8B5C"/>
<path d="M51.6311 17.9346H51.6289V18.7497H51.6311V17.9346Z" fill="#4D8B5C"/>
<path d="M51.6311 17.9346H51.6289V18.7497H51.6311V17.9346Z" fill="#181425"/>
<path d="M7.25954 17.1191H6.45312V19.5622H7.25954V17.1191Z" fill="#181425"/>
<path d="M7.25954 13.042H6.45312V17.1174H7.25954V13.042Z" fill="#181425"/>
<path d="M9.67878 13.042H7.26172V17.1174H9.67878V13.042Z" fill="#181425"/>
<path d="M9.67878 17.1191H7.26172V19.5622H9.67878V17.1191Z" fill="#181425"/>
<path d="M29.0412 18.7471H29.0391V19.5622H29.0412V18.7471Z" fill="#265C42"/>
<path d="M29.0412 18.7471H29.0391V19.5622H29.0412V18.7471Z" fill="#4D8B5C"/>
<path d="M32.2717 18.7471H32.2695V19.5622H32.2717V18.7471Z" fill="#4D8B5C"/>
<path d="M32.2717 18.7471H32.2695V19.5622H32.2717V18.7471Z" fill="#181425"/>
<path d="M38.7209 18.7471H38.7188V19.5622H38.7209V18.7471Z" fill="#181425"/>
<path d="M38.7209 18.7471H38.7188V19.5622H38.7209V18.7471Z" fill="#4D8B5C"/>
<path d="M51.6311 18.7471H51.6289V19.5622H51.6311V18.7471Z" fill="#4D8B5C"/>
<path d="M51.6311 18.7471H51.6289V19.5622H51.6311V18.7471Z" fill="#181425"/>
<path d="M64.5381 9.78125H61.3125V10.5963H64.5381V9.78125Z" fill="#181425"/>
<path d="M64.5381 10.5986H61.3125V13.0417H64.5381V10.5986Z" fill="#181425"/>
<path d="M65.3446 13.042V17.1174H64.5381V16.3023H61.3125V13.042H65.3446Z" fill="#181425"/>
<path d="M65.3416 17.1191H64.5352V19.5622H65.3416V17.1191Z" fill="#181425"/>
<path d="M67.763 13.042H65.3438V17.1174H67.763V13.042Z" fill="#181425"/>
<path d="M67.763 17.1191H65.3438V19.5622H67.763V17.1191Z" fill="#181425"/>
<path d="M7.25954 19.5615H6.45312V22.8219H7.25954V19.5615Z" fill="#2B7F3D"/>
<path d="M9.67878 19.5615H7.26172V22.8219H9.67878V19.5615Z" fill="#2B7F3D"/>
<path d="M12.9092 19.5615H9.68359V22.8219H12.9092V19.5615Z" fill="#2B7F3D"/>
<path d="M16.1319 24.4551H13.7148V26.0852H16.1319V24.4551Z" fill="#181425"/>
<path d="M16.1319 19.5615H13.7148V24.452H16.1319V19.5615Z" fill="#181425"/>
<path d="M9.67878 22.8213H7.26172V24.4515H9.67878V22.8213Z" fill="#181425"/>
<path d="M12.9092 30.9756H9.68359V37.4941H12.9092V30.9756Z" fill="#181425"/>
<path d="M12.9092 37.4961H9.68359V45.6447H12.9092V37.4961Z" fill="#181425"/>
<path d="M9.67878 39.126H7.26172V42.3841H9.67878V39.126Z" fill="#181425"/>
<path d="M7.25862 39.126V42.3841H6.45221V45.6445H3.22656V39.126H7.25862Z" fill="#181425"/>
<path d="M13.7156 24.4551V26.0831H12.9092V30.9736H9.68359V24.4551H13.7156Z" fill="#181425"/>
<path d="M12.9092 45.6465H9.68359V48.9046H12.9092V45.6465Z" fill="#181425"/>
<path d="M13.7127 26.082H12.9062V26.0842H13.7127V26.082Z" fill="#181425"/>
<path d="M9.67878 24.4551H7.26172V26.0852H9.67878V24.4551Z" fill="#181425"/>
<path d="M12.9092 19.5615H13.7156V24.452H9.68359V22.8219H12.9092V19.5615Z" fill="#181425"/>
<path d="M6.45221 22.8219H7.25862V24.452H3.22656V19.5615H6.45221V22.8219Z" fill="#181425"/>
<path d="M7.25862 24.4551H3.22656V26.0852H7.25862V24.4551Z" fill="#181425"/>
<path d="M25.0091 19.5615H22.5898V24.452H25.0091V19.5615Z" fill="#2B7F3D"/>
<path d="M25.0091 24.4551H22.5898V26.0852H25.0091V24.4551Z" fill="#2B7F3D"/>
<path d="M25.8181 24.4551H25.0117V26.0852H25.8181V24.4551Z" fill="#2B7F3D"/>
<path d="M25.8181 19.5615H25.0117V24.452H25.8181V19.5615Z" fill="#2B7F3D"/>
<path d="M29.0412 19.5615H29.0391V20.3766H29.0412V19.5615Z" fill="#265C42"/>
<path d="M29.0412 19.5615H29.0391V20.3766H29.0412V19.5615Z" fill="#4D8B5C"/>
<path d="M61.312 19.5615H59.6992V22.8219H61.312V19.5615Z" fill="#41AA57"/>
<path d="M67.763 30.9756H65.3438V37.4941H67.763V30.9756Z" fill="#181425"/>
<path d="M67.763 37.4961H65.3438V39.1241H67.763V37.4961Z" fill="#181425"/>
<path d="M65.3446 37.4961V39.1241H64.5381V45.6447H61.3125V37.4961H65.3446Z" fill="#181425"/>
<path d="M65.3446 30.9756V37.4941H61.3125V35.8639H64.5381V30.9756H65.3446Z" fill="#181425"/>
<path d="M67.763 19.5615H65.3438V24.452H67.763V19.5615Z" fill="#41AA57"/>
<path d="M67.763 24.4551H65.3438V26.0831H67.763V24.4551Z" fill="#41AA57"/>
<path d="M65.3416 24.4551H64.5352V26.0831H65.3416V24.4551Z" fill="#41AA57"/>
<path d="M65.3416 19.5615H64.5352V24.452H65.3416V19.5615Z" fill="#41AA57"/>
<path d="M70.9891 24.4551H67.7656V26.0831H70.9891V24.4551Z" fill="#181425"/>
<path d="M70.9891 19.5615H67.7656V24.452H70.9891V19.5615Z" fill="#181425"/>
<path d="M29.0412 20.377H29.0391V21.192H29.0412V20.377Z" fill="#265C42"/>
<path d="M29.0412 20.377H29.0391V21.192H29.0412V20.377Z" fill="#4D8B5C"/>
<path d="M29.0412 21.1924H29.0391V22.0075H29.0412V21.1924Z" fill="#265C42"/>
<path d="M29.0412 21.1924H29.0391V22.0075H29.0412V21.1924Z" fill="#4D8B5C"/>
<path d="M29.0412 22.0068H29.0391V22.8219H29.0412V22.0068Z" fill="#265C42"/>
<path d="M29.0412 22.0068H29.0391V22.8219H29.0412V22.0068Z" fill="#4D8B5C"/>
<path d="M36.3011 24.4551H30.6562V26.0852H36.3011V24.4551Z" fill="#181425"/>
<path d="M36.3011 22.8213H30.6562V24.4515H36.3011V22.8213Z" fill="#181425"/>
<path d="M38.7218 24.4551H36.3047V26.0852H38.7218V24.4551Z" fill="#181425"/>
<path d="M38.7218 22.8213H36.3047V24.4515H38.7218V22.8213Z" fill="#181425"/>
<path d="M30.6549 22.8213H25.8164V24.4515H30.6549V22.8213Z" fill="#181425"/>
<path d="M30.6549 24.4551H25.8164V26.0852H30.6549V24.4551Z" fill="#181425"/>
<path d="M38.7209 22.8213H38.7188V23.6364H38.7209V22.8213Z" fill="#181425"/>
<path d="M38.7209 22.8213H38.7188V23.6364H38.7209V22.8213Z" fill="#4D8B5C"/>
<path d="M59.6992 24.452V22.8219H61.312V19.5615H64.5377V24.452H59.6992Z" fill="#181425"/>
<path d="M59.6939 22.8213H54.8555V24.4515H59.6939V22.8213Z" fill="#181425"/>
<path d="M59.6939 24.4551H54.8555V26.0852H59.6939V24.4551Z" fill="#181425"/>
<path d="M61.312 26.082H59.6992V26.0842H61.312V26.082Z" fill="#181425"/>
<path d="M38.7209 23.6377H38.7188V24.4528H38.7209V23.6377Z" fill="#181425"/>
<path d="M38.7209 23.6377H38.7188V24.4528H38.7209V23.6377Z" fill="#4D8B5C"/>
<path d="M38.7209 24.4551H38.7188V25.2702H38.7209V24.4551Z" fill="#181425"/>
<path d="M38.7209 24.4551H38.7188V25.2702H38.7209V24.4551Z" fill="#4D8B5C"/>
<path d="M16.9392 26.082H16.1328V26.0842H16.9392V26.082Z" fill="#3E8948"/>
<path d="M17.7478 26.082H16.9414V26.0842H17.7478V26.082Z" fill="#3E8948"/>
<path d="M18.5525 26.082H17.7461V26.0842H18.5525V26.082Z" fill="#3E8948"/>
<path d="M19.3611 26.082H18.5547V26.0842H19.3611V26.082Z" fill="#3E8948"/>
<path d="M38.7209 25.2695H38.7188V26.0846H38.7209V25.2695Z" fill="#181425"/>
<path d="M39.5273 26.0824V26.0846H38.7188V25.2695H38.7209V26.0824H39.5273Z" fill="#4D8B5C"/>
<path d="M40.3338 26.082H39.5273V26.0842H40.3338V26.082Z" fill="#4D8B5C"/>
<path d="M41.1423 26.082H40.3359V26.0842H41.1423V26.082Z" fill="#4D8B5C"/>
<path d="M41.947 26.082H41.1406V26.0842H41.947V26.082Z" fill="#4D8B5C"/>
<path d="M51.6315 26.082H51.6289V26.0847H51.6315V26.082Z" fill="#4D8B5C"/>
<path d="M52.4353 26.082H51.6289V26.0842H52.4353V26.082Z" fill="#4D8B5C"/>
<path d="M53.2439 26.082H52.4375V26.0842H53.2439V26.082Z" fill="#4D8B5C"/>
<path d="M54.0508 26.082H53.2422V26.0842H54.0508V26.082Z" fill="#4D8B5C"/>
<path d="M54.8572 26.082H54.0508V26.0842H54.8572V26.082Z" fill="#4D8B5C"/>
<path d="M65.3416 26.082H64.5352V26.0842H65.3416V26.082Z" fill="#3E8948"/>
<path d="M66.1502 26.082H65.3438V26.0842H66.1502V26.082Z" fill="#3E8948"/>
<path d="M66.9548 26.082H66.1484V26.0842H66.9548V26.082Z" fill="#3E8948"/>
<path d="M67.7634 26.082H66.957V26.0842H67.7634V26.082Z" fill="#3E8948"/>
<path d="M68.572 26.082H67.7656V26.0842H68.572V26.082Z" fill="#181425"/>
<path d="M69.3789 26.082H68.5703V26.0842H69.3789V26.082Z" fill="#181425"/>
<path d="M70.1853 26.082H69.3789V26.0842H70.1853V26.082Z" fill="#181425"/>
<path d="M70.99 26.082H70.1836V26.0842H70.99V26.082Z" fill="#181425"/>
<path d="M7.25862 26.085H3.22656V30.9733H7.25862V26.085Z" fill="#C6C6C6"/>
<path d="M7.25862 37.4961H3.22656V39.1241H7.25862V37.4961Z" fill="#C6C6C6"/>
<path d="M7.25862 30.9756H3.22656V37.4941H7.25862V30.9756Z" fill="#C6C6C6"/>
<path d="M9.67878 37.4961H7.26172V39.1241H9.67878V37.4961Z" fill="#C6C6C6"/>
<path d="M9.67878 30.9756H7.26172V37.4941H9.67878V30.9756Z" fill="#C6C6C6"/>
<path d="M9.67878 26.085H7.26172V30.9733H9.67878V26.085Z" fill="#C6C6C6"/>
<path d="M4.03297 26.082H3.22656V26.0842H4.03297V26.082Z" fill="#A0938E"/>
<path d="M4.83766 26.082H4.03125V26.0842H4.83766V26.082Z" fill="#A0938E"/>
<path d="M5.64625 26.082H4.83984V26.0842H5.64625V26.082Z" fill="#A0938E"/>
<path d="M6.45094 26.082H5.64453V26.0842H6.45094V26.082Z" fill="#A0938E"/>
<path d="M7.25954 26.082H6.45312V26.0842H7.25954V26.082Z" fill="#A0938E"/>
<path d="M8.06813 26.082H7.26172V26.0842H8.06813V26.082Z" fill="#A0938E"/>
<path d="M8.87499 26.082H8.06641V26.0842H8.87499V26.082Z" fill="#A0938E"/>
<path d="M9.67751 26.082H8.87109V26.0842H9.67751V26.082Z" fill="#A0938E"/>
<path d="M13.7127 37.4961H12.9062V39.1241H13.7127V37.4961Z" fill="white"/>
<path d="M13.7127 30.9756H12.9062V37.4941H13.7127V30.9756Z" fill="white"/>
<path d="M13.7127 26.085H12.9062V30.9733H13.7127V26.085Z" fill="white"/>
<path d="M16.1319 26.085H13.7148V30.9733H16.1319V26.085Z" fill="white"/>
<path d="M16.1319 30.9756H13.7148V37.4941H16.1319V30.9756Z" fill="white"/>
<path d="M16.1319 37.4961H13.7148V39.1241H16.1319V37.4961Z" fill="white"/>
<path d="M13.7127 26.082H12.9062V26.0842H13.7127V26.082Z" fill="#CFC6B8"/>
<path d="M14.5213 26.082H13.7148V26.0842H14.5213V26.082Z" fill="#CFC6B8"/>
<path d="M15.3281 26.082H14.5195V26.0842H15.3281V26.082Z" fill="#CFC6B8"/>
<path d="M16.1306 26.082H15.3242V26.0842H16.1306V26.082Z" fill="#CFC6B8"/>
<path d="M19.3585 37.4961H16.1328V39.1241H19.3585V37.4961Z" fill="#181425"/>
<path d="M19.3585 30.9756H16.1328V37.4941H19.3585V30.9756Z" fill="#181425"/>
<path d="M19.3585 26.085H16.1328V30.9733H19.3585V26.085Z" fill="#181425"/>
<path d="M30.6566 26.085V29.3431H29.0438V30.9733H25.0117V26.085H30.6566Z" fill="#181425"/>
<path d="M21.7764 30.9756H19.3594V32.6036H21.7764V30.9756Z" fill="#181425"/>
<path d="M21.7764 26.085H19.3594V30.9733H21.7764V26.085Z" fill="#181425"/>
<path d="M25.0069 26.085H21.7812V30.9733H25.0069V26.085Z" fill="#181425"/>
<path d="M25.0091 37.4961H22.5898V39.1241H25.0091V37.4961Z" fill="#181425"/>
<path d="M29.0438 30.9756V32.6036H25.8181V35.8639H29.0438V37.4941H25.0117V30.9756H29.0438Z" fill="#181425"/>
<path d="M29.0438 37.4961H25.0117V39.1241H29.0438V37.4961Z" fill="#181425"/>
<path d="M21.7812 30.9756H25.0069V37.4941H22.5877V32.6036H21.7812V30.9756Z" fill="#181425"/>
<path d="M36.3011 26.085H30.6562V29.3431H36.3011V26.085Z" fill="#181425"/>
<path d="M41.9483 30.9756H38.7227V32.6036H41.9483V30.9756Z" fill="#181425"/>
<path d="M41.9496 26.085V30.9733H38.7239V29.3431H36.3047V26.085H41.9496Z" fill="#181425"/>
<path d="M16.9392 26.082H16.1328V26.0842H16.9392V26.082Z" fill="#181425"/>
<path d="M17.7478 26.082H16.9414V26.0842H17.7478V26.082Z" fill="#181425"/>
<path d="M18.5525 26.082H17.7461V26.0842H18.5525V26.082Z" fill="#181425"/>
<path d="M19.3611 26.082H18.5547V26.0842H19.3611V26.082Z" fill="#181425"/>
<path d="M20.1658 26.082H19.3594V26.0842H20.1658V26.082Z" fill="#181425"/>
<path d="M20.9744 26.082H20.168V26.0842H20.9744V26.082Z" fill="#181425"/>
<path d="M21.7791 26.082H20.9727V26.0842H21.7791V26.082Z" fill="#181425"/>
<path d="M22.5877 26.082H21.7812V26.0842H22.5877V26.082Z" fill="#181425"/>
<path d="M23.3984 26.082H22.5898V26.0842H23.3984V26.082Z" fill="#181425"/>
<path d="M24.2009 26.082H23.3945V26.0842H24.2009V26.082Z" fill="#181425"/>
<path d="M25.0056 26.082H24.1992V26.0842H25.0056V26.082Z" fill="#181425"/>
<path d="M25.8181 26.082H25.0117V26.0842H25.8181V26.082Z" fill="#181425"/>
<path d="M26.6228 26.082H25.8164V26.0842H26.6228V26.082Z" fill="#181425"/>
<path d="M27.4314 26.082H26.625V26.0842H27.4314V26.082Z" fill="#181425"/>
<path d="M28.2361 26.082H27.4297V26.0842H28.2361V26.082Z" fill="#181425"/>
<path d="M29.043 26.082H28.2344V26.0842H29.043V26.082Z" fill="#181425"/>
<path d="M29.8455 26.082H29.0391V26.0842H29.8455V26.082Z" fill="#181425"/>
<path d="M30.6541 26.082H29.8477V26.0842H30.6541V26.082Z" fill="#181425"/>
<path d="M31.4627 26.082H30.6562V26.0842H31.4627V26.082Z" fill="#181425"/>
<path d="M32.2673 26.082H31.4609V26.0842H32.2673V26.082Z" fill="#181425"/>
<path d="M33.0781 26.082H32.2695V26.0842H33.0781V26.082Z" fill="#181425"/>
<path d="M33.8828 26.082H33.0742V26.0842H33.8828V26.082Z" fill="#181425"/>
<path d="M34.6892 26.082H33.8828V26.0842H34.6892V26.082Z" fill="#181425"/>
<path d="M35.4978 26.082H34.6914V26.0842H35.4978V26.082Z" fill="#181425"/>
<path d="M36.3025 26.082H35.4961V26.0842H36.3025V26.082Z" fill="#181425"/>
<path d="M37.1111 26.082H36.3047V26.0842H37.1111V26.082Z" fill="#181425"/>
<path d="M37.9158 26.082H37.1094V26.0842H37.9158V26.082Z" fill="#181425"/>
<path d="M38.7244 26.082H37.918V26.0842H38.7244V26.082Z" fill="#181425"/>
<path d="M39.5273 26.082H38.7188V26.0842H39.5273V26.082Z" fill="#181425"/>
<path d="M40.3338 26.082H39.5273V26.0842H40.3338V26.082Z" fill="#181425"/>
<path d="M41.1423 26.082H40.3359V26.0842H41.1423V26.082Z" fill="#181425"/>
<path d="M41.947 26.082H41.1406V26.0842H41.947V26.082Z" fill="#181425"/>
<path d="M51.6311 26.082H51.6289V26.8971H51.6311V26.082Z" fill="#4D8B5C"/>
<path d="M64.5377 26.0852H65.3441V30.9736H64.5377V29.3434H59.6992V26.0852H61.312V26.0831H59.6992V24.4551H64.5377V26.0852Z" fill="#181425"/>
<path d="M67.763 26.085H65.3438V30.9733H67.763V26.085Z" fill="#181425"/>
<path d="M59.6946 26.085V29.3431H58.0818V30.9733H41.9492V29.3431H51.6305V26.085H59.6946Z" fill="#181425"/>
<path d="M58.0841 37.4961V42.3844H54.8585V39.1241H51.6328V37.4961H58.0841Z" fill="#181425"/>
<path d="M58.0818 30.9756V32.6036H54.8561V35.8639H58.0818V37.4941H51.6305V35.8639H41.9492V30.9756H58.0818Z" fill="#181425"/>
<path d="M52.4353 26.082V26.0842H51.6311V26.8971H51.6289V26.082H52.4353Z" fill="#181425"/>
<path d="M53.2439 26.082H52.4375V26.0842H53.2439V26.082Z" fill="#181425"/>
<path d="M54.0508 26.082H53.2422V26.0842H54.0508V26.082Z" fill="#181425"/>
<path d="M54.8572 26.082H54.0508V26.0842H54.8572V26.082Z" fill="#181425"/>
<path d="M55.6619 26.082H54.8555V26.0842H55.6619V26.082Z" fill="#181425"/>
<path d="M56.4705 26.082H55.6641V26.0842H56.4705V26.082Z" fill="#181425"/>
<path d="M57.2773 26.082H56.4688V26.0842H57.2773V26.082Z" fill="#181425"/>
<path d="M58.0838 26.082H57.2773V26.0842H58.0838V26.082Z" fill="#181425"/>
<path d="M58.8884 26.082H58.082V26.0842H58.8884V26.082Z" fill="#181425"/>
<path d="M59.697 26.082H58.8906V26.0842H59.697V26.082Z" fill="#181425"/>
<path d="M60.5056 26.082H59.6992V26.0842H60.5056V26.082Z" fill="#181425"/>
<path d="M61.3103 26.082H60.5039V26.0842H61.3103V26.082Z" fill="#181425"/>
<path d="M65.3416 26.082H64.5352V26.0842H65.3416V26.082Z" fill="#181425"/>
<path d="M66.1502 26.082H65.3438V26.0842H66.1502V26.082Z" fill="#181425"/>
<path d="M66.9548 26.082H66.1484V26.0842H66.9548V26.082Z" fill="#181425"/>
<path d="M67.7634 26.082H66.957V26.0842H67.7634V26.082Z" fill="#181425"/>
<path d="M70.9891 26.085H67.7656V30.9733H70.9891V26.085Z" fill="white"/>
<path d="M70.9891 37.4961H67.7656V39.1241H70.9891V37.4961Z" fill="white"/>
<path d="M70.9891 30.9756H67.7656V37.4941H70.9891V30.9756Z" fill="white"/>
<path d="M68.572 26.082H67.7656V26.0842H68.572V26.082Z" fill="#CFC6B8"/>
<path d="M69.3789 26.082H68.5703V26.0842H69.3789V26.082Z" fill="#CFC6B8"/>
<path d="M70.1853 26.082H69.3789V26.0842H70.1853V26.082Z" fill="#CFC6B8"/>
<path d="M70.99 26.082H70.1836V26.0842H70.99V26.082Z" fill="#CFC6B8"/>
<path d="M74.2178 26.082H70.9922V30.9725H74.2178V26.082Z" fill="#181425"/>
<path d="M74.2178 37.4961H70.9922V39.1263H74.2178V37.4961Z" fill="#181425"/>
<path d="M74.2178 30.9756H70.9922V37.4941H74.2178V30.9756Z" fill="#181425"/>
<path d="M51.6311 26.8984H51.6289V27.7135H51.6311V26.8984Z" fill="#4D8B5C"/>
<path d="M51.6311 26.8984H51.6289V27.7135H51.6311V26.8984Z" fill="#181425"/>
<path d="M51.6311 27.7129H51.6289V28.528H51.6311V27.7129Z" fill="#181425"/>
<path d="M51.6311 28.5273H51.6289V29.3424H51.6311V28.5273Z" fill="#181425"/>
<path d="M29.0412 29.3438H29.0391V30.1588H29.0412V29.3438Z" fill="#181425"/>
<path d="M30.6536 29.3438H29.043V30.9739H30.6536V29.3438Z" fill="white"/>
<path d="M30.6536 37.4961H29.043V39.1241H30.6536V37.4961Z" fill="white"/>
<path d="M35.4947 37.4961H30.6562V39.1241H35.4947V37.4961Z" fill="white"/>
<path d="M35.4947 35.8639V37.4941H30.6562V30.9756H32.2669V35.8639H35.4947Z" fill="white"/>
<path d="M32.2669 29.3438H30.6562V30.9739H32.2669V29.3438Z" fill="white"/>
<path d="M29.0412 29.3438H29.0391V30.1588H29.0412V29.3438Z" fill="#CFC6B8"/>
<path d="M32.2717 29.3438H32.2695V30.1588H32.2717V29.3438Z" fill="#CFC6B8"/>
<path d="M33.0781 29.3438H32.2695V30.1588H33.0781V29.3438Z" fill="#3978A8"/>
<path d="M33.8828 29.3438H33.0742V30.1588H33.8828V29.3438Z" fill="#3978A8"/>
<path d="M34.6892 29.3438H33.8828V30.1588H34.6892V29.3438Z" fill="#3978A8"/>
<path d="M35.4978 29.3438H34.6914V30.1588H35.4978V29.3438Z" fill="#3978A8"/>
<path d="M36.3025 29.3438H35.4961V30.1588H36.3025V29.3438Z" fill="#3978A8"/>
<path d="M37.1111 29.3438H36.3047V30.1588H37.1111V29.3438Z" fill="#3978A8"/>
<path d="M37.9158 29.3438H37.1094V30.1588H37.9158V29.3438Z" fill="#3978A8"/>
<path d="M38.7244 29.3438H37.918V30.1588H38.7244V29.3438Z" fill="#3978A8"/>
<path d="M38.7209 29.3438H38.7188V30.1588H38.7209V29.3438Z" fill="#181425"/>
<path d="M58.8884 29.3438H58.082V30.1588H58.8884V29.3438Z" fill="#3978A8"/>
<path d="M59.697 29.3438H58.8906V30.1588H59.697V29.3438Z" fill="#3978A8"/>
<path d="M60.5056 29.3438H59.6992V30.1588H60.5056V29.3438Z" fill="#3978A8"/>
<path d="M61.3103 29.3438H60.5039V30.1588H61.3103V29.3438Z" fill="#3978A8"/>
<path d="M62.1189 29.3438H61.3125V30.1588H62.1189V29.3438Z" fill="#3978A8"/>
<path d="M62.9258 29.3438H62.1172V30.1588H62.9258V29.3438Z" fill="#3978A8"/>
<path d="M63.7283 29.3438H62.9219V30.1588H63.7283V29.3438Z" fill="#3978A8"/>
<path d="M64.5369 29.3438H63.7305V30.1588H64.5369V29.3438Z" fill="#3978A8"/>
<path d="M29.0412 30.1582H29.0391V30.9733H29.0412V30.1582Z" fill="#181425"/>
<path d="M29.0412 30.1582H29.0391V30.9733H29.0412V30.1582Z" fill="#CFC6B8"/>
<path d="M32.2717 30.1582H32.2695V30.9733H32.2717V30.1582Z" fill="#CFC6B8"/>
<path d="M33.0781 30.1582H32.2695V30.9733H33.0781V30.1582Z" fill="#3978A8"/>
<path d="M33.8828 30.1582H33.0742V30.9733H33.8828V30.1582Z" fill="#3978A8"/>
<path d="M34.6849 30.1582H33.8828V30.9733H34.6849V30.1582Z" fill="#3978A8"/>
<path d="M35.4943 30.1582H34.6836V30.9733H35.49L35.4943 30.1582Z" fill="#3978A8"/>
<path d="M36.3025 30.1582H35.4961V30.9733H36.3025V30.1582Z" fill="#3978A8"/>
<path d="M37.1111 30.1582H36.3047V30.9733H37.1111V30.1582Z" fill="#3978A8"/>
<path d="M37.9158 30.1582H37.1094V30.9733H37.9158V30.1582Z" fill="#3978A8"/>
<path d="M38.7244 30.1582H37.918V30.9733H38.7244V30.1582Z" fill="#3978A8"/>
<path d="M38.7209 30.1582H38.7188V30.9733H38.7209V30.1582Z" fill="#181425"/>
<path d="M58.8884 30.1582H58.082V30.9733H58.8884V30.1582Z" fill="#3978A8"/>
<path d="M59.697 30.1582H58.8906V30.9733H59.697V30.1582Z" fill="#3978A8"/>
<path d="M60.5056 30.1582H59.6992V30.9733H60.5056V30.1582Z" fill="#3978A8"/>
<path d="M61.3103 30.1582H60.5039V30.9733H61.3103V30.1582Z" fill="#3978A8"/>
<path d="M62.1189 30.1582H61.3125V30.9733H62.1189V30.1582Z" fill="#3978A8"/>
<path d="M62.9258 30.1582H62.1172V30.9733H62.9258V30.1582Z" fill="#3978A8"/>
<path d="M63.7322 30.1582H62.9258V30.9733H63.7322V30.1582Z" fill="#3978A8"/>
<path d="M64.5369 30.1582H63.7305V30.9733H64.5369V30.1582Z" fill="#3978A8"/>
<path d="M29.0412 30.9756H29.0391V31.7907H29.0412V30.9756Z" fill="#181425"/>
<path d="M29.0412 30.9756H29.0391V31.7907H29.0412V30.9756Z" fill="#CFC6B8"/>
<path d="M32.2717 30.9756H32.2695V31.7907H32.2717V30.9756Z" fill="#CFC6B8"/>
<path d="M33.0781 30.9756H32.2695V31.7907H33.0781V30.9756Z" fill="#3978A8"/>
<path d="M33.8828 30.9756H33.0742V31.7907H33.8828V30.9756Z" fill="#3978A8"/>
<path d="M34.6849 30.9756H33.8828V31.7907H34.6849V30.9756Z" fill="#3978A8"/>
<path d="M35.4943 30.9756H34.6836V31.7907H35.49L35.4943 30.9756Z" fill="#3978A8"/>
<path d="M36.3025 30.9756H35.4961V31.7907H36.3025V30.9756Z" fill="#3978A8"/>
<path d="M37.1111 30.9756H36.3047V31.7907H37.1111V30.9756Z" fill="#3978A8"/>
<path d="M37.9158 30.9756H37.1094V31.7907H37.9158V30.9756Z" fill="#3978A8"/>
<path d="M38.7244 30.9756H37.918V31.7907H38.7244V30.9756Z" fill="#3978A8"/>
<path d="M38.7209 30.9756H38.7188V31.7907H38.7209V30.9756Z" fill="#181425"/>
<path d="M58.8884 30.9756H58.082V31.7907H58.8884V30.9756Z" fill="#3978A8"/>
<path d="M59.697 30.9756H58.8906V31.7907H59.697V30.9756Z" fill="#3978A8"/>
<path d="M60.5056 30.9756H59.6992V31.7907H60.5056V30.9756Z" fill="#3978A8"/>
<path d="M61.3103 30.9756H60.5039V31.7907H61.3103V30.9756Z" fill="#3978A8"/>
<path d="M62.1189 30.9756H61.3125V31.7907H62.1189V30.9756Z" fill="#3978A8"/>
<path d="M62.9258 30.9756H62.1172V31.7907H62.9258V30.9756Z" fill="#3978A8"/>
<path d="M63.7322 30.9756H62.9258V31.7907H63.7322V30.9756Z" fill="#3978A8"/>
<path d="M64.5369 30.9756H63.7305V31.7907H64.5369V30.9756Z" fill="#3978A8"/>
<path d="M20.1658 32.6035H19.3594V32.6057H20.1658V32.6035Z" fill="#181425"/>
<path d="M20.9744 32.6035H20.168V32.6057H20.9744V32.6035Z" fill="#181425"/>
<path d="M21.7791 32.6035H20.9727V32.6057H21.7791V32.6035Z" fill="#181425"/>
<path d="M22.5877 32.6035H21.7812V32.6057H22.5877V32.6035Z" fill="#181425"/>
<path d="M26.6228 32.6035H25.8164V32.6057H26.6228V32.6035Z" fill="#181425"/>
<path d="M27.4314 32.6035H26.625V32.6057H27.4314V32.6035Z" fill="#181425"/>
<path d="M28.2361 32.6035H27.4297V32.6057H28.2361V32.6035Z" fill="#181425"/>
<path d="M29.043 31.79V32.6051H28.2344V32.603H29.0408V31.79H29.043Z" fill="#181425"/>
<path d="M29.0412 31.79H29.0391V32.6051H29.0412V31.79Z" fill="#CFC6B8"/>
<path d="M32.2717 31.79H32.2695V32.6051H32.2717V31.79Z" fill="#CFC6B8"/>
<path d="M33.0781 31.79H32.2695V32.6051H33.0781V31.79Z" fill="#3978A8"/>
<path d="M33.8828 31.79H33.0742V32.6051H33.8828V31.79Z" fill="#3978A8"/>
<path d="M34.6849 31.79H33.8828V32.6051H34.6849V31.79Z" fill="#3978A8"/>
<path d="M35.4943 31.79H34.6836V32.6051H35.49L35.4943 31.79Z" fill="#3978A8"/>
<path d="M36.3025 31.79H35.4961V32.6051H36.3025V31.79Z" fill="#3978A8"/>
<path d="M37.1111 31.79H36.3047V32.6051H37.1111V31.79Z" fill="#3978A8"/>
<path d="M37.9158 31.79H37.1094V32.6051H37.9158V31.79Z" fill="#3978A8"/>
<path d="M38.7244 31.79H37.918V32.6051H38.7244V31.79Z" fill="#3978A8"/>
<path d="M39.5273 32.603V32.6051H38.7188V31.79H38.7209V32.603H39.5273Z" fill="#181425"/>
<path d="M40.3338 32.6035H39.5273V32.6057H40.3338V32.6035Z" fill="#181425"/>
<path d="M41.1423 32.6035H40.3359V32.6057H41.1423V32.6035Z" fill="#181425"/>
<path d="M41.947 32.6035H41.1406V32.6057H41.947V32.6035Z" fill="#181425"/>
<path d="M55.6619 32.6035H54.8555V32.6057H55.6619V32.6035Z" fill="#181425"/>
<path d="M56.4705 32.6035H55.6641V32.6057H56.4705V32.6035Z" fill="#181425"/>
<path d="M57.2773 32.6035H56.4688V32.6057H57.2773V32.6035Z" fill="#181425"/>
<path d="M58.0838 32.6035H57.2773V32.6057H58.0838V32.6035Z" fill="#181425"/>
<path d="M58.8884 31.79H58.082V32.6051H58.8884V31.79Z" fill="#3978A8"/>
<path d="M59.697 31.79H58.8906V32.6051H59.697V31.79Z" fill="#3978A8"/>
<path d="M60.5056 31.79H59.6992V32.6051H60.5056V31.79Z" fill="#3978A8"/>
<path d="M61.3103 31.79H60.5039V32.6051H61.3103V31.79Z" fill="#3978A8"/>
<path d="M62.1189 31.79H61.3125V32.6051H62.1189V31.79Z" fill="#3978A8"/>
<path d="M62.9258 31.79H62.1172V32.6051H62.9258V31.79Z" fill="#3978A8"/>
<path d="M63.7322 31.79H62.9258V32.6051H63.7322V31.79Z" fill="#3978A8"/>
<path d="M64.5369 31.79H63.7305V32.6051H64.5369V31.79Z" fill="#3978A8"/>
<path d="M21.7764 32.6055H19.3594V37.4938H21.7764V32.6055Z" fill="#2B7F3D"/>
<path d="M22.5877 32.6055H21.7812V37.4938H22.5877V32.6055Z" fill="#2B7F3D"/>
<path d="M22.5877 37.4961H21.7812V39.1241H22.5877V37.4961Z" fill="#2B7F3D"/>
<path d="M21.7764 37.4961H19.3594V39.1241H21.7764V37.4961Z" fill="#2B7F3D"/>
<path d="M20.1658 32.6035H19.3594V32.6057H20.1658V32.6035Z" fill="#265C42"/>
<path d="M20.9744 32.6035H20.168V32.6057H20.9744V32.6035Z" fill="#265C42"/>
<path d="M21.7791 32.6035H20.9727V32.6057H21.7791V32.6035Z" fill="#265C42"/>
<path d="M22.5877 32.6035H21.7812V32.6057H22.5877V32.6035Z" fill="#265C42"/>
<path d="M30.6549 30.9756V37.4941H29.0442V35.8639H25.8164V32.6058H29.0442V30.9756H30.6549Z" fill="white"/>
<path d="M26.6228 32.6035H25.8164V32.6057H26.6228V32.6035Z" fill="#CFC6B8"/>
<path d="M27.4314 32.6035H26.625V32.6057H27.4314V32.6035Z" fill="#CFC6B8"/>
<path d="M28.2361 32.6035H27.4297V32.6057H28.2361V32.6035Z" fill="#CFC6B8"/>
<path d="M29.043 32.6035H28.2344V32.6057H29.043V32.6035Z" fill="#CFC6B8"/>
<path d="M29.0417 32.6035H29.0391V32.6062H29.0417V32.6035Z" fill="#CFC6B8"/>
<path d="M32.2717 32.6035H32.2695V33.4186H32.2717V32.6035Z" fill="#CFC6B8"/>
<path d="M33.0781 32.6035H32.2695V33.4186H33.0781V32.6035Z" fill="#394778"/>
<path d="M33.8828 32.6035H33.0742V33.4186H33.8828V32.6035Z" fill="#394778"/>
<path d="M34.6849 32.6035H33.8828V33.4186H34.6849V32.6035Z" fill="#394778"/>
<path d="M35.4943 32.6035H34.6836V33.4186H35.49L35.4943 32.6035Z" fill="#394778"/>
<path d="M36.3025 32.6035H35.4961V33.4186H36.3025V32.6035Z" fill="#39314B"/>
<path d="M37.1111 32.6035H36.3047V33.4186H37.1111V32.6035Z" fill="#39314B"/>
<path d="M37.9158 32.6035H37.1094V33.4186H37.9158V32.6035Z" fill="#39314B"/>
<path d="M38.7244 32.6035H37.918V33.4186H38.7244V32.6035Z" fill="#39314B"/>
<path d="M41.9483 32.6055H38.7227V35.8636H41.9483V32.6055Z" fill="white"/>
<path d="M39.5273 32.6035V32.6057H38.7209V33.4186H38.7188V32.6035H39.5273Z" fill="#CFC6B8"/>
<path d="M40.3338 32.6035H39.5273V32.6057H40.3338V32.6035Z" fill="#CFC6B8"/>
<path d="M41.1423 32.6035H40.3359V32.6057H41.1423V32.6035Z" fill="#CFC6B8"/>
<path d="M41.947 32.6035H41.1406V32.6057H41.947V32.6035Z" fill="#CFC6B8"/>
<path d="M58.0811 32.6055H54.8555V35.8636H58.0811V32.6055Z" fill="white"/>
<path d="M55.6619 32.6035H54.8555V32.6057H55.6619V32.6035Z" fill="#CFC6B8"/>
<path d="M56.4705 32.6035H55.6641V32.6057H56.4705V32.6035Z" fill="#CFC6B8"/>
<path d="M57.2773 32.6035H56.4688V32.6057H57.2773V32.6035Z" fill="#CFC6B8"/>
<path d="M58.0838 32.6035H57.2773V32.6057H58.0838V32.6035Z" fill="#CFC6B8"/>
<path d="M58.8884 32.6035H58.082V33.4186H58.8884V32.6035Z" fill="#39314B"/>
<path d="M59.697 32.6035H58.8906V33.4186H59.697V32.6035Z" fill="#39314B"/>
<path d="M60.5056 32.6035H59.6992V33.4186H60.5056V32.6035Z" fill="#39314B"/>
<path d="M61.3103 32.6035H60.5039V33.4186H61.3103V32.6035Z" fill="#39314B"/>
<path d="M62.1189 32.6035H61.3125V33.4186H62.1189V32.6035Z" fill="#394778"/>
<path d="M62.9258 32.6035H62.1172V33.4186H62.9258V32.6035Z" fill="#394778"/>
<path d="M63.7322 32.6035H62.9258V33.4186H63.7322V32.6035Z" fill="#394778"/>
<path d="M64.5369 32.6035H63.7305V33.4186H64.5369V32.6035Z" fill="#394778"/>
<path d="M32.2717 33.418H32.2695V34.233H32.2717V33.418Z" fill="#CFC6B8"/>
<path d="M33.0781 33.418H32.2695V34.233H33.0781V33.418Z" fill="#394778"/>
<path d="M33.8828 33.418H33.0742V34.233H33.8828V33.418Z" fill="#394778"/>
<path d="M34.6849 33.418H33.8828V34.233H34.6849V33.418Z" fill="#394778"/>
<path d="M35.4943 33.418H34.6836V34.233H35.49L35.4943 33.418Z" fill="#394778"/>
<path d="M36.3025 33.418H35.4961V34.233H36.3025V33.418Z" fill="#39314B"/>
<path d="M37.1111 33.418H36.3047V34.233H37.1111V33.418Z" fill="#39314B"/>
<path d="M37.9158 33.418H37.1094V34.233H37.9158V33.418Z" fill="#39314B"/>
<path d="M38.7244 33.418H37.918V34.233H38.7244V33.418Z" fill="#39314B"/>
<path d="M38.7209 33.418H38.7188V34.233H38.7209V33.418Z" fill="#CFC6B8"/>
<path d="M58.8884 33.418H58.082V34.233H58.8884V33.418Z" fill="#39314B"/>
<path d="M59.697 33.418H58.8906V34.233H59.697V33.418Z" fill="#39314B"/>
<path d="M60.5056 33.418H59.6992V34.233H60.5056V33.418Z" fill="#39314B"/>
<path d="M61.3103 33.418H60.5039V34.233H61.3103V33.418Z" fill="#39314B"/>
<path d="M62.1189 33.418H61.3125V34.233H62.1189V33.418Z" fill="#394778"/>
<path d="M62.9258 33.418H62.1172V34.233H62.9258V33.418Z" fill="#394778"/>
<path d="M63.7322 33.418H62.9258V34.233H63.7322V33.418Z" fill="#394778"/>
<path d="M64.5369 33.418H63.7305V34.233H64.5369V33.418Z" fill="#394778"/>
<path d="M32.2717 34.2334H32.2695V35.0485H32.2717V34.2334Z" fill="#CFC6B8"/>
<path d="M33.0781 34.2334H32.2695V35.0485H33.0781V34.2334Z" fill="#394778"/>
<path d="M33.8828 34.2334H33.0742V35.0485H33.8828V34.2334Z" fill="#394778"/>
<path d="M34.6849 34.2334H33.8828V35.0485H34.6849V34.2334Z" fill="#394778"/>
<path d="M35.4943 34.2334H34.6836V35.0485H35.49L35.4943 34.2334Z" fill="#394778"/>
<path d="M36.3025 34.2334H35.4961V35.0485H36.3025V34.2334Z" fill="#39314B"/>
<path d="M37.1111 34.2334H36.3047V35.0485H37.1111V34.2334Z" fill="#39314B"/>
<path d="M37.9158 34.2334H37.1094V35.0485H37.9158V34.2334Z" fill="#39314B"/>
<path d="M38.7244 34.2334H37.918V35.0485H38.7244V34.2334Z" fill="#39314B"/>
<path d="M38.7209 34.2334H38.7188V35.0485H38.7209V34.2334Z" fill="#CFC6B8"/>
<path d="M58.8884 34.2334H58.082V35.0485H58.8884V34.2334Z" fill="#39314B"/>
<path d="M59.697 34.2334H58.8906V35.0485H59.697V34.2334Z" fill="#39314B"/>
<path d="M60.5056 34.2334H59.6992V35.0485H60.5056V34.2334Z" fill="#39314B"/>
<path d="M61.3103 34.2334H60.5039V35.0485H61.3103V34.2334Z" fill="#39314B"/>
<path d="M62.1189 34.2334H61.3125V35.0485H62.1189V34.2334Z" fill="#394778"/>
<path d="M62.9258 34.2334H62.1172V35.0485H62.9258V34.2334Z" fill="#394778"/>
<path d="M63.7322 34.2334H62.9258V35.0485H63.7322V34.2334Z" fill="#394778"/>
<path d="M64.5369 34.2334H63.7305V35.0485H64.5369V34.2334Z" fill="#394778"/>
<path d="M32.2717 35.0488H32.2695V35.8639H32.2717V35.0488Z" fill="#CFC6B8"/>
<path d="M33.0781 35.0488H32.2695V35.8639H33.0781V35.0488Z" fill="#394778"/>
<path d="M33.8828 35.0488H33.0742V35.8639H33.8828V35.0488Z" fill="#394778"/>
<path d="M34.6892 35.0488H33.8828V35.8639H34.6892V35.0488Z" fill="#394778"/>
<path d="M35.4978 35.0488H34.6914V35.8639H35.4978V35.0488Z" fill="#394778"/>
<path d="M36.3025 35.0488H35.4961V35.8639H36.3025V35.0488Z" fill="#39314B"/>
<path d="M37.1111 35.0488H36.3047V35.8639H37.1111V35.0488Z" fill="#39314B"/>
<path d="M37.9158 35.0488H37.1094V35.8639H37.9158V35.0488Z" fill="#39314B"/>
<path d="M38.7244 35.0488H37.918V35.8639H38.7244V35.0488Z" fill="#39314B"/>
<path d="M38.7209 35.0488H38.7188V35.8639H38.7209V35.0488Z" fill="#CFC6B8"/>
<path d="M58.8884 35.0488H58.082V35.8639H58.8884V35.0488Z" fill="#39314B"/>
<path d="M59.697 35.0488H58.8906V35.8639H59.697V35.0488Z" fill="#39314B"/>
<path d="M60.5056 35.0488H59.6992V35.8639H60.5056V35.0488Z" fill="#39314B"/>
<path d="M61.3103 35.0488H60.5039V35.8639H61.3103V35.0488Z" fill="#39314B"/>
<path d="M62.1189 35.0488H61.3125V35.8639H62.1189V35.0488Z" fill="#394778"/>
<path d="M62.9258 35.0488H62.1172V35.8639H62.9258V35.0488Z" fill="#394778"/>
<path d="M63.7283 35.0488H62.9219V35.8639H63.7283V35.0488Z" fill="#394778"/>
<path d="M64.5369 35.0488H63.7305V35.8639H64.5369V35.0488Z" fill="#394778"/>
<path d="M29.0412 35.8633H29.0391V36.6784H29.0412V35.8633Z" fill="#181425"/>
<path d="M29.0412 35.8633H29.0391V36.6784H29.0412V35.8633Z" fill="#CFC6B8"/>
<path d="M36.3025 35.8633H35.4961V36.6784H36.3025V35.8633Z" fill="#39314B"/>
<path d="M37.1111 35.8633H36.3047V36.6784H37.1111V35.8633Z" fill="#39314B"/>
<path d="M37.9158 35.8633H37.1094V36.6784H37.9158V35.8633Z" fill="#39314B"/>
<path d="M38.7244 35.8633H37.918V36.6784H38.7244V35.8633Z" fill="#39314B"/>
<path d="M41.9483 37.4961H38.7227V39.1241H41.9483V37.4961Z" fill="#181425"/>
<path d="M41.9483 35.8633H38.7227V37.4934H41.9483V35.8633Z" fill="#181425"/>
<path d="M45.1749 37.4961H41.9492V39.1241H45.1749V37.4961Z" fill="#181425"/>
<path d="M45.1749 35.8633H41.9492V37.4934H45.1749V35.8633Z" fill="#181425"/>
<path d="M38.7209 35.8633H38.7188V36.6784H38.7209V35.8633Z" fill="#181425"/>
<path d="M51.6311 35.8633H51.6289V36.6784H51.6311V35.8633Z" fill="#4D8B5C"/>
<path d="M51.6311 35.8633H51.6289V36.6784H51.6311V35.8633Z" fill="#181425"/>
<path d="M58.8884 35.8633H58.082V36.6784H58.8884V35.8633Z" fill="#39314B"/>
<path d="M59.697 35.8633H58.8906V36.6784H59.697V35.8633Z" fill="#39314B"/>
<path d="M60.5056 35.8633H59.6992V36.6784H60.5056V35.8633Z" fill="#39314B"/>
<path d="M61.3103 35.8633H60.5039V36.6784H61.3103V35.8633Z" fill="#39314B"/>
<path d="M29.0412 36.6787H29.0391V37.4938H29.0412V36.6787Z" fill="#181425"/>
<path d="M29.0412 36.6787H29.0391V37.4938H29.0412V36.6787Z" fill="#CFC6B8"/>
<path d="M36.3025 36.6787H35.4961V37.4938H36.3025V36.6787Z" fill="#39314B"/>
<path d="M37.1111 36.6787H36.3047V37.5025H37.1111V36.6787Z" fill="#39314B"/>
<path d="M37.9158 36.6787H37.1094V37.5025H37.9158V36.6787Z" fill="#39314B"/>
<path d="M38.7244 36.6787H37.918V37.4938H38.7244V36.6787Z" fill="#39314B"/>
<path d="M38.7209 36.6787H38.7188V37.4938H38.7209V36.6787Z" fill="#181425"/>
<path d="M51.6311 36.6787H51.6289V37.4938H51.6311V36.6787Z" fill="#4D8B5C"/>
<path d="M51.6311 36.6787H51.6289V37.4938H51.6311V36.6787Z" fill="#181425"/>
<path d="M58.8884 36.6787H58.082V37.4938H58.8884V36.6787Z" fill="#39314B"/>
<path d="M59.697 36.6787H58.8906V37.5025H59.697V36.6787Z" fill="#39314B"/>
<path d="M60.5056 36.6787H59.6992V37.5025H60.5056V36.6787Z" fill="#39314B"/>
<path d="M61.3103 36.6787H60.5039V37.4938H61.3103V36.6787Z" fill="#39314B"/>
<path d="M29.0412 37.4961H29.0391V38.3112H29.0412V37.4961Z" fill="#181425"/>
<path d="M29.0412 37.4961H29.0391V38.3112H29.0412V37.4961Z" fill="#CFC6B8"/>
<path d="M36.3025 37.4961H35.4961V38.3112H36.3025V37.4961Z" fill="#39314B"/>
<path d="M37.1111 37.5029H36.3047V38.318H37.1111V37.5029Z" fill="#39314B"/>
<path d="M37.9158 37.5029H37.1094V38.318H37.9158V37.5029Z" fill="#39314B"/>
<path d="M38.7244 37.4961H37.918V38.3112H38.7244V37.4961Z" fill="#39314B"/>
<path d="M38.7209 37.4961H38.7188V38.3112H38.7209V37.4961Z" fill="#181425"/>
<path d="M51.6311 37.4961H51.6289V38.3112H51.6311V37.4961Z" fill="#4D8B5C"/>
<path d="M51.6311 37.4961H51.6289V38.3112H51.6311V37.4961Z" fill="#181425"/>
<path d="M58.8884 37.4961H58.082V38.3112H58.8884V37.4961Z" fill="#39314B"/>
<path d="M59.697 37.5029H58.8906V38.318H59.697V37.5029Z" fill="#39314B"/>
<path d="M60.5056 37.5029H59.6992V38.318H60.5056V37.5029Z" fill="#39314B"/>
<path d="M61.3103 37.4961H60.5039V38.3112H61.3103V37.4961Z" fill="#39314B"/>
<path d="M1.61282 26.082H0V30.9725H1.61282V26.082Z" fill="#181425"/>
<path d="M1.61282 30.9756H0V37.4941H1.61282V30.9756Z" fill="#181425"/>
<path d="M1.61282 37.4961H0V39.1263H1.61282V37.4961Z" fill="#181425"/>
<path d="M3.2261 37.4961H1.61328V39.1263H3.2261V37.4961Z" fill="#181425"/>
<path d="M3.2261 30.9756H1.61328V37.4941H3.2261V30.9756Z" fill="#181425"/>
<path d="M3.2261 26.082H1.61328V30.9725H3.2261V26.082Z" fill="#181425"/>
<path d="M4.03297 39.124H3.22656V39.1262H4.03297V39.124Z" fill="#A0938E"/>
<path d="M4.83766 39.124H4.03125V39.1262H4.83766V39.124Z" fill="#A0938E"/>
<path d="M5.64625 39.124H4.83984V39.1262H5.64625V39.124Z" fill="#A0938E"/>
<path d="M6.45094 39.124H5.64453V39.1262H6.45094V39.124Z" fill="#A0938E"/>
<path d="M7.25954 39.124H6.45312V39.1262H7.25954V39.124Z" fill="#A0938E"/>
<path d="M8.06813 39.124H7.26172V39.1262H8.06813V39.124Z" fill="#A0938E"/>
<path d="M8.87499 39.124H8.06641V39.1262H8.87499V39.124Z" fill="#A0938E"/>
<path d="M9.67751 39.124H8.87109V39.1262H9.67751V39.124Z" fill="#A0938E"/>
<path d="M13.7127 39.124H12.9062V39.1262H13.7127V39.124Z" fill="#CFC6B8"/>
<path d="M14.5213 39.124H13.7148V39.1262H14.5213V39.124Z" fill="#CFC6B8"/>
<path d="M15.3281 39.124H14.5195V39.1262H15.3281V39.124Z" fill="#CFC6B8"/>
<path d="M16.1306 39.124H15.3242V39.1262H16.1306V39.124Z" fill="#CFC6B8"/>
<path d="M16.9392 39.124H16.1328V39.1262H16.9392V39.124Z" fill="#181425"/>
<path d="M17.7478 39.124H16.9414V39.1262H17.7478V39.124Z" fill="#181425"/>
<path d="M18.5525 39.124H17.7461V39.1262H18.5525V39.124Z" fill="#181425"/>
<path d="M19.3611 39.124H18.5547V39.1262H19.3611V39.124Z" fill="#181425"/>
<path d="M20.1658 39.124H19.3594V39.1262H20.1658V39.124Z" fill="#265C42"/>
<path d="M20.9744 39.124H20.168V39.1262H20.9744V39.124Z" fill="#265C42"/>
<path d="M21.7791 39.124H20.9727V39.1262H21.7791V39.124Z" fill="#265C42"/>
<path d="M22.5877 39.124H21.7812V39.1262H22.5877V39.124Z" fill="#265C42"/>
<path d="M23.3984 39.124H22.5898V39.1262H23.3984V39.124Z" fill="#181425"/>
<path d="M24.2009 39.124H23.3945V39.1262H24.2009V39.124Z" fill="#181425"/>
<path d="M25.0056 39.124H24.1992V39.1262H25.0056V39.124Z" fill="#181425"/>
<path d="M25.8181 39.124H25.0117V39.1262H25.8181V39.124Z" fill="#181425"/>
<path d="M26.6228 39.124H25.8164V39.1262H26.6228V39.124Z" fill="#181425"/>
<path d="M27.4314 39.124H26.625V39.1262H27.4314V39.124Z" fill="#181425"/>
<path d="M28.2361 39.124H27.4297V39.1262H28.2361V39.124Z" fill="#181425"/>
<path d="M29.043 38.3115V39.1266H28.2344V39.1244H29.0408V38.3115H29.043Z" fill="#181425"/>
<path d="M29.8455 39.1244V39.1266H29.0391V38.3115H29.0412V39.1244H29.8455Z" fill="#CFC6B8"/>
<path d="M30.6541 39.124H29.8477V39.1262H30.6541V39.124Z" fill="#CFC6B8"/>
<path d="M31.4627 39.124H30.6562V39.1262H31.4627V39.124Z" fill="#CFC6B8"/>
<path d="M32.2673 39.124H31.4609V39.1262H32.2673V39.124Z" fill="#CFC6B8"/>
<path d="M33.0781 39.124H32.2695V39.1262H33.0781V39.124Z" fill="#CFC6B8"/>
<path d="M33.8828 39.124H33.0742V39.1262H33.8828V39.124Z" fill="#CFC6B8"/>
<path d="M34.6892 39.124H33.8828V39.1262H34.6892V39.124Z" fill="#CFC6B8"/>
<path d="M35.4978 39.124H34.6914V39.1262H35.4978V39.124Z" fill="#CFC6B8"/>
<path d="M36.3025 38.3115H35.4961V39.1266H36.3025V38.3115Z" fill="#39314B"/>
<path d="M37.1111 38.3115H36.3047V39.1266H37.1111V38.3115Z" fill="#39314B"/>
<path d="M37.9158 38.3115H37.1094V39.1266H37.9158V38.3115Z" fill="#39314B"/>
<path d="M38.7244 38.3115H37.918V39.1266H38.7244V38.3115Z" fill="#39314B"/>
<path d="M39.5273 39.1244V39.1266H38.7188V38.3115H38.7209V39.1244H39.5273Z" fill="#181425"/>
<path d="M40.3338 39.124H39.5273V39.1262H40.3338V39.124Z" fill="#181425"/>
<path d="M41.1423 39.124H40.3359V39.1262H41.1423V39.124Z" fill="#181425"/>
<path d="M41.947 39.124H41.1406V39.1262H41.947V39.124Z" fill="#181425"/>
<path d="M42.7556 39.124H41.9492V39.1262H42.7556V39.124Z" fill="#181425"/>
<path d="M43.5642 39.124H42.7578V39.1262H43.5642V39.124Z" fill="#181425"/>
<path d="M44.3689 39.124H43.5625V39.1262H44.3689V39.124Z" fill="#181425"/>
<path d="M45.1775 39.124H44.3711V39.1262H45.1775V39.124Z" fill="#181425"/>
<path d="M51.6311 38.3115H51.6289V39.1266H51.6311V38.3115Z" fill="#4D8B5C"/>
<path d="M52.4353 39.1244V39.1266H51.6289V38.3115H51.6311V39.1244H52.4353Z" fill="#181425"/>
<path d="M53.2439 39.124H52.4375V39.1262H53.2439V39.124Z" fill="#181425"/>
<path d="M54.0508 39.124H53.2422V39.1262H54.0508V39.124Z" fill="#181425"/>
<path d="M54.8572 39.124H54.0508V39.1262H54.8572V39.124Z" fill="#181425"/>
<path d="M61.312 39.126H59.6992V45.6445H61.312V39.126Z" fill="#181425"/>
<path d="M61.312 45.6465H59.6992V48.9046H61.312V45.6465Z" fill="#181425"/>
<path d="M59.6949 39.126H58.082V45.6445H59.6949V39.126Z" fill="#181425"/>
<path d="M59.6949 45.6465H58.082V48.9046H59.6949V45.6465Z" fill="#181425"/>
<path d="M58.8884 38.3115H58.082V39.1266H58.8884V38.3115Z" fill="#39314B"/>
<path d="M59.697 38.3115H58.8906V39.1266H59.697V38.3115Z" fill="#39314B"/>
<path d="M60.5056 38.3115H59.6992V39.1266H60.5056V38.3115Z" fill="#39314B"/>
<path d="M61.3103 38.3115H60.5039V39.1266H61.3103V38.3115Z" fill="#39314B"/>
<path d="M65.3416 39.124H64.5352V39.1262H65.3416V39.124Z" fill="#181425"/>
<path d="M66.1502 39.124H65.3438V39.1262H66.1502V39.124Z" fill="#181425"/>
<path d="M66.9548 39.124H66.1484V39.1262H66.9548V39.124Z" fill="#181425"/>
<path d="M67.7634 39.124H66.957V39.1262H67.7634V39.124Z" fill="#181425"/>
<path d="M68.572 39.124H67.7656V39.1262H68.572V39.124Z" fill="#CFC6B8"/>
<path d="M69.3789 39.124H68.5703V39.1262H69.3789V39.124Z" fill="#CFC6B8"/>
<path d="M70.1853 39.124H69.3789V39.1262H70.1853V39.124Z" fill="#CFC6B8"/>
<path d="M70.99 39.124H70.1836V39.1262H70.99V39.124Z" fill="#CFC6B8"/>
<path d="M4.03297 39.124H3.22656V39.1262H4.03297V39.124Z" fill="#181425"/>
<path d="M4.83766 39.124H4.03125V39.1262H4.83766V39.124Z" fill="#181425"/>
<path d="M5.64625 39.124H4.83984V39.1262H5.64625V39.124Z" fill="#181425"/>
<path d="M6.45094 39.124H5.64453V39.1262H6.45094V39.124Z" fill="#181425"/>
<path d="M7.25954 39.124H6.45312V39.1262H7.25954V39.124Z" fill="#181425"/>
<path d="M8.06813 39.124H7.26172V39.1262H8.06813V39.124Z" fill="#181425"/>
<path d="M8.87499 39.124H8.06641V39.1262H8.87499V39.124Z" fill="#181425"/>
<path d="M9.67751 39.124H8.87109V39.1262H9.67751V39.124Z" fill="#181425"/>
<path d="M16.1319 39.126H13.7148V45.6445H16.1319V39.126Z" fill="#181425"/>
<path d="M13.7127 39.126H12.9062V45.6445H13.7127V39.126Z" fill="#181425"/>
<path d="M13.7127 39.124H12.9062V39.1262H13.7127V39.124Z" fill="#181425"/>
<path d="M14.5213 39.124H13.7148V39.1262H14.5213V39.124Z" fill="#181425"/>
<path d="M15.3281 39.124H14.5195V39.1262H15.3281V39.124Z" fill="#181425"/>
<path d="M16.1306 39.124H15.3242V39.1262H16.1306V39.124Z" fill="#181425"/>
<path d="M16.9392 39.124H16.1328V39.9391H16.9392V39.124Z" fill="#3E8948"/>
<path d="M17.7478 39.124H16.9414V39.9391H17.7478V39.124Z" fill="#3E8948"/>
<path d="M18.5525 39.124H17.7461V39.9391H18.5525V39.124Z" fill="#3E8948"/>
<path d="M19.3611 39.124H18.5547V39.9391H19.3611V39.124Z" fill="#3E8948"/>
<path d="M22.5877 39.126H21.7812V45.6445H22.5877V39.126Z" fill="#181425"/>
<path d="M21.7764 39.126H19.3594V45.6445H21.7764V39.126Z" fill="#181425"/>
<path d="M20.1658 39.124H19.3594V39.1262H20.1658V39.124Z" fill="#181425"/>
<path d="M20.9744 39.124H20.168V39.1262H20.9744V39.124Z" fill="#181425"/>
<path d="M21.7791 39.124H20.9727V39.1262H21.7791V39.124Z" fill="#181425"/>
<path d="M22.5877 39.124H21.7812V39.1262H22.5877V39.124Z" fill="#181425"/>
<path d="M25.0091 39.126H22.5898V45.6445H25.0091V39.126Z" fill="#2B7F3D"/>
<path d="M29.0438 42.3841V45.6445H25.0117V39.126H25.8181V42.3841H29.0438Z" fill="#2B7F3D"/>
<path d="M29.0421 45.6465H25.8164V48.9046H29.0421V45.6465Z" fill="#2B7F3D"/>
<path d="M23.3984 39.124H22.5898V39.1262H23.3984V39.124Z" fill="#265C42"/>
<path d="M24.2009 39.124H23.3945V39.1262H24.2009V39.124Z" fill="#265C42"/>
<path d="M25.0056 39.124H24.1992V39.1262H25.0056V39.124Z" fill="#265C42"/>
<path d="M25.8181 39.124H25.0117V39.1262H25.8181V39.124Z" fill="#265C42"/>
<path d="M30.6549 39.126V45.6445H29.0442V42.3841H25.8164V39.126H30.6549Z" fill="#181425"/>
<path d="M36.3011 39.126H30.6562V45.6445H36.3011V39.126Z" fill="#181425"/>
<path d="M41.9496 39.126V42.3841H38.7218V45.6445H36.3047V39.126H41.9496Z" fill="#181425"/>
<path d="M26.6228 39.124H25.8164V39.1262H26.6228V39.124Z" fill="#181425"/>
<path d="M27.4314 39.124H26.625V39.1262H27.4314V39.124Z" fill="#181425"/>
<path d="M28.2361 39.124H27.4297V39.1262H28.2361V39.124Z" fill="#181425"/>
<path d="M29.043 39.124H28.2344V39.1262H29.043V39.124Z" fill="#181425"/>
<path d="M29.8455 39.124H29.0391V39.1262H29.8455V39.124Z" fill="#181425"/>
<path d="M30.6541 39.124H29.8477V39.1262H30.6541V39.124Z" fill="#181425"/>
<path d="M31.4627 39.124H30.6562V39.1262H31.4627V39.124Z" fill="#181425"/>
<path d="M32.2673 39.124H31.4609V39.1262H32.2673V39.124Z" fill="#181425"/>
<path d="M33.0781 39.124H32.2695V39.1262H33.0781V39.124Z" fill="#181425"/>
<path d="M33.8828 39.124H33.0742V39.1262H33.8828V39.124Z" fill="#181425"/>
<path d="M34.6892 39.124H33.8828V39.1262H34.6892V39.124Z" fill="#181425"/>
<path d="M35.4978 39.124H34.6914V39.1262H35.4978V39.124Z" fill="#181425"/>
<path d="M36.3025 39.124H35.4961V39.1262H36.3025V39.124Z" fill="#181425"/>
<path d="M37.1111 39.124H36.3047V39.1262H37.1111V39.124Z" fill="#181425"/>
<path d="M37.9158 39.124H37.1094V39.1262H37.9158V39.124Z" fill="#181425"/>
<path d="M38.7244 39.124H37.918V39.1262H38.7244V39.124Z" fill="#181425"/>
<path d="M39.5273 39.124H38.7188V39.1262H39.5273V39.124Z" fill="#181425"/>
<path d="M40.3338 39.124H39.5273V39.1262H40.3338V39.124Z" fill="#181425"/>
<path d="M41.1423 39.124H40.3359V39.1262H41.1423V39.124Z" fill="#181425"/>
<path d="M41.947 39.124H41.1406V39.1262H41.947V39.124Z" fill="#181425"/>
<path d="M51.6292 35.8633H45.1758V37.4934H51.6292V35.8633Z" fill="#41AA57"/>
<path d="M41.9483 42.3838H38.7227V45.6441H41.9483V42.3838Z" fill="#41AA57"/>
<path d="M42.7556 39.124H41.9492V39.1262H42.7556V39.124Z" fill="#4D8B5C"/>
<path d="M43.5642 39.124H42.7578V39.1262H43.5642V39.124Z" fill="#4D8B5C"/>
<path d="M44.3689 39.124H43.5625V39.1262H44.3689V39.124Z" fill="#4D8B5C"/>
<path d="M45.1775 39.124H44.3711V39.1262H45.1775V39.124Z" fill="#4D8B5C"/>
<path d="M51.6315 39.124H51.6289V39.1267H51.6315V39.124Z" fill="#4D8B5C"/>
<path d="M52.4353 39.124H51.6289V39.1262H52.4353V39.124Z" fill="#4D8B5C"/>
<path d="M53.2439 39.124H52.4375V39.1262H53.2439V39.124Z" fill="#4D8B5C"/>
<path d="M54.0508 39.124H53.2422V39.1262H54.0508V39.124Z" fill="#4D8B5C"/>
<path d="M54.8572 39.124H54.0508V39.1262H54.8572V39.124Z" fill="#4D8B5C"/>
<path d="M58.8884 39.124H58.082V39.1262H58.8884V39.124Z" fill="#181425"/>
<path d="M59.697 39.124H58.8906V39.1262H59.697V39.124Z" fill="#181425"/>
<path d="M60.5056 39.124H59.6992V39.1262H60.5056V39.124Z" fill="#181425"/>
<path d="M61.3103 39.124H60.5039V39.1262H61.3103V39.124Z" fill="#181425"/>
<path d="M65.3416 39.124H64.5352V39.1262H65.3416V39.124Z" fill="#3E8948"/>
<path d="M66.1502 39.124H65.3438V39.1262H66.1502V39.124Z" fill="#3E8948"/>
<path d="M66.9548 39.124H66.1484V39.1262H66.9548V39.124Z" fill="#3E8948"/>
<path d="M67.7634 39.124H66.957V39.1262H67.7634V39.124Z" fill="#3E8948"/>
<path d="M70.9891 39.126H67.7656V45.6445H70.9891V39.126Z" fill="#181425"/>
<path d="M68.572 39.124H67.7656V39.1262H68.572V39.124Z" fill="#181425"/>
<path d="M69.3789 39.124H68.5703V39.1262H69.3789V39.124Z" fill="#181425"/>
<path d="M70.1853 39.124H69.3789V39.1262H70.1853V39.124Z" fill="#181425"/>
<path d="M70.99 39.124H70.1836V39.1262H70.99V39.124Z" fill="#181425"/>
<path d="M16.9392 39.9395H16.1328V40.7545H16.9392V39.9395Z" fill="#3E8948"/>
<path d="M17.7478 39.9395H16.9414V40.7545H17.7478V39.9395Z" fill="#3E8948"/>
<path d="M18.5525 39.9395H17.7461V40.7545H18.5525V39.9395Z" fill="#3E8948"/>
<path d="M19.3611 39.9395H18.5547V40.7545H19.3611V39.9395Z" fill="#3E8948"/>
<path d="M16.9392 40.7539H16.1328V41.569H16.9392V40.7539Z" fill="#3E8948"/>
<path d="M17.7478 40.7539H16.9414V41.569H17.7478V40.7539Z" fill="#3E8948"/>
<path d="M18.5525 40.7539H17.7461V41.569H18.5525V40.7539Z" fill="#3E8948"/>
<path d="M19.3611 40.7539H18.5547V41.569H19.3611V40.7539Z" fill="#3E8948"/>
<path d="M16.9392 41.5693H16.1328V42.3844H16.9392V41.5693Z" fill="#3E8948"/>
<path d="M17.7478 41.5693H16.9414V42.3844H17.7478V41.5693Z" fill="#3E8948"/>
<path d="M18.5525 41.5693H17.7461V42.3844H18.5525V41.5693Z" fill="#3E8948"/>
<path d="M19.3611 41.5693H18.5547V42.3844H19.3611V41.5693Z" fill="#3E8948"/>
<path d="M7.25954 42.3838H6.45312V43.1989H7.25954V42.3838Z" fill="#262B44"/>
<path d="M8.06813 42.3838H7.26172V43.1989H8.06813V42.3838Z" fill="#262B44"/>
<path d="M8.87499 42.3838H8.06641V43.1989H8.87499V42.3838Z" fill="#262B44"/>
<path d="M9.67751 42.3838H8.87109V43.1989H9.67751V42.3838Z" fill="#262B44"/>
<path d="M16.9392 42.3838H16.1328V43.1989H16.9392V42.3838Z" fill="#3E8948"/>
<path d="M17.7478 42.3838H16.9414V43.1989H17.7478V42.3838Z" fill="#3E8948"/>
<path d="M18.5525 42.3838H17.7461V43.1989H18.5525V42.3838Z" fill="#3E8948"/>
<path d="M19.3611 42.3838H18.5547V43.1989H19.3611V42.3838Z" fill="#3E8948"/>
<path d="M29.0412 42.3838H29.0391V43.1989H29.0412V42.3838Z" fill="#265C42"/>
<path d="M29.0412 42.3838H29.0391V43.1989H29.0412V42.3838Z" fill="#181425"/>
<path d="M38.7209 42.3838H38.7188V43.1989H38.7209V42.3838Z" fill="#181425"/>
<path d="M38.7209 42.3838H38.7188V43.1989H38.7209V42.3838Z" fill="#4D8B5C"/>
<path d="M51.6311 42.3838H51.6289V43.1989H51.6311V42.3838Z" fill="#4D8B5C"/>
<path d="M54.8585 42.3838H51.6328V45.6441H54.8585V42.3838Z" fill="#181425"/>
<path d="M51.6311 42.3838H51.6289V43.1989H51.6311V42.3838Z" fill="#181425"/>
<path d="M7.25954 43.1992H6.45312V44.0143H7.25954V43.1992Z" fill="#262B44"/>
<path d="M8.06813 43.1992H7.26172V44.0056H8.06813V43.1992Z" fill="#262B44"/>
<path d="M8.87499 43.1992H8.06641V44.0056H8.87499V43.1992Z" fill="#262B44"/>
<path d="M9.67751 43.1992H8.87109V44.0056H9.67751V43.1992Z" fill="#262B44"/>
<path d="M16.9392 43.1992H16.1328V44.0056H16.9392V43.1992Z" fill="#3E8948"/>
<path d="M17.7478 43.1992H16.9414V44.0056H17.7478V43.1992Z" fill="#3E8948"/>
<path d="M18.5525 43.1992H17.7461V44.0056H18.5525V43.1992Z" fill="#3E8948"/>
<path d="M19.3611 43.1992H18.5547V44.0056H19.3611V43.1992Z" fill="#3E8948"/>
<path d="M29.0412 43.1992H29.0391V44.0143H29.0412V43.1992Z" fill="#265C42"/>
<path d="M29.0412 43.1992H29.0391V44.0143H29.0412V43.1992Z" fill="#181425"/>
<path d="M38.7209 43.1992H38.7188V44.0143H38.7209V43.1992Z" fill="#181425"/>
<path d="M38.7209 43.1992H38.7188V44.0143H38.7209V43.1992Z" fill="#4D8B5C"/>
<path d="M51.6311 43.1992H51.6289V44.0143H51.6311V43.1992Z" fill="#4D8B5C"/>
<path d="M51.6311 43.1992H51.6289V44.0143H51.6311V43.1992Z" fill="#181425"/>
<path d="M7.25954 44.0146H6.45312V44.8297H7.25954V44.0146Z" fill="#262B44"/>
<path d="M8.06813 44.0059H7.26172V44.8209H8.06813V44.0059Z" fill="#262B44"/>
<path d="M8.87499 44.0059H8.06641V44.8209H8.87499V44.0059Z" fill="#262B44"/>
<path d="M9.67751 44.0059H8.87109V44.8209H9.67751V44.0059Z" fill="#262B44"/>
<path d="M16.9392 44.0059H16.1328V44.8209H16.9392V44.0059Z" fill="#3E8948"/>
<path d="M17.7478 44.0059H16.9414V44.8209H17.7478V44.0059Z" fill="#3E8948"/>
<path d="M18.5525 44.0059H17.7461V44.8209H18.5525V44.0059Z" fill="#3E8948"/>
<path d="M19.3611 44.0059H18.5547V44.8209H19.3611V44.0059Z" fill="#3E8948"/>
<path d="M29.0412 44.0146H29.0391V44.8297H29.0412V44.0146Z" fill="#265C42"/>
<path d="M29.0412 44.0146H29.0391V44.8297H29.0412V44.0146Z" fill="#181425"/>
<path d="M38.7209 44.0146H38.7188V44.8297H38.7209V44.0146Z" fill="#181425"/>
<path d="M38.7209 44.0146H38.7188V44.8297H38.7209V44.0146Z" fill="#4D8B5C"/>
<path d="M51.6311 44.0146H51.6289V44.8297H51.6311V44.0146Z" fill="#4D8B5C"/>
<path d="M51.6311 44.0146H51.6289V44.8297H51.6311V44.0146Z" fill="#181425"/>
<path d="M7.25954 44.8301H6.45312V45.6452H7.25954V44.8301Z" fill="#262B44"/>
<path d="M8.06813 44.8301H7.26172V45.6452H8.06813V44.8301Z" fill="#262B44"/>
<path d="M8.87499 44.8301H8.06641V45.6452H8.87499V44.8301Z" fill="#262B44"/>
<path d="M9.67751 44.8301H8.87109V45.6452H9.67751V44.8301Z" fill="#262B44"/>
<path d="M16.9392 44.8301H16.1328V45.6452H16.9392V44.8301Z" fill="#3E8948"/>
<path d="M17.7478 44.8301H16.9414V45.6452H17.7478V44.8301Z" fill="#3E8948"/>
<path d="M18.5525 44.8301H17.7461V45.6452H18.5525V44.8301Z" fill="#3E8948"/>
<path d="M19.3611 44.8301H18.5547V45.6452H19.3611V44.8301Z" fill="#3E8948"/>
<path d="M29.0412 44.8301H29.0391V45.6452H29.0412V44.8301Z" fill="#265C42"/>
<path d="M29.0412 44.8301H29.0391V45.6452H29.0412V44.8301Z" fill="#181425"/>
<path d="M38.7209 44.8301H38.7188V45.6452H38.7209V44.8301Z" fill="#181425"/>
<path d="M38.7209 44.8301H38.7188V45.6452H38.7209V44.8301Z" fill="#4D8B5C"/>
<path d="M51.6311 44.8301H51.6289V45.6452H51.6311V44.8301Z" fill="#4D8B5C"/>
<path d="M51.6311 44.8301H51.6289V45.6452H51.6311V44.8301Z" fill="#181425"/>
<path d="M1.61282 51.3525H0V52.1676H1.61282V51.3525Z" fill="#181425"/>
<path d="M1.61282 45.6465H0V51.3499H1.61282V45.6465Z" fill="#181425"/>
<path d="M3.2261 51.3525H1.61328V52.1676H3.2261V51.3525Z" fill="#181425"/>
<path d="M3.2261 45.6465H1.61328V51.3499H3.2261V45.6465Z" fill="#181425"/>
<path d="M4.03297 45.6465H3.22656V46.4616H4.03297V45.6465Z" fill="#262B44"/>
<path d="M4.83766 45.6465H4.03125V46.4616H4.83766V45.6465Z" fill="#262B44"/>
<path d="M5.64625 45.6465H4.83984V46.4616H5.64625V45.6465Z" fill="#262B44"/>
<path d="M6.45094 45.6465H5.64453V46.4616H6.45094V45.6465Z" fill="#262B44"/>
<path d="M7.25954 45.6465H6.45312V46.4616H7.25954V45.6465Z" fill="#262B44"/>
<path d="M8.06813 45.6465H7.26172V46.4616H8.06813V45.6465Z" fill="#262B44"/>
<path d="M8.87499 45.6465H8.06641V46.4616H8.87499V45.6465Z" fill="#262B44"/>
<path d="M9.67751 45.6465H8.87109V46.4616H9.67751V45.6465Z" fill="#262B44"/>
<path d="M16.1319 45.6465H13.7148V48.9046H16.1319V45.6465Z" fill="#2B7F3D"/>
<path d="M13.7127 45.6465H12.9062V48.9046H13.7127V45.6465Z" fill="#2B7F3D"/>
<path d="M9.67878 51.3525H7.26172V52.1676H9.67878V51.3525Z" fill="#181425"/>
<path d="M9.67878 48.9053H7.26172V51.3505H9.67878V48.9053Z" fill="#181425"/>
<path d="M7.25954 51.3525H6.45312V52.1676H7.25954V51.3525Z" fill="#181425"/>
<path d="M7.25954 48.9053H6.45312V51.3505H7.25954V48.9053Z" fill="#181425"/>
<path d="M16.1319 51.3525H13.7148V52.1676H16.1319V51.3525Z" fill="#181425"/>
<path d="M16.1319 48.9053H13.7148V51.3505H16.1319V48.9053Z" fill="#181425"/>
<path d="M13.7156 51.3525H9.68359V52.1676H13.7156V51.3525Z" fill="#181425"/>
<path d="M13.7156 48.9053H9.68359V51.3505H13.7156V48.9053Z" fill="#181425"/>
<path d="M19.3585 51.3525H16.1328V57.871H19.3585V51.3525Z" fill="#181425"/>
<path d="M25.0069 45.6465H21.7812V48.9046H25.0069V45.6465Z" fill="#181425"/>
<path d="M25.8181 45.6465H25.0117V48.9046H25.8181V45.6465Z" fill="#181425"/>
<path d="M19.3585 45.6465H16.1328V51.3499H19.3585V45.6465Z" fill="#181425"/>
<path d="M21.7764 45.6465H19.3594V48.9046H21.7764V45.6465Z" fill="#181425"/>
<path d="M29.0412 45.6465H29.0391V46.4616H29.0412V45.6465Z" fill="#265C42"/>
<path d="M29.0412 45.6465H29.0391V46.4616H29.0412V45.6465Z" fill="#4D8B5C"/>
<path d="M51.6283 45.6465H41.9492V48.9046H51.6283V45.6465Z" fill="#181425"/>
<path d="M51.6311 45.6465H51.6289V46.4616H51.6311V45.6465Z" fill="#181425"/>
<path d="M51.6311 45.6465H51.6289V46.4616H51.6311V45.6465Z" fill="#4D8B5C"/>
<path d="M64.5381 45.6465H65.3446V51.3499H61.3125V48.9046H64.5381V45.6465Z" fill="#181425"/>
<path d="M65.3446 51.3525V52.1676H64.5381V55.4258H61.3125V51.3525H65.3446Z" fill="#181425"/>
<path d="M67.763 51.3525H65.3438V52.1676H67.763V51.3525Z" fill="#181425"/>
<path d="M67.763 45.6465H65.3438V51.3499H67.763V45.6465Z" fill="#181425"/>
<path d="M70.9891 51.3525H67.7656V52.1676H70.9891V51.3525Z" fill="#272A44"/>
<path d="M70.9891 45.6465H67.7656V51.3499H70.9891V45.6465Z" fill="#272A44"/>
<path d="M79.8663 48.9053H76.6406V51.3505H79.8663V48.9053Z" fill="#181425"/>
<path d="M76.6397 48.9053H74.2227V51.3505H76.6397V48.9053Z" fill="#181425"/>
<path d="M74.2178 45.6465H70.9922V51.3499H74.2178V45.6465Z" fill="#181425"/>
<path d="M74.2178 51.3525H70.9922V52.1676H74.2178V51.3525Z" fill="#181425"/>
<path d="M4.03297 46.46H3.22656V47.275H4.03297V46.46Z" fill="#262B44"/>
<path d="M4.83766 46.46H4.03125V47.275H4.83766V46.46Z" fill="#262B44"/>
<path d="M5.64625 46.46H4.83984V47.275H5.64625V46.46Z" fill="#262B44"/>
<path d="M6.45094 46.46H5.64453V47.275H6.45094V46.46Z" fill="#262B44"/>
<path d="M7.25954 46.46H6.45312V47.275H7.25954V46.46Z" fill="#262B44"/>
<path d="M8.06813 46.46H7.26172V47.275H8.06813V46.46Z" fill="#262B44"/>
<path d="M8.87499 46.46H8.06641V47.275H8.87499V46.46Z" fill="#262B44"/>
<path d="M9.67751 46.46H8.87109V47.275H9.67751V46.46Z" fill="#262B44"/>
<path d="M29.0412 46.46H29.0391V47.275H29.0412V46.46Z" fill="#265C42"/>
<path d="M29.0412 46.46H29.0391V47.275H29.0412V46.46Z" fill="#4D8B5C"/>
<path d="M51.6311 46.46H51.6289V47.275H51.6311V46.46Z" fill="#181425"/>
<path d="M51.6311 46.46H51.6289V47.275H51.6311V46.46Z" fill="#4D8B5C"/>
<path d="M4.03297 47.2754H3.22656V48.0905H4.03297V47.2754Z" fill="#262B44"/>
<path d="M4.83766 47.2754H4.03125V48.0905H4.83766V47.2754Z" fill="#262B44"/>
<path d="M5.64625 47.2754H4.83984V48.0905H5.64625V47.2754Z" fill="#262B44"/>
<path d="M6.45094 47.2754H5.64453V48.0905H6.45094V47.2754Z" fill="#262B44"/>
<path d="M7.25954 47.2754H6.45312V48.0905H7.25954V47.2754Z" fill="#262B44"/>
<path d="M8.06813 47.2754H7.26172V48.0905H8.06813V47.2754Z" fill="#262B44"/>
<path d="M8.87499 47.2754H8.06641V48.0905H8.87499V47.2754Z" fill="#262B44"/>
<path d="M9.67751 47.2754H8.87109V48.0905H9.67751V47.2754Z" fill="#262B44"/>
<path d="M29.0412 47.2754H29.0391V48.0905H29.0412V47.2754Z" fill="#265C42"/>
<path d="M29.0412 47.2754H29.0391V48.0905H29.0412V47.2754Z" fill="#4D8B5C"/>
<path d="M51.6311 47.2754H51.6289V48.0905H51.6311V47.2754Z" fill="#181425"/>
<path d="M51.6311 47.2754H51.6289V48.0905H51.6311V47.2754Z" fill="#4D8B5C"/>
<path d="M4.03297 48.0898H3.22656V48.9049H4.03297V48.0898Z" fill="#262B44"/>
<path d="M4.83766 48.0898H4.03125V48.9049H4.83766V48.0898Z" fill="#262B44"/>
<path d="M5.64625 48.0898H4.83984V48.9049H5.64625V48.0898Z" fill="#262B44"/>
<path d="M6.45094 48.0898H5.64453V48.9049H6.45094V48.0898Z" fill="#262B44"/>
<path d="M7.25954 48.0898H6.45312V48.9049H7.25954V48.0898Z" fill="#262B44"/>
<path d="M8.06813 48.0898H7.26172V48.9049H8.06813V48.0898Z" fill="#262B44"/>
<path d="M8.87499 48.0898H8.06641V48.9049H8.87499V48.0898Z" fill="#262B44"/>
<path d="M9.67751 48.0898H8.87109V48.9049H9.67751V48.0898Z" fill="#262B44"/>
<path d="M29.0412 48.0898H29.0391V48.9049H29.0412V48.0898Z" fill="#265C42"/>
<path d="M29.0412 48.0898H29.0391V48.9049H29.0412V48.0898Z" fill="#4D8B5C"/>
<path d="M51.6311 48.0898H51.6289V48.9049H51.6311V48.0898Z" fill="#181425"/>
<path d="M51.6311 48.0898H51.6289V48.9049H51.6311V48.0898Z" fill="#4D8B5C"/>
<path d="M4.03297 48.9053H3.22656V49.7204H4.03297V48.9053Z" fill="#262B44"/>
<path d="M4.83766 48.9053H4.03125V49.7204H4.83766V48.9053Z" fill="#262B44"/>
<path d="M5.64625 48.9053H4.83984V49.7204H5.64625V48.9053Z" fill="#262B44"/>
<path d="M6.45094 48.9053H5.64453V49.7204H6.45094V48.9053Z" fill="#262B44"/>
<path d="M21.7764 48.9053H19.3594V51.3505H21.7764V48.9053Z" fill="white"/>
<path d="M21.7764 51.3525H19.3594V52.1676H21.7764V51.3525Z" fill="white"/>
<path d="M29.0421 48.9053H25.8164V51.3505H29.0421V48.9053Z" fill="#181425"/>
<path d="M29.0421 51.3525H25.8164V52.1676H29.0421V51.3525Z" fill="#181425"/>
<path d="M29.0412 48.9053H29.0391V49.7204H29.0412V48.9053Z" fill="#181425"/>
<path d="M30.6536 48.9053H29.043V51.3505H30.6536V48.9053Z" fill="#2B7F3D"/>
<path d="M30.6536 51.3525H29.043V52.1676H30.6536V51.3525Z" fill="#2B7F3D"/>
<path d="M32.2669 48.9053H30.6562V51.3505H32.2669V48.9053Z" fill="#2B7F3D"/>
<path d="M32.2669 51.3525H30.6562V52.1676H32.2669V51.3525Z" fill="#2B7F3D"/>
<path d="M29.0412 48.9053H29.0391V49.7204H29.0412V48.9053Z" fill="#265C42"/>
<path d="M32.2717 48.9053H32.2695V49.7204H32.2717V48.9053Z" fill="#265C42"/>
<path d="M54.8561 51.3525H41.9492V52.1676H54.8561V51.3525Z" fill="#41AA57"/>
<path d="M32.2717 48.9053H32.2695V49.7204H32.2717V48.9053Z" fill="#4D8B5C"/>
<path d="M58.0811 51.3525H54.8555V52.1676H58.0811V51.3525Z" fill="#181425"/>
<path d="M58.0811 48.9053H54.8555V51.3505H58.0811V48.9053Z" fill="#181425"/>
<path d="M59.6949 48.9053H58.082V51.3505H59.6949V48.9053Z" fill="white"/>
<path d="M61.312 48.9053H59.6992V51.3505H61.312V48.9053Z" fill="white"/>
<path d="M76.6397 51.3525H74.2227V52.1676H76.6397V51.3525Z" fill="#181425"/>
<path d="M79.8663 51.3525H76.6406V52.1676H79.8663V51.3525Z" fill="#181425"/>
<path d="M80.6736 48.9053H79.8672V51.3505H80.6736V48.9053Z" fill="#181425"/>
<path d="M80.6736 51.3525H79.8672V52.1676H80.6736V51.3525Z" fill="#181425"/>
<path d="M4.03297 49.7207H3.22656V50.5358H4.03297V49.7207Z" fill="#262B44"/>
<path d="M4.83766 49.7207H4.03125V50.5358H4.83766V49.7207Z" fill="#262B44"/>
<path d="M5.64625 49.7207H4.83984V50.5358H5.64625V49.7207Z" fill="#262B44"/>
<path d="M6.45094 49.7207H5.64453V50.5358H6.45094V49.7207Z" fill="#262B44"/>
<path d="M29.0412 49.7207H29.0391V50.5358H29.0412V49.7207Z" fill="#181425"/>
<path d="M29.0412 49.7207H29.0391V50.5358H29.0412V49.7207Z" fill="#265C42"/>
<path d="M32.2717 49.7207H32.2695V50.5358H32.2717V49.7207Z" fill="#265C42"/>
<path d="M32.2717 49.7207H32.2695V50.5358H32.2717V49.7207Z" fill="#4D8B5C"/>
<path d="M4.03297 50.5352H3.22656V51.3502H4.03297V50.5352Z" fill="#262B44"/>
<path d="M4.83766 50.5352H4.03125V51.3502H4.83766V50.5352Z" fill="#262B44"/>
<path d="M5.64625 50.5352H4.83984V51.3502H5.64625V50.5352Z" fill="#262B44"/>
<path d="M6.45094 50.5352H5.64453V51.3502H6.45094V50.5352Z" fill="#262B44"/>
<path d="M29.0412 50.5352H29.0391V51.3502H29.0412V50.5352Z" fill="#181425"/>
<path d="M29.0412 50.5352H29.0391V51.3502H29.0412V50.5352Z" fill="#265C42"/>
<path d="M32.2717 50.5352H32.2695V51.3502H32.2717V50.5352Z" fill="#265C42"/>
<path d="M32.2717 50.5352H32.2695V51.3502H32.2717V50.5352Z" fill="#4D8B5C"/>
<path d="M4.03297 51.3525H3.22656V52.1676H4.03297V51.3525Z" fill="#262B44"/>
<path d="M4.83766 51.3525H4.03125V52.1676H4.83766V51.3525Z" fill="#262B44"/>
<path d="M5.64625 51.3525H4.83984V52.1676H5.64625V51.3525Z" fill="#262B44"/>
<path d="M6.45094 51.3525H5.64453V52.1676H6.45094V51.3525Z" fill="#262B44"/>
<path d="M29.0412 51.3525H29.0391V52.1676H29.0412V51.3525Z" fill="#181425"/>
<path d="M29.0412 51.3525H29.0391V52.1676H29.0412V51.3525Z" fill="#265C42"/>
<path d="M32.2717 51.3525H32.2695V52.1676H32.2717V51.3525Z" fill="#265C42"/>
<path d="M32.2717 51.3525H32.2695V52.1676H32.2717V51.3525Z" fill="#4D8B5C"/>
<path d="M6.45221 52.167H3.22656V57.8704H6.45221V52.167Z" fill="#181425"/>
<path d="M6.45221 57.873H3.22656V61.9463H6.45221V57.873Z" fill="#181425"/>
<path d="M16.1319 52.167H13.7148V57.8704H16.1319V52.167Z" fill="white"/>
<path d="M16.1319 57.873H13.7148V61.9463H16.1319V57.873Z" fill="white"/>
<path d="M13.7156 52.167H9.68359V57.8704H13.7156V52.167Z" fill="white"/>
<path d="M13.7156 57.873H9.68359V61.9463H13.7156V57.873Z" fill="white"/>
<path d="M7.25954 52.167H6.45312V57.8704H7.25954V52.167Z" fill="white"/>
<path d="M7.25954 57.873H6.45312V61.9463H7.25954V57.873Z" fill="white"/>
<path d="M9.67878 52.167H7.26172V57.8704H9.67878V52.167Z" fill="white"/>
<path d="M9.67878 57.873H7.26172V61.9463H9.67878V57.873Z" fill="white"/>
<path d="M22.5877 52.167H21.7812V55.4252H22.5877V52.167Z" fill="#181425"/>
<path d="M21.7764 52.167H19.3594V55.4252H21.7764V52.167Z" fill="#181425"/>
<path d="M29.0412 52.167H29.0391V52.9821H29.0412V52.167Z" fill="#CFC6B8"/>
<path d="M30.6536 52.167H29.043V57.8704H30.6536V52.167Z" fill="#181425"/>
<path d="M36.3011 55.4252V57.8704H30.6562V52.167H32.2669V55.4252H36.3011Z" fill="#181425"/>
<path d="M29.0412 52.167H29.0391V52.9821H29.0412V52.167Z" fill="#181425"/>
<path d="M32.2717 52.167H32.2695V52.9821H32.2717V52.167Z" fill="#181425"/>
<path d="M36.3016 52.167H32.2695V55.4252H36.3016V52.167Z" fill="#2B7F3D"/>
<path d="M38.7218 52.167H36.3047V55.4252H38.7218V52.167Z" fill="#2B7F3D"/>
<path d="M32.2717 52.167H32.2695V52.9821H32.2717V52.167Z" fill="#265C42"/>
<path d="M38.7209 52.167H38.7188V52.9821H38.7209V52.167Z" fill="#265C42"/>
<path d="M38.7209 52.167H38.7188V52.9821H38.7209V52.167Z" fill="#4D8B5C"/>
<path d="M51.6311 52.167H51.6289V52.9821H51.6311V52.167Z" fill="#4D8B5C"/>
<path d="M54.8585 52.167H51.6328V55.4252H54.8585V52.167Z" fill="#181425"/>
<path d="M51.6311 52.167H51.6289V52.9821H51.6311V52.167Z" fill="#181425"/>
<path d="M61.312 51.3525H59.6992V55.4258H61.312V51.3525Z" fill="white"/>
<path d="M59.6969 51.3525V55.4258H58.0841V57.871H51.6328V55.4258H54.8585V52.1676H58.0841V51.3525H59.6969Z" fill="white"/>
<path d="M70.9891 52.167H67.7656V57.8704H70.9891V52.167Z" fill="#181425"/>
<path d="M70.9891 57.873H67.7656V61.9463H70.9891V57.873Z" fill="#181425"/>
<path d="M80.6714 57.873H79.8672V61.9463H80.6714V57.873Z" fill="white"/>
<path d="M80.6714 52.167H79.8672V57.8704H80.6714V52.167Z" fill="white"/>
<path d="M79.8663 52.167H76.6406V57.8704H79.8663V52.167Z" fill="white"/>
<path d="M79.8663 57.873H76.6406V61.9463H79.8663V57.873Z" fill="white"/>
<path d="M76.6397 57.873H74.2227V61.9463H76.6397V57.873Z" fill="white"/>
<path d="M76.6397 52.167H74.2227V57.8704H76.6397V52.167Z" fill="white"/>
<path d="M74.2178 52.167H70.9922V57.8704H74.2178V52.167Z" fill="white"/>
<path d="M74.2178 57.873H70.9922V61.9463H74.2178V57.873Z" fill="white"/>
<path d="M80.6701 52.167H80.668V52.9821H80.6701V52.167Z" fill="#CFC6B8"/>
<path d="M83.898 52.167H82.2852V57.8704H83.898V52.167Z" fill="#181425"/>
<path d="M83.898 57.873H82.2852V61.9463H83.898V57.873Z" fill="#181425"/>
<path d="M82.2825 57.873H80.6719V61.9463H82.2825V57.873Z" fill="#181425"/>
<path d="M82.2825 52.167H80.6719V57.8704H82.2825V52.167Z" fill="#181425"/>
<path d="M80.6701 52.167H80.668V52.9821H80.6701V52.167Z" fill="#181425"/>
<path d="M29.0412 52.9805H29.0391V53.7956H29.0412V52.9805Z" fill="#CFC6B8"/>
<path d="M29.0412 52.9805H29.0391V53.7956H29.0412V52.9805Z" fill="#181425"/>
<path d="M32.2717 52.9805H32.2695V53.7956H32.2717V52.9805Z" fill="#181425"/>
<path d="M32.2717 52.9805H32.2695V53.7956H32.2717V52.9805Z" fill="#265C42"/>
<path d="M38.7209 52.9805H38.7188V53.7956H38.7209V52.9805Z" fill="#265C42"/>
<path d="M38.7209 52.9805H38.7188V53.7956H38.7209V52.9805Z" fill="#4D8B5C"/>
<path d="M51.6311 52.9805H51.6289V53.7956H51.6311V52.9805Z" fill="#4D8B5C"/>
<path d="M51.6311 52.9805H51.6289V53.7956H51.6311V52.9805Z" fill="#181425"/>
<path d="M80.6701 52.9805H80.668V53.7956H80.6701V52.9805Z" fill="#CFC6B8"/>
<path d="M80.6701 52.9805H80.668V53.7956H80.6701V52.9805Z" fill="#181425"/>
<path d="M29.0412 53.7949H29.0391V54.61H29.0412V53.7949Z" fill="#CFC6B8"/>
<path d="M29.0412 53.7949H29.0391V54.61H29.0412V53.7949Z" fill="#181425"/>
<path d="M32.2717 53.7949H32.2695V54.61H32.2717V53.7949Z" fill="#181425"/>
<path d="M32.2717 53.7949H32.2695V54.61H32.2717V53.7949Z" fill="#265C42"/>
<path d="M38.7209 53.7949H38.7188V54.61H38.7209V53.7949Z" fill="#265C42"/>
<path d="M38.7209 53.7949H38.7188V54.61H38.7209V53.7949Z" fill="#4D8B5C"/>
<path d="M51.6311 53.7949H51.6289V54.61H51.6311V53.7949Z" fill="#4D8B5C"/>
<path d="M51.6311 53.7949H51.6289V54.61H51.6311V53.7949Z" fill="#181425"/>
<path d="M80.6701 53.7949H80.668V54.61H80.6701V53.7949Z" fill="#CFC6B8"/>
<path d="M80.6701 53.7949H80.668V54.61H80.6701V53.7949Z" fill="#181425"/>
<path d="M19.3585 57.873H16.1328V61.9463H19.3585V57.873Z" fill="#181425"/>
<path d="M25.0069 48.9053H21.7812V51.3505H25.0069V48.9053Z" fill="white"/>
<path d="M25.0069 51.3525V55.4258H22.5877V52.1676H21.7812V51.3525H25.0069Z" fill="white"/>
<path d="M25.8181 48.9053H25.0117V51.3505H25.8181V48.9053Z" fill="white"/>
<path d="M29.0438 52.1676V57.871H25.8181V55.4258H25.0117V51.3525H25.8181V52.1676H29.0438Z" fill="white"/>
<path d="M29.0421 57.873H25.8164V58.6881H29.0421V57.873Z" fill="white"/>
<path d="M29.0412 54.6104H29.0391V55.4254H29.0412V54.6104Z" fill="#CFC6B8"/>
<path d="M41.9496 57.873H36.3047V58.6881H41.9496V57.873Z" fill="#181425"/>
<path d="M41.9496 55.4258H36.3047V57.871H41.9496V55.4258Z" fill="#181425"/>
<path d="M51.6283 55.4258H41.9492V57.871H51.6283V55.4258Z" fill="#181425"/>
<path d="M41.9496 61.9463H36.3047V65.2066H41.9496V61.9463Z" fill="#181425"/>
<path d="M51.628 66.0244H48.4023V68.4675H51.628V66.0244Z" fill="#181425"/>
<path d="M58.0818 58.6881V65.2066H54.8561V61.9463H51.6283V66.0217H48.4027V65.2066H41.9492V61.9463H48.4027V58.6881H41.9492V57.873H51.6283V58.6881H58.0818Z" fill="#181425"/>
<path d="M36.3011 61.9466V65.207H30.6562V58.6885H32.2669V61.9466H36.3011Z" fill="#181425"/>
<path d="M36.3011 57.873H30.6562V58.6881H36.3011V57.873Z" fill="#181425"/>
<path d="M30.6536 57.873H29.043V58.6881H30.6536V57.873Z" fill="#181425"/>
<path d="M29.0412 54.6104H29.0391V55.4254H29.0412V54.6104Z" fill="#181425"/>
<path d="M32.2717 54.6104H32.2695V55.4254H32.2717V54.6104Z" fill="#181425"/>
<path d="M32.2717 54.6104H32.2695V55.4254H32.2717V54.6104Z" fill="#265C42"/>
<path d="M38.7209 54.6104H38.7188V55.4254H38.7209V54.6104Z" fill="#265C42"/>
<path d="M38.7209 54.6104H38.7188V55.4254H38.7209V54.6104Z" fill="#4D8B5C"/>
<path d="M51.6311 54.6104H51.6289V55.4254H51.6311V54.6104Z" fill="#4D8B5C"/>
<path d="M51.6311 54.6104H51.6289V55.4254H51.6311V54.6104Z" fill="#181425"/>
<path d="M80.6701 54.6104H80.668V55.4254H80.6701V54.6104Z" fill="#CFC6B8"/>
<path d="M80.6701 54.6104H80.668V55.4254H80.6701V54.6104Z" fill="#181425"/>
<path d="M21.7764 57.873H19.3594V58.6881H21.7764V57.873Z" fill="#C6C6C6"/>
<path d="M22.5877 57.873H21.7812V58.6881H22.5877V57.873Z" fill="#C6C6C6"/>
<path d="M21.7764 55.4258H19.3594V57.871H21.7764V55.4258Z" fill="#C6C6C6"/>
<path d="M22.5877 55.4258H21.7812V57.871H22.5877V55.4258Z" fill="#C6C6C6"/>
<path d="M25.0091 57.873H22.5898V58.6881H25.0091V57.873Z" fill="#181425"/>
<path d="M25.8181 55.4258H25.0117V57.871H25.8181V55.4258Z" fill="#181425"/>
<path d="M25.8181 57.873H25.0117V58.6881H25.8181V57.873Z" fill="#181425"/>
<path d="M25.0091 55.4258H22.5898V57.871H25.0091V55.4258Z" fill="#181425"/>
<path d="M29.0412 55.4258H29.0391V56.2409H29.0412V55.4258Z" fill="#CFC6B8"/>
<path d="M29.0412 55.4258H29.0391V56.2409H29.0412V55.4258Z" fill="#181425"/>
<path d="M51.6311 55.4258H51.6289V56.2409H51.6311V55.4258Z" fill="#181425"/>
<path d="M58.0841 57.873H51.6328V58.6881H58.0841V57.873Z" fill="white"/>
<path d="M51.6311 55.4258H51.6289V56.2409H51.6311V55.4258Z" fill="#CFC6B8"/>
<path d="M61.312 57.873H59.6992V58.6881H61.312V57.873Z" fill="#181425"/>
<path d="M61.312 55.4258H59.6992V57.871H61.312V55.4258Z" fill="#181425"/>
<path d="M59.6949 57.873H58.082V58.6881H59.6949V57.873Z" fill="#181425"/>
<path d="M59.6949 55.4258H58.082V57.871H59.6949V55.4258Z" fill="#181425"/>
<path d="M80.6701 55.4258H80.668V56.2409H80.6701V55.4258Z" fill="#CFC6B8"/>
<path d="M80.6701 55.4258H80.668V56.2409H80.6701V55.4258Z" fill="#181425"/>
<path d="M29.0412 56.2402H29.0391V57.0553H29.0412V56.2402Z" fill="#CFC6B8"/>
<path d="M29.0412 56.2402H29.0391V57.0553H29.0412V56.2402Z" fill="#181425"/>
<path d="M51.6311 56.2402H51.6289V57.0553H51.6311V56.2402Z" fill="#181425"/>
<path d="M51.6311 56.2402H51.6289V57.0553H51.6311V56.2402Z" fill="#CFC6B8"/>
<path d="M80.6701 56.2402H80.668V57.0553H80.6701V56.2402Z" fill="#CFC6B8"/>
<path d="M80.6701 56.2402H80.668V57.0553H80.6701V56.2402Z" fill="#181425"/>
<path d="M29.0412 57.0557H29.0391V57.8707H29.0412V57.0557Z" fill="#CFC6B8"/>
<path d="M29.0412 57.0557H29.0391V57.8707H29.0412V57.0557Z" fill="#181425"/>
<path d="M51.6311 57.0557H51.6289V57.8707H51.6311V57.0557Z" fill="#181425"/>
<path d="M51.6311 57.0557H51.6289V57.8707H51.6311V57.0557Z" fill="#CFC6B8"/>
<path d="M80.6701 57.0557H80.668V57.8707H80.6701V57.0557Z" fill="#CFC6B8"/>
<path d="M80.6701 57.0557H80.668V57.8707H80.6701V57.0557Z" fill="#181425"/>
<path d="M29.0412 57.873H29.0391V58.6881H29.0412V57.873Z" fill="#CFC6B8"/>
<path d="M29.0412 57.873H29.0391V58.6881H29.0412V57.873Z" fill="#181425"/>
<path d="M51.6311 57.873H51.6289V58.6881H51.6311V57.873Z" fill="#181425"/>
<path d="M51.6311 57.873H51.6289V58.6881H51.6311V57.873Z" fill="#CFC6B8"/>
<path d="M80.6701 57.873H80.668V58.6881H80.6701V57.873Z" fill="#CFC6B8"/>
<path d="M80.6701 57.873H80.668V58.6881H80.6701V57.873Z" fill="#181425"/>
<path d="M25.0069 58.6885H21.7812V66.022H25.0069V58.6885Z" fill="#181425"/>
<path d="M30.6566 58.6885V65.207H29.0459V66.022H25.0117V58.6885H30.6566Z" fill="#181425"/>
<path d="M21.7764 58.6885H19.3594V66.022H21.7764V58.6885Z" fill="#181425"/>
<path d="M32.2717 58.6885H32.2695V59.5036H32.2717V58.6885Z" fill="#181425"/>
<path d="M36.3016 58.6885H32.2695V61.9466H36.3016V58.6885Z" fill="#2B7F3D"/>
<path d="M41.9496 58.6885H36.3047V61.9466H41.9496V58.6885Z" fill="#2B7F3D"/>
<path d="M32.2717 58.6885H32.2695V59.5036H32.2717V58.6885Z" fill="#265C42"/>
<path d="M48.4027 58.6885H41.9492V61.9466H48.4027V58.6885Z" fill="#41AA57"/>
<path d="M80.6701 58.6885H80.668V59.5036H80.6701V58.6885Z" fill="#CFC6B8"/>
<path d="M80.6701 58.6885H80.668V59.5036H80.6701V58.6885Z" fill="#181425"/>
<path d="M32.2717 59.501H32.2695V60.3161H32.2717V59.501Z" fill="#181425"/>
<path d="M32.2717 59.501H32.2695V60.3161H32.2717V59.501Z" fill="#265C42"/>
<path d="M80.6701 59.501H80.668V60.3161H80.6701V59.501Z" fill="#CFC6B8"/>
<path d="M80.6701 59.501H80.668V60.3161H80.6701V59.501Z" fill="#181425"/>
<path d="M32.2717 60.3164H32.2695V61.1315H32.2717V60.3164Z" fill="#181425"/>
<path d="M32.2717 60.3164H32.2695V61.1315H32.2717V60.3164Z" fill="#265C42"/>
<path d="M80.6701 60.3164H80.668V61.1315H80.6701V60.3164Z" fill="#CFC6B8"/>
<path d="M80.6701 60.3164H80.668V61.1315H80.6701V60.3164Z" fill="#181425"/>
<path d="M32.2717 61.1309H32.2695V61.9459H32.2717V61.1309Z" fill="#181425"/>
<path d="M32.2717 61.1309H32.2695V61.9459H32.2717V61.1309Z" fill="#265C42"/>
<path d="M80.6701 61.1309H80.668V61.9459H80.6701V61.1309Z" fill="#CFC6B8"/>
<path d="M80.6701 61.1309H80.668V61.9459H80.6701V61.1309Z" fill="#181425"/>
<path d="M51.6311 61.9463H51.6289V62.7614H51.6311V61.9463Z" fill="#181425"/>
<path d="M52.4353 61.9463H51.6289V62.7614H52.4353V61.9463Z" fill="#262B44"/>
<path d="M53.2439 61.9463H52.4375V62.7614H53.2439V61.9463Z" fill="#262B44"/>
<path d="M54.0508 61.9463H53.2422V62.7614H54.0508V61.9463Z" fill="#262B44"/>
<path d="M54.8572 61.9463H54.0508V62.7614H54.8572V61.9463Z" fill="#262B44"/>
<path d="M74.2178 61.9463H70.9922V65.2066H74.2178V61.9463Z" fill="#181425"/>
<path d="M79.8663 61.9463H76.6406V65.2066H79.8663V61.9463Z" fill="#181425"/>
<path d="M80.6736 61.9463H79.8672V65.2066H80.6736V61.9463Z" fill="#181425"/>
<path d="M76.6397 61.9463H74.2227V65.2066H76.6397V61.9463Z" fill="#181425"/>
<path d="M51.6311 62.7617H51.6289V63.5768H51.6311V62.7617Z" fill="#181425"/>
<path d="M52.4353 62.7617H51.6289V63.5768H52.4353V62.7617Z" fill="#262B44"/>
<path d="M53.2439 62.7617H52.4375V63.5768H53.2439V62.7617Z" fill="#262B44"/>
<path d="M54.0508 62.7617H53.2422V63.5768H54.0508V62.7617Z" fill="#262B44"/>
<path d="M54.8572 62.7617H54.0508V63.5768H54.8572V62.7617Z" fill="#262B44"/>
<path d="M51.6311 63.5762H51.6289V64.3913H51.6311V63.5762Z" fill="#181425"/>
<path d="M52.4353 63.5762H51.6289V64.3913H52.4353V63.5762Z" fill="#262B44"/>
<path d="M53.2439 63.5762H52.4375V64.3826H53.2439V63.5762Z" fill="#262B44"/>
<path d="M54.0508 63.5762H53.2422V64.3826H54.0508V63.5762Z" fill="#262B44"/>
<path d="M54.8572 63.5762H54.0508V64.3913H54.8572V63.5762Z" fill="#262B44"/>
<path d="M9.67878 61.9463H7.26172V65.2066H9.67878V61.9463Z" fill="#181425"/>
<path d="M7.25954 61.9463H6.45312V65.2066H7.25954V61.9463Z" fill="#181425"/>
<path d="M16.1319 61.9463H13.7148V65.2066H16.1319V61.9463Z" fill="#181425"/>
<path d="M13.7156 61.9463H9.68359V65.2066H13.7156V61.9463Z" fill="#181425"/>
<path d="M51.6311 64.3916H51.6289V65.2067H51.6311V64.3916Z" fill="#181425"/>
<path d="M52.4353 64.3916H51.6289V65.2067H52.4353V64.3916Z" fill="#262B44"/>
<path d="M53.2439 64.3828H52.4375V65.1979H53.2439V64.3828Z" fill="#262B44"/>
<path d="M54.0508 64.3828H53.2422V65.1979H54.0508V64.3828Z" fill="#262B44"/>
<path d="M54.8572 64.3916H54.0508V65.2067H54.8572V64.3916Z" fill="#262B44"/>
<path d="M51.6311 65.207H51.6289V66.0221H51.6311V65.207Z" fill="#181425"/>
<path d="M52.4353 65.207H51.6289V66.0221H52.4353V65.207Z" fill="#262B44"/>
<path d="M53.2439 65.207H52.4375V66.0221H53.2439V65.207Z" fill="#262B44"/>
<path d="M54.0508 65.207H53.2422V66.0221H54.0508V65.207Z" fill="#262B44"/>
<path d="M54.8572 65.207H54.0508V66.0221H54.8572V65.207Z" fill="#262B44"/>
<path d="M55.6619 65.207H54.8555V66.0221H55.6619V65.207Z" fill="#262B44"/>
<path d="M56.4705 65.207H55.6641V66.0221H56.4705V65.207Z" fill="#262B44"/>
<path d="M57.2773 65.207H56.4688V66.0221H57.2773V65.207Z" fill="#262B44"/>
<path d="M58.0838 65.207H57.2773V66.0221H58.0838V65.207Z" fill="#262B44"/>
<path d="M64.5377 68.4675V71.7278H59.6992V66.0244H61.312V68.4675H64.5377Z" fill="#181425"/>
<path d="M59.6949 65.207H58.082V66.0221H59.6949V65.207Z" fill="#181425"/>
<path d="M58.0824 66.0244H59.6952V71.7278H51.6289V68.4675H58.0824V66.0244Z" fill="#181425"/>
<path d="M61.312 65.207H59.6992V66.0221H61.312V65.207Z" fill="#181425"/>
<path d="M51.6311 66.0244H51.6289V66.8395H51.6311V66.0244Z" fill="#181425"/>
<path d="M52.4353 66.0244H51.6289V66.8395H52.4353V66.0244Z" fill="#262B44"/>
<path d="M53.2439 66.0244H52.4375V66.8395H53.2439V66.0244Z" fill="#262B44"/>
<path d="M54.0508 66.0244H53.2422V66.8395H54.0508V66.0244Z" fill="#262B44"/>
<path d="M54.8572 66.0244H54.0508V66.8395H54.8572V66.0244Z" fill="#262B44"/>
<path d="M55.6619 66.0244H54.8555V66.8395H55.6619V66.0244Z" fill="#262B44"/>
<path d="M56.4705 66.0244H55.6641V66.8395H56.4705V66.0244Z" fill="#262B44"/>
<path d="M57.2773 66.0244H56.4688V66.8395H57.2773V66.0244Z" fill="#262B44"/>
<path d="M58.0838 66.0244H57.2773V66.8395H58.0838V66.0244Z" fill="#262B44"/>
<path d="M51.6311 66.8369H51.6289V67.652H51.6311V66.8369Z" fill="#181425"/>
<path d="M52.4353 66.8369H51.6289V67.652H52.4353V66.8369Z" fill="#262B44"/>
<path d="M53.2439 66.8369H52.4375V67.652H53.2439V66.8369Z" fill="#262B44"/>
<path d="M54.0508 66.8369H53.2422V67.652H54.0508V66.8369Z" fill="#262B44"/>
<path d="M54.8572 66.8369H54.0508V67.652H54.8572V66.8369Z" fill="#262B44"/>
<path d="M55.6619 66.8369H54.8555V67.652H55.6619V66.8369Z" fill="#262B44"/>
<path d="M56.4705 66.8369H55.6641V67.652H56.4705V66.8369Z" fill="#262B44"/>
<path d="M57.2773 66.8369H56.4688V67.652H57.2773V66.8369Z" fill="#262B44"/>
<path d="M58.0838 66.8369H57.2773V67.652H58.0838V66.8369Z" fill="#262B44"/>
<path d="M51.6311 67.6514H51.6289V68.4665H51.6311V67.6514Z" fill="#181425"/>
<path d="M52.4353 67.6514H51.6289V68.4665H52.4353V67.6514Z" fill="#262B44"/>
<path d="M53.2439 67.6514H52.4375V68.4665H53.2439V67.6514Z" fill="#262B44"/>
<path d="M54.0508 67.6514H53.2422V68.4665H54.0508V67.6514Z" fill="#262B44"/>
<path d="M54.8572 67.6514H54.0508V68.4665H54.8572V67.6514Z" fill="#262B44"/>
<path d="M55.6619 67.6514H54.8555V68.4665H55.6619V67.6514Z" fill="#262B44"/>
<path d="M56.4705 67.6514H55.6641V68.4665H56.4705V67.6514Z" fill="#262B44"/>
<path d="M57.2773 67.6514H56.4688V68.4665H57.2773V67.6514Z" fill="#262B44"/>
<path d="M58.0838 67.6514H57.2773V68.4665H58.0838V67.6514Z" fill="#262B44"/>
<path d="M21.7764 66.0244H19.3594V69.2826H21.7764V66.0244Z" fill="#181425"/>
<path d="M19.3585 68.4678H16.1328V69.2829H19.3585V68.4678Z" fill="#181425"/>
<path d="M25.0069 66.0244H21.7812V69.2826H25.0069V66.0244Z" fill="#39314B"/>
<path d="M25.0069 63.0068H21.7812V66.265H25.0069V63.0068Z" fill="#39314B"/>
<path d="M29.0459 66.0244H25.0117V69.2826H29.0459V66.0244Z" fill="#181425"/>
<path d="M21.7764 69.2812H19.3594V71.7265H21.7764V69.2812Z" fill="#181425"/>
<path d="M19.3585 69.2812H16.1328V71.7265H19.3585V69.2812Z" fill="#181425"/>
<path d="M29.0459 69.2812H25.0117V71.7265H29.0459V69.2812Z" fill="#181425"/>
<path d="M25.0069 69.2812H21.7812V71.7265H25.0069V69.2812Z" fill="#181425"/>
<path d="M16.1319 71.7275H13.7148V72.5426H16.1319V71.7275Z" fill="#181425"/>
<path d="M13.7127 71.7275H12.9062V72.5426H13.7127V71.7275Z" fill="#181425"/>
<path d="M21.7764 78.25H19.3594V81.5082H21.7764V78.25Z" fill="#181425"/>
<path d="M25.0069 78.25H21.7812V81.5082H25.0069V78.25Z" fill="#181425"/>
<path d="M13.7127 78.25H12.9062V81.5082H13.7127V78.25Z" fill="#181425"/>
<path d="M16.1319 78.25H13.7148V81.5082H16.1319V78.25Z" fill="#181425"/>
<path d="M19.3585 78.25H16.1328V81.5082H19.3585V78.25Z" fill="#181425"/>
<path d="M30.6566 78.25H25.0117V81.5082H30.6566V78.25Z" fill="#181425"/>
<path d="M32.2691 78.25H30.6562V81.5082H32.2691V78.25Z" fill="#181425"/>
<path d="M13.7127 72.5449H12.9062V78.2483H13.7127V72.5449Z" fill="#181425"/>
<path d="M16.1319 72.5449H13.7148V78.2483H16.1319V72.5449Z" fill="#181425"/>
<path d="M25.8181 71.7275H25.0117V72.5426H25.8181V71.7275Z" fill="white"/>
<path d="M25.0069 71.7275H21.7812V72.5426H25.0069V71.7275Z" fill="white"/>
<path d="M25.0069 72.5449H21.7812V74.988H25.0069V72.5449Z" fill="white"/>
<path d="M25.8181 72.5449H25.0117V74.988H25.8181V72.5449Z" fill="white"/>
<path d="M21.7764 72.5449H19.3594V74.988H21.7764V72.5449Z" fill="white"/>
<path d="M21.7764 71.7275H19.3594V72.5426H21.7764V71.7275Z" fill="white"/>
<path d="M29.0412 71.7275H29.0391V72.5426H29.0412V71.7275Z" fill="#4D8B5C"/>
<path d="M29.0412 71.7275H29.0391V72.5426H29.0412V71.7275Z" fill="#181425"/>
<path d="M32.2691 71.7275H30.6562V72.5426H32.2691V71.7275Z" fill="#181425"/>
<path d="M32.2691 72.5449H30.6562V78.2483H32.2691V72.5449Z" fill="#181425"/>
<path d="M30.6536 71.7275H29.043V72.5426H30.6536V71.7275Z" fill="#181425"/>
<path d="M30.6536 72.5449H29.043V78.2483H30.6536V72.5449Z" fill="#181425"/>
<path d="M70.9891 78.25H67.7656V81.5082H70.9891V78.25Z" fill="#181425"/>
<path d="M70.9891 74.9873H67.7656V78.2476H70.9891V74.9873Z" fill="#181425"/>
<path d="M67.763 78.25H65.3438V81.5082H67.763V78.25Z" fill="#181425"/>
<path d="M65.3441 78.25H59.6992V81.5082H65.3441V78.25Z" fill="#181425"/>
<path d="M59.6943 78.25H48.4023V81.5082H59.6943V78.25Z" fill="#181425"/>
<path d="M51.628 72.5449H48.4023V78.2483H51.628V72.5449Z" fill="#181425"/>
<path d="M51.628 71.7275H48.4023V72.5426H51.628V71.7275Z" fill="#181425"/>
<path d="M51.6311 71.7275H51.6289V72.5426H51.6311V71.7275Z" fill="#181425"/>
<path d="M48.4027 4.07812H41.9492V6.5212H48.4027V4.07812Z" fill="#41AA57"/>
<path d="M48.4027 3.25977H41.9492V4.07485H48.4027V3.25977Z" fill="#41AA57"/>
<path d="M36.3016 13.042H32.2695V16.3023H36.3016V13.042Z" fill="#41AA57"/>
<path d="M41.9483 9.78125H38.7227V10.5963H41.9483V9.78125Z" fill="#41AA57"/>
<path d="M58.0818 17.1191H54.8561V19.5622H51.6283V17.1191H41.9492V24.4527H54.8561V22.8225H59.6946V19.5622H58.0818V17.1191Z" fill="#41AA57"/>
<path d="M58.0811 16.3018H54.8555V17.1168H58.0811V16.3018Z" fill="#41AA57"/>
<path d="M41.9483 24.4551H38.7227V26.0831H41.9483V24.4551Z" fill="#41AA57"/>
<path d="M38.7239 13.0417H36.3047V16.302H38.7239V17.1171H41.9496V10.5986H38.7239V13.0417Z" fill="#41AA57"/>
<path d="M38.7239 19.5622H36.3047V22.8225H38.7239V24.4527H41.9496V17.1191H38.7239V19.5622Z" fill="#41AA57"/>
<path d="M51.6283 16.302H54.8561V13.0417H51.6283V10.5986H41.9492V17.1171H51.6283V16.302Z" fill="#41AA57"/>
<path d="M51.6283 9.78125H41.9492V10.5963H51.6283V9.78125Z" fill="#41AA57"/>
<path d="M32.2669 17.1191H30.6562V22.8225H36.3011V19.5622H32.2669V17.1191Z" fill="#41AA57"/>
<path d="M30.6536 17.1191H29.043V22.8225H30.6536V17.1191Z" fill="#41AA57"/>
<path d="M64.5381 16.3018H61.3125V17.1168H64.5381V16.3018Z" fill="#41AA57"/>
<path d="M64.5381 17.1191H61.3125V19.5622H64.5381V17.1191Z" fill="#41AA57"/>
<path d="M19.3585 24.4551H16.1328V26.0831H19.3585V24.4551Z" fill="#41AA57"/>
<path d="M19.3585 19.5615H16.1328V24.452H19.3585V19.5615Z" fill="#41AA57"/>
<path d="M54.8561 24.4551V26.0831H51.6283V27.7132H51.6305V29.3434H41.9492V24.4551H54.8561Z" fill="#41AA57"/>
<path d="M54.8561 39.1263V42.3844H51.6283V45.6447H41.9492V39.1263H45.1749V37.4961H51.6283V39.1263H54.8561Z" fill="#41AA57"/>
<path d="M67.763 39.126H65.3438V45.6445H67.763V39.126Z" fill="#41AA57"/>
<path d="M65.3416 39.126H64.5352V45.6445H65.3416V39.126Z" fill="#41AA57"/>
<path d="M58.0811 42.3838H54.8555V45.6441H58.0811V42.3838Z" fill="#41AA57"/>
<path d="M64.5381 45.6465H61.3125V48.9046H64.5381V45.6465Z" fill="#41AA57"/>
<path d="M30.6536 45.6465H29.043V48.9046H30.6536V45.6465Z" fill="#41AA57"/>
<path d="M30.6562 48.9046H32.2691V51.3499H36.3011V45.6465H30.6562V48.9046Z" fill="#41AA57"/>
<path d="M36.3047 48.9046V51.3499H41.9496V48.9046V45.6465H36.3047V48.9046Z" fill="#41AA57"/>
<path d="M58.0818 45.6465V48.9046H54.8561V51.3499H41.9492V48.9046H51.6305V45.6465H58.0818Z" fill="#41AA57"/>
<path d="M36.3016 51.3525H32.2695V52.1676H36.3016V51.3525Z" fill="#41AA57"/>
<path d="M36.3047 52.1676H38.7239V55.4258H41.9496V52.1676V51.3525H36.3047V52.1676Z" fill="#41AA57"/>
<path d="M51.6283 52.167H41.9492V55.4252H51.6283V52.167Z" fill="#41AA57"/>
<path d="M19.3585 72.5449H16.1328V74.988H19.3585V72.5449Z" fill="#41AA57"/>
<path d="M19.3585 71.7275H16.1328V72.5426H19.3585V71.7275Z" fill="#41AA57"/>
<path d="M29.0421 71.7275H25.8164V72.5426H29.0421V71.7275Z" fill="#41AA57"/>
<path d="M29.0421 72.5449H25.8164V74.988H29.0421V72.5449Z" fill="#41AA57"/>
<path d="M58.0841 72.5449H51.6328V74.988H58.0841V72.5449Z" fill="#41AA57"/>
<path d="M58.0841 71.7275H51.6328V72.5426H58.0841V71.7275Z" fill="#41AA57"/>
<path d="M51.6311 71.7275H51.6289V72.5426H51.6311V71.7275Z" fill="#4D8B5C"/>
<path d="M59.6949 72.5449H58.082V74.988H59.6949V72.5449Z" fill="white"/>
<path d="M59.6949 71.7275H58.082V72.5426H59.6949V71.7275Z" fill="white"/>
<path d="M64.5377 71.7275H59.6992V72.5426H64.5377V71.7275Z" fill="white"/>
</svg>
