<svg width="92" height="51" viewBox="0 0 92 51" fill="none" xmlns="http://www.w3.org/2000/svg">
<mask id="path-1-inside-1_1344_31930" fill="white">
<path fill-rule="evenodd" clip-rule="evenodd" d="M80.5013 2.42383H2.8747V7.27H0V19.3863H2.8747V21.81H48.8731V31.5027H54.6225V36.3505H57.5037V41.1959H60.3751V48.4664H66.1212V50.8895H80.4965V48.4664H80.5005V33.9268H77.6291V26.6563H74.7479V21.8109H71.8735V21.81H80.5013V19.3863H83.3767V14.5412H92.0011V4.84813H83.3759V7.27H80.5013V2.42383Z"/>
</mask>
<path fill-rule="evenodd" clip-rule="evenodd" d="M80.5013 2.42383H2.8747V7.27H0V19.3863H2.8747V21.81H48.8731V31.5027H54.6225V36.3505H57.5037V41.1959H60.3751V48.4664H66.1212V50.8895H80.4965V48.4664H80.5005V33.9268H77.6291V26.6563H74.7479V21.8109H71.8735V21.81H80.5013V19.3863H83.3767V14.5412H92.0011V4.84813H83.3759V7.27H80.5013V2.42383Z" fill="#FD9FFF"/>
<path d="M2.8747 2.42383V-1.07515H-0.624278V2.42383H2.8747ZM80.5013 2.42383H84.0002V-1.07515H80.5013V2.42383ZM2.8747 7.27V10.769H6.37367V7.27H2.8747ZM0 7.27V3.77102H-3.49897V7.27H0ZM0 19.3863H-3.49897V22.8853H0V19.3863ZM2.8747 19.3863H6.37367V15.8873H2.8747V19.3863ZM2.8747 21.81H-0.624278V25.309H2.8747V21.81ZM48.8731 21.81H52.372V18.3111H48.8731V21.81ZM48.8731 31.5027H45.3741V35.0017H48.8731V31.5027ZM54.6225 31.5027H58.1214V28.0038H54.6225V31.5027ZM54.6225 36.3505H51.1235V39.8495H54.6225V36.3505ZM57.5037 36.3505H61.0026V32.8516H57.5037V36.3505ZM57.5037 41.1959H54.0047V44.6949H57.5037V41.1959ZM60.3751 41.1959H63.8741V37.6969H60.3751V41.1959ZM60.3751 48.4664H56.8761V51.9653H60.3751V48.4664ZM66.1212 48.4664H69.6202V44.9674H66.1212V48.4664ZM66.1212 50.8895H62.6223V54.3885H66.1212V50.8895ZM80.4965 50.8895V54.3885H83.9955V50.8895H80.4965ZM80.4965 48.4664V44.9674H76.9976V48.4664H80.4965ZM80.5005 48.4664V51.9653H83.9995V48.4664H80.5005ZM80.5005 33.9268H83.9995V30.4278H80.5005V33.9268ZM77.6291 33.9268H74.1301V37.4258H77.6291V33.9268ZM77.6291 26.6563H81.128V23.1573H77.6291V26.6563ZM74.7479 26.6563H71.2489V30.1553H74.7479V26.6563ZM74.7479 21.8109H78.2468V18.312H74.7479V21.8109ZM71.8735 21.8109H68.3746V25.3099H71.8735V21.8109ZM71.8735 21.81V18.3111H68.3746V21.81H71.8735ZM80.5013 21.81V25.309H84.0002V21.81H80.5013ZM80.5013 19.3863V15.8873H77.0023V19.3863H80.5013ZM83.3767 19.3863V22.8853H86.8757V19.3863H83.3767ZM83.3767 14.5412V11.0422H79.8777V14.5412H83.3767ZM92.0011 14.5412V18.0402H95.5001V14.5412H92.0011ZM92.0011 4.84813H95.5001V1.34916H92.0011V4.84813ZM83.3759 4.84813V1.34916H79.8769V4.84813H83.3759ZM83.3759 7.27V10.769H86.8749V7.27H83.3759ZM80.5013 7.27H77.0023V10.769H80.5013V7.27ZM2.8747 5.9228H80.5013V-1.07515H2.8747V5.9228ZM6.37367 7.27V2.42383H-0.624278V7.27H6.37367ZM0 10.769H2.8747V3.77102H0V10.769ZM3.49897 19.3863V7.27H-3.49897V19.3863H3.49897ZM2.8747 15.8873H0V22.8853H2.8747V15.8873ZM6.37367 21.81V19.3863H-0.624278V21.81H6.37367ZM48.8731 18.3111H2.8747V25.309H48.8731V18.3111ZM52.372 31.5027V21.81H45.3741V31.5027H52.372ZM54.6225 28.0038H48.8731V35.0017H54.6225V28.0038ZM58.1214 36.3505V31.5027H51.1235V36.3505H58.1214ZM57.5037 32.8516H54.6225V39.8495H57.5037V32.8516ZM61.0026 41.1959V36.3505H54.0047V41.1959H61.0026ZM60.3751 37.6969H57.5037V44.6949H60.3751V37.6969ZM63.8741 48.4664V41.1959H56.8761V48.4664H63.8741ZM66.1212 44.9674H60.3751V51.9653H66.1212V44.9674ZM69.6202 50.8895V48.4664H62.6223V50.8895H69.6202ZM80.4965 47.3905H66.1212V54.3885H80.4965V47.3905ZM76.9976 48.4664V50.8895H83.9955V48.4664H76.9976ZM80.5005 44.9674H80.4965V51.9653H80.5005V44.9674ZM77.0015 33.9268V48.4664H83.9995V33.9268H77.0015ZM77.6291 37.4258H80.5005V30.4278H77.6291V37.4258ZM74.1301 26.6563V33.9268H81.128V26.6563H74.1301ZM74.7479 30.1553H77.6291V23.1573H74.7479V30.1553ZM71.2489 21.8109V26.6563H78.2468V21.8109H71.2489ZM71.8735 25.3099H74.7479V18.312H71.8735V25.3099ZM68.3746 21.81V21.8109H75.3725V21.81H68.3746ZM80.5013 18.3111H71.8735V25.309H80.5013V18.3111ZM77.0023 19.3863V21.81H84.0002V19.3863H77.0023ZM83.3767 15.8873H80.5013V22.8853H83.3767V15.8873ZM79.8777 14.5412V19.3863H86.8757V14.5412H79.8777ZM92.0011 11.0422H83.3767V18.0402H92.0011V11.0422ZM88.5021 4.84813V14.5412H95.5001V4.84813H88.5021ZM83.3759 8.34711H92.0011V1.34916H83.3759V8.34711ZM86.8749 7.27V4.84813H79.8769V7.27H86.8749ZM80.5013 10.769H83.3759V3.77102H80.5013V10.769ZM77.0023 2.42383V7.27H84.0002V2.42383H77.0023Z" fill="black" mask="url(#path-1-inside-1_1344_31930)"/>
<rect width="71.8765" height="4.84653" transform="matrix(1 0 0 -1 5.75 9.69336)" fill="#9F00D7"/>
<rect x="2.87109" y="9.69336" width="77.6266" height="7.26979" fill="#D540C6"/>
<rect x="48.875" y="4.8457" width="8.62518" height="4.84653" fill="white"/>
<rect x="60.3672" y="4.8457" width="5.75012" height="4.84653" fill="white"/>
<rect x="69.0039" y="4.8457" width="2.87506" height="4.84653" fill="white"/>
<rect x="25.8711" y="12.1162" width="48.876" height="4.84653" fill="#9F00D7"/>
<rect x="60.3672" y="19.3867" width="8.62518" height="12.1163" fill="#D540C6"/>
<rect x="63.2539" y="31.5029" width="8.62518" height="4.84653" fill="#D540C6"/>
<rect x="66.1172" y="36.3477" width="5.75012" height="4.84653" fill="#D540C6"/>
<rect x="69" y="46.042" width="8.62518" height="2.42326" fill="#9F00D7"/>
<rect x="54.6211" y="19.3867" width="2.87506" height="7.26979" fill="#252525"/>
<rect x="5.75" width="5.75012" height="2.42326" fill="#252525"/>
<rect x="74.75" width="2.87506" height="2.42326" fill="#252525"/>
<rect x="2.87109" y="9.69336" width="2.87506" height="7.26979" fill="#9F00D7"/>
</svg>
