<svg width="88" height="28" viewBox="0 0 88 28" fill="none" xmlns="http://www.w3.org/2000/svg">
<mask id="path-1-outside-1_3535_1128" maskUnits="userSpaceOnUse" x="0" y="0" width="88" height="28" fill="black">
<rect fill="white" width="88" height="28"/>
<path fill-rule="evenodd" clip-rule="evenodd" d="M82.8283 2H5.16797V3.58496H3.58594V5.16992H2V22.6039H3.58594V24.1887H5.16797V25.7736H82.8283V24.1887H84.4161V22.6039H86V5.16992H84.4161V3.58496H82.8283V2Z"/>
</mask>
<path fill-rule="evenodd" clip-rule="evenodd" d="M82.8283 2H5.16797V3.58496H3.58594V5.16992H2V22.6039H3.58594V24.1887H5.16797V25.7736H82.8283V24.1887H84.4161V22.6039H86V5.16992H84.4161V3.58496H82.8283V2Z" fill="#967444"/>
<path d="M5.16797 2V0H3.16797V2H5.16797ZM82.8283 2H84.8283V0H82.8283V2ZM5.16797 3.58496V5.58496H7.16797V3.58496H5.16797ZM3.58594 3.58496V1.58496H1.58594V3.58496H3.58594ZM3.58594 5.16992V7.16992H5.58594V5.16992H3.58594ZM2 5.16992V3.16992H0V5.16992H2ZM2 22.6039H0V24.6039H2V22.6039ZM3.58594 22.6039H5.58594V20.6039H3.58594V22.6039ZM3.58594 24.1887H1.58594V26.1887H3.58594V24.1887ZM5.16797 24.1887H7.16797V22.1887H5.16797V24.1887ZM5.16797 25.7736H3.16797V27.7736H5.16797V25.7736ZM82.8283 25.7736V27.7736H84.8283V25.7736H82.8283ZM82.8283 24.1887V22.1887H80.8283V24.1887H82.8283ZM84.4161 24.1887V26.1887H86.4161V24.1887H84.4161ZM84.4161 22.6039V20.6039H82.4161V22.6039H84.4161ZM86 22.6039V24.6039H88V22.6039H86ZM86 5.16992H88V3.16992H86V5.16992ZM84.4161 5.16992H82.4161V7.16992H84.4161V5.16992ZM84.4161 3.58496H86.4161V1.58496H84.4161V3.58496ZM82.8283 3.58496H80.8283V5.58496H82.8283V3.58496ZM5.16797 4H82.8283V0H5.16797V4ZM7.16797 3.58496V2H3.16797V3.58496H7.16797ZM5.16797 1.58496H3.58594V5.58496H5.16797V1.58496ZM1.58594 3.58496V5.16992H5.58594V3.58496H1.58594ZM3.58594 3.16992H2V7.16992H3.58594V3.16992ZM0 5.16992V22.6039H4V5.16992H0ZM2 24.6039H3.58594V20.6039H2V24.6039ZM1.58594 22.6039V24.1887H5.58594V22.6039H1.58594ZM3.58594 26.1887H5.16797V22.1887H3.58594V26.1887ZM7.16797 25.7736V24.1887H3.16797V25.7736H7.16797ZM82.8283 23.7736H5.16797V27.7736H82.8283V23.7736ZM80.8283 24.1887V25.7736H84.8283V24.1887H80.8283ZM82.8283 26.1887H84.4161V22.1887H82.8283V26.1887ZM86.4161 24.1887V22.6039H82.4161V24.1887H86.4161ZM84.4161 24.6039H86V20.6039H84.4161V24.6039ZM88 22.6039V5.16992H84V22.6039H88ZM86 3.16992H84.4161V7.16992H86V3.16992ZM86.4161 5.16992V3.58496H82.4161V5.16992H86.4161ZM84.4161 1.58496H82.8283V5.58496H84.4161V1.58496ZM80.8283 2V3.58496H84.8283V2H80.8283Z" fill="#573D19" mask="url(#path-1-outside-1_3535_1128)"/>
</svg>
