<svg width="426" height="426" viewBox="0 0 426 426" fill="none" xmlns="http://www.w3.org/2000/svg">
<path d="M212.962 0.000177387C330.692 0.150177 426.152 95.8402 425.712 213.24C425.282 330.98 330.152 425.94 212.772 425.82C95.1318 425.7 -0.478201 329.89 0.00179947 212.55C0.461799 94.8502 95.6418 -0.149823 212.962 0.000177387ZM212.962 391.75C311.702 391.59 391.622 311.58 391.622 212.89C391.622 114.2 311.622 34.1602 212.922 34.0702C114.222 33.9802 33.8118 114.36 34.0218 213.17C34.2318 311.98 114.442 391.91 213.002 391.75H212.962Z" fill="#FF7C06"/>
<path d="M374.695 212.81C374.695 302.14 301.955 374.92 212.695 374.81C123.435 374.7 51.0752 302.08 51.0352 213C51.0352 123.7 123.845 50.8702 213.035 51.0002C302.225 51.1302 374.655 123.66 374.695 212.81ZM200.765 277.81C196.555 273.31 192.645 269.36 188.985 265.18C178.335 253 172.805 238.3 171.185 222.65C169.005 201.65 173.185 181.59 186.185 164.24C199.335 146.7 215.865 135.77 238.995 138.16C249.339 139.263 259.104 143.482 266.995 150.26C279.744 160.88 288.645 175.4 292.325 191.58C296.535 209.23 295.325 226.68 290.885 243.9C286.811 259.871 279.402 274.798 269.145 287.7C258.498 301.428 244.418 312.104 228.325 318.65C222.325 321.1 216.075 322.96 209.935 325.09C217.665 325.41 225.375 325.62 232.825 324.31C255.031 320.485 275.539 309.97 291.605 294.17C303.455 282.71 312.065 269.11 318.365 253.78C326.525 233.94 327.205 213.43 324.215 192.85C321.155 170.793 310.748 150.413 294.675 135C274.565 115.57 250.555 105.56 221.675 109.59C208.148 111.522 195.221 116.445 183.835 124C172.775 131.19 164.215 141.22 157.045 152.11C145.285 170 139.725 190.24 139.525 211.37C139.622 222.219 141.689 232.96 145.625 243.07C152.055 260.07 163.905 272.74 182.195 277.74C188.205 279.38 194.455 280.75 200.765 277.8V277.81ZM216.875 100.39C214.135 100.39 212.465 100.49 210.815 100.39C192.615 99.1802 175.895 104.64 160.125 112.78C145.768 120.072 133.254 130.528 123.525 143.36C114.946 154.808 108.397 167.645 104.165 181.31C100.225 193.79 100.475 206.39 100.275 219.12C99.9951 236.99 105.595 253.34 114.105 268.45C123.195 284.6 135.615 297.92 152.605 306.6C169.845 315.41 187.775 319.4 206.905 315.84C227.28 312.262 245.767 301.684 259.175 285.93C276.965 265.49 284.945 241.48 286.365 215.05C286.945 204.37 284.675 193.75 280.585 183.71C273.585 166.38 262.145 153.38 243.585 148.13C237.585 146.43 231.215 144.95 224.955 148.07C229.075 152.47 232.955 156.43 236.645 160.59C247.365 172.73 252.975 187.45 254.495 203.09C256.745 226.26 251.705 247.88 235.885 266.09C222.885 281.09 207.355 289.76 186.885 287.64C176.549 286.543 166.788 282.342 158.885 275.59C146.123 264.983 137.207 250.469 133.515 234.29C129.275 216.63 130.515 199.2 134.885 181.97C138.974 165.824 146.476 150.742 156.885 137.74C167.477 124.171 181.456 113.631 197.415 107.18C203.385 104.77 209.655 102.89 216.875 100.38V100.39Z" fill="#FF7C06"/>
</svg>
