<svg width="426" height="426" viewBox="0 0 426 426" fill="none" xmlns="http://www.w3.org/2000/svg">
<path d="M212.821 7.8965e-07C330.441 7.8965e-07 425.941 95.62 425.621 213.06C425.311 330.69 330.281 425.62 212.821 425.64C95.3609 425.66 -0.329149 329.91 0.000850981 212.56C0.340851 94.96 95.4209 -0.00999921 212.821 7.8965e-07ZM212.821 391.59C311.461 391.59 391.451 311.68 391.611 212.96C391.771 114.24 311.881 34.31 213.111 34.05C114.341 33.79 34.0108 114.1 34.1108 212.91C34.2108 311.72 114.171 391.58 212.791 391.59H212.821Z" fill="#FF7C06"/>
<path d="M374.61 212.94C374.48 302.29 301.61 374.94 212.44 374.62C123.27 374.3 50.8897 301.7 51.0197 212.7C51.1497 123.4 124.13 50.7003 213.21 51.0403C302.52 51.4003 374.75 123.88 374.61 212.94ZM165.97 287.89L288.4 168.57C278.4 158.27 268.88 148.44 259.1 138.37L137.52 257.47L165.97 287.89ZM184.81 302.28L212.81 332.85L334.45 214.25L306.28 183.5L184.81 302.28ZM139.12 167.64L166.21 197.12C192.01 171.96 217.266 147.32 241.98 123.2L211.98 92.3003L139.12 167.64ZM92.0597 212.46C100.31 221.34 109.06 230.82 117.95 240.16C118.55 240.8 120.79 240.97 121.3 240.44C130.3 231 139.1 221.44 146.87 213.05L119.31 183.58L92.0597 212.46Z" fill="#FF7C06"/>
</svg>
