<svg width="426" height="426" viewBox="0 0 426 426" fill="none" xmlns="http://www.w3.org/2000/svg">
<path d="M213.215 0.00212458C331.155 0.522125 426.465 96.2721 425.715 213.492C424.965 331.392 329.715 426.302 212.525 425.822C94.6645 425.342 -0.755491 329.472 0.00450861 212.312C0.774509 94.4821 96.1647 -0.517875 213.215 0.00212458ZM212.635 391.752C311.195 391.972 391.325 312.082 391.635 213.252C391.975 114.702 312.165 34.5221 213.305 34.0621C114.645 33.6121 34.1345 113.892 34.0345 212.802C33.9645 311.442 113.895 391.532 212.635 391.802V391.752Z" fill="#FF7C06"/>
<path d="M212.926 374.802C123.856 374.802 51.2255 302.352 51.0355 213.222C50.8455 124.092 123.546 51.0818 212.826 51.0518C302.106 51.0218 374.876 123.802 374.696 213.102C374.516 302.402 302.046 374.742 212.926 374.802ZM128.016 314.062C156.776 314.062 184.716 314.172 212.646 313.992C219.386 313.992 226.336 313.822 232.816 312.212C244.816 309.212 257.156 306.742 267.526 299.212C275.606 293.362 284.936 288.692 291.526 281.472C298.626 273.642 303.526 263.672 308.626 254.232C310.626 250.502 312.436 248.552 316.776 248.722C323.536 248.992 330.316 248.792 337.326 248.792V226.102H317.656V200.802C323.226 200.802 328.375 200.982 333.495 200.682C334.895 200.602 337.336 199.132 337.376 198.212C337.706 191.302 337.556 184.382 337.556 177.072C329.806 177.072 322.676 177.292 315.556 176.932C314.487 176.844 313.449 176.531 312.51 176.014C311.571 175.497 310.751 174.788 310.106 173.932C306.746 168.152 304.666 161.522 300.786 156.172C295.426 148.782 289.626 141.332 282.616 135.602C272.535 127.526 261.025 121.419 248.686 117.602C238.916 114.472 229.225 111.602 218.755 111.752C190.645 112.002 162.546 111.832 134.436 111.832H127.966V177.382H99.8456V200.962H127.646V226.332H99.7157V248.802C107.316 248.802 114.606 249.052 121.876 248.712C126.536 248.492 128.316 249.712 128.156 254.762C127.796 266.222 128.046 277.712 128.046 289.182L128.016 314.062Z" fill="#FF7C06"/>
<path d="M286.184 176.861H149.993C149.749 175.727 149.582 174.578 149.493 173.421C149.493 161.611 149.544 149.811 149.434 138.001C149.434 133.801 151.064 132.001 155.364 132.061C175.814 132.171 196.264 131.701 216.694 132.321C224.084 132.551 231.413 135.191 238.753 136.831C246.755 138.736 254.292 142.232 260.914 147.111C271.584 154.701 280.354 164.051 286.184 176.861Z" fill="#FF7C06"/>
<path d="M286.746 249.002C281.376 261.392 273.816 270.382 264.546 276.932C251.696 286.012 237.396 292.642 220.926 292.762C199.376 292.912 177.836 293.412 156.286 293.692C149.656 293.782 149.476 293.532 149.476 287.022C149.476 276.712 149.706 266.402 149.366 256.112C149.206 251.112 150.816 249.532 155.876 249.552C195.256 249.722 234.636 249.652 274.026 249.552C278.006 249.592 281.996 249.232 286.746 249.002Z" fill="#FF7C06"/>
<path d="M221.834 200.802C243.964 200.802 266.084 200.902 288.214 200.722C292.434 200.722 293.864 202.152 293.694 206.192C293.494 211.192 293.624 216.192 293.694 221.192C293.694 224.592 292.504 226.192 288.694 226.192C243.947 226.092 199.197 226.092 154.444 226.192C150.664 226.192 149.444 224.732 149.444 221.192C149.554 216.192 149.574 211.192 149.444 206.192C149.334 202.262 150.654 200.652 154.954 200.692C177.244 200.872 199.544 200.802 221.834 200.802Z" fill="#FF7C06"/>
</svg>
