<svg width="427" height="426" viewBox="0 0 427 426" fill="none" xmlns="http://www.w3.org/2000/svg">
<path d="M0.999624 212.361C1.67962 94.5913 96.9996 -0.408678 214.14 0.00132212C332.02 0.421322 427.38 96.1613 426.71 213.431C426.04 331.431 330.11 426.851 213.1 425.811C95.0996 424.771 0.329624 329.361 0.999624 212.361ZM213.87 391.761C312.56 391.761 392.54 311.761 392.66 213.011C392.78 114.261 312.87 34.2913 214.09 34.0713C115.31 33.8513 34.9496 114.201 35.0896 213.071C35.2296 311.941 115.25 391.791 213.87 391.761Z" fill="#FF7C06"/>
<path d="M213.892 51.0313C303.232 51.0313 375.892 123.921 375.692 213.171C375.492 302.421 303.002 374.811 213.862 374.781C124.582 374.781 51.8615 301.841 52.0315 212.641C52.2015 123.441 124.832 50.9913 213.892 51.0313ZM213.002 97.1713L140.502 166.921L168.552 193.641L213.252 145.981L259.002 192.361C267.512 183.811 275.772 175.501 285.192 166.011L213.002 97.1713ZM142.872 258.531L213.002 328.821L285.142 259.921L258.442 232.561L212.442 279.731C197.102 263.731 182.332 248.381 166.842 232.261L142.872 258.531ZM188.572 212.531C196.692 220.741 205.232 229.391 213.242 237.531L238.072 213.361L212.902 187.751L188.572 212.531ZM329.572 213.451L305.002 187.631L280.422 213.091L305.672 238.091L329.572 213.451ZM97.7215 212.561C105.302 220.701 113.292 229.261 120.722 237.251L145.952 212.921L121.112 188.251L97.7215 212.561Z" fill="#FF7C06"/>
</svg>
