<svg width="426" height="426" viewBox="0 0 426 426" fill="none" xmlns="http://www.w3.org/2000/svg">
<path d="M212.921 9.54198e-05C330.621 0.100095 426.101 95.7701 425.711 213.21C425.311 330.93 330.211 425.89 212.801 425.82C95.1914 425.74 -0.418622 329.94 0.00137847 212.58C0.411378 94.9001 95.5714 -0.109905 212.921 9.54198e-05ZM212.921 391.75C311.601 391.75 391.591 311.75 391.701 213.01C391.811 114.27 311.861 34.2801 213.081 34.0601C114.301 33.8401 33.9514 114.2 34.0814 213.06C34.2114 311.92 114.241 391.78 212.871 391.75H212.921Z" fill="#FF7C06"/>
<path d="M374.691 212.94C374.621 302.31 301.761 375.04 212.571 374.78C123.381 374.52 50.9613 301.9 51.0313 212.85C51.0913 123.52 124.031 50.7203 213.161 51.0303C302.291 51.3403 374.751 123.83 374.691 212.94ZM204.691 277.72V280.72C204.691 287.83 206.461 289.6 213.421 289.62C222.211 289.62 222.991 288.86 222.991 279.93C223.107 278.599 223.107 277.261 222.991 275.93C222.041 270.58 224.531 268.33 229.561 266.93C247.221 262.1 254.561 250.75 255.061 232.51C255.401 219.14 245.251 209.17 233.151 206.78C223.671 204.9 214.208 202.9 204.761 200.78C196.761 198.98 192.191 194.27 191.451 187.4C190.711 180.53 194.451 175.21 202.001 171.8C211.391 167.55 230.091 170.41 233.571 183.09C233.934 183.881 234.475 184.577 235.151 185.123C235.828 185.67 236.622 186.052 237.471 186.24C240.914 186.765 244.41 186.835 247.871 186.45C250.921 186.1 252.101 184.4 251.181 180.78C248.621 170.78 242.791 162.49 233.241 160.21C221.991 157.52 220.931 151.13 221.941 142.04C222.101 140.61 221.311 137.84 220.641 137.73C216.351 137.06 211.861 136.24 207.641 136.88C203.911 137.45 204.721 141.46 204.721 144.38C204.721 155.19 204.611 154.95 194.721 158.79C178.211 165.16 171.531 175.33 173.151 192.85C174.201 204.28 182.341 212.31 196.491 215.85C205.061 217.99 213.871 219.18 222.491 221.1C232.571 223.34 237.571 230.19 236.311 239.1C234.961 248.53 228.521 252.26 220.231 254.16C209.421 256.65 192.231 253.41 189.341 238.72C189.025 237.877 188.509 237.122 187.839 236.52C187.169 235.917 186.364 235.485 185.491 235.26C181.872 234.755 178.2 234.755 174.581 235.26C173.241 235.46 171.151 237.68 171.211 238.89C171.471 241.816 172.204 244.68 173.381 247.37C178.041 259.07 187.551 264.89 199.201 267.37C203.831 268.37 205.401 270.3 204.761 274.68C204.669 275.691 204.649 276.707 204.701 277.72H204.691ZM329.381 213.27C328.381 205.41 327.861 197.45 326.241 189.72C321.421 166.8 310.871 146.72 293.601 130.86C285.601 123.48 276.281 117.36 267.051 111.46C261.721 108.06 255.431 106.13 249.481 103.77C246.591 102.63 244.001 103.32 243.721 106.97C243.471 110.44 243.171 114.06 243.881 117.41C244.17 118.557 244.697 119.631 245.427 120.561C246.158 121.491 247.076 122.258 248.121 122.81C263.491 128.863 277.124 138.627 287.801 151.23C302.551 168.69 310.381 189 310.611 211.55C310.841 234.62 303.461 255.55 288.611 273.76C278.151 286.65 265.501 296.37 250.231 302.37C245.031 304.37 243.171 307.09 243.561 312.19C243.701 314.01 243.561 315.85 243.561 317.68C243.711 322.23 245.141 323.31 249.501 321.9C271.445 314.971 290.708 301.426 304.651 283.12C320.541 262.57 328.921 239.45 329.391 213.27H329.381ZM184.201 112.74C184.201 111.9 184.201 111.07 184.201 110.24C184.201 103.91 182.991 102.72 176.981 104.58C162.151 109.17 149.091 117.15 137.531 127.32C119.441 143.25 107.171 163.03 101.991 186.64C99.8513 196.43 98.2513 206.7 98.7713 216.64C99.5613 231.73 101.651 246.96 109.621 260.4C115.241 269.86 120.521 279.7 127.411 288.17C138.951 302.36 154.231 311.94 170.921 319.28C183.921 324.99 184.631 322.65 184.231 310.57C184.101 306.63 182.361 304.32 178.651 302.81C155.491 293.39 137.941 277.81 127.051 255.09C116.741 233.6 114.251 211.57 120.701 188.27C129.151 157.72 148.051 136.74 176.571 123.94C184.101 120.54 184.201 120.77 184.201 112.74Z" fill="#FF7C06"/>
</svg>
