<svg width="426" height="426" viewBox="0 0 426 426" fill="none" xmlns="http://www.w3.org/2000/svg">
<path d="M0.000959879 212.643C0.35096 94.8726 96.081 -0.577371 213.271 0.00262934C331.271 0.592629 426.371 96.1727 425.711 213.433C425.051 331.253 330.001 426.033 212.711 425.823C95.0609 425.623 -0.34904 330.013 0.000959879 212.643ZM34.0609 212.783C33.9609 311.383 113.751 391.423 212.481 391.783C311.211 392.143 391.561 311.903 391.661 213.053C391.751 114.413 312.001 34.4227 213.231 34.0527C114.461 33.6827 34.1609 113.913 34.0609 212.783Z" fill="#FF7C06"/>
<path d="M212.819 51.0928C234.075 51.0915 255.123 55.2781 274.76 63.4136C294.398 71.5491 312.24 83.474 327.267 98.507C342.295 113.54 354.213 131.386 362.341 151.027C370.469 170.667 374.648 191.717 374.639 212.973C374.639 302.373 302.009 374.863 212.639 374.743C123.489 374.613 51.1391 302.243 51.0391 213.083C50.9691 123.753 123.479 51.1228 212.819 51.0928ZM185.689 261.583C180.149 260.973 174.889 260.583 169.689 259.793C153.689 257.483 137.819 254.633 123.489 246.613C114.429 241.533 114.109 237.363 123.489 233.293C134.489 228.513 146.209 225.143 157.839 221.963C166.039 219.713 169.839 216.803 168.779 211.183C167.719 205.563 163.249 203.333 154.909 205.023C139.399 208.153 123.909 211.713 110.769 221.073C95.2791 232.073 95.369 247.613 110.839 258.663C120.329 265.433 131.149 269.373 142.399 271.743C156.649 274.743 171.059 277.023 185.959 279.743C185.959 292.913 185.959 306.743 185.959 320.473C185.959 328.133 188.829 331.093 196.449 331.173C206.589 331.273 216.739 331.173 226.879 331.173C237.669 331.173 239.809 329.043 239.809 318.433V278.993C248.289 277.903 256.379 277.103 264.389 275.783C280.819 273.083 297.089 269.573 311.589 260.833C331.589 248.833 331.589 230.903 311.649 218.833C297.739 210.423 282.149 206.983 266.409 204.183C261.899 203.383 257.789 206.773 256.969 211.183C256.641 213.257 257.093 215.379 258.238 217.139C259.383 218.899 261.14 220.172 263.169 220.713C264.909 221.223 266.789 221.303 268.519 221.853C279.519 225.383 290.659 228.693 301.519 232.783C304.579 233.933 306.729 237.463 309.309 239.893C306.809 242.213 304.669 245.203 301.759 246.743C282.579 256.923 261.539 259.423 240.169 261.483V165.483H245.899C261.699 165.483 277.499 165.483 293.299 165.483C301.299 165.483 304.239 162.573 304.299 154.713C304.379 143.906 304.379 133.096 304.299 122.283C304.229 114.603 301.369 111.713 293.679 111.713C239.786 111.673 185.899 111.673 132.019 111.713C124.389 111.713 121.639 114.603 121.589 122.413C121.516 133.219 121.516 144.033 121.589 154.853C121.639 162.543 124.509 165.443 132.149 165.483C148.149 165.553 164.079 165.483 180.049 165.483H185.689V261.583Z" fill="#FF7C06"/>
</svg>
