<svg width="37" height="38" viewBox="0 0 37 38" fill="none" xmlns="http://www.w3.org/2000/svg">
<rect x="9.23828" y="3.61914" width="18.0952" height="28.9524" fill="white"/>
<rect x="2" y="5.42871" width="32.5714" height="25.3333" fill="white"/>
<rect x="3.80859" y="28.9521" width="1.80952" height="3.61905" transform="rotate(-180 3.80859 28.9521)" fill="#B5B5B5"/>
<rect x="5.62109" y="32.5713" width="1.80952" height="3.61905" transform="rotate(-180 5.62109 32.5713)" fill="#B5B5B5"/>
<rect x="7.42969" y="34.3809" width="1.80952" height="3.61905" transform="rotate(-180 7.42969 34.3809)" fill="#B5B5B5"/>
<rect x="29.1445" y="34.3809" width="1.80952" height="3.61905" transform="rotate(-180 29.1445 34.3809)" fill="#B5B5B5"/>
<rect x="30.9531" y="34.3809" width="1.80952" height="3.61905" transform="rotate(-180 30.9531 34.3809)" fill="#B5B5B5"/>
<rect x="32.7617" y="32.5713" width="1.80952" height="3.61905" transform="rotate(-180 32.7617 32.5713)" fill="#B5B5B5"/>
<rect x="34.5742" y="28.9521" width="1.80952" height="3.61905" transform="rotate(-180 34.5742 28.9521)" fill="#B5B5B5"/>
<rect x="9.23828" y="34.3809" width="1.80952" height="3.61905" transform="rotate(-180 9.23828 34.3809)" fill="#B5B5B5"/>
<rect x="27.3359" y="36.1904" width="18.0952" height="3.61905" transform="rotate(-180 27.3359 36.1904)" fill="#B5B5B5"/>
<rect x="9.23828" width="18.0952" height="1.80952" fill="#393939"/>
<rect x="5.62109" y="1.80957" width="3.61905" height="1.80952" fill="#393939"/>
<rect width="3.61905" height="1.80952" transform="matrix(-1 0 0 1 30.9531 1.80957)" fill="#393939"/>
<rect x="2" y="32.5713" width="3.61905" height="1.80952" transform="rotate(-90 2 32.5713)" fill="#393939"/>
<rect width="3.61905" height="1.80952" transform="matrix(4.37114e-08 -1 -1 -4.37114e-08 34.5742 32.5713)" fill="#393939"/>
<rect x="3.80859" y="3.61914" width="1.80952" height="1.80952" fill="#393939"/>
<rect width="1.80952" height="1.80952" transform="matrix(-1 0 0 1 32.7617 3.61914)" fill="#393939"/>
<rect x="3.80859" y="34.3809" width="1.80952" height="1.80952" transform="rotate(-90 3.80859 34.3809)" fill="#393939"/>
<rect width="1.80952" height="1.80952" transform="matrix(4.37114e-08 -1 -1 -4.37114e-08 32.7617 34.3809)" fill="#393939"/>
<rect x="2" y="5.42871" width="1.80952" height="3.61905" fill="#393939"/>
<rect width="1.80952" height="3.61905" transform="matrix(-1 0 0 1 34.5742 5.42871)" fill="#393939"/>
<rect x="5.62109" y="36.1904" width="1.80952" height="3.61905" transform="rotate(-90 5.62109 36.1904)" fill="#393939"/>
<rect width="1.80952" height="3.61905" transform="matrix(4.37114e-08 -1 -1 -4.37114e-08 30.9531 36.1904)" fill="#393939"/>
<rect x="9.23828" y="36.1904" width="18.0952" height="1.80952" fill="#393939"/>
<rect x="36.3828" y="9.04785" width="19.9048" height="1.80952" transform="rotate(90 36.3828 9.04785)" fill="#393939"/>
<rect x="2" y="9.04785" width="19.9048" height="1.80952" transform="rotate(90 2 9.04785)" fill="#393939"/>
<rect x="27.3359" y="1.80957" width="1.80952" height="18.0952" transform="rotate(90 27.3359 1.80957)" fill="#E8E8E8"/>
<rect x="9.23828" y="32.5713" width="1.80952" height="18.0952" transform="rotate(-90 9.23828 32.5713)" fill="#E8E8E8"/>
<rect x="9.23828" y="3.61914" width="1.80952" height="3.61905" transform="rotate(90 9.23828 3.61914)" fill="#E8E8E8"/>
<rect x="27.3359" y="30.7617" width="1.80952" height="3.61905" transform="rotate(-90 27.3359 30.7617)" fill="#E8E8E8"/>
<rect x="5.62109" y="5.42871" width="1.80952" height="1.80952" transform="rotate(90 5.62109 5.42871)" fill="#E8E8E8"/>
<rect x="30.9531" y="28.9521" width="1.80952" height="1.80952" transform="rotate(-90 30.9531 28.9521)" fill="#E8E8E8"/>
<rect x="3.80859" y="9.04785" width="1.80952" height="1.80952" transform="rotate(90 3.80859 9.04785)" fill="#E8E8E8"/>
<rect x="32.7617" y="25.333" width="1.80952" height="1.80952" transform="rotate(-90 32.7617 25.333)" fill="#E8E8E8"/>
<rect x="32.7617" y="5.42871" width="1.80952" height="1.80952" transform="rotate(90 32.7617 5.42871)" fill="#E8E8E8"/>
<rect x="3.80859" y="28.9521" width="1.80952" height="1.80952" transform="rotate(-90 3.80859 28.9521)" fill="#E8E8E8"/>
<rect x="34.5742" y="9.04785" width="1.80952" height="1.80952" transform="rotate(90 34.5742 9.04785)" fill="#E8E8E8"/>
<rect x="2" y="25.333" width="1.80952" height="1.80952" transform="rotate(-90 2 25.333)" fill="#E8E8E8"/>
<rect x="30.9531" y="3.61914" width="1.80952" height="3.61905" transform="rotate(90 30.9531 3.61914)" fill="#E8E8E8"/>
<rect x="5.62109" y="30.7617" width="1.80952" height="3.61905" transform="rotate(-90 5.62109 30.7617)" fill="#E8E8E8"/>
<path d="M26.1481 10.3513C28.4068 13.8381 29.5223 17.7712 29.1053 22.299C29.1035 22.3182 29.094 22.3358 29.079 22.3473C27.3686 23.666 25.7113 24.4663 24.0773 24.9971C24.0646 25.0011 24.051 25.0009 24.0384 24.9964C24.0258 24.992 24.0148 24.9835 24.0071 24.9721C23.6296 24.4207 23.2866 23.8393 22.9861 23.2287C22.9688 23.1928 22.9846 23.1495 23.0201 23.1353C23.5648 22.9198 24.0828 22.6615 24.5811 22.3557C24.6203 22.3316 24.6228 22.2725 24.5866 22.2442C24.4808 22.1617 24.3761 22.0751 24.2758 21.9885C24.2571 21.9725 24.2318 21.9693 24.2106 21.9801C20.9758 23.5484 17.4323 23.5484 14.1593 21.9801C14.1381 21.9701 14.1128 21.9735 14.0946 21.9893C13.9946 22.0759 13.8896 22.1617 13.7848 22.2442C13.7486 22.2725 13.7516 22.3316 13.7911 22.3557C14.2893 22.6557 14.8073 22.9198 15.3513 23.1363C15.3866 23.1505 15.4033 23.1928 15.3858 23.2287C15.0918 23.8401 14.7488 24.4215 14.3643 24.9729C14.3476 24.9952 14.3201 25.0055 14.2941 24.9971C12.6678 24.4663 11.0106 23.666 9.30008 22.3473C9.28583 22.3358 9.27558 22.3174 9.27408 22.2982C8.92558 18.3817 9.63583 14.4161 12.2286 10.3505C12.2348 10.3398 12.2443 10.3314 12.2553 10.3264C13.5311 9.71165 14.8978 9.25939 16.3263 9.00111C16.3523 8.99691 16.3783 9.00951 16.3918 9.03365C16.5683 9.36176 16.7701 9.78252 16.9066 10.1264C18.4123 9.88489 19.9416 9.88489 21.4788 10.1264C21.6153 9.78987 21.8101 9.36176 21.9858 9.03365C21.9921 9.02167 22.0018 9.01208 22.0135 9.00623C22.0253 9.00039 22.0385 8.99859 22.0513 9.00111C23.4806 9.26018 24.8473 9.71244 26.1221 10.3264C26.1333 10.3314 26.1426 10.3398 26.1481 10.3513ZM17.6721 17.798C17.6878 16.6401 16.8838 15.6821 15.8746 15.6821C14.8736 15.6821 14.0773 16.6317 14.0773 17.798C14.0773 18.9639 14.8893 19.9136 15.8746 19.9136C16.8758 19.9136 17.6721 18.9639 17.6721 17.798ZM24.3176 17.798C24.3333 16.6401 23.5293 15.6821 22.5203 15.6821C21.5191 15.6821 20.7228 16.6317 20.7228 17.798C20.7228 18.9639 21.5348 19.9136 22.5203 19.9136C23.5293 19.9136 24.3176 18.9639 24.3176 17.798Z" fill="#FF7C06"/>
</svg>
