<svg id="Слой_1" data-name="Слой 1" xmlns="http://www.w3.org/2000/svg" viewBox="0 0 52.05 58.18"><defs><style>.cls-1{fill:#fff;stroke:#bcbcbc;}.cls-2{fill:#ff7c06;}</style></defs><circle class="cls-1" cx="26.02" cy="29.09" r="18.5"/><path class="cls-2" d="M35.07,20.78a22.18,22.18,0,0,1,3.84,14.93.06.06,0,0,1,0,.06,21.6,21.6,0,0,1-6.51,3.32h0a.05.05,0,0,1,0,0A17,17,0,0,1,31,36.88a.08.08,0,0,1,0-.12,12.65,12.65,0,0,0,2-1,.09.09,0,0,0,0-.14l-.41-.32a.08.08,0,0,0-.08,0,15.26,15.26,0,0,1-13.07,0,.08.08,0,0,0-.08,0l-.41.31a.09.09,0,0,0,0,.14,13.56,13.56,0,0,0,2,1,.09.09,0,0,1,0,.12,16.7,16.7,0,0,1-1.33,2.18.1.1,0,0,1-.09,0,21.67,21.67,0,0,1-6.5-3.32.09.09,0,0,1,0-.06A22.31,22.31,0,0,1,17,20.78s0,0,0,0a20.91,20.91,0,0,1,5.29-1.66s.07,0,.08,0a12.38,12.38,0,0,1,.67,1.37,19.78,19.78,0,0,1,5.95,0,13.21,13.21,0,0,1,.66-1.37,0,0,0,0,1,0,0h0A20.91,20.91,0,0,1,35,20.75S35.06,20.76,35.07,20.78Zm-11,9.31a2.49,2.49,0,0,0-2.34-2.65,2.66,2.66,0,0,0,0,5.29A2.5,2.5,0,0,0,24.05,30.09Zm8.64,0a2.49,2.49,0,0,0-2.34-2.65,2.66,2.66,0,0,0,0,5.29A2.5,2.5,0,0,0,32.69,30.09Z"/></svg>