<svg id="Слой_1" data-name="Слой 1" xmlns="http://www.w3.org/2000/svg" viewBox="0 0 52.05 58.18"><defs><style>.cls-1{fill:#fff;stroke:#bcbcbc;}.cls-2{fill:#ff7c06;}</style></defs><circle class="cls-1" cx="26.02" cy="29.09" r="18.5"/><path class="cls-2" d="M21.83,37.09H18.3v-12h3.53ZM20.06,23.43a2.13,2.13,0,0,1-2-2.18,2.26,2.26,0,0,1,.6-1.53,2,2,0,0,1,1.44-.63,2,2,0,0,1,1.45.63,2.25,2.25,0,0,1,.59,1.53A2.12,2.12,0,0,1,20.06,23.43ZM31.5,37.09V31.24c0-1.4,0-3.18-1.83-3.18s-2.11,1.51-2.11,3.08v6H24v-12h3.38v1.64h0a3.68,3.68,0,0,1,3.33-1.94c3.57,0,4.22,2.49,4.22,5.72v6.6Z"/></svg>