<svg width="37" height="38" viewBox="0 0 37 38" fill="none" xmlns="http://www.w3.org/2000/svg">
<rect x="9.62109" y="3.61914" width="18.0952" height="28.9524" fill="white"/>
<rect x="2.38281" y="5.42871" width="32.5714" height="25.3333" fill="white"/>
<rect x="4.19141" y="28.9521" width="1.80952" height="3.61905" transform="rotate(-180 4.19141 28.9521)" fill="#B5B5B5"/>
<rect x="6.00391" y="32.5713" width="1.80952" height="3.61905" transform="rotate(-180 6.00391 32.5713)" fill="#B5B5B5"/>
<rect x="7.8125" y="34.3809" width="1.80952" height="3.61905" transform="rotate(-180 7.8125 34.3809)" fill="#B5B5B5"/>
<rect x="29.5273" y="34.3809" width="1.80952" height="3.61905" transform="rotate(-180 29.5273 34.3809)" fill="#B5B5B5"/>
<rect x="31.3359" y="34.3809" width="1.80952" height="3.61905" transform="rotate(-180 31.3359 34.3809)" fill="#B5B5B5"/>
<rect x="33.1445" y="32.5713" width="1.80952" height="3.61905" transform="rotate(-180 33.1445 32.5713)" fill="#B5B5B5"/>
<rect x="34.957" y="28.9521" width="1.80952" height="3.61905" transform="rotate(-180 34.957 28.9521)" fill="#B5B5B5"/>
<rect x="9.62109" y="34.3809" width="1.80952" height="3.61905" transform="rotate(-180 9.62109 34.3809)" fill="#B5B5B5"/>
<rect x="27.7188" y="36.1904" width="18.0952" height="3.61905" transform="rotate(-180 27.7188 36.1904)" fill="#B5B5B5"/>
<rect x="9.62109" width="18.0952" height="1.80952" fill="#393939"/>
<rect x="6.00391" y="1.80957" width="3.61905" height="1.80952" fill="#393939"/>
<rect width="3.61905" height="1.80952" transform="matrix(-1 0 0 1 31.3359 1.80957)" fill="#393939"/>
<rect x="2.38281" y="32.5713" width="3.61905" height="1.80952" transform="rotate(-90 2.38281 32.5713)" fill="#393939"/>
<rect width="3.61905" height="1.80952" transform="matrix(4.37114e-08 -1 -1 -4.37114e-08 34.957 32.5713)" fill="#393939"/>
<rect x="4.19141" y="3.61914" width="1.80952" height="1.80952" fill="#393939"/>
<rect width="1.80952" height="1.80952" transform="matrix(-1 0 0 1 33.1445 3.61914)" fill="#393939"/>
<rect x="4.19141" y="34.3809" width="1.80952" height="1.80952" transform="rotate(-90 4.19141 34.3809)" fill="#393939"/>
<rect width="1.80952" height="1.80952" transform="matrix(4.37114e-08 -1 -1 -4.37114e-08 33.1445 34.3809)" fill="#393939"/>
<rect x="2.38281" y="5.42871" width="1.80952" height="3.61905" fill="#393939"/>
<rect width="1.80952" height="3.61905" transform="matrix(-1 0 0 1 34.957 5.42871)" fill="#393939"/>
<rect x="6.00391" y="36.1904" width="1.80952" height="3.61905" transform="rotate(-90 6.00391 36.1904)" fill="#393939"/>
<rect width="1.80952" height="3.61905" transform="matrix(4.37114e-08 -1 -1 -4.37114e-08 31.3359 36.1904)" fill="#393939"/>
<rect x="9.62109" y="36.1904" width="18.0952" height="1.80952" fill="#393939"/>
<rect x="36.7656" y="9.04785" width="19.9048" height="1.80952" transform="rotate(90 36.7656 9.04785)" fill="#393939"/>
<rect x="2.38281" y="9.04785" width="19.9048" height="1.80952" transform="rotate(90 2.38281 9.04785)" fill="#393939"/>
<rect x="27.7188" y="1.80957" width="1.80952" height="18.0952" transform="rotate(90 27.7188 1.80957)" fill="#E8E8E8"/>
<rect x="9.62109" y="32.5713" width="1.80952" height="18.0952" transform="rotate(-90 9.62109 32.5713)" fill="#E8E8E8"/>
<rect x="9.62109" y="3.61914" width="1.80952" height="3.61905" transform="rotate(90 9.62109 3.61914)" fill="#E8E8E8"/>
<rect x="27.7188" y="30.7617" width="1.80952" height="3.61905" transform="rotate(-90 27.7188 30.7617)" fill="#E8E8E8"/>
<rect x="6.00391" y="5.42871" width="1.80952" height="1.80952" transform="rotate(90 6.00391 5.42871)" fill="#E8E8E8"/>
<rect x="31.3359" y="28.9521" width="1.80952" height="1.80952" transform="rotate(-90 31.3359 28.9521)" fill="#E8E8E8"/>
<rect x="4.19141" y="9.04785" width="1.80952" height="1.80952" transform="rotate(90 4.19141 9.04785)" fill="#E8E8E8"/>
<rect x="33.1445" y="25.333" width="1.80952" height="1.80952" transform="rotate(-90 33.1445 25.333)" fill="#E8E8E8"/>
<rect x="33.1445" y="5.42871" width="1.80952" height="1.80952" transform="rotate(90 33.1445 5.42871)" fill="#E8E8E8"/>
<rect x="4.19141" y="28.9521" width="1.80952" height="1.80952" transform="rotate(-90 4.19141 28.9521)" fill="#E8E8E8"/>
<rect x="34.957" y="9.04785" width="1.80952" height="1.80952" transform="rotate(90 34.957 9.04785)" fill="#E8E8E8"/>
<rect x="2.38281" y="25.333" width="1.80952" height="1.80952" transform="rotate(-90 2.38281 25.333)" fill="#E8E8E8"/>
<rect x="31.3359" y="3.61914" width="1.80952" height="3.61905" transform="rotate(90 31.3359 3.61914)" fill="#E8E8E8"/>
<rect x="6.00391" y="30.7617" width="1.80952" height="3.61905" transform="rotate(-90 6.00391 30.7617)" fill="#E8E8E8"/>
<path d="M15.3795 26H11.855V13.9823H15.3795V26ZM13.6154 12.343C12.4883 12.343 11.5742 11.3546 11.5742 10.1613C11.5742 9.58805 11.7893 9.03833 12.1721 8.63302C12.5548 8.2277 13.074 8 13.6154 8C14.1567 8 14.6759 8.2277 15.0587 8.63302C15.4414 9.03833 15.6565 9.58805 15.6565 10.1613C15.6565 11.3546 14.742 12.343 13.6154 12.343ZM28.5704 26H25.0535V20.1499C25.0535 18.7556 25.027 16.9677 23.2211 16.9677C21.3887 16.9677 21.1079 18.4824 21.1079 20.0494V26H17.5872V13.9823H20.9675V15.6216H21.0168C21.4873 14.6774 22.6367 13.681 24.3515 13.681C27.9185 13.681 28.5742 16.1681 28.5742 19.3985V26H28.5704Z" fill="#FF7C06"/>
</svg>
