<svg width="37" height="38" viewBox="0 0 37 38" fill="none" xmlns="http://www.w3.org/2000/svg">
<rect x="9.04688" y="3.61914" width="18.0952" height="28.9524" fill="white"/>
<rect x="1.80859" y="5.42871" width="32.5714" height="25.3333" fill="white"/>
<rect x="3.61719" y="28.9521" width="1.80952" height="3.61905" transform="rotate(-180 3.61719 28.9521)" fill="#B5B5B5"/>
<rect x="5.42969" y="32.5713" width="1.80952" height="3.61905" transform="rotate(-180 5.42969 32.5713)" fill="#B5B5B5"/>
<rect x="7.23828" y="34.3809" width="1.80952" height="3.61905" transform="rotate(-180 7.23828 34.3809)" fill="#B5B5B5"/>
<rect x="28.9531" y="34.3809" width="1.80952" height="3.61905" transform="rotate(-180 28.9531 34.3809)" fill="#B5B5B5"/>
<rect x="30.7617" y="34.3809" width="1.80952" height="3.61905" transform="rotate(-180 30.7617 34.3809)" fill="#B5B5B5"/>
<rect x="32.5703" y="32.5713" width="1.80952" height="3.61905" transform="rotate(-180 32.5703 32.5713)" fill="#B5B5B5"/>
<rect x="34.3828" y="28.9521" width="1.80952" height="3.61905" transform="rotate(-180 34.3828 28.9521)" fill="#B5B5B5"/>
<rect x="9.04688" y="34.3809" width="1.80952" height="3.61905" transform="rotate(-180 9.04688 34.3809)" fill="#B5B5B5"/>
<rect x="27.1445" y="36.1904" width="18.0952" height="3.61905" transform="rotate(-180 27.1445 36.1904)" fill="#B5B5B5"/>
<rect x="9.04688" width="18.0952" height="1.80952" fill="#393939"/>
<rect x="5.42969" y="1.80957" width="3.61905" height="1.80952" fill="#393939"/>
<rect width="3.61905" height="1.80952" transform="matrix(-1 0 0 1 30.7617 1.80957)" fill="#393939"/>
<rect x="1.80859" y="32.5713" width="3.61905" height="1.80952" transform="rotate(-90 1.80859 32.5713)" fill="#393939"/>
<rect width="3.61905" height="1.80952" transform="matrix(4.37114e-08 -1 -1 -4.37114e-08 34.3828 32.5713)" fill="#393939"/>
<rect x="3.61719" y="3.61914" width="1.80952" height="1.80952" fill="#393939"/>
<rect width="1.80952" height="1.80952" transform="matrix(-1 0 0 1 32.5703 3.61914)" fill="#393939"/>
<rect x="3.61719" y="34.3809" width="1.80952" height="1.80952" transform="rotate(-90 3.61719 34.3809)" fill="#393939"/>
<rect width="1.80952" height="1.80952" transform="matrix(4.37114e-08 -1 -1 -4.37114e-08 32.5703 34.3809)" fill="#393939"/>
<rect x="1.80859" y="5.42871" width="1.80952" height="3.61905" fill="#393939"/>
<rect width="1.80952" height="3.61905" transform="matrix(-1 0 0 1 34.3828 5.42871)" fill="#393939"/>
<rect x="5.42969" y="36.1904" width="1.80952" height="3.61905" transform="rotate(-90 5.42969 36.1904)" fill="#393939"/>
<rect width="1.80952" height="3.61905" transform="matrix(4.37114e-08 -1 -1 -4.37114e-08 30.7617 36.1904)" fill="#393939"/>
<rect x="9.04688" y="36.1904" width="18.0952" height="1.80952" fill="#393939"/>
<rect x="36.1914" y="9.04785" width="19.9048" height="1.80952" transform="rotate(90 36.1914 9.04785)" fill="#393939"/>
<rect x="1.80859" y="9.04785" width="19.9048" height="1.80952" transform="rotate(90 1.80859 9.04785)" fill="#393939"/>
<rect x="27.1445" y="1.80957" width="1.80952" height="18.0952" transform="rotate(90 27.1445 1.80957)" fill="#E8E8E8"/>
<rect x="9.04688" y="32.5713" width="1.80952" height="18.0952" transform="rotate(-90 9.04688 32.5713)" fill="#E8E8E8"/>
<rect x="9.04688" y="3.61914" width="1.80952" height="3.61905" transform="rotate(90 9.04688 3.61914)" fill="#E8E8E8"/>
<rect x="27.1445" y="30.7617" width="1.80952" height="3.61905" transform="rotate(-90 27.1445 30.7617)" fill="#E8E8E8"/>
<rect x="5.42969" y="5.42871" width="1.80952" height="1.80952" transform="rotate(90 5.42969 5.42871)" fill="#E8E8E8"/>
<rect x="30.7617" y="28.9521" width="1.80952" height="1.80952" transform="rotate(-90 30.7617 28.9521)" fill="#E8E8E8"/>
<rect x="3.61719" y="9.04785" width="1.80952" height="1.80952" transform="rotate(90 3.61719 9.04785)" fill="#E8E8E8"/>
<rect x="32.5703" y="25.333" width="1.80952" height="1.80952" transform="rotate(-90 32.5703 25.333)" fill="#E8E8E8"/>
<rect x="32.5703" y="5.42871" width="1.80952" height="1.80952" transform="rotate(90 32.5703 5.42871)" fill="#E8E8E8"/>
<rect x="3.61719" y="28.9521" width="1.80952" height="1.80952" transform="rotate(-90 3.61719 28.9521)" fill="#E8E8E8"/>
<rect x="34.3828" y="9.04785" width="1.80952" height="1.80952" transform="rotate(90 34.3828 9.04785)" fill="#E8E8E8"/>
<rect x="1.80859" y="25.333" width="1.80952" height="1.80952" transform="rotate(-90 1.80859 25.333)" fill="#E8E8E8"/>
<rect x="30.7617" y="3.61914" width="1.80952" height="3.61905" transform="rotate(90 30.7617 3.61914)" fill="#E8E8E8"/>
<rect x="5.42969" y="30.7617" width="1.80952" height="3.61905" transform="rotate(-90 5.42969 30.7617)" fill="#E8E8E8"/>
<path d="M23.806 9.10725L8.41475 17.984C7.81371 18.3292 7.89008 19.1658 8.4878 19.4181L12.0177 20.8986L21.558 12.4933C21.7406 12.3306 21.9996 12.5796 21.8435 12.7688L13.844 22.512V25.1843C13.844 25.9677 14.7904 26.2765 15.2553 25.7088L17.364 23.1427L21.5015 24.8756C21.973 25.0747 22.511 24.7793 22.5973 24.2714L24.9882 9.93052C25.1011 9.25995 24.3805 8.77528 23.806 9.10725Z" fill="#FF7C06"/>
</svg>
