<svg id="Слой_1" data-name="Слой 1" xmlns="http://www.w3.org/2000/svg" viewBox="0 0 52.05 58.18"><defs><style>.cls-1{fill:#fff;stroke:#bcbcbc;}.cls-2{fill:#ff7c06;}</style></defs><circle class="cls-1" cx="26.02" cy="29.09" r="18.5"/><path class="cls-2" d="M33.07,24.33c0,.18,0,.37,0,.55,0,5.67-3.92,12.21-11.08,12.21a10.26,10.26,0,0,1-6-1.93,7.3,7.3,0,0,0,5.78-1.78,4,4,0,0,1-3.64-3,4.4,4.4,0,0,0,.73.07,3.94,3.94,0,0,0,1-.15,4.21,4.21,0,0,1-3.13-4.21v-.05a3.82,3.82,0,0,0,1.76.54A4.43,4.43,0,0,1,16.82,23a4.58,4.58,0,0,1,.53-2.17,10.74,10.74,0,0,0,8,4.49,5.34,5.34,0,0,1-.1-1,4.11,4.11,0,0,1,3.9-4.29A3.73,3.73,0,0,1,32,21.44a7.16,7.16,0,0,0,2.47-1,4.23,4.23,0,0,1-1.71,2.36A7.24,7.24,0,0,0,35,22.11,9,9,0,0,1,33.07,24.33Z"/></svg>