<svg width="37" height="38" viewBox="0 0 37 38" fill="none" xmlns="http://www.w3.org/2000/svg">
<rect x="9.42969" y="3.61914" width="18.0952" height="28.9524" fill="white"/>
<rect x="2.19141" y="5.42871" width="32.5714" height="25.3333" fill="white"/>
<rect x="4" y="28.9521" width="1.80952" height="3.61905" transform="rotate(-180 4 28.9521)" fill="#B5B5B5"/>
<rect x="5.8125" y="32.5713" width="1.80952" height="3.61905" transform="rotate(-180 5.8125 32.5713)" fill="#B5B5B5"/>
<rect x="7.62109" y="34.3809" width="1.80952" height="3.61905" transform="rotate(-180 7.62109 34.3809)" fill="#B5B5B5"/>
<rect x="29.3359" y="34.3809" width="1.80952" height="3.61905" transform="rotate(-180 29.3359 34.3809)" fill="#B5B5B5"/>
<rect x="31.1445" y="34.3809" width="1.80952" height="3.61905" transform="rotate(-180 31.1445 34.3809)" fill="#B5B5B5"/>
<rect x="32.9531" y="32.5713" width="1.80952" height="3.61905" transform="rotate(-180 32.9531 32.5713)" fill="#B5B5B5"/>
<rect x="34.7656" y="28.9521" width="1.80952" height="3.61905" transform="rotate(-180 34.7656 28.9521)" fill="#B5B5B5"/>
<rect x="9.42969" y="34.3809" width="1.80952" height="3.61905" transform="rotate(-180 9.42969 34.3809)" fill="#B5B5B5"/>
<rect x="27.5273" y="36.1904" width="18.0952" height="3.61905" transform="rotate(-180 27.5273 36.1904)" fill="#B5B5B5"/>
<rect x="9.42969" width="18.0952" height="1.80952" fill="#393939"/>
<rect x="5.8125" y="1.80957" width="3.61905" height="1.80952" fill="#393939"/>
<rect width="3.61905" height="1.80952" transform="matrix(-1 0 0 1 31.1445 1.80957)" fill="#393939"/>
<rect x="2.19141" y="32.5713" width="3.61905" height="1.80952" transform="rotate(-90 2.19141 32.5713)" fill="#393939"/>
<rect width="3.61905" height="1.80952" transform="matrix(4.37114e-08 -1 -1 -4.37114e-08 34.7656 32.5713)" fill="#393939"/>
<rect x="4" y="3.61914" width="1.80952" height="1.80952" fill="#393939"/>
<rect width="1.80952" height="1.80952" transform="matrix(-1 0 0 1 32.9531 3.61914)" fill="#393939"/>
<rect x="4" y="34.3809" width="1.80952" height="1.80952" transform="rotate(-90 4 34.3809)" fill="#393939"/>
<rect width="1.80952" height="1.80952" transform="matrix(4.37114e-08 -1 -1 -4.37114e-08 32.9531 34.3809)" fill="#393939"/>
<rect x="2.19141" y="5.42871" width="1.80952" height="3.61905" fill="#393939"/>
<rect width="1.80952" height="3.61905" transform="matrix(-1 0 0 1 34.7656 5.42871)" fill="#393939"/>
<rect x="5.8125" y="36.1904" width="1.80952" height="3.61905" transform="rotate(-90 5.8125 36.1904)" fill="#393939"/>
<rect width="1.80952" height="3.61905" transform="matrix(4.37114e-08 -1 -1 -4.37114e-08 31.1445 36.1904)" fill="#393939"/>
<rect x="9.42969" y="36.1904" width="18.0952" height="1.80952" fill="#393939"/>
<rect x="36.5742" y="9.04785" width="19.9048" height="1.80952" transform="rotate(90 36.5742 9.04785)" fill="#393939"/>
<rect x="2.19141" y="9.04785" width="19.9048" height="1.80952" transform="rotate(90 2.19141 9.04785)" fill="#393939"/>
<rect x="27.5273" y="1.80957" width="1.80952" height="18.0952" transform="rotate(90 27.5273 1.80957)" fill="#E8E8E8"/>
<rect x="9.42969" y="32.5713" width="1.80952" height="18.0952" transform="rotate(-90 9.42969 32.5713)" fill="#E8E8E8"/>
<rect x="9.42969" y="3.61914" width="1.80952" height="3.61905" transform="rotate(90 9.42969 3.61914)" fill="#E8E8E8"/>
<rect x="27.5273" y="30.7617" width="1.80952" height="3.61905" transform="rotate(-90 27.5273 30.7617)" fill="#E8E8E8"/>
<rect x="5.8125" y="5.42871" width="1.80952" height="1.80952" transform="rotate(90 5.8125 5.42871)" fill="#E8E8E8"/>
<rect x="31.1445" y="28.9521" width="1.80952" height="1.80952" transform="rotate(-90 31.1445 28.9521)" fill="#E8E8E8"/>
<rect x="4" y="9.04785" width="1.80952" height="1.80952" transform="rotate(90 4 9.04785)" fill="#E8E8E8"/>
<rect x="32.9531" y="25.333" width="1.80952" height="1.80952" transform="rotate(-90 32.9531 25.333)" fill="#E8E8E8"/>
<rect x="32.9531" y="5.42871" width="1.80952" height="1.80952" transform="rotate(90 32.9531 5.42871)" fill="#E8E8E8"/>
<rect x="4" y="28.9521" width="1.80952" height="1.80952" transform="rotate(-90 4 28.9521)" fill="#E8E8E8"/>
<rect x="34.7656" y="9.04785" width="1.80952" height="1.80952" transform="rotate(90 34.7656 9.04785)" fill="#E8E8E8"/>
<rect x="2.19141" y="25.333" width="1.80952" height="1.80952" transform="rotate(-90 2.19141 25.333)" fill="#E8E8E8"/>
<rect x="31.1445" y="3.61914" width="1.80952" height="3.61905" transform="rotate(90 31.1445 3.61914)" fill="#E8E8E8"/>
<rect x="5.8125" y="30.7617" width="1.80952" height="3.61905" transform="rotate(-90 5.8125 30.7617)" fill="#E8E8E8"/>
<path d="M26.4298 12.2367C26.4419 12.4226 26.4419 12.6086 26.4419 12.7945C26.4419 18.4656 22.5237 25 15.3625 25C13.1563 25 11.1068 24.2961 9.38281 23.0742C9.69628 23.1141 9.99764 23.1273 10.3232 23.1273C12.1436 23.1273 13.8194 22.45 15.1576 21.2945C13.4456 21.2547 12.011 20.0195 11.5167 18.3195C11.7578 18.3593 11.9989 18.3859 12.2521 18.3859C12.6017 18.3859 12.9514 18.3328 13.2769 18.2399C11.4926 17.8414 10.1544 16.1148 10.1544 14.0297V13.9766C10.6727 14.2953 11.2756 14.4945 11.9145 14.5211C10.8656 13.7507 10.1785 12.4359 10.1785 10.9484C10.1785 10.1515 10.3713 9.42108 10.7089 8.78357C12.6258 11.3867 15.5072 13.0867 18.7381 13.2726C18.6779 12.9539 18.6417 12.6219 18.6417 12.2898C18.6417 9.92576 20.3777 8 22.5357 8C23.6569 8 24.6696 8.51797 25.3809 9.35469C26.261 9.16876 27.1049 8.81015 27.8524 8.31875C27.563 9.31487 26.9482 10.1516 26.1404 10.6828C26.9241 10.5899 27.6836 10.3508 28.3828 10.0188C27.8524 10.8687 27.1893 11.6257 26.4298 12.2367Z" fill="#FF7C06"/>
</svg>
