<svg width="30" height="21" viewBox="0 0 30 21" fill="none" xmlns="http://www.w3.org/2000/svg">
<path d="M6.00002 21.001L3 21.001L3 18.001L6.00002 18.001L6.00002 21.001Z" fill="#16171A"/>
<path d="M9.00002 21.001L6 21.001L6 18.001L9.00002 18.001L9.00002 21.001Z" fill="#16171A"/>
<path d="M24 21.001L21 21.001L21 18.001L24 18.001L24 21.001Z" fill="#16171A"/>
<path d="M27 21.001L24 21.001L24 18.001L27 18.001L27 21.001Z" fill="#16171A"/>
<path d="M3.00002 18.001L0 18.001L5.2454e-07 15.001L3.00002 15.001L3.00002 18.001Z" fill="#16171A"/>
<path d="M6.00002 18.001L3 18.001L3 15.001L6.00002 15.001L6.00002 18.001Z" fill="#FAFDFF"/>
<path d="M9.00002 18.001L6 18.001L6 15.001L9.00002 15.001L9.00002 18.001Z" fill="#FAFDFF"/>
<path d="M12 18.001L9 18.001L9 15.001L12 15.001L12 18.001Z" fill="#16171A"/>
<path d="M21 18.001L18 18.001L18 15.001L21 15.001L21 18.001Z" fill="#16171A"/>
<path d="M24 18.001L21 18.001L21 15.001L24 15.001L24 18.001Z" fill="#FAFDFF"/>
<path d="M27 18.001L24 18.001L24 15.001L27 15.001L27 18.001Z" fill="#FFD100"/>
<path d="M30 18.001L27 18.001L27 15.001L30 15.001L30 18.001Z" fill="#16171A"/>
<path d="M3.00002 15.001L0 15.001L5.2454e-07 12.001L3.00002 12.001L3.00002 15.001Z" fill="#16171A"/>
<path d="M6.00002 15.001L3 15.001L3 12.001L6.00002 12.001L6.00002 15.001Z" fill="#FAFDFF"/>
<path d="M9.00002 15.001L6 15.001L6 12.001L9.00002 12.001L9.00002 15.001Z" fill="#FFD100"/>
<path d="M12 15.001L9 15.001L9 12.001L12 12.001L12 15.001Z" fill="#FAFDFF"/>
<path d="M15 15.001L12 15.001L12 12.001L15 12.001L15 15.001Z" fill="#16171A"/>
<path d="M18 15.001L15 15.001L15 12.001L18 12.001L18 15.001Z" fill="#16171A"/>
<path d="M21 15.001L18 15.001L18 12.001L21 12.001L21 15.001Z" fill="#FAFDFF"/>
<path d="M24 15.001L21 15.001L21 12.001L24 12.001L24 15.001Z" fill="#FFD100"/>
<path d="M27 15.001L24 15.001L24 12.001L27 12.001L27 15.001Z" fill="#FF8426"/>
<path d="M30 15.001L27 15.001L27 12.001L30 12.001L30 15.001Z" fill="#16171A"/>
<path d="M6.00002 12.001L3 12.001L3 9.00096L6.00002 9.00096L6.00002 12.001Z" fill="#16171A"/>
<path d="M9.00002 12.001L6 12.001L6 9.00096L9.00002 9.00096L9.00002 12.001Z" fill="#FF8426"/>
<path d="M12 12.001L9 12.001L9 9.00096L12 9.00096L12 12.001Z" fill="#FFD100"/>
<path d="M15 12.001L12 12.001L12 9.00096L15 9.00096L15 12.001Z" fill="#FAFDFF"/>
<path d="M18 12.001L15 12.001L15 9.00096L18 9.00096L18 12.001Z" fill="#FAFDFF"/>
<path d="M21 12.001L18 12.001L18 9.00096L21 9.00096L21 12.001Z" fill="#FFD100"/>
<path d="M24 12.001L21 12.001L21 9.00096L24 9.00096L24 12.001Z" fill="#FF8426"/>
<path d="M27 12.001L24 12.001L24 9.00096L27 9.00096L27 12.001Z" fill="#16171A"/>
<path d="M9.00002 9.00098L6 9.00098L6 6.00096L9.00002 6.00096L9.00002 9.00098Z" fill="#16171A"/>
<path d="M12 9.00098L9 9.00098L9 6.00096L12 6.00096L12 9.00098Z" fill="#FF8426"/>
<path d="M15 9.00098L12 9.00098L12 6.00096L15 6.00096L15 9.00098Z" fill="#FFD100"/>
<path d="M18 9.00098L15 9.00098L15 6.00096L18 6.00096L18 9.00098Z" fill="#FFD100"/>
<path d="M21 9.00098L18 9.00098L18 6.00096L21 6.00096L21 9.00098Z" fill="#FF8426"/>
<path d="M24 9.00098L21 9.00098L21 6.00096L24 6.00096L24 9.00098Z" fill="#16171A"/>
<path d="M12 6.00098L9 6.00098L9 3.00096L12 3.00096L12 6.00098Z" fill="#16171A"/>
<path d="M15 6.00098L12 6.00098L12 3.00096L15 3.00096L15 6.00098Z" fill="#FF8426"/>
<path d="M18 6.00098L15 6.00098L15 3.00096L18 3.00096L18 6.00098Z" fill="#FF8426"/>
<path d="M21 6.00098L18 6.00098L18 3.00096L21 3.00096L21 6.00098Z" fill="#16171A"/>
<path d="M15 3L12 3L12 -2.0504e-05L15 -1.99795e-05L15 3Z" fill="#16171A"/>
<path d="M18 3L15 3L15 -2.0504e-05L18 -1.99795e-05L18 3Z" fill="#16171A"/>
</svg>
