<svg width="30" height="22" viewBox="0 0 30 22" fill="none" xmlns="http://www.w3.org/2000/svg">
<path d="M6.00002 0.000976562H3V3.001H6.00002V0.000976562Z" fill="#16171A"/>
<path d="M9.00002 0.000976562H6V3.001H9.00002V0.000976562Z" fill="#16171A"/>
<path d="M24 0.000976562H21V3.001H24V0.000976562Z" fill="#16171A"/>
<path d="M27 0.000976562H24V3.001H27V0.000976562Z" fill="#16171A"/>
<path d="M3.00002 3.00098H0V6.001H3.00002V3.00098Z" fill="#16171A"/>
<path d="M6.00002 3.00098H3V6.001H6.00002V3.00098Z" fill="#FAFDFF"/>
<path d="M9.00002 3.00098H6V6.001H9.00002V3.00098Z" fill="#FAFDFF"/>
<path d="M12 3.00098H9V6.001H12V3.00098Z" fill="#16171A"/>
<path d="M21 3.00098H18V6.001H21V3.00098Z" fill="#16171A"/>
<path d="M24 3.00098H21V6.001H24V3.00098Z" fill="#FAFDFF"/>
<path d="M27 3.00098H24V6.001H27V3.00098Z" fill="#FFD100"/>
<path d="M30 3.00098H27V6.001H30V3.00098Z" fill="#16171A"/>
<path d="M3.00002 6.00098H0V9.001H3.00002V6.00098Z" fill="#16171A"/>
<path d="M6.00002 6.00098H3V9.001H6.00002V6.00098Z" fill="#FAFDFF"/>
<path d="M9.00002 6.00098H6V9.001H9.00002V6.00098Z" fill="#FFD100"/>
<path d="M12 6.00098H9V9.001H12V6.00098Z" fill="#FAFDFF"/>
<path d="M15 6.00098H12V9.001H15V6.00098Z" fill="#16171A"/>
<path d="M18 6.00098H15V9.001H18V6.00098Z" fill="#16171A"/>
<path d="M21 6.00098H18V9.001H21V6.00098Z" fill="#FAFDFF"/>
<path d="M24 6.00098H21V9.001H24V6.00098Z" fill="#FFD100"/>
<path d="M27 6.00098H24V9.001H27V6.00098Z" fill="#FF8426"/>
<path d="M30 6.00098H27V9.001H30V6.00098Z" fill="#16171A"/>
<path d="M6.00002 9.00098H3V12.001H6.00002V9.00098Z" fill="#16171A"/>
<path d="M9.00002 9.00098H6V12.001H9.00002V9.00098Z" fill="#FF8426"/>
<path d="M12 9.00098H9V12.001H12V9.00098Z" fill="#FFD100"/>
<path d="M15 9.00098H12V12.001H15V9.00098Z" fill="#FAFDFF"/>
<path d="M18 9.00098H15V12.001H18V9.00098Z" fill="#FAFDFF"/>
<path d="M21 9.00098H18V12.001H21V9.00098Z" fill="#FFD100"/>
<path d="M24 9.00098H21V12.001H24V9.00098Z" fill="#FF8426"/>
<path d="M27 9.00098H24V12.001H27V9.00098Z" fill="#16171A"/>
<path d="M9.00002 12.001H6V15.001H9.00002V12.001Z" fill="#16171A"/>
<path d="M12 12.001H9V15.001H12V12.001Z" fill="#FF8426"/>
<path d="M15 12.001H12V15.001H15V12.001Z" fill="#FFD100"/>
<path d="M18 12.001H15V15.001H18V12.001Z" fill="#FFD100"/>
<path d="M21 12.001H18V15.001H21V12.001Z" fill="#FF8426"/>
<path d="M24 12.001H21V15.001H24V12.001Z" fill="#16171A"/>
<path d="M12 15.001H9V18.001H12V15.001Z" fill="#16171A"/>
<path d="M15 15.001H12V18.001H15V15.001Z" fill="#FF8426"/>
<path d="M18 15.001H15V18.001H18V15.001Z" fill="#FF8426"/>
<path d="M21 15.001H18V18.001H21V15.001Z" fill="#16171A"/>
<path d="M15 18.002H12V21.002H15V18.002Z" fill="#16171A"/>
<path d="M18 18.002H15V21.002H18V18.002Z" fill="#16171A"/>
</svg>
