<svg width="129" height="40" viewBox="0 0 129 40" fill="none" xmlns="http://www.w3.org/2000/svg">
<path fill-rule="evenodd" clip-rule="evenodd" d="M125.538 0.854492H3.64453V2.35935H125.538V0.854492ZM3.64548 2.35938H2.14062V3.86408H0.636719V36.2184H2.14157V3.86423H3.64548V2.35938ZM127.044 2.35938H125.539V3.86423H127.044V2.35938ZM127.044 36.2188H125.539V37.7236H127.044V36.2188ZM127.043 3.86426H128.548V36.2186H127.043V3.86426ZM2.14062 36.2188H3.64548V37.7236H2.14062V36.2188ZM125.538 37.7236H3.64453V39.2285H125.538V37.7236Z" fill="black"/>
<path fill-rule="evenodd" clip-rule="evenodd" d="M125.542 2.35938H3.64844V3.86423H2.14453V35.4662H127.047V3.86423H125.542V2.35938Z" fill="#03CCC0"/>
<rect x="2.14453" y="3.86426" width="1.50485" height="1.50485" fill="#96FFF9"/>
<rect x="127.047" y="3.86426" width="1.50485" height="1.50485" transform="rotate(90 127.047 3.86426)" fill="#96FFF9"/>
<rect x="127.047" y="31.7041" width="1.50485" height="1.50485" transform="rotate(-180 127.047 31.7041)" fill="#96FFF9"/>
<rect x="2.14453" y="31.7041" width="1.50485" height="1.50485" transform="rotate(-90 2.14453 31.7041)" fill="#96FFF9"/>
<rect x="2.14453" y="36.2188" width="4.51456" height="1.50485" transform="rotate(-90 2.14453 36.2188)" fill="#007B8C"/>
<rect x="3.64844" y="3.86426" width="1.50485" height="1.50485" fill="#00514C"/>
<rect x="127.047" y="5.36914" width="1.50485" height="1.50485" transform="rotate(90 127.047 5.36914)" fill="#00514C"/>
<rect x="125.543" y="31.7041" width="1.50485" height="1.50485" transform="rotate(-180 125.543 31.7041)" fill="#00514C"/>
<rect x="2.14453" y="30.1992" width="1.50485" height="1.50485" transform="rotate(-90 2.14453 30.1992)" fill="#00514C"/>
<rect x="2.14453" y="5.36914" width="1.50485" height="1.50485" fill="#00514C"/>
<rect x="125.543" y="3.86426" width="1.50485" height="1.50485" transform="rotate(90 125.543 3.86426)" fill="#00514C"/>
<rect x="127.047" y="30.1992" width="1.50485" height="1.50485" transform="rotate(-180 127.047 30.1992)" fill="#00514C"/>
<rect x="3.64844" y="31.7041" width="1.50485" height="1.50485" transform="rotate(-90 3.64844 31.7041)" fill="#00514C"/>
<rect x="127.047" y="36.2188" width="1.50485" height="4.51456" transform="rotate(-180 127.047 36.2188)" fill="#007B8C"/>
<rect x="125.543" y="37.7236" width="121.893" height="4.51455" transform="rotate(-180 125.543 37.7236)" fill="#007B8C"/>
<rect x="3.64844" y="2.35938" width="121.893" height="1.50485" fill="#96FFF9"/>
<rect x="3.64844" y="31.7041" width="121.893" height="1.50485" fill="#96FFF9"/>
<rect x="9.66797" y="37.7236" width="4.51456" height="3.00971" transform="rotate(-90 9.66797 37.7236)" fill="#DDFFF3"/>
<rect width="4.51456" height="3.00971" transform="matrix(-1.31134e-07 -1 -1 1.31134e-07 116.512 37.7236)" fill="#DDFFF3"/>
<rect x="13.4297" y="37.7236" width="4.51456" height="2.25728" transform="rotate(-90 13.4297 37.7236)" fill="#DDFFF3"/>
<rect width="4.51456" height="2.25728" transform="matrix(-1.31134e-07 -1 -1 1.31134e-07 112.75 37.7236)" fill="#DDFFF3"/>
<rect x="16.4414" y="37.7236" width="4.51456" height="1.50485" transform="rotate(-90 16.4414 37.7236)" fill="#DDFFF3"/>
<rect width="4.51456" height="1.50485" transform="matrix(-1.31134e-07 -1 -1 1.31134e-07 109.742 37.7236)" fill="#DDFFF3"/>
<rect x="18.6953" y="37.7236" width="4.51456" height="0.752427" transform="rotate(-90 18.6953 37.7236)" fill="#DDFFF3"/>
<rect width="4.51456" height="0.752427" transform="matrix(-1.31134e-07 -1 -1 1.31134e-07 107.484 37.7236)" fill="#DDFFF3"/>
<path d="M46.7371 13.1561V12.2081V11.26H47.6852H48.6332H51.4774H55.2696V12.2081H56.2177V13.1561H57.1658V15.0523V16.0003H56.2177V16.9484V17.8964H57.1658V20.7406H56.2177V21.6887H55.2696V22.6367H51.4774H48.6332H47.6852H46.7371V21.6887V20.7406V19.7925V17.8964V16.9484V16.0003V15.0523V14.1042V13.1561ZM49.5813 20.7406H51.4774H52.4255H53.3735H54.3216V19.7925H55.2696V18.8445H54.3216V17.8964H48.6332V20.7406H49.5813ZM51.4774 13.1561H49.5813H48.6332V16.0003H54.3216V15.0523H55.2696V14.1042H54.3216V13.1561H53.3735H52.4255H51.4774ZM60.963 11.26V15.0523V16.0003V17.8964V18.8445V19.7925H61.9111V20.7406H62.8592H63.8072H64.7553H65.7033H66.6514V19.7925H67.5995V18.8445V11.26H69.4956V18.8445V20.7406H68.5475V21.6887H67.5995V22.6367H64.7553H63.8072H60.963V21.6887H60.015V20.7406H59.0669V18.8445V17.8964V16.9484V16.0003V11.26H60.963ZM80.8773 12.2081V13.1561V14.1042V15.0523H79.9293V16.0003H78.9812V16.9484H78.0332V17.8964H77.0851V18.8445V22.6367H75.189V18.8445V17.8964H74.2409V16.9484H73.2929V16.0003H72.3448V15.0523H71.3967V14.1042V13.1561V12.2081V11.26H72.3448H73.2929V12.2081V13.1561V14.1042H74.2409V15.0523H75.189V16.0003H76.137H77.0851V15.0523H78.0332V14.1042H78.9812V13.1561V12.2081V11.26H79.9293H80.8773V12.2081Z" fill="#393939"/>
<path d="M46.7371 11.6513V10.7032V9.75514H47.6852H48.6332H51.4774H55.2696V10.7032H56.2177V11.6513H57.1658V13.5474V14.4954H56.2177V15.4435V16.3915H57.1658V19.2357H56.2177V20.1838H55.2696V21.1318H51.4774H48.6332H47.6852H46.7371V20.1838V19.2357V18.2877V16.3915V15.4435V14.4954V13.5474V12.5993V11.6513ZM49.5813 19.2357H51.4774H52.4255H53.3735H54.3216V18.2877H55.2696V17.3396H54.3216V16.3915H48.6332V19.2357H49.5813ZM51.4774 11.6513H49.5813H48.6332V14.4954H54.3216V13.5474H55.2696V12.5993H54.3216V11.6513H53.3735H52.4255H51.4774ZM60.963 9.75514V13.5474V14.4954V16.3915V17.3396V18.2877H61.9111V19.2357H62.8592H63.8072H64.7553H65.7033H66.6514V18.2877H67.5995V17.3396V9.75514H69.4956V17.3396V19.2357H68.5475V20.1838H67.5995V21.1318H64.7553H63.8072H60.963V20.1838H60.015V19.2357H59.0669V17.3396V16.3915V15.4435V14.4954V9.75514H60.963ZM80.8773 10.7032V11.6513V12.5993V13.5474H79.9293V14.4954H78.9812V15.4435H78.0332V16.3915H77.0851V17.3396V21.1318H75.189V17.3396V16.3915H74.2409V15.4435H73.2929V14.4954H72.3448V13.5474H71.3967V12.5993V11.6513V10.7032V9.75514H72.3448H73.2929V10.7032V11.6513V12.5993H74.2409V13.5474H75.189V14.4954H76.137H77.0851V13.5474H78.0332V12.5993H78.9812V11.6513V10.7032V9.75514H79.9293H80.8773V10.7032Z" fill="white"/>
</svg>
