<svg width="340" height="149" viewBox="0 0 340 149" fill="none" xmlns="http://www.w3.org/2000/svg">
<path d="M1.62109 2.11133H338.383V146H1.62109V2.11133Z" fill="#FFFDF4"/>
<rect x="3.23828" y="0.0556641" width="333.524" height="1.02739" fill="#FF7C06"/>
<rect x="0.808594" y="4.16699" width="139.778" height="0.809519" transform="rotate(90 0.808594 4.16699)" fill="#FF7C06"/>
<rect x="0.808594" y="3.13867" width="0.809524" height="1.02739" fill="#FF7C06"/>
<rect x="1.61719" y="2.11133" width="0.809524" height="1.02739" fill="#FF7C06"/>
<rect x="2.42969" y="1.08301" width="0.809524" height="1.02739" fill="#FF7C06"/>
<rect x="0.808594" y="144.973" width="1.02739" height="0.809524" transform="rotate(-90 0.808594 144.973)" fill="#FF7C06"/>
<rect x="1.61719" y="146" width="1.02739" height="0.809524" transform="rotate(-90 1.61719 146)" fill="#FF7C06"/>
<rect x="2.42969" y="147.028" width="1.02739" height="0.809524" transform="rotate(-90 2.42969 147.028)" fill="#FF7C06"/>
<rect x="3.23828" y="148.056" width="1.02743" height="333.524" transform="rotate(-90 3.23828 148.056)" fill="#FF7C06"/>
<rect x="0.808594" y="4.16699" width="0.809524" height="139.778" fill="#FFC897"/>
<rect x="1.61719" y="3.13867" width="0.809524" height="1.02739" fill="#FFC897"/>
<rect x="2.42969" y="2.11133" width="0.809524" height="1.02739" fill="#FFC897"/>
<rect width="1.02739" height="333.524" transform="matrix(-1.54056e-06 1 -1 -1.24025e-09 336.762 146)" fill="#FFC897"/>
<rect x="3.23828" y="144.973" width="1.02739" height="0.809524" transform="rotate(90 3.23828 144.973)" fill="#FFC897"/>
<rect x="2.42969" y="143.944" width="1.02739" height="0.809524" transform="rotate(90 2.42969 143.944)" fill="#FFC897"/>
<rect x="3.23828" y="1.08301" width="333.524" height="1.02739" fill="#FFC897"/>
<rect x="336.762" y="1.08398" width="0.809524" height="1.02739" fill="#FF7C06"/>
<rect x="339.191" y="143.945" width="1.02739" height="0.809524" transform="rotate(90 339.191 143.945)" fill="#FF7C06"/>
<rect x="336.762" y="2.11133" width="0.809524" height="1.02739" fill="#FFC897"/>
<rect x="338.383" y="143.945" width="1.02739" height="0.809524" transform="rotate(90 338.383 143.945)" fill="#FFC897"/>
<rect x="337.57" y="3.13965" width="0.809524" height="1.02739" fill="#FFC897"/>
<rect x="337.57" y="144.973" width="1.02739" height="0.809524" transform="rotate(90 337.57 144.973)" fill="#FFC897"/>
<rect x="338.383" y="4.16699" width="0.809524" height="139.778" fill="#FFC897"/>
<rect x="337.57" y="2.11133" width="0.809524" height="1.02739" fill="#FF7C06"/>
<rect x="338.383" y="144.973" width="1.02739" height="0.809524" transform="rotate(90 338.383 144.973)" fill="#FF7C06"/>
<rect x="338.383" y="3.13965" width="0.809524" height="1.02739" fill="#FF7C06"/>
<rect x="337.57" y="146.001" width="1.02739" height="0.809524" transform="rotate(90 337.57 146.001)" fill="#FF7C06"/>
<rect x="339.191" y="4.16699" width="0.809524" height="139.778" fill="#FF7C06"/>
</svg>
