<svg width="777" height="174" viewBox="0 0 777 174" fill="none" xmlns="http://www.w3.org/2000/svg">
<path fill-rule="evenodd" clip-rule="evenodd" d="M761.691 0.396517V11.8792H769.345V25.2754H769.347V31.0176H777V158.285H767.432V163.069H761.691V171.681L15.3121 171.681L15.3121 162.112H7.65625V158.285H1.91406V156.371H0V127.664H0.957031V120.966H1.91406V32.931H0V22.4051H3.82812V11.8789H15.3121L15.3121 0.396484L761.691 0.396517Z" fill="#FFF1D7"/>
<rect x="15.3086" y="0.396484" width="746.379" height="3.82759" fill="#DA9100"/>
<rect x="15.3086" y="169.768" width="746.379" height="3.82759" fill="#DA9100"/>
<rect x="777" y="15.707" width="142.578" height="3.82758" transform="rotate(90 777 15.707)" fill="#DA9100"/>
<rect x="3.82812" y="15.707" width="142.578" height="3.82758" transform="rotate(90 3.82812 15.707)" fill="#DA9100"/>
<rect x="3.82812" y="11.8789" width="3.82759" height="3.82759" fill="#DA9100"/>
<rect x="7.65625" y="8.05176" width="3.82759" height="3.82759" fill="#DA9100"/>
<rect x="11.4844" y="4.22363" width="3.82759" height="3.82759" fill="#DA9100"/>
<rect x="765.516" y="4.22363" width="3.82759" height="3.82759" transform="rotate(90 765.516 4.22363)" fill="#DA9100"/>
<rect x="769.344" y="8.05176" width="3.82759" height="3.82759" transform="rotate(90 769.344 8.05176)" fill="#DA9100"/>
<rect x="773.172" y="11.8789" width="3.82759" height="3.82759" transform="rotate(90 773.172 11.8789)" fill="#DA9100"/>
<rect x="11.4844" y="169.768" width="3.82759" height="3.82759" transform="rotate(-90 11.4844 169.768)" fill="#DA9100"/>
<rect x="7.65625" y="165.939" width="3.82759" height="3.82759" transform="rotate(-90 7.65625 165.939)" fill="#DA9100"/>
<rect x="3.82812" y="162.112" width="3.82759" height="3.82759" transform="rotate(-90 3.82812 162.112)" fill="#DA9100"/>
<rect x="3.82812" y="15.707" width="3.82759" height="138.75" fill="#FFD177"/>
<rect x="7.65625" y="11.8789" width="3.82759" height="3.82759" fill="#FFD177"/>
<rect x="11.4844" y="8.05176" width="3.82759" height="3.82759" fill="#FFD177"/>
<rect x="7.65234" y="154.457" width="3.82759" height="3.82759" transform="rotate(90 7.65234 154.457)" fill="#FFD177"/>
<rect x="11.4805" y="158.285" width="3.82759" height="3.82759" transform="rotate(90 11.4805 158.285)" fill="#FFD177"/>
<rect x="15.3086" y="162.112" width="3.82759" height="3.82759" transform="rotate(90 15.3086 162.112)" fill="#FFD177"/>
<rect x="761.691" y="165.939" width="3.82759" height="3.82759" fill="#DA9100"/>
<rect x="765.52" y="162.112" width="3.82759" height="3.82759" fill="#DA9100"/>
<rect x="769.348" y="158.284" width="3.82759" height="3.82759" fill="#DA9100"/>
<rect x="761.691" y="162.112" width="3.82759" height="3.82759" fill="#FFD177"/>
<rect x="765.52" y="158.284" width="3.82759" height="3.82759" fill="#FFD177"/>
<rect x="765.516" y="8.05176" width="3.82759" height="3.82759" transform="rotate(90 765.516 8.05176)" fill="#FFD177"/>
<rect x="769.344" y="11.8789" width="3.82759" height="3.82759" transform="rotate(90 769.344 11.8789)" fill="#FFD177"/>
<rect x="773.172" y="15.707" width="3.82759" height="3.82759" transform="rotate(90 773.172 15.707)" fill="#FFD177"/>
<rect x="773.172" y="19.5342" width="138.75" height="3.82759" transform="rotate(90 773.172 19.5342)" fill="#FFD177"/>
<rect x="15.3086" y="4.22363" width="746.379" height="3.82759" fill="#FFD177"/>
<rect x="15.3086" y="165.939" width="746.379" height="3.82759" fill="#FFD177"/>
</svg>
