<svg width="88" height="29" viewBox="0 0 88 29" fill="none" xmlns="http://www.w3.org/2000/svg">
<mask id="path-1-outside-1_3535_2699" maskUnits="userSpaceOnUse" x="0" y="0.396484" width="88" height="28" fill="black">
<rect fill="white" y="0.396484" width="88" height="28"/>
<path fill-rule="evenodd" clip-rule="evenodd" d="M82.8283 2.39648H5.16797V3.98145H3.58594V5.56641H2V23.0004H3.58594V24.5852H5.16797V26.1701H82.8283V24.5852H84.4161V23.0004H86V5.56641H84.4161V3.98145H82.8283V2.39648Z"/>
</mask>
<path fill-rule="evenodd" clip-rule="evenodd" d="M82.8283 2.39648H5.16797V3.98145H3.58594V5.56641H2V23.0004H3.58594V24.5852H5.16797V26.1701H82.8283V24.5852H84.4161V23.0004H86V5.56641H84.4161V3.98145H82.8283V2.39648Z" fill="#DA9100"/>
<path d="M5.16797 2.39648V0.396484H3.16797V2.39648H5.16797ZM82.8283 2.39648H84.8283V0.396484H82.8283V2.39648ZM5.16797 3.98145V5.98145H7.16797V3.98145H5.16797ZM3.58594 3.98145V1.98145H1.58594V3.98145H3.58594ZM3.58594 5.56641V7.56641H5.58594V5.56641H3.58594ZM2 5.56641V3.56641H0V5.56641H2ZM2 23.0004H0V25.0004H2V23.0004ZM3.58594 23.0004H5.58594V21.0004H3.58594V23.0004ZM3.58594 24.5852H1.58594V26.5852H3.58594V24.5852ZM5.16797 24.5852H7.16797V22.5852H5.16797V24.5852ZM5.16797 26.1701H3.16797V28.1701H5.16797V26.1701ZM82.8283 26.1701V28.1701H84.8283V26.1701H82.8283ZM82.8283 24.5852V22.5852H80.8283V24.5852H82.8283ZM84.4161 24.5852V26.5852H86.4161V24.5852H84.4161ZM84.4161 23.0004V21.0004H82.4161V23.0004H84.4161ZM86 23.0004V25.0004H88V23.0004H86ZM86 5.56641H88V3.56641H86V5.56641ZM84.4161 5.56641H82.4161V7.56641H84.4161V5.56641ZM84.4161 3.98145H86.4161V1.98145H84.4161V3.98145ZM82.8283 3.98145H80.8283V5.98145H82.8283V3.98145ZM5.16797 4.39648H82.8283V0.396484H5.16797V4.39648ZM7.16797 3.98145V2.39648H3.16797V3.98145H7.16797ZM5.16797 1.98145H3.58594V5.98145H5.16797V1.98145ZM1.58594 3.98145V5.56641H5.58594V3.98145H1.58594ZM3.58594 3.56641H2V7.56641H3.58594V3.56641ZM0 5.56641V23.0004H4V5.56641H0ZM2 25.0004H3.58594V21.0004H2V25.0004ZM1.58594 23.0004V24.5852H5.58594V23.0004H1.58594ZM3.58594 26.5852H5.16797V22.5852H3.58594V26.5852ZM7.16797 26.1701V24.5852H3.16797V26.1701H7.16797ZM82.8283 24.1701H5.16797V28.1701H82.8283V24.1701ZM80.8283 24.5852V26.1701H84.8283V24.5852H80.8283ZM82.8283 26.5852H84.4161V22.5852H82.8283V26.5852ZM86.4161 24.5852V23.0004H82.4161V24.5852H86.4161ZM84.4161 25.0004H86V21.0004H84.4161V25.0004ZM88 23.0004V5.56641H84V23.0004H88ZM86 3.56641H84.4161V7.56641H86V3.56641ZM86.4161 5.56641V3.98145H82.4161V5.56641H86.4161ZM84.4161 1.98145H82.8283V5.98145H84.4161V1.98145ZM80.8283 2.39648V3.98145H84.8283V2.39648H80.8283Z" fill="#AE7400" mask="url(#path-1-outside-1_3535_2699)"/>
</svg>
