<svg width="107" height="30" viewBox="0 0 107 30" fill="none" xmlns="http://www.w3.org/2000/svg">
<rect x="1.28906" y="5.55176" width="1.28889" height="1.28889" fill="#393939"/>
<rect x="105.043" y="25.5303" width="1.28889" height="2.57778" transform="rotate(-180 105.043 25.5303)" fill="#393939"/>
<rect x="2.57812" y="22.9521" width="2.57778" height="1.28889" transform="rotate(90 2.57812 22.9521)" fill="#393939"/>
<rect x="6.44531" y="21.6631" width="1.28889" height="1.28889" transform="rotate(90 6.44531 21.6631)" fill="#FFF1D7"/>
<rect x="99.8906" y="22.9521" width="1.28889" height="93.4444" transform="rotate(90 99.8906 22.9521)" fill="#FFF1D7"/>
<rect x="103.754" y="6.84082" width="2.57778" height="1.28889" transform="rotate(-90 103.754 6.84082)" fill="#393939"/>
<rect x="1.28906" y="4.2627" width="1.28889" height="1.28889" fill="#393939"/>
<rect x="103.754" y="26.8184" width="1.28889" height="1.28889" transform="rotate(-180 103.754 26.8184)" fill="#393939"/>
<rect x="3.86719" y="25.5303" width="1.28889" height="1.28889" transform="rotate(90 3.86719 25.5303)" fill="#393939"/>
<rect x="2.57812" y="2.97461" width="1.28889" height="1.28889" fill="#393939"/>
<rect x="5.15625" y="26.8184" width="1.28889" height="1.28889" transform="rotate(90 5.15625 26.8184)" fill="#393939"/>
<rect x="102.465" y="4.2627" width="1.28889" height="1.28889" transform="rotate(-90 102.465 4.2627)" fill="#393939"/>
<rect x="3.86719" y="1.68555" width="2.57778" height="1.28889" fill="#393939"/>
<rect x="102.465" y="28.1074" width="2.57778" height="1.28889" transform="rotate(-180 102.465 28.1074)" fill="#393939"/>
<path fill-rule="evenodd" clip-rule="evenodd" d="M2.57795 22.9511H1.28906V19.0845H2.57795L2.57795 22.9511ZM2.5783 24.2402H2.57812L2.57813 20.3735L3.86701 20.3735V21.6626L5.15608 21.6626V22.9517L6.44514 22.9517L6.44514 26.8183H3.86736V25.5293H2.5783L2.5783 24.2402ZM6.44601 28.1074L99.8904 28.1074V24.2407L6.44601 24.2407L6.44601 28.1074ZM102.469 25.5293V26.8183H99.8908L99.8908 22.9517L101.18 22.9517V21.6626H102.465V20.3737L103.754 20.3737V25.5293H102.469ZM103.754 22.9511H105.043V19.0845H103.754V22.9511Z" fill="#976604"/>
<rect x="6.44531" y="26.8184" width="1.28889" height="1.28889" transform="rotate(90 6.44531 26.8184)" fill="#393939"/>
<rect x="99.8906" y="2.97461" width="1.28889" height="2.57778" transform="rotate(-90 99.8906 2.97461)" fill="#393939"/>
<rect x="6.44531" y="0.396484" width="93.4444" height="1.28889" fill="#393939"/>
<rect x="6.44531" y="28.1074" width="93.4444" height="1.28889" fill="#393939"/>
<rect y="6.84082" width="1.28889" height="16.1111" fill="#393939"/>
<rect x="106.332" y="22.9521" width="1.28889" height="16.1111" transform="rotate(-180 106.332 22.9521)" fill="#393939"/>
<path fill-rule="evenodd" clip-rule="evenodd" d="M99.8923 2.97444L6.44785 2.97443V1.68555L99.8923 1.68556V2.97444ZM5.15913 4.26349L101.181 4.2635V2.97462L5.15913 2.97461V4.26349ZM3.87041 4.26367L3.87041 5.55176H2.57778L2.57778 6.84064L102.396 6.84065L1.28906 6.84064V17.7962L105.045 17.7962V6.84065H103.756V5.55177H102.47V4.26368L3.87041 4.26367ZM2.57778 17.7967L2.57778 19.0856L103.756 19.0856V17.7967L2.57778 17.7967ZM2.57778 20.3747L2.57778 19.0858L103.756 19.0858V20.3746L2.57778 20.3747ZM3.87041 20.3748L3.87041 21.6637H6.44785V22.9518L99.8923 22.9518V21.6637H102.47V20.3748L3.87041 20.3748Z" fill="#DA9100"/>
<rect x="99.8906" y="1.68555" width="1.28889" height="93.4444" transform="rotate(90 99.8906 1.68555)" fill="#FFF1D7"/>
<rect x="3.86719" y="4.2627" width="1.28889" height="1.28889" transform="rotate(90 3.86719 4.2627)" fill="#FFF1D7"/>
<rect x="2.57812" y="6.84082" width="2.57778" height="1.28889" transform="rotate(90 2.57812 6.84082)" fill="#FFF1D7"/>
<rect x="5.15625" y="2.97461" width="1.28889" height="1.28889" transform="rotate(90 5.15625 2.97461)" fill="#FFF1D7"/>
<rect x="6.44531" y="2.97461" width="1.28889" height="1.28889" transform="rotate(90 6.44531 2.97461)" fill="#FFF1D7"/>
<rect x="102.465" y="2.97461" width="1.28889" height="2.57778" transform="rotate(90 102.465 2.97461)" fill="#FFF1D7"/>
<rect x="103.754" y="4.2627" width="1.28889" height="1.28889" transform="rotate(90 103.754 4.2627)" fill="#FFF1D7"/>
<rect x="105.043" y="6.84082" width="2.57778" height="1.28889" transform="rotate(90 105.043 6.84082)" fill="#FFF1D7"/>
<rect width="3.86667" height="2.57778" transform="matrix(-1.31134e-07 -1 -1 1.31134e-07 23.8438 28.1074)" fill="#FFD177"/>
<rect width="3.86667" height="2.57778" transform="matrix(-1.31134e-07 -1 -1 1.31134e-07 87 28.1074)" fill="#FFD177"/>
<rect width="3.86667" height="1.93333" transform="matrix(-1.31134e-07 -1 -1 1.31134e-07 20.6211 28.1074)" fill="#FFD177"/>
<rect width="3.86667" height="1.93333" transform="matrix(-1.31134e-07 -1 -1 1.31134e-07 83.7773 28.1074)" fill="#FFD177"/>
<rect width="3.86667" height="1.28889" transform="matrix(-1.31134e-07 -1 -1 1.31134e-07 18.043 28.1074)" fill="#FFD177"/>
<rect width="3.86667" height="1.28889" transform="matrix(-1.31134e-07 -1 -1 1.31134e-07 81.1992 28.1074)" fill="#FFD177"/>
<rect width="3.86667" height="0.644444" transform="matrix(-1.31134e-07 -1 -1 1.31134e-07 16.1094 28.1074)" fill="#FFD177"/>
<rect width="3.86667" height="0.644444" transform="matrix(-1.31134e-07 -1 -1 1.31134e-07 79.2656 28.1074)" fill="#FFD177"/>
<rect x="2.57812" y="17.7969" width="2.57778" height="1.28889" transform="rotate(90 2.57812 17.7969)" fill="#FFF1D7"/>
<rect x="5.15625" y="21.6631" width="1.28889" height="1.28889" transform="rotate(90 5.15625 21.6631)" fill="#FFF1D7"/>
<rect x="3.86719" y="20.374" width="1.28889" height="1.28889" transform="rotate(90 3.86719 20.374)" fill="#FFF1D7"/>
<rect x="102.465" y="22.9521" width="2.57778" height="1.28889" transform="rotate(-180 102.465 22.9521)" fill="#FFF1D7"/>
<rect x="103.754" y="21.6631" width="1.28889" height="1.28889" transform="rotate(-180 103.754 21.6631)" fill="#FFF1D7"/>
<rect x="105.043" y="19.085" width="1.28889" height="2.57778" transform="rotate(-180 105.043 19.085)" fill="#FFF1D7"/>
</svg>
