<svg width="94" height="79" viewBox="0 0 94 79" fill="none" xmlns="http://www.w3.org/2000/svg">
<rect x="79.8594" y="8.58691" width="6.86957" height="42.0761" fill="#E17100"/>
<rect x="28.3359" y="8.58691" width="37.7826" height="42.0761" fill="#E48C00"/>
<rect x="6.87109" y="8.58691" width="6.86957" height="42.0761" fill="#E17100"/>
<rect x="6.87109" y="18.0322" width="42.9348" height="6.01087" fill="#FBC969"/>
<rect x="56.6758" y="28.3369" width="30.0543" height="6.01087" fill="#FBC969"/>
<rect x="6.87109" y="25.7607" width="31.7717" height="2.57609" fill="#FBC969"/>
<rect x="9.44531" y="59.25" width="74.7065" height="18.0326" fill="#843200"/>
<rect x="1.71875" y="50.6631" width="33.4891" height="7.72826" fill="#E17100"/>
<rect x="58.3906" y="50.6631" width="33.4891" height="7.72826" fill="#E17100"/>
<rect x="5.15234" y="8.58691" width="1.71739" height="41.2174" fill="#300009"/>
<rect x="8.58594" y="58.3916" width="1.71739" height="18.8913" fill="#300009"/>
<rect x="84.1523" y="58.3916" width="1.71739" height="18.8913" fill="#300009"/>
<rect x="86.7266" y="8.58691" width="1.71739" height="41.2174" fill="#300009"/>
<rect x="6.87109" y="6.86914" width="6.86957" height="1.71739" fill="#300009"/>
<rect y="48.9453" width="6.86957" height="1.71739" fill="#300009"/>
<rect x="1.71875" y="50.6631" width="8.58696" height="1.71739" transform="rotate(90 1.71875 50.6631)" fill="#300009"/>
<rect x="93.5977" y="50.6631" width="8.58696" height="1.71739" transform="rotate(90 93.5977 50.6631)" fill="#300009"/>
<rect x="86.7266" y="48.9453" width="6.86957" height="1.71739" fill="#300009"/>
<rect y="58.3916" width="35.2065" height="1.71739" fill="#300009"/>
<rect x="59.25" y="58.3916" width="34.3478" height="1.71739" fill="#300009"/>
<rect width="6.86957" height="1.71739" transform="matrix(-1 0 0 1 86.7266 6.86914)" fill="#300009"/>
<rect x="28.3359" y="6.86914" width="38.6413" height="1.71739" fill="#300009"/>
<rect x="13.7383" y="8.58691" width="49.8043" height="1.71739" transform="rotate(90 13.7383 8.58691)" fill="#9F4500"/>
<rect x="28.3359" y="8.58691" width="49.8043" height="1.71739" transform="rotate(90 28.3359 8.58691)" fill="#9F4500"/>
<rect x="86.7266" y="25.7607" width="79.8587" height="1.71738" transform="rotate(-180 86.7266 25.7607)" fill="#9F4500"/>
<rect x="86.7266" y="35.2061" width="79.8587" height="1.71738" transform="rotate(-180 86.7266 35.2061)" fill="#9F4500"/>
<rect x="33.4883" y="48.9453" width="26.6196" height="1.71739" transform="rotate(-180 33.4883 48.9453)" fill="#9F4500"/>
<rect x="86.7266" y="48.9453" width="26.6196" height="1.71739" transform="rotate(-180 86.7266 48.9453)" fill="#9F4500"/>
<rect x="66.9766" y="8.58691" width="49.8043" height="1.71739" transform="rotate(90 66.9766 8.58691)" fill="#9F4500"/>
<rect x="81.5742" y="8.58691" width="49.8043" height="1.71739" transform="rotate(90 81.5742 8.58691)" fill="#9F4500"/>
<rect x="10.3047" y="77.2822" width="73.8478" height="1.71739" fill="#300009"/>
<rect x="13.7383" y="1.71777" width="6.86957" height="1.71739" transform="rotate(90 13.7383 1.71777)" fill="#300009"/>
<rect width="6.86957" height="1.71739" transform="matrix(4.37114e-08 1 1 -4.37114e-08 79.8594 1.71777)" fill="#300009"/>
<rect x="28.3359" y="1.71777" width="6.86957" height="1.71739" transform="rotate(90 28.3359 1.71777)" fill="#300009"/>
<rect width="6.86957" height="1.71739" transform="matrix(4.37114e-08 1 1 -4.37114e-08 65.2617 1.71777)" fill="#300009"/>
<rect x="17.1758" y="3.43457" width="3.43478" height="1.71739" transform="rotate(-180 17.1758 3.43457)" fill="#300009"/>
<rect width="3.43478" height="1.71739" transform="matrix(1 -8.74228e-08 -8.74228e-08 -1 76.4258 3.43457)" fill="#300009"/>
<rect x="26.6211" y="3.43457" width="3.43478" height="1.71739" transform="rotate(-180 26.6211 3.43457)" fill="#300009"/>
<rect width="3.43478" height="1.71739" transform="matrix(1 -8.74228e-08 -8.74228e-08 -1 66.9766 3.43457)" fill="#300009"/>
<rect x="23.1836" y="1.71777" width="6.01087" height="1.71739" transform="rotate(-180 23.1836 1.71777)" fill="#300009"/>
<rect width="6.01087" height="1.71739" transform="matrix(1 -8.74228e-08 -8.74228e-08 -1 70.4141 1.71777)" fill="#300009"/>
<rect x="17.1758" y="1.71777" width="6.01087" height="1.71739" fill="#565969"/>
<rect x="70.4141" y="1.71777" width="6.01087" height="1.71739" fill="#565969"/>
<rect x="13.7383" y="3.43457" width="12.8804" height="5.15217" fill="#565969"/>
<rect x="66.9766" y="3.43457" width="12.8804" height="5.15217" fill="#565969"/>
<rect x="66.9766" y="8.58691" width="12.8804" height="11.163" fill="#8A8B9A"/>
<rect x="13.7383" y="8.58691" width="12.8804" height="11.163" fill="#8A8B9A"/>
<rect x="66.9766" y="19.75" width="12.8804" height="11.163" fill="#F1F1F4"/>
<rect x="13.7383" y="19.75" width="12.8804" height="11.163" fill="#F1F1F4"/>
<rect x="66.9766" y="30.9131" width="12.8804" height="11.163" fill="#8A8B9A"/>
<rect x="13.7383" y="30.9131" width="12.8804" height="11.163" fill="#8A8B9A"/>
<rect x="66.9766" y="42.0762" width="12.8804" height="16.3152" fill="#565969"/>
<rect x="13.7383" y="42.0762" width="12.8804" height="16.3152" fill="#565969"/>
<rect x="26.6211" y="19.75" width="3.43478" height="3.43478" transform="rotate(-180 26.6211 19.75)" fill="#F1F1F4"/>
<rect x="70.4141" y="19.75" width="3.43478" height="3.43478" transform="rotate(-180 70.4141 19.75)" fill="#F1F1F4"/>
<rect x="79.8594" y="34.3477" width="3.43478" height="3.43478" transform="rotate(-180 79.8594 34.3477)" fill="#F1F1F4"/>
<rect x="70.4141" y="30.9131" width="3.43478" height="3.43478" transform="rotate(-180 70.4141 30.9131)" fill="#8A8B9A"/>
<rect x="79.8594" y="23.1846" width="3.43478" height="3.43478" transform="rotate(-180 79.8594 23.1846)" fill="#8A8B9A"/>
<rect x="79.8594" y="45.5107" width="3.43478" height="3.43478" transform="rotate(-180 79.8594 45.5107)" fill="#8A8B9A"/>
<rect x="70.4141" y="8.58691" width="3.43478" height="3.43478" transform="rotate(-180 70.4141 8.58691)" fill="#8A8B9A"/>
<rect x="26.6211" y="8.58691" width="3.43478" height="3.43478" transform="rotate(-180 26.6211 8.58691)" fill="#8A8B9A"/>
<rect x="17.1758" y="45.5107" width="3.43478" height="3.43478" transform="rotate(-180 17.1758 45.5107)" fill="#8A8B9A"/>
<rect x="26.6211" y="30.9131" width="3.43478" height="3.43478" transform="rotate(-180 26.6211 30.9131)" fill="#8A8B9A"/>
<rect x="17.1758" y="23.1846" width="3.43478" height="3.43478" transform="rotate(-180 17.1758 23.1846)" fill="#8A8B9A"/>
<rect x="17.1758" y="34.3477" width="3.43478" height="3.43478" transform="rotate(-180 17.1758 34.3477)" fill="#F1F1F4"/>
<rect x="5.15234" y="13.7393" width="8.58696" height="1.71739" fill="#300009"/>
<rect x="79.8594" y="13.7393" width="8.58696" height="1.71739" fill="#300009"/>
<rect x="79.8594" y="48.9453" width="8.58696" height="1.71739" fill="#300009"/>
<rect x="59.25" y="48.9453" width="7.72826" height="1.71739" fill="#300009"/>
<rect x="26.6211" y="48.9453" width="8.58696" height="1.71739" fill="#300009"/>
<rect x="5.15234" y="48.9453" width="8.58696" height="1.71739" fill="#300009"/>
<rect x="26.6211" y="13.7393" width="40.3587" height="1.71739" fill="#300009"/>
<rect x="1.71875" y="50.6631" width="3.43478" height="7.72826" fill="#E58A00"/>
<rect x="28.3359" y="50.6631" width="3.43478" height="7.72826" fill="#E58A00"/>
<rect x="61.8242" y="50.6631" width="3.43478" height="7.72826" fill="#E58A00"/>
<rect x="88.4453" y="50.6631" width="3.43478" height="7.72826" fill="#E58A00"/>
<rect x="6.87109" y="8.58691" width="2.57609" height="2.57609" fill="#843200"/>
<rect x="84.1523" y="8.58691" width="2.57609" height="2.57609" fill="#843200"/>
<rect x="10.3047" y="74.7061" width="73.8478" height="2.57609" fill="#652600"/>
<rect x="10.3047" y="60.1084" width="73.8478" height="2.57609" fill="#652600"/>
<rect x="1.71875" y="50.6631" width="2.57609" height="2.57609" fill="#843200"/>
<rect x="89.3047" y="50.6631" width="2.57609" height="2.57609" fill="#843200"/>
<rect x="65.2617" y="58.3916" width="1.71739" height="18.8913" fill="#300009"/>
<rect x="26.6211" y="58.3916" width="1.71739" height="18.8913" fill="#300009"/>
<rect x="35.207" y="40.3584" width="24.0435" height="25.7609" fill="#8A8B9A"/>
<rect width="15.4565" height="1.71739" transform="matrix(1 0 0 -1 39.5 67.8369)" fill="#8A8B9A"/>
<rect width="9.44565" height="1.71739" transform="matrix(1 0 0 -1 44.6523 67.8369)" fill="#55596A"/>
<rect width="7.72826" height="1.71739" transform="matrix(1 0 0 -1 50.6641 66.1191)" fill="#55596A"/>
<rect width="7.72826" height="1.71739" transform="matrix(-4.37114e-08 1 1 4.37114e-08 56.6758 56.6738)" fill="#55596A"/>
<rect x="35.207" y="66.1191" width="4.29348" height="1.71739" fill="#300009"/>
<rect x="54.0977" y="66.1191" width="4.29348" height="1.71739" fill="#300009"/>
<rect x="39.5" y="67.8369" width="14.5978" height="1.71739" fill="#300009"/>
<rect x="45.5117" y="53.2393" width="3.43478" height="6.86957" fill="#300009"/>
<rect x="45.5117" y="60.1084" width="3.43478" height="3.43478" fill="#F1F1F4"/>
<rect x="38.6406" y="38.6416" width="3.43478" height="5.15217" fill="#F1F1F4"/>
<rect x="51.5234" y="35.2061" width="3.43478" height="9.44565" transform="rotate(90 51.5234 35.2061)" fill="#F1F1F4"/>
<rect x="51.5234" y="38.6416" width="3.43478" height="5.15217" fill="#F1F1F4"/>
<rect x="38.6406" y="43.7939" width="3.43478" height="1.71739" fill="#300009"/>
<rect x="35.207" y="38.6416" width="3.43478" height="1.71739" fill="#300009"/>
<rect x="42.0742" y="38.6416" width="9.44565" height="1.71739" fill="#300009"/>
<rect x="51.5234" y="43.7939" width="3.43478" height="1.71739" fill="#300009"/>
<path d="M54.957 38.6416H58.3918V40.359H54.957V38.6416Z" fill="#300009"/>
<path d="M51.5234 36.9238H54.9582V38.6412H51.5234V36.9238Z" fill="#300009"/>
<path d="M38.6406 36.9238H42.0754V38.6412H38.6406V36.9238Z" fill="#300009"/>
<path d="M42.0742 33.4893H51.5199V35.2066H42.0742V33.4893Z" fill="#300009"/>
<rect x="35.207" y="45.5107" width="16.3152" height="1.71739" fill="#F1F1F4"/>
<rect x="35.207" y="40.3584" width="25.7609" height="1.71739" transform="rotate(90 35.207 40.3584)" fill="#300009"/>
<rect x="60.1094" y="40.3584" width="25.7609" height="1.71739" transform="rotate(90 60.1094 40.3584)" fill="#300009"/>
<rect x="40.3594" y="35.2061" width="1.71739" height="1.71739" fill="#300009"/>
<rect x="51.5234" y="35.2061" width="1.71739" height="1.71739" fill="#300009"/>
</svg>
