<svg width="6" height="10" viewBox="0 0 6 10" fill="none" xmlns="http://www.w3.org/2000/svg">
<path d="M0.8125 7.39808L0.8125 8.24609L1.66051 8.24609L1.66051 7.39808L0.8125 7.39808Z" fill="#16171A"/>
<path d="M0.8125 6.5514L0.8125 7.39941L1.66051 7.39941L1.66051 6.5514L0.8125 6.5514Z" fill="#16171A"/>
<path d="M0.8125 5.7018L0.8125 6.5498L1.66051 6.5498L1.66051 5.7018L0.8125 5.7018Z" fill="#16171A"/>
<path d="M0.8125 4.85316L0.8125 5.70117L1.66051 5.70117L1.66051 4.85316L0.8125 4.85316Z" fill="#16171A"/>
<path d="M0.8125 4.00551L0.8125 4.85352L1.66051 4.85352L1.66051 4.00551L0.8125 4.00551Z" fill="#16171A"/>
<path d="M0.8125 3.15785L0.8125 4.00586L1.66051 4.00586L1.66051 3.15785L0.8125 3.15785Z" fill="#16171A"/>
<path d="M0.8125 2.31019L0.8125 3.1582L1.66051 3.1582L1.66051 2.31019L0.8125 2.31019Z" fill="#16171A"/>
<path d="M1.65625 8.24574L1.65625 9.09375L2.50426 9.09375L2.50426 8.24574L1.65625 8.24574Z" fill="#16171A"/>
<path d="M1.65625 7.39808L1.65625 8.24609L2.50426 8.24609L2.50426 7.39808L1.65625 7.39808Z" fill="#FAFDFF"/>
<path d="M1.65625 6.5514L1.65625 7.39941L2.50426 7.39941L2.50426 6.5514L1.65625 6.5514Z" fill="#16171A"/>
<path d="M1.65625 5.7018L1.65625 6.5498L2.50426 6.5498L2.50426 5.7018L1.65625 5.7018Z" fill="#FAFDFF"/>
<path d="M1.65625 4.85316L1.65625 5.70117L2.50426 5.70117L2.50426 4.85316L1.65625 4.85316Z" fill="#FAFDFF"/>
<path d="M1.65625 4.00551L1.65625 4.85352L2.50426 4.85352L2.50426 4.00551L1.65625 4.00551Z" fill="#FAFDFF"/>
<path d="M1.65625 3.15785L1.65625 4.00586L2.50426 4.00586L2.50426 3.15785L1.65625 3.15785Z" fill="#FAFDFF"/>
<path d="M1.65625 2.31019L1.65625 3.1582L2.50426 3.1582L2.50426 2.31019L1.65625 2.31019Z" fill="#FAFDFF"/>
<path d="M1.65625 1.46156L1.65625 2.30957L2.50426 2.30957L2.50426 1.46156L1.65625 1.46156Z" fill="#16171A"/>
<path d="M2.51172 8.24574L2.51172 9.09375L3.35973 9.09375L3.35973 8.24574L2.51172 8.24574Z" fill="#16171A"/>
<path d="M2.51172 7.39808L2.51172 8.24609L3.35973 8.24609L3.35973 7.39808L2.51172 7.39808Z" fill="#B9B9B9"/>
<path d="M2.51172 6.5514L2.51172 7.39941L3.35973 7.39941L3.35973 6.5514L2.51172 6.5514Z" fill="#16171A"/>
<path d="M2.51172 5.7018L2.51172 6.5498L3.35973 6.5498L3.35973 5.7018L2.51172 5.7018Z" fill="#B9B9B9"/>
<path d="M2.51172 4.85316L2.51172 5.70117L3.35973 5.70117L3.35973 4.85316L2.51172 4.85316Z" fill="#B9B9B9"/>
<path d="M2.51172 4.00551L2.51172 4.85352L3.35973 4.85352L3.35973 4.00551L2.51172 4.00551Z" fill="#B9B9B9"/>
<path d="M2.51172 3.15785L2.51172 4.00586L3.35973 4.00586L3.35973 3.15785L2.51172 3.15785Z" fill="#B9B9B9"/>
<path d="M2.51172 2.31019L2.51172 3.1582L3.35973 3.1582L3.35973 2.31019L2.51172 2.31019Z" fill="#B9B9B9"/>
<path d="M2.51172 1.46156L2.51172 2.30957L3.35973 2.30957L3.35973 1.46156L2.51172 1.46156Z" fill="#606060"/>
<path d="M2.51172 0.613904L2.51172 1.46191L3.35973 1.46191L3.35973 0.613904L2.51172 0.613904Z" fill="#16171A"/>
<path d="M3.35937 8.24574L3.35938 9.09375L4.20738 9.09375L4.20738 8.24574L3.35937 8.24574Z" fill="#16171A"/>
<path d="M3.35937 7.39808L3.35938 8.24609L4.20738 8.24609L4.20738 7.39808L3.35937 7.39808Z" fill="#B9B9B9"/>
<path d="M3.35937 6.5514L3.35938 7.39941L4.20738 7.39941L4.20738 6.5514L3.35937 6.5514Z" fill="#16171A"/>
<path d="M3.35937 5.7018L3.35938 6.5498L4.20738 6.5498L4.20738 5.7018L3.35937 5.7018Z" fill="#B9B9B9"/>
<path d="M3.35937 4.85316L3.35938 5.70117L4.20738 5.70117L4.20738 4.85316L3.35937 4.85316Z" fill="#B9B9B9"/>
<path d="M3.35937 4.00551L3.35938 4.85352L4.20738 4.85352L4.20738 4.00551L3.35937 4.00551Z" fill="#B9B9B9"/>
<path d="M3.35937 3.15785L3.35938 4.00586L4.20738 4.00586L4.20738 3.15785L3.35937 3.15785Z" fill="#B9B9B9"/>
<path d="M3.35937 2.31019L3.35938 3.1582L4.20738 3.1582L4.20738 2.31019L3.35937 2.31019Z" fill="#B9B9B9"/>
<path d="M3.35937 1.46156L3.35938 2.30957L4.20738 2.30957L4.20738 1.46156L3.35937 1.46156Z" fill="#606060"/>
<path d="M3.35937 0.613904L3.35938 1.46191L4.20738 1.46191L4.20738 0.613904L3.35937 0.613904Z" fill="#16171A"/>
<path d="M4.20312 8.24574L4.20312 9.09375L5.05113 9.09375L5.05113 8.24574L4.20312 8.24574Z" fill="#16171A"/>
<path d="M4.20312 7.39808L4.20312 8.24609L5.05113 8.24609L5.05113 7.39808L4.20312 7.39808Z" fill="#606060"/>
<path d="M4.20312 6.5514L4.20312 7.39941L5.05113 7.39941L5.05113 6.5514L4.20312 6.5514Z" fill="#16171A"/>
<path d="M4.20312 5.7018L4.20312 6.5498L5.05113 6.5498L5.05113 5.7018L4.20312 5.7018Z" fill="#606060"/>
<path d="M4.20312 4.85316L4.20312 5.70117L5.05113 5.70117L5.05113 4.85316L4.20312 4.85316Z" fill="#606060"/>
<path d="M4.20312 4.00551L4.20312 4.85352L5.05113 4.85352L5.05113 4.00551L4.20312 4.00551Z" fill="#606060"/>
<path d="M4.20312 3.15785L4.20312 4.00586L5.05113 4.00586L5.05113 3.15785L4.20312 3.15785Z" fill="#606060"/>
<path d="M4.20312 2.31019L4.20312 3.1582L5.05113 3.1582L5.05113 2.31019L4.20312 2.31019Z" fill="#606060"/>
<path d="M4.20312 1.46156L4.20312 2.30957L5.05113 2.30957L5.05113 1.46156L4.20312 1.46156Z" fill="#16171A"/>
<path d="M5.05078 7.39808L5.05078 8.24609L5.89879 8.24609L5.89879 7.39808L5.05078 7.39808Z" fill="#16171A"/>
<path d="M5.05078 6.5514L5.05078 7.39941L5.89879 7.39941L5.89879 6.5514L5.05078 6.5514Z" fill="#16171A"/>
<path d="M5.05078 5.7018L5.05078 6.5498L5.89879 6.5498L5.89879 5.7018L5.05078 5.7018Z" fill="#16171A"/>
<path d="M5.05078 4.85316L5.05078 5.70117L5.89879 5.70117L5.89879 4.85316L5.05078 4.85316Z" fill="#16171A"/>
<path d="M5.05078 4.00551L5.05078 4.85352L5.89879 4.85352L5.89879 4.00551L5.05078 4.00551Z" fill="#16171A"/>
<path d="M5.05078 3.15785L5.05078 4.00586L5.89879 4.00586L5.89879 3.15785L5.05078 3.15785Z" fill="#16171A"/>
<path d="M5.05078 2.31019L5.05078 3.1582L5.89879 3.1582L5.89879 2.31019L5.05078 2.31019Z" fill="#16171A"/>
</svg>
