<svg width="137" height="32" viewBox="0 0 137 32" fill="none" xmlns="http://www.w3.org/2000/svg">
<rect x="1.66299" y="5.68842" width="1.66059" height="1.42226" fill="black"/>
<rect x="135.337" y="27.7339" width="1.66059" height="2.84451" transform="rotate(-180 135.337 27.7339)" fill="black"/>
<rect x="3.3223" y="24.8893" width="2.84451" height="1.66059" transform="rotate(90 3.3223 24.8893)" fill="black"/>
<rect x="8.30386" y="23.4674" width="1.42226" height="1.66059" transform="rotate(90 8.30386 23.4674)" fill="#82D2FF"/>
<rect x="128.696" y="24.8893" width="1.42226" height="120.393" transform="rotate(90 128.696 24.8893)" fill="#82D2FF"/>
<rect x="133.674" y="7.11194" width="2.84451" height="1.66059" transform="rotate(-90 133.674 7.11194)" fill="black"/>
<rect x="1.66299" y="4.26654" width="1.66059" height="1.42226" fill="black"/>
<rect x="133.674" y="29.1559" width="1.66059" height="1.42226" transform="rotate(-180 133.674 29.1559)" fill="black"/>
<rect x="4.9776" y="27.7339" width="1.42226" height="1.66059" transform="rotate(90 4.9776 27.7339)" fill="black"/>
<rect x="3.3223" y="2.84546" width="1.66059" height="1.42226" fill="black"/>
<rect x="6.64059" y="29.1559" width="1.42226" height="1.66059" transform="rotate(90 6.64059 29.1559)" fill="black"/>
<rect x="132.022" y="4.26654" width="1.42226" height="1.66059" transform="rotate(-90 132.022 4.26654)" fill="black"/>
<rect x="4.9776" y="1.42188" width="3.32118" height="1.42226" fill="black"/>
<rect x="132.022" y="30.5778" width="3.32118" height="1.42225" transform="rotate(-180 132.022 30.5778)" fill="black"/>
<path fill-rule="evenodd" clip-rule="evenodd" d="M3.32074 24.8895H1.66275V20.6227H3.32334L3.32334 23.4682H3.32603L3.32603 22.0446L4.98662 22.0446L4.98662 23.4682H6.64192V24.89L8.3052 24.89V26.3119L128.697 26.3119V30.5787L8.30466 30.5787V29.1568H4.98402L4.98402 27.7349L3.32074 27.7349L3.32074 24.8895ZM132.024 29.1568H128.702V24.89L130.363 24.89V23.4682L132.022 23.4682V22.0459L133.678 22.0459V20.6227H135.338V24.8895H133.683V27.7349H132.024V29.1568Z" fill="#005AE2"/>
<rect x="8.30386" y="29.1559" width="1.42226" height="1.66059" transform="rotate(90 8.30386 29.1559)" fill="black"/>
<rect x="128.696" y="2.84546" width="1.42226" height="3.32118" transform="rotate(-90 128.696 2.84546)" fill="black"/>
<rect x="8.30386" width="120.393" height="1.42226" fill="black"/>
<rect x="8.30386" y="30.5778" width="120.393" height="1.42226" fill="black"/>
<rect y="7.11197" width="1.66059" height="17.7782" fill="black"/>
<rect x="137" y="24.8893" width="1.66059" height="17.7782" transform="rotate(-180 137 24.8893)" fill="black"/>
<path fill-rule="evenodd" clip-rule="evenodd" d="M128.706 2.84407L8.31315 2.84406V1.42181L128.706 1.42182V2.84407ZM6.65497 4.26727V2.84534L130.369 2.84535V4.26728H132.028V5.68916H133.691V7.1114H135.347V19.2006L1.66928 19.2006V7.1114L132.116 7.1114L3.33488 7.11139L3.33488 5.68915H4.99307L4.99307 4.26727H6.65497ZM3.33371 20.6235L3.33371 20.6238L3.33371 22.0457H4.99161L4.99161 23.4667L132.027 23.4667V22.0457H133.69V20.6238V20.6235V19.2015L3.33371 19.2016V20.6235ZM8.31197 24.8903L8.31197 23.4681L128.705 23.4681V24.8903L8.31197 24.8903Z" fill="#32B5FF"/>
<rect x="128.696" y="1.42188" width="1.42226" height="120.393" transform="rotate(90 128.696 1.42188)" fill="#82D2FF"/>
<rect x="4.9776" y="4.26654" width="1.42226" height="1.66059" transform="rotate(90 4.9776 4.26654)" fill="#82D2FF"/>
<rect x="3.3223" y="7.11194" width="2.84451" height="1.66059" transform="rotate(90 3.3223 7.11194)" fill="#82D2FF"/>
<rect x="6.64059" y="2.84546" width="1.42226" height="1.66059" transform="rotate(90 6.64059 2.84546)" fill="#82D2FF"/>
<rect x="8.30386" y="2.84546" width="1.42226" height="1.66059" transform="rotate(90 8.30386 2.84546)" fill="#82D2FF"/>
<rect x="132.022" y="2.84546" width="1.42226" height="3.32118" transform="rotate(90 132.022 2.84546)" fill="#82D2FF"/>
<rect x="133.674" y="4.26654" width="1.42226" height="1.66059" transform="rotate(90 133.674 4.26654)" fill="#82D2FF"/>
<rect x="135.337" y="7.11194" width="2.84451" height="1.66059" transform="rotate(90 135.337 7.11194)" fill="#82D2FF"/>
<rect width="4.26677" height="3.32118" transform="matrix(-1.53109e-07 -1 -1 1.12313e-07 30.7221 30.5778)" fill="#BEE8FF"/>
<rect width="4.26677" height="3.32118" transform="matrix(-1.53109e-07 -1 -1 1.12313e-07 112.093 30.5778)" fill="#BEE8FF"/>
<rect width="4.26677" height="2.49088" transform="matrix(-1.53109e-07 -1 -1 1.12313e-07 26.5666 30.5778)" fill="#BEE8FF"/>
<rect width="4.26677" height="2.49088" transform="matrix(-1.53109e-07 -1 -1 1.12313e-07 107.941 30.5778)" fill="#BEE8FF"/>
<rect width="4.26677" height="1.66059" transform="matrix(-1.53109e-07 -1 -1 1.12313e-07 23.252 30.5778)" fill="#BEE8FF"/>
<rect width="4.26677" height="1.66059" transform="matrix(-1.53109e-07 -1 -1 1.12313e-07 104.615 30.5778)" fill="#BEE8FF"/>
<rect width="4.26677" height="0.830294" transform="matrix(-1.53109e-07 -1 -1 1.12313e-07 20.7592 30.5778)" fill="#BEE8FF"/>
<rect width="4.26677" height="0.830294" transform="matrix(-1.53109e-07 -1 -1 1.12313e-07 102.13 30.5778)" fill="#BEE8FF"/>
<rect x="3.3223" y="19.2009" width="2.84451" height="1.66059" transform="rotate(90 3.3223 19.2009)" fill="#82D2FF"/>
<rect x="6.64059" y="23.4674" width="1.42226" height="1.66059" transform="rotate(90 6.64059 23.4674)" fill="#82D2FF"/>
<rect x="4.9776" y="22.0455" width="1.42226" height="1.66059" transform="rotate(90 4.9776 22.0455)" fill="#82D2FF"/>
<rect x="132.022" y="24.8893" width="3.32118" height="1.42225" transform="rotate(-180 132.022 24.8893)" fill="#82D2FF"/>
<rect x="133.674" y="23.4674" width="1.66059" height="1.42226" transform="rotate(-180 133.674 23.4674)" fill="#82D2FF"/>
<rect x="135.337" y="20.6228" width="1.66059" height="2.84451" transform="rotate(-180 135.337 20.6228)" fill="#82D2FF"/>
<path d="M24.4857 11.4631H23.8275H23.1693V12.1213H22.5112V12.7795V13.4376V14.754V15.4121V16.0703H23.1693V16.7285H23.8275H24.4857H25.1438H25.802H26.4602V16.0703H27.1183V15.4121H28.4347V16.7285H27.7765V17.3866H27.1183V18.0448H25.1438H24.4857H22.5112V17.3866H21.853V16.7285H21.1948V15.4121V14.754V14.0958V13.4376V11.4631H21.853V10.805H22.5112V10.1468H23.8275H24.4857H25.1438H27.1183V10.805H27.7765V11.4631H28.4347V12.7795H27.1183V12.1213H26.4602V11.4631H25.802H25.1438H24.4857ZM33.0453 11.4631H32.3872H31.729V12.1213H31.0708V12.7795V13.4376V14.754V15.4121V16.0703H31.729V16.7285H32.3872H33.0453H33.7035H34.3617H35.0198V16.0703H35.678V15.4121V14.754V12.7795V12.1213H35.0198V11.4631H34.3617H33.7035H33.0453ZM36.9943 14.754V16.7285H36.3362V17.3866H35.678V18.0448H33.7035H33.0453H31.0708V17.3866H30.4127V16.7285H29.7545V15.4121V14.754V14.0958V13.4376V11.4631H30.4127V10.805H31.0708V10.1468H32.3872H33.0453H33.7035H35.678V10.805H36.3362V11.4631H36.9943V12.7795V14.754ZM44.2377 12.7795V10.805V10.1468H45.554V10.805V11.4631V16.7285V18.0448H44.2377V16.7285H43.5795V16.0703H42.9213V15.4121H42.2632V14.754H41.605V14.0958H40.9468V13.4376H40.2887V12.7795H39.6305V14.754V18.0448H38.9723H38.3142V17.3866V16.7285V16.0703V14.754V14.0958V13.4376V12.7795V12.1213V11.4631V10.805V10.1468H38.9723H39.6305V10.805H40.2887V11.4631H40.9468V12.1213H41.605V12.7795H42.2632V13.4376H42.9213V14.0958H43.5795V14.754H44.2377V12.7795ZM52.7973 12.7795V10.805V10.1468H54.1137V10.805V11.4631V16.7285V18.0448H52.7973V16.7285H52.1392V16.0703H51.481V15.4121H50.8228V14.754H50.1647V14.0958H49.5065V13.4376H48.8483V12.7795H48.1902V14.754V18.0448H47.532H46.8738V17.3866V16.7285V16.0703V14.754V14.0958V13.4376V12.7795V12.1213V11.4631V10.805V10.1468H47.532H48.1902V10.805H48.8483V11.4631H49.5065V12.1213H50.1647V12.7795H50.8228V13.4376H51.481V14.0958H52.1392V14.754H52.7973V12.7795ZM55.4335 11.4631V10.805V10.1468H56.0917H56.7498H58.7243H62.6733V11.4631H62.0152H61.357H60.0407H59.3825H58.7243H57.408H56.7498V13.4376H61.357V14.754H56.7498V16.7285H57.408H58.7243H59.3825H60.0407H61.357H62.0152H62.6733V18.0448H58.7243H56.7498H56.0917H55.4335V17.3866V16.7285V16.0703V14.754V14.0958V13.4376V12.7795V12.1213V11.4631ZM67.284 11.4631H66.6258H65.9677V12.1213H65.3095V12.7795V13.4376V14.754V15.4121V16.0703H65.9677V16.7285H66.6258H67.284H67.9422H68.6003H69.2585V16.0703H69.9166V15.4121H71.233V16.7285H70.5748V17.3866H69.9166V18.0448H67.9422H67.284H65.3095V17.3866H64.6513V16.7285H63.9932V15.4121V14.754V14.0958V13.4376V11.4631H64.6513V10.805H65.3095V10.1468H66.6258H67.284H67.9422H69.9166V10.805H70.5748V11.4631H71.233V12.7795H69.9166V12.1213H69.2585V11.4631H68.6003H67.9422H67.284ZM72.5528 11.4631V10.805V10.1468H73.211H73.8692H75.8436H79.1345V11.4631H78.4763H77.8181H76.5018V14.754V18.0448H75.1855V14.754V11.4631H74.5273H72.5528ZM95.5956 13.4376V10.1468H96.2538H96.912V10.805V11.4631V12.1213V13.4376V14.0958V14.754V15.4121V16.0703V16.7285V17.3866V18.0448H96.2538H95.5956V17.3866H94.9375V16.7285H94.2793V16.0703H93.6211V15.4121H92.963V16.0703H92.3048V16.7285H91.6466V17.3866H90.9885V18.0448H89.6721V17.3866V16.7285V11.4631V10.1468H90.9885V13.4376V15.4121H91.6466V14.754H92.3048V14.0958H92.963V13.4376H93.6211V14.0958H94.2793V14.754H94.9375V15.4121H95.5956V13.4376ZM98.2318 17.3866V16.7285V15.4121V14.0958V13.4376V12.7795H98.89V12.1213H99.5481V11.4631H100.206V10.805H100.864V10.1468H102.839V10.805H103.497V11.4631H104.155V12.1213H104.813V12.7795H105.472V13.4376V14.0958V15.4121V16.7285V17.3866V18.0448H104.813H104.155V17.3866V16.7285V15.4121H99.5481V16.7285V17.3866V18.0448H98.89H98.2318V17.3866ZM104.155 14.0958V13.4376H103.497V12.7795H102.839V12.1213H102.181V11.4631H101.523V12.1213H100.864V12.7795H100.206V13.4376H99.5481V14.0958H104.155ZM112.715 18.0448H108.108H107.45H106.791V17.3866V16.7285V16.0703V14.754V14.0958V13.4376V12.7795V12.1213V11.4631V10.805V10.1468H107.45H108.108V16.7285H112.715V15.4121H114.031V16.7285V18.0448H112.715ZM115.351 11.4631V10.805V10.1468H116.009H116.667H118.642H122.591V11.4631H121.933H121.275H119.958H119.3H118.642H117.326H116.667V13.4376H121.275V14.754H116.667V16.7285H117.326H118.642H119.3H119.958H121.275H121.933H122.591V18.0448H118.642H116.667H116.009H115.351V17.3866V16.7285V16.0703V14.754V14.0958V13.4376V12.7795V12.1213V11.4631ZM123.911 11.4631V10.805V10.1468H124.569H125.227H127.202H130.492V11.4631H129.834H129.176H127.86V14.754V18.0448H126.543V14.754V11.4631H125.885H123.911Z" fill="#393939"/>
<path d="M24.4856 10.4184H23.8275H23.1693V11.0765H22.5111V11.7347V12.3929V13.7092V14.3674V15.0255H23.1693V15.6837H23.8275H24.4856H25.1438H25.802H26.4601V15.0255H27.1183V14.3674H28.4346V15.6837H27.7765V16.3419H27.1183V17H25.1438H24.4856H22.5111V16.3419H21.853V15.6837H21.1948V14.3674V13.7092V13.051V12.3929V10.4184H21.853V9.76021H22.5111V9.10204H23.8275H24.4856H25.1438H27.1183V9.76021H27.7765V10.4184H28.4346V11.7347H27.1183V11.0765H26.4601V10.4184H25.802H25.1438H24.4856ZM33.0453 10.4184H32.3871H31.729V11.0765H31.0708V11.7347V12.3929V13.7092V14.3674V15.0255H31.729V15.6837H32.3871H33.0453H33.7035H34.3616H35.0198V15.0255H35.678V14.3674V13.7092V11.7347V11.0765H35.0198V10.4184H34.3616H33.7035H33.0453ZM36.9943 13.7092V15.6837H36.3361V16.3419H35.678V17H33.7035H33.0453H31.0708V16.3419H30.4126V15.6837H29.7545V14.3674V13.7092V13.051V12.3929V10.4184H30.4126V9.76021H31.0708V9.10204H32.3871H33.0453H33.7035H35.678V9.76021H36.3361V10.4184H36.9943V11.7347V13.7092ZM44.2376 11.7347V9.76021V9.10204H45.554V9.76021V10.4184V15.6837V17H44.2376V15.6837H43.5795V15.0255H42.9213V14.3674H42.2631V13.7092H41.605V13.051H40.9468V12.3929H40.2886V11.7347H39.6305V13.7092V17H38.9723H38.3141V16.3419V15.6837V15.0255V13.7092V13.051V12.3929V11.7347V11.0765V10.4184V9.76021V9.10204H38.9723H39.6305V9.76021H40.2886V10.4184H40.9468V11.0765H41.605V11.7347H42.2631V12.3929H42.9213V13.051H43.5795V13.7092H44.2376V11.7347ZM52.7973 11.7347V9.76021V9.10204H54.1136V9.76021V10.4184V15.6837V17H52.7973V15.6837H52.1391V15.0255H51.481V14.3674H50.8228V13.7092H50.1646V13.051H49.5065V12.3929H48.8483V11.7347H48.1901V13.7092V17H47.532H46.8738V16.3419V15.6837V15.0255V13.7092V13.051V12.3929V11.7347V11.0765V10.4184V9.76021V9.10204H47.532H48.1901V9.76021H48.8483V10.4184H49.5065V11.0765H50.1646V11.7347H50.8228V12.3929H51.481V13.051H52.1391V13.7092H52.7973V11.7347ZM55.4335 10.4184V9.76021V9.10204H56.0916H56.7498H58.7243H62.6733V10.4184H62.0151H61.357H60.0406H59.3825H58.7243H57.408H56.7498V12.3929H61.357V13.7092H56.7498V15.6837H57.408H58.7243H59.3825H60.0406H61.357H62.0151H62.6733V17H58.7243H56.7498H56.0916H55.4335V16.3419V15.6837V15.0255V13.7092V13.051V12.3929V11.7347V11.0765V10.4184ZM67.284 10.4184H66.6258H65.9676V11.0765H65.3095V11.7347V12.3929V13.7092V14.3674V15.0255H65.9676V15.6837H66.6258H67.284H67.9421H68.6003H69.2585V15.0255H69.9166V14.3674H71.2329V15.6837H70.5748V16.3419H69.9166V17H67.9421H67.284H65.3095V16.3419H64.6513V15.6837H63.9931V14.3674V13.7092V13.051V12.3929V10.4184H64.6513V9.76021H65.3095V9.10204H66.6258H67.284H67.9421H69.9166V9.76021H70.5748V10.4184H71.2329V11.7347H69.9166V11.0765H69.2585V10.4184H68.6003H67.9421H67.284ZM72.5528 10.4184V9.76021V9.10204H73.211H73.8691H75.8436H79.1344V10.4184H78.4763H77.8181H76.5018V13.7092V17H75.1855V13.7092V10.4184H74.5273H72.5528ZM95.5956 12.3929V9.10204H96.2538H96.9119V9.76021V10.4184V11.0765V12.3929V13.051V13.7092V14.3674V15.0255V15.6837V16.3419V17H96.2538H95.5956V16.3419H94.9374V15.6837H94.2793V15.0255H93.6211V14.3674H92.9629V15.0255H92.3048V15.6837H91.6466V16.3419H90.9884V17H89.6721V16.3419V15.6837V10.4184V9.10204H90.9884V12.3929V14.3674H91.6466V13.7092H92.3048V13.051H92.9629V12.3929H93.6211V13.051H94.2793V13.7092H94.9374V14.3674H95.5956V12.3929ZM98.2318 16.3419V15.6837V14.3674V13.051V12.3929V11.7347H98.8899V11.0765H99.5481V10.4184H100.206V9.76021H100.864V9.10204H102.839V9.76021H103.497V10.4184H104.155V11.0765H104.813V11.7347H105.472V12.3929V13.051V14.3674V15.6837V16.3419V17H104.813H104.155V16.3419V15.6837V14.3674H99.5481V15.6837V16.3419V17H98.8899H98.2318V16.3419ZM104.155 13.051V12.3929H103.497V11.7347H102.839V11.0765H102.181V10.4184H101.523V11.0765H100.864V11.7347H100.206V12.3929H99.5481V13.051H104.155ZM112.715 17H108.108H107.45H106.791V16.3419V15.6837V15.0255V13.7092V13.051V12.3929V11.7347V11.0765V10.4184V9.76021V9.10204H107.45H108.108V15.6837H112.715V14.3674H114.031V15.6837V17H112.715ZM115.351 10.4184V9.76021V9.10204H116.009H116.667H118.642H122.591V10.4184H121.933H121.275H119.958H119.3H118.642H117.326H116.667V12.3929H121.275V13.7092H116.667V15.6837H117.326H118.642H119.3H119.958H121.275H121.933H122.591V17H118.642H116.667H116.009H115.351V16.3419V15.6837V15.0255V13.7092V13.051V12.3929V11.7347V11.0765V10.4184ZM123.911 10.4184V9.76021V9.10204H124.569H125.227H127.202H130.492V10.4184H129.834H129.176H127.86V13.7092V17H126.543V13.7092V10.4184H125.885H123.911Z" fill="white"/>
<rect x="6.21121" y="9.84265" width="8.47938" height="1.21134" fill="#393939"/>
<rect x="11.0566" y="11.054" width="8.47938" height="1.21134" transform="rotate(90 11.0566 11.054)" fill="#393939"/>
<rect x="5" y="11.054" width="1.21134" height="1.21134" fill="#393939"/>
<rect width="1.21134" height="1.21134" transform="matrix(-1 0 0 1 15.902 11.054)" fill="#393939"/>
<rect x="6.21121" y="12.2654" width="1.21134" height="1.21134" fill="#393939"/>
<rect width="1.21134" height="1.21134" transform="matrix(-1 0 0 1 14.6908 12.2654)" fill="#393939"/>
<rect x="6.21121" y="13.4767" width="1.21134" height="1.21134" fill="#393939"/>
<rect width="1.21134" height="1.21134" transform="matrix(-1 0 0 1 14.6908 13.4767)" fill="#393939"/>
<rect x="7.4227" y="14.688" width="1.21134" height="1.21134" fill="#393939"/>
<rect width="1.21134" height="1.21134" transform="matrix(-1 0 0 1 13.4793 14.688)" fill="#393939"/>
<rect x="7.4227" y="15.8994" width="1.21134" height="1.21134" fill="#393939"/>
<rect width="1.21134" height="1.21134" transform="matrix(-1 0 0 1 13.4793 15.8994)" fill="#393939"/>
<rect x="8.63391" y="17.1107" width="1.21134" height="1.21134" fill="#393939"/>
<rect width="1.21134" height="1.21134" transform="matrix(-1 0 0 1 12.2681 17.1107)" fill="#393939"/>
<rect x="6.21121" y="9.00003" width="8.47938" height="1.21134" fill="white"/>
<rect x="11.0566" y="10.2114" width="8.47938" height="1.21134" transform="rotate(90 11.0566 10.2114)" fill="white"/>
<rect x="5" y="10.2114" width="1.21134" height="1.21134" fill="white"/>
<rect width="1.21134" height="1.21134" transform="matrix(-1 0 0 1 15.902 10.2114)" fill="white"/>
<rect x="6.21121" y="11.4227" width="1.21134" height="1.21134" fill="white"/>
<rect width="1.21134" height="1.21134" transform="matrix(-1 0 0 1 14.6908 11.4227)" fill="white"/>
<rect x="6.21121" y="12.634" width="1.21134" height="1.21134" fill="white"/>
<rect width="1.21134" height="1.21134" transform="matrix(-1 0 0 1 14.6908 12.634)" fill="white"/>
<rect x="7.4227" y="13.8453" width="1.21134" height="1.21134" fill="white"/>
<rect width="1.21134" height="1.21134" transform="matrix(-1 0 0 1 13.4793 13.8453)" fill="white"/>
<rect x="7.4227" y="15.0566" width="1.21134" height="1.21134" fill="white"/>
<rect width="1.21134" height="1.21134" transform="matrix(-1 0 0 1 13.4793 15.0566)" fill="white"/>
<rect x="8.63391" y="16.268" width="1.21134" height="1.21134" fill="white"/>
<rect width="1.21134" height="1.21134" transform="matrix(-1 0 0 1 12.2681 16.268)" fill="white"/>
</svg>
