<svg width="146" height="32" viewBox="0 0 146 32" fill="none" xmlns="http://www.w3.org/2000/svg">
<rect x="8" y="30" width="129" height="2" fill="black"/>
<path fill-rule="evenodd" clip-rule="evenodd" d="M137.88 2.84412L8.79286 2.84411V1.42186L137.88 1.42187V2.84412ZM7.01501 4.26732V2.84544L139.663 2.84545V4.26733H141.442V5.68921H143.225V7.11145H145V19.2006L1.66922 19.2006L1.66922 7.11145L141.536 7.11145L3.45517 7.11144L3.45517 5.6892H5.23302L5.23302 4.26732H7.01501ZM3.45386 20.6236L3.45386 20.6239V22.0458H5.23145L5.23145 23.4668H9L9 27L138 27V23.4668H141.44V22.0458H143.224V20.6239V20.6235V19.2017L3.45386 19.2017V20.6236Z" fill="#32B5FF"/>
<rect x="1.66309" y="5.68848" width="1.66059" height="1.42226" fill="black"/>
<rect x="143.674" y="27.7339" width="1.66059" height="2.84451" transform="rotate(-180 143.674 27.7339)" fill="black"/>
<rect x="9" y="23" width="2" height="2" transform="rotate(90 9 23)" fill="#82D2FF"/>
<rect x="137" y="25" width="2" height="129" transform="rotate(90 137 25)" fill="#82D2FF"/>
<rect x="141.978" y="7.11194" width="2.84451" height="1.66059" transform="rotate(-90 141.978 7.11194)" fill="black"/>
<rect x="1.66309" y="4.2666" width="1.66059" height="1.42226" fill="black"/>
<rect x="142.011" y="29.1559" width="1.66059" height="1.42226" transform="rotate(-180 142.011 29.1559)" fill="black"/>
<rect x="3.32227" y="2.84546" width="1.66059" height="1.42226" fill="black"/>
<rect x="140.326" y="4.2666" width="1.42226" height="1.66059" transform="rotate(-90 140.326 4.2666)" fill="black"/>
<rect x="4.97754" y="1.42188" width="3.32118" height="1.42226" fill="black"/>
<rect x="140.36" y="30.5778" width="3.32118" height="1.42225" transform="rotate(-180 140.36 30.5778)" fill="black"/>
<path fill-rule="evenodd" clip-rule="evenodd" d="M2.65801 24.8893H1V20.6226H2.66059L2.66059 23.468H2.66333L2.66333 22.0444L4.32392 22.0444L4.32392 23.468H5.97919V24.8899L7.64228 24.8899L7.64228 29.1567H4.3211L4.3211 27.7348L2.65801 27.7348L2.65801 24.8893ZM8 31L137 31V27L8 27L8 31ZM140.361 29.1567H137.04V24.89L138.7 24.89V23.4681L140.36 23.4681V22.0458L142.015 22.0458V20.6226L143.676 20.6226V24.8894H142.02V27.7349H140.361V29.1567Z" fill="#005AE2"/>
<rect x="137" y="2.84546" width="1.42226" height="3.32118" transform="rotate(-90 137 2.84546)" fill="black"/>
<rect x="8" width="129" height="2" fill="black"/>
<rect y="7.11194" width="1.66059" height="17.7782" fill="black"/>
<rect x="145.337" y="24.8894" width="1.66059" height="17.7782" transform="rotate(-180 145.337 24.8894)" fill="black"/>
<rect x="137" y="2" width="1" height="129" transform="rotate(90 137 2)" fill="#82D2FF"/>
<rect x="4.97754" y="4.2666" width="1.42226" height="1.66059" transform="rotate(90 4.97754 4.2666)" fill="#82D2FF"/>
<rect x="3.32227" y="7.11194" width="2.84451" height="1.66059" transform="rotate(90 3.32227 7.11194)" fill="#82D2FF"/>
<rect x="6.64062" y="2.84546" width="1.42226" height="1.66059" transform="rotate(90 6.64062 2.84546)" fill="#82D2FF"/>
<rect x="8.30396" y="2.84546" width="1.42226" height="1.66059" transform="rotate(90 8.30396 2.84546)" fill="#82D2FF"/>
<rect x="140.326" y="2.84546" width="1.42226" height="3.32118" transform="rotate(90 140.326 2.84546)" fill="#82D2FF"/>
<rect x="141.978" y="4.2666" width="1.42226" height="1.66059" transform="rotate(90 141.978 4.2666)" fill="#82D2FF"/>
<rect x="143.641" y="7.11194" width="2.84451" height="1.66059" transform="rotate(90 143.641 7.11194)" fill="#82D2FF"/>
<rect width="4.26677" height="3.32118" transform="matrix(-1.53109e-07 -1 -1 1.12313e-07 30.7222 30.5778)" fill="#BEE8FF"/>
<rect width="4.26677" height="3.32118" transform="matrix(-1.53109e-07 -1 -1 1.12313e-07 112.093 30.5778)" fill="#BEE8FF"/>
<rect width="4.26677" height="2.49088" transform="matrix(-1.53109e-07 -1 -1 1.12313e-07 26.5667 30.5778)" fill="#BEE8FF"/>
<rect width="4.26677" height="2.49088" transform="matrix(-1.53109e-07 -1 -1 1.12313e-07 107.941 30.5778)" fill="#BEE8FF"/>
<rect width="4.26677" height="1.66059" transform="matrix(-1.53109e-07 -1 -1 1.12313e-07 23.252 30.5778)" fill="#BEE8FF"/>
<rect width="4.26677" height="1.66059" transform="matrix(-1.53109e-07 -1 -1 1.12313e-07 104.615 30.5778)" fill="#BEE8FF"/>
<rect width="4.26677" height="0.830294" transform="matrix(-1.53109e-07 -1 -1 1.12313e-07 20.7593 30.5778)" fill="#BEE8FF"/>
<rect width="4.26677" height="0.830294" transform="matrix(-1.53109e-07 -1 -1 1.12313e-07 102.13 30.5778)" fill="#BEE8FF"/>
<rect x="3.32227" y="19.2009" width="2.84451" height="1.66059" transform="rotate(90 3.32227 19.2009)" fill="#82D2FF"/>
<rect x="4.97754" y="22.0455" width="1.42226" height="1.66059" transform="rotate(90 4.97754 22.0455)" fill="#82D2FF"/>
<rect x="140.36" y="24.8894" width="3.32118" height="1.42225" transform="rotate(-180 140.36 24.8894)" fill="#82D2FF"/>
<rect x="141.661" y="23.4222" width="1.66059" height="1.42226" transform="rotate(-180 141.661 23.4222)" fill="#82D2FF"/>
<rect x="143.674" y="20.6228" width="1.66059" height="2.84451" transform="rotate(-180 143.674 20.6228)" fill="#82D2FF"/>
<rect x="4.97754" y="27.7339" width="1.42226" height="1.66059" transform="rotate(90 4.97754 27.7339)" fill="black"/>
<rect x="6.64062" y="29.1559" width="1.42226" height="1.66059" transform="rotate(90 6.64062 29.1559)" fill="black"/>
<rect x="8.30396" y="29.1559" width="1.42226" height="1.66059" transform="rotate(90 8.30396 29.1559)" fill="black"/>
<rect x="3.32227" y="24.8894" width="2.84451" height="1.66059" transform="rotate(90 3.32227 24.8894)" fill="black"/>
<path d="M22.949 11.4631H22.2908H21.6327V12.1213H20.9745V12.7795V13.4376V14.754V15.4121V16.0703H21.6327V16.7285H22.2908H22.949H23.6072H24.2653H24.9235V16.0703H25.5817V15.4121H26.898V16.7285H26.2398V17.3866H25.5817V18.0448H23.6072H22.949H20.9745V17.3866H20.3163V16.7285H19.6582V15.4121V14.754V14.0958V13.4376V11.4631H20.3163V10.805H20.9745V10.1468H22.2908H22.949H23.6072H25.5817V10.805H26.2398V11.4631H26.898V12.7795H25.5817V12.1213H24.9235V11.4631H24.2653H23.6072H22.949ZM31.5087 11.4631H30.8505H30.1923V12.1213H29.5342V12.7795V13.4376V14.754V15.4121V16.0703H30.1923V16.7285H30.8505H31.5087H32.1668H32.825H33.4832V16.0703H34.1413V15.4121V14.754V12.7795V12.1213H33.4832V11.4631H32.825H32.1668H31.5087ZM35.4576 14.754V16.7285H34.7995V17.3866H34.1413V18.0448H32.1668H31.5087H29.5342V17.3866H28.876V16.7285H28.2178V15.4121V14.754V14.0958V13.4376V11.4631H28.876V10.805H29.5342V10.1468H30.8505H31.5087H32.1668H34.1413V10.805H34.7995V11.4631H35.4576V12.7795V14.754ZM42.701 12.7795V10.805V10.1468H44.0173V10.805V11.4631V16.7285V18.0448H42.701V16.7285H42.0428V16.0703H41.3846V15.4121H40.7265V14.754H40.0683V14.0958H39.4102V13.4376H38.752V12.7795H38.0938V14.754V18.0448H37.4357H36.7775V17.3866V16.7285V16.0703V14.754V14.0958V13.4376V12.7795V12.1213V11.4631V10.805V10.1468H37.4357H38.0938V10.805H38.752V11.4631H39.4102V12.1213H40.0683V12.7795H40.7265V13.4376H41.3846V14.0958H42.0428V14.754H42.701V12.7795ZM51.2606 12.7795V10.805V10.1468H52.577V10.805V11.4631V16.7285V18.0448H51.2606V16.7285H50.6025V16.0703H49.9443V15.4121H49.2861V14.754H48.628V14.0958H47.9698V13.4376H47.3116V12.7795H46.6535V14.754V18.0448H45.9953H45.3372V17.3866V16.7285V16.0703V14.754V14.0958V13.4376V12.7795V12.1213V11.4631V10.805V10.1468H45.9953H46.6535V10.805H47.3116V11.4631H47.9698V12.1213H48.628V12.7795H49.2861V13.4376H49.9443V14.0958H50.6025V14.754H51.2606V12.7795ZM53.8968 11.4631V10.805V10.1468H54.555H55.2131H57.1876H61.1366V11.4631H60.4785H59.8203H58.504H57.8458H57.1876H55.8713H55.2131V13.4376H59.8203V14.754H55.2131V16.7285H55.8713H57.1876H57.8458H58.504H59.8203H60.4785H61.1366V18.0448H57.1876H55.2131H54.555H53.8968V17.3866V16.7285V16.0703V14.754V14.0958V13.4376V12.7795V12.1213V11.4631ZM65.7473 11.4631H65.0891H64.431V12.1213H63.7728V12.7795V13.4376V14.754V15.4121V16.0703H64.431V16.7285H65.0891H65.7473H66.4055H67.0636H67.7218V16.0703H68.38V15.4121H69.6963V16.7285H69.0381V17.3866H68.38V18.0448H66.4055H65.7473H63.7728V17.3866H63.1146V16.7285H62.4565V15.4121V14.754V14.0958V13.4376V11.4631H63.1146V10.805H63.7728V10.1468H65.0891H65.7473H66.4055H68.38V10.805H69.0381V11.4631H69.6963V12.7795H68.38V12.1213H67.7218V11.4631H67.0636H66.4055H65.7473ZM71.0161 11.4631V10.805V10.1468H71.6743H72.3325H74.307H77.5978V11.4631H76.9396H76.2815H74.9651V14.754V18.0448H73.6488V14.754V11.4631H72.9906H71.0161ZM94.059 13.4376V10.1468H94.7171H95.3753V10.805V11.4631V12.1213V13.4376V14.0958V14.754V15.4121V16.0703V16.7285V17.3866V18.0448H94.7171H94.059V17.3866H93.4008V16.7285H92.7426V16.0703H92.0845V15.4121H91.4263V16.0703H90.7681V16.7285H90.11V17.3866H89.4518V18.0448H88.1355V17.3866V16.7285V11.4631V10.1468H89.4518V13.4376V15.4121H90.11V14.754H90.7681V14.0958H91.4263V13.4376H92.0845V14.0958H92.7426V14.754H93.4008V15.4121H94.059V13.4376ZM96.6951 17.3866V16.7285V15.4121V14.0958V13.4376V12.7795H97.3533V12.1213H98.0115V11.4631H98.6696V10.805H99.3278V10.1468H101.302V10.805H101.96V11.4631H102.619V12.1213H103.277V12.7795H103.935V13.4376V14.0958V15.4121V16.7285V17.3866V18.0448H103.277H102.619V17.3866V16.7285V15.4121H98.0115V16.7285V17.3866V18.0448H97.3533H96.6951V17.3866ZM102.619 14.0958V13.4376H101.96V12.7795H101.302V12.1213H100.644V11.4631H99.986V12.1213H99.3278V12.7795H98.6696V13.4376H98.0115V14.0958H102.619ZM111.178 18.0448H106.571H105.913H105.255V17.3866V16.7285V16.0703V14.754V14.0958V13.4376V12.7795V12.1213V11.4631V10.805V10.1468H105.913H106.571V16.7285H111.178V15.4121H112.495V16.7285V18.0448H111.178ZM119.738 18.0448H115.131H114.473H113.814V17.3866V16.7285V16.0703V14.754V14.0958V13.4376V12.7795V12.1213V11.4631V10.805V10.1468H114.473H115.131V16.7285H119.738V15.4121H121.054V16.7285V18.0448H119.738ZM122.374 11.4631V10.805V10.1468H123.032H123.69H125.665H129.614V11.4631H128.956H128.298H126.981H126.323H125.665H124.349H123.69V13.4376H128.298V14.754H123.69V16.7285H124.349H125.665H126.323H126.981H128.298H128.956H129.614V18.0448H125.665H123.69H123.032H122.374V17.3866V16.7285V16.0703V14.754V14.0958V13.4376V12.7795V12.1213V11.4631ZM130.934 11.4631V10.805V10.1468H131.592H132.25H134.225H137.515V11.4631H136.857H136.199H134.883V14.754V18.0448H133.566V14.754V11.4631H132.908H130.934Z" fill="#393939"/>
<path d="M22.949 10.4183H22.2908H21.6327V11.0765H20.9745V11.7347V12.3928V13.7092V14.3673V15.0255H21.6327V15.6837H22.2908H22.949H23.6072H24.2653H24.9235V15.0255H25.5817V14.3673H26.898V15.6837H26.2398V16.3418H25.5817V17H23.6072H22.949H20.9745V16.3418H20.3163V15.6837H19.6582V14.3673V13.7092V13.051V12.3928V10.4183H20.3163V9.76018H20.9745V9.10201H22.2908H22.949H23.6072H25.5817V9.76018H26.2398V10.4183H26.898V11.7347H25.5817V11.0765H24.9235V10.4183H24.2653H23.6072H22.949ZM31.5087 10.4183H30.8505H30.1923V11.0765H29.5342V11.7347V12.3928V13.7092V14.3673V15.0255H30.1923V15.6837H30.8505H31.5087H32.1668H32.825H33.4832V15.0255H34.1413V14.3673V13.7092V11.7347V11.0765H33.4832V10.4183H32.825H32.1668H31.5087ZM35.4576 13.7092V15.6837H34.7995V16.3418H34.1413V17H32.1668H31.5087H29.5342V16.3418H28.876V15.6837H28.2178V14.3673V13.7092V13.051V12.3928V10.4183H28.876V9.76018H29.5342V9.10201H30.8505H31.5087H32.1668H34.1413V9.76018H34.7995V10.4183H35.4576V11.7347V13.7092ZM42.701 11.7347V9.76018V9.10201H44.0173V9.76018V10.4183V15.6837V17H42.701V15.6837H42.0428V15.0255H41.3846V14.3673H40.7265V13.7092H40.0683V13.051H39.4102V12.3928H38.752V11.7347H38.0938V13.7092V17H37.4357H36.7775V16.3418V15.6837V15.0255V13.7092V13.051V12.3928V11.7347V11.0765V10.4183V9.76018V9.10201H37.4357H38.0938V9.76018H38.752V10.4183H39.4102V11.0765H40.0683V11.7347H40.7265V12.3928H41.3846V13.051H42.0428V13.7092H42.701V11.7347ZM51.2606 11.7347V9.76018V9.10201H52.577V9.76018V10.4183V15.6837V17H51.2606V15.6837H50.6025V15.0255H49.9443V14.3673H49.2861V13.7092H48.628V13.051H47.9698V12.3928H47.3116V11.7347H46.6535V13.7092V17H45.9953H45.3372V16.3418V15.6837V15.0255V13.7092V13.051V12.3928V11.7347V11.0765V10.4183V9.76018V9.10201H45.9953H46.6535V9.76018H47.3116V10.4183H47.9698V11.0765H48.628V11.7347H49.2861V12.3928H49.9443V13.051H50.6025V13.7092H51.2606V11.7347ZM53.8968 10.4183V9.76018V9.10201H54.555H55.2131H57.1876H61.1366V10.4183H60.4785H59.8203H58.504H57.8458H57.1876H55.8713H55.2131V12.3928H59.8203V13.7092H55.2131V15.6837H55.8713H57.1876H57.8458H58.504H59.8203H60.4785H61.1366V17H57.1876H55.2131H54.555H53.8968V16.3418V15.6837V15.0255V13.7092V13.051V12.3928V11.7347V11.0765V10.4183ZM65.7473 10.4183H65.0891H64.431V11.0765H63.7728V11.7347V12.3928V13.7092V14.3673V15.0255H64.431V15.6837H65.0891H65.7473H66.4055H67.0636H67.7218V15.0255H68.38V14.3673H69.6963V15.6837H69.0381V16.3418H68.38V17H66.4055H65.7473H63.7728V16.3418H63.1146V15.6837H62.4565V14.3673V13.7092V13.051V12.3928V10.4183H63.1146V9.76018H63.7728V9.10201H65.0891H65.7473H66.4055H68.38V9.76018H69.0381V10.4183H69.6963V11.7347H68.38V11.0765H67.7218V10.4183H67.0636H66.4055H65.7473ZM71.0161 10.4183V9.76018V9.10201H71.6743H72.3325H74.307H77.5978V10.4183H76.9396H76.2815H74.9651V13.7092V17H73.6488V13.7092V10.4183H72.9906H71.0161ZM94.059 12.3928V9.10201H94.7171H95.3753V9.76018V10.4183V11.0765V12.3928V13.051V13.7092V14.3673V15.0255V15.6837V16.3418V17H94.7171H94.059V16.3418H93.4008V15.6837H92.7426V15.0255H92.0845V14.3673H91.4263V15.0255H90.7681V15.6837H90.11V16.3418H89.4518V17H88.1355V16.3418V15.6837V10.4183V9.10201H89.4518V12.3928V14.3673H90.11V13.7092H90.7681V13.051H91.4263V12.3928H92.0845V13.051H92.7426V13.7092H93.4008V14.3673H94.059V12.3928ZM96.6951 16.3418V15.6837V14.3673V13.051V12.3928V11.7347H97.3533V11.0765H98.0115V10.4183H98.6696V9.76018H99.3278V9.10201H101.302V9.76018H101.96V10.4183H102.619V11.0765H103.277V11.7347H103.935V12.3928V13.051V14.3673V15.6837V16.3418V17H103.277H102.619V16.3418V15.6837V14.3673H98.0115V15.6837V16.3418V17H97.3533H96.6951V16.3418ZM102.619 13.051V12.3928H101.96V11.7347H101.302V11.0765H100.644V10.4183H99.986V11.0765H99.3278V11.7347H98.6696V12.3928H98.0115V13.051H102.619ZM111.178 17H106.571H105.913H105.255V16.3418V15.6837V15.0255V13.7092V13.051V12.3928V11.7347V11.0765V10.4183V9.76018V9.10201H105.913H106.571V15.6837H111.178V14.3673H112.495V15.6837V17H111.178ZM119.738 17H115.131H114.473H113.814V16.3418V15.6837V15.0255V13.7092V13.051V12.3928V11.7347V11.0765V10.4183V9.76018V9.10201H114.473H115.131V15.6837H119.738V14.3673H121.054V15.6837V17H119.738ZM122.374 10.4183V9.76018V9.10201H123.032H123.69H125.665H129.614V10.4183H128.956H128.298H126.981H126.323H125.665H124.349H123.69V12.3928H128.298V13.7092H123.69V15.6837H124.349H125.665H126.323H126.981H128.298H128.956H129.614V17H125.665H123.69H123.032H122.374V16.3418V15.6837V15.0255V13.7092V13.051V12.3928V11.7347V11.0765V10.4183ZM130.934 10.4183V9.76018V9.10201H131.592H132.25H134.225H137.515V10.4183H136.857H136.199H134.883V13.7092V17H133.566V13.7092V10.4183H132.908H130.934Z" fill="white"/>
<rect x="6.21118" y="9.84265" width="8.47938" height="1.21134" fill="#393939"/>
<rect x="11.0566" y="11.054" width="8.47938" height="1.21134" transform="rotate(90 11.0566 11.054)" fill="#393939"/>
<rect x="5" y="11.054" width="1.21134" height="1.21134" fill="#393939"/>
<rect width="1.21134" height="1.21134" transform="matrix(-1 0 0 1 15.9021 11.054)" fill="#393939"/>
<rect x="6.21118" y="12.2654" width="1.21134" height="1.21134" fill="#393939"/>
<rect width="1.21134" height="1.21134" transform="matrix(-1 0 0 1 14.6909 12.2654)" fill="#393939"/>
<rect x="6.21118" y="13.4767" width="1.21134" height="1.21134" fill="#393939"/>
<rect width="1.21134" height="1.21134" transform="matrix(-1 0 0 1 14.6909 13.4767)" fill="#393939"/>
<rect x="7.42261" y="14.688" width="1.21134" height="1.21134" fill="#393939"/>
<rect width="1.21134" height="1.21134" transform="matrix(-1 0 0 1 13.4792 14.688)" fill="#393939"/>
<rect x="7.42261" y="15.8993" width="1.21134" height="1.21134" fill="#393939"/>
<rect width="1.21134" height="1.21134" transform="matrix(-1 0 0 1 13.4792 15.8993)" fill="#393939"/>
<rect x="8.63403" y="17.1107" width="1.21134" height="1.21134" fill="#393939"/>
<rect width="1.21134" height="1.21134" transform="matrix(-1 0 0 1 12.2681 17.1107)" fill="#393939"/>
<rect x="6.21118" y="9" width="8.47938" height="1.21134" fill="white"/>
<rect x="11.0566" y="10.2114" width="8.47938" height="1.21134" transform="rotate(90 11.0566 10.2114)" fill="white"/>
<rect x="5" y="10.2114" width="1.21134" height="1.21134" fill="white"/>
<rect width="1.21134" height="1.21134" transform="matrix(-1 0 0 1 15.9021 10.2114)" fill="white"/>
<rect x="6.21118" y="11.4226" width="1.21134" height="1.21134" fill="white"/>
<rect width="1.21134" height="1.21134" transform="matrix(-1 0 0 1 14.6909 11.4226)" fill="white"/>
<rect x="6.21118" y="12.634" width="1.21134" height="1.21134" fill="white"/>
<rect width="1.21134" height="1.21134" transform="matrix(-1 0 0 1 14.6909 12.634)" fill="white"/>
<rect x="7.42261" y="13.8453" width="1.21134" height="1.21134" fill="white"/>
<rect width="1.21134" height="1.21134" transform="matrix(-1 0 0 1 13.4792 13.8453)" fill="white"/>
<rect x="7.42261" y="15.0566" width="1.21134" height="1.21134" fill="white"/>
<rect width="1.21134" height="1.21134" transform="matrix(-1 0 0 1 13.4792 15.0566)" fill="white"/>
<rect x="8.63403" y="16.2679" width="1.21134" height="1.21134" fill="white"/>
<rect width="1.21134" height="1.21134" transform="matrix(-1 0 0 1 12.2681 16.2679)" fill="white"/>
</svg>
