<svg width="15" height="9" viewBox="0 0 15 9" fill="none" xmlns="http://www.w3.org/2000/svg">
<rect x="1" y="1" width="0.964286" height="0.964286" fill="#A7A7A7" stroke="#A7A7A7"/>
<rect x="2.92877" y="2.92847" width="0.964286" height="0.964286" fill="#A7A7A7" stroke="#A7A7A7"/>
<rect x="1.96451" y="1.96436" width="0.964286" height="0.964286" fill="#A7A7A7" stroke="#A7A7A7"/>
<rect x="3.89307" y="3.89282" width="0.964286" height="0.964286" fill="#A7A7A7" stroke="#A7A7A7"/>
<rect x="4.85736" y="4.85718" width="0.964286" height="0.964286" fill="#A7A7A7" stroke="#A7A7A7"/>
<rect x="5.82162" y="5.82153" width="0.964286" height="0.964286" fill="#A7A7A7" stroke="#A7A7A7"/>
<rect width="0.964286" height="0.964286" transform="matrix(-1 0 0 1 13.5359 1)" fill="#A7A7A7" stroke="#A7A7A7"/>
<rect width="0.964286" height="0.964286" transform="matrix(-1 0 0 1 11.6071 2.92847)" fill="#A7A7A7" stroke="#A7A7A7"/>
<rect width="0.964286" height="0.964286" transform="matrix(-1 0 0 1 12.5714 1.96436)" fill="#A7A7A7" stroke="#A7A7A7"/>
<rect width="0.964286" height="0.964286" transform="matrix(-1 0 0 1 10.6429 3.89282)" fill="#A7A7A7" stroke="#A7A7A7"/>
<rect width="0.964286" height="0.964286" transform="matrix(-1 0 0 1 9.67856 4.85718)" fill="#A7A7A7" stroke="#A7A7A7"/>
<rect width="0.964286" height="0.964286" transform="matrix(-1 0 0 1 8.71429 5.82153)" fill="#A7A7A7" stroke="#A7A7A7"/>
<rect width="0.964286" height="1.92857" transform="matrix(-1 0 0 1 7.75 5.82153)" fill="#A7A7A7" stroke="#A7A7A7"/>
</svg>
