<svg width="9" height="9" viewBox="0 0 9 9" fill="none" xmlns="http://www.w3.org/2000/svg">
<path d="M2.68785 0.353516H1.83984V1.20153H2.68785V0.353516Z" fill="#16171A"/>
<path d="M3.54332 0.353516H2.69531V1.20153H3.54332V0.353516Z" fill="#16171A"/>
<path d="M4.38707 0.353516H3.53906V1.20153H4.38707V0.353516Z" fill="#16171A"/>
<path d="M5.24254 0.353516H4.39453V1.20153H5.24254V0.353516Z" fill="#16171A"/>
<path d="M6.08238 0.353516H5.23438V1.20153H6.08238V0.353516Z" fill="#16171A"/>
<path d="M6.93395 0.353516H6.08594V1.20153H6.93395V0.353516Z" fill="#16171A"/>
<path d="M1.8441 1.20117H0.996094V2.04918H1.8441V1.20117Z" fill="#16171A"/>
<path d="M2.68785 1.20117H1.83984V2.04918H2.68785V1.20117Z" fill="#FAFDFF"/>
<path d="M3.54332 1.20117H2.69531V2.04918H3.54332V1.20117Z" fill="#FAFDFF"/>
<path d="M4.38707 1.20117H3.53906V2.04918H4.38707V1.20117Z" fill="#FAFDFF"/>
<path d="M5.24254 1.20117H4.39453V2.04918H5.24254V1.20117Z" fill="#FAFDFF"/>
<path d="M6.08238 1.20117H5.23438V2.04918H6.08238V1.20117Z" fill="#FAFDFF"/>
<path d="M6.93395 1.20117H6.08594V2.04918H6.93395V1.20117Z" fill="#B9B9B9"/>
<path d="M7.77379 1.20117H6.92578V2.04918H7.77379V1.20117Z" fill="#16171A"/>
<path d="M0.996447 2.04785H0.148438V2.89586H0.996447V2.04785Z" fill="#16171A"/>
<path d="M1.8441 2.04785H0.996094V2.89586H1.8441V2.04785Z" fill="#FAFDFF"/>
<path d="M2.68785 2.04785H1.83984V2.89586H2.68785V2.04785Z" fill="#FAFDFF"/>
<path d="M3.54332 2.04785H2.69531V2.89586H3.54332V2.04785Z" fill="#FAFDFF"/>
<path d="M4.38707 2.04785H3.53906V2.89586H4.38707V2.04785Z" fill="#FAFDFF"/>
<path d="M5.24254 2.04785H4.39453V2.89586H5.24254V2.04785Z" fill="#FAFDFF"/>
<path d="M6.08238 2.04785H5.23438V2.89586H6.08238V2.04785Z" fill="#FAFDFF"/>
<path d="M6.93395 2.04785H6.08594V2.89586H6.93395V2.04785Z" fill="#FAFDFF"/>
<path d="M7.77379 2.04785H6.92578V2.89586H7.77379V2.04785Z" fill="#B9B9B9"/>
<path d="M8.62535 2.04785H7.77734V2.89586H8.62535V2.04785Z" fill="#16171A"/>
<path d="M0.996447 2.89746H0.148438V3.74547H0.996447V2.89746Z" fill="#16171A"/>
<path d="M1.8441 2.89746H0.996094V3.74547H1.8441V2.89746Z" fill="#FAFDFF"/>
<path d="M2.68785 2.89746H1.83984V3.74547H2.68785V2.89746Z" fill="#FAFDFF"/>
<path d="M3.54332 2.89746H2.69531V3.74547H3.54332V2.89746Z" fill="#FAFDFF"/>
<path d="M4.38707 2.89746H3.53906V3.74547H4.38707V2.89746Z" fill="#FAFDFF"/>
<path d="M5.24254 2.89746H4.39453V3.74547H5.24254V2.89746Z" fill="#FAFDFF"/>
<path d="M6.08238 2.89746H5.23438V3.74547H6.08238V2.89746Z" fill="#FAFDFF"/>
<path d="M6.93395 2.89746H6.08594V3.74547H6.93395V2.89746Z" fill="#FAFDFF"/>
<path d="M7.77379 2.89746H6.92578V3.74547H7.77379V2.89746Z" fill="#B9B9B9"/>
<path d="M8.62535 2.89746H7.77734V3.74547H8.62535V2.89746Z" fill="#16171A"/>
<path d="M0.996447 3.74512H0.148438V4.59313H0.996447V3.74512Z" fill="#16171A"/>
<path d="M1.8441 3.74512H0.996094V4.59313H1.8441V3.74512Z" fill="#FAFDFF"/>
<path d="M2.68785 3.74512H1.83984V4.59313H2.68785V3.74512Z" fill="#16171A"/>
<path d="M3.54332 3.74512H2.69531V4.59313H3.54332V3.74512Z" fill="#16171A"/>
<path d="M4.38707 3.74512H3.53906V4.59313H4.38707V3.74512Z" fill="#FAFDFF"/>
<path d="M5.24254 3.74512H4.39453V4.59313H5.24254V3.74512Z" fill="#FAFDFF"/>
<path d="M6.08238 3.74512H5.23438V4.59313H6.08238V3.74512Z" fill="#16171A"/>
<path d="M6.93395 3.74512H6.08594V4.59313H6.93395V3.74512Z" fill="#16171A"/>
<path d="M7.77379 3.74512H6.92578V4.59313H7.77379V3.74512Z" fill="#B9B9B9"/>
<path d="M8.62535 3.74512H7.77734V4.59313H8.62535V3.74512Z" fill="#16171A"/>
<path d="M0.996447 4.59375H0.148438V5.44176H0.996447V4.59375Z" fill="#16171A"/>
<path d="M1.8441 4.59375H0.996094V5.44176H1.8441V4.59375Z" fill="#FAFDFF"/>
<path d="M2.68785 4.59375H1.83984V5.44176H2.68785V4.59375Z" fill="#16171A"/>
<path d="M3.54332 4.59375H2.69531V5.44176H3.54332V4.59375Z" fill="#16171A"/>
<path d="M4.38707 4.59375H3.53906V5.44176H4.38707V4.59375Z" fill="#FAFDFF"/>
<path d="M5.24254 4.59375H4.39453V5.44176H5.24254V4.59375Z" fill="#FAFDFF"/>
<path d="M6.08238 4.59375H5.23438V5.44176H6.08238V4.59375Z" fill="#16171A"/>
<path d="M6.93395 4.59375H6.08594V5.44176H6.93395V4.59375Z" fill="#16171A"/>
<path d="M7.77379 4.59375H6.92578V5.44176H7.77379V4.59375Z" fill="#B9B9B9"/>
<path d="M8.62535 4.59375H7.77734V5.44176H8.62535V4.59375Z" fill="#16171A"/>
<path d="M0.996447 5.44141H0.148438V6.28942H0.996447V5.44141Z" fill="#16171A"/>
<path d="M1.8441 5.44141H0.996094V6.28942H1.8441V5.44141Z" fill="#16171A"/>
<path d="M2.68785 5.44141H1.83984V6.28942H2.68785V5.44141Z" fill="#FAFDFF"/>
<path d="M3.54332 5.44141H2.69531V6.28942H3.54332V5.44141Z" fill="#FAFDFF"/>
<path d="M4.38707 5.44141H3.53906V6.28942H4.38707V5.44141Z" fill="#16171A"/>
<path d="M5.24254 5.44141H4.39453V6.28942H5.24254V5.44141Z" fill="#16171A"/>
<path d="M6.08238 5.44141H5.23438V6.28942H6.08238V5.44141Z" fill="#FAFDFF"/>
<path d="M6.93395 5.44141H6.08594V6.28942H6.93395V5.44141Z" fill="#B9B9B9"/>
<path d="M7.77379 5.44141H6.92578V6.28942H7.77379V5.44141Z" fill="#16171A"/>
<path d="M8.62535 5.44141H7.77734V6.28942H8.62535V5.44141Z" fill="#16171A"/>
<path d="M1.8441 6.28906H0.996094V7.13707H1.8441V6.28906Z" fill="#16171A"/>
<path d="M2.68785 6.28906H1.83984V7.13707H2.68785V6.28906Z" fill="#FAFDFF"/>
<path d="M3.54332 6.28906H2.69531V7.13707H3.54332V6.28906Z" fill="#B9B9B9"/>
<path d="M4.38707 6.28906H3.53906V7.13707H4.38707V6.28906Z" fill="#FAFDFF"/>
<path d="M5.24254 6.28906H4.39453V7.13707H5.24254V6.28906Z" fill="#FAFDFF"/>
<path d="M6.08238 6.28906H5.23438V7.13707H6.08238V6.28906Z" fill="#B9B9B9"/>
<path d="M6.93395 6.28906H6.08594V7.13707H6.93395V6.28906Z" fill="#B9B9B9"/>
<path d="M7.77379 6.28906H6.92578V7.13707H7.77379V6.28906Z" fill="#16171A"/>
<path d="M1.8441 7.13672H0.996094V7.98473H1.8441V7.13672Z" fill="#16171A"/>
<path d="M2.68785 7.13672H1.83984V7.98473H2.68785V7.13672Z" fill="#B9B9B9"/>
<path d="M3.54332 7.13672H2.69531V7.98473H3.54332V7.13672Z" fill="#16171A"/>
<path d="M4.38707 7.13672H3.53906V7.98473H4.38707V7.13672Z" fill="#B9B9B9"/>
<path d="M5.24254 7.13672H4.39453V7.98473H5.24254V7.13672Z" fill="#B9B9B9"/>
<path d="M6.08238 7.13672H5.23438V7.98473H6.08238V7.13672Z" fill="#16171A"/>
<path d="M6.93395 7.13672H6.08594V7.98473H6.93395V7.13672Z" fill="#B9B9B9"/>
<path d="M7.77379 7.13672H6.92578V7.98473H7.77379V7.13672Z" fill="#16171A"/>
<path d="M2.68785 7.98535H1.83984V8.83336H2.68785V7.98535Z" fill="#16171A"/>
<path d="M3.54332 7.98535H2.69531V8.83336H3.54332V7.98535Z" fill="#16171A"/>
<path d="M4.38707 7.98535H3.53906V8.83336H4.38707V7.98535Z" fill="#16171A"/>
<path d="M5.24254 7.98535H4.39453V8.83336H5.24254V7.98535Z" fill="#16171A"/>
<path d="M6.08238 7.98535H5.23438V8.83336H6.08238V7.98535Z" fill="#16171A"/>
<path d="M6.93395 7.98535H6.08594V8.83336H6.93395V7.98535Z" fill="#16171A"/>
</svg>
