<svg width="87" height="91" viewBox="0 0 87 91" fill="none" xmlns="http://www.w3.org/2000/svg">
<g filter="url(#filter0_dd_104_508317)">
<rect x="25.854" y="15.1416" width="35.7144" height="57.143" fill="white"/>
<rect x="11.572" y="18.7173" width="64.2859" height="50.0001" fill="white"/>
<rect x="15.1348" y="65.1411" width="3.57144" height="7.14288" transform="rotate(-180 15.1348 65.1411)" fill="#B5B5B5"/>
<rect x="18.7173" y="72.2883" width="3.57144" height="7.14288" transform="rotate(-180 18.7173 72.2883)" fill="#B5B5B5"/>
<rect x="22.2805" y="75.8572" width="3.57144" height="7.14288" transform="rotate(-180 22.2805 75.8572)" fill="#B5B5B5"/>
<rect x="65.144" y="75.8572" width="3.57144" height="7.14288" transform="rotate(-180 65.144 75.8572)" fill="#B5B5B5"/>
<rect x="68.7178" y="75.8572" width="3.57144" height="7.14288" transform="rotate(-180 68.7178 75.8572)" fill="#B5B5B5"/>
<rect x="72.2808" y="72.2883" width="3.57144" height="7.14288" transform="rotate(-180 72.2808 72.2883)" fill="#B5B5B5"/>
<rect x="75.8545" y="65.1411" width="3.57144" height="7.14288" transform="rotate(-180 75.8545 65.1411)" fill="#B5B5B5"/>
<rect x="25.8513" y="75.8572" width="3.57144" height="7.14288" transform="rotate(-180 25.8513 75.8572)" fill="#B5B5B5"/>
<rect x="61.5698" y="79.4285" width="35.7144" height="7.14287" transform="rotate(-180 61.5698 79.4285)" fill="#B5B5B5"/>
<rect x="25.8516" y="8" width="35.7144" height="3.57144" fill="#393939"/>
<rect x="18.7173" y="11.5701" width="7.14288" height="3.57144" fill="#393939"/>
<rect width="7.14288" height="3.57144" transform="matrix(-1 0 0 1 68.7197 11.5701)" fill="#393939"/>
<rect x="11.5715" y="72.2883" width="7.14288" height="3.57144" transform="rotate(-90 11.5715 72.2883)" fill="#393939"/>
<rect width="7.14288" height="3.57144" transform="matrix(4.37114e-08 -1 -1 -4.37114e-08 75.8545 72.2883)" fill="#393939"/>
<rect x="15.1348" y="15.1416" width="3.57144" height="3.57144" fill="#393939"/>
<rect width="3.57144" height="3.57144" transform="matrix(-1 0 0 1 72.2808 15.1416)" fill="#393939"/>
<rect x="15.1348" y="75.8572" width="3.57144" height="3.57144" transform="rotate(-90 15.1348 75.8572)" fill="#393939"/>
<rect width="3.57144" height="3.57144" transform="matrix(4.37114e-08 -1 -1 -4.37114e-08 72.2788 75.8572)" fill="#393939"/>
<rect x="11.572" y="18.7173" width="3.57144" height="7.14288" fill="#393939"/>
<rect width="3.57144" height="7.14288" transform="matrix(-1 0 0 1 75.8545 18.7173)" fill="#393939"/>
<rect x="18.7173" y="79.4285" width="3.57144" height="7.14288" transform="rotate(-90 18.7173 79.4285)" fill="#393939"/>
<rect width="3.57144" height="7.14288" transform="matrix(4.37114e-08 -1 -1 -4.37114e-08 68.7197 79.4285)" fill="#393939"/>
<rect x="25.854" y="79.4285" width="35.7144" height="3.57144" fill="#393939"/>
<rect x="79.4302" y="25.8574" width="39.2858" height="3.57144" transform="rotate(90 79.4302 25.8574)" fill="#393939"/>
<rect x="11.5715" y="25.8574" width="39.2858" height="3.57144" transform="rotate(90 11.5715 25.8574)" fill="#393939"/>
<rect x="61.5698" y="11.5701" width="3.57144" height="35.7144" transform="rotate(90 61.5698 11.5701)" fill="#E8E8E8"/>
<rect x="25.854" y="72.2883" width="3.57144" height="35.7144" transform="rotate(-90 25.854 72.2883)" fill="#E8E8E8"/>
<rect x="25.854" y="15.1416" width="3.57144" height="7.14288" transform="rotate(90 25.854 15.1416)" fill="#E8E8E8"/>
<rect x="61.5698" y="68.7126" width="3.57144" height="7.14288" transform="rotate(-90 61.5698 68.7126)" fill="#E8E8E8"/>
<rect x="18.7173" y="18.7173" width="3.57144" height="3.57144" transform="rotate(90 18.7173 18.7173)" fill="#E8E8E8"/>
<rect x="68.7197" y="65.1411" width="3.57144" height="3.57144" transform="rotate(-90 68.7197 65.1411)" fill="#E8E8E8"/>
<rect x="15.1348" y="25.8574" width="3.57144" height="3.57144" transform="rotate(90 15.1348 25.8574)" fill="#E8E8E8"/>
<rect x="72.2805" y="57.9983" width="3.57144" height="3.57144" transform="rotate(-90 72.2805 57.9983)" fill="#E8E8E8"/>
<rect x="72.2805" y="18.7173" width="3.57144" height="3.57144" transform="rotate(90 72.2805 18.7173)" fill="#E8E8E8"/>
<rect x="15.1348" y="65.1411" width="3.57144" height="3.57144" transform="rotate(-90 15.1348 65.1411)" fill="#E8E8E8"/>
<rect x="75.8545" y="25.8574" width="3.57144" height="3.57144" transform="rotate(90 75.8545 25.8574)" fill="#E8E8E8"/>
<rect x="11.572" y="57.9983" width="3.57144" height="3.57144" transform="rotate(-90 11.572 57.9983)" fill="#E8E8E8"/>
<rect x="68.7197" y="15.1416" width="3.57144" height="7.14288" transform="rotate(90 68.7197 15.1416)" fill="#E8E8E8"/>
<rect x="18.7173" y="68.7126" width="3.57144" height="7.14288" transform="rotate(-90 18.7173 68.7126)" fill="#E8E8E8"/>
<path d="M32.6314 48.0802L32.6314 51.5603L36.1114 51.5603L36.1114 55.0404L39.5915 55.0404L43.0716 55.0404L46.5516 55.0404L50.0317 55.0404L53.5118 55.0404L53.5118 51.5603L56.9918 51.5603L56.9918 48.0802L53.5118 48.0802L53.5118 44.6001L50.0317 44.6001L46.5516 44.6001L43.0716 44.6001L32.6314 44.6001L32.6314 41.1201L29.1513 41.1201L29.1513 37.64L25.6712 37.64L25.6712 34.1599L25.6712 30.6799L25.6712 27.1998L29.1513 27.1998L29.1513 23.7197L32.6314 23.7197L32.6314 20.2397L39.5915 20.2397L43.0716 20.2397L46.5516 20.2397L56.9918 20.2397L56.9918 23.7197L60.4719 23.7197L60.4719 27.1998L63.952 27.1998L63.952 34.1599L56.9918 34.1599L56.9918 30.6799L53.5118 30.6799L53.5118 27.1998L50.0317 27.1998L46.5516 27.1998L43.0716 27.1998L39.5915 27.1998L36.1114 27.1998L36.1114 30.6799L32.6314 30.6799L32.6314 34.1599L36.1114 34.1599L36.1114 37.64L39.5915 37.64L43.0716 37.64L46.5516 37.64L56.9918 37.64L56.9918 41.1201L60.4719 41.1201L60.4719 44.6001L63.952 44.6001L63.952 48.0802L63.952 51.5603L63.952 55.0404L60.4719 55.0404L60.4719 58.5204L56.9918 58.5204L56.9918 62.0005L46.5516 62.0005L43.0716 62.0005L32.6314 62.0005L32.6314 58.5204L29.1513 58.5204L29.1513 55.0404L25.6712 55.0404L25.6712 48.0802L32.6314 48.0802Z" fill="#FFBD82"/>
<path d="M30.1439 48.7137L30.1439 52.2853L33.7155 52.2853L33.7155 55.8569L37.2872 55.8569L40.8588 55.8569L44.4305 55.8569L48.0021 55.8569L51.5738 55.8569L51.5738 52.2853L55.1454 52.2853L55.1454 48.7137L51.5738 48.7137L51.5738 45.142L48.0021 45.142L44.4305 45.142L40.8588 45.142L30.1439 45.142L30.1439 41.5704L26.5723 41.5704L26.5723 37.9987L23.0006 37.9987L23.0006 34.4271L23.0006 30.8554L23.0006 27.2838L26.5723 27.2838L26.5723 23.7121L30.1439 23.7121L30.1439 20.1405L37.2872 20.1405L40.8588 20.1405L44.4305 20.1405L55.1454 20.1405L55.1454 23.7121L58.7171 23.7121L58.7171 27.2838L62.2887 27.2838L62.2887 34.4271L55.1454 34.4271L55.1454 30.8554L51.5738 30.8554L51.5738 27.2838L48.0021 27.2838L44.4305 27.2838L40.8588 27.2838L37.2872 27.2838L33.7155 27.2838L33.7155 30.8554L30.1439 30.8554L30.1439 34.4271L33.7155 34.4271L33.7155 37.9987L37.2872 37.9987L40.8588 37.9987L44.4305 37.9987L55.1454 37.9987L55.1454 41.5704L58.7171 41.5704L58.7171 45.142L62.2887 45.142L62.2887 48.7137L62.2887 52.2853L62.2887 55.8569L58.7171 55.8569L58.7171 59.4286L55.1454 59.4286L55.1454 63.0002L44.4305 63.0002L40.8588 63.0002L30.1439 63.0002L30.1439 59.4286L26.5723 59.4286L26.5723 55.8569L23.0006 55.8569L23.0006 48.7137L30.1439 48.7137Z" fill="#FF8426"/>
</g>
<defs>
<filter id="filter0_dd_104_508317" x="0.90379" y="0.90379" width="85.6226" height="89.1924" filterUnits="userSpaceOnUse" color-interpolation-filters="sRGB">
<feFlood flood-opacity="0" result="BackgroundImageFix"/>
<feColorMatrix in="SourceAlpha" type="matrix" values="0 0 0 0 0 0 0 0 0 0 0 0 0 0 0 0 0 0 127 0" result="hardAlpha"/>
<feOffset dx="1.41924" dy="1.41924"/>
<feGaussianBlur stdDeviation="2.83848"/>
<feComposite in2="hardAlpha" operator="out"/>
<feColorMatrix type="matrix" values="0 0 0 0 1 0 0 0 0 0.517647 0 0 0 0 0.14902 0 0 0 1 0"/>
<feBlend mode="normal" in2="BackgroundImageFix" result="effect1_dropShadow_104_508317"/>
<feColorMatrix in="SourceAlpha" type="matrix" values="0 0 0 0 0 0 0 0 0 0 0 0 0 0 0 0 0 0 127 0" result="hardAlpha"/>
<feOffset dx="-1.41924" dy="-1.41924"/>
<feGaussianBlur stdDeviation="2.83848"/>
<feComposite in2="hardAlpha" operator="out"/>
<feColorMatrix type="matrix" values="0 0 0 0 1 0 0 0 0 0.517647 0 0 0 0 0.14902 0 0 0 1 0"/>
<feBlend mode="normal" in2="effect1_dropShadow_104_508317" result="effect2_dropShadow_104_508317"/>
<feBlend mode="normal" in="SourceGraphic" in2="effect2_dropShadow_104_508317" result="shape"/>
</filter>
</defs>
</svg>
