<svg width="35" height="37" viewBox="0 0 35 37" fill="none" xmlns="http://www.w3.org/2000/svg">
<rect x="8.88794" y="3.46747" width="17.34" height="27.744" fill="white"/>
<rect x="1.95264" y="5.20268" width="31.212" height="24.276" fill="white"/>
<rect x="3.68213" y="27.7434" width="1.734" height="3.468" transform="rotate(-180 3.68213 27.7434)" fill="#B5B5B5"/>
<rect x="5.4231" y="31.2124" width="1.734" height="3.468" transform="rotate(-180 5.4231 31.2124)" fill="#B5B5B5"/>
<rect x="7.15259" y="32.9462" width="1.734" height="3.468" transform="rotate(-180 7.15259 32.9462)" fill="#B5B5B5"/>
<rect x="27.9639" y="32.9462" width="1.734" height="3.468" transform="rotate(-180 27.9639 32.9462)" fill="#B5B5B5"/>
<rect x="29.699" y="32.9462" width="1.734" height="3.468" transform="rotate(-180 29.699 32.9462)" fill="#B5B5B5"/>
<rect x="31.4285" y="31.2124" width="1.734" height="3.468" transform="rotate(-180 31.4285 31.2124)" fill="#B5B5B5"/>
<rect x="33.1638" y="27.7434" width="1.734" height="3.468" transform="rotate(-180 33.1638 27.7434)" fill="#B5B5B5"/>
<rect x="8.88794" y="32.9462" width="1.734" height="3.468" transform="rotate(-180 8.88794 32.9462)" fill="#B5B5B5"/>
<rect x="26.2285" y="34.68" width="17.34" height="3.468" transform="rotate(-180 26.2285 34.68)" fill="#B5B5B5"/>
<rect x="8.88794" y="-0.00012207" width="17.34" height="1.734" fill="#393939"/>
<rect x="5.4231" y="1.73367" width="3.468" height="1.734" fill="#393939"/>
<rect width="3.468" height="1.734" transform="matrix(-1 0 0 1 29.699 1.73367)" fill="#393939"/>
<rect x="1.95264" y="31.2124" width="3.468" height="1.734" transform="rotate(-90 1.95264 31.2124)" fill="#393939"/>
<rect width="3.468" height="1.734" transform="matrix(4.37114e-08 -1 -1 -4.37114e-08 33.1638 31.2124)" fill="#393939"/>
<rect x="3.68213" y="3.46747" width="1.734" height="1.734" fill="#393939"/>
<rect width="1.734" height="1.734" transform="matrix(-1 0 0 1 31.4285 3.46747)" fill="#393939"/>
<rect x="3.68213" y="32.9462" width="1.734" height="1.734" transform="rotate(-90 3.68213 32.9462)" fill="#393939"/>
<rect width="1.734" height="1.734" transform="matrix(4.37114e-08 -1 -1 -4.37114e-08 31.4285 32.9462)" fill="#393939"/>
<rect x="1.95264" y="5.20268" width="1.734" height="3.468" fill="#393939"/>
<rect width="1.734" height="3.468" transform="matrix(-1 0 0 1 33.1638 5.20268)" fill="#393939"/>
<rect x="5.4231" y="34.68" width="1.734" height="3.468" transform="rotate(-90 5.4231 34.68)" fill="#393939"/>
<rect width="1.734" height="3.468" transform="matrix(4.37114e-08 -1 -1 -4.37114e-08 29.699 34.68)" fill="#393939"/>
<rect x="8.88794" y="34.68" width="17.34" height="1.734" fill="#393939"/>
<rect x="34.8989" y="8.67027" width="19.074" height="1.734" transform="rotate(90 34.8989 8.67027)" fill="#393939"/>
<rect x="1.95264" y="8.67027" width="19.074" height="1.734" transform="rotate(90 1.95264 8.67027)" fill="#393939"/>
<rect x="26.2285" y="1.73367" width="1.734" height="17.34" transform="rotate(90 26.2285 1.73367)" fill="#E8E8E8"/>
<rect x="8.88794" y="31.2124" width="1.734" height="17.34" transform="rotate(-90 8.88794 31.2124)" fill="#E8E8E8"/>
<rect x="8.88794" y="3.46747" width="1.734" height="3.468" transform="rotate(90 8.88794 3.46747)" fill="#E8E8E8"/>
<rect x="26.2285" y="29.4772" width="1.734" height="3.468" transform="rotate(-90 26.2285 29.4772)" fill="#E8E8E8"/>
<rect x="5.4231" y="5.20268" width="1.734" height="1.734" transform="rotate(90 5.4231 5.20268)" fill="#E8E8E8"/>
<rect x="29.699" y="27.7434" width="1.734" height="1.734" transform="rotate(-90 29.699 27.7434)" fill="#E8E8E8"/>
<rect x="3.68213" y="8.67027" width="1.734" height="1.734" transform="rotate(90 3.68213 8.67027)" fill="#E8E8E8"/>
<rect x="31.4285" y="24.2758" width="1.734" height="1.734" transform="rotate(-90 31.4285 24.2758)" fill="#E8E8E8"/>
<rect x="31.4285" y="5.20268" width="1.734" height="1.734" transform="rotate(90 31.4285 5.20268)" fill="#E8E8E8"/>
<rect x="3.68213" y="27.7434" width="1.734" height="1.734" transform="rotate(-90 3.68213 27.7434)" fill="#E8E8E8"/>
<rect x="33.1638" y="8.67027" width="1.734" height="1.734" transform="rotate(90 33.1638 8.67027)" fill="#E8E8E8"/>
<rect x="1.95264" y="24.2758" width="1.734" height="1.734" transform="rotate(-90 1.95264 24.2758)" fill="#E8E8E8"/>
<rect x="29.699" y="3.46747" width="1.734" height="3.468" transform="rotate(90 29.699 3.46747)" fill="#E8E8E8"/>
<rect x="5.4231" y="29.4772" width="1.734" height="3.468" transform="rotate(-90 5.4231 29.4772)" fill="#E8E8E8"/>
<path d="M25.091 9.91937C27.2555 13.2607 28.3244 17.0296 27.9248 21.3684C27.9231 21.3868 27.914 21.4036 27.8997 21.4147C26.2605 22.6784 24.6725 23.4453 23.1067 23.9539C23.0945 23.9578 23.0814 23.9576 23.0694 23.9533C23.0573 23.949 23.0468 23.9408 23.0393 23.93C22.6776 23.4015 22.3489 22.8444 22.061 22.2593C22.0444 22.2249 22.0595 22.1834 22.0935 22.1698C22.6156 21.9633 23.1119 21.7158 23.5894 21.4228C23.627 21.3996 23.6294 21.343 23.5947 21.3159C23.4933 21.2369 23.3929 21.1539 23.2969 21.0709C23.2789 21.0555 23.2547 21.0525 23.2344 21.0628C20.1346 22.5657 16.739 22.5657 13.6026 21.0628C13.5823 21.0533 13.5581 21.0565 13.5406 21.0716C13.4447 21.1546 13.3441 21.2369 13.2437 21.3159C13.209 21.343 13.2119 21.3996 13.2497 21.4228C13.7272 21.7102 14.2236 21.9633 14.7449 22.1708C14.7786 22.1844 14.7947 22.2249 14.7779 22.2593C14.4962 22.8451 14.1675 23.4023 13.7991 23.9307C13.783 23.9521 13.7567 23.9619 13.7317 23.9539C12.1734 23.4453 10.5853 22.6784 8.94618 21.4147C8.93253 21.4036 8.9227 21.386 8.92127 21.3677C8.58731 17.6146 9.26792 13.8145 11.7525 9.91862C11.7584 9.9083 11.7675 9.90025 11.7781 9.89548C13.0006 9.3064 14.3103 8.87301 15.6792 8.62551C15.7041 8.62149 15.729 8.63356 15.7419 8.6567C15.9111 8.97111 16.1044 9.37431 16.2352 9.70381C17.6781 9.47241 19.1435 9.47241 20.6166 9.70381C20.7474 9.38135 20.934 8.97111 21.1025 8.6567C21.1085 8.64522 21.1178 8.63602 21.129 8.63042C21.1403 8.62482 21.153 8.6231 21.1652 8.62551C22.5348 8.87377 23.8445 9.30715 25.0661 9.89548C25.0769 9.90025 25.0857 9.9083 25.091 9.91937ZM16.9688 17.0552C16.9838 15.9457 16.2134 15.0277 15.2463 15.0277C14.2871 15.0277 13.524 15.9377 13.524 17.0552C13.524 18.1725 14.3021 19.0825 15.2463 19.0825C16.2057 19.0825 16.9688 18.1725 16.9688 17.0552ZM23.3369 17.0552C23.352 15.9457 22.5815 15.0277 21.6146 15.0277C20.6552 15.0277 19.8922 15.9377 19.8922 17.0552C19.8922 18.1725 20.6703 19.0825 21.6146 19.0825C22.5815 19.0825 23.3369 18.1725 23.3369 17.0552Z" fill="#FF7C06"/>
</svg>
