<svg width="25" height="24" viewBox="0 0 25 24" fill="none" xmlns="http://www.w3.org/2000/svg">
<path d="M11.2144 0H9.71436V1.5H11.2144V0Z" fill="#393939"/>
<path d="M12.7144 0H11.2144V1.5H12.7144V0Z" fill="#393939"/>
<path d="M14.2144 0H12.7144V1.5H14.2144V0Z" fill="#393939"/>
<path d="M15.7141 0H14.2141V1.5H15.7141V0Z" fill="#393939"/>
<path d="M8.21408 1.5H6.71408V3H8.21408V1.5Z" fill="#393939"/>
<path d="M9.71436 1.5H8.21436V3H9.71436V1.5Z" fill="#393939"/>
<path d="M11.2144 1.5H9.71436V3H11.2144V1.5Z" fill="#FAFDFF"/>
<path d="M12.7144 1.5H11.2144V3H12.7144V1.5Z" fill="#FAFDFF"/>
<path d="M14.2144 1.5H12.7144V3H14.2144V1.5Z" fill="#FAFDFF"/>
<path d="M15.7141 1.5H14.2141V3H15.7141V1.5Z" fill="#FAFDFF"/>
<path d="M17.2144 1.5H15.7144V3H17.2144V1.5Z" fill="#393939"/>
<path d="M18.7141 1.5H17.2141V3H18.7141V1.5Z" fill="#393939"/>
<path d="M6.71436 3H5.21436V4.5H6.71436V3Z" fill="#393939"/>
<path d="M8.21408 3H6.71408V4.5H8.21408V3Z" fill="#FAFDFF"/>
<path d="M9.71436 3H8.21436V4.5H9.71436V3Z" fill="#FAFDFF"/>
<path d="M11.2144 3H9.71436V4.5H11.2144V3Z" fill="#FFD100"/>
<path d="M12.7144 3H11.2144V4.5H12.7144V3Z" fill="#FFD100"/>
<path d="M14.2144 3H12.7144V4.5H14.2144V3Z" fill="#FFD100"/>
<path d="M15.7141 3H14.2141V4.5H15.7141V3Z" fill="#FFD100"/>
<path d="M17.2144 3H15.7144V4.5H17.2144V3Z" fill="#FAFDFF"/>
<path d="M18.7141 3H17.2141V4.5H18.7141V3Z" fill="#FAFDFF"/>
<path d="M20.2144 3H18.7144V4.5H20.2144V3Z" fill="#393939"/>
<path d="M5.21408 4.49976H3.71408V5.99976H5.21408V4.49976Z" fill="#393939"/>
<path d="M6.71436 4.49976H5.21436V5.99976H6.71436V4.49976Z" fill="#FAFDFF"/>
<path d="M8.21408 4.49976H6.71408V5.99976H8.21408V4.49976Z" fill="#FFD100"/>
<path d="M9.71436 4.49976H8.21436V5.99976H9.71436V4.49976Z" fill="#FFD100"/>
<path d="M11.2144 4.49976H9.71436V5.99976H11.2144V4.49976Z" fill="#FFD100"/>
<path d="M12.7144 4.49976H11.2144V5.99976H12.7144V4.49976Z" fill="#FFD100"/>
<path d="M14.2144 4.49976H12.7144V5.99976H14.2144V4.49976Z" fill="#FFD100"/>
<path d="M15.7141 4.49976H14.2141V5.99976H15.7141V4.49976Z" fill="#FFD100"/>
<path d="M17.2144 4.49976H15.7144V5.99976H17.2144V4.49976Z" fill="#FFD100"/>
<path d="M18.7141 4.49976H17.2141V5.99976H18.7141V4.49976Z" fill="#FFD100"/>
<path d="M20.2144 4.49976H18.7144V5.99976H20.2144V4.49976Z" fill="#FAFDFF"/>
<path d="M21.7144 4.49976H20.2144V5.99976H21.7144V4.49976Z" fill="#393939"/>
<path d="M3.71436 6.00024H2.21436V7.50024H3.71436V6.00024Z" fill="#393939"/>
<path d="M5.21408 6.00024H3.71408V7.50024H5.21408V6.00024Z" fill="#FAFDFF"/>
<path d="M6.71436 6.00024H5.21436V7.50024H6.71436V6.00024Z" fill="#FFD100"/>
<path d="M8.21408 6.00024H6.71408V7.50024H8.21408V6.00024Z" fill="#FFD100"/>
<path d="M9.71436 6.00024H8.21436V7.50024H9.71436V6.00024Z" fill="#FFD100"/>
<path d="M11.2144 6.00024H9.71436V7.50024H11.2144V6.00024Z" fill="#FFD100"/>
<path d="M12.7144 6.00024H11.2144V7.50024H12.7144V6.00024Z" fill="#FFD100"/>
<path d="M14.2144 6.00024H12.7144V7.50024H14.2144V6.00024Z" fill="#FFD100"/>
<path d="M15.7141 6.00024H14.2141V7.50024H15.7141V6.00024Z" fill="#FFD100"/>
<path d="M17.2144 6.00024H15.7144V7.50024H17.2144V6.00024Z" fill="#FFD100"/>
<path d="M18.7141 6.00024H17.2141V7.50024H18.7141V6.00024Z" fill="#FFD100"/>
<path d="M20.2144 6.00024H18.7144V7.50024H20.2144V6.00024Z" fill="#FFD100"/>
<path d="M21.7144 6.00024H20.2144V7.50024H21.7144V6.00024Z" fill="#FF8426"/>
<path d="M23.2144 6.00024H21.7144V7.50024H23.2144V6.00024Z" fill="#393939"/>
<path d="M3.71436 7.5H2.21436V9H3.71436V7.5Z" fill="#393939"/>
<path d="M5.21408 7.5H3.71408V9H5.21408V7.5Z" fill="#FAFDFF"/>
<path d="M6.71436 7.5H5.21436V9H6.71436V7.5Z" fill="#FFD100"/>
<path d="M8.21408 7.5H6.71408V9H8.21408V7.5Z" fill="#FFD100"/>
<path d="M9.71436 7.5H8.21436V9H9.71436V7.5Z" fill="#FFD100"/>
<path d="M11.2144 7.5H9.71436V9H11.2144V7.5Z" fill="#FFD100"/>
<path d="M12.7144 7.5H11.2144V9H12.7144V7.5Z" fill="#FFD100"/>
<path d="M14.2144 7.5H12.7144V9H14.2144V7.5Z" fill="#FFD100"/>
<path d="M15.7141 7.5H14.2141V9H15.7141V7.5Z" fill="#FFD100"/>
<path d="M17.2144 7.5H15.7144V9H17.2144V7.5Z" fill="#FFD100"/>
<path d="M18.7141 7.5H17.2141V9H18.7141V7.5Z" fill="#FFD100"/>
<path d="M20.2144 7.5H18.7144V9H20.2144V7.5Z" fill="#FFD100"/>
<path d="M21.7144 7.5H20.2144V9H21.7144V7.5Z" fill="#FF8426"/>
<path d="M23.2144 7.5H21.7144V9H23.2144V7.5Z" fill="#393939"/>
<path d="M2.21436 9H0.714355V10.5H2.21436V9Z" fill="#393939"/>
<path d="M3.71436 9H2.21436V10.5H3.71436V9Z" fill="#FAFDFF"/>
<path d="M5.21408 9H3.71408V10.5H5.21408V9Z" fill="#FFD100"/>
<path d="M6.71436 9H5.21436V10.5H6.71436V9Z" fill="#FFD100"/>
<path d="M8.21408 9H6.71408V10.5H8.21408V9Z" fill="#FFD100"/>
<path d="M9.71436 9H8.21436V10.5H9.71436V9Z" fill="#FFD100"/>
<path d="M11.2144 9H9.71436V10.5H11.2144V9Z" fill="#FFD100"/>
<path d="M12.7144 9H11.2144V10.5H12.7144V9Z" fill="#FFD100"/>
<path d="M14.2144 9H12.7144V10.5H14.2144V9Z" fill="#FFD100"/>
<path d="M15.7141 9H14.2141V10.5H15.7141V9Z" fill="#FFD100"/>
<path d="M17.2144 9H15.7144V10.5H17.2144V9Z" fill="#FFD100"/>
<path d="M18.7141 9H17.2141V10.5H18.7141V9Z" fill="#FFD100"/>
<path d="M20.2144 9H18.7144V10.5H20.2144V9Z" fill="#FFD100"/>
<path d="M21.7144 9H20.2144V10.5H21.7144V9Z" fill="#FFD100"/>
<path d="M23.2144 9H21.7144V10.5H23.2144V9Z" fill="#FF8426"/>
<path d="M24.7144 9H23.2144V10.5H24.7144V9Z" fill="#393939"/>
<path d="M2.21436 10.5H0.714355V12H2.21436V10.5Z" fill="#393939"/>
<path d="M3.71436 10.5H2.21436V12H3.71436V10.5Z" fill="#FAFDFF"/>
<path d="M5.21408 10.5H3.71408V12H5.21408V10.5Z" fill="#FFD100"/>
<path d="M6.71436 10.5H5.21436V12H6.71436V10.5Z" fill="#FFD100"/>
<path d="M8.21408 10.5H6.71408V12H8.21408V10.5Z" fill="#FFD100"/>
<path d="M9.71436 10.5H8.21436V12H9.71436V10.5Z" fill="#FFD100"/>
<path d="M11.2144 10.5H9.71436V12H11.2144V10.5Z" fill="#FFD100"/>
<path d="M12.7144 10.5H11.2144V12H12.7144V10.5Z" fill="#FFD100"/>
<path d="M14.2144 10.5H12.7144V12H14.2144V10.5Z" fill="#FFD100"/>
<path d="M15.7141 10.5H14.2141V12H15.7141V10.5Z" fill="#FFD100"/>
<path d="M17.2144 10.5H15.7144V12H17.2144V10.5Z" fill="#FFD100"/>
<path d="M18.7141 10.5H17.2141V12H18.7141V10.5Z" fill="#FFD100"/>
<path d="M20.2144 10.5H18.7144V12H20.2144V10.5Z" fill="#FFD100"/>
<path d="M21.7144 10.5H20.2144V12H21.7144V10.5Z" fill="#FFD100"/>
<path d="M23.2144 10.5H21.7144V12H23.2144V10.5Z" fill="#FF8426"/>
<path d="M24.7144 10.5H23.2144V12H24.7144V10.5Z" fill="#393939"/>
<path d="M2.21436 12H0.714355V13.5H2.21436V12Z" fill="#393939"/>
<path d="M3.71436 12H2.21436V13.5H3.71436V12Z" fill="#FAFDFF"/>
<path d="M5.21408 12H3.71408V13.5H5.21408V12Z" fill="#FFD100"/>
<path d="M6.71436 12H5.21436V13.5H6.71436V12Z" fill="#FFD100"/>
<path d="M8.21408 12H6.71408V13.5H8.21408V12Z" fill="#FFD100"/>
<path d="M9.71436 12H8.21436V13.5H9.71436V12Z" fill="#FFD100"/>
<path d="M11.2144 12H9.71436V13.5H11.2144V12Z" fill="#FFD100"/>
<path d="M12.7144 12H11.2144V13.5H12.7144V12Z" fill="#FFD100"/>
<path d="M14.2144 12H12.7144V13.5H14.2144V12Z" fill="#FFD100"/>
<path d="M15.7141 12H14.2141V13.5H15.7141V12Z" fill="#FFD100"/>
<path d="M17.2144 12H15.7144V13.5H17.2144V12Z" fill="#FFD100"/>
<path d="M18.7141 12H17.2141V13.5H18.7141V12Z" fill="#FFD100"/>
<path d="M20.2144 12H18.7144V13.5H20.2144V12Z" fill="#FFD100"/>
<path d="M21.7144 12H20.2144V13.5H21.7144V12Z" fill="#FFD100"/>
<path d="M23.2144 12H21.7144V13.5H23.2144V12Z" fill="#FF8426"/>
<path d="M24.7144 12H23.2144V13.5H24.7144V12Z" fill="#393939"/>
<path d="M2.21436 13.5H0.714355V15H2.21436V13.5Z" fill="#393939"/>
<path d="M3.71436 13.5H2.21436V15H3.71436V13.5Z" fill="#FAFDFF"/>
<path d="M5.21408 13.5H3.71408V15H5.21408V13.5Z" fill="#FFD100"/>
<path d="M6.71436 13.5H5.21436V15H6.71436V13.5Z" fill="#FFD100"/>
<path d="M8.21408 13.5H6.71408V15H8.21408V13.5Z" fill="#FFD100"/>
<path d="M9.71436 13.5H8.21436V15H9.71436V13.5Z" fill="#FFD100"/>
<path d="M11.2144 13.5H9.71436V15H11.2144V13.5Z" fill="#FFD100"/>
<path d="M12.7144 13.5H11.2144V15H12.7144V13.5Z" fill="#FFD100"/>
<path d="M14.2144 13.5H12.7144V15H14.2144V13.5Z" fill="#FFD100"/>
<path d="M15.7141 13.5H14.2141V15H15.7141V13.5Z" fill="#FFD100"/>
<path d="M17.2144 13.5H15.7144V15H17.2144V13.5Z" fill="#FFD100"/>
<path d="M18.7141 13.5H17.2141V15H18.7141V13.5Z" fill="#FFD100"/>
<path d="M20.2144 13.5H18.7144V15H20.2144V13.5Z" fill="#FFD100"/>
<path d="M21.7144 13.5H20.2144V15H21.7144V13.5Z" fill="#FFD100"/>
<path d="M23.2144 13.5H21.7144V15H23.2144V13.5Z" fill="#FF8426"/>
<path d="M24.7144 13.5H23.2144V15H24.7144V13.5Z" fill="#393939"/>
<path d="M3.71436 14.9998H2.21436V16.4998H3.71436V14.9998Z" fill="#393939"/>
<path d="M5.21408 14.9998H3.71408V16.4998H5.21408V14.9998Z" fill="#FAFDFF"/>
<path d="M6.71436 14.9998H5.21436V16.4998H6.71436V14.9998Z" fill="#FFD100"/>
<path d="M8.21408 14.9998H6.71408V16.4998H8.21408V14.9998Z" fill="#FFD100"/>
<path d="M9.71436 14.9998H8.21436V16.4998H9.71436V14.9998Z" fill="#FFD100"/>
<path d="M11.2144 14.9998H9.71436V16.4998H11.2144V14.9998Z" fill="#FFD100"/>
<path d="M12.7144 14.9998H11.2144V16.4998H12.7144V14.9998Z" fill="#FFD100"/>
<path d="M14.2144 14.9998H12.7144V16.4998H14.2144V14.9998Z" fill="#FFD100"/>
<path d="M15.7141 14.9998H14.2141V16.4998H15.7141V14.9998Z" fill="#FFD100"/>
<path d="M17.2144 14.9998H15.7144V16.4998H17.2144V14.9998Z" fill="#FFD100"/>
<path d="M18.7141 14.9998H17.2141V16.4998H18.7141V14.9998Z" fill="#FFD100"/>
<path d="M20.2144 14.9998H18.7144V16.4998H20.2144V14.9998Z" fill="#FFD100"/>
<path d="M21.7144 14.9998H20.2144V16.4998H21.7144V14.9998Z" fill="#FF8426"/>
<path d="M23.2144 14.9998H21.7144V16.4998H23.2144V14.9998Z" fill="#393939"/>
<path d="M3.71436 16.5002H2.21436V18.0002H3.71436V16.5002Z" fill="#393939"/>
<path d="M5.21408 16.5002H3.71408V18.0002H5.21408V16.5002Z" fill="#FAFDFF"/>
<path d="M6.71436 16.5002H5.21436V18.0002H6.71436V16.5002Z" fill="#FFD100"/>
<path d="M8.21408 16.5002H6.71408V18.0002H8.21408V16.5002Z" fill="#FFD100"/>
<path d="M9.71436 16.5002H8.21436V18.0002H9.71436V16.5002Z" fill="#FFD100"/>
<path d="M11.2144 16.5002H9.71436V18.0002H11.2144V16.5002Z" fill="#FFD100"/>
<path d="M12.7144 16.5002H11.2144V18.0002H12.7144V16.5002Z" fill="#FFD100"/>
<path d="M14.2144 16.5002H12.7144V18.0002H14.2144V16.5002Z" fill="#FFD100"/>
<path d="M15.7141 16.5002H14.2141V18.0002H15.7141V16.5002Z" fill="#FFD100"/>
<path d="M17.2144 16.5002H15.7144V18.0002H17.2144V16.5002Z" fill="#FFD100"/>
<path d="M18.7141 16.5002H17.2141V18.0002H18.7141V16.5002Z" fill="#FFD100"/>
<path d="M20.2144 16.5002H18.7144V18.0002H20.2144V16.5002Z" fill="#FFD100"/>
<path d="M21.7144 16.5002H20.2144V18.0002H21.7144V16.5002Z" fill="#FF8426"/>
<path d="M23.2144 16.5002H21.7144V18.0002H23.2144V16.5002Z" fill="#393939"/>
<path d="M5.21408 18H3.71408V19.5H5.21408V18Z" fill="#393939"/>
<path d="M6.71436 18H5.21436V19.5H6.71436V18Z" fill="#FAFDFF"/>
<path d="M8.21408 18H6.71408V19.5H8.21408V18Z" fill="#FFD100"/>
<path d="M9.71436 18H8.21436V19.5H9.71436V18Z" fill="#FFD100"/>
<path d="M11.2144 18H9.71436V19.5H11.2144V18Z" fill="#FFD100"/>
<path d="M12.7144 18H11.2144V19.5H12.7144V18Z" fill="#FFD100"/>
<path d="M14.2144 18H12.7144V19.5H14.2144V18Z" fill="#FFD100"/>
<path d="M15.7141 18H14.2141V19.5H15.7141V18Z" fill="#FFD100"/>
<path d="M17.2144 18H15.7144V19.5H17.2144V18Z" fill="#FFD100"/>
<path d="M18.7141 18H17.2141V19.5H18.7141V18Z" fill="#FFD100"/>
<path d="M20.2144 18H18.7144V19.5H20.2144V18Z" fill="#FF8426"/>
<path d="M21.7144 18H20.2144V19.5H21.7144V18Z" fill="#393939"/>
<path d="M6.71436 19.5H5.21436V21H6.71436V19.5Z" fill="#393939"/>
<path d="M8.21408 19.5H6.71408V21H8.21408V19.5Z" fill="#FF8426"/>
<path d="M9.71436 19.5H8.21436V21H9.71436V19.5Z" fill="#FF8426"/>
<path d="M11.2144 19.5H9.71436V21H11.2144V19.5Z" fill="#FFD100"/>
<path d="M12.7144 19.5H11.2144V21H12.7144V19.5Z" fill="#FFD100"/>
<path d="M14.2144 19.5H12.7144V21H14.2144V19.5Z" fill="#FFD100"/>
<path d="M15.7141 19.5H14.2141V21H15.7141V19.5Z" fill="#FFD100"/>
<path d="M17.2144 19.5H15.7144V21H17.2144V19.5Z" fill="#FF8426"/>
<path d="M18.7141 19.5H17.2141V21H18.7141V19.5Z" fill="#FF8426"/>
<path d="M20.2144 19.5H18.7144V21H20.2144V19.5Z" fill="#393939"/>
<path d="M8.21408 21H6.71408V22.5H8.21408V21Z" fill="#393939"/>
<path d="M9.71436 21H8.21436V22.5H9.71436V21Z" fill="#393939"/>
<path d="M11.2144 21H9.71436V22.5H11.2144V21Z" fill="#FF8426"/>
<path d="M12.7144 21H11.2144V22.5H12.7144V21Z" fill="#FF8426"/>
<path d="M14.2144 21H12.7144V22.5H14.2144V21Z" fill="#FF8426"/>
<path d="M15.7141 21H14.2141V22.5H15.7141V21Z" fill="#FF8426"/>
<path d="M17.2144 21H15.7144V22.5H17.2144V21Z" fill="#393939"/>
<path d="M18.7141 21H17.2141V22.5H18.7141V21Z" fill="#393939"/>
<path d="M11.2144 22.5H9.71436V24H11.2144V22.5Z" fill="#393939"/>
<path d="M12.7144 22.5H11.2144V24H12.7144V22.5Z" fill="#393939"/>
<path d="M14.2144 22.5H12.7144V24H14.2144V22.5Z" fill="#393939"/>
<path d="M15.7141 22.5H14.2141V24H15.7141V22.5Z" fill="#393939"/>
<path d="M9.71463 19.4998H8.21463V17.9998H9.71463V19.4998Z" fill="#393939"/>
<path d="M11.2146 19.4998H9.71463V17.9998H11.2146V19.4998Z" fill="#393939"/>
<path d="M12.7146 17.9998H11.2146V16.4998H12.7146V17.9998Z" fill="#393939"/>
<path d="M12.7146 16.5H11.2146V15H12.7146V16.5Z" fill="#393939"/>
<path d="M8.21436 17.9998H6.71436V16.4998H8.21436V17.9998Z" fill="#393939"/>
<path d="M11.2146 17.9998H9.71463V16.4998H11.2146V17.9998Z" fill="#FFBD82"/>
<path d="M9.71463 17.9998H8.21463V16.4998H9.71463V17.9998Z" fill="#FFBD82"/>
<path d="M8.21436 16.5H6.71436V15H8.21436V16.5Z" fill="#393939"/>
<path d="M9.71463 16.5H8.21463V15H9.71463V16.5Z" fill="#FF8426"/>
<path d="M11.2146 16.5H9.71463V15H11.2146V16.5Z" fill="#FF8426"/>
<path d="M8.21436 14.9998H6.71436V13.4998H8.21436V14.9998Z" fill="#393939"/>
<path d="M9.71463 14.9998H8.21463V13.4998H9.71463V14.9998Z" fill="#FF8426"/>
<path d="M11.2146 14.9998H9.71463V13.4998H11.2146V14.9998Z" fill="#FF8426"/>
<path d="M12.7146 14.9998H11.2146V13.4998H12.7146V14.9998Z" fill="#393939"/>
<path d="M14.2146 14.9998H12.7146V13.4998H14.2146V14.9998Z" fill="#393939"/>
<path d="M8.21436 13.4998H6.71436V11.9998H8.21436V13.4998Z" fill="#393939"/>
<path d="M9.71463 13.4998H8.21463V11.9998H9.71463V13.4998Z" fill="#FF8426"/>
<path d="M11.2146 13.4998H9.71463V11.9998H11.2146V13.4998Z" fill="#FF8426"/>
<path d="M12.7146 13.4998H11.2146V11.9998H12.7146V13.4998Z" fill="#FFBD82"/>
<path d="M14.2146 13.4998H12.7146V11.9998H14.2146V13.4998Z" fill="#FFBD82"/>
<path d="M15.7144 13.4998H14.2144V11.9998H15.7144V13.4998Z" fill="#FFBD82"/>
<path d="M17.2146 13.4998H15.7146V11.9998H17.2146V13.4998Z" fill="#FFBD82"/>
<path d="M8.21436 11.9998H6.71436V10.4998H8.21436V11.9998Z" fill="#393939"/>
<path d="M9.71463 11.9998H8.21463V10.4998H9.71463V11.9998Z" fill="#FF8426"/>
<path d="M11.2146 11.9998H9.71463V10.4998H11.2146V11.9998Z" fill="#FF8426"/>
<path d="M12.7146 11.9998H11.2146V10.4998H12.7146V11.9998Z" fill="#FF8426"/>
<path d="M14.2146 11.9998H12.7146V10.4998H14.2146V11.9998Z" fill="#FF8426"/>
<path d="M15.7144 11.9998H14.2144V10.4998H15.7144V11.9998Z" fill="#FF8426"/>
<path d="M17.2146 11.9998H15.7146V10.4998H17.2146V11.9998Z" fill="#FF8426"/>
<path d="M8.21436 10.4998H6.71436V8.99976H8.21436V10.4998Z" fill="#393939"/>
<path d="M9.71463 10.4998H8.21463V8.99976H9.71463V10.4998Z" fill="#FF8426"/>
<path d="M11.2146 10.4998H9.71463V8.99976H11.2146V10.4998Z" fill="#FF8426"/>
<path d="M12.7146 10.4998H11.2146V8.99976H12.7146V10.4998Z" fill="#393939"/>
<path d="M14.2146 10.4998H12.7146V8.99976H14.2146V10.4998Z" fill="#393939"/>
<path d="M15.7144 10.4998H14.2144V8.99976H15.7144V10.4998Z" fill="#393939"/>
<path d="M17.2146 10.4998H15.7146V8.99976H17.2146V10.4998Z" fill="#393939"/>
<path d="M15.7144 14.9998H14.2144V13.4998H15.7144V14.9998Z" fill="#393939"/>
<path d="M17.2146 14.9998H15.7146V13.4998H17.2146V14.9998Z" fill="#393939"/>
<path d="M18.7144 13.4998H17.2144V11.9998H18.7144V13.4998Z" fill="#393939"/>
<path d="M8.21436 8.99976H6.71436V7.49976H8.21436V8.99976Z" fill="#393939"/>
<path d="M9.71463 8.99976H8.21463V7.49976H9.71463V8.99976Z" fill="#FF8426"/>
<path d="M11.2146 8.99976H9.71463V7.49976H11.2146V8.99976Z" fill="#FF8426"/>
<path d="M12.7146 8.99976H11.2146V7.49976H12.7146V8.99976Z" fill="#FFBD82"/>
<path d="M14.2146 8.99976H12.7146V7.49976H14.2146V8.99976Z" fill="#FFBD82"/>
<path d="M15.7144 8.99976H14.2144V7.49976H15.7144V8.99976Z" fill="#FFBD82"/>
<path d="M17.2146 8.99976H15.7146V7.49976H17.2146V8.99976Z" fill="#FFD100"/>
<path d="M17.2146 8.99976H15.7146V7.49976H17.2146V8.99976Z" fill="#FFBD82"/>
<path d="M8.21436 7.49976H6.71436V5.99976H8.21436V7.49976Z" fill="#393939"/>
<path d="M9.71463 7.49976H8.21463V5.99976H9.71463V7.49976Z" fill="#FF8426"/>
<path d="M11.2146 7.49976H9.71463V5.99976H11.2146V7.49976Z" fill="#FF8426"/>
<path d="M12.7146 7.49976H11.2146V5.99976H12.7146V7.49976Z" fill="#FF8426"/>
<path d="M14.2146 7.49976H12.7146V5.99976H14.2146V7.49976Z" fill="#FF8426"/>
<path d="M15.7144 7.49976H14.2144V5.99976H15.7144V7.49976Z" fill="#FF8426"/>
<path d="M17.2146 7.49976H15.7146V5.99976H17.2146V7.49976Z" fill="#FF8426"/>
<path d="M18.7144 7.49976H17.2144V5.99976H18.7144V7.49976Z" fill="#FF8426"/>
<path d="M9.71463 6H8.21463V4.5H9.71463V6Z" fill="#393939"/>
<path d="M11.2146 6H9.71463V4.5H11.2146V6Z" fill="#393939"/>
<path d="M12.7146 6H11.2146V4.5H12.7146V6Z" fill="#393939"/>
<path d="M14.2146 6H12.7146V4.5H14.2146V6Z" fill="#393939"/>
<path d="M15.7144 6H14.2144V4.5H15.7144V6Z" fill="#393939"/>
<path d="M17.2146 6H15.7146V4.5H17.2146V6Z" fill="#393939"/>
<path d="M18.7144 6H17.2144V4.5H18.7144V6Z" fill="#393939"/>
<path d="M18.7144 8.99976H17.2144V7.49976H18.7144V8.99976Z" fill="#393939"/>
<path d="M18.7144 11.9998H17.2144V10.4998H18.7144V11.9998Z" fill="#393939"/>
<path d="M18.7144 7.49976H17.2144V5.99976H18.7144V7.49976Z" fill="#393939"/>
</svg>
