<svg width="110" height="35" viewBox="0 0 110 35" fill="none" xmlns="http://www.w3.org/2000/svg">
<path fill-rule="evenodd" clip-rule="evenodd" d="M5.14293 6.71436H104.572V10.1429H106.286V12.7144H108V27.2858H106.286V29.8572H104.572V33.2858H5.14293V29.8572H3.42864V27.2858H1.71436V12.7144H3.42864V10.1429H5.14293V6.71436Z" fill="#FFA14D"/>
<rect x="3.42865" y="27.2856" width="2.57143" height="1.71429" transform="rotate(90 3.42865 27.2856)" fill="#393939"/>
<rect x="106.286" y="12.7144" width="2.57143" height="1.71429" transform="rotate(-90 106.286 12.7144)" fill="#393939"/>
<rect x="7.71436" y="8.42847" width="2.57143" height="1.71429" transform="rotate(-180 7.71436 8.42847)" fill="#393939"/>
<rect x="102" y="31.5715" width="2.57143" height="1.71429" fill="#393939"/>
<rect x="7.71436" y="33.2856" width="2.57143" height="1.71429" transform="rotate(-180 7.71436 33.2856)" fill="#393939"/>
<rect x="102" y="6.71436" width="2.57143" height="1.71429" fill="#393939"/>
<rect x="1.71436" y="12.7144" width="2.57143" height="1.71429" transform="rotate(-90 1.71436 12.7144)" fill="#393939"/>
<rect x="108" y="27.2856" width="2.57143" height="1.71429" transform="rotate(90 108 27.2856)" fill="#393939"/>
<rect x="5.14291" y="29.8572" width="1.71429" height="1.71429" transform="rotate(90 5.14291 29.8572)" fill="#393939"/>
<rect x="104.572" y="10.1428" width="1.71429" height="1.71429" transform="rotate(-90 104.572 10.1428)" fill="#393939"/>
<rect x="5.14291" y="10.1428" width="1.71429" height="1.71429" transform="rotate(-180 5.14291 10.1428)" fill="#393939"/>
<rect x="104.572" y="29.8572" width="1.71429" height="1.71429" fill="#393939"/>
<rect x="7.71436" y="5" width="94.2857" height="1.71429" fill="#393939"/>
<rect x="7.71436" y="33.2856" width="94.2857" height="1.71429" fill="#393939"/>
<rect x="6.10352e-05" y="12.7144" width="1.71429" height="14.5714" fill="#393939"/>
<rect x="109.714" y="27.2856" width="1.71429" height="14.5714" transform="rotate(-180 109.714 27.2856)" fill="#393939"/>
<rect x="7.71436" y="6.71436" width="94.2857" height="1.71429" fill="#FFA14D"/>
<rect x="5.14291" y="8.42847" width="2.57143" height="1.71429" fill="#FFA14D"/>
<rect width="2.57143" height="1.71429" transform="matrix(-1 0 0 1 104.572 8.42847)" fill="#FFA14D"/>
<rect x="3.42865" y="29.8572" width="2.57143" height="1.71429" transform="rotate(-90 3.42865 29.8572)" fill="#FFA14D"/>
<rect width="2.57143" height="1.71429" transform="matrix(4.37114e-08 -1 -1 -4.37114e-08 106.286 29.8572)" fill="#FFA14D"/>
<rect x="3.42865" y="10.1428" width="1.71429" height="1.71429" fill="#FFA14D"/>
<rect width="1.71429" height="1.71429" transform="matrix(-1 0 0 1 106.286 10.1428)" fill="#FFA14D"/>
<rect x="5.14291" y="31.5715" width="1.71429" height="2.57143" transform="rotate(-90 5.14291 31.5715)" fill="#FFA14D"/>
<rect width="1.71429" height="2.57143" transform="matrix(4.37114e-08 -1 -1 -4.37114e-08 104.572 31.5715)" fill="#FFA14D"/>
<rect x="1.71436" y="12.7144" width="1.71429" height="1.71429" fill="#FFA14D"/>
<rect width="1.71429" height="1.71429" transform="matrix(-1 0 0 1 108 12.7144)" fill="#FFA14D"/>
<rect width="1.71428" height="94.2857" transform="matrix(4.37114e-08 -1 -1 -4.37114e-08 102 33.2856)" fill="#FFA14D"/>
<rect x="1.71436" y="27.2856" width="1.71429" height="1.71429" transform="rotate(-90 1.71436 27.2856)" fill="#FFA14D"/>
<rect width="1.71429" height="1.71429" transform="matrix(4.37114e-08 -1 -1 -4.37114e-08 108 27.2856)" fill="#FFA14D"/>
<path fill-rule="evenodd" clip-rule="evenodd" d="M5.14293 1.71436H104.572V5.14293H106.286V7.71436H108V22.2858H106.286V24.8572H104.572V28.2858H5.14293V24.8572H3.42864V22.2858H1.71436V7.71436H3.42864V5.14293H5.14293V1.71436Z" fill="#FFF4EA"/>
<rect x="3.42865" y="22.2856" width="2.57143" height="1.71429" transform="rotate(90 3.42865 22.2856)" fill="#393939"/>
<rect x="106.286" y="7.71436" width="2.57143" height="1.71429" transform="rotate(-90 106.286 7.71436)" fill="#393939"/>
<rect x="7.71436" y="3.42847" width="2.57143" height="1.71429" transform="rotate(-180 7.71436 3.42847)" fill="#393939"/>
<rect x="102" y="26.5715" width="2.57143" height="1.71429" fill="#393939"/>
<rect x="7.71436" y="28.2856" width="2.57143" height="1.71429" transform="rotate(-180 7.71436 28.2856)" fill="#393939"/>
<rect x="102" y="1.71436" width="2.57143" height="1.71429" fill="#393939"/>
<rect x="1.71436" y="7.71436" width="2.57143" height="1.71429" transform="rotate(-90 1.71436 7.71436)" fill="#393939"/>
<rect x="108" y="22.2856" width="2.57143" height="1.71429" transform="rotate(90 108 22.2856)" fill="#393939"/>
<rect x="5.14291" y="24.8572" width="1.71429" height="1.71429" transform="rotate(90 5.14291 24.8572)" fill="#393939"/>
<rect x="104.572" y="5.14282" width="1.71429" height="1.71429" transform="rotate(-90 104.572 5.14282)" fill="#393939"/>
<rect x="5.14291" y="5.14282" width="1.71429" height="1.71429" transform="rotate(-180 5.14291 5.14282)" fill="#393939"/>
<rect x="104.572" y="24.8572" width="1.71429" height="1.71429" fill="#393939"/>
<rect x="7.71436" width="94.2857" height="1.71429" fill="#393939"/>
<rect x="7.71436" y="28.2856" width="94.2857" height="1.71429" fill="#393939"/>
<rect x="6.10352e-05" y="7.71436" width="1.71429" height="14.5714" fill="#393939"/>
<rect x="109.714" y="22.2856" width="1.71429" height="14.5714" transform="rotate(-180 109.714 22.2856)" fill="#393939"/>
<rect x="7.71436" y="1.71436" width="94.2857" height="1.71429" fill="#FFF4EA"/>
<rect x="5.14291" y="3.42847" width="2.57143" height="1.71429" fill="#FFF4EA"/>
<rect width="2.57143" height="1.71429" transform="matrix(-1 0 0 1 104.572 3.42847)" fill="#FFF4EA"/>
<rect x="3.42865" y="24.8572" width="2.57143" height="1.71429" transform="rotate(-90 3.42865 24.8572)" fill="#FFF4EA"/>
<rect width="2.57143" height="1.71429" transform="matrix(4.37114e-08 -1 -1 -4.37114e-08 106.286 24.8572)" fill="#FFF4EA"/>
<rect x="3.42865" y="5.14282" width="1.71429" height="1.71429" fill="#FFF4EA"/>
<rect width="1.71429" height="1.71429" transform="matrix(-1 0 0 1 106.286 5.14282)" fill="#FFF4EA"/>
<rect x="5.14291" y="26.5715" width="1.71429" height="2.57143" transform="rotate(-90 5.14291 26.5715)" fill="#FFF4EA"/>
<rect width="1.71429" height="2.57143" transform="matrix(4.37114e-08 -1 -1 -4.37114e-08 104.572 26.5715)" fill="#FFF4EA"/>
<rect x="1.71436" y="7.71436" width="1.71429" height="1.71429" fill="#FFF4EA"/>
<rect width="1.71429" height="1.71429" transform="matrix(-1 0 0 1 108 7.71436)" fill="#FFF4EA"/>
<rect width="1.71428" height="94.2857" transform="matrix(4.37114e-08 -1 -1 -4.37114e-08 102 28.2856)" fill="#FFF4EA"/>
<rect x="1.71436" y="22.2856" width="1.71429" height="1.71429" transform="rotate(-90 1.71436 22.2856)" fill="#FFF4EA"/>
<rect width="1.71429" height="1.71429" transform="matrix(4.37114e-08 -1 -1 -4.37114e-08 108 22.2856)" fill="#FFF4EA"/>
</svg>
