<svg width="372" height="83" viewBox="0 0 372 83" fill="none" xmlns="http://www.w3.org/2000/svg">
<rect x="4.17993" y="23.9287" width="363.658" height="50.3403" fill="white"/>
<rect x="363.638" y="74.2702" width="4.17998" height="2.7211" fill="black"/>
<rect width="4.17998" height="2.7211" transform="matrix(-1 0 0 1 8.3623 74.2702)" fill="black"/>
<rect width="4.17998" height="2.7211" transform="matrix(-1 0 0 1 8.3623 71.5466)" fill="#5A5A5A"/>
<rect width="4.17998" height="2.7211" transform="matrix(-1 0 0 1 8.3623 68.8254)" fill="#AFAFAF"/>
<rect width="4.17998" height="2.7211" transform="matrix(-1 0 0 1 363.638 74.2702)" fill="#5A5A5A"/>
<rect width="4.17998" height="2.7211" transform="matrix(-1 0 0 1 367.82 71.5466)" fill="#5A5A5A"/>
<rect width="4.17998" height="2.7211" transform="matrix(-1 0 0 1 363.638 71.5466)" fill="#AFAFAF"/>
<rect width="4.17998" height="2.7211" transform="matrix(-1 0 0 1 367.82 68.8254)" fill="#AFAFAF"/>
<rect width="4.17998" height="2.7211" transform="matrix(-1 0 0 1 12.531 74.2702)" fill="#5A5A5A"/>
<rect width="4.17998" height="2.7211" transform="matrix(-1 0 0 1 12.531 71.5466)" fill="#AFAFAF"/>
<rect width="346.938" height="2.7211" transform="matrix(-1 0 0 1 359.469 76.9908)" fill="#5A5A5A"/>
<rect width="346.938" height="2.7211" transform="matrix(-1 0 0 1 359.469 74.2702)" fill="#AFAFAF"/>
<rect x="363.638" y="21.2072" width="4.17998" height="2.7211" fill="black"/>
<rect width="4.17998" height="2.7211" transform="matrix(-1 0 0 1 8.3623 21.2072)" fill="black"/>
<rect x="359.469" y="76.9908" width="4.17998" height="2.7211" fill="black"/>
<rect width="4.17998" height="2.7211" transform="matrix(-1 0 0 1 12.531 76.9908)" fill="black"/>
<rect x="12.531" y="79.7121" width="346.938" height="2.7211" fill="black"/>
<rect x="367.82" y="23.9287" width="4.17998" height="50.3403" fill="black"/>
<rect width="4.17998" height="50.3403" transform="matrix(-1 0 0 1 4.17993 23.9287)" fill="black"/>
<path fill-rule="evenodd" clip-rule="evenodd" d="M355.309 0.800278L16.731 0.800278V3.52138L355.309 3.52138V0.800278ZM16.7291 3.5218H12.5491V6.2429L16.7291 6.2429V3.5218ZM359.479 3.5218L355.299 3.5218V6.2429H359.479V3.5218ZM359.479 64.7464H355.299V67.4668L16.731 67.4668V70.1879L355.309 70.1879V67.4675H359.479V64.7464ZM359.481 6.24188L363.661 6.24188V64.7455H359.481V6.24188ZM8.36694 6.24188H12.5469L12.5469 64.7455H8.36694L8.36694 6.24188ZM12.5491 64.7464H16.7291V67.4675H12.5491V64.7464Z" fill="black"/>
<path fill-rule="evenodd" clip-rule="evenodd" d="M355.288 3.51976L16.7098 3.51976V6.24099H12.5278L12.5278 63.3841L359.466 63.3841V6.24099H355.288V3.51976Z" fill="#00D6BC"/>
<rect x="12.531" y="6.24129" width="4.17998" height="2.7211" fill="#E0FFFD"/>
<rect x="359.469" y="6.24129" width="2.7211" height="4.17998" transform="rotate(90 359.469 6.24129)" fill="#E0FFFD"/>
<rect x="359.469" y="56.5827" width="4.17998" height="2.7211" transform="rotate(-180 359.469 56.5827)" fill="#E0FFFD"/>
<rect x="12.531" y="56.5827" width="2.7211" height="4.17998" transform="rotate(-90 12.531 56.5827)" fill="#E0FFFD"/>
<rect x="12.531" y="64.7447" width="8.1633" height="4.17997" transform="rotate(-90 12.531 64.7447)" fill="#0F9C94"/>
<rect x="16.7129" y="6.24129" width="4.17998" height="2.7211" fill="#008D7C"/>
<rect x="359.469" y="8.96165" width="2.7211" height="4.17998" transform="rotate(90 359.469 8.96165)" fill="#008D7C"/>
<rect x="355.287" y="56.5827" width="4.17998" height="2.7211" transform="rotate(-180 355.287 56.5827)" fill="#008D7C"/>
<rect x="12.531" y="53.8606" width="2.7211" height="4.17998" transform="rotate(-90 12.531 53.8606)" fill="#008D7C"/>
<rect x="12.531" y="8.96165" width="4.17998" height="2.7211" fill="#008D7C"/>
<rect x="355.287" y="6.24129" width="2.7211" height="4.17998" transform="rotate(90 355.287 6.24129)" fill="#008D7C"/>
<rect x="359.469" y="53.8606" width="4.17998" height="2.7211" transform="rotate(-180 359.469 53.8606)" fill="#008D7C"/>
<rect x="16.7129" y="56.5827" width="2.7211" height="4.17998" transform="rotate(-90 16.7129 56.5827)" fill="#008D7C"/>
<rect x="359.469" y="64.7447" width="4.17998" height="8.1633" transform="rotate(-180 359.469 64.7447)" fill="#0F9C94"/>
<rect x="355.287" y="67.4662" width="338.578" height="8.16328" transform="rotate(-180 355.287 67.4662)" fill="#0F9C94"/>
<rect x="16.7129" y="3.52006" width="338.578" height="2.7211" fill="#E0FFFD"/>
<rect x="16.7129" y="56.5827" width="338.578" height="2.7211" fill="#E0FFFD"/>
<rect x="33.4343" y="67.4662" width="8.1633" height="8.35995" transform="rotate(-90 33.4343 67.4662)" fill="#AFEFEB"/>
<rect width="8.1633" height="8.35995" transform="matrix(-2.0144e-07 -1 -1 8.53663e-08 330.201 67.4662)" fill="#AFEFEB"/>
<rect x="43.8762" y="67.4662" width="8.1633" height="6.26996" transform="rotate(-90 43.8762 67.4662)" fill="#AFEFEB"/>
<rect width="8.1633" height="6.26996" transform="matrix(-2.0144e-07 -1 -1 8.53663e-08 319.753 67.4662)" fill="#AFEFEB"/>
<rect x="52.2473" y="67.4662" width="8.1633" height="4.17997" transform="rotate(-90 52.2473 67.4662)" fill="#AFEFEB"/>
<rect width="8.1633" height="4.17997" transform="matrix(-2.0144e-07 -1 -1 8.53663e-08 311.402 67.4662)" fill="#AFEFEB"/>
<rect x="58.52" y="67.4662" width="8.1633" height="2.08999" transform="rotate(-90 58.52 67.4662)" fill="#AFEFEB"/>
<rect width="8.1633" height="2.08999" transform="matrix(-2.0144e-07 -1 -1 8.53663e-08 305.129 67.4662)" fill="#AFEFEB"/>
</svg>
