<svg width="9" height="9" viewBox="0 0 9 9" fill="none" xmlns="http://www.w3.org/2000/svg">
<path d="M1.8441 0.407227H0.996094V1.25524H1.8441V0.407227Z" fill="#16171A"/>
<path d="M2.68785 0.407227H1.83984V1.25524H2.68785V0.407227Z" fill="#16171A"/>
<path d="M0.996447 1.25488H0.148438V2.10289H0.996447V1.25488Z" fill="#16171A"/>
<path d="M1.8441 1.25488H0.996094V2.10289H1.8441V1.25488Z" fill="#B9B9B9"/>
<path d="M2.68785 1.25488H1.83984V2.10289H2.68785V1.25488Z" fill="#B9B9B9"/>
<path d="M3.54332 1.25488H2.69531V2.10289H3.54332V1.25488Z" fill="#16171A"/>
<path d="M4.38707 1.25488H3.53906V2.10289H4.38707V1.25488Z" fill="#16171A"/>
<path d="M5.24254 1.25488H4.39453V2.10289H5.24254V1.25488Z" fill="#16171A"/>
<path d="M6.08238 1.25488H5.23438V2.10289H6.08238V1.25488Z" fill="#16171A"/>
<path d="M6.93395 1.25488H6.08594V2.10289H6.93395V1.25488Z" fill="#16171A"/>
<path d="M7.77379 1.25488H6.92578V2.10289H7.77379V1.25488Z" fill="#16171A"/>
<path d="M1.8441 2.10156H0.996094V2.94957H1.8441V2.10156Z" fill="#16171A"/>
<path d="M2.68785 2.10156H1.83984V2.94957H2.68785V2.10156Z" fill="#B9B9B9"/>
<path d="M3.54332 2.10156H2.69531V2.94957H3.54332V2.10156Z" fill="#B9B9B9"/>
<path d="M4.38707 2.10156H3.53906V2.94957H4.38707V2.10156Z" fill="#B9B9B9"/>
<path d="M5.24254 2.10156H4.39453V2.94957H5.24254V2.10156Z" fill="#B9B9B9"/>
<path d="M6.08238 2.10156H5.23438V2.94957H6.08238V2.10156Z" fill="#B9B9B9"/>
<path d="M6.93395 2.10156H6.08594V2.94957H6.93395V2.10156Z" fill="#B9B9B9"/>
<path d="M7.77379 2.10156H6.92578V2.94957H7.77379V2.10156Z" fill="#606060"/>
<path d="M8.62535 2.10156H7.77734V2.94957H8.62535V2.10156Z" fill="#16171A"/>
<path d="M1.8441 2.95117H0.996094V3.79918H1.8441V2.95117Z" fill="#16171A"/>
<path d="M2.68785 2.95117H1.83984V3.79918H2.68785V2.95117Z" fill="#FFBD82"/>
<path d="M3.54332 2.95117H2.69531V3.79918H3.54332V2.95117Z" fill="#B9B9B9"/>
<path d="M4.38707 2.95117H3.53906V3.79918H4.38707V2.95117Z" fill="#606060"/>
<path d="M5.24254 2.95117H4.39453V3.79918H5.24254V2.95117Z" fill="#606060"/>
<path d="M6.08238 2.95117H5.23438V3.79918H6.08238V2.95117Z" fill="#606060"/>
<path d="M6.93395 2.95117H6.08594V3.79918H6.93395V2.95117Z" fill="#606060"/>
<path d="M7.77379 2.95117H6.92578V3.79918H7.77379V2.95117Z" fill="#606060"/>
<path d="M8.62535 2.95117H7.77734V3.79918H8.62535V2.95117Z" fill="#16171A"/>
<path d="M0.996447 3.7998H0.148438V4.64781H0.996447V3.7998Z" fill="#16171A"/>
<path d="M1.8441 3.7998H0.996094V4.64781H1.8441V3.7998Z" fill="#FFBD82"/>
<path d="M2.68785 3.7998H1.83984V4.64781H2.68785V3.7998Z" fill="#FF8426"/>
<path d="M3.54332 3.7998H2.69531V4.64781H3.54332V3.7998Z" fill="#D62411"/>
<path d="M4.38707 3.7998H3.53906V4.64781H4.38707V3.7998Z" fill="#16171A"/>
<path d="M5.24254 3.7998H4.39453V4.64781H5.24254V3.7998Z" fill="#606060"/>
<path d="M6.08238 3.7998H5.23438V4.64781H6.08238V3.7998Z" fill="#16171A"/>
<path d="M6.93395 3.7998H6.08594V4.64781H6.93395V3.7998Z" fill="#16171A"/>
<path d="M7.77379 3.7998H6.92578V4.64781H7.77379V3.7998Z" fill="#16171A"/>
<path d="M0.996447 4.64746H0.148438V5.49547H0.996447V4.64746Z" fill="#16171A"/>
<path d="M1.8441 4.64746H0.996094V5.49547H1.8441V4.64746Z" fill="#FFBD82"/>
<path d="M2.68785 4.64746H1.83984V5.49547H2.68785V4.64746Z" fill="#FF8426"/>
<path d="M3.54332 4.64746H2.69531V5.49547H3.54332V4.64746Z" fill="#D62411"/>
<path d="M4.38707 4.64746H3.53906V5.49547H4.38707V4.64746Z" fill="#606060"/>
<path d="M5.24254 4.64746H4.39453V5.49547H5.24254V4.64746Z" fill="#16171A"/>
<path d="M0.996447 5.49512H0.148438V6.34313H0.996447V5.49512Z" fill="#16171A"/>
<path d="M1.8441 5.49512H0.996094V6.34313H1.8441V5.49512Z" fill="#FFBD82"/>
<path d="M2.68785 5.49512H1.83984V6.34313H2.68785V5.49512Z" fill="#FF8426"/>
<path d="M3.54332 5.49512H2.69531V6.34313H3.54332V5.49512Z" fill="#D62411"/>
<path d="M4.38707 5.49512H3.53906V6.34313H4.38707V5.49512Z" fill="#16171A"/>
<path d="M0.996447 6.34277H0.148438V7.19078H0.996447V6.34277Z" fill="#16171A"/>
<path d="M1.8441 6.34277H0.996094V7.19078H1.8441V6.34277Z" fill="#FF8426"/>
<path d="M2.68785 6.34277H1.83984V7.19078H2.68785V6.34277Z" fill="#D62411"/>
<path d="M3.54332 6.34277H2.69531V7.19078H3.54332V6.34277Z" fill="#D62411"/>
<path d="M4.38707 6.34277H3.53906V7.19078H4.38707V6.34277Z" fill="#16171A"/>
<path d="M1.8441 7.19043H0.996094V8.03844H1.8441V7.19043Z" fill="#16171A"/>
<path d="M2.68785 7.19043H1.83984V8.03844H2.68785V7.19043Z" fill="#16171A"/>
<path d="M3.54332 7.19043H2.69531V8.03844H3.54332V7.19043Z" fill="#16171A"/>
</svg>
