<svg width="9" height="9" viewBox="0 0 9 9" fill="none" xmlns="http://www.w3.org/2000/svg">
<path d="M7.1559 0.407227H8.00391V1.25524H7.1559V0.407227Z" fill="#16171A"/>
<path d="M6.31215 0.407227H7.16016V1.25524H6.31215V0.407227Z" fill="#16171A"/>
<path d="M8.00355 1.25488H8.85156V2.10289H8.00355V1.25488Z" fill="#16171A"/>
<path d="M7.1559 1.25488H8.00391V2.10289H7.1559V1.25488Z" fill="#B9B9B9"/>
<path d="M6.31215 1.25488H7.16016V2.10289H6.31215V1.25488Z" fill="#B9B9B9"/>
<path d="M5.45668 1.25488H6.30469V2.10289H5.45668V1.25488Z" fill="#16171A"/>
<path d="M4.61293 1.25488H5.46094V2.10289H4.61293V1.25488Z" fill="#16171A"/>
<path d="M3.75746 1.25488H4.60547V2.10289H3.75746V1.25488Z" fill="#16171A"/>
<path d="M2.91762 1.25488H3.76562V2.10289H2.91762V1.25488Z" fill="#16171A"/>
<path d="M2.06605 1.25488H2.91406V2.10289H2.06605V1.25488Z" fill="#16171A"/>
<path d="M1.22621 1.25488H2.07422V2.10289H1.22621V1.25488Z" fill="#16171A"/>
<path d="M7.1559 2.10156H8.00391V2.94957H7.1559V2.10156Z" fill="#16171A"/>
<path d="M6.31215 2.10156H7.16016V2.94957H6.31215V2.10156Z" fill="#B9B9B9"/>
<path d="M5.45668 2.10156H6.30469V2.94957H5.45668V2.10156Z" fill="#B9B9B9"/>
<path d="M4.61293 2.10156H5.46094V2.94957H4.61293V2.10156Z" fill="#B9B9B9"/>
<path d="M3.75746 2.10156H4.60547V2.94957H3.75746V2.10156Z" fill="#B9B9B9"/>
<path d="M2.91762 2.10156H3.76562V2.94957H2.91762V2.10156Z" fill="#B9B9B9"/>
<path d="M2.06605 2.10156H2.91406V2.94957H2.06605V2.10156Z" fill="#B9B9B9"/>
<path d="M1.22621 2.10156H2.07422V2.94957H1.22621V2.10156Z" fill="#606060"/>
<path d="M0.374647 2.10156H1.22266V2.94957H0.374647V2.10156Z" fill="#16171A"/>
<path d="M7.1559 2.95117H8.00391V3.79918H7.1559V2.95117Z" fill="#16171A"/>
<path d="M6.31215 2.95117H7.16016V3.79918H6.31215V2.95117Z" fill="#FFBD82"/>
<path d="M5.45668 2.95117H6.30469V3.79918H5.45668V2.95117Z" fill="#B9B9B9"/>
<path d="M4.61293 2.95117H5.46094V3.79918H4.61293V2.95117Z" fill="#606060"/>
<path d="M3.75746 2.95117H4.60547V3.79918H3.75746V2.95117Z" fill="#606060"/>
<path d="M2.91762 2.95117H3.76562V3.79918H2.91762V2.95117Z" fill="#606060"/>
<path d="M2.06605 2.95117H2.91406V3.79918H2.06605V2.95117Z" fill="#606060"/>
<path d="M1.22621 2.95117H2.07422V3.79918H1.22621V2.95117Z" fill="#606060"/>
<path d="M0.374647 2.95117H1.22266V3.79918H0.374647V2.95117Z" fill="#16171A"/>
<path d="M8.00355 3.7998H8.85156V4.64781H8.00355V3.7998Z" fill="#16171A"/>
<path d="M7.1559 3.7998H8.00391V4.64781H7.1559V3.7998Z" fill="#FFBD82"/>
<path d="M6.31215 3.7998H7.16016V4.64781H6.31215V3.7998Z" fill="#FF8426"/>
<path d="M5.45668 3.7998H6.30469V4.64781H5.45668V3.7998Z" fill="#D62411"/>
<path d="M4.61293 3.7998H5.46094V4.64781H4.61293V3.7998Z" fill="#16171A"/>
<path d="M3.75746 3.7998H4.60547V4.64781H3.75746V3.7998Z" fill="#606060"/>
<path d="M2.91762 3.7998H3.76562V4.64781H2.91762V3.7998Z" fill="#16171A"/>
<path d="M2.06605 3.7998H2.91406V4.64781H2.06605V3.7998Z" fill="#16171A"/>
<path d="M1.22621 3.7998H2.07422V4.64781H1.22621V3.7998Z" fill="#16171A"/>
<path d="M8.00355 4.64746H8.85156V5.49547H8.00355V4.64746Z" fill="#16171A"/>
<path d="M7.1559 4.64746H8.00391V5.49547H7.1559V4.64746Z" fill="#FFBD82"/>
<path d="M6.31215 4.64746H7.16016V5.49547H6.31215V4.64746Z" fill="#FF8426"/>
<path d="M5.45668 4.64746H6.30469V5.49547H5.45668V4.64746Z" fill="#D62411"/>
<path d="M4.61293 4.64746H5.46094V5.49547H4.61293V4.64746Z" fill="#606060"/>
<path d="M3.75746 4.64746H4.60547V5.49547H3.75746V4.64746Z" fill="#16171A"/>
<path d="M8.00355 5.49512H8.85156V6.34313H8.00355V5.49512Z" fill="#16171A"/>
<path d="M7.1559 5.49512H8.00391V6.34313H7.1559V5.49512Z" fill="#FFBD82"/>
<path d="M6.31215 5.49512H7.16016V6.34313H6.31215V5.49512Z" fill="#FF8426"/>
<path d="M5.45668 5.49512H6.30469V6.34313H5.45668V5.49512Z" fill="#D62411"/>
<path d="M4.61293 5.49512H5.46094V6.34313H4.61293V5.49512Z" fill="#16171A"/>
<path d="M8.00355 6.34277H8.85156V7.19078H8.00355V6.34277Z" fill="#16171A"/>
<path d="M7.1559 6.34277H8.00391V7.19078H7.1559V6.34277Z" fill="#FF8426"/>
<path d="M6.31215 6.34277H7.16016V7.19078H6.31215V6.34277Z" fill="#D62411"/>
<path d="M5.45668 6.34277H6.30469V7.19078H5.45668V6.34277Z" fill="#D62411"/>
<path d="M4.61293 6.34277H5.46094V7.19078H4.61293V6.34277Z" fill="#16171A"/>
<path d="M7.1559 7.19043H8.00391V8.03844H7.1559V7.19043Z" fill="#16171A"/>
<path d="M6.31215 7.19043H7.16016V8.03844H6.31215V7.19043Z" fill="#16171A"/>
<path d="M5.45668 7.19043H6.30469V8.03844H5.45668V7.19043Z" fill="#16171A"/>
</svg>
