<svg width="36" height="37" viewBox="0 0 36 37" fill="none" xmlns="http://www.w3.org/2000/svg">
<rect x="9.33154" y="3.46747" width="17.34" height="27.744" fill="white"/>
<rect x="2.39648" y="5.20268" width="31.212" height="24.276" fill="white"/>
<rect x="4.12598" y="27.7434" width="1.734" height="3.468" transform="rotate(-180 4.12598 27.7434)" fill="#B5B5B5"/>
<rect x="5.86694" y="31.2124" width="1.734" height="3.468" transform="rotate(-180 5.86694 31.2124)" fill="#B5B5B5"/>
<rect x="7.59644" y="32.9462" width="1.734" height="3.468" transform="rotate(-180 7.59644 32.9462)" fill="#B5B5B5"/>
<rect x="28.4075" y="32.9462" width="1.734" height="3.468" transform="rotate(-180 28.4075 32.9462)" fill="#B5B5B5"/>
<rect x="30.1428" y="32.9462" width="1.734" height="3.468" transform="rotate(-180 30.1428 32.9462)" fill="#B5B5B5"/>
<rect x="31.8723" y="31.2124" width="1.734" height="3.468" transform="rotate(-180 31.8723 31.2124)" fill="#B5B5B5"/>
<rect x="33.6074" y="27.7434" width="1.734" height="3.468" transform="rotate(-180 33.6074 27.7434)" fill="#B5B5B5"/>
<rect x="9.33154" y="32.9462" width="1.734" height="3.468" transform="rotate(-180 9.33154 32.9462)" fill="#B5B5B5"/>
<rect x="26.6724" y="34.68" width="17.34" height="3.468" transform="rotate(-180 26.6724 34.68)" fill="#B5B5B5"/>
<rect x="9.33154" y="-0.00012207" width="17.34" height="1.734" fill="#393939"/>
<rect x="5.86694" y="1.73367" width="3.468" height="1.734" fill="#393939"/>
<rect width="3.468" height="1.734" transform="matrix(-1 0 0 1 30.1428 1.73367)" fill="#393939"/>
<rect x="2.39648" y="31.2124" width="3.468" height="1.734" transform="rotate(-90 2.39648 31.2124)" fill="#393939"/>
<rect width="3.468" height="1.734" transform="matrix(4.37114e-08 -1 -1 -4.37114e-08 33.6074 31.2124)" fill="#393939"/>
<rect x="4.12598" y="3.46747" width="1.734" height="1.734" fill="#393939"/>
<rect width="1.734" height="1.734" transform="matrix(-1 0 0 1 31.8723 3.46747)" fill="#393939"/>
<rect x="4.12598" y="32.9462" width="1.734" height="1.734" transform="rotate(-90 4.12598 32.9462)" fill="#393939"/>
<rect width="1.734" height="1.734" transform="matrix(4.37114e-08 -1 -1 -4.37114e-08 31.8723 32.9462)" fill="#393939"/>
<rect x="2.39648" y="5.20268" width="1.734" height="3.468" fill="#393939"/>
<rect width="1.734" height="3.468" transform="matrix(-1 0 0 1 33.6074 5.20268)" fill="#393939"/>
<rect x="5.86694" y="34.68" width="1.734" height="3.468" transform="rotate(-90 5.86694 34.68)" fill="#393939"/>
<rect width="1.734" height="3.468" transform="matrix(4.37114e-08 -1 -1 -4.37114e-08 30.1428 34.68)" fill="#393939"/>
<rect x="9.33154" y="34.68" width="17.34" height="1.734" fill="#393939"/>
<rect x="35.3428" y="8.67027" width="19.074" height="1.734" transform="rotate(90 35.3428 8.67027)" fill="#393939"/>
<rect x="2.39648" y="8.67027" width="19.074" height="1.734" transform="rotate(90 2.39648 8.67027)" fill="#393939"/>
<rect x="26.6724" y="1.73367" width="1.734" height="17.34" transform="rotate(90 26.6724 1.73367)" fill="#E8E8E8"/>
<rect x="9.33154" y="31.2124" width="1.734" height="17.34" transform="rotate(-90 9.33154 31.2124)" fill="#E8E8E8"/>
<rect x="9.33154" y="3.46747" width="1.734" height="3.468" transform="rotate(90 9.33154 3.46747)" fill="#E8E8E8"/>
<rect x="26.6724" y="29.4772" width="1.734" height="3.468" transform="rotate(-90 26.6724 29.4772)" fill="#E8E8E8"/>
<rect x="5.86694" y="5.20268" width="1.734" height="1.734" transform="rotate(90 5.86694 5.20268)" fill="#E8E8E8"/>
<rect x="30.1428" y="27.7434" width="1.734" height="1.734" transform="rotate(-90 30.1428 27.7434)" fill="#E8E8E8"/>
<rect x="4.12598" y="8.67027" width="1.734" height="1.734" transform="rotate(90 4.12598 8.67027)" fill="#E8E8E8"/>
<rect x="31.8723" y="24.2758" width="1.734" height="1.734" transform="rotate(-90 31.8723 24.2758)" fill="#E8E8E8"/>
<rect x="31.8723" y="5.20268" width="1.734" height="1.734" transform="rotate(90 31.8723 5.20268)" fill="#E8E8E8"/>
<rect x="4.12598" y="27.7434" width="1.734" height="1.734" transform="rotate(-90 4.12598 27.7434)" fill="#E8E8E8"/>
<rect x="33.6074" y="8.67027" width="1.734" height="1.734" transform="rotate(90 33.6074 8.67027)" fill="#E8E8E8"/>
<rect x="2.39648" y="24.2758" width="1.734" height="1.734" transform="rotate(-90 2.39648 24.2758)" fill="#E8E8E8"/>
<rect x="30.1428" y="3.46747" width="1.734" height="3.468" transform="rotate(90 30.1428 3.46747)" fill="#E8E8E8"/>
<rect x="5.86694" y="29.4772" width="1.734" height="3.468" transform="rotate(-90 5.86694 29.4772)" fill="#E8E8E8"/>
<path d="M14.8506 24.914H11.4732V13.3979H14.8506V24.914ZM13.1601 11.827C12.0801 11.827 11.2041 10.8798 11.2041 9.73627C11.2041 9.187 11.4102 8.66022 11.777 8.27182C12.1438 7.88342 12.6413 7.66522 13.1601 7.66522C13.6788 7.66522 14.1763 7.88342 14.5431 8.27182C14.9099 8.66022 15.116 9.187 15.116 9.73627C15.116 10.8798 14.2397 11.827 13.1601 11.827ZM27.491 24.914H24.1209V19.308C24.1209 17.972 24.0954 16.2586 22.3649 16.2586C20.609 16.2586 20.3399 17.7102 20.3399 19.2117V24.914H16.9661V13.3979H20.2053V14.9688H20.2526C20.7035 14.064 21.8049 13.1091 23.4482 13.1091C26.8662 13.1091 27.4946 15.4924 27.4946 18.588V24.914H27.491Z" fill="#FF7C06"/>
</svg>
