<svg width="207" height="173" viewBox="0 0 207 173" fill="none" xmlns="http://www.w3.org/2000/svg">
<g clip-path="url(#clip0_2048_1164)">
<path d="M154.747 149.148V137.584H150.415V131.087H140.998V135.418L138.829 135.418V137.584H123.767V128.898H110.014V137.584H88.3318V139.754H86.162V141.92H84.7449V128.898H70.9965V128.963H56.3648V131.148H54.1988V133.314H52.0328V137.65H49.863V149.213H52.0328L52.0328 164.398H65.7813V149.213H70.9965V164.336H84.7449V160H86.162V173H106.412V170.834H108.578V168.668H110.748V164.336H136.766V162.166H138.829V164.336H154.747V150.607H150.415V149.148H154.747Z" fill="black"/>
<path d="M78.2317 119.88H84.5222V126.374H86.6843V128.54H135.791V115.529H142.281V101.811H122.799V93.1323H109.058V103.977H106.919V101.811H89.0577V93.1323H62.3289L62.3289 128.54H78.2317V119.88Z" fill="black"/>
<path d="M157.228 147.354V135.257H152.692V128.456H142.842V132.991H140.576V135.257H124.811V126.167H110.425V135.257H87.7366V137.527H85.467V139.789H83.9846V126.167H69.5986V126.236H54.291V128.521H52.0252V130.791H49.7594V135.322H47.4897V147.42H49.7594L49.7594 163.311H64.1415V147.42H69.5986V163.246H83.9846V158.71H85.467V172.313H106.654V170.047H108.924V167.777H111.19V163.246H138.414V160.976H140.576V163.246H157.228V148.879H152.692V147.354H157.228Z" fill="#050104"/>
<path d="M77.1679 116.731H83.7502V123.529H86.0122V125.795L137.392 125.795V112.18H144.186V97.8291H123.801V88.7467H109.427V100.091H107.184V97.8291H88.4969V88.7467H60.5315L60.5315 125.795H77.1679V116.731Z" fill="#050104"/>
<path d="M159.709 145.565V132.93H154.973V125.825H144.685V130.56H142.32V132.93L125.86 132.93V123.436H110.836V132.93H87.1414V135.295H84.7757V137.661H83.2242V123.436H68.2008V123.509H52.2173V125.894H49.8516V128.264H47.4821V132.995H45.1165L45.1165 145.63H47.4821L47.4821 162.22H62.5056L62.5056 145.63H68.2008V162.155H83.2242V157.42H84.7757V171.621H106.896V169.256H109.266L109.266 166.886H111.635V162.155H140.061V159.785H142.32V162.155L159.709 162.155V147.154H154.973V145.565H159.709Z" fill="#0B0108"/>
<path d="M76.1081 113.582H82.9785V120.679H85.3441V123.045L138.994 123.045V108.832H146.091V93.8427H124.804V84.3571H109.792V96.2084L107.453 96.2084V93.8427H87.9364V84.3571H58.7344L58.7344 123.045H76.1081V113.582Z" fill="#0B0108"/>
<path d="M162.186 143.771V130.599H157.255V123.198H146.529V128.133H144.063V130.599L126.904 130.599V120.706H111.247V130.599H86.55V133.068H84.0807V135.534H82.4677V120.706H66.8068V120.779H50.1435V123.268H47.6742V125.737H45.2087V130.672H42.7432L42.7432 143.84H45.2087L45.2087 161.133H60.8658L60.8658 143.84H66.8068V161.064H82.4677V156.129H84.0807V170.934H107.142V168.465H109.607V165.999H112.077L112.077 161.064H141.709V158.595H144.063V161.064L162.186 161.064V145.43H157.255V143.771H162.186Z" fill="#10020C"/>
<path d="M75.048 110.433H82.2103V117.833H84.6719V120.299L140.599 120.299V105.483H147.995V89.8604H125.802V79.9715H110.156V92.322H107.718V89.8604L87.3755 89.8604V79.9715H56.9331L56.9331 120.299H75.048V110.433Z" fill="#10020C"/>
<path d="M164.667 141.974V128.272H159.532V120.568H148.376V125.702H145.807V128.272L127.953 128.272V117.976H111.654V128.272H85.9548V130.841H83.3856V133.406H81.7073V117.976H65.4089V118.052H48.0697V120.641H45.5005V123.21H42.9352V128.344H40.366L40.366 142.051H42.9352V160.047H59.2298L59.2298 142.051H65.4089V159.974H81.7073V154.839H83.3856V170.243H107.384V167.677H109.953V165.108H112.522L112.522 159.974H143.36V157.404H145.807V159.974L164.667 159.974V143.702H159.532V141.974H164.667Z" fill="#15030F"/>
<path d="M73.9844 107.288H81.4385V114.984H84.0039V117.553L142.201 117.553V102.13H149.897V85.8741H126.805V75.5858H110.521V88.4395H107.987V85.8741L86.815 85.8741V75.5858H55.136L55.136 117.553H73.9844V107.288Z" fill="#15030F"/>
<path d="M167.147 140.18V125.944L161.813 125.944V117.937H150.219V123.275H147.55V125.944H128.997V115.245H112.065V125.944L85.3595 125.944V128.613H82.6905V131.279H80.947V115.245H64.0149V115.326H45.996V118.014H43.3269V120.683H40.6617V126.021H37.9927L37.9927 140.261H40.6617V158.96H57.59L57.59 140.261H64.0149V158.883H80.947V153.545H82.6905V169.555H107.626V166.886H110.295V164.217H112.964L112.964 158.883H145.008V156.214H147.55V158.883L167.147 158.883V141.978H161.813V140.18H167.147Z" fill="#1B0413"/>
<path d="M72.9244 104.139H80.6704V112.138H83.3356V114.803L143.806 114.803V98.7814H151.801V81.8877H127.807V71.2H110.886V84.5529H108.252V81.8877L86.2543 81.8877V71.2H53.3386L53.3386 114.803H72.9244V104.139Z" fill="#1B0413"/>
<path d="M169.628 138.391V123.613H164.094V115.31H152.062V120.844H149.293V123.613H130.046V112.515H112.476V123.613L84.7679 123.613V126.382H81.999V129.151H80.1864V112.515L62.6168 112.515V112.595H43.922V115.387H41.1531V118.156H38.388V123.694H35.6191L35.6191 138.468H38.388V157.873H55.9538L55.9538 138.468H62.6168L62.6168 157.792H80.1864V152.255H81.999V168.864H107.868V166.099H110.64V163.33H113.409V157.792L146.655 157.792V155.023H149.293V157.792H169.628V140.25H164.094V138.391H169.628Z" fill="#200417"/>
<path d="M71.8644 100.99H79.8984V109.289H82.6634V112.058L145.407 112.058V95.4327H153.706V77.9053H128.809V66.8144H111.255V80.6704H108.517V77.9053L85.6935 77.9053V66.8144H51.5413L51.5413 112.058H71.8644V100.99Z" fill="#200417"/>
<path d="M172.109 136.597V121.286H166.372V112.68L153.906 112.68V118.417H151.037V121.286H131.09V109.784H112.883V121.286H84.1729V124.155L81.3041 124.155V127.023H79.4262V109.784L61.2191 109.784V109.868H41.8484V112.76H38.9797V115.633H36.1109V121.367H33.2422L33.2422 136.678H36.1109V156.782H54.318L54.318 136.678H61.2191L61.2191 156.702H79.4262V150.964H81.3041V168.177H108.114V165.308H110.982V162.439H113.851V156.702L148.303 156.702V153.833H151.037V156.702H172.109V138.525H166.372V136.597H172.109Z" fill="#25051B"/>
<path d="M70.8008 97.8407H79.1267V106.443H81.9916V109.308L147.013 109.308V92.084H155.607V73.9191H129.812V62.4288L111.62 62.4288V76.784H108.786V73.9191L85.133 73.9191V62.4288L49.7441 62.4288L49.7441 109.308H70.8008V97.8407Z" fill="#25051B"/>
<path d="M174.59 134.804V118.959H168.653V110.049L155.749 110.049V115.986H152.781V118.959H132.139V107.054H113.294V118.959H83.5774V121.927H80.6088V124.896H78.6656V107.054L59.8249 107.054V107.142H39.7744V110.134H36.8058V113.106H33.8372V119.043H30.8687V134.888H33.8372V155.695H52.678L52.678 134.888H59.8249L59.8249 155.611H78.6656V149.674H80.6088V167.485H108.355V164.517H111.324V161.548H114.296V155.611L149.95 155.611V152.642H152.781V155.611H174.59V136.797H168.653V134.804H174.59Z" fill="#2B061F"/>
<path d="M69.7408 94.6915H78.3585V103.593H81.3232V106.562L148.614 106.562V88.7351H157.512V69.9366H130.814V58.0392L111.985 58.0392V72.9014H109.051V69.9366L84.5722 69.9366V58.0392L47.9468 58.0392L47.9468 106.562H69.7408V94.6915Z" fill="#2B061F"/>
<path d="M177.071 133.011V116.628H170.934V107.418L157.596 107.418V113.559L154.524 113.559V116.628H133.183V104.323H113.705V116.628H82.9861V119.7H79.9138V122.768H77.9053V104.323L58.427 104.323V104.411H37.7007V107.507H34.6322V110.579H31.5638V116.716H28.4954V133.099H31.5638L31.5638 154.609H51.0421L51.0421 133.099H58.427L58.427 154.52H77.9053V148.383H79.9138V166.798H108.597V163.729H111.67V160.657H114.738V154.52L151.602 154.52V151.452H154.524V154.52H177.071V135.073H170.934V133.011H177.071Z" fill="#300623"/>
<path d="M68.6807 91.5463H77.5865V100.748H80.6511V103.812L150.215 103.812V85.3825H159.417V65.9504H131.816V53.6536L112.349 53.6536V69.015H109.319V65.9504L84.0114 65.9504V53.6536L46.1494 53.6536L46.1494 103.812H68.6807V91.5463Z" fill="#300623"/>
<path d="M179.552 131.217V114.3H173.211V104.792H159.44V111.128H156.268V114.3L134.232 114.3V101.593H114.116V114.3H82.391V117.469H79.2189V120.637H77.1451V101.593L57.0332 101.593V101.685H35.6309V104.884H32.4588V108.052H29.2905L29.2905 114.393H26.1184V131.305H29.2905L29.2905 153.522H49.4024L49.4024 131.305H57.0332L57.0332 153.43H77.1451V147.093H79.2189V166.107H108.843V162.938H112.012V159.77H115.184V153.43L153.249 153.43V150.261H156.268V153.43H179.552V133.348H173.211V131.217H179.552Z" fill="#350727"/>
<path d="M67.6171 88.3971H76.8186V97.8981H79.983V101.066L151.821 101.066V82.0336L161.318 82.0336V61.964L132.815 61.964V49.2678H112.714V65.1323H109.584V61.964L83.4547 61.964V49.2678L44.3523 49.2678L44.3523 101.066H67.6171V88.3971Z" fill="#350727"/>
<path d="M182.033 129.424V111.969H175.492V102.161H161.283V108.701H158.011V111.969L135.276 111.969V98.8622H114.523V111.969H81.7994V115.241L78.5275 115.241V118.509H76.3884V98.8622L55.6351 98.8622V98.9582H33.557V102.253H30.285V105.525H27.0168L27.0168 112.065H23.7449V129.516H27.0168L27.0168 152.435H47.7663L47.7663 129.516H55.6351L55.6351 152.339H76.3884V145.799H78.5275L78.5275 165.419H109.085V162.151H112.357V158.879H115.625V152.339L154.897 152.339V149.071H158.011V152.339H182.033V131.62H175.492V129.424H182.033Z" fill="#3B082A"/>
<path d="M66.5571 85.2481H76.0466V95.0525H79.3147V98.3206L153.422 98.3206V78.6849H163.223V57.9816L133.817 57.9816V44.8822H113.083V61.2459H109.853V57.9816L82.894 57.9816V44.8822L42.5549 44.8822L42.5549 98.3206H66.5571V85.2481Z" fill="#3B082A"/>
<path d="M184.513 127.63V109.642H177.774V99.5303H163.127V106.27H159.755V109.642L136.325 109.642V96.1278H114.934V109.642H81.2042V113.014H77.8324V116.382L75.628 116.382V96.1278L54.2373 96.1278V96.2315H31.4832V99.6302H28.1114V102.998H24.7434L24.7434 109.738H21.3716V127.726H24.7434L24.7434 151.348H46.1265L46.1265 127.726H54.2373V151.248H75.628V144.508H77.8324L77.8324 164.728H109.327V161.36H112.699V157.988H116.071V151.248L156.544 151.248V147.876H159.755V151.248H184.513V129.896H177.774V127.63H184.513Z" fill="#40092E"/>
<path d="M65.4933 82.0991H75.2785V92.203H78.6426V95.571L155.027 95.571V75.3362H165.127V53.9954L134.819 53.9954V40.4927H113.448V57.3634H110.118V53.9954L82.3332 53.9954V40.4927L40.7576 40.4927L40.7576 95.571H65.4933V82.0991Z" fill="#40092E"/>
<path d="M186.994 125.837V107.315H180.055V96.9035H164.97V103.843H161.498V107.315L137.369 107.315V93.4011H115.345V107.315H80.6089V110.786H77.1373V114.254H74.8676V93.4011L52.8432 93.4011V93.501H29.4094V97.0034H25.9377V100.475H22.4661L22.4661 107.415H18.9944V125.937H22.4661L22.4661 150.257H44.4905L44.4905 125.937H52.8432V150.158H74.8676V143.218H77.1373L77.1373 164.04H109.573V160.573H113.045V157.101H116.516V150.158L158.195 150.158V146.686H161.498V150.158H186.994V128.168H180.055V125.837H186.994Z" fill="#450932"/>
<path d="M64.4335 78.9537H74.5067V89.3572H77.9707V92.8251L156.629 92.8251V71.9873H167.028V50.0129L135.822 50.0129V36.107H113.813V53.4769H110.383V50.0129L81.7727 50.0129V36.107L38.9604 36.107L38.9604 92.8251H64.4335L64.4335 78.9537Z" fill="#450932"/>
<path d="M189.475 124.043V104.984H182.332V94.273H166.817V101.412H163.242V104.984L138.418 104.984V90.6669H115.756V104.984H80.0137V108.559H76.4422V112.127H74.1073V90.6669L51.4454 90.6669V90.7744H27.3357V94.3766H23.7641V97.9482H20.1926L20.1926 105.087H16.6211L16.6211 124.143H20.1926L20.1926 149.171H42.8507L42.8507 124.143H51.4454V149.071H74.1073V141.928H76.4422L76.4422 163.349H109.815V159.782H113.386V156.21H116.958V149.071L159.843 149.071V145.496H163.242V149.071H189.475V126.444H182.332V124.043H189.475Z" fill="#4B0A36"/>
<path d="M63.3735 75.8047H73.7347V86.5077H77.3024V90.0793L158.23 90.0793V68.6348H168.933V46.0266L136.824 46.0266V31.7213L114.177 31.7213V49.5943H110.652V46.0266L81.2119 46.0266V31.7213L37.1631 31.7213L37.1631 90.0793H63.3735L63.3735 75.8047Z" fill="#4B0A36"/>
<path d="M191.952 122.25V102.656H184.613V91.6422H168.66V98.9849H164.989V102.656L139.462 102.656V87.9362H116.167V102.656H79.4221V106.328H75.7507V109.999H73.3467V87.9362L50.0511 87.9362V88.0476H25.2617V91.7497H21.5903V95.4211H17.9189L17.9189 102.764H14.2476L14.2476 122.353H17.9189L17.9189 148.084H41.2145L41.2145 122.353H50.0511V147.976H73.3467V140.637H75.7507L75.7507 162.662H110.057V158.99H113.728V155.319H117.403V147.976L161.49 147.976V144.305H164.989V147.976H191.952V124.715H184.613V122.25H191.952Z" fill="#500B3A"/>
<path d="M62.3096 72.6555H72.9666V83.6619H76.6341V87.3294L159.835 87.3294V65.2859H170.838V42.0441L137.822 42.0441V27.3355L114.546 27.3355V45.7078H110.917V42.0441L80.6511 42.0441V27.3355L35.3657 27.3355L35.3657 87.3294H62.3096L62.3096 72.6555Z" fill="#500B3A"/>
<path d="M194.433 120.456V100.329H186.895V89.0116H170.504V96.554H166.733V100.329H140.511V85.2058H116.574V100.329H78.8271V104.1H75.0559V107.872H72.5865V85.2058L48.6535 85.2058V85.3172H23.1881V89.1229H19.4131V92.8942H15.6457L15.6457 100.437H11.8706L11.8706 120.564H15.6457L15.6457 146.997H39.5749L39.5749 120.564H48.6535V146.889H72.5865V139.347H75.0559L75.0559 161.971H110.299V158.203H114.074V154.432H117.845V146.889L163.138 146.889V143.114H166.733V146.889H194.433V122.991H186.895V120.456H194.433Z" fill="#550B3E"/>
<path d="M61.2496 69.5065H72.1946V80.8124H75.962V84.5837L161.437 84.5837V61.9371H172.739V38.0578L138.825 38.0578V22.9499L114.911 22.9499V41.8252H111.186V38.0578L80.0903 38.0578V22.9499L33.5684 22.9499L33.5684 84.5837H61.2496L61.2496 69.5065Z" fill="#550B3E"/>
<path d="M196.914 118.663V97.998H189.172V86.3848H172.347V94.127H168.476V97.998H141.555V82.4753H116.985V97.998H78.2357V101.873H74.3608V105.74H71.8262V82.4753L47.2556 82.4753V82.5906H21.1144V86.4962H17.2395V90.3673H13.3722L13.3722 98.1094H9.49731L9.49731 118.774H13.3722L13.3722 145.91H37.9389L37.9389 118.774H47.2556V145.799H71.8262V138.057H74.3608V161.283H110.545V157.412H114.416V153.541H118.291V145.799L164.786 145.799V141.924H168.476V145.799H196.914V121.267H189.172V118.663H196.914Z" fill="#5B0C42"/>
<path d="M60.1859 66.3574H71.4266V77.9668H75.2938V81.834L163.042 81.834V58.5884H174.644V34.0755L139.827 34.0755V18.5643L115.276 18.5643V37.9389H111.451V34.0755L79.5297 34.0755V18.5643L31.7673 18.5643L31.7673 81.834H60.1859L60.1859 66.3574Z" fill="#5B0C42"/>
<path d="M199.395 116.87V95.6708H191.453V83.7542H174.19V91.696H170.22V95.6708H142.6V79.7449L117.396 79.7449V95.6708H77.6403V99.6456H73.6655V103.613H71.0694V79.7449L45.8614 79.7449V79.8639H19.0404V83.8694H15.0656V87.8403H11.0947L11.0947 95.786H7.12378L7.12378 116.985H11.0947L11.0947 144.823H36.2989L36.2989 116.985H45.8614V144.708H71.0694V136.763H73.6655V160.592H110.786V156.625H114.761V152.65H118.732V144.708L166.433 144.708V140.733H170.22V144.708H199.395V119.539H191.453V116.87H199.395Z" fill="#600D45"/>
<path d="M59.1261 63.2121H70.6549V75.1172H74.622V79.0881L164.644 79.0881V55.2395H176.549V30.0891L140.83 30.0891V14.1747L115.641 14.1747V34.0562H111.716V30.0891L78.9692 30.0891V14.1747L29.9702 14.1747L29.9702 79.0881H59.1261L59.1261 63.2121Z" fill="#600D45"/>
<path d="M201.876 115.076V93.3436H193.734V81.1236H176.038V89.269H171.963V93.3436H143.648V77.0144L117.803 77.0144V93.3436H77.045V97.4143H72.9704V101.485H70.3091V77.0144L44.4635 77.0144V77.1335H16.9666V81.2426H12.892L12.892 85.3172H8.82126L8.82126 93.4588H4.75049L4.75049 115.191H8.82126L8.82126 143.733H34.663L34.663 115.191H44.4635L44.4635 143.618H70.3091V135.472H72.9704V159.904H111.028V155.834H115.103V151.759H119.178V143.618L168.084 143.618V139.543H171.963V143.618H201.876V117.814H193.734V115.076H201.876Z" fill="#650E49"/>
<path d="M58.0659 60.0631H69.8865V72.2716H73.9534L73.9534 76.3423L166.245 76.3423V51.887H178.453V26.1029L141.832 26.1029V9.78909L116.005 9.78909V30.1698H111.984V26.1029L78.412 26.1029V9.78909L28.1726 9.78909L28.1726 76.3423H58.0659L58.0659 60.0631Z" fill="#650E49"/>
<path d="M204.356 113.283V91.0124H196.011V78.4967H177.881V86.8379H173.707V91.0124H144.693V74.2838L118.214 74.2838V91.0124H76.4536V95.1868H72.2792V99.3574H69.5487V74.2838L43.0695 74.2838V74.4067H14.8928V78.6157H10.7184L10.7184 82.7902H6.54775L6.54775 91.1353H2.37329L2.37329 113.402H6.54775L6.54775 142.646H33.0269L33.0269 113.402H43.0695L43.0695 142.527H69.5487V134.182H72.2792V159.213H111.274V155.046H115.449V150.872H119.623V142.527L169.732 142.527V138.352H173.707V142.527H204.356V116.086H196.011V113.283H204.356Z" fill="#6B0E4D"/>
<path d="M57.0023 56.9141H69.1147V69.4221L73.2815 69.4221L73.2815 73.5927L167.85 73.5927V48.5383H180.354V22.1205L142.834 22.1205V5.40347L116.374 5.40347V26.2873H112.25V22.1205L77.8515 22.1205V5.40347L26.3755 5.40347L26.3755 73.5927H57.0023L57.0023 56.9141Z" fill="#6B0E4D"/>
<path d="M206.837 111.489V88.6851H198.293V75.8661H179.724V84.4108H175.45V88.6851H145.741V71.5533L118.625 71.5533V88.6851H75.8584V92.9594H71.5841V97.2299H68.7883V71.5533L41.6716 71.5533V71.6801H12.8191V75.9889H8.54478L8.54478 80.2633H4.27431L4.27431 88.808H0L0 111.612H4.27431L4.27431 141.559H31.3872L31.3872 111.612H41.6716L41.6716 141.436H68.7883V132.891H71.5841V158.526H111.516V154.255H115.79V149.981H120.065V141.436L171.379 141.436V137.162H175.45V141.436H206.837V114.362H198.293V111.489H206.837Z" fill="#700F51"/>
<path d="M55.9423 53.7648H68.3466V66.5762L72.6132 66.5762L72.6132 70.8467L169.451 70.8467V45.1893L182.259 45.1893V18.1341L143.836 18.1341V1.01767L116.739 1.01767V22.4007H112.518V18.1341L77.2907 18.1341V1.01767L24.5781 1.01767L24.5781 70.8467H55.9423L55.9423 53.7648Z" fill="#700F51"/>
<path d="M102.253 126.881H97.9788V131.156H102.253V126.881Z" fill="#700F51"/>
<path d="M97.979 139.7V131.156H93.7047V135.426H80.8511V139.7H97.979Z" fill="#700F51"/>
<path d="M97.9789 105.479H89.4341V122.607H97.9789V105.479Z" fill="#700F51"/>
<path d="M140.749 96.9342H136.436V101.209H140.749V96.9342Z" fill="#700F51"/>
<path d="M206.837 87.6675V110.471H198.293V113.344H206.837V140.419H175.45V136.144H171.379V140.419L120.065 140.419V148.963H115.79V153.238H111.516V157.508H71.5841V131.874H68.7883V140.419H41.6716L41.6716 110.594H31.3872L31.3872 140.541H4.27431L4.27431 110.594H0L0 87.7904H4.27431L4.27431 79.2456H8.54478L8.54478 74.9713H12.8191V70.6624H41.6716V70.5357L68.7883 70.5357V96.2123H71.5841V91.9418H75.8584V87.6675H118.625V70.5357L145.741 70.5357V87.6675H175.45V83.3932H179.724V74.8484H198.293V87.6675H206.837Z" fill="#700F51"/>
<path d="M46.6641 88.3895V75.532H63.7959V88.3895H46.6641ZM46.6641 135.426L46.6641 92.66H63.7959L63.7959 135.426H46.6641Z" fill="url(#paint0_linear_2048_1164)"/>
<path d="M76.5766 152.519L76.5766 135.426H80.8509V139.7H97.9788V131.156H102.253V126.881H97.9788V131.156H93.7045V135.426H80.8509V131.156H76.5766V126.881H72.3022V101.205H76.5766V96.9342H80.8509V92.6599H115.072V143.971H110.798V148.237H106.524V152.512L76.5766 152.519ZM97.9788 122.607V105.479H89.434V122.607H97.9788Z" fill="url(#paint1_linear_2048_1164)"/>
<path d="M123.617 135.426L123.617 75.5166H140.749V96.9189H136.436V101.189H140.749V96.9342H145.019V92.6599H162.113V96.9342H166.387V135.426H149.294V105.471H140.749V135.426H123.617Z" fill="url(#paint2_linear_2048_1164)"/>
<path d="M180.443 135.426V131.156H176.172V105.479H171.898V92.66H180.443V88.3896H184.721V79.8409H193.304V92.66H201.849V105.479H193.3V122.607H197.575V118.337H201.845V135.426H180.443Z" fill="url(#paint3_linear_2048_1164)"/>
<path d="M9.26674 135.564L9.26674 105.61H4.99243L4.99243 92.7829H9.26674L9.26674 84.2381H13.5372L13.5372 79.9676H17.8115V75.6549H39.2138V88.5124H26.3947V92.7829H39.2138L39.2138 105.61H26.3947L26.3947 135.564H9.26674Z" fill="url(#paint4_linear_2048_1164)"/>
<path d="M94.7185 43.4536H90.448V52.0329H94.7185V43.4536Z" fill="#700F51"/>
<path d="M182.259 17.1203V44.1717L169.451 44.1717V69.8291L72.6132 69.8291L72.6132 65.5586L68.3466 65.5586V52.7472H55.9423L55.9423 69.8291H24.5781L24.5781 3.05176e-05L77.2907 3.05176e-05V17.1203L112.518 17.1203V21.3869H116.739V3.05176e-05L143.836 3.05176e-05V17.1203L182.259 17.1203Z" fill="#700F51"/>
<path d="M29.5708 64.8405L29.5708 4.99252L72.2985 4.99252V22.1051L50.9539 22.1051V30.646L68.0319 30.646V47.7625L50.9539 47.7625L50.9539 64.8405H29.5708Z" fill="url(#paint5_linear_2048_1164)"/>
<path d="M77.6019 64.8404V60.57H73.3506V43.4535H77.6211V39.1715H94.7375V34.9164H77.6019V22.105L107.53 22.105V26.3755H111.8V52.0329H116.071V64.8404H98.9888V52.0329H94.7183V43.4535H90.4478V52.0329H94.7183V64.8404H77.6019Z" fill="url(#paint6_linear_2048_1164)"/>
<path d="M121.739 17.8385V4.99252L138.855 4.99252V17.8385L121.739 17.8385ZM121.739 64.8405L121.739 22.1051L138.855 22.1051V64.8405H121.739Z" fill="url(#paint7_linear_2048_1164)"/>
<path d="M147.347 64.8404V22.105L160.143 22.105V34.9164H164.452V64.8404H147.347ZM173 39.1715V34.9164H164.463V22.105H177.271V39.1715H173Z" fill="url(#paint8_linear_2048_1164)"/>
</g>
<defs>
<linearGradient id="paint0_linear_2048_1164" x1="55.2319" y1="84.0921" x2="55.2319" y2="137.557" gradientUnits="userSpaceOnUse">
<stop stop-color="#FFDC2A"/>
<stop offset="0.57" stop-color="#FFDC2A"/>
<stop offset="0.67" stop-color="#FF7558"/>
<stop offset="0.73" stop-color="#FFDC2A"/>
<stop offset="0.76" stop-color="#FFBF37"/>
<stop offset="0.79" stop-color="#FFA443"/>
<stop offset="0.83" stop-color="#FF8F4C"/>
<stop offset="0.87" stop-color="#FF8053"/>
<stop offset="0.92" stop-color="#FF7857"/>
<stop offset="1" stop-color="#FF7558"/>
</linearGradient>
<linearGradient id="paint1_linear_2048_1164" x1="93.6853" y1="84.0921" x2="93.6853" y2="137.557" gradientUnits="userSpaceOnUse">
<stop stop-color="#FFDC2A"/>
<stop offset="0.57" stop-color="#FFDC2A"/>
<stop offset="0.67" stop-color="#FF7558"/>
<stop offset="0.73" stop-color="#FFDC2A"/>
<stop offset="0.76" stop-color="#FFBF37"/>
<stop offset="0.79" stop-color="#FFA443"/>
<stop offset="0.83" stop-color="#FF8F4C"/>
<stop offset="0.87" stop-color="#FF8053"/>
<stop offset="0.92" stop-color="#FF7857"/>
<stop offset="1" stop-color="#FF7558"/>
</linearGradient>
<linearGradient id="paint2_linear_2048_1164" x1="145" y1="84.0921" x2="145" y2="137.557" gradientUnits="userSpaceOnUse">
<stop stop-color="#FFDC2A"/>
<stop offset="0.57" stop-color="#FFDC2A"/>
<stop offset="0.67" stop-color="#FF7558"/>
<stop offset="0.73" stop-color="#FFDC2A"/>
<stop offset="0.76" stop-color="#FFBF37"/>
<stop offset="0.79" stop-color="#FFA443"/>
<stop offset="0.83" stop-color="#FF8F4C"/>
<stop offset="0.87" stop-color="#FF8053"/>
<stop offset="0.92" stop-color="#FF7857"/>
<stop offset="1" stop-color="#FF7558"/>
</linearGradient>
<linearGradient id="paint3_linear_2048_1164" x1="186.871" y1="84.0922" x2="186.871" y2="137.558" gradientUnits="userSpaceOnUse">
<stop stop-color="#FFDC2A"/>
<stop offset="0.57" stop-color="#FFDC2A"/>
<stop offset="0.67" stop-color="#FF7558"/>
<stop offset="0.73" stop-color="#FFDC2A"/>
<stop offset="0.76" stop-color="#FFBF37"/>
<stop offset="0.79" stop-color="#FFA443"/>
<stop offset="0.83" stop-color="#FF8F4C"/>
<stop offset="0.87" stop-color="#FF8053"/>
<stop offset="0.92" stop-color="#FF7857"/>
<stop offset="1" stop-color="#FF7558"/>
</linearGradient>
<linearGradient id="paint4_linear_2048_1164" x1="22.105" y1="84.215" x2="22.105" y2="137.68" gradientUnits="userSpaceOnUse">
<stop stop-color="#FFDC2A"/>
<stop offset="0.57" stop-color="#FFDC2A"/>
<stop offset="0.67" stop-color="#FF7558"/>
<stop offset="0.73" stop-color="#FFDC2A"/>
<stop offset="0.76" stop-color="#FFBF37"/>
<stop offset="0.79" stop-color="#FFA443"/>
<stop offset="0.83" stop-color="#FF8F4C"/>
<stop offset="0.87" stop-color="#FF8053"/>
<stop offset="0.92" stop-color="#FF7857"/>
<stop offset="1" stop-color="#FF7558"/>
</linearGradient>
<linearGradient id="paint5_linear_2048_1164" x1="50.9347" y1="12.0933" x2="50.9347" y2="68.3352" gradientUnits="userSpaceOnUse">
<stop stop-color="#FFDC2A"/>
<stop offset="0.57" stop-color="#FFDC2A"/>
<stop offset="0.67" stop-color="#FF7558"/>
<stop offset="0.73" stop-color="#FFDC2A"/>
<stop offset="0.76" stop-color="#FFBF37"/>
<stop offset="0.79" stop-color="#FFA443"/>
<stop offset="0.83" stop-color="#FF8F4C"/>
<stop offset="0.87" stop-color="#FF8053"/>
<stop offset="0.92" stop-color="#FF7857"/>
<stop offset="1" stop-color="#FF7558"/>
</linearGradient>
<linearGradient id="paint6_linear_2048_1164" x1="94.6991" y1="12.0933" x2="94.6991" y2="68.3351" gradientUnits="userSpaceOnUse">
<stop stop-color="#FFDC2A"/>
<stop offset="0.57" stop-color="#FFDC2A"/>
<stop offset="0.67" stop-color="#FF7558"/>
<stop offset="0.73" stop-color="#FFDC2A"/>
<stop offset="0.76" stop-color="#FFBF37"/>
<stop offset="0.79" stop-color="#FFA443"/>
<stop offset="0.83" stop-color="#FF8F4C"/>
<stop offset="0.87" stop-color="#FF8053"/>
<stop offset="0.92" stop-color="#FF7857"/>
<stop offset="1" stop-color="#FF7558"/>
</linearGradient>
<linearGradient id="paint7_linear_2048_1164" x1="130.288" y1="12.0933" x2="130.288" y2="68.3352" gradientUnits="userSpaceOnUse">
<stop stop-color="#FFDC2A"/>
<stop offset="0.57" stop-color="#FFDC2A"/>
<stop offset="0.67" stop-color="#FF7558"/>
<stop offset="0.73" stop-color="#FFDC2A"/>
<stop offset="0.76" stop-color="#FFBF37"/>
<stop offset="0.79" stop-color="#FFA443"/>
<stop offset="0.83" stop-color="#FF8F4C"/>
<stop offset="0.87" stop-color="#FF8053"/>
<stop offset="0.92" stop-color="#FF7857"/>
<stop offset="1" stop-color="#FF7558"/>
</linearGradient>
<linearGradient id="paint8_linear_2048_1164" x1="162.309" y1="12.0933" x2="162.309" y2="68.3351" gradientUnits="userSpaceOnUse">
<stop stop-color="#FFDC2A"/>
<stop offset="0.57" stop-color="#FFDC2A"/>
<stop offset="0.67" stop-color="#FF7558"/>
<stop offset="0.73" stop-color="#FFDC2A"/>
<stop offset="0.76" stop-color="#FFBF37"/>
<stop offset="0.79" stop-color="#FFA443"/>
<stop offset="0.83" stop-color="#FF8F4C"/>
<stop offset="0.87" stop-color="#FF8053"/>
<stop offset="0.92" stop-color="#FF7857"/>
<stop offset="1" stop-color="#FF7558"/>
</linearGradient>
<clipPath id="clip0_2048_1164">
<rect width="206.837" height="173" fill="white"/>
</clipPath>
</defs>
</svg>
