<svg width="66" height="69" viewBox="0 0 66 69" fill="none" xmlns="http://www.w3.org/2000/svg">
<g opacity="0.5" filter="url(#filter0_dddd_510_60725)">
<rect x="20.4976" y="12.9994" width="24.9996" height="39.9993" fill="white"/>
<rect x="10.5002" y="15.5017" width="44.9993" height="34.9994" fill="white"/>
<rect x="12.9941" y="47.9983" width="2.49996" height="4.99992" transform="rotate(-180 12.9941 47.9983)" fill="#B5B5B5"/>
<rect x="15.502" y="53.0007" width="2.49996" height="4.99992" transform="rotate(-180 15.502 53.0007)" fill="#B5B5B5"/>
<rect x="17.9958" y="55.4993" width="2.49996" height="4.99992" transform="rotate(-180 17.9958 55.4993)" fill="#B5B5B5"/>
<rect x="47.9998" y="55.4993" width="2.49996" height="4.99992" transform="rotate(-180 47.9998 55.4993)" fill="#B5B5B5"/>
<rect x="50.5015" y="55.4993" width="2.49996" height="4.99992" transform="rotate(-180 50.5015 55.4993)" fill="#B5B5B5"/>
<rect x="52.9954" y="53.0007" width="2.49996" height="4.99992" transform="rotate(-180 52.9954 53.0007)" fill="#B5B5B5"/>
<rect x="55.4971" y="47.9983" width="2.49996" height="4.99992" transform="rotate(-180 55.4971 47.9983)" fill="#B5B5B5"/>
<rect x="20.4958" y="55.4993" width="2.49996" height="4.99992" transform="rotate(-180 20.4958 55.4993)" fill="#B5B5B5"/>
<rect x="45.4983" y="57.9986" width="24.9996" height="4.99991" transform="rotate(-180 45.4983 57.9986)" fill="#B5B5B5"/>
<rect x="20.4958" y="8" width="24.9996" height="2.49996" fill="#393939"/>
<rect x="15.502" y="10.4993" width="4.99992" height="2.49996" fill="#393939"/>
<rect width="4.99992" height="2.49996" transform="matrix(-1 0 0 1 50.5027 10.4993)" fill="#393939"/>
<rect x="10.5002" y="53.0007" width="4.99992" height="2.49996" transform="rotate(-90 10.5002 53.0007)" fill="#393939"/>
<rect width="4.99992" height="2.49996" transform="matrix(4.37114e-08 -1 -1 -4.37114e-08 55.4971 53.0007)" fill="#393939"/>
<rect x="12.9941" y="12.9994" width="2.49996" height="2.49996" fill="#393939"/>
<rect width="2.49996" height="2.49996" transform="matrix(-1 0 0 1 52.9954 12.9994)" fill="#393939"/>
<rect x="12.9941" y="55.4993" width="2.49996" height="2.49996" transform="rotate(-90 12.9941 55.4993)" fill="#393939"/>
<rect width="2.49996" height="2.49996" transform="matrix(4.37114e-08 -1 -1 -4.37114e-08 52.9939 55.4993)" fill="#393939"/>
<rect x="10.5002" y="15.5017" width="2.49996" height="4.99992" fill="#393939"/>
<rect width="2.49996" height="4.99992" transform="matrix(-1 0 0 1 55.4971 15.5017)" fill="#393939"/>
<rect x="15.502" y="57.9986" width="2.49996" height="4.99992" transform="rotate(-90 15.502 57.9986)" fill="#393939"/>
<rect width="2.49996" height="4.99992" transform="matrix(4.37114e-08 -1 -1 -4.37114e-08 50.5027 57.9986)" fill="#393939"/>
<rect x="20.4976" y="57.9986" width="24.9996" height="2.49996" fill="#393939"/>
<rect x="58.0002" y="20.4997" width="27.4995" height="2.49996" transform="rotate(90 58.0002 20.4997)" fill="#393939"/>
<rect x="10.5002" y="20.4997" width="27.4995" height="2.49996" transform="rotate(90 10.5002 20.4997)" fill="#393939"/>
<rect x="45.4983" y="10.4993" width="2.49996" height="24.9996" transform="rotate(90 45.4983 10.4993)" fill="#E8E8E8"/>
<rect x="20.4976" y="53.0007" width="2.49996" height="24.9996" transform="rotate(-90 20.4976 53.0007)" fill="#E8E8E8"/>
<rect x="20.4976" y="12.9994" width="2.49996" height="4.99992" transform="rotate(90 20.4976 12.9994)" fill="#E8E8E8"/>
<rect x="45.4983" y="50.4984" width="2.49996" height="4.99992" transform="rotate(-90 45.4983 50.4984)" fill="#E8E8E8"/>
<rect x="15.502" y="15.5017" width="2.49996" height="2.49996" transform="rotate(90 15.502 15.5017)" fill="#E8E8E8"/>
<rect x="50.5027" y="47.9983" width="2.49996" height="2.49996" transform="rotate(-90 50.5027 47.9983)" fill="#E8E8E8"/>
<rect x="12.9941" y="20.4997" width="2.49996" height="2.49996" transform="rotate(90 12.9941 20.4997)" fill="#E8E8E8"/>
<rect x="52.9954" y="42.9981" width="2.49996" height="2.49996" transform="rotate(-90 52.9954 42.9981)" fill="#E8E8E8"/>
<rect x="52.9954" y="15.5017" width="2.49996" height="2.49996" transform="rotate(90 52.9954 15.5017)" fill="#E8E8E8"/>
<rect x="12.9941" y="47.9983" width="2.49996" height="2.49996" transform="rotate(-90 12.9941 47.9983)" fill="#E8E8E8"/>
<rect x="55.4971" y="20.4997" width="2.49996" height="2.49996" transform="rotate(90 55.4971 20.4997)" fill="#E8E8E8"/>
<rect x="10.5002" y="42.9981" width="2.49996" height="2.49996" transform="rotate(-90 10.5002 42.9981)" fill="#E8E8E8"/>
<rect x="50.5027" y="12.9994" width="2.49996" height="4.99992" transform="rotate(90 50.5027 12.9994)" fill="#E8E8E8"/>
<rect x="15.502" y="50.4984" width="2.49996" height="4.99992" transform="rotate(-90 15.502 50.4984)" fill="#E8E8E8"/>
<path fill-rule="evenodd" clip-rule="evenodd" d="M22.8792 17.2645H17.2644V46.7423H22.8792V17.2645ZM25.6875 20.0725H22.88V27.091H25.6863V29.8979H28.4937V22.8794H25.6875V20.0725ZM31.3013 25.6871H28.4939V32.7056H31.3013V25.6871ZM31.3016 28.494H34.109V28.4943H34.1098V35.5129H31.3024V35.5126H31.3016V28.494ZM42.532 17.2651H48.1468V46.7429H42.532V17.2651ZM42.5314 20.0727H39.724V22.8797H36.9176V29.8982H39.7251V27.0913H42.5314V20.0727ZM36.9176 25.6874H34.1101V32.7059H36.9176V25.6874Z" fill="#FF7C06"/>
<rect x="21.4763" y="17.2647" width="1.40371" height="2.80742" fill="#FFBD82"/>
<rect x="24.2839" y="20.0724" width="1.40371" height="2.80742" fill="#FFBD82"/>
<rect x="27.0901" y="22.8794" width="1.40371" height="2.80742" fill="#FFBD82"/>
<rect x="29.8977" y="25.6871" width="1.40371" height="2.80742" fill="#FFBD82"/>
<rect x="35.5132" y="29.8979" width="1.40371" height="2.80742" fill="#FFBD82"/>
<rect x="38.3208" y="27.0909" width="1.40371" height="2.80742" fill="#FFBD82"/>
<rect x="46.7424" y="17.2647" width="1.40371" height="29.4779" fill="#FFBD82"/>
<rect x="21.4763" y="27.0909" width="1.40371" height="19.6519" fill="#FFBD82"/>
</g>
<defs>
<filter id="filter0_dddd_510_60725" x="0.000244141" y="0" width="66" height="68.4985" filterUnits="userSpaceOnUse" color-interpolation-filters="sRGB">
<feFlood flood-opacity="0" result="BackgroundImageFix"/>
<feColorMatrix in="SourceAlpha" type="matrix" values="0 0 0 0 0 0 0 0 0 0 0 0 0 0 0 0 0 0 127 0" result="hardAlpha"/>
<feOffset dy="4"/>
<feGaussianBlur stdDeviation="2"/>
<feComposite in2="hardAlpha" operator="out"/>
<feColorMatrix type="matrix" values="0 0 0 0 1 0 0 0 0 0.517647 0 0 0 0 0.14902 0 0 0 1 0"/>
<feBlend mode="normal" in2="BackgroundImageFix" result="effect1_dropShadow_510_60725"/>
<feColorMatrix in="SourceAlpha" type="matrix" values="0 0 0 0 0 0 0 0 0 0 0 0 0 0 0 0 0 0 127 0" result="hardAlpha"/>
<feOffset dy="-4"/>
<feGaussianBlur stdDeviation="2"/>
<feComposite in2="hardAlpha" operator="out"/>
<feColorMatrix type="matrix" values="0 0 0 0 1 0 0 0 0 0.517647 0 0 0 0 0.14902 0 0 0 1 0"/>
<feBlend mode="normal" in2="effect1_dropShadow_510_60725" result="effect2_dropShadow_510_60725"/>
<feColorMatrix in="SourceAlpha" type="matrix" values="0 0 0 0 0 0 0 0 0 0 0 0 0 0 0 0 0 0 127 0" result="hardAlpha"/>
<feOffset dx="4" dy="4"/>
<feGaussianBlur stdDeviation="2"/>
<feComposite in2="hardAlpha" operator="out"/>
<feColorMatrix type="matrix" values="0 0 0 0 1 0 0 0 0 0.517647 0 0 0 0 0.14902 0 0 0 1 0"/>
<feBlend mode="normal" in2="effect2_dropShadow_510_60725" result="effect3_dropShadow_510_60725"/>
<feColorMatrix in="SourceAlpha" type="matrix" values="0 0 0 0 0 0 0 0 0 0 0 0 0 0 0 0 0 0 127 0" result="hardAlpha"/>
<feOffset dx="-4" dy="4"/>
<feGaussianBlur stdDeviation="2"/>
<feComposite in2="hardAlpha" operator="out"/>
<feColorMatrix type="matrix" values="0 0 0 0 1 0 0 0 0 0.517647 0 0 0 0 0.14902 0 0 0 1 0"/>
<feBlend mode="normal" in2="effect3_dropShadow_510_60725" result="effect4_dropShadow_510_60725"/>
<feBlend mode="normal" in="SourceGraphic" in2="effect4_dropShadow_510_60725" result="shape"/>
</filter>
</defs>
</svg>
