<svg width="372" height="83" viewBox="0 0 372 83" fill="none" xmlns="http://www.w3.org/2000/svg">
<rect x="4.17993" y="23.885" width="363.658" height="50.3403" fill="white"/>
<rect x="363.638" y="74.2261" width="4.17998" height="2.7211" fill="black"/>
<rect width="4.17998" height="2.7211" transform="matrix(-1 0 0 1 8.3623 74.2261)" fill="black"/>
<rect width="4.17998" height="2.7211" transform="matrix(-1 0 0 1 8.3623 71.5029)" fill="#5A5A5A"/>
<rect width="4.17998" height="2.7211" transform="matrix(-1 0 0 1 8.3623 68.7812)" fill="#AFAFAF"/>
<rect width="4.17998" height="2.7211" transform="matrix(-1 0 0 1 363.638 74.2261)" fill="#5A5A5A"/>
<rect width="4.17998" height="2.7211" transform="matrix(-1 0 0 1 367.82 71.5029)" fill="#5A5A5A"/>
<rect width="4.17998" height="2.7211" transform="matrix(-1 0 0 1 363.638 71.5029)" fill="#AFAFAF"/>
<rect width="4.17998" height="2.7211" transform="matrix(-1 0 0 1 367.82 68.7812)" fill="#AFAFAF"/>
<rect width="4.17998" height="2.7211" transform="matrix(-1 0 0 1 12.531 74.2261)" fill="#5A5A5A"/>
<rect width="4.17998" height="2.7211" transform="matrix(-1 0 0 1 12.531 71.5029)" fill="#AFAFAF"/>
<rect width="346.938" height="2.7211" transform="matrix(-1 0 0 1 359.469 76.9468)" fill="#5A5A5A"/>
<rect width="346.938" height="2.7211" transform="matrix(-1 0 0 1 359.469 74.2261)" fill="#AFAFAF"/>
<rect x="363.638" y="21.1636" width="4.17998" height="2.7211" fill="black"/>
<rect width="4.17998" height="2.7211" transform="matrix(-1 0 0 1 8.3623 21.1636)" fill="black"/>
<rect x="359.469" y="76.9468" width="4.17998" height="2.7211" fill="black"/>
<rect width="4.17998" height="2.7211" transform="matrix(-1 0 0 1 12.531 76.9468)" fill="black"/>
<rect x="12.531" y="79.668" width="346.938" height="2.7211" fill="black"/>
<rect x="367.82" y="23.885" width="4.17998" height="50.3403" fill="black"/>
<rect width="4.17998" height="50.3403" transform="matrix(-1 0 0 1 4.17993 23.885)" fill="black"/>
<path fill-rule="evenodd" clip-rule="evenodd" d="M355.309 0.755127L16.731 0.755127V3.47623L355.309 3.47623V0.755127ZM16.7291 3.47636H12.5491V6.19746L16.7291 6.19746V3.47636ZM359.479 3.47636L355.299 3.47636V6.19746H359.479V3.47636ZM359.479 64.7016H355.299V67.4219L16.731 67.4219V70.143L355.309 70.143V67.4227H359.479V64.7016ZM359.481 6.19702L363.661 6.19702V64.7006H359.481V6.19702ZM8.36694 6.19702H12.5469L12.5469 64.7006H8.36694L8.36694 6.19702ZM12.5491 64.7016H16.7291V67.4227H12.5491V64.7016Z" fill="black"/>
<path fill-rule="evenodd" clip-rule="evenodd" d="M355.288 3.47632L16.7098 3.47632V6.19785H12.5278L12.5278 63.3409L359.466 63.3409V6.19785H355.288V3.47632Z" fill="#FB38FF"/>
<rect x="12.531" y="6.19751" width="4.17998" height="2.7211" fill="#FECDFF"/>
<rect x="359.469" y="6.19751" width="2.7211" height="4.17998" transform="rotate(90 359.469 6.19751)" fill="#FECDFF"/>
<rect x="359.469" y="56.5391" width="4.17998" height="2.7211" transform="rotate(-180 359.469 56.5391)" fill="#FECDFF"/>
<rect x="12.531" y="56.5391" width="2.7211" height="4.17998" transform="rotate(-90 12.531 56.5391)" fill="#FECDFF"/>
<rect x="12.531" y="64.7021" width="8.1633" height="4.17997" transform="rotate(-90 12.531 64.7021)" fill="#54004C"/>
<rect x="16.7129" y="6.19751" width="4.17998" height="2.7211" fill="#B800A5"/>
<rect x="359.469" y="8.9187" width="2.7211" height="4.17998" transform="rotate(90 359.469 8.9187)" fill="#B800A5"/>
<rect x="355.287" y="56.5391" width="4.17998" height="2.7211" transform="rotate(-180 355.287 56.5391)" fill="#B800A5"/>
<rect x="12.531" y="53.8176" width="2.7211" height="4.17998" transform="rotate(-90 12.531 53.8176)" fill="#B800A5"/>
<rect x="12.531" y="8.9187" width="4.17998" height="2.7211" fill="#B800A5"/>
<rect x="355.287" y="6.19751" width="2.7211" height="4.17998" transform="rotate(90 355.287 6.19751)" fill="#B800A5"/>
<rect x="359.469" y="53.8176" width="4.17998" height="2.7211" transform="rotate(-180 359.469 53.8176)" fill="#B800A5"/>
<rect x="16.7129" y="56.5391" width="2.7211" height="4.17998" transform="rotate(-90 16.7129 56.5391)" fill="#B800A5"/>
<rect x="359.469" y="64.7021" width="4.17998" height="8.1633" transform="rotate(-180 359.469 64.7021)" fill="#54004C"/>
<rect x="355.287" y="67.4224" width="338.578" height="8.16328" transform="rotate(-180 355.287 67.4224)" fill="#54004C"/>
<rect x="16.7129" y="3.47607" width="338.578" height="2.7211" fill="#FECDFF"/>
<rect x="16.7129" y="56.5391" width="338.578" height="2.7211" fill="#FECDFF"/>
<rect x="33.4343" y="67.4224" width="8.1633" height="8.35995" transform="rotate(-90 33.4343 67.4224)" fill="#D14FFF"/>
<rect width="8.1633" height="8.35995" transform="matrix(-2.0144e-07 -1 -1 8.53663e-08 330.201 67.4224)" fill="#D14FFF"/>
<rect x="43.8762" y="67.4224" width="8.1633" height="6.26996" transform="rotate(-90 43.8762 67.4224)" fill="#D14FFF"/>
<rect width="8.1633" height="6.26996" transform="matrix(-2.0144e-07 -1 -1 8.53663e-08 319.753 67.4224)" fill="#D14FFF"/>
<rect x="52.2473" y="67.4224" width="8.1633" height="4.17997" transform="rotate(-90 52.2473 67.4224)" fill="#D14FFF"/>
<rect width="8.1633" height="4.17997" transform="matrix(-2.0144e-07 -1 -1 8.53663e-08 311.402 67.4224)" fill="#D14FFF"/>
<rect x="58.52" y="67.4224" width="8.1633" height="2.08999" transform="rotate(-90 58.52 67.4224)" fill="#D14FFF"/>
<rect width="8.1633" height="2.08999" transform="matrix(-2.0144e-07 -1 -1 8.53663e-08 305.129 67.4224)" fill="#D14FFF"/>
</svg>
