<svg width="39" height="40" viewBox="0 0 39 40" fill="none" xmlns="http://www.w3.org/2000/svg">
<g opacity="0.7">
<rect x="9.52344" y="3.80859" width="19.0478" height="30.4764" fill="white"/>
<rect x="1.90625" y="5.71582" width="34.286" height="26.6669" fill="white"/>
<rect x="3.80469" y="30.4756" width="1.90478" height="3.80955" transform="rotate(-180 3.80469 30.4756)" fill="#B5B5B5"/>
<rect x="5.71484" y="34.2871" width="1.90478" height="3.80955" transform="rotate(-180 5.71484 34.2871)" fill="#B5B5B5"/>
<rect x="7.61719" y="36.1914" width="1.90478" height="3.80955" transform="rotate(-180 7.61719 36.1914)" fill="#B5B5B5"/>
<rect x="30.4766" y="36.1904" width="1.90478" height="3.80955" transform="rotate(-180 30.4766 36.1904)" fill="#B5B5B5"/>
<rect x="32.3828" y="36.1904" width="1.90478" height="3.80955" transform="rotate(-180 32.3828 36.1904)" fill="#B5B5B5"/>
<rect x="34.2852" y="34.2871" width="1.90478" height="3.80955" transform="rotate(-180 34.2852 34.2871)" fill="#B5B5B5"/>
<rect x="36.1914" y="30.4756" width="1.90478" height="3.80955" transform="rotate(-180 36.1914 30.4756)" fill="#B5B5B5"/>
<rect x="9.52344" y="36.1914" width="1.90478" height="3.80955" transform="rotate(-180 9.52344 36.1914)" fill="#B5B5B5"/>
<rect x="28.5703" y="38.0957" width="19.0478" height="3.80955" transform="rotate(-180 28.5703 38.0957)" fill="#B5B5B5"/>
<rect x="9.52344" width="19.0478" height="1.90478" fill="#393939"/>
<rect x="5.71484" y="1.9043" width="3.80956" height="1.90478" fill="#393939"/>
<rect width="3.80956" height="1.90478" transform="matrix(-1 0 0 1 32.3867 1.9043)" fill="#393939"/>
<rect x="1.90625" y="34.2871" width="3.80956" height="1.90478" transform="rotate(-90 1.90625 34.2871)" fill="#393939"/>
<rect width="3.80956" height="1.90478" transform="matrix(4.37114e-08 -1 -1 -4.37114e-08 36.1914 34.2871)" fill="#393939"/>
<rect x="3.80469" y="3.80859" width="1.90478" height="1.90478" fill="#393939"/>
<rect width="1.90478" height="1.90478" transform="matrix(-1 0 0 1 34.2852 3.80957)" fill="#393939"/>
<rect x="3.80469" y="36.1914" width="1.90478" height="1.90478" transform="rotate(-90 3.80469 36.1914)" fill="#393939"/>
<rect width="1.90478" height="1.90478" transform="matrix(4.37114e-08 -1 -1 -4.37114e-08 34.2812 36.1914)" fill="#393939"/>
<rect x="1.90625" y="5.71582" width="1.90478" height="3.80956" fill="#393939"/>
<rect width="1.90478" height="3.80956" transform="matrix(-1 0 0 1 36.1914 5.71582)" fill="#393939"/>
<rect x="5.71484" y="38.0957" width="1.90478" height="3.80956" transform="rotate(-90 5.71484 38.0957)" fill="#393939"/>
<rect width="1.90478" height="3.80956" transform="matrix(4.37114e-08 -1 -1 -4.37114e-08 32.3867 38.0957)" fill="#393939"/>
<rect x="9.52344" y="38.0957" width="19.0478" height="1.90478" fill="#393939"/>
<rect x="38.0977" y="9.52344" width="20.9526" height="1.90478" transform="rotate(90 38.0977 9.52344)" fill="#393939"/>
<rect x="1.90625" y="9.52344" width="20.9526" height="1.90478" transform="rotate(90 1.90625 9.52344)" fill="#393939"/>
<rect x="28.5703" y="1.9043" width="1.90478" height="19.0478" transform="rotate(90 28.5703 1.9043)" fill="#E8E8E8"/>
<rect x="9.52344" y="34.2871" width="1.90478" height="19.0478" transform="rotate(-90 9.52344 34.2871)" fill="#E8E8E8"/>
<rect x="9.52344" y="3.80859" width="1.90478" height="3.80956" transform="rotate(90 9.52344 3.80859)" fill="#E8E8E8"/>
<rect x="28.5703" y="32.3809" width="1.90478" height="3.80956" transform="rotate(-90 28.5703 32.3809)" fill="#E8E8E8"/>
<rect x="5.71484" y="5.71582" width="1.90478" height="1.90478" transform="rotate(90 5.71484 5.71582)" fill="#E8E8E8"/>
<rect x="32.3867" y="30.4756" width="1.90478" height="1.90478" transform="rotate(-90 32.3867 30.4756)" fill="#E8E8E8"/>
<rect x="3.80469" y="9.52344" width="1.90478" height="1.90478" transform="rotate(90 3.80469 9.52344)" fill="#E8E8E8"/>
<rect x="34.2852" y="26.666" width="1.90478" height="1.90478" transform="rotate(-90 34.2852 26.666)" fill="#E8E8E8"/>
<rect x="34.2852" y="5.71582" width="1.90478" height="1.90478" transform="rotate(90 34.2852 5.71582)" fill="#E8E8E8"/>
<rect x="3.80469" y="30.4756" width="1.90478" height="1.90478" transform="rotate(-90 3.80469 30.4756)" fill="#E8E8E8"/>
<rect x="36.1914" y="9.52344" width="1.90478" height="1.90478" transform="rotate(90 36.1914 9.52344)" fill="#E8E8E8"/>
<rect x="1.90625" y="26.666" width="1.90478" height="1.90478" transform="rotate(-90 1.90625 26.666)" fill="#E8E8E8"/>
<rect x="32.3867" y="3.80859" width="1.90478" height="3.80956" transform="rotate(90 32.3867 3.80859)" fill="#E8E8E8"/>
<rect x="5.71484" y="32.3809" width="1.90478" height="3.80956" transform="rotate(-90 5.71484 32.3809)" fill="#E8E8E8"/>
<path fill-rule="evenodd" clip-rule="evenodd" d="M11.3367 7.05859H7.05859V29.5185H11.3367V7.05859ZM13.4769 9.19824H11.3379V14.5458H13.4746V16.6845H15.6136V11.3369H13.4769V9.19824ZM17.7543 13.4761H15.6152V18.8237H17.7538V20.9625H19.8928V20.9623H19.8929V18.8237H22.0312V13.4761H19.8922V15.6147H17.7543V13.4761ZM26.3098 7.05908H30.5879V29.519H26.3098V7.05908ZM26.3086 9.19824H24.1696V11.3369H22.0328V16.6845H24.1719V14.5458H26.3086V9.19824Z" fill="#FF7C06"/>
<rect x="10.2695" y="7.05859" width="1.06952" height="2.13904" fill="#FFBD82"/>
<rect x="12.4062" y="9.19824" width="1.06952" height="2.13904" fill="#FFBD82"/>
<rect x="14.5469" y="11.3369" width="1.06952" height="2.13904" fill="#FFBD82"/>
<rect x="16.6836" y="13.4766" width="1.06952" height="2.13904" fill="#FFBD82"/>
<rect x="20.9609" y="16.6846" width="1.06952" height="2.13904" fill="#FFBD82"/>
<rect x="23.1016" y="14.5449" width="1.06952" height="2.13904" fill="#FFBD82"/>
<rect x="29.5195" y="7.05859" width="1.06952" height="22.4599" fill="#FFBD82"/>
<rect x="10.2695" y="14.5459" width="1.06952" height="14.9733" fill="#FFBD82"/>
</g>
</svg>
