<svg width="39" height="40" viewBox="0 0 39 40" fill="none" xmlns="http://www.w3.org/2000/svg">
<g opacity="0.7">
<rect x="9.52344" y="3.80859" width="19.0478" height="30.4765" fill="white"/>
<rect x="1.90625" y="5.71582" width="34.286" height="26.6669" fill="white"/>
<rect x="3.80469" y="30.4756" width="1.90478" height="3.80956" transform="rotate(-180 3.80469 30.4756)" fill="#B5B5B5"/>
<rect x="5.71484" y="34.2871" width="1.90478" height="3.80956" transform="rotate(-180 5.71484 34.2871)" fill="#B5B5B5"/>
<rect x="7.61719" y="36.1914" width="1.90478" height="3.80956" transform="rotate(-180 7.61719 36.1914)" fill="#B5B5B5"/>
<rect x="30.4766" y="36.1914" width="1.90478" height="3.80956" transform="rotate(-180 30.4766 36.1914)" fill="#B5B5B5"/>
<rect x="32.3828" y="36.1914" width="1.90478" height="3.80956" transform="rotate(-180 32.3828 36.1914)" fill="#B5B5B5"/>
<rect x="34.2852" y="34.2871" width="1.90478" height="3.80956" transform="rotate(-180 34.2852 34.2871)" fill="#B5B5B5"/>
<rect x="36.1914" y="30.4756" width="1.90478" height="3.80956" transform="rotate(-180 36.1914 30.4756)" fill="#B5B5B5"/>
<rect x="9.51953" y="36.1914" width="1.90478" height="3.80956" transform="rotate(-180 9.51953 36.1914)" fill="#B5B5B5"/>
<rect x="28.5703" y="38.0957" width="19.0478" height="3.80956" transform="rotate(-180 28.5703 38.0957)" fill="#B5B5B5"/>
<rect x="9.51953" width="19.0478" height="1.90478" fill="#393939"/>
<rect x="5.71484" y="1.9043" width="3.80956" height="1.90478" fill="#393939"/>
<rect width="3.80956" height="1.90478" transform="matrix(-1 0 0 1 32.3828 1.9043)" fill="#393939"/>
<rect x="1.90625" y="34.2871" width="3.80956" height="1.90478" transform="rotate(-90 1.90625 34.2871)" fill="#393939"/>
<rect width="3.80956" height="1.90478" transform="matrix(4.37114e-08 -1 -1 -4.37114e-08 36.1914 34.2871)" fill="#393939"/>
<rect x="3.80469" y="3.80859" width="1.90478" height="1.90478" fill="#393939"/>
<rect width="1.90478" height="1.90478" transform="matrix(-1 0 0 1 34.2852 3.80859)" fill="#393939"/>
<rect x="3.80469" y="36.1914" width="1.90478" height="1.90478" transform="rotate(-90 3.80469 36.1914)" fill="#393939"/>
<rect width="1.90478" height="1.90478" transform="matrix(4.37114e-08 -1 -1 -4.37114e-08 34.2812 36.1914)" fill="#393939"/>
<rect x="1.90625" y="5.71582" width="1.90478" height="3.80956" fill="#393939"/>
<rect width="1.90478" height="3.80956" transform="matrix(-1 0 0 1 36.1914 5.71582)" fill="#393939"/>
<rect x="5.71484" y="38.0957" width="1.90478" height="3.80956" transform="rotate(-90 5.71484 38.0957)" fill="#393939"/>
<rect width="1.90478" height="3.80956" transform="matrix(4.37114e-08 -1 -1 -4.37114e-08 32.3828 38.0957)" fill="#393939"/>
<rect x="9.52344" y="38.0957" width="19.0478" height="1.90478" fill="#393939"/>
<rect x="38.0977" y="9.52344" width="20.9526" height="1.90478" transform="rotate(90 38.0977 9.52344)" fill="#393939"/>
<rect x="1.90625" y="9.52344" width="20.9526" height="1.90478" transform="rotate(90 1.90625 9.52344)" fill="#393939"/>
<rect x="28.5703" y="1.9043" width="1.90478" height="19.0478" transform="rotate(90 28.5703 1.9043)" fill="#E8E8E8"/>
<rect x="9.52344" y="34.2871" width="1.90478" height="19.0478" transform="rotate(-90 9.52344 34.2871)" fill="#E8E8E8"/>
<rect x="9.52344" y="3.80859" width="1.90478" height="3.80956" transform="rotate(90 9.52344 3.80859)" fill="#E8E8E8"/>
<rect x="28.5703" y="32.3809" width="1.90478" height="3.80956" transform="rotate(-90 28.5703 32.3809)" fill="#E8E8E8"/>
<rect x="5.71484" y="5.71582" width="1.90478" height="1.90478" transform="rotate(90 5.71484 5.71582)" fill="#E8E8E8"/>
<rect x="32.3828" y="30.4756" width="1.90478" height="1.90478" transform="rotate(-90 32.3828 30.4756)" fill="#E8E8E8"/>
<rect x="3.80469" y="9.52344" width="1.90478" height="1.90478" transform="rotate(90 3.80469 9.52344)" fill="#E8E8E8"/>
<rect x="34.2852" y="26.666" width="1.90478" height="1.90478" transform="rotate(-90 34.2852 26.666)" fill="#E8E8E8"/>
<rect x="34.2852" y="5.71582" width="1.90478" height="1.90478" transform="rotate(90 34.2852 5.71582)" fill="#E8E8E8"/>
<rect x="3.80469" y="30.4756" width="1.90478" height="1.90478" transform="rotate(-90 3.80469 30.4756)" fill="#E8E8E8"/>
<rect x="36.1914" y="9.52344" width="1.90478" height="1.90478" transform="rotate(90 36.1914 9.52344)" fill="#E8E8E8"/>
<rect x="1.90625" y="26.666" width="1.90478" height="1.90478" transform="rotate(-90 1.90625 26.666)" fill="#E8E8E8"/>
<rect x="32.3828" y="3.80859" width="1.90478" height="3.80956" transform="rotate(90 32.3828 3.80859)" fill="#E8E8E8"/>
<rect x="5.71484" y="32.3809" width="1.90478" height="3.80956" transform="rotate(-90 5.71484 32.3809)" fill="#E8E8E8"/>
<path fill-rule="evenodd" clip-rule="evenodd" d="M26 5H11V8H8V9V11V15H14V11H20V17H14V23H23V20H26V17H29V11V8H26V5ZM14 26H23V32H14V26Z" fill="#FF7C06"/>
<rect x="13" y="11" width="1" height="4" fill="#FFBD82"/>
<rect x="25" y="5" width="1" height="3" fill="#FFBD82"/>
<rect x="25" y="17" width="1" height="3" fill="#FFBD82"/>
<rect x="22" y="26" width="1" height="6" fill="#FFBD82"/>
<rect x="28" y="8" width="1" height="9" fill="#FFBD82"/>
<rect x="22" y="20" width="1" height="3" fill="#FFBD82"/>
</g>
</svg>
