<svg width="9" height="9" viewBox="0 0 9 9" fill="none" xmlns="http://www.w3.org/2000/svg">
<path d="M2.68785 0.666016H1.83984V1.51403H2.68785V0.666016Z" fill="#16171A"/>
<path d="M3.54332 0.666016H2.69531V1.51403H3.54332V0.666016Z" fill="#16171A"/>
<path d="M6.08629 0.666016H5.23828V1.51403H6.08629V0.666016Z" fill="#16171A"/>
<path d="M6.93395 0.666016H6.08594V1.51403H6.93395V0.666016Z" fill="#16171A"/>
<path d="M1.8441 1.51367H0.996094V2.36168H1.8441V1.51367Z" fill="#16171A"/>
<path d="M2.68785 1.51367H1.83984V2.36168H2.68785V1.51367Z" fill="#FAFDFF"/>
<path d="M3.54332 1.51367H2.69531V2.36168H3.54332V1.51367Z" fill="#FAFDFF"/>
<path d="M4.38707 1.51367H3.53906V2.36168H4.38707V1.51367Z" fill="#16171A"/>
<path d="M5.24254 1.51367H4.39453V2.36168H5.24254V1.51367Z" fill="#16171A"/>
<path d="M6.08629 1.51367H5.23828V2.36168H6.08629V1.51367Z" fill="#FAFDFF"/>
<path d="M6.93395 1.51367H6.08594V2.36168H6.93395V1.51367Z" fill="#FAFDFF"/>
<path d="M7.77379 1.51367H6.92578V2.36168H7.77379V1.51367Z" fill="#16171A"/>
<path d="M0.996447 2.36035H0.148438V3.20836H0.996447V2.36035Z" fill="#16171A"/>
<path d="M1.8441 2.36035H0.996094V3.20836H1.8441V2.36035Z" fill="#FAFDFF"/>
<path d="M2.68785 2.36035H1.83984V3.20836H2.68785V2.36035Z" fill="#FF6969"/>
<path d="M3.54332 2.36035H2.69531V3.20836H3.54332V2.36035Z" fill="#FF6969"/>
<path d="M4.38707 2.36035H3.53906V3.20836H4.38707V2.36035Z" fill="#FAFDFF"/>
<path d="M5.24254 2.36035H4.39453V3.20836H5.24254V2.36035Z" fill="#FAFDFF"/>
<path d="M6.08629 2.36035H5.23828V3.20836H6.08629V2.36035Z" fill="#FF6969"/>
<path d="M6.93395 2.36035H6.08594V3.20836H6.93395V2.36035Z" fill="#FF6969"/>
<path d="M7.77379 2.36035H6.92578V3.20836H7.77379V2.36035Z" fill="#FF2626"/>
<path d="M8.62535 2.36035H7.77734V3.20836H8.62535V2.36035Z" fill="#16171A"/>
<path d="M0.996447 3.20996H0.148438V4.05797H0.996447V3.20996Z" fill="#16171A"/>
<path d="M1.8441 3.20996H0.996094V4.05797H1.8441V3.20996Z" fill="#FAFDFF"/>
<path d="M2.68785 3.20996H1.83984V4.05797H2.68785V3.20996Z" fill="#FF6969"/>
<path d="M3.54332 3.20996H2.69531V4.05797H3.54332V3.20996Z" fill="#FF6969"/>
<path d="M4.38707 3.20996H3.53906V4.05797H4.38707V3.20996Z" fill="#FF6969"/>
<path d="M5.24254 3.20996H4.39453V4.05797H5.24254V3.20996Z" fill="#FF6969"/>
<path d="M6.08629 3.20996H5.23828V4.05797H6.08629V3.20996Z" fill="#FF6969"/>
<path d="M6.93395 3.20996H6.08594V4.05797H6.93395V3.20996Z" fill="#FF6969"/>
<path d="M7.77379 3.20996H6.92578V4.05797H7.77379V3.20996Z" fill="#FF2626"/>
<path d="M8.62535 3.20996H7.77734V4.05797H8.62535V3.20996Z" fill="#16171A"/>
<path d="M0.996447 4.05762H0.148438V4.90563H0.996447V4.05762Z" fill="#16171A"/>
<path d="M1.8441 4.05762H0.996094V4.90563H1.8441V4.05762Z" fill="#FAFDFF"/>
<path d="M2.68785 4.05762H1.83984V4.90563H2.68785V4.05762Z" fill="#FF6969"/>
<path d="M3.54332 4.05762H2.69531V4.90563H3.54332V4.05762Z" fill="#FF6969"/>
<path d="M4.38707 4.05762H3.53906V4.90563H4.38707V4.05762Z" fill="#FF6969"/>
<path d="M5.24254 4.05762H4.39453V4.90563H5.24254V4.05762Z" fill="#FF6969"/>
<path d="M6.08629 4.05762H5.23828V4.90563H6.08629V4.05762Z" fill="#FF6969"/>
<path d="M6.93395 4.05762H6.08594V4.90563H6.93395V4.05762Z" fill="#FF6969"/>
<path d="M7.77379 4.05762H6.92578V4.90563H7.77379V4.05762Z" fill="#FF2626"/>
<path d="M8.62535 4.05762H7.77734V4.90563H8.62535V4.05762Z" fill="#16171A"/>
<path d="M1.8441 4.90625H0.996094V5.75426H1.8441V4.90625Z" fill="#16171A"/>
<path d="M2.68785 4.90625H1.83984V5.75426H2.68785V4.90625Z" fill="#FF2626"/>
<path d="M3.54332 4.90625H2.69531V5.75426H3.54332V4.90625Z" fill="#FF6969"/>
<path d="M4.38707 4.90625H3.53906V5.75426H4.38707V4.90625Z" fill="#FF6969"/>
<path d="M5.24254 4.90625H4.39453V5.75426H5.24254V4.90625Z" fill="#FF6969"/>
<path d="M6.08629 4.90625H5.23828V5.75426H6.08629V4.90625Z" fill="#FF6969"/>
<path d="M6.93395 4.90625H6.08594V5.75426H6.93395V4.90625Z" fill="#FF2626"/>
<path d="M7.77379 4.90625H6.92578V5.75426H7.77379V4.90625Z" fill="#16171A"/>
<path d="M2.68785 5.75391H1.83984V6.60192H2.68785V5.75391Z" fill="#16171A"/>
<path d="M3.54332 5.75391H2.69531V6.60192H3.54332V5.75391Z" fill="#FF2626"/>
<path d="M4.38707 5.75391H3.53906V6.60192H4.38707V5.75391Z" fill="#FF6969"/>
<path d="M5.24254 5.75391H4.39453V6.60192H5.24254V5.75391Z" fill="#FF6969"/>
<path d="M6.08629 5.75391H5.23828V6.60192H6.08629V5.75391Z" fill="#FF2626"/>
<path d="M6.93395 5.75391H6.08594V6.60192H6.93395V5.75391Z" fill="#16171A"/>
<path d="M3.54332 6.60156H2.69531V7.44957H3.54332V6.60156Z" fill="#16171A"/>
<path d="M4.38707 6.60156H3.53906V7.44957H4.38707V6.60156Z" fill="#FF2626"/>
<path d="M5.24254 6.60156H4.39453V7.44957H5.24254V6.60156Z" fill="#FF2626"/>
<path d="M6.08629 6.60156H5.23828V7.44957H6.08629V6.60156Z" fill="#16171A"/>
<path d="M4.38707 7.44922H3.53906V8.29723H4.38707V7.44922Z" fill="#16171A"/>
<path d="M5.24254 7.44922H4.39453V8.29723H5.24254V7.44922Z" fill="#16171A"/>
</svg>
