<svg width="224" height="143" viewBox="0 0 224 143" fill="none" xmlns="http://www.w3.org/2000/svg">
<path d="M157.553 105.484L156.846 106.191L157.553 106.898L171.697 121.042L172.404 121.749L173.111 121.042L199.63 94.5226L200.337 93.8155L199.63 93.1084L198.569 92.0476L205.818 84.7989L206.525 84.0918L205.818 83.3847L202.105 79.672L205.818 75.9592L206.525 75.2521L205.818 74.545L200.337 69.0643L205.818 63.5836L206.525 62.8765L205.818 62.1694L184.426 40.7771L189.906 35.2964L190.613 34.5893L189.906 33.8822L186.37 30.3463L185.663 29.6392L184.956 30.3463L183.011 32.2911L180.183 29.4624L179.475 28.7553L178.768 29.4624L175.94 32.2911L173.111 29.4624L172.404 28.7553L171.697 29.4624L169.752 31.4072L166.923 28.5784L166.216 27.8713L165.509 28.5784L163.564 30.5232L160.735 27.6944L160.028 26.9873L159.321 27.6944L154.901 32.1143L154.194 32.8214L154.901 33.5285L157.73 36.3573L155.785 38.3021L155.078 39.0092L155.785 39.7163L158.614 42.5451L156.669 44.4899L155.962 45.197L156.669 45.9041L159.498 48.7329L156.669 51.5617L155.962 52.2688L156.669 52.9759L159.498 55.8047L157.553 57.7495L156.846 58.4566L157.553 59.1637L161.089 62.6996L161.796 63.4067L162.503 62.6996L168.868 56.3349L181.597 69.0643L176.116 74.545L175.409 75.2521L176.116 75.9592L179.829 79.672L176.116 83.3847L175.409 84.0918L176.116 84.7989L177.177 85.8598L157.553 105.484Z" fill="#FFE0AC" stroke="#FF8426" stroke-width="2"/>
<rect x="198.923" y="93.8155" width="37.5038" height="2.50025" transform="rotate(135 198.923 93.8155)" fill="#FFC088"/>
<rect x="180.359" y="87.6277" width="28.7529" height="2.50025" transform="rotate(135 180.359 87.6277)" fill="#FFC088"/>
<rect x="205.111" y="84.0918" width="11.2511" height="2.50025" transform="rotate(135 205.111 84.0918)" fill="#FFC088"/>
<rect x="205.111" y="62.8761" width="8.75089" height="2.50025" transform="rotate(135 205.111 62.8761)" fill="#FFC088"/>
<rect x="205.111" y="75.2518" width="6.25063" height="2.50025" transform="rotate(135 205.111 75.2518)" fill="#FFC088"/>
<rect x="183.011" y="81.4398" width="6.25063" height="2.50025" transform="rotate(135 183.011 81.4398)" fill="#FFC088"/>
<rect x="184.779" y="70.8322" width="8.75089" height="2.50025" transform="rotate(135 184.779 70.8322)" fill="#FFC088"/>
<rect x="187.431" y="32.8214" width="3.75038" height="2.50025" transform="rotate(135 187.431 32.8214)" fill="#FFC088"/>
<rect x="181.243" y="31.9372" width="5.00051" height="2.50025" transform="rotate(135 181.243 31.9372)" fill="#FFC088"/>
<rect x="167.984" y="31.0532" width="3.75038" height="2.50025" transform="rotate(135 167.984 31.0532)" fill="#FFC088"/>
<rect x="174.172" y="31.9371" width="3.75038" height="2.50025" transform="rotate(135 174.172 31.9371)" fill="#FFC088"/>
<rect x="160.912" y="38.1253" width="3.75038" height="2.50025" transform="rotate(135 160.912 38.1253)" fill="#FFC088"/>
<rect x="161.796" y="30.169" width="6.25063" height="2.50025" transform="rotate(135 161.796 30.169)" fill="#FFC088"/>
<rect x="161.796" y="44.3131" width="3.75038" height="2.50025" transform="rotate(135 161.796 44.3131)" fill="#FFC088"/>
<rect x="162.68" y="50.501" width="5.00051" height="2.50025" transform="rotate(135 162.68 50.501)" fill="#FFC088"/>
<rect x="162.68" y="57.5726" width="3.75038" height="2.50025" transform="rotate(135 162.68 57.5726)" fill="#FFC088"/>
<path d="M66.447 35.7244L67.1542 35.0173L66.447 34.3102L52.3035 20.1666L51.5964 19.4595L50.8893 20.1666L24.3701 46.6858L23.663 47.3929L24.3701 48.1L25.4309 49.1608L18.1823 56.4095L17.4752 57.1166L18.1823 57.8237L21.895 61.5365L18.1823 65.2492L17.4752 65.9563L18.1823 66.6634L23.663 72.1441L18.1823 77.6248L17.4751 78.3319L18.1823 79.0391L39.5745 100.431L34.0938 105.912L33.3867 106.619L34.0938 107.326L37.6297 110.862L38.3368 111.569L39.0439 110.862L40.9887 108.917L43.8175 111.746L44.5246 112.453L45.2317 111.746L48.0605 108.917L50.8893 111.746L51.5964 112.453L52.3035 111.746L54.2483 109.801L57.0771 112.63L57.7842 113.337L58.4913 112.63L60.4361 110.685L63.2649 113.514L63.972 114.221L64.6791 113.514L69.099 109.094L69.8061 108.387L69.099 107.68L66.2702 104.851L68.215 102.906L68.9221 102.199L68.215 101.492L65.3862 98.6633L67.331 96.7185L68.0381 96.0114L67.331 95.3043L64.5022 92.4755L67.331 89.6467L68.0381 88.9396L67.331 88.2325L64.5022 85.4037L66.447 83.4589L67.1542 82.7518L66.447 82.0447L62.9112 78.5088L62.204 77.8017L61.4969 78.5088L55.1323 84.8735L42.4029 72.1441L47.8836 66.6634L48.5907 65.9563L47.8836 65.2492L44.1709 61.5365L47.8836 57.8237L48.5907 57.1166L47.8836 56.4095L46.8228 55.3486L66.447 35.7244Z" fill="#FFE0AC" stroke="#FF8426" stroke-width="2"/>
<rect x="25.0774" y="47.3929" width="37.5038" height="2.50025" transform="rotate(-45 25.0774 47.3929)" fill="#FFC088"/>
<rect x="43.6409" y="53.5807" width="28.7529" height="2.50025" transform="rotate(-45 43.6409 53.5807)" fill="#FFC088"/>
<rect x="18.8894" y="57.1166" width="11.2511" height="2.50025" transform="rotate(-45 18.8894 57.1166)" fill="#FFC088"/>
<rect x="18.8889" y="78.3323" width="8.75089" height="2.50025" transform="rotate(-45 18.8889 78.3323)" fill="#FFC088"/>
<rect x="18.8894" y="65.9566" width="6.25063" height="2.50025" transform="rotate(-45 18.8894 65.9566)" fill="#FFC088"/>
<rect x="40.9885" y="59.7686" width="6.25063" height="2.50025" transform="rotate(-45 40.9885 59.7686)" fill="#FFC088"/>
<rect x="39.2207" y="70.3762" width="8.75089" height="2.50025" transform="rotate(-45 39.2207 70.3762)" fill="#FFC088"/>
<rect x="36.5688" y="108.387" width="3.75038" height="2.50025" transform="rotate(-45 36.5688 108.387)" fill="#FFC088"/>
<rect x="42.7566" y="109.271" width="5.00051" height="2.50025" transform="rotate(-45 42.7566 109.271)" fill="#FFC088"/>
<rect x="56.0164" y="110.155" width="3.75038" height="2.50025" transform="rotate(-45 56.0164 110.155)" fill="#FFC088"/>
<rect x="49.8281" y="109.271" width="3.75038" height="2.50025" transform="rotate(-45 49.8281 109.271)" fill="#FFC088"/>
<rect x="63.0881" y="103.083" width="3.75038" height="2.50025" transform="rotate(-45 63.0881 103.083)" fill="#FFC088"/>
<rect x="62.2036" y="111.039" width="6.25063" height="2.50025" transform="rotate(-45 62.2036 111.039)" fill="#FFC088"/>
<rect x="62.2043" y="96.8953" width="3.75038" height="2.50025" transform="rotate(-45 62.2043 96.8953)" fill="#FFC088"/>
<rect x="61.3201" y="90.7074" width="5.00051" height="2.50025" transform="rotate(-45 61.3201 90.7074)" fill="#FFC088"/>
<rect x="61.3201" y="83.6358" width="3.75038" height="2.50025" transform="rotate(-45 61.3201 83.6358)" fill="#FFC088"/>
<rect x="81.7332" y="4.17474" width="59.4899" height="36.5289" fill="#FFE97B"/>
<rect x="81.7332" y="38.6163" width="59.4899" height="36.5289" fill="#FFCB32"/>
<rect x="81.7332" y="74.1015" width="59.4899" height="36.5289" fill="#FFB03F"/>
<rect x="81.7332" y="102.281" width="59.4899" height="36.5289" fill="#FF934C"/>
<g clip-path="url(#clip0_2048_1159)">
<path d="M84.1804 1.52588e-05L80.9265 1.52588e-05V3.25386H84.1804V1.52588e-05Z" fill="#525252"/>
<path d="M87.4343 1.52588e-05L84.1804 1.52588e-05V3.25386H87.4343V1.52588e-05Z" fill="#525252"/>
<path d="M90.6796 1.52588e-05L87.4258 1.52588e-05V3.25386H90.6796V1.52588e-05Z" fill="#525252"/>
<path d="M93.9333 1.52588e-05L90.6794 1.52588e-05V3.25386H93.9333V1.52588e-05Z" fill="#525252"/>
<path d="M97.1789 1.52588e-05L93.925 1.52588e-05V3.25386H97.1789V1.52588e-05Z" fill="#525252"/>
<path d="M100.433 1.52588e-05L97.1787 1.52588e-05V3.25386H100.433V1.52588e-05Z" fill="#525252"/>
<path d="M103.678 1.52588e-05L100.424 1.52588e-05V3.25386H103.678V1.52588e-05Z" fill="#525252"/>
<path d="M106.932 1.52588e-05L103.678 1.52588e-05V3.25386H106.932V1.52588e-05Z" fill="#525252"/>
<path d="M110.177 1.52588e-05L106.923 1.52588e-05V3.25386H110.177V1.52588e-05Z" fill="#525252"/>
<path d="M113.431 1.52588e-05L110.177 1.52588e-05V3.25386H113.431V1.52588e-05Z" fill="#525252"/>
<path d="M116.685 1.52588e-05L113.431 1.52588e-05V3.25386H116.685V1.52588e-05Z" fill="#525252"/>
<path d="M80.935 3.25386H77.6812V6.5077H80.935V3.25386Z" fill="#525252"/>
<path d="M84.1804 3.25386H80.9265V6.5077H84.1804V3.25386Z" fill="#525252"/>
<path d="M87.4343 3.25386H84.1804V6.5077H87.4343V3.25386Z" fill="#525252"/>
<path d="M90.6796 3.25386H87.4258V6.5077H90.6796V3.25386Z" fill="#525252"/>
<path d="M93.9333 3.25386H90.6794V6.5077H93.9333V3.25386Z" fill="#525252"/>
<path d="M97.1789 3.25386H93.925V6.5077H97.1789V3.25386Z" fill="#525252"/>
<path d="M100.433 3.25386H97.1787V6.5077H100.433V3.25386Z" fill="#525252"/>
<path d="M103.678 3.25386H100.424V6.5077H103.678V3.25386Z" fill="#525252"/>
<path d="M106.932 3.25386H103.678V6.5077H106.932V3.25386Z" fill="#525252"/>
<path d="M110.177 3.25386H106.923V6.5077H110.177V3.25386Z" fill="#525252"/>
<path d="M113.431 3.25386H110.177V6.5077H113.431V3.25386Z" fill="#525252"/>
<path d="M116.685 3.25386H113.431V6.5077H116.685V3.25386Z" fill="#525252"/>
<path d="M77.6811 6.49925H74.4272V9.75309H77.6811V6.49925Z" fill="#525252"/>
<path d="M80.935 6.49925H77.6812V9.75309H80.935V6.49925Z" fill="#525252"/>
<path d="M84.1804 6.49925H80.9265V9.75309H84.1804V6.49925Z" fill="#525252"/>
<path d="M87.4343 6.49925H84.1804V9.75309H87.4343V6.49925Z" fill="#FFDC2B"/>
<path d="M90.6796 6.49925H87.4258V9.75309H90.6796V6.49925Z" fill="#FFDC2B"/>
<path d="M93.9333 6.49925H90.6794V9.75309H93.9333V6.49925Z" fill="#FFDC2B"/>
<path d="M97.1789 6.49925H93.925V9.75309H97.1789V6.49925Z" fill="#FFDC2B"/>
<path d="M100.433 6.49925H97.1787V9.75309H100.433V6.49925Z" fill="#525252"/>
<path d="M103.678 6.49925H100.424V9.75309H103.678V6.49925Z" fill="#525252"/>
<path d="M106.932 6.49925H103.678V9.75309H106.932V6.49925Z" fill="#333333"/>
<path d="M110.177 6.49925H106.923V9.75309H110.177V6.49925Z" fill="#333333"/>
<path d="M113.431 6.49925H110.177V9.75309H113.431V6.49925Z" fill="#333333"/>
<path d="M116.685 6.49925H113.431V9.75309H116.685V6.49925Z" fill="#333333"/>
<path d="M77.6811 9.75308H74.4272V13.0069H77.6811V9.75308Z" fill="#525252"/>
<path d="M80.935 9.75308H77.6812V13.0069H80.935V9.75308Z" fill="#525252"/>
<path d="M84.1804 9.75308H80.9265V13.0069H84.1804V9.75308Z" fill="#FFDC2B"/>
<path d="M87.4343 9.75308H84.1804V13.0069H87.4343V9.75308Z" fill="#FFDC2B"/>
<path d="M97.1789 9.75308H93.925V13.0069H97.1789V9.75308Z" fill="#FFDC2B"/>
<path d="M100.433 9.75308H97.1787V13.0069H100.433V9.75308Z" fill="#525252"/>
<path d="M103.678 9.75308H100.424V13.0069H103.678V9.75308Z" fill="#525252"/>
<path d="M106.932 9.75308H103.678V13.0069H106.932V9.75308Z" fill="#525252"/>
<path d="M110.177 9.75308H106.923V13.0069H110.177V9.75308Z" fill="#525252"/>
<path d="M113.431 9.75308H110.177V13.0069H113.431V9.75308Z" fill="#525252"/>
<path d="M116.685 9.75308H113.431V13.0069H116.685V9.75308Z" fill="#525252"/>
<path d="M77.6811 12.9985H74.4272V16.2523H77.6811V12.9985Z" fill="#525252"/>
<path d="M80.935 12.9985H77.6812V16.2523H80.935V12.9985Z" fill="#525252"/>
<path d="M84.1804 12.9985H80.9265V16.2523H84.1804V12.9985Z" fill="#FFDC2B"/>
<path d="M97.1789 12.9985H93.925V16.2523H97.1789V12.9985Z" fill="#FFDC2B"/>
<path d="M100.433 12.9985H97.1787V16.2523H100.433V12.9985Z" fill="#FFDC2B"/>
<path d="M103.678 12.9985H100.424V16.2523H103.678V12.9985Z" fill="#FFDC2B"/>
<path d="M106.932 12.9985H103.678V16.2523H106.932V12.9985Z" fill="#FFDC2B"/>
<path d="M110.177 12.9985H106.923V16.2523H110.177V12.9985Z" fill="#FFDC2B"/>
<path d="M113.431 12.9985H110.177V16.2523H113.431V12.9985Z" fill="#FFDC2B"/>
<path d="M116.685 12.9985H113.431V16.2523H116.685V12.9985Z" fill="#FFDC2B"/>
<path d="M77.6811 16.2523H74.4272V19.5062H77.6811V16.2523Z" fill="#525252"/>
<path d="M80.935 16.2523H77.6812V19.5062H80.935V16.2523Z" fill="#525252"/>
<path d="M84.1804 16.2523H80.9265V19.5062H84.1804V16.2523Z" fill="#FFDC2B"/>
<path d="M77.6811 19.4977H74.4272V22.7516H77.6811V19.4977Z" fill="#525252"/>
<path d="M80.935 19.4977H77.6812V22.7516H80.935V19.4977Z" fill="#525252"/>
<path d="M84.1804 19.4977H80.9265V22.7516H84.1804V19.4977Z" fill="#FFDC2B"/>
<path d="M77.6811 22.7516H74.4272V26.0054H77.6811V22.7516Z" fill="#525252"/>
<path d="M80.935 22.7516H77.6812V26.0054H80.935V22.7516Z" fill="#525252"/>
<path d="M84.1804 22.7516H80.9265V26.0054H84.1804V22.7516Z" fill="#FFDC2B"/>
<path d="M77.6811 25.9969H74.4272V29.2508H77.6811V25.9969Z" fill="#525252"/>
<path d="M80.935 25.9969H77.6812V29.2508H80.935V25.9969Z" fill="#525252"/>
<path d="M84.1804 25.9969H80.9265V29.2508H84.1804V25.9969Z" fill="#FFDC2B"/>
<path d="M77.6811 29.2508H74.4272V32.5046H77.6811V29.2508Z" fill="#525252"/>
<path d="M80.935 29.2508H77.6812V32.5046H80.935V29.2508Z" fill="#525252"/>
<path d="M84.1804 29.2508H80.9265V32.5046H84.1804V29.2508Z" fill="#FFDC2B"/>
<path d="M77.6811 32.4962H74.4272V35.75H77.6811V32.4962Z" fill="#525252"/>
<path d="M80.935 32.4962H77.6812V35.75H80.935V32.4962Z" fill="#525252"/>
<path d="M84.1804 32.4962H80.9265V35.75H84.1804V32.4962Z" fill="#FFDC2B"/>
<path d="M77.6811 35.75H74.4272V39.0039H77.6811V35.75Z" fill="#525252"/>
<path d="M80.935 35.75H77.6812V39.0039H80.935V35.75Z" fill="#525252"/>
<path d="M84.1804 35.75H80.9265V39.0039H84.1804V35.75Z" fill="#FFDC2B"/>
<path d="M77.6811 39.0039H74.4272V42.2577H77.6811V39.0039Z" fill="#525252"/>
<path d="M80.935 39.0039H77.6812V42.2577H80.935V39.0039Z" fill="#525252"/>
<path d="M84.1804 39.0039H80.9265V42.2577H84.1804V39.0039Z" fill="#FFDC2B"/>
<path d="M77.6811 42.2493H74.4272V45.5031H77.6811V42.2493Z" fill="#525252"/>
<path d="M80.935 42.2493H77.6812V45.5031H80.935V42.2493Z" fill="#525252"/>
<path d="M84.1804 42.2493H80.9265V45.5031H84.1804V42.2493Z" fill="#FFDC2B"/>
<path d="M77.6811 45.5031H74.4272V48.7569H77.6811V45.5031Z" fill="#525252"/>
<path d="M80.935 45.5031H77.6812V48.7569H80.935V45.5031Z" fill="#525252"/>
<path d="M84.1804 45.5031H80.9265V48.7569H84.1804V45.5031Z" fill="#FFDC2B"/>
<path d="M77.6811 48.7485H74.4272V52.0023H77.6811V48.7485Z" fill="#525252"/>
<path d="M80.935 48.7485H77.6812V52.0023H80.935V48.7485Z" fill="#525252"/>
<path d="M84.1804 48.7485H80.9265V52.0023H84.1804V48.7485Z" fill="#FFDC2B"/>
<path d="M77.6811 52.0023H74.4272V55.2562H77.6811V52.0023Z" fill="#525252"/>
<path d="M80.935 52.0023H77.6812V55.2562H80.935V52.0023Z" fill="#525252"/>
<path d="M84.1804 52.0023H80.9265V55.2562H84.1804V52.0023Z" fill="#FFDC2B"/>
<path d="M77.6811 55.2477H74.4272V58.5016H77.6811V55.2477Z" fill="#525252"/>
<path d="M80.935 55.2477H77.6812V58.5016H80.935V55.2477Z" fill="#525252"/>
<path d="M84.1804 55.2477H80.9265V58.5016H84.1804V55.2477Z" fill="#FFDC2B"/>
<path d="M77.6811 58.5016H74.4272V61.7554H77.6811V58.5016Z" fill="#525252"/>
<path d="M80.935 58.5016H77.6812V61.7554H80.935V58.5016Z" fill="#525252"/>
<path d="M84.1804 58.5016H80.9265V61.7554H84.1804V58.5016Z" fill="#FFDC2B"/>
<path d="M77.6811 61.7469H74.4272V65.0008H77.6811V61.7469Z" fill="#525252"/>
<path d="M80.935 61.7469H77.6812V65.0008H80.935V61.7469Z" fill="#525252"/>
<path d="M84.1804 61.7469H80.9265V65.0008H84.1804V61.7469Z" fill="#FFDC2B"/>
<path d="M77.6811 65.0008H74.4272V68.2546H77.6811V65.0008Z" fill="#525252"/>
<path d="M80.935 65.0008H77.6812V68.2546H80.935V65.0008Z" fill="#525252"/>
<path d="M84.1804 65.0008H80.9265V68.2546H84.1804V65.0008Z" fill="#FFDC2B"/>
<path d="M77.6811 68.2462H74.4272V71.5H77.6811V68.2462Z" fill="#333333"/>
<path d="M80.935 68.2462H77.6812V71.5H80.935V68.2462Z" fill="#333333"/>
<path d="M84.1804 68.2462H80.9265V71.5H84.1804V68.2462Z" fill="#FFDC2B"/>
<path d="M77.6811 71.5H74.4272V74.7539H77.6811V71.5Z" fill="#525252"/>
<path d="M80.935 71.5H77.6812V74.7539H80.935V71.5Z" fill="#525252"/>
<path d="M84.1804 71.5H80.9265V74.7539H84.1804V71.5Z" fill="#FFDC2B"/>
<path d="M77.6811 74.7539H74.4272V78.0077H77.6811V74.7539Z" fill="#333333"/>
<path d="M80.935 74.7539H77.6812V78.0077H80.935V74.7539Z" fill="#333333"/>
<path d="M84.1804 74.7539H80.9265V78.0077H84.1804V74.7539Z" fill="#FFDC2B"/>
<path d="M77.6811 77.9992H74.4272V81.2531H77.6811V77.9992Z" fill="#333333"/>
<path d="M80.935 77.9992H77.6812V81.2531H80.935V77.9992Z" fill="#333333"/>
<path d="M84.1804 77.9992H80.9265V81.2531H84.1804V77.9992Z" fill="#FFDC2B"/>
<path d="M77.6811 81.2531H74.4272V84.5069H77.6811V81.2531Z" fill="#525252"/>
<path d="M80.935 81.2531H77.6812V84.5069H80.935V81.2531Z" fill="#525252"/>
<path d="M84.1804 81.2531H80.9265V84.5069H84.1804V81.2531Z" fill="#FFDC2B"/>
<path d="M77.6811 84.4985H74.4272V87.7523H77.6811V84.4985Z" fill="#333333"/>
<path d="M80.935 84.4985H77.6812V87.7523H80.935V84.4985Z" fill="#333333"/>
<path d="M84.1804 84.4985H80.9265V87.7523H84.1804V84.4985Z" fill="#FFDC2B"/>
<path d="M77.6811 87.7523H74.4272V91.0062H77.6811V87.7523Z" fill="#333333"/>
<path d="M80.935 87.7523H77.6812V91.0062H80.935V87.7523Z" fill="#333333"/>
<path d="M84.1804 87.7523H80.9265V91.0062H84.1804V87.7523Z" fill="#FFDC2B"/>
<path d="M77.6811 90.9977H74.4272V94.2516H77.6811V90.9977Z" fill="#333333"/>
<path d="M80.935 90.9977H77.6812V94.2516H80.935V90.9977Z" fill="#333333"/>
<path d="M84.1804 90.9977H80.9265V94.2516H84.1804V90.9977Z" fill="#FFDC2B"/>
<path d="M77.6811 94.2516H74.4272V97.5054H77.6811V94.2516Z" fill="#525252"/>
<path d="M80.935 94.2516H77.6812V97.5054H80.935V94.2516Z" fill="#525252"/>
<path d="M84.1804 94.2516H80.9265V97.5054H84.1804V94.2516Z" fill="#FFDC2B"/>
<path d="M77.6811 97.4969H74.4272V100.751H77.6811V97.4969Z" fill="#333333"/>
<path d="M80.935 97.4969H77.6812V100.751H80.935V97.4969Z" fill="#333333"/>
<path d="M84.1804 97.4969H80.9265V100.751H84.1804V97.4969Z" fill="#FFDC2B"/>
<path d="M77.6811 100.751H74.4272V104.005H77.6811V100.751Z" fill="#333333"/>
<path d="M80.935 100.751H77.6812V104.005H80.935V100.751Z" fill="#333333"/>
<path d="M84.1804 100.751H80.9265V104.005H84.1804V100.751Z" fill="#FFDC2B"/>
<path d="M77.6811 103.996H74.4272V107.25H77.6811V103.996Z" fill="#333333"/>
<path d="M80.935 103.996H77.6812V107.25H80.935V103.996Z" fill="#333333"/>
<path d="M84.1804 103.996H80.9265V107.25H84.1804V103.996Z" fill="#FFDC2B"/>
<path d="M77.6811 107.25H74.4272V110.504H77.6811V107.25Z" fill="#333333"/>
<path d="M80.935 107.25H77.6812V110.504H80.935V107.25Z" fill="#333333"/>
<path d="M84.1804 107.25H80.9265V110.504H84.1804V107.25Z" fill="#FFDC2B"/>
<path d="M77.6811 110.504H74.4272V113.758H77.6811V110.504Z" fill="#333333"/>
<path d="M80.935 110.504H77.6812V113.758H80.935V110.504Z" fill="#333333"/>
<path d="M84.1804 110.504H80.9265V113.758H84.1804V110.504Z" fill="#FFDC2B"/>
<path d="M77.6811 113.749H74.4272V117.003H77.6811V113.749Z" fill="#333333"/>
<path d="M80.935 113.749H77.6812V117.003H80.935V113.749Z" fill="#333333"/>
<path d="M84.1804 113.749H80.9265V117.003H84.1804V113.749Z" fill="#FFDC2B"/>
<path d="M77.6811 117.003H74.4272V120.257H77.6811V117.003Z" fill="#333333"/>
<path d="M80.935 117.003H77.6812V120.257H80.935V117.003Z" fill="#333333"/>
<path d="M84.1804 117.003H80.9265V120.257H84.1804V117.003Z" fill="#FFDC2B"/>
<path d="M77.6811 120.248H74.4272V123.502H77.6811V120.248Z" fill="#333333"/>
<path d="M80.935 120.248H77.6812V123.502H80.935V120.248Z" fill="#333333"/>
<path d="M84.1804 120.248H80.9265V123.502H84.1804V120.248Z" fill="#FFDC2B"/>
<path d="M77.6811 123.502H74.4272V126.756H77.6811V123.502Z" fill="#333333"/>
<path d="M80.935 123.502H77.6812V126.756H80.935V123.502Z" fill="#333333"/>
<path d="M84.1804 123.502H80.9265V126.756H84.1804V123.502Z" fill="#FFDC2B"/>
<path d="M77.6811 126.748H74.4272V130.002H77.6811V126.748Z" fill="#333333"/>
<path d="M80.935 126.748H77.6812V130.002H80.935V126.748Z" fill="#333333"/>
<path d="M84.1804 126.748H80.9265V130.002H84.1804V126.748Z" fill="#FFDC2B"/>
<path d="M77.6811 130.002H74.4272V133.255H77.6811V130.002Z" fill="#333333"/>
<path d="M80.935 130.002H77.6812V133.255H80.935V130.002Z" fill="#333333"/>
<path d="M84.1804 130.002H80.9265V133.255H84.1804V130.002Z" fill="#FFDC2B"/>
<path d="M87.4343 130.002H84.1804V133.255H87.4343V130.002Z" fill="#FFDC2B"/>
<path d="M77.6811 133.247H74.4272V136.501H77.6811V133.247Z" fill="#333333"/>
<path d="M80.935 133.247H77.6812V136.501H80.935V133.247Z" fill="#333333"/>
<path d="M84.1804 133.247H80.9265V136.501H84.1804V133.247Z" fill="#333333"/>
<path d="M87.4343 133.247H84.1804V136.501H87.4343V133.247Z" fill="#FFDC2B"/>
<path d="M90.6796 133.247H87.4258V136.501H90.6796V133.247Z" fill="#FFDC2B"/>
<path d="M93.9333 133.247H90.6794V136.501H93.9333V133.247Z" fill="#FFDC2B"/>
<path d="M97.1789 133.247H93.925V136.501H97.1789V133.247Z" fill="#FFDC2B"/>
<path d="M100.433 133.247H97.1787V136.501H100.433V133.247Z" fill="#FFDC2B"/>
<path d="M103.678 133.247H100.424V136.501H103.678V133.247Z" fill="#FFDC2B"/>
<path d="M106.932 133.247H103.678V136.501H106.932V133.247Z" fill="#FFDC2B"/>
<path d="M110.177 133.247H106.923V136.501H110.177V133.247Z" fill="#FFDC2B"/>
<path d="M113.431 133.247H110.177V136.501H113.431V133.247Z" fill="#FFDC2B"/>
<path d="M116.685 133.247H113.431V136.501H116.685V133.247Z" fill="#FFDC2B"/>
<path d="M80.935 136.501H77.6812V139.755H80.935V136.501Z" fill="#333333"/>
<path d="M84.1804 136.501H80.9265V139.755H84.1804V136.501Z" fill="#333333"/>
<path d="M87.4343 136.501H84.1804V139.755H87.4343V136.501Z" fill="#333333"/>
<path d="M90.6796 136.501H87.4258V139.755H90.6796V136.501Z" fill="#333333"/>
<path d="M93.9333 136.501H90.6794V139.755H93.9333V136.501Z" fill="#333333"/>
<path d="M97.1789 136.501H93.925V139.755H97.1789V136.501Z" fill="#333333"/>
<path d="M100.433 136.501H97.1787V139.755H100.433V136.501Z" fill="#333333"/>
<path d="M103.678 136.501H100.424V139.755H103.678V136.501Z" fill="#333333"/>
<path d="M106.932 136.501H103.678V139.755H106.932V136.501Z" fill="#333333"/>
<path d="M110.177 136.501H106.923V139.755H110.177V136.501Z" fill="#333333"/>
<path d="M113.431 136.501H110.177V139.755H113.431V136.501Z" fill="#333333"/>
<path d="M116.685 136.501H113.431V139.755H116.685V136.501Z" fill="#333333"/>
<path d="M84.1804 139.746H80.9265V143H84.1804V139.746Z" fill="#333333"/>
<path d="M87.4343 139.746H84.1804V143H87.4343V139.746Z" fill="#333333"/>
<path d="M90.6796 139.746H87.4258V143H90.6796V139.746Z" fill="#333333"/>
<path d="M93.9333 139.746H90.6794V143H93.9333V139.746Z" fill="#333333"/>
<path d="M97.1789 139.746H93.925V143H97.1789V139.746Z" fill="#333333"/>
<path d="M100.433 139.746H97.1787V143H100.433V139.746Z" fill="#333333"/>
<path d="M103.678 139.746H100.424V143H103.678V139.746Z" fill="#333333"/>
<path d="M106.932 139.746H103.678V143H106.932V139.746Z" fill="#333333"/>
<path d="M110.177 139.746H106.923V143H110.177V139.746Z" fill="#333333"/>
<path d="M113.431 139.746H110.177V143H113.431V139.746Z" fill="#333333"/>
<path d="M116.685 139.746H113.431V143H116.685V139.746Z" fill="#333333"/>
<path d="M139.419 3.25386L142.673 3.25386V1.88351e-05L139.419 1.88351e-05V3.25386Z" fill="#525252"/>
<path d="M136.174 3.25386L139.428 3.25386V1.88351e-05L136.174 1.88351e-05V3.25386Z" fill="#525252"/>
<path d="M132.92 3.25386L136.174 3.25386V1.88351e-05L132.92 1.88351e-05V3.25386Z" fill="#525252"/>
<path d="M129.675 3.25386L132.929 3.25386V1.88351e-05L129.675 1.88351e-05V3.25386Z" fill="#525252"/>
<path d="M126.421 3.25386L129.675 3.25386V1.88351e-05L126.421 1.88351e-05V3.25386Z" fill="#525252"/>
<path d="M123.176 3.25386L126.429 3.25386V1.88351e-05L123.176 1.88351e-05V3.25386Z" fill="#525252"/>
<path d="M119.922 3.25386L123.176 3.25386V1.88351e-05L119.922 1.88351e-05V3.25386Z" fill="#525252"/>
<path d="M116.676 3.25386L119.93 3.25386V1.88351e-05L116.676 1.88351e-05V3.25386Z" fill="#525252"/>
<path d="M113.423 3.25386L116.677 3.25386V1.88351e-05L113.423 1.88351e-05V3.25386Z" fill="#525252"/>
<path d="M110.177 3.25386L113.431 3.25386V1.88351e-05L110.177 1.88351e-05V3.25386Z" fill="#525252"/>
<path d="M106.923 3.25386L110.177 3.25386V1.88351e-05L106.923 1.88351e-05V3.25386Z" fill="#525252"/>
<path d="M142.673 6.49925L145.927 6.49925V3.24541L142.673 3.24541V6.49925Z" fill="#525252"/>
<path d="M139.419 6.49925L142.673 6.49925V3.24541L139.419 3.24541V6.49925Z" fill="#525252"/>
<path d="M136.174 6.49925L139.428 6.49925V3.24541L136.174 3.24541V6.49925Z" fill="#525252"/>
<path d="M132.92 6.49925L136.174 6.49925V3.24541L132.92 3.24541V6.49925Z" fill="#525252"/>
<path d="M129.675 6.49925L132.929 6.49925V3.24541L129.675 3.24541V6.49925Z" fill="#525252"/>
<path d="M126.421 6.49925L129.675 6.49925V3.24541L126.421 3.24541V6.49925Z" fill="#525252"/>
<path d="M123.176 6.49925L126.429 6.49925V3.24541L123.176 3.24541V6.49925Z" fill="#525252"/>
<path d="M119.922 6.49925L123.176 6.49925V3.24541L119.922 3.24541V6.49925Z" fill="#525252"/>
<path d="M116.676 6.49925L119.93 6.49925V3.24541L116.676 3.24541V6.49925Z" fill="#525252"/>
<path d="M113.423 6.49925L116.677 6.49925V3.24541L113.423 3.24541V6.49925Z" fill="#525252"/>
<path d="M110.177 6.49925L113.431 6.49925V3.24541L110.177 3.24541V6.49925Z" fill="#525252"/>
<path d="M106.923 6.49925L110.177 6.49925V3.24541L106.923 3.24541V6.49925Z" fill="#525252"/>
<path d="M145.927 9.75308H149.181V6.49924H145.927V9.75308Z" fill="#525252"/>
<path d="M142.673 9.75308H145.927V6.49924H142.673V9.75308Z" fill="#525252"/>
<path d="M139.419 9.75308H142.673V6.49924H139.419V9.75308Z" fill="#525252"/>
<path d="M136.174 9.75308H139.428V6.49924H136.174V9.75308Z" fill="#FFDC2B"/>
<path d="M132.92 9.75308H136.174V6.49924H132.92V9.75308Z" fill="#FFDC2B"/>
<path d="M129.675 9.75308H132.929V6.49924H129.675V9.75308Z" fill="#FFDC2B"/>
<path d="M126.421 9.75308H129.675V6.49924H126.421V9.75308Z" fill="#FFDC2B"/>
<path d="M123.176 9.75308H126.429V6.49924H123.176V9.75308Z" fill="#525252"/>
<path d="M119.922 9.75308H123.176V6.49924H119.922V9.75308Z" fill="#525252"/>
<path d="M116.676 9.75308H119.93V6.49924H116.676V9.75308Z" fill="#333333"/>
<path d="M113.423 9.75308H116.677V6.49924H113.423V9.75308Z" fill="#525252"/>
<path d="M110.177 9.75308H113.431V6.49924H110.177V9.75308Z" fill="#525252"/>
<path d="M106.923 9.75308H110.177V6.49924H106.923V9.75308Z" fill="#333333"/>
<path d="M145.927 12.9985H149.181V9.74463H145.927V12.9985Z" fill="#525252"/>
<path d="M142.673 12.9985H145.927V9.74463H142.673V12.9985Z" fill="#525252"/>
<path d="M139.419 12.9985H142.673V9.74463H139.419V12.9985Z" fill="#FFDC2B"/>
<path d="M136.174 12.9985H139.428V9.74463H136.174V12.9985Z" fill="#FFDC2B"/>
<path d="M126.421 12.9985H129.675V9.74463H126.421V12.9985Z" fill="#FFDC2B"/>
<path d="M123.176 12.9985H126.429V9.74463H123.176V12.9985Z" fill="#525252"/>
<path d="M119.922 12.9985H123.176V9.74463H119.922V12.9985Z" fill="#525252"/>
<path d="M116.676 12.9985H119.93V9.74463H116.676V12.9985Z" fill="#525252"/>
<path d="M113.423 12.9985H116.677V9.74463H113.423V12.9985Z" fill="#525252"/>
<path d="M110.177 12.9985H113.431V9.74463H110.177V12.9985Z" fill="#525252"/>
<path d="M106.923 12.9985H110.177V9.74463H106.923V12.9985Z" fill="#525252"/>
<path d="M145.927 16.2523H149.181V12.9985H145.927V16.2523Z" fill="#525252"/>
<path d="M142.673 16.2523H145.927V12.9985H142.673V16.2523Z" fill="#525252"/>
<path d="M139.419 16.2523H142.673V12.9985H139.419V16.2523Z" fill="#FFDC2B"/>
<path d="M126.421 16.2523H129.675V12.9985H126.421V16.2523Z" fill="#FFDC2B"/>
<path d="M123.176 16.2523H126.429V12.9985H123.176V16.2523Z" fill="#FFDC2B"/>
<path d="M119.922 16.2523H123.176V12.9985H119.922V16.2523Z" fill="#FFDC2B"/>
<path d="M116.676 16.2523H119.93V12.9985H116.676V16.2523Z" fill="#FFDC2B"/>
<path d="M113.423 16.2523H116.677V12.9985H113.423V16.2523Z" fill="#FFDC2B"/>
<path d="M110.177 16.2523H113.431V12.9985H110.177V16.2523Z" fill="#FFDC2B"/>
<path d="M106.923 16.2523H110.177V12.9985H106.923V16.2523Z" fill="#FFDC2B"/>
<path d="M145.927 19.4977H149.181V16.2439H145.927V19.4977Z" fill="#525252"/>
<path d="M142.673 19.4977H145.927V16.2439H142.673V19.4977Z" fill="#525252"/>
<path d="M139.419 19.4977H142.673V16.2439H139.419V19.4977Z" fill="#FFDC2B"/>
<path d="M145.927 22.7516H149.181V19.4977H145.927V22.7516Z" fill="#525252"/>
<path d="M142.673 22.7516H145.927V19.4977H142.673V22.7516Z" fill="#525252"/>
<path d="M139.419 22.7516H142.673V19.4977H139.419V22.7516Z" fill="#FFDC2B"/>
<path d="M145.927 25.9969H149.181V22.7431H145.927V25.9969Z" fill="#525252"/>
<path d="M142.673 25.9969H145.927V22.7431H142.673V25.9969Z" fill="#525252"/>
<path d="M139.419 25.9969H142.673V22.7431H139.419V25.9969Z" fill="#FFDC2B"/>
<path d="M145.927 29.2508H149.181V25.9969H145.927V29.2508Z" fill="#525252"/>
<path d="M142.673 29.2508H145.927V25.9969H142.673V29.2508Z" fill="#525252"/>
<path d="M139.419 29.2508H142.673V25.9969H139.419V29.2508Z" fill="#FFDC2B"/>
<path d="M145.927 32.4962H149.181V29.2423H145.927V32.4962Z" fill="#525252"/>
<path d="M142.673 32.4962H145.927V29.2423H142.673V32.4962Z" fill="#525252"/>
<path d="M139.419 32.4962H142.673V29.2423H139.419V32.4962Z" fill="#FFDC2B"/>
<path d="M145.927 35.75H149.181V32.4962H145.927V35.75Z" fill="#525252"/>
<path d="M142.673 35.75H145.927V32.4962H142.673V35.75Z" fill="#525252"/>
<path d="M139.419 35.75H142.673V32.4962H139.419V35.75Z" fill="#FFDC2B"/>
<path d="M145.927 39.0039H149.181V35.75H145.927V39.0039Z" fill="#525252"/>
<path d="M142.673 39.0039H145.927V35.75H142.673V39.0039Z" fill="#525252"/>
<path d="M139.419 39.0039H142.673V35.75H139.419V39.0039Z" fill="#FFDC2B"/>
<path d="M145.927 42.2492H149.181V38.9954H145.927V42.2492Z" fill="#525252"/>
<path d="M142.673 42.2492H145.927V38.9954H142.673V42.2492Z" fill="#525252"/>
<path d="M139.419 42.2492H142.673V38.9954H139.419V42.2492Z" fill="#FFDC2B"/>
<path d="M145.927 45.5031H149.181V42.2492H145.927V45.5031Z" fill="#525252"/>
<path d="M142.673 45.5031H145.927V42.2492H142.673V45.5031Z" fill="#525252"/>
<path d="M139.419 45.5031H142.673V42.2492H139.419V45.5031Z" fill="#FFDC2B"/>
<path d="M145.927 48.7485H149.181V45.4946H145.927V48.7485Z" fill="#525252"/>
<path d="M142.673 48.7485H145.927V45.4946H142.673V48.7485Z" fill="#525252"/>
<path d="M139.419 48.7485H142.673V45.4946H139.419V48.7485Z" fill="#FFDC2B"/>
<path d="M145.927 52.0023H149.181V48.7485H145.927V52.0023Z" fill="#525252"/>
<path d="M142.673 52.0023H145.927V48.7485H142.673V52.0023Z" fill="#525252"/>
<path d="M139.419 52.0023H142.673V48.7485H139.419V52.0023Z" fill="#FFDC2B"/>
<path d="M145.927 55.2477H149.181V51.9939H145.927V55.2477Z" fill="#525252"/>
<path d="M142.673 55.2477H145.927V51.9939H142.673V55.2477Z" fill="#525252"/>
<path d="M139.419 55.2477H142.673V51.9939H139.419V55.2477Z" fill="#FFDC2B"/>
<path d="M145.927 58.5015H149.181V55.2477H145.927V58.5015Z" fill="#525252"/>
<path d="M142.673 58.5015H145.927V55.2477H142.673V58.5015Z" fill="#525252"/>
<path d="M139.419 58.5015H142.673V55.2477H139.419V58.5015Z" fill="#FFDC2B"/>
<path d="M145.927 61.7469H149.181V58.4931H145.927V61.7469Z" fill="#525252"/>
<path d="M142.673 61.7469H145.927V58.4931H142.673V61.7469Z" fill="#525252"/>
<path d="M139.419 61.7469H142.673V58.4931H139.419V61.7469Z" fill="#FFDC2B"/>
<path d="M145.927 65.0008H149.181V61.7469H145.927V65.0008Z" fill="#525252"/>
<path d="M142.673 65.0008H145.927V61.7469H142.673V65.0008Z" fill="#525252"/>
<path d="M139.419 65.0008H142.673V61.7469H139.419V65.0008Z" fill="#FFDC2B"/>
<path d="M145.927 68.2462H149.181V64.9923H145.927V68.2462Z" fill="#525252"/>
<path d="M142.673 68.2462H145.927V64.9923H142.673V68.2462Z" fill="#525252"/>
<path d="M139.419 68.2462H142.673V64.9923H139.419V68.2462Z" fill="#FFDC2B"/>
<path d="M145.927 71.5H149.181V68.2462H145.927V71.5Z" fill="#333333"/>
<path d="M142.673 71.5H145.927V68.2462H142.673V71.5Z" fill="#333333"/>
<path d="M139.419 71.5H142.673V68.2462H139.419V71.5Z" fill="#FFDC2B"/>
<path d="M145.927 74.7539H149.181V71.5H145.927V74.7539Z" fill="#525252"/>
<path d="M142.673 74.7539H145.927V71.5H142.673V74.7539Z" fill="#525252"/>
<path d="M139.419 74.7539H142.673V71.5H139.419V74.7539Z" fill="#FFDC2B"/>
<path d="M145.927 77.9992H149.181V74.7454H145.927V77.9992Z" fill="#333333"/>
<path d="M142.673 77.9992H145.927V74.7454H142.673V77.9992Z" fill="#333333"/>
<path d="M139.419 77.9992H142.673V74.7454H139.419V77.9992Z" fill="#FFDC2B"/>
<path d="M145.927 81.2531H149.181V77.9992H145.927V81.2531Z" fill="#333333"/>
<path d="M142.673 81.2531H145.927V77.9992H142.673V81.2531Z" fill="#333333"/>
<path d="M139.419 81.2531H142.673V77.9992H139.419V81.2531Z" fill="#FFDC2B"/>
<path d="M145.927 84.4985H149.181V81.2446H145.927V84.4985Z" fill="#525252"/>
<path d="M142.673 84.4985H145.927V81.2446H142.673V84.4985Z" fill="#525252"/>
<path d="M139.419 84.4985H142.673V81.2446H139.419V84.4985Z" fill="#FFDC2B"/>
<path d="M145.927 87.7523H149.181V84.4985H145.927V87.7523Z" fill="#333333"/>
<path d="M142.673 87.7523H145.927V84.4985H142.673V87.7523Z" fill="#333333"/>
<path d="M139.419 87.7523H142.673V84.4985H139.419V87.7523Z" fill="#FFDC2B"/>
<path d="M145.927 90.9977H149.181V87.7439H145.927V90.9977Z" fill="#333333"/>
<path d="M142.673 90.9977H145.927V87.7439H142.673V90.9977Z" fill="#333333"/>
<path d="M139.419 90.9977H142.673V87.7439H139.419V90.9977Z" fill="#FFDC2B"/>
<path d="M145.927 94.2516H149.181V90.9977H145.927V94.2516Z" fill="#333333"/>
<path d="M142.673 94.2516H145.927V90.9977H142.673V94.2516Z" fill="#333333"/>
<path d="M139.419 94.2516H142.673V90.9977H139.419V94.2516Z" fill="#FFDC2B"/>
<path d="M145.927 97.4969H149.181V94.2431H145.927V97.4969Z" fill="#525252"/>
<path d="M142.673 97.4969H145.927V94.2431H142.673V97.4969Z" fill="#525252"/>
<path d="M139.419 97.4969H142.673V94.2431H139.419V97.4969Z" fill="#FFDC2B"/>
<path d="M145.927 100.751H149.181V97.4969H145.927V100.751Z" fill="#333333"/>
<path d="M142.673 100.751H145.927V97.4969H142.673V100.751Z" fill="#333333"/>
<path d="M139.419 100.751H142.673V97.4969H139.419V100.751Z" fill="#FFDC2B"/>
<path d="M145.927 103.996H149.181V100.742H145.927V103.996Z" fill="#333333"/>
<path d="M142.673 103.996H145.927V100.742H142.673V103.996Z" fill="#333333"/>
<path d="M139.419 103.996H142.673V100.742H139.419V103.996Z" fill="#FFDC2B"/>
<path d="M145.927 107.25H149.181V103.996H145.927V107.25Z" fill="#333333"/>
<path d="M142.673 107.25H145.927V103.996H142.673V107.25Z" fill="#333333"/>
<path d="M139.419 107.25H142.673V103.996H139.419V107.25Z" fill="#FFDC2B"/>
<path d="M145.927 110.504H149.181V107.25H145.927V110.504Z" fill="#333333"/>
<path d="M142.673 110.504H145.927V107.25H142.673V110.504Z" fill="#333333"/>
<path d="M139.419 110.504H142.673V107.25H139.419V110.504Z" fill="#FFDC2B"/>
<path d="M145.927 113.749H149.181V110.495H145.927V113.749Z" fill="#333333"/>
<path d="M142.673 113.749H145.927V110.495H142.673V113.749Z" fill="#333333"/>
<path d="M139.419 113.749H142.673V110.495H139.419V113.749Z" fill="#FFDC2B"/>
<path d="M145.927 117.003H149.181V113.749H145.927V117.003Z" fill="#333333"/>
<path d="M142.673 117.003H145.927V113.749H142.673V117.003Z" fill="#333333"/>
<path d="M139.419 117.003H142.673V113.749H139.419V117.003Z" fill="#FFDC2B"/>
<path d="M145.927 120.248H149.181V116.995H145.927V120.248Z" fill="#333333"/>
<path d="M142.673 120.248H145.927V116.995H142.673V120.248Z" fill="#333333"/>
<path d="M139.419 120.248H142.673V116.995H139.419V120.248Z" fill="#FFDC2B"/>
<path d="M145.927 123.502H149.181V120.248H145.927V123.502Z" fill="#333333"/>
<path d="M142.673 123.502H145.927V120.248H142.673V123.502Z" fill="#333333"/>
<path d="M139.419 123.502H142.673V120.248H139.419V123.502Z" fill="#FFDC2B"/>
<path d="M145.927 126.748H149.181V123.494H145.927V126.748Z" fill="#333333"/>
<path d="M142.673 126.748H145.927V123.494H142.673V126.748Z" fill="#333333"/>
<path d="M139.419 126.748H142.673V123.494H139.419V126.748Z" fill="#FFDC2B"/>
<path d="M145.927 130.002H149.181V126.748H145.927V130.002Z" fill="#333333"/>
<path d="M142.673 130.002H145.927V126.748H142.673V130.002Z" fill="#333333"/>
<path d="M139.419 130.002H142.673V126.748H139.419V130.002Z" fill="#FFDC2B"/>
<path d="M145.927 133.247H149.181V129.993H145.927V133.247Z" fill="#333333"/>
<path d="M142.673 133.247H145.927V129.993H142.673V133.247Z" fill="#333333"/>
<path d="M139.419 133.247H142.673V129.993H139.419V133.247Z" fill="#FFDC2B"/>
<path d="M136.174 133.247H139.428V129.993H136.174V133.247Z" fill="#FFDC2B"/>
<path d="M145.927 136.501H149.181V133.247H145.927V136.501Z" fill="#333333"/>
<path d="M142.673 136.501H145.927V133.247H142.673V136.501Z" fill="#333333"/>
<path d="M139.419 136.501H142.673V133.247H139.419V136.501Z" fill="#333333"/>
<path d="M136.174 136.501H139.428V133.247H136.174V136.501Z" fill="#FFDC2B"/>
<path d="M132.92 136.501H136.174V133.247H132.92V136.501Z" fill="#FFDC2B"/>
<path d="M129.675 136.501H132.929V133.247H129.675V136.501Z" fill="#FFDC2B"/>
<path d="M126.421 136.501H129.675V133.247H126.421V136.501Z" fill="#FFDC2B"/>
<path d="M123.176 136.501H126.429V133.247H123.176V136.501Z" fill="#FFDC2B"/>
<path d="M119.922 136.501H123.176V133.247H119.922V136.501Z" fill="#FFDC2B"/>
<path d="M116.676 136.501H119.93V133.247H116.676V136.501Z" fill="#FFDC2B"/>
<path d="M113.423 136.501H116.677V133.247H113.423V136.501Z" fill="#FFDC2B"/>
<path d="M110.177 136.501H113.431V133.247H110.177V136.501Z" fill="#FFDC2B"/>
<path d="M106.923 136.501H110.177V133.247H106.923V136.501Z" fill="#FFDC2B"/>
<path d="M142.673 139.746H145.927V136.492H142.673V139.746Z" fill="#333333"/>
<path d="M139.419 139.746H142.673V136.492H139.419V139.746Z" fill="#333333"/>
<path d="M136.174 139.746H139.428V136.492H136.174V139.746Z" fill="#333333"/>
<path d="M132.92 139.746H136.174V136.492H132.92V139.746Z" fill="#333333"/>
<path d="M129.675 139.746H132.929V136.492H129.675V139.746Z" fill="#333333"/>
<path d="M126.421 139.746H129.675V136.492H126.421V139.746Z" fill="#333333"/>
<path d="M123.176 139.746H126.429V136.492H123.176V139.746Z" fill="#333333"/>
<path d="M119.922 139.746H123.176V136.492H119.922V139.746Z" fill="#333333"/>
<path d="M116.676 139.746H119.93V136.492H116.676V139.746Z" fill="#333333"/>
<path d="M113.423 139.746H116.677V136.492H113.423V139.746Z" fill="#333333"/>
<path d="M110.177 139.746H113.431V136.492H110.177V139.746Z" fill="#333333"/>
<path d="M106.923 139.746H110.177V136.492H106.923V139.746Z" fill="#333333"/>
<path d="M139.419 143.008H142.673V139.755H139.419V143.008Z" fill="#333333"/>
<path d="M136.174 143.008H139.428V139.755H136.174V143.008Z" fill="#333333"/>
<path d="M132.92 143.008H136.174V139.755H132.92V143.008Z" fill="#333333"/>
<path d="M129.675 143.008H132.929V139.755H129.675V143.008Z" fill="#333333"/>
<path d="M126.421 143.008H129.675V139.755H126.421V143.008Z" fill="#333333"/>
<path d="M123.176 143.008H126.429V139.755H123.176V143.008Z" fill="#333333"/>
<path d="M119.922 143.008H123.176V139.755H119.922V143.008Z" fill="#333333"/>
<path d="M116.676 143.008H119.93V139.755H116.676V143.008Z" fill="#333333"/>
<path d="M113.423 143.008H116.677V139.755H113.423V143.008Z" fill="#333333"/>
<path d="M110.177 143.008H113.431V139.755H110.177V143.008Z" fill="#333333"/>
<path d="M106.923 143.008H110.177V139.755H106.923V143.008Z" fill="#333333"/>
</g>
<defs>
<clipPath id="clip0_2048_1159">
<rect width="74.7538" height="143" fill="white" transform="translate(74.4272 1.52588e-05)"/>
</clipPath>
</defs>
</svg>
