<svg width="90" height="45" viewBox="0 0 90 45" fill="none" xmlns="http://www.w3.org/2000/svg">
<path fill-rule="evenodd" clip-rule="evenodd" d="M85 0H5V2H3V4H1V41H3V43H5V45H85V43H87V41H89V4H87V2H85V0Z" fill="#FFF7D8"/>
<rect x="5" width="80" height="1" fill="#FF7C06"/>
<rect x="3" y="1" width="2" height="1" fill="#FF7C06"/>
<rect x="1" y="2" width="2" height="1" fill="#FF7C06"/>
<rect x="3" y="43" width="2" height="1" transform="rotate(-180 3 43)" fill="#FF7C06"/>
<rect x="5" y="44" width="2" height="1" transform="rotate(-180 5 44)" fill="#FF7C06"/>
<rect width="80" height="1" transform="matrix(-1 -2.18557e-09 3.49691e-06 -1 85 45)" fill="#FF7C06"/>
<rect x="5" y="1" width="80" height="1" fill="#FFC088"/>
<rect x="3" y="2" width="2" height="1" fill="#FFC088"/>
<rect x="1" y="3" width="2" height="1" fill="#FFC088"/>
<rect x="3" y="42" width="2" height="1" transform="rotate(-180 3 42)" fill="#FFC088"/>
<rect x="5" y="43" width="2" height="1" transform="rotate(-180 5 43)" fill="#FFC088"/>
<rect width="80" height="1" transform="matrix(-1 -2.18557e-09 3.49691e-06 -1 85 44)" fill="#FFC088"/>
<rect y="3" width="1" height="39" fill="#FF7C06"/>
<rect x="85" y="43" width="2" height="1" fill="#FF7C06"/>
<rect x="87" y="42" width="2" height="1" fill="#FF7C06"/>
<rect x="85" y="42" width="2" height="1" fill="#FFC088"/>
<rect x="87" y="41" width="2" height="1" fill="#FFC088"/>
<rect x="89" y="3" width="1" height="39" fill="#FF7C06"/>
<rect x="85" y="1" width="2" height="1" fill="#FF7C06"/>
<rect x="85" y="2" width="2" height="1" fill="#FFC088"/>
<rect x="87" y="2" width="2" height="1" fill="#FF7C06"/>
<rect x="87" y="3" width="2" height="1" fill="#FFC088"/>
</svg>
