<svg width="125" height="63" viewBox="0 0 125 63" fill="none" xmlns="http://www.w3.org/2000/svg">
<path fill-rule="evenodd" clip-rule="evenodd" d="M118.053 0H6.94227V2.77778H4.1645V5.55556H1.38672V56.9444H4.1645V59.7222H6.94227V62.5H118.053V59.7222H120.831V56.9444H123.609V5.55556H120.831V2.77778H118.053V0Z" fill="#FFF7D8"/>
<rect x="6.94531" width="111.111" height="1.38889" fill="#FF7C06"/>
<rect x="4.16797" y="1.38867" width="2.77778" height="1.38889" fill="#FF7C06"/>
<rect x="1.39062" y="2.77734" width="2.77778" height="1.38889" fill="#FF7C06"/>
<rect x="4.16797" y="59.7227" width="2.77778" height="1.38889" transform="rotate(-180 4.16797 59.7227)" fill="#FF7C06"/>
<rect x="6.94531" y="61.1113" width="2.77778" height="1.38889" transform="rotate(-180 6.94531 61.1113)" fill="#FF7C06"/>
<rect width="111.111" height="1.38889" transform="matrix(-1 -2.18557e-09 3.49691e-06 -1 118.055 62.5)" fill="#FF7C06"/>
<rect x="6.94531" y="1.38867" width="111.111" height="1.38889" fill="#FFC088"/>
<rect x="4.16797" y="2.77734" width="2.77778" height="1.38889" fill="#FFC088"/>
<rect x="1.39062" y="4.16699" width="2.77778" height="1.38889" fill="#FFC088"/>
<rect x="4.16797" y="58.333" width="2.77778" height="1.38889" transform="rotate(-180 4.16797 58.333)" fill="#FFC088"/>
<rect x="6.94531" y="59.7227" width="2.77778" height="1.38889" transform="rotate(-180 6.94531 59.7227)" fill="#FFC088"/>
<rect width="111.111" height="1.38889" transform="matrix(-1 -2.18557e-09 3.49691e-06 -1 118.055 61.1113)" fill="#FFC088"/>
<rect y="4.16699" width="1.38889" height="54.1667" fill="#FF7C06"/>
<rect x="118.055" y="59.7227" width="2.77778" height="1.38889" fill="#FF7C06"/>
<rect x="120.832" y="58.333" width="2.77778" height="1.38889" fill="#FF7C06"/>
<rect x="118.055" y="58.333" width="2.77778" height="1.38889" fill="#FFC088"/>
<rect x="120.832" y="56.9443" width="2.77778" height="1.38889" fill="#FFC088"/>
<rect x="123.609" y="4.16699" width="1.38889" height="54.1667" fill="#FF7C06"/>
<rect x="118.055" y="1.38867" width="2.77778" height="1.38889" fill="#FF7C06"/>
<rect x="118.055" y="2.77734" width="2.77778" height="1.38889" fill="#FFC088"/>
<rect x="120.832" y="2.77734" width="2.77778" height="1.38889" fill="#FF7C06"/>
<rect x="120.832" y="4.16699" width="2.77778" height="1.38889" fill="#FFC088"/>
</svg>
