<svg width="178" height="60" viewBox="0 0 178 60" fill="none" xmlns="http://www.w3.org/2000/svg">
<rect x="2" y="17" width="174" height="37" fill="white"/>
<rect x="174" y="54" width="2" height="2" fill="black"/>
<rect width="2" height="2" transform="matrix(-1 0 0 1 4 54)" fill="black"/>
<rect width="2" height="2" transform="matrix(-1 0 0 1 4 52)" fill="#5A5A5A"/>
<rect width="2" height="2" transform="matrix(-1 0 0 1 4 50)" fill="#AFAFAF"/>
<rect width="2" height="2" transform="matrix(-1 0 0 1 174 54)" fill="#5A5A5A"/>
<rect width="2" height="2" transform="matrix(-1 0 0 1 176 52)" fill="#5A5A5A"/>
<rect width="2" height="2" transform="matrix(-1 0 0 1 174 52)" fill="#AFAFAF"/>
<rect width="2" height="2" transform="matrix(-1 0 0 1 176 50)" fill="#AFAFAF"/>
<rect width="2" height="2" transform="matrix(-1 0 0 1 6 54)" fill="#5A5A5A"/>
<rect width="2" height="2" transform="matrix(-1 0 0 1 6 52)" fill="#AFAFAF"/>
<rect width="166" height="2" transform="matrix(-1 0 0 1 172 56)" fill="#5A5A5A"/>
<rect width="166" height="2" transform="matrix(-1 0 0 1 172 54)" fill="#AFAFAF"/>
<rect x="174" y="15" width="2" height="2" fill="black"/>
<rect width="2" height="2" transform="matrix(-1 0 0 1 4 15)" fill="black"/>
<rect x="172" y="56" width="2" height="2" fill="black"/>
<rect width="2" height="2" transform="matrix(-1 0 0 1 6 56)" fill="black"/>
<rect x="6" y="58" width="166" height="2" fill="black"/>
<rect x="176" y="17" width="2" height="37" fill="black"/>
<rect width="2" height="37" transform="matrix(-1 0 0 1 2 17)" fill="black"/>
<path fill-rule="evenodd" clip-rule="evenodd" d="M170 0H8V2H6V4H4V47H6V49H8V51H170V49H172V47H174V4H172V2H170V0ZM170 2V4H172V47H170V49H8V47H6V4H8V2H170Z" fill="black"/>
<path fill-rule="evenodd" clip-rule="evenodd" d="M170 2H8V4H6V46H172V4H170V2Z" fill="#1FCC03"/>
<rect x="6" y="4" width="2" height="2" fill="#D1FF96"/>
<rect x="172" y="4" width="2" height="2" transform="rotate(90 172 4)" fill="#D1FF96"/>
<rect x="172" y="41" width="2" height="2" transform="rotate(-180 172 41)" fill="#D1FF96"/>
<rect x="6" y="41" width="2" height="2" transform="rotate(-90 6 41)" fill="#D1FF96"/>
<rect x="6" y="47" width="6" height="2" transform="rotate(-90 6 47)" fill="#468C00"/>
<rect x="8" y="4" width="2" height="2" fill="#039800"/>
<rect x="172" y="6" width="2" height="2" transform="rotate(90 172 6)" fill="#039800"/>
<rect x="170" y="41" width="2" height="2" transform="rotate(-180 170 41)" fill="#039800"/>
<rect x="6" y="39" width="2" height="2" transform="rotate(-90 6 39)" fill="#039800"/>
<rect x="6" y="6" width="2" height="2" fill="#039800"/>
<rect x="170" y="4" width="2" height="2" transform="rotate(90 170 4)" fill="#039800"/>
<rect x="172" y="39" width="2" height="2" transform="rotate(-180 172 39)" fill="#039800"/>
<rect x="8" y="41" width="2" height="2" transform="rotate(-90 8 41)" fill="#039800"/>
<rect x="172" y="47" width="2" height="6" transform="rotate(-180 172 47)" fill="#468C00"/>
<rect x="170" y="49" width="162" height="5.99999" transform="rotate(-180 170 49)" fill="#468C00"/>
<rect x="8" y="2" width="162" height="2" fill="#D1FF96"/>
<rect x="8" y="41" width="162" height="2" fill="#D1FF96"/>
<rect x="16" y="49" width="6" height="4" transform="rotate(-90 16 49)" fill="#E3FF95"/>
<rect width="6" height="4" transform="matrix(-1.31134e-07 -1 -1 1.31134e-07 158 49)" fill="#E3FF95"/>
<rect x="21" y="49" width="6" height="3" transform="rotate(-90 21 49)" fill="#E3FF95"/>
<rect width="6" height="3" transform="matrix(-1.31134e-07 -1 -1 1.31134e-07 153 49)" fill="#E3FF95"/>
<rect x="25" y="49" width="6" height="2" transform="rotate(-90 25 49)" fill="#E3FF95"/>
<rect width="6" height="2" transform="matrix(-1.31134e-07 -1 -1 1.31134e-07 149 49)" fill="#E3FF95"/>
<rect x="28" y="49" width="6" height="0.999999" transform="rotate(-90 28 49)" fill="#E3FF95"/>
<rect width="6" height="0.999999" transform="matrix(-1.31134e-07 -1 -1 1.31134e-07 146 49)" fill="#E3FF95"/>
<path d="M19.8225 27.7901V29.2111H21.2337V30.6322H22.645H24.0562H25.4675H26.8787H28.29V29.2111H29.7012V27.7901H28.29V26.369H26.8787H25.4675H24.0562H19.8225V24.9479H18.4112V23.5269H17V22.1058V20.6848V19.2637H18.4112V17.8427H19.8225V16.4216H22.645H24.0562H25.4675H29.7012V17.8427H31.1125V19.2637H32.5237V22.1058H29.7012V20.6848H28.29V19.2637H26.8787H25.4675H24.0562H22.645H21.2337V20.6848H19.8225V22.1058H21.2337V23.5269H22.645H24.0562H25.4675H29.7012V24.9479H31.1125V26.369H32.5237V27.7901V29.2111V30.6322H31.1125V32.0532H29.7012V33.4743H25.4675H24.0562H19.8225V32.0532H18.4112V30.6322H17V27.7901H19.8225Z" fill="#393939"/>
<path d="M35.3538 19.2637V17.8427V16.4216H36.765H38.1763H42.41H48.055V17.8427H49.4662V19.2637H50.8775V22.1058V23.5269V24.9479H49.4662V26.369H48.055V27.7901H42.41H38.1763V33.4743H35.3538V27.7901V26.369V24.9479V23.5269V22.1058V20.6848V19.2637ZM42.41 19.2637H39.5875H38.1763V23.5269V24.9479H39.5875H42.41H43.8212H45.2325H46.6437V23.5269H48.055V22.1058V20.6848H46.6437V19.2637H45.2325H43.8212H42.41Z" fill="#393939"/>
<path d="M53.7075 32.0532V30.6322V27.7901V24.9479V23.5269V22.1058H55.1188V20.6848H56.53V19.2637H57.9412V17.8427H59.3525V16.4216H63.5862V17.8427H64.9975V19.2637H66.4087V20.6848H67.82V22.1058H69.2312V23.5269V24.9479V27.7901V30.6322V32.0532V33.4743H67.82H66.4087V32.0532V30.6322V27.7901H56.53V30.6322V32.0532V33.4743H55.1188H53.7075V32.0532ZM66.4087 24.9479V23.5269H64.9975V22.1058H63.5862V20.6848H62.175V19.2637H60.7637V20.6848H59.3525V22.1058H57.9412V23.5269H56.53V24.9479H66.4087Z" fill="#393939"/>
<path d="M79.1175 19.2637H77.7063H76.295V20.6848H74.8838V22.1058V23.5269V26.369V27.7901V29.2111H76.295V30.6322H77.7063H79.1175H80.5287H81.94H83.3512V29.2111H84.7625V27.7901H87.585V30.6322H86.1737V32.0532H84.7625V33.4743H80.5287H79.1175H74.8838V32.0532H73.4725V30.6322H72.0613V27.7901V26.369V24.9479V23.5269V19.2637H73.4725V17.8427H74.8838V16.4216H77.7063H79.1175H80.5287H84.7625V17.8427H86.1737V19.2637H87.585V22.1058H84.7625V20.6848H83.3512V19.2637H81.94H80.5287H79.1175Z" fill="#393939"/>
<path d="M90.415 19.2637V17.8427V16.4216H91.8263H93.2375H97.4713H105.939V19.2637H104.527H103.116H100.294H98.8825H97.4713H94.6488H93.2375V23.5269H103.116V26.369H93.2375V30.6322H94.6488H97.4713H98.8825H100.294H103.116H104.527H105.939V33.4743H97.4713H93.2375H91.8263H90.415V32.0532V30.6322V29.2111V26.369V24.9479V23.5269V22.1058V20.6848V19.2637Z" fill="#393939"/>
<path d="M108.769 19.2637V17.8427V16.4216H110.18H111.591H115.825H121.47V17.8427H122.881V19.2637H124.292V22.1058V23.5269H122.881V24.9479V26.369H124.292V30.6322H122.881V32.0532H121.47V33.4743H115.825H111.591H110.18H108.769V32.0532V30.6322V29.2111V26.369V24.9479V23.5269V22.1058V20.6848V19.2637ZM113.003 30.6322H115.825H117.236H118.647H120.059V29.2111H121.47V27.7901H120.059V26.369H111.591V30.6322H113.003ZM115.825 19.2637H113.003H111.591V23.5269H120.059V22.1058H121.47V20.6848H120.059V19.2637H118.647H117.236H115.825Z" fill="#393939"/>
<path d="M127.123 32.0532V30.6322V27.7901V24.9479V23.5269V22.1058H128.534V20.6848H129.945V19.2637H131.356V17.8427H132.768V16.4216H137.001V17.8427H138.413V19.2637H139.824V20.6848H141.235V22.1058H142.646V23.5269V24.9479V27.7901V30.6322V32.0532V33.4743H141.235H139.824V32.0532V30.6322V27.7901H129.945V30.6322V32.0532V33.4743H128.534H127.123V32.0532ZM139.824 24.9479V23.5269H138.413V22.1058H137.001V20.6848H135.59V19.2637H134.179V20.6848H132.768V22.1058H131.356V23.5269H129.945V24.9479H139.824Z" fill="#393939"/>
<path d="M145.476 19.2637V17.8427V16.4216H146.888H148.299H152.533H158.178V17.8427H159.589V19.2637H161V22.1058V23.5269V24.9479H159.589V26.369H158.178V27.7901V29.2111H159.589V30.6322H161V32.0532V33.4743H158.178V32.0532H156.766V30.6322H155.355V29.2111H153.944V27.7901H152.533H148.299V33.4743H145.476V27.7901V26.369V24.9479V23.5269V22.1058V20.6848V19.2637ZM152.533 19.2637H149.71H148.299V23.5269V24.9479H149.71H151.121H152.533H153.944H155.355H156.766V23.5269H158.178V22.1058V20.6848H156.766V19.2637H155.355H153.944H152.533Z" fill="#393939"/>
<path d="M19.8225 25.8945V27.3156H21.2337V28.7366H22.645H24.0562H25.4675H26.8787H28.29V27.3156H29.7012V25.8945H28.29V24.4735H26.8787H25.4675H24.0562H19.8225V23.0524H18.4112V21.6314H17V20.2103V18.7893V17.3682H18.4112V15.9472H19.8225V14.5261H22.645H24.0562H25.4675H29.7012V15.9472H31.1125V17.3682H32.5237V20.2103H29.7012V18.7893H28.29V17.3682H26.8787H25.4675H24.0562H22.645H21.2337V18.7893H19.8225V20.2103H21.2337V21.6314H22.645H24.0562H25.4675H29.7012V23.0524H31.1125V24.4735H32.5237V25.8945V27.3156V28.7366H31.1125V30.1577H29.7012V31.5788H25.4675H24.0562H19.8225V30.1577H18.4112V28.7366H17V25.8945H19.8225Z" fill="white"/>
<path d="M35.3538 17.3682V15.9472V14.5261H36.765H38.1763H42.41H48.055V15.9472H49.4662V17.3682H50.8775V20.2103V21.6314V23.0524H49.4662V24.4735H48.055V25.8945H42.41H38.1763V31.5788H35.3538V25.8945V24.4735V23.0524V21.6314V20.2103V18.7893V17.3682ZM42.41 17.3682H39.5875H38.1763V21.6314V23.0524H39.5875H42.41H43.8212H45.2325H46.6437V21.6314H48.055V20.2103V18.7893H46.6437V17.3682H45.2325H43.8212H42.41Z" fill="white"/>
<path d="M53.7075 30.1577V28.7366V25.8945V23.0524V21.6314V20.2103H55.1188V18.7893H56.53V17.3682H57.9412V15.9472H59.3525V14.5261H63.5862V15.9472H64.9975V17.3682H66.4087V18.7893H67.82V20.2103H69.2312V21.6314V23.0524V25.8945V28.7366V30.1577V31.5788H67.82H66.4087V30.1577V28.7366V25.8945H56.53V28.7366V30.1577V31.5788H55.1188H53.7075V30.1577ZM66.4087 23.0524V21.6314H64.9975V20.2103H63.5862V18.7893H62.175V17.3682H60.7637V18.7893H59.3525V20.2103H57.9412V21.6314H56.53V23.0524H66.4087Z" fill="white"/>
<path d="M79.1175 17.3682H77.7063H76.295V18.7893H74.8838V20.2103V21.6314V24.4735V25.8945V27.3156H76.295V28.7366H77.7063H79.1175H80.5287H81.94H83.3512V27.3156H84.7625V25.8945H87.585V28.7366H86.1737V30.1577H84.7625V31.5788H80.5287H79.1175H74.8838V30.1577H73.4725V28.7366H72.0613V25.8945V24.4735V23.0524V21.6314V17.3682H73.4725V15.9472H74.8838V14.5261H77.7063H79.1175H80.5287H84.7625V15.9472H86.1737V17.3682H87.585V20.2103H84.7625V18.7893H83.3512V17.3682H81.94H80.5287H79.1175Z" fill="white"/>
<path d="M90.415 17.3682V15.9472V14.5261H91.8263H93.2375H97.4713H105.939V17.3682H104.527H103.116H100.294H98.8825H97.4713H94.6488H93.2375V21.6314H103.116V24.4735H93.2375V28.7366H94.6488H97.4713H98.8825H100.294H103.116H104.527H105.939V31.5788H97.4713H93.2375H91.8263H90.415V30.1577V28.7366V27.3156V24.4735V23.0524V21.6314V20.2103V18.7893V17.3682Z" fill="white"/>
<path d="M108.769 17.3682V15.9472V14.5261H110.18H111.591H115.825H121.47V15.9472H122.881V17.3682H124.292V20.2103V21.6314H122.881V23.0524V24.4735H124.292V28.7366H122.881V30.1577H121.47V31.5788H115.825H111.591H110.18H108.769V30.1577V28.7366V27.3156V24.4735V23.0524V21.6314V20.2103V18.7893V17.3682ZM113.003 28.7366H115.825H117.236H118.647H120.059V27.3156H121.47V25.8945H120.059V24.4735H111.591V28.7366H113.003ZM115.825 17.3682H113.003H111.591V21.6314H120.059V20.2103H121.47V18.7893H120.059V17.3682H118.647H117.236H115.825Z" fill="white"/>
<path d="M127.123 30.1577V28.7366V25.8945V23.0524V21.6314V20.2103H128.534V18.7893H129.945V17.3682H131.356V15.9472H132.768V14.5261H137.001V15.9472H138.413V17.3682H139.824V18.7893H141.235V20.2103H142.646V21.6314V23.0524V25.8945V28.7366V30.1577V31.5788H141.235H139.824V30.1577V28.7366V25.8945H129.945V28.7366V30.1577V31.5788H128.534H127.123V30.1577ZM139.824 23.0524V21.6314H138.413V20.2103H137.001V18.7893H135.59V17.3682H134.179V18.7893H132.768V20.2103H131.356V21.6314H129.945V23.0524H139.824Z" fill="white"/>
<path d="M145.476 17.3682V15.9472V14.5261H146.888H148.299H152.533H158.178V15.9472H159.589V17.3682H161V20.2103V21.6314V23.0524H159.589V24.4735H158.178V25.8945V27.3156H159.589V28.7366H161V30.1577V31.5788H158.178V30.1577H156.766V28.7366H155.355V27.3156H153.944V25.8945H152.533H148.299V31.5788H145.476V25.8945V24.4735V23.0524V21.6314V20.2103V18.7893V17.3682ZM152.533 17.3682H149.71H148.299V21.6314V23.0524H149.71H151.121H152.533H153.944H155.355H156.766V21.6314H158.178V20.2103V18.7893H156.766V17.3682H155.355H153.944H152.533Z" fill="white"/>
</svg>
