<svg width="153" height="87" viewBox="0 0 153 87" fill="none" xmlns="http://www.w3.org/2000/svg">
<rect width="146.623" height="79.6865" transform="matrix(-1 0 0 1 149.816 3.18652)" fill="#FFF7D8"/>
<rect width="79.6865" height="3.18746" transform="matrix(-1 0 0 1 149.816 82.875)" fill="#DA0000"/>
<rect width="79.6865" height="3.18746" transform="matrix(-1.19249e-08 -1 -1 1.19249e-08 153 82.875)" fill="#DA0000"/>
<rect width="79.6865" height="3.18746" transform="matrix(-1.19249e-08 -1 -1 1.19249e-08 3.1875 82.875)" fill="#DA0000"/>
<rect width="79.6865" height="3.18746" transform="matrix(-1.19249e-08 -1 -1 1.19249e-08 70.125 82.875)" fill="#DA0000"/>
<rect width="79.6865" height="3.18746" transform="matrix(-1 0 0 1 149.816 0)" fill="#DA0000"/>
<rect width="79.6865" height="3.18746" transform="matrix(-1 0 0 1 149.816 3.18652)" fill="#FF9688"/>
<rect width="79.6865" height="3.18746" transform="matrix(-1 0 0 1 149.816 79.6855)" fill="#FF9688"/>
<rect width="66.9367" height="3.18746" transform="matrix(-1 0 0 1 70.1328 0)" fill="#DA0000"/>
<rect width="66.9367" height="3.18746" transform="matrix(-1 0 0 1 70.1328 82.873)" fill="#DA0000"/>
</svg>
