<svg width="16" height="17" viewBox="0 0 16 17" fill="none" xmlns="http://www.w3.org/2000/svg">
<path d="M8.86142 0.531982H9.84546V1.51602H8.86142V0.531982Z" fill="#16171A"/>
<path d="M7.87876 0.531982H8.86279V1.51602H7.87876V0.531982Z" fill="#16171A"/>
<path d="M6.89634 0.531982H7.88037V1.51602H6.89634V0.531982Z" fill="#16171A"/>
<path d="M5.91367 0.531982H6.89771V1.51602H5.91367V0.531982Z" fill="#16171A"/>
<path d="M10.8329 1.51624H11.8169V2.50027H10.8329V1.51624Z" fill="#16171A"/>
<path d="M9.85044 1.51624H10.8345V2.50027H9.85044V1.51624Z" fill="#16171A"/>
<path d="M8.86142 1.51624H9.84546V2.50027H8.86142V1.51624Z" fill="#FAFDFF"/>
<path d="M7.87876 1.51624H8.86279V2.50027H7.87876V1.51624Z" fill="#FAFDFF"/>
<path d="M6.89634 1.51624H7.88037V2.50027H6.89634V1.51624Z" fill="#FAFDFF"/>
<path d="M5.91367 1.51624H6.89771V2.50027H5.91367V1.51624Z" fill="#FAFDFF"/>
<path d="M4.92466 1.51624H5.90869V2.50027H4.92466V1.51624Z" fill="#16171A"/>
<path d="M3.94858 1.51624H4.93262V2.50027H3.94858V1.51624Z" fill="#16171A"/>
<path d="M11.8158 2.49963H12.7998V3.48367H11.8158V2.49963Z" fill="#16171A"/>
<path d="M10.8329 2.49988H11.8169V3.48391H10.8329V2.49988Z" fill="#FAFDFF"/>
<path d="M9.85044 2.49963H10.8345V3.48367H9.85044V2.49963Z" fill="#FAFDFF"/>
<path d="M8.86142 2.49963H9.84546V3.48367H8.86142V2.49963Z" fill="#FFBD82"/>
<path d="M7.87876 2.49963H8.86279V3.48367H7.87876V2.49963Z" fill="#FFBD82"/>
<path d="M6.89634 2.49963H7.88037V3.48367H6.89634V2.49963Z" fill="#FFBD82"/>
<path d="M5.91367 2.49963H6.89771V3.48367H5.91367V2.49963Z" fill="#FFBD82"/>
<path d="M4.92466 2.49963H5.90869V3.48367H4.92466V2.49963Z" fill="#FAFDFF"/>
<path d="M3.94858 2.49988H4.93262V3.48391H3.94858V2.49988Z" fill="#FAFDFF"/>
<path d="M2.96567 2.49963H3.94971V3.48367H2.96567V2.49963Z" fill="#16171A"/>
<path d="M12.7984 3.48389H13.7825V4.46792H12.7984V3.48389Z" fill="#16171A"/>
<path d="M11.8158 3.48389H12.7998V4.46792H11.8158V3.48389Z" fill="#FAFDFF"/>
<path d="M10.8329 3.48413H11.8169V4.46817H10.8329V3.48413Z" fill="#FFBD82"/>
<path d="M9.85044 3.48389H10.8345V4.46792H9.85044V3.48389Z" fill="#FFBD82"/>
<path d="M8.86142 3.48389H9.84546V4.46792H8.86142V3.48389Z" fill="#FFBD82"/>
<path d="M7.87876 3.48389H8.86279V4.46792H7.87876V3.48389Z" fill="#FFBD82"/>
<path d="M6.89634 3.48389H7.88037V4.46792H6.89634V3.48389Z" fill="#FFBD82"/>
<path d="M5.91367 3.48389H6.89771V4.46792H5.91367V3.48389Z" fill="#FFBD82"/>
<path d="M4.92466 3.48389H5.90869V4.46792H4.92466V3.48389Z" fill="#FFBD82"/>
<path d="M3.94858 3.48413H4.93262V4.46817H3.94858V3.48413Z" fill="#FFBD82"/>
<path d="M2.96567 3.48389H3.94971V4.46792H2.96567V3.48389Z" fill="#FAFDFF"/>
<path d="M1.98301 3.48389H2.96704V4.46792H1.98301V3.48389Z" fill="#16171A"/>
<path d="M13.7874 4.46814H14.7715V5.45218H13.7874V4.46814Z" fill="#16171A"/>
<path d="M12.7984 4.46814H13.7825V5.45218H12.7984V4.46814Z" fill="#FAFDFF"/>
<path d="M11.8158 4.46814H12.7998V5.45218H11.8158V4.46814Z" fill="#FFBD82"/>
<path d="M10.8329 4.46851H11.8169V5.45254H10.8329V4.46851Z" fill="#FFBD82"/>
<path d="M9.85044 4.46814H10.8345V5.45218H9.85044V4.46814Z" fill="#16171A"/>
<path d="M8.86142 4.46814H9.84546V5.45218H8.86142V4.46814Z" fill="#16171A"/>
<path d="M7.87876 4.46814H8.86279V5.45218H7.87876V4.46814Z" fill="#FFBD82"/>
<path d="M6.89634 4.46814H7.88037V5.45218H6.89634V4.46814Z" fill="#FFBD82"/>
<path d="M5.91367 4.46814H6.89771V5.45218H5.91367V4.46814Z" fill="#16171A"/>
<path d="M4.92466 4.46814H5.90869V5.45218H4.92466V4.46814Z" fill="#16171A"/>
<path d="M3.94858 4.46851H4.93262V5.45254H3.94858V4.46851Z" fill="#FFBD82"/>
<path d="M2.96567 4.46814H3.94971V5.45218H2.96567V4.46814Z" fill="#FFBD82"/>
<path d="M1.98301 4.46814H2.96704V5.45218H1.98301V4.46814Z" fill="#FF8426"/>
<path d="M0.993991 4.46814H1.97803V5.45218H0.993991V4.46814Z" fill="#16171A"/>
<path d="M13.7874 5.45239H14.7715V6.43643H13.7874V5.45239Z" fill="#16171A"/>
<path d="M12.7984 5.45239H13.7825V6.43643H12.7984V5.45239Z" fill="#FAFDFF"/>
<path d="M11.8158 5.45239H12.7998V6.43643H11.8158V5.45239Z" fill="#FFBD82"/>
<path d="M10.8329 5.45203H11.8169V6.43606H10.8329V5.45203Z" fill="#16171A"/>
<path d="M9.85044 5.45239H10.8345V6.43643H9.85044V5.45239Z" fill="#FAFDFF"/>
<path d="M8.86142 5.45239H9.84546V6.43643H8.86142V5.45239Z" fill="#FAFDFF"/>
<path d="M7.87876 5.45239H8.86279V6.43643H7.87876V5.45239Z" fill="#16171A"/>
<path d="M6.89634 5.45239H7.88037V6.43643H6.89634V5.45239Z" fill="#16171A"/>
<path d="M5.91367 5.45239H6.89771V6.43643H5.91367V5.45239Z" fill="#FAFDFF"/>
<path d="M4.92466 5.45239H5.90869V6.43643H4.92466V5.45239Z" fill="#FAFDFF"/>
<path d="M3.94858 5.45203H4.93262V6.43606H3.94858V5.45203Z" fill="#16171A"/>
<path d="M2.96567 5.45239H3.94971V6.43643H2.96567V5.45239Z" fill="#FFBD82"/>
<path d="M1.98301 5.45239H2.96704V6.43643H1.98301V5.45239Z" fill="#FF8426"/>
<path d="M0.993991 5.45239H1.97803V6.43643H0.993991V5.45239Z" fill="#16171A"/>
<path d="M14.7701 6.4364H15.7542V7.42044H14.7701V6.4364Z" fill="#16171A"/>
<path d="M13.7874 6.43652H14.7715V7.42056H13.7874V6.43652Z" fill="#FAFDFF"/>
<path d="M12.7984 6.43652H13.7825V7.42056H12.7984V6.43652Z" fill="#FFBD82"/>
<path d="M11.8158 6.43652H12.7998V7.42056H11.8158V6.43652Z" fill="#16171A"/>
<path d="M10.8329 6.4364H11.8169V7.42044H10.8329V6.4364Z" fill="#FAFDFF"/>
<path d="M9.85044 6.43652H10.8345V7.42056H9.85044V6.43652Z" fill="#FF6969"/>
<path d="M8.86142 6.43652H9.84546V7.42056H8.86142V6.43652Z" fill="#FF6969"/>
<path d="M7.87876 6.43652H8.86279V7.42056H7.87876V6.43652Z" fill="#FAFDFF"/>
<path d="M6.89634 6.43652H7.88037V7.42056H6.89634V6.43652Z" fill="#FAFDFF"/>
<path d="M5.91367 6.43652H6.89771V7.42056H5.91367V6.43652Z" fill="#FF6969"/>
<path d="M4.92466 6.43652H5.90869V7.42056H4.92466V6.43652Z" fill="#FF6969"/>
<path d="M3.94858 6.4364H4.93262V7.42044H3.94858V6.4364Z" fill="#FF2626"/>
<path d="M2.96567 6.43652H3.94971V7.42056H2.96567V6.43652Z" fill="#16171A"/>
<path d="M1.98301 6.43652H2.96704V7.42056H1.98301V6.43652Z" fill="#FFBD82"/>
<path d="M0.993991 6.43652H1.97803V7.42056H0.993991V6.43652Z" fill="#FF8426"/>
<path d="M0.0113254 6.4364H0.995361V7.42044H0.0113254V6.4364Z" fill="#16171A"/>
<path d="M14.7701 7.41992H15.7542V8.40396H14.7701V7.41992Z" fill="#16171A"/>
<path d="M13.7874 7.42004H14.7715V8.40408H13.7874V7.42004Z" fill="#FAFDFF"/>
<path d="M12.7984 7.42004H13.7825V8.40408H12.7984V7.42004Z" fill="#FFBD82"/>
<path d="M11.8158 7.42004H12.7998V8.40408H11.8158V7.42004Z" fill="#16171A"/>
<path d="M10.8329 7.41992H11.8169V8.40396H10.8329V7.41992Z" fill="#FAFDFF"/>
<path d="M9.85044 7.42004H10.8345V8.40408H9.85044V7.42004Z" fill="#FF6969"/>
<path d="M8.86142 7.42004H9.84546V8.40408H8.86142V7.42004Z" fill="#FF6969"/>
<path d="M7.87876 7.42004H8.86279V8.40408H7.87876V7.42004Z" fill="#FF6969"/>
<path d="M6.89634 7.42004H7.88037V8.40408H6.89634V7.42004Z" fill="#FF6969"/>
<path d="M5.91367 7.42004H6.89771V8.40408H5.91367V7.42004Z" fill="#FF6969"/>
<path d="M4.92466 7.42004H5.90869V8.40408H4.92466V7.42004Z" fill="#FF6969"/>
<path d="M3.94858 7.41992H4.93262V8.40396H3.94858V7.41992Z" fill="#FF2626"/>
<path d="M2.96567 7.42004H3.94971V8.40408H2.96567V7.42004Z" fill="#16171A"/>
<path d="M1.98301 7.42004H2.96704V8.40408H1.98301V7.42004Z" fill="#FFBD82"/>
<path d="M0.993991 7.42004H1.97803V8.40408H0.993991V7.42004Z" fill="#FF8426"/>
<path d="M0.0113254 7.41992H0.995361V8.40396H0.0113254V7.41992Z" fill="#16171A"/>
<path d="M14.7701 8.4043H15.7542V9.38833H14.7701V8.4043Z" fill="#16171A"/>
<path d="M13.7874 8.4043H14.7715V9.38833H13.7874V8.4043Z" fill="#FAFDFF"/>
<path d="M12.7984 8.4043H13.7825V9.38833H12.7984V8.4043Z" fill="#FFBD82"/>
<path d="M11.8158 8.4043H12.7998V9.38833H11.8158V8.4043Z" fill="#16171A"/>
<path d="M10.8329 8.4043H11.8169V9.38833H10.8329V8.4043Z" fill="#FAFDFF"/>
<path d="M9.85044 8.4043H10.8345V9.38833H9.85044V8.4043Z" fill="#FF6969"/>
<path d="M8.86142 8.4043H9.84546V9.38833H8.86142V8.4043Z" fill="#FF6969"/>
<path d="M7.87876 8.4043H8.86279V9.38833H7.87876V8.4043Z" fill="#FF6969"/>
<path d="M6.89634 8.4043H7.88037V9.38833H6.89634V8.4043Z" fill="#FF6969"/>
<path d="M5.91367 8.4043H6.89771V9.38833H5.91367V8.4043Z" fill="#FF6969"/>
<path d="M4.92466 8.4043H5.90869V9.38833H4.92466V8.4043Z" fill="#FF6969"/>
<path d="M3.94858 8.4043H4.93262V9.38833H3.94858V8.4043Z" fill="#FF2626"/>
<path d="M2.96567 8.4043H3.94971V9.38833H2.96567V8.4043Z" fill="#16171A"/>
<path d="M1.98301 8.4043H2.96704V9.38833H1.98301V8.4043Z" fill="#FFBD82"/>
<path d="M0.993991 8.4043H1.97803V9.38833H0.993991V8.4043Z" fill="#FF8426"/>
<path d="M0.0113254 8.4043H0.995361V9.38833H0.0113254V8.4043Z" fill="#16171A"/>
<path d="M14.7701 9.38855H15.7542V10.3726H14.7701V9.38855Z" fill="#16171A"/>
<path d="M13.7874 9.38843H14.7715V10.3725H13.7874V9.38843Z" fill="#FAFDFF"/>
<path d="M12.7984 9.38843H13.7825V10.3725H12.7984V9.38843Z" fill="#FFBD82"/>
<path d="M11.8158 9.38843H12.7998V10.3725H11.8158V9.38843Z" fill="#FFBD82"/>
<path d="M10.8329 9.38855H11.8169V10.3726H10.8329V9.38855Z" fill="#16171A"/>
<path d="M9.85044 9.38843H10.8345V10.3725H9.85044V9.38843Z" fill="#FF2626"/>
<path d="M8.86142 9.38843H9.84546V10.3725H8.86142V9.38843Z" fill="#FF6969"/>
<path d="M7.87876 9.38843H8.86279V10.3725H7.87876V9.38843Z" fill="#FF6969"/>
<path d="M6.89634 9.38843H7.88037V10.3725H6.89634V9.38843Z" fill="#FF6969"/>
<path d="M5.91367 9.38843H6.89771V10.3725H5.91367V9.38843Z" fill="#FF6969"/>
<path d="M4.92466 9.38843H5.90869V10.3725H4.92466V9.38843Z" fill="#FF2626"/>
<path d="M3.94858 9.38855H4.93262V10.3726H3.94858V9.38855Z" fill="#16171A"/>
<path d="M2.96567 9.38843H3.94971V10.3725H2.96567V9.38843Z" fill="#FFBD82"/>
<path d="M1.98301 9.38843H2.96704V10.3725H1.98301V9.38843Z" fill="#FFBD82"/>
<path d="M0.993991 9.38843H1.97803V10.3725H0.993991V9.38843Z" fill="#FF8426"/>
<path d="M0.0113254 9.38855H0.995361V10.3726H0.0113254V9.38855Z" fill="#16171A"/>
<path d="M13.7874 10.3719H14.7715V11.356H13.7874V10.3719Z" fill="#16171A"/>
<path d="M12.7984 10.3719H13.7825V11.356H12.7984V10.3719Z" fill="#FAFDFF"/>
<path d="M11.8158 10.3719H12.7998V11.356H11.8158V10.3719Z" fill="#FFBD82"/>
<path d="M10.8329 10.3721H11.8169V11.3561H10.8329V10.3721Z" fill="#FFBD82"/>
<path d="M9.85044 10.3719H10.8345V11.356H9.85044V10.3719Z" fill="#16171A"/>
<path d="M8.86142 10.3719H9.84546V11.356H8.86142V10.3719Z" fill="#FF2626"/>
<path d="M7.87876 10.3719H8.86279V11.356H7.87876V10.3719Z" fill="#FF6969"/>
<path d="M6.89634 10.3719H7.88037V11.356H6.89634V10.3719Z" fill="#FF6969"/>
<path d="M5.91367 10.3719H6.89771V11.356H5.91367V10.3719Z" fill="#FF2626"/>
<path d="M4.92466 10.3719H5.90869V11.356H4.92466V10.3719Z" fill="#16171A"/>
<path d="M3.94858 10.3721H4.93262V11.3561H3.94858V10.3721Z" fill="#FFBD82"/>
<path d="M2.96567 10.3719H3.94971V11.356H2.96567V10.3719Z" fill="#FFBD82"/>
<path d="M1.98301 10.3719H2.96704V11.356H1.98301V10.3719Z" fill="#FF8426"/>
<path d="M0.993991 10.3719H1.97803V11.356H0.993991V10.3719Z" fill="#16171A"/>
<path d="M13.7874 11.3562H14.7715V12.3402H13.7874V11.3562Z" fill="#16171A"/>
<path d="M12.7984 11.3562H13.7825V12.3402H12.7984V11.3562Z" fill="#FAFDFF"/>
<path d="M11.8158 11.3562H12.7998V12.3402H11.8158V11.3562Z" fill="#FFBD82"/>
<path d="M10.8329 11.3564H11.8169V12.3405H10.8329V11.3564Z" fill="#FFBD82"/>
<path d="M9.85044 11.3562H10.8345V12.3402H9.85044V11.3562Z" fill="#FFBD82"/>
<path d="M8.86142 11.3562H9.84546V12.3402H8.86142V11.3562Z" fill="#16171A"/>
<path d="M7.87876 11.3562H8.86279V12.3402H7.87876V11.3562Z" fill="#FF2626"/>
<path d="M6.89634 11.3562H7.88037V12.3402H6.89634V11.3562Z" fill="#FF2626"/>
<path d="M5.91367 11.3562H6.89771V12.3402H5.91367V11.3562Z" fill="#16171A"/>
<path d="M4.92466 11.3562H5.90869V12.3402H4.92466V11.3562Z" fill="#FFBD82"/>
<path d="M3.94858 11.3564H4.93262V12.3405H3.94858V11.3564Z" fill="#FFBD82"/>
<path d="M2.96567 11.3562H3.94971V12.3402H2.96567V11.3562Z" fill="#FFBD82"/>
<path d="M1.98301 11.3562H2.96704V12.3402H1.98301V11.3562Z" fill="#FF8426"/>
<path d="M0.993991 11.3562H1.97803V12.3402H0.993991V11.3562Z" fill="#16171A"/>
<path d="M12.7984 12.3403H13.7825V13.3244H12.7984V12.3403Z" fill="#16171A"/>
<path d="M11.8158 12.3403H12.7998V13.3244H11.8158V12.3403Z" fill="#FAFDFF"/>
<path d="M10.8329 12.3407H11.8169V13.3247H10.8329V12.3407Z" fill="#FFBD82"/>
<path d="M9.85044 12.3403H10.8345V13.3244H9.85044V12.3403Z" fill="#FFBD82"/>
<path d="M8.86142 12.3403H9.84546V13.3244H8.86142V12.3403Z" fill="#FFBD82"/>
<path d="M7.87876 12.3403H8.86279V13.3244H7.87876V12.3403Z" fill="#16171A"/>
<path d="M6.89634 12.3403H7.88037V13.3244H6.89634V12.3403Z" fill="#16171A"/>
<path d="M5.91367 12.3403H6.89771V13.3244H5.91367V12.3403Z" fill="#FFBD82"/>
<path d="M4.92466 12.3403H5.90869V13.3244H4.92466V12.3403Z" fill="#FFBD82"/>
<path d="M3.94858 12.3407H4.93262V13.3247H3.94858V12.3407Z" fill="#FFBD82"/>
<path d="M2.96567 12.3403H3.94971V13.3244H2.96567V12.3403Z" fill="#FF8426"/>
<path d="M1.98301 12.3403H2.96704V13.3244H1.98301V12.3403Z" fill="#16171A"/>
<path d="M11.8158 13.3246H12.7998V14.3086H11.8158V13.3246Z" fill="#16171A"/>
<path d="M10.8329 13.3243H11.8169V14.3084H10.8329V13.3243Z" fill="#FF8426"/>
<path d="M9.85044 13.3246H10.8345V14.3086H9.85044V13.3246Z" fill="#FF8426"/>
<path d="M8.86142 13.3246H9.84546V14.3086H8.86142V13.3246Z" fill="#FFBD82"/>
<path d="M7.87876 13.3246H8.86279V14.3086H7.87876V13.3246Z" fill="#FFBD82"/>
<path d="M6.89634 13.3246H7.88037V14.3086H6.89634V13.3246Z" fill="#FFBD82"/>
<path d="M5.91367 13.3246H6.89771V14.3086H5.91367V13.3246Z" fill="#FFBD82"/>
<path d="M4.92466 13.3246H5.90869V14.3086H4.92466V13.3246Z" fill="#FF8426"/>
<path d="M3.94858 13.3243H4.93262V14.3084H3.94858V13.3243Z" fill="#FF8426"/>
<path d="M2.96567 13.3246H3.94971V14.3086H2.96567V13.3246Z" fill="#16171A"/>
<path d="M10.8329 14.3086H11.8169V15.2926H10.8329V14.3086Z" fill="#16171A"/>
<path d="M9.85044 14.3088H10.8345V15.2929H9.85044V14.3088Z" fill="#16171A"/>
<path d="M8.86142 14.3088H9.84546V15.2929H8.86142V14.3088Z" fill="#FF8426"/>
<path d="M7.87876 14.3088H8.86279V15.2929H7.87876V14.3088Z" fill="#FF8426"/>
<path d="M6.89634 14.3088H7.88037V15.2929H6.89634V14.3088Z" fill="#FF8426"/>
<path d="M5.91367 14.3088H6.89771V15.2929H5.91367V14.3088Z" fill="#FF8426"/>
<path d="M4.92466 14.3088H5.90869V15.2929H4.92466V14.3088Z" fill="#16171A"/>
<path d="M3.94858 14.3086H4.93262V15.2926H3.94858V14.3086Z" fill="#16171A"/>
<path d="M8.86142 15.2922H9.84546V16.2763H8.86142V15.2922Z" fill="#16171A"/>
<path d="M7.87876 15.2922H8.86279V16.2763H7.87876V15.2922Z" fill="#16171A"/>
<path d="M6.89634 15.2922H7.88037V16.2763H6.89634V15.2922Z" fill="#16171A"/>
<path d="M5.91367 15.2922H6.89771V16.2763H5.91367V15.2922Z" fill="#16171A"/>
</svg>
