<svg width="17" height="17" viewBox="0 0 17 17" fill="none" xmlns="http://www.w3.org/2000/svg">
<path d="M7.51089 0.477173H6.52686V1.46121H7.51089V0.477173Z" fill="#16171A"/>
<path d="M8.49331 0.477173H7.50928V1.46121H8.49331V0.477173Z" fill="#16171A"/>
<path d="M9.47598 0.477173H8.49194V1.46121H9.47598V0.477173Z" fill="#16171A"/>
<path d="M10.4586 0.477173H9.47461V1.46121H10.4586V0.477173Z" fill="#16171A"/>
<path d="M5.53946 1.46155H4.55542V2.44558H5.53946V1.46155Z" fill="#16171A"/>
<path d="M6.52139 1.46143H5.53735V2.44546H6.52139V1.46143Z" fill="#16171A"/>
<path d="M7.51089 1.46143H6.52686V2.44546H7.51089V1.46143Z" fill="#FAFDFF"/>
<path d="M8.49331 1.46143H7.50928V2.44546H8.49331V1.46143Z" fill="#FAFDFF"/>
<path d="M9.47598 1.46143H8.49194V2.44546H9.47598V1.46143Z" fill="#FAFDFF"/>
<path d="M10.4586 1.46143H9.47461V2.44546H10.4586V1.46143Z" fill="#FAFDFF"/>
<path d="M11.4477 1.46143H10.4636V2.44546H11.4477V1.46143Z" fill="#16171A"/>
<path d="M12.4235 1.46155H11.4395V2.44558H12.4235V1.46155Z" fill="#16171A"/>
<path d="M4.55655 2.44482H3.57251V3.42886H4.55655V2.44482Z" fill="#16171A"/>
<path d="M5.53946 2.44507H4.55542V3.4291H5.53946V2.44507Z" fill="#FAFDFF"/>
<path d="M6.52139 2.44482H5.53735V3.42886H6.52139V2.44482Z" fill="#FAFDFF"/>
<path d="M7.51089 2.44482H6.52686V3.42886H7.51089V2.44482Z" fill="#FFBD82"/>
<path d="M8.49331 2.44482H7.50928V3.42886H8.49331V2.44482Z" fill="#FFBD82"/>
<path d="M9.47598 2.44482H8.49194V3.42886H9.47598V2.44482Z" fill="#FFBD82"/>
<path d="M10.4586 2.44482H9.47461V3.42886H10.4586V2.44482Z" fill="#FFBD82"/>
<path d="M11.4477 2.44482H10.4636V3.42886H11.4477V2.44482Z" fill="#FAFDFF"/>
<path d="M12.4235 2.44507H11.4395V3.4291H12.4235V2.44507Z" fill="#FAFDFF"/>
<path d="M13.4066 2.44482H12.4226V3.42886H13.4066V2.44482Z" fill="#16171A"/>
<path d="M3.57388 3.42908H2.58984V4.41311H3.57388V3.42908Z" fill="#16171A"/>
<path d="M4.55655 3.42908H3.57251V4.41311H4.55655V3.42908Z" fill="#FAFDFF"/>
<path d="M5.53946 3.42932H4.55542V4.41336H5.53946V3.42932Z" fill="#FFBD82"/>
<path d="M6.52139 3.42908H5.53735V4.41311H6.52139V3.42908Z" fill="#FFBD82"/>
<path d="M7.51089 3.42908H6.52686V4.41311H7.51089V3.42908Z" fill="#FFBD82"/>
<path d="M8.49331 3.42908H7.50928V4.41311H8.49331V3.42908Z" fill="#FFBD82"/>
<path d="M9.47598 3.42908H8.49194V4.41311H9.47598V3.42908Z" fill="#FFBD82"/>
<path d="M10.4586 3.42908H9.47461V4.41311H10.4586V3.42908Z" fill="#FFBD82"/>
<path d="M11.4477 3.42908H10.4636V4.41311H11.4477V3.42908Z" fill="#FFBD82"/>
<path d="M12.4235 3.42932H11.4395V4.41336H12.4235V3.42932Z" fill="#FFBD82"/>
<path d="M13.4066 3.42908H12.4226V4.41311H13.4066V3.42908Z" fill="#FAFDFF"/>
<path d="M14.3893 3.42908H13.4053V4.41311H14.3893V3.42908Z" fill="#16171A"/>
<path d="M2.58487 4.41333H1.60083V5.39737H2.58487V4.41333Z" fill="#16171A"/>
<path d="M3.57388 4.41333H2.58984V5.39737H3.57388V4.41333Z" fill="#FAFDFF"/>
<path d="M4.55655 4.41333H3.57251V5.39737H4.55655V4.41333Z" fill="#FFBD82"/>
<path d="M5.53946 4.4137H4.55542V5.39773H5.53946V4.4137Z" fill="#FFBD82"/>
<path d="M6.52139 4.41333H5.53735V5.39737H6.52139V4.41333Z" fill="#FFBD82"/>
<path d="M7.51089 4.41333H6.52686V5.39737H7.51089V4.41333Z" fill="#FFBD82"/>
<path d="M8.49331 4.41333H7.50928V5.39737H8.49331V4.41333Z" fill="#FFBD82"/>
<path d="M9.47598 4.41333H8.49194V5.39737H9.47598V4.41333Z" fill="#FFBD82"/>
<path d="M10.4586 4.41333H9.47461V5.39737H10.4586V4.41333Z" fill="#FFBD82"/>
<path d="M11.4477 4.41333H10.4636V5.39737H11.4477V4.41333Z" fill="#FFBD82"/>
<path d="M12.4235 4.4137H11.4395V5.39773H12.4235V4.4137Z" fill="#FFBD82"/>
<path d="M13.4066 4.41333H12.4226V5.39737H13.4066V4.41333Z" fill="#FFBD82"/>
<path d="M14.3893 4.41333H13.4053V5.39737H14.3893V4.41333Z" fill="#FF8426"/>
<path d="M15.3783 4.41333H14.3943V5.39737H15.3783V4.41333Z" fill="#16171A"/>
<path d="M2.58487 5.39758H1.60083V6.38162H2.58487V5.39758Z" fill="#16171A"/>
<path d="M3.57388 5.39758H2.58984V6.38162H3.57388V5.39758Z" fill="#FAFDFF"/>
<path d="M4.55655 5.39758H3.57251V6.38162H4.55655V5.39758Z" fill="#FFBD82"/>
<path d="M5.53946 5.39722H4.55542V6.38125H5.53946V5.39722Z" fill="#FFBD82"/>
<path d="M6.52139 5.39746H5.53735V6.3815H6.52139V5.39746Z" fill="#FFBD82"/>
<path d="M7.51089 5.39758H6.52686V6.38162H7.51089V5.39758Z" fill="#FFBD82"/>
<path d="M8.49331 5.39758H7.50928V6.38162H8.49331V5.39758Z" fill="#FFBD82"/>
<path d="M9.47598 5.39758H8.49194V6.38162H9.47598V5.39758Z" fill="#FFBD82"/>
<path d="M10.4586 5.39758H9.47461V6.38162H10.4586V5.39758Z" fill="#FFBD82"/>
<path d="M11.4477 5.39758H10.4636V6.38162H11.4477V5.39758Z" fill="#FFBD82"/>
<path d="M12.4235 5.39722H11.4395V6.38125H12.4235V5.39722Z" fill="#FFBD82"/>
<path d="M13.4066 5.39758H12.4226V6.38162H13.4066V5.39758Z" fill="#FFBD82"/>
<path d="M14.3893 5.39758H13.4053V6.38162H14.3893V5.39758Z" fill="#FF8426"/>
<path d="M15.3783 5.39758H14.3943V6.38162H15.3783V5.39758Z" fill="#16171A"/>
<path d="M1.6022 6.38159H0.618164V7.36563H1.6022V6.38159Z" fill="#16171A"/>
<path d="M2.58487 6.38171H1.60083V7.36575H2.58487V6.38171Z" fill="#FAFDFF"/>
<path d="M3.57388 6.38171H2.58984V7.36575H3.57388V6.38171Z" fill="#FFBD82"/>
<path d="M4.55655 6.38171H3.57251V7.36575H4.55655V6.38171Z" fill="#FFBD82"/>
<path d="M5.53946 6.38159H4.55542V7.36563H5.53946V6.38159Z" fill="#FFBD82"/>
<path d="M6.52139 6.38184H5.53735V7.36587H6.52139V6.38184Z" fill="#FFBD82"/>
<path d="M7.51089 6.38171H6.52686V7.36575H7.51089V6.38171Z" fill="#FFBD82"/>
<path d="M8.49331 6.38171H7.50928V7.36575H8.49331V6.38171Z" fill="#FFBD82"/>
<path d="M9.47598 6.38171H8.49194V7.36575H9.47598V6.38171Z" fill="#FFBD82"/>
<path d="M10.4586 6.38171H9.47461V7.36575H10.4586V6.38171Z" fill="#FFBD82"/>
<path d="M11.4477 6.38171H10.4636V7.36575H11.4477V6.38171Z" fill="#FFBD82"/>
<path d="M12.4235 6.38159H11.4395V7.36563H12.4235V6.38159Z" fill="#FFBD82"/>
<path d="M13.4066 6.38171H12.4226V7.36575H13.4066V6.38171Z" fill="#FFBD82"/>
<path d="M14.3893 6.38171H13.4053V7.36575H14.3893V6.38171Z" fill="#FFBD82"/>
<path d="M15.3783 6.38171H14.3943V7.36575H15.3783V6.38171Z" fill="#FF8426"/>
<path d="M16.361 6.38159H15.377V7.36563H16.361V6.38159Z" fill="#16171A"/>
<path d="M1.6022 7.36511H0.618164V8.34915H1.6022V7.36511Z" fill="#16171A"/>
<path d="M2.58487 7.36523H1.60083V8.34927H2.58487V7.36523Z" fill="#FAFDFF"/>
<path d="M3.57388 7.36523H2.58984V8.34927H3.57388V7.36523Z" fill="#FFBD82"/>
<path d="M4.55655 7.36523H3.57251V8.34927H4.55655V7.36523Z" fill="#FFBD82"/>
<path d="M5.53946 7.36511H4.55542V8.34915H5.53946V7.36511Z" fill="#FFBD82"/>
<path d="M6.52139 7.36523H5.53735V8.34927H6.52139V7.36523Z" fill="#FFBD82"/>
<path d="M7.51089 7.36523H6.52686V8.34927H7.51089V7.36523Z" fill="#FFBD82"/>
<path d="M8.49331 7.36523H7.50928V8.34927H8.49331V7.36523Z" fill="#FFBD82"/>
<path d="M9.47598 7.36523H8.49194V8.34927H9.47598V7.36523Z" fill="#FFBD82"/>
<path d="M10.4586 7.36523H9.47461V8.34927H10.4586V7.36523Z" fill="#FFBD82"/>
<path d="M11.4477 7.36523H10.4636V8.34927H11.4477V7.36523Z" fill="#FFBD82"/>
<path d="M12.4235 7.36511H11.4395V8.34915H12.4235V7.36511Z" fill="#FFBD82"/>
<path d="M13.4066 7.36523H12.4226V8.34927H13.4066V7.36523Z" fill="#FFBD82"/>
<path d="M14.3893 7.36523H13.4053V8.34927H14.3893V7.36523Z" fill="#FFBD82"/>
<path d="M15.3783 7.36523H14.3943V8.34927H15.3783V7.36523Z" fill="#FF8426"/>
<path d="M16.361 7.36511H15.377V8.34915H16.361V7.36511Z" fill="#16171A"/>
<path d="M1.6022 8.34937H0.618164V9.3334H1.6022V8.34937Z" fill="#16171A"/>
<path d="M2.58487 8.34949H1.60083V9.33352H2.58487V8.34949Z" fill="#FAFDFF"/>
<path d="M3.57388 8.34949H2.58984V9.33352H3.57388V8.34949Z" fill="#FFBD82"/>
<path d="M4.55655 8.34949H3.57251V9.33352H4.55655V8.34949Z" fill="#FFBD82"/>
<path d="M5.53946 8.34937H4.55542V9.3334H5.53946V8.34937Z" fill="#FFBD82"/>
<path d="M6.52139 8.34937H5.53735V9.3334H6.52139V8.34937Z" fill="#FFBD82"/>
<path d="M7.51089 8.34949H6.52686V9.33352H7.51089V8.34949Z" fill="#FFBD82"/>
<path d="M8.49331 8.34949H7.50928V9.33352H8.49331V8.34949Z" fill="#FFBD82"/>
<path d="M9.47598 8.34949H8.49194V9.33352H9.47598V8.34949Z" fill="#FFBD82"/>
<path d="M10.4586 8.34949H9.47461V9.33352H10.4586V8.34949Z" fill="#FFBD82"/>
<path d="M11.4477 8.34949H10.4636V9.33352H11.4477V8.34949Z" fill="#FFBD82"/>
<path d="M12.4235 8.34937H11.4395V9.3334H12.4235V8.34937Z" fill="#FFBD82"/>
<path d="M13.4066 8.34949H12.4226V9.33352H13.4066V8.34949Z" fill="#FFBD82"/>
<path d="M14.3893 8.34949H13.4053V9.33352H14.3893V8.34949Z" fill="#FFBD82"/>
<path d="M15.3783 8.34949H14.3943V9.33352H15.3783V8.34949Z" fill="#FF8426"/>
<path d="M16.361 8.34937H15.377V9.3334H16.361V8.34937Z" fill="#16171A"/>
<path d="M1.6022 9.33374H0.618164V10.3178H1.6022V9.33374Z" fill="#16171A"/>
<path d="M2.58487 9.33362H1.60083V10.3177H2.58487V9.33362Z" fill="#FAFDFF"/>
<path d="M3.57388 9.33362H2.58984V10.3177H3.57388V9.33362Z" fill="#FFBD82"/>
<path d="M4.55655 9.33362H3.57251V10.3177H4.55655V9.33362Z" fill="#FFBD82"/>
<path d="M5.53946 9.33374H4.55542V10.3178H5.53946V9.33374Z" fill="#FFBD82"/>
<path d="M6.52139 9.33374H5.53735V10.3178H6.52139V9.33374Z" fill="#FFBD82"/>
<path d="M7.51089 9.33362H6.52686V10.3177H7.51089V9.33362Z" fill="#FFBD82"/>
<path d="M8.49331 9.33362H7.50928V10.3177H8.49331V9.33362Z" fill="#FFBD82"/>
<path d="M9.47598 9.33362H8.49194V10.3177H9.47598V9.33362Z" fill="#FFBD82"/>
<path d="M10.4586 9.33362H9.47461V10.3177H10.4586V9.33362Z" fill="#FFBD82"/>
<path d="M11.4477 9.33362H10.4636V10.3177H11.4477V9.33362Z" fill="#FFBD82"/>
<path d="M12.4235 9.33374H11.4395V10.3178H12.4235V9.33374Z" fill="#FFBD82"/>
<path d="M13.4066 9.33362H12.4226V10.3177H13.4066V9.33362Z" fill="#FFBD82"/>
<path d="M14.3893 9.33362H13.4053V10.3177H14.3893V9.33362Z" fill="#FFBD82"/>
<path d="M15.3783 9.33362H14.3943V10.3177H15.3783V9.33362Z" fill="#FF8426"/>
<path d="M16.361 9.33374H15.377V10.3178H16.361V9.33374Z" fill="#16171A"/>
<path d="M2.58487 10.3171H1.60083V11.3012H2.58487V10.3171Z" fill="#16171A"/>
<path d="M3.57388 10.3171H2.58984V11.3012H3.57388V10.3171Z" fill="#FAFDFF"/>
<path d="M4.55655 10.3171H3.57251V11.3012H4.55655V10.3171Z" fill="#FFBD82"/>
<path d="M5.53946 10.3173H4.55542V11.3013H5.53946V10.3173Z" fill="#FFBD82"/>
<path d="M6.52139 10.3171H5.53735V11.3012H6.52139V10.3171Z" fill="#FFBD82"/>
<path d="M7.51089 10.3171H6.52686V11.3012H7.51089V10.3171Z" fill="#FFBD82"/>
<path d="M8.49331 10.3171H7.50928V11.3012H8.49331V10.3171Z" fill="#FFBD82"/>
<path d="M9.47598 10.3171H8.49194V11.3012H9.47598V10.3171Z" fill="#FFBD82"/>
<path d="M10.4586 10.3171H9.47461V11.3012H10.4586V10.3171Z" fill="#FFBD82"/>
<path d="M11.4477 10.3171H10.4636V11.3012H11.4477V10.3171Z" fill="#FFBD82"/>
<path d="M12.4235 10.3173H11.4395V11.3013H12.4235V10.3173Z" fill="#FFBD82"/>
<path d="M13.4066 10.3171H12.4226V11.3012H13.4066V10.3171Z" fill="#FFBD82"/>
<path d="M14.3893 10.3171H13.4053V11.3012H14.3893V10.3171Z" fill="#FF8426"/>
<path d="M15.3783 10.3171H14.3943V11.3012H15.3783V10.3171Z" fill="#16171A"/>
<path d="M2.58487 11.3014H1.60083V12.2854H2.58487V11.3014Z" fill="#16171A"/>
<path d="M3.57388 11.3014H2.58984V12.2854H3.57388V11.3014Z" fill="#FAFDFF"/>
<path d="M4.55655 11.3014H3.57251V12.2854H4.55655V11.3014Z" fill="#FFBD82"/>
<path d="M5.53946 11.3016H4.55542V12.2857H5.53946V11.3016Z" fill="#FFBD82"/>
<path d="M6.52139 11.3013H5.53735V12.2853H6.52139V11.3013Z" fill="#FFBD82"/>
<path d="M7.51089 11.3014H6.52686V12.2854H7.51089V11.3014Z" fill="#FFBD82"/>
<path d="M8.49331 11.3014H7.50928V12.2854H8.49331V11.3014Z" fill="#FFBD82"/>
<path d="M9.47598 11.3014H8.49194V12.2854H9.47598V11.3014Z" fill="#FFBD82"/>
<path d="M10.4586 11.3014H9.47461V12.2854H10.4586V11.3014Z" fill="#FFBD82"/>
<path d="M11.4477 11.3014H10.4636V12.2854H11.4477V11.3014Z" fill="#FFBD82"/>
<path d="M12.4235 11.3016H11.4395V12.2857H12.4235V11.3016Z" fill="#FFBD82"/>
<path d="M13.4066 11.3014H12.4226V12.2854H13.4066V11.3014Z" fill="#FFBD82"/>
<path d="M14.3893 11.3014H13.4053V12.2854H14.3893V11.3014Z" fill="#FF8426"/>
<path d="M15.3783 11.3014H14.3943V12.2854H15.3783V11.3014Z" fill="#16171A"/>
<path d="M3.57388 12.2855H2.58984V13.2696H3.57388V12.2855Z" fill="#16171A"/>
<path d="M4.55655 12.2855H3.57251V13.2696H4.55655V12.2855Z" fill="#FAFDFF"/>
<path d="M5.53946 12.2859H4.55542V13.2699H5.53946V12.2859Z" fill="#FFBD82"/>
<path d="M6.52139 12.2856H5.53735V13.2697H6.52139V12.2856Z" fill="#FFBD82"/>
<path d="M7.51089 12.2855H6.52686V13.2696H7.51089V12.2855Z" fill="#FFBD82"/>
<path d="M8.49331 12.2855H7.50928V13.2696H8.49331V12.2855Z" fill="#FFBD82"/>
<path d="M9.47598 12.2855H8.49194V13.2696H9.47598V12.2855Z" fill="#FFBD82"/>
<path d="M10.4586 12.2855H9.47461V13.2696H10.4586V12.2855Z" fill="#FFBD82"/>
<path d="M11.4477 12.2855H10.4636V13.2696H11.4477V12.2855Z" fill="#FFBD82"/>
<path d="M12.4235 12.2859H11.4395V13.2699H12.4235V12.2859Z" fill="#FFBD82"/>
<path d="M13.4066 12.2855H12.4226V13.2696H13.4066V12.2855Z" fill="#FF8426"/>
<path d="M14.3893 12.2855H13.4053V13.2696H14.3893V12.2855Z" fill="#16171A"/>
<path d="M4.55655 13.2698H3.57251V14.2538H4.55655V13.2698Z" fill="#16171A"/>
<path d="M5.53946 13.2695H4.55542V14.2536H5.53946V13.2695Z" fill="#FF8426"/>
<path d="M6.52139 13.2698H5.53735V14.2538H6.52139V13.2698Z" fill="#FF8426"/>
<path d="M7.51089 13.2698H6.52686V14.2538H7.51089V13.2698Z" fill="#FFBD82"/>
<path d="M8.49331 13.2698H7.50928V14.2538H8.49331V13.2698Z" fill="#FFBD82"/>
<path d="M9.47598 13.2698H8.49194V14.2538H9.47598V13.2698Z" fill="#FFBD82"/>
<path d="M10.4586 13.2698H9.47461V14.2538H10.4586V13.2698Z" fill="#FFBD82"/>
<path d="M11.4477 13.2698H10.4636V14.2538H11.4477V13.2698Z" fill="#FF8426"/>
<path d="M12.4235 13.2695H11.4395V14.2536H12.4235V13.2695Z" fill="#FF8426"/>
<path d="M13.4066 13.2698H12.4226V14.2538H13.4066V13.2698Z" fill="#16171A"/>
<path d="M5.53946 14.2538H4.55542V15.2378H5.53946V14.2538Z" fill="#16171A"/>
<path d="M6.52139 14.254H5.53735V15.2381H6.52139V14.254Z" fill="#16171A"/>
<path d="M7.51089 14.254H6.52686V15.2381H7.51089V14.254Z" fill="#FF8426"/>
<path d="M8.49331 14.254H7.50928V15.2381H8.49331V14.254Z" fill="#FF8426"/>
<path d="M9.47598 14.254H8.49194V15.2381H9.47598V14.254Z" fill="#FF8426"/>
<path d="M10.4586 14.254H9.47461V15.2381H10.4586V14.254Z" fill="#FF8426"/>
<path d="M11.4477 14.254H10.4636V15.2381H11.4477V14.254Z" fill="#16171A"/>
<path d="M12.4235 14.2538H11.4395V15.2378H12.4235V14.2538Z" fill="#16171A"/>
<path d="M7.51089 15.2374H6.52686V16.2215H7.51089V15.2374Z" fill="#16171A"/>
<path d="M8.49331 15.2374H7.50928V16.2215H8.49331V15.2374Z" fill="#16171A"/>
<path d="M9.47598 15.2374H8.49194V16.2215H9.47598V15.2374Z" fill="#16171A"/>
<path d="M10.4586 15.2374H9.47461V16.2215H10.4586V15.2374Z" fill="#16171A"/>
<path d="M5.54556 3.42908H4.56152V4.41311H5.54556V3.42908Z" fill="#16171A"/>
<path d="M6.53457 3.42908H5.55054V4.41311H6.53457V3.42908Z" fill="#16171A"/>
<path d="M7.51724 3.42908H6.5332V4.41311H7.51724V3.42908Z" fill="#16171A"/>
<path d="M8.50015 3.42908H7.51611V4.41311H8.50015V3.42908Z" fill="#16171A"/>
<path d="M9.48257 3.42908H8.49854V4.41311H9.48257V3.42908Z" fill="#16171A"/>
<path d="M4.56289 4.41345H3.57886V5.39749H4.56289V4.41345Z" fill="#16171A"/>
<path d="M5.54556 4.41333H4.56152V5.39737H5.54556V4.41333Z" fill="#FAFDFF"/>
<path d="M6.53457 4.41333H5.55054V5.39737H6.53457V4.41333Z" fill="#FFD100"/>
<path d="M7.51724 4.41333H6.5332V5.39737H7.51724V4.41333Z" fill="#FFD100"/>
<path d="M8.50015 4.41345H7.51611V5.39749H8.50015V4.41345Z" fill="#FFD100"/>
<path d="M9.48257 4.41333H8.49854V5.39737H9.48257V4.41333Z" fill="#FFD100"/>
<path d="M10.4713 4.41333H9.4873V5.39737H10.4713V4.41333Z" fill="#16171A"/>
<path d="M4.56289 5.39771H3.57886V6.38174H4.56289V5.39771Z" fill="#16171A"/>
<path d="M5.54556 5.39758H4.56152V6.38162H5.54556V5.39758Z" fill="#FFD100"/>
<path d="M6.53457 5.39758H5.55054V6.38162H6.53457V5.39758Z" fill="#FF8426"/>
<path d="M7.51724 5.39758H6.5332V6.38162H7.51724V5.39758Z" fill="#FF8426"/>
<path d="M8.50015 5.39771H7.51611V6.38174H8.50015V5.39771Z" fill="#FF8426"/>
<path d="M9.48257 5.39758H8.49854V6.38162H9.48257V5.39758Z" fill="#FF8426"/>
<path d="M10.4713 5.39758H9.4873V6.38162H10.4713V5.39758Z" fill="#FF8426"/>
<path d="M11.454 5.39758H10.47V6.38162H11.454V5.39758Z" fill="#16171A"/>
<path d="M4.56289 6.38123H3.57886V7.36526H4.56289V6.38123Z" fill="#16171A"/>
<path d="M5.54556 6.38098H4.56152V7.36502H5.54556V6.38098Z" fill="#FFD100"/>
<path d="M6.53457 6.38098H5.55054V7.36502H6.53457V6.38098Z" fill="#FF8426"/>
<path d="M7.51724 6.38098H6.5332V7.36502H7.51724V6.38098Z" fill="#16171A"/>
<path d="M8.50015 6.38123H7.51611V7.36526H8.50015V6.38123Z" fill="#16171A"/>
<path d="M9.48257 6.38098H8.49854V7.36502H9.48257V6.38098Z" fill="#FFD100"/>
<path d="M10.4713 6.38098H9.4873V7.36502H10.4713V6.38098Z" fill="#FF8426"/>
<path d="M11.454 6.38098H10.47V7.36502H11.454V6.38098Z" fill="#16171A"/>
<path d="M4.56289 7.3656H3.57886V8.34964H4.56289V7.3656Z" fill="#16171A"/>
<path d="M5.54556 7.36523H4.56152V8.34927H5.54556V7.36523Z" fill="#FFD100"/>
<path d="M6.53457 7.36523H5.55054V8.34927H6.53457V7.36523Z" fill="#FF8426"/>
<path d="M7.51724 7.36523H6.5332V8.34927H7.51724V7.36523Z" fill="#FFD100"/>
<path d="M8.50015 7.3656H7.51611V8.34964H8.50015V7.3656Z" fill="#FFD100"/>
<path d="M9.48257 7.36523H8.49854V8.34927H9.48257V7.36523Z" fill="#FAFDFF"/>
<path d="M10.4713 7.36523H9.4873V8.34927H10.4713V7.36523Z" fill="#FF8426"/>
<path d="M11.454 7.36523H10.47V8.34927H11.454V7.36523Z" fill="#FF8426"/>
<path d="M12.4367 7.36523H11.4526V8.34927H12.4367V7.36523Z" fill="#16171A"/>
<path d="M4.56289 8.34985H3.57886V9.33389H4.56289V8.34985Z" fill="#16171A"/>
<path d="M5.54556 8.35022H4.56152V9.33426H5.54556V8.35022Z" fill="#FFD100"/>
<path d="M6.53457 8.35022H5.55054V9.33426H6.53457V8.35022Z" fill="#FF8426"/>
<path d="M7.51724 8.35022H6.5332V9.33426H7.51724V8.35022Z" fill="#FF8426"/>
<path d="M8.50015 8.34985H7.51611V9.33389H8.50015V8.34985Z" fill="#FF8426"/>
<path d="M9.48257 8.35022H8.49854V9.33426H9.48257V8.35022Z" fill="#FF8426"/>
<path d="M10.4713 8.35022H9.4873V9.33426H10.4713V8.35022Z" fill="#FF8426"/>
<path d="M11.454 8.35022H10.47V9.33426H11.454V8.35022Z" fill="#FF8426"/>
<path d="M12.4367 8.35022H11.4526V9.33426H12.4367V8.35022Z" fill="#FF8426"/>
<path d="M13.4193 8.35022H12.4353V9.33426H13.4193V8.35022Z" fill="#16171A"/>
<path d="M4.56289 9.3335H3.57886V10.3175H4.56289V9.3335Z" fill="#16171A"/>
<path d="M5.54556 9.33362H4.56152V10.3177H5.54556V9.33362Z" fill="#FFD100"/>
<path d="M6.53457 9.33362H5.55054V10.3177H6.53457V9.33362Z" fill="#FF8426"/>
<path d="M7.51724 9.33362H6.5332V10.3177H7.51724V9.33362Z" fill="#16171A"/>
<path d="M8.50015 9.3335H7.51611V10.3175H8.50015V9.3335Z" fill="#16171A"/>
<path d="M9.48257 9.33362H8.49854V10.3177H9.48257V9.33362Z" fill="#16171A"/>
<path d="M10.4713 9.33362H9.4873V10.3177H10.4713V9.33362Z" fill="#16171A"/>
<path d="M11.454 9.33362H10.47V10.3177H11.454V9.33362Z" fill="#FFD100"/>
<path d="M12.4367 9.33362H11.4526V10.3177H12.4367V9.33362Z" fill="#FF8426"/>
<path d="M13.4193 9.33362H12.4353V10.3177H13.4193V9.33362Z" fill="#16171A"/>
<path d="M4.56289 10.3177H3.57886V11.3018H4.56289V10.3177Z" fill="#16171A"/>
<path d="M5.54556 10.3179H4.56152V11.3019H5.54556V10.3179Z" fill="#FFD100"/>
<path d="M6.53457 10.3179H5.55054V11.3019H6.53457V10.3179Z" fill="#FF8426"/>
<path d="M7.51724 10.3179H6.5332V11.3019H7.51724V10.3179Z" fill="#FFD100"/>
<path d="M8.50015 10.3177H7.51611V11.3018H8.50015V10.3177Z" fill="#FFD100"/>
<path d="M9.48257 10.3179H8.49854V11.3019H9.48257V10.3179Z" fill="#FFD100"/>
<path d="M10.4713 10.3179H9.4873V11.3019H10.4713V10.3179Z" fill="#FFD100"/>
<path d="M11.454 10.3179H10.47V11.3019H11.454V10.3179Z" fill="#FAFDFF"/>
<path d="M12.4367 10.3179H11.4526V11.3019H12.4367V10.3179Z" fill="#FF8426"/>
<path d="M13.4193 10.3179H12.4353V11.3019H13.4193V10.3179Z" fill="#16171A"/>
<path d="M4.56289 11.3021H3.57886V12.2862H4.56289V11.3021Z" fill="#16171A"/>
<path d="M5.54556 11.3021H4.56152V12.2862H5.54556V11.3021Z" fill="#FF8426"/>
<path d="M6.53457 11.3021H5.55054V12.2862H6.53457V11.3021Z" fill="#FF8426"/>
<path d="M7.51724 11.3021H6.5332V12.2862H7.51724V11.3021Z" fill="#FF8426"/>
<path d="M8.50015 11.3021H7.51611V12.2862H8.50015V11.3021Z" fill="#FF8426"/>
<path d="M9.48257 11.3021H8.49854V12.2862H9.48257V11.3021Z" fill="#FF8426"/>
<path d="M10.4713 11.3021H9.4873V12.2862H10.4713V11.3021Z" fill="#FF8426"/>
<path d="M11.454 11.3021H10.47V12.2862H11.454V11.3021Z" fill="#FF8426"/>
<path d="M12.4367 11.3021H11.4526V12.2862H12.4367V11.3021Z" fill="#16171A"/>
<path d="M5.54556 12.2855H4.56152V13.2696H5.54556V12.2855Z" fill="#16171A"/>
<path d="M6.53457 12.2855H5.55054V13.2696H6.53457V12.2855Z" fill="#16171A"/>
<path d="M7.51724 12.2855H6.5332V13.2696H7.51724V12.2855Z" fill="#16171A"/>
<path d="M8.50015 12.2856H7.51611V13.2697H8.50015V12.2856Z" fill="#16171A"/>
<path d="M9.48257 12.2855H8.49854V13.2696H9.48257V12.2855Z" fill="#16171A"/>
<path d="M10.4713 12.2855H9.4873V13.2696H10.4713V12.2855Z" fill="#16171A"/>
<path d="M11.454 12.2855H10.47V13.2696H11.454V12.2855Z" fill="#16171A"/>
</svg>
