<svg width="88" height="50" viewBox="0 0 88 50" fill="none" xmlns="http://www.w3.org/2000/svg">
<rect width="84.3333" height="45.8333" transform="matrix(-1 0 0 1 86.168 1.83301)" fill="#FFF7D8"/>
<rect width="45.8333" height="1.83333" transform="matrix(-1 0 0 1 86.168 47.667)" fill="#DA0000"/>
<rect width="45.8333" height="1.83333" transform="matrix(-1.19249e-08 -1 -1 1.19249e-08 88 47.667)" fill="#DA0000"/>
<rect width="45.8333" height="1.83333" transform="matrix(-1.19249e-08 -1 -1 1.19249e-08 1.83203 47.667)" fill="#DA0000"/>
<rect width="45.8333" height="1.83333" transform="matrix(-1.19249e-08 -1 -1 1.19249e-08 40.332 47.667)" fill="#DA0000"/>
<rect width="45.8333" height="1.83333" transform="matrix(-1 0 0 1 86.168 0)" fill="#DA0000"/>
<rect width="45.8333" height="1.83333" transform="matrix(-1 0 0 1 86.168 1.83301)" fill="#FF9688"/>
<rect width="45.8333" height="1.83333" transform="matrix(-1 0 0 1 86.168 45.833)" fill="#FF9688"/>
<rect width="38.5" height="1.83333" transform="matrix(-1 0 0 1 40.3359 0)" fill="#DA0000"/>
<rect width="38.5" height="1.83333" transform="matrix(-1 0 0 1 40.3359 47.666)" fill="#DA0000"/>
</svg>
