<svg width="47" height="41" viewBox="0 0 47 41" fill="none" xmlns="http://www.w3.org/2000/svg">
<g opacity="0.8" clip-path="url(#clip0_3610_3829)">
<path d="M16.8191 0.5H14.8164V2.62235H16.8191V0.5Z" fill="#181425"/>
<path d="M18.827 0.5H16.8242V2.62235H18.827V0.5Z" fill="#181425"/>
<path d="M20.827 0.5H18.8242V2.62235H20.827V0.5Z" fill="#181425"/>
<path d="M22.8309 0.5H20.8281V2.62235H22.8309V0.5Z" fill="#181425"/>
<path d="M24.8348 0.5H22.832V2.62235H24.8348V0.5Z" fill="#181425"/>
<path d="M26.8348 0.5H24.832V2.62235H26.8348V0.5Z" fill="#181425"/>
<path d="M28.8387 0.5H26.8359V2.62235H28.8387V0.5Z" fill="#181425"/>
<path d="M30.8113 0.5H28.8086V2.62235H30.8113V0.5Z" fill="#181425"/>
<path d="M32.8113 0.5H30.8086V2.62235H32.8113V0.5Z" fill="#181425"/>
<path d="M12.8152 2.62305H10.8125V4.7454H12.8152V2.62305Z" fill="#181425"/>
<path d="M14.8191 2.62305H12.8164V4.7454H14.8191V2.62305Z" fill="#181425"/>
<path d="M16.8191 2.62305H14.8164V4.7454H16.8191V2.62305Z" fill="#E45C00"/>
<path d="M18.827 2.62305H16.8242V4.7454H18.827V2.62305Z" fill="#181425"/>
<path d="M20.827 2.62305H18.8242V4.7454H20.827V2.62305Z" fill="#181425"/>
<path d="M22.8309 2.62305H20.8281V4.7454H22.8309V2.62305Z" fill="#E45C00"/>
<path d="M24.8348 2.62305H22.832V4.7454H24.8348V2.62305Z" fill="#E45C00"/>
<path d="M26.8348 2.62305H24.832V4.7454H26.8348V2.62305Z" fill="#E45C00"/>
<path d="M28.8387 2.62305H26.8359V4.7454H28.8387V2.62305Z" fill="#FF7C06"/>
<path d="M30.8113 2.62305H28.8086V4.7454H30.8113V2.62305Z" fill="#FF7C06"/>
<path d="M32.8113 2.62305H30.8086V4.7454H32.8113V2.62305Z" fill="#181425"/>
<path d="M34.8113 2.62305H32.8086V4.7454H34.8113V2.62305Z" fill="#181425"/>
<path d="M36.8152 2.62305H34.8125V4.7454H36.8152V2.62305Z" fill="#181425"/>
<path d="M10.8426 4.74512H8.83984V6.86747H10.8426V4.74512Z" fill="#181425"/>
<path d="M12.8152 4.74512H10.8125V6.86747H12.8152V4.74512Z" fill="white"/>
<path d="M14.8191 4.74512H12.8164V6.86747H14.8191V4.74512Z" fill="white"/>
<path d="M16.8191 4.74512H14.8164V6.86747H16.8191V4.74512Z" fill="#181425"/>
<path d="M18.827 4.74512H16.8242V6.86747H18.827V4.74512Z" fill="white"/>
<path d="M20.827 4.74512H18.8242V6.86747H20.827V4.74512Z" fill="#181425"/>
<path d="M22.8309 4.74512H20.8281V6.86747H22.8309V4.74512Z" fill="#181425"/>
<path d="M24.8348 4.74512H22.832V6.86747H24.8348V4.74512Z" fill="#181425"/>
<path d="M26.8348 4.74512H24.832V6.86747H26.8348V4.74512Z" fill="#181425"/>
<path d="M28.8387 4.74512H26.8359V6.86747H28.8387V4.74512Z" fill="#181425"/>
<path d="M30.8113 4.74512H28.8086V6.86747H30.8113V4.74512Z" fill="#181425"/>
<path d="M32.8113 4.74512H30.8086V6.86747H32.8113V4.74512Z" fill="#181425"/>
<path d="M34.8113 4.74512H32.8086V6.86747H34.8113V4.74512Z" fill="white"/>
<path d="M36.8152 4.74512H34.8125V6.86747H36.8152V4.74512Z" fill="white"/>
<path d="M38.823 4.74512H36.8203V6.86747H38.823V4.74512Z" fill="#181425"/>
<path d="M8.84258 6.86719H6.83984V8.98954H8.84258V6.86719Z" fill="#181425"/>
<path d="M10.8426 6.86719H8.83984V8.98954H10.8426V6.86719Z" fill="white"/>
<path d="M12.8152 6.86719H10.8125V8.98954H12.8152V6.86719Z" fill="white"/>
<path d="M14.8191 6.86719H12.8164V8.98954H14.8191V6.86719Z" fill="#181425"/>
<path d="M16.8191 6.86719H14.8164V8.98954H16.8191V6.86719Z" fill="white"/>
<path d="M18.827 6.86719H16.8242V8.98954H18.827V6.86719Z" fill="#C6C6C6"/>
<path d="M20.827 6.86719H18.8242V8.98954H20.827V6.86719Z" fill="#181425"/>
<path d="M22.8309 6.86719H20.8281V8.98954H22.8309V6.86719Z" fill="#E45C00"/>
<path d="M24.8348 6.86719H22.832V8.98954H24.8348V6.86719Z" fill="#E45C00"/>
<path d="M26.8348 6.86719H24.832V8.98954H26.8348V6.86719Z" fill="#FF7C06"/>
<path d="M28.8387 6.86719H26.8359V8.98954H28.8387V6.86719Z" fill="#FF7C06"/>
<path d="M30.8113 6.86719H28.8086V8.98954H30.8113V6.86719Z" fill="#FF7C06"/>
<path d="M32.8113 6.86719H30.8086V8.98954H32.8113V6.86719Z" fill="#FF7C06"/>
<path d="M34.8113 6.86719H32.8086V8.98954H34.8113V6.86719Z" fill="#181425"/>
<path d="M36.8152 6.86719H34.8125V8.98954H36.8152V6.86719Z" fill="#C6C6C6"/>
<path d="M38.823 6.86719H36.8203V8.98954H38.823V6.86719Z" fill="white"/>
<path d="M40.823 6.86719H38.8203V8.98954H40.823V6.86719Z" fill="#181425"/>
<path d="M6.83867 8.98926H4.83594V11.1116H6.83867V8.98926Z" fill="#181425"/>
<path d="M8.84258 8.98926H6.83984V11.1116H8.84258V8.98926Z" fill="#181425"/>
<path d="M10.8426 8.98926H8.83984V11.1116H10.8426V8.98926Z" fill="#181425"/>
<path d="M12.8152 8.98926H10.8125V11.1116H12.8152V8.98926Z" fill="#181425"/>
<path d="M14.8191 8.98926H12.8164V11.1116H14.8191V8.98926Z" fill="white"/>
<path d="M16.8191 8.98926H14.8164V11.1116H16.8191V8.98926Z" fill="#C6C6C6"/>
<path d="M18.827 8.98926H16.8242V11.1116H18.827V8.98926Z" fill="#181425"/>
<path d="M20.827 8.98926H18.8242V11.1116H20.827V8.98926Z" fill="#E45C00"/>
<path d="M22.8309 8.98926H20.8281V11.1116H22.8309V8.98926Z" fill="#FF7C06"/>
<path d="M24.8348 8.98926H22.832V11.1116H24.8348V8.98926Z" fill="#FF7C06"/>
<path d="M26.8348 8.98926H24.832V11.1116H26.8348V8.98926Z" fill="#FF7C06"/>
<path d="M28.8387 8.98926H26.8359V11.1116H28.8387V8.98926Z" fill="#FF7C06"/>
<path d="M30.8113 8.98926H28.8086V11.1116H30.8113V8.98926Z" fill="#FF7C06"/>
<path d="M32.8113 8.98926H30.8086V11.1116H32.8113V8.98926Z" fill="#FF7C06"/>
<path d="M34.8113 8.98926H32.8086V11.1116H34.8113V8.98926Z" fill="#FF7C06"/>
<path d="M36.8152 8.98926H34.8125V11.1116H36.8152V8.98926Z" fill="#181425"/>
<path d="M38.823 8.98926H36.8203V11.1116H38.823V8.98926Z" fill="white"/>
<path d="M40.823 8.98926H38.8203V11.1116H40.823V8.98926Z" fill="#181425"/>
<path d="M42.827 8.98926H40.8242V11.1116H42.827V8.98926Z" fill="#181425"/>
<path d="M6.83867 11.0771H4.83594V13.1995H6.83867V11.0771Z" fill="#181425"/>
<path d="M8.84258 11.0771H6.83984V13.1995H8.84258V11.0771Z" fill="#E45C00"/>
<path d="M10.8426 11.0771H8.83984V13.1995H10.8426V11.0771Z" fill="#E45C00"/>
<path d="M12.8152 11.0771H10.8125V13.1995H12.8152V11.0771Z" fill="#181425"/>
<path d="M14.8191 11.0771H12.8164V13.1995H14.8191V11.0771Z" fill="#181425"/>
<path d="M16.8191 11.0771H14.8164V13.1995H16.8191V11.0771Z" fill="#181425"/>
<path d="M18.827 11.0771H16.8242V13.1995H18.827V11.0771Z" fill="#E45C00"/>
<path d="M20.827 11.0771H18.8242V13.1995H20.827V11.0771Z" fill="#FF7C06"/>
<path d="M22.8309 11.0771H20.8281V13.1995H22.8309V11.0771Z" fill="#181425"/>
<path d="M24.8348 11.0771H22.832V13.1995H24.8348V11.0771Z" fill="#181425"/>
<path d="M26.8348 11.0771H24.832V13.1995H26.8348V11.0771Z" fill="#FF7C06"/>
<path d="M28.8387 11.0771H26.8359V13.1995H28.8387V11.0771Z" fill="#FF7C06"/>
<path d="M30.8113 11.0771H28.8086V13.1995H30.8113V11.0771Z" fill="#FF7C06"/>
<path d="M32.8113 11.0771H30.8086V13.1995H32.8113V11.0771Z" fill="#FF7C06"/>
<path d="M34.8113 11.0771H32.8086V13.1995H34.8113V11.0771Z" fill="#181425"/>
<path d="M36.8152 11.0771H34.8125V13.1995H36.8152V11.0771Z" fill="#FF7C06"/>
<path d="M38.823 11.0771H36.8203V13.1995H38.823V11.0771Z" fill="#181425"/>
<path d="M40.823 11.0771H38.8203V13.1995H40.823V11.0771Z" fill="#FF7C06"/>
<path d="M42.827 11.0771H40.8242V13.1995H42.827V11.0771Z" fill="#181425"/>
<path d="M4.83477 13.2002H2.83203V15.3225H4.83477V13.2002Z" fill="#181425"/>
<path d="M6.83867 13.2002H4.83594V15.3225H6.83867V13.2002Z" fill="#E45C00"/>
<path d="M8.84258 13.2002H6.83984V15.3225H8.84258V13.2002Z" fill="#E45C00"/>
<path d="M10.8426 13.2002H8.83984V15.3225H10.8426V13.2002Z" fill="#181425"/>
<path d="M12.8152 13.2002H10.8125V15.3225H12.8152V13.2002Z" fill="#FF7C06"/>
<path d="M14.8191 13.2002H12.8164V15.3225H14.8191V13.2002Z" fill="#181425"/>
<path d="M16.8191 13.2002H14.8164V15.3225H16.8191V13.2002Z" fill="#E45C00"/>
<path d="M18.827 13.2002H16.8242V15.3225H18.827V13.2002Z" fill="#E45C00"/>
<path d="M20.827 13.2002H18.8242V15.3225H20.827V13.2002Z" fill="#FF7C06"/>
<path d="M22.8309 13.2002H20.8281V15.3225H22.8309V13.2002Z" fill="#FF7C06"/>
<path d="M24.8348 13.2002H22.832V15.3225H24.8348V13.2002Z" fill="#FF7C06"/>
<path d="M26.8348 13.2002H24.832V15.3225H26.8348V13.2002Z" fill="#FF7C06"/>
<path d="M28.8387 13.2002H26.8359V15.3225H28.8387V13.2002Z" fill="#FF7C06"/>
<path d="M30.8113 13.2002H28.8086V15.3225H30.8113V13.2002Z" fill="#FF7C06"/>
<path d="M32.8113 13.2002H30.8086V15.3225H32.8113V13.2002Z" fill="#FF7C06"/>
<path d="M34.8113 13.2002H32.8086V15.3225H34.8113V13.2002Z" fill="#FF7C06"/>
<path d="M36.8152 13.2002H34.8125V15.3225H36.8152V13.2002Z" fill="#FF7C06"/>
<path d="M38.823 13.2002H36.8203V15.3225H38.823V13.2002Z" fill="#FF7C06"/>
<path d="M40.823 13.2002H38.8203V15.3225H40.823V13.2002Z" fill="#181425"/>
<path d="M42.827 13.2002H40.8242V15.3225H42.827V13.2002Z" fill="#FF7C06"/>
<path d="M44.8309 13.2002H42.8281V15.3225H44.8309V13.2002Z" fill="#181425"/>
<path d="M4.83477 15.3223H2.83203V17.4446H4.83477V15.3223Z" fill="#181425"/>
<path d="M6.83867 15.3223H4.83594V17.4446H6.83867V15.3223Z" fill="#181425"/>
<path d="M8.84258 15.3223H6.83984V17.4446H8.84258V15.3223Z" fill="#181425"/>
<path d="M10.8426 15.3223H8.83984V17.4446H10.8426V15.3223Z" fill="#181425"/>
<path d="M12.8152 15.3223H10.8125V17.4446H12.8152V15.3223Z" fill="#FF7C06"/>
<path d="M14.8191 15.3223H12.8164V17.4446H14.8191V15.3223Z" fill="#181425"/>
<path d="M16.8191 15.3223H14.8164V17.4446H16.8191V15.3223Z" fill="#E45C00"/>
<path d="M18.827 15.3223H16.8242V17.4446H18.827V15.3223Z" fill="#181425"/>
<path d="M20.827 15.3223H18.8242V17.4446H20.827V15.3223Z" fill="#181425"/>
<path d="M22.8309 15.3223H20.8281V17.4446H22.8309V15.3223Z" fill="#181425"/>
<path d="M24.8348 15.3223H22.832V17.4446H24.8348V15.3223Z" fill="#181425"/>
<path d="M26.8348 15.3223H24.832V17.4446H26.8348V15.3223Z" fill="#FF7C06"/>
<path d="M28.8387 15.3223H26.8359V17.4446H28.8387V15.3223Z" fill="#FF7C06"/>
<path d="M30.8113 15.3223H28.8086V17.4446H30.8113V15.3223Z" fill="#FF7C06"/>
<path d="M32.8113 15.3223H30.8086V17.4446H32.8113V15.3223Z" fill="#FF7C06"/>
<path d="M34.8113 15.3223H32.8086V17.4446H34.8113V15.3223Z" fill="#FF7C06"/>
<path d="M36.8152 15.3223H34.8125V17.4446H36.8152V15.3223Z" fill="#181425"/>
<path d="M38.823 15.3223H36.8203V17.4446H38.823V15.3223Z" fill="#181425"/>
<path d="M40.823 15.3223H38.8203V17.4446H40.823V15.3223Z" fill="#181425"/>
<path d="M42.827 15.3223H40.8242V17.4446H42.827V15.3223Z" fill="#FF7C06"/>
<path d="M44.8309 15.3223H42.8281V17.4446H44.8309V15.3223Z" fill="#181425"/>
<path d="M2.83477 17.4443H0.832031V19.5667H2.83477V17.4443Z" fill="#181425"/>
<path d="M4.83477 17.4453H2.83203V19.5677H4.83477V17.4453Z" fill="#C6C6C6"/>
<path d="M6.83867 17.4453H4.83594V19.5677H6.83867V17.4453Z" fill="white"/>
<path d="M8.84258 17.4453H6.83984V19.5677H8.84258V17.4453Z" fill="#181425"/>
<path d="M10.8426 17.4453H8.83984V19.5677H10.8426V17.4453Z" fill="white"/>
<path d="M12.8152 17.4453H10.8125V19.5677H12.8152V17.4453Z" fill="#181425"/>
<path d="M14.8191 17.4453H12.8164V19.5677H14.8191V17.4453Z" fill="#181425"/>
<path d="M16.8191 17.4453H14.8164V19.5677H16.8191V17.4453Z" fill="#181425"/>
<path d="M18.827 17.4453H16.8242V19.5677H18.827V17.4453Z" fill="#181425"/>
<path d="M20.827 17.4453H18.8242V19.5677H20.827V17.4453Z" fill="#181425"/>
<path d="M22.8309 17.4453H20.8281V19.5677H22.8309V17.4453Z" fill="#181425"/>
<path d="M24.8348 17.4453H22.832V19.5677H24.8348V17.4453Z" fill="#181425"/>
<path d="M26.8348 17.4453H24.832V19.5677H26.8348V17.4453Z" fill="#181425"/>
<path d="M28.8387 17.4443H26.8359V19.5667H28.8387V17.4443Z" fill="#FF7C06"/>
<path d="M30.8113 17.4453H28.8086V19.5677H30.8113V17.4453Z" fill="#FF7C06"/>
<path d="M32.8113 17.4453H30.8086V19.5677H32.8113V17.4453Z" fill="#FF7C06"/>
<path d="M34.8113 17.4453H32.8086V19.5677H34.8113V17.4453Z" fill="#181425"/>
<path d="M36.8152 17.4443H34.8125V19.5667H36.8152V17.4443Z" fill="#181425"/>
<path d="M38.823 17.4453H36.8203V19.5677H38.823V17.4453Z" fill="#181425"/>
<path d="M40.823 17.4453H38.8203V19.5677H40.823V17.4453Z" fill="#181425"/>
<path d="M42.827 17.4453H40.8242V19.5677H42.827V17.4453Z" fill="#181425"/>
<path d="M44.8309 17.4453H42.8281V19.5677H44.8309V17.4453Z" fill="white"/>
<path d="M46.8309 17.4453H44.8281V19.5677H46.8309V17.4453Z" fill="#181425"/>
<path d="M2.83477 19.5664H0.832031V21.6888H2.83477V19.5664Z" fill="#181425"/>
<path d="M4.83477 19.5664H2.83203V21.6888H4.83477V19.5664Z" fill="#C6C6C6"/>
<path d="M6.83867 19.5664H4.83594V21.6888H6.83867V19.5664Z" fill="white"/>
<path d="M8.84258 19.5664H6.83984V21.6888H8.84258V19.5664Z" fill="#181425"/>
<path d="M10.8426 19.5664H8.83984V21.6888H10.8426V19.5664Z" fill="white"/>
<path d="M12.8152 19.5664H10.8125V21.6888H12.8152V19.5664Z" fill="#181425"/>
<path d="M14.8191 19.5664H12.8164V21.6888H14.8191V19.5664Z" fill="#181425"/>
<path d="M16.8191 19.5664H14.8164V21.6888H16.8191V19.5664Z" fill="#181425"/>
<path d="M18.827 19.5664H16.8242V21.6888H18.827V19.5664Z" fill="#181425"/>
<path d="M20.827 19.5664H18.8242V21.6888H20.827V19.5664Z" fill="white"/>
<path d="M22.8309 19.5664H20.8281V21.6888H22.8309V19.5664Z" fill="#3978A8"/>
<path d="M24.8348 19.5664H22.832V21.6888H24.8348V19.5664Z" fill="#3978A8"/>
<path d="M26.8348 19.5664H24.832V21.6888H26.8348V19.5664Z" fill="#181425"/>
<path d="M28.8387 19.5664H26.8359V21.6888H28.8387V19.5664Z" fill="#181425"/>
<path d="M30.8113 19.5664H28.8086V21.6888H30.8113V19.5664Z" fill="#181425"/>
<path d="M32.8113 19.5664H30.8086V21.6888H32.8113V19.5664Z" fill="#181425"/>
<path d="M34.8113 19.5664H32.8086V21.6888H34.8113V19.5664Z" fill="#181425"/>
<path d="M36.8152 19.5664H34.8125V21.6888H36.8152V19.5664Z" fill="#181425"/>
<path d="M38.823 19.5664H36.8203V21.6888H38.823V19.5664Z" fill="#3978A8"/>
<path d="M40.823 19.5664H38.8203V21.6888H40.823V19.5664Z" fill="#3978A8"/>
<path d="M42.827 19.5664H40.8242V21.6888H42.827V19.5664Z" fill="#181425"/>
<path d="M44.8309 19.5664H42.8281V21.6888H44.8309V19.5664Z" fill="white"/>
<path d="M46.8309 19.5664H44.8281V21.6888H46.8309V19.5664Z" fill="#181425"/>
<path d="M2.83477 21.6895H0.832031V23.8118H2.83477V21.6895Z" fill="#181425"/>
<path d="M4.83477 21.6895H2.83203V23.8118H4.83477V21.6895Z" fill="#C6C6C6"/>
<path d="M6.83867 21.6895H4.83594V23.8118H6.83867V21.6895Z" fill="white"/>
<path d="M8.84258 21.6895H6.83984V23.8118H8.84258V21.6895Z" fill="#181425"/>
<path d="M10.8426 21.6895H8.83984V23.8118H10.8426V21.6895Z" fill="white"/>
<path d="M12.8152 21.6895H10.8125V23.8118H12.8152V21.6895Z" fill="#181425"/>
<path d="M14.8191 21.6895H12.8164V23.8118H14.8191V21.6895Z" fill="#E45C00"/>
<path d="M16.8191 21.6895H14.8164V23.8118H16.8191V21.6895Z" fill="#181425"/>
<path d="M18.827 21.6895H16.8242V23.8118H18.827V21.6895Z" fill="white"/>
<path d="M20.827 21.6895H18.8242V23.8118H20.827V21.6895Z" fill="white"/>
<path d="M22.8309 21.6895H20.8281V23.8118H22.8309V21.6895Z" fill="#3978A8"/>
<path d="M24.8348 21.6895H22.832V23.8118H24.8348V21.6895Z" fill="#394778"/>
<path d="M26.8348 21.6895H24.832V23.8118H26.8348V21.6895Z" fill="white"/>
<path d="M28.8387 21.6895H26.8359V23.8118H28.8387V21.6895Z" fill="#181425"/>
<path d="M30.8113 21.6895H28.8086V23.8118H30.8113V21.6895Z" fill="#181425"/>
<path d="M32.8113 21.6895H30.8086V23.8118H32.8113V21.6895Z" fill="#181425"/>
<path d="M34.8113 21.6895H32.8086V23.8118H34.8113V21.6895Z" fill="#181425"/>
<path d="M36.8152 21.6895H34.8125V23.8118H36.8152V21.6895Z" fill="white"/>
<path d="M38.823 21.6895H36.8203V23.8118H38.823V21.6895Z" fill="#394778"/>
<path d="M40.823 21.6895H38.8203V23.8118H40.823V21.6895Z" fill="#3978A8"/>
<path d="M42.827 21.6895H40.8242V23.8118H42.827V21.6895Z" fill="#181425"/>
<path d="M44.8309 21.6895H42.8281V23.8118H44.8309V21.6895Z" fill="white"/>
<path d="M46.8309 21.6895H44.8281V23.8118H46.8309V21.6895Z" fill="#181425"/>
<path d="M2.83477 23.8115H0.832031V25.9339H2.83477V23.8115Z" fill="#181425"/>
<path d="M4.83477 23.8115H2.83203V25.9339H4.83477V23.8115Z" fill="#C6C6C6"/>
<path d="M6.83867 23.8115H4.83594V25.9339H6.83867V23.8115Z" fill="white"/>
<path d="M8.84258 23.8115H6.83984V25.9339H8.84258V23.8115Z" fill="#181425"/>
<path d="M10.8426 23.8115H8.83984V25.9339H10.8426V23.8115Z" fill="white"/>
<path d="M12.8152 23.8115H10.8125V25.9339H12.8152V23.8115Z" fill="#181425"/>
<path d="M14.8191 23.8115H12.8164V25.9339H14.8191V23.8115Z" fill="#E45C00"/>
<path d="M16.8191 23.8115H14.8164V25.9339H16.8191V23.8115Z" fill="#181425"/>
<path d="M18.827 23.8115H16.8242V25.9339H18.827V23.8115Z" fill="#181425"/>
<path d="M20.827 23.8115H18.8242V25.9339H20.827V23.8115Z" fill="white"/>
<path d="M22.8309 23.8115H20.8281V25.9339H22.8309V23.8115Z" fill="white"/>
<path d="M24.8348 23.8115H22.832V25.9339H24.8348V23.8115Z" fill="#394778"/>
<path d="M26.8348 23.8115H24.832V25.9339H26.8348V23.8115Z" fill="#181425"/>
<path d="M28.8387 23.8115H26.8359V25.9339H28.8387V23.8115Z" fill="#181425"/>
<path d="M30.8113 23.8115H28.8086V25.9339H30.8113V23.8115Z" fill="#FF7C06"/>
<path d="M32.8113 23.8115H30.8086V25.9339H32.8113V23.8115Z" fill="#FF7C06"/>
<path d="M34.8113 23.8115H32.8086V25.9339H34.8113V23.8115Z" fill="#181425"/>
<path d="M36.8152 23.8115H34.8125V25.9339H36.8152V23.8115Z" fill="#181425"/>
<path d="M38.823 23.8115H36.8203V25.9339H38.823V23.8115Z" fill="#394778"/>
<path d="M40.823 23.8115H38.8203V25.9339H40.823V23.8115Z" fill="#181425"/>
<path d="M42.827 23.8115H40.8242V25.9339H42.827V23.8115Z" fill="#181425"/>
<path d="M44.8309 23.8115H42.8281V25.9339H44.8309V23.8115Z" fill="white"/>
<path d="M46.8309 23.8115H44.8281V25.9339H46.8309V23.8115Z" fill="#181425"/>
<path d="M4.83477 25.9336H2.83203V28.0559H4.83477V25.9336Z" fill="#181425"/>
<path d="M6.83867 25.9336H4.83594V28.0559H6.83867V25.9336Z" fill="#181425"/>
<path d="M8.84258 25.9336H6.83984V28.0559H8.84258V25.9336Z" fill="#181425"/>
<path d="M10.8426 25.9336H8.83984V28.0559H10.8426V25.9336Z" fill="#181425"/>
<path d="M12.8152 25.9336H10.8125V28.0559H12.8152V25.9336Z" fill="#FF7C06"/>
<path d="M14.8191 25.9336H12.8164V28.0559H14.8191V25.9336Z" fill="#181425"/>
<path d="M16.8191 25.9336H14.8164V28.0559H16.8191V25.9336Z" fill="#E45C00"/>
<path d="M18.827 25.9336H16.8242V28.0559H18.827V25.9336Z" fill="#181425"/>
<path d="M20.827 25.9336H18.8242V28.0559H20.827V25.9336Z" fill="#181425"/>
<path d="M22.8309 25.9336H20.8281V28.0559H22.8309V25.9336Z" fill="#181425"/>
<path d="M24.8348 25.9336H22.832V28.0559H24.8348V25.9336Z" fill="#181425"/>
<path d="M26.8348 25.9336H24.832V28.0559H26.8348V25.9336Z" fill="#181425"/>
<path d="M28.8387 25.9336H26.8359V28.0559H28.8387V25.9336Z" fill="#FF7C06"/>
<path d="M30.8113 25.9336H28.8086V28.0559H30.8113V25.9336Z" fill="#FF7C06"/>
<path d="M32.8113 25.9336H30.8086V28.0559H32.8113V25.9336Z" fill="#FF7C06"/>
<path d="M34.8113 25.9336H32.8086V28.0559H34.8113V25.9336Z" fill="#FF7C06"/>
<path d="M36.8152 25.9336H34.8125V28.0559H36.8152V25.9336Z" fill="#181425"/>
<path d="M38.823 25.9336H36.8203V28.0559H38.823V25.9336Z" fill="#181425"/>
<path d="M40.823 25.9336H38.8203V28.0559H40.823V25.9336Z" fill="#181425"/>
<path d="M42.827 25.9336H40.8242V28.0559H42.827V25.9336Z" fill="#FF7C06"/>
<path d="M44.8309 25.9336H42.8281V28.0559H44.8309V25.9336Z" fill="#181425"/>
<path d="M4.83477 28.0566H2.83203V30.179H4.83477V28.0566Z" fill="#181425"/>
<path d="M6.83867 28.0566H4.83594V30.179H6.83867V28.0566Z" fill="#262B44"/>
<path d="M8.84258 28.0566H6.83984V30.179H8.84258V28.0566Z" fill="#262B44"/>
<path d="M10.8426 28.0566H8.83984V30.179H10.8426V28.0566Z" fill="#181425"/>
<path d="M12.8152 28.0566H10.8125V30.179H12.8152V28.0566Z" fill="#FF7C06"/>
<path d="M14.8191 28.0566H12.8164V30.179H14.8191V28.0566Z" fill="#181425"/>
<path d="M16.8191 28.0566H14.8164V30.179H16.8191V28.0566Z" fill="#E45C00"/>
<path d="M18.827 28.0566H16.8242V30.179H18.827V28.0566Z" fill="#E45C00"/>
<path d="M20.827 28.0566H18.8242V30.179H20.827V28.0566Z" fill="#181425"/>
<path d="M22.8309 28.0566H20.8281V30.179H22.8309V28.0566Z" fill="#181425"/>
<path d="M24.8348 28.0566H22.832V30.179H24.8348V28.0566Z" fill="#181425"/>
<path d="M26.8348 28.0566H24.832V30.179H26.8348V28.0566Z" fill="#FF7C06"/>
<path d="M28.8387 28.0566H26.8359V30.179H28.8387V28.0566Z" fill="#FF7C06"/>
<path d="M30.8113 28.0566H28.8086V30.179H30.8113V28.0566Z" fill="#FF7C06"/>
<path d="M32.8113 28.0566H30.8086V30.179H32.8113V28.0566Z" fill="#FF7C06"/>
<path d="M34.8113 28.0566H32.8086V30.179H34.8113V28.0566Z" fill="#181425"/>
<path d="M36.8152 28.0566H34.8125V30.179H36.8152V28.0566Z" fill="#FF7C06"/>
<path d="M38.823 28.0566H36.8203V30.179H38.823V28.0566Z" fill="#181425"/>
<path d="M40.823 28.0566H38.8203V30.179H40.823V28.0566Z" fill="#181425"/>
<path d="M42.827 28.0566H40.8242V30.179H42.827V28.0566Z" fill="#FF7C06"/>
<path d="M44.8309 28.0566H42.8281V30.179H44.8309V28.0566Z" fill="#181425"/>
<path d="M2.83477 30.1445H0.832031V32.2669H2.83477V30.1445Z" fill="#181425"/>
<path d="M4.83477 30.1445H2.83203V32.2669H4.83477V30.1445Z" fill="#262B44"/>
<path d="M6.83867 30.1445H4.83594V32.2669H6.83867V30.1445Z" fill="#262B44"/>
<path d="M8.84258 30.1445H6.83984V32.2669H8.84258V30.1445Z" fill="#181425"/>
<path d="M10.8426 30.1445H8.83984V32.2669H10.8426V30.1445Z" fill="#E45C00"/>
<path d="M12.8152 30.1445H10.8125V32.2669H12.8152V30.1445Z" fill="#181425"/>
<path d="M14.8191 30.1445H12.8164V32.2669H14.8191V30.1445Z" fill="#181425"/>
<path d="M16.8191 30.1445H14.8164V32.2669H16.8191V30.1445Z" fill="#181425"/>
<path d="M18.827 30.1445H16.8242V32.2669H18.827V30.1445Z" fill="#E45C00"/>
<path d="M20.827 30.1445H18.8242V32.2669H20.827V30.1445Z" fill="#FF7C06"/>
<path d="M22.8309 30.1445H20.8281V32.2669H22.8309V30.1445Z" fill="#FF7C06"/>
<path d="M24.8348 30.1445H22.832V32.2669H24.8348V30.1445Z" fill="#FF7C06"/>
<path d="M26.8348 30.1445H24.832V32.2669H26.8348V30.1445Z" fill="#FF7C06"/>
<path d="M28.8387 30.1445H26.8359V32.2669H28.8387V30.1445Z" fill="#181425"/>
<path d="M30.8113 30.1445H28.8086V32.2669H30.8113V30.1445Z" fill="#181425"/>
<path d="M32.8113 30.1445H30.8086V32.2669H32.8113V30.1445Z" fill="#181425"/>
<path d="M34.8113 30.1445H32.8086V32.2669H34.8113V30.1445Z" fill="#FF7C06"/>
<path d="M36.8152 30.1445H34.8125V32.2669H36.8152V30.1445Z" fill="#FF7C06"/>
<path d="M38.823 30.1445H36.8203V32.2669H38.823V30.1445Z" fill="#181425"/>
<path d="M40.823 30.1445H38.8203V32.2669H40.823V30.1445Z" fill="#FF7C06"/>
<path d="M42.827 30.1445H40.8242V32.2669H42.827V30.1445Z" fill="#181425"/>
<path d="M44.8309 30.1445H42.8281V32.2669H44.8309V30.1445Z" fill="#262B44"/>
<path d="M46.8309 30.1445H44.8281V32.2669H46.8309V30.1445Z" fill="#181425"/>
<path d="M2.83477 32.2666H0.832031V34.389H2.83477V32.2666Z" fill="#181425"/>
<path d="M4.83477 32.2666H2.83203V34.389H4.83477V32.2666Z" fill="#262B44"/>
<path d="M6.83867 32.2666H4.83594V34.389H6.83867V32.2666Z" fill="#181425"/>
<path d="M8.84258 32.2666H6.83984V34.389H8.84258V32.2666Z" fill="#181425"/>
<path d="M10.8426 32.2666H8.83984V34.389H10.8426V32.2666Z" fill="#181425"/>
<path d="M12.8152 32.2666H10.8125V34.389H12.8152V32.2666Z" fill="#181425"/>
<path d="M14.8191 32.2666H12.8164V34.389H14.8191V32.2666Z" fill="white"/>
<path d="M16.8191 32.2666H14.8164V34.389H16.8191V32.2666Z" fill="white"/>
<path d="M18.827 32.2666H16.8242V34.389H18.827V32.2666Z" fill="#181425"/>
<path d="M20.827 32.2666H18.8242V34.389H20.827V32.2666Z" fill="#E45C00"/>
<path d="M22.8309 32.2666H20.8281V34.389H22.8309V32.2666Z" fill="#FF7C06"/>
<path d="M24.8348 32.2666H22.832V34.389H24.8348V32.2666Z" fill="#FF7C06"/>
<path d="M26.8348 32.2666H24.832V34.389H26.8348V32.2666Z" fill="#FF7C06"/>
<path d="M28.8387 32.2666H26.8359V34.389H28.8387V32.2666Z" fill="#FF7C06"/>
<path d="M30.8113 32.2666H28.8086V34.389H30.8113V32.2666Z" fill="#FF7C06"/>
<path d="M32.8113 32.2666H30.8086V34.389H32.8113V32.2666Z" fill="#FF7C06"/>
<path d="M34.8113 32.2666H32.8086V34.389H34.8113V32.2666Z" fill="#FF7C06"/>
<path d="M36.8152 32.2666H34.8125V34.389H36.8152V32.2666Z" fill="#181425"/>
<path d="M38.823 32.2666H36.8203V34.389H38.823V32.2666Z" fill="white"/>
<path d="M40.823 32.2666H38.8203V34.389H40.823V32.2666Z" fill="#181425"/>
<path d="M42.827 32.2666H40.8242V34.389H42.827V32.2666Z" fill="#181425"/>
<path d="M44.8309 32.2666H42.8281V34.389H44.8309V32.2666Z" fill="#262B44"/>
<path d="M46.8309 32.2666H44.8281V34.389H46.8309V32.2666Z" fill="#181425"/>
<path d="M4.83477 34.3887H2.83203V36.511H4.83477V34.3887Z" fill="#181425"/>
<path d="M6.83867 34.3887H4.83594V36.511H6.83867V34.3887Z" fill="#C6C6C6"/>
<path d="M8.84258 34.3887H6.83984V36.511H8.84258V34.3887Z" fill="white"/>
<path d="M10.8426 34.3887H8.83984V36.511H10.8426V34.3887Z" fill="white"/>
<path d="M12.8152 34.3887H10.8125V36.511H12.8152V34.3887Z" fill="#181425"/>
<path d="M14.8191 34.3887H12.8164V36.511H14.8191V34.3887Z" fill="#181425"/>
<path d="M16.8191 34.3887H14.8164V36.511H16.8191V34.3887Z" fill="#C6C6C6"/>
<path d="M18.827 34.3887H16.8242V36.511H18.827V34.3887Z" fill="white"/>
<path d="M20.827 34.3887H18.8242V36.511H20.827V34.3887Z" fill="#181425"/>
<path d="M22.8309 34.3887H20.8281V36.511H22.8309V34.3887Z" fill="#E45C00"/>
<path d="M24.8348 34.3887H22.832V36.511H24.8348V34.3887Z" fill="#E45C00"/>
<path d="M26.8348 34.3887H24.832V36.511H26.8348V34.3887Z" fill="#FF7C06"/>
<path d="M28.8387 34.3887H26.8359V36.511H28.8387V34.3887Z" fill="#FF7C06"/>
<path d="M30.8113 34.3887H28.8086V36.511H30.8113V34.3887Z" fill="#FF7C06"/>
<path d="M32.8113 34.3887H30.8086V36.511H32.8113V34.3887Z" fill="#FF7C06"/>
<path d="M34.8113 34.3887H32.8086V36.511H34.8113V34.3887Z" fill="#181425"/>
<path d="M36.8152 34.3887H34.8125V36.511H36.8152V34.3887Z" fill="white"/>
<path d="M38.823 34.3887H36.8203V36.511H38.823V34.3887Z" fill="white"/>
<path d="M40.823 34.3887H38.8203V36.511H40.823V34.3887Z" fill="#181425"/>
<path d="M44.8309 34.3887H42.8281V36.511H44.8309V34.3887Z" fill="#181425"/>
<path d="M46.8309 34.3887H44.8281V36.511H46.8309V34.3887Z" fill="#C6C6C6"/>
<path d="M4.83477 36.5117H2.83203V38.6341H4.83477V36.5117Z" fill="#181425"/>
<path d="M6.83867 36.5117H4.83594V38.6341H6.83867V36.5117Z" fill="#C6C6C6"/>
<path d="M8.84258 36.5117H6.83984V38.6341H8.84258V36.5117Z" fill="white"/>
<path d="M10.8426 36.5117H8.83984V38.6341H10.8426V36.5117Z" fill="white"/>
<path d="M12.8152 36.5117H10.8125V38.6341H12.8152V36.5117Z" fill="#181425"/>
<path d="M14.8191 36.5117H12.8164V38.6341H14.8191V36.5117Z" fill="#C6C6C6"/>
<path d="M16.8191 36.5117H14.8164V38.6341H16.8191V36.5117Z" fill="#181425"/>
<path d="M18.827 36.5117H16.8242V38.6341H18.827V36.5117Z" fill="white"/>
<path d="M20.827 36.5117H18.8242V38.6341H20.827V36.5117Z" fill="#181425"/>
<path d="M22.8309 36.5117H20.8281V38.6341H22.8309V36.5117Z" fill="#181425"/>
<path d="M24.8348 36.5117H22.832V38.6341H24.8348V36.5117Z" fill="#181425"/>
<path d="M26.8348 36.5117H24.832V38.6341H26.8348V36.5117Z" fill="#181425"/>
<path d="M28.8387 36.5117H26.8359V38.6341H28.8387V36.5117Z" fill="#181425"/>
<path d="M30.8113 36.5117H28.8086V38.6341H30.8113V36.5117Z" fill="#181425"/>
<path d="M32.8113 36.5117H30.8086V38.6341H32.8113V36.5117Z" fill="#181425"/>
<path d="M34.8113 36.5117H32.8086V38.6341H34.8113V36.5117Z" fill="white"/>
<path d="M36.8152 36.5117H34.8125V38.6341H36.8152V36.5117Z" fill="white"/>
<path d="M38.823 36.5117H36.8203V38.6341H38.823V36.5117Z" fill="#181425"/>
<path d="M44.8309 36.5117H42.8281V38.6341H44.8309V36.5117Z" fill="#181425"/>
<path d="M46.8309 36.5117H44.8281V38.6341H46.8309V36.5117Z" fill="#C6C6C6"/>
<path d="M4.83477 38.6348H2.83203V40.7571H4.83477V38.6348Z" fill="#181425"/>
<path d="M6.83867 38.6348H4.83594V40.7571H6.83867V38.6348Z" fill="#C6C6C6"/>
<path d="M8.84258 38.6348H6.83984V40.7571H8.84258V38.6348Z" fill="white"/>
<path d="M10.8426 38.6348H8.83984V40.7571H10.8426V38.6348Z" fill="white"/>
<path d="M12.8152 38.6348H10.8125V40.7571H12.8152V38.6348Z" fill="#181425"/>
<path d="M14.8191 38.6348H12.8164V40.7571H14.8191V38.6348Z" fill="#181425"/>
<path d="M16.8191 38.6348H14.8164V40.7571H16.8191V38.6348Z" fill="#181425"/>
<path d="M18.827 38.6348H16.8242V40.7571H18.827V38.6348Z" fill="#181425"/>
<path d="M20.827 38.6348H18.8242V40.7571H20.827V38.6348Z" fill="#181425"/>
<path d="M22.8309 38.6348H20.8281V40.7571H22.8309V38.6348Z" fill="#E45C00"/>
<path d="M24.8348 38.6348H22.832V40.7571H24.8348V38.6348Z" fill="#E45C00"/>
<path d="M26.8348 38.6348H24.832V40.7571H26.8348V38.6348Z" fill="#E45C00"/>
<path d="M28.8387 38.6348H26.8359V40.7571H28.8387V38.6348Z" fill="#FF7C06"/>
<path d="M30.8113 38.6348H28.8086V40.7571H30.8113V38.6348Z" fill="#FF7C06"/>
<path d="M32.8113 38.6348H30.8086V40.7571H32.8113V38.6348Z" fill="#181425"/>
<path d="M34.8113 38.6348H32.8086V40.7571H34.8113V38.6348Z" fill="#181425"/>
<path d="M36.8152 38.6348H34.8125V40.7571H36.8152V38.6348Z" fill="#181425"/>
<path d="M44.8309 38.6348H42.8281V40.7571H44.8309V38.6348Z" fill="#181425"/>
<path d="M46.8309 38.6348H44.8281V40.7571H46.8309V38.6348Z" fill="#C6C6C6"/>
<path d="M6.83867 40.7568H4.83594V42.8792H6.83867V40.7568Z" fill="#181425"/>
<path d="M8.84258 40.7568H6.83984V42.8792H8.84258V40.7568Z" fill="#181425"/>
<path d="M10.8426 40.7568H8.83984V42.8792H10.8426V40.7568Z" fill="#181425"/>
<path d="M14.8191 40.7568H12.8164V42.8792H14.8191V40.7568Z" fill="#181425"/>
<path d="M16.8191 40.7568H14.8164V42.8792H16.8191V40.7568Z" fill="#262B44"/>
<path d="M18.827 40.7568H16.8242V42.8792H18.827V40.7568Z" fill="#181425"/>
<path d="M20.827 40.7568H18.8242V42.8792H20.827V40.7568Z" fill="#181425"/>
<path d="M22.8309 40.7568H20.8281V42.8792H22.8309V40.7568Z" fill="#181425"/>
<path d="M24.8348 40.7568H22.832V42.8792H24.8348V40.7568Z" fill="#181425"/>
<path d="M26.8348 40.7568H24.832V42.8792H26.8348V40.7568Z" fill="#181425"/>
<path d="M28.8387 40.7568H26.8359V42.8792H28.8387V40.7568Z" fill="#181425"/>
<path d="M30.8113 40.7568H28.8086V42.8792H30.8113V40.7568Z" fill="#181425"/>
<path d="M32.8113 40.7568H30.8086V42.8792H32.8113V40.7568Z" fill="#181425"/>
<path d="M34.8113 40.7568H32.8086V42.8792H34.8113V40.7568Z" fill="#262B44"/>
<path d="M36.8152 40.7568H34.8125V42.8792H36.8152V40.7568Z" fill="#181425"/>
<path d="M46.8309 40.7568H44.8281V42.8792H46.8309V40.7568Z" fill="#181425"/>
</g>
<defs>
<clipPath id="clip0_3610_3829">
<rect width="45.8333" height="40.3333" fill="white" transform="translate(0.832031 0.5)"/>
</clipPath>
</defs>
</svg>
