<svg width="17" height="17" viewBox="0 0 17 17" fill="none" xmlns="http://www.w3.org/2000/svg">
<path d="M9.37339 0.692993H10.3574V1.67703H9.37339V0.692993Z" fill="#16171A"/>
<path d="M8.39072 0.692993H9.37476V1.67703H8.39072V0.692993Z" fill="#16171A"/>
<path d="M7.40781 0.692993H8.39185V1.67703H7.40781V0.692993Z" fill="#16171A"/>
<path d="M6.42563 0.692993H7.40967V1.67703H6.42563V0.692993Z" fill="#16171A"/>
<path d="M11.3451 1.67725H12.3291V2.66128H11.3451V1.67725Z" fill="#16171A"/>
<path d="M10.3624 1.67725H11.3464V2.66128H10.3624V1.67725Z" fill="#16171A"/>
<path d="M9.37339 1.67725H10.3574V2.66128H9.37339V1.67725Z" fill="#FAFDFF"/>
<path d="M8.39072 1.67725H9.37476V2.66128H8.39072V1.67725Z" fill="#FAFDFF"/>
<path d="M7.40781 1.67725H8.39185V2.66128H7.40781V1.67725Z" fill="#FAFDFF"/>
<path d="M6.42563 1.67725H7.40967V2.66128H6.42563V1.67725Z" fill="#FAFDFF"/>
<path d="M5.43662 1.67725H6.42065V2.66128H5.43662V1.67725Z" fill="#16171A"/>
<path d="M4.45395 1.67725H5.43799V2.66128H4.45395V1.67725Z" fill="#16171A"/>
<path d="M12.3277 2.66064H13.3118V3.64468H12.3277V2.66064Z" fill="#16171A"/>
<path d="M11.3451 2.66064H12.3291V3.64468H11.3451V2.66064Z" fill="#FAFDFF"/>
<path d="M10.3624 2.66064H11.3464V3.64468H10.3624V2.66064Z" fill="#FAFDFF"/>
<path d="M9.38608 2.66064H10.3701V3.64468H9.38608V2.66064Z" fill="#FFBD82"/>
<path d="M8.39707 2.66064H9.3811V3.64468H8.39707V2.66064Z" fill="#FFBD82"/>
<path d="M7.41489 2.66064H8.39893V3.64468H7.41489V2.66064Z" fill="#FFBD82"/>
<path d="M6.43174 2.66064H7.41577V3.64468H6.43174V2.66064Z" fill="#FFBD82"/>
<path d="M5.44907 2.66064H6.43311V3.64468H5.44907V2.66064Z" fill="#FAFDFF"/>
<path d="M4.46006 2.66064H5.44409V3.64468H4.46006V2.66064Z" fill="#FAFDFF"/>
<path d="M3.47739 2.66064H4.46143V3.64468H3.47739V2.66064Z" fill="#16171A"/>
<path d="M13.3165 3.6449H14.3005V4.62893H13.3165V3.6449Z" fill="#16171A"/>
<path d="M12.3277 3.6449H13.3118V4.62893H12.3277V3.6449Z" fill="#FAFDFF"/>
<path d="M11.3451 3.6449H12.3291V4.62893H11.3451V3.6449Z" fill="#FFBD82"/>
<path d="M10.3624 3.6449H11.3464V4.62893H10.3624V3.6449Z" fill="#FFBD82"/>
<path d="M9.38608 3.6449H10.3701V4.62893H9.38608V3.6449Z" fill="#FFBD82"/>
<path d="M8.39707 3.6449H9.3811V4.62893H8.39707V3.6449Z" fill="#FFBD82"/>
<path d="M7.41489 3.6449H8.39893V4.62893H7.41489V3.6449Z" fill="#FFBD82"/>
<path d="M6.43174 3.6449H7.41577V4.62893H6.43174V3.6449Z" fill="#FFBD82"/>
<path d="M5.44907 3.6449H6.43311V4.62893H5.44907V3.6449Z" fill="#FFBD82"/>
<path d="M4.46006 3.6449H5.44409V4.62893H4.46006V3.6449Z" fill="#FFBD82"/>
<path d="M3.47739 3.6449H4.46143V4.62893H3.47739V3.6449Z" fill="#FAFDFF"/>
<path d="M2.49472 3.6449H3.47876V4.62893H2.49472V3.6449Z" fill="#16171A"/>
<path d="M14.2989 4.62842H15.283V5.61245H14.2989V4.62842Z" fill="#16171A"/>
<path d="M13.3165 4.6283H14.3005V5.61233H13.3165V4.6283Z" fill="#FAFDFF"/>
<path d="M12.3277 4.6283H13.3118V5.61233H12.3277V4.6283Z" fill="#FFBD82"/>
<path d="M11.3451 4.6283H12.3291V5.61233H11.3451V4.6283Z" fill="#FFBD82"/>
<path d="M10.3624 4.6283H11.3464V5.61233H10.3624V4.6283Z" fill="#FFBD82"/>
<path d="M9.38608 4.6283H10.3701V5.61233H9.38608V4.6283Z" fill="#FFBD82"/>
<path d="M8.39707 4.6283H9.3811V5.61233H8.39707V4.6283Z" fill="#FFBD82"/>
<path d="M7.41489 4.62842H8.39893V5.61245H7.41489V4.62842Z" fill="#FFBD82"/>
<path d="M6.43174 4.6283H7.41577V5.61233H6.43174V4.6283Z" fill="#FFBD82"/>
<path d="M5.44907 4.6283H6.43311V5.61233H5.44907V4.6283Z" fill="#FFBD82"/>
<path d="M4.46006 4.6283H5.44409V5.61233H4.46006V4.6283Z" fill="#FFBD82"/>
<path d="M3.47739 4.62842H4.46143V5.61245H3.47739V4.62842Z" fill="#FFBD82"/>
<path d="M2.49472 4.6283H3.47876V5.61233H2.49472V4.6283Z" fill="#FF8426"/>
<path d="M1.50595 4.6283H2.48999V5.61233H1.50595V4.6283Z" fill="#16171A"/>
<path d="M14.2989 5.61279H15.283V6.59683H14.2989V5.61279Z" fill="#16171A"/>
<path d="M13.3165 5.61255H14.3005V6.59658H13.3165V5.61255Z" fill="#FAFDFF"/>
<path d="M12.3277 5.61255H13.3118V6.59658H12.3277V5.61255Z" fill="#FFBD82"/>
<path d="M11.3451 5.61255H12.3291V6.59658H11.3451V5.61255Z" fill="#FFBD82"/>
<path d="M10.3624 5.61255H11.3464V6.59658H10.3624V5.61255Z" fill="#FFBD82"/>
<path d="M9.38608 5.61255H10.3701V6.59658H9.38608V5.61255Z" fill="#FFBD82"/>
<path d="M8.39707 5.61255H9.3811V6.59658H8.39707V5.61255Z" fill="#FFBD82"/>
<path d="M7.41489 5.61279H8.39893V6.59683H7.41489V5.61279Z" fill="#FFBD82"/>
<path d="M6.43174 5.61255H7.41577V6.59658H6.43174V5.61255Z" fill="#FFBD82"/>
<path d="M5.44907 5.61255H6.43311V6.59658H5.44907V5.61255Z" fill="#FFBD82"/>
<path d="M4.46006 5.61255H5.44409V6.59658H4.46006V5.61255Z" fill="#FFBD82"/>
<path d="M3.47739 5.61279H4.46143V6.59683H3.47739V5.61279Z" fill="#FFBD82"/>
<path d="M2.49472 5.61255H3.47876V6.59658H2.49472V5.61255Z" fill="#FF8426"/>
<path d="M1.50595 5.61255H2.48999V6.59658H1.50595V5.61255Z" fill="#16171A"/>
<path d="M15.2818 6.5968H16.2659V7.58084H15.2818V6.5968Z" fill="#16171A"/>
<path d="M14.2989 6.59705H15.283V7.58108H14.2989V6.59705Z" fill="#FAFDFF"/>
<path d="M13.3165 6.5968H14.3005V7.58084H13.3165V6.5968Z" fill="#FFBD82"/>
<path d="M12.3277 6.5968H13.3118V7.58084H12.3277V6.5968Z" fill="#FFBD82"/>
<path d="M11.3451 6.5968H12.3291V7.58084H11.3451V6.5968Z" fill="#FFBD82"/>
<path d="M10.3624 6.5968H11.3464V7.58084H10.3624V6.5968Z" fill="#FFBD82"/>
<path d="M9.38608 6.5968H10.3701V7.58084H9.38608V6.5968Z" fill="#FFBD82"/>
<path d="M8.39707 6.5968H9.3811V7.58084H8.39707V6.5968Z" fill="#FFBD82"/>
<path d="M7.41489 6.59705H8.39893V7.58108H7.41489V6.59705Z" fill="#FFBD82"/>
<path d="M6.43174 6.5968H7.41577V7.58084H6.43174V6.5968Z" fill="#FFBD82"/>
<path d="M5.44907 6.5968H6.43311V7.58084H5.44907V6.5968Z" fill="#FFBD82"/>
<path d="M4.46006 6.5968H5.44409V7.58084H4.46006V6.5968Z" fill="#FFBD82"/>
<path d="M3.47739 6.59705H4.46143V7.58108H3.47739V6.59705Z" fill="#FFBD82"/>
<path d="M2.49472 6.5968H3.47876V7.58084H2.49472V6.5968Z" fill="#FFBD82"/>
<path d="M1.50595 6.5968H2.48999V7.58084H1.50595V6.5968Z" fill="#FF8426"/>
<path d="M0.523288 6.5968H1.50732V7.58084H0.523288V6.5968Z" fill="#16171A"/>
<path d="M15.2818 7.58105H16.2659V8.56509H15.2818V7.58105Z" fill="#16171A"/>
<path d="M14.2989 7.58069H15.283V8.56472H14.2989V7.58069Z" fill="#FAFDFF"/>
<path d="M13.3165 7.58105H14.3005V8.56509H13.3165V7.58105Z" fill="#FFBD82"/>
<path d="M12.3277 7.58105H13.3118V8.56509H12.3277V7.58105Z" fill="#FFBD82"/>
<path d="M11.3451 7.58105H12.3291V8.56509H11.3451V7.58105Z" fill="#FFBD82"/>
<path d="M10.3624 7.58105H11.3464V8.56509H10.3624V7.58105Z" fill="#FFBD82"/>
<path d="M9.38608 7.58105H10.3701V8.56509H9.38608V7.58105Z" fill="#FFBD82"/>
<path d="M8.39707 7.58105H9.3811V8.56509H8.39707V7.58105Z" fill="#FFBD82"/>
<path d="M7.41489 7.58069H8.39893V8.56472H7.41489V7.58069Z" fill="#FFBD82"/>
<path d="M6.43174 7.58105H7.41577V8.56509H6.43174V7.58105Z" fill="#FFBD82"/>
<path d="M5.44907 7.58105H6.43311V8.56509H5.44907V7.58105Z" fill="#FFBD82"/>
<path d="M4.46006 7.58105H5.44409V8.56509H4.46006V7.58105Z" fill="#FFBD82"/>
<path d="M3.47739 7.58069H4.46143V8.56472H3.47739V7.58069Z" fill="#FFBD82"/>
<path d="M2.49472 7.58105H3.47876V8.56509H2.49472V7.58105Z" fill="#FFBD82"/>
<path d="M1.50595 7.58105H2.48999V8.56509H1.50595V7.58105Z" fill="#FF8426"/>
<path d="M0.523288 7.58105H1.50732V8.56509H0.523288V7.58105Z" fill="#16171A"/>
<path d="M15.2818 8.56531H16.2659V9.54934H15.2818V8.56531Z" fill="#16171A"/>
<path d="M14.2989 8.56494H15.283V9.54898H14.2989V8.56494Z" fill="#FAFDFF"/>
<path d="M13.3165 8.56531H14.3005V9.54934H13.3165V8.56531Z" fill="#FFBD82"/>
<path d="M12.3277 8.56531H13.3118V9.54934H12.3277V8.56531Z" fill="#FFBD82"/>
<path d="M11.3451 8.56531H12.3291V9.54934H11.3451V8.56531Z" fill="#FFBD82"/>
<path d="M10.3624 8.56531H11.3464V9.54934H10.3624V8.56531Z" fill="#FFBD82"/>
<path d="M9.38608 8.56531H10.3701V9.54934H9.38608V8.56531Z" fill="#FFBD82"/>
<path d="M8.39707 8.56531H9.3811V9.54934H8.39707V8.56531Z" fill="#FFBD82"/>
<path d="M7.41489 8.56494H8.39893V9.54898H7.41489V8.56494Z" fill="#FFBD82"/>
<path d="M6.43174 8.56531H7.41577V9.54934H6.43174V8.56531Z" fill="#FFBD82"/>
<path d="M5.44907 8.56531H6.43311V9.54934H5.44907V8.56531Z" fill="#FFBD82"/>
<path d="M4.46006 8.56531H5.44409V9.54934H4.46006V8.56531Z" fill="#FFBD82"/>
<path d="M3.47739 8.56494H4.46143V9.54898H3.47739V8.56494Z" fill="#FFBD82"/>
<path d="M2.49472 8.56531H3.47876V9.54934H2.49472V8.56531Z" fill="#FFBD82"/>
<path d="M1.50595 8.56531H2.48999V9.54934H1.50595V8.56531Z" fill="#FF8426"/>
<path d="M0.523288 8.56531H1.50732V9.54934H0.523288V8.56531Z" fill="#16171A"/>
<path d="M15.2818 9.54871H16.2659V10.5327H15.2818V9.54871Z" fill="#16171A"/>
<path d="M14.2989 9.54858H15.283V10.5326H14.2989V9.54858Z" fill="#FAFDFF"/>
<path d="M13.3165 9.54871H14.3005V10.5327H13.3165V9.54871Z" fill="#FFBD82"/>
<path d="M12.3277 9.54871H13.3118V10.5327H12.3277V9.54871Z" fill="#FFBD82"/>
<path d="M11.3451 9.54871H12.3291V10.5327H11.3451V9.54871Z" fill="#FFBD82"/>
<path d="M10.3624 9.54871H11.3464V10.5327H10.3624V9.54871Z" fill="#FFBD82"/>
<path d="M9.38608 9.54871H10.3701V10.5327H9.38608V9.54871Z" fill="#FFBD82"/>
<path d="M8.39707 9.54871H9.3811V10.5327H8.39707V9.54871Z" fill="#FFBD82"/>
<path d="M7.41489 9.54858H8.39893V10.5326H7.41489V9.54858Z" fill="#FFBD82"/>
<path d="M6.43174 9.54871H7.41577V10.5327H6.43174V9.54871Z" fill="#FFBD82"/>
<path d="M5.44907 9.54871H6.43311V10.5327H5.44907V9.54871Z" fill="#FFBD82"/>
<path d="M4.46006 9.54871H5.44409V10.5327H4.46006V9.54871Z" fill="#FFBD82"/>
<path d="M3.47739 9.54858H4.46143V10.5326H3.47739V9.54858Z" fill="#FFBD82"/>
<path d="M2.49472 9.54871H3.47876V10.5327H2.49472V9.54871Z" fill="#FFBD82"/>
<path d="M1.50595 9.54871H2.48999V10.5327H1.50595V9.54871Z" fill="#FF8426"/>
<path d="M0.523288 9.54871H1.50732V10.5327H0.523288V9.54871Z" fill="#16171A"/>
<path d="M14.2989 10.5328H15.283V11.5169H14.2989V10.5328Z" fill="#16171A"/>
<path d="M13.3165 10.533H14.3005V11.517H13.3165V10.533Z" fill="#FAFDFF"/>
<path d="M12.3277 10.533H13.3118V11.517H12.3277V10.533Z" fill="#FFBD82"/>
<path d="M11.3451 10.533H12.3291V11.517H11.3451V10.533Z" fill="#FFBD82"/>
<path d="M10.3624 10.533H11.3464V11.517H10.3624V10.533Z" fill="#FFBD82"/>
<path d="M9.38608 10.533H10.3701V11.517H9.38608V10.533Z" fill="#FFBD82"/>
<path d="M8.39707 10.533H9.3811V11.517H8.39707V10.533Z" fill="#FFBD82"/>
<path d="M7.41489 10.5328H8.39893V11.5169H7.41489V10.5328Z" fill="#FFBD82"/>
<path d="M6.43174 10.533H7.41577V11.517H6.43174V10.533Z" fill="#FFBD82"/>
<path d="M5.44907 10.533H6.43311V11.517H5.44907V10.533Z" fill="#FFBD82"/>
<path d="M4.46006 10.533H5.44409V11.517H4.46006V10.533Z" fill="#FFBD82"/>
<path d="M3.47739 10.5328H4.46143V11.5169H3.47739V10.5328Z" fill="#FFBD82"/>
<path d="M2.49472 10.533H3.47876V11.517H2.49472V10.533Z" fill="#FF8426"/>
<path d="M1.50595 10.533H2.48999V11.517H1.50595V10.533Z" fill="#16171A"/>
<path d="M14.2989 11.5172H15.283V12.5012H14.2989V11.5172Z" fill="#16171A"/>
<path d="M13.3165 11.5172H14.3005V12.5012H13.3165V11.5172Z" fill="#FAFDFF"/>
<path d="M12.3277 11.5172H13.3118V12.5012H12.3277V11.5172Z" fill="#FFBD82"/>
<path d="M11.3451 11.5172H12.3291V12.5012H11.3451V11.5172Z" fill="#FFBD82"/>
<path d="M10.3624 11.5172H11.3464V12.5012H10.3624V11.5172Z" fill="#FFBD82"/>
<path d="M9.38608 11.5172H10.3701V12.5012H9.38608V11.5172Z" fill="#FFBD82"/>
<path d="M8.39707 11.5172H9.3811V12.5012H8.39707V11.5172Z" fill="#FFBD82"/>
<path d="M7.41489 11.5172H8.39893V12.5012H7.41489V11.5172Z" fill="#FFBD82"/>
<path d="M6.43174 11.5172H7.41577V12.5012H6.43174V11.5172Z" fill="#FFBD82"/>
<path d="M5.44907 11.5172H6.43311V12.5012H5.44907V11.5172Z" fill="#FFBD82"/>
<path d="M4.46006 11.5172H5.44409V12.5012H4.46006V11.5172Z" fill="#FFBD82"/>
<path d="M3.47739 11.5172H4.46143V12.5012H3.47739V11.5172Z" fill="#FFBD82"/>
<path d="M2.49472 11.5172H3.47876V12.5012H2.49472V11.5172Z" fill="#FF8426"/>
<path d="M1.50595 11.5172H2.48999V12.5012H1.50595V11.5172Z" fill="#16171A"/>
<path d="M13.3165 12.5006H14.3005V13.4846H13.3165V12.5006Z" fill="#16171A"/>
<path d="M12.3277 12.5006H13.3118V13.4846H12.3277V12.5006Z" fill="#FAFDFF"/>
<path d="M11.3451 12.5006H12.3291V13.4846H11.3451V12.5006Z" fill="#FFBD82"/>
<path d="M10.3624 12.5006H11.3464V13.4846H10.3624V12.5006Z" fill="#FFBD82"/>
<path d="M9.38608 12.5006H10.3701V13.4846H9.38608V12.5006Z" fill="#FFBD82"/>
<path d="M8.39707 12.5006H9.3811V13.4846H8.39707V12.5006Z" fill="#FFBD82"/>
<path d="M7.41489 12.5007H8.39893V13.4848H7.41489V12.5007Z" fill="#FFBD82"/>
<path d="M6.43174 12.5006H7.41577V13.4846H6.43174V12.5006Z" fill="#FFBD82"/>
<path d="M5.44907 12.5006H6.43311V13.4846H5.44907V12.5006Z" fill="#FFBD82"/>
<path d="M4.46006 12.5006H5.44409V13.4846H4.46006V12.5006Z" fill="#FFBD82"/>
<path d="M3.47739 12.5007H4.46143V13.4848H3.47739V12.5007Z" fill="#FF8426"/>
<path d="M2.49472 12.5006H3.47876V13.4846H2.49472V12.5006Z" fill="#16171A"/>
<path d="M12.3277 13.4849H13.3118V14.4689H12.3277V13.4849Z" fill="#16171A"/>
<path d="M11.3451 13.4849H12.3291V14.4689H11.3451V13.4849Z" fill="#FF8426"/>
<path d="M10.3624 13.4849H11.3464V14.4689H10.3624V13.4849Z" fill="#FF8426"/>
<path d="M9.38608 13.4849H10.3701V14.4689H9.38608V13.4849Z" fill="#FFBD82"/>
<path d="M8.39707 13.4849H9.3811V14.4689H8.39707V13.4849Z" fill="#FFBD82"/>
<path d="M7.41489 13.485H8.39893V14.469H7.41489V13.485Z" fill="#FFBD82"/>
<path d="M6.43174 13.4849H7.41577V14.4689H6.43174V13.4849Z" fill="#FFBD82"/>
<path d="M5.44907 13.4849H6.43311V14.4689H5.44907V13.4849Z" fill="#FF8426"/>
<path d="M4.46006 13.4849H5.44409V14.4689H4.46006V13.4849Z" fill="#FF8426"/>
<path d="M3.47739 13.485H4.46143V14.469H3.47739V13.485Z" fill="#16171A"/>
<path d="M11.3451 14.4691H12.3291V15.4532H11.3451V14.4691Z" fill="#16171A"/>
<path d="M10.3624 14.4691H11.3464V15.4532H10.3624V14.4691Z" fill="#16171A"/>
<path d="M9.38608 14.4691H10.3701V15.4532H9.38608V14.4691Z" fill="#FF8426"/>
<path d="M8.39707 14.4691H9.3811V15.4532H8.39707V14.4691Z" fill="#FF8426"/>
<path d="M7.41489 14.4694H8.39893V15.4534H7.41489V14.4694Z" fill="#FF8426"/>
<path d="M6.43174 14.4691H7.41577V15.4532H6.43174V14.4691Z" fill="#FF8426"/>
<path d="M5.44907 14.4691H6.43311V15.4532H5.44907V14.4691Z" fill="#16171A"/>
<path d="M4.46006 14.4691H5.44409V15.4532H4.46006V14.4691Z" fill="#16171A"/>
<path d="M9.38608 15.4532H10.3701V16.4373H9.38608V15.4532Z" fill="#16171A"/>
<path d="M8.39707 15.4532H9.3811V16.4373H8.39707V15.4532Z" fill="#16171A"/>
<path d="M7.41489 15.4529H8.39893V16.4369H7.41489V15.4529Z" fill="#16171A"/>
<path d="M6.43174 15.4532H7.41577V16.4373H6.43174V15.4532Z" fill="#16171A"/>
<path d="M11.3464 11.5166L11.3464 12.5006L10.3624 12.5006L10.3624 11.5166L11.3464 11.5166Z" fill="#16171A"/>
<path d="M11.3464 10.5329L11.3464 11.517L10.3624 11.517L10.3624 10.5329L11.3464 10.5329Z" fill="#16171A"/>
<path d="M11.3464 9.54868L11.3464 10.5327L10.3624 10.5327L10.3624 9.54868L11.3464 9.54868Z" fill="#16171A"/>
<path d="M11.3464 8.5643L11.3464 9.54834L10.3624 9.54834L10.3624 8.5643L11.3464 8.5643Z" fill="#16171A"/>
<path d="M11.3464 7.58078L11.3464 8.56482L10.3624 8.56482L10.3624 7.58078L11.3464 7.58078Z" fill="#16171A"/>
<path d="M11.3464 6.59641L11.3464 7.58044L10.3624 7.58044L10.3624 6.59641L11.3464 6.59641Z" fill="#16171A"/>
<path d="M11.3464 5.61289L11.3464 6.59692L10.3624 6.59692L10.3624 5.61289L11.3464 5.61289Z" fill="#16171A"/>
<path d="M10.3638 12.5008L10.3638 13.4849L9.37973 13.4849L9.37973 12.5008L10.3638 12.5008Z" fill="#16171A"/>
<path d="M10.3638 11.5166L10.3638 12.5006L9.37973 12.5006L9.37973 11.5166L10.3638 11.5166Z" fill="#FAFDFF"/>
<path d="M10.3638 10.5332L10.3638 11.5172L9.37973 11.5172L9.37973 10.5332L10.3638 10.5332Z" fill="#16171A"/>
<path d="M10.3638 9.54892L10.3638 10.533L9.37973 10.533L9.37973 9.54892L10.3638 9.54892Z" fill="#FAFDFF"/>
<path d="M10.3638 8.56467L10.3638 9.54871L9.37973 9.54871L9.37973 8.56467L10.3638 8.56467Z" fill="#FAFDFF"/>
<path d="M10.3638 7.58042L10.3638 8.56445L9.37973 8.56445L9.37973 7.58042L10.3638 7.58042Z" fill="#FAFDFF"/>
<path d="M10.3638 6.59629L10.3638 7.58032L9.37973 7.58032L9.37973 6.59629L10.3638 6.59629Z" fill="#FAFDFF"/>
<path d="M10.3638 5.61277L10.3638 6.5968L9.37973 6.5968L9.37973 5.61277L10.3638 5.61277Z" fill="#FAFDFF"/>
<path d="M10.3638 4.62851L10.3638 5.61255L9.37973 5.61255L9.37973 4.62851L10.3638 4.62851Z" fill="#16171A"/>
<path d="M9.37476 12.5008L9.37476 13.4849L8.39072 13.4849L8.39072 12.5008L9.37476 12.5008Z" fill="#16171A"/>
<path d="M9.37476 11.5166L9.37476 12.5006L8.39072 12.5006L8.39072 11.5166L9.37476 11.5166Z" fill="#B9B9B9"/>
<path d="M9.37476 10.5332L9.37476 11.5172L8.39072 11.5172L8.39072 10.5332L9.37476 10.5332Z" fill="#16171A"/>
<path d="M9.37476 9.54892L9.37476 10.533L8.39072 10.533L8.39072 9.54892L9.37476 9.54892Z" fill="#B9B9B9"/>
<path d="M9.37476 8.56467L9.37476 9.54871L8.39072 9.54871L8.39072 8.56467L9.37476 8.56467Z" fill="#B9B9B9"/>
<path d="M9.37476 7.58042L9.37476 8.56445L8.39072 8.56445L8.39072 7.58042L9.37476 7.58042Z" fill="#B9B9B9"/>
<path d="M9.37476 6.59629L9.37476 7.58032L8.39072 7.58032L8.39072 6.59629L9.37476 6.59629Z" fill="#B9B9B9"/>
<path d="M9.37476 5.61277L9.37476 6.5968L8.39072 6.5968L8.39072 5.61277L9.37476 5.61277Z" fill="#B9B9B9"/>
<path d="M9.37476 4.62851L9.37476 5.61255L8.39072 5.61255L8.39072 4.62851L9.37476 4.62851Z" fill="#606060"/>
<path d="M9.37476 3.64438L9.37476 4.62842L8.39072 4.62842L8.39072 3.64438L9.37476 3.64438Z" fill="#16171A"/>
<path d="M8.39209 12.5008L8.39209 13.4849L7.40805 13.4849L7.40805 12.5008L8.39209 12.5008Z" fill="#16171A"/>
<path d="M8.39209 11.5166L8.39209 12.5006L7.40805 12.5006L7.40805 11.5166L8.39209 11.5166Z" fill="#B9B9B9"/>
<path d="M8.39209 10.5332L8.39209 11.5172L7.40805 11.5172L7.40805 10.5332L8.39209 10.5332Z" fill="#16171A"/>
<path d="M8.39209 9.54892L8.39209 10.533L7.40805 10.533L7.40805 9.54892L8.39209 9.54892Z" fill="#B9B9B9"/>
<path d="M8.39209 8.56467L8.39209 9.54871L7.40805 9.54871L7.40805 8.56467L8.39209 8.56467Z" fill="#B9B9B9"/>
<path d="M8.39209 7.58042L8.39209 8.56445L7.40805 8.56445L7.40805 7.58042L8.39209 7.58042Z" fill="#B9B9B9"/>
<path d="M8.39209 6.59629L8.39209 7.58032L7.40805 7.58032L7.40805 6.59629L8.39209 6.59629Z" fill="#B9B9B9"/>
<path d="M8.39209 5.61277L8.39209 6.5968L7.40805 6.5968L7.40805 5.61277L8.39209 5.61277Z" fill="#B9B9B9"/>
<path d="M8.39209 4.62851L8.39209 5.61255L7.40805 5.61255L7.40805 4.62851L8.39209 4.62851Z" fill="#606060"/>
<path d="M8.39209 3.64438L8.39209 4.62842L7.40805 4.62842L7.40805 3.64438L8.39209 3.64438Z" fill="#16171A"/>
<path d="M7.40894 12.5008L7.40894 13.4849L6.4249 13.4849L6.4249 12.5008L7.40894 12.5008Z" fill="#16171A"/>
<path d="M7.40894 11.5166L7.40894 12.5006L6.4249 12.5006L6.4249 11.5166L7.40894 11.5166Z" fill="#606060"/>
<path d="M7.40894 10.5329L7.40894 11.517L6.4249 11.517L6.4249 10.5329L7.40894 10.5329Z" fill="#16171A"/>
<path d="M7.40894 9.54868L7.40894 10.5327L6.4249 10.5327L6.4249 9.54868L7.40894 9.54868Z" fill="#606060"/>
<path d="M7.40894 8.5643L7.40894 9.54834L6.4249 9.54834L6.4249 8.5643L7.40894 8.5643Z" fill="#606060"/>
<path d="M7.40894 7.58078L7.40894 8.56482L6.4249 8.56482L6.4249 7.58078L7.40894 7.58078Z" fill="#606060"/>
<path d="M7.40894 6.59641L7.40894 7.58044L6.4249 7.58044L6.4249 6.59641L7.40894 6.59641Z" fill="#606060"/>
<path d="M7.40894 5.61289L7.40894 6.59692L6.4249 6.59692L6.4249 5.61289L7.40894 5.61289Z" fill="#606060"/>
<path d="M7.40894 4.62851L7.40894 5.61255L6.4249 5.61255L6.4249 4.62851L7.40894 4.62851Z" fill="#16171A"/>
<path d="M6.42676 11.5166L6.42676 12.5006L5.44272 12.5006L5.44272 11.5166L6.42676 11.5166Z" fill="#16171A"/>
<path d="M6.42676 10.5332L6.42676 11.5172L5.44272 11.5172L5.44272 10.5332L6.42676 10.5332Z" fill="#16171A"/>
<path d="M6.42676 9.54892L6.42676 10.533L5.44272 10.533L5.44272 9.54892L6.42676 9.54892Z" fill="#16171A"/>
<path d="M6.42676 8.56467L6.42676 9.54871L5.44272 9.54871L5.44272 8.56467L6.42676 8.56467Z" fill="#16171A"/>
<path d="M6.42676 7.58042L6.42676 8.56445L5.44272 8.56445L5.44272 7.58042L6.42676 7.58042Z" fill="#16171A"/>
<path d="M6.42676 6.59629L6.42676 7.58032L5.44272 7.58032L5.44272 6.59629L6.42676 6.59629Z" fill="#16171A"/>
<path d="M6.42676 5.61277L6.42676 6.5968L5.44272 6.5968L5.44272 5.61277L6.42676 5.61277Z" fill="#16171A"/>
</svg>
