<svg width="16" height="17" viewBox="0 0 16 17" fill="none" xmlns="http://www.w3.org/2000/svg">
<path d="M8.86142 0.630371H9.84546V1.61441H8.86142V0.630371Z" fill="#16171A"/>
<path d="M7.87876 0.630371H8.86279V1.61441H7.87876V0.630371Z" fill="#16171A"/>
<path d="M6.89634 0.630371H7.88037V1.61441H6.89634V0.630371Z" fill="#16171A"/>
<path d="M5.91367 0.630371H6.89771V1.61441H5.91367V0.630371Z" fill="#16171A"/>
<path d="M10.8329 1.61462H11.8169V2.59866H10.8329V1.61462Z" fill="#16171A"/>
<path d="M9.85044 1.61462H10.8345V2.59866H9.85044V1.61462Z" fill="#16171A"/>
<path d="M8.86142 1.61462H9.84546V2.59866H8.86142V1.61462Z" fill="#FAFDFF"/>
<path d="M7.87876 1.61462H8.86279V2.59866H7.87876V1.61462Z" fill="#FAFDFF"/>
<path d="M6.89634 1.61462H7.88037V2.59866H6.89634V1.61462Z" fill="#FAFDFF"/>
<path d="M5.91367 1.61462H6.89771V2.59866H5.91367V1.61462Z" fill="#FAFDFF"/>
<path d="M4.92466 1.61462H5.90869V2.59866H4.92466V1.61462Z" fill="#16171A"/>
<path d="M3.94858 1.61462H4.93262V2.59866H3.94858V1.61462Z" fill="#16171A"/>
<path d="M11.8158 2.59802H12.7998V3.58206H11.8158V2.59802Z" fill="#16171A"/>
<path d="M10.8329 2.59827H11.8169V3.5823H10.8329V2.59827Z" fill="#FAFDFF"/>
<path d="M9.85044 2.59802H10.8345V3.58206H9.85044V2.59802Z" fill="#FAFDFF"/>
<path d="M8.86142 2.59802H9.84546V3.58206H8.86142V2.59802Z" fill="#FFBD82"/>
<path d="M7.87876 2.59802H8.86279V3.58206H7.87876V2.59802Z" fill="#FFBD82"/>
<path d="M6.89634 2.59802H7.88037V3.58206H6.89634V2.59802Z" fill="#FFBD82"/>
<path d="M5.91367 2.59802H6.89771V3.58206H5.91367V2.59802Z" fill="#FFBD82"/>
<path d="M4.92466 2.59802H5.90869V3.58206H4.92466V2.59802Z" fill="#FAFDFF"/>
<path d="M3.94858 2.59827H4.93262V3.5823H3.94858V2.59827Z" fill="#FAFDFF"/>
<path d="M2.96567 2.59802H3.94971V3.58206H2.96567V2.59802Z" fill="#16171A"/>
<path d="M12.7984 3.58228H13.7825V4.56631H12.7984V3.58228Z" fill="#16171A"/>
<path d="M11.8158 3.58228H12.7998V4.56631H11.8158V3.58228Z" fill="#FAFDFF"/>
<path d="M10.8329 3.58252H11.8169V4.56656H10.8329V3.58252Z" fill="#FFBD82"/>
<path d="M9.85044 3.58228H10.8345V4.56631H9.85044V3.58228Z" fill="#FFBD82"/>
<path d="M8.86142 3.58228H9.84546V4.56631H8.86142V3.58228Z" fill="#FFBD82"/>
<path d="M7.87876 3.58228H8.86279V4.56631H7.87876V3.58228Z" fill="#FFBD82"/>
<path d="M6.89634 3.58228H7.88037V4.56631H6.89634V3.58228Z" fill="#FFBD82"/>
<path d="M5.91367 3.58228H6.89771V4.56631H5.91367V3.58228Z" fill="#FFBD82"/>
<path d="M4.92466 3.58228H5.90869V4.56631H4.92466V3.58228Z" fill="#FFBD82"/>
<path d="M3.94858 3.58252H4.93262V4.56656H3.94858V3.58252Z" fill="#FFBD82"/>
<path d="M2.96567 3.58228H3.94971V4.56631H2.96567V3.58228Z" fill="#FAFDFF"/>
<path d="M1.98301 3.58228H2.96704V4.56631H1.98301V3.58228Z" fill="#16171A"/>
<path d="M13.7874 4.56653H14.7715V5.55056H13.7874V4.56653Z" fill="#16171A"/>
<path d="M12.7984 4.56653H13.7825V5.55056H12.7984V4.56653Z" fill="#FAFDFF"/>
<path d="M11.8158 4.56653H12.7998V5.55056H11.8158V4.56653Z" fill="#FFBD82"/>
<path d="M10.8329 4.56689H11.8169V5.55093H10.8329V4.56689Z" fill="#16171A"/>
<path d="M9.85044 4.56653H10.8345V5.55056H9.85044V4.56653Z" fill="#16171A"/>
<path d="M8.86142 4.56653H9.84546V5.55056H8.86142V4.56653Z" fill="#FFBD82"/>
<path d="M7.87876 4.56653H8.86279V5.55056H7.87876V4.56653Z" fill="#FFBD82"/>
<path d="M6.89634 4.56653H7.88037V5.55056H6.89634V4.56653Z" fill="#FFBD82"/>
<path d="M5.91367 4.56653H6.89771V5.55056H5.91367V4.56653Z" fill="#FFBD82"/>
<path d="M4.92466 4.56653H5.90869V5.55056H4.92466V4.56653Z" fill="#FFBD82"/>
<path d="M3.94858 4.56689H4.93262V5.55093H3.94858V4.56689Z" fill="#FFBD82"/>
<path d="M2.96567 4.56653H3.94971V5.55056H2.96567V4.56653Z" fill="#FFBD82"/>
<path d="M1.98301 4.56653H2.96704V5.55056H1.98301V4.56653Z" fill="#FF8426"/>
<path d="M0.993991 4.56653H1.97803V5.55056H0.993991V4.56653Z" fill="#16171A"/>
<path d="M13.7874 5.55078H14.7715V6.53482H13.7874V5.55078Z" fill="#16171A"/>
<path d="M12.7984 5.55078H13.7825V6.53482H12.7984V5.55078Z" fill="#FAFDFF"/>
<path d="M11.8158 5.55078H12.7998V6.53482H11.8158V5.55078Z" fill="#16171A"/>
<path d="M10.8329 5.55042H11.8169V6.53445H10.8329V5.55042Z" fill="#B9B9B9"/>
<path d="M9.85044 5.55078H10.8345V6.53482H9.85044V5.55078Z" fill="#B9B9B9"/>
<path d="M8.86142 5.55078H9.84546V6.53482H8.86142V5.55078Z" fill="#16171A"/>
<path d="M7.87876 5.55078H8.86279V6.53482H7.87876V5.55078Z" fill="#16171A"/>
<path d="M6.89634 5.55078H7.88037V6.53482H6.89634V5.55078Z" fill="#16171A"/>
<path d="M5.91367 5.55078H6.89771V6.53482H5.91367V5.55078Z" fill="#16171A"/>
<path d="M4.92466 5.55078H5.90869V6.53482H4.92466V5.55078Z" fill="#16171A"/>
<path d="M3.94858 5.55042H4.93262V6.53445H3.94858V5.55042Z" fill="#16171A"/>
<path d="M2.96567 5.55078H3.94971V6.53482H2.96567V5.55078Z" fill="#FFBD82"/>
<path d="M1.98301 5.55078H2.96704V6.53482H1.98301V5.55078Z" fill="#FF8426"/>
<path d="M0.993991 5.55078H1.97803V6.53482H0.993991V5.55078Z" fill="#16171A"/>
<path d="M14.7701 6.53479H15.7542V7.51883H14.7701V6.53479Z" fill="#16171A"/>
<path d="M13.7874 6.53491H14.7715V7.51895H13.7874V6.53491Z" fill="#FAFDFF"/>
<path d="M12.7984 6.53491H13.7825V7.51895H12.7984V6.53491Z" fill="#FFBD82"/>
<path d="M11.8158 6.53491H12.7998V7.51895H11.8158V6.53491Z" fill="#FFBD82"/>
<path d="M10.8329 6.53479H11.8169V7.51883H10.8329V6.53479Z" fill="#16171A"/>
<path d="M9.85044 6.53491H10.8345V7.51895H9.85044V6.53491Z" fill="#B9B9B9"/>
<path d="M8.86142 6.53491H9.84546V7.51895H8.86142V6.53491Z" fill="#B9B9B9"/>
<path d="M7.87876 6.53491H8.86279V7.51895H7.87876V6.53491Z" fill="#B9B9B9"/>
<path d="M6.89634 6.53491H7.88037V7.51895H6.89634V6.53491Z" fill="#B9B9B9"/>
<path d="M5.91367 6.53491H6.89771V7.51895H5.91367V6.53491Z" fill="#B9B9B9"/>
<path d="M4.92466 6.53491H5.90869V7.51895H4.92466V6.53491Z" fill="#B9B9B9"/>
<path d="M3.94858 6.53479H4.93262V7.51883H3.94858V6.53479Z" fill="#606060"/>
<path d="M2.96567 6.53491H3.94971V7.51895H2.96567V6.53491Z" fill="#16171A"/>
<path d="M1.98301 6.53491H2.96704V7.51895H1.98301V6.53491Z" fill="#FFBD82"/>
<path d="M0.993991 6.53491H1.97803V7.51895H0.993991V6.53491Z" fill="#FF8426"/>
<path d="M0.0113254 6.53479H0.995361V7.51883H0.0113254V6.53479Z" fill="#16171A"/>
<path d="M14.7701 7.51831H15.7542V8.50235H14.7701V7.51831Z" fill="#16171A"/>
<path d="M13.7874 7.51843H14.7715V8.50247H13.7874V7.51843Z" fill="#FAFDFF"/>
<path d="M12.7984 7.51843H13.7825V8.50247H12.7984V7.51843Z" fill="#FFBD82"/>
<path d="M11.8158 7.51843H12.7998V8.50247H11.8158V7.51843Z" fill="#FFBD82"/>
<path d="M10.8329 7.51831H11.8169V8.50235H10.8329V7.51831Z" fill="#16171A"/>
<path d="M9.85044 7.51843H10.8345V8.50247H9.85044V7.51843Z" fill="#FFBD82"/>
<path d="M8.86142 7.51843H9.84546V8.50247H8.86142V7.51843Z" fill="#B9B9B9"/>
<path d="M7.87876 7.51843H8.86279V8.50247H7.87876V7.51843Z" fill="#606060"/>
<path d="M6.89634 7.51843H7.88037V8.50247H6.89634V7.51843Z" fill="#606060"/>
<path d="M5.91367 7.51843H6.89771V8.50247H5.91367V7.51843Z" fill="#606060"/>
<path d="M4.92466 7.51843H5.90869V8.50247H4.92466V7.51843Z" fill="#606060"/>
<path d="M3.94858 7.51831H4.93262V8.50235H3.94858V7.51831Z" fill="#606060"/>
<path d="M2.96567 7.51843H3.94971V8.50247H2.96567V7.51843Z" fill="#16171A"/>
<path d="M1.98301 7.51843H2.96704V8.50247H1.98301V7.51843Z" fill="#FFBD82"/>
<path d="M0.993991 7.51843H1.97803V8.50247H0.993991V7.51843Z" fill="#FF8426"/>
<path d="M0.0113254 7.51831H0.995361V8.50235H0.0113254V7.51831Z" fill="#16171A"/>
<path d="M14.7701 8.50269H15.7542V9.48672H14.7701V8.50269Z" fill="#16171A"/>
<path d="M13.7874 8.50269H14.7715V9.48672H13.7874V8.50269Z" fill="#FAFDFF"/>
<path d="M12.7984 8.50269H13.7825V9.48672H12.7984V8.50269Z" fill="#FFBD82"/>
<path d="M11.8158 8.50269H12.7998V9.48672H11.8158V8.50269Z" fill="#16171A"/>
<path d="M10.8329 8.50269H11.8169V9.48672H10.8329V8.50269Z" fill="#FFBD82"/>
<path d="M9.85044 8.50269H10.8345V9.48672H9.85044V8.50269Z" fill="#FF8426"/>
<path d="M8.86142 8.50269H9.84546V9.48672H8.86142V8.50269Z" fill="#D62411"/>
<path d="M7.87876 8.50269H8.86279V9.48672H7.87876V8.50269Z" fill="#16171A"/>
<path d="M6.89634 8.50269H7.88037V9.48672H6.89634V8.50269Z" fill="#606060"/>
<path d="M5.91367 8.50269H6.89771V9.48672H5.91367V8.50269Z" fill="#16171A"/>
<path d="M4.92466 8.50269H5.90869V9.48672H4.92466V8.50269Z" fill="#16171A"/>
<path d="M3.94858 8.50269H4.93262V9.48672H3.94858V8.50269Z" fill="#16171A"/>
<path d="M2.96567 8.50269H3.94971V9.48672H2.96567V8.50269Z" fill="#FFBD82"/>
<path d="M1.98301 8.50269H2.96704V9.48672H1.98301V8.50269Z" fill="#FFBD82"/>
<path d="M0.993991 8.50269H1.97803V9.48672H0.993991V8.50269Z" fill="#FF8426"/>
<path d="M0.0113254 8.50269H0.995361V9.48672H0.0113254V8.50269Z" fill="#16171A"/>
<path d="M14.7701 9.48694H15.7542V10.471H14.7701V9.48694Z" fill="#16171A"/>
<path d="M13.7874 9.48682H14.7715V10.4709H13.7874V9.48682Z" fill="#FAFDFF"/>
<path d="M12.7984 9.48682H13.7825V10.4709H12.7984V9.48682Z" fill="#FFBD82"/>
<path d="M11.8158 9.48682H12.7998V10.4709H11.8158V9.48682Z" fill="#16171A"/>
<path d="M10.8329 9.48694H11.8169V10.471H10.8329V9.48694Z" fill="#FFBD82"/>
<path d="M9.85044 9.48682H10.8345V10.4709H9.85044V9.48682Z" fill="#FF8426"/>
<path d="M8.86142 9.48682H9.84546V10.4709H8.86142V9.48682Z" fill="#D62411"/>
<path d="M7.87876 9.48682H8.86279V10.4709H7.87876V9.48682Z" fill="#606060"/>
<path d="M6.89634 9.48682H7.88037V10.4709H6.89634V9.48682Z" fill="#16171A"/>
<path d="M5.91367 9.48682H6.89771V10.4709H5.91367V9.48682Z" fill="#FFBD82"/>
<path d="M4.92466 9.48682H5.90869V10.4709H4.92466V9.48682Z" fill="#FFBD82"/>
<path d="M3.94858 9.48694H4.93262V10.471H3.94858V9.48694Z" fill="#FFBD82"/>
<path d="M2.96567 9.48682H3.94971V10.4709H2.96567V9.48682Z" fill="#FFBD82"/>
<path d="M1.98301 9.48682H2.96704V10.4709H1.98301V9.48682Z" fill="#FFBD82"/>
<path d="M0.993991 9.48682H1.97803V10.4709H0.993991V9.48682Z" fill="#FF8426"/>
<path d="M0.0113254 9.48694H0.995361V10.471H0.0113254V9.48694Z" fill="#16171A"/>
<path d="M13.7874 10.4703H14.7715V11.4544H13.7874V10.4703Z" fill="#16171A"/>
<path d="M12.7984 10.4703H13.7825V11.4544H12.7984V10.4703Z" fill="#FAFDFF"/>
<path d="M11.8158 10.4703H12.7998V11.4544H11.8158V10.4703Z" fill="#16171A"/>
<path d="M10.8329 10.4705H11.8169V11.4545H10.8329V10.4705Z" fill="#FFBD82"/>
<path d="M9.85044 10.4703H10.8345V11.4544H9.85044V10.4703Z" fill="#FF8426"/>
<path d="M8.86142 10.4703H9.84546V11.4544H8.86142V10.4703Z" fill="#D62411"/>
<path d="M7.87876 10.4703H8.86279V11.4544H7.87876V10.4703Z" fill="#16171A"/>
<path d="M6.89634 10.4703H7.88037V11.4544H6.89634V10.4703Z" fill="#FFBD82"/>
<path d="M5.91367 10.4703H6.89771V11.4544H5.91367V10.4703Z" fill="#FFBD82"/>
<path d="M4.92466 10.4703H5.90869V11.4544H4.92466V10.4703Z" fill="#FFBD82"/>
<path d="M3.94858 10.4705H4.93262V11.4545H3.94858V10.4705Z" fill="#FFBD82"/>
<path d="M2.96567 10.4703H3.94971V11.4544H2.96567V10.4703Z" fill="#FFBD82"/>
<path d="M1.98301 10.4703H2.96704V11.4544H1.98301V10.4703Z" fill="#FF8426"/>
<path d="M0.993991 10.4703H1.97803V11.4544H0.993991V10.4703Z" fill="#16171A"/>
<path d="M13.7874 11.4546H14.7715V12.4386H13.7874V11.4546Z" fill="#16171A"/>
<path d="M12.7984 11.4546H13.7825V12.4386H12.7984V11.4546Z" fill="#FAFDFF"/>
<path d="M11.8158 11.4546H12.7998V12.4386H11.8158V11.4546Z" fill="#16171A"/>
<path d="M10.8329 11.4548H11.8169V12.4389H10.8329V11.4548Z" fill="#FF8426"/>
<path d="M9.85044 11.4546H10.8345V12.4386H9.85044V11.4546Z" fill="#D62411"/>
<path d="M8.86142 11.4546H9.84546V12.4386H8.86142V11.4546Z" fill="#D62411"/>
<path d="M7.87876 11.4546H8.86279V12.4386H7.87876V11.4546Z" fill="#16171A"/>
<path d="M6.89634 11.4546H7.88037V12.4386H6.89634V11.4546Z" fill="#FFBD82"/>
<path d="M5.91367 11.4546H6.89771V12.4386H5.91367V11.4546Z" fill="#FFBD82"/>
<path d="M4.92466 11.4546H5.90869V12.4386H4.92466V11.4546Z" fill="#FFBD82"/>
<path d="M3.94858 11.4548H4.93262V12.4389H3.94858V11.4548Z" fill="#FFBD82"/>
<path d="M2.96567 11.4546H3.94971V12.4386H2.96567V11.4546Z" fill="#FFBD82"/>
<path d="M1.98301 11.4546H2.96704V12.4386H1.98301V11.4546Z" fill="#FF8426"/>
<path d="M0.993991 11.4546H1.97803V12.4386H0.993991V11.4546Z" fill="#16171A"/>
<path d="M12.7984 12.4387H13.7825V13.4228H12.7984V12.4387Z" fill="#16171A"/>
<path d="M11.8158 12.4387H12.7998V13.4228H11.8158V12.4387Z" fill="#FAFDFF"/>
<path d="M10.8329 12.4391H11.8169V13.4231H10.8329V12.4391Z" fill="#16171A"/>
<path d="M9.85044 12.4387H10.8345V13.4228H9.85044V12.4387Z" fill="#16171A"/>
<path d="M8.86142 12.4387H9.84546V13.4228H8.86142V12.4387Z" fill="#16171A"/>
<path d="M7.87876 12.4387H8.86279V13.4228H7.87876V12.4387Z" fill="#FFBD82"/>
<path d="M6.89634 12.4387H7.88037V13.4228H6.89634V12.4387Z" fill="#FFBD82"/>
<path d="M5.91367 12.4387H6.89771V13.4228H5.91367V12.4387Z" fill="#FFBD82"/>
<path d="M4.92466 12.4387H5.90869V13.4228H4.92466V12.4387Z" fill="#FFBD82"/>
<path d="M3.94858 12.4391H4.93262V13.4231H3.94858V12.4391Z" fill="#FFBD82"/>
<path d="M2.96567 12.4387H3.94971V13.4228H2.96567V12.4387Z" fill="#FF8426"/>
<path d="M1.98301 12.4387H2.96704V13.4228H1.98301V12.4387Z" fill="#16171A"/>
<path d="M11.8158 13.423H12.7998V14.407H11.8158V13.423Z" fill="#16171A"/>
<path d="M10.8329 13.4227H11.8169V14.4068H10.8329V13.4227Z" fill="#FF8426"/>
<path d="M9.85044 13.423H10.8345V14.407H9.85044V13.423Z" fill="#FF8426"/>
<path d="M8.86142 13.423H9.84546V14.407H8.86142V13.423Z" fill="#FFBD82"/>
<path d="M7.87876 13.423H8.86279V14.407H7.87876V13.423Z" fill="#FFBD82"/>
<path d="M6.89634 13.423H7.88037V14.407H6.89634V13.423Z" fill="#FFBD82"/>
<path d="M5.91367 13.423H6.89771V14.407H5.91367V13.423Z" fill="#FFBD82"/>
<path d="M4.92466 13.423H5.90869V14.407H4.92466V13.423Z" fill="#FF8426"/>
<path d="M3.94858 13.4227H4.93262V14.4068H3.94858V13.4227Z" fill="#FF8426"/>
<path d="M2.96567 13.423H3.94971V14.407H2.96567V13.423Z" fill="#16171A"/>
<path d="M10.8329 14.407H11.8169V15.391H10.8329V14.407Z" fill="#16171A"/>
<path d="M9.85044 14.4072H10.8345V15.3913H9.85044V14.4072Z" fill="#16171A"/>
<path d="M8.86142 14.4072H9.84546V15.3913H8.86142V14.4072Z" fill="#FF8426"/>
<path d="M7.87876 14.4072H8.86279V15.3913H7.87876V14.4072Z" fill="#FF8426"/>
<path d="M6.89634 14.4072H7.88037V15.3913H6.89634V14.4072Z" fill="#FF8426"/>
<path d="M5.91367 14.4072H6.89771V15.3913H5.91367V14.4072Z" fill="#FF8426"/>
<path d="M4.92466 14.4072H5.90869V15.3913H4.92466V14.4072Z" fill="#16171A"/>
<path d="M3.94858 14.407H4.93262V15.391H3.94858V14.407Z" fill="#16171A"/>
<path d="M8.86142 15.3906H9.84546V16.3747H8.86142V15.3906Z" fill="#16171A"/>
<path d="M7.87876 15.3906H8.86279V16.3747H7.87876V15.3906Z" fill="#16171A"/>
<path d="M6.89634 15.3906H7.88037V16.3747H6.89634V15.3906Z" fill="#16171A"/>
<path d="M5.91367 15.3906H6.89771V16.3747H5.91367V15.3906Z" fill="#16171A"/>
</svg>
