<svg width="143" height="81" viewBox="0 0 143 81" fill="none" xmlns="http://www.w3.org/2000/svg">
<rect width="136.829" height="74.361" transform="matrix(-1 0 0 1 139.809 2.97363)" fill="#FFF7D8"/>
<rect width="74.3635" height="2.97444" transform="matrix(-1 0 0 1 139.809 77.3359)" fill="#DA0000"/>
<rect width="74.361" height="2.97454" transform="matrix(-1.19253e-08 -1 -1 1.19245e-08 142.781 77.3359)" fill="#DA0000"/>
<rect width="74.361" height="2.97454" transform="matrix(-1.19253e-08 -1 -1 1.19245e-08 2.97656 77.3359)" fill="#DA0000"/>
<rect width="74.361" height="2.97454" transform="matrix(-1.19253e-08 -1 -1 1.19245e-08 65.4414 77.3359)" fill="#DA0000"/>
<rect width="74.3635" height="2.97444" transform="matrix(-1 0 0 1 139.809 0)" fill="#DA0000"/>
<rect width="74.3635" height="2.97444" transform="matrix(-1 0 0 1 139.809 2.97363)" fill="#FF9688"/>
<rect width="74.3635" height="2.97444" transform="matrix(-1 0 0 1 139.809 74.3604)" fill="#FF9688"/>
<rect width="62.4653" height="2.97444" transform="matrix(-1 0 0 1 65.4453 0)" fill="#DA0000"/>
<rect width="62.4653" height="2.97444" transform="matrix(-1 0 0 1 65.4453 77.334)" fill="#DA0000"/>
</svg>
