<svg width="16" height="17" viewBox="0 0 16 17" fill="none" xmlns="http://www.w3.org/2000/svg">
<path d="M8.86142 0.752808H9.84546V1.73684H8.86142V0.752808Z" fill="#16171A"/>
<path d="M7.87876 0.752808H8.86279V1.73684H7.87876V0.752808Z" fill="#16171A"/>
<path d="M6.89609 0.752808H7.88013V1.73684H6.89609V0.752808Z" fill="#16171A"/>
<path d="M5.91343 0.752808H6.89746V1.73684H5.91343V0.752808Z" fill="#16171A"/>
<path d="M10.8326 1.73718H11.8167V2.72122H10.8326V1.73718Z" fill="#16171A"/>
<path d="M9.85019 1.73706H10.8342V2.7211H9.85019V1.73706Z" fill="#16171A"/>
<path d="M8.86142 1.73706H9.84546V2.7211H8.86142V1.73706Z" fill="#FAFDFF"/>
<path d="M7.87876 1.73706H8.86279V2.7211H7.87876V1.73706Z" fill="#FAFDFF"/>
<path d="M6.89609 1.73706H7.88013V2.7211H6.89609V1.73706Z" fill="#FAFDFF"/>
<path d="M5.91343 1.73706H6.89746V2.7211H5.91343V1.73706Z" fill="#FAFDFF"/>
<path d="M4.92441 1.73706H5.90845V2.7211H4.92441V1.73706Z" fill="#16171A"/>
<path d="M3.94858 1.73718H4.93262V2.72122H3.94858V1.73718Z" fill="#16171A"/>
<path d="M11.8155 2.72046H12.7996V3.70449H11.8155V2.72046Z" fill="#16171A"/>
<path d="M10.8326 2.7207H11.8167V3.70474H10.8326V2.7207Z" fill="#FAFDFF"/>
<path d="M9.85019 2.72046H10.8342V3.70449H9.85019V2.72046Z" fill="#FAFDFF"/>
<path d="M8.86142 2.72046H9.84546V3.70449H8.86142V2.72046Z" fill="#FFBD82"/>
<path d="M7.87876 2.72046H8.86279V3.70449H7.87876V2.72046Z" fill="#FFBD82"/>
<path d="M6.89609 2.72046H7.88013V3.70449H6.89609V2.72046Z" fill="#FFBD82"/>
<path d="M5.91343 2.72046H6.89746V3.70449H5.91343V2.72046Z" fill="#FFBD82"/>
<path d="M4.92441 2.72046H5.90845V3.70449H4.92441V2.72046Z" fill="#FAFDFF"/>
<path d="M3.94858 2.7207H4.93262V3.70474H3.94858V2.7207Z" fill="#FAFDFF"/>
<path d="M2.96543 2.72046H3.94946V3.70449H2.96543V2.72046Z" fill="#16171A"/>
<path d="M12.7982 3.70471H13.7822V4.68875H12.7982V3.70471Z" fill="#16171A"/>
<path d="M11.8155 3.70471H12.7996V4.68875H11.8155V3.70471Z" fill="#FAFDFF"/>
<path d="M10.8326 3.70496H11.8167V4.68899H10.8326V3.70496Z" fill="#FFBD82"/>
<path d="M9.85019 3.70471H10.8342V4.68875H9.85019V3.70471Z" fill="#16171A"/>
<path d="M8.86142 3.70471H9.84546V4.68875H8.86142V3.70471Z" fill="#16171A"/>
<path d="M7.87876 3.70471H8.86279V4.68875H7.87876V3.70471Z" fill="#16171A"/>
<path d="M6.89609 3.70471H7.88013V4.68875H6.89609V3.70471Z" fill="#16171A"/>
<path d="M5.91343 3.70471H6.89746V4.68875H5.91343V3.70471Z" fill="#16171A"/>
<path d="M4.92441 3.70471H5.90845V4.68875H4.92441V3.70471Z" fill="#16171A"/>
<path d="M3.94858 3.70496H4.93262V4.68899H3.94858V3.70496Z" fill="#FFBD82"/>
<path d="M2.96543 3.70471H3.94946V4.68875H2.96543V3.70471Z" fill="#FAFDFF"/>
<path d="M1.98276 3.70471H2.9668V4.68875H1.98276V3.70471Z" fill="#16171A"/>
<path d="M13.7872 4.68896H14.7712V5.673H13.7872V4.68896Z" fill="#16171A"/>
<path d="M12.7982 4.68896H13.7822V5.673H12.7982V4.68896Z" fill="#FAFDFF"/>
<path d="M11.8155 4.68896H12.7996V5.673H11.8155V4.68896Z" fill="#FFBD82"/>
<path d="M10.8326 4.68933H11.8167V5.67337H10.8326V4.68933Z" fill="#16171A"/>
<path d="M9.85019 4.68896H10.8342V5.673H9.85019V4.68896Z" fill="#FAFDFF"/>
<path d="M8.86142 4.68896H9.84546V5.673H8.86142V4.68896Z" fill="#FAFDFF"/>
<path d="M7.87876 4.68896H8.86279V5.673H7.87876V4.68896Z" fill="#FAFDFF"/>
<path d="M6.89609 4.68896H7.88013V5.673H6.89609V4.68896Z" fill="#FAFDFF"/>
<path d="M5.91343 4.68896H6.89746V5.673H5.91343V4.68896Z" fill="#FAFDFF"/>
<path d="M4.92441 4.68896H5.90845V5.673H4.92441V4.68896Z" fill="#B9B9B9"/>
<path d="M3.94858 4.68933H4.93262V5.67337H3.94858V4.68933Z" fill="#16171A"/>
<path d="M2.96543 4.68896H3.94946V5.673H2.96543V4.68896Z" fill="#FFBD82"/>
<path d="M1.98276 4.68896H2.9668V5.673H1.98276V4.68896Z" fill="#FF8426"/>
<path d="M0.993747 4.68896H1.97778V5.673H0.993747V4.68896Z" fill="#16171A"/>
<path d="M13.7872 5.67322H14.7712V6.65725H13.7872V5.67322Z" fill="#16171A"/>
<path d="M12.7982 5.67322H13.7822V6.65725H12.7982V5.67322Z" fill="#FAFDFF"/>
<path d="M11.8155 5.67322H12.7996V6.65725H11.8155V5.67322Z" fill="#16171A"/>
<path d="M10.8326 5.67285H11.8167V6.65689H10.8326V5.67285Z" fill="#FAFDFF"/>
<path d="M9.85019 5.67322H10.8342V6.65725H9.85019V5.67322Z" fill="#FAFDFF"/>
<path d="M8.86142 5.67322H9.84546V6.65725H8.86142V5.67322Z" fill="#FAFDFF"/>
<path d="M7.87876 5.67322H8.86279V6.65725H7.87876V5.67322Z" fill="#FAFDFF"/>
<path d="M6.89609 5.67322H7.88013V6.65725H6.89609V5.67322Z" fill="#FAFDFF"/>
<path d="M5.91343 5.67322H6.89746V6.65725H5.91343V5.67322Z" fill="#FAFDFF"/>
<path d="M4.92441 5.67322H5.90845V6.65725H4.92441V5.67322Z" fill="#FAFDFF"/>
<path d="M3.94858 5.67285H4.93262V6.65689H3.94858V5.67285Z" fill="#B9B9B9"/>
<path d="M2.96543 5.67322H3.94946V6.65725H2.96543V5.67322Z" fill="#16171A"/>
<path d="M1.98276 5.67322H2.9668V6.65725H1.98276V5.67322Z" fill="#FF8426"/>
<path d="M0.993747 5.67322H1.97778V6.65725H0.993747V5.67322Z" fill="#16171A"/>
<path d="M14.7699 6.65723H15.7539V7.64126H14.7699V6.65723Z" fill="#16171A"/>
<path d="M13.7872 6.65747H14.7712V7.64151H13.7872V6.65747Z" fill="#FAFDFF"/>
<path d="M12.7982 6.65747H13.7822V7.64151H12.7982V6.65747Z" fill="#FFBD82"/>
<path d="M11.8155 6.65747H12.7996V7.64151H11.8155V6.65747Z" fill="#16171A"/>
<path d="M10.8326 6.65723H11.8167V7.64126H10.8326V6.65723Z" fill="#FAFDFF"/>
<path d="M9.85019 6.65747H10.8342V7.64151H9.85019V6.65747Z" fill="#FAFDFF"/>
<path d="M8.86142 6.65747H9.84546V7.64151H8.86142V6.65747Z" fill="#FAFDFF"/>
<path d="M7.87876 6.65747H8.86279V7.64151H7.87876V6.65747Z" fill="#FAFDFF"/>
<path d="M6.89609 6.65747H7.88013V7.64151H6.89609V6.65747Z" fill="#FAFDFF"/>
<path d="M5.91343 6.65747H6.89746V7.64151H5.91343V6.65747Z" fill="#FAFDFF"/>
<path d="M4.92441 6.65747H5.90845V7.64151H4.92441V6.65747Z" fill="#FAFDFF"/>
<path d="M3.94858 6.65723H4.93262V7.64126H3.94858V6.65723Z" fill="#B9B9B9"/>
<path d="M2.96543 6.65747H3.94946V7.64151H2.96543V6.65747Z" fill="#16171A"/>
<path d="M1.98276 6.65747H2.9668V7.64151H1.98276V6.65747Z" fill="#FFBD82"/>
<path d="M0.993747 6.65747H1.97778V7.64151H0.993747V6.65747Z" fill="#FF8426"/>
<path d="M0.0110813 6.65723H0.995117V7.64126H0.0110813V6.65723Z" fill="#16171A"/>
<path d="M14.7699 7.64075H15.7539V8.62478H14.7699V7.64075Z" fill="#16171A"/>
<path d="M13.7872 7.64087H14.7712V8.62491H13.7872V7.64087Z" fill="#FAFDFF"/>
<path d="M12.7982 7.64087H13.7822V8.62491H12.7982V7.64087Z" fill="#FFBD82"/>
<path d="M11.8155 7.64087H12.7996V8.62491H11.8155V7.64087Z" fill="#16171A"/>
<path d="M10.8326 7.64075H11.8167V8.62478H10.8326V7.64075Z" fill="#FAFDFF"/>
<path d="M9.85019 7.64087H10.8342V8.62491H9.85019V7.64087Z" fill="#16171A"/>
<path d="M8.86142 7.64087H9.84546V8.62491H8.86142V7.64087Z" fill="#16171A"/>
<path d="M7.87876 7.64087H8.86279V8.62491H7.87876V7.64087Z" fill="#FAFDFF"/>
<path d="M6.89609 7.64087H7.88013V8.62491H6.89609V7.64087Z" fill="#FAFDFF"/>
<path d="M5.91343 7.64087H6.89746V8.62491H5.91343V7.64087Z" fill="#16171A"/>
<path d="M4.92441 7.64087H5.90845V8.62491H4.92441V7.64087Z" fill="#16171A"/>
<path d="M3.94858 7.64075H4.93262V8.62478H3.94858V7.64075Z" fill="#B9B9B9"/>
<path d="M2.96543 7.64087H3.94946V8.62491H2.96543V7.64087Z" fill="#16171A"/>
<path d="M1.98276 7.64087H2.9668V8.62491H1.98276V7.64087Z" fill="#FFBD82"/>
<path d="M0.993747 7.64087H1.97778V8.62491H0.993747V7.64087Z" fill="#FF8426"/>
<path d="M0.0110813 7.64075H0.995117V8.62478H0.0110813V7.64075Z" fill="#16171A"/>
<path d="M14.7699 8.625H15.7539V9.60904H14.7699V8.625Z" fill="#16171A"/>
<path d="M13.7872 8.62512H14.7712V9.60916H13.7872V8.62512Z" fill="#FAFDFF"/>
<path d="M12.7982 8.62512H13.7822V9.60916H12.7982V8.62512Z" fill="#FFBD82"/>
<path d="M11.8155 8.62512H12.7996V9.60916H11.8155V8.62512Z" fill="#16171A"/>
<path d="M10.8326 8.625H11.8167V9.60904H10.8326V8.625Z" fill="#FAFDFF"/>
<path d="M9.85019 8.62512H10.8342V9.60916H9.85019V8.62512Z" fill="#16171A"/>
<path d="M8.86142 8.62512H9.84546V9.60916H8.86142V8.62512Z" fill="#16171A"/>
<path d="M7.87876 8.62512H8.86279V9.60916H7.87876V8.62512Z" fill="#FAFDFF"/>
<path d="M6.89609 8.62512H7.88013V9.60916H6.89609V8.62512Z" fill="#FAFDFF"/>
<path d="M5.91343 8.62512H6.89746V9.60916H5.91343V8.62512Z" fill="#16171A"/>
<path d="M4.92441 8.62512H5.90845V9.60916H4.92441V8.62512Z" fill="#16171A"/>
<path d="M3.94858 8.625H4.93262V9.60904H3.94858V8.625Z" fill="#B9B9B9"/>
<path d="M2.96543 8.62512H3.94946V9.60916H2.96543V8.62512Z" fill="#16171A"/>
<path d="M1.98276 8.62512H2.9668V9.60916H1.98276V8.62512Z" fill="#FFBD82"/>
<path d="M0.993747 8.62512H1.97778V9.60916H0.993747V8.62512Z" fill="#FF8426"/>
<path d="M0.0110813 8.625H0.995117V9.60904H0.0110813V8.625Z" fill="#16171A"/>
<path d="M14.7699 9.60938H15.7539V10.5934H14.7699V9.60938Z" fill="#16171A"/>
<path d="M13.7872 9.60938H14.7712V10.5934H13.7872V9.60938Z" fill="#FAFDFF"/>
<path d="M12.7982 9.60938H13.7822V10.5934H12.7982V9.60938Z" fill="#FFBD82"/>
<path d="M11.8155 9.60938H12.7996V10.5934H11.8155V9.60938Z" fill="#16171A"/>
<path d="M10.8326 9.60938H11.8167V10.5934H10.8326V9.60938Z" fill="#16171A"/>
<path d="M9.85019 9.60938H10.8342V10.5934H9.85019V9.60938Z" fill="#FAFDFF"/>
<path d="M8.86142 9.60938H9.84546V10.5934H8.86142V9.60938Z" fill="#FAFDFF"/>
<path d="M7.87876 9.60938H8.86279V10.5934H7.87876V9.60938Z" fill="#16171A"/>
<path d="M6.89609 9.60938H7.88013V10.5934H6.89609V9.60938Z" fill="#16171A"/>
<path d="M5.91343 9.60938H6.89746V10.5934H5.91343V9.60938Z" fill="#FAFDFF"/>
<path d="M4.92441 9.60938H5.90845V10.5934H4.92441V9.60938Z" fill="#B9B9B9"/>
<path d="M3.94858 9.60938H4.93262V10.5934H3.94858V9.60938Z" fill="#16171A"/>
<path d="M2.96543 9.60938H3.94946V10.5934H2.96543V9.60938Z" fill="#16171A"/>
<path d="M1.98276 9.60938H2.9668V10.5934H1.98276V9.60938Z" fill="#FFBD82"/>
<path d="M0.993747 9.60938H1.97778V10.5934H0.993747V9.60938Z" fill="#FF8426"/>
<path d="M0.0110813 9.60938H0.995117V10.5934H0.0110813V9.60938Z" fill="#16171A"/>
<path d="M13.7872 10.5928H14.7712V11.5768H13.7872V10.5928Z" fill="#16171A"/>
<path d="M12.7982 10.5928H13.7822V11.5768H12.7982V10.5928Z" fill="#FAFDFF"/>
<path d="M11.8155 10.5928H12.7996V11.5768H11.8155V10.5928Z" fill="#FFBD82"/>
<path d="M10.8326 10.5929H11.8167V11.5769H10.8326V10.5929Z" fill="#16171A"/>
<path d="M9.85019 10.5928H10.8342V11.5768H9.85019V10.5928Z" fill="#FAFDFF"/>
<path d="M8.86142 10.5928H9.84546V11.5768H8.86142V10.5928Z" fill="#B9B9B9"/>
<path d="M7.87876 10.5928H8.86279V11.5768H7.87876V10.5928Z" fill="#FAFDFF"/>
<path d="M6.89609 10.5928H7.88013V11.5768H6.89609V10.5928Z" fill="#FAFDFF"/>
<path d="M5.91343 10.5928H6.89746V11.5768H5.91343V10.5928Z" fill="#B9B9B9"/>
<path d="M4.92441 10.5928H5.90845V11.5768H4.92441V10.5928Z" fill="#B9B9B9"/>
<path d="M3.94858 10.5929H4.93262V11.5769H3.94858V10.5929Z" fill="#16171A"/>
<path d="M2.96543 10.5928H3.94946V11.5768H2.96543V10.5928Z" fill="#FFBD82"/>
<path d="M1.98276 10.5928H2.9668V11.5768H1.98276V10.5928Z" fill="#FF8426"/>
<path d="M0.993747 10.5928H1.97778V11.5768H0.993747V10.5928Z" fill="#16171A"/>
<path d="M13.7872 11.577H14.7712V12.5611H13.7872V11.577Z" fill="#16171A"/>
<path d="M12.7982 11.577H13.7822V12.5611H12.7982V11.577Z" fill="#FAFDFF"/>
<path d="M11.8155 11.577H12.7996V12.5611H11.8155V11.577Z" fill="#FFBD82"/>
<path d="M10.8326 11.5773H11.8167V12.5613H10.8326V11.5773Z" fill="#16171A"/>
<path d="M9.85019 11.577H10.8342V12.5611H9.85019V11.577Z" fill="#B9B9B9"/>
<path d="M8.86142 11.577H9.84546V12.5611H8.86142V11.577Z" fill="#16171A"/>
<path d="M7.87876 11.577H8.86279V12.5611H7.87876V11.577Z" fill="#B9B9B9"/>
<path d="M6.89609 11.577H7.88013V12.5611H6.89609V11.577Z" fill="#B9B9B9"/>
<path d="M5.91343 11.577H6.89746V12.5611H5.91343V11.577Z" fill="#16171A"/>
<path d="M4.92441 11.577H5.90845V12.5611H4.92441V11.577Z" fill="#B9B9B9"/>
<path d="M3.94858 11.5773H4.93262V12.5613H3.94858V11.5773Z" fill="#16171A"/>
<path d="M2.96543 11.577H3.94946V12.5611H2.96543V11.577Z" fill="#FFBD82"/>
<path d="M1.98276 11.577H2.9668V12.5611H1.98276V11.577Z" fill="#FF8426"/>
<path d="M0.993747 11.577H1.97778V12.5611H0.993747V11.577Z" fill="#16171A"/>
<path d="M12.7982 12.5613H13.7822V13.5453H12.7982V12.5613Z" fill="#16171A"/>
<path d="M11.8155 12.5613H12.7996V13.5453H11.8155V12.5613Z" fill="#FAFDFF"/>
<path d="M10.8326 12.5616H11.8167V13.5457H10.8326V12.5616Z" fill="#FFBD82"/>
<path d="M9.85019 12.5613H10.8342V13.5453H9.85019V12.5613Z" fill="#16171A"/>
<path d="M8.86142 12.5613H9.84546V13.5453H8.86142V12.5613Z" fill="#16171A"/>
<path d="M7.87876 12.5613H8.86279V13.5453H7.87876V12.5613Z" fill="#16171A"/>
<path d="M6.89609 12.5613H7.88013V13.5453H6.89609V12.5613Z" fill="#16171A"/>
<path d="M5.91343 12.5613H6.89746V13.5453H5.91343V12.5613Z" fill="#16171A"/>
<path d="M4.92441 12.5613H5.90845V13.5453H4.92441V12.5613Z" fill="#16171A"/>
<path d="M3.94858 12.5616H4.93262V13.5457H3.94858V12.5616Z" fill="#FFBD82"/>
<path d="M2.96543 12.5613H3.94946V13.5453H2.96543V12.5613Z" fill="#FF8426"/>
<path d="M1.98276 12.5613H2.9668V13.5453H1.98276V12.5613Z" fill="#16171A"/>
<path d="M11.8155 13.5455H12.7996V14.5296H11.8155V13.5455Z" fill="#16171A"/>
<path d="M10.8326 13.5452H11.8167V14.5292H10.8326V13.5452Z" fill="#FF8426"/>
<path d="M9.85019 13.5455H10.8342V14.5296H9.85019V13.5455Z" fill="#FF8426"/>
<path d="M8.86142 13.5455H9.84546V14.5296H8.86142V13.5455Z" fill="#FFBD82"/>
<path d="M7.87876 13.5455H8.86279V14.5296H7.87876V13.5455Z" fill="#FFBD82"/>
<path d="M6.89609 13.5455H7.88013V14.5296H6.89609V13.5455Z" fill="#FFBD82"/>
<path d="M5.91343 13.5455H6.89746V14.5296H5.91343V13.5455Z" fill="#FFBD82"/>
<path d="M4.92441 13.5455H5.90845V14.5296H4.92441V13.5455Z" fill="#FF8426"/>
<path d="M3.94858 13.5452H4.93262V14.5292H3.94858V13.5452Z" fill="#FF8426"/>
<path d="M2.96543 13.5455H3.94946V14.5296H2.96543V13.5455Z" fill="#16171A"/>
<path d="M10.8326 14.5294H11.8167V15.5135H10.8326V14.5294Z" fill="#16171A"/>
<path d="M9.85019 14.5297H10.8342V15.5137H9.85019V14.5297Z" fill="#16171A"/>
<path d="M8.86142 14.5297H9.84546V15.5137H8.86142V14.5297Z" fill="#FF8426"/>
<path d="M7.87876 14.5297H8.86279V15.5137H7.87876V14.5297Z" fill="#FF8426"/>
<path d="M6.89609 14.5297H7.88013V15.5137H6.89609V14.5297Z" fill="#FF8426"/>
<path d="M5.91343 14.5297H6.89746V15.5137H5.91343V14.5297Z" fill="#FF8426"/>
<path d="M4.92441 14.5297H5.90845V15.5137H4.92441V14.5297Z" fill="#16171A"/>
<path d="M3.94858 14.5294H4.93262V15.5135H3.94858V14.5294Z" fill="#16171A"/>
<path d="M8.86142 15.5132H9.84546V16.4972H8.86142V15.5132Z" fill="#16171A"/>
<path d="M7.87876 15.5132H8.86279V16.4972H7.87876V15.5132Z" fill="#16171A"/>
<path d="M6.89609 15.5132H7.88013V16.4972H6.89609V15.5132Z" fill="#16171A"/>
<path d="M5.91343 15.5132H6.89746V16.4972H5.91343V15.5132Z" fill="#16171A"/>
</svg>
