<svg width="66" height="69" viewBox="0 0 66 69" fill="none" xmlns="http://www.w3.org/2000/svg">
<g opacity="0.5">
<g filter="url(#filter0_dddd_529_44880)">
<rect x="20.4976" y="13.498" width="24.9996" height="39.9993" fill="white"/>
<rect x="10.5002" y="16.0004" width="44.9993" height="34.9994" fill="white"/>
<rect x="12.9941" y="48.4969" width="2.49996" height="4.99992" transform="rotate(-180 12.9941 48.4969)" fill="#B5B5B5"/>
<rect x="15.502" y="53.4993" width="2.49996" height="4.99992" transform="rotate(-180 15.502 53.4993)" fill="#B5B5B5"/>
<rect x="17.9958" y="55.9979" width="2.49996" height="4.99992" transform="rotate(-180 17.9958 55.9979)" fill="#B5B5B5"/>
<rect x="47.9998" y="55.9979" width="2.49996" height="4.99992" transform="rotate(-180 47.9998 55.9979)" fill="#B5B5B5"/>
<rect x="50.5015" y="55.9979" width="2.49996" height="4.99992" transform="rotate(-180 50.5015 55.9979)" fill="#B5B5B5"/>
<rect x="52.9954" y="53.4993" width="2.49996" height="4.99992" transform="rotate(-180 52.9954 53.4993)" fill="#B5B5B5"/>
<rect x="55.4971" y="48.4969" width="2.49996" height="4.99992" transform="rotate(-180 55.4971 48.4969)" fill="#B5B5B5"/>
<rect x="20.4958" y="55.9979" width="2.49996" height="4.99992" transform="rotate(-180 20.4958 55.9979)" fill="#B5B5B5"/>
<rect x="45.4983" y="58.4972" width="24.9996" height="4.99991" transform="rotate(-180 45.4983 58.4972)" fill="#B5B5B5"/>
<rect x="20.4958" y="8.4986" width="24.9996" height="2.49996" fill="#393939"/>
<rect x="15.502" y="10.9979" width="4.99992" height="2.49996" fill="#393939"/>
<rect width="4.99992" height="2.49996" transform="matrix(-1 0 0 1 50.5027 10.9979)" fill="#393939"/>
<rect x="10.5002" y="53.4993" width="4.99992" height="2.49996" transform="rotate(-90 10.5002 53.4993)" fill="#393939"/>
<rect width="4.99992" height="2.49996" transform="matrix(4.37114e-08 -1 -1 -4.37114e-08 55.4971 53.4993)" fill="#393939"/>
<rect x="12.9941" y="13.498" width="2.49996" height="2.49996" fill="#393939"/>
<rect width="2.49996" height="2.49996" transform="matrix(-1 0 0 1 52.9954 13.498)" fill="#393939"/>
<rect x="12.9941" y="55.9979" width="2.49996" height="2.49996" transform="rotate(-90 12.9941 55.9979)" fill="#393939"/>
<rect width="2.49996" height="2.49996" transform="matrix(4.37114e-08 -1 -1 -4.37114e-08 52.9939 55.9979)" fill="#393939"/>
<rect x="10.5002" y="16.0004" width="2.49996" height="4.99992" fill="#393939"/>
<rect width="2.49996" height="4.99992" transform="matrix(-1 0 0 1 55.4971 16.0004)" fill="#393939"/>
<rect x="15.502" y="58.4972" width="2.49996" height="4.99992" transform="rotate(-90 15.502 58.4972)" fill="#393939"/>
<rect width="2.49996" height="4.99992" transform="matrix(4.37114e-08 -1 -1 -4.37114e-08 50.5027 58.4972)" fill="#393939"/>
<rect x="20.4976" y="58.4972" width="24.9996" height="2.49996" fill="#393939"/>
<rect x="58.0002" y="20.9982" width="27.4995" height="2.49996" transform="rotate(90 58.0002 20.9982)" fill="#393939"/>
<rect x="10.5002" y="20.9982" width="27.4995" height="2.49996" transform="rotate(90 10.5002 20.9982)" fill="#393939"/>
<rect x="45.4983" y="10.9979" width="2.49996" height="24.9996" transform="rotate(90 45.4983 10.9979)" fill="#E8E8E8"/>
<rect x="20.4976" y="53.4993" width="2.49996" height="24.9996" transform="rotate(-90 20.4976 53.4993)" fill="#E8E8E8"/>
<rect x="20.4976" y="13.498" width="2.49996" height="4.99992" transform="rotate(90 20.4976 13.498)" fill="#E8E8E8"/>
<rect x="45.4983" y="50.9969" width="2.49996" height="4.99992" transform="rotate(-90 45.4983 50.9969)" fill="#E8E8E8"/>
<rect x="15.502" y="16.0004" width="2.49996" height="2.49996" transform="rotate(90 15.502 16.0004)" fill="#E8E8E8"/>
<rect x="50.5027" y="48.4969" width="2.49996" height="2.49996" transform="rotate(-90 50.5027 48.4969)" fill="#E8E8E8"/>
<rect x="12.9941" y="20.9982" width="2.49996" height="2.49996" transform="rotate(90 12.9941 20.9982)" fill="#E8E8E8"/>
<rect x="52.9954" y="43.4967" width="2.49996" height="2.49996" transform="rotate(-90 52.9954 43.4967)" fill="#E8E8E8"/>
<rect x="52.9954" y="16.0004" width="2.49996" height="2.49996" transform="rotate(90 52.9954 16.0004)" fill="#E8E8E8"/>
<rect x="12.9941" y="48.4969" width="2.49996" height="2.49996" transform="rotate(-90 12.9941 48.4969)" fill="#E8E8E8"/>
<rect x="55.4971" y="20.9982" width="2.49996" height="2.49996" transform="rotate(90 55.4971 20.9982)" fill="#E8E8E8"/>
<rect x="10.5002" y="43.4967" width="2.49996" height="2.49996" transform="rotate(-90 10.5002 43.4967)" fill="#E8E8E8"/>
<rect x="50.5027" y="13.498" width="2.49996" height="4.99992" transform="rotate(90 50.5027 13.498)" fill="#E8E8E8"/>
<rect x="15.502" y="50.9969" width="2.49996" height="4.99992" transform="rotate(-90 15.502 50.9969)" fill="#E8E8E8"/>
</g>
<path d="M25.2416 36.7546L25.2416 39.1906L27.6776 39.1906L27.6776 41.6266L30.1136 41.6266L32.5496 41.6266H34.9856L37.4216 41.6266L39.8576 41.6266L39.8576 39.1906L42.2936 39.1906L42.2936 36.7546L39.8576 36.7546V34.3186L37.4216 34.3186L34.9856 34.3186H32.5496L25.2416 34.3186L25.2416 31.8826L22.8056 31.8826L22.8056 29.4466L20.3696 29.4466L20.3696 27.0106L20.3696 24.5746L20.3696 22.1386L22.8056 22.1386L22.8056 19.7026L25.2416 19.7026L25.2416 17.2666L30.1136 17.2666L32.5496 17.2666L34.9856 17.2666L42.2936 17.2666L42.2936 19.7026L44.7296 19.7026L44.7296 22.1386L47.1656 22.1386L47.1656 27.0106L42.2936 27.0106L42.2936 24.5746L39.8576 24.5746V22.1386L37.4216 22.1386L34.9856 22.1386L32.5496 22.1386L30.1136 22.1386L27.6776 22.1386L27.6776 24.5746L25.2416 24.5746L25.2416 27.0106L27.6776 27.0106L27.6776 29.4466L30.1136 29.4466L32.5496 29.4466L34.9856 29.4466L42.2936 29.4466L42.2936 31.8826L44.7296 31.8826L44.7296 34.3186H47.1656V36.7546L47.1656 39.1906L47.1656 41.6266H44.7296L44.7296 44.0626L42.2936 44.0626L42.2936 46.4986L34.9856 46.4986H32.5496L25.2416 46.4986L25.2416 44.0626L22.8056 44.0626L22.8056 41.6266L20.3696 41.6266L20.3696 36.7546L25.2416 36.7546Z" fill="#FFBD82"/>
<path d="M23.5003 37.4982L23.5003 39.9983L26.0004 39.9983L26.0004 42.4984L28.5005 42.4984L31.0006 42.4984L33.5007 42.4984L36.0008 42.4984L38.5009 42.4984L38.5009 39.9983H41.0011L41.0011 37.4982H38.5009L38.5009 34.9981L36.0008 34.9981L33.5007 34.9981L31.0006 34.9981L23.5003 34.9981L23.5003 32.498L21.0002 32.498L21.0002 29.9979L18.5001 29.9979L18.5001 27.4978L18.5001 24.9976L18.5001 22.4975L21.0002 22.4975L21.0002 19.9974L23.5003 19.9974L23.5003 17.4973L28.5005 17.4973L31.0006 17.4973L33.5007 17.4973L41.0011 17.4973L41.0011 19.9974L43.5012 19.9974L43.5012 22.4975L46.0013 22.4975L46.0013 27.4978L41.0011 27.4978L41.0011 24.9976L38.5009 24.9976V22.4975L36.0008 22.4975L33.5007 22.4975L31.0006 22.4975L28.5005 22.4975L26.0004 22.4975L26.0004 24.9976L23.5003 24.9976L23.5003 27.4978L26.0004 27.4978L26.0004 29.9979L28.5005 29.9979L31.0006 29.9979L33.5007 29.9979L41.0011 29.9979L41.0011 32.498L43.5012 32.498L43.5012 34.9981L46.0013 34.9981L46.0013 37.4982L46.0013 39.9983L46.0013 42.4984L43.5012 42.4984V44.9985L41.0011 44.9985L41.0011 47.4986L33.5007 47.4986L31.0006 47.4986L23.5003 47.4986L23.5003 44.9985L21.0002 44.9985L21.0002 42.4984H18.5001L18.5001 37.4982L23.5003 37.4982Z" fill="#FF8426"/>
</g>
<defs>
<filter id="filter0_dddd_529_44880" x="0.000244141" y="0.498596" width="66" height="68.4985" filterUnits="userSpaceOnUse" color-interpolation-filters="sRGB">
<feFlood flood-opacity="0" result="BackgroundImageFix"/>
<feColorMatrix in="SourceAlpha" type="matrix" values="0 0 0 0 0 0 0 0 0 0 0 0 0 0 0 0 0 0 127 0" result="hardAlpha"/>
<feOffset dy="4"/>
<feGaussianBlur stdDeviation="2"/>
<feComposite in2="hardAlpha" operator="out"/>
<feColorMatrix type="matrix" values="0 0 0 0 1 0 0 0 0 0.517647 0 0 0 0 0.14902 0 0 0 1 0"/>
<feBlend mode="normal" in2="BackgroundImageFix" result="effect1_dropShadow_529_44880"/>
<feColorMatrix in="SourceAlpha" type="matrix" values="0 0 0 0 0 0 0 0 0 0 0 0 0 0 0 0 0 0 127 0" result="hardAlpha"/>
<feOffset dy="-4"/>
<feGaussianBlur stdDeviation="2"/>
<feComposite in2="hardAlpha" operator="out"/>
<feColorMatrix type="matrix" values="0 0 0 0 1 0 0 0 0 0.517647 0 0 0 0 0.14902 0 0 0 1 0"/>
<feBlend mode="normal" in2="effect1_dropShadow_529_44880" result="effect2_dropShadow_529_44880"/>
<feColorMatrix in="SourceAlpha" type="matrix" values="0 0 0 0 0 0 0 0 0 0 0 0 0 0 0 0 0 0 127 0" result="hardAlpha"/>
<feOffset dx="4" dy="4"/>
<feGaussianBlur stdDeviation="2"/>
<feComposite in2="hardAlpha" operator="out"/>
<feColorMatrix type="matrix" values="0 0 0 0 1 0 0 0 0 0.517647 0 0 0 0 0.14902 0 0 0 1 0"/>
<feBlend mode="normal" in2="effect2_dropShadow_529_44880" result="effect3_dropShadow_529_44880"/>
<feColorMatrix in="SourceAlpha" type="matrix" values="0 0 0 0 0 0 0 0 0 0 0 0 0 0 0 0 0 0 127 0" result="hardAlpha"/>
<feOffset dx="-4" dy="4"/>
<feGaussianBlur stdDeviation="2"/>
<feComposite in2="hardAlpha" operator="out"/>
<feColorMatrix type="matrix" values="0 0 0 0 1 0 0 0 0 0.517647 0 0 0 0 0.14902 0 0 0 1 0"/>
<feBlend mode="normal" in2="effect3_dropShadow_529_44880" result="effect4_dropShadow_529_44880"/>
<feBlend mode="normal" in="SourceGraphic" in2="effect4_dropShadow_529_44880" result="shape"/>
</filter>
</defs>
</svg>
