<svg width="35" height="37" viewBox="0 0 35 37" fill="none" xmlns="http://www.w3.org/2000/svg">
<rect x="8.66919" y="3.46753" width="17.34" height="27.744" fill="white"/>
<rect x="1.73389" y="5.20274" width="31.212" height="24.276" fill="white"/>
<rect x="3.46338" y="27.7435" width="1.734" height="3.468" transform="rotate(-180 3.46338 27.7435)" fill="#B5B5B5"/>
<rect x="5.20435" y="31.2125" width="1.734" height="3.468" transform="rotate(-180 5.20435 31.2125)" fill="#B5B5B5"/>
<rect x="6.93384" y="32.9463" width="1.734" height="3.468" transform="rotate(-180 6.93384 32.9463)" fill="#B5B5B5"/>
<rect x="27.7451" y="32.9463" width="1.734" height="3.468" transform="rotate(-180 27.7451 32.9463)" fill="#B5B5B5"/>
<rect x="29.4802" y="32.9463" width="1.734" height="3.468" transform="rotate(-180 29.4802 32.9463)" fill="#B5B5B5"/>
<rect x="31.21" y="31.2125" width="1.734" height="3.468" transform="rotate(-180 31.21 31.2125)" fill="#B5B5B5"/>
<rect x="32.9451" y="27.7435" width="1.734" height="3.468" transform="rotate(-180 32.9451 27.7435)" fill="#B5B5B5"/>
<rect x="8.66919" y="32.9463" width="1.734" height="3.468" transform="rotate(-180 8.66919 32.9463)" fill="#B5B5B5"/>
<rect x="26.01" y="34.6801" width="17.34" height="3.468" transform="rotate(-180 26.01 34.6801)" fill="#B5B5B5"/>
<rect x="8.66919" y="-6.10352e-05" width="17.34" height="1.734" fill="#393939"/>
<rect x="5.20435" y="1.73373" width="3.468" height="1.734" fill="#393939"/>
<rect width="3.468" height="1.734" transform="matrix(-1 0 0 1 29.4802 1.73373)" fill="#393939"/>
<rect x="1.73389" y="31.2125" width="3.468" height="1.734" transform="rotate(-90 1.73389 31.2125)" fill="#393939"/>
<rect width="3.468" height="1.734" transform="matrix(4.37114e-08 -1 -1 -4.37114e-08 32.9451 31.2125)" fill="#393939"/>
<rect x="3.46338" y="3.46753" width="1.734" height="1.734" fill="#393939"/>
<rect width="1.734" height="1.734" transform="matrix(-1 0 0 1 31.21 3.46753)" fill="#393939"/>
<rect x="3.46338" y="32.9463" width="1.734" height="1.734" transform="rotate(-90 3.46338 32.9463)" fill="#393939"/>
<rect width="1.734" height="1.734" transform="matrix(4.37114e-08 -1 -1 -4.37114e-08 31.21 32.9463)" fill="#393939"/>
<rect x="1.73389" y="5.20274" width="1.734" height="3.468" fill="#393939"/>
<rect width="1.734" height="3.468" transform="matrix(-1 0 0 1 32.9451 5.20274)" fill="#393939"/>
<rect x="5.20435" y="34.6801" width="1.734" height="3.468" transform="rotate(-90 5.20435 34.6801)" fill="#393939"/>
<rect width="1.734" height="3.468" transform="matrix(4.37114e-08 -1 -1 -4.37114e-08 29.4802 34.6801)" fill="#393939"/>
<rect x="8.66919" y="34.6801" width="17.34" height="1.734" fill="#393939"/>
<rect x="34.6802" y="8.67033" width="19.074" height="1.734" transform="rotate(90 34.6802 8.67033)" fill="#393939"/>
<rect x="1.73389" y="8.67033" width="19.074" height="1.734" transform="rotate(90 1.73389 8.67033)" fill="#393939"/>
<rect x="26.01" y="1.73373" width="1.734" height="17.34" transform="rotate(90 26.01 1.73373)" fill="#E8E8E8"/>
<rect x="8.66919" y="31.2125" width="1.734" height="17.34" transform="rotate(-90 8.66919 31.2125)" fill="#E8E8E8"/>
<rect x="8.66919" y="3.46753" width="1.734" height="3.468" transform="rotate(90 8.66919 3.46753)" fill="#E8E8E8"/>
<rect x="26.01" y="29.4772" width="1.734" height="3.468" transform="rotate(-90 26.01 29.4772)" fill="#E8E8E8"/>
<rect x="5.20435" y="5.20274" width="1.734" height="1.734" transform="rotate(90 5.20435 5.20274)" fill="#E8E8E8"/>
<rect x="29.4802" y="27.7435" width="1.734" height="1.734" transform="rotate(-90 29.4802 27.7435)" fill="#E8E8E8"/>
<rect x="3.46338" y="8.67033" width="1.734" height="1.734" transform="rotate(90 3.46338 8.67033)" fill="#E8E8E8"/>
<rect x="31.21" y="24.2759" width="1.734" height="1.734" transform="rotate(-90 31.21 24.2759)" fill="#E8E8E8"/>
<rect x="31.21" y="5.20274" width="1.734" height="1.734" transform="rotate(90 31.21 5.20274)" fill="#E8E8E8"/>
<rect x="3.46338" y="27.7435" width="1.734" height="1.734" transform="rotate(-90 3.46338 27.7435)" fill="#E8E8E8"/>
<rect x="32.9451" y="8.67033" width="1.734" height="1.734" transform="rotate(90 32.9451 8.67033)" fill="#E8E8E8"/>
<rect x="1.73389" y="24.2759" width="1.734" height="1.734" transform="rotate(-90 1.73389 24.2759)" fill="#E8E8E8"/>
<rect x="29.4802" y="3.46753" width="1.734" height="3.468" transform="rotate(90 29.4802 3.46753)" fill="#E8E8E8"/>
<rect x="5.20435" y="29.4772" width="1.734" height="3.468" transform="rotate(-90 5.20435 29.4772)" fill="#E8E8E8"/>
<path d="M22.8075 8.72728L8.05857 17.2335C7.48262 17.5644 7.5558 18.366 8.12858 18.6078L11.5111 20.0265L20.6532 11.972C20.8282 11.8161 21.0765 12.0547 20.9269 12.236L13.2613 21.5726V24.1333C13.2613 24.8841 14.1682 25.1799 14.6137 24.636L16.6343 22.177L20.5991 23.8375C21.051 24.0284 21.5665 23.7452 21.6492 23.2585L23.9403 9.5162C24.0485 8.87361 23.358 8.40917 22.8075 8.72728Z" fill="#FF7C06"/>
</svg>
