<svg width="16" height="16" viewBox="0 0 16 16" fill="none" xmlns="http://www.w3.org/2000/svg">
<path fill-rule="evenodd" clip-rule="evenodd" d="M1.20358 1.20361H12.0358V2.40711H13.2394V3.61079H14.443V4.81437H3.61079V3.61079H12.0358V2.40719H1.20358L1.20358 12.0358H0L4.20881e-07 2.40711H1.20358V1.20361ZM14.443 14.4429H3.61079V4.81442H2.40721L2.40721 12.0358H1.20358V13.2393H2.40721V14.4431H3.61079L3.61079 14.4429V15.6465H14.443L14.443 14.4431H15.6466V4.81442H14.443L14.443 14.4429Z" fill="#393939"/>
<path fill-rule="evenodd" clip-rule="evenodd" d="M1.20358 0H12.0358V1.20358H1.20358V0ZM12.0358 2.40716H3.61079V3.61074H12.0358V3.6108H13.2394V3.61074H14.443V2.40716H13.2394V1.20363H12.0358V2.40716ZM14.443 13.2394H3.61079V14.443H14.443V13.2394ZM3.61079 3.61079L3.61079 13.2394H2.40721V12.0357H1.20358V10.8322H2.40721L2.40721 3.61079H3.61079ZM1.20358 1.20363V10.8322L1.20358 10.8323H0L4.20881e-07 1.20363H1.20358ZM15.6466 13.2394V3.61079H14.443L14.443 13.2394H15.6466Z" fill="white"/>
</svg>
