<svg width="158" height="30" viewBox="0 0 158 30" fill="none" xmlns="http://www.w3.org/2000/svg">
<rect x="6" y="2" width="146" height="26" fill="#32B5FF"/>
<rect x="2" y="6" width="154" height="18" fill="#32B5FF"/>
<rect x="10" width="138" height="2" fill="#393939"/>
<rect x="6" y="2" width="4" height="2" fill="#393939"/>
<rect x="4" y="4" width="2" height="2" fill="#393939"/>
<rect x="2" y="6" width="2" height="4" fill="#393939"/>
<rect x="2" y="24" width="4" height="2" transform="rotate(-90 2 24)" fill="#393939"/>
<rect x="4" y="26" width="2" height="2" transform="rotate(-90 4 26)" fill="#393939"/>
<rect x="6" y="28" width="2" height="4" transform="rotate(-90 6 28)" fill="#393939"/>
<rect y="10" width="2" height="10" fill="#393939"/>
<rect x="10" y="28" width="138" height="2" fill="#393939"/>
<rect x="148" y="2" width="4" height="2" fill="#393939"/>
<rect x="152" y="4" width="2" height="2" fill="#393939"/>
<rect x="154" y="6" width="2" height="4" fill="#393939"/>
<rect x="156" y="10" width="2" height="10" fill="#393939"/>
<rect x="148" y="26" width="4" height="2" fill="#393939"/>
<rect x="152" y="24" width="2" height="2" fill="#393939"/>
<rect x="154" y="20" width="2" height="4" fill="#393939"/>
</svg>
