<svg width="13" height="8" viewBox="0 0 13 8" fill="none" xmlns="http://www.w3.org/2000/svg">
<rect y="1" width="1" height="1" fill="#393939"/>
<rect x="2" y="3" width="1" height="1" fill="#393939"/>
<rect x="1" y="2" width="1" height="1" fill="#393939"/>
<rect x="3" y="4" width="1" height="1" fill="#393939"/>
<rect x="4" y="5" width="1" height="1" fill="#393939"/>
<rect x="5" y="6" width="1" height="1" fill="#393939"/>
<rect width="1" height="1" transform="matrix(-1 0 0 1 13 1)" fill="#393939"/>
<rect width="1" height="1" transform="matrix(-1 0 0 1 11 3)" fill="#393939"/>
<rect width="1" height="1" transform="matrix(-1 0 0 1 12 2)" fill="#393939"/>
<rect width="1" height="1" transform="matrix(-1 0 0 1 10 4)" fill="#393939"/>
<rect width="1" height="1" transform="matrix(-1 0 0 1 9 5)" fill="#393939"/>
<rect width="1" height="1" transform="matrix(-1 0 0 1 8 6)" fill="#393939"/>
<rect width="1" height="2" transform="matrix(-1 0 0 1 7 6)" fill="#393939"/>
<rect width="1" height="1" fill="white"/>
<rect x="2" y="2" width="1" height="1" fill="white"/>
<rect x="1" y="1" width="1" height="1" fill="white"/>
<rect x="3" y="3" width="1" height="1" fill="white"/>
<rect x="4" y="4" width="1" height="1" fill="white"/>
<rect x="5" y="5" width="1" height="1" fill="white"/>
<rect width="1" height="1" transform="matrix(-1 0 0 1 13 0)" fill="white"/>
<rect width="1" height="1" transform="matrix(-1 0 0 1 11 2)" fill="white"/>
<rect width="1" height="1" transform="matrix(-1 0 0 1 12 1)" fill="white"/>
<rect width="1" height="1" transform="matrix(-1 0 0 1 10 3)" fill="white"/>
<rect width="1" height="1" transform="matrix(-1 0 0 1 9 4)" fill="white"/>
<rect width="1" height="1" transform="matrix(-1 0 0 1 8 5)" fill="white"/>
<rect width="1" height="2" transform="matrix(-1 0 0 1 7 5)" fill="white"/>
</svg>
