<svg width="148" height="148" viewBox="0 0 148 148" fill="none" xmlns="http://www.w3.org/2000/svg">
<g opacity="0.5" filter="url(#filter0_dddd_527_36188)">
<path fill-rule="evenodd" clip-rule="evenodd" d="M40.6596 16.1649H107.34V32.4949H115.505V40.6597H131.835V107.34H115.505V115.505H107.34V131.835H40.6596V115.505H32.4946V107.34H16.1648V40.6597H32.4946V32.4949H40.6596V16.1649Z" fill="white"/>
<path fill-rule="evenodd" clip-rule="evenodd" d="M56.9896 8V16.1649L40.6597 16.1649V24.3299H56.9896L56.9896 16.1649L56.9897 16.165H91.0102L91.0103 16.1649L91.0103 24.3299H107.34V16.1649L91.0103 16.1649V8H91.0102H56.9897H56.9896ZM32.4949 24.3299H40.6598V32.4949H32.4949V24.3299ZM24.3298 40.6597H16.1649V56.9896H24.3298V40.6597ZM16.165 56.9897H8L8 56.9897L8 91.0103V91.0103H16.165V91.0103V56.9897ZM32.4948 32.4949H24.3299V40.6598H32.4948V32.4949ZM131.835 91.0103V91.0103L131.835 56.9897L131.835 56.9897L140 56.9897V91.0103H131.835ZM123.67 107.34H131.835V91.0104H123.67V107.34ZM115.505 123.67H107.34V115.505L115.505 115.505V107.34H123.67V115.505L115.505 115.505L115.505 123.67ZM123.67 40.6597H131.835V56.9896H123.67V40.6597ZM115.505 24.3299H107.34V32.4949L115.505 32.4949V40.6598H123.67V32.4949L115.505 32.4949V24.3299ZM24.3298 107.34H16.1649L16.1649 91.0104H24.3298L24.3298 107.34ZM32.4949 123.67H40.6598V115.505H32.4949V123.67ZM32.4948 115.505H24.3299L24.3299 107.34H32.4948V115.505ZM91.0103 131.835L107.34 131.835V123.67L91.0103 123.67L91.0103 131.835ZM56.9897 131.835V140H91.0103V131.835L91.0102 131.835L56.9897 131.835ZM56.9897 131.835L40.6597 131.835V123.67L56.9896 123.67L56.9897 131.835Z" fill="#16171A"/>
<path fill-rule="evenodd" clip-rule="evenodd" d="M67.3259 62.5815H80.2412V65.7444H81.8225V67.3258H84.9856V80.2411H81.8225V81.8226H80.2412V84.9856H67.3259V81.8226H65.7443V80.2411H62.5815V67.3258H65.7443V65.7444H67.3259V62.5815Z" fill="#FF8426"/>
<path fill-rule="evenodd" clip-rule="evenodd" d="M77.0781 61V61.0001L77.0784 61.0001V62.5815L80.2411 62.5815V64.163L77.0782 64.163V62.5815L70.489 62.5815V64.163L67.3261 64.163V62.5815L70.4889 62.5815V62.5815H70.4887V61H77.0781ZM65.7443 64.163H67.3258V65.7444H65.7443V67.3258H64.1629V70.4887H62.5814V67.3257H64.1629V65.7444H65.7443V64.163ZM62.5815 70.4887H61L61 70.4888L61 77.0782L61 77.0782H62.5815V77.0782V70.4887ZM86.5669 77.0782H84.9855V77.0782L84.9855 70.4888L84.9855 70.4887H86.5669L86.5669 70.4888L86.5669 77.0782V77.0782ZM83.4041 80.2411H84.9856V77.0782H83.4041V80.2411ZM81.8226 83.404H80.2411V81.8226H81.8225V80.2411H83.4039V81.8226H81.8226V83.404ZM83.4041 67.3257H84.9856V70.4887H83.4041V67.3257ZM81.8226 64.163H80.2411V65.7444H81.8225V67.3258H83.4039V65.7444H81.8226V64.163ZM64.1628 80.2411H62.5813L62.5813 77.0782H64.1628L64.1628 80.2411ZM65.7443 83.404H67.3258V81.8226H65.7443V80.2411H64.1629L64.1629 81.8226H65.7443V83.404ZM70.4891 84.9855H70.4887V86.567H70.4891H77.0781H77.0785V84.9855H77.0781H70.4891ZM80.2411 83.404V84.9855L77.0782 84.9855V83.404L80.2411 83.404ZM67.3261 83.404V84.9855H70.489V83.404H67.3261Z" fill="#FF8426"/>
<rect x="72.4866" y="23.0488" width="4.16252" height="31.2189" fill="#FF8426"/>
<rect x="60" y="31.3746" width="4.16252" height="4.16252" fill="#FF8426"/>
<rect x="64.1621" y="27.2111" width="4.16252" height="4.16252" fill="#FF8426"/>
<rect x="68.3245" y="23.0488" width="4.16252" height="4.16252" fill="#FF8426"/>
<rect x="72.4866" y="18.8866" width="4.16252" height="4.16252" fill="#FF8426"/>
<rect x="76.6487" y="23.0488" width="4.16252" height="4.16252" fill="#FF8426"/>
<rect x="80.811" y="27.2111" width="4.16252" height="4.16252" fill="#FF8426"/>
<rect x="84.9734" y="31.3746" width="4.16252" height="4.16252" fill="#FF8426"/>
<rect x="124.951" y="72.198" width="4.16252" height="31.2189" transform="rotate(90 124.951 72.198)" fill="#FF8426"/>
<rect x="116.625" y="59.7113" width="4.16252" height="4.16252" transform="rotate(90 116.625 59.7113)" fill="#FF8426"/>
<rect x="120.789" y="63.8735" width="4.16252" height="4.16252" transform="rotate(90 120.789 63.8735)" fill="#FF8426"/>
<rect x="124.951" y="68.0358" width="4.16252" height="4.16252" transform="rotate(90 124.951 68.0358)" fill="#FF8426"/>
<rect x="129.113" y="72.198" width="4.16252" height="4.16252" transform="rotate(90 129.113 72.198)" fill="#FF8426"/>
<rect x="124.951" y="76.3601" width="4.16252" height="4.16252" transform="rotate(90 124.951 76.3601)" fill="#FF8426"/>
<rect x="120.789" y="80.5223" width="4.16252" height="4.16252" transform="rotate(90 120.789 80.5223)" fill="#FF8426"/>
<rect x="116.625" y="84.6846" width="4.16252" height="4.16252" transform="rotate(90 116.625 84.6846)" fill="#FF8426"/>
<rect x="76.5134" y="124.838" width="4.16252" height="31.2189" transform="rotate(-180 76.5134 124.838)" fill="#FF8426"/>
<rect x="89" y="116.512" width="4.16252" height="4.16252" transform="rotate(-180 89 116.512)" fill="#FF8426"/>
<rect x="84.8379" y="120.676" width="4.16252" height="4.16252" transform="rotate(-180 84.8379 120.676)" fill="#FF8426"/>
<rect x="80.6755" y="124.838" width="4.16252" height="4.16252" transform="rotate(-180 80.6755 124.838)" fill="#FF8426"/>
<rect x="76.5134" y="129" width="4.16252" height="4.16252" transform="rotate(-180 76.5134 129)" fill="#FF8426"/>
<rect x="72.3513" y="124.838" width="4.16252" height="4.16252" transform="rotate(-180 72.3513 124.838)" fill="#FF8426"/>
<rect x="68.189" y="120.676" width="4.16252" height="4.16252" transform="rotate(-180 68.189 120.676)" fill="#FF8426"/>
<rect x="64.0269" y="116.512" width="4.16252" height="4.16252" transform="rotate(-180 64.0269 116.512)" fill="#FF8426"/>
<rect x="23.0488" y="76.3605" width="4.16252" height="31.2189" transform="rotate(-90 23.0488 76.3605)" fill="#FF8426"/>
<rect x="31.3745" y="88.8472" width="4.16252" height="4.16252" transform="rotate(-90 31.3745 88.8472)" fill="#FF8426"/>
<rect x="27.2112" y="84.6849" width="4.16252" height="4.16252" transform="rotate(-90 27.2112 84.6849)" fill="#FF8426"/>
<rect x="23.0488" y="80.5227" width="4.16252" height="4.16252" transform="rotate(-90 23.0488 80.5227)" fill="#FF8426"/>
<rect x="18.8867" y="76.3605" width="4.16252" height="4.16252" transform="rotate(-90 18.8867 76.3605)" fill="#FF8426"/>
<rect x="23.0488" y="72.1984" width="4.16252" height="4.16252" transform="rotate(-90 23.0488 72.1984)" fill="#FF8426"/>
<rect x="27.2112" y="68.0361" width="4.16252" height="4.16252" transform="rotate(-90 27.2112 68.0361)" fill="#FF8426"/>
<rect x="31.3745" y="63.8739" width="4.16252" height="4.16252" transform="rotate(-90 31.3745 63.8739)" fill="#FF8426"/>
</g>
<defs>
<filter id="filter0_dddd_527_36188" x="0" y="0" width="148" height="148" filterUnits="userSpaceOnUse" color-interpolation-filters="sRGB">
<feFlood flood-opacity="0" result="BackgroundImageFix"/>
<feColorMatrix in="SourceAlpha" type="matrix" values="0 0 0 0 0 0 0 0 0 0 0 0 0 0 0 0 0 0 127 0" result="hardAlpha"/>
<feOffset dy="4"/>
<feGaussianBlur stdDeviation="2"/>
<feComposite in2="hardAlpha" operator="out"/>
<feColorMatrix type="matrix" values="0 0 0 0 1 0 0 0 0 0.517647 0 0 0 0 0.14902 0 0 0 1 0"/>
<feBlend mode="normal" in2="BackgroundImageFix" result="effect1_dropShadow_527_36188"/>
<feColorMatrix in="SourceAlpha" type="matrix" values="0 0 0 0 0 0 0 0 0 0 0 0 0 0 0 0 0 0 127 0" result="hardAlpha"/>
<feOffset dy="-4"/>
<feGaussianBlur stdDeviation="2"/>
<feComposite in2="hardAlpha" operator="out"/>
<feColorMatrix type="matrix" values="0 0 0 0 1 0 0 0 0 0.517647 0 0 0 0 0.14902 0 0 0 1 0"/>
<feBlend mode="normal" in2="effect1_dropShadow_527_36188" result="effect2_dropShadow_527_36188"/>
<feColorMatrix in="SourceAlpha" type="matrix" values="0 0 0 0 0 0 0 0 0 0 0 0 0 0 0 0 0 0 127 0" result="hardAlpha"/>
<feOffset dx="4" dy="4"/>
<feGaussianBlur stdDeviation="2"/>
<feComposite in2="hardAlpha" operator="out"/>
<feColorMatrix type="matrix" values="0 0 0 0 1 0 0 0 0 0.517647 0 0 0 0 0.14902 0 0 0 1 0"/>
<feBlend mode="normal" in2="effect2_dropShadow_527_36188" result="effect3_dropShadow_527_36188"/>
<feColorMatrix in="SourceAlpha" type="matrix" values="0 0 0 0 0 0 0 0 0 0 0 0 0 0 0 0 0 0 127 0" result="hardAlpha"/>
<feOffset dx="-4" dy="4"/>
<feGaussianBlur stdDeviation="2"/>
<feComposite in2="hardAlpha" operator="out"/>
<feColorMatrix type="matrix" values="0 0 0 0 1 0 0 0 0 0.517647 0 0 0 0 0.14902 0 0 0 1 0"/>
<feBlend mode="normal" in2="effect3_dropShadow_527_36188" result="effect4_dropShadow_527_36188"/>
<feBlend mode="normal" in="SourceGraphic" in2="effect4_dropShadow_527_36188" result="shape"/>
</filter>
</defs>
</svg>
