<svg width="15" height="15" viewBox="0 0 15 15" fill="none" xmlns="http://www.w3.org/2000/svg">
<path fill-rule="evenodd" clip-rule="evenodd" d="M1.46667 1.46667H10.2667V2.93334H1.46667L1.46667 13.2H0L4.48774e-07 2.93331L1.46667 2.93331V1.46667ZM1.46667 13.2001H10.2667V14.6667H1.46667V13.2001Z" fill="#393939"/>
<rect x="4.39999" y="7.33337" width="10.2667" height="1.46667" fill="#393939"/>
<rect x="11.7333" y="5.8667" width="1.46667" height="1.46667" fill="#393939"/>
<rect x="11.7333" y="8.79993" width="1.46667" height="1.46667" fill="#393939"/>
<rect x="10.2667" y="10.2666" width="1.46667" height="1.46667" fill="#393939"/>
<rect x="10.2667" y="4.40002" width="1.46667" height="1.46667" fill="#393939"/>
<path fill-rule="evenodd" clip-rule="evenodd" d="M1.46667 0H10.2667V1.46667H1.46667L1.46667 11.7333H0L4.48774e-07 1.46663L1.46667 1.46663V0ZM1.46667 11.7334H10.2667V13.2001H1.46667V11.7334Z" fill="white"/>
<rect x="4.39999" y="5.8667" width="10.2667" height="1.46667" fill="white"/>
<rect x="11.7333" y="4.40002" width="1.46667" height="1.46667" fill="white"/>
<rect x="11.7333" y="7.33337" width="1.46667" height="1.46667" fill="white"/>
<rect x="10.2667" y="8.79993" width="1.46667" height="1.46667" fill="white"/>
<rect x="10.2667" y="2.93323" width="1.46667" height="1.46667" fill="white"/>
</svg>
