<svg width="39" height="40" viewBox="0 0 39 40" fill="none" xmlns="http://www.w3.org/2000/svg">
<rect x="9.52203" y="3.80917" width="19.0478" height="30.4764" fill="white"/>
<rect x="1.90485" y="5.71576" width="34.286" height="26.6669" fill="white"/>
<rect x="3.80518" y="30.4756" width="1.90478" height="3.80955" transform="rotate(-180 3.80518 30.4756)" fill="#B5B5B5"/>
<rect x="5.71576" y="34.2871" width="1.90478" height="3.80955" transform="rotate(-180 5.71576 34.2871)" fill="#B5B5B5"/>
<rect x="7.61603" y="36.1908" width="1.90478" height="3.80955" transform="rotate(-180 7.61603 36.1908)" fill="#B5B5B5"/>
<rect x="30.4768" y="36.1908" width="1.90478" height="3.80955" transform="rotate(-180 30.4768 36.1908)" fill="#B5B5B5"/>
<rect x="32.3828" y="36.1908" width="1.90478" height="3.80955" transform="rotate(-180 32.3828 36.1908)" fill="#B5B5B5"/>
<rect x="34.2831" y="34.2871" width="1.90478" height="3.80955" transform="rotate(-180 34.2831 34.2871)" fill="#B5B5B5"/>
<rect x="36.1891" y="30.4756" width="1.90478" height="3.80955" transform="rotate(-180 36.1891 30.4756)" fill="#B5B5B5"/>
<rect x="9.52094" y="36.1908" width="1.90478" height="3.80955" transform="rotate(-180 9.52094 36.1908)" fill="#B5B5B5"/>
<rect x="28.5708" y="38.0951" width="19.0478" height="3.80955" transform="rotate(-180 28.5708 38.0951)" fill="#B5B5B5"/>
<rect x="9.52094" width="19.0478" height="1.90478" fill="#393939"/>
<rect x="5.71576" y="1.9043" width="3.80956" height="1.90478" fill="#393939"/>
<rect width="3.80956" height="1.90478" transform="matrix(-1 0 0 1 32.384 1.9043)" fill="#393939"/>
<rect x="1.90485" y="34.2871" width="3.80956" height="1.90478" transform="rotate(-90 1.90485 34.2871)" fill="#393939"/>
<rect width="3.80956" height="1.90478" transform="matrix(4.37114e-08 -1 -1 -4.37114e-08 36.1891 34.2871)" fill="#393939"/>
<rect x="3.80518" y="3.80917" width="1.90478" height="1.90478" fill="#393939"/>
<rect width="1.90478" height="1.90478" transform="matrix(-1 0 0 1 34.2831 3.80917)" fill="#393939"/>
<rect x="3.80518" y="36.1908" width="1.90478" height="1.90478" transform="rotate(-90 3.80518 36.1908)" fill="#393939"/>
<rect width="1.90478" height="1.90478" transform="matrix(4.37114e-08 -1 -1 -4.37114e-08 34.2819 36.1908)" fill="#393939"/>
<rect x="1.90485" y="5.71576" width="1.90478" height="3.80956" fill="#393939"/>
<rect width="1.90478" height="3.80956" transform="matrix(-1 0 0 1 36.1891 5.71576)" fill="#393939"/>
<rect x="5.71576" y="38.0951" width="1.90478" height="3.80956" transform="rotate(-90 5.71576 38.0951)" fill="#393939"/>
<rect width="1.90478" height="3.80956" transform="matrix(4.37114e-08 -1 -1 -4.37114e-08 32.384 38.0951)" fill="#393939"/>
<rect x="9.52203" y="38.0951" width="19.0478" height="1.90478" fill="#393939"/>
<rect x="38.0963" y="9.52377" width="20.9526" height="1.90478" transform="rotate(90 38.0963 9.52377)" fill="#393939"/>
<rect x="1.90485" y="9.52377" width="20.9526" height="1.90478" transform="rotate(90 1.90485 9.52377)" fill="#393939"/>
<rect x="28.5708" y="1.9043" width="1.90478" height="19.0478" transform="rotate(90 28.5708 1.9043)" fill="#E8E8E8"/>
<rect x="9.52203" y="34.2871" width="1.90478" height="19.0478" transform="rotate(-90 9.52203 34.2871)" fill="#E8E8E8"/>
<rect x="9.52203" y="3.80917" width="1.90478" height="3.80956" transform="rotate(90 9.52203 3.80917)" fill="#E8E8E8"/>
<rect x="28.5708" y="32.3805" width="1.90478" height="3.80956" transform="rotate(-90 28.5708 32.3805)" fill="#E8E8E8"/>
<rect x="5.71576" y="5.71576" width="1.90478" height="1.90478" transform="rotate(90 5.71576 5.71576)" fill="#E8E8E8"/>
<rect x="32.384" y="30.4756" width="1.90478" height="1.90478" transform="rotate(-90 32.384 30.4756)" fill="#E8E8E8"/>
<rect x="3.80518" y="9.52377" width="1.90478" height="1.90478" transform="rotate(90 3.80518 9.52377)" fill="#E8E8E8"/>
<rect x="34.2831" y="26.6659" width="1.90478" height="1.90478" transform="rotate(-90 34.2831 26.6659)" fill="#E8E8E8"/>
<rect x="34.2831" y="5.71576" width="1.90478" height="1.90478" transform="rotate(90 34.2831 5.71576)" fill="#E8E8E8"/>
<rect x="3.80518" y="30.4756" width="1.90478" height="1.90478" transform="rotate(-90 3.80518 30.4756)" fill="#E8E8E8"/>
<rect x="36.1891" y="9.52377" width="1.90478" height="1.90478" transform="rotate(90 36.1891 9.52377)" fill="#E8E8E8"/>
<rect x="1.90485" y="26.6659" width="1.90478" height="1.90478" transform="rotate(-90 1.90485 26.6659)" fill="#E8E8E8"/>
<rect x="32.384" y="3.80917" width="1.90478" height="3.80956" transform="rotate(90 32.384 3.80917)" fill="#E8E8E8"/>
<rect x="5.71576" y="32.3805" width="1.90478" height="3.80956" transform="rotate(-90 5.71576 32.3805)" fill="#E8E8E8"/>
<rect x="5" y="16" width="29" height="4" fill="#FF8426"/>
<rect x="9" y="12" width="4" height="4" fill="#FF8426"/>
<rect x="13" y="20" width="4" height="4" transform="rotate(90 13 20)" fill="#FF8426"/>
<rect x="13" y="8" width="4" height="4" fill="#FF8426"/>
<rect x="17" y="24" width="4" height="4" transform="rotate(90 17 24)" fill="#FF8426"/>
<rect x="5" y="20" width="4" height="2" fill="#FFBD82"/>
<rect x="9" y="24" width="4" height="2" fill="#FFBD82"/>
<rect x="13" y="28" width="4" height="2" fill="#FFBD82"/>
<rect x="13" y="12" width="4" height="2" fill="#FFBD82"/>
<rect x="13" y="20" width="21" height="2" fill="#FFBD82"/>
</svg>
