<svg width="372" height="83" viewBox="0 0 372 83" fill="none" xmlns="http://www.w3.org/2000/svg">
<rect x="4.17993" y="23.5178" width="363.658" height="50.3403" fill="white"/>
<rect x="363.638" y="73.8591" width="4.17998" height="2.7211" fill="black"/>
<rect width="4.17998" height="2.7211" transform="matrix(-1 0 0 1 8.3623 73.8591)" fill="black"/>
<rect width="4.17998" height="2.7211" transform="matrix(-1 0 0 1 8.3623 71.1357)" fill="#5A5A5A"/>
<rect width="4.17998" height="2.7211" transform="matrix(-1 0 0 1 8.3623 68.4143)" fill="#AFAFAF"/>
<rect width="4.17998" height="2.7211" transform="matrix(-1 0 0 1 363.638 73.8591)" fill="#5A5A5A"/>
<rect width="4.17998" height="2.7211" transform="matrix(-1 0 0 1 367.82 71.1357)" fill="#5A5A5A"/>
<rect width="4.17998" height="2.7211" transform="matrix(-1 0 0 1 363.638 71.1357)" fill="#AFAFAF"/>
<rect width="4.17998" height="2.7211" transform="matrix(-1 0 0 1 367.82 68.4143)" fill="#AFAFAF"/>
<rect width="4.17998" height="2.7211" transform="matrix(-1 0 0 1 12.531 73.8591)" fill="#5A5A5A"/>
<rect width="4.17998" height="2.7211" transform="matrix(-1 0 0 1 12.531 71.1357)" fill="#AFAFAF"/>
<rect width="346.938" height="2.7211" transform="matrix(-1 0 0 1 359.469 76.5798)" fill="#5A5A5A"/>
<rect width="346.938" height="2.7211" transform="matrix(-1 0 0 1 359.469 73.8591)" fill="#AFAFAF"/>
<rect x="363.638" y="20.7964" width="4.17998" height="2.7211" fill="black"/>
<rect width="4.17998" height="2.7211" transform="matrix(-1 0 0 1 8.3623 20.7964)" fill="black"/>
<rect x="359.469" y="76.5798" width="4.17998" height="2.7211" fill="black"/>
<rect width="4.17998" height="2.7211" transform="matrix(-1 0 0 1 12.531 76.5798)" fill="black"/>
<rect x="12.531" y="79.301" width="346.938" height="2.7211" fill="black"/>
<rect x="367.82" y="23.5178" width="4.17998" height="50.3403" fill="black"/>
<rect width="4.17998" height="50.3403" transform="matrix(-1 0 0 1 4.17993 23.5178)" fill="black"/>
<path fill-rule="evenodd" clip-rule="evenodd" d="M355.309 0.389404L16.731 0.389404V3.1105L355.309 3.1105V0.389404ZM16.7291 3.11093H12.5491V5.83203L16.7291 5.83203V3.11093ZM359.479 3.11093L355.299 3.11093V5.83203H359.479V3.11093ZM359.479 64.3356H355.299V67.0559L16.731 67.0559V69.777L355.309 69.777V67.0567H359.479V64.3356ZM359.481 5.831L363.661 5.831V64.3346H359.481V5.831ZM8.36694 5.831H12.5469L12.5469 64.3346H8.36694L8.36694 5.831ZM12.5491 64.3356H16.7291V67.0567H12.5491V64.3356Z" fill="black"/>
<path fill-rule="evenodd" clip-rule="evenodd" d="M355.288 3.10889L16.7098 3.10889V5.83012H12.5278L12.5278 62.9732L359.466 62.9732V5.83012H355.288V3.10889Z" fill="#A24AE8"/>
<rect x="12.531" y="5.83032" width="4.17998" height="2.7211" fill="#EECAFF"/>
<rect x="359.469" y="5.83032" width="2.7211" height="4.17998" transform="rotate(90 359.469 5.83032)" fill="#EECAFF"/>
<rect x="359.469" y="56.1719" width="4.17998" height="2.7211" transform="rotate(-180 359.469 56.1719)" fill="#EECAFF"/>
<rect x="12.531" y="56.1719" width="2.7211" height="4.17998" transform="rotate(-90 12.531 56.1719)" fill="#EECAFF"/>
<rect x="12.531" y="64.3337" width="8.1633" height="4.17997" transform="rotate(-90 12.531 64.3337)" fill="#6B00BE"/>
<rect x="16.7129" y="5.83032" width="4.17998" height="2.7211" fill="#8619DC"/>
<rect x="359.469" y="8.55078" width="2.7211" height="4.17998" transform="rotate(90 359.469 8.55078)" fill="#8619DC"/>
<rect x="355.287" y="56.1719" width="4.17998" height="2.7211" transform="rotate(-180 355.287 56.1719)" fill="#8619DC"/>
<rect x="12.531" y="53.4497" width="2.7211" height="4.17998" transform="rotate(-90 12.531 53.4497)" fill="#8619DC"/>
<rect x="12.531" y="8.55078" width="4.17998" height="2.7211" fill="#8619DC"/>
<rect x="355.287" y="5.83032" width="2.7211" height="4.17998" transform="rotate(90 355.287 5.83032)" fill="#8619DC"/>
<rect x="359.469" y="53.4497" width="4.17998" height="2.7211" transform="rotate(-180 359.469 53.4497)" fill="#8619DC"/>
<rect x="16.7129" y="56.1719" width="2.7211" height="4.17998" transform="rotate(-90 16.7129 56.1719)" fill="#8619DC"/>
<rect x="359.469" y="64.3337" width="4.17998" height="8.1633" transform="rotate(-180 359.469 64.3337)" fill="#6B00BE"/>
<rect x="355.287" y="67.0552" width="338.578" height="8.16328" transform="rotate(-180 355.287 67.0552)" fill="#6B00BE"/>
<rect x="16.7129" y="3.10913" width="338.578" height="2.7211" fill="#EECAFF"/>
<rect x="16.7129" y="56.1719" width="338.578" height="2.7211" fill="#EECAFF"/>
<rect x="33.4343" y="67.0552" width="8.1633" height="8.35995" transform="rotate(-90 33.4343 67.0552)" fill="#DC4FFF"/>
<rect width="8.1633" height="8.35995" transform="matrix(-2.0144e-07 -1 -1 8.53663e-08 330.201 67.0552)" fill="#DC4FFF"/>
<rect x="43.8762" y="67.0552" width="8.1633" height="6.26996" transform="rotate(-90 43.8762 67.0552)" fill="#DC4FFF"/>
<rect width="8.1633" height="6.26996" transform="matrix(-2.0144e-07 -1 -1 8.53663e-08 319.753 67.0552)" fill="#DC4FFF"/>
<rect x="52.2473" y="67.0552" width="8.1633" height="4.17997" transform="rotate(-90 52.2473 67.0552)" fill="#DC4FFF"/>
<rect width="8.1633" height="4.17997" transform="matrix(-2.0144e-07 -1 -1 8.53663e-08 311.402 67.0552)" fill="#DC4FFF"/>
<rect x="58.52" y="67.0552" width="8.1633" height="2.08999" transform="rotate(-90 58.52 67.0552)" fill="#DC4FFF"/>
<rect width="8.1633" height="2.08999" transform="matrix(-2.0144e-07 -1 -1 8.53663e-08 305.129 67.0552)" fill="#DC4FFF"/>
</svg>
