<svg width="36" height="37" viewBox="0 0 36 37" fill="none" xmlns="http://www.w3.org/2000/svg">
<rect x="9.11255" y="3.46747" width="17.34" height="27.744" fill="white"/>
<rect x="2.17725" y="5.20268" width="31.212" height="24.276" fill="white"/>
<rect x="3.90674" y="27.7434" width="1.734" height="3.468" transform="rotate(-180 3.90674 27.7434)" fill="#B5B5B5"/>
<rect x="5.64771" y="31.2124" width="1.734" height="3.468" transform="rotate(-180 5.64771 31.2124)" fill="#B5B5B5"/>
<rect x="7.3772" y="32.9462" width="1.734" height="3.468" transform="rotate(-180 7.3772 32.9462)" fill="#B5B5B5"/>
<rect x="28.1885" y="32.9462" width="1.734" height="3.468" transform="rotate(-180 28.1885 32.9462)" fill="#B5B5B5"/>
<rect x="29.9236" y="32.9462" width="1.734" height="3.468" transform="rotate(-180 29.9236 32.9462)" fill="#B5B5B5"/>
<rect x="31.6531" y="31.2124" width="1.734" height="3.468" transform="rotate(-180 31.6531 31.2124)" fill="#B5B5B5"/>
<rect x="33.3884" y="27.7434" width="1.734" height="3.468" transform="rotate(-180 33.3884 27.7434)" fill="#B5B5B5"/>
<rect x="9.11255" y="32.9462" width="1.734" height="3.468" transform="rotate(-180 9.11255 32.9462)" fill="#B5B5B5"/>
<rect x="26.4531" y="34.68" width="17.34" height="3.468" transform="rotate(-180 26.4531 34.68)" fill="#B5B5B5"/>
<rect x="9.11255" y="-0.00012207" width="17.34" height="1.734" fill="#393939"/>
<rect x="5.64771" y="1.73367" width="3.468" height="1.734" fill="#393939"/>
<rect width="3.468" height="1.734" transform="matrix(-1 0 0 1 29.9236 1.73367)" fill="#393939"/>
<rect x="2.17725" y="31.2124" width="3.468" height="1.734" transform="rotate(-90 2.17725 31.2124)" fill="#393939"/>
<rect width="3.468" height="1.734" transform="matrix(4.37114e-08 -1 -1 -4.37114e-08 33.3884 31.2124)" fill="#393939"/>
<rect x="3.90674" y="3.46747" width="1.734" height="1.734" fill="#393939"/>
<rect width="1.734" height="1.734" transform="matrix(-1 0 0 1 31.6531 3.46747)" fill="#393939"/>
<rect x="3.90674" y="32.9462" width="1.734" height="1.734" transform="rotate(-90 3.90674 32.9462)" fill="#393939"/>
<rect width="1.734" height="1.734" transform="matrix(4.37114e-08 -1 -1 -4.37114e-08 31.6531 32.9462)" fill="#393939"/>
<rect x="2.17725" y="5.20268" width="1.734" height="3.468" fill="#393939"/>
<rect width="1.734" height="3.468" transform="matrix(-1 0 0 1 33.3884 5.20268)" fill="#393939"/>
<rect x="5.64771" y="34.68" width="1.734" height="3.468" transform="rotate(-90 5.64771 34.68)" fill="#393939"/>
<rect width="1.734" height="3.468" transform="matrix(4.37114e-08 -1 -1 -4.37114e-08 29.9236 34.68)" fill="#393939"/>
<rect x="9.11255" y="34.68" width="17.34" height="1.734" fill="#393939"/>
<rect x="35.1235" y="8.67027" width="19.074" height="1.734" transform="rotate(90 35.1235 8.67027)" fill="#393939"/>
<rect x="2.17725" y="8.67027" width="19.074" height="1.734" transform="rotate(90 2.17725 8.67027)" fill="#393939"/>
<rect x="26.4531" y="1.73367" width="1.734" height="17.34" transform="rotate(90 26.4531 1.73367)" fill="#E8E8E8"/>
<rect x="9.11255" y="31.2124" width="1.734" height="17.34" transform="rotate(-90 9.11255 31.2124)" fill="#E8E8E8"/>
<rect x="9.11255" y="3.46747" width="1.734" height="3.468" transform="rotate(90 9.11255 3.46747)" fill="#E8E8E8"/>
<rect x="26.4531" y="29.4772" width="1.734" height="3.468" transform="rotate(-90 26.4531 29.4772)" fill="#E8E8E8"/>
<rect x="5.64771" y="5.20268" width="1.734" height="1.734" transform="rotate(90 5.64771 5.20268)" fill="#E8E8E8"/>
<rect x="29.9236" y="27.7434" width="1.734" height="1.734" transform="rotate(-90 29.9236 27.7434)" fill="#E8E8E8"/>
<rect x="3.90674" y="8.67027" width="1.734" height="1.734" transform="rotate(90 3.90674 8.67027)" fill="#E8E8E8"/>
<rect x="31.6531" y="24.2758" width="1.734" height="1.734" transform="rotate(-90 31.6531 24.2758)" fill="#E8E8E8"/>
<rect x="31.6531" y="5.20268" width="1.734" height="1.734" transform="rotate(90 31.6531 5.20268)" fill="#E8E8E8"/>
<rect x="3.90674" y="27.7434" width="1.734" height="1.734" transform="rotate(-90 3.90674 27.7434)" fill="#E8E8E8"/>
<rect x="33.3884" y="8.67027" width="1.734" height="1.734" transform="rotate(90 33.3884 8.67027)" fill="#E8E8E8"/>
<rect x="2.17725" y="24.2758" width="1.734" height="1.734" transform="rotate(-90 2.17725 24.2758)" fill="#E8E8E8"/>
<rect x="29.9236" y="3.46747" width="1.734" height="3.468" transform="rotate(90 29.9236 3.46747)" fill="#E8E8E8"/>
<rect x="5.64771" y="29.4772" width="1.734" height="3.468" transform="rotate(-90 5.64771 29.4772)" fill="#E8E8E8"/>
<path d="M25.4022 11.7251C25.4137 11.9033 25.4137 12.0815 25.4137 12.2596C25.4137 17.694 21.6591 23.9557 14.7968 23.9557C12.6826 23.9557 10.7187 23.2812 9.06665 22.1103C9.36703 22.1485 9.65582 22.1612 9.96776 22.1612C11.7122 22.1612 13.318 21.5122 14.6004 20.4049C12.9599 20.3667 11.5851 19.1831 11.1115 17.5541C11.3425 17.5922 11.5736 17.6177 11.8162 17.6177C12.1512 17.6177 12.4863 17.5667 12.7982 17.4777C11.0884 17.0959 9.80599 15.4414 9.80599 13.4432V13.3924C10.3027 13.6978 10.8804 13.8887 11.4927 13.9141C10.4876 13.176 9.82911 11.916 9.82911 10.4906C9.82911 9.72697 10.0139 9.02699 10.3374 8.41609C12.1743 10.9106 14.9354 12.5396 18.0315 12.7178C17.9738 12.4124 17.9391 12.0942 17.9391 11.776C17.9391 9.51061 19.6027 7.66522 21.6706 7.66522C22.745 7.66522 23.7154 8.16157 24.3971 8.96337C25.2404 8.7852 26.0491 8.44156 26.7654 7.97067C26.4881 8.92521 25.8989 9.72701 25.1249 10.2361C25.8758 10.147 26.6036 9.91787 27.2737 9.59973C26.7654 10.4142 26.13 11.1396 25.4022 11.7251Z" fill="#FF7C06"/>
</svg>
