<svg width="777" height="174" viewBox="0 0 777 174" fill="none" xmlns="http://www.w3.org/2000/svg">
<path fill-rule="evenodd" clip-rule="evenodd" d="M761.691 3.26253e-05V11.4827H769.345V24.8789H769.347V30.6211H777V157.888H767.432V162.673H761.691V171.285L15.3121 171.285L15.3121 161.716H7.65625V157.888H1.91406V155.975H0V127.268H0.957031V120.569H1.91406V32.5345H0V22.0086H3.82812V11.4825H15.3121L15.3121 0L761.691 3.26253e-05Z" fill="#FFEFDE"/>
<rect x="15.3086" width="746.379" height="3.82759" fill="#FF7C06"/>
<rect x="15.3086" y="169.371" width="746.379" height="3.82759" fill="#FF7C06"/>
<rect x="777" y="15.3105" width="142.578" height="3.82758" transform="rotate(90 777 15.3105)" fill="#FF7C06"/>
<rect x="3.82812" y="15.3105" width="142.578" height="3.82758" transform="rotate(90 3.82812 15.3105)" fill="#FF7C06"/>
<rect x="3.82812" y="11.4824" width="3.82759" height="3.82759" fill="#FF7C06"/>
<rect x="7.65625" y="7.65527" width="3.82759" height="3.82759" fill="#FF7C06"/>
<rect x="11.4844" y="3.82715" width="3.82759" height="3.82759" fill="#FF7C06"/>
<rect x="765.516" y="3.82715" width="3.82759" height="3.82759" transform="rotate(90 765.516 3.82715)" fill="#FF7C06"/>
<rect x="769.344" y="7.65527" width="3.82759" height="3.82759" transform="rotate(90 769.344 7.65527)" fill="#FF7C06"/>
<rect x="773.172" y="11.4824" width="3.82759" height="3.82759" transform="rotate(90 773.172 11.4824)" fill="#FF7C06"/>
<rect x="11.4844" y="169.371" width="3.82759" height="3.82759" transform="rotate(-90 11.4844 169.371)" fill="#FF7C06"/>
<rect x="7.65625" y="165.543" width="3.82759" height="3.82759" transform="rotate(-90 7.65625 165.543)" fill="#FF7C06"/>
<rect x="3.82812" y="161.716" width="3.82759" height="3.82759" transform="rotate(-90 3.82812 161.716)" fill="#FF7C06"/>
<rect x="3.82812" y="15.3105" width="3.82759" height="138.75" fill="#FFCE9C"/>
<rect x="7.65625" y="11.4824" width="3.82759" height="3.82759" fill="#FFCE9C"/>
<rect x="11.4844" y="7.65527" width="3.82759" height="3.82759" fill="#FFCE9C"/>
<rect x="7.65234" y="154.061" width="3.82759" height="3.82759" transform="rotate(90 7.65234 154.061)" fill="#FFCE9C"/>
<rect x="11.4805" y="157.889" width="3.82759" height="3.82759" transform="rotate(90 11.4805 157.889)" fill="#FFCE9C"/>
<rect x="15.3086" y="161.716" width="3.82759" height="3.82759" transform="rotate(90 15.3086 161.716)" fill="#FFCE9C"/>
<rect x="761.691" y="165.543" width="3.82759" height="3.82759" fill="#FF7C06"/>
<rect x="765.52" y="161.716" width="3.82759" height="3.82759" fill="#FF7C06"/>
<rect x="769.348" y="157.888" width="3.82759" height="3.82759" fill="#FF7C06"/>
<rect x="761.691" y="161.716" width="3.82759" height="3.82759" fill="#FFCE9C"/>
<rect x="765.52" y="157.888" width="3.82759" height="3.82759" fill="#FFCE9C"/>
<rect x="765.516" y="7.65527" width="3.82759" height="3.82759" transform="rotate(90 765.516 7.65527)" fill="#FFCE9C"/>
<rect x="769.344" y="11.4824" width="3.82759" height="3.82759" transform="rotate(90 769.344 11.4824)" fill="#FFCE9C"/>
<rect x="773.172" y="15.3105" width="3.82759" height="3.82759" transform="rotate(90 773.172 15.3105)" fill="#FFCE9C"/>
<rect x="773.172" y="19.1377" width="138.75" height="3.82759" transform="rotate(90 773.172 19.1377)" fill="#FFCE9C"/>
<rect x="15.3086" y="3.82715" width="746.379" height="3.82759" fill="#FFCE9C"/>
<rect x="15.3086" y="165.543" width="746.379" height="3.82759" fill="#FFCE9C"/>
</svg>
