<svg width="28" height="28" viewBox="0 0 28 28" fill="none" xmlns="http://www.w3.org/2000/svg">
<path fill-rule="evenodd" clip-rule="evenodd" d="M28.0005 24.0002L28.0005 8.00017L24.0013 8.00017L24.0013 4.0002L20.0013 4.0002L20.0013 8.0002L24.0006 8.0002L24.0006 24L18.0013 24L18.0013 28L24.0013 28L24.0013 24.0002L28.0005 24.0002ZM3.99981 4.0002L3.99981 10.0002L-0.000187357 10.0002L-0.000187095 4.0002L3.99981 4.0002ZM20.0006 -3.49688e-07L20.0006 4L4.00063 4L4.00063 -1.04907e-06L20.0006 -3.49688e-07ZM18.0008 10L18.0008 10L4.00076 10L4.00076 14L14.0008 14L14.0008 24L18.0008 24L18.0008 14L18.0008 10Z" fill="#FF7C06"/>
<path fill-rule="evenodd" clip-rule="evenodd" d="M24.0013 24.0002L24.0013 8.00016L20.0006 8.00016L20.0006 4.0002L4.00062 4.0002L4.00062 10.0002L18.0013 10.0002L18.0013 24.0002L24.0013 24.0002Z" fill="#FFF7D8"/>
<rect x="20.0006" y="10" width="14" height="2" transform="rotate(90 20.0006 10)" fill="#FFC088"/>
<rect x="18.0008" y="10" width="14" height="2" transform="rotate(-180 18.0008 10)" fill="#FFC088"/>
</svg>
