<svg width="68" height="66" viewBox="0 0 68 66" fill="none" xmlns="http://www.w3.org/2000/svg">
<g opacity="0.3">
<path d="M36.5619 7.90023L33.1525 5.26685L30.5192 8.67618L33.9285 11.3096L36.5619 7.90023Z" fill="#16171A"/>
<path d="M39.9713 10.5336L36.5619 7.90016L33.9285 11.3095L37.3379 13.9429L39.9713 10.5336Z" fill="#16171A"/>
<path d="M43.3806 13.1671L39.9712 10.5337L37.3378 13.943L40.7472 16.5764L43.3806 13.1671Z" fill="#16171A"/>
<path d="M46.79 15.8005L43.3807 13.1671L40.7473 16.5764L44.1566 19.2098L46.79 15.8005Z" fill="#16171A"/>
<path d="M50.1991 18.4338L46.7898 15.8004L44.1564 19.2097L47.5657 21.8431L50.1991 18.4338Z" fill="#16171A"/>
<path d="M53.6085 21.0671L50.1992 18.4337L47.5658 21.8431L50.9751 24.4764L53.6085 21.0671Z" fill="#16171A"/>
<path d="M57.0179 23.7006L53.6085 21.0672L50.9751 24.4766L54.3845 27.11L57.0179 23.7006Z" fill="#16171A"/>
<path d="M60.4272 26.3339L57.0179 23.7005L54.3845 27.1099L57.7938 29.7433L60.4272 26.3339Z" fill="#16171A"/>
<path d="M30.5192 8.67616L27.1099 6.04277L24.4765 9.45211L27.8858 12.0855L30.5192 8.67616Z" fill="#16171A"/>
<path d="M33.9285 11.3095L30.5192 8.67615L27.8858 12.0855L31.2951 14.7189L33.9285 11.3095Z" fill="#FF8426"/>
<path d="M37.3379 13.9429L33.9285 11.3095L31.2952 14.7189L34.7045 17.3523L37.3379 13.9429Z" fill="#D62411"/>
<path d="M40.7472 16.5763L37.3379 13.9429L34.7045 17.3523L38.1139 19.9857L40.7472 16.5763Z" fill="#D62411"/>
<path d="M44.1565 19.2096L40.7472 16.5762L38.1138 19.9856L41.5231 22.619L44.1565 19.2096Z" fill="#D62411"/>
<path d="M47.5659 21.8432L44.1565 19.2098L41.5232 22.6191L44.9325 25.2525L47.5659 21.8432Z" fill="#D62411"/>
<path d="M50.9751 24.4766L47.5657 21.8432L44.9323 25.2526L48.3417 27.8859L50.9751 24.4766Z" fill="#D62411"/>
<path d="M54.3844 27.1099L50.9751 24.4765L48.3417 27.8859L51.751 30.5193L54.3844 27.1099Z" fill="#FF8426"/>
<path d="M57.7939 29.7434L54.3846 27.11L51.7512 30.5193L55.1605 33.1527L57.7939 29.7434Z" fill="#FF8426"/>
<path d="M61.2032 32.3767L57.7939 29.7433L55.1605 33.1526L58.5698 35.786L61.2032 32.3767Z" fill="#16171A"/>
<path d="M24.4763 9.45215L21.067 6.81876L18.4336 10.2281L21.8429 12.8615L24.4763 9.45215Z" fill="#16171A"/>
<path d="M27.8857 12.0855L24.4764 9.45207L21.843 12.8614L25.2524 15.4948L27.8857 12.0855Z" fill="#FF8426"/>
<path d="M31.2952 14.7189L27.8859 12.0855L25.2525 15.4949L28.6619 18.1282L31.2952 14.7189Z" fill="#16171A"/>
<path d="M34.7044 17.3522L31.2951 14.7188L28.6617 18.1281L32.071 20.7615L34.7044 17.3522Z" fill="#D62411"/>
<path d="M38.1139 19.9856L34.7046 17.3522L32.0712 20.7616L35.4805 23.395L38.1139 19.9856Z" fill="#FF8426"/>
<path d="M41.5232 22.619L38.1138 19.9856L35.4804 23.395L38.8898 26.0284L41.5232 22.619Z" fill="#FF8426"/>
<path d="M44.9325 25.2523L41.5231 22.6189L38.8898 26.0283L42.2991 28.6617L44.9325 25.2523Z" fill="#FF8426"/>
<path d="M48.3419 27.8858L44.9325 25.2524L42.2991 28.6617L45.7085 31.2951L48.3419 27.8858Z" fill="#FF8426"/>
<path d="M51.751 30.5193L48.3417 27.8859L45.7083 31.2952L49.1177 33.9286L51.751 30.5193Z" fill="#FFD100"/>
<path d="M55.1604 33.1526L51.7511 30.5192L49.1177 33.9286L52.527 36.562L55.1604 33.1526Z" fill="#16171A"/>
<path d="M58.5698 35.7861L55.1604 33.1527L52.5271 36.562L55.9364 39.1954L58.5698 35.7861Z" fill="#FF8426"/>
<path d="M61.9791 38.4195L58.5698 35.7861L55.9364 39.1954L59.3457 41.8288L61.9791 38.4195Z" fill="#16171A"/>
<path d="M21.843 12.8614L18.4337 10.2281L15.8003 13.6374L19.2097 16.2708L21.843 12.8614Z" fill="#16171A"/>
<path d="M25.2524 15.4948L21.8431 12.8615L19.2097 16.2708L22.619 18.9042L25.2524 15.4948Z" fill="#FF8426"/>
<path d="M28.6617 18.1282L25.2524 15.4948L22.619 18.9042L26.0283 21.5376L28.6617 18.1282Z" fill="#16171A"/>
<path d="M32.0711 20.7616L28.6618 18.1282L26.0284 21.5376L29.4377 24.1709L32.0711 20.7616Z" fill="#D62411"/>
<path d="M35.4804 23.3951L32.0711 20.7617L29.4377 24.171L32.847 26.8044L35.4804 23.3951Z" fill="#FF8426"/>
<path d="M38.8898 26.0283L35.4805 23.3949L32.8471 26.8043L36.2564 29.4377L38.8898 26.0283Z" fill="#FF8426"/>
<path d="M42.2991 28.662L38.8898 26.0286L36.2564 29.4379L39.6657 32.0713L42.2991 28.662Z" fill="#FF8426"/>
<path d="M45.7084 31.2953L42.2991 28.6619L39.6657 32.0712L43.075 34.7046L45.7084 31.2953Z" fill="#FF8426"/>
<path d="M49.1178 33.9286L45.7085 31.2952L43.0751 34.7045L46.4844 37.3379L49.1178 33.9286Z" fill="#FFD100"/>
<path d="M52.5271 36.562L49.1178 33.9286L46.4844 37.3379L49.8938 39.9713L52.5271 36.562Z" fill="#16171A"/>
<path d="M55.9365 39.1954L52.5271 36.5621L49.8937 39.9714L53.3031 42.6048L55.9365 39.1954Z" fill="#FF8426"/>
<path d="M59.3458 41.8288L55.9365 39.1954L53.3031 42.6047L56.7125 45.2381L59.3458 41.8288Z" fill="#16171A"/>
<path d="M22.619 18.9042L19.2097 16.2708L16.5763 19.6802L19.9856 22.3136L22.619 18.9042Z" fill="#16171A"/>
<path d="M26.0284 21.5376L22.6191 18.9042L19.9857 22.3135L23.395 24.9469L26.0284 21.5376Z" fill="#FF8426"/>
<path d="M29.4376 24.1709L26.0283 21.5375L23.3949 24.9469L26.8042 27.5803L29.4376 24.1709Z" fill="#D62411"/>
<path d="M32.8472 26.8044L29.4378 24.1711L26.8044 27.5804L30.2138 30.2138L32.8472 26.8044Z" fill="#FF8426"/>
<path d="M36.2565 29.4377L32.8472 26.8043L30.2138 30.2136L33.6231 32.847L36.2565 29.4377Z" fill="#FF8426"/>
<path d="M39.6656 32.0713L36.2563 29.4379L33.6229 32.8473L37.0323 35.4807L39.6656 32.0713Z" fill="#FF8426"/>
<path d="M43.075 34.7047L39.6657 32.0713L37.0323 35.4806L40.4416 38.114L43.075 34.7047Z" fill="#FF8426"/>
<path d="M46.4844 37.338L43.0751 34.7046L40.4417 38.1139L43.851 40.7473L46.4844 37.338Z" fill="#FFD100"/>
<path d="M49.8938 39.9714L46.4844 37.338L43.851 40.7473L47.2604 43.3807L49.8938 39.9714Z" fill="#FF8426"/>
<path d="M53.3031 42.6047L49.8938 39.9713L47.2604 43.3806L50.6698 46.014L53.3031 42.6047Z" fill="#16171A"/>
<path d="M23.395 24.9469L19.9856 22.3135L17.3522 25.7229L20.7616 28.3562L23.395 24.9469Z" fill="#16171A"/>
<path d="M26.8043 27.5802L23.395 24.9468L20.7616 28.3562L24.1709 30.9896L26.8043 27.5802Z" fill="#16171A"/>
<path d="M30.2138 30.2137L26.8044 27.5804L24.171 30.9897L27.5804 33.6231L30.2138 30.2137Z" fill="#FFD100"/>
<path d="M33.623 32.8472L30.2137 30.2138L27.5803 33.6231L30.9896 36.2565L33.623 32.8472Z" fill="#FFD100"/>
<path d="M37.0323 35.4805L33.623 32.8471L30.9896 36.2564L34.3989 38.8898L37.0323 35.4805Z" fill="#FFD100"/>
<path d="M40.4417 38.114L37.0324 35.4806L34.399 38.8899L37.8083 41.5233L40.4417 38.114Z" fill="#FFD100"/>
<path d="M43.8509 40.7474L40.4415 38.114L37.8082 41.5233L41.2175 44.1567L43.8509 40.7474Z" fill="#16171A"/>
<path d="M47.2603 43.3807L43.8509 40.7473L41.2175 44.1566L44.6269 46.79L47.2603 43.3807Z" fill="#16171A"/>
<path d="M24.1709 30.9897L20.7616 28.3563L18.1282 31.7657L21.5376 34.3991L24.1709 30.9897Z" fill="#16171A"/>
<path d="M27.5803 33.6231L24.171 30.9897L21.5376 34.399L24.9469 37.0324L27.5803 33.6231Z" fill="#16171A"/>
<path d="M30.9896 36.2564L27.5803 33.623L24.9469 37.0323L28.3562 39.6657L30.9896 36.2564Z" fill="#FFD100"/>
<path d="M34.399 38.8898L30.9897 36.2564L28.3563 39.6658L31.7656 42.2992L34.399 38.8898Z" fill="#FFD100"/>
<path d="M37.8082 41.5233L34.3988 38.8899L31.7655 42.2992L35.1748 44.9326L37.8082 41.5233Z" fill="#16171A"/>
<path d="M18.1281 31.7656L14.7187 29.1322L12.0853 32.5415L15.4947 35.1749L18.1281 31.7656Z" fill="#16171A"/>
<path d="M21.5374 34.399L18.1281 31.7656L15.4947 35.1749L18.904 37.8083L21.5374 34.399Z" fill="#D62411"/>
<path d="M24.9469 37.0324L21.5376 34.399L18.9042 37.8083L22.3135 40.4417L24.9469 37.0324Z" fill="#D62411"/>
<path d="M28.3562 39.6658L24.9469 37.0324L22.3135 40.4417L25.7229 43.0751L28.3562 39.6658Z" fill="#D62411"/>
<path d="M31.7656 42.2991L28.3562 39.6657L25.7228 43.075L29.1322 45.7084L31.7656 42.2991Z" fill="#D62411"/>
<path d="M35.1749 44.9326L31.7656 42.2992L29.1322 45.7085L32.5415 48.3419L35.1749 44.9326Z" fill="#D62411"/>
<path d="M38.5842 47.566L35.1749 44.9326L32.5415 48.3419L35.9509 50.9753L38.5842 47.566Z" fill="#FF8426"/>
<path d="M41.9936 50.1992L38.5843 47.5658L35.9509 50.9752L39.3602 53.6086L41.9936 50.1992Z" fill="#16171A"/>
<path d="M15.4947 35.175L12.0854 32.5416L9.45201 35.9509L12.8613 38.5843L15.4947 35.175Z" fill="#16171A"/>
<path d="M18.9041 37.8083L15.4948 35.1749L12.8614 38.5842L16.2707 41.2176L18.9041 37.8083Z" fill="#FF8426"/>
<path d="M22.3134 40.4417L18.9041 37.8083L16.2707 41.2176L19.68 43.851L22.3134 40.4417Z" fill="#FFD100"/>
<path d="M25.7229 43.0751L22.3135 40.4417L19.6801 43.8511L23.0895 46.4845L25.7229 43.0751Z" fill="#FFD100"/>
<path d="M29.1322 45.7084L25.7229 43.0751L23.0895 46.4844L26.4988 49.1178L29.1322 45.7084Z" fill="#FFD100"/>
<path d="M32.5414 48.342L29.1321 45.7086L26.4987 49.1179L29.908 51.7513L32.5414 48.342Z" fill="#FFD100"/>
<path d="M35.9508 50.9753L32.5415 48.342L29.9081 51.7513L33.3174 54.3847L35.9508 50.9753Z" fill="#FFD100"/>
<path d="M39.3601 53.6086L35.9508 50.9752L33.3174 54.3845L36.7267 57.0179L39.3601 53.6086Z" fill="#16171A"/>
<path d="M16.2707 41.2177L12.8613 38.5843L10.2279 41.9936L13.6373 44.627L16.2707 41.2177Z" fill="#16171A"/>
<path d="M19.6802 43.851L16.2708 41.2176L13.6374 44.6269L17.0468 47.2603L19.6802 43.851Z" fill="#16171A"/>
<path d="M23.0894 46.4844L19.6801 43.851L17.0467 47.2604L20.456 49.8938L23.0894 46.4844Z" fill="#16171A"/>
<path d="M26.4988 49.1178L23.0895 46.4844L20.4561 49.8938L23.8655 52.5272L26.4988 49.1178Z" fill="#16171A"/>
<path d="M29.9082 51.7511L26.4989 49.1178L23.8655 52.5271L27.2748 55.1605L29.9082 51.7511Z" fill="#16171A"/>
<path d="M33.3174 54.3847L29.9081 51.7513L27.2747 55.1606L30.684 57.794L33.3174 54.3847Z" fill="#16171A"/>
</g>
</svg>
