<svg width="65" height="61" viewBox="0 0 65 61" fill="none" xmlns="http://www.w3.org/2000/svg">
<g opacity="0.3">
<path d="M11.7738 15.6585L7.84924 17.3983L9.58907 21.3229L13.5137 19.5831L11.7738 15.6585Z" fill="#16171A"/>
<path d="M15.6984 13.9187L11.7738 15.6585L13.5136 19.5831L17.4382 17.8433L15.6984 13.9187Z" fill="#16171A"/>
<path d="M19.623 12.1789L15.6984 13.9187L17.4382 17.8433L21.3628 16.1035L19.623 12.1789Z" fill="#16171A"/>
<path d="M23.5476 10.439L19.623 12.1789L21.3629 16.1035L25.2875 14.3636L23.5476 10.439Z" fill="#16171A"/>
<path d="M27.4722 8.69912L23.5476 10.4389L25.2875 14.3636L29.2121 12.6237L27.4722 8.69912Z" fill="#16171A"/>
<path d="M31.3968 6.9593L27.4722 8.69913L29.212 12.6237L33.1366 10.8839L31.3968 6.9593Z" fill="#16171A"/>
<path d="M35.3215 5.21948L31.3969 6.9593L33.1367 10.8839L37.0613 9.14408L35.3215 5.21948Z" fill="#16171A"/>
<path d="M39.246 3.47967L35.3214 5.2195L37.0613 9.1441L40.9859 7.40427L39.246 3.47967Z" fill="#16171A"/>
<path d="M5.66442 23.0627L1.73982 24.8026L3.47965 28.7272L7.40425 26.9873L5.66442 23.0627Z" fill="#FAFDFF"/>
<path d="M9.589 21.3229L5.6644 23.0627L7.40423 26.9873L11.3288 25.2475L9.589 21.3229Z" fill="#16171A"/>
<path d="M13.5137 19.5831L9.58907 21.3229L11.3289 25.2475L15.2535 23.5077L13.5137 19.5831Z" fill="#FFD100"/>
<path d="M17.4382 17.8433L13.5136 19.5831L15.2535 23.5077L19.1781 21.7679L17.4382 17.8433Z" fill="#FAFDFF"/>
<path d="M21.3628 16.1034L17.4382 17.8433L19.178 21.7679L23.1026 20.028L21.3628 16.1034Z" fill="#FAFDFF"/>
<path d="M25.2875 14.3636L21.3629 16.1034L23.1027 20.028L27.0273 18.2882L25.2875 14.3636Z" fill="#FAFDFF"/>
<path d="M29.212 12.6238L25.2874 14.3636L27.0273 18.2882L30.9519 16.5484L29.212 12.6238Z" fill="#FAFDFF"/>
<path d="M33.1366 10.884L29.212 12.6238L30.9519 16.5484L34.8765 14.8086L33.1366 10.884Z" fill="#FAFDFF"/>
<path d="M37.0613 9.14414L33.1367 10.884L34.8765 14.8086L38.8011 13.0687L37.0613 9.14414Z" fill="#FFD100"/>
<path d="M40.9858 7.40432L37.0612 9.14415L38.8011 13.0688L42.7257 11.3289L40.9858 7.40432Z" fill="#FFD100"/>
<path d="M44.9104 5.66441L40.9858 7.40424L42.7257 11.3288L46.6503 9.58901L44.9104 5.66441Z" fill="#16171A"/>
<path d="M7.40425 26.9874L3.47964 28.7272L5.21947 32.6518L9.14408 30.912L7.40425 26.9874Z" fill="#16171A"/>
<path d="M11.3288 25.2476L7.40422 26.9874L9.14405 30.912L13.0687 29.1722L11.3288 25.2476Z" fill="#FFD100"/>
<path d="M15.2535 23.5077L11.3289 25.2475L13.0687 29.1721L16.9933 27.4323L15.2535 23.5077Z" fill="#16171A"/>
<path d="M19.1781 21.7678L15.2535 23.5077L16.9933 27.4323L20.9179 25.6924L19.1781 21.7678Z" fill="#FAFDFF"/>
<path d="M23.1026 20.028L19.178 21.7678L20.9179 25.6924L24.8425 23.9526L23.1026 20.028Z" fill="#FFD100"/>
<path d="M27.0273 18.2882L23.1027 20.028L24.8425 23.9526L28.7671 22.2128L27.0273 18.2882Z" fill="#FFD100"/>
<path d="M30.9519 16.5484L27.0273 18.2882L28.7671 22.2128L32.6917 20.473L30.9519 16.5484Z" fill="#FFD100"/>
<path d="M34.8764 14.8085L30.9518 16.5484L32.6917 20.473L36.6163 18.7331L34.8764 14.8085Z" fill="#FFD100"/>
<path d="M38.8011 13.0687L34.8765 14.8085L36.6163 18.7331L40.5409 16.9933L38.8011 13.0687Z" fill="#FF8426"/>
<path d="M42.7257 11.3289L38.8011 13.0687L40.5409 16.9933L44.4655 15.2535L42.7257 11.3289Z" fill="#16171A"/>
<path d="M46.6502 9.58907L42.7256 11.3289L44.4655 15.2535L48.3901 13.5137L46.6502 9.58907Z" fill="#FFD100"/>
<path d="M50.5749 7.84925L46.6503 9.58908L48.3901 13.5137L52.3147 11.7739L50.5749 7.84925Z" fill="#16171A"/>
<path d="M9.14407 30.9119L5.21947 32.6518L6.9593 36.5764L10.8839 34.8366L9.14407 30.9119Z" fill="#16171A"/>
<path d="M13.0687 29.1721L9.14413 30.912L10.884 34.8366L14.8086 33.0967L13.0687 29.1721Z" fill="#FFD100"/>
<path d="M16.9933 27.4323L13.0687 29.1721L14.8085 33.0967L18.7331 31.3569L16.9933 27.4323Z" fill="#16171A"/>
<path d="M20.9179 25.6925L16.9933 27.4323L18.7331 31.3569L22.6577 29.6171L20.9179 25.6925Z" fill="#FAFDFF"/>
<path d="M24.8425 23.9527L20.9179 25.6925L22.6578 29.6171L26.5824 27.8773L24.8425 23.9527Z" fill="#FFD100"/>
<path d="M28.7671 22.2128L24.8425 23.9527L26.5823 27.8773L30.5069 26.1374L28.7671 22.2128Z" fill="#FFD100"/>
<path d="M32.6917 20.4729L28.7671 22.2128L30.5069 26.1374L34.4315 24.3975L32.6917 20.4729Z" fill="#FFD100"/>
<path d="M36.6163 18.7331L32.6917 20.4729L34.4315 24.3975L38.3561 22.6577L36.6163 18.7331Z" fill="#FFD100"/>
<path d="M40.5409 16.9933L36.6163 18.7331L38.3561 22.6577L42.2807 20.9179L40.5409 16.9933Z" fill="#FF8426"/>
<path d="M44.4655 15.2535L40.5409 16.9933L42.2807 20.9179L46.2053 19.1781L44.4655 15.2535Z" fill="#16171A"/>
<path d="M48.3901 13.5136L44.4655 15.2535L46.2053 19.1781L50.1299 17.4383L48.3901 13.5136Z" fill="#FFD100"/>
<path d="M52.3147 11.7738L48.3901 13.5137L50.13 17.4383L54.0546 15.6984L52.3147 11.7738Z" fill="#16171A"/>
<path d="M14.8086 33.0967L10.884 34.8365L12.6238 38.7611L16.5484 37.0213L14.8086 33.0967Z" fill="#16171A"/>
<path d="M18.7331 31.3569L14.8085 33.0967L16.5484 37.0213L20.473 35.2815L18.7331 31.3569Z" fill="#FFD100"/>
<path d="M22.6577 29.6171L18.7331 31.3569L20.4729 35.2815L24.3975 33.5417L22.6577 29.6171Z" fill="#FAFDFF"/>
<path d="M26.5824 27.8772L22.6578 29.6171L24.3976 33.5417L28.3222 31.8018L26.5824 27.8772Z" fill="#FFD100"/>
<path d="M30.5069 26.1374L26.5823 27.8772L28.3222 31.8018L32.2468 30.062L30.5069 26.1374Z" fill="#FFD100"/>
<path d="M34.4315 24.3976L30.5069 26.1374L32.2467 30.062L36.1713 28.3222L34.4315 24.3976Z" fill="#FFD100"/>
<path d="M38.3562 22.6578L34.4316 24.3976L36.1714 28.3222L40.096 26.5824L38.3562 22.6578Z" fill="#FFD100"/>
<path d="M42.2807 20.9179L38.3561 22.6578L40.096 26.5824L44.0206 24.8425L42.2807 20.9179Z" fill="#FF8426"/>
<path d="M46.2053 19.178L42.2807 20.9179L44.0205 24.8425L47.9451 23.1026L46.2053 19.178Z" fill="#FFD100"/>
<path d="M50.13 17.4382L46.2054 19.1781L47.9452 23.1027L51.8698 21.3628L50.13 17.4382Z" fill="#16171A"/>
<path d="M20.473 35.2815L16.5484 37.0213L18.2882 40.9459L22.2128 39.2061L20.473 35.2815Z" fill="#16171A"/>
<path d="M24.3975 33.5416L20.4729 35.2815L22.2128 39.2061L26.1374 37.4662L24.3975 33.5416Z" fill="#16171A"/>
<path d="M28.3222 31.8018L24.3976 33.5416L26.1374 37.4662L30.062 35.7264L28.3222 31.8018Z" fill="#FF8426"/>
<path d="M32.2468 30.062L28.3222 31.8018L30.062 35.7264L33.9866 33.9866L32.2468 30.062Z" fill="#FF8426"/>
<path d="M36.1713 28.3222L32.2467 30.062L33.9866 33.9866L37.9112 32.2468L36.1713 28.3222Z" fill="#FF8426"/>
<path d="M40.096 26.5823L36.1714 28.3222L37.9112 32.2468L41.8358 30.5069L40.096 26.5823Z" fill="#FF8426"/>
<path d="M44.0206 24.8425L40.096 26.5824L41.8358 30.507L45.7604 28.7671L44.0206 24.8425Z" fill="#16171A"/>
<path d="M47.9451 23.1027L44.0205 24.8425L45.7604 28.7671L49.685 27.0273L47.9451 23.1027Z" fill="#16171A"/>
<path d="M26.1374 37.4663L22.2128 39.2061L23.9526 43.1307L27.8772 41.3909L26.1374 37.4663Z" fill="#16171A"/>
<path d="M30.062 35.7265L26.1374 37.4663L27.8772 41.3909L31.8018 39.6511L30.062 35.7265Z" fill="#16171A"/>
<path d="M33.9866 33.9866L30.062 35.7264L31.8018 39.651L35.7264 37.9112L33.9866 33.9866Z" fill="#FF8426"/>
<path d="M37.9112 32.2467L33.9866 33.9866L35.7264 37.9112L39.651 36.1713L37.9112 32.2467Z" fill="#FF8426"/>
<path d="M41.8358 30.5069L37.9112 32.2467L39.651 36.1714L43.5756 34.4315L41.8358 30.5069Z" fill="#16171A"/>
<path d="M23.9526 43.1307L20.028 44.8705L21.7678 48.7951L25.6924 47.0553L23.9526 43.1307Z" fill="#16171A"/>
<path d="M27.8773 41.3909L23.9527 43.1307L25.6925 47.0553L29.6171 45.3155L27.8773 41.3909Z" fill="#FAFDFF"/>
<path d="M31.8018 39.651L27.8772 41.3909L29.6171 45.3155L33.5417 43.5756L31.8018 39.651Z" fill="#FAFDFF"/>
<path d="M35.7264 37.9112L31.8018 39.651L33.5416 43.5756L37.4662 41.8358L35.7264 37.9112Z" fill="#FAFDFF"/>
<path d="M39.6511 36.1714L35.7265 37.9112L37.4663 41.8358L41.3909 40.096L39.6511 36.1714Z" fill="#FAFDFF"/>
<path d="M43.5756 34.4316L39.651 36.1714L41.3909 40.096L45.3155 38.3562L43.5756 34.4316Z" fill="#FAFDFF"/>
<path d="M47.5002 32.6917L43.5756 34.4316L45.3154 38.3562L49.24 36.6164L47.5002 32.6917Z" fill="#FFD100"/>
<path d="M51.4248 30.9519L47.5002 32.6917L49.24 36.6163L53.1646 34.8765L51.4248 30.9519Z" fill="#16171A"/>
<path d="M25.6924 47.0553L21.7678 48.7951L23.5077 52.7197L27.4323 50.9799L25.6924 47.0553Z" fill="#16171A"/>
<path d="M29.6171 45.3154L25.6925 47.0553L27.4323 50.9799L31.3569 49.24L29.6171 45.3154Z" fill="#FFD100"/>
<path d="M33.5417 43.5756L29.6171 45.3154L31.3569 49.24L35.2815 47.5002L33.5417 43.5756Z" fill="#FF8426"/>
<path d="M37.4662 41.8358L33.5416 43.5756L35.2815 47.5002L39.2061 45.7604L37.4662 41.8358Z" fill="#FF8426"/>
<path d="M41.3909 40.096L37.4663 41.8358L39.2061 45.7604L43.1307 44.0206L41.3909 40.096Z" fill="#FF8426"/>
<path d="M45.3155 38.3561L41.3909 40.096L43.1307 44.0206L47.0553 42.2807L45.3155 38.3561Z" fill="#FF8426"/>
<path d="M49.24 36.6163L45.3154 38.3562L47.0553 42.2808L50.9799 40.5409L49.24 36.6163Z" fill="#FF8426"/>
<path d="M53.1647 34.8765L49.2401 36.6163L50.9799 40.5409L54.9045 38.8011L53.1647 34.8765Z" fill="#16171A"/>
<path d="M31.3569 49.2401L27.4323 50.9799L29.1721 54.9045L33.0967 53.1647L31.3569 49.2401Z" fill="#16171A"/>
<path d="M35.2815 47.5003L31.3569 49.2401L33.0967 53.1647L37.0213 51.4249L35.2815 47.5003Z" fill="#16171A"/>
<path d="M39.206 45.7604L35.2814 47.5002L37.0213 51.4248L40.9459 49.685L39.206 45.7604Z" fill="#16171A"/>
<path d="M43.1307 44.0205L39.2061 45.7604L40.9459 49.685L44.8705 47.9451L43.1307 44.0205Z" fill="#16171A"/>
<path d="M47.0553 42.2807L43.1307 44.0206L44.8705 47.9452L48.7951 46.2053L47.0553 42.2807Z" fill="#16171A"/>
<path d="M50.9799 40.5409L47.0553 42.2807L48.7951 46.2053L52.7197 44.4655L50.9799 40.5409Z" fill="#16171A"/>
</g>
</svg>
