<svg width="27" height="27" viewBox="0 0 27 27" fill="none" xmlns="http://www.w3.org/2000/svg">
<path d="M11.4 0L9.77142 0V1.62857H11.4V0Z" fill="#16171A"/>
<path d="M13.0286 0L11.4 0V1.62857H13.0286V0Z" fill="#16171A"/>
<path d="M14.6571 0L13.0286 0V1.62857H14.6571V0Z" fill="#16171A"/>
<path d="M16.2857 0L14.6571 0V1.62857H16.2857V0Z" fill="#16171A"/>
<path d="M8.14285 1.62857H6.51428V3.25714H8.14285V1.62857Z" fill="#16171A"/>
<path d="M9.77142 1.62857H8.14285V3.25714H9.77142V1.62857Z" fill="#16171A"/>
<path d="M11.4 1.62857H9.77142V3.25714H11.4V1.62857Z" fill="#FAFDFF"/>
<path d="M13.0286 1.62857H11.4V3.25714H13.0286V1.62857Z" fill="#FAFDFF"/>
<path d="M14.6571 1.62857H13.0286V3.25714H14.6571V1.62857Z" fill="#FAFDFF"/>
<path d="M16.2857 1.62857H14.6571V3.25714H16.2857V1.62857Z" fill="#FAFDFF"/>
<path d="M17.9143 1.62857H16.2857V3.25714H17.9143V1.62857Z" fill="#16171A"/>
<path d="M19.5429 1.62857H17.9143V3.25714H19.5429V1.62857Z" fill="#16171A"/>
<path d="M6.51428 3.25714H4.88571V4.88571H6.51428V3.25714Z" fill="#16171A"/>
<path d="M8.14285 3.25714H6.51428V4.88571H8.14285V3.25714Z" fill="#FAFDFF"/>
<path d="M9.77142 3.25714H8.14285V4.88571H9.77142V3.25714Z" fill="#FAFDFF"/>
<path d="M11.4 3.25714H9.77142V4.88571H11.4V3.25714Z" fill="#00DFC4"/>
<path d="M13.0286 3.25714H11.4V4.88571H13.0286V3.25714Z" fill="#00DFC4"/>
<path d="M14.6571 3.25714H13.0286V4.88571H14.6571V3.25714Z" fill="#00DFC4"/>
<path d="M16.2857 3.25714H14.6571V4.88571H16.2857V3.25714Z" fill="#00DFC4"/>
<path d="M17.9143 3.25714H16.2857V4.88571H17.9143V3.25714Z" fill="#FAFDFF"/>
<path d="M19.5429 3.25714H17.9143V4.88571H19.5429V3.25714Z" fill="#FAFDFF"/>
<path d="M21.1714 3.25714H19.5429V4.88571H21.1714V3.25714Z" fill="#16171A"/>
<path d="M4.88571 4.88571H3.25714V6.51428H4.88571V4.88571Z" fill="#16171A"/>
<path d="M6.51428 4.88571H4.88571V6.51428H6.51428V4.88571Z" fill="#FAFDFF"/>
<path d="M8.14285 4.88571H6.51428V6.51428H8.14285V4.88571Z" fill="#16171A"/>
<path d="M9.77142 4.88571H8.14285V6.51428H9.77142V4.88571Z" fill="#16171A"/>
<path d="M11.4 4.88571H9.77142V6.51428H11.4V4.88571Z" fill="#16171A"/>
<path d="M13.0286 4.88571H11.4V6.51428H13.0286V4.88571Z" fill="#16171A"/>
<path d="M14.6571 4.88571H13.0286V6.51428H14.6571V4.88571Z" fill="#16171A"/>
<path d="M16.2857 4.88571H14.6571V6.51428H16.2857V4.88571Z" fill="#16171A"/>
<path d="M17.9143 4.88571H16.2857V6.51428H17.9143V4.88571Z" fill="#16171A"/>
<path d="M19.5429 4.88571H17.9143V6.51428H19.5429V4.88571Z" fill="#16171A"/>
<path d="M21.1714 4.88571H19.5429V6.51428H21.1714V4.88571Z" fill="#FAFDFF"/>
<path d="M22.8 4.88571H21.1714V6.51428H22.8V4.88571Z" fill="#16171A"/>
<path d="M3.25714 6.51428H1.62857V8.14285H3.25714V6.51428Z" fill="#16171A"/>
<path d="M4.88571 6.51428H3.25714V8.14285H4.88571V6.51428Z" fill="#FAFDFF"/>
<path d="M6.51428 6.51428H4.88571V8.14285H6.51428V6.51428Z" fill="#16171A"/>
<path d="M8.14285 6.51428H6.51428V8.14285H8.14285V6.51428Z" fill="#68AED4"/>
<path d="M9.77142 6.51428H8.14285V8.14285H9.77142V6.51428Z" fill="#16171A"/>
<path d="M11.4 6.51428H9.77142V8.14285H11.4V6.51428Z" fill="#68AED4"/>
<path d="M13.0286 6.51428H11.4V8.14285H13.0286V6.51428Z" fill="#16171A"/>
<path d="M14.6571 6.51428H13.0286V8.14285H14.6571V6.51428Z" fill="#68AED4"/>
<path d="M16.2857 6.51428H14.6571V8.14285H16.2857V6.51428Z" fill="#16171A"/>
<path d="M17.9143 6.51428H16.2857V8.14285H17.9143V6.51428Z" fill="#68AED4"/>
<path d="M19.5429 6.51428H17.9143V8.14285H19.5429V6.51428Z" fill="#16171A"/>
<path d="M21.1714 6.51428H19.5429V8.14285H21.1714V6.51428Z" fill="#16171A"/>
<path d="M22.8 6.51428H21.1714V8.14285H22.8V6.51428Z" fill="#00A2AD"/>
<path d="M24.4286 6.51428H22.8V8.14285H24.4286V6.51428Z" fill="#16171A"/>
<path d="M3.25714 8.14285H1.62857V9.77142H3.25714V8.14285Z" fill="#16171A"/>
<path d="M4.88571 8.14285H3.25714V9.77142H4.88571V8.14285Z" fill="#FAFDFF"/>
<path d="M6.51428 8.14285H4.88571V9.77142H6.51428V8.14285Z" fill="#16171A"/>
<path d="M8.14285 8.14285H6.51428V9.77142H8.14285V8.14285Z" fill="#FF8426"/>
<path d="M9.77142 8.14285H8.14285V9.77142H9.77142V8.14285Z" fill="#FF8426"/>
<path d="M11.4 8.14285H9.77142V9.77142H11.4V8.14285Z" fill="#FF8426"/>
<path d="M13.0286 8.14285H11.4V9.77142H13.0286V8.14285Z" fill="#FF8426"/>
<path d="M14.6571 8.14285H13.0286V9.77142H14.6571V8.14285Z" fill="#FF8426"/>
<path d="M16.2857 8.14285H14.6571V9.77142H16.2857V8.14285Z" fill="#FF8426"/>
<path d="M17.9143 8.14285H16.2857V9.77142H17.9143V8.14285Z" fill="#FF8426"/>
<path d="M19.5429 8.14285H17.9143V9.77142H19.5429V8.14285Z" fill="#D62411"/>
<path d="M21.1714 8.14285H19.5429V9.77142H21.1714V8.14285Z" fill="#16171A"/>
<path d="M22.8 8.14285H21.1714V9.77142H22.8V8.14285Z" fill="#00A2AD"/>
<path d="M24.4286 8.14285H22.8V9.77142H24.4286V8.14285Z" fill="#16171A"/>
<path d="M1.62857 9.77143H0L0 11.4H1.62857V9.77143Z" fill="#16171A"/>
<path d="M3.25714 9.77143H1.62857V11.4H3.25714V9.77143Z" fill="#FAFDFF"/>
<path d="M4.88571 9.77143H3.25714V11.4H4.88571V9.77143Z" fill="#00DFC4"/>
<path d="M6.51428 9.77143H4.88571V11.4H6.51428V9.77143Z" fill="#16171A"/>
<path d="M8.14285 9.77143H6.51428V11.4H8.14285V9.77143Z" fill="#FF8426"/>
<path d="M9.77142 9.77143H8.14285V11.4H9.77142V9.77143Z" fill="#D62411"/>
<path d="M11.4 9.77143H9.77142V11.4H11.4V9.77143Z" fill="#D62411"/>
<path d="M13.0286 9.77143H11.4V11.4H13.0286V9.77143Z" fill="#D62411"/>
<path d="M14.6571 9.77143H13.0286V11.4H14.6571V9.77143Z" fill="#D62411"/>
<path d="M16.2857 9.77143H14.6571V11.4H16.2857V9.77143Z" fill="#D62411"/>
<path d="M17.9143 9.77143H16.2857V11.4H17.9143V9.77143Z" fill="#D62411"/>
<path d="M19.5429 9.77143H17.9143V11.4H19.5429V9.77143Z" fill="#7F0622"/>
<path d="M21.1714 9.77143H19.5429V11.4H21.1714V9.77143Z" fill="#16171A"/>
<path d="M22.8 9.77143H21.1714V11.4H22.8V9.77143Z" fill="#00DFC4"/>
<path d="M24.4286 9.77143H22.8V11.4H24.4286V9.77143Z" fill="#00A2AD"/>
<path d="M26.0571 9.77143H24.4286V11.4H26.0571V9.77143Z" fill="#16171A"/>
<path d="M1.62857 11.4H0L0 13.0286H1.62857V11.4Z" fill="#16171A"/>
<path d="M3.25714 11.4H1.62857V13.0286H3.25714V11.4Z" fill="#FAFDFF"/>
<path d="M4.88571 11.4H3.25714V13.0286H4.88571V11.4Z" fill="#00DFC4"/>
<path d="M6.51428 11.4H4.88571V13.0286H6.51428V11.4Z" fill="#16171A"/>
<path d="M8.14285 11.4H6.51428V13.0286H8.14285V11.4Z" fill="#FAFDFF"/>
<path d="M9.77142 11.4H8.14285V13.0286H9.77142V11.4Z" fill="#FAFDFF"/>
<path d="M11.4 11.4H9.77142V13.0286H11.4V11.4Z" fill="#002859"/>
<path d="M13.0286 11.4H11.4V13.0286H13.0286V11.4Z" fill="#FAFDFF"/>
<path d="M14.6571 11.4H13.0286V13.0286H14.6571V11.4Z" fill="#FAFDFF"/>
<path d="M16.2857 11.4H14.6571V13.0286H16.2857V11.4Z" fill="#002859"/>
<path d="M17.9143 11.4H16.2857V13.0286H17.9143V11.4Z" fill="#FAFDFF"/>
<path d="M19.5429 11.4H17.9143V13.0286H19.5429V11.4Z" fill="#68AED4"/>
<path d="M21.1714 11.4H19.5429V13.0286H21.1714V11.4Z" fill="#16171A"/>
<path d="M22.8 11.4H21.1714V13.0286H22.8V11.4Z" fill="#00DFC4"/>
<path d="M24.4286 11.4H22.8V13.0286H24.4286V11.4Z" fill="#00A2AD"/>
<path d="M26.0571 11.4H24.4286V13.0286H26.0571V11.4Z" fill="#16171A"/>
<path d="M1.62857 13.0286H0L0 14.6571H1.62857V13.0286Z" fill="#16171A"/>
<path d="M3.25714 13.0286H1.62857V14.6571H3.25714V13.0286Z" fill="#FAFDFF"/>
<path d="M4.88571 13.0286H3.25714V14.6571H4.88571V13.0286Z" fill="#00DFC4"/>
<path d="M6.51428 13.0286H4.88571V14.6571H6.51428V13.0286Z" fill="#16171A"/>
<path d="M8.14285 13.0286H6.51428V14.6571H8.14285V13.0286Z" fill="#FAFDFF"/>
<path d="M9.77142 13.0286H8.14285V14.6571H9.77142V13.0286Z" fill="#002859"/>
<path d="M11.4 13.0286H9.77142V14.6571H11.4V13.0286Z" fill="#002859"/>
<path d="M13.0286 13.0286H11.4V14.6571H13.0286V13.0286Z" fill="#FAFDFF"/>
<path d="M14.6571 13.0286H13.0286V14.6571H14.6571V13.0286Z" fill="#002859"/>
<path d="M16.2857 13.0286H14.6571V14.6571H16.2857V13.0286Z" fill="#002859"/>
<path d="M17.9143 13.0286H16.2857V14.6571H17.9143V13.0286Z" fill="#FAFDFF"/>
<path d="M19.5429 13.0286H17.9143V14.6571H19.5429V13.0286Z" fill="#68AED4"/>
<path d="M21.1714 13.0286H19.5429V14.6571H21.1714V13.0286Z" fill="#16171A"/>
<path d="M22.8 13.0286H21.1714V14.6571H22.8V13.0286Z" fill="#00DFC4"/>
<path d="M24.4286 13.0286H22.8V14.6571H24.4286V13.0286Z" fill="#00A2AD"/>
<path d="M26.0571 13.0286H24.4286V14.6571H26.0571V13.0286Z" fill="#16171A"/>
<path d="M1.62857 14.6571H0L0 16.2857H1.62857V14.6571Z" fill="#16171A"/>
<path d="M3.25714 14.6571H1.62857V16.2857H3.25714V14.6571Z" fill="#FAFDFF"/>
<path d="M4.88571 14.6571H3.25714V16.2857H4.88571V14.6571Z" fill="#00DFC4"/>
<path d="M6.51428 14.6571H4.88571V16.2857H6.51428V14.6571Z" fill="#16171A"/>
<path d="M8.14285 14.6571H6.51428V16.2857H8.14285V14.6571Z" fill="#FAFDFF"/>
<path d="M9.77142 14.6571H8.14285V16.2857H9.77142V14.6571Z" fill="#FAFDFF"/>
<path d="M11.4 14.6571H9.77142V16.2857H11.4V14.6571Z" fill="#002859"/>
<path d="M13.0286 14.6571H11.4V16.2857H13.0286V14.6571Z" fill="#FAFDFF"/>
<path d="M14.6571 14.6571H13.0286V16.2857H14.6571V14.6571Z" fill="#FAFDFF"/>
<path d="M16.2857 14.6571H14.6571V16.2857H16.2857V14.6571Z" fill="#002859"/>
<path d="M17.9143 14.6571H16.2857V16.2857H17.9143V14.6571Z" fill="#FAFDFF"/>
<path d="M19.5429 14.6571H17.9143V16.2857H19.5429V14.6571Z" fill="#68AED4"/>
<path d="M21.1714 14.6571H19.5429V16.2857H21.1714V14.6571Z" fill="#16171A"/>
<path d="M22.8 14.6571H21.1714V16.2857H22.8V14.6571Z" fill="#00DFC4"/>
<path d="M24.4286 14.6571H22.8V16.2857H24.4286V14.6571Z" fill="#00A2AD"/>
<path d="M26.0571 14.6571H24.4286V16.2857H26.0571V14.6571Z" fill="#16171A"/>
<path d="M3.25714 16.2857H1.62857V17.9143H3.25714V16.2857Z" fill="#16171A"/>
<path d="M4.88571 16.2857H3.25714V17.9143H4.88571V16.2857Z" fill="#FAFDFF"/>
<path d="M6.51428 16.2857H4.88571V17.9143H6.51428V16.2857Z" fill="#16171A"/>
<path d="M8.14285 16.2857H6.51428V17.9143H8.14285V16.2857Z" fill="#FAFDFF"/>
<path d="M9.77142 16.2857H8.14285V17.9143H9.77142V16.2857Z" fill="#FAFDFF"/>
<path d="M11.4 16.2857H9.77142V17.9143H11.4V16.2857Z" fill="#002859"/>
<path d="M13.0286 16.2857H11.4V17.9143H13.0286V16.2857Z" fill="#FAFDFF"/>
<path d="M14.6571 16.2857H13.0286V17.9143H14.6571V16.2857Z" fill="#FAFDFF"/>
<path d="M16.2857 16.2857H14.6571V17.9143H16.2857V16.2857Z" fill="#002859"/>
<path d="M17.9143 16.2857H16.2857V17.9143H17.9143V16.2857Z" fill="#FAFDFF"/>
<path d="M19.5429 16.2857H17.9143V17.9143H19.5429V16.2857Z" fill="#68AED4"/>
<path d="M21.1714 16.2857H19.5429V17.9143H21.1714V16.2857Z" fill="#16171A"/>
<path d="M22.8 16.2857H21.1714V17.9143H22.8V16.2857Z" fill="#00A2AD"/>
<path d="M24.4286 16.2857H22.8V17.9143H24.4286V16.2857Z" fill="#16171A"/>
<path d="M3.25714 17.9143H1.62857V19.5429H3.25714V17.9143Z" fill="#16171A"/>
<path d="M4.88571 17.9143H3.25714V19.5429H4.88571V17.9143Z" fill="#FAFDFF"/>
<path d="M6.51428 17.9143H4.88571V19.5429H6.51428V17.9143Z" fill="#16171A"/>
<path d="M8.14285 17.9143H6.51428V19.5429H8.14285V17.9143Z" fill="#FAFDFF"/>
<path d="M9.77142 17.9143H8.14285V19.5429H9.77142V17.9143Z" fill="#68AED4"/>
<path d="M11.4 17.9143H9.77142V19.5429H11.4V17.9143Z" fill="#68AED4"/>
<path d="M13.0286 17.9143H11.4V19.5429H13.0286V17.9143Z" fill="#68AED4"/>
<path d="M14.6571 17.9143H13.0286V19.5429H14.6571V17.9143Z" fill="#68AED4"/>
<path d="M16.2857 17.9143H14.6571V19.5429H16.2857V17.9143Z" fill="#68AED4"/>
<path d="M17.9143 17.9143H16.2857V19.5429H17.9143V17.9143Z" fill="#68AED4"/>
<path d="M19.5429 17.9143H17.9143V19.5429H19.5429V17.9143Z" fill="#68AED4"/>
<path d="M21.1714 17.9143H19.5429V19.5429H21.1714V17.9143Z" fill="#16171A"/>
<path d="M22.8 17.9143H21.1714V19.5429H22.8V17.9143Z" fill="#00A2AD"/>
<path d="M24.4286 17.9143H22.8V19.5429H24.4286V17.9143Z" fill="#16171A"/>
<path d="M4.88571 19.5429H3.25714V21.1714H4.88571V19.5429Z" fill="#16171A"/>
<path d="M6.51428 19.5429H4.88571V21.1714H6.51428V19.5429Z" fill="#FAFDFF"/>
<path d="M8.14285 19.5429H6.51428V21.1714H8.14285V19.5429Z" fill="#16171A"/>
<path d="M9.77142 19.5429H8.14285V21.1714H9.77142V19.5429Z" fill="#16171A"/>
<path d="M11.4 19.5429H9.77142V21.1714H11.4V19.5429Z" fill="#16171A"/>
<path d="M13.0286 19.5429H11.4V21.1714H13.0286V19.5429Z" fill="#16171A"/>
<path d="M14.6571 19.5429H13.0286V21.1714H14.6571V19.5429Z" fill="#16171A"/>
<path d="M16.2857 19.5429H14.6571V21.1714H16.2857V19.5429Z" fill="#16171A"/>
<path d="M17.9143 19.5429H16.2857V21.1714H17.9143V19.5429Z" fill="#16171A"/>
<path d="M19.5429 19.5429H17.9143V21.1714H19.5429V19.5429Z" fill="#16171A"/>
<path d="M21.1714 19.5429H19.5429V21.1714H21.1714V19.5429Z" fill="#00A2AD"/>
<path d="M22.8 19.5429H21.1714V21.1714H22.8V19.5429Z" fill="#16171A"/>
<path d="M6.51428 21.1714H4.88571V22.8H6.51428V21.1714Z" fill="#16171A"/>
<path d="M8.14285 21.1714H6.51428V22.8H8.14285V21.1714Z" fill="#00A2AD"/>
<path d="M9.77142 21.1714H8.14285V22.8H9.77142V21.1714Z" fill="#00A2AD"/>
<path d="M11.4 21.1714H9.77142V22.8H11.4V21.1714Z" fill="#00DFC4"/>
<path d="M13.0286 21.1714H11.4V22.8H13.0286V21.1714Z" fill="#00DFC4"/>
<path d="M14.6571 21.1714H13.0286V22.8H14.6571V21.1714Z" fill="#00DFC4"/>
<path d="M16.2857 21.1714H14.6571V22.8H16.2857V21.1714Z" fill="#00DFC4"/>
<path d="M17.9143 21.1714H16.2857V22.8H17.9143V21.1714Z" fill="#00A2AD"/>
<path d="M19.5429 21.1714H17.9143V22.8H19.5429V21.1714Z" fill="#00A2AD"/>
<path d="M21.1714 21.1714H19.5429V22.8H21.1714V21.1714Z" fill="#16171A"/>
<path d="M8.14285 22.8H6.51428V24.4286H8.14285V22.8Z" fill="#16171A"/>
<path d="M9.77142 22.8H8.14285V24.4286H9.77142V22.8Z" fill="#16171A"/>
<path d="M11.4 22.8H9.77142V24.4286H11.4V22.8Z" fill="#00A2AD"/>
<path d="M13.0286 22.8H11.4V24.4286H13.0286V22.8Z" fill="#00A2AD"/>
<path d="M14.6571 22.8H13.0286V24.4286H14.6571V22.8Z" fill="#00A2AD"/>
<path d="M16.2857 22.8H14.6571V24.4286H16.2857V22.8Z" fill="#00A2AD"/>
<path d="M17.9143 22.8H16.2857V24.4286H17.9143V22.8Z" fill="#16171A"/>
<path d="M19.5429 22.8H17.9143V24.4286H19.5429V22.8Z" fill="#16171A"/>
<path d="M11.4 24.4286H9.77142V26.0571H11.4V24.4286Z" fill="#16171A"/>
<path d="M13.0286 24.4286H11.4V26.0571H13.0286V24.4286Z" fill="#16171A"/>
<path d="M14.6571 24.4286H13.0286V26.0571H14.6571V24.4286Z" fill="#16171A"/>
<path d="M16.2857 24.4286H14.6571V26.0571H16.2857V24.4286Z" fill="#16171A"/>
</svg>
