<svg width="18" height="18" viewBox="0 0 18 18" fill="none" xmlns="http://www.w3.org/2000/svg">
<rect x="1" y="1" width="2.28571" height="2.28571" fill="#FF7C06" stroke="#FF7C06" stroke-width="0.5"/>
<rect x="3.28575" y="3.28546" width="2.28571" height="2.28571" fill="#FF7C06" stroke="#FF7C06" stroke-width="0.5"/>
<rect x="5.57137" y="5.57152" width="2.28571" height="2.28571" fill="#FF7C06" stroke="#FF7C06" stroke-width="0.5"/>
<rect x="7.85712" y="7.85696" width="2.28571" height="2.28571" fill="#FF7C06" stroke="#FF7C06" stroke-width="0.5"/>
<rect x="12.4286" y="10.143" width="2.28571" height="2.28571" transform="rotate(90 12.4286 10.143)" fill="#FF7C06" stroke="#FF7C06" stroke-width="0.5"/>
<rect x="14.7142" y="12.4285" width="2.28571" height="2.28571" transform="rotate(90 14.7142 12.4285)" fill="#FF7C06" stroke="#FF7C06" stroke-width="0.5"/>
<rect x="17" y="14.7145" width="2.28571" height="2.28571" transform="rotate(90 17 14.7145)" fill="#FF7C06" stroke="#FF7C06" stroke-width="0.5"/>
<rect x="17" y="1" width="2.28571" height="2.28571" transform="rotate(90 17 1)" fill="#FF7C06" stroke="#FF7C06" stroke-width="0.5"/>
<rect x="14.7142" y="3.28546" width="2.28571" height="2.28571" transform="rotate(90 14.7142 3.28546)" fill="#FF7C06" stroke="#FF7C06" stroke-width="0.5"/>
<rect x="12.4286" y="5.57152" width="2.28571" height="2.28571" transform="rotate(90 12.4286 5.57152)" fill="#FF7C06" stroke="#FF7C06" stroke-width="0.5"/>
<rect x="7.85712" y="10.143" width="2.28571" height="2.28571" transform="rotate(90 7.85712 10.143)" fill="#FF7C06" stroke="#FF7C06" stroke-width="0.5"/>
<rect x="5.57137" y="12.4285" width="2.28571" height="2.28571" transform="rotate(90 5.57137 12.4285)" fill="#FF7C06" stroke="#FF7C06" stroke-width="0.5"/>
<rect x="3.28575" y="14.7145" width="2.28571" height="2.28571" transform="rotate(90 3.28575 14.7145)" fill="#FF7C06" stroke="#FF7C06" stroke-width="0.5"/>
</svg>
