<svg width="10" height="15" viewBox="0 0 10 15" fill="none" xmlns="http://www.w3.org/2000/svg">
<path d="M2 8H1V9H2V8Z" fill="#16171A"/>
<path d="M3 8H2V9H3V8Z" fill="#16171A"/>
<path d="M8 8H7V9H8V8Z" fill="#16171A"/>
<path d="M9 8H8V9H9V8Z" fill="#16171A"/>
<path d="M1 9H0V10H1V9Z" fill="#16171A"/>
<path d="M2 9H1V10H2V9Z" fill="#FAFDFF"/>
<path d="M3 9H2V10H3V9Z" fill="#FAFDFF"/>
<path d="M4 9H3V10H4V9Z" fill="#16171A"/>
<path d="M7 9H6V10H7V9Z" fill="#16171A"/>
<path d="M8 9H7V10H8V9Z" fill="#FAFDFF"/>
<path d="M9 9H8V10H9V9Z" fill="#FFD100"/>
<path d="M10 9H9V10H10V9Z" fill="#16171A"/>
<path d="M1 10H0V11H1V10Z" fill="#16171A"/>
<path d="M2 10H1V11H2V10Z" fill="#FAFDFF"/>
<path d="M3 10H2V11H3V10Z" fill="#FFD100"/>
<path d="M4 10H3V11H4V10Z" fill="#FAFDFF"/>
<path d="M5 10H4V11H5V10Z" fill="#16171A"/>
<path d="M6 10H5V11H6V10Z" fill="#16171A"/>
<path d="M7 10H6V11H7V10Z" fill="#FAFDFF"/>
<path d="M8 10H7V11H8V10Z" fill="#FFD100"/>
<path d="M9 10H8V11H9V10Z" fill="#FF8426"/>
<path d="M10 10H9V11H10V10Z" fill="#16171A"/>
<path d="M2 11H1V12H2V11Z" fill="#16171A"/>
<path d="M3 11H2V12H3V11Z" fill="#FF8426"/>
<path d="M4 11H3V12H4V11Z" fill="#FFD100"/>
<path d="M5 11H4V12H5V11Z" fill="#FAFDFF"/>
<path d="M6 11H5V12H6V11Z" fill="#FAFDFF"/>
<path d="M7 11H6V12H7V11Z" fill="#FFD100"/>
<path d="M8 11H7V12H8V11Z" fill="#FF8426"/>
<path d="M9 11H8V12H9V11Z" fill="#16171A"/>
<path d="M3 12H2V13H3V12Z" fill="#16171A"/>
<path d="M4 12H3V13H4V12Z" fill="#FF8426"/>
<path d="M5 12H4V13H5V12Z" fill="#FFD100"/>
<path d="M6 12H5V13H6V12Z" fill="#FFD100"/>
<path d="M7 12H6V13H7V12Z" fill="#FF8426"/>
<path d="M8 12H7V13H8V12Z" fill="#16171A"/>
<path d="M4 13H3V14H4V13Z" fill="#16171A"/>
<path d="M5 13H4V14H5V13Z" fill="#FF8426"/>
<path d="M6 13H5V14H6V13Z" fill="#FF8426"/>
<path d="M7 13H6V14H7V13Z" fill="#16171A"/>
<path d="M5 14H4V15H5V14Z" fill="#16171A"/>
<path d="M6 14H5V15H6V14Z" fill="#16171A"/>
<path d="M2 7L1 7L1 6L2 6L2 7Z" fill="#16171A"/>
<path d="M3 7L2 7L2 6L3 6L3 7Z" fill="#16171A"/>
<path d="M8 7L7 7L7 6L8 6L8 7Z" fill="#16171A"/>
<path d="M9 7L8 7L8 6L9 6L9 7Z" fill="#16171A"/>
<path d="M1 6L0 6L-8.74228e-08 5L1 5L1 6Z" fill="#16171A"/>
<path d="M2 6L1 6L1 5L2 5L2 6Z" fill="#FAFDFF"/>
<path d="M3 6L2 6L2 5L3 5L3 6Z" fill="#FAFDFF"/>
<path d="M4 6L3 6L3 5L4 5L4 6Z" fill="#16171A"/>
<path d="M7 6L6 6L6 5L7 5L7 6Z" fill="#16171A"/>
<path d="M8 6L7 6L7 5L8 5L8 6Z" fill="#FAFDFF"/>
<path d="M9 6L8 6L8 5L9 5L9 6Z" fill="#FFD100"/>
<path d="M10 6L9 6L9 5L10 5L10 6Z" fill="#16171A"/>
<path d="M1 5L0 5L-8.74228e-08 4L1 4L1 5Z" fill="#16171A"/>
<path d="M2 5L1 5L1 4L2 4L2 5Z" fill="#FAFDFF"/>
<path d="M3 5L2 5L2 4L3 4L3 5Z" fill="#FFD100"/>
<path d="M4 5L3 5L3 4L4 4L4 5Z" fill="#FAFDFF"/>
<path d="M5 5L4 5L4 4L5 4L5 5Z" fill="#16171A"/>
<path d="M6 5L5 5L5 4L6 4L6 5Z" fill="#16171A"/>
<path d="M7 5L6 5L6 4L7 4L7 5Z" fill="#FAFDFF"/>
<path d="M8 5L7 5L7 4L8 4L8 5Z" fill="#FFD100"/>
<path d="M9 5L8 5L8 4L9 4L9 5Z" fill="#FF8426"/>
<path d="M10 5L9 5L9 4L10 4L10 5Z" fill="#16171A"/>
<path d="M2 4L1 4L1 3L2 3L2 4Z" fill="#16171A"/>
<path d="M3 4L2 4L2 3L3 3L3 4Z" fill="#FF8426"/>
<path d="M4 4L3 4L3 3L4 3L4 4Z" fill="#FFD100"/>
<path d="M5 4L4 4L4 3L5 3L5 4Z" fill="#FAFDFF"/>
<path d="M6 4L5 4L5 3L6 3L6 4Z" fill="#FAFDFF"/>
<path d="M7 4L6 4L6 3L7 3L7 4Z" fill="#FFD100"/>
<path d="M8 4L7 4L7 3L8 3L8 4Z" fill="#FF8426"/>
<path d="M9 4L8 4L8 3L9 3L9 4Z" fill="#16171A"/>
<path d="M3 3L2 3L2 2L3 2L3 3Z" fill="#16171A"/>
<path d="M4 3L3 3L3 2L4 2L4 3Z" fill="#FF8426"/>
<path d="M5 3L4 3L4 2L5 2L5 3Z" fill="#FFD100"/>
<path d="M6 3L5 3L5 2L6 2L6 3Z" fill="#FFD100"/>
<path d="M7 3L6 3L6 2L7 2L7 3Z" fill="#FF8426"/>
<path d="M8 3L7 3L7 2L8 2L8 3Z" fill="#16171A"/>
<path d="M4 2L3 2L3 1L4 1L4 2Z" fill="#16171A"/>
<path d="M5 2L4 2L4 1L5 1L5 2Z" fill="#FF8426"/>
<path d="M6 2L5 2L5 1L6 1L6 2Z" fill="#FF8426"/>
<path d="M7 2L6 2L6 1L7 1L7 2Z" fill="#16171A"/>
<path d="M5 1L4 1L4 6.03983e-07L5 5.1656e-07L5 1Z" fill="#16171A"/>
<path d="M6 1L5 1L5 5.1656e-07L6 4.29138e-07L6 1Z" fill="#16171A"/>
</svg>
