<svg width="36" height="23" viewBox="0 0 36 23" fill="none" xmlns="http://www.w3.org/2000/svg">
<path d="M35.4807 9.57346C35.1508 8.87129 34.7077 8.22818 34.169 7.66989C32.865 6.30091 31.2578 5.40293 29.5205 4.7132C29.0313 4.51963 28.7916 4.67057 28.7518 5.19748C28.6945 5.16813 28.64 5.14367 28.589 5.11292C26.8117 4.04606 25.0325 2.97804 23.2514 1.90885C23.0495 1.78726 22.8552 1.71737 22.647 1.86622C22.4387 2.01507 22.4478 2.21004 22.4946 2.42947C22.5834 2.84037 22.6581 3.25337 22.7448 3.70061C22.633 3.65449 22.5617 3.62724 22.4918 3.59719C19.7553 2.42551 17.0194 1.25336 14.2842 0.0807479C14.0893 -0.00310995 13.9041 -0.052027 13.7196 0.0898326C13.5351 0.231692 13.5288 0.418975 13.5658 0.628619C13.6749 1.25755 13.7678 1.88649 13.8838 2.50704C13.9194 2.69991 13.8901 2.77049 13.6825 2.80823C12.0662 3.10942 10.4526 3.42388 8.83696 3.72926C8.18147 3.85296 7.52458 3.96686 6.86839 4.08496L6.64617 4.30719C6.58258 4.55596 6.66643 4.74954 6.82926 4.9466C7.45819 5.70342 8.06476 6.47631 8.68741 7.23732C8.86491 7.45395 8.64478 7.44696 8.55603 7.47841C6.64267 8.23453 4.72769 8.98646 2.81107 9.73419C1.94733 10.0724 1.0808 10.4037 0.215666 10.7377L0.0311789 10.9222C-0.010393 11.0672 -0.010393 11.2209 0.0311789 11.3659L0.215666 11.5511C1.40365 12.0128 2.59164 12.4749 3.77963 12.9376C5.37223 13.5602 6.96273 14.1877 8.55743 14.8048C8.75799 14.8824 8.78804 14.9327 8.63779 15.113C7.99838 15.8817 7.37993 16.6671 6.7454 17.4435C6.61053 17.6091 6.61053 17.7894 6.64687 17.9816L6.83136 18.1689C7.00536 18.2066 7.18076 18.2472 7.35477 18.2807C9.45634 18.6828 11.5581 19.0822 13.6602 19.4792C13.8607 19.5169 13.9292 19.5637 13.8845 19.788C13.7636 20.3932 13.6797 21.0061 13.5721 21.6141C13.5337 21.8293 13.5148 22.0333 13.7 22.1913C13.8971 22.3569 14.1025 22.2926 14.3122 22.2025C16.4403 21.287 18.5694 20.3727 20.6994 19.4596C21.366 19.1738 22.0341 18.8901 22.7455 18.5861C22.6518 19.0543 22.5701 19.4771 22.4834 19.8985C22.4401 20.1081 22.4618 20.3017 22.6532 20.4324C22.8447 20.563 23.0306 20.5176 23.2158 20.4058C24.578 19.5859 25.9407 18.7673 27.3039 17.9502L28.7602 17.078C28.7721 17.5917 29.0397 17.7692 29.4835 17.5938C30.1478 17.3372 30.7942 17.0365 31.4185 16.6937C32.9042 15.8656 34.2137 14.8397 35.1292 13.3708C35.8797 12.1591 36.0985 10.9061 35.4807 9.57346ZM34.4122 12.8383C33.6624 14.0592 32.6058 14.9418 31.3996 15.6699C30.9542 15.9397 30.4915 16.18 30.0146 16.389C29.9447 16.3191 30.0055 16.2562 30.0209 16.1961C30.0761 15.9865 30.0271 15.8132 29.8517 15.6881C29.6763 15.563 29.5114 15.5826 29.3388 15.6881C28.4821 16.2006 27.6248 16.7144 26.7672 17.2297L23.547 19.1605C23.6239 18.7776 23.6868 18.4316 23.763 18.0885C23.8098 17.867 23.837 17.6539 23.6344 17.4903C23.4317 17.3268 23.2319 17.4009 23.0236 17.4903C20.3099 18.655 17.5957 19.8197 14.881 20.9844C14.7867 21.0243 14.6916 21.0613 14.5686 21.1109C14.6637 20.5309 14.7552 19.9746 14.8482 19.4177C14.9278 18.9327 14.8286 18.7943 14.3401 18.7014C12.2903 18.3115 10.2404 17.9206 8.19055 17.5288C8.106 17.5127 8.02144 17.4945 7.89006 17.4687C8.17867 17.1088 8.44911 16.7734 8.71606 16.4393C9.08154 15.9851 9.45331 15.5358 9.8111 15.0752C10.1018 14.7014 10.0208 14.4267 9.5756 14.252C7.04077 13.2555 4.50779 12.2606 1.97668 11.2674C1.89702 11.2366 1.81945 11.2024 1.72511 11.1633C1.79499 11.0626 1.89562 11.055 1.97808 11.0235C4.48403 10.0368 6.99162 9.05145 9.50083 8.06751C9.55743 8.04515 9.61544 8.02628 9.67064 7.99763C9.99 7.84878 10.0732 7.55249 9.85164 7.27226C9.27511 6.5413 8.68741 5.81872 8.1046 5.09265C8.04031 5.01229 7.95645 4.9452 7.9243 4.83409C8.02004 4.76421 8.13395 4.7705 8.24296 4.75024C10.2765 4.3603 12.3105 3.97175 14.345 3.58461C14.8265 3.49376 14.9243 3.354 14.8447 2.86483C14.7538 2.30578 14.6609 1.75162 14.5651 1.1709C16.2004 1.86972 17.8042 2.55875 19.4079 3.24708C20.6132 3.7656 21.8182 4.28389 23.0229 4.80195C23.2326 4.89209 23.4331 4.96198 23.6337 4.79566C23.8342 4.62934 23.8042 4.4169 23.7574 4.19607C23.6875 3.85785 23.6225 3.51822 23.5477 3.13387C24.3737 3.62304 25.1613 4.09265 25.9461 4.56365C27.0334 5.21588 28.1196 5.87067 29.2046 6.52802C29.4143 6.65241 29.6239 6.77051 29.8559 6.5979C30.0879 6.4253 30.0656 6.20098 29.9838 5.96338C29.9789 5.9508 29.9915 5.93193 30.0034 5.88721C31.2752 6.46932 32.4409 7.18281 33.4213 8.17373C33.8115 8.57176 34.1535 9.01437 34.4402 9.4924C35.1229 10.6147 35.0978 11.7209 34.4122 12.8383Z" fill="#393939"/>
<path d="M33.0494 10.6851C32.8276 10.2206 32.5311 9.79564 32.1717 9.42721C31.4072 8.63196 30.4896 8.05683 29.5015 7.58723C27.6189 6.69694 25.6182 6.21895 23.5769 5.8933C21.201 5.51384 18.8012 5.37338 16.3952 5.35801C16.2198 5.35801 16.1108 5.32027 16.0367 5.14277C15.9581 4.9663 15.8293 4.81685 15.6663 4.713C15.217 4.40762 14.7418 4.358 14.2603 4.60818C13.7788 4.85835 13.5419 5.27834 13.5412 5.82062C13.5384 7.90263 13.5384 9.98417 13.5412 12.0652C13.5412 13.5369 13.5363 15.0086 13.5412 16.4804C13.5412 17.1358 13.9521 17.6481 14.5629 17.7955C14.8525 17.8684 15.1583 17.8401 15.4296 17.7154C15.7009 17.5908 15.9215 17.3772 16.0549 17.11C16.1366 16.9493 16.2359 16.9332 16.3826 16.9318C18.0724 16.9213 19.7593 16.8458 21.4413 16.6704C23.862 16.4217 26.2485 16.0024 28.5301 15.1149C29.8278 14.6103 31.0382 13.9569 31.9543 13.0764C32.454 12.5761 32.7929 12.1302 33.0417 11.6131C33.1161 11.47 33.1556 11.3113 33.1569 11.15C33.1582 10.9887 33.1214 10.8294 33.0494 10.6851ZM15.2995 16.4077C15.2995 16.7501 15.1597 16.9255 14.8879 16.9311C14.616 16.9367 14.4553 16.7431 14.4553 16.4007C14.4553 12.8996 14.4553 9.39832 14.4553 5.89679C14.4553 5.68715 14.4839 5.49917 14.7152 5.40762C14.7896 5.37665 14.8712 5.36723 14.9507 5.38046C15.0301 5.39368 15.1043 5.42901 15.1646 5.48239C15.3009 5.62216 15.3043 5.78778 15.3043 5.95619C15.3043 8.82134 15.3043 11.6865 15.3043 14.5516C15.2995 15.1708 15.2995 15.7927 15.2995 16.4077ZM32.1409 11.3993C31.943 11.7175 31.7066 12.0102 31.4372 12.2707C30.389 13.284 29.1199 13.9129 27.7712 14.4035C25.4309 15.2539 22.9927 15.6278 20.5252 15.8458C19.1716 15.9646 17.8145 16.0142 16.456 16.038C16.2813 16.038 16.2233 16.0135 16.224 15.8207C16.2296 12.703 16.2296 9.58561 16.224 6.46842C16.224 6.32237 16.224 6.24271 16.4225 6.2455C19.326 6.28883 22.2149 6.47751 25.0598 7.10295C26.8502 7.49638 28.5874 8.04076 30.1612 9.01421C30.9445 9.49919 31.6434 10.0785 32.1381 10.8752C32.2492 11.0617 32.2541 11.2148 32.1409 11.3993Z" fill="#393939"/>
<path d="M32.1329 10.8777C31.6382 10.0811 30.9394 9.50173 30.156 9.01676C28.5836 8.0433 26.8464 7.49893 25.0546 7.10549C22.2111 6.48005 19.3222 6.29137 16.4173 6.24805C16.2223 6.24805 16.2181 6.32492 16.2188 6.47097C16.2221 9.58862 16.2221 12.706 16.2188 15.8232C16.2188 16.0161 16.2761 16.0433 16.4508 16.0406C17.8093 16.0168 19.1664 15.9707 20.52 15.8484C22.9875 15.6303 25.4257 15.2565 27.766 14.406C29.1147 13.9169 30.3866 13.2879 31.432 12.2732C31.7032 12.013 31.9412 11.7203 32.1406 11.4018C32.2538 11.2173 32.2489 11.0643 32.1329 10.8777ZM30.4145 10.826C30.3815 10.8724 30.3395 10.9118 30.2909 10.9417C30.2424 10.9717 30.1884 10.9916 30.1321 11.0003C30.0757 11.0091 30.0182 11.0064 29.9629 10.9925C29.9076 10.9787 29.8556 10.9539 29.8101 10.9196C27.7276 9.40949 25.2985 8.89935 22.8331 8.49125C22.6137 8.45491 22.3768 8.46888 22.2007 8.31235C22.0686 8.14813 22.0288 7.97692 22.1203 7.79313C22.1602 7.70443 22.2297 7.63236 22.3169 7.58927C22.4041 7.54618 22.5036 7.53475 22.5983 7.55693C23.0798 7.631 23.5627 7.70298 24.0406 7.79383C25.8073 8.12786 27.5347 8.59257 29.135 9.43674C29.5425 9.65175 29.9315 9.90022 30.2978 10.1796C30.5166 10.3445 30.5634 10.6198 30.4145 10.826Z" fill="#393939"/>
</svg>
