<svg width="40" height="25" viewBox="0 0 40 25" fill="none" xmlns="http://www.w3.org/2000/svg">
<path d="M39.4369 10.6409C39.0703 9.86047 38.5777 9.14565 37.979 8.52511C36.5296 7.00348 34.7431 6.00537 32.8122 5.23874C32.2684 5.02358 32.002 5.19136 31.9577 5.77701C31.894 5.74439 31.8335 5.71721 31.7768 5.68303C29.8013 4.49721 27.8237 3.3101 25.844 2.12169C25.6196 1.98654 25.4036 1.90887 25.1722 2.07431C24.9407 2.23976 24.9508 2.45647 25.0028 2.70036C25.1015 3.15708 25.1846 3.61613 25.2809 4.11325C25.1566 4.06198 25.0774 4.03169 24.9997 3.99829C21.958 2.69596 18.9171 1.39312 15.877 0.0897516C15.6603 -0.00345672 15.4544 -0.0578282 15.2494 0.0998492C15.0443 0.257527 15.0373 0.465692 15.0785 0.698713C15.1997 1.39778 15.303 2.09684 15.4319 2.78658C15.4715 3.00096 15.4389 3.07941 15.2082 3.12135C13.4116 3.45613 11.6181 3.80566 9.82231 4.14509C9.09373 4.28257 8.3636 4.40918 7.63424 4.54045L7.38724 4.78745C7.31656 5.06397 7.40977 5.27913 7.59075 5.49817C8.28981 6.33937 8.96402 7.19844 9.65609 8.04431C9.85338 8.2851 9.60871 8.27733 9.51006 8.31228C7.38336 9.15271 5.25484 9.98848 3.12451 10.8196C2.16447 11.1955 1.20131 11.5637 0.239714 11.935L0.0346554 12.14C-0.0115518 12.3012 -0.0115518 12.4721 0.0346554 12.6333L0.239714 12.8391C1.56017 13.3523 2.88062 13.8659 4.20107 14.3801C5.97125 15.0722 7.7391 15.7697 9.51161 16.4556C9.73454 16.5418 9.76794 16.5977 9.60094 16.7981C8.89023 17.6525 8.20281 18.5256 7.49754 19.3885C7.34763 19.5726 7.34763 19.773 7.38802 19.9866L7.59308 20.1948C7.78648 20.2367 7.98144 20.2818 8.17485 20.3191C10.5108 20.766 12.8469 21.21 15.1833 21.6512C15.4063 21.6931 15.4824 21.7452 15.4327 21.9945C15.2983 22.6671 15.2051 23.3483 15.0855 24.0241C15.0428 24.2633 15.0218 24.4901 15.2276 24.6657C15.4467 24.8498 15.675 24.7783 15.908 24.6781C18.2735 23.6606 20.6399 22.6444 23.0074 21.6294C23.7484 21.3117 24.491 20.9964 25.2817 20.6585C25.1776 21.1789 25.0867 21.6488 24.9904 22.1172C24.9423 22.3502 24.9663 22.5654 25.1792 22.7106C25.392 22.8559 25.5986 22.8054 25.8044 22.6811C27.3186 21.7698 28.8332 20.8599 30.3483 19.9517L31.9671 18.9823C31.9803 19.5532 32.2778 19.7505 32.771 19.5555C33.5094 19.2703 34.2279 18.9361 34.9218 18.5551C36.5731 17.6347 38.0287 16.4944 39.0462 14.8617C39.8805 13.5149 40.1236 12.1222 39.4369 10.6409ZM38.2493 14.2698C37.4159 15.6268 36.2414 16.6078 34.9008 17.4172C34.4057 17.7171 33.8914 17.9841 33.3613 18.2164C33.2836 18.1388 33.3512 18.0689 33.3683 18.0021C33.4297 17.769 33.3753 17.5764 33.1803 17.4374C32.9854 17.2983 32.8021 17.3201 32.6102 17.4374C31.6579 18.007 30.7051 18.5781 29.7518 19.1509L26.1726 21.297C26.2581 20.8713 26.328 20.4868 26.4126 20.1055C26.4647 19.8592 26.495 19.6223 26.2697 19.4406C26.0444 19.2588 25.8223 19.3412 25.5908 19.4406C22.5745 20.7351 19.5577 22.0297 16.5403 23.3243C16.4354 23.3685 16.3298 23.4097 16.1931 23.4649C16.2987 22.8202 16.4005 22.2019 16.5038 21.5828C16.5923 21.0438 16.482 20.89 15.9391 20.7867C13.6607 20.3532 11.3823 19.9188 9.10383 19.4833C9.00984 19.4654 8.91586 19.4452 8.76983 19.4165C9.09062 19.0165 9.39122 18.6437 9.68793 18.2724C10.0942 17.7675 10.5074 17.268 10.9051 16.7562C11.2282 16.3406 11.1381 16.0354 10.6433 15.8412C7.82584 14.7336 5.01043 13.6277 2.19709 12.5237C2.10854 12.4896 2.02232 12.4515 1.91746 12.408C1.99514 12.2962 2.10699 12.2876 2.19864 12.2527C4.98402 11.1559 7.77121 10.0607 10.5602 8.96707C10.6231 8.94221 10.6876 8.92124 10.749 8.8894C11.1039 8.72395 11.1964 8.39462 10.9501 8.08314C10.3093 7.27068 9.65609 6.46753 9.00829 5.6605C8.93683 5.57118 8.84362 5.49661 8.80789 5.37311C8.9143 5.29544 9.04091 5.30243 9.16208 5.2799C11.4224 4.84648 13.6832 4.41462 15.9445 3.98431C16.4797 3.88333 16.5885 3.72798 16.4999 3.18427C16.3989 2.56288 16.2956 1.94693 16.1892 1.30146C18.0068 2.0782 19.7894 2.84406 21.572 3.60914C22.9116 4.18548 24.251 4.76156 25.5901 5.33738C25.8231 5.43758 26.046 5.51525 26.2689 5.33039C26.4918 5.14553 26.4584 4.9094 26.4064 4.66395C26.3287 4.28801 26.2565 3.91052 26.1734 3.48331C27.0915 4.02703 27.9669 4.54899 28.8391 5.07251C30.0477 5.79747 31.2551 6.52527 32.4611 7.25592C32.6941 7.39418 32.9271 7.52545 33.185 7.33359C33.4429 7.14174 33.418 6.89241 33.3271 6.62832C33.3217 6.61434 33.3357 6.59336 33.3489 6.54365C34.7625 7.19067 36.0581 7.98372 37.1479 9.08513C37.5816 9.52754 37.9617 10.0195 38.2804 10.5508C39.0392 11.7983 39.0113 13.0278 38.2493 14.2698Z" fill="#393939"/>
<path d="M36.7366 11.8766C36.4901 11.3603 36.1605 10.888 35.761 10.4785C34.9112 9.59455 33.8914 8.9553 32.7931 8.43333C30.7006 7.44377 28.4768 6.91248 26.2079 6.55052C23.567 6.12875 20.8997 5.97263 18.2254 5.95554C18.0304 5.95554 17.9093 5.9136 17.8269 5.71631C17.7395 5.52016 17.5963 5.35404 17.4153 5.23861C16.9158 4.89918 16.3876 4.84403 15.8525 5.1221C15.3173 5.40017 15.054 5.86699 15.0532 6.46974C15.0501 8.7839 15.0501 11.0975 15.0532 13.4107C15.0532 15.0465 15.0478 16.6823 15.0532 18.3181C15.0532 19.0467 15.5099 19.616 16.1888 19.7799C16.5107 19.8609 16.8505 19.8294 17.1521 19.6909C17.4537 19.5523 17.6989 19.3149 17.8471 19.0179C17.938 18.8393 18.0483 18.8214 18.2114 18.8198C20.0896 18.8082 21.9646 18.7243 23.8342 18.5293C26.5248 18.2528 29.1774 17.7868 31.7134 16.8003C33.1558 16.2395 34.5011 15.5133 35.5194 14.5346C36.0748 13.9784 36.4515 13.4829 36.728 12.9081C36.8107 12.749 36.8546 12.5727 36.8561 12.3934C36.8576 12.2141 36.8166 12.037 36.7366 11.8766ZM17.0075 18.2373C17.0075 18.6179 16.8521 18.8129 16.55 18.8191C16.2478 18.8253 16.0692 18.6101 16.0692 18.2295C16.0692 14.3381 16.0692 10.4464 16.0692 6.5544C16.0692 6.32138 16.101 6.11244 16.3581 6.01069C16.4408 5.97626 16.5315 5.9658 16.6198 5.9805C16.7081 5.99519 16.7905 6.03446 16.8576 6.0938C17.009 6.24915 17.0129 6.43323 17.0129 6.62043C17.0129 9.80505 17.0129 12.9897 17.0129 16.1743C17.0075 16.8625 17.0075 17.5538 17.0075 18.2373ZM35.7268 12.6704C35.5068 13.0242 35.2441 13.3495 34.9446 13.639C33.7795 14.7653 32.369 15.4643 30.8699 16.0096C28.2686 16.9549 25.5586 17.3705 22.8159 17.6128C21.3114 17.7448 19.8029 17.8 18.293 17.8264C18.0988 17.8264 18.0343 17.7992 18.0351 17.5848C18.0413 14.1196 18.0413 10.6545 18.0351 7.18977C18.0351 7.02744 18.0351 6.93889 18.2557 6.942C21.483 6.99015 24.694 7.19987 27.8561 7.89505C29.8461 8.33235 31.7771 8.93743 33.5263 10.0194C34.397 10.5585 35.1738 11.2024 35.7237 12.0879C35.8472 12.2953 35.8526 12.4654 35.7268 12.6704Z" fill="#393939"/>
<path d="M35.716 12.0883C35.1661 11.2028 34.3893 10.5589 33.5186 10.0198C31.771 8.93782 29.84 8.33274 27.8485 7.89544C24.6879 7.20026 21.4769 6.99054 18.248 6.94238C18.0313 6.94238 18.0266 7.02782 18.0274 7.19016C18.031 10.6554 18.031 14.1205 18.0274 17.5852C18.0274 17.7996 18.0911 17.8299 18.2853 17.8268C19.7952 17.8004 21.3037 17.7491 22.8082 17.6132C25.5509 17.3708 28.2609 16.9553 30.8622 16.01C32.3613 15.4663 33.7749 14.7672 34.9369 13.6394C35.2383 13.3502 35.5029 13.0248 35.7246 12.6708C35.8504 12.4658 35.845 12.2957 35.716 12.0883ZM33.806 12.0308C33.7693 12.0824 33.7226 12.1262 33.6686 12.1594C33.6147 12.1927 33.5547 12.2149 33.492 12.2246C33.4294 12.2343 33.3655 12.2313 33.304 12.2159C33.2425 12.2005 33.1848 12.173 33.1341 12.1349C30.8195 10.4563 28.1195 9.88932 25.3792 9.43571C25.1353 9.39532 24.872 9.41085 24.6763 9.23686C24.5295 9.05433 24.4852 8.86403 24.5869 8.65975C24.6313 8.56115 24.7086 8.48105 24.8055 8.43316C24.9024 8.38526 25.013 8.37255 25.1182 8.39721C25.6534 8.47954 26.1901 8.55955 26.7214 8.66052C28.685 9.0318 30.6051 9.54833 32.3838 10.4866C32.8368 10.7256 33.2691 11.0018 33.6763 11.3123C33.9194 11.4956 33.9715 11.8016 33.806 12.0308Z" fill="#393939"/>
</svg>
