<svg width="32" height="25" viewBox="0 0 32 25" fill="none" xmlns="http://www.w3.org/2000/svg">
<path d="M15.6815 12.1201C15.5032 11.7336 15.2647 11.3801 14.9758 11.0737C14.3621 10.4109 13.6248 9.9316 12.8285 9.5403C11.3179 8.79684 9.70969 8.39851 8.06875 8.12705C6.15736 7.81095 4.23035 7.69356 2.29626 7.68103C2.15528 7.68103 2.06769 7.65046 2.00812 7.50189C1.94485 7.35461 1.84115 7.2299 1.70995 7.1433C1.34867 6.88896 0.966752 6.84769 0.579815 7.05618C0.192878 7.26467 0.00235937 7.61439 0.00176953 8.06499C-0.000589842 9.79995 -0.000589842 11.5345 0.00176953 13.2686C0.00176953 14.4948 -0.00206445 15.7213 0.00176953 16.9474C0.00383398 17.4937 0.332081 17.9205 0.823125 18.0434C1.05574 18.1044 1.30147 18.0812 1.51961 17.9776C1.73775 17.874 1.9152 17.6963 2.02257 17.4739C2.08834 17.3397 2.16826 17.3265 2.28623 17.3253C3.64464 17.3164 4.9995 17.2538 6.3529 17.1073C8.29938 16.8973 10.2164 16.5513 12.0514 15.8112C13.0939 15.3908 14.0672 14.847 14.8045 14.1133C15.2061 13.6963 15.4801 13.3249 15.6786 12.8938C15.7972 12.6331 15.8007 12.3815 15.6815 12.1201ZM1.41503 16.8884C1.41503 17.174 1.30119 17.3201 1.08413 17.3247C0.867068 17.3293 0.736713 17.1682 0.736713 16.8826C0.736713 13.9654 0.736713 11.0479 0.736713 8.13011C0.736713 7.95586 0.759717 7.79873 0.945812 7.72261C1.08737 7.66422 1.20475 7.70274 1.30709 7.78375C1.41651 7.90144 1.4171 8.0384 1.4171 8.17871C1.41572 10.5668 1.41503 12.9548 1.41503 15.3425C1.41503 15.8579 1.41651 16.373 1.41503 16.8884ZM14.9519 12.715C14.7925 12.9801 14.6022 13.2238 14.3854 13.4407C13.5451 14.2851 12.5226 14.8091 11.4385 15.2178C9.55722 15.9264 7.59717 16.2379 5.61353 16.4198C4.52527 16.5188 3.43436 16.5601 2.34226 16.58C2.20188 16.5821 2.15528 16.5595 2.15587 16.3987C2.1602 13.8013 2.1602 11.2036 2.15587 8.60578C2.15587 8.4835 2.15853 8.41777 2.31543 8.41991C4.64943 8.45782 6.97194 8.61403 9.25994 9.13525C10.6992 9.46296 12.0959 9.91662 13.3593 10.7276C13.9893 11.1318 14.5511 11.6142 14.9487 12.2785C15.0404 12.4338 15.0451 12.5615 14.9519 12.715Z" fill="#393939"/>
<path d="M1.76958 8.20505C1.76894 8.07086 1.77247 7.9977 1.94322 8.00006L1.93992 8.20423L1.93991 8.20488L1.93513 8.49999C1.93539 8.49999 1.93564 8.5 1.9359 8.5M1.9359 8.5C1.9359 8.5 1.9359 8.5 1.9359 8.5M1.9359 8.5C2.04729 8.50181 2.15861 8.50387 2.26986 8.5062C2.26977 8.40565 2.26968 8.30511 2.26958 8.20456L2.26957 8.20266C2.26945 8.1764 2.26979 8.16798 2.26971 8.16797C2.26967 8.16797 2.26955 8.16972 2.26925 8.17232L2.26924 8.17243C2.26885 8.17591 2.26762 8.18673 2.26391 8.20268C2.26377 8.2033 2.26362 8.20393 2.26347 8.20457C2.25687 8.23219 2.24299 8.27421 2.21384 8.31996C2.15803 8.40758 2.07887 8.45944 2.01098 8.4835C1.97324 8.49688 1.94523 8.49954 1.93631 8.49998L1.93631 8.50001C1.93617 8.50001 1.93603 8.5 1.9359 8.5M1.9359 8.5C1.93411 8.49998 1.93327 8.50002 1.9333 8.50005C1.93332 8.50007 1.93422 8.50008 1.9359 8.5Z" fill="#393939" stroke="#393939"/>
<path d="M31.0397 13.0534L31.0397 13.0526L31.0388 11.9588V11.9575C31.0388 11.9526 31.0384 11.9478 31.0376 11.943L31.0369 11.9393L31.0369 11.9393C31.0364 11.9358 31.0357 11.932 31.0351 11.9279C31.0294 11.8933 31.0209 11.8416 31.0155 11.7887L31.0153 11.7871C31.004 11.6725 30.9948 11.5653 30.986 11.4621C30.9696 11.2699 30.9543 11.0915 30.9284 10.904C30.5708 8.32039 29.5047 6.06758 27.6596 4.22417C24.5087 1.07736 20.7152 -0.0967975 16.3169 0.783819C13.0761 1.43405 10.5516 3.19624 8.69018 5.91459C8.66203 5.957 8.63385 5.9999 8.60566 6.04327L8.60525 6.0439C8.5967 6.05701 8.59118 6.07134 8.58872 6.08595C8.58625 6.10056 8.58683 6.1155 8.59045 6.12996C8.59407 6.14444 8.60074 6.15845 8.61043 6.17105C8.62012 6.18367 8.63269 6.19466 8.64764 6.20302L8.6483 6.20339L8.66312 6.2117C8.69154 6.22761 8.72593 6.23245 8.75865 6.22441C8.79125 6.21639 8.81759 6.1968 8.8336 6.17195L8.83433 6.17081C9.67447 4.87462 10.7655 3.7552 12.0445 2.87646C13.4889 1.87761 15.1399 1.20834 16.8781 0.916684C18.6165 0.624986 20.399 0.718248 22.0965 1.18978C23.8172 1.66777 25.3501 2.49581 26.6969 3.65299L26.6972 3.65323C31.9122 8.14079 32.1647 16.1221 27.2061 20.8656C24.6563 23.3052 21.5627 24.4738 18.009 24.1985C14.0311 23.8912 10.9888 22.0005 8.8198 18.8075L8.81947 18.807C8.80304 18.7827 8.77666 18.7639 8.74438 18.7563C8.71199 18.7488 8.67816 18.7538 8.65019 18.7696L8.64915 18.7702L8.6384 18.7762L31.0397 13.0534ZM31.0397 13.0534C31.0397 13.0547 31.0396 13.0559 31.0396 13.0571C31.0395 13.0587 31.0394 13.0603 31.0392 13.0618L31.0392 13.0623M31.0397 13.0534L31.0392 13.0623M31.0392 13.0623C31.031 13.1441 31.0231 13.2246 31.0153 13.3044C30.9971 13.4897 30.9794 13.6708 30.9587 13.8536C30.7443 15.7349 30.12 17.4693 29.0596 19.0388M31.0392 13.0623L29.474 19.3187M16.9794 24.3435L16.9795 24.3436C18.4513 24.5801 19.9172 24.5515 21.3664 24.2369M16.9794 24.3435L29.474 19.3187M16.9794 24.3435C14.3817 23.9265 12.154 22.8039 10.2736 20.9886L10.2736 20.9886M16.9794 24.3435L10.2736 20.9886M21.3664 24.2369L21.4724 24.7255L21.3664 24.2369C21.3664 24.2369 21.3664 24.2369 21.3664 24.2369ZM21.3664 24.2369C24.6425 23.5256 27.202 21.7875 29.0596 19.0388M29.0596 19.0388L29.474 19.3187M29.0596 19.0388C29.0597 19.0388 29.0597 19.0387 29.0597 19.0387L29.474 19.3187M10.2736 20.9886C9.70038 20.4353 9.06804 19.6618 8.59654 18.9358L8.59613 18.9352M10.2736 20.9886L8.59613 18.9352M8.59613 18.9352C8.5876 18.9221 8.58209 18.9078 8.57962 18.8932C8.57716 18.8786 8.57773 18.8637 8.58134 18.8492C8.58495 18.8348 8.59161 18.8208 8.60127 18.8082L8.20505 18.5042M8.59613 18.9352L8.20505 18.5042M8.20505 18.5042L8.60127 18.8082C8.61089 18.7956 8.62334 18.7847 8.63815 18.7763L8.20505 18.5042ZM31.5397 13.0522C31.5397 13.0723 31.5387 13.0924 31.5367 13.1123L31.5397 13.0522Z" fill="#393939" stroke="#393939"/>
<mask id="path-4-inside-1_1344_37174" fill="white">
<path d="M24.6985 6.20233L25.3353 6.83845C25.3511 6.85423 25.3637 6.87297 25.3722 6.8936C25.3808 6.91423 25.3852 6.93634 25.3852 6.95868C25.3852 6.98101 25.3808 7.00312 25.3722 7.02375C25.3637 7.04438 25.3511 7.06312 25.3353 7.0789L21.2754 11.1367C21.2501 11.1622 21.2334 11.195 21.2279 11.2305C21.2223 11.266 21.2281 11.3023 21.2444 11.3344C21.3984 11.6318 21.4935 11.9562 21.5245 12.2897C21.6365 13.5473 20.7591 14.7132 19.5136 14.9549C17.9897 15.2495 16.5518 14.078 16.5392 12.5308C16.5236 10.6666 18.4791 9.44122 20.1478 10.2742C20.2755 10.3377 20.3432 10.3251 20.4408 10.2264C21.7759 8.88525 23.1135 7.54643 24.4535 6.20994C24.4689 6.19307 24.4876 6.17946 24.5083 6.16992C24.5291 6.16037 24.5516 6.15509 24.5744 6.15438C24.5973 6.15367 24.62 6.15755 24.6413 6.16578C24.6627 6.17402 24.6821 6.18645 24.6985 6.20233ZM17.7916 12.5073C17.7946 13.1935 18.3628 13.7582 19.0436 13.7512C19.3743 13.7469 19.6901 13.6127 19.9225 13.3776C20.155 13.1424 20.2855 12.8253 20.2858 12.4947C20.2829 11.8117 19.7126 11.2468 19.0312 11.2515C18.7005 11.2546 18.3845 11.3885 18.1522 11.6238C17.9199 11.8591 17.7903 12.1768 17.7916 12.5073Z"/>
</mask>
<path d="M24.6985 6.20233L25.3353 6.83845C25.3511 6.85423 25.3637 6.87297 25.3722 6.8936C25.3808 6.91423 25.3852 6.93634 25.3852 6.95868C25.3852 6.98101 25.3808 7.00312 25.3722 7.02375C25.3637 7.04438 25.3511 7.06312 25.3353 7.0789L21.2754 11.1367C21.2501 11.1622 21.2334 11.195 21.2279 11.2305C21.2223 11.266 21.2281 11.3023 21.2444 11.3344C21.3984 11.6318 21.4935 11.9562 21.5245 12.2897C21.6365 13.5473 20.7591 14.7132 19.5136 14.9549C17.9897 15.2495 16.5518 14.078 16.5392 12.5308C16.5236 10.6666 18.4791 9.44122 20.1478 10.2742C20.2755 10.3377 20.3432 10.3251 20.4408 10.2264C21.7759 8.88525 23.1135 7.54643 24.4535 6.20994C24.4689 6.19307 24.4876 6.17946 24.5083 6.16992C24.5291 6.16037 24.5516 6.15509 24.5744 6.15438C24.5973 6.15367 24.62 6.15755 24.6413 6.16578C24.6627 6.17402 24.6821 6.18645 24.6985 6.20233ZM17.7916 12.5073C17.7946 13.1935 18.3628 13.7582 19.0436 13.7512C19.3743 13.7469 19.6901 13.6127 19.9225 13.3776C20.155 13.1424 20.2855 12.8253 20.2858 12.4947C20.2829 11.8117 19.7126 11.2468 19.0312 11.2515C18.7005 11.2546 18.3845 11.3885 18.1522 11.6238C17.9199 11.8591 17.7903 12.1768 17.7916 12.5073Z" fill="#393939"/>
<path d="M24.6985 6.20233L25.4053 5.49485L25.3995 5.48909L25.3936 5.48342L24.6985 6.20233ZM25.3353 6.83845L24.6286 7.54593L24.6291 7.54642L25.3353 6.83845ZM25.3852 6.95868H24.3852H25.3852ZM25.3353 7.0789L24.6291 6.37093L24.6284 6.37161L25.3353 7.0789ZM21.2754 11.1367L20.5685 10.4294L20.566 10.4318L21.2754 11.1367ZM21.2444 11.3344L20.353 11.7878L20.3563 11.7942L21.2444 11.3344ZM21.5245 12.2897L22.5206 12.2011L22.5202 12.1972L21.5245 12.2897ZM19.5136 14.9549L19.7034 15.9367L19.7041 15.9366L19.5136 14.9549ZM16.5392 12.5308L17.5391 12.5226L17.5391 12.5224L16.5392 12.5308ZM20.1478 10.2742L19.7011 11.1689L19.7024 11.1695L20.1478 10.2742ZM20.4408 10.2264L19.7321 9.5209L19.7297 9.52333L20.4408 10.2264ZM24.4535 6.20994L25.1597 6.91798L25.1762 6.9015L25.192 6.88426L24.4535 6.20994ZM17.7916 12.5073L16.7917 12.5114L16.7917 12.5116L17.7916 12.5073ZM19.0436 13.7512L19.0539 14.7511L19.0564 14.7511L19.0436 13.7512ZM20.2858 12.4947L21.2858 12.4956L21.2858 12.4904L20.2858 12.4947ZM19.0312 11.2515L19.0244 10.2515L19.0217 10.2515L19.0312 11.2515ZM23.9918 6.90981L24.6286 7.54593L26.0421 6.13097L25.4053 5.49485L23.9918 6.90981ZM24.6291 7.54642C24.5518 7.46936 24.4905 7.37778 24.4486 7.2769L26.2959 6.51029C26.2369 6.36815 26.1504 6.2391 26.0416 6.13048L24.6291 7.54642ZM24.4486 7.2769C24.4068 7.17603 24.3852 7.06788 24.3852 6.95868H26.3852C26.3852 6.8048 26.3549 6.65243 26.2959 6.51029L24.4486 7.2769ZM24.3852 6.95868C24.3852 6.84946 24.4068 6.74132 24.4486 6.64045L26.2959 7.40706C26.3549 7.26492 26.3852 7.11255 26.3852 6.95868H24.3852ZM24.4486 6.64045C24.4905 6.53957 24.5518 6.44799 24.6291 6.37093L26.0416 7.78687C26.1504 7.67825 26.2369 7.5492 26.2959 7.40706L24.4486 6.64045ZM24.6284 6.37161L20.5685 10.4294L21.9823 11.844L26.0422 7.78619L24.6284 6.37161ZM20.566 10.4318C20.3924 10.6066 20.2783 10.8318 20.24 11.0753L22.2157 11.3857C22.1886 11.5582 22.1078 11.7177 21.9848 11.8415L20.566 10.4318ZM20.24 11.0753C20.2017 11.3188 20.2413 11.5681 20.3531 11.7878L22.1357 10.881C22.2148 11.0365 22.2429 11.2132 22.2157 11.3857L20.24 11.0753ZM20.3563 11.7942C20.4512 11.9773 20.5097 12.177 20.5288 12.3823L22.5202 12.1972C22.4773 11.7354 22.3456 11.2863 22.1324 10.8745L20.3563 11.7942ZM20.5284 12.3784C20.5948 13.124 20.0669 13.8289 19.3232 13.9732L19.7041 15.9366C21.4513 15.5976 22.6781 13.9706 22.5206 12.2011L20.5284 12.3784ZM19.3238 13.9731C18.4094 14.1498 17.5466 13.4404 17.5391 12.5226L15.5392 12.5389C15.5569 14.7156 17.5701 16.3492 19.7034 15.9367L19.3238 13.9731ZM17.5391 12.5224C17.5298 11.4022 18.7031 10.6707 19.7011 11.1689L20.5944 9.37943C18.2551 8.21174 15.5175 9.93103 15.5392 12.5391L17.5391 12.5224ZM19.7024 11.1695C19.8296 11.2328 20.1124 11.3573 20.4706 11.2974C20.829 11.2375 21.0552 11.0273 21.1519 10.9295L19.7297 9.52333C19.7347 9.51829 19.7708 9.48171 19.8343 9.44123C19.9043 9.39658 20.0079 9.34703 20.1407 9.32483C20.2733 9.30264 20.3872 9.31578 20.4676 9.33511C20.5407 9.35269 20.5864 9.37548 20.5931 9.3788L19.7024 11.1695ZM21.1495 10.9319C22.4838 9.59161 23.8205 8.25362 25.1597 6.91798L23.7474 5.5019C22.4065 6.83923 21.0681 8.17889 19.7321 9.52091L21.1495 10.9319ZM25.192 6.88426C25.1172 6.96617 25.0267 7.03223 24.926 7.07853L24.0907 5.2613C23.9484 5.3267 23.8207 5.41997 23.7151 5.53562L25.192 6.88426ZM24.926 7.07853C24.8253 7.12483 24.7163 7.15045 24.6055 7.1539L24.5434 5.15486C24.3869 5.15973 24.233 5.19592 24.0907 5.2613L24.926 7.07853ZM24.6055 7.1539C24.4947 7.15734 24.3843 7.13853 24.2809 7.09858L25.0017 5.23298C24.8557 5.17656 24.6998 5.15 24.5434 5.15486L24.6055 7.1539ZM24.2809 7.09858C24.1775 7.05863 24.0832 6.99834 24.0034 6.92123L25.3936 5.48342C25.281 5.37456 25.1478 5.28941 25.0017 5.23298L24.2809 7.09858ZM16.7917 12.5116C16.7969 13.7447 17.8108 14.7639 19.0539 14.7511L19.0332 12.7512C18.9778 12.7518 18.9185 12.7297 18.8683 12.6798C18.818 12.6299 18.7919 12.5667 18.7916 12.5031L16.7917 12.5116ZM19.0564 14.7511C19.6497 14.7435 20.2164 14.5027 20.6336 14.0807L19.2114 12.6745C19.1637 12.7227 19.0988 12.7504 19.0308 12.7512L19.0564 14.7511ZM20.6336 14.0807C21.0509 13.6586 21.2853 13.0892 21.2858 12.4956L19.2858 12.4939C19.2857 12.5614 19.2591 12.6263 19.2114 12.6745L20.6336 14.0807ZM21.2858 12.4904C21.2805 11.2561 20.2609 10.243 19.0244 10.2515L19.0381 12.2515C19.0955 12.2511 19.1573 12.2743 19.2091 12.3256C19.2608 12.3769 19.2855 12.4395 19.2858 12.499L21.2858 12.4904ZM19.0217 10.2515C18.4269 10.2572 17.8584 10.498 17.4405 10.9213L18.8639 12.3263C18.9106 12.2791 18.9742 12.2521 19.0408 12.2514L19.0217 10.2515ZM17.4405 10.9213C17.0226 11.3447 16.7893 11.9164 16.7917 12.5114L18.7916 12.5033C18.7914 12.4372 18.8173 12.3736 18.8639 12.3263L17.4405 10.9213Z" fill="#393939" mask="url(#path-4-inside-1_1344_37174)"/>
<path d="M19.6199 5.93932L19.6857 5.78749M19.6199 5.93932L18.4175 10.4256C18.5217 10.39 18.6865 10.3192 18.8042 10.1516C18.9203 9.98614 18.9322 9.80887 18.9322 9.70277H18.4322L18.9322 9.70374C18.934 8.73333 18.9608 8.29782 18.9883 7.85894L18.9889 7.84872C19.0138 7.45081 19.039 7.04657 19.0473 6.27109L19.288 6.27223M19.6199 5.93932L19.6857 5.78749M19.6199 5.93932L19.6857 5.78749M19.6857 5.78749C19.7063 5.79645 19.7251 5.80954 19.7409 5.82602C19.7567 5.84249 19.7692 5.86203 19.7777 5.88352C19.7862 5.905 19.7905 5.92801 19.7904 5.95123L19.6198 5.95048L19.6196 5.95048L19.615 5.95046L19.611 5.95044L19.611 5.95044L19.6086 5.95043L19.2905 5.94901C19.2899 6.06379 19.2891 6.17124 19.288 6.27223M19.288 6.27223C19.2797 7.03058 19.2554 7.42466 19.231 7.82122L19.2308 7.82525C19.2023 8.28837 19.1736 8.75618 19.1692 9.76417L19.1692 9.7654C19.1689 9.90395 19.2108 10.0407 19.2912 10.1562C19.3719 10.272 19.488 10.3614 19.6251 10.4082L19.6251 10.4082L19.6282 10.4092C19.8843 10.4948 20.1232 10.631 20.3315 10.8112M19.288 6.27223L20.3315 10.8112M20.3315 10.8112C21.1069 11.4907 21.2725 12.7134 20.6915 13.5961C19.987 14.6662 18.514 14.8069 17.6404 13.9079L17.6403 13.9078C16.5583 12.7949 17.006 10.9073 18.4174 10.4256L20.3315 10.8112ZM17.7973 13.6716L17.7978 13.6721C18.4787 14.378 19.6096 14.3844 20.2882 13.6728L20.2891 13.6718C20.6115 13.332 20.789 12.878 20.7883 12.4086C20.7876 11.9393 20.6089 11.4857 20.2854 11.1469L20.2854 11.1469L20.2837 11.1451C19.6038 10.4399 18.4719 10.438 17.7929 11.1461L17.792 11.147C17.4684 11.4862 17.2903 11.9407 17.2913 12.4104C17.2923 12.8801 17.4723 13.3338 17.7973 13.6716Z" fill="#393939" stroke="#393939"/>
</svg>
