<svg width="20" height="25" viewBox="0 0 20 25" fill="none" xmlns="http://www.w3.org/2000/svg">
<path fill-rule="evenodd" clip-rule="evenodd" d="M19.9645 9.60034C19.9622 9.1469 19.96 8.69312 19.96 8.23875H19.9631V3.6121C19.9631 2.77918 19.6277 2.35422 18.8109 2.14869C18.1633 1.98559 17.5157 1.82214 16.8682 1.65869C14.7734 1.12993 12.6786 0.601189 10.581 0.0841655C10.2706 0.00767288 9.91252 -0.0355957 9.60984 0.0378063C7.38701 0.581403 5.1685 1.14164 2.95054 1.70173C2.34066 1.85574 1.73083 2.00974 1.12096 2.16337C0.335419 2.36426 0.00622294 2.79077 0.00622294 3.59433C0.00601353 4.35099 0.00456736 5.10703 0.00312191 5.8627C-0.00081712 7.922 -0.00475085 9.97852 0.016364 12.0371C0.0265573 12.9699 0.102147 13.9009 0.242589 14.8233C0.62405 17.3437 1.92133 19.3734 3.84112 21.0215C5.34278 22.3111 7.01606 23.3681 8.75565 24.32C9.57162 24.7635 10.4016 24.8029 11.1942 24.32C12.5086 23.5195 13.8184 22.7074 15.0884 21.8398C16.5669 20.8419 17.7884 19.5145 18.6549 17.9641C19.5778 16.3091 19.9179 14.5003 19.9545 12.6328C19.9745 11.6218 19.9695 10.6119 19.9645 9.60034ZM18.2031 10.1213C18.2012 9.75423 18.1994 9.38689 18.1994 9.01907H18.2019V5.27369C18.2019 4.59942 17.9257 4.25541 17.2531 4.08903C16.7197 3.957 16.1865 3.82468 15.6532 3.69237C13.928 3.26432 12.2029 2.83629 10.4755 2.41774C10.2198 2.35582 9.92497 2.32079 9.67571 2.38021C7.84515 2.82027 6.01815 3.27379 4.1916 3.72719C3.68934 3.85187 3.18712 3.97654 2.68487 4.10091C2.03795 4.26354 1.76684 4.6088 1.76684 5.2593C1.76667 5.87184 1.76548 6.48387 1.76429 7.09561C1.76105 8.76266 1.75781 10.4275 1.7752 12.0939C1.78359 12.8491 1.84584 13.6027 1.9615 14.3494C2.27564 16.3897 3.34399 18.0329 4.92499 19.367C6.16166 20.411 7.53965 21.2666 8.97225 22.0372C9.64423 22.3962 10.3278 22.4281 10.9805 22.0372C12.0629 21.3892 13.1416 20.7318 14.1874 20.0294C15.405 19.2216 16.411 18.1471 17.1246 16.892C17.8846 15.5522 18.1647 14.088 18.1949 12.5762C18.2113 11.7577 18.2072 10.9402 18.2031 10.1213Z" fill="#393939"/>
<path d="M17.0269 9.79999C17.0269 10.8136 17.0434 11.823 17.0231 12.834C16.9972 14.1235 16.7571 15.3724 16.1057 16.5151C15.4941 17.5856 14.6318 18.5022 13.5881 19.1912C12.6917 19.7903 11.7671 20.351 10.8393 20.9037C10.2798 21.2371 9.69394 21.2099 9.11796 20.9037C7.89001 20.2464 6.70887 19.5166 5.64888 18.6262C4.29373 17.4882 3.37801 16.0867 3.10874 14.3465C3.0096 13.7095 2.95625 13.0667 2.94905 12.4227C2.92868 10.4797 2.94134 8.53933 2.94189 6.59313C2.94189 6.03829 3.17427 5.7438 3.72877 5.60509C5.72487 5.1132 7.72041 4.61598 9.72092 4.13743C9.93457 4.08675 10.1873 4.11663 10.4065 4.16944C12.3448 4.63679 14.2797 5.118 16.2158 5.59495C16.7923 5.73686 17.0291 6.03029 17.0291 6.6054V9.79999H17.0269Z" fill="#393939"/>
</svg>
