<svg width="24" height="20" viewBox="0 0 24 20" fill="none" xmlns="http://www.w3.org/2000/svg">
<path d="M11.9994 2.95104C12.2246 2.69861 12.4219 2.46493 12.6317 2.24278C13.766 1.04335 15.1381 0.246381 16.8091 0.0473177C19.6799 -0.295273 22.4035 1.24386 23.4892 3.96944C24.2923 5.97738 24.1274 7.94421 23.1418 9.85839C22.3048 11.4862 21.1271 12.8573 19.808 14.1253C17.9081 15.9558 15.7962 17.5259 13.5452 18.9165C12.5478 19.5324 11.462 19.5454 10.4675 18.9266C7.7145 17.2129 5.1396 15.2764 2.97251 12.8681C1.82345 11.5908 0.845164 10.2053 0.314432 8.55943C-0.608644 5.68528 0.535264 2.33294 3.29124 0.797411C5.49441 -0.428703 8.27689 -0.239016 10.3682 1.36142C10.8834 1.75594 11.3133 2.26009 11.7815 2.7152C11.8521 2.78227 11.9118 2.85728 11.9994 2.95104Z" fill="#393939"/>
</svg>
