<svg width="26" height="21" viewBox="0 0 26 21" fill="none" xmlns="http://www.w3.org/2000/svg">
<path d="M12.9993 3.19696C13.2433 2.92349 13.4571 2.67034 13.6843 2.42968C14.9132 1.1303 16.3996 0.266913 18.2098 0.0512609C21.3199 -0.319879 24.2704 1.34752 25.4467 4.30023C26.3167 6.4755 26.1381 8.60623 25.0703 10.6799C24.1636 12.4434 22.8877 13.9288 21.4586 15.3024C19.4004 17.2854 17.1126 18.9864 14.674 20.4929C13.5934 21.1601 12.4172 21.1742 11.3398 20.5038C8.35738 18.6473 5.5679 16.5494 3.22022 13.9405C1.9754 12.5567 0.915595 11.0558 0.340635 9.27272C-0.659364 6.15905 0.57987 2.52735 3.56551 0.863862C5.95227 -0.464428 8.96663 -0.258934 11.2322 1.47488C11.7904 1.90227 12.2561 2.44843 12.7633 2.94146C12.8398 3.01413 12.9044 3.09539 12.9993 3.19696Z" fill="#393939"/>
</svg>
