<svg width="18" height="16" viewBox="0 0 18 16" fill="none" xmlns="http://www.w3.org/2000/svg">
<path d="M8.99953 2.68003C9.16846 2.48469 9.31642 2.30387 9.47376 2.13197C10.3245 1.20384 11.3536 0.587136 12.6068 0.433099C14.7599 0.167999 16.8026 1.359 17.6169 3.46807C18.2192 5.02184 18.0956 6.54379 17.3563 8.025C16.7286 9.28465 15.8453 10.3456 14.856 11.3268C13.4311 12.7432 11.8472 13.9582 10.1589 15.0342C9.41083 15.5109 8.59651 15.5209 7.85065 15.0421C5.78588 13.716 3.8547 12.2175 2.22938 10.354C1.36759 9.36557 0.633873 8.29345 0.235824 7.01985C-0.456483 4.79581 0.401448 2.20173 2.46843 1.01353C4.12081 0.06475 6.20766 0.211532 7.77612 1.44997C8.16258 1.75525 8.48499 2.14537 8.83611 2.49753C8.88911 2.54943 8.93383 2.60748 8.99953 2.68003Z" fill="#393939"/>
<path d="M11.2969 3.42702C11.5644 3.31238 11.7398 3.01331 11.9928 2.86341C12.1802 2.75231 12.4069 2.64016 12.6254 2.61037C13.2421 2.52627 14.1679 2.53111 14.7101 2.88354C15.3699 3.31238 15.8517 3.99697 15.8517 4.82452" stroke="white" stroke-linecap="round"/>
</svg>
