<svg width="42" height="32" viewBox="0 0 42 32" fill="none" xmlns="http://www.w3.org/2000/svg">
<path fill-rule="evenodd" clip-rule="evenodd" d="M22.532 8.40626C23.3573 7.45574 24.5926 7.18944 25.6981 7.66849C25.7424 7.68469 25.788 7.69771 25.8344 7.70746L28.1577 9.36694C28.4618 9.71467 28.7234 10.0879 28.8455 10.5515C29.067 11.3931 28.9193 12.1784 28.4057 12.9018C27.1527 14.6681 25.8929 16.4291 24.6262 18.1847C24.5278 18.3182 24.3697 18.4264 24.2184 18.5016C18.9484 21.1355 13.6772 23.7649 8.40479 26.39C8.26675 26.4586 8.11639 26.5002 7.96606 26.5417C7.8964 26.561 7.82674 26.5803 7.75832 26.6022L7.5614 26.4616C7.18324 25.6692 6.80568 24.8769 6.42871 24.0845C6.22536 23.6573 6.25445 23.5358 6.63896 23.2339C6.62729 23.2021 6.6157 23.1699 6.60403 23.1373L6.60403 23.1373L6.60403 23.1373C6.58076 23.0725 6.55714 23.0067 6.53179 22.9418L3.91015 16.2418C3.72023 15.7557 3.7757 15.614 4.24704 15.3704C5.09819 14.931 5.9499 14.4922 6.80216 14.054C7.71758 13.586 8.49542 13.7527 9.0934 14.5426C9.18719 14.6667 9.28214 14.79 9.38482 14.9233L9.38487 14.9234L9.38511 14.9237L9.38518 14.9238C9.43537 14.9889 9.4874 15.0565 9.54206 15.1277C9.55417 15.0907 9.56532 15.0577 9.57558 15.0274C9.59645 14.9656 9.61361 14.9148 9.62759 14.8639C9.93221 13.743 10.2388 12.622 10.5474 11.5011C10.8153 10.5307 11.6697 10.193 12.4497 10.7664C12.6803 10.9385 12.9588 11.0354 13.2501 11.0448C15.4227 11.1712 17.5952 11.3023 19.7676 11.438C19.9247 11.4478 20.0349 11.4227 20.1482 11.2831C20.2642 11.1407 20.3801 10.9982 20.496 10.8557L20.4973 10.854C21.1668 10.0306 21.8364 9.20709 22.532 8.40626ZM19.0189 12.843C19.4692 12.8158 19.4718 12.8157 19.5937 12.3084L13.0748 11.9148L13.0797 13.1744L13.1877 13.1697C13.2766 13.1658 13.3578 13.1623 13.439 13.1577C15.2965 13.052 17.1545 12.9472 19.0129 12.8434L19.0189 12.843ZM27.6334 12.5098C27.7369 12.3665 27.8286 12.215 27.9075 12.057C28.274 11.3075 28.0303 10.3271 27.3689 9.9441L27.1988 10.1823C26.8858 10.6204 26.573 11.0587 26.2602 11.497L26.2599 11.4975C25.134 13.0752 24.008 14.653 22.8734 16.2245C22.7258 16.4254 22.5329 16.5881 22.312 16.6982C17.3952 19.0613 12.4776 21.4217 7.55909 23.7794C7.52176 23.7973 7.48521 23.8163 7.44648 23.8364L7.44647 23.8364L7.44646 23.8364L7.44644 23.8364C7.40808 23.8563 7.3676 23.8774 7.32213 23.8996L8.11327 25.5649C8.14145 25.5518 8.16753 25.5399 8.19213 25.5286C8.24441 25.5048 8.29008 25.4839 8.33533 25.4613C13.4738 22.9033 18.6106 20.3413 23.7458 17.7752C23.8762 17.7061 23.9896 17.6068 24.0763 17.4857C25.2652 15.829 26.4509 14.1703 27.6334 12.5098ZM19.0526 17.3135L18.9208 16.5415C18.9136 16.4993 18.907 16.457 18.9004 16.4147C18.8832 16.3036 18.866 16.1926 18.8371 16.085C18.767 15.8229 18.561 15.691 18.3193 15.7369C18.2619 15.7474 18.2069 15.7691 18.1575 15.8009C18.1081 15.8327 18.0654 15.874 18.0317 15.9222C17.998 15.9704 17.974 16.0247 17.9612 16.082C17.9483 16.1393 17.9468 16.1984 17.9567 16.256C18.0106 16.6518 18.0803 17.0452 18.1499 17.4386L18.1499 17.4386L18.1792 17.6043C18.1851 17.6377 18.1925 17.6708 18.2009 17.7036L18.9397 17.3483L18.9423 17.3663L19.0526 17.3135ZM16.4089 18.5743L16.3923 18.2275C16.3687 17.736 16.3457 17.254 16.3219 16.7721C16.3206 16.6861 16.3121 16.6005 16.2963 16.5162C16.2779 16.409 16.2203 16.3131 16.1348 16.2472C16.0492 16.1812 15.9419 16.15 15.8337 16.1595C15.7251 16.1641 15.6217 16.2102 15.5448 16.2884C15.4679 16.3666 15.4232 16.471 15.42 16.5801C15.4106 16.7615 15.4202 16.9434 15.4297 17.1253L15.4297 17.1254L15.4297 17.1255C15.4324 17.1759 15.435 17.2263 15.4372 17.2766C15.4581 17.7436 15.4802 18.2103 15.5024 18.6806L15.517 18.991L16.3723 18.5795L16.3726 18.5916L16.4089 18.5743ZM13.958 19.7404L13.8208 17.7088C13.8167 17.6468 13.8132 17.5849 13.8097 17.523L13.8097 17.523L13.8097 17.523C13.8016 17.3789 13.7934 17.2352 13.7779 17.0905C13.7468 16.7737 13.5561 16.5852 13.2952 16.6033C13.0238 16.6221 12.8523 16.8471 12.8734 17.1797L12.8734 17.1798C12.9354 18.1503 12.9973 19.1208 13.0739 20.0902C13.076 20.1169 13.0767 20.1416 13.0759 20.1644L13.958 19.7404ZM12.2285 20.5719C12.1218 20.5323 12.0154 20.4622 11.904 20.3642C11.4348 19.9421 10.9345 19.5561 10.4072 19.2094C9.48319 18.6133 8.46859 18.5606 7.4223 18.9056C7.18768 18.983 6.95289 19.0601 6.71702 19.1376C6.50568 19.207 6.29348 19.2767 6.07979 19.3471L6.43087 20.2452C6.6579 20.178 6.88221 20.1079 7.10501 20.0383L7.10505 20.0383L7.10506 20.0383C7.63402 19.8731 8.15451 19.7106 8.68285 19.5941C9.2463 19.4698 9.78994 19.6388 10.2495 19.9714C10.5466 20.1857 10.8329 20.4153 11.1315 20.6548L11.1315 20.6548C11.2472 20.7475 11.3646 20.8417 11.4853 20.9371L11.5651 20.8989L11.5584 20.8941L12.2285 20.5719ZM5.67019 18.2995C5.94843 18.1761 6.22659 18.0525 6.50474 17.9288L6.50492 17.9288L6.50498 17.9287L6.50504 17.9287C7.4403 17.513 8.37552 17.0973 9.31374 16.6902L9.39944 16.653C9.45395 16.6294 9.50379 16.6037 9.54933 16.5756L8.95628 15.8171L5.38779 17.5773L5.67019 18.2995ZM11.71 11.3794C11.8474 11.4931 11.9658 11.6527 11.9677 11.757C11.9723 12.0153 11.9762 12.2736 11.9801 12.532C11.9847 12.842 11.9894 13.1521 11.9953 13.4619C12.0007 13.7264 12.0953 13.8193 12.2598 13.8464C12.2269 13.7618 12.2124 13.6511 12.2115 13.5097C12.2098 13.2113 12.2094 12.9128 12.209 12.6142L12.209 12.6136C12.2086 12.365 12.2083 12.1163 12.2072 11.8678C12.2064 11.7008 11.9002 11.3908 11.7103 11.3794L11.71 11.3794Z" fill="#393939"/>
<path fill-rule="evenodd" clip-rule="evenodd" d="M37.4187 6.57129C37.0338 5.90462 36.0716 5.90462 35.6867 6.57129L31.4792 13.8588C31.0943 14.5255 31.5754 15.3588 32.3452 15.3588H34.6043C34.5992 15.416 34.5967 15.4739 34.5967 15.5324V27.4882C34.5967 28.5704 35.474 29.4477 36.5562 29.4477C37.6384 29.4477 38.5157 28.5704 38.5157 27.4882V15.5324C38.5157 15.4739 38.5132 15.416 38.5082 15.3588H40.7602C41.53 15.3588 42.0111 14.5255 41.6262 13.8588L37.4187 6.57129Z" fill="#393939"/>
<path fill-rule="evenodd" clip-rule="evenodd" d="M28.4457 18.3281C28.0608 17.6615 27.0985 17.6615 26.7136 18.3281L24.9636 21.3592C24.5787 22.0259 25.0598 22.8592 25.8296 22.8592H26.4775V28.648C26.4775 29.2003 26.9252 29.648 27.4775 29.648H27.7751C28.3274 29.648 28.7751 29.2003 28.7751 28.648V22.8592H29.3297C30.0995 22.8592 30.5806 22.0259 30.1957 21.3592L28.4457 18.3281Z" fill="#393939"/>
<path fill-rule="evenodd" clip-rule="evenodd" d="M20.9496 22.248C20.5647 21.5814 19.6024 21.5814 19.2175 22.248L17.4675 25.2792C17.0826 25.9458 17.5637 26.7792 18.3335 26.7792H19.0026V28.5855C19.0026 29.1266 19.4413 29.5653 19.9824 29.5653C20.5235 29.5653 20.9621 29.1266 20.9621 28.5855V26.7792H21.8336C22.6034 26.7792 23.0845 25.9458 22.6996 25.2792L20.9496 22.248Z" fill="#393939"/>
</svg>
