<svg width="30" height="23" viewBox="0 0 30 23" fill="none" xmlns="http://www.w3.org/2000/svg">
<path fill-rule="evenodd" clip-rule="evenodd" d="M29.9449 15.8924C29.652 14.4663 28.5686 13.4368 27.116 13.2926C25.892 13.1708 24.6641 13.0907 23.4364 13.0106C23.2231 12.9967 23.0098 12.9828 22.7965 12.9686C22.5885 12.9551 22.4906 12.8643 22.3939 12.7026C21.0584 10.4671 19.7184 8.23463 18.3738 6.00534C18.1864 5.71173 18.0902 5.3692 18.0973 5.02096C18.1125 3.84909 17.2184 3.24498 16.1227 3.66393C14.8574 4.14869 13.5936 4.63541 12.3311 5.12409C12.2737 5.14609 12.2142 5.16493 12.1419 5.18786C12.1063 5.19912 12.0677 5.21136 12.0246 5.22545C12.0548 5.1221 12.0833 5.02385 12.1108 4.92908L12.1111 4.92788L12.1113 4.92745L12.1113 4.92742L12.1114 4.92713L12.1114 4.92706C12.168 4.73196 12.2203 4.55158 12.2742 4.37174C12.6164 3.22682 12.2496 2.34323 11.1914 1.77077C10.2039 1.23952 9.21621 0.709242 8.22832 0.179945C7.68105 -0.113024 7.50996 -0.0679064 7.17949 0.461195L2.62617 7.75846C2.58209 7.82907 2.53592 7.89865 2.49045 7.96719L2.49044 7.9672L2.49042 7.96723L2.49039 7.96727C2.46759 8.00164 2.44496 8.03575 2.42285 8.06959C1.8791 7.90319 1.74492 7.96002 1.47891 8.461C0.985547 9.3899 0.492578 10.3194 0 11.2495V11.5424C0.0668003 11.5944 0.131896 11.6495 0.197001 11.7045C0.337478 11.8234 0.477992 11.9423 0.635742 12.0299C6.66387 15.3768 12.6953 18.7194 18.7301 22.0577C18.9029 22.1538 19.1115 22.2335 19.3037 22.2364C21.8131 22.2489 24.3229 22.2508 26.833 22.2422C27.8613 22.2393 28.7016 21.8321 29.3461 21.0217C29.7012 20.5753 29.877 20.0549 30 19.5106V16.0542C29.9779 16.0016 29.9595 15.9476 29.9449 15.8924ZM21.4559 13.1438C20.8953 13.3807 20.8934 13.3782 20.5644 12.9538L20.56 12.9481C19.21 11.1903 17.8594 9.43366 16.5082 7.67819C16.4492 7.60148 16.3911 7.52385 16.3276 7.439L16.2504 7.336L17.4352 6.44479L21.4559 13.1438ZM27.2941 21.1571C27.092 21.1906 26.8873 21.2068 26.6824 21.2057C24.3195 21.2092 21.9563 21.2083 19.5926 21.2028C19.42 21.2026 19.2499 21.1608 19.0969 21.0809C13.2168 17.8278 7.33945 14.5702 1.46484 11.3081C1.41305 11.2794 1.36261 11.2491 1.30488 11.2144L1.30474 11.2143L1.30416 11.2139L1.30397 11.2138C1.27706 11.1977 1.24855 11.1805 1.21758 11.1622L2.25527 9.211C2.30688 9.24016 2.35399 9.26525 2.39862 9.28902C2.44368 9.31303 2.48622 9.33569 2.52832 9.35983C8.06582 12.5462 13.6053 15.7297 19.1467 18.9106C19.3993 19.0508 19.6828 19.1263 19.9717 19.1303C22.2186 19.1423 24.4655 19.1413 26.7125 19.1403C27.3366 19.14 27.9608 19.1397 28.585 19.1397H28.9242C29.0086 20.0608 28.248 20.9907 27.2941 21.1571ZM17.0096 15.4588L16.3699 16.1323L16.2463 16.0612L16.2615 16.046L15.4281 15.5679C15.4536 15.5363 15.4799 15.5056 15.5075 15.4762L15.6441 15.3307L15.6442 15.3306C15.9683 14.9852 16.2924 14.6398 16.6294 14.3082C16.677 14.2579 16.7338 14.2178 16.7964 14.1902C16.8591 14.1625 16.9265 14.1479 16.9947 14.1472C17.0629 14.1464 17.1306 14.1596 17.1938 14.1858C17.2571 14.2121 17.3147 14.2509 17.3633 14.3001C17.5694 14.506 17.5838 14.8017 17.3838 15.0553C17.3018 15.1594 17.2087 15.2544 17.1155 15.3496L17.1155 15.3496L17.1155 15.3496L17.1154 15.3496C17.08 15.3859 17.0445 15.4221 17.0096 15.4588ZM13.7161 14.1541L13.3994 14.4151L13.3594 14.3919L13.3705 14.3831L12.4056 13.8297L12.6885 13.5968C13.1173 13.2439 13.5428 12.8936 13.9693 12.5444C14.0153 12.5068 14.061 12.4687 14.1067 12.4306L14.1068 12.4306L14.1069 12.4305L14.1069 12.4305L14.107 12.4305L14.107 12.4304L14.107 12.4304C14.2721 12.2931 14.4372 12.1557 14.6146 12.0373C14.7197 11.9637 14.8483 11.9342 14.9738 11.955C15.0994 11.9757 15.2125 12.0451 15.29 12.1489C15.3719 12.2488 15.4148 12.3765 15.4102 12.5071C15.4056 12.6378 15.354 12.762 15.2653 12.8556C15.1964 12.9304 15.1214 12.9991 15.0412 13.0608C14.6028 13.4233 14.1638 13.7851 13.7161 14.1541ZM12.4726 11.2561L10.6484 12.8212L9.65416 12.2506C9.67636 12.2351 9.69924 12.217 9.72325 12.196C10.5861 11.4384 11.4597 10.6944 12.3334 9.95047C12.6329 9.69567 12.9606 9.70621 13.1613 9.96039C13.3541 10.2047 13.3047 10.5252 13.0269 10.7787C12.9009 10.8958 12.7708 11.005 12.6404 11.1144C12.5844 11.1614 12.5284 11.2084 12.4726 11.2561ZM8.67666 11.2363C8.65916 11.4153 8.66483 11.5697 8.69955 11.7028L7.94414 11.2694V11.2794L7.84891 11.2245C7.85756 11.039 7.86725 10.8573 7.87679 10.6786L7.87679 10.6785C7.90147 10.2159 7.92513 9.77229 7.92715 9.32871C7.93125 8.64199 7.72441 7.9875 7.22754 7.51992C6.76168 7.08142 6.25771 6.68304 5.74554 6.27818L5.74553 6.27817L5.74552 6.27816C5.53125 6.10879 5.31554 5.93827 5.10059 5.76322L5.71244 4.78334C5.92274 4.94417 6.1313 5.10408 6.33901 5.26335C6.57096 5.44119 6.80186 5.61824 7.03296 5.79486C8.06329 6.58283 8.69714 7.61941 8.7574 8.94923C8.78561 9.71259 8.75863 10.477 8.67666 11.2363ZM7.3363 4.20379C7.03237 4.01681 6.72843 3.82983 6.42464 3.64261L6.91379 2.85907L10.979 5.13627L10.664 6.25088C10.6067 6.22576 10.5488 6.19467 10.4897 6.15754L10.3969 6.09926C9.38072 5.46149 8.35855 4.83266 7.33634 4.20381L7.33633 4.2038L7.33631 4.20379L7.3363 4.20379ZM16.8379 5.24247C16.9349 5.1672 17.0057 4.9385 17.0205 4.72319L17.0209 4.72389C17.1381 4.91901 17.052 5.43873 16.8949 5.55709C16.6611 5.73314 16.4266 5.90858 16.1922 6.08402C15.9109 6.29455 15.6295 6.50508 15.3492 6.71666C15.2165 6.81703 15.1219 6.90911 15.0642 7.00104C14.9786 6.81968 15.0023 6.66097 15.2484 6.46938C15.5366 6.24552 15.8259 6.02277 16.1152 5.80002C16.3563 5.61438 16.5974 5.42875 16.8379 5.24247ZM0 15.3506C0.170508 15.0734 0.419531 14.9873 0.740625 14.9937C1.18038 15.0032 1.62014 15.0017 2.05989 15.0003C2.38186 14.9992 2.70382 14.9981 3.02578 15.0013C3.46758 15.006 3.72891 15.3529 3.57246 15.715C3.47637 15.9406 3.28359 16.0326 3.05684 16.0343C2.22715 16.0408 1.39687 16.039 0.567187 16.0343C0.292969 16.0326 0.113086 15.882 0 15.6435V15.3506ZM0.738867 18.0989C0.418359 18.0971 0.168164 18.1751 0 18.4563V18.7493C0.136523 19.0639 0.394922 19.1442 0.713086 19.1442C2.81973 19.1419 4.92637 19.1407 7.03301 19.1407C7.14009 19.1416 7.24695 19.131 7.35176 19.109C7.60371 19.0545 7.73555 18.887 7.74316 18.6333C7.75137 18.3596 7.60371 18.1926 7.34941 18.1253C7.24428 18.1048 7.13696 18.098 7.03008 18.1047C6.40669 18.1044 5.78331 18.1046 5.15993 18.1048C3.68624 18.1054 2.21255 18.1059 0.738867 18.0989ZM0.738867 21.2022C0.417773 21.2016 0.166992 21.2772 0 21.5607V21.8537C0.143555 22.1836 0.420117 22.2463 0.744727 22.2463C4.72637 22.2439 8.70938 22.2428 12.6938 22.2428C12.8105 22.2442 12.9271 22.2338 13.0418 22.2117C13.2955 22.1578 13.4256 21.9873 13.432 21.7342C13.4391 21.4611 13.2943 21.2918 13.0371 21.2268C12.9316 21.2079 12.8242 21.2014 12.7172 21.2074C8.72422 21.2113 4.73145 21.2096 0.738867 21.2022Z" fill="#393939"/>
</svg>
