<svg width="33" height="25" viewBox="0 0 33 25" fill="none" xmlns="http://www.w3.org/2000/svg">
<path fill-rule="evenodd" clip-rule="evenodd" d="M32.9394 17.4817C32.6171 15.9129 31.4254 14.7805 29.8276 14.6219C28.4812 14.4879 27.1305 14.3998 25.78 14.3116C25.5454 14.2963 25.3107 14.281 25.0761 14.2655C24.8473 14.2507 24.7397 14.1507 24.6333 13.9729C23.1642 11.5138 21.6902 9.05809 20.2112 6.60587C20.0051 6.28291 19.8992 5.90612 19.907 5.52306C19.9237 4.23399 18.9402 3.56948 17.7349 4.03032C16.3432 4.56356 14.9529 5.09895 13.5642 5.63649C13.5011 5.6607 13.4356 5.68142 13.356 5.70664L13.356 5.70665C13.3169 5.71904 13.2744 5.7325 13.2271 5.748C13.2604 5.63387 13.2919 5.5254 13.3222 5.42078L13.3224 5.42007C13.3847 5.20534 13.4423 5.00684 13.5016 4.80892C13.878 3.5495 13.4746 2.57755 12.3105 1.94784C11.2243 1.36347 10.1378 0.780166 9.05115 0.19794C8.44916 -0.124326 8.26096 -0.0746971 7.89744 0.507315L2.88879 8.5343C2.84029 8.61198 2.78951 8.68852 2.73949 8.76391L2.73947 8.76394C2.71437 8.80177 2.68947 8.8393 2.66514 8.87655C2.06701 8.6935 1.91941 8.75602 1.6268 9.3071C1.0841 10.3289 0.541836 11.3513 0 12.3744V12.6967C0.0734806 12.7538 0.145087 12.8144 0.216701 12.875C0.371226 13.0057 0.525791 13.1365 0.699316 13.2329C7.33025 16.9145 13.9648 20.5913 20.6031 24.2634C20.7932 24.3691 21.0227 24.4568 21.2341 24.46C23.9944 24.4738 26.7551 24.4759 29.5163 24.4665C30.6475 24.4632 31.5717 24.0153 32.2807 23.1239C32.6713 22.6328 32.8646 22.0604 33 21.4617V17.6596C32.9757 17.6017 32.9555 17.5423 32.9394 17.4817ZM23.6014 14.4582C22.9848 14.7187 22.9827 14.716 22.6208 14.2491L22.616 14.2429C21.131 12.3093 19.6453 10.377 18.159 8.446C18.0944 8.36197 18.0307 8.27694 17.9612 8.18405L17.9606 8.18332L17.9604 8.18298L17.9604 8.18295L17.8754 8.0696L19.1787 7.08927L23.6014 14.4582ZM30.0236 23.2728C29.8012 23.3096 29.5761 23.3275 29.3507 23.3263C26.7515 23.3302 24.1519 23.3291 21.5518 23.3231C21.3619 23.3228 21.1749 23.2768 21.0066 23.189C14.5385 19.6106 8.0734 16.0272 1.61133 12.4389C1.55436 12.4073 1.49889 12.374 1.43539 12.3358C1.40548 12.3179 1.3738 12.2988 1.33934 12.2784L2.4808 10.1321C2.53757 10.1642 2.58939 10.1918 2.63848 10.2179L2.63849 10.2179C2.68806 10.2443 2.73485 10.2693 2.78115 10.2958C8.8724 13.8008 14.9658 17.3027 21.0613 20.8017C21.3393 20.9559 21.651 21.0389 21.9688 21.0434C24.4405 21.0565 26.9122 21.0554 29.3838 21.0543C30.0704 21.054 30.7569 21.0537 31.4435 21.0537H31.8166C31.9095 22.0669 31.0728 23.0898 30.0236 23.2728ZM18.7086 17.0048L18.0056 17.7449L17.8709 17.6673L17.8877 17.6506L16.9696 17.1239C16.9974 17.0895 17.0261 17.056 17.0563 17.0239L17.2065 16.8639L17.2066 16.8638C17.5631 16.4838 17.9196 16.1039 18.2904 15.7391C18.3427 15.6838 18.4052 15.6397 18.4741 15.6093C18.5431 15.5789 18.6172 15.5628 18.6922 15.562C18.7673 15.5612 18.8417 15.5756 18.9113 15.6045C18.9808 15.6334 19.0442 15.6761 19.0977 15.7302C19.3243 15.9567 19.3402 16.282 19.1202 16.5609C19.03 16.6754 18.9276 16.78 18.8251 16.8846C18.7861 16.9245 18.747 16.9644 18.7086 17.0048ZM15.0864 15.569L14.7383 15.8559L14.6953 15.831L14.7076 15.8214L13.645 15.212L13.9553 14.9566C14.427 14.5684 14.8951 14.1831 15.3642 13.7989C15.4149 13.7575 15.4653 13.7155 15.5157 13.6736C15.6973 13.5225 15.879 13.3714 16.0741 13.2411C16.1897 13.1601 16.3311 13.1277 16.4693 13.1506C16.6074 13.1734 16.7318 13.2497 16.817 13.3638C16.9071 13.4738 16.9543 13.6143 16.9493 13.758C16.9442 13.9017 16.8874 14.0383 16.7899 14.1413C16.7141 14.2236 16.6316 14.2991 16.5433 14.367C16.0616 14.7653 15.5791 15.163 15.0872 15.5684L15.0864 15.569ZM13.7179 12.3818L11.7121 14.1027L10.6186 13.475C10.6427 13.4582 10.6676 13.4385 10.6936 13.4157C11.6427 12.5823 12.6037 11.764 13.5647 10.9457L13.5648 10.9456C13.8942 10.6653 14.2547 10.6769 14.4754 10.9565C14.6875 11.2252 14.6332 11.5778 14.3276 11.8567C14.189 11.9855 14.0459 12.1056 13.9025 12.2259C13.8409 12.2776 13.7792 12.3294 13.7179 12.3818ZM9.54237 12.36C9.52319 12.5563 9.52932 12.7257 9.56718 12.8718L8.73855 12.3963V12.4073L8.6319 12.3459C8.6414 12.1422 8.65204 11.9428 8.66251 11.7465L8.66251 11.7464C8.68966 11.2375 8.71569 10.7495 8.71791 10.2616C8.72242 9.50619 8.4949 8.78625 7.94834 8.27191C7.4359 7.78957 6.88153 7.35134 6.31815 6.906L6.31813 6.90599L6.31803 6.90591C6.08279 6.71995 5.84598 6.53276 5.60999 6.34059L6.28301 5.26275C6.51384 5.43929 6.74277 5.61481 6.97076 5.78963L6.97096 5.78978L6.97134 5.79007L6.97213 5.79068C7.22688 5.98601 7.48048 6.18045 7.73431 6.37444C8.86766 7.24121 9.56491 8.38145 9.63118 9.84425C9.66222 10.6839 9.63253 11.5248 9.54237 12.36ZM8.068 4.62427C7.73412 4.41887 7.40023 4.21347 7.06652 4.00781L7.60563 3.14424L12.0771 5.64903L11.7302 6.87681C11.6666 6.84905 11.6023 6.81461 11.5367 6.77339L11.4346 6.70928C10.3168 6.00773 9.19244 5.31602 8.068 4.62427ZM18.5197 5.76682C18.6269 5.68367 18.7049 5.43035 18.7208 5.19264L18.723 5.19628C18.8519 5.41091 18.7571 5.98261 18.5844 6.1128C18.3272 6.30645 18.0693 6.49943 17.8114 6.6924C17.5019 6.924 17.1925 7.15559 16.8841 7.38833C16.7373 7.4994 16.6328 7.60123 16.5695 7.70296C16.4744 7.50274 16.4998 7.32777 16.7713 7.11641C17.0884 6.87017 17.4066 6.62514 17.7248 6.38011L17.7251 6.37987L17.7254 6.37963L17.7257 6.37939C17.9906 6.17544 18.2555 5.97148 18.5197 5.76682ZM0 16.8862C0.187559 16.5814 0.461484 16.4866 0.814687 16.4937C1.29842 16.5041 1.78215 16.5025 2.26588 16.5009C2.62004 16.4997 2.9742 16.4986 3.32836 16.5021C3.81434 16.5072 4.1018 16.8888 3.92971 17.2871C3.824 17.5353 3.61195 17.6365 3.36252 17.6384C2.44986 17.6455 1.53656 17.6436 0.623906 17.6384C0.322266 17.6365 0.124394 17.4708 0 17.2085V16.8862ZM0.812754 19.9092C0.460195 19.9073 0.18498 19.993 0 20.3024V20.6246C0.150176 20.9708 0.434414 21.0591 0.784394 21.0591C3.1017 21.0565 5.419 21.0552 7.73631 21.0552C7.85409 21.0562 7.97165 21.0446 8.08693 21.0204C8.36408 20.9604 8.5091 20.7761 8.51748 20.497C8.5265 20.196 8.36408 20.0123 8.08435 19.9382C7.9687 19.9158 7.85066 19.9082 7.73309 19.9157C7.04725 19.9153 6.36142 19.9155 5.67558 19.9158C4.05464 19.9163 2.4337 19.9169 0.812754 19.9092ZM0.812754 23.3232C0.459551 23.3226 0.183691 23.4057 0 23.7177V24.04C0.15791 24.4028 0.462129 24.4718 0.819199 24.4718C5.199 24.4692 9.58031 24.4679 13.9631 24.4679C14.0916 24.4695 14.2198 24.4581 14.346 24.4338C14.6251 24.3745 14.7681 24.1869 14.7752 23.9085C14.783 23.6081 14.6238 23.4219 14.3408 23.3503C14.2247 23.3296 14.1066 23.3225 13.9889 23.329C9.59664 23.3333 5.20459 23.3314 0.812754 23.3232Z" fill="#393939"/>
</svg>
