<svg width="39" height="25" viewBox="0 0 39 25" fill="none" xmlns="http://www.w3.org/2000/svg">
<path d="M38.3139 11.0149C37.9645 10.2711 37.4951 9.58985 36.9245 8.99847C35.5433 7.54835 33.8407 6.59716 32.0005 5.86655C31.4824 5.6615 31.2285 5.82139 31.1863 6.37953C31.1256 6.34844 31.0678 6.32253 31.0138 6.28996C29.1311 5.15987 27.2465 4.02856 25.3599 2.896C25.146 2.7672 24.9402 2.69318 24.7196 2.85085C24.499 3.00852 24.5086 3.21504 24.5582 3.44747C24.6522 3.88273 24.7314 4.32021 24.8232 4.79395C24.7048 4.7451 24.6293 4.71623 24.5553 4.6844C21.6565 3.44328 18.7585 2.20166 15.8612 0.959557C15.6547 0.870729 15.4586 0.818913 15.2631 0.96918C15.0677 1.11945 15.0611 1.31783 15.1003 1.5399C15.2158 2.20611 15.3142 2.87231 15.4371 3.52964C15.4748 3.73394 15.4438 3.80871 15.2239 3.84868C13.5118 4.16772 11.8026 4.50082 10.0911 4.8243C9.39681 4.95532 8.70099 5.07598 8.00592 5.20108L7.77052 5.43647C7.70316 5.7 7.79199 5.90504 7.96446 6.11379C8.63067 6.91546 9.27319 7.73415 9.93274 8.54026C10.1208 8.76974 9.88759 8.76233 9.79358 8.79564C7.76682 9.59657 5.73834 10.3931 3.70814 11.1851C2.79321 11.5434 1.87532 11.8943 0.958916 12.2481L0.763495 12.4435C0.71946 12.5971 0.71946 12.76 0.763495 12.9135L0.958916 13.1097C2.21731 13.5988 3.4757 14.0883 4.7341 14.5783C6.42108 15.2379 8.10585 15.9026 9.79506 16.5562C10.0075 16.6384 10.0393 16.6917 9.88018 16.8827C9.20287 17.6969 8.54777 18.5289 7.87564 19.3513C7.73277 19.5268 7.73277 19.7178 7.77126 19.9213L7.96669 20.1197C8.151 20.1597 8.3368 20.2026 8.52112 20.2381C10.7472 20.664 12.9736 21.0872 15.2002 21.5076C15.4127 21.5476 15.4852 21.5972 15.4378 21.8348C15.3098 22.4759 15.221 23.125 15.107 23.769C15.0662 23.997 15.0463 24.2132 15.2424 24.3805C15.4512 24.5559 15.6688 24.4878 15.8909 24.3923C18.1451 23.4226 20.4003 22.4541 22.6566 21.4869C23.3628 21.1842 24.0704 20.8836 24.824 20.5616C24.7248 21.0576 24.6382 21.5054 24.5464 21.9518C24.5005 22.1738 24.5234 22.3789 24.7263 22.5173C24.9291 22.6557 25.126 22.6076 25.3221 22.4892C26.7651 21.6206 28.2086 20.7536 29.6525 19.888L31.1951 18.9642C31.2077 19.5083 31.4912 19.6963 31.9613 19.5105C32.665 19.2387 33.3497 18.9202 34.011 18.5571C35.5847 17.6799 36.9719 16.5932 37.9416 15.0373C38.7366 13.7537 38.9683 12.4265 38.3139 11.0149ZM37.1821 14.4732C36.3879 15.7664 35.2686 16.7013 33.991 17.4726C33.5192 17.7584 33.0291 18.0129 32.5239 18.2343C32.4498 18.1603 32.5142 18.0937 32.5305 18.03C32.589 17.808 32.5372 17.6244 32.3514 17.4919C32.1656 17.3594 31.9909 17.3801 31.8081 17.4919C30.9005 18.0347 29.9925 18.579 29.084 19.1248L25.673 21.1701C25.7544 20.7644 25.8211 20.398 25.9017 20.0346C25.9513 19.7999 25.9802 19.5741 25.7655 19.4009C25.5509 19.2277 25.3392 19.3062 25.1186 19.4009C22.244 20.6347 19.369 21.8684 16.4934 23.1021C16.3935 23.1443 16.2928 23.1835 16.1625 23.2361C16.2632 22.6217 16.3602 22.0325 16.4586 21.4425C16.543 20.9288 16.4379 20.7822 15.9205 20.6838C13.7491 20.2707 11.5778 19.8567 9.40644 19.4416C9.31687 19.4246 9.2273 19.4054 9.08814 19.378C9.39385 18.9968 9.68032 18.6415 9.96309 18.2876C10.3502 17.8065 10.744 17.3305 11.123 16.8427C11.431 16.4467 11.3451 16.1558 10.8736 15.9707C8.18851 14.9151 5.50542 13.8613 2.8243 12.8092C2.73991 12.7766 2.65775 12.7403 2.55782 12.6989C2.63184 12.5923 2.73843 12.5841 2.82578 12.5508C5.48025 11.5056 8.13644 10.4619 10.7944 9.41966C10.8543 9.39597 10.9158 9.37599 10.9742 9.34564C11.3125 9.18797 11.4006 8.87411 11.166 8.57728C10.5553 7.80299 9.93274 7.03759 9.31539 6.26849C9.24728 6.18337 9.15846 6.11231 9.12441 5.99461C9.22582 5.92059 9.34648 5.92725 9.46195 5.90578C11.616 5.49273 13.7706 5.08116 15.9257 4.67108C16.4357 4.57485 16.5393 4.4268 16.4549 3.90864C16.3587 3.31645 16.2602 2.72945 16.1588 2.11432C17.891 2.85455 19.5898 3.58442 21.2886 4.31354C22.5653 4.8628 23.8417 5.4118 25.1178 5.96056C25.3399 6.05605 25.5524 6.13007 25.7648 5.9539C25.9773 5.77772 25.9454 5.55269 25.8958 5.31878C25.8218 4.96051 25.753 4.60075 25.6738 4.19363C26.5487 4.71179 27.3829 5.20922 28.2142 5.70814C29.366 6.39902 30.5166 7.09262 31.6659 7.78893C31.888 7.92069 32.1101 8.04579 32.3558 7.86295C32.6016 7.68012 32.5779 7.4425 32.4913 7.19082C32.4861 7.1775 32.4994 7.15751 32.512 7.11014C33.8592 7.72675 35.0939 8.48253 36.1325 9.53217C36.5458 9.95379 36.9081 10.4226 37.2117 10.929C37.9349 12.1178 37.9083 13.2896 37.1821 14.4732Z" fill="#393939"/>
<path d="M35.7408 12.1924C35.5059 11.7004 35.1918 11.2502 34.8111 10.86C34.0013 10.0176 33.0294 9.40839 31.9827 8.91095C29.9885 7.9679 27.8692 7.46158 25.707 7.11663C23.1902 6.71469 20.6482 6.5659 18.0996 6.54962C17.9138 6.54962 17.7984 6.50965 17.7199 6.32163C17.6366 6.1347 17.5001 5.97639 17.3276 5.86638C16.8516 5.5429 16.3482 5.49035 15.8382 5.75535C15.3282 6.02035 15.0773 6.46523 15.0765 7.03965C15.0736 9.24505 15.0736 11.4499 15.0765 13.6544C15.0765 15.2133 15.0713 16.7722 15.0765 18.3311C15.0765 19.0255 15.5118 19.5681 16.1587 19.7243C16.4655 19.8014 16.7894 19.7715 17.0768 19.6394C17.3642 19.5074 17.5979 19.2811 17.7391 18.9981C17.8257 18.8278 17.9309 18.8108 18.0863 18.8093C19.8762 18.7982 21.6631 18.7183 23.4448 18.5325C26.009 18.269 28.5369 17.8248 30.9537 16.8847C32.3284 16.3503 33.6104 15.6582 34.5809 14.7255C35.1101 14.1955 35.4692 13.7232 35.7327 13.1754C35.8115 13.0238 35.8533 12.8557 35.8547 12.6849C35.8561 12.514 35.8171 12.3453 35.7408 12.1924ZM16.9389 18.2542C16.9389 18.6169 16.7909 18.8027 16.5029 18.8086C16.215 18.8145 16.0447 18.6095 16.0447 18.2467C16.0447 14.5382 16.0447 10.8294 16.0447 7.12034C16.0447 6.89827 16.0751 6.69914 16.3201 6.60217C16.3989 6.56936 16.4853 6.55939 16.5695 6.5734C16.6536 6.58741 16.7322 6.62483 16.7961 6.68138C16.9404 6.82942 16.9441 7.00486 16.9441 7.18326C16.9441 10.2182 16.9441 13.2532 16.9441 16.2881C16.9389 16.9439 16.9389 17.6027 16.9389 18.2542ZM34.7785 12.9489C34.5688 13.286 34.3185 13.596 34.0331 13.872C32.9228 14.9453 31.5785 15.6115 30.1498 16.1312C27.6708 17.032 25.0881 17.4281 22.4744 17.659C21.0406 17.7848 19.603 17.8374 18.164 17.8626C17.979 17.8626 17.9175 17.8367 17.9183 17.6324C17.9242 14.3299 17.9242 11.0278 17.9183 7.72584C17.9183 7.57114 17.9183 7.48675 18.1285 7.48971C21.2042 7.53561 24.2643 7.73547 27.2778 8.39797C29.1742 8.81472 31.0144 9.39136 32.6814 10.4225C33.5112 10.9362 34.2515 11.5499 34.7756 12.3937C34.8932 12.5914 34.8984 12.7535 34.7785 12.9489Z" fill="#393939"/>
<path d="M34.7675 12.3943C34.2434 11.5504 33.5032 10.9368 32.6734 10.423C31.0079 9.39189 29.1676 8.81525 27.2697 8.3985C24.2577 7.73599 21.1976 7.53613 18.1204 7.49023C17.9139 7.49023 17.9095 7.57166 17.9102 7.72637C17.9137 11.0288 17.9137 14.331 17.9102 17.6329C17.9102 17.8372 17.9709 17.8661 18.156 17.8631C19.595 17.8379 21.0325 17.7891 22.4663 17.6595C25.0801 17.4286 27.6628 17.0326 30.1418 16.1317C31.5704 15.6135 32.9177 14.9473 34.025 13.8725C34.3123 13.5969 34.5644 13.2868 34.7756 12.9494C34.8956 12.754 34.8904 12.5919 34.7675 12.3943ZM32.9473 12.3395C32.9122 12.3887 32.8677 12.4304 32.8163 12.4621C32.7649 12.4938 32.7077 12.5149 32.648 12.5242C32.5884 12.5334 32.5274 12.5306 32.4689 12.5159C32.4103 12.5012 32.3552 12.475 32.307 12.4387C30.1011 10.839 27.528 10.2987 24.9165 9.86638C24.6841 9.82788 24.4331 9.84269 24.2466 9.67688C24.1067 9.50292 24.0645 9.32157 24.1615 9.12689C24.2037 9.03293 24.2774 8.95659 24.3697 8.91095C24.4621 8.8653 24.5675 8.85319 24.6678 8.87669C25.1778 8.95515 25.6893 9.0314 26.1956 9.12763C28.0669 9.48146 29.8968 9.97371 31.5919 10.8679C32.0236 11.0957 32.4355 11.3589 32.8236 11.6548C33.0553 11.8295 33.1049 12.1211 32.9473 12.3395Z" fill="#393939"/>
</svg>
