<svg width="57" height="35" viewBox="0 0 57 35" fill="none" xmlns="http://www.w3.org/2000/svg">
<path d="M55.4979 14.9745C54.9819 13.8762 54.2887 12.8703 53.4462 11.997C51.4065 9.85569 48.8925 8.4511 46.1751 7.37224C45.4099 7.06946 45.035 7.30556 44.9727 8.12974C44.8831 8.08383 44.7978 8.04557 44.718 7.99748C41.938 6.32873 39.1551 4.65816 36.3692 2.98577C36.0533 2.79557 35.7494 2.68627 35.4237 2.91909C35.098 3.15191 35.1122 3.45688 35.1854 3.8001C35.3242 4.44282 35.4412 5.08883 35.5767 5.78839C35.4018 5.71625 35.2903 5.67362 35.181 5.62662C30.9006 3.79391 26.6212 1.96047 22.343 0.126304C22.038 -0.00486448 21.7483 -0.0813791 21.4598 0.140513C21.1712 0.362406 21.1614 0.655348 21.2193 0.983268C21.3898 1.96703 21.5352 2.95079 21.7166 3.92143C21.7724 4.22312 21.7265 4.33352 21.4018 4.39254C18.8736 4.86365 16.3497 5.35553 13.8225 5.8332C12.7972 6.02668 11.7697 6.20485 10.7433 6.38958L10.3957 6.73717C10.2963 7.1263 10.4274 7.42908 10.6821 7.73733C11.6659 8.92112 12.6147 10.13 13.5886 11.3204C13.8662 11.6592 13.5219 11.6483 13.3831 11.6975C10.3903 12.8802 7.39491 14.0563 4.39699 15.2259C3.04596 15.755 1.69056 16.2731 0.337339 16.7956L0.048769 17.0841C-0.0162563 17.3109 -0.0162563 17.5514 0.048769 17.7782L0.337339 18.0679C2.19555 18.7901 4.05377 19.5129 5.91198 20.2365C8.40308 21.2105 10.8909 22.192 13.3853 23.1572C13.699 23.2785 13.746 23.3573 13.511 23.6393C12.5108 24.8416 11.5435 26.0702 10.551 27.2846C10.34 27.5437 10.34 27.8257 10.3968 28.1263L10.6854 28.4192C10.9576 28.4783 11.2319 28.5417 11.5041 28.5941C14.7913 29.223 18.0789 29.8479 21.3668 30.4687C21.6806 30.5278 21.7877 30.601 21.7177 30.9519C21.5286 31.8985 21.3975 32.8571 21.2291 33.8081C21.169 34.1447 21.1395 34.4639 21.4292 34.7109C21.7374 34.97 22.0588 34.8694 22.3867 34.7284C25.7154 33.2965 29.0456 31.8664 32.3773 30.4381C33.4201 29.9911 34.4651 29.5473 35.5778 29.0718C35.4313 29.8042 35.3035 30.4655 35.1679 31.1246C35.1001 31.4525 35.134 31.7553 35.4335 31.9597C35.733 32.1641 36.0238 32.093 36.3134 31.9181C38.4442 30.6356 40.5757 29.3553 42.7079 28.0771L44.9858 26.713C45.0044 27.5164 45.4231 27.794 46.1172 27.5196C47.1563 27.1183 48.1674 26.6479 49.1439 26.1118C51.4677 24.8165 53.5161 23.2119 54.948 20.9142C56.122 19.0189 56.4641 17.059 55.4979 14.9745ZM53.8266 20.0813C52.6537 21.9909 51.001 23.3715 49.1143 24.5104C48.4176 24.9325 47.6939 25.3082 46.9479 25.6352C46.8386 25.5259 46.9337 25.4275 46.9577 25.3335C47.0441 25.0056 46.9676 24.7345 46.6932 24.5389C46.4188 24.3432 46.1609 24.3738 45.8909 24.5389C44.5508 25.3404 43.21 26.1442 41.8684 26.9502L36.8316 29.9703C36.9518 29.3713 37.0502 28.8302 37.1693 28.2935C37.2425 27.947 37.2852 27.6136 36.9682 27.3579C36.6512 27.1021 36.3386 27.218 36.0129 27.3579C31.7681 29.1796 27.5226 31.0014 23.2764 32.8232C23.1289 32.8855 22.9802 32.9434 22.7878 33.021C22.9365 32.1138 23.0797 31.2437 23.2251 30.3725C23.3497 29.614 23.1945 29.3975 22.4304 29.2522C19.2241 28.6422 16.0177 28.0308 12.8114 27.418C12.6792 27.3929 12.5469 27.3644 12.3414 27.324C12.7928 26.7611 13.2159 26.2364 13.6334 25.7139C14.2051 25.0034 14.7866 24.3006 15.3462 23.5802C15.801 22.9954 15.6742 22.5659 14.9779 22.2926C11.013 20.7339 7.05095 19.1777 3.09187 17.6241C2.96726 17.576 2.84593 17.5225 2.69836 17.4612C2.80767 17.3038 2.96507 17.2918 3.09405 17.2426C7.01379 15.6992 10.9361 14.158 14.8609 12.619C14.9495 12.584 15.0402 12.5545 15.1265 12.5097C15.6261 12.2768 15.7561 11.8134 15.4096 11.3751C14.5079 10.2317 13.5886 9.10147 12.677 7.96578C12.5764 7.84007 12.4452 7.73514 12.395 7.56134C12.5447 7.45204 12.7229 7.46187 12.8934 7.43018C16.0742 6.82024 19.2558 6.2125 22.4381 5.60694C23.1912 5.46484 23.3442 5.24623 23.2196 4.48108C23.0775 3.60663 22.9321 2.73983 22.7824 1.83149C25.3401 2.92455 27.8487 4.00232 30.3573 5.07899C32.2425 5.89004 34.1273 6.70074 36.0118 7.51106C36.3397 7.65207 36.6534 7.76137 36.9671 7.50122C37.2808 7.24107 37.2338 6.90878 37.1606 6.56337C37.0513 6.03433 36.9496 5.5031 36.8327 4.90191C38.1247 5.66706 39.3565 6.4016 40.5841 7.13833C42.2849 8.15852 43.9839 9.18272 45.681 10.2109C46.0089 10.4055 46.3369 10.5902 46.6998 10.3202C47.0627 10.0503 47.0277 9.69938 46.8998 9.32774C46.8921 9.30806 46.9118 9.27855 46.9304 9.20859C48.9198 10.1191 50.743 11.2351 52.2766 12.7851C52.887 13.4077 53.4219 14.1 53.8703 14.8477C54.9382 16.6032 54.8989 18.3335 53.8266 20.0813Z" fill="url(#paint0_linear_1543_40041)"/>
<path d="M51.6971 16.7135C51.3503 15.9869 50.8865 15.3222 50.3242 14.746C49.1284 13.502 47.6932 12.6025 46.1476 11.8679C43.2029 10.4753 40.0735 9.72769 36.8806 9.21832C33.1642 8.62479 29.4106 8.40508 25.6472 8.38103C25.3728 8.38103 25.2023 8.32201 25.0864 8.04437C24.9634 7.76834 24.7619 7.53457 24.5071 7.37213C23.8043 6.89446 23.061 6.81685 22.3079 7.20817C21.5547 7.59949 21.1842 8.25642 21.1831 9.10464C21.1787 12.3613 21.1787 15.6171 21.1831 18.8723C21.1831 21.1743 21.1754 23.4763 21.1831 25.7783C21.1831 26.8036 21.8258 27.6048 22.7812 27.8354C23.2341 27.9494 23.7124 27.9052 24.1368 27.7102C24.5612 27.5152 24.9063 27.181 25.1148 26.7631C25.2427 26.5117 25.398 26.4866 25.6275 26.4844C28.2705 26.468 30.9092 26.35 33.5402 26.0756C37.3266 25.6865 41.0594 25.0306 44.6283 23.6424C46.6581 22.8532 48.5513 21.8312 49.9843 20.454C50.7658 19.6713 51.296 18.9739 51.6851 18.1651C51.8015 17.9412 51.8632 17.693 51.8653 17.4407C51.8674 17.1884 51.8098 16.9392 51.6971 16.7135ZM23.9332 25.6646C23.9332 26.2002 23.7146 26.4746 23.2894 26.4833C22.8642 26.4921 22.6128 26.1893 22.6128 25.6537C22.6128 20.1774 22.6128 14.7008 22.6128 9.22379C22.6128 8.89587 22.6576 8.60183 23.0194 8.45864C23.1358 8.41019 23.2634 8.39547 23.3877 8.41615C23.512 8.43683 23.6279 8.49209 23.7223 8.5756C23.9354 8.79421 23.9409 9.05327 23.9409 9.3167C23.9409 13.7983 23.9409 18.2798 23.9409 22.7614C23.9332 23.7299 23.9332 24.7027 23.9332 25.6646ZM50.2761 17.8306C49.9665 18.3284 49.5969 18.7862 49.1754 19.1936C47.5358 20.7786 45.5508 21.7624 43.4412 22.5297C39.7805 23.8599 35.9668 24.4447 32.1072 24.7858C29.9899 24.9716 27.8672 25.0492 25.7423 25.0864C25.469 25.0864 25.3783 25.0481 25.3794 24.7464C25.3881 19.8699 25.3881 14.9937 25.3794 10.1179C25.3794 9.88946 25.3794 9.76485 25.6898 9.76923C30.2315 9.837 34.7502 10.1321 39.2001 11.1104C42.0005 11.7258 44.7179 12.5773 47.1795 14.1C48.4048 14.8585 49.4979 15.7647 50.2718 17.0108C50.4456 17.3026 50.4532 17.542 50.2761 17.8306Z" fill="url(#paint1_linear_1543_40041)"/>
<path d="M50.2636 17.0111C49.4897 15.765 48.3966 14.8589 47.1713 14.1003C44.7119 12.5776 41.9945 11.7261 39.1919 11.1107C34.7442 10.1324 30.2255 9.8373 25.6816 9.76953C25.3766 9.76953 25.3701 9.88977 25.3712 10.1182C25.3763 14.9948 25.3763 19.8709 25.3712 24.7467C25.3712 25.0484 25.4608 25.091 25.7341 25.0867C27.859 25.0495 29.9817 24.9774 32.099 24.7861C35.9586 24.445 39.7723 23.8603 43.433 22.53C45.5426 21.7648 47.532 20.7811 49.1672 19.194C49.5913 18.7869 49.9636 18.3291 50.2756 17.8309C50.4527 17.5423 50.445 17.3029 50.2636 17.0111ZM47.5757 16.9302C47.524 17.0029 47.4583 17.0644 47.3824 17.1113C47.3065 17.1581 47.222 17.1892 47.1339 17.2029C47.0457 17.2166 46.9558 17.2124 46.8693 17.1907C46.7828 17.1691 46.7015 17.1303 46.6302 17.0767C43.3729 14.7146 39.5734 13.9166 35.717 13.2783C35.3738 13.2214 35.0033 13.2433 34.7278 12.9985C34.5212 12.7416 34.4589 12.4738 34.6021 12.1863C34.6645 12.0476 34.7733 11.9348 34.9097 11.8674C35.0461 11.8 35.2016 11.7821 35.3498 11.8168C36.1029 11.9327 36.8582 12.0453 37.6059 12.1874C40.3691 12.7099 43.0712 13.4368 45.5743 14.7572C46.2117 15.0935 46.8201 15.4821 47.3932 15.9191C47.7353 16.1771 47.8085 16.6078 47.5757 16.9302Z" fill="url(#paint2_linear_1543_40041)"/>
<defs>
<linearGradient id="paint0_linear_1543_40041" x1="28.0299" y1="0" x2="28.0299" y2="34.8713" gradientUnits="userSpaceOnUse">
<stop stop-color="#FF7C06"/>
<stop offset="1" stop-color="#E45C00"/>
</linearGradient>
<linearGradient id="paint1_linear_1543_40041" x1="36.5225" y1="6.95801" x2="36.5225" y2="27.8973" gradientUnits="userSpaceOnUse">
<stop stop-color="#FF7C06"/>
<stop offset="1" stop-color="#E45C00"/>
</linearGradient>
<linearGradient id="paint2_linear_1543_40041" x1="37.8876" y1="9.76953" x2="37.8876" y2="25.087" gradientUnits="userSpaceOnUse">
<stop stop-color="#FF7C06"/>
<stop offset="1" stop-color="#E45C00"/>
</linearGradient>
</defs>
</svg>
