<svg width="436" height="424" viewBox="0 0 436 424" fill="none" xmlns="http://www.w3.org/2000/svg">
<g opacity="0.2">
<g clip-path="url(#clip0_1543_39563)" filter="url(#filter0_d_1543_39563)">
<path d="M300.32 0.0458984H316.781V16.6792H300.32V0.0458984Z" fill="#181425"/>
<path d="M283.859 0.0458984H300.32V16.6792H283.859V0.0458984Z" fill="#181425"/>
<path d="M267.398 0.0458984H283.859V16.6792H267.398V0.0458984Z" fill="#181425"/>
<path d="M250.937 0.0458984H267.398V16.6792H250.937V0.0458984Z" fill="#181425"/>
<path d="M234.472 0.0458984H250.934V16.6792H234.472V0.0458984Z" fill="#181425"/>
<path d="M218.011 0.0458984H234.473V16.6792H218.011V0.0458984Z" fill="#181425"/>
<path d="M201.55 0.0458984H218.012V16.6792H201.55V0.0458984Z" fill="#181425"/>
<path d="M185.355 0.0458984H201.816V16.6792H185.355V0.0458984Z" fill="#181425"/>
<path d="M168.894 0.0458984H185.355V16.6792H168.894V0.0458984Z" fill="#181425"/>
<path d="M333.242 16.6787H349.703V33.312H333.242V16.6787Z" fill="#181425"/>
<path d="M316.781 16.6787H333.242V33.312H316.781V16.6787Z" fill="#181425"/>
<path d="M300.32 16.6787H316.781V33.312H300.32V16.6787Z" fill="#E45C00"/>
<path d="M283.859 16.6787H300.32V33.312H283.859V16.6787Z" fill="#181425"/>
<path d="M267.398 16.6787H283.859V33.312H267.398V16.6787Z" fill="#181425"/>
<path d="M250.937 16.6787H267.398V33.312H250.937V16.6787Z" fill="#E45C00"/>
<path d="M234.472 16.6787H250.934V33.312H234.472V16.6787Z" fill="#E45C00"/>
<path d="M218.011 16.6787H234.473V33.312H218.011V16.6787Z" fill="#E45C00"/>
<path d="M201.55 16.6787H218.012V33.312H201.55V16.6787Z" fill="#FF7C06"/>
<path d="M185.355 16.6787H201.816V33.312H185.355V16.6787Z" fill="#FF7C06"/>
<path d="M168.894 16.6787H185.355V33.312H168.894V16.6787Z" fill="#181425"/>
<path d="M152.433 16.6787H168.895V33.312H152.433V16.6787Z" fill="#181425"/>
<path d="M135.972 16.6787H152.434V33.312H135.972V16.6787Z" fill="#181425"/>
<path d="M349.437 33.3125H365.898V49.9458H349.437V33.3125Z" fill="#181425"/>
<path d="M333.242 33.3125H349.703V49.9458H333.242V33.3125Z" fill="white"/>
<path d="M316.781 33.3125H333.242V49.9458H316.781V33.3125Z" fill="white"/>
<path d="M300.32 33.3125H316.781V49.9458H300.32V33.3125Z" fill="#181425"/>
<path d="M283.859 33.3125H300.32V49.9458H283.859V33.3125Z" fill="white"/>
<path d="M267.398 33.3125H283.859V49.9458H267.398V33.3125Z" fill="#181425"/>
<path d="M250.937 33.3125H267.398V49.9458H250.937V33.3125Z" fill="#181425"/>
<path d="M234.472 33.3125H250.934V49.9458H234.472V33.3125Z" fill="#181425"/>
<path d="M218.011 33.3125H234.473V49.9458H218.011V33.3125Z" fill="#181425"/>
<path d="M201.55 33.3125H218.012V49.9458H201.55V33.3125Z" fill="#181425"/>
<path d="M185.355 33.3125H201.816V49.9458H185.355V33.3125Z" fill="#181425"/>
<path d="M168.894 33.3125H185.355V49.9458H168.894V33.3125Z" fill="#181425"/>
<path d="M152.433 33.3125H168.895V49.9458H152.433V33.3125Z" fill="white"/>
<path d="M135.972 33.3125H152.434V49.9458H135.972V33.3125Z" fill="white"/>
<path d="M119.511 33.3125H135.973V49.9458H119.511V33.3125Z" fill="#181425"/>
<path d="M365.902 49.9453H382.363V66.5786H365.902V49.9453Z" fill="#181425"/>
<path d="M349.437 49.9453H365.898V66.5786H349.437V49.9453Z" fill="white"/>
<path d="M333.242 49.9453H349.703V66.5786H333.242V49.9453Z" fill="white"/>
<path d="M316.781 49.9453H333.242V66.5786H316.781V49.9453Z" fill="#181425"/>
<path d="M300.32 49.9453H316.781V66.5786H300.32V49.9453Z" fill="white"/>
<path d="M283.859 49.9453H300.32V66.5786H283.859V49.9453Z" fill="#C6C6C6"/>
<path d="M267.398 49.9453H283.859V66.5786H267.398V49.9453Z" fill="#181425"/>
<path d="M250.937 49.9453H267.398V66.5786H250.937V49.9453Z" fill="#E45C00"/>
<path d="M234.472 49.9453H250.934V66.5786H234.472V49.9453Z" fill="#E45C00"/>
<path d="M218.011 49.9453H234.473V66.5786H218.011V49.9453Z" fill="#FF7C06"/>
<path d="M201.55 49.9453H218.012V66.5786H201.55V49.9453Z" fill="#FF7C06"/>
<path d="M185.355 49.9453H201.816V66.5786H185.355V49.9453Z" fill="#FF7C06"/>
<path d="M168.894 49.9453H185.355V66.5786H168.894V49.9453Z" fill="#FF7C06"/>
<path d="M152.433 49.9453H168.895V66.5786H152.433V49.9453Z" fill="#181425"/>
<path d="M135.972 49.9453H152.434V66.5786H135.972V49.9453Z" fill="#C6C6C6"/>
<path d="M119.511 49.9453H135.973V66.5786H119.511V49.9453Z" fill="white"/>
<path d="M103.046 49.9453H119.508V66.5786H103.046V49.9453Z" fill="#181425"/>
<path d="M382.363 66.5791H398.824V83.2124H382.363V66.5791Z" fill="#181425"/>
<path d="M365.902 66.5791H382.363V83.2124H365.902V66.5791Z" fill="#181425"/>
<path d="M349.437 66.5791H365.898V83.2124H349.437V66.5791Z" fill="#181425"/>
<path d="M333.242 66.5791H349.703V83.2124H333.242V66.5791Z" fill="#181425"/>
<path d="M316.781 66.5791H333.242V83.2124H316.781V66.5791Z" fill="white"/>
<path d="M300.32 66.5791H316.781V83.2124H300.32V66.5791Z" fill="#C6C6C6"/>
<path d="M283.859 66.5791H300.32V83.2124H283.859V66.5791Z" fill="#181425"/>
<path d="M267.398 66.5791H283.859V83.2124H267.398V66.5791Z" fill="#E45C00"/>
<path d="M250.937 66.5791H267.398V83.2124H250.937V66.5791Z" fill="#FF7C06"/>
<path d="M234.472 66.5791H250.934V83.2124H234.472V66.5791Z" fill="#FF7C06"/>
<path d="M218.011 66.5791H234.473V83.2124H218.011V66.5791Z" fill="#FF7C06"/>
<path d="M201.55 66.5791H218.012V83.2124H201.55V66.5791Z" fill="#FF7C06"/>
<path d="M185.355 66.5791H201.816V83.2124H185.355V66.5791Z" fill="#FF7C06"/>
<path d="M168.894 66.5791H185.355V83.2124H168.894V66.5791Z" fill="#FF7C06"/>
<path d="M152.433 66.5791H168.895V83.2124H152.433V66.5791Z" fill="#FF7C06"/>
<path d="M135.972 66.5791H152.434V83.2124H135.972V66.5791Z" fill="#181425"/>
<path d="M119.511 66.5791H135.973V83.2124H119.511V66.5791Z" fill="white"/>
<path d="M103.046 66.5791H119.508V83.2124H103.046V66.5791Z" fill="#181425"/>
<path d="M86.5854 66.5791H103.047V83.2124H86.5854V66.5791Z" fill="#181425"/>
<path d="M382.363 82.9443H398.824V99.5776H382.363V82.9443Z" fill="#181425"/>
<path d="M365.902 82.9443H382.363V99.5776H365.902V82.9443Z" fill="#E45C00"/>
<path d="M349.437 82.9443H365.898V99.5776H349.437V82.9443Z" fill="#E45C00"/>
<path d="M333.242 82.9443H349.703V99.5776H333.242V82.9443Z" fill="#181425"/>
<path d="M316.781 82.9443H333.242V99.5776H316.781V82.9443Z" fill="#181425"/>
<path d="M300.32 82.9443H316.781V99.5776H300.32V82.9443Z" fill="#181425"/>
<path d="M283.859 82.9443H300.32V99.5776H283.859V82.9443Z" fill="#E45C00"/>
<path d="M267.398 82.9443H283.859V99.5776H267.398V82.9443Z" fill="#FF7C06"/>
<path d="M250.937 82.9443H267.398V99.5776H250.937V82.9443Z" fill="#181425"/>
<path d="M234.472 82.9443H250.934V99.5776H234.472V82.9443Z" fill="#181425"/>
<path d="M218.011 82.9443H234.473V99.5776H218.011V82.9443Z" fill="#FF7C06"/>
<path d="M201.55 82.9443H218.012V99.5776H201.55V82.9443Z" fill="#FF7C06"/>
<path d="M185.355 82.9443H201.816V99.5776H185.355V82.9443Z" fill="#FF7C06"/>
<path d="M168.894 82.9443H185.355V99.5776H168.894V82.9443Z" fill="#FF7C06"/>
<path d="M152.433 82.9443H168.895V99.5776H152.433V82.9443Z" fill="#181425"/>
<path d="M135.972 82.9443H152.434V99.5776H135.972V82.9443Z" fill="#FF7C06"/>
<path d="M119.511 82.9443H135.973V99.5776H119.511V82.9443Z" fill="#181425"/>
<path d="M103.046 82.9443H119.508V99.5776H103.046V82.9443Z" fill="#FF7C06"/>
<path d="M86.5854 82.9443H103.047V99.5776H86.5854V82.9443Z" fill="#181425"/>
<path d="M398.824 99.5771H415.285V116.21H398.824V99.5771Z" fill="#181425"/>
<path d="M382.363 99.5771H398.824V116.21H382.363V99.5771Z" fill="#E45C00"/>
<path d="M365.902 99.5771H382.363V116.21H365.902V99.5771Z" fill="#E45C00"/>
<path d="M349.437 99.5771H365.898V116.21H349.437V99.5771Z" fill="#181425"/>
<path d="M333.242 99.5771H349.703V116.21H333.242V99.5771Z" fill="#FF7C06"/>
<path d="M316.781 99.5771H333.242V116.21H316.781V99.5771Z" fill="#181425"/>
<path d="M300.32 99.5771H316.781V116.21H300.32V99.5771Z" fill="#E45C00"/>
<path d="M283.859 99.5771H300.32V116.21H283.859V99.5771Z" fill="#E45C00"/>
<path d="M267.398 99.5771H283.859V116.21H267.398V99.5771Z" fill="#FF7C06"/>
<path d="M250.937 99.5771H267.398V116.21H250.937V99.5771Z" fill="#FF7C06"/>
<path d="M234.472 99.5771H250.934V116.21H234.472V99.5771Z" fill="#FF7C06"/>
<path d="M218.011 99.5771H234.473V116.21H218.011V99.5771Z" fill="#FF7C06"/>
<path d="M201.55 99.5771H218.012V116.21H201.55V99.5771Z" fill="#FF7C06"/>
<path d="M185.355 99.5771H201.816V116.21H185.355V99.5771Z" fill="#FF7C06"/>
<path d="M168.894 99.5771H185.355V116.21H168.894V99.5771Z" fill="#FF7C06"/>
<path d="M152.433 99.5771H168.895V116.21H152.433V99.5771Z" fill="#FF7C06"/>
<path d="M135.972 99.5771H152.434V116.21H135.972V99.5771Z" fill="#FF7C06"/>
<path d="M119.511 99.5771H135.973V116.21H119.511V99.5771Z" fill="#FF7C06"/>
<path d="M103.046 99.5771H119.508V116.21H103.046V99.5771Z" fill="#181425"/>
<path d="M86.5854 99.5771H103.047V116.21H86.5854V99.5771Z" fill="#FF7C06"/>
<path d="M70.1245 99.5771H86.5859V116.21H70.1245V99.5771Z" fill="#181425"/>
<path d="M398.824 116.211H415.285V132.844H398.824V116.211Z" fill="#181425"/>
<path d="M382.363 116.211H398.824V132.844H382.363V116.211Z" fill="#181425"/>
<path d="M365.902 116.211H382.363V132.844H365.902V116.211Z" fill="#181425"/>
<path d="M349.437 116.211H365.898V132.844H349.437V116.211Z" fill="#181425"/>
<path d="M333.242 116.211H349.703V132.844H333.242V116.211Z" fill="#FF7C06"/>
<path d="M316.781 116.211H333.242V132.844H316.781V116.211Z" fill="#181425"/>
<path d="M300.32 116.211H316.781V132.844H300.32V116.211Z" fill="#E45C00"/>
<path d="M283.859 116.211H300.32V132.844H283.859V116.211Z" fill="#181425"/>
<path d="M267.398 116.211H283.859V132.844H267.398V116.211Z" fill="#181425"/>
<path d="M250.937 116.211H267.398V132.844H250.937V116.211Z" fill="#181425"/>
<path d="M234.472 116.211H250.934V132.844H234.472V116.211Z" fill="#181425"/>
<path d="M218.011 116.211H234.473V132.844H218.011V116.211Z" fill="#FF7C06"/>
<path d="M201.55 116.211H218.012V132.844H201.55V116.211Z" fill="#FF7C06"/>
<path d="M185.355 116.211H201.816V132.844H185.355V116.211Z" fill="#FF7C06"/>
<path d="M168.894 116.211H185.355V132.844H168.894V116.211Z" fill="#FF7C06"/>
<path d="M152.433 116.211H168.895V132.844H152.433V116.211Z" fill="#FF7C06"/>
<path d="M135.972 116.211H152.434V132.844H135.972V116.211Z" fill="#181425"/>
<path d="M119.511 116.211H135.973V132.844H119.511V116.211Z" fill="#181425"/>
<path d="M103.046 116.211H119.508V132.844H103.046V116.211Z" fill="#181425"/>
<path d="M86.5854 116.211H103.047V132.844H86.5854V116.211Z" fill="#FF7C06"/>
<path d="M70.1245 116.211H86.5859V132.844H70.1245V116.211Z" fill="#181425"/>
<path d="M415.285 132.844H431.746V149.477H415.285V132.844Z" fill="#181425"/>
<path d="M398.824 132.844H415.285V149.477H398.824V132.844Z" fill="#C6C6C6"/>
<path d="M382.363 132.844H398.824V149.477H382.363V132.844Z" fill="white"/>
<path d="M365.902 132.844H382.363V149.477H365.902V132.844Z" fill="#181425"/>
<path d="M349.437 132.844H365.898V149.477H349.437V132.844Z" fill="white"/>
<path d="M333.242 132.844H349.703V149.477H333.242V132.844Z" fill="#181425"/>
<path d="M316.781 132.844H333.242V149.477H316.781V132.844Z" fill="#181425"/>
<path d="M300.32 132.844H316.781V149.477H300.32V132.844Z" fill="#181425"/>
<path d="M283.859 132.844H300.32V149.477H283.859V132.844Z" fill="#181425"/>
<path d="M267.398 132.844H283.859V149.477H267.398V132.844Z" fill="#181425"/>
<path d="M250.937 132.844H267.398V149.477H250.937V132.844Z" fill="#181425"/>
<path d="M234.472 132.844H250.934V149.477H234.472V132.844Z" fill="#181425"/>
<path d="M218.011 132.844H234.473V149.477H218.011V132.844Z" fill="#181425"/>
<path d="M201.55 132.844H218.012V149.477H201.55V132.844Z" fill="#FF7C06"/>
<path d="M185.355 132.844H201.816V149.477H185.355V132.844Z" fill="#FF7C06"/>
<path d="M168.894 132.844H185.355V149.477H168.894V132.844Z" fill="#FF7C06"/>
<path d="M152.433 132.844H168.895V149.477H152.433V132.844Z" fill="#181425"/>
<path d="M135.972 132.844H152.434V149.477H135.972V132.844Z" fill="#181425"/>
<path d="M119.511 132.844H135.973V149.477H119.511V132.844Z" fill="#181425"/>
<path d="M103.046 132.844H119.508V149.477H103.046V132.844Z" fill="#181425"/>
<path d="M86.5854 132.844H103.047V149.477H86.5854V132.844Z" fill="#181425"/>
<path d="M70.1245 132.844H86.5859V149.477H70.1245V132.844Z" fill="white"/>
<path d="M53.6635 132.844H70.125V149.477H53.6635V132.844Z" fill="#181425"/>
<path d="M415.285 149.478H431.746V166.111H415.285V149.478Z" fill="#181425"/>
<path d="M398.824 149.478H415.285V166.111H398.824V149.478Z" fill="#C6C6C6"/>
<path d="M382.363 149.478H398.824V166.111H382.363V149.478Z" fill="white"/>
<path d="M365.902 149.478H382.363V166.111H365.902V149.478Z" fill="#181425"/>
<path d="M349.437 149.478H365.898V166.111H349.437V149.478Z" fill="white"/>
<path d="M333.242 149.478H349.703V166.111H333.242V149.478Z" fill="#181425"/>
<path d="M316.781 149.478H333.242V166.111H316.781V149.478Z" fill="#181425"/>
<path d="M300.32 149.478H316.781V166.111H300.32V149.478Z" fill="#181425"/>
<path d="M283.859 149.478H300.32V166.111H283.859V149.478Z" fill="#181425"/>
<path d="M267.398 149.478H283.859V166.111H267.398V149.478Z" fill="white"/>
<path d="M250.937 149.478H267.398V166.111H250.937V149.478Z" fill="#3978A8"/>
<path d="M234.472 149.478H250.934V166.111H234.472V149.478Z" fill="#3978A8"/>
<path d="M218.011 149.478H234.473V166.111H218.011V149.478Z" fill="#181425"/>
<path d="M201.55 149.478H218.012V166.111H201.55V149.478Z" fill="#181425"/>
<path d="M185.355 149.478H201.816V166.111H185.355V149.478Z" fill="#181425"/>
<path d="M168.894 149.478H185.355V166.111H168.894V149.478Z" fill="#181425"/>
<path d="M152.433 149.478H168.895V166.111H152.433V149.478Z" fill="#181425"/>
<path d="M135.972 149.478H152.434V166.111H135.972V149.478Z" fill="#181425"/>
<path d="M119.511 149.478H135.973V166.111H119.511V149.478Z" fill="#3978A8"/>
<path d="M103.046 149.478H119.508V166.111H103.046V149.478Z" fill="#3978A8"/>
<path d="M86.5854 149.478H103.047V166.111H86.5854V149.478Z" fill="#181425"/>
<path d="M70.1245 149.478H86.5859V166.111H70.1245V149.478Z" fill="white"/>
<path d="M53.6635 149.478H70.125V166.111H53.6635V149.478Z" fill="#181425"/>
<path d="M415.285 166.11H431.746V182.744H415.285V166.11Z" fill="#181425"/>
<path d="M398.824 166.11H415.285V182.744H398.824V166.11Z" fill="#C6C6C6"/>
<path d="M382.363 166.11H398.824V182.744H382.363V166.11Z" fill="white"/>
<path d="M365.902 166.11H382.363V182.744H365.902V166.11Z" fill="#181425"/>
<path d="M349.437 166.11H365.898V182.744H349.437V166.11Z" fill="white"/>
<path d="M333.242 166.11H349.703V182.744H333.242V166.11Z" fill="#181425"/>
<path d="M316.781 166.11H333.242V182.744H316.781V166.11Z" fill="#E45C00"/>
<path d="M300.32 166.11H316.781V182.744H300.32V166.11Z" fill="#181425"/>
<path d="M283.859 166.11H300.32V182.744H283.859V166.11Z" fill="white"/>
<path d="M267.398 166.11H283.859V182.744H267.398V166.11Z" fill="white"/>
<path d="M250.937 166.11H267.398V182.744H250.937V166.11Z" fill="#3978A8"/>
<path d="M234.472 166.11H250.934V182.744H234.472V166.11Z" fill="#394778"/>
<path d="M218.011 166.11H234.473V182.744H218.011V166.11Z" fill="white"/>
<path d="M201.55 166.11H218.012V182.744H201.55V166.11Z" fill="#181425"/>
<path d="M185.355 166.11H201.816V182.744H185.355V166.11Z" fill="#181425"/>
<path d="M168.894 166.11H185.355V182.744H168.894V166.11Z" fill="#181425"/>
<path d="M152.433 166.11H168.895V182.744H152.433V166.11Z" fill="#181425"/>
<path d="M135.972 166.11H152.434V182.744H135.972V166.11Z" fill="white"/>
<path d="M119.511 166.11H135.973V182.744H119.511V166.11Z" fill="#394778"/>
<path d="M103.046 166.11H119.508V182.744H103.046V166.11Z" fill="#3978A8"/>
<path d="M86.5854 166.11H103.047V182.744H86.5854V166.11Z" fill="#181425"/>
<path d="M70.1245 166.11H86.5859V182.744H70.1245V166.11Z" fill="white"/>
<path d="M53.6635 166.11H70.125V182.744H53.6635V166.11Z" fill="#181425"/>
<path d="M415.285 182.744H431.746V199.377H415.285V182.744Z" fill="#181425"/>
<path d="M398.824 182.744H415.285V199.377H398.824V182.744Z" fill="#C6C6C6"/>
<path d="M382.363 182.744H398.824V199.377H382.363V182.744Z" fill="white"/>
<path d="M365.902 182.744H382.363V199.377H365.902V182.744Z" fill="#181425"/>
<path d="M349.437 182.744H365.898V199.377H349.437V182.744Z" fill="white"/>
<path d="M333.242 182.744H349.703V199.377H333.242V182.744Z" fill="#181425"/>
<path d="M316.781 182.744H333.242V199.377H316.781V182.744Z" fill="#E45C00"/>
<path d="M300.32 182.744H316.781V199.377H300.32V182.744Z" fill="#181425"/>
<path d="M283.859 182.744H300.32V199.377H283.859V182.744Z" fill="#181425"/>
<path d="M267.398 182.744H283.859V199.377H267.398V182.744Z" fill="white"/>
<path d="M250.937 182.744H267.398V199.377H250.937V182.744Z" fill="white"/>
<path d="M234.472 182.744H250.934V199.377H234.472V182.744Z" fill="#394778"/>
<path d="M218.011 182.744H234.473V199.377H218.011V182.744Z" fill="#181425"/>
<path d="M201.55 182.744H218.012V199.377H201.55V182.744Z" fill="#181425"/>
<path d="M185.355 182.744H201.816V199.377H185.355V182.744Z" fill="#FF7C06"/>
<path d="M168.894 182.744H185.355V199.377H168.894V182.744Z" fill="#FF7C06"/>
<path d="M152.433 182.744H168.895V199.377H152.433V182.744Z" fill="#181425"/>
<path d="M135.972 182.744H152.434V199.377H135.972V182.744Z" fill="#181425"/>
<path d="M119.511 182.744H135.973V199.377H119.511V182.744Z" fill="#394778"/>
<path d="M103.046 182.744H119.508V199.377H103.046V182.744Z" fill="#181425"/>
<path d="M86.5854 182.744H103.047V199.377H86.5854V182.744Z" fill="#181425"/>
<path d="M70.1245 182.744H86.5859V199.377H70.1245V182.744Z" fill="white"/>
<path d="M53.6635 182.744H70.125V199.377H53.6635V182.744Z" fill="#181425"/>
<path d="M398.824 199.377H415.285V216.01H398.824V199.377Z" fill="#181425"/>
<path d="M382.363 199.377H398.824V216.01H382.363V199.377Z" fill="#181425"/>
<path d="M365.902 199.377H382.363V216.01H365.902V199.377Z" fill="#181425"/>
<path d="M349.437 199.377H365.898V216.01H349.437V199.377Z" fill="#181425"/>
<path d="M333.242 199.377H349.703V216.01H333.242V199.377Z" fill="#FF7C06"/>
<path d="M316.781 199.377H333.242V216.01H316.781V199.377Z" fill="#181425"/>
<path d="M300.32 199.377H316.781V216.01H300.32V199.377Z" fill="#E45C00"/>
<path d="M283.859 199.377H300.32V216.01H283.859V199.377Z" fill="#181425"/>
<path d="M267.398 199.377H283.859V216.01H267.398V199.377Z" fill="#181425"/>
<path d="M250.937 199.377H267.398V216.01H250.937V199.377Z" fill="#181425"/>
<path d="M234.472 199.377H250.934V216.01H234.472V199.377Z" fill="#181425"/>
<path d="M218.011 199.377H234.473V216.01H218.011V199.377Z" fill="#181425"/>
<path d="M201.55 199.377H218.012V216.01H201.55V199.377Z" fill="#FF7C06"/>
<path d="M185.355 199.377H201.816V216.01H185.355V199.377Z" fill="#FF7C06"/>
<path d="M168.894 199.377H185.355V216.01H168.894V199.377Z" fill="#FF7C06"/>
<path d="M152.433 199.377H168.895V216.01H152.433V199.377Z" fill="#FF7C06"/>
<path d="M135.972 199.377H152.434V216.01H135.972V199.377Z" fill="#181425"/>
<path d="M119.511 199.377H135.973V216.01H119.511V199.377Z" fill="#181425"/>
<path d="M103.046 199.377H119.508V216.01H103.046V199.377Z" fill="#181425"/>
<path d="M86.5854 199.377H103.047V216.01H86.5854V199.377Z" fill="#FF7C06"/>
<path d="M70.1245 199.377H86.5859V216.01H70.1245V199.377Z" fill="#181425"/>
<path d="M398.824 216.011H415.285V232.644H398.824V216.011Z" fill="#181425"/>
<path d="M382.363 216.011H398.824V232.644H382.363V216.011Z" fill="#262B44"/>
<path d="M365.902 216.011H382.363V232.644H365.902V216.011Z" fill="#262B44"/>
<path d="M349.437 216.011H365.898V232.644H349.437V216.011Z" fill="#181425"/>
<path d="M333.242 216.011H349.703V232.644H333.242V216.011Z" fill="#FF7C06"/>
<path d="M316.781 216.011H333.242V232.644H316.781V216.011Z" fill="#181425"/>
<path d="M300.32 216.011H316.781V232.644H300.32V216.011Z" fill="#E45C00"/>
<path d="M283.859 216.011H300.32V232.644H283.859V216.011Z" fill="#E45C00"/>
<path d="M267.398 216.011H283.859V232.644H267.398V216.011Z" fill="#181425"/>
<path d="M250.937 216.011H267.398V232.644H250.937V216.011Z" fill="#181425"/>
<path d="M234.472 216.011H250.934V232.644H234.472V216.011Z" fill="#181425"/>
<path d="M218.011 216.011H234.473V232.644H218.011V216.011Z" fill="#FF7C06"/>
<path d="M201.55 216.011H218.012V232.644H201.55V216.011Z" fill="#FF7C06"/>
<path d="M185.355 216.011H201.816V232.644H185.355V216.011Z" fill="#FF7C06"/>
<path d="M168.894 216.011H185.355V232.644H168.894V216.011Z" fill="#FF7C06"/>
<path d="M152.433 216.011H168.895V232.644H152.433V216.011Z" fill="#181425"/>
<path d="M135.972 216.011H152.434V232.644H135.972V216.011Z" fill="#FF7C06"/>
<path d="M119.511 216.011H135.973V232.644H119.511V216.011Z" fill="#181425"/>
<path d="M103.046 216.011H119.508V232.644H103.046V216.011Z" fill="#181425"/>
<path d="M86.5854 216.011H103.047V232.644H86.5854V216.011Z" fill="#FF7C06"/>
<path d="M70.1245 216.011H86.5859V232.644H70.1245V216.011Z" fill="#181425"/>
<path d="M415.285 232.375H431.746V249.008H415.285V232.375Z" fill="#181425"/>
<path d="M398.824 232.375H415.285V249.008H398.824V232.375Z" fill="#262B44"/>
<path d="M382.363 232.375H398.824V249.008H382.363V232.375Z" fill="#262B44"/>
<path d="M365.902 232.375H382.363V249.008H365.902V232.375Z" fill="#181425"/>
<path d="M349.437 232.375H365.898V249.008H349.437V232.375Z" fill="#E45C00"/>
<path d="M333.242 232.375H349.703V249.008H333.242V232.375Z" fill="#181425"/>
<path d="M316.781 232.375H333.242V249.008H316.781V232.375Z" fill="#181425"/>
<path d="M300.32 232.375H316.781V249.008H300.32V232.375Z" fill="#181425"/>
<path d="M283.859 232.375H300.32V249.008H283.859V232.375Z" fill="#E45C00"/>
<path d="M267.398 232.375H283.859V249.008H267.398V232.375Z" fill="#FF7C06"/>
<path d="M250.937 232.375H267.398V249.008H250.937V232.375Z" fill="#FF7C06"/>
<path d="M234.472 232.375H250.934V249.008H234.472V232.375Z" fill="#FF7C06"/>
<path d="M218.011 232.375H234.473V249.008H218.011V232.375Z" fill="#FF7C06"/>
<path d="M201.55 232.375H218.012V249.008H201.55V232.375Z" fill="#181425"/>
<path d="M185.355 232.375H201.816V249.008H185.355V232.375Z" fill="#181425"/>
<path d="M168.894 232.375H185.355V249.008H168.894V232.375Z" fill="#181425"/>
<path d="M152.433 232.375H168.895V249.008H152.433V232.375Z" fill="#FF7C06"/>
<path d="M135.972 232.375H152.434V249.008H135.972V232.375Z" fill="#FF7C06"/>
<path d="M119.511 232.375H135.973V249.008H119.511V232.375Z" fill="#181425"/>
<path d="M103.046 232.375H119.508V249.008H103.046V232.375Z" fill="#FF7C06"/>
<path d="M86.5854 232.375H103.047V249.008H86.5854V232.375Z" fill="#181425"/>
<path d="M70.1245 232.375H86.5859V249.008H70.1245V232.375Z" fill="#262B44"/>
<path d="M53.6635 232.375H70.125V249.008H53.6635V232.375Z" fill="#181425"/>
<path d="M415.285 249.009H431.746V265.642H415.285V249.009Z" fill="#181425"/>
<path d="M398.824 249.009H415.285V265.642H398.824V249.009Z" fill="#262B44"/>
<path d="M382.363 249.009H398.824V265.642H382.363V249.009Z" fill="#181425"/>
<path d="M365.902 249.009H382.363V265.642H365.902V249.009Z" fill="#181425"/>
<path d="M349.437 249.009H365.898V265.642H349.437V249.009Z" fill="#181425"/>
<path d="M333.242 249.009H349.703V265.642H333.242V249.009Z" fill="#181425"/>
<path d="M316.781 249.009H333.242V265.642H316.781V249.009Z" fill="white"/>
<path d="M300.32 249.009H316.781V265.642H300.32V249.009Z" fill="white"/>
<path d="M283.859 249.009H300.32V265.642H283.859V249.009Z" fill="#181425"/>
<path d="M267.398 249.009H283.859V265.642H267.398V249.009Z" fill="#E45C00"/>
<path d="M250.937 249.009H267.398V265.642H250.937V249.009Z" fill="#FF7C06"/>
<path d="M234.472 249.009H250.934V265.642H234.472V249.009Z" fill="#FF7C06"/>
<path d="M218.011 249.009H234.473V265.642H218.011V249.009Z" fill="#FF7C06"/>
<path d="M201.55 249.009H218.012V265.642H201.55V249.009Z" fill="#FF7C06"/>
<path d="M185.355 249.009H201.816V265.642H185.355V249.009Z" fill="#FF7C06"/>
<path d="M168.894 249.009H185.355V265.642H168.894V249.009Z" fill="#FF7C06"/>
<path d="M152.433 249.009H168.895V265.642H152.433V249.009Z" fill="#FF7C06"/>
<path d="M135.972 249.009H152.434V265.642H135.972V249.009Z" fill="#181425"/>
<path d="M119.511 249.009H135.973V265.642H119.511V249.009Z" fill="white"/>
<path d="M103.046 249.009H119.508V265.642H103.046V249.009Z" fill="#181425"/>
<path d="M86.5854 249.009H103.047V265.642H86.5854V249.009Z" fill="#181425"/>
<path d="M70.1245 249.009H86.5859V265.642H70.1245V249.009Z" fill="#262B44"/>
<path d="M53.6635 249.009H70.125V265.642H53.6635V249.009Z" fill="#181425"/>
<path d="M37.2026 249.009H53.6641V265.642H37.2026V249.009Z" fill="#181425"/>
<path d="M21.0073 249.009H37.4688V265.642H21.0073V249.009Z" fill="#181425"/>
<path d="M398.824 265.642H415.285V282.275H398.824V265.642Z" fill="#181425"/>
<path d="M382.363 265.642H398.824V282.275H382.363V265.642Z" fill="#C6C6C6"/>
<path d="M365.902 265.642H382.363V282.275H365.902V265.642Z" fill="white"/>
<path d="M349.437 265.642H365.898V282.275H349.437V265.642Z" fill="white"/>
<path d="M333.242 265.642H349.703V282.275H333.242V265.642Z" fill="#181425"/>
<path d="M316.781 265.642H333.242V282.275H316.781V265.642Z" fill="#181425"/>
<path d="M300.32 265.642H316.781V282.275H300.32V265.642Z" fill="#C6C6C6"/>
<path d="M283.859 265.642H300.32V282.275H283.859V265.642Z" fill="white"/>
<path d="M267.398 265.642H283.859V282.275H267.398V265.642Z" fill="#181425"/>
<path d="M250.937 265.642H267.398V282.275H250.937V265.642Z" fill="#E45C00"/>
<path d="M234.472 265.642H250.934V282.275H234.472V265.642Z" fill="#E45C00"/>
<path d="M218.011 265.642H234.473V282.275H218.011V265.642Z" fill="#FF7C06"/>
<path d="M201.55 265.642H218.012V282.275H201.55V265.642Z" fill="#FF7C06"/>
<path d="M185.355 265.642H201.816V282.275H185.355V265.642Z" fill="#FF7C06"/>
<path d="M168.894 265.642H185.355V282.275H168.894V265.642Z" fill="#FF7C06"/>
<path d="M152.433 265.642H168.895V282.275H152.433V265.642Z" fill="#181425"/>
<path d="M135.972 265.642H152.434V282.275H135.972V265.642Z" fill="white"/>
<path d="M119.511 265.642H135.973V282.275H119.511V265.642Z" fill="white"/>
<path d="M103.046 265.642H119.508V282.275H103.046V265.642Z" fill="#181425"/>
<path d="M70.1245 265.642H86.5859V282.275H70.1245V265.642Z" fill="#181425"/>
<path d="M53.6635 265.642H70.125V282.275H53.6635V265.642Z" fill="#C6C6C6"/>
<path d="M37.2026 265.642H53.6641V282.275H37.2026V265.642Z" fill="white"/>
<path d="M21.0073 265.642H37.4688V282.275H21.0073V265.642Z" fill="white"/>
<path d="M4.54635 265.642H21.0078V282.275H4.54635V265.642Z" fill="#181425"/>
<path d="M398.824 282.275H415.285V298.909H398.824V282.275Z" fill="#181425"/>
<path d="M382.363 282.275H398.824V298.909H382.363V282.275Z" fill="#C6C6C6"/>
<path d="M365.902 282.275H382.363V298.909H365.902V282.275Z" fill="white"/>
<path d="M349.437 282.275H365.898V298.909H349.437V282.275Z" fill="white"/>
<path d="M333.242 282.275H349.703V298.909H333.242V282.275Z" fill="#181425"/>
<path d="M316.781 282.275H333.242V298.909H316.781V282.275Z" fill="#C6C6C6"/>
<path d="M300.32 282.275H316.781V298.909H300.32V282.275Z" fill="#181425"/>
<path d="M283.859 282.275H300.32V298.909H283.859V282.275Z" fill="white"/>
<path d="M267.398 282.275H283.859V298.909H267.398V282.275Z" fill="#181425"/>
<path d="M250.937 282.275H267.398V298.909H250.937V282.275Z" fill="#181425"/>
<path d="M234.472 282.275H250.934V298.909H234.472V282.275Z" fill="#181425"/>
<path d="M218.011 282.275H234.473V298.909H218.011V282.275Z" fill="#181425"/>
<path d="M201.55 282.275H218.012V298.909H201.55V282.275Z" fill="#181425"/>
<path d="M185.355 282.275H201.816V298.909H185.355V282.275Z" fill="#181425"/>
<path d="M168.894 282.275H185.355V298.909H168.894V282.275Z" fill="#181425"/>
<path d="M152.433 282.275H168.895V298.909H152.433V282.275Z" fill="white"/>
<path d="M135.972 282.275H152.434V298.909H135.972V282.275Z" fill="white"/>
<path d="M119.511 282.275H135.973V298.909H119.511V282.275Z" fill="#181425"/>
<path d="M70.1245 282.275H86.5859V298.909H70.1245V282.275Z" fill="#181425"/>
<path d="M53.6635 282.275H70.125V298.909H53.6635V282.275Z" fill="#C6C6C6"/>
<path d="M37.2026 282.275H53.6641V298.909H37.2026V282.275Z" fill="white"/>
<path d="M21.0073 282.275H37.4688V298.909H21.0073V282.275Z" fill="white"/>
<path d="M4.54635 282.275H21.0078V298.909H4.54635V282.275Z" fill="#181425"/>
<path d="M398.824 298.908H415.285V315.541H398.824V298.908Z" fill="#181425"/>
<path d="M382.363 298.908H398.824V315.541H382.363V298.908Z" fill="#C6C6C6"/>
<path d="M365.902 298.908H382.363V315.541H365.902V298.908Z" fill="white"/>
<path d="M349.437 298.908H365.898V315.541H349.437V298.908Z" fill="white"/>
<path d="M333.242 298.908H349.703V315.541H333.242V298.908Z" fill="#181425"/>
<path d="M316.781 298.908H333.242V315.541H316.781V298.908Z" fill="#181425"/>
<path d="M300.32 298.908H316.781V315.541H300.32V298.908Z" fill="#181425"/>
<path d="M283.859 298.908H300.32V315.541H283.859V298.908Z" fill="#181425"/>
<path d="M267.398 298.908H283.859V315.541H267.398V298.908Z" fill="#181425"/>
<path d="M250.937 298.908H267.398V315.541H250.937V298.908Z" fill="#E45C00"/>
<path d="M234.472 298.908H250.934V315.541H234.472V298.908Z" fill="#E45C00"/>
<path d="M218.011 298.908H234.473V315.541H218.011V298.908Z" fill="#E45C00"/>
<path d="M201.55 298.908H218.012V315.541H201.55V298.908Z" fill="#FF7C06"/>
<path d="M185.355 298.908H201.816V315.541H185.355V298.908Z" fill="#FF7C06"/>
<path d="M168.894 298.908H185.355V315.541H168.894V298.908Z" fill="#181425"/>
<path d="M152.433 298.908H168.895V315.541H152.433V298.908Z" fill="#181425"/>
<path d="M135.972 298.908H152.434V315.541H135.972V298.908Z" fill="#181425"/>
<path d="M70.1245 298.908H86.5859V315.541H70.1245V298.908Z" fill="#181425"/>
<path d="M53.6635 298.908H70.125V315.541H53.6635V298.908Z" fill="#C6C6C6"/>
<path d="M37.2026 298.908H53.6641V315.541H37.2026V298.908Z" fill="white"/>
<path d="M21.0073 298.908H37.4688V315.541H21.0073V298.908Z" fill="white"/>
<path d="M4.54635 298.908H21.0078V315.541H4.54635V298.908Z" fill="#181425"/>
<path d="M382.363 315.542H398.824V332.175H382.363V315.542Z" fill="#181425"/>
<path d="M365.902 315.542H382.363V332.175H365.902V315.542Z" fill="#181425"/>
<path d="M349.437 315.542H365.898V332.175H349.437V315.542Z" fill="#181425"/>
<path d="M316.781 315.542H333.242V332.175H316.781V315.542Z" fill="#181425"/>
<path d="M300.32 315.542H316.781V332.175H300.32V315.542Z" fill="#262B44"/>
<path d="M283.859 315.542H300.32V332.175H283.859V315.542Z" fill="#181425"/>
<path d="M267.398 315.542H283.859V332.175H267.398V315.542Z" fill="#181425"/>
<path d="M250.937 315.542H267.398V332.175H250.937V315.542Z" fill="#181425"/>
<path d="M234.472 315.542H250.934V332.175H234.472V315.542Z" fill="#181425"/>
<path d="M218.011 315.542H234.473V332.175H218.011V315.542Z" fill="#181425"/>
<path d="M201.55 315.542H218.012V332.175H201.55V315.542Z" fill="#181425"/>
<path d="M185.355 315.542H201.816V332.175H185.355V315.542Z" fill="#181425"/>
<path d="M168.894 315.542H185.355V332.175H168.894V315.542Z" fill="#181425"/>
<path d="M152.433 315.542H168.895V332.175H152.433V315.542Z" fill="#262B44"/>
<path d="M135.972 315.542H152.434V332.175H135.972V315.542Z" fill="#181425"/>
<path d="M53.6635 315.542H70.125V332.175H53.6635V315.542Z" fill="#181425"/>
<path d="M37.2026 315.542H53.6641V332.175H37.2026V315.542Z" fill="#181425"/>
<path d="M21.0073 315.542H37.4688V332.175H21.0073V315.542Z" fill="#181425"/>
<path d="M316.781 332.175H333.242V348.808H316.781V332.175Z" fill="#181425"/>
<path d="M300.32 332.175H316.781V348.808H300.32V332.175Z" fill="#262B44"/>
<path d="M283.859 332.175H300.32V348.808H283.859V332.175Z" fill="#181425"/>
<path d="M168.894 332.175H185.355V348.808H168.894V332.175Z" fill="#181425"/>
<path d="M152.433 332.175H168.895V348.808H152.433V332.175Z" fill="#262B44"/>
<path d="M135.972 332.175H152.434V348.808H135.972V332.175Z" fill="#262B44"/>
<path d="M119.511 332.175H135.973V348.808H119.511V332.175Z" fill="#181425"/>
<path d="M333.242 348.809H349.703V365.442H333.242V348.809Z" fill="#181425"/>
<path d="M316.781 348.809H333.242V365.442H316.781V348.809Z" fill="#181425"/>
<path d="M300.32 348.809H316.781V365.442H300.32V348.809Z" fill="#181425"/>
<path d="M283.859 348.809H300.32V365.442H283.859V348.809Z" fill="#181425"/>
<path d="M152.433 348.809H168.895V365.442H152.433V348.809Z" fill="#181425"/>
<path d="M135.972 348.809H152.434V365.442H135.972V348.809Z" fill="#181425"/>
<path d="M119.511 348.809H135.973V365.442H119.511V348.809Z" fill="#181425"/>
<path d="M103.046 348.809H119.508V365.442H103.046V348.809Z" fill="#181425"/>
<path d="M349.437 365.441H365.898V382.075H349.437V365.441Z" fill="#181425"/>
<path d="M333.242 365.441H349.703V382.075H333.242V365.441Z" fill="#FF7C06"/>
<path d="M316.781 365.441H333.242V382.075H316.781V365.441Z" fill="white"/>
<path d="M300.32 365.441H316.781V382.075H300.32V365.441Z" fill="white"/>
<path d="M283.859 365.441H300.32V382.075H283.859V365.441Z" fill="#FF7C06"/>
<path d="M267.398 365.441H283.859V382.075H267.398V365.441Z" fill="#181425"/>
<path d="M168.894 365.441H185.355V382.075H168.894V365.441Z" fill="#181425"/>
<path d="M152.433 365.441H168.895V382.075H152.433V365.441Z" fill="#FF7C06"/>
<path d="M135.972 365.441H152.434V382.075H135.972V365.441Z" fill="#FF7C06"/>
<path d="M119.511 365.441H135.973V382.075H119.511V365.441Z" fill="white"/>
<path d="M103.046 365.441H119.508V382.075H103.046V365.441Z" fill="white"/>
<path d="M86.5854 365.441H103.047V382.075H86.5854V365.441Z" fill="#181425"/>
<path d="M349.437 382.075H365.898V398.708H349.437V382.075Z" fill="#181425"/>
<path d="M333.242 382.075H349.703V398.708H333.242V382.075Z" fill="#E45C00"/>
<path d="M316.781 382.075H333.242V398.708H316.781V382.075Z" fill="#E45C00"/>
<path d="M300.32 382.075H316.781V398.708H300.32V382.075Z" fill="#E45C00"/>
<path d="M283.859 382.075H300.32V398.708H283.859V382.075Z" fill="#E45C00"/>
<path d="M267.398 382.075H283.859V398.708H267.398V382.075Z" fill="#181425"/>
<path d="M168.894 382.075H185.355V398.708H168.894V382.075Z" fill="#181425"/>
<path d="M152.433 382.075H168.895V398.708H152.433V382.075Z" fill="#E45C00"/>
<path d="M135.972 382.075H152.434V398.708H135.972V382.075Z" fill="#E45C00"/>
<path d="M119.511 382.075H135.973V398.708H119.511V382.075Z" fill="#E45C00"/>
<path d="M103.046 382.075H119.508V398.708H103.046V382.075Z" fill="#E45C00"/>
<path d="M86.5854 382.075H103.047V398.708H86.5854V382.075Z" fill="#E45C00"/>
<path d="M70.1245 382.075H86.5859V398.708H70.1245V382.075Z" fill="#181425"/>
<path d="M349.437 398.44H365.898V415.074H349.437V398.44Z" fill="#181425"/>
<path d="M333.242 398.44H349.703V415.074H333.242V398.44Z" fill="#181425"/>
<path d="M316.781 398.44H333.242V415.074H316.781V398.44Z" fill="#181425"/>
<path d="M300.32 398.44H316.781V415.074H300.32V398.44Z" fill="#181425"/>
<path d="M283.859 398.44H300.32V415.074H283.859V398.44Z" fill="#181425"/>
<path d="M267.398 398.44H283.859V415.074H267.398V398.44Z" fill="#181425"/>
<path d="M168.894 398.44H185.355V415.074H168.894V398.44Z" fill="#181425"/>
<path d="M152.433 398.44H168.895V415.074H152.433V398.44Z" fill="#181425"/>
<path d="M135.972 398.44H152.434V415.074H135.972V398.44Z" fill="#181425"/>
<path d="M119.511 398.44H135.973V415.074H119.511V398.44Z" fill="#181425"/>
<path d="M103.046 398.44H119.508V415.074H103.046V398.44Z" fill="#181425"/>
<path d="M86.5854 398.44H103.047V415.074H86.5854V398.44Z" fill="#181425"/>
<path d="M70.1245 398.44H86.5859V415.074H70.1245V398.44Z" fill="#181425"/>
</g>
</g>
<defs>
<filter id="filter0_d_1543_39563" x="0.542969" y="0.0458984" width="435.203" height="423.027" filterUnits="userSpaceOnUse" color-interpolation-filters="sRGB">
<feFlood flood-opacity="0" result="BackgroundImageFix"/>
<feColorMatrix in="SourceAlpha" type="matrix" values="0 0 0 0 0 0 0 0 0 0 0 0 0 0 0 0 0 0 127 0" result="hardAlpha"/>
<feOffset dy="4"/>
<feGaussianBlur stdDeviation="2"/>
<feComposite in2="hardAlpha" operator="out"/>
<feColorMatrix type="matrix" values="0 0 0 0 0 0 0 0 0 0 0 0 0 0 0 0 0 0 0.25 0"/>
<feBlend mode="normal" in2="BackgroundImageFix" result="effect1_dropShadow_1543_39563"/>
<feBlend mode="normal" in="SourceGraphic" in2="effect1_dropShadow_1543_39563" result="shape"/>
</filter>
<clipPath id="clip0_1543_39563">
<rect width="427.202" height="415.027" fill="white" transform="matrix(-1 0 0 1 431.746 0.0458984)"/>
</clipPath>
</defs>
</svg>
