<svg width="25" height="21" viewBox="0 0 25 21" fill="none" xmlns="http://www.w3.org/2000/svg">
<path d="M12.1891 3.09286C12.4179 2.82829 12.6183 2.58338 12.8314 2.35056C13.9836 1.0935 15.3774 0.258221 17.0748 0.0495917C19.991 -0.309463 22.7577 1.30364 23.8606 4.1602C24.6764 6.26463 24.5089 8.32598 23.5076 10.3322C22.6575 12.0382 21.4611 13.4752 20.1211 14.8041C18.1912 16.7226 16.0459 18.3682 13.7593 19.8256C12.7461 20.4711 11.6432 20.4847 10.633 19.8361C7.83646 18.0401 5.22085 16.0105 3.0195 13.4865C1.85228 12.1478 0.858525 10.6957 0.319403 8.97077C-0.618266 5.95849 0.543726 2.44505 3.34327 0.835732C5.58127 -0.449305 8.40773 -0.250502 10.5321 1.42685C11.0555 1.84033 11.4922 2.36871 11.9677 2.84568C12.0395 2.91598 12.1001 2.99459 12.1891 3.09286Z" fill="#393939"/>
<path d="M16 4.16694C16.3623 4.01168 16.5999 3.60661 16.9425 3.40359C17.1964 3.25312 17.5034 3.10122 17.7993 3.06087C18.6346 2.94696 19.8886 2.95351 20.6229 3.43086C21.5165 4.01167 22.1691 4.9389 22.1691 6.05974" stroke="white" stroke-linecap="round"/>
</svg>
