<svg width="36" height="30" viewBox="0 0 36 30" fill="none" xmlns="http://www.w3.org/2000/svg">
<path d="M17.9991 4.56709C18.3369 4.17642 18.6328 3.81477 18.9475 3.47097C20.649 1.61472 22.7072 0.381304 25.2136 0.0732298C29.5198 -0.45697 33.6052 1.92502 35.2339 6.14318C36.4385 9.25071 36.1912 12.2946 34.7127 15.257C33.4573 17.7763 31.6906 19.8982 29.712 21.8605C26.8621 24.6935 23.6943 27.1235 20.3178 29.2755C18.8217 30.2288 17.193 30.2489 15.7013 29.2911C11.5718 26.639 7.70941 23.642 4.45876 19.915C2.73517 17.9382 1.26775 15.7939 0.471648 13.2467C-0.912966 8.79864 0.802896 3.6105 4.93686 1.23409C8.24161 -0.663469 12.4153 -0.369906 15.5522 2.10696C16.3252 2.71753 16.97 3.49776 17.6722 4.20209C17.7782 4.3059 17.8677 4.42198 17.9991 4.56709Z" fill="url(#paint0_linear_1543_40047)"/>
<defs>
<linearGradient id="paint0_linear_1543_40047" x1="18" y1="0" x2="18" y2="30" gradientUnits="userSpaceOnUse">
<stop stop-color="#FF7C06"/>
<stop offset="1" stop-color="#E45C00"/>
</linearGradient>
</defs>
</svg>
