<svg width="504" height="58" viewBox="0 0 504 58" fill="none" xmlns="http://www.w3.org/2000/svg">
<mask id="path-1-outside-1_1543_39556" maskUnits="userSpaceOnUse" x="0" y="0" width="504" height="58" fill="black">
<rect fill="white" width="504" height="58"/>
<path d="M28.7755 47V56H24.3129H19.8503H10.9252H6.46259H2V47H6.46259H10.9252V20V11H6.46259H2V2H6.46259H10.9252H15.3878H19.8503H24.3129H28.7755V11H24.3129H19.8503V47H24.3129H28.7755Z"/>
<path d="M91.2755 20V6.5V2H100.201V6.5V11V47V56H91.2755V47H86.8129V42.5H82.3503V38H77.8878V33.5H73.4252V29H68.9626V24.5H64.5V20H60.0374V33.5V56H55.5748H51.1122V51.5V47V42.5V33.5V29V24.5V20V15.5V11V6.5V2H55.5748H60.0374V6.5H64.5V11H68.9626V15.5H73.4252V20H77.8878V24.5H82.3503V29H86.8129V33.5H91.2755V20Z"/>
<path d="M158.238 6.5V11V20V29V33.5V38H153.776V42.5H149.313V47H144.85V51.5H140.388V56H127V51.5H122.537V47H118.075V42.5H113.612V38H109.15V33.5V29V20V11V6.5V2H113.612H118.075V6.5V11V29V33.5H122.537V38H127V42.5H131.463V47H135.925V42.5H140.388V38H144.85V33.5H149.313V29V11V6.5V2H153.776H158.238V6.5Z"/>
<path d="M167.187 11V6.5V2H171.65H176.112H189.5H216.276V11H211.813H207.35H198.425H193.963H189.5H180.575H176.112V24.5H207.35V33.5H176.112V47H180.575H189.5H193.963H198.425H207.35H211.813H216.276V56H189.5H176.112H171.65H167.187V51.5V47V42.5V33.5V29V24.5V20V15.5V11Z"/>
<path d="M265.388 20V6.5V2H274.313V6.5V11V47V56H265.388V47H260.925V42.5H256.463V38H252V33.5H247.537V29H243.075V24.5H238.612V20H234.15V33.5V56H229.687H225.225V51.5V47V42.5V33.5V29V24.5V20V15.5V11V6.5V2H229.687H234.15V6.5H238.612V11H243.075V15.5H247.537V20H252V24.5H256.463V29H260.925V33.5H265.388V20Z"/>
<path d="M283.262 11V6.5V2H287.724H292.187H305.575H327.888V11H323.425H318.963H310.037V33.5V56H301.112V33.5V11H296.65H283.262Z"/>
<path d="M363.612 11H359.15H354.687V15.5H350.224V20V24.5V33.5V38V42.5H354.687V47H359.15H363.612H368.075H372.537H377V42.5H381.463V38V33.5V20V15.5H377V11H372.537H368.075H363.612ZM390.388 33.5V47H385.925V51.5H381.463V56H368.075H363.612H350.224V51.5H345.762V47H341.299V38V33.5V29V24.5V11H345.762V6.5H350.224V2H359.15H363.612H368.075H381.463V6.5H385.925V11H390.388V20V33.5Z"/>
<path d="M399.337 11V6.5V2H403.799H408.262H421.65H439.5V6.5H443.963V11H448.425V20V24.5V29H443.963V33.5H439.5V38V42.5H443.963V47H448.425V51.5V56H439.5V51.5H435.037V47H430.575V42.5H426.112V38H421.65H408.262V56H399.337V38V33.5V29V24.5V20V15.5V11ZM421.65 11H412.724H408.262V24.5V29H412.724H417.187H421.65H426.112H430.575H435.037V24.5H439.5V20V15.5H435.037V11H430.575H426.112H421.65Z"/>
<path d="M502 6.5V11V15.5V20H497.537V24.5H493.075V29H488.612V33.5H484.15V38V56H475.224V38V33.5H470.762V29H466.299V24.5H461.837V20H457.374V15.5V11V6.5V2H461.837H466.299V6.5V11V15.5H470.762V20H475.224V24.5H479.687H484.15V20H488.612V15.5H493.075V11V6.5V2H497.537H502V6.5Z"/>
</mask>
<path d="M28.7755 47V56H24.3129H19.8503H10.9252H6.46259H2V47H6.46259H10.9252V20V11H6.46259H2V2H6.46259H10.9252H15.3878H19.8503H24.3129H28.7755V11H24.3129H19.8503V47H24.3129H28.7755Z" fill="url(#paint0_linear_1543_39556)"/>
<path d="M91.2755 20V6.5V2H100.201V6.5V11V47V56H91.2755V47H86.8129V42.5H82.3503V38H77.8878V33.5H73.4252V29H68.9626V24.5H64.5V20H60.0374V33.5V56H55.5748H51.1122V51.5V47V42.5V33.5V29V24.5V20V15.5V11V6.5V2H55.5748H60.0374V6.5H64.5V11H68.9626V15.5H73.4252V20H77.8878V24.5H82.3503V29H86.8129V33.5H91.2755V20Z" fill="url(#paint1_linear_1543_39556)"/>
<path d="M158.238 6.5V11V20V29V33.5V38H153.776V42.5H149.313V47H144.85V51.5H140.388V56H127V51.5H122.537V47H118.075V42.5H113.612V38H109.15V33.5V29V20V11V6.5V2H113.612H118.075V6.5V11V29V33.5H122.537V38H127V42.5H131.463V47H135.925V42.5H140.388V38H144.85V33.5H149.313V29V11V6.5V2H153.776H158.238V6.5Z" fill="url(#paint2_linear_1543_39556)"/>
<path d="M167.187 11V6.5V2H171.65H176.112H189.5H216.276V11H211.813H207.35H198.425H193.963H189.5H180.575H176.112V24.5H207.35V33.5H176.112V47H180.575H189.5H193.963H198.425H207.35H211.813H216.276V56H189.5H176.112H171.65H167.187V51.5V47V42.5V33.5V29V24.5V20V15.5V11Z" fill="url(#paint3_linear_1543_39556)"/>
<path d="M265.388 20V6.5V2H274.313V6.5V11V47V56H265.388V47H260.925V42.5H256.463V38H252V33.5H247.537V29H243.075V24.5H238.612V20H234.15V33.5V56H229.687H225.225V51.5V47V42.5V33.5V29V24.5V20V15.5V11V6.5V2H229.687H234.15V6.5H238.612V11H243.075V15.5H247.537V20H252V24.5H256.463V29H260.925V33.5H265.388V20Z" fill="url(#paint4_linear_1543_39556)"/>
<path d="M283.262 11V6.5V2H287.724H292.187H305.575H327.888V11H323.425H318.963H310.037V33.5V56H301.112V33.5V11H296.65H283.262Z" fill="url(#paint5_linear_1543_39556)"/>
<path d="M363.612 11H359.15H354.687V15.5H350.224V20V24.5V33.5V38V42.5H354.687V47H359.15H363.612H368.075H372.537H377V42.5H381.463V38V33.5V20V15.5H377V11H372.537H368.075H363.612ZM390.388 33.5V47H385.925V51.5H381.463V56H368.075H363.612H350.224V51.5H345.762V47H341.299V38V33.5V29V24.5V11H345.762V6.5H350.224V2H359.15H363.612H368.075H381.463V6.5H385.925V11H390.388V20V33.5Z" fill="url(#paint6_linear_1543_39556)"/>
<path d="M399.337 11V6.5V2H403.799H408.262H421.65H439.5V6.5H443.963V11H448.425V20V24.5V29H443.963V33.5H439.5V38V42.5H443.963V47H448.425V51.5V56H439.5V51.5H435.037V47H430.575V42.5H426.112V38H421.65H408.262V56H399.337V38V33.5V29V24.5V20V15.5V11ZM421.65 11H412.724H408.262V24.5V29H412.724H417.187H421.65H426.112H430.575H435.037V24.5H439.5V20V15.5H435.037V11H430.575H426.112H421.65Z" fill="url(#paint7_linear_1543_39556)"/>
<path d="M502 6.5V11V15.5V20H497.537V24.5H493.075V29H488.612V33.5H484.15V38V56H475.224V38V33.5H470.762V29H466.299V24.5H461.837V20H457.374V15.5V11V6.5V2H461.837H466.299V6.5V11V15.5H470.762V20H475.224V24.5H479.687H484.15V20H488.612V15.5H493.075V11V6.5V2H497.537H502V6.5Z" fill="url(#paint8_linear_1543_39556)"/>
<path d="M28.7755 47H30.7755V45H28.7755V47ZM28.7755 56V58H30.7755V56H28.7755ZM2 56H0V58H2V56ZM2 47V45H0V47H2ZM10.9252 47V49H12.9252V47H10.9252ZM10.9252 11H12.9252V9H10.9252V11ZM2 11H0V13H2V11ZM2 2V0H0V2H2ZM28.7755 2H30.7755V0H28.7755V2ZM28.7755 11V13H30.7755V11H28.7755ZM19.8503 11V9H17.8503V11H19.8503ZM19.8503 47H17.8503V49H19.8503V47ZM91.2755 2V0H89.2755V2H91.2755ZM100.201 2H102.201V0H100.201V2ZM100.201 56V58H102.201V56H100.201ZM91.2755 56H89.2755V58H91.2755V56ZM91.2755 47H93.2755V45H91.2755V47ZM86.8129 47H84.8129V49H86.8129V47ZM86.8129 42.5H88.8129V40.5H86.8129V42.5ZM82.3503 42.5H80.3503V44.5H82.3503V42.5ZM82.3503 38H84.3503V36H82.3503V38ZM77.8878 38H75.8878V40H77.8878V38ZM77.8878 33.5H79.8878V31.5H77.8878V33.5ZM73.4252 33.5H71.4252V35.5H73.4252V33.5ZM73.4252 29H75.4252V27H73.4252V29ZM68.9626 29H66.9626V31H68.9626V29ZM68.9626 24.5H70.9626V22.5H68.9626V24.5ZM64.5 24.5H62.5V26.5H64.5V24.5ZM64.5 20H66.5V18H64.5V20ZM60.0374 20V18H58.0374V20H60.0374ZM60.0374 56V58H62.0374V56H60.0374ZM51.1122 56H49.1122V58H51.1122V56ZM51.1122 2V0H49.1122V2H51.1122ZM60.0374 2H62.0374V0H60.0374V2ZM60.0374 6.5H58.0374V8.5H60.0374V6.5ZM64.5 6.5H66.5V4.5H64.5V6.5ZM64.5 11H62.5V13H64.5V11ZM68.9626 11H70.9626V9H68.9626V11ZM68.9626 15.5H66.9626V17.5H68.9626V15.5ZM73.4252 15.5H75.4252V13.5H73.4252V15.5ZM73.4252 20H71.4252V22H73.4252V20ZM77.8878 20H79.8878V18H77.8878V20ZM77.8878 24.5H75.8878V26.5H77.8878V24.5ZM82.3503 24.5H84.3503V22.5H82.3503V24.5ZM82.3503 29H80.3503V31H82.3503V29ZM86.8129 29H88.8129V27H86.8129V29ZM86.8129 33.5H84.8129V35.5H86.8129V33.5ZM91.2755 33.5V35.5H93.2755V33.5H91.2755ZM158.238 38V40H160.238V38H158.238ZM153.776 38V36H151.776V38H153.776ZM153.776 42.5V44.5H155.776V42.5H153.776ZM149.313 42.5V40.5H147.313V42.5H149.313ZM149.313 47V49H151.313V47H149.313ZM144.85 47V45H142.85V47H144.85ZM144.85 51.5V53.5H146.85V51.5H144.85ZM140.388 51.5V49.5H138.388V51.5H140.388ZM140.388 56V58H142.388V56H140.388ZM127 56H125V58H127V56ZM127 51.5H129V49.5H127V51.5ZM122.537 51.5H120.537V53.5H122.537V51.5ZM122.537 47H124.537V45H122.537V47ZM118.075 47H116.075V49H118.075V47ZM118.075 42.5H120.075V40.5H118.075V42.5ZM113.612 42.5H111.612V44.5H113.612V42.5ZM113.612 38H115.612V36H113.612V38ZM109.15 38H107.15V40H109.15V38ZM109.15 2V0H107.15V2H109.15ZM118.075 2H120.075V0H118.075V2ZM118.075 33.5H116.075V35.5H118.075V33.5ZM122.537 33.5H124.537V31.5H122.537V33.5ZM122.537 38H120.537V40H122.537V38ZM127 38H129V36H127V38ZM127 42.5H125V44.5H127V42.5ZM131.463 42.5H133.463V40.5H131.463V42.5ZM131.463 47H129.463V49H131.463V47ZM135.925 47V49H137.925V47H135.925ZM135.925 42.5V40.5H133.925V42.5H135.925ZM140.388 42.5V44.5H142.388V42.5H140.388ZM140.388 38V36H138.388V38H140.388ZM144.85 38V40H146.85V38H144.85ZM144.85 33.5V31.5H142.85V33.5H144.85ZM149.313 33.5V35.5H151.313V33.5H149.313ZM149.313 2V0H147.313V2H149.313ZM158.238 2H160.238V0H158.238V2ZM167.187 2V0H165.187V2H167.187ZM216.276 2H218.276V0H216.276V2ZM216.276 11V13H218.276V11H216.276ZM176.112 11V9H174.112V11H176.112ZM176.112 24.5H174.112V26.5H176.112V24.5ZM207.35 24.5H209.35V22.5H207.35V24.5ZM207.35 33.5V35.5H209.35V33.5H207.35ZM176.112 33.5V31.5H174.112V33.5H176.112ZM176.112 47H174.112V49H176.112V47ZM216.276 47H218.276V45H216.276V47ZM216.276 56V58H218.276V56H216.276ZM167.187 56H165.187V58H167.187V56ZM265.388 2V0H263.388V2H265.388ZM274.313 2H276.313V0H274.313V2ZM274.313 56V58H276.313V56H274.313ZM265.388 56H263.388V58H265.388V56ZM265.388 47H267.388V45H265.388V47ZM260.925 47H258.925V49H260.925V47ZM260.925 42.5H262.925V40.5H260.925V42.5ZM256.463 42.5H254.463V44.5H256.463V42.5ZM256.463 38H258.463V36H256.463V38ZM252 38H250V40H252V38ZM252 33.5H254V31.5H252V33.5ZM247.537 33.5H245.537V35.5H247.537V33.5ZM247.537 29H249.537V27H247.537V29ZM243.075 29H241.075V31H243.075V29ZM243.075 24.5H245.075V22.5H243.075V24.5ZM238.612 24.5H236.612V26.5H238.612V24.5ZM238.612 20H240.612V18H238.612V20ZM234.15 20V18H232.15V20H234.15ZM234.15 56V58H236.15V56H234.15ZM225.225 56H223.225V58H225.225V56ZM225.225 2V0H223.225V2H225.225ZM234.15 2H236.15V0H234.15V2ZM234.15 6.5H232.15V8.5H234.15V6.5ZM238.612 6.5H240.612V4.5H238.612V6.5ZM238.612 11H236.612V13H238.612V11ZM243.075 11H245.075V9H243.075V11ZM243.075 15.5H241.075V17.5H243.075V15.5ZM247.537 15.5H249.537V13.5H247.537V15.5ZM247.537 20H245.537V22H247.537V20ZM252 20H254V18H252V20ZM252 24.5H250V26.5H252V24.5ZM256.463 24.5H258.463V22.5H256.463V24.5ZM256.463 29H254.463V31H256.463V29ZM260.925 29H262.925V27H260.925V29ZM260.925 33.5H258.925V35.5H260.925V33.5ZM265.388 33.5V35.5H267.388V33.5H265.388ZM283.262 11H281.262V13H283.262V11ZM283.262 2V0H281.262V2H283.262ZM327.888 2H329.888V0H327.888V2ZM327.888 11V13H329.888V11H327.888ZM310.037 11V9H308.037V11H310.037ZM310.037 56V58H312.037V56H310.037ZM301.112 56H299.112V58H301.112V56ZM301.112 11H303.112V9H301.112V11ZM354.687 11V9H352.687V11H354.687ZM354.687 15.5V17.5H356.687V15.5H354.687ZM350.224 15.5V13.5H348.224V15.5H350.224ZM350.224 42.5H348.224V44.5H350.224V42.5ZM354.687 42.5H356.687V40.5H354.687V42.5ZM354.687 47H352.687V49H354.687V47ZM377 47V49H379V47H377ZM377 42.5V40.5H375V42.5H377ZM381.463 42.5V44.5H383.463V42.5H381.463ZM381.463 15.5H383.463V13.5H381.463V15.5ZM377 15.5H375V17.5H377V15.5ZM377 11H379V9H377V11ZM390.388 47V49H392.388V47H390.388ZM385.925 47V45H383.925V47H385.925ZM385.925 51.5V53.5H387.925V51.5H385.925ZM381.463 51.5V49.5H379.463V51.5H381.463ZM381.463 56V58H383.463V56H381.463ZM350.224 56H348.224V58H350.224V56ZM350.224 51.5H352.224V49.5H350.224V51.5ZM345.762 51.5H343.762V53.5H345.762V51.5ZM345.762 47H347.762V45H345.762V47ZM341.299 47H339.299V49H341.299V47ZM341.299 11V9H339.299V11H341.299ZM345.762 11V13H347.762V11H345.762ZM345.762 6.5V4.5H343.762V6.5H345.762ZM350.224 6.5V8.5H352.224V6.5H350.224ZM350.224 2V0H348.224V2H350.224ZM381.463 2H383.463V0H381.463V2ZM381.463 6.5H379.463V8.5H381.463V6.5ZM385.925 6.5H387.925V4.5H385.925V6.5ZM385.925 11H383.925V13H385.925V11ZM390.388 11H392.388V9H390.388V11ZM399.337 2V0H397.337V2H399.337ZM439.5 2H441.5V0H439.5V2ZM439.5 6.5H437.5V8.5H439.5V6.5ZM443.963 6.5H445.963V4.5H443.963V6.5ZM443.963 11H441.963V13H443.963V11ZM448.425 11H450.425V9H448.425V11ZM448.425 29V31H450.425V29H448.425ZM443.963 29V27H441.963V29H443.963ZM443.963 33.5V35.5H445.963V33.5H443.963ZM439.5 33.5V31.5H437.5V33.5H439.5ZM439.5 42.5H437.5V44.5H439.5V42.5ZM443.963 42.5H445.963V40.5H443.963V42.5ZM443.963 47H441.963V49H443.963V47ZM448.425 47H450.425V45H448.425V47ZM448.425 56V58H450.425V56H448.425ZM439.5 56H437.5V58H439.5V56ZM439.5 51.5H441.5V49.5H439.5V51.5ZM435.037 51.5H433.037V53.5H435.037V51.5ZM435.037 47H437.037V45H435.037V47ZM430.575 47H428.575V49H430.575V47ZM430.575 42.5H432.575V40.5H430.575V42.5ZM426.112 42.5H424.112V44.5H426.112V42.5ZM426.112 38H428.112V36H426.112V38ZM408.262 38V36H406.262V38H408.262ZM408.262 56V58H410.262V56H408.262ZM399.337 56H397.337V58H399.337V56ZM408.262 11V9H406.262V11H408.262ZM408.262 29H406.262V31H408.262V29ZM435.037 29V31H437.037V29H435.037ZM435.037 24.5V22.5H433.037V24.5H435.037ZM439.5 24.5V26.5H441.5V24.5H439.5ZM439.5 15.5H441.5V13.5H439.5V15.5ZM435.037 15.5H433.037V17.5H435.037V15.5ZM435.037 11H437.037V9H435.037V11ZM502 20V22H504V20H502ZM497.537 20V18H495.537V20H497.537ZM497.537 24.5V26.5H499.537V24.5H497.537ZM493.075 24.5V22.5H491.075V24.5H493.075ZM493.075 29V31H495.075V29H493.075ZM488.612 29V27H486.612V29H488.612ZM488.612 33.5V35.5H490.612V33.5H488.612ZM484.15 33.5V31.5H482.15V33.5H484.15ZM484.15 56V58H486.15V56H484.15ZM475.224 56H473.224V58H475.224V56ZM475.224 33.5H477.224V31.5H475.224V33.5ZM470.762 33.5H468.762V35.5H470.762V33.5ZM470.762 29H472.762V27H470.762V29ZM466.299 29H464.299V31H466.299V29ZM466.299 24.5H468.299V22.5H466.299V24.5ZM461.837 24.5H459.837V26.5H461.837V24.5ZM461.837 20H463.837V18H461.837V20ZM457.374 20H455.374V22H457.374V20ZM457.374 2V0H455.374V2H457.374ZM466.299 2H468.299V0H466.299V2ZM466.299 15.5H464.299V17.5H466.299V15.5ZM470.762 15.5H472.762V13.5H470.762V15.5ZM470.762 20H468.762V22H470.762V20ZM475.224 20H477.224V18H475.224V20ZM475.224 24.5H473.224V26.5H475.224V24.5ZM484.15 24.5V26.5H486.15V24.5H484.15ZM484.15 20V18H482.15V20H484.15ZM488.612 20V22H490.612V20H488.612ZM488.612 15.5V13.5H486.612V15.5H488.612ZM493.075 15.5V17.5H495.075V15.5H493.075ZM493.075 2V0H491.075V2H493.075ZM502 2H504V0H502V2ZM26.7755 47V56H30.7755V47H26.7755ZM28.7755 54H24.3129V58H28.7755V54ZM24.3129 54H19.8503V58H24.3129V54ZM19.8503 54H10.9252V58H19.8503V54ZM10.9252 54H6.46259V58H10.9252V54ZM6.46259 54H2V58H6.46259V54ZM4 56V47H0V56H4ZM2 49H6.46259V45H2V49ZM6.46259 49H10.9252V45H6.46259V49ZM12.9252 47V20H8.92517V47H12.9252ZM12.9252 20V11H8.92517V20H12.9252ZM10.9252 9H6.46259V13H10.9252V9ZM6.46259 9H2V13H6.46259V9ZM4 11V2H0V11H4ZM2 4H6.46259V0H2V4ZM6.46259 4H10.9252V0H6.46259V4ZM10.9252 4H15.3878V0H10.9252V4ZM15.3878 4H19.8503V0H15.3878V4ZM19.8503 4H24.3129V0H19.8503V4ZM24.3129 4H28.7755V0H24.3129V4ZM26.7755 2V11H30.7755V2H26.7755ZM28.7755 9H24.3129V13H28.7755V9ZM24.3129 9H19.8503V13H24.3129V9ZM17.8503 11V47H21.8503V11H17.8503ZM19.8503 49H24.3129V45H19.8503V49ZM24.3129 49H28.7755V45H24.3129V49ZM93.2755 20V6.5H89.2755V20H93.2755ZM93.2755 6.5V2H89.2755V6.5H93.2755ZM91.2755 4H100.201V0H91.2755V4ZM98.2007 2V6.5H102.201V2H98.2007ZM98.2007 6.5V11H102.201V6.5H98.2007ZM98.2007 11V47H102.201V11H98.2007ZM98.2007 47V56H102.201V47H98.2007ZM100.201 54H91.2755V58H100.201V54ZM93.2755 56V47H89.2755V56H93.2755ZM91.2755 45H86.8129V49H91.2755V45ZM88.8129 47V42.5H84.8129V47H88.8129ZM86.8129 40.5H82.3503V44.5H86.8129V40.5ZM84.3503 42.5V38H80.3503V42.5H84.3503ZM82.3503 36H77.8878V40H82.3503V36ZM79.8878 38V33.5H75.8878V38H79.8878ZM77.8878 31.5H73.4252V35.5H77.8878V31.5ZM75.4252 33.5V29H71.4252V33.5H75.4252ZM73.4252 27H68.9626V31H73.4252V27ZM70.9626 29V24.5H66.9626V29H70.9626ZM68.9626 22.5H64.5V26.5H68.9626V22.5ZM66.5 24.5V20H62.5V24.5H66.5ZM64.5 18H60.0374V22H64.5V18ZM58.0374 20V33.5H62.0374V20H58.0374ZM58.0374 33.5V56H62.0374V33.5H58.0374ZM60.0374 54H55.5748V58H60.0374V54ZM55.5748 54H51.1122V58H55.5748V54ZM53.1122 56V51.5H49.1122V56H53.1122ZM53.1122 51.5V47H49.1122V51.5H53.1122ZM53.1122 47V42.5H49.1122V47H53.1122ZM53.1122 42.5V33.5H49.1122V42.5H53.1122ZM53.1122 33.5V29H49.1122V33.5H53.1122ZM53.1122 29V24.5H49.1122V29H53.1122ZM53.1122 24.5V20H49.1122V24.5H53.1122ZM53.1122 20V15.5H49.1122V20H53.1122ZM53.1122 15.5V11H49.1122V15.5H53.1122ZM53.1122 11V6.5H49.1122V11H53.1122ZM53.1122 6.5V2H49.1122V6.5H53.1122ZM51.1122 4H55.5748V0H51.1122V4ZM55.5748 4H60.0374V0H55.5748V4ZM58.0374 2V6.5H62.0374V2H58.0374ZM60.0374 8.5H64.5V4.5H60.0374V8.5ZM62.5 6.5V11H66.5V6.5H62.5ZM64.5 13H68.9626V9H64.5V13ZM66.9626 11V15.5H70.9626V11H66.9626ZM68.9626 17.5H73.4252V13.5H68.9626V17.5ZM71.4252 15.5V20H75.4252V15.5H71.4252ZM73.4252 22H77.8878V18H73.4252V22ZM75.8878 20V24.5H79.8878V20H75.8878ZM77.8878 26.5H82.3503V22.5H77.8878V26.5ZM80.3503 24.5V29H84.3503V24.5H80.3503ZM82.3503 31H86.8129V27H82.3503V31ZM84.8129 29V33.5H88.8129V29H84.8129ZM86.8129 35.5H91.2755V31.5H86.8129V35.5ZM93.2755 33.5V20H89.2755V33.5H93.2755ZM156.238 6.5V11H160.238V6.5H156.238ZM156.238 11V20H160.238V11H156.238ZM156.238 20V29H160.238V20H156.238ZM156.238 29V33.5H160.238V29H156.238ZM156.238 33.5V38H160.238V33.5H156.238ZM158.238 36H153.776V40H158.238V36ZM151.776 38V42.5H155.776V38H151.776ZM153.776 40.5H149.313V44.5H153.776V40.5ZM147.313 42.5V47H151.313V42.5H147.313ZM149.313 45H144.85V49H149.313V45ZM142.85 47V51.5H146.85V47H142.85ZM144.85 49.5H140.388V53.5H144.85V49.5ZM138.388 51.5V56H142.388V51.5H138.388ZM140.388 54H127V58H140.388V54ZM129 56V51.5H125V56H129ZM127 49.5H122.537V53.5H127V49.5ZM124.537 51.5V47H120.537V51.5H124.537ZM122.537 45H118.075V49H122.537V45ZM120.075 47V42.5H116.075V47H120.075ZM118.075 40.5H113.612V44.5H118.075V40.5ZM115.612 42.5V38H111.612V42.5H115.612ZM113.612 36H109.15V40H113.612V36ZM111.15 38V33.5H107.15V38H111.15ZM111.15 33.5V29H107.15V33.5H111.15ZM111.15 29V20H107.15V29H111.15ZM111.15 20V11H107.15V20H111.15ZM111.15 11V6.5H107.15V11H111.15ZM111.15 6.5V2H107.15V6.5H111.15ZM109.15 4H113.612V0H109.15V4ZM113.612 4H118.075V0H113.612V4ZM116.075 2V6.5H120.075V2H116.075ZM116.075 6.5V11H120.075V6.5H116.075ZM116.075 11V29H120.075V11H116.075ZM116.075 29V33.5H120.075V29H116.075ZM118.075 35.5H122.537V31.5H118.075V35.5ZM120.537 33.5V38H124.537V33.5H120.537ZM122.537 40H127V36H122.537V40ZM125 38V42.5H129V38H125ZM127 44.5H131.463V40.5H127V44.5ZM129.463 42.5V47H133.463V42.5H129.463ZM131.463 49H135.925V45H131.463V49ZM137.925 47V42.5H133.925V47H137.925ZM135.925 44.5H140.388V40.5H135.925V44.5ZM142.388 42.5V38H138.388V42.5H142.388ZM140.388 40H144.85V36H140.388V40ZM146.85 38V33.5H142.85V38H146.85ZM144.85 35.5H149.313V31.5H144.85V35.5ZM151.313 33.5V29H147.313V33.5H151.313ZM151.313 29V11H147.313V29H151.313ZM151.313 11V6.5H147.313V11H151.313ZM151.313 6.5V2H147.313V6.5H151.313ZM149.313 4H153.776V0H149.313V4ZM153.776 4H158.238V0H153.776V4ZM156.238 2V6.5H160.238V2H156.238ZM169.187 11V6.5H165.187V11H169.187ZM169.187 6.5V2H165.187V6.5H169.187ZM167.187 4H171.65V0H167.187V4ZM171.65 4H176.112V0H171.65V4ZM176.112 4H189.5V0H176.112V4ZM189.5 4H216.276V0H189.5V4ZM214.276 2V11H218.276V2H214.276ZM216.276 9H211.813V13H216.276V9ZM211.813 9H207.35V13H211.813V9ZM207.35 9H198.425V13H207.35V9ZM198.425 9H193.963V13H198.425V9ZM193.963 9H189.5V13H193.963V9ZM189.5 9H180.575V13H189.5V9ZM180.575 9H176.112V13H180.575V9ZM174.112 11V24.5H178.112V11H174.112ZM176.112 26.5H207.35V22.5H176.112V26.5ZM205.35 24.5V33.5H209.35V24.5H205.35ZM207.35 31.5H176.112V35.5H207.35V31.5ZM174.112 33.5V47H178.112V33.5H174.112ZM176.112 49H180.575V45H176.112V49ZM180.575 49H189.5V45H180.575V49ZM189.5 49H193.963V45H189.5V49ZM193.963 49H198.425V45H193.963V49ZM198.425 49H207.35V45H198.425V49ZM207.35 49H211.813V45H207.35V49ZM211.813 49H216.276V45H211.813V49ZM214.276 47V56H218.276V47H214.276ZM216.276 54H189.5V58H216.276V54ZM189.5 54H176.112V58H189.5V54ZM176.112 54H171.65V58H176.112V54ZM171.65 54H167.187V58H171.65V54ZM169.187 56V51.5H165.187V56H169.187ZM169.187 51.5V47H165.187V51.5H169.187ZM169.187 47V42.5H165.187V47H169.187ZM169.187 42.5V33.5H165.187V42.5H169.187ZM169.187 33.5V29H165.187V33.5H169.187ZM169.187 29V24.5H165.187V29H169.187ZM169.187 24.5V20H165.187V24.5H169.187ZM169.187 20V15.5H165.187V20H169.187ZM169.187 15.5V11H165.187V15.5H169.187ZM267.388 20V6.5H263.388V20H267.388ZM267.388 6.5V2H263.388V6.5H267.388ZM265.388 4H274.313V0H265.388V4ZM272.313 2V6.5H276.313V2H272.313ZM272.313 6.5V11H276.313V6.5H272.313ZM272.313 11V47H276.313V11H272.313ZM272.313 47V56H276.313V47H272.313ZM274.313 54H265.388V58H274.313V54ZM267.388 56V47H263.388V56H267.388ZM265.388 45H260.925V49H265.388V45ZM262.925 47V42.5H258.925V47H262.925ZM260.925 40.5H256.463V44.5H260.925V40.5ZM258.463 42.5V38H254.463V42.5H258.463ZM256.463 36H252V40H256.463V36ZM254 38V33.5H250V38H254ZM252 31.5H247.537V35.5H252V31.5ZM249.537 33.5V29H245.537V33.5H249.537ZM247.537 27H243.075V31H247.537V27ZM245.075 29V24.5H241.075V29H245.075ZM243.075 22.5H238.612V26.5H243.075V22.5ZM240.612 24.5V20H236.612V24.5H240.612ZM238.612 18H234.15V22H238.612V18ZM232.15 20V33.5H236.15V20H232.15ZM232.15 33.5V56H236.15V33.5H232.15ZM234.15 54H229.687V58H234.15V54ZM229.687 54H225.225V58H229.687V54ZM227.225 56V51.5H223.225V56H227.225ZM227.225 51.5V47H223.225V51.5H227.225ZM227.225 47V42.5H223.225V47H227.225ZM227.225 42.5V33.5H223.225V42.5H227.225ZM227.225 33.5V29H223.225V33.5H227.225ZM227.225 29V24.5H223.225V29H227.225ZM227.225 24.5V20H223.225V24.5H227.225ZM227.225 20V15.5H223.225V20H227.225ZM227.225 15.5V11H223.225V15.5H227.225ZM227.225 11V6.5H223.225V11H227.225ZM227.225 6.5V2H223.225V6.5H227.225ZM225.225 4H229.687V0H225.225V4ZM229.687 4H234.15V0H229.687V4ZM232.15 2V6.5H236.15V2H232.15ZM234.15 8.5H238.612V4.5H234.15V8.5ZM236.612 6.5V11H240.612V6.5H236.612ZM238.612 13H243.075V9H238.612V13ZM241.075 11V15.5H245.075V11H241.075ZM243.075 17.5H247.537V13.5H243.075V17.5ZM245.537 15.5V20H249.537V15.5H245.537ZM247.537 22H252V18H247.537V22ZM250 20V24.5H254V20H250ZM252 26.5H256.463V22.5H252V26.5ZM254.463 24.5V29H258.463V24.5H254.463ZM256.463 31H260.925V27H256.463V31ZM258.925 29V33.5H262.925V29H258.925ZM260.925 35.5H265.388V31.5H260.925V35.5ZM267.388 33.5V20H263.388V33.5H267.388ZM285.262 11V6.5H281.262V11H285.262ZM285.262 6.5V2H281.262V6.5H285.262ZM283.262 4H287.724V0H283.262V4ZM287.724 4H292.187V0H287.724V4ZM292.187 4H305.575V0H292.187V4ZM305.575 4H327.888V0H305.575V4ZM325.888 2V11H329.888V2H325.888ZM327.888 9H323.425V13H327.888V9ZM323.425 9H318.963V13H323.425V9ZM318.963 9H310.037V13H318.963V9ZM308.037 11V33.5H312.037V11H308.037ZM308.037 33.5V56H312.037V33.5H308.037ZM310.037 54H301.112V58H310.037V54ZM303.112 56V33.5H299.112V56H303.112ZM303.112 33.5V11H299.112V33.5H303.112ZM301.112 9H296.65V13H301.112V9ZM296.65 9H283.262V13H296.65V9ZM363.612 9H359.15V13H363.612V9ZM359.15 9H354.687V13H359.15V9ZM352.687 11V15.5H356.687V11H352.687ZM354.687 13.5H350.224V17.5H354.687V13.5ZM348.224 15.5V20H352.224V15.5H348.224ZM348.224 20V24.5H352.224V20H348.224ZM348.224 24.5V33.5H352.224V24.5H348.224ZM348.224 33.5V38H352.224V33.5H348.224ZM348.224 38V42.5H352.224V38H348.224ZM350.224 44.5H354.687V40.5H350.224V44.5ZM352.687 42.5V47H356.687V42.5H352.687ZM354.687 49H359.15V45H354.687V49ZM359.15 49H363.612V45H359.15V49ZM363.612 49H368.075V45H363.612V49ZM368.075 49H372.537V45H368.075V49ZM372.537 49H377V45H372.537V49ZM379 47V42.5H375V47H379ZM377 44.5H381.463V40.5H377V44.5ZM383.463 42.5V38H379.463V42.5H383.463ZM383.463 38V33.5H379.463V38H383.463ZM383.463 33.5V20H379.463V33.5H383.463ZM383.463 20V15.5H379.463V20H383.463ZM381.463 13.5H377V17.5H381.463V13.5ZM379 15.5V11H375V15.5H379ZM377 9H372.537V13H377V9ZM372.537 9H368.075V13H372.537V9ZM368.075 9H363.612V13H368.075V9ZM388.388 33.5V47H392.388V33.5H388.388ZM390.388 45H385.925V49H390.388V45ZM383.925 47V51.5H387.925V47H383.925ZM385.925 49.5H381.463V53.5H385.925V49.5ZM379.463 51.5V56H383.463V51.5H379.463ZM381.463 54H368.075V58H381.463V54ZM368.075 54H363.612V58H368.075V54ZM363.612 54H350.224V58H363.612V54ZM352.224 56V51.5H348.224V56H352.224ZM350.224 49.5H345.762V53.5H350.224V49.5ZM347.762 51.5V47H343.762V51.5H347.762ZM345.762 45H341.299V49H345.762V45ZM343.299 47V38H339.299V47H343.299ZM343.299 38V33.5H339.299V38H343.299ZM343.299 33.5V29H339.299V33.5H343.299ZM343.299 29V24.5H339.299V29H343.299ZM343.299 24.5V11H339.299V24.5H343.299ZM341.299 13H345.762V9H341.299V13ZM347.762 11V6.5H343.762V11H347.762ZM345.762 8.5H350.224V4.5H345.762V8.5ZM352.224 6.5V2H348.224V6.5H352.224ZM350.224 4H359.15V0H350.224V4ZM359.15 4H363.612V0H359.15V4ZM363.612 4H368.075V0H363.612V4ZM368.075 4H381.463V0H368.075V4ZM379.463 2V6.5H383.463V2H379.463ZM381.463 8.5H385.925V4.5H381.463V8.5ZM383.925 6.5V11H387.925V6.5H383.925ZM385.925 13H390.388V9H385.925V13ZM388.388 11V20H392.388V11H388.388ZM388.388 20V33.5H392.388V20H388.388ZM401.337 11V6.5H397.337V11H401.337ZM401.337 6.5V2H397.337V6.5H401.337ZM399.337 4H403.799V0H399.337V4ZM403.799 4H408.262V0H403.799V4ZM408.262 4H421.65V0H408.262V4ZM421.65 4H439.5V0H421.65V4ZM437.5 2V6.5H441.5V2H437.5ZM439.5 8.5H443.963V4.5H439.5V8.5ZM441.963 6.5V11H445.963V6.5H441.963ZM443.963 13H448.425V9H443.963V13ZM446.425 11V20H450.425V11H446.425ZM446.425 20V24.5H450.425V20H446.425ZM446.425 24.5V29H450.425V24.5H446.425ZM448.425 27H443.963V31H448.425V27ZM441.963 29V33.5H445.963V29H441.963ZM443.963 31.5H439.5V35.5H443.963V31.5ZM437.5 33.5V38H441.5V33.5H437.5ZM437.5 38V42.5H441.5V38H437.5ZM439.5 44.5H443.963V40.5H439.5V44.5ZM441.963 42.5V47H445.963V42.5H441.963ZM443.963 49H448.425V45H443.963V49ZM446.425 47V51.5H450.425V47H446.425ZM446.425 51.5V56H450.425V51.5H446.425ZM448.425 54H439.5V58H448.425V54ZM441.5 56V51.5H437.5V56H441.5ZM439.5 49.5H435.037V53.5H439.5V49.5ZM437.037 51.5V47H433.037V51.5H437.037ZM435.037 45H430.575V49H435.037V45ZM432.575 47V42.5H428.575V47H432.575ZM430.575 40.5H426.112V44.5H430.575V40.5ZM428.112 42.5V38H424.112V42.5H428.112ZM426.112 36H421.65V40H426.112V36ZM421.65 36H408.262V40H421.65V36ZM406.262 38V56H410.262V38H406.262ZM408.262 54H399.337V58H408.262V54ZM401.337 56V38H397.337V56H401.337ZM401.337 38V33.5H397.337V38H401.337ZM401.337 33.5V29H397.337V33.5H401.337ZM401.337 29V24.5H397.337V29H401.337ZM401.337 24.5V20H397.337V24.5H401.337ZM401.337 20V15.5H397.337V20H401.337ZM401.337 15.5V11H397.337V15.5H401.337ZM421.65 9H412.724V13H421.65V9ZM412.724 9H408.262V13H412.724V9ZM406.262 11V24.5H410.262V11H406.262ZM406.262 24.5V29H410.262V24.5H406.262ZM408.262 31H412.724V27H408.262V31ZM412.724 31H417.187V27H412.724V31ZM417.187 31H421.65V27H417.187V31ZM421.65 31H426.112V27H421.65V31ZM426.112 31H430.575V27H426.112V31ZM430.575 31H435.037V27H430.575V31ZM437.037 29V24.5H433.037V29H437.037ZM435.037 26.5H439.5V22.5H435.037V26.5ZM441.5 24.5V20H437.5V24.5H441.5ZM441.5 20V15.5H437.5V20H441.5ZM439.5 13.5H435.037V17.5H439.5V13.5ZM437.037 15.5V11H433.037V15.5H437.037ZM435.037 9H430.575V13H435.037V9ZM430.575 9H426.112V13H430.575V9ZM426.112 9H421.65V13H426.112V9ZM500 6.5V11H504V6.5H500ZM500 11V15.5H504V11H500ZM500 15.5V20H504V15.5H500ZM502 18H497.537V22H502V18ZM495.537 20V24.5H499.537V20H495.537ZM497.537 22.5H493.075V26.5H497.537V22.5ZM491.075 24.5V29H495.075V24.5H491.075ZM493.075 27H488.612V31H493.075V27ZM486.612 29V33.5H490.612V29H486.612ZM488.612 31.5H484.15V35.5H488.612V31.5ZM482.15 33.5V38H486.15V33.5H482.15ZM482.15 38V56H486.15V38H482.15ZM484.15 54H475.224V58H484.15V54ZM477.224 56V38H473.224V56H477.224ZM477.224 38V33.5H473.224V38H477.224ZM475.224 31.5H470.762V35.5H475.224V31.5ZM472.762 33.5V29H468.762V33.5H472.762ZM470.762 27H466.299V31H470.762V27ZM468.299 29V24.5H464.299V29H468.299ZM466.299 22.5H461.837V26.5H466.299V22.5ZM463.837 24.5V20H459.837V24.5H463.837ZM461.837 18H457.374V22H461.837V18ZM459.374 20V15.5H455.374V20H459.374ZM459.374 15.5V11H455.374V15.5H459.374ZM459.374 11V6.5H455.374V11H459.374ZM459.374 6.5V2H455.374V6.5H459.374ZM457.374 4H461.837V0H457.374V4ZM461.837 4H466.299V0H461.837V4ZM464.299 2V6.5H468.299V2H464.299ZM464.299 6.5V11H468.299V6.5H464.299ZM464.299 11V15.5H468.299V11H464.299ZM466.299 17.5H470.762V13.5H466.299V17.5ZM468.762 15.5V20H472.762V15.5H468.762ZM470.762 22H475.224V18H470.762V22ZM473.224 20V24.5H477.224V20H473.224ZM475.224 26.5H479.687V22.5H475.224V26.5ZM479.687 26.5H484.15V22.5H479.687V26.5ZM486.15 24.5V20H482.15V24.5H486.15ZM484.15 22H488.612V18H484.15V22ZM490.612 20V15.5H486.612V20H490.612ZM488.612 17.5H493.075V13.5H488.612V17.5ZM495.075 15.5V11H491.075V15.5H495.075ZM495.075 11V6.5H491.075V11H495.075ZM495.075 6.5V2H491.075V6.5H495.075ZM493.075 4H497.537V0H493.075V4ZM497.537 4H502V0H497.537V4ZM500 2V6.5H504V2H500Z" fill="url(#paint9_linear_1543_39556)" mask="url(#path-1-outside-1_1543_39556)"/>
<defs>
<linearGradient id="paint0_linear_1543_39556" x1="252" y1="2" x2="252" y2="56" gradientUnits="userSpaceOnUse">
<stop stop-color="#FF7C06"/>
<stop offset="1" stop-color="#E45C00"/>
</linearGradient>
<linearGradient id="paint1_linear_1543_39556" x1="252" y1="2" x2="252" y2="56" gradientUnits="userSpaceOnUse">
<stop stop-color="#FF7C06"/>
<stop offset="1" stop-color="#E45C00"/>
</linearGradient>
<linearGradient id="paint2_linear_1543_39556" x1="252" y1="2" x2="252" y2="56" gradientUnits="userSpaceOnUse">
<stop stop-color="#FF7C06"/>
<stop offset="1" stop-color="#E45C00"/>
</linearGradient>
<linearGradient id="paint3_linear_1543_39556" x1="252" y1="2" x2="252" y2="56" gradientUnits="userSpaceOnUse">
<stop stop-color="#FF7C06"/>
<stop offset="1" stop-color="#E45C00"/>
</linearGradient>
<linearGradient id="paint4_linear_1543_39556" x1="252" y1="2" x2="252" y2="56" gradientUnits="userSpaceOnUse">
<stop stop-color="#FF7C06"/>
<stop offset="1" stop-color="#E45C00"/>
</linearGradient>
<linearGradient id="paint5_linear_1543_39556" x1="252" y1="2" x2="252" y2="56" gradientUnits="userSpaceOnUse">
<stop stop-color="#FF7C06"/>
<stop offset="1" stop-color="#E45C00"/>
</linearGradient>
<linearGradient id="paint6_linear_1543_39556" x1="252" y1="2" x2="252" y2="56" gradientUnits="userSpaceOnUse">
<stop stop-color="#FF7C06"/>
<stop offset="1" stop-color="#E45C00"/>
</linearGradient>
<linearGradient id="paint7_linear_1543_39556" x1="252" y1="2" x2="252" y2="56" gradientUnits="userSpaceOnUse">
<stop stop-color="#FF7C06"/>
<stop offset="1" stop-color="#E45C00"/>
</linearGradient>
<linearGradient id="paint8_linear_1543_39556" x1="252" y1="2" x2="252" y2="56" gradientUnits="userSpaceOnUse">
<stop stop-color="#FF7C06"/>
<stop offset="1" stop-color="#E45C00"/>
</linearGradient>
<linearGradient id="paint9_linear_1543_39556" x1="252" y1="2" x2="252" y2="56" gradientUnits="userSpaceOnUse">
<stop stop-color="#FF7C06"/>
<stop offset="1" stop-color="#E45C00"/>
</linearGradient>
</defs>
</svg>
