<svg width="18" height="18" viewBox="0 0 18 18" fill="none" xmlns="http://www.w3.org/2000/svg">
<path fill-rule="evenodd" clip-rule="evenodd" d="M14.7243 0H4.90625V2.45452H14.7243V0ZM2.45312 2.45508H4.90765V4.9096H2.45452V14.7271H0V4.90904H2.45312V2.45508ZM2.45312 14.7275H6.13491V17.1821H2.45312V14.7275ZM17.1836 6.13686V2.45508H14.7291V6.13686H17.1836ZM6.13573 6.13574L6.13281 6.13574V14.7266H8.58734V8.59027L14.7266 8.59027V6.13574H8.58734L6.13573 6.13574Z" fill="#E5E1E6"/>
<path fill-rule="evenodd" clip-rule="evenodd" d="M14.7243 2.45605H4.90625V4.91005H2.45312V14.7282H6.13491V6.13784H14.7243V2.45605Z" fill="#F1F1F1"/>
<rect x="6.13281" y="4.90918" width="8.59084" height="1.22726" fill="#D6D6D6"/>
<rect x="6.13281" y="6.13574" width="8.59084" height="1.22726" transform="rotate(90 6.13281 6.13574)" fill="#D6D6D6"/>
</svg>
