<svg width="18" height="18" viewBox="0 0 18 18" fill="none" xmlns="http://www.w3.org/2000/svg">
<path fill-rule="evenodd" clip-rule="evenodd" d="M14.7243 0.396484H4.90625V2.85101H14.7243V0.396484ZM2.45312 2.85156H4.90765V5.30609H2.45452V15.1236H0V5.30552H2.45312V2.85156ZM2.45312 15.124H6.13491V17.5785H2.45312V15.124ZM17.1836 6.53335V2.85156H14.7291V6.53335H17.1836ZM6.13573 6.53223L6.13281 6.53223V15.1231H8.58734V8.98675L14.7266 8.98675V6.53223H8.58734L6.13573 6.53223Z" fill="#DA9100"/>
<path fill-rule="evenodd" clip-rule="evenodd" d="M14.7243 2.85254H4.90625V5.30654H2.45312V15.1246H6.13491V6.53433H14.7243V2.85254Z" fill="#FFF1D7"/>
<rect x="6.13281" y="5.30566" width="8.59084" height="1.22726" fill="#FFD177"/>
<rect x="6.13281" y="6.53223" width="8.59084" height="1.22726" transform="rotate(90 6.13281 6.53223)" fill="#FFD177"/>
</svg>
