<svg width="18" height="18" viewBox="0 0 18 18" fill="none" xmlns="http://www.w3.org/2000/svg">
<path fill-rule="evenodd" clip-rule="evenodd" d="M14.7243 0.198242H4.90625V2.65277H14.7243V0.198242ZM2.45312 2.65332H4.90765V5.10784H2.45452V14.9254H0V5.10728H2.45312V2.65332ZM2.45312 14.9258H6.13491V17.3803H2.45312V14.9258ZM17.1836 6.33511V2.65332H14.7291V6.33511H17.1836ZM6.13573 6.33398L6.13281 6.33398V14.9248H8.58734V8.78851L14.7266 8.78851V6.33398H8.58734L6.13573 6.33398Z" fill="#9F9F9F"/>
<path fill-rule="evenodd" clip-rule="evenodd" d="M14.7243 2.6543H4.90625V5.1083H2.45312V14.9264H6.13491V6.33608H14.7243V2.6543Z" fill="#F5F5F5"/>
<rect x="6.13281" y="5.10742" width="8.59084" height="1.22726" fill="#D8D8D8"/>
<rect x="6.13281" y="6.33398" width="8.59084" height="1.22726" transform="rotate(90 6.13281 6.33398)" fill="#D8D8D8"/>
</svg>
