<svg width="13" height="13" viewBox="0 0 13 13" fill="none" xmlns="http://www.w3.org/2000/svg">
<path fill-rule="evenodd" clip-rule="evenodd" d="M11.0132 0H3.66797V1.82594H1.83594V3.6523H3.67225V1.82635H11.0132V0ZM12.8555 4.56547V1.82594L11.0192 1.82594L11.0192 4.56547L12.8555 4.56547ZM0 10.9583H1.83594V12.784H4.59041V10.9576H1.83631V3.65286H0V10.9583ZM4.58462 4.56389L4.58594 4.56389H6.42225H11.0117V6.39024H6.42225V10.9561H4.58594V6.39024H4.58462V4.56389Z" fill="#FF7C06"/>
<path fill-rule="evenodd" clip-rule="evenodd" d="M11.0132 1.82617H3.66797V3.65189H1.83203V10.9573H4.5865V4.5657H11.0132V1.82617Z" fill="#FFF7D8"/>
<rect x="4.58594" y="3.65234" width="6.4271" height="0.913176" fill="#FFCE9C"/>
<rect x="4.58594" y="4.56445" width="6.39223" height="0.918157" transform="rotate(90 4.58594 4.56445)" fill="#FFCE9C"/>
</svg>
