<svg width="198" height="23" viewBox="0 0 198 23" fill="none" xmlns="http://www.w3.org/2000/svg">
<mask id="path-1-outside-1_3350_15161" maskUnits="userSpaceOnUse" x="0" y="0.944336" width="198" height="22" fill="black">
<rect fill="white" y="0.944336" width="198" height="22"/>
<path d="M11.496 18.611V21.9443H9.74667H7.99734H4.49867H2.74933H1V18.611H2.74933H4.49867V8.611V5.27767H2.74933H1V1.94434H2.74933H4.49867H6.248H7.99734H9.74667H11.496V5.27767H9.74667H7.99734V18.611H9.74667H11.496Z"/>
<path d="M35.996 8.611V3.611V1.94434H39.4947V3.611V5.27767V18.611V21.9443H35.996V18.611H34.2467V16.9443H32.4973V15.2777H30.748V13.611H28.9987V11.9443H27.2493V10.2777H25.5V8.611H23.7507V13.611V21.9443H22.0013H20.252V20.2777V18.611V16.9443V13.611V11.9443V10.2777V8.611V6.94434V5.27767V3.611V1.94434H22.0013H23.7507V3.611H25.5V5.27767H27.2493V6.94434H28.9987V8.611H30.748V10.2777H32.4973V11.9443H34.2467V13.611H35.996V8.611Z"/>
<path d="M62.2453 3.611V5.27767V8.611V11.9443V13.611V15.2777H60.496V16.9443H58.7467V18.611H56.9973V20.2777H55.248V21.9443H50V20.2777H48.2507V18.611H46.5013V16.9443H44.752V15.2777H43.0027V13.611V11.9443V8.611V5.27767V3.611V1.94434H44.752H46.5013V3.611V5.27767V11.9443V13.611H48.2507V15.2777H50V16.9443H51.7493V18.611H53.4987V16.9443H55.248V15.2777H56.9973V13.611H58.7467V11.9443V5.27767V3.611V1.94434H60.496H62.2453V3.611Z"/>
<path d="M65.7533 5.27767V3.611V1.94434H67.5027H69.252H74.5H84.996V5.27767H83.2467H81.4973H77.9987H76.2493H74.5H71.0013H69.252V10.2777H81.4973V13.611H69.252V18.611H71.0013H74.5H76.2493H77.9987H81.4973H83.2467H84.996V21.9443H74.5H69.252H67.5027H65.7533V20.2777V18.611V16.9443V13.611V11.9443V10.2777V8.611V6.94434V5.27767Z"/>
<path d="M104.248 8.611V3.611V1.94434H107.747V3.611V5.27767V18.611V21.9443H104.248V18.611H102.499V16.9443H100.749V15.2777H99V13.611H97.2507V11.9443H95.5013V10.2777H93.752V8.611H92.0027V13.611V21.9443H90.2533H88.504V20.2777V18.611V16.9443V13.611V11.9443V10.2777V8.611V6.94434V5.27767V3.611V1.94434H90.2533H92.0027V3.611H93.752V5.27767H95.5013V6.94434H97.2507V8.611H99V10.2777H100.749V11.9443H102.499V13.611H104.248V8.611Z"/>
<path d="M111.255 5.27767V3.611V1.94434H113.004H114.753H120.001H128.748V5.27767H126.999H125.249H121.751V13.611V21.9443H118.252V13.611V5.27767H116.503H111.255Z"/>
<path d="M142.752 5.27767H141.003H139.253V6.94434H137.504V8.611V10.2777V13.611V15.2777V16.9443H139.253V18.611H141.003H142.752H144.501H146.251H148V16.9443H149.749V15.2777V13.611V8.611V6.94434H148V5.27767H146.251H144.501H142.752ZM153.248 13.611V18.611H151.499V20.2777H149.749V21.9443H144.501H142.752H137.504V20.2777H135.755V18.611H134.005V15.2777V13.611V11.9443V10.2777V5.27767H135.755V3.611H137.504V1.94434H141.003H142.752H144.501H149.749V3.611H151.499V5.27767H153.248V8.611V13.611Z"/>
<path d="M156.756 5.27767V3.611V1.94434H158.505H160.255H165.503H172.5V3.611H174.249V5.27767H175.999V8.611V10.2777V11.9443H174.249V13.611H172.5V15.2777V16.9443H174.249V18.611H175.999V20.2777V21.9443H172.5V20.2777H170.751V18.611H169.001V16.9443H167.252V15.2777H165.503H160.255V21.9443H156.756V15.2777V13.611V11.9443V10.2777V8.611V6.94434V5.27767ZM165.503 5.27767H162.004H160.255V10.2777V11.9443H162.004H163.753H165.503H167.252H169.001H170.751V10.2777H172.5V8.611V6.94434H170.751V5.27767H169.001H167.252H165.503Z"/>
<path d="M197 3.611V5.27767V6.94434V8.611H195.251V10.2777H193.501V11.9443H191.752V13.611H190.003V15.2777V21.9443H186.504V15.2777V13.611H184.755V11.9443H183.005V10.2777H181.256V8.611H179.507V6.94434V5.27767V3.611V1.94434H181.256H183.005V3.611V5.27767V6.94434H184.755V8.611H186.504V10.2777H188.253H190.003V8.611H191.752V6.94434H193.501V5.27767V3.611V1.94434H195.251H197V3.611Z"/>
</mask>
<path d="M11.496 18.611V21.9443H9.74667H7.99734H4.49867H2.74933H1V18.611H2.74933H4.49867V8.611V5.27767H2.74933H1V1.94434H2.74933H4.49867H6.248H7.99734H9.74667H11.496V5.27767H9.74667H7.99734V18.611H9.74667H11.496Z" fill="url(#paint0_linear_3350_15161)"/>
<path d="M35.996 8.611V3.611V1.94434H39.4947V3.611V5.27767V18.611V21.9443H35.996V18.611H34.2467V16.9443H32.4973V15.2777H30.748V13.611H28.9987V11.9443H27.2493V10.2777H25.5V8.611H23.7507V13.611V21.9443H22.0013H20.252V20.2777V18.611V16.9443V13.611V11.9443V10.2777V8.611V6.94434V5.27767V3.611V1.94434H22.0013H23.7507V3.611H25.5V5.27767H27.2493V6.94434H28.9987V8.611H30.748V10.2777H32.4973V11.9443H34.2467V13.611H35.996V8.611Z" fill="url(#paint1_linear_3350_15161)"/>
<path d="M62.2453 3.611V5.27767V8.611V11.9443V13.611V15.2777H60.496V16.9443H58.7467V18.611H56.9973V20.2777H55.248V21.9443H50V20.2777H48.2507V18.611H46.5013V16.9443H44.752V15.2777H43.0027V13.611V11.9443V8.611V5.27767V3.611V1.94434H44.752H46.5013V3.611V5.27767V11.9443V13.611H48.2507V15.2777H50V16.9443H51.7493V18.611H53.4987V16.9443H55.248V15.2777H56.9973V13.611H58.7467V11.9443V5.27767V3.611V1.94434H60.496H62.2453V3.611Z" fill="url(#paint2_linear_3350_15161)"/>
<path d="M65.7533 5.27767V3.611V1.94434H67.5027H69.252H74.5H84.996V5.27767H83.2467H81.4973H77.9987H76.2493H74.5H71.0013H69.252V10.2777H81.4973V13.611H69.252V18.611H71.0013H74.5H76.2493H77.9987H81.4973H83.2467H84.996V21.9443H74.5H69.252H67.5027H65.7533V20.2777V18.611V16.9443V13.611V11.9443V10.2777V8.611V6.94434V5.27767Z" fill="url(#paint3_linear_3350_15161)"/>
<path d="M104.248 8.611V3.611V1.94434H107.747V3.611V5.27767V18.611V21.9443H104.248V18.611H102.499V16.9443H100.749V15.2777H99V13.611H97.2507V11.9443H95.5013V10.2777H93.752V8.611H92.0027V13.611V21.9443H90.2533H88.504V20.2777V18.611V16.9443V13.611V11.9443V10.2777V8.611V6.94434V5.27767V3.611V1.94434H90.2533H92.0027V3.611H93.752V5.27767H95.5013V6.94434H97.2507V8.611H99V10.2777H100.749V11.9443H102.499V13.611H104.248V8.611Z" fill="url(#paint4_linear_3350_15161)"/>
<path d="M111.255 5.27767V3.611V1.94434H113.004H114.753H120.001H128.748V5.27767H126.999H125.249H121.751V13.611V21.9443H118.252V13.611V5.27767H116.503H111.255Z" fill="url(#paint5_linear_3350_15161)"/>
<path d="M142.752 5.27767H141.003H139.253V6.94434H137.504V8.611V10.2777V13.611V15.2777V16.9443H139.253V18.611H141.003H142.752H144.501H146.251H148V16.9443H149.749V15.2777V13.611V8.611V6.94434H148V5.27767H146.251H144.501H142.752ZM153.248 13.611V18.611H151.499V20.2777H149.749V21.9443H144.501H142.752H137.504V20.2777H135.755V18.611H134.005V15.2777V13.611V11.9443V10.2777V5.27767H135.755V3.611H137.504V1.94434H141.003H142.752H144.501H149.749V3.611H151.499V5.27767H153.248V8.611V13.611Z" fill="url(#paint6_linear_3350_15161)"/>
<path d="M156.756 5.27767V3.611V1.94434H158.505H160.255H165.503H172.5V3.611H174.249V5.27767H175.999V8.611V10.2777V11.9443H174.249V13.611H172.5V15.2777V16.9443H174.249V18.611H175.999V20.2777V21.9443H172.5V20.2777H170.751V18.611H169.001V16.9443H167.252V15.2777H165.503H160.255V21.9443H156.756V15.2777V13.611V11.9443V10.2777V8.611V6.94434V5.27767ZM165.503 5.27767H162.004H160.255V10.2777V11.9443H162.004H163.753H165.503H167.252H169.001H170.751V10.2777H172.5V8.611V6.94434H170.751V5.27767H169.001H167.252H165.503Z" fill="url(#paint7_linear_3350_15161)"/>
<path d="M197 3.611V5.27767V6.94434V8.611H195.251V10.2777H193.501V11.9443H191.752V13.611H190.003V15.2777V21.9443H186.504V15.2777V13.611H184.755V11.9443H183.005V10.2777H181.256V8.611H179.507V6.94434V5.27767V3.611V1.94434H181.256H183.005V3.611V5.27767V6.94434H184.755V8.611H186.504V10.2777H188.253H190.003V8.611H191.752V6.94434H193.501V5.27767V3.611V1.94434H195.251H197V3.611Z" fill="url(#paint8_linear_3350_15161)"/>
<path d="M11.496 18.611H12.496V17.611H11.496V18.611ZM11.496 21.9443V22.9443H12.496V21.9443H11.496ZM1 21.9443H0V22.9443H1V21.9443ZM1 18.611V17.611H0V18.611H1ZM4.49867 18.611V19.611H5.49867V18.611H4.49867ZM4.49867 5.27767H5.49867V4.27767H4.49867V5.27767ZM1 5.27767H0V6.27767H1V5.27767ZM1 1.94434V0.944336H0V1.94434H1ZM11.496 1.94434H12.496V0.944336H11.496V1.94434ZM11.496 5.27767V6.27767H12.496V5.27767H11.496ZM7.99734 5.27767V4.27767H6.99734V5.27767H7.99734ZM7.99734 18.611H6.99734V19.611H7.99734V18.611ZM35.996 1.94434V0.944336H34.996V1.94434H35.996ZM39.4947 1.94434H40.4947V0.944336H39.4947V1.94434ZM39.4947 21.9443V22.9443H40.4947V21.9443H39.4947ZM35.996 21.9443H34.996V22.9443H35.996V21.9443ZM35.996 18.611H36.996V17.611H35.996V18.611ZM34.2467 18.611H33.2467V19.611H34.2467V18.611ZM34.2467 16.9443H35.2467V15.9443H34.2467V16.9443ZM32.4973 16.9443H31.4973V17.9443H32.4973V16.9443ZM32.4973 15.2777H33.4973V14.2777H32.4973V15.2777ZM30.748 15.2777H29.748V16.2777H30.748V15.2777ZM30.748 13.611H31.748V12.611H30.748V13.611ZM28.9987 13.611H27.9987V14.611H28.9987V13.611ZM28.9987 11.9443H29.9987V10.9443H28.9987V11.9443ZM27.2493 11.9443H26.2493V12.9443H27.2493V11.9443ZM27.2493 10.2777H28.2493V9.27767H27.2493V10.2777ZM25.5 10.2777H24.5V11.2777H25.5V10.2777ZM25.5 8.611H26.5V7.611H25.5V8.611ZM23.7507 8.611V7.611H22.7507V8.611H23.7507ZM23.7507 21.9443V22.9443H24.7507V21.9443H23.7507ZM20.252 21.9443H19.252V22.9443H20.252V21.9443ZM20.252 1.94434V0.944336H19.252V1.94434H20.252ZM23.7507 1.94434H24.7507V0.944336H23.7507V1.94434ZM23.7507 3.611H22.7507V4.611H23.7507V3.611ZM25.5 3.611H26.5V2.611H25.5V3.611ZM25.5 5.27767H24.5V6.27767H25.5V5.27767ZM27.2493 5.27767H28.2493V4.27767H27.2493V5.27767ZM27.2493 6.94434H26.2493V7.94434H27.2493V6.94434ZM28.9987 6.94434H29.9987V5.94434H28.9987V6.94434ZM28.9987 8.611H27.9987V9.611H28.9987V8.611ZM30.748 8.611H31.748V7.611H30.748V8.611ZM30.748 10.2777H29.748V11.2777H30.748V10.2777ZM32.4973 10.2777H33.4973V9.27767H32.4973V10.2777ZM32.4973 11.9443H31.4973V12.9443H32.4973V11.9443ZM34.2467 11.9443H35.2467V10.9443H34.2467V11.9443ZM34.2467 13.611H33.2467V14.611H34.2467V13.611ZM35.996 13.611V14.611H36.996V13.611H35.996ZM62.2453 15.2777V16.2777H63.2453V15.2777H62.2453ZM60.496 15.2777V14.2777H59.496V15.2777H60.496ZM60.496 16.9443V17.9443H61.496V16.9443H60.496ZM58.7467 16.9443V15.9443H57.7467V16.9443H58.7467ZM58.7467 18.611V19.611H59.7467V18.611H58.7467ZM56.9973 18.611V17.611H55.9973V18.611H56.9973ZM56.9973 20.2777V21.2777H57.9973V20.2777H56.9973ZM55.248 20.2777V19.2777H54.248V20.2777H55.248ZM55.248 21.9443V22.9443H56.248V21.9443H55.248ZM50 21.9443H49V22.9443H50V21.9443ZM50 20.2777H51V19.2777H50V20.2777ZM48.2507 20.2777H47.2507V21.2777H48.2507V20.2777ZM48.2507 18.611H49.2507V17.611H48.2507V18.611ZM46.5013 18.611H45.5013V19.611H46.5013V18.611ZM46.5013 16.9443H47.5013V15.9443H46.5013V16.9443ZM44.752 16.9443H43.752V17.9443H44.752V16.9443ZM44.752 15.2777H45.752V14.2777H44.752V15.2777ZM43.0027 15.2777H42.0027V16.2777H43.0027V15.2777ZM43.0027 1.94434V0.944336H42.0027V1.94434H43.0027ZM46.5013 1.94434H47.5013V0.944336H46.5013V1.94434ZM46.5013 13.611H45.5013V14.611H46.5013V13.611ZM48.2507 13.611H49.2507V12.611H48.2507V13.611ZM48.2507 15.2777H47.2507V16.2777H48.2507V15.2777ZM50 15.2777H51V14.2777H50V15.2777ZM50 16.9443H49V17.9443H50V16.9443ZM51.7493 16.9443H52.7493V15.9443H51.7493V16.9443ZM51.7493 18.611H50.7493V19.611H51.7493V18.611ZM53.4987 18.611V19.611H54.4987V18.611H53.4987ZM53.4987 16.9443V15.9443H52.4987V16.9443H53.4987ZM55.248 16.9443V17.9443H56.248V16.9443H55.248ZM55.248 15.2777V14.2777H54.248V15.2777H55.248ZM56.9973 15.2777V16.2777H57.9973V15.2777H56.9973ZM56.9973 13.611V12.611H55.9973V13.611H56.9973ZM58.7467 13.611V14.611H59.7467V13.611H58.7467ZM58.7467 1.94434V0.944336H57.7467V1.94434H58.7467ZM62.2453 1.94434H63.2453V0.944336H62.2453V1.94434ZM65.7533 1.94434V0.944336H64.7533V1.94434H65.7533ZM84.996 1.94434H85.996V0.944336H84.996V1.94434ZM84.996 5.27767V6.27767H85.996V5.27767H84.996ZM69.252 5.27767V4.27767H68.252V5.27767H69.252ZM69.252 10.2777H68.252V11.2777H69.252V10.2777ZM81.4973 10.2777H82.4973V9.27767H81.4973V10.2777ZM81.4973 13.611V14.611H82.4973V13.611H81.4973ZM69.252 13.611V12.611H68.252V13.611H69.252ZM69.252 18.611H68.252V19.611H69.252V18.611ZM84.996 18.611H85.996V17.611H84.996V18.611ZM84.996 21.9443V22.9443H85.996V21.9443H84.996ZM65.7533 21.9443H64.7533V22.9443H65.7533V21.9443ZM104.248 1.94434V0.944336H103.248V1.94434H104.248ZM107.747 1.94434H108.747V0.944336H107.747V1.94434ZM107.747 21.9443V22.9443H108.747V21.9443H107.747ZM104.248 21.9443H103.248V22.9443H104.248V21.9443ZM104.248 18.611H105.248V17.611H104.248V18.611ZM102.499 18.611H101.499V19.611H102.499V18.611ZM102.499 16.9443H103.499V15.9443H102.499V16.9443ZM100.749 16.9443H99.7493V17.9443H100.749V16.9443ZM100.749 15.2777H101.749V14.2777H100.749V15.2777ZM99 15.2777H98V16.2777H99V15.2777ZM99 13.611H100V12.611H99V13.611ZM97.2507 13.611H96.2507V14.611H97.2507V13.611ZM97.2507 11.9443H98.2507V10.9443H97.2507V11.9443ZM95.5013 11.9443H94.5013V12.9443H95.5013V11.9443ZM95.5013 10.2777H96.5013V9.27767H95.5013V10.2777ZM93.752 10.2777H92.752V11.2777H93.752V10.2777ZM93.752 8.611H94.752V7.611H93.752V8.611ZM92.0027 8.611V7.611H91.0027V8.611H92.0027ZM92.0027 21.9443V22.9443H93.0027V21.9443H92.0027ZM88.504 21.9443H87.504V22.9443H88.504V21.9443ZM88.504 1.94434V0.944336H87.504V1.94434H88.504ZM92.0027 1.94434H93.0027V0.944336H92.0027V1.94434ZM92.0027 3.611H91.0027V4.611H92.0027V3.611ZM93.752 3.611H94.752V2.611H93.752V3.611ZM93.752 5.27767H92.752V6.27767H93.752V5.27767ZM95.5013 5.27767H96.5013V4.27767H95.5013V5.27767ZM95.5013 6.94434H94.5013V7.94434H95.5013V6.94434ZM97.2507 6.94434H98.2507V5.94434H97.2507V6.94434ZM97.2507 8.611H96.2507V9.611H97.2507V8.611ZM99 8.611H100V7.611H99V8.611ZM99 10.2777H98V11.2777H99V10.2777ZM100.749 10.2777H101.749V9.27767H100.749V10.2777ZM100.749 11.9443H99.7493V12.9443H100.749V11.9443ZM102.499 11.9443H103.499V10.9443H102.499V11.9443ZM102.499 13.611H101.499V14.611H102.499V13.611ZM104.248 13.611V14.611H105.248V13.611H104.248ZM111.255 5.27767H110.255V6.27767H111.255V5.27767ZM111.255 1.94434V0.944336H110.255V1.94434H111.255ZM128.748 1.94434H129.748V0.944336H128.748V1.94434ZM128.748 5.27767V6.27767H129.748V5.27767H128.748ZM121.751 5.27767V4.27767H120.751V5.27767H121.751ZM121.751 21.9443V22.9443H122.751V21.9443H121.751ZM118.252 21.9443H117.252V22.9443H118.252V21.9443ZM118.252 5.27767H119.252V4.27767H118.252V5.27767ZM139.253 5.27767V4.27767H138.253V5.27767H139.253ZM139.253 6.94434V7.94434H140.253V6.94434H139.253ZM137.504 6.94434V5.94434H136.504V6.94434H137.504ZM137.504 16.9443H136.504V17.9443H137.504V16.9443ZM139.253 16.9443H140.253V15.9443H139.253V16.9443ZM139.253 18.611H138.253V19.611H139.253V18.611ZM148 18.611V19.611H149V18.611H148ZM148 16.9443V15.9443H147V16.9443H148ZM149.749 16.9443V17.9443H150.749V16.9443H149.749ZM149.749 6.94434H150.749V5.94434H149.749V6.94434ZM148 6.94434H147V7.94434H148V6.94434ZM148 5.27767H149V4.27767H148V5.27767ZM153.248 18.611V19.611H154.248V18.611H153.248ZM151.499 18.611V17.611H150.499V18.611H151.499ZM151.499 20.2777V21.2777H152.499V20.2777H151.499ZM149.749 20.2777V19.2777H148.749V20.2777H149.749ZM149.749 21.9443V22.9443H150.749V21.9443H149.749ZM137.504 21.9443H136.504V22.9443H137.504V21.9443ZM137.504 20.2777H138.504V19.2777H137.504V20.2777ZM135.755 20.2777H134.755V21.2777H135.755V20.2777ZM135.755 18.611H136.755V17.611H135.755V18.611ZM134.005 18.611H133.005V19.611H134.005V18.611ZM134.005 5.27767V4.27767H133.005V5.27767H134.005ZM135.755 5.27767V6.27767H136.755V5.27767H135.755ZM135.755 3.611V2.611H134.755V3.611H135.755ZM137.504 3.611V4.611H138.504V3.611H137.504ZM137.504 1.94434V0.944336H136.504V1.94434H137.504ZM149.749 1.94434H150.749V0.944336H149.749V1.94434ZM149.749 3.611H148.749V4.611H149.749V3.611ZM151.499 3.611H152.499V2.611H151.499V3.611ZM151.499 5.27767H150.499V6.27767H151.499V5.27767ZM153.248 5.27767H154.248V4.27767H153.248V5.27767ZM156.756 1.94434V0.944336H155.756V1.94434H156.756ZM172.5 1.94434H173.5V0.944336H172.5V1.94434ZM172.5 3.611H171.5V4.611H172.5V3.611ZM174.249 3.611H175.249V2.611H174.249V3.611ZM174.249 5.27767H173.249V6.27767H174.249V5.27767ZM175.999 5.27767H176.999V4.27767H175.999V5.27767ZM175.999 11.9443V12.9443H176.999V11.9443H175.999ZM174.249 11.9443V10.9443H173.249V11.9443H174.249ZM174.249 13.611V14.611H175.249V13.611H174.249ZM172.5 13.611V12.611H171.5V13.611H172.5ZM172.5 16.9443H171.5V17.9443H172.5V16.9443ZM174.249 16.9443H175.249V15.9443H174.249V16.9443ZM174.249 18.611H173.249V19.611H174.249V18.611ZM175.999 18.611H176.999V17.611H175.999V18.611ZM175.999 21.9443V22.9443H176.999V21.9443H175.999ZM172.5 21.9443H171.5V22.9443H172.5V21.9443ZM172.5 20.2777H173.5V19.2777H172.5V20.2777ZM170.751 20.2777H169.751V21.2777H170.751V20.2777ZM170.751 18.611H171.751V17.611H170.751V18.611ZM169.001 18.611H168.001V19.611H169.001V18.611ZM169.001 16.9443H170.001V15.9443H169.001V16.9443ZM167.252 16.9443H166.252V17.9443H167.252V16.9443ZM167.252 15.2777H168.252V14.2777H167.252V15.2777ZM160.255 15.2777V14.2777H159.255V15.2777H160.255ZM160.255 21.9443V22.9443H161.255V21.9443H160.255ZM156.756 21.9443H155.756V22.9443H156.756V21.9443ZM160.255 5.27767V4.27767H159.255V5.27767H160.255ZM160.255 11.9443H159.255V12.9443H160.255V11.9443ZM170.751 11.9443V12.9443H171.751V11.9443H170.751ZM170.751 10.2777V9.27767H169.751V10.2777H170.751ZM172.5 10.2777V11.2777H173.5V10.2777H172.5ZM172.5 6.94434H173.5V5.94434H172.5V6.94434ZM170.751 6.94434H169.751V7.94434H170.751V6.94434ZM170.751 5.27767H171.751V4.27767H170.751V5.27767ZM197 8.611V9.611H198V8.611H197ZM195.251 8.611V7.611H194.251V8.611H195.251ZM195.251 10.2777V11.2777H196.251V10.2777H195.251ZM193.501 10.2777V9.27767H192.501V10.2777H193.501ZM193.501 11.9443V12.9443H194.501V11.9443H193.501ZM191.752 11.9443V10.9443H190.752V11.9443H191.752ZM191.752 13.611V14.611H192.752V13.611H191.752ZM190.003 13.611V12.611H189.003V13.611H190.003ZM190.003 21.9443V22.9443H191.003V21.9443H190.003ZM186.504 21.9443H185.504V22.9443H186.504V21.9443ZM186.504 13.611H187.504V12.611H186.504V13.611ZM184.755 13.611H183.755V14.611H184.755V13.611ZM184.755 11.9443H185.755V10.9443H184.755V11.9443ZM183.005 11.9443H182.005V12.9443H183.005V11.9443ZM183.005 10.2777H184.005V9.27767H183.005V10.2777ZM181.256 10.2777H180.256V11.2777H181.256V10.2777ZM181.256 8.611H182.256V7.611H181.256V8.611ZM179.507 8.611H178.507V9.611H179.507V8.611ZM179.507 1.94434V0.944336H178.507V1.94434H179.507ZM183.005 1.94434H184.005V0.944336H183.005V1.94434ZM183.005 6.94434H182.005V7.94434H183.005V6.94434ZM184.755 6.94434H185.755V5.94434H184.755V6.94434ZM184.755 8.611H183.755V9.611H184.755V8.611ZM186.504 8.611H187.504V7.611H186.504V8.611ZM186.504 10.2777H185.504V11.2777H186.504V10.2777ZM190.003 10.2777V11.2777H191.003V10.2777H190.003ZM190.003 8.611V7.611H189.003V8.611H190.003ZM191.752 8.611V9.611H192.752V8.611H191.752ZM191.752 6.94434V5.94434H190.752V6.94434H191.752ZM193.501 6.94434V7.94434H194.501V6.94434H193.501ZM193.501 1.94434V0.944336H192.501V1.94434H193.501ZM197 1.94434H198V0.944336H197V1.94434ZM10.496 18.611V21.9443H12.496V18.611H10.496ZM11.496 20.9443H9.74667V22.9443H11.496V20.9443ZM9.74667 20.9443H7.99734V22.9443H9.74667V20.9443ZM7.99734 20.9443H4.49867V22.9443H7.99734V20.9443ZM4.49867 20.9443H2.74933V22.9443H4.49867V20.9443ZM2.74933 20.9443H1V22.9443H2.74933V20.9443ZM2 21.9443V18.611H0V21.9443H2ZM1 19.611H2.74933V17.611H1V19.611ZM2.74933 19.611H4.49867V17.611H2.74933V19.611ZM5.49867 18.611V8.611H3.49867V18.611H5.49867ZM5.49867 8.611V5.27767H3.49867V8.611H5.49867ZM4.49867 4.27767H2.74933V6.27767H4.49867V4.27767ZM2.74933 4.27767H1V6.27767H2.74933V4.27767ZM2 5.27767V1.94434H0V5.27767H2ZM1 2.94434H2.74933V0.944336H1V2.94434ZM2.74933 2.94434H4.49867V0.944336H2.74933V2.94434ZM4.49867 2.94434H6.248V0.944336H4.49867V2.94434ZM6.248 2.94434H7.99734V0.944336H6.248V2.94434ZM7.99734 2.94434H9.74667V0.944336H7.99734V2.94434ZM9.74667 2.94434H11.496V0.944336H9.74667V2.94434ZM10.496 1.94434V5.27767H12.496V1.94434H10.496ZM11.496 4.27767H9.74667V6.27767H11.496V4.27767ZM9.74667 4.27767H7.99734V6.27767H9.74667V4.27767ZM6.99734 5.27767V18.611H8.99734V5.27767H6.99734ZM7.99734 19.611H9.74667V17.611H7.99734V19.611ZM9.74667 19.611H11.496V17.611H9.74667V19.611ZM36.996 8.611V3.611H34.996V8.611H36.996ZM36.996 3.611V1.94434H34.996V3.611H36.996ZM35.996 2.94434H39.4947V0.944336H35.996V2.94434ZM38.4947 1.94434V3.611H40.4947V1.94434H38.4947ZM38.4947 3.611V5.27767H40.4947V3.611H38.4947ZM38.4947 5.27767V18.611H40.4947V5.27767H38.4947ZM38.4947 18.611V21.9443H40.4947V18.611H38.4947ZM39.4947 20.9443H35.996V22.9443H39.4947V20.9443ZM36.996 21.9443V18.611H34.996V21.9443H36.996ZM35.996 17.611H34.2467V19.611H35.996V17.611ZM35.2467 18.611V16.9443H33.2467V18.611H35.2467ZM34.2467 15.9443H32.4973V17.9443H34.2467V15.9443ZM33.4973 16.9443V15.2777H31.4973V16.9443H33.4973ZM32.4973 14.2777H30.748V16.2777H32.4973V14.2777ZM31.748 15.2777V13.611H29.748V15.2777H31.748ZM30.748 12.611H28.9987V14.611H30.748V12.611ZM29.9987 13.611V11.9443H27.9987V13.611H29.9987ZM28.9987 10.9443H27.2493V12.9443H28.9987V10.9443ZM28.2493 11.9443V10.2777H26.2493V11.9443H28.2493ZM27.2493 9.27767H25.5V11.2777H27.2493V9.27767ZM26.5 10.2777V8.611H24.5V10.2777H26.5ZM25.5 7.611H23.7507V9.611H25.5V7.611ZM22.7507 8.611V13.611H24.7507V8.611H22.7507ZM22.7507 13.611V21.9443H24.7507V13.611H22.7507ZM23.7507 20.9443H22.0013V22.9443H23.7507V20.9443ZM22.0013 20.9443H20.252V22.9443H22.0013V20.9443ZM21.252 21.9443V20.2777H19.252V21.9443H21.252ZM21.252 20.2777V18.611H19.252V20.2777H21.252ZM21.252 18.611V16.9443H19.252V18.611H21.252ZM21.252 16.9443V13.611H19.252V16.9443H21.252ZM21.252 13.611V11.9443H19.252V13.611H21.252ZM21.252 11.9443V10.2777H19.252V11.9443H21.252ZM21.252 10.2777V8.611H19.252V10.2777H21.252ZM21.252 8.611V6.94434H19.252V8.611H21.252ZM21.252 6.94434V5.27767H19.252V6.94434H21.252ZM21.252 5.27767V3.611H19.252V5.27767H21.252ZM21.252 3.611V1.94434H19.252V3.611H21.252ZM20.252 2.94434H22.0013V0.944336H20.252V2.94434ZM22.0013 2.94434H23.7507V0.944336H22.0013V2.94434ZM22.7507 1.94434V3.611H24.7507V1.94434H22.7507ZM23.7507 4.611H25.5V2.611H23.7507V4.611ZM24.5 3.611V5.27767H26.5V3.611H24.5ZM25.5 6.27767H27.2493V4.27767H25.5V6.27767ZM26.2493 5.27767V6.94434H28.2493V5.27767H26.2493ZM27.2493 7.94434H28.9987V5.94434H27.2493V7.94434ZM27.9987 6.94434V8.611H29.9987V6.94434H27.9987ZM28.9987 9.611H30.748V7.611H28.9987V9.611ZM29.748 8.611V10.2777H31.748V8.611H29.748ZM30.748 11.2777H32.4973V9.27767H30.748V11.2777ZM31.4973 10.2777V11.9443H33.4973V10.2777H31.4973ZM32.4973 12.9443H34.2467V10.9443H32.4973V12.9443ZM33.2467 11.9443V13.611H35.2467V11.9443H33.2467ZM34.2467 14.611H35.996V12.611H34.2467V14.611ZM36.996 13.611V8.611H34.996V13.611H36.996ZM61.2453 3.611V5.27767H63.2453V3.611H61.2453ZM61.2453 5.27767V8.611H63.2453V5.27767H61.2453ZM61.2453 8.611V11.9443H63.2453V8.611H61.2453ZM61.2453 11.9443V13.611H63.2453V11.9443H61.2453ZM61.2453 13.611V15.2777H63.2453V13.611H61.2453ZM62.2453 14.2777H60.496V16.2777H62.2453V14.2777ZM59.496 15.2777V16.9443H61.496V15.2777H59.496ZM60.496 15.9443H58.7467V17.9443H60.496V15.9443ZM57.7467 16.9443V18.611H59.7467V16.9443H57.7467ZM58.7467 17.611H56.9973V19.611H58.7467V17.611ZM55.9973 18.611V20.2777H57.9973V18.611H55.9973ZM56.9973 19.2777H55.248V21.2777H56.9973V19.2777ZM54.248 20.2777V21.9443H56.248V20.2777H54.248ZM55.248 20.9443H50V22.9443H55.248V20.9443ZM51 21.9443V20.2777H49V21.9443H51ZM50 19.2777H48.2507V21.2777H50V19.2777ZM49.2507 20.2777V18.611H47.2507V20.2777H49.2507ZM48.2507 17.611H46.5013V19.611H48.2507V17.611ZM47.5013 18.611V16.9443H45.5013V18.611H47.5013ZM46.5013 15.9443H44.752V17.9443H46.5013V15.9443ZM45.752 16.9443V15.2777H43.752V16.9443H45.752ZM44.752 14.2777H43.0027V16.2777H44.752V14.2777ZM44.0027 15.2777V13.611H42.0027V15.2777H44.0027ZM44.0027 13.611V11.9443H42.0027V13.611H44.0027ZM44.0027 11.9443V8.611H42.0027V11.9443H44.0027ZM44.0027 8.611V5.27767H42.0027V8.611H44.0027ZM44.0027 5.27767V3.611H42.0027V5.27767H44.0027ZM44.0027 3.611V1.94434H42.0027V3.611H44.0027ZM43.0027 2.94434H44.752V0.944336H43.0027V2.94434ZM44.752 2.94434H46.5013V0.944336H44.752V2.94434ZM45.5013 1.94434V3.611H47.5013V1.94434H45.5013ZM45.5013 3.611V5.27767H47.5013V3.611H45.5013ZM45.5013 5.27767V11.9443H47.5013V5.27767H45.5013ZM45.5013 11.9443V13.611H47.5013V11.9443H45.5013ZM46.5013 14.611H48.2507V12.611H46.5013V14.611ZM47.2507 13.611V15.2777H49.2507V13.611H47.2507ZM48.2507 16.2777H50V14.2777H48.2507V16.2777ZM49 15.2777V16.9443H51V15.2777H49ZM50 17.9443H51.7493V15.9443H50V17.9443ZM50.7493 16.9443V18.611H52.7493V16.9443H50.7493ZM51.7493 19.611H53.4987V17.611H51.7493V19.611ZM54.4987 18.611V16.9443H52.4987V18.611H54.4987ZM53.4987 17.9443H55.248V15.9443H53.4987V17.9443ZM56.248 16.9443V15.2777H54.248V16.9443H56.248ZM55.248 16.2777H56.9973V14.2777H55.248V16.2777ZM57.9973 15.2777V13.611H55.9973V15.2777H57.9973ZM56.9973 14.611H58.7467V12.611H56.9973V14.611ZM59.7467 13.611V11.9443H57.7467V13.611H59.7467ZM59.7467 11.9443V5.27767H57.7467V11.9443H59.7467ZM59.7467 5.27767V3.611H57.7467V5.27767H59.7467ZM59.7467 3.611V1.94434H57.7467V3.611H59.7467ZM58.7467 2.94434H60.496V0.944336H58.7467V2.94434ZM60.496 2.94434H62.2453V0.944336H60.496V2.94434ZM61.2453 1.94434V3.611H63.2453V1.94434H61.2453ZM66.7533 5.27767V3.611H64.7533V5.27767H66.7533ZM66.7533 3.611V1.94434H64.7533V3.611H66.7533ZM65.7533 2.94434H67.5027V0.944336H65.7533V2.94434ZM67.5027 2.94434H69.252V0.944336H67.5027V2.94434ZM69.252 2.94434H74.5V0.944336H69.252V2.94434ZM74.5 2.94434H84.996V0.944336H74.5V2.94434ZM83.996 1.94434V5.27767H85.996V1.94434H83.996ZM84.996 4.27767H83.2467V6.27767H84.996V4.27767ZM83.2467 4.27767H81.4973V6.27767H83.2467V4.27767ZM81.4973 4.27767H77.9987V6.27767H81.4973V4.27767ZM77.9987 4.27767H76.2493V6.27767H77.9987V4.27767ZM76.2493 4.27767H74.5V6.27767H76.2493V4.27767ZM74.5 4.27767H71.0013V6.27767H74.5V4.27767ZM71.0013 4.27767H69.252V6.27767H71.0013V4.27767ZM68.252 5.27767V10.2777H70.252V5.27767H68.252ZM69.252 11.2777H81.4973V9.27767H69.252V11.2777ZM80.4973 10.2777V13.611H82.4973V10.2777H80.4973ZM81.4973 12.611H69.252V14.611H81.4973V12.611ZM68.252 13.611V18.611H70.252V13.611H68.252ZM69.252 19.611H71.0013V17.611H69.252V19.611ZM71.0013 19.611H74.5V17.611H71.0013V19.611ZM74.5 19.611H76.2493V17.611H74.5V19.611ZM76.2493 19.611H77.9987V17.611H76.2493V19.611ZM77.9987 19.611H81.4973V17.611H77.9987V19.611ZM81.4973 19.611H83.2467V17.611H81.4973V19.611ZM83.2467 19.611H84.996V17.611H83.2467V19.611ZM83.996 18.611V21.9443H85.996V18.611H83.996ZM84.996 20.9443H74.5V22.9443H84.996V20.9443ZM74.5 20.9443H69.252V22.9443H74.5V20.9443ZM69.252 20.9443H67.5027V22.9443H69.252V20.9443ZM67.5027 20.9443H65.7533V22.9443H67.5027V20.9443ZM66.7533 21.9443V20.2777H64.7533V21.9443H66.7533ZM66.7533 20.2777V18.611H64.7533V20.2777H66.7533ZM66.7533 18.611V16.9443H64.7533V18.611H66.7533ZM66.7533 16.9443V13.611H64.7533V16.9443H66.7533ZM66.7533 13.611V11.9443H64.7533V13.611H66.7533ZM66.7533 11.9443V10.2777H64.7533V11.9443H66.7533ZM66.7533 10.2777V8.611H64.7533V10.2777H66.7533ZM66.7533 8.611V6.94434H64.7533V8.611H66.7533ZM66.7533 6.94434V5.27767H64.7533V6.94434H66.7533ZM105.248 8.611V3.611H103.248V8.611H105.248ZM105.248 3.611V1.94434H103.248V3.611H105.248ZM104.248 2.94434H107.747V0.944336H104.248V2.94434ZM106.747 1.94434V3.611H108.747V1.94434H106.747ZM106.747 3.611V5.27767H108.747V3.611H106.747ZM106.747 5.27767V18.611H108.747V5.27767H106.747ZM106.747 18.611V21.9443H108.747V18.611H106.747ZM107.747 20.9443H104.248V22.9443H107.747V20.9443ZM105.248 21.9443V18.611H103.248V21.9443H105.248ZM104.248 17.611H102.499V19.611H104.248V17.611ZM103.499 18.611V16.9443H101.499V18.611H103.499ZM102.499 15.9443H100.749V17.9443H102.499V15.9443ZM101.749 16.9443V15.2777H99.7493V16.9443H101.749ZM100.749 14.2777H99V16.2777H100.749V14.2777ZM100 15.2777V13.611H98V15.2777H100ZM99 12.611H97.2507V14.611H99V12.611ZM98.2507 13.611V11.9443H96.2507V13.611H98.2507ZM97.2507 10.9443H95.5013V12.9443H97.2507V10.9443ZM96.5013 11.9443V10.2777H94.5013V11.9443H96.5013ZM95.5013 9.27767H93.752V11.2777H95.5013V9.27767ZM94.752 10.2777V8.611H92.752V10.2777H94.752ZM93.752 7.611H92.0027V9.611H93.752V7.611ZM91.0027 8.611V13.611H93.0027V8.611H91.0027ZM91.0027 13.611V21.9443H93.0027V13.611H91.0027ZM92.0027 20.9443H90.2533V22.9443H92.0027V20.9443ZM90.2533 20.9443H88.504V22.9443H90.2533V20.9443ZM89.504 21.9443V20.2777H87.504V21.9443H89.504ZM89.504 20.2777V18.611H87.504V20.2777H89.504ZM89.504 18.611V16.9443H87.504V18.611H89.504ZM89.504 16.9443V13.611H87.504V16.9443H89.504ZM89.504 13.611V11.9443H87.504V13.611H89.504ZM89.504 11.9443V10.2777H87.504V11.9443H89.504ZM89.504 10.2777V8.611H87.504V10.2777H89.504ZM89.504 8.611V6.94434H87.504V8.611H89.504ZM89.504 6.94434V5.27767H87.504V6.94434H89.504ZM89.504 5.27767V3.611H87.504V5.27767H89.504ZM89.504 3.611V1.94434H87.504V3.611H89.504ZM88.504 2.94434H90.2533V0.944336H88.504V2.94434ZM90.2533 2.94434H92.0027V0.944336H90.2533V2.94434ZM91.0027 1.94434V3.611H93.0027V1.94434H91.0027ZM92.0027 4.611H93.752V2.611H92.0027V4.611ZM92.752 3.611V5.27767H94.752V3.611H92.752ZM93.752 6.27767H95.5013V4.27767H93.752V6.27767ZM94.5013 5.27767V6.94434H96.5013V5.27767H94.5013ZM95.5013 7.94434H97.2507V5.94434H95.5013V7.94434ZM96.2507 6.94434V8.611H98.2507V6.94434H96.2507ZM97.2507 9.611H99V7.611H97.2507V9.611ZM98 8.611V10.2777H100V8.611H98ZM99 11.2777H100.749V9.27767H99V11.2777ZM99.7493 10.2777V11.9443H101.749V10.2777H99.7493ZM100.749 12.9443H102.499V10.9443H100.749V12.9443ZM101.499 11.9443V13.611H103.499V11.9443H101.499ZM102.499 14.611H104.248V12.611H102.499V14.611ZM105.248 13.611V8.611H103.248V13.611H105.248ZM112.255 5.27767V3.611H110.255V5.27767H112.255ZM112.255 3.611V1.94434H110.255V3.611H112.255ZM111.255 2.94434H113.004V0.944336H111.255V2.94434ZM113.004 2.94434H114.753V0.944336H113.004V2.94434ZM114.753 2.94434H120.001V0.944336H114.753V2.94434ZM120.001 2.94434H128.748V0.944336H120.001V2.94434ZM127.748 1.94434V5.27767H129.748V1.94434H127.748ZM128.748 4.27767H126.999V6.27767H128.748V4.27767ZM126.999 4.27767H125.249V6.27767H126.999V4.27767ZM125.249 4.27767H121.751V6.27767H125.249V4.27767ZM120.751 5.27767V13.611H122.751V5.27767H120.751ZM120.751 13.611V21.9443H122.751V13.611H120.751ZM121.751 20.9443H118.252V22.9443H121.751V20.9443ZM119.252 21.9443V13.611H117.252V21.9443H119.252ZM119.252 13.611V5.27767H117.252V13.611H119.252ZM118.252 4.27767H116.503V6.27767H118.252V4.27767ZM116.503 4.27767H111.255V6.27767H116.503V4.27767ZM142.752 4.27767H141.003V6.27767H142.752V4.27767ZM141.003 4.27767H139.253V6.27767H141.003V4.27767ZM138.253 5.27767V6.94434H140.253V5.27767H138.253ZM139.253 5.94434H137.504V7.94434H139.253V5.94434ZM136.504 6.94434V8.611H138.504V6.94434H136.504ZM136.504 8.611V10.2777H138.504V8.611H136.504ZM136.504 10.2777V13.611H138.504V10.2777H136.504ZM136.504 13.611V15.2777H138.504V13.611H136.504ZM136.504 15.2777V16.9443H138.504V15.2777H136.504ZM137.504 17.9443H139.253V15.9443H137.504V17.9443ZM138.253 16.9443V18.611H140.253V16.9443H138.253ZM139.253 19.611H141.003V17.611H139.253V19.611ZM141.003 19.611H142.752V17.611H141.003V19.611ZM142.752 19.611H144.501V17.611H142.752V19.611ZM144.501 19.611H146.251V17.611H144.501V19.611ZM146.251 19.611H148V17.611H146.251V19.611ZM149 18.611V16.9443H147V18.611H149ZM148 17.9443H149.749V15.9443H148V17.9443ZM150.749 16.9443V15.2777H148.749V16.9443H150.749ZM150.749 15.2777V13.611H148.749V15.2777H150.749ZM150.749 13.611V8.611H148.749V13.611H150.749ZM150.749 8.611V6.94434H148.749V8.611H150.749ZM149.749 5.94434H148V7.94434H149.749V5.94434ZM149 6.94434V5.27767H147V6.94434H149ZM148 4.27767H146.251V6.27767H148V4.27767ZM146.251 4.27767H144.501V6.27767H146.251V4.27767ZM144.501 4.27767H142.752V6.27767H144.501V4.27767ZM152.248 13.611V18.611H154.248V13.611H152.248ZM153.248 17.611H151.499V19.611H153.248V17.611ZM150.499 18.611V20.2777H152.499V18.611H150.499ZM151.499 19.2777H149.749V21.2777H151.499V19.2777ZM148.749 20.2777V21.9443H150.749V20.2777H148.749ZM149.749 20.9443H144.501V22.9443H149.749V20.9443ZM144.501 20.9443H142.752V22.9443H144.501V20.9443ZM142.752 20.9443H137.504V22.9443H142.752V20.9443ZM138.504 21.9443V20.2777H136.504V21.9443H138.504ZM137.504 19.2777H135.755V21.2777H137.504V19.2777ZM136.755 20.2777V18.611H134.755V20.2777H136.755ZM135.755 17.611H134.005V19.611H135.755V17.611ZM135.005 18.611V15.2777H133.005V18.611H135.005ZM135.005 15.2777V13.611H133.005V15.2777H135.005ZM135.005 13.611V11.9443H133.005V13.611H135.005ZM135.005 11.9443V10.2777H133.005V11.9443H135.005ZM135.005 10.2777V5.27767H133.005V10.2777H135.005ZM134.005 6.27767H135.755V4.27767H134.005V6.27767ZM136.755 5.27767V3.611H134.755V5.27767H136.755ZM135.755 4.611H137.504V2.611H135.755V4.611ZM138.504 3.611V1.94434H136.504V3.611H138.504ZM137.504 2.94434H141.003V0.944336H137.504V2.94434ZM141.003 2.94434H142.752V0.944336H141.003V2.94434ZM142.752 2.94434H144.501V0.944336H142.752V2.94434ZM144.501 2.94434H149.749V0.944336H144.501V2.94434ZM148.749 1.94434V3.611H150.749V1.94434H148.749ZM149.749 4.611H151.499V2.611H149.749V4.611ZM150.499 3.611V5.27767H152.499V3.611H150.499ZM151.499 6.27767H153.248V4.27767H151.499V6.27767ZM152.248 5.27767V8.611H154.248V5.27767H152.248ZM152.248 8.611V13.611H154.248V8.611H152.248ZM157.756 5.27767V3.611H155.756V5.27767H157.756ZM157.756 3.611V1.94434H155.756V3.611H157.756ZM156.756 2.94434H158.505V0.944336H156.756V2.94434ZM158.505 2.94434H160.255V0.944336H158.505V2.94434ZM160.255 2.94434H165.503V0.944336H160.255V2.94434ZM165.503 2.94434H172.5V0.944336H165.503V2.94434ZM171.5 1.94434V3.611H173.5V1.94434H171.5ZM172.5 4.611H174.249V2.611H172.5V4.611ZM173.249 3.611V5.27767H175.249V3.611H173.249ZM174.249 6.27767H175.999V4.27767H174.249V6.27767ZM174.999 5.27767V8.611H176.999V5.27767H174.999ZM174.999 8.611V10.2777H176.999V8.611H174.999ZM174.999 10.2777V11.9443H176.999V10.2777H174.999ZM175.999 10.9443H174.249V12.9443H175.999V10.9443ZM173.249 11.9443V13.611H175.249V11.9443H173.249ZM174.249 12.611H172.5V14.611H174.249V12.611ZM171.5 13.611V15.2777H173.5V13.611H171.5ZM171.5 15.2777V16.9443H173.5V15.2777H171.5ZM172.5 17.9443H174.249V15.9443H172.5V17.9443ZM173.249 16.9443V18.611H175.249V16.9443H173.249ZM174.249 19.611H175.999V17.611H174.249V19.611ZM174.999 18.611V20.2777H176.999V18.611H174.999ZM174.999 20.2777V21.9443H176.999V20.2777H174.999ZM175.999 20.9443H172.5V22.9443H175.999V20.9443ZM173.5 21.9443V20.2777H171.5V21.9443H173.5ZM172.5 19.2777H170.751V21.2777H172.5V19.2777ZM171.751 20.2777V18.611H169.751V20.2777H171.751ZM170.751 17.611H169.001V19.611H170.751V17.611ZM170.001 18.611V16.9443H168.001V18.611H170.001ZM169.001 15.9443H167.252V17.9443H169.001V15.9443ZM168.252 16.9443V15.2777H166.252V16.9443H168.252ZM167.252 14.2777H165.503V16.2777H167.252V14.2777ZM165.503 14.2777H160.255V16.2777H165.503V14.2777ZM159.255 15.2777V21.9443H161.255V15.2777H159.255ZM160.255 20.9443H156.756V22.9443H160.255V20.9443ZM157.756 21.9443V15.2777H155.756V21.9443H157.756ZM157.756 15.2777V13.611H155.756V15.2777H157.756ZM157.756 13.611V11.9443H155.756V13.611H157.756ZM157.756 11.9443V10.2777H155.756V11.9443H157.756ZM157.756 10.2777V8.611H155.756V10.2777H157.756ZM157.756 8.611V6.94434H155.756V8.611H157.756ZM157.756 6.94434V5.27767H155.756V6.94434H157.756ZM165.503 4.27767H162.004V6.27767H165.503V4.27767ZM162.004 4.27767H160.255V6.27767H162.004V4.27767ZM159.255 5.27767V10.2777H161.255V5.27767H159.255ZM159.255 10.2777V11.9443H161.255V10.2777H159.255ZM160.255 12.9443H162.004V10.9443H160.255V12.9443ZM162.004 12.9443H163.753V10.9443H162.004V12.9443ZM163.753 12.9443H165.503V10.9443H163.753V12.9443ZM165.503 12.9443H167.252V10.9443H165.503V12.9443ZM167.252 12.9443H169.001V10.9443H167.252V12.9443ZM169.001 12.9443H170.751V10.9443H169.001V12.9443ZM171.751 11.9443V10.2777H169.751V11.9443H171.751ZM170.751 11.2777H172.5V9.27767H170.751V11.2777ZM173.5 10.2777V8.611H171.5V10.2777H173.5ZM173.5 8.611V6.94434H171.5V8.611H173.5ZM172.5 5.94434H170.751V7.94434H172.5V5.94434ZM171.751 6.94434V5.27767H169.751V6.94434H171.751ZM170.751 4.27767H169.001V6.27767H170.751V4.27767ZM169.001 4.27767H167.252V6.27767H169.001V4.27767ZM167.252 4.27767H165.503V6.27767H167.252V4.27767ZM196 3.611V5.27767H198V3.611H196ZM196 5.27767V6.94434H198V5.27767H196ZM196 6.94434V8.611H198V6.94434H196ZM197 7.611H195.251V9.611H197V7.611ZM194.251 8.611V10.2777H196.251V8.611H194.251ZM195.251 9.27767H193.501V11.2777H195.251V9.27767ZM192.501 10.2777V11.9443H194.501V10.2777H192.501ZM193.501 10.9443H191.752V12.9443H193.501V10.9443ZM190.752 11.9443V13.611H192.752V11.9443H190.752ZM191.752 12.611H190.003V14.611H191.752V12.611ZM189.003 13.611V15.2777H191.003V13.611H189.003ZM189.003 15.2777V21.9443H191.003V15.2777H189.003ZM190.003 20.9443H186.504V22.9443H190.003V20.9443ZM187.504 21.9443V15.2777H185.504V21.9443H187.504ZM187.504 15.2777V13.611H185.504V15.2777H187.504ZM186.504 12.611H184.755V14.611H186.504V12.611ZM185.755 13.611V11.9443H183.755V13.611H185.755ZM184.755 10.9443H183.005V12.9443H184.755V10.9443ZM184.005 11.9443V10.2777H182.005V11.9443H184.005ZM183.005 9.27767H181.256V11.2777H183.005V9.27767ZM182.256 10.2777V8.611H180.256V10.2777H182.256ZM181.256 7.611H179.507V9.611H181.256V7.611ZM180.507 8.611V6.94434H178.507V8.611H180.507ZM180.507 6.94434V5.27767H178.507V6.94434H180.507ZM180.507 5.27767V3.611H178.507V5.27767H180.507ZM180.507 3.611V1.94434H178.507V3.611H180.507ZM179.507 2.94434H181.256V0.944336H179.507V2.94434ZM181.256 2.94434H183.005V0.944336H181.256V2.94434ZM182.005 1.94434V3.611H184.005V1.94434H182.005ZM182.005 3.611V5.27767H184.005V3.611H182.005ZM182.005 5.27767V6.94434H184.005V5.27767H182.005ZM183.005 7.94434H184.755V5.94434H183.005V7.94434ZM183.755 6.94434V8.611H185.755V6.94434H183.755ZM184.755 9.611H186.504V7.611H184.755V9.611ZM185.504 8.611V10.2777H187.504V8.611H185.504ZM186.504 11.2777H188.253V9.27767H186.504V11.2777ZM188.253 11.2777H190.003V9.27767H188.253V11.2777ZM191.003 10.2777V8.611H189.003V10.2777H191.003ZM190.003 9.611H191.752V7.611H190.003V9.611ZM192.752 8.611V6.94434H190.752V8.611H192.752ZM191.752 7.94434H193.501V5.94434H191.752V7.94434ZM194.501 6.94434V5.27767H192.501V6.94434H194.501ZM194.501 5.27767V3.611H192.501V5.27767H194.501ZM194.501 3.611V1.94434H192.501V3.611H194.501ZM193.501 2.94434H195.251V0.944336H193.501V2.94434ZM195.251 2.94434H197V0.944336H195.251V2.94434ZM196 1.94434V3.611H198V1.94434H196Z" fill="url(#paint9_linear_3350_15161)" mask="url(#path-1-outside-1_3350_15161)"/>
<defs>
<linearGradient id="paint0_linear_3350_15161" x1="99" y1="1.94434" x2="99" y2="21.9443" gradientUnits="userSpaceOnUse">
<stop stop-color="#FF7C06"/>
<stop offset="1" stop-color="#E45C00"/>
</linearGradient>
<linearGradient id="paint1_linear_3350_15161" x1="99" y1="1.94434" x2="99" y2="21.9443" gradientUnits="userSpaceOnUse">
<stop stop-color="#FF7C06"/>
<stop offset="1" stop-color="#E45C00"/>
</linearGradient>
<linearGradient id="paint2_linear_3350_15161" x1="99" y1="1.94434" x2="99" y2="21.9443" gradientUnits="userSpaceOnUse">
<stop stop-color="#FF7C06"/>
<stop offset="1" stop-color="#E45C00"/>
</linearGradient>
<linearGradient id="paint3_linear_3350_15161" x1="99" y1="1.94434" x2="99" y2="21.9443" gradientUnits="userSpaceOnUse">
<stop stop-color="#FF7C06"/>
<stop offset="1" stop-color="#E45C00"/>
</linearGradient>
<linearGradient id="paint4_linear_3350_15161" x1="99" y1="1.94434" x2="99" y2="21.9443" gradientUnits="userSpaceOnUse">
<stop stop-color="#FF7C06"/>
<stop offset="1" stop-color="#E45C00"/>
</linearGradient>
<linearGradient id="paint5_linear_3350_15161" x1="99" y1="1.94434" x2="99" y2="21.9443" gradientUnits="userSpaceOnUse">
<stop stop-color="#FF7C06"/>
<stop offset="1" stop-color="#E45C00"/>
</linearGradient>
<linearGradient id="paint6_linear_3350_15161" x1="99" y1="1.94434" x2="99" y2="21.9443" gradientUnits="userSpaceOnUse">
<stop stop-color="#FF7C06"/>
<stop offset="1" stop-color="#E45C00"/>
</linearGradient>
<linearGradient id="paint7_linear_3350_15161" x1="99" y1="1.94434" x2="99" y2="21.9443" gradientUnits="userSpaceOnUse">
<stop stop-color="#FF7C06"/>
<stop offset="1" stop-color="#E45C00"/>
</linearGradient>
<linearGradient id="paint8_linear_3350_15161" x1="99" y1="1.94434" x2="99" y2="21.9443" gradientUnits="userSpaceOnUse">
<stop stop-color="#FF7C06"/>
<stop offset="1" stop-color="#E45C00"/>
</linearGradient>
<linearGradient id="paint9_linear_3350_15161" x1="99" y1="1.94434" x2="99" y2="21.9443" gradientUnits="userSpaceOnUse">
<stop stop-color="#FF7C06"/>
<stop offset="1" stop-color="#E45C00"/>
</linearGradient>
</defs>
</svg>
