<svg width="342" height="40" viewBox="0 0 342 40" fill="none" xmlns="http://www.w3.org/2000/svg">
<mask id="path-1-outside-1_3058_817" maskUnits="userSpaceOnUse" x="0" y="0" width="342" height="40" fill="black">
<rect fill="white" width="342" height="40"/>
<path d="M20.1325 32.4743V38.5691H17.1104H14.0884H8.04418H5.02209H2V32.4743H5.02209H8.04418V14.1897V8.09485H5.02209H2V2H5.02209H8.04418H11.0663H14.0884H17.1104H20.1325V8.09485H17.1104H14.0884V32.4743H17.1104H20.1325Z"/>
<path d="M62.4579 14.1897V5.04743V2H68.5021V5.04743V8.09485V32.4743V38.5691H62.4579V32.4743H59.4358V29.4268H56.4137V26.3794H53.3916V23.332H50.3695V20.2846H47.3475V17.2371H44.3254V14.1897H41.3033V23.332V38.5691H38.2812H35.2591V35.5217V32.4743V29.4268V23.332V20.2846V17.2371V14.1897V11.1423V8.09485V5.04743V2H38.2812H41.3033V5.04743H44.3254V8.09485H47.3475V11.1423H50.3695V14.1897H53.3916V17.2371H56.4137V20.2846H59.4358V23.332H62.4579V14.1897Z"/>
<path d="M107.805 5.04743V8.09485V14.1897V20.2846V23.332V26.3794H104.783V29.4268H101.761V32.4743H98.7391V35.5217H95.717V38.5691H86.6507V35.5217H83.6286V32.4743H80.6066V29.4268H77.5845V26.3794H74.5624V23.332V20.2846V14.1897V8.09485V5.04743V2H77.5845H80.6066V5.04743V8.09485V20.2846V23.332H83.6286V26.3794H86.6507V29.4268H89.6728V32.4743H92.6949V29.4268H95.717V26.3794H98.7391V23.332H101.761V20.2846V8.09485V5.04743V2H104.783H107.805V5.04743Z"/>
<path d="M113.866 8.09485V5.04743V2H116.888H119.91H128.976H147.109V8.09485H144.087H141.064H135.02H131.998H128.976H122.932H119.91V17.2371H141.064V23.332H119.91V32.4743H122.932H128.976H131.998H135.02H141.064H144.087H147.109V38.5691H128.976H119.91H116.888H113.866V35.5217V32.4743V29.4268V23.332V20.2846V17.2371V14.1897V11.1423V8.09485Z"/>
<path d="M180.368 14.1897V5.04743V2H186.412V5.04743V8.09485V32.4743V38.5691H180.368V32.4743H177.346V29.4268H174.324V26.3794H171.301V23.332H168.279V20.2846H165.257V17.2371H162.235V14.1897H159.213V23.332V38.5691H156.191H153.169V35.5217V32.4743V29.4268V23.332V20.2846V17.2371V14.1897V11.1423V8.09485V5.04743V2H156.191H159.213V5.04743H162.235V8.09485H165.257V11.1423H168.279V14.1897H171.301V17.2371H174.324V20.2846H177.346V23.332H180.368V14.1897Z"/>
<path d="M192.472 8.09485V5.04743V2H195.494H198.516H207.583H222.693V8.09485H219.671H216.649H210.605V23.332V38.5691H204.561V23.332V8.09485H201.538H192.472Z"/>
<path d="M246.886 8.09485H243.864H240.842V11.1423H237.82V14.1897V17.2371V23.332V26.3794V29.4268H240.842V32.4743H243.864H246.886H249.908H252.93H255.952V29.4268H258.974V26.3794V23.332V14.1897V11.1423H255.952V8.09485H252.93H249.908H246.886ZM265.018 23.332V32.4743H261.996V35.5217H258.974V38.5691H249.908H246.886H237.82V35.5217H234.798V32.4743H231.776V26.3794V23.332V20.2846V17.2371V8.09485H234.798V5.04743H237.82V2H243.864H246.886H249.908H258.974V5.04743H261.996V8.09485H265.018V14.1897V23.332Z"/>
<path d="M271.079 8.09485V5.04743V2H274.101H277.123H286.189H298.278V5.04743H301.3V8.09485H304.322V14.1897V17.2371V20.2846H301.3V23.332H298.278V26.3794V29.4268H301.3V32.4743H304.322V35.5217V38.5691H298.278V35.5217H295.255V32.4743H292.233V29.4268H289.211V26.3794H286.189H277.123V38.5691H271.079V26.3794V23.332V20.2846V17.2371V14.1897V11.1423V8.09485ZM286.189 8.09485H280.145H277.123V17.2371V20.2846H280.145H283.167H286.189H289.211H292.233H295.255V17.2371H298.278V14.1897V11.1423H295.255V8.09485H292.233H289.211H286.189Z"/>
<path d="M340.603 5.04743V8.09485V11.1423V14.1897H337.581V17.2371H334.559V20.2846H331.537V23.332H328.515V26.3794V38.5691H322.47V26.3794V23.332H319.448V20.2846H316.426V17.2371H313.404V14.1897H310.382V11.1423V8.09485V5.04743V2H313.404H316.426V5.04743V8.09485V11.1423H319.448V14.1897H322.47V17.2371H325.492H328.515V14.1897H331.537V11.1423H334.559V8.09485V5.04743V2H337.581H340.603V5.04743Z"/>
</mask>
<path d="M20.1325 32.4743V38.5691H17.1104H14.0884H8.04418H5.02209H2V32.4743H5.02209H8.04418V14.1897V8.09485H5.02209H2V2H5.02209H8.04418H11.0663H14.0884H17.1104H20.1325V8.09485H17.1104H14.0884V32.4743H17.1104H20.1325Z" fill="url(#paint0_linear_3058_817)"/>
<path d="M62.4579 14.1897V5.04743V2H68.5021V5.04743V8.09485V32.4743V38.5691H62.4579V32.4743H59.4358V29.4268H56.4137V26.3794H53.3916V23.332H50.3695V20.2846H47.3475V17.2371H44.3254V14.1897H41.3033V23.332V38.5691H38.2812H35.2591V35.5217V32.4743V29.4268V23.332V20.2846V17.2371V14.1897V11.1423V8.09485V5.04743V2H38.2812H41.3033V5.04743H44.3254V8.09485H47.3475V11.1423H50.3695V14.1897H53.3916V17.2371H56.4137V20.2846H59.4358V23.332H62.4579V14.1897Z" fill="url(#paint1_linear_3058_817)"/>
<path d="M107.805 5.04743V8.09485V14.1897V20.2846V23.332V26.3794H104.783V29.4268H101.761V32.4743H98.7391V35.5217H95.717V38.5691H86.6507V35.5217H83.6286V32.4743H80.6066V29.4268H77.5845V26.3794H74.5624V23.332V20.2846V14.1897V8.09485V5.04743V2H77.5845H80.6066V5.04743V8.09485V20.2846V23.332H83.6286V26.3794H86.6507V29.4268H89.6728V32.4743H92.6949V29.4268H95.717V26.3794H98.7391V23.332H101.761V20.2846V8.09485V5.04743V2H104.783H107.805V5.04743Z" fill="url(#paint2_linear_3058_817)"/>
<path d="M113.866 8.09485V5.04743V2H116.888H119.91H128.976H147.109V8.09485H144.087H141.064H135.02H131.998H128.976H122.932H119.91V17.2371H141.064V23.332H119.91V32.4743H122.932H128.976H131.998H135.02H141.064H144.087H147.109V38.5691H128.976H119.91H116.888H113.866V35.5217V32.4743V29.4268V23.332V20.2846V17.2371V14.1897V11.1423V8.09485Z" fill="url(#paint3_linear_3058_817)"/>
<path d="M180.368 14.1897V5.04743V2H186.412V5.04743V8.09485V32.4743V38.5691H180.368V32.4743H177.346V29.4268H174.324V26.3794H171.301V23.332H168.279V20.2846H165.257V17.2371H162.235V14.1897H159.213V23.332V38.5691H156.191H153.169V35.5217V32.4743V29.4268V23.332V20.2846V17.2371V14.1897V11.1423V8.09485V5.04743V2H156.191H159.213V5.04743H162.235V8.09485H165.257V11.1423H168.279V14.1897H171.301V17.2371H174.324V20.2846H177.346V23.332H180.368V14.1897Z" fill="url(#paint4_linear_3058_817)"/>
<path d="M192.472 8.09485V5.04743V2H195.494H198.516H207.583H222.693V8.09485H219.671H216.649H210.605V23.332V38.5691H204.561V23.332V8.09485H201.538H192.472Z" fill="url(#paint5_linear_3058_817)"/>
<path d="M246.886 8.09485H243.864H240.842V11.1423H237.82V14.1897V17.2371V23.332V26.3794V29.4268H240.842V32.4743H243.864H246.886H249.908H252.93H255.952V29.4268H258.974V26.3794V23.332V14.1897V11.1423H255.952V8.09485H252.93H249.908H246.886ZM265.018 23.332V32.4743H261.996V35.5217H258.974V38.5691H249.908H246.886H237.82V35.5217H234.798V32.4743H231.776V26.3794V23.332V20.2846V17.2371V8.09485H234.798V5.04743H237.82V2H243.864H246.886H249.908H258.974V5.04743H261.996V8.09485H265.018V14.1897V23.332Z" fill="url(#paint6_linear_3058_817)"/>
<path d="M271.079 8.09485V5.04743V2H274.101H277.123H286.189H298.278V5.04743H301.3V8.09485H304.322V14.1897V17.2371V20.2846H301.3V23.332H298.278V26.3794V29.4268H301.3V32.4743H304.322V35.5217V38.5691H298.278V35.5217H295.255V32.4743H292.233V29.4268H289.211V26.3794H286.189H277.123V38.5691H271.079V26.3794V23.332V20.2846V17.2371V14.1897V11.1423V8.09485ZM286.189 8.09485H280.145H277.123V17.2371V20.2846H280.145H283.167H286.189H289.211H292.233H295.255V17.2371H298.278V14.1897V11.1423H295.255V8.09485H292.233H289.211H286.189Z" fill="url(#paint7_linear_3058_817)"/>
<path d="M340.603 5.04743V8.09485V11.1423V14.1897H337.581V17.2371H334.559V20.2846H331.537V23.332H328.515V26.3794V38.5691H322.47V26.3794V23.332H319.448V20.2846H316.426V17.2371H313.404V14.1897H310.382V11.1423V8.09485V5.04743V2H313.404H316.426V5.04743V8.09485V11.1423H319.448V14.1897H322.47V17.2371H325.492H328.515V14.1897H331.537V11.1423H334.559V8.09485V5.04743V2H337.581H340.603V5.04743Z" fill="url(#paint8_linear_3058_817)"/>
<path d="M20.1325 32.4743H21.4869V31.1199H20.1325V32.4743ZM20.1325 38.5691V39.9235H21.4869V38.5691H20.1325ZM2 38.5691H0.645588V39.9235H2V38.5691ZM2 32.4743V31.1199H0.645588V32.4743H2ZM8.04418 32.4743V33.8287H9.39859V32.4743H8.04418ZM8.04418 8.09485H9.39859V6.74044H8.04418V8.09485ZM2 8.09485H0.645588V9.44926H2V8.09485ZM2 2V0.645588H0.645588V2H2ZM20.1325 2H21.4869V0.645588H20.1325V2ZM20.1325 8.09485V9.44926H21.4869V8.09485H20.1325ZM14.0884 8.09485V6.74044H12.7339V8.09485H14.0884ZM14.0884 32.4743H12.7339V33.8287H14.0884V32.4743ZM62.4579 2V0.645588H61.1035V2H62.4579ZM68.5021 2H69.8565V0.645588H68.5021V2ZM68.5021 38.5691V39.9235H69.8565V38.5691H68.5021ZM62.4579 38.5691H61.1035V39.9235H62.4579V38.5691ZM62.4579 32.4743H63.8123V31.1199H62.4579V32.4743ZM59.4358 32.4743H58.0814V33.8287H59.4358V32.4743ZM59.4358 29.4268H60.7902V28.0724H59.4358V29.4268ZM56.4137 29.4268H55.0593V30.7813H56.4137V29.4268ZM56.4137 26.3794H57.7681V25.025H56.4137V26.3794ZM53.3916 26.3794H52.0372V27.7338H53.3916V26.3794ZM53.3916 23.332H54.746V21.9776H53.3916V23.332ZM50.3695 23.332H49.0151V24.6864H50.3695V23.332ZM50.3695 20.2846H51.724V18.9301H50.3695V20.2846ZM47.3475 20.2846H45.993V21.639H47.3475V20.2846ZM47.3475 17.2371H48.7019V15.8827H47.3475V17.2371ZM44.3254 17.2371H42.971V18.5915H44.3254V17.2371ZM44.3254 14.1897H45.6798V12.8353H44.3254V14.1897ZM41.3033 14.1897V12.8353H39.9489V14.1897H41.3033ZM41.3033 38.5691V39.9235H42.6577V38.5691H41.3033ZM35.2591 38.5691H33.9047V39.9235H35.2591V38.5691ZM35.2591 2V0.645588H33.9047V2H35.2591ZM41.3033 2H42.6577V0.645588H41.3033V2ZM41.3033 5.04743H39.9489V6.40184H41.3033V5.04743ZM44.3254 5.04743H45.6798V3.69302H44.3254V5.04743ZM44.3254 8.09485H42.971V9.44926H44.3254V8.09485ZM47.3475 8.09485H48.7019V6.74044H47.3475V8.09485ZM47.3475 11.1423H45.993V12.4967H47.3475V11.1423ZM50.3695 11.1423H51.724V9.78787H50.3695V11.1423ZM50.3695 14.1897H49.0151V15.5441H50.3695V14.1897ZM53.3916 14.1897H54.746V12.8353H53.3916V14.1897ZM53.3916 17.2371H52.0372V18.5915H53.3916V17.2371ZM56.4137 17.2371H57.7681V15.8827H56.4137V17.2371ZM56.4137 20.2846H55.0593V21.639H56.4137V20.2846ZM59.4358 20.2846H60.7902V18.9301H59.4358V20.2846ZM59.4358 23.332H58.0814V24.6864H59.4358V23.332ZM62.4579 23.332V24.6864H63.8123V23.332H62.4579ZM107.805 26.3794V27.7338H109.16V26.3794H107.805ZM104.783 26.3794V25.025H103.429V26.3794H104.783ZM104.783 29.4268V30.7813H106.138V29.4268H104.783ZM101.761 29.4268V28.0724H100.407V29.4268H101.761ZM101.761 32.4743V33.8287H103.116V32.4743H101.761ZM98.7391 32.4743V31.1199H97.3847V32.4743H98.7391ZM98.7391 35.5217V36.8761H100.093V35.5217H98.7391ZM95.717 35.5217V34.1673H94.3626V35.5217H95.717ZM95.717 38.5691V39.9235H97.0714V38.5691H95.717ZM86.6507 38.5691H85.2963V39.9235H86.6507V38.5691ZM86.6507 35.5217H88.0051V34.1673H86.6507V35.5217ZM83.6286 35.5217H82.2742V36.8761H83.6286V35.5217ZM83.6286 32.4743H84.9831V31.1199H83.6286V32.4743ZM80.6066 32.4743H79.2522V33.8287H80.6066V32.4743ZM80.6066 29.4268H81.961V28.0724H80.6066V29.4268ZM77.5845 29.4268H76.2301V30.7813H77.5845V29.4268ZM77.5845 26.3794H78.9389V25.025H77.5845V26.3794ZM74.5624 26.3794H73.208V27.7338H74.5624V26.3794ZM74.5624 2V0.645588H73.208V2H74.5624ZM80.6066 2H81.961V0.645588H80.6066V2ZM80.6066 23.332H79.2522V24.6864H80.6066V23.332ZM83.6286 23.332H84.9831V21.9776H83.6286V23.332ZM83.6286 26.3794H82.2742V27.7338H83.6286V26.3794ZM86.6507 26.3794H88.0051V25.025H86.6507V26.3794ZM86.6507 29.4268H85.2963V30.7813H86.6507V29.4268ZM89.6728 29.4268H91.0272V28.0724H89.6728V29.4268ZM89.6728 32.4743H88.3184V33.8287H89.6728V32.4743ZM92.6949 32.4743V33.8287H94.0493V32.4743H92.6949ZM92.6949 29.4268V28.0724H91.3405V29.4268H92.6949ZM95.717 29.4268V30.7813H97.0714V29.4268H95.717ZM95.717 26.3794V25.025H94.3626V26.3794H95.717ZM98.7391 26.3794V27.7338H100.093V26.3794H98.7391ZM98.7391 23.332V21.9776H97.3847V23.332H98.7391ZM101.761 23.332V24.6864H103.116V23.332H101.761ZM101.761 2V0.645588H100.407V2H101.761ZM107.805 2H109.16V0.645588H107.805V2ZM113.866 2V0.645588H112.511V2H113.866ZM147.109 2H148.463V0.645588H147.109V2ZM147.109 8.09485V9.44926H148.463V8.09485H147.109ZM119.91 8.09485V6.74044H118.555V8.09485H119.91ZM119.91 17.2371H118.555V18.5915H119.91V17.2371ZM141.064 17.2371H142.419V15.8827H141.064V17.2371ZM141.064 23.332V24.6864H142.419V23.332H141.064ZM119.91 23.332V21.9776H118.555V23.332H119.91ZM119.91 32.4743H118.555V33.8287H119.91V32.4743ZM147.109 32.4743H148.463V31.1199H147.109V32.4743ZM147.109 38.5691V39.9235H148.463V38.5691H147.109ZM113.866 38.5691H112.511V39.9235H113.866V38.5691ZM180.368 2V0.645588H179.013V2H180.368ZM186.412 2H187.766V0.645588H186.412V2ZM186.412 38.5691V39.9235H187.766V38.5691H186.412ZM180.368 38.5691H179.013V39.9235H180.368V38.5691ZM180.368 32.4743H181.722V31.1199H180.368V32.4743ZM177.346 32.4743H175.991V33.8287H177.346V32.4743ZM177.346 29.4268H178.7V28.0724H177.346V29.4268ZM174.324 29.4268H172.969V30.7813H174.324V29.4268ZM174.324 26.3794H175.678V25.025H174.324V26.3794ZM171.301 26.3794H169.947V27.7338H171.301V26.3794ZM171.301 23.332H172.656V21.9776H171.301V23.332ZM168.279 23.332H166.925V24.6864H168.279V23.332ZM168.279 20.2846H169.634V18.9301H168.279V20.2846ZM165.257 20.2846H163.903V21.639H165.257V20.2846ZM165.257 17.2371H166.612V15.8827H165.257V17.2371ZM162.235 17.2371H160.881V18.5915H162.235V17.2371ZM162.235 14.1897H163.59V12.8353H162.235V14.1897ZM159.213 14.1897V12.8353H157.859V14.1897H159.213ZM159.213 38.5691V39.9235H160.568V38.5691H159.213ZM153.169 38.5691H151.815V39.9235H153.169V38.5691ZM153.169 2V0.645588H151.815V2H153.169ZM159.213 2H160.568V0.645588H159.213V2ZM159.213 5.04743H157.859V6.40184H159.213V5.04743ZM162.235 5.04743H163.59V3.69302H162.235V5.04743ZM162.235 8.09485H160.881V9.44926H162.235V8.09485ZM165.257 8.09485H166.612V6.74044H165.257V8.09485ZM165.257 11.1423H163.903V12.4967H165.257V11.1423ZM168.279 11.1423H169.634V9.78787H168.279V11.1423ZM168.279 14.1897H166.925V15.5441H168.279V14.1897ZM171.301 14.1897H172.656V12.8353H171.301V14.1897ZM171.301 17.2371H169.947V18.5915H171.301V17.2371ZM174.324 17.2371H175.678V15.8827H174.324V17.2371ZM174.324 20.2846H172.969V21.639H174.324V20.2846ZM177.346 20.2846H178.7V18.9301H177.346V20.2846ZM177.346 23.332H175.991V24.6864H177.346V23.332ZM180.368 23.332V24.6864H181.722V23.332H180.368ZM192.472 8.09485H191.118V9.44926H192.472V8.09485ZM192.472 2V0.645588H191.118V2H192.472ZM222.693 2H224.048V0.645588H222.693V2ZM222.693 8.09485V9.44926H224.048V8.09485H222.693ZM210.605 8.09485V6.74044H209.25V8.09485H210.605ZM210.605 38.5691V39.9235H211.959V38.5691H210.605ZM204.561 38.5691H203.206V39.9235H204.561V38.5691ZM204.561 8.09485H205.915V6.74044H204.561V8.09485ZM240.842 8.09485V6.74044H239.487V8.09485H240.842ZM240.842 11.1423V12.4967H242.196V11.1423H240.842ZM237.82 11.1423V9.78787H236.465V11.1423H237.82ZM237.82 29.4268H236.465V30.7813H237.82V29.4268ZM240.842 29.4268H242.196V28.0724H240.842V29.4268ZM240.842 32.4743H239.487V33.8287H240.842V32.4743ZM255.952 32.4743V33.8287H257.307V32.4743H255.952ZM255.952 29.4268V28.0724H254.598V29.4268H255.952ZM258.974 29.4268V30.7813H260.329V29.4268H258.974ZM258.974 11.1423H260.329V9.78787H258.974V11.1423ZM255.952 11.1423H254.598V12.4967H255.952V11.1423ZM255.952 8.09485H257.307V6.74044H255.952V8.09485ZM265.018 32.4743V33.8287H266.373V32.4743H265.018ZM261.996 32.4743V31.1199H260.642V32.4743H261.996ZM261.996 35.5217V36.8761H263.351V35.5217H261.996ZM258.974 35.5217V34.1673H257.62V35.5217H258.974ZM258.974 38.5691V39.9235H260.329V38.5691H258.974ZM237.82 38.5691H236.465V39.9235H237.82V38.5691ZM237.82 35.5217H239.174V34.1673H237.82V35.5217ZM234.798 35.5217H233.443V36.8761H234.798V35.5217ZM234.798 32.4743H236.152V31.1199H234.798V32.4743ZM231.776 32.4743H230.421V33.8287H231.776V32.4743ZM231.776 8.09485V6.74044H230.421V8.09485H231.776ZM234.798 8.09485V9.44926H236.152V8.09485H234.798ZM234.798 5.04743V3.69302H233.443V5.04743H234.798ZM237.82 5.04743V6.40184H239.174V5.04743H237.82ZM237.82 2V0.645588H236.465V2H237.82ZM258.974 2H260.329V0.645588H258.974V2ZM258.974 5.04743H257.62V6.40184H258.974V5.04743ZM261.996 5.04743H263.351V3.69302H261.996V5.04743ZM261.996 8.09485H260.642V9.44926H261.996V8.09485ZM265.018 8.09485H266.373V6.74044H265.018V8.09485ZM271.079 2V0.645588H269.724V2H271.079ZM298.278 2H299.632V0.645588H298.278V2ZM298.278 5.04743H296.923V6.40184H298.278V5.04743ZM301.3 5.04743H302.654V3.69302H301.3V5.04743ZM301.3 8.09485H299.945V9.44926H301.3V8.09485ZM304.322 8.09485H305.676V6.74044H304.322V8.09485ZM304.322 20.2846V21.639H305.676V20.2846H304.322ZM301.3 20.2846V18.9301H299.945V20.2846H301.3ZM301.3 23.332V24.6864H302.654V23.332H301.3ZM298.278 23.332V21.9776H296.923V23.332H298.278ZM298.278 29.4268H296.923V30.7813H298.278V29.4268ZM301.3 29.4268H302.654V28.0724H301.3V29.4268ZM301.3 32.4743H299.945V33.8287H301.3V32.4743ZM304.322 32.4743H305.676V31.1199H304.322V32.4743ZM304.322 38.5691V39.9235H305.676V38.5691H304.322ZM298.278 38.5691H296.923V39.9235H298.278V38.5691ZM298.278 35.5217H299.632V34.1673H298.278V35.5217ZM295.255 35.5217H293.901V36.8761H295.255V35.5217ZM295.255 32.4743H296.61V31.1199H295.255V32.4743ZM292.233 32.4743H290.879V33.8287H292.233V32.4743ZM292.233 29.4268H293.588V28.0724H292.233V29.4268ZM289.211 29.4268H287.857V30.7813H289.211V29.4268ZM289.211 26.3794H290.566V25.025H289.211V26.3794ZM277.123 26.3794V25.025H275.769V26.3794H277.123ZM277.123 38.5691V39.9235H278.477V38.5691H277.123ZM271.079 38.5691H269.724V39.9235H271.079V38.5691ZM277.123 8.09485V6.74044H275.769V8.09485H277.123ZM277.123 20.2846H275.769V21.639H277.123V20.2846ZM295.255 20.2846V21.639H296.61V20.2846H295.255ZM295.255 17.2371V15.8827H293.901V17.2371H295.255ZM298.278 17.2371V18.5915H299.632V17.2371H298.278ZM298.278 11.1423H299.632V9.78787H298.278V11.1423ZM295.255 11.1423H293.901V12.4967H295.255V11.1423ZM295.255 8.09485H296.61V6.74044H295.255V8.09485ZM340.603 14.1897V15.5441H341.957V14.1897H340.603ZM337.581 14.1897V12.8353H336.226V14.1897H337.581ZM337.581 17.2371V18.5915H338.935V17.2371H337.581ZM334.559 17.2371V15.8827H333.204V17.2371H334.559ZM334.559 20.2846V21.639H335.913V20.2846H334.559ZM331.537 20.2846V18.9301H330.182V20.2846H331.537ZM331.537 23.332V24.6864H332.891V23.332H331.537ZM328.515 23.332V21.9776H327.16V23.332H328.515ZM328.515 38.5691V39.9235H329.869V38.5691H328.515ZM322.47 38.5691H321.116V39.9235H322.47V38.5691ZM322.47 23.332H323.825V21.9776H322.47V23.332ZM319.448 23.332H318.094V24.6864H319.448V23.332ZM319.448 20.2846H320.803V18.9301H319.448V20.2846ZM316.426 20.2846H315.072V21.639H316.426V20.2846ZM316.426 17.2371H317.781V15.8827H316.426V17.2371ZM313.404 17.2371H312.05V18.5915H313.404V17.2371ZM313.404 14.1897H314.759V12.8353H313.404V14.1897ZM310.382 14.1897H309.028V15.5441H310.382V14.1897ZM310.382 2V0.645588H309.028V2H310.382ZM316.426 2H317.781V0.645588H316.426V2ZM316.426 11.1423H315.072V12.4967H316.426V11.1423ZM319.448 11.1423H320.803V9.78787H319.448V11.1423ZM319.448 14.1897H318.094V15.5441H319.448V14.1897ZM322.47 14.1897H323.825V12.8353H322.47V14.1897ZM322.47 17.2371H321.116V18.5915H322.47V17.2371ZM328.515 17.2371V18.5915H329.869V17.2371H328.515ZM328.515 14.1897V12.8353H327.16V14.1897H328.515ZM331.537 14.1897V15.5441H332.891V14.1897H331.537ZM331.537 11.1423V9.78787H330.182V11.1423H331.537ZM334.559 11.1423V12.4967H335.913V11.1423H334.559ZM334.559 2V0.645588H333.204V2H334.559ZM340.603 2H341.957V0.645588H340.603V2ZM18.7781 32.4743V38.5691H21.4869V32.4743H18.7781ZM20.1325 37.2147H17.1104V39.9235H20.1325V37.2147ZM17.1104 37.2147H14.0884V39.9235H17.1104V37.2147ZM14.0884 37.2147H8.04418V39.9235H14.0884V37.2147ZM8.04418 37.2147H5.02209V39.9235H8.04418V37.2147ZM5.02209 37.2147H2V39.9235H5.02209V37.2147ZM3.35441 38.5691V32.4743H0.645588V38.5691H3.35441ZM2 33.8287H5.02209V31.1199H2V33.8287ZM5.02209 33.8287H8.04418V31.1199H5.02209V33.8287ZM9.39859 32.4743V14.1897H6.68977V32.4743H9.39859ZM9.39859 14.1897V8.09485H6.68977V14.1897H9.39859ZM8.04418 6.74044H5.02209V9.44926H8.04418V6.74044ZM5.02209 6.74044H2V9.44926H5.02209V6.74044ZM3.35441 8.09485V2H0.645588V8.09485H3.35441ZM2 3.35441H5.02209V0.645588H2V3.35441ZM5.02209 3.35441H8.04418V0.645588H5.02209V3.35441ZM8.04418 3.35441H11.0663V0.645588H8.04418V3.35441ZM11.0663 3.35441H14.0884V0.645588H11.0663V3.35441ZM14.0884 3.35441H17.1104V0.645588H14.0884V3.35441ZM17.1104 3.35441H20.1325V0.645588H17.1104V3.35441ZM18.7781 2V8.09485H21.4869V2H18.7781ZM20.1325 6.74044H17.1104V9.44926H20.1325V6.74044ZM17.1104 6.74044H14.0884V9.44926H17.1104V6.74044ZM12.7339 8.09485V32.4743H15.4428V8.09485H12.7339ZM14.0884 33.8287H17.1104V31.1199H14.0884V33.8287ZM17.1104 33.8287H20.1325V31.1199H17.1104V33.8287ZM63.8123 14.1897V5.04743H61.1035V14.1897H63.8123ZM63.8123 5.04743V2H61.1035V5.04743H63.8123ZM62.4579 3.35441H68.5021V0.645588H62.4579V3.35441ZM67.1477 2V5.04743H69.8565V2H67.1477ZM67.1477 5.04743V8.09485H69.8565V5.04743H67.1477ZM67.1477 8.09485V32.4743H69.8565V8.09485H67.1477ZM67.1477 32.4743V38.5691H69.8565V32.4743H67.1477ZM68.5021 37.2147H62.4579V39.9235H68.5021V37.2147ZM63.8123 38.5691V32.4743H61.1035V38.5691H63.8123ZM62.4579 31.1199H59.4358V33.8287H62.4579V31.1199ZM60.7902 32.4743V29.4268H58.0814V32.4743H60.7902ZM59.4358 28.0724H56.4137V30.7813H59.4358V28.0724ZM57.7681 29.4268V26.3794H55.0593V29.4268H57.7681ZM56.4137 25.025H53.3916V27.7338H56.4137V25.025ZM54.746 26.3794V23.332H52.0372V26.3794H54.746ZM53.3916 21.9776H50.3695V24.6864H53.3916V21.9776ZM51.724 23.332V20.2846H49.0151V23.332H51.724ZM50.3695 18.9301H47.3475V21.639H50.3695V18.9301ZM48.7019 20.2846V17.2371H45.993V20.2846H48.7019ZM47.3475 15.8827H44.3254V18.5915H47.3475V15.8827ZM45.6798 17.2371V14.1897H42.971V17.2371H45.6798ZM44.3254 12.8353H41.3033V15.5441H44.3254V12.8353ZM39.9489 14.1897V23.332H42.6577V14.1897H39.9489ZM39.9489 23.332V38.5691H42.6577V23.332H39.9489ZM41.3033 37.2147H38.2812V39.9235H41.3033V37.2147ZM38.2812 37.2147H35.2591V39.9235H38.2812V37.2147ZM36.6135 38.5691V35.5217H33.9047V38.5691H36.6135ZM36.6135 35.5217V32.4743H33.9047V35.5217H36.6135ZM36.6135 32.4743V29.4268H33.9047V32.4743H36.6135ZM36.6135 29.4268V23.332H33.9047V29.4268H36.6135ZM36.6135 23.332V20.2846H33.9047V23.332H36.6135ZM36.6135 20.2846V17.2371H33.9047V20.2846H36.6135ZM36.6135 17.2371V14.1897H33.9047V17.2371H36.6135ZM36.6135 14.1897V11.1423H33.9047V14.1897H36.6135ZM36.6135 11.1423V8.09485H33.9047V11.1423H36.6135ZM36.6135 8.09485V5.04743H33.9047V8.09485H36.6135ZM36.6135 5.04743V2H33.9047V5.04743H36.6135ZM35.2591 3.35441H38.2812V0.645588H35.2591V3.35441ZM38.2812 3.35441H41.3033V0.645588H38.2812V3.35441ZM39.9489 2V5.04743H42.6577V2H39.9489ZM41.3033 6.40184H44.3254V3.69302H41.3033V6.40184ZM42.971 5.04743V8.09485H45.6798V5.04743H42.971ZM44.3254 9.44926H47.3475V6.74044H44.3254V9.44926ZM45.993 8.09485V11.1423H48.7019V8.09485H45.993ZM47.3475 12.4967H50.3695V9.78787H47.3475V12.4967ZM49.0151 11.1423V14.1897H51.724V11.1423H49.0151ZM50.3695 15.5441H53.3916V12.8353H50.3695V15.5441ZM52.0372 14.1897V17.2371H54.746V14.1897H52.0372ZM53.3916 18.5915H56.4137V15.8827H53.3916V18.5915ZM55.0593 17.2371V20.2846H57.7681V17.2371H55.0593ZM56.4137 21.639H59.4358V18.9301H56.4137V21.639ZM58.0814 20.2846V23.332H60.7902V20.2846H58.0814ZM59.4358 24.6864H62.4579V21.9776H59.4358V24.6864ZM63.8123 23.332V14.1897H61.1035V23.332H63.8123ZM106.451 5.04743V8.09485H109.16V5.04743H106.451ZM106.451 8.09485V14.1897H109.16V8.09485H106.451ZM106.451 14.1897V20.2846H109.16V14.1897H106.451ZM106.451 20.2846V23.332H109.16V20.2846H106.451ZM106.451 23.332V26.3794H109.16V23.332H106.451ZM107.805 25.025H104.783V27.7338H107.805V25.025ZM103.429 26.3794V29.4268H106.138V26.3794H103.429ZM104.783 28.0724H101.761V30.7813H104.783V28.0724ZM100.407 29.4268V32.4743H103.116V29.4268H100.407ZM101.761 31.1199H98.7391V33.8287H101.761V31.1199ZM97.3847 32.4743V35.5217H100.093V32.4743H97.3847ZM98.7391 34.1673H95.717V36.8761H98.7391V34.1673ZM94.3626 35.5217V38.5691H97.0714V35.5217H94.3626ZM95.717 37.2147H86.6507V39.9235H95.717V37.2147ZM88.0051 38.5691V35.5217H85.2963V38.5691H88.0051ZM86.6507 34.1673H83.6286V36.8761H86.6507V34.1673ZM84.9831 35.5217V32.4743H82.2742V35.5217H84.9831ZM83.6286 31.1199H80.6066V33.8287H83.6286V31.1199ZM81.961 32.4743V29.4268H79.2522V32.4743H81.961ZM80.6066 28.0724H77.5845V30.7813H80.6066V28.0724ZM78.9389 29.4268V26.3794H76.2301V29.4268H78.9389ZM77.5845 25.025H74.5624V27.7338H77.5845V25.025ZM75.9168 26.3794V23.332H73.208V26.3794H75.9168ZM75.9168 23.332V20.2846H73.208V23.332H75.9168ZM75.9168 20.2846V14.1897H73.208V20.2846H75.9168ZM75.9168 14.1897V8.09485H73.208V14.1897H75.9168ZM75.9168 8.09485V5.04743H73.208V8.09485H75.9168ZM75.9168 5.04743V2H73.208V5.04743H75.9168ZM74.5624 3.35441H77.5845V0.645588H74.5624V3.35441ZM77.5845 3.35441H80.6066V0.645588H77.5845V3.35441ZM79.2522 2V5.04743H81.961V2H79.2522ZM79.2522 5.04743V8.09485H81.961V5.04743H79.2522ZM79.2522 8.09485V20.2846H81.961V8.09485H79.2522ZM79.2522 20.2846V23.332H81.961V20.2846H79.2522ZM80.6066 24.6864H83.6286V21.9776H80.6066V24.6864ZM82.2742 23.332V26.3794H84.9831V23.332H82.2742ZM83.6286 27.7338H86.6507V25.025H83.6286V27.7338ZM85.2963 26.3794V29.4268H88.0051V26.3794H85.2963ZM86.6507 30.7813H89.6728V28.0724H86.6507V30.7813ZM88.3184 29.4268V32.4743H91.0272V29.4268H88.3184ZM89.6728 33.8287H92.6949V31.1199H89.6728V33.8287ZM94.0493 32.4743V29.4268H91.3405V32.4743H94.0493ZM92.6949 30.7813H95.717V28.0724H92.6949V30.7813ZM97.0714 29.4268V26.3794H94.3626V29.4268H97.0714ZM95.717 27.7338H98.7391V25.025H95.717V27.7338ZM100.093 26.3794V23.332H97.3847V26.3794H100.093ZM98.7391 24.6864H101.761V21.9776H98.7391V24.6864ZM103.116 23.332V20.2846H100.407V23.332H103.116ZM103.116 20.2846V8.09485H100.407V20.2846H103.116ZM103.116 8.09485V5.04743H100.407V8.09485H103.116ZM103.116 5.04743V2H100.407V5.04743H103.116ZM101.761 3.35441H104.783V0.645588H101.761V3.35441ZM104.783 3.35441H107.805V0.645588H104.783V3.35441ZM106.451 2V5.04743H109.16V2H106.451ZM115.22 8.09485V5.04743H112.511V8.09485H115.22ZM115.22 5.04743V2H112.511V5.04743H115.22ZM113.866 3.35441H116.888V0.645588H113.866V3.35441ZM116.888 3.35441H119.91V0.645588H116.888V3.35441ZM119.91 3.35441H128.976V0.645588H119.91V3.35441ZM128.976 3.35441H147.109V0.645588H128.976V3.35441ZM145.754 2V8.09485H148.463V2H145.754ZM147.109 6.74044H144.087V9.44926H147.109V6.74044ZM144.087 6.74044H141.064V9.44926H144.087V6.74044ZM141.064 6.74044H135.02V9.44926H141.064V6.74044ZM135.02 6.74044H131.998V9.44926H135.02V6.74044ZM131.998 6.74044H128.976V9.44926H131.998V6.74044ZM128.976 6.74044H122.932V9.44926H128.976V6.74044ZM122.932 6.74044H119.91V9.44926H122.932V6.74044ZM118.555 8.09485V17.2371H121.264V8.09485H118.555ZM119.91 18.5915H141.064V15.8827H119.91V18.5915ZM139.71 17.2371V23.332H142.419V17.2371H139.71ZM141.064 21.9776H119.91V24.6864H141.064V21.9776ZM118.555 23.332V32.4743H121.264V23.332H118.555ZM119.91 33.8287H122.932V31.1199H119.91V33.8287ZM122.932 33.8287H128.976V31.1199H122.932V33.8287ZM128.976 33.8287H131.998V31.1199H128.976V33.8287ZM131.998 33.8287H135.02V31.1199H131.998V33.8287ZM135.02 33.8287H141.064V31.1199H135.02V33.8287ZM141.064 33.8287H144.087V31.1199H141.064V33.8287ZM144.087 33.8287H147.109V31.1199H144.087V33.8287ZM145.754 32.4743V38.5691H148.463V32.4743H145.754ZM147.109 37.2147H128.976V39.9235H147.109V37.2147ZM128.976 37.2147H119.91V39.9235H128.976V37.2147ZM119.91 37.2147H116.888V39.9235H119.91V37.2147ZM116.888 37.2147H113.866V39.9235H116.888V37.2147ZM115.22 38.5691V35.5217H112.511V38.5691H115.22ZM115.22 35.5217V32.4743H112.511V35.5217H115.22ZM115.22 32.4743V29.4268H112.511V32.4743H115.22ZM115.22 29.4268V23.332H112.511V29.4268H115.22ZM115.22 23.332V20.2846H112.511V23.332H115.22ZM115.22 20.2846V17.2371H112.511V20.2846H115.22ZM115.22 17.2371V14.1897H112.511V17.2371H115.22ZM115.22 14.1897V11.1423H112.511V14.1897H115.22ZM115.22 11.1423V8.09485H112.511V11.1423H115.22ZM181.722 14.1897V5.04743H179.013V14.1897H181.722ZM181.722 5.04743V2H179.013V5.04743H181.722ZM180.368 3.35441H186.412V0.645588H180.368V3.35441ZM185.057 2V5.04743H187.766V2H185.057ZM185.057 5.04743V8.09485H187.766V5.04743H185.057ZM185.057 8.09485V32.4743H187.766V8.09485H185.057ZM185.057 32.4743V38.5691H187.766V32.4743H185.057ZM186.412 37.2147H180.368V39.9235H186.412V37.2147ZM181.722 38.5691V32.4743H179.013V38.5691H181.722ZM180.368 31.1199H177.346V33.8287H180.368V31.1199ZM178.7 32.4743V29.4268H175.991V32.4743H178.7ZM177.346 28.0724H174.324V30.7813H177.346V28.0724ZM175.678 29.4268V26.3794H172.969V29.4268H175.678ZM174.324 25.025H171.301V27.7338H174.324V25.025ZM172.656 26.3794V23.332H169.947V26.3794H172.656ZM171.301 21.9776H168.279V24.6864H171.301V21.9776ZM169.634 23.332V20.2846H166.925V23.332H169.634ZM168.279 18.9301H165.257V21.639H168.279V18.9301ZM166.612 20.2846V17.2371H163.903V20.2846H166.612ZM165.257 15.8827H162.235V18.5915H165.257V15.8827ZM163.59 17.2371V14.1897H160.881V17.2371H163.59ZM162.235 12.8353H159.213V15.5441H162.235V12.8353ZM157.859 14.1897V23.332H160.568V14.1897H157.859ZM157.859 23.332V38.5691H160.568V23.332H157.859ZM159.213 37.2147H156.191V39.9235H159.213V37.2147ZM156.191 37.2147H153.169V39.9235H156.191V37.2147ZM154.523 38.5691V35.5217H151.815V38.5691H154.523ZM154.523 35.5217V32.4743H151.815V35.5217H154.523ZM154.523 32.4743V29.4268H151.815V32.4743H154.523ZM154.523 29.4268V23.332H151.815V29.4268H154.523ZM154.523 23.332V20.2846H151.815V23.332H154.523ZM154.523 20.2846V17.2371H151.815V20.2846H154.523ZM154.523 17.2371V14.1897H151.815V17.2371H154.523ZM154.523 14.1897V11.1423H151.815V14.1897H154.523ZM154.523 11.1423V8.09485H151.815V11.1423H154.523ZM154.523 8.09485V5.04743H151.815V8.09485H154.523ZM154.523 5.04743V2H151.815V5.04743H154.523ZM153.169 3.35441H156.191V0.645588H153.169V3.35441ZM156.191 3.35441H159.213V0.645588H156.191V3.35441ZM157.859 2V5.04743H160.568V2H157.859ZM159.213 6.40184H162.235V3.69302H159.213V6.40184ZM160.881 5.04743V8.09485H163.59V5.04743H160.881ZM162.235 9.44926H165.257V6.74044H162.235V9.44926ZM163.903 8.09485V11.1423H166.612V8.09485H163.903ZM165.257 12.4967H168.279V9.78787H165.257V12.4967ZM166.925 11.1423V14.1897H169.634V11.1423H166.925ZM168.279 15.5441H171.301V12.8353H168.279V15.5441ZM169.947 14.1897V17.2371H172.656V14.1897H169.947ZM171.301 18.5915H174.324V15.8827H171.301V18.5915ZM172.969 17.2371V20.2846H175.678V17.2371H172.969ZM174.324 21.639H177.346V18.9301H174.324V21.639ZM175.991 20.2846V23.332H178.7V20.2846H175.991ZM177.346 24.6864H180.368V21.9776H177.346V24.6864ZM181.722 23.332V14.1897H179.013V23.332H181.722ZM193.827 8.09485V5.04743H191.118V8.09485H193.827ZM193.827 5.04743V2H191.118V5.04743H193.827ZM192.472 3.35441H195.494V0.645588H192.472V3.35441ZM195.494 3.35441H198.516V0.645588H195.494V3.35441ZM198.516 3.35441H207.583V0.645588H198.516V3.35441ZM207.583 3.35441H222.693V0.645588H207.583V3.35441ZM221.339 2V8.09485H224.048V2H221.339ZM222.693 6.74044H219.671V9.44926H222.693V6.74044ZM219.671 6.74044H216.649V9.44926H219.671V6.74044ZM216.649 6.74044H210.605V9.44926H216.649V6.74044ZM209.25 8.09485V23.332H211.959V8.09485H209.25ZM209.25 23.332V38.5691H211.959V23.332H209.25ZM210.605 37.2147H204.561V39.9235H210.605V37.2147ZM205.915 38.5691V23.332H203.206V38.5691H205.915ZM205.915 23.332V8.09485H203.206V23.332H205.915ZM204.561 6.74044H201.538V9.44926H204.561V6.74044ZM201.538 6.74044H192.472V9.44926H201.538V6.74044ZM246.886 6.74044H243.864V9.44926H246.886V6.74044ZM243.864 6.74044H240.842V9.44926H243.864V6.74044ZM239.487 8.09485V11.1423H242.196V8.09485H239.487ZM240.842 9.78787H237.82V12.4967H240.842V9.78787ZM236.465 11.1423V14.1897H239.174V11.1423H236.465ZM236.465 14.1897V17.2371H239.174V14.1897H236.465ZM236.465 17.2371V23.332H239.174V17.2371H236.465ZM236.465 23.332V26.3794H239.174V23.332H236.465ZM236.465 26.3794V29.4268H239.174V26.3794H236.465ZM237.82 30.7813H240.842V28.0724H237.82V30.7813ZM239.487 29.4268V32.4743H242.196V29.4268H239.487ZM240.842 33.8287H243.864V31.1199H240.842V33.8287ZM243.864 33.8287H246.886V31.1199H243.864V33.8287ZM246.886 33.8287H249.908V31.1199H246.886V33.8287ZM249.908 33.8287H252.93V31.1199H249.908V33.8287ZM252.93 33.8287H255.952V31.1199H252.93V33.8287ZM257.307 32.4743V29.4268H254.598V32.4743H257.307ZM255.952 30.7813H258.974V28.0724H255.952V30.7813ZM260.329 29.4268V26.3794H257.62V29.4268H260.329ZM260.329 26.3794V23.332H257.62V26.3794H260.329ZM260.329 23.332V14.1897H257.62V23.332H260.329ZM260.329 14.1897V11.1423H257.62V14.1897H260.329ZM258.974 9.78787H255.952V12.4967H258.974V9.78787ZM257.307 11.1423V8.09485H254.598V11.1423H257.307ZM255.952 6.74044H252.93V9.44926H255.952V6.74044ZM252.93 6.74044H249.908V9.44926H252.93V6.74044ZM249.908 6.74044H246.886V9.44926H249.908V6.74044ZM263.664 23.332V32.4743H266.373V23.332H263.664ZM265.018 31.1199H261.996V33.8287H265.018V31.1199ZM260.642 32.4743V35.5217H263.351V32.4743H260.642ZM261.996 34.1673H258.974V36.8761H261.996V34.1673ZM257.62 35.5217V38.5691H260.329V35.5217H257.62ZM258.974 37.2147H249.908V39.9235H258.974V37.2147ZM249.908 37.2147H246.886V39.9235H249.908V37.2147ZM246.886 37.2147H237.82V39.9235H246.886V37.2147ZM239.174 38.5691V35.5217H236.465V38.5691H239.174ZM237.82 34.1673H234.798V36.8761H237.82V34.1673ZM236.152 35.5217V32.4743H233.443V35.5217H236.152ZM234.798 31.1199H231.776V33.8287H234.798V31.1199ZM233.13 32.4743V26.3794H230.421V32.4743H233.13ZM233.13 26.3794V23.332H230.421V26.3794H233.13ZM233.13 23.332V20.2846H230.421V23.332H233.13ZM233.13 20.2846V17.2371H230.421V20.2846H233.13ZM233.13 17.2371V8.09485H230.421V17.2371H233.13ZM231.776 9.44926H234.798V6.74044H231.776V9.44926ZM236.152 8.09485V5.04743H233.443V8.09485H236.152ZM234.798 6.40184H237.82V3.69302H234.798V6.40184ZM239.174 5.04743V2H236.465V5.04743H239.174ZM237.82 3.35441H243.864V0.645588H237.82V3.35441ZM243.864 3.35441H246.886V0.645588H243.864V3.35441ZM246.886 3.35441H249.908V0.645588H246.886V3.35441ZM249.908 3.35441H258.974V0.645588H249.908V3.35441ZM257.62 2V5.04743H260.329V2H257.62ZM258.974 6.40184H261.996V3.69302H258.974V6.40184ZM260.642 5.04743V8.09485H263.351V5.04743H260.642ZM261.996 9.44926H265.018V6.74044H261.996V9.44926ZM263.664 8.09485V14.1897H266.373V8.09485H263.664ZM263.664 14.1897V23.332H266.373V14.1897H263.664ZM272.433 8.09485V5.04743H269.724V8.09485H272.433ZM272.433 5.04743V2H269.724V5.04743H272.433ZM271.079 3.35441H274.101V0.645588H271.079V3.35441ZM274.101 3.35441H277.123V0.645588H274.101V3.35441ZM277.123 3.35441H286.189V0.645588H277.123V3.35441ZM286.189 3.35441H298.278V0.645588H286.189V3.35441ZM296.923 2V5.04743H299.632V2H296.923ZM298.278 6.40184H301.3V3.69302H298.278V6.40184ZM299.945 5.04743V8.09485H302.654V5.04743H299.945ZM301.3 9.44926H304.322V6.74044H301.3V9.44926ZM302.967 8.09485V14.1897H305.676V8.09485H302.967ZM302.967 14.1897V17.2371H305.676V14.1897H302.967ZM302.967 17.2371V20.2846H305.676V17.2371H302.967ZM304.322 18.9301H301.3V21.639H304.322V18.9301ZM299.945 20.2846V23.332H302.654V20.2846H299.945ZM301.3 21.9776H298.278V24.6864H301.3V21.9776ZM296.923 23.332V26.3794H299.632V23.332H296.923ZM296.923 26.3794V29.4268H299.632V26.3794H296.923ZM298.278 30.7813H301.3V28.0724H298.278V30.7813ZM299.945 29.4268V32.4743H302.654V29.4268H299.945ZM301.3 33.8287H304.322V31.1199H301.3V33.8287ZM302.967 32.4743V35.5217H305.676V32.4743H302.967ZM302.967 35.5217V38.5691H305.676V35.5217H302.967ZM304.322 37.2147H298.278V39.9235H304.322V37.2147ZM299.632 38.5691V35.5217H296.923V38.5691H299.632ZM298.278 34.1673H295.255V36.8761H298.278V34.1673ZM296.61 35.5217V32.4743H293.901V35.5217H296.61ZM295.255 31.1199H292.233V33.8287H295.255V31.1199ZM293.588 32.4743V29.4268H290.879V32.4743H293.588ZM292.233 28.0724H289.211V30.7813H292.233V28.0724ZM290.566 29.4268V26.3794H287.857V29.4268H290.566ZM289.211 25.025H286.189V27.7338H289.211V25.025ZM286.189 25.025H277.123V27.7338H286.189V25.025ZM275.769 26.3794V38.5691H278.477V26.3794H275.769ZM277.123 37.2147H271.079V39.9235H277.123V37.2147ZM272.433 38.5691V26.3794H269.724V38.5691H272.433ZM272.433 26.3794V23.332H269.724V26.3794H272.433ZM272.433 23.332V20.2846H269.724V23.332H272.433ZM272.433 20.2846V17.2371H269.724V20.2846H272.433ZM272.433 17.2371V14.1897H269.724V17.2371H272.433ZM272.433 14.1897V11.1423H269.724V14.1897H272.433ZM272.433 11.1423V8.09485H269.724V11.1423H272.433ZM286.189 6.74044H280.145V9.44926H286.189V6.74044ZM280.145 6.74044H277.123V9.44926H280.145V6.74044ZM275.769 8.09485V17.2371H278.477V8.09485H275.769ZM275.769 17.2371V20.2846H278.477V17.2371H275.769ZM277.123 21.639H280.145V18.9301H277.123V21.639ZM280.145 21.639H283.167V18.9301H280.145V21.639ZM283.167 21.639H286.189V18.9301H283.167V21.639ZM286.189 21.639H289.211V18.9301H286.189V21.639ZM289.211 21.639H292.233V18.9301H289.211V21.639ZM292.233 21.639H295.255V18.9301H292.233V21.639ZM296.61 20.2846V17.2371H293.901V20.2846H296.61ZM295.255 18.5915H298.278V15.8827H295.255V18.5915ZM299.632 17.2371V14.1897H296.923V17.2371H299.632ZM299.632 14.1897V11.1423H296.923V14.1897H299.632ZM298.278 9.78787H295.255V12.4967H298.278V9.78787ZM296.61 11.1423V8.09485H293.901V11.1423H296.61ZM295.255 6.74044H292.233V9.44926H295.255V6.74044ZM292.233 6.74044H289.211V9.44926H292.233V6.74044ZM289.211 6.74044H286.189V9.44926H289.211V6.74044ZM339.249 5.04743V8.09485H341.957V5.04743H339.249ZM339.249 8.09485V11.1423H341.957V8.09485H339.249ZM339.249 11.1423V14.1897H341.957V11.1423H339.249ZM340.603 12.8353H337.581V15.5441H340.603V12.8353ZM336.226 14.1897V17.2371H338.935V14.1897H336.226ZM337.581 15.8827H334.559V18.5915H337.581V15.8827ZM333.204 17.2371V20.2846H335.913V17.2371H333.204ZM334.559 18.9301H331.537V21.639H334.559V18.9301ZM330.182 20.2846V23.332H332.891V20.2846H330.182ZM331.537 21.9776H328.515V24.6864H331.537V21.9776ZM327.16 23.332V26.3794H329.869V23.332H327.16ZM327.16 26.3794V38.5691H329.869V26.3794H327.16ZM328.515 37.2147H322.47V39.9235H328.515V37.2147ZM323.825 38.5691V26.3794H321.116V38.5691H323.825ZM323.825 26.3794V23.332H321.116V26.3794H323.825ZM322.47 21.9776H319.448V24.6864H322.47V21.9776ZM320.803 23.332V20.2846H318.094V23.332H320.803ZM319.448 18.9301H316.426V21.639H319.448V18.9301ZM317.781 20.2846V17.2371H315.072V20.2846H317.781ZM316.426 15.8827H313.404V18.5915H316.426V15.8827ZM314.759 17.2371V14.1897H312.05V17.2371H314.759ZM313.404 12.8353H310.382V15.5441H313.404V12.8353ZM311.736 14.1897V11.1423H309.028V14.1897H311.736ZM311.736 11.1423V8.09485H309.028V11.1423H311.736ZM311.736 8.09485V5.04743H309.028V8.09485H311.736ZM311.736 5.04743V2H309.028V5.04743H311.736ZM310.382 3.35441H313.404V0.645588H310.382V3.35441ZM313.404 3.35441H316.426V0.645588H313.404V3.35441ZM315.072 2V5.04743H317.781V2H315.072ZM315.072 5.04743V8.09485H317.781V5.04743H315.072ZM315.072 8.09485V11.1423H317.781V8.09485H315.072ZM316.426 12.4967H319.448V9.78787H316.426V12.4967ZM318.094 11.1423V14.1897H320.803V11.1423H318.094ZM319.448 15.5441H322.47V12.8353H319.448V15.5441ZM321.116 14.1897V17.2371H323.825V14.1897H321.116ZM322.47 18.5915H325.492V15.8827H322.47V18.5915ZM325.492 18.5915H328.515V15.8827H325.492V18.5915ZM329.869 17.2371V14.1897H327.16V17.2371H329.869ZM328.515 15.5441H331.537V12.8353H328.515V15.5441ZM332.891 14.1897V11.1423H330.182V14.1897H332.891ZM331.537 12.4967H334.559V9.78787H331.537V12.4967ZM335.913 11.1423V8.09485H333.204V11.1423H335.913ZM335.913 8.09485V5.04743H333.204V8.09485H335.913ZM335.913 5.04743V2H333.204V5.04743H335.913ZM334.559 3.35441H337.581V0.645588H334.559V3.35441ZM337.581 3.35441H340.603V0.645588H337.581V3.35441ZM339.249 2V5.04743H341.957V2H339.249Z" fill="url(#paint9_linear_3058_817)" mask="url(#path-1-outside-1_3058_817)"/>
<defs>
<linearGradient id="paint0_linear_3058_817" x1="171.301" y1="2" x2="171.301" y2="38.5691" gradientUnits="userSpaceOnUse">
<stop stop-color="#FF7C06"/>
<stop offset="1" stop-color="#E45C00"/>
</linearGradient>
<linearGradient id="paint1_linear_3058_817" x1="171.301" y1="2" x2="171.301" y2="38.5691" gradientUnits="userSpaceOnUse">
<stop stop-color="#FF7C06"/>
<stop offset="1" stop-color="#E45C00"/>
</linearGradient>
<linearGradient id="paint2_linear_3058_817" x1="171.301" y1="2" x2="171.301" y2="38.5691" gradientUnits="userSpaceOnUse">
<stop stop-color="#FF7C06"/>
<stop offset="1" stop-color="#E45C00"/>
</linearGradient>
<linearGradient id="paint3_linear_3058_817" x1="171.301" y1="2" x2="171.301" y2="38.5691" gradientUnits="userSpaceOnUse">
<stop stop-color="#FF7C06"/>
<stop offset="1" stop-color="#E45C00"/>
</linearGradient>
<linearGradient id="paint4_linear_3058_817" x1="171.301" y1="2" x2="171.301" y2="38.5691" gradientUnits="userSpaceOnUse">
<stop stop-color="#FF7C06"/>
<stop offset="1" stop-color="#E45C00"/>
</linearGradient>
<linearGradient id="paint5_linear_3058_817" x1="171.301" y1="2" x2="171.301" y2="38.5691" gradientUnits="userSpaceOnUse">
<stop stop-color="#FF7C06"/>
<stop offset="1" stop-color="#E45C00"/>
</linearGradient>
<linearGradient id="paint6_linear_3058_817" x1="171.301" y1="2" x2="171.301" y2="38.5691" gradientUnits="userSpaceOnUse">
<stop stop-color="#FF7C06"/>
<stop offset="1" stop-color="#E45C00"/>
</linearGradient>
<linearGradient id="paint7_linear_3058_817" x1="171.301" y1="2" x2="171.301" y2="38.5691" gradientUnits="userSpaceOnUse">
<stop stop-color="#FF7C06"/>
<stop offset="1" stop-color="#E45C00"/>
</linearGradient>
<linearGradient id="paint8_linear_3058_817" x1="171.301" y1="2" x2="171.301" y2="38.5691" gradientUnits="userSpaceOnUse">
<stop stop-color="#FF7C06"/>
<stop offset="1" stop-color="#E45C00"/>
</linearGradient>
<linearGradient id="paint9_linear_3058_817" x1="171.301" y1="2" x2="171.301" y2="38.5691" gradientUnits="userSpaceOnUse">
<stop stop-color="#FF7C06"/>
<stop offset="1" stop-color="#E45C00"/>
</linearGradient>
</defs>
</svg>
