<svg width="258" height="30" viewBox="0 0 258 30" fill="none" xmlns="http://www.w3.org/2000/svg">
<mask id="path-1-outside-1_3591_1360" maskUnits="userSpaceOnUse" x="-0.679688" y="-0.107422" width="258" height="30" fill="black">
<rect fill="white" x="-0.679688" y="-0.107422" width="258" height="30"/>
<path d="M14.9559 23.5447V27.8751H12.6833H10.4107H5.86552H3.59291H1.32031V23.5447H3.59291H5.86552V10.5534V6.22299H3.59291H1.32031V1.89258H3.59291H5.86552H8.13812H10.4107H12.6833H14.9559V6.22299H12.6833H10.4107V23.5447H12.6833H14.9559Z"/>
<path d="M46.7845 10.5534V4.05779V1.89258H51.3297V4.05779V6.22299V23.5447V27.8751H46.7845V23.5447H44.5119V21.3794H42.2393V19.2142H39.9667V17.049H37.6941V14.8838H35.4215V12.7186H33.1489V10.5534H30.8763V17.049V27.8751H28.6037H26.3311V25.7099V23.5447V21.3794V17.049V14.8838V12.7186V10.5534V8.3882V6.22299V4.05779V1.89258H28.6037H30.8763V4.05779H33.1489V6.22299H35.4215V8.3882H37.6941V10.5534H39.9667V12.7186H42.2393V14.8838H44.5119V17.049H46.7845V10.5534Z"/>
<path d="M80.8856 4.05779V6.22299V10.5534V14.8838V17.049V19.2142H78.613V21.3794H76.3404V23.5447H74.0678V25.7099H71.7952V27.8751H64.9774V25.7099H62.7048V23.5447H60.4322V21.3794H58.1596V19.2142H55.887V17.049V14.8838V10.5534V6.22299V4.05779V1.89258H58.1596H60.4322V4.05779V6.22299V14.8838V17.049H62.7048V19.2142H64.9774V21.3794H67.25V23.5447H69.5226V21.3794H71.7952V19.2142H74.0678V17.049H76.3404V14.8838V6.22299V4.05779V1.89258H78.613H80.8856V4.05779Z"/>
<path d="M85.443 6.22299V4.05779V1.89258H87.7156H89.9882H96.806H110.442V6.22299H108.169H105.896H101.351H99.0786H96.806H92.2608H89.9882V12.7186H105.896V17.049H89.9882V23.5447H92.2608H96.806H99.0786H101.351H105.896H108.169H110.442V27.8751H96.806H89.9882H87.7156H85.443V25.7099V23.5447V21.3794V17.049V14.8838V12.7186V10.5534V8.3882V6.22299Z"/>
<path d="M135.452 10.5534V4.05779V1.89258H139.998V4.05779V6.22299V23.5447V27.8751H135.452V23.5447H133.18V21.3794H130.907V19.2142H128.635V17.049H126.362V14.8838H124.089V12.7186H121.817V10.5534H119.544V17.049V27.8751H117.272H114.999V25.7099V23.5447V21.3794V17.049V14.8838V12.7186V10.5534V8.3882V6.22299V4.05779V1.89258H117.272H119.544V4.05779H121.817V6.22299H124.089V8.3882H126.362V10.5534H128.635V12.7186H130.907V14.8838H133.18V17.049H135.452V10.5534Z"/>
<path d="M144.555 6.22299V4.05779V1.89258H146.827H149.1H155.918H167.281V6.22299H165.008H162.736H158.19V17.049V27.8751H153.645V17.049V6.22299H151.373H144.555Z"/>
<path d="M185.474 6.22299H183.201H180.929V8.3882H178.656V10.5534V12.7186V17.049V19.2142V21.3794H180.929V23.5447H183.201H185.474H187.746H190.019H192.292V21.3794H194.564V19.2142V17.049V10.5534V8.3882H192.292V6.22299H190.019H187.746H185.474ZM199.109 17.049V23.5447H196.837V25.7099H194.564V27.8751H187.746H185.474H178.656V25.7099H176.383V23.5447H174.111V19.2142V17.049V14.8838V12.7186V6.22299H176.383V4.05779H178.656V1.89258H183.201H185.474H187.746H194.564V4.05779H196.837V6.22299H199.109V10.5534V17.049Z"/>
<path d="M203.667 6.22299V4.05779V1.89258H205.939H208.212H215.03H224.12V4.05779H226.393V6.22299H228.665V10.5534V12.7186V14.8838H226.393V17.049H224.12V19.2142V21.3794H226.393V23.5447H228.665V25.7099V27.8751H224.12V25.7099H221.848V23.5447H219.575V21.3794H217.302V19.2142H215.03H208.212V27.8751H203.667V19.2142V17.049V14.8838V12.7186V10.5534V8.3882V6.22299ZM215.03 6.22299H210.485H208.212V12.7186V14.8838H210.485H212.757H215.03H217.302H219.575H221.848V12.7186H224.12V10.5534V8.3882H221.848V6.22299H219.575H217.302H215.03Z"/>
<path d="M255.949 4.05779V6.22299V8.3882V10.5534H253.676V12.7186H251.404V14.8838H249.131V17.049H246.858V19.2142V27.8751H242.313V19.2142V17.049H240.041V14.8838H237.768V12.7186H235.495V10.5534H233.223V8.3882V6.22299V4.05779V1.89258H235.495H237.768V4.05779V6.22299V8.3882H240.041V10.5534H242.313V12.7186H244.586H246.858V10.5534H249.131V8.3882H251.404V6.22299V4.05779V1.89258H253.676H255.949V4.05779Z"/>
</mask>
<path d="M14.9559 23.5447V27.8751H12.6833H10.4107H5.86552H3.59291H1.32031V23.5447H3.59291H5.86552V10.5534V6.22299H3.59291H1.32031V1.89258H3.59291H5.86552H8.13812H10.4107H12.6833H14.9559V6.22299H12.6833H10.4107V23.5447H12.6833H14.9559Z" fill="url(#paint0_linear_3591_1360)"/>
<path d="M46.7845 10.5534V4.05779V1.89258H51.3297V4.05779V6.22299V23.5447V27.8751H46.7845V23.5447H44.5119V21.3794H42.2393V19.2142H39.9667V17.049H37.6941V14.8838H35.4215V12.7186H33.1489V10.5534H30.8763V17.049V27.8751H28.6037H26.3311V25.7099V23.5447V21.3794V17.049V14.8838V12.7186V10.5534V8.3882V6.22299V4.05779V1.89258H28.6037H30.8763V4.05779H33.1489V6.22299H35.4215V8.3882H37.6941V10.5534H39.9667V12.7186H42.2393V14.8838H44.5119V17.049H46.7845V10.5534Z" fill="url(#paint1_linear_3591_1360)"/>
<path d="M80.8856 4.05779V6.22299V10.5534V14.8838V17.049V19.2142H78.613V21.3794H76.3404V23.5447H74.0678V25.7099H71.7952V27.8751H64.9774V25.7099H62.7048V23.5447H60.4322V21.3794H58.1596V19.2142H55.887V17.049V14.8838V10.5534V6.22299V4.05779V1.89258H58.1596H60.4322V4.05779V6.22299V14.8838V17.049H62.7048V19.2142H64.9774V21.3794H67.25V23.5447H69.5226V21.3794H71.7952V19.2142H74.0678V17.049H76.3404V14.8838V6.22299V4.05779V1.89258H78.613H80.8856V4.05779Z" fill="url(#paint2_linear_3591_1360)"/>
<path d="M85.443 6.22299V4.05779V1.89258H87.7156H89.9882H96.806H110.442V6.22299H108.169H105.896H101.351H99.0786H96.806H92.2608H89.9882V12.7186H105.896V17.049H89.9882V23.5447H92.2608H96.806H99.0786H101.351H105.896H108.169H110.442V27.8751H96.806H89.9882H87.7156H85.443V25.7099V23.5447V21.3794V17.049V14.8838V12.7186V10.5534V8.3882V6.22299Z" fill="url(#paint3_linear_3591_1360)"/>
<path d="M135.452 10.5534V4.05779V1.89258H139.998V4.05779V6.22299V23.5447V27.8751H135.452V23.5447H133.18V21.3794H130.907V19.2142H128.635V17.049H126.362V14.8838H124.089V12.7186H121.817V10.5534H119.544V17.049V27.8751H117.272H114.999V25.7099V23.5447V21.3794V17.049V14.8838V12.7186V10.5534V8.3882V6.22299V4.05779V1.89258H117.272H119.544V4.05779H121.817V6.22299H124.089V8.3882H126.362V10.5534H128.635V12.7186H130.907V14.8838H133.18V17.049H135.452V10.5534Z" fill="url(#paint4_linear_3591_1360)"/>
<path d="M144.555 6.22299V4.05779V1.89258H146.827H149.1H155.918H167.281V6.22299H165.008H162.736H158.19V17.049V27.8751H153.645V17.049V6.22299H151.373H144.555Z" fill="url(#paint5_linear_3591_1360)"/>
<path d="M185.474 6.22299H183.201H180.929V8.3882H178.656V10.5534V12.7186V17.049V19.2142V21.3794H180.929V23.5447H183.201H185.474H187.746H190.019H192.292V21.3794H194.564V19.2142V17.049V10.5534V8.3882H192.292V6.22299H190.019H187.746H185.474ZM199.109 17.049V23.5447H196.837V25.7099H194.564V27.8751H187.746H185.474H178.656V25.7099H176.383V23.5447H174.111V19.2142V17.049V14.8838V12.7186V6.22299H176.383V4.05779H178.656V1.89258H183.201H185.474H187.746H194.564V4.05779H196.837V6.22299H199.109V10.5534V17.049Z" fill="url(#paint6_linear_3591_1360)"/>
<path d="M203.667 6.22299V4.05779V1.89258H205.939H208.212H215.03H224.12V4.05779H226.393V6.22299H228.665V10.5534V12.7186V14.8838H226.393V17.049H224.12V19.2142V21.3794H226.393V23.5447H228.665V25.7099V27.8751H224.12V25.7099H221.848V23.5447H219.575V21.3794H217.302V19.2142H215.03H208.212V27.8751H203.667V19.2142V17.049V14.8838V12.7186V10.5534V8.3882V6.22299ZM215.03 6.22299H210.485H208.212V12.7186V14.8838H210.485H212.757H215.03H217.302H219.575H221.848V12.7186H224.12V10.5534V8.3882H221.848V6.22299H219.575H217.302H215.03Z" fill="url(#paint7_linear_3591_1360)"/>
<path d="M255.949 4.05779V6.22299V8.3882V10.5534H253.676V12.7186H251.404V14.8838H249.131V17.049H246.858V19.2142V27.8751H242.313V19.2142V17.049H240.041V14.8838H237.768V12.7186H235.495V10.5534H233.223V8.3882V6.22299V4.05779V1.89258H235.495H237.768V4.05779V6.22299V8.3882H240.041V10.5534H242.313V12.7186H244.586H246.858V10.5534H249.131V8.3882H251.404V6.22299V4.05779V1.89258H253.676H255.949V4.05779Z" fill="url(#paint8_linear_3591_1360)"/>
<path d="M14.9559 23.5447H16.2551V22.2455H14.9559V23.5447ZM14.9559 27.8751V29.1742H16.2551V27.8751H14.9559ZM1.32031 27.8751H0.021188V29.1742H1.32031V27.8751ZM1.32031 23.5447V22.2455H0.021188V23.5447H1.32031ZM5.86552 23.5447V24.8438H7.16464V23.5447H5.86552ZM5.86552 6.22299H7.16464V4.92387H5.86552V6.22299ZM1.32031 6.22299H0.021188V7.52212H1.32031V6.22299ZM1.32031 1.89258V0.593454H0.021188V1.89258H1.32031ZM14.9559 1.89258H16.2551V0.593454H14.9559V1.89258ZM14.9559 6.22299V7.52212H16.2551V6.22299H14.9559ZM10.4107 6.22299V4.92387H9.1116V6.22299H10.4107ZM10.4107 23.5447H9.1116V24.8438H10.4107V23.5447ZM46.7845 1.89258V0.593454H45.4854V1.89258H46.7845ZM51.3297 1.89258H52.6288V0.593454H51.3297V1.89258ZM51.3297 27.8751V29.1742H52.6288V27.8751H51.3297ZM46.7845 27.8751H45.4854V29.1742H46.7845V27.8751ZM46.7845 23.5447H48.0836V22.2455H46.7845V23.5447ZM44.5119 23.5447H43.2128V24.8438H44.5119V23.5447ZM44.5119 21.3794H45.811V20.0803H44.5119V21.3794ZM42.2393 21.3794H40.9401V22.6786H42.2393V21.3794ZM42.2393 19.2142H43.5384V17.9151H42.2393V19.2142ZM39.9667 19.2142H38.6675V20.5134H39.9667V19.2142ZM39.9667 17.049H41.2658V15.7499H39.9667V17.049ZM37.6941 17.049H36.3949V18.3482H37.6941V17.049ZM37.6941 14.8838H38.9932V13.5847H37.6941V14.8838ZM35.4215 14.8838H34.1223V16.1829H35.4215V14.8838ZM35.4215 12.7186H36.7206V11.4195H35.4215V12.7186ZM33.1489 12.7186H31.8497V14.0177H33.1489V12.7186ZM33.1489 10.5534H34.448V9.25429H33.1489V10.5534ZM30.8763 10.5534V9.25429H29.5771V10.5534H30.8763ZM30.8763 27.8751V29.1742H32.1754V27.8751H30.8763ZM26.3311 27.8751H25.0319V29.1742H26.3311V27.8751ZM26.3311 1.89258V0.593454H25.0319V1.89258H26.3311ZM30.8763 1.89258H32.1754V0.593454H30.8763V1.89258ZM30.8763 4.05779H29.5771V5.35691H30.8763V4.05779ZM33.1489 4.05779H34.448V2.75866H33.1489V4.05779ZM33.1489 6.22299H31.8497V7.52212H33.1489V6.22299ZM35.4215 6.22299H36.7206V4.92387H35.4215V6.22299ZM35.4215 8.3882H34.1223V9.68733H35.4215V8.3882ZM37.6941 8.3882H38.9932V7.08908H37.6941V8.3882ZM37.6941 10.5534H36.3949V11.8525H37.6941V10.5534ZM39.9667 10.5534H41.2658V9.25429H39.9667V10.5534ZM39.9667 12.7186H38.6675V14.0177H39.9667V12.7186ZM42.2393 12.7186H43.5384V11.4195H42.2393V12.7186ZM42.2393 14.8838H40.9401V16.1829H42.2393V14.8838ZM44.5119 14.8838H45.811V13.5847H44.5119V14.8838ZM44.5119 17.049H43.2128V18.3482H44.5119V17.049ZM46.7845 17.049V18.3482H48.0836V17.049H46.7845ZM80.8856 19.2142V20.5134H82.1848V19.2142H80.8856ZM78.613 19.2142V17.9151H77.3139V19.2142H78.613ZM78.613 21.3794V22.6786H79.9122V21.3794H78.613ZM76.3404 21.3794V20.0803H75.0413V21.3794H76.3404ZM76.3404 23.5447V24.8438H77.6396V23.5447H76.3404ZM74.0678 23.5447V22.2455H72.7687V23.5447H74.0678ZM74.0678 25.7099V27.009H75.3669V25.7099H74.0678ZM71.7952 25.7099V24.4107H70.4961V25.7099H71.7952ZM71.7952 27.8751V29.1742H73.0944V27.8751H71.7952ZM64.9774 27.8751H63.6783V29.1742H64.9774V27.8751ZM64.9774 25.7099H66.2765V24.4107H64.9774V25.7099ZM62.7048 25.7099H61.4057V27.009H62.7048V25.7099ZM62.7048 23.5447H64.0039V22.2455H62.7048V23.5447ZM60.4322 23.5447H59.1331V24.8438H60.4322V23.5447ZM60.4322 21.3794H61.7313V20.0803H60.4322V21.3794ZM58.1596 21.3794H56.8605V22.6786H58.1596V21.3794ZM58.1596 19.2142H59.4587V17.9151H58.1596V19.2142ZM55.887 19.2142H54.5879V20.5134H55.887V19.2142ZM55.887 1.89258V0.593454H54.5879V1.89258H55.887ZM60.4322 1.89258H61.7313V0.593454H60.4322V1.89258ZM60.4322 17.049H59.1331V18.3482H60.4322V17.049ZM62.7048 17.049H64.0039V15.7499H62.7048V17.049ZM62.7048 19.2142H61.4057V20.5134H62.7048V19.2142ZM64.9774 19.2142H66.2765V17.9151H64.9774V19.2142ZM64.9774 21.3794H63.6783V22.6786H64.9774V21.3794ZM67.25 21.3794H68.5491V20.0803H67.25V21.3794ZM67.25 23.5447H65.9509V24.8438H67.25V23.5447ZM69.5226 23.5447V24.8438H70.8217V23.5447H69.5226ZM69.5226 21.3794V20.0803H68.2235V21.3794H69.5226ZM71.7952 21.3794V22.6786H73.0944V21.3794H71.7952ZM71.7952 19.2142V17.9151H70.4961V19.2142H71.7952ZM74.0678 19.2142V20.5134H75.3669V19.2142H74.0678ZM74.0678 17.049V15.7499H72.7687V17.049H74.0678ZM76.3404 17.049V18.3482H77.6396V17.049H76.3404ZM76.3404 1.89258V0.593454H75.0413V1.89258H76.3404ZM80.8856 1.89258H82.1848V0.593454H80.8856V1.89258ZM85.443 1.89258V0.593454H84.1438V1.89258H85.443ZM110.442 1.89258H111.741V0.593454H110.442V1.89258ZM110.442 6.22299V7.52212H111.741V6.22299H110.442ZM89.9882 6.22299V4.92387H88.689V6.22299H89.9882ZM89.9882 12.7186H88.689V14.0177H89.9882V12.7186ZM105.896 12.7186H107.196V11.4195H105.896V12.7186ZM105.896 17.049V18.3482H107.196V17.049H105.896ZM89.9882 17.049V15.7499H88.689V17.049H89.9882ZM89.9882 23.5447H88.689V24.8438H89.9882V23.5447ZM110.442 23.5447H111.741V22.2455H110.442V23.5447ZM110.442 27.8751V29.1742H111.741V27.8751H110.442ZM85.443 27.8751H84.1438V29.1742H85.443V27.8751ZM135.452 1.89258V0.593454H134.153V1.89258H135.452ZM139.998 1.89258H141.297V0.593454H139.998V1.89258ZM139.998 27.8751V29.1742H141.297V27.8751H139.998ZM135.452 27.8751H134.153V29.1742H135.452V27.8751ZM135.452 23.5447H136.751V22.2455H135.452V23.5447ZM133.18 23.5447H131.881V24.8438H133.18V23.5447ZM133.18 21.3794H134.479V20.0803H133.18V21.3794ZM130.907 21.3794H129.608V22.6786H130.907V21.3794ZM130.907 19.2142H132.206V17.9151H130.907V19.2142ZM128.635 19.2142H127.335V20.5134H128.635V19.2142ZM128.635 17.049H129.934V15.7499H128.635V17.049ZM126.362 17.049H125.063V18.3482H126.362V17.049ZM126.362 14.8838H127.661V13.5847H126.362V14.8838ZM124.089 14.8838H122.79V16.1829H124.089V14.8838ZM124.089 12.7186H125.388V11.4195H124.089V12.7186ZM121.817 12.7186H120.518V14.0177H121.817V12.7186ZM121.817 10.5534H123.116V9.25429H121.817V10.5534ZM119.544 10.5534V9.25429H118.245V10.5534H119.544ZM119.544 27.8751V29.1742H120.843V27.8751H119.544ZM114.999 27.8751H113.7V29.1742H114.999V27.8751ZM114.999 1.89258V0.593454H113.7V1.89258H114.999ZM119.544 1.89258H120.843V0.593454H119.544V1.89258ZM119.544 4.05779H118.245V5.35691H119.544V4.05779ZM121.817 4.05779H123.116V2.75866H121.817V4.05779ZM121.817 6.22299H120.518V7.52212H121.817V6.22299ZM124.089 6.22299H125.388V4.92387H124.089V6.22299ZM124.089 8.3882H122.79V9.68733H124.089V8.3882ZM126.362 8.3882H127.661V7.08908H126.362V8.3882ZM126.362 10.5534H125.063V11.8525H126.362V10.5534ZM128.635 10.5534H129.934V9.25429H128.635V10.5534ZM128.635 12.7186H127.335V14.0177H128.635V12.7186ZM130.907 12.7186H132.206V11.4195H130.907V12.7186ZM130.907 14.8838H129.608V16.1829H130.907V14.8838ZM133.18 14.8838H134.479V13.5847H133.18V14.8838ZM133.18 17.049H131.881V18.3482H133.18V17.049ZM135.452 17.049V18.3482H136.751V17.049H135.452ZM144.555 6.22299H143.256V7.52212H144.555V6.22299ZM144.555 1.89258V0.593454H143.256V1.89258H144.555ZM167.281 1.89258H168.58V0.593454H167.281V1.89258ZM167.281 6.22299V7.52212H168.58V6.22299H167.281ZM158.19 6.22299V4.92387H156.891V6.22299H158.19ZM158.19 27.8751V29.1742H159.49V27.8751H158.19ZM153.645 27.8751H152.346V29.1742H153.645V27.8751ZM153.645 6.22299H154.944V4.92387H153.645V6.22299ZM180.929 6.22299V4.92387H179.629V6.22299H180.929ZM180.929 8.3882V9.68733H182.228V8.3882H180.929ZM178.656 8.3882V7.08908H177.357V8.3882H178.656ZM178.656 21.3794H177.357V22.6786H178.656V21.3794ZM180.929 21.3794H182.228V20.0803H180.929V21.3794ZM180.929 23.5447H179.629V24.8438H180.929V23.5447ZM192.292 23.5447V24.8438H193.591V23.5447H192.292ZM192.292 21.3794V20.0803H190.993V21.3794H192.292ZM194.564 21.3794V22.6786H195.863V21.3794H194.564ZM194.564 8.3882H195.863V7.08908H194.564V8.3882ZM192.292 8.3882H190.993V9.68733H192.292V8.3882ZM192.292 6.22299H193.591V4.92387H192.292V6.22299ZM199.109 23.5447V24.8438H200.409V23.5447H199.109ZM196.837 23.5447V22.2455H195.538V23.5447H196.837ZM196.837 25.7099V27.009H198.136V25.7099H196.837ZM194.564 25.7099V24.4107H193.265V25.7099H194.564ZM194.564 27.8751V29.1742H195.863V27.8751H194.564ZM178.656 27.8751H177.357V29.1742H178.656V27.8751ZM178.656 25.7099H179.955V24.4107H178.656V25.7099ZM176.383 25.7099H175.084V27.009H176.383V25.7099ZM176.383 23.5447H177.683V22.2455H176.383V23.5447ZM174.111 23.5447H172.812V24.8438H174.111V23.5447ZM174.111 6.22299V4.92387H172.812V6.22299H174.111ZM176.383 6.22299V7.52212H177.683V6.22299H176.383ZM176.383 4.05779V2.75866H175.084V4.05779H176.383ZM178.656 4.05779V5.35691H179.955V4.05779H178.656ZM178.656 1.89258V0.593454H177.357V1.89258H178.656ZM194.564 1.89258H195.863V0.593454H194.564V1.89258ZM194.564 4.05779H193.265V5.35691H194.564V4.05779ZM196.837 4.05779H198.136V2.75866H196.837V4.05779ZM196.837 6.22299H195.538V7.52212H196.837V6.22299ZM199.109 6.22299H200.409V4.92387H199.109V6.22299ZM203.667 1.89258V0.593454H202.368V1.89258H203.667ZM224.12 1.89258H225.419V0.593454H224.12V1.89258ZM224.12 4.05779H222.821V5.35691H224.12V4.05779ZM226.393 4.05779H227.692V2.75866H226.393V4.05779ZM226.393 6.22299H225.094V7.52212H226.393V6.22299ZM228.665 6.22299H229.965V4.92387H228.665V6.22299ZM228.665 14.8838V16.1829H229.965V14.8838H228.665ZM226.393 14.8838V13.5847H225.094V14.8838H226.393ZM226.393 17.049V18.3482H227.692V17.049H226.393ZM224.12 17.049V15.7499H222.821V17.049H224.12ZM224.12 21.3794H222.821V22.6786H224.12V21.3794ZM226.393 21.3794H227.692V20.0803H226.393V21.3794ZM226.393 23.5447H225.094V24.8438H226.393V23.5447ZM228.665 23.5447H229.965V22.2455H228.665V23.5447ZM228.665 27.8751V29.1742H229.965V27.8751H228.665ZM224.12 27.8751H222.821V29.1742H224.12V27.8751ZM224.12 25.7099H225.419V24.4107H224.12V25.7099ZM221.848 25.7099H220.548V27.009H221.848V25.7099ZM221.848 23.5447H223.147V22.2455H221.848V23.5447ZM219.575 23.5447H218.276V24.8438H219.575V23.5447ZM219.575 21.3794H220.874V20.0803H219.575V21.3794ZM217.302 21.3794H216.003V22.6786H217.302V21.3794ZM217.302 19.2142H218.601V17.9151H217.302V19.2142ZM208.212 19.2142V17.9151H206.913V19.2142H208.212ZM208.212 27.8751V29.1742H209.511V27.8751H208.212ZM203.667 27.8751H202.368V29.1742H203.667V27.8751ZM208.212 6.22299V4.92387H206.913V6.22299H208.212ZM208.212 14.8838H206.913V16.1829H208.212V14.8838ZM221.848 14.8838V16.1829H223.147V14.8838H221.848ZM221.848 12.7186V11.4195H220.548V12.7186H221.848ZM224.12 12.7186V14.0177H225.419V12.7186H224.12ZM224.12 8.3882H225.419V7.08908H224.12V8.3882ZM221.848 8.3882H220.548V9.68733H221.848V8.3882ZM221.848 6.22299H223.147V4.92387H221.848V6.22299ZM255.949 10.5534V11.8525H257.248V10.5534H255.949ZM253.676 10.5534V9.25429H252.377V10.5534H253.676ZM253.676 12.7186V14.0177H254.975V12.7186H253.676ZM251.404 12.7186V11.4195H250.104V12.7186H251.404ZM251.404 14.8838V16.1829H252.703V14.8838H251.404ZM249.131 14.8838V13.5847H247.832V14.8838H249.131ZM249.131 17.049V18.3482H250.43V17.049H249.131ZM246.858 17.049V15.7499H245.559V17.049H246.858ZM246.858 27.8751V29.1742H248.157V27.8751H246.858ZM242.313 27.8751H241.014V29.1742H242.313V27.8751ZM242.313 17.049H243.612V15.7499H242.313V17.049ZM240.041 17.049H238.741V18.3482H240.041V17.049ZM240.041 14.8838H241.34V13.5847H240.041V14.8838ZM237.768 14.8838H236.469V16.1829H237.768V14.8838ZM237.768 12.7186H239.067V11.4195H237.768V12.7186ZM235.495 12.7186H234.196V14.0177H235.495V12.7186ZM235.495 10.5534H236.794V9.25429H235.495V10.5534ZM233.223 10.5534H231.924V11.8525H233.223V10.5534ZM233.223 1.89258V0.593454H231.924V1.89258H233.223ZM237.768 1.89258H239.067V0.593454H237.768V1.89258ZM237.768 8.3882H236.469V9.68733H237.768V8.3882ZM240.041 8.3882H241.34V7.08908H240.041V8.3882ZM240.041 10.5534H238.741V11.8525H240.041V10.5534ZM242.313 10.5534H243.612V9.25429H242.313V10.5534ZM242.313 12.7186H241.014V14.0177H242.313V12.7186ZM246.858 12.7186V14.0177H248.157V12.7186H246.858ZM246.858 10.5534V9.25429H245.559V10.5534H246.858ZM249.131 10.5534V11.8525H250.43V10.5534H249.131ZM249.131 8.3882V7.08908H247.832V8.3882H249.131ZM251.404 8.3882V9.68733H252.703V8.3882H251.404ZM251.404 1.89258V0.593454H250.104V1.89258H251.404ZM255.949 1.89258H257.248V0.593454H255.949V1.89258ZM13.6568 23.5447V27.8751H16.2551V23.5447H13.6568ZM14.9559 26.5759H12.6833V29.1742H14.9559V26.5759ZM12.6833 26.5759H10.4107V29.1742H12.6833V26.5759ZM10.4107 26.5759H5.86552V29.1742H10.4107V26.5759ZM5.86552 26.5759H3.59291V29.1742H5.86552V26.5759ZM3.59291 26.5759H1.32031V29.1742H3.59291V26.5759ZM2.61944 27.8751V23.5447H0.021188V27.8751H2.61944ZM1.32031 24.8438H3.59291V22.2455H1.32031V24.8438ZM3.59291 24.8438H5.86552V22.2455H3.59291V24.8438ZM7.16464 23.5447V10.5534H4.56639V23.5447H7.16464ZM7.16464 10.5534V6.22299H4.56639V10.5534H7.16464ZM5.86552 4.92387H3.59291V7.52212H5.86552V4.92387ZM3.59291 4.92387H1.32031V7.52212H3.59291V4.92387ZM2.61944 6.22299V1.89258H0.021188V6.22299H2.61944ZM1.32031 3.1917H3.59291V0.593454H1.32031V3.1917ZM3.59291 3.1917H5.86552V0.593454H3.59291V3.1917ZM5.86552 3.1917H8.13812V0.593454H5.86552V3.1917ZM8.13812 3.1917H10.4107V0.593454H8.13812V3.1917ZM10.4107 3.1917H12.6833V0.593454H10.4107V3.1917ZM12.6833 3.1917H14.9559V0.593454H12.6833V3.1917ZM13.6568 1.89258V6.22299H16.2551V1.89258H13.6568ZM14.9559 4.92387H12.6833V7.52212H14.9559V4.92387ZM12.6833 4.92387H10.4107V7.52212H12.6833V4.92387ZM9.1116 6.22299V23.5447H11.7098V6.22299H9.1116ZM10.4107 24.8438H12.6833V22.2455H10.4107V24.8438ZM12.6833 24.8438H14.9559V22.2455H12.6833V24.8438ZM48.0836 10.5534V4.05779H45.4854V10.5534H48.0836ZM48.0836 4.05779V1.89258H45.4854V4.05779H48.0836ZM46.7845 3.1917H51.3297V0.593454H46.7845V3.1917ZM50.0306 1.89258V4.05779H52.6288V1.89258H50.0306ZM50.0306 4.05779V6.22299H52.6288V4.05779H50.0306ZM50.0306 6.22299V23.5447H52.6288V6.22299H50.0306ZM50.0306 23.5447V27.8751H52.6288V23.5447H50.0306ZM51.3297 26.5759H46.7845V29.1742H51.3297V26.5759ZM48.0836 27.8751V23.5447H45.4854V27.8751H48.0836ZM46.7845 22.2455H44.5119V24.8438H46.7845V22.2455ZM45.811 23.5447V21.3794H43.2128V23.5447H45.811ZM44.5119 20.0803H42.2393V22.6786H44.5119V20.0803ZM43.5384 21.3794V19.2142H40.9401V21.3794H43.5384ZM42.2393 17.9151H39.9667V20.5134H42.2393V17.9151ZM41.2658 19.2142V17.049H38.6675V19.2142H41.2658ZM39.9667 15.7499H37.6941V18.3482H39.9667V15.7499ZM38.9932 17.049V14.8838H36.3949V17.049H38.9932ZM37.6941 13.5847H35.4215V16.1829H37.6941V13.5847ZM36.7206 14.8838V12.7186H34.1223V14.8838H36.7206ZM35.4215 11.4195H33.1489V14.0177H35.4215V11.4195ZM34.448 12.7186V10.5534H31.8497V12.7186H34.448ZM33.1489 9.25429H30.8763V11.8525H33.1489V9.25429ZM29.5771 10.5534V17.049H32.1754V10.5534H29.5771ZM29.5771 17.049V27.8751H32.1754V17.049H29.5771ZM30.8763 26.5759H28.6037V29.1742H30.8763V26.5759ZM28.6037 26.5759H26.3311V29.1742H28.6037V26.5759ZM27.6302 27.8751V25.7099H25.0319V27.8751H27.6302ZM27.6302 25.7099V23.5447H25.0319V25.7099H27.6302ZM27.6302 23.5447V21.3794H25.0319V23.5447H27.6302ZM27.6302 21.3794V17.049H25.0319V21.3794H27.6302ZM27.6302 17.049V14.8838H25.0319V17.049H27.6302ZM27.6302 14.8838V12.7186H25.0319V14.8838H27.6302ZM27.6302 12.7186V10.5534H25.0319V12.7186H27.6302ZM27.6302 10.5534V8.3882H25.0319V10.5534H27.6302ZM27.6302 8.3882V6.22299H25.0319V8.3882H27.6302ZM27.6302 6.22299V4.05779H25.0319V6.22299H27.6302ZM27.6302 4.05779V1.89258H25.0319V4.05779H27.6302ZM26.3311 3.1917H28.6037V0.593454H26.3311V3.1917ZM28.6037 3.1917H30.8763V0.593454H28.6037V3.1917ZM29.5771 1.89258V4.05779H32.1754V1.89258H29.5771ZM30.8763 5.35691H33.1489V2.75866H30.8763V5.35691ZM31.8497 4.05779V6.22299H34.448V4.05779H31.8497ZM33.1489 7.52212H35.4215V4.92387H33.1489V7.52212ZM34.1223 6.22299V8.3882H36.7206V6.22299H34.1223ZM35.4215 9.68733H37.6941V7.08908H35.4215V9.68733ZM36.3949 8.3882V10.5534H38.9932V8.3882H36.3949ZM37.6941 11.8525H39.9667V9.25429H37.6941V11.8525ZM38.6675 10.5534V12.7186H41.2658V10.5534H38.6675ZM39.9667 14.0177H42.2393V11.4195H39.9667V14.0177ZM40.9401 12.7186V14.8838H43.5384V12.7186H40.9401ZM42.2393 16.1829H44.5119V13.5847H42.2393V16.1829ZM43.2128 14.8838V17.049H45.811V14.8838H43.2128ZM44.5119 18.3482H46.7845V15.7499H44.5119V18.3482ZM48.0836 17.049V10.5534H45.4854V17.049H48.0836ZM79.5865 4.05779V6.22299H82.1848V4.05779H79.5865ZM79.5865 6.22299V10.5534H82.1848V6.22299H79.5865ZM79.5865 10.5534V14.8838H82.1848V10.5534H79.5865ZM79.5865 14.8838V17.049H82.1848V14.8838H79.5865ZM79.5865 17.049V19.2142H82.1848V17.049H79.5865ZM80.8856 17.9151H78.613V20.5134H80.8856V17.9151ZM77.3139 19.2142V21.3794H79.9122V19.2142H77.3139ZM78.613 20.0803H76.3404V22.6786H78.613V20.0803ZM75.0413 21.3794V23.5447H77.6396V21.3794H75.0413ZM76.3404 22.2455H74.0678V24.8438H76.3404V22.2455ZM72.7687 23.5447V25.7099H75.3669V23.5447H72.7687ZM74.0678 24.4107H71.7952V27.009H74.0678V24.4107ZM70.4961 25.7099V27.8751H73.0944V25.7099H70.4961ZM71.7952 26.5759H64.9774V29.1742H71.7952V26.5759ZM66.2765 27.8751V25.7099H63.6783V27.8751H66.2765ZM64.9774 24.4107H62.7048V27.009H64.9774V24.4107ZM64.0039 25.7099V23.5447H61.4057V25.7099H64.0039ZM62.7048 22.2455H60.4322V24.8438H62.7048V22.2455ZM61.7313 23.5447V21.3794H59.1331V23.5447H61.7313ZM60.4322 20.0803H58.1596V22.6786H60.4322V20.0803ZM59.4587 21.3794V19.2142H56.8605V21.3794H59.4587ZM58.1596 17.9151H55.887V20.5134H58.1596V17.9151ZM57.1861 19.2142V17.049H54.5879V19.2142H57.1861ZM57.1861 17.049V14.8838H54.5879V17.049H57.1861ZM57.1861 14.8838V10.5534H54.5879V14.8838H57.1861ZM57.1861 10.5534V6.22299H54.5879V10.5534H57.1861ZM57.1861 6.22299V4.05779H54.5879V6.22299H57.1861ZM57.1861 4.05779V1.89258H54.5879V4.05779H57.1861ZM55.887 3.1917H58.1596V0.593454H55.887V3.1917ZM58.1596 3.1917H60.4322V0.593454H58.1596V3.1917ZM59.1331 1.89258V4.05779H61.7313V1.89258H59.1331ZM59.1331 4.05779V6.22299H61.7313V4.05779H59.1331ZM59.1331 6.22299V14.8838H61.7313V6.22299H59.1331ZM59.1331 14.8838V17.049H61.7313V14.8838H59.1331ZM60.4322 18.3482H62.7048V15.7499H60.4322V18.3482ZM61.4057 17.049V19.2142H64.0039V17.049H61.4057ZM62.7048 20.5134H64.9774V17.9151H62.7048V20.5134ZM63.6783 19.2142V21.3794H66.2765V19.2142H63.6783ZM64.9774 22.6786H67.25V20.0803H64.9774V22.6786ZM65.9509 21.3794V23.5447H68.5491V21.3794H65.9509ZM67.25 24.8438H69.5226V22.2455H67.25V24.8438ZM70.8217 23.5447V21.3794H68.2235V23.5447H70.8217ZM69.5226 22.6786H71.7952V20.0803H69.5226V22.6786ZM73.0944 21.3794V19.2142H70.4961V21.3794H73.0944ZM71.7952 20.5134H74.0678V17.9151H71.7952V20.5134ZM75.3669 19.2142V17.049H72.7687V19.2142H75.3669ZM74.0678 18.3482H76.3404V15.7499H74.0678V18.3482ZM77.6396 17.049V14.8838H75.0413V17.049H77.6396ZM77.6396 14.8838V6.22299H75.0413V14.8838H77.6396ZM77.6396 6.22299V4.05779H75.0413V6.22299H77.6396ZM77.6396 4.05779V1.89258H75.0413V4.05779H77.6396ZM76.3404 3.1917H78.613V0.593454H76.3404V3.1917ZM78.613 3.1917H80.8856V0.593454H78.613V3.1917ZM79.5865 1.89258V4.05779H82.1848V1.89258H79.5865ZM86.7421 6.22299V4.05779H84.1438V6.22299H86.7421ZM86.7421 4.05779V1.89258H84.1438V4.05779H86.7421ZM85.443 3.1917H87.7156V0.593454H85.443V3.1917ZM87.7156 3.1917H89.9882V0.593454H87.7156V3.1917ZM89.9882 3.1917H96.806V0.593454H89.9882V3.1917ZM96.806 3.1917H110.442V0.593454H96.806V3.1917ZM109.142 1.89258V6.22299H111.741V1.89258H109.142ZM110.442 4.92387H108.169V7.52212H110.442V4.92387ZM108.169 4.92387H105.896V7.52212H108.169V4.92387ZM105.896 4.92387H101.351V7.52212H105.896V4.92387ZM101.351 4.92387H99.0786V7.52212H101.351V4.92387ZM99.0786 4.92387H96.806V7.52212H99.0786V4.92387ZM96.806 4.92387H92.2608V7.52212H96.806V4.92387ZM92.2608 4.92387H89.9882V7.52212H92.2608V4.92387ZM88.689 6.22299V12.7186H91.2873V6.22299H88.689ZM89.9882 14.0177H105.896V11.4195H89.9882V14.0177ZM104.597 12.7186V17.049H107.196V12.7186H104.597ZM105.896 15.7499H89.9882V18.3482H105.896V15.7499ZM88.689 17.049V23.5447H91.2873V17.049H88.689ZM89.9882 24.8438H92.2608V22.2455H89.9882V24.8438ZM92.2608 24.8438H96.806V22.2455H92.2608V24.8438ZM96.806 24.8438H99.0786V22.2455H96.806V24.8438ZM99.0786 24.8438H101.351V22.2455H99.0786V24.8438ZM101.351 24.8438H105.896V22.2455H101.351V24.8438ZM105.896 24.8438H108.169V22.2455H105.896V24.8438ZM108.169 24.8438H110.442V22.2455H108.169V24.8438ZM109.142 23.5447V27.8751H111.741V23.5447H109.142ZM110.442 26.5759H96.806V29.1742H110.442V26.5759ZM96.806 26.5759H89.9882V29.1742H96.806V26.5759ZM89.9882 26.5759H87.7156V29.1742H89.9882V26.5759ZM87.7156 26.5759H85.443V29.1742H87.7156V26.5759ZM86.7421 27.8751V25.7099H84.1438V27.8751H86.7421ZM86.7421 25.7099V23.5447H84.1438V25.7099H86.7421ZM86.7421 23.5447V21.3794H84.1438V23.5447H86.7421ZM86.7421 21.3794V17.049H84.1438V21.3794H86.7421ZM86.7421 17.049V14.8838H84.1438V17.049H86.7421ZM86.7421 14.8838V12.7186H84.1438V14.8838H86.7421ZM86.7421 12.7186V10.5534H84.1438V12.7186H86.7421ZM86.7421 10.5534V8.3882H84.1438V10.5534H86.7421ZM86.7421 8.3882V6.22299H84.1438V8.3882H86.7421ZM136.751 10.5534V4.05779H134.153V10.5534H136.751ZM136.751 4.05779V1.89258H134.153V4.05779H136.751ZM135.452 3.1917H139.998V0.593454H135.452V3.1917ZM138.698 1.89258V4.05779H141.297V1.89258H138.698ZM138.698 4.05779V6.22299H141.297V4.05779H138.698ZM138.698 6.22299V23.5447H141.297V6.22299H138.698ZM138.698 23.5447V27.8751H141.297V23.5447H138.698ZM139.998 26.5759H135.452V29.1742H139.998V26.5759ZM136.751 27.8751V23.5447H134.153V27.8751H136.751ZM135.452 22.2455H133.18V24.8438H135.452V22.2455ZM134.479 23.5447V21.3794H131.881V23.5447H134.479ZM133.18 20.0803H130.907V22.6786H133.18V20.0803ZM132.206 21.3794V19.2142H129.608V21.3794H132.206ZM130.907 17.9151H128.635V20.5134H130.907V17.9151ZM129.934 19.2142V17.049H127.335V19.2142H129.934ZM128.635 15.7499H126.362V18.3482H128.635V15.7499ZM127.661 17.049V14.8838H125.063V17.049H127.661ZM126.362 13.5847H124.089V16.1829H126.362V13.5847ZM125.388 14.8838V12.7186H122.79V14.8838H125.388ZM124.089 11.4195H121.817V14.0177H124.089V11.4195ZM123.116 12.7186V10.5534H120.518V12.7186H123.116ZM121.817 9.25429H119.544V11.8525H121.817V9.25429ZM118.245 10.5534V17.049H120.843V10.5534H118.245ZM118.245 17.049V27.8751H120.843V17.049H118.245ZM119.544 26.5759H117.272V29.1742H119.544V26.5759ZM117.272 26.5759H114.999V29.1742H117.272V26.5759ZM116.298 27.8751V25.7099H113.7V27.8751H116.298ZM116.298 25.7099V23.5447H113.7V25.7099H116.298ZM116.298 23.5447V21.3794H113.7V23.5447H116.298ZM116.298 21.3794V17.049H113.7V21.3794H116.298ZM116.298 17.049V14.8838H113.7V17.049H116.298ZM116.298 14.8838V12.7186H113.7V14.8838H116.298ZM116.298 12.7186V10.5534H113.7V12.7186H116.298ZM116.298 10.5534V8.3882H113.7V10.5534H116.298ZM116.298 8.3882V6.22299H113.7V8.3882H116.298ZM116.298 6.22299V4.05779H113.7V6.22299H116.298ZM116.298 4.05779V1.89258H113.7V4.05779H116.298ZM114.999 3.1917H117.272V0.593454H114.999V3.1917ZM117.272 3.1917H119.544V0.593454H117.272V3.1917ZM118.245 1.89258V4.05779H120.843V1.89258H118.245ZM119.544 5.35691H121.817V2.75866H119.544V5.35691ZM120.518 4.05779V6.22299H123.116V4.05779H120.518ZM121.817 7.52212H124.089V4.92387H121.817V7.52212ZM122.79 6.22299V8.3882H125.388V6.22299H122.79ZM124.089 9.68733H126.362V7.08908H124.089V9.68733ZM125.063 8.3882V10.5534H127.661V8.3882H125.063ZM126.362 11.8525H128.635V9.25429H126.362V11.8525ZM127.335 10.5534V12.7186H129.934V10.5534H127.335ZM128.635 14.0177H130.907V11.4195H128.635V14.0177ZM129.608 12.7186V14.8838H132.206V12.7186H129.608ZM130.907 16.1829H133.18V13.5847H130.907V16.1829ZM131.881 14.8838V17.049H134.479V14.8838H131.881ZM133.18 18.3482H135.452V15.7499H133.18V18.3482ZM136.751 17.049V10.5534H134.153V17.049H136.751ZM145.854 6.22299V4.05779H143.256V6.22299H145.854ZM145.854 4.05779V1.89258H143.256V4.05779H145.854ZM144.555 3.1917H146.827V0.593454H144.555V3.1917ZM146.827 3.1917H149.1V0.593454H146.827V3.1917ZM149.1 3.1917H155.918V0.593454H149.1V3.1917ZM155.918 3.1917H167.281V0.593454H155.918V3.1917ZM165.982 1.89258V6.22299H168.58V1.89258H165.982ZM167.281 4.92387H165.008V7.52212H167.281V4.92387ZM165.008 4.92387H162.736V7.52212H165.008V4.92387ZM162.736 4.92387H158.19V7.52212H162.736V4.92387ZM156.891 6.22299V17.049H159.49V6.22299H156.891ZM156.891 17.049V27.8751H159.49V17.049H156.891ZM158.19 26.5759H153.645V29.1742H158.19V26.5759ZM154.944 27.8751V17.049H152.346V27.8751H154.944ZM154.944 17.049V6.22299H152.346V17.049H154.944ZM153.645 4.92387H151.373V7.52212H153.645V4.92387ZM151.373 4.92387H144.555V7.52212H151.373V4.92387ZM185.474 4.92387H183.201V7.52212H185.474V4.92387ZM183.201 4.92387H180.929V7.52212H183.201V4.92387ZM179.629 6.22299V8.3882H182.228V6.22299H179.629ZM180.929 7.08908H178.656V9.68733H180.929V7.08908ZM177.357 8.3882V10.5534H179.955V8.3882H177.357ZM177.357 10.5534V12.7186H179.955V10.5534H177.357ZM177.357 12.7186V17.049H179.955V12.7186H177.357ZM177.357 17.049V19.2142H179.955V17.049H177.357ZM177.357 19.2142V21.3794H179.955V19.2142H177.357ZM178.656 22.6786H180.929V20.0803H178.656V22.6786ZM179.629 21.3794V23.5447H182.228V21.3794H179.629ZM180.929 24.8438H183.201V22.2455H180.929V24.8438ZM183.201 24.8438H185.474V22.2455H183.201V24.8438ZM185.474 24.8438H187.746V22.2455H185.474V24.8438ZM187.746 24.8438H190.019V22.2455H187.746V24.8438ZM190.019 24.8438H192.292V22.2455H190.019V24.8438ZM193.591 23.5447V21.3794H190.993V23.5447H193.591ZM192.292 22.6786H194.564V20.0803H192.292V22.6786ZM195.863 21.3794V19.2142H193.265V21.3794H195.863ZM195.863 19.2142V17.049H193.265V19.2142H195.863ZM195.863 17.049V10.5534H193.265V17.049H195.863ZM195.863 10.5534V8.3882H193.265V10.5534H195.863ZM194.564 7.08908H192.292V9.68733H194.564V7.08908ZM193.591 8.3882V6.22299H190.993V8.3882H193.591ZM192.292 4.92387H190.019V7.52212H192.292V4.92387ZM190.019 4.92387H187.746V7.52212H190.019V4.92387ZM187.746 4.92387H185.474V7.52212H187.746V4.92387ZM197.81 17.049V23.5447H200.409V17.049H197.81ZM199.109 22.2455H196.837V24.8438H199.109V22.2455ZM195.538 23.5447V25.7099H198.136V23.5447H195.538ZM196.837 24.4107H194.564V27.009H196.837V24.4107ZM193.265 25.7099V27.8751H195.863V25.7099H193.265ZM194.564 26.5759H187.746V29.1742H194.564V26.5759ZM187.746 26.5759H185.474V29.1742H187.746V26.5759ZM185.474 26.5759H178.656V29.1742H185.474V26.5759ZM179.955 27.8751V25.7099H177.357V27.8751H179.955ZM178.656 24.4107H176.383V27.009H178.656V24.4107ZM177.683 25.7099V23.5447H175.084V25.7099H177.683ZM176.383 22.2455H174.111V24.8438H176.383V22.2455ZM175.41 23.5447V19.2142H172.812V23.5447H175.41ZM175.41 19.2142V17.049H172.812V19.2142H175.41ZM175.41 17.049V14.8838H172.812V17.049H175.41ZM175.41 14.8838V12.7186H172.812V14.8838H175.41ZM175.41 12.7186V6.22299H172.812V12.7186H175.41ZM174.111 7.52212H176.383V4.92387H174.111V7.52212ZM177.683 6.22299V4.05779H175.084V6.22299H177.683ZM176.383 5.35691H178.656V2.75866H176.383V5.35691ZM179.955 4.05779V1.89258H177.357V4.05779H179.955ZM178.656 3.1917H183.201V0.593454H178.656V3.1917ZM183.201 3.1917H185.474V0.593454H183.201V3.1917ZM185.474 3.1917H187.746V0.593454H185.474V3.1917ZM187.746 3.1917H194.564V0.593454H187.746V3.1917ZM193.265 1.89258V4.05779H195.863V1.89258H193.265ZM194.564 5.35691H196.837V2.75866H194.564V5.35691ZM195.538 4.05779V6.22299H198.136V4.05779H195.538ZM196.837 7.52212H199.109V4.92387H196.837V7.52212ZM197.81 6.22299V10.5534H200.409V6.22299H197.81ZM197.81 10.5534V17.049H200.409V10.5534H197.81ZM204.966 6.22299V4.05779H202.368V6.22299H204.966ZM204.966 4.05779V1.89258H202.368V4.05779H204.966ZM203.667 3.1917H205.939V0.593454H203.667V3.1917ZM205.939 3.1917H208.212V0.593454H205.939V3.1917ZM208.212 3.1917H215.03V0.593454H208.212V3.1917ZM215.03 3.1917H224.12V0.593454H215.03V3.1917ZM222.821 1.89258V4.05779H225.419V1.89258H222.821ZM224.12 5.35691H226.393V2.75866H224.12V5.35691ZM225.094 4.05779V6.22299H227.692V4.05779H225.094ZM226.393 7.52212H228.665V4.92387H226.393V7.52212ZM227.366 6.22299V10.5534H229.965V6.22299H227.366ZM227.366 10.5534V12.7186H229.965V10.5534H227.366ZM227.366 12.7186V14.8838H229.965V12.7186H227.366ZM228.665 13.5847H226.393V16.1829H228.665V13.5847ZM225.094 14.8838V17.049H227.692V14.8838H225.094ZM226.393 15.7499H224.12V18.3482H226.393V15.7499ZM222.821 17.049V19.2142H225.419V17.049H222.821ZM222.821 19.2142V21.3794H225.419V19.2142H222.821ZM224.12 22.6786H226.393V20.0803H224.12V22.6786ZM225.094 21.3794V23.5447H227.692V21.3794H225.094ZM226.393 24.8438H228.665V22.2455H226.393V24.8438ZM227.366 23.5447V25.7099H229.965V23.5447H227.366ZM227.366 25.7099V27.8751H229.965V25.7099H227.366ZM228.665 26.5759H224.12V29.1742H228.665V26.5759ZM225.419 27.8751V25.7099H222.821V27.8751H225.419ZM224.12 24.4107H221.848V27.009H224.12V24.4107ZM223.147 25.7099V23.5447H220.548V25.7099H223.147ZM221.848 22.2455H219.575V24.8438H221.848V22.2455ZM220.874 23.5447V21.3794H218.276V23.5447H220.874ZM219.575 20.0803H217.302V22.6786H219.575V20.0803ZM218.601 21.3794V19.2142H216.003V21.3794H218.601ZM217.302 17.9151H215.03V20.5134H217.302V17.9151ZM215.03 17.9151H208.212V20.5134H215.03V17.9151ZM206.913 19.2142V27.8751H209.511V19.2142H206.913ZM208.212 26.5759H203.667V29.1742H208.212V26.5759ZM204.966 27.8751V19.2142H202.368V27.8751H204.966ZM204.966 19.2142V17.049H202.368V19.2142H204.966ZM204.966 17.049V14.8838H202.368V17.049H204.966ZM204.966 14.8838V12.7186H202.368V14.8838H204.966ZM204.966 12.7186V10.5534H202.368V12.7186H204.966ZM204.966 10.5534V8.3882H202.368V10.5534H204.966ZM204.966 8.3882V6.22299H202.368V8.3882H204.966ZM215.03 4.92387H210.485V7.52212H215.03V4.92387ZM210.485 4.92387H208.212V7.52212H210.485V4.92387ZM206.913 6.22299V12.7186H209.511V6.22299H206.913ZM206.913 12.7186V14.8838H209.511V12.7186H206.913ZM208.212 16.1829H210.485V13.5847H208.212V16.1829ZM210.485 16.1829H212.757V13.5847H210.485V16.1829ZM212.757 16.1829H215.03V13.5847H212.757V16.1829ZM215.03 16.1829H217.302V13.5847H215.03V16.1829ZM217.302 16.1829H219.575V13.5847H217.302V16.1829ZM219.575 16.1829H221.848V13.5847H219.575V16.1829ZM223.147 14.8838V12.7186H220.548V14.8838H223.147ZM221.848 14.0177H224.12V11.4195H221.848V14.0177ZM225.419 12.7186V10.5534H222.821V12.7186H225.419ZM225.419 10.5534V8.3882H222.821V10.5534H225.419ZM224.12 7.08908H221.848V9.68733H224.12V7.08908ZM223.147 8.3882V6.22299H220.548V8.3882H223.147ZM221.848 4.92387H219.575V7.52212H221.848V4.92387ZM219.575 4.92387H217.302V7.52212H219.575V4.92387ZM217.302 4.92387H215.03V7.52212H217.302V4.92387ZM254.65 4.05779V6.22299H257.248V4.05779H254.65ZM254.65 6.22299V8.3882H257.248V6.22299H254.65ZM254.65 8.3882V10.5534H257.248V8.3882H254.65ZM255.949 9.25429H253.676V11.8525H255.949V9.25429ZM252.377 10.5534V12.7186H254.975V10.5534H252.377ZM253.676 11.4195H251.404V14.0177H253.676V11.4195ZM250.104 12.7186V14.8838H252.703V12.7186H250.104ZM251.404 13.5847H249.131V16.1829H251.404V13.5847ZM247.832 14.8838V17.049H250.43V14.8838H247.832ZM249.131 15.7499H246.858V18.3482H249.131V15.7499ZM245.559 17.049V19.2142H248.157V17.049H245.559ZM245.559 19.2142V27.8751H248.157V19.2142H245.559ZM246.858 26.5759H242.313V29.1742H246.858V26.5759ZM243.612 27.8751V19.2142H241.014V27.8751H243.612ZM243.612 19.2142V17.049H241.014V19.2142H243.612ZM242.313 15.7499H240.041V18.3482H242.313V15.7499ZM241.34 17.049V14.8838H238.741V17.049H241.34ZM240.041 13.5847H237.768V16.1829H240.041V13.5847ZM239.067 14.8838V12.7186H236.469V14.8838H239.067ZM237.768 11.4195H235.495V14.0177H237.768V11.4195ZM236.794 12.7186V10.5534H234.196V12.7186H236.794ZM235.495 9.25429H233.223V11.8525H235.495V9.25429ZM234.522 10.5534V8.3882H231.924V10.5534H234.522ZM234.522 8.3882V6.22299H231.924V8.3882H234.522ZM234.522 6.22299V4.05779H231.924V6.22299H234.522ZM234.522 4.05779V1.89258H231.924V4.05779H234.522ZM233.223 3.1917H235.495V0.593454H233.223V3.1917ZM235.495 3.1917H237.768V0.593454H235.495V3.1917ZM236.469 1.89258V4.05779H239.067V1.89258H236.469ZM236.469 4.05779V6.22299H239.067V4.05779H236.469ZM236.469 6.22299V8.3882H239.067V6.22299H236.469ZM237.768 9.68733H240.041V7.08908H237.768V9.68733ZM238.741 8.3882V10.5534H241.34V8.3882H238.741ZM240.041 11.8525H242.313V9.25429H240.041V11.8525ZM241.014 10.5534V12.7186H243.612V10.5534H241.014ZM242.313 14.0177H244.586V11.4195H242.313V14.0177ZM244.586 14.0177H246.858V11.4195H244.586V14.0177ZM248.157 12.7186V10.5534H245.559V12.7186H248.157ZM246.858 11.8525H249.131V9.25429H246.858V11.8525ZM250.43 10.5534V8.3882H247.832V10.5534H250.43ZM249.131 9.68733H251.404V7.08908H249.131V9.68733ZM252.703 8.3882V6.22299H250.104V8.3882H252.703ZM252.703 6.22299V4.05779H250.104V6.22299H252.703ZM252.703 4.05779V1.89258H250.104V4.05779H252.703ZM251.404 3.1917H253.676V0.593454H251.404V3.1917ZM253.676 3.1917H255.949V0.593454H253.676V3.1917ZM254.65 1.89258V4.05779H257.248V1.89258H254.65Z" fill="url(#paint9_linear_3591_1360)" mask="url(#path-1-outside-1_3591_1360)"/>
<defs>
<linearGradient id="paint0_linear_3591_1360" x1="128.635" y1="1.89258" x2="128.635" y2="27.8751" gradientUnits="userSpaceOnUse">
<stop stop-color="#FF7C06"/>
<stop offset="1" stop-color="#E45C00"/>
</linearGradient>
<linearGradient id="paint1_linear_3591_1360" x1="128.635" y1="1.89258" x2="128.635" y2="27.8751" gradientUnits="userSpaceOnUse">
<stop stop-color="#FF7C06"/>
<stop offset="1" stop-color="#E45C00"/>
</linearGradient>
<linearGradient id="paint2_linear_3591_1360" x1="128.635" y1="1.89258" x2="128.635" y2="27.8751" gradientUnits="userSpaceOnUse">
<stop stop-color="#FF7C06"/>
<stop offset="1" stop-color="#E45C00"/>
</linearGradient>
<linearGradient id="paint3_linear_3591_1360" x1="128.635" y1="1.89258" x2="128.635" y2="27.8751" gradientUnits="userSpaceOnUse">
<stop stop-color="#FF7C06"/>
<stop offset="1" stop-color="#E45C00"/>
</linearGradient>
<linearGradient id="paint4_linear_3591_1360" x1="128.635" y1="1.89258" x2="128.635" y2="27.8751" gradientUnits="userSpaceOnUse">
<stop stop-color="#FF7C06"/>
<stop offset="1" stop-color="#E45C00"/>
</linearGradient>
<linearGradient id="paint5_linear_3591_1360" x1="128.635" y1="1.89258" x2="128.635" y2="27.8751" gradientUnits="userSpaceOnUse">
<stop stop-color="#FF7C06"/>
<stop offset="1" stop-color="#E45C00"/>
</linearGradient>
<linearGradient id="paint6_linear_3591_1360" x1="128.635" y1="1.89258" x2="128.635" y2="27.8751" gradientUnits="userSpaceOnUse">
<stop stop-color="#FF7C06"/>
<stop offset="1" stop-color="#E45C00"/>
</linearGradient>
<linearGradient id="paint7_linear_3591_1360" x1="128.635" y1="1.89258" x2="128.635" y2="27.8751" gradientUnits="userSpaceOnUse">
<stop stop-color="#FF7C06"/>
<stop offset="1" stop-color="#E45C00"/>
</linearGradient>
<linearGradient id="paint8_linear_3591_1360" x1="128.635" y1="1.89258" x2="128.635" y2="27.8751" gradientUnits="userSpaceOnUse">
<stop stop-color="#FF7C06"/>
<stop offset="1" stop-color="#E45C00"/>
</linearGradient>
<linearGradient id="paint9_linear_3591_1360" x1="128.635" y1="1.89258" x2="128.635" y2="27.8751" gradientUnits="userSpaceOnUse">
<stop stop-color="#FF7C06"/>
<stop offset="1" stop-color="#E45C00"/>
</linearGradient>
</defs>
</svg>
