<svg width="118" height="24" viewBox="0 0 118 24" fill="none" xmlns="http://www.w3.org/2000/svg">
<path d="M11.9924 20V24H9.9937H7.99496H3.99748H1.99874H0V20H1.99874H3.99748V8V4H1.99874H0V0H1.99874H3.99748H5.99622H7.99496H9.9937H11.9924V4H9.9937H7.99496V20H9.9937H11.9924Z" fill="url(#paint0_linear_1543_40129)"/>
<path d="M18.031 4V2V0H20.0298H22.0285H28.0247H38.0184V4H36.0197H34.021H30.0235V14V24H26.026V14V4H24.0273H18.031Z" fill="url(#paint1_linear_1543_40129)"/>
<path d="M44.0253 4V2V0H46.0241H48.0228H54.019H66.0115V4H64.0127H62.014H58.0165H56.0178H54.019H50.0215H48.0228V10H62.014V14H48.0228V20H50.0215H54.019H56.0178H58.0165H62.014H64.0127H66.0115V24H54.019H48.0228H46.0241H44.0253V22V20V18V14V12V10V8V6V4Z" fill="url(#paint2_linear_1543_40129)"/>
<path d="M74.0171 14V24H72.0183H70.0196V22V20V18V14V12V10V8V6V4V2V0H72.0183H74.0171V2H76.0158V4H78.0145V6H80.0133V8H82.012V6H84.0108V4H86.0095V2H88.0083V0H92.0057V2V4V20V24H88.0083V14V8H86.0095V10H84.0108V12H82.012V14H80.0133V12H78.0145V10H76.0158V8H74.0171V14Z" fill="url(#paint3_linear_1543_40129)"/>
<path d="M100.011 16V18H102.01V20H104.009H106.008H108.006H110.005H112.004V18H114.003V16H112.004V14H110.005H108.006H106.008H100.011V12H98.0126V10H96.0139V8V6V4H98.0126V2H100.011V0H104.009H106.008H108.006H114.003V2H116.001V4H118V8H114.003V6H112.004V4H110.005H108.006H106.008H104.009H102.01V6H100.011V8H102.01V10H104.009H106.008H108.006H114.003V12H116.001V14H118V16V18V20H116.001V22H114.003V24H108.006H106.008H100.011V22H98.0126V20H96.0139V16H100.011Z" fill="url(#paint4_linear_1543_40129)"/>
<defs>
<linearGradient id="paint0_linear_1543_40129" x1="59" y1="0" x2="59" y2="24" gradientUnits="userSpaceOnUse">
<stop stop-color="#FF7C06"/>
<stop offset="1" stop-color="#E45C00"/>
</linearGradient>
<linearGradient id="paint1_linear_1543_40129" x1="59" y1="0" x2="59" y2="24" gradientUnits="userSpaceOnUse">
<stop stop-color="#FF7C06"/>
<stop offset="1" stop-color="#E45C00"/>
</linearGradient>
<linearGradient id="paint2_linear_1543_40129" x1="59" y1="0" x2="59" y2="24" gradientUnits="userSpaceOnUse">
<stop stop-color="#FF7C06"/>
<stop offset="1" stop-color="#E45C00"/>
</linearGradient>
<linearGradient id="paint3_linear_1543_40129" x1="59" y1="0" x2="59" y2="24" gradientUnits="userSpaceOnUse">
<stop stop-color="#FF7C06"/>
<stop offset="1" stop-color="#E45C00"/>
</linearGradient>
<linearGradient id="paint4_linear_1543_40129" x1="59" y1="0" x2="59" y2="24" gradientUnits="userSpaceOnUse">
<stop stop-color="#FF7C06"/>
<stop offset="1" stop-color="#E45C00"/>
</linearGradient>
</defs>
</svg>
