<svg width="57" height="36" viewBox="0 0 57 36" fill="none" xmlns="http://www.w3.org/2000/svg">
<path fill-rule="evenodd" clip-rule="evenodd" d="M27.616 3.91907C28.8331 2.51717 30.655 2.12437 32.2856 2.83097C32.351 2.85487 32.4181 2.87407 32.4865 2.88847L35.9132 5.33597C36.3619 5.84887 36.7477 6.39927 36.9277 7.08317C37.2543 8.32437 37.0365 9.48267 36.2789 10.5495C34.4309 13.1547 32.5729 15.752 30.7046 18.3414C30.5595 18.5384 30.3263 18.6979 30.1032 18.8088C22.3304 22.6935 14.5559 26.5717 6.77955 30.4434C6.57595 30.5446 6.35415 30.6059 6.13245 30.6672C6.02975 30.6956 5.92695 30.7241 5.82605 30.7564L5.53565 30.549C4.97785 29.3803 4.42095 28.2117 3.86499 27.0431C3.56508 26.4129 3.60797 26.2337 4.1751 25.7886C4.15788 25.7417 4.14079 25.694 4.12357 25.6461C4.08926 25.5504 4.05443 25.4534 4.01702 25.3577L0.150363 15.4757C-0.129757 14.7589 -0.047947 14.5498 0.647243 14.1906C1.9026 13.5425 3.15879 12.8953 4.41585 12.249C5.76595 11.5587 6.91325 11.8046 7.79515 12.9697C7.93355 13.1528 8.07365 13.3347 8.22525 13.5315C8.29925 13.6275 8.37635 13.7277 8.45685 13.8326C8.47475 13.7781 8.49125 13.7294 8.50635 13.6846C8.53715 13.5935 8.56245 13.5185 8.58305 13.4436C9.03235 11.7903 9.48455 10.137 9.93975 8.48367C10.3348 7.05247 11.595 6.55437 12.7455 7.39997C13.0855 7.65397 13.4963 7.79687 13.9259 7.81067C17.1304 7.99717 20.3346 8.19047 23.5386 8.39067C23.7704 8.40507 23.9328 8.36807 24.1 8.16217C24.2718 7.95137 24.4434 7.74037 24.6149 7.52937C25.6024 6.31487 26.5899 5.10027 27.616 3.91907ZM22.4345 10.4629C23.0986 10.4228 23.1024 10.4226 23.2822 9.67437L13.6673 9.09377L13.6746 10.9517L13.834 10.9447C13.9649 10.939 14.085 10.9338 14.2045 10.927C16.9442 10.7711 19.6845 10.6166 22.4256 10.4635L22.4345 10.4629ZM35.1401 9.97147C35.2927 9.76007 35.4279 9.53667 35.5443 9.30367C36.0848 8.19807 35.7254 6.75217 34.7499 6.18727L34.499 6.53857C34.0373 7.18477 33.576 7.83127 33.1146 8.47777C31.4538 10.805 29.793 13.1323 28.1194 15.4503C27.9017 15.7466 27.6172 15.9866 27.2914 16.149C20.0396 19.6343 12.7866 23.1156 5.53215 26.593C5.47715 26.6195 5.42325 26.6475 5.36615 26.6771C5.30955 26.7064 5.24975 26.7375 5.18275 26.7703L6.34955 29.2264C6.39115 29.2072 6.42965 29.1896 6.46595 29.173C6.54305 29.1378 6.61035 29.107 6.67705 29.0737C14.2559 25.301 21.8322 21.5222 29.4061 17.7374C29.5985 17.6355 29.7657 17.489 29.8936 17.3104C31.6471 14.8669 33.396 12.4206 35.1401 9.97147ZM22.4839 17.0566L22.2894 15.9174C22.2788 15.8553 22.2691 15.7928 22.2594 15.7304C22.234 15.5666 22.2086 15.4029 22.1661 15.2442C22.0626 14.8575 21.7588 14.6631 21.4023 14.7307C21.3176 14.7462 21.2364 14.7783 21.1636 14.8252C21.0908 14.8721 21.0278 14.9329 20.9781 15.004C20.9284 15.0752 20.893 15.1553 20.8741 15.2398C20.8551 15.3243 20.8529 15.4114 20.8675 15.4963C20.947 16.0802 21.0497 16.6604 21.1525 17.2406L21.1957 17.485C21.2044 17.5344 21.2154 17.5833 21.2278 17.632L22.3176 17.1078L22.3215 17.1344L22.4839 17.0566ZM18.5846 18.9162L18.56 18.4031V18.4016C18.5253 17.6775 18.4913 16.9674 18.4563 16.2575C18.4544 16.1308 18.4418 16.0045 18.4186 15.8802C18.3914 15.722 18.3064 15.5806 18.1803 15.4834C18.0542 15.3861 17.8959 15.34 17.7362 15.3541C17.576 15.3608 17.4236 15.4288 17.3102 15.5442C17.1967 15.6595 17.1308 15.8134 17.126 15.9744C17.1123 16.2419 17.1263 16.5103 17.1404 16.7785C17.1443 16.8529 17.1482 16.9274 17.1515 17.0017C17.1823 17.6895 17.2147 18.377 17.2474 19.0697L17.2475 19.0714L17.2476 19.0729L17.2692 19.5307L18.5309 18.9237L18.5314 18.9415L18.5846 18.9162ZM14.9698 20.636L14.7674 17.6392C14.7614 17.5476 14.7562 17.4563 14.7511 17.3651C14.739 17.1526 14.727 16.9406 14.7042 16.7272C14.6582 16.26 14.377 15.9819 13.9922 16.0085C13.5919 16.0363 13.339 16.3682 13.3701 16.8587C13.4615 18.2901 13.5529 19.7216 13.6658 21.1514C13.6689 21.1911 13.6699 21.2276 13.6688 21.2614L14.9698 20.636ZM12.4195 21.8621C12.262 21.8038 12.1048 21.7004 11.9403 21.5555C11.2483 20.933 10.5104 20.3637 9.73265 19.8524C8.36975 18.9731 6.87335 18.8954 5.33015 19.4043C4.98425 19.5184 4.63805 19.6321 4.29033 19.7463C3.97864 19.8487 3.66538 19.9515 3.35021 20.0555L3.86803 21.3801C4.2029 21.2809 4.53375 21.1776 4.86235 21.0749C5.64245 20.8313 6.41035 20.5915 7.18965 20.4197C8.02065 20.2363 8.82245 20.4856 9.50025 20.9761C9.93855 21.2923 10.3608 21.6309 10.8012 21.9841C10.9719 22.121 11.1453 22.26 11.3234 22.4008L11.4407 22.3446L11.4308 22.3375L12.4195 21.8621ZM2.74609 18.5103C3.15648 18.3283 3.56675 18.1459 3.97702 17.9636C5.3565 17.3504 6.73605 16.7373 8.11985 16.1367L8.24625 16.0819C8.32665 16.047 8.40015 16.0092 8.46735 15.9677L7.59265 14.849L2.32961 17.4452L2.74609 18.5103ZM11.6546 8.30417C11.8571 8.47197 12.0314 8.70707 12.0343 8.86077C12.0411 9.24167 12.0468 9.62277 12.0525 10.0039C12.0594 10.4612 12.0663 10.9184 12.075 11.3754C12.0829 11.7656 12.2225 11.9026 12.4652 11.9425C12.4168 11.8177 12.3955 11.6546 12.3941 11.4462C12.3917 11.0062 12.391 10.5658 12.3904 10.1254C12.3899 9.75837 12.3893 9.39137 12.3878 9.02457C12.3866 8.77817 11.9347 8.32097 11.6546 8.30417Z" fill="url(#paint0_linear_1801_1275)"/>
<path fill-rule="evenodd" clip-rule="evenodd" d="M49.1652 0.499999C48.7803 -0.166671 47.8181 -0.166661 47.4332 0.499999L40.405 12.6732C40.0201 13.3398 40.5012 14.1732 41.271 14.1732H45.414V32.953C45.414 34.0575 46.3095 34.953 47.414 34.953H49.1943C50.2989 34.953 51.1943 34.0575 51.1943 32.953V14.1732H55.3274C56.0972 14.1732 56.5783 13.3398 56.1934 12.6732L49.1652 0.499999Z" fill="url(#paint1_linear_1801_1275)"/>
<path fill-rule="evenodd" clip-rule="evenodd" d="M35.9235 17.8389C35.5386 17.1722 34.5764 17.1722 34.1915 17.8389L30.7878 23.7342C30.4029 24.4009 30.884 25.2342 31.6538 25.2342H33.432V34.247C33.432 34.7993 33.8797 35.247 34.432 35.247H35.8207C36.3729 35.247 36.8207 34.7993 36.8207 34.247V25.2342H38.4612C39.231 25.2342 39.7121 24.4009 39.3272 23.7342L35.9235 17.8389Z" fill="url(#paint2_linear_1801_1275)"/>
<path fill-rule="evenodd" clip-rule="evenodd" d="M24.8688 23.6211C24.4839 22.9544 23.5217 22.9544 23.1368 23.6211L19.7331 29.5164C19.3482 30.1831 19.8293 31.0164 20.5991 31.0164H22.4085V34.1257C22.4085 34.678 22.8562 35.1257 23.4085 35.1257H24.2987C24.8509 35.1257 25.2987 34.678 25.2987 34.1257V31.0164H27.4065C28.1763 31.0164 28.6574 30.1831 28.2725 29.5164L24.8688 23.6211Z" fill="url(#paint3_linear_1801_1275)"/>
<defs>
<linearGradient id="paint0_linear_1801_1275" x1="5.47715" y1="7.05157" x2="27.5326" y2="22.8055" gradientUnits="userSpaceOnUse">
<stop stop-color="#FF7C06"/>
<stop offset="1" stop-color="#E45C00"/>
</linearGradient>
<linearGradient id="paint1_linear_1801_1275" x1="48.2992" y1="-1.24999e-06" x2="48.2992" y2="34.953" gradientUnits="userSpaceOnUse">
<stop stop-color="#FF7C06"/>
<stop offset="1" stop-color="#E45C00"/>
</linearGradient>
<linearGradient id="paint2_linear_1801_1275" x1="35.0575" y1="17.3389" x2="35.0575" y2="35.247" gradientUnits="userSpaceOnUse">
<stop stop-color="#FF7C06"/>
<stop offset="1" stop-color="#E45C00"/>
</linearGradient>
<linearGradient id="paint3_linear_1801_1275" x1="24.0028" y1="23.1211" x2="24.0028" y2="35.1257" gradientUnits="userSpaceOnUse">
<stop stop-color="#FF7C06"/>
<stop offset="1" stop-color="#E45C00"/>
</linearGradient>
</defs>
</svg>
