<svg width="43" height="33" viewBox="0 0 43 33" fill="none" xmlns="http://www.w3.org/2000/svg">
<path fill-rule="evenodd" clip-rule="evenodd" d="M23.5014 8.8529C24.3257 7.9035 25.5595 7.63751 26.6637 8.11599C26.708 8.13218 26.7535 8.14519 26.7999 8.15492L29.1204 9.81244C29.4242 10.1597 29.6855 10.5325 29.8074 10.9956C30.0286 11.8362 29.8812 12.6206 29.3681 13.3431C28.1166 15.1073 26.8583 16.8662 25.5931 18.6198C25.4949 18.7531 25.3369 18.8612 25.1858 18.9363C19.9221 21.567 14.6571 24.1933 9.39092 26.8153C9.25305 26.8838 9.10286 26.9254 8.95272 26.9669L8.95268 26.9669L8.95265 26.9669C8.88309 26.9861 8.81354 27.0054 8.74522 27.0273L8.54853 26.8868C8.17083 26.0954 7.79371 25.304 7.41718 24.5126C7.21408 24.0858 7.24313 23.9645 7.62719 23.663C7.61553 23.6313 7.60396 23.599 7.5923 23.5665L7.59229 23.5665C7.56906 23.5017 7.54547 23.436 7.52014 23.3712L4.90161 16.6791C4.71191 16.1937 4.76732 16.0521 5.2381 15.8088C6.08824 15.3699 6.93894 14.9316 7.7902 14.494C8.70453 14.0265 9.48145 14.193 10.0787 14.982C10.1725 15.1061 10.2674 15.2293 10.3701 15.3626L10.3702 15.3627C10.4203 15.4278 10.4723 15.4953 10.5268 15.5664C10.5389 15.5294 10.5501 15.4965 10.5603 15.4661C10.5812 15.4044 10.5983 15.3537 10.6123 15.3029C10.9165 14.1833 11.2228 13.0637 11.531 11.944C11.7986 10.9748 12.652 10.6376 13.4311 11.2102C13.6613 11.3822 13.9395 11.4789 14.2305 11.4883C16.4005 11.6146 18.5705 11.7455 20.7402 11.8811C20.8972 11.8908 21.0072 11.8658 21.1204 11.7264C21.2363 11.5841 21.352 11.4418 21.4678 11.2995L21.4691 11.2978L21.4692 11.2977C22.1379 10.4753 22.8066 9.65276 23.5014 8.8529ZM19.9925 13.2844C20.4422 13.2572 20.4448 13.2571 20.5666 12.7504L14.0554 12.3573L14.0603 13.6154L14.1681 13.6106L14.1682 13.6106L14.1685 13.6106C14.2571 13.6068 14.3382 13.6033 14.4191 13.5987C16.2744 13.4931 18.1302 13.3884 19.9865 13.2848L19.9925 13.2844ZM28.5968 12.9516C28.7002 12.8084 28.7918 12.6571 28.8705 12.4993C29.2366 11.7507 28.9932 10.7714 28.3326 10.3889L28.1627 10.6268C27.85 11.0645 27.5376 11.5023 27.2252 11.94C26.1005 13.5161 24.9758 15.0921 23.8424 16.6619C23.6949 16.8625 23.5023 17.0251 23.2816 17.135C18.3707 19.4953 13.4589 21.8529 8.54623 24.2078C8.50895 24.2257 8.47244 24.2447 8.43377 24.2647L8.43373 24.2648L8.43372 24.2648L8.43364 24.2648C8.39535 24.2847 8.35494 24.3057 8.30955 24.3279L9.09975 25.9912C9.12791 25.9781 9.15396 25.9662 9.17854 25.955C9.23075 25.9311 9.27635 25.9103 9.32155 25.8877C14.4539 23.3328 19.5847 20.7738 24.7138 18.2107C24.844 18.1417 24.9572 18.0425 25.0438 17.9216C26.2314 16.2668 27.4157 14.6101 28.5968 12.9516ZM20.0271 17.7491L19.8955 16.9785C19.8883 16.9364 19.8818 16.8942 19.8752 16.852L19.8752 16.8518L19.8752 16.8518C19.858 16.7409 19.8408 16.63 19.812 16.5226C19.7419 16.2607 19.5362 16.129 19.2948 16.1748C19.2374 16.1853 19.1824 16.2071 19.1331 16.2388C19.0838 16.2706 19.0411 16.3117 19.0075 16.3599C18.9738 16.4081 18.9499 16.4624 18.937 16.5196C18.9242 16.5768 18.9227 16.6358 18.9326 16.6933C18.9864 17.0886 19.056 17.4815 19.1256 17.8744L19.1256 17.8745L19.1256 17.8745L19.1548 18.0401C19.1607 18.0732 19.1681 18.1061 19.1764 18.1388L19.9134 17.7844L19.916 17.8024L20.0271 17.7491ZM17.3865 19.0084L17.37 18.6625L17.3699 18.6613C17.3465 18.1708 17.3235 17.6897 17.2997 17.2088C17.2984 17.1229 17.2899 17.0374 17.2742 16.9532C17.2557 16.8462 17.1982 16.7504 17.1128 16.6845C17.0274 16.6187 16.9202 16.5875 16.8121 16.597C16.7036 16.6015 16.6004 16.6476 16.5235 16.7257C16.4467 16.8038 16.4021 16.9081 16.3988 17.0171C16.3895 17.1982 16.3991 17.3799 16.4086 17.5615L16.4086 17.5616L16.4086 17.5616L16.4086 17.5617C16.4112 17.6121 16.4139 17.6624 16.4161 17.7128C16.437 18.1792 16.459 18.6455 16.4812 19.1153L16.4957 19.4246L17.349 19.0141L17.3493 19.0261L17.3865 19.0084ZM14.9386 20.1731L14.8016 18.1444C14.7975 18.0825 14.794 18.0206 14.7905 17.9588L14.7905 17.9588L14.7905 17.9588C14.7824 17.815 14.7742 17.6713 14.7587 17.5268C14.7276 17.2105 14.5372 17.0221 14.2766 17.0402C14.0055 17.059 13.8342 17.2838 13.8553 17.6159L13.8553 17.616C13.9172 18.5854 13.9791 19.5547 14.0556 20.523C14.0576 20.5495 14.0583 20.5739 14.0576 20.5966L14.9386 20.1731ZM13.2106 21.0039C13.1042 20.9643 12.9981 20.8944 12.8871 20.7966C12.4184 20.3751 11.9187 19.9895 11.3921 19.6433C10.4691 19.0478 9.45571 18.9952 8.41066 19.3398C8.17638 19.4171 7.94193 19.4941 7.70641 19.5714L7.7062 19.5715L7.70527 19.5718C7.49418 19.6411 7.28224 19.7107 7.0688 19.7811L7.41977 20.6789C7.64752 20.6115 7.87253 20.5412 8.09602 20.4714L8.09609 20.4714C8.62442 20.3064 9.1443 20.1441 9.67202 20.0277C10.2348 19.9035 10.7778 20.0723 11.2368 20.4045C11.5336 20.6186 11.8195 20.848 12.1178 21.0871L12.1178 21.0871L12.118 21.0873C12.2329 21.1795 12.3497 21.2731 12.4697 21.368L12.5475 21.3307L12.5408 21.3259L13.2106 21.0039ZM7.49427 18.3641L7.49432 18.3641L7.49437 18.3641C8.42856 17.9489 9.36271 17.5337 10.2999 17.127L10.3855 17.0899C10.4396 17.0664 10.4892 17.0409 10.5345 17.013L9.94213 16.2554L6.37771 18.0136L6.65972 18.7348C6.93796 18.6114 7.21612 18.4878 7.49427 18.3641ZM12.6933 11.8225C12.8305 11.9362 12.9487 12.0955 12.9507 12.1997C12.9553 12.4576 12.9592 12.7157 12.963 12.9738C12.9677 13.2835 12.9723 13.5931 12.9783 13.9026C12.9836 14.1662 13.0777 14.2591 13.2413 14.2864C13.2085 14.2019 13.1941 14.0914 13.1931 13.9503C13.1915 13.6523 13.191 13.3541 13.1906 13.0559C13.1903 12.8073 13.1899 12.5588 13.1888 12.3104C13.188 12.1437 12.8831 11.8348 12.6933 11.8225Z" fill="#393939"/>
<path fill-rule="evenodd" clip-rule="evenodd" d="M38.0984 6.53782C37.8378 6.08635 37.1861 6.08635 36.9255 6.53782L32.166 14.7816C31.9053 15.233 32.2311 15.7974 32.7524 15.7974H35.5602V28.5148C35.5602 29.2629 36.1666 29.8693 36.9146 29.8693H38.1202C38.8682 29.8693 39.4746 29.2629 39.4746 28.5148V15.7974H42.2715C42.7928 15.7974 43.1186 15.233 42.858 14.7816L38.0984 6.53782Z" fill="#393939"/>
<path fill-rule="evenodd" clip-rule="evenodd" d="M29.1361 18.28C28.8754 17.8285 28.2238 17.8285 27.9631 18.28L25.6581 22.2724C25.3975 22.7238 25.7233 23.2882 26.2446 23.2882H27.4477V29.3915C27.4477 29.7655 27.7509 30.0687 28.1249 30.0687H29.0653C29.4393 30.0687 29.7425 29.7655 29.7425 29.3915V23.2882H30.8546C31.3759 23.2882 31.7017 22.7238 31.4411 22.2724L29.1361 18.28Z" fill="#393939"/>
<path fill-rule="evenodd" clip-rule="evenodd" d="M21.6478 22.195C21.3872 21.7436 20.7355 21.7436 20.4749 22.195L18.1699 26.1874C17.9092 26.6389 18.235 27.2032 18.7563 27.2032H19.9789V29.3081C19.9789 29.6822 20.2821 29.9854 20.6561 29.9854H21.2589C21.633 29.9854 21.9362 29.6822 21.9362 29.3081V27.2032H23.3663C23.8876 27.2032 24.2135 26.6389 23.9528 26.1874L21.6478 22.195Z" fill="#393939"/>
</svg>
