<svg width="47" height="34" viewBox="0 0 47 34" fill="none" xmlns="http://www.w3.org/2000/svg">
<path fill-rule="evenodd" clip-rule="evenodd" d="M46.9137 23.8387C46.4547 21.6994 44.7574 20.1552 42.4818 19.939C40.5641 19.7563 38.6404 19.6361 36.717 19.5159C36.3828 19.495 36.0486 19.4741 35.7145 19.4529C35.3886 19.4327 35.2353 19.2965 35.0838 19.0539C32.9915 15.7006 30.8921 12.3519 28.7857 9.008C28.4921 8.5676 28.3413 8.0538 28.3524 7.53144C28.3762 5.77363 26.9754 4.86748 25.2588 5.49589C23.2766 6.22304 21.2966 6.95312 19.3187 7.68613C19.2288 7.71913 19.1356 7.7474 19.0222 7.78178L19.0221 7.78182L19.022 7.78187C18.9663 7.79874 18.9059 7.81708 18.8386 7.83818C18.8858 7.6833 18.9304 7.53607 18.9734 7.39406L18.9741 7.39204L18.9743 7.39117C19.0631 7.09829 19.1451 6.82756 19.2296 6.55761C19.7657 4.84023 19.1911 3.51484 17.5332 2.65615C15.9861 1.85927 14.4387 1.06386 12.891 0.269918C12.0337 -0.169536 11.7656 -0.10186 11.2479 0.691793L4.11434 11.6377C4.04526 11.7436 3.97293 11.848 3.90168 11.9508C3.86593 12.0024 3.83046 12.0536 3.7958 12.1044C2.94393 11.8548 2.73371 11.94 2.31695 12.6915C1.54402 14.0849 0.771706 15.4791 0 16.8742V17.3137C0.104636 17.3916 0.206604 17.4742 0.308583 17.5568L0.308596 17.5568L0.308612 17.5568L0.308635 17.5568C0.528716 17.7351 0.748855 17.9134 0.995996 18.0449C10.4401 23.0652 19.8893 28.0791 29.3438 33.0865C29.6146 33.2307 29.9414 33.3502 30.2425 33.3546C34.1738 33.3733 38.1058 33.3763 42.0384 33.3634C43.6494 33.359 44.9658 32.7481 45.9755 31.5326C46.5318 30.8629 46.8072 30.0824 47 29.2659V24.0812C46.9654 24.0024 46.9366 23.9213 46.9137 23.8387ZM33.6142 19.7157C32.7359 20.071 32.7329 20.0673 32.2175 19.4307L32.2106 19.4222C30.0956 16.7854 27.9797 14.1505 25.8629 11.5173C25.7704 11.4023 25.6795 11.2859 25.58 11.1586L25.4589 11.004L27.3151 9.66718L33.6142 19.7157ZM42.7608 31.7356C42.4441 31.7859 42.1235 31.8103 41.8025 31.8086C38.1006 31.8139 34.3981 31.8124 30.695 31.8042C30.4246 31.8039 30.1582 31.7412 29.9184 31.6214C20.7063 26.7417 11.4985 21.8553 2.29492 16.9621C2.21379 16.9191 2.13479 16.8736 2.04435 16.8216L2.04432 16.8216L2.04425 16.8215C2.00169 16.797 1.95659 16.7711 1.90754 16.7433L3.53326 13.8165C3.61411 13.8602 3.68792 13.8979 3.75784 13.9335L3.75785 13.9335L3.75788 13.9336L3.75799 13.9336C3.82854 13.9696 3.89513 14.0036 3.96104 14.0397C12.6365 18.8192 21.3149 23.5946 29.9965 28.3659C30.3923 28.5762 30.8363 28.6894 31.289 28.6955C34.8092 28.7134 38.3294 28.7119 41.8496 28.7104C42.8274 28.71 43.8053 28.7096 44.7831 28.7096H45.3146C45.4468 30.0912 44.2553 31.486 42.7608 31.7356ZM26.6463 23.1888L25.6451 24.1979L25.4525 24.0918L25.4764 24.0689L24.1696 23.3512C24.2092 23.3043 24.2501 23.2585 24.2931 23.2148L24.507 22.9965C25.0149 22.4783 25.5226 21.9602 26.0507 21.4628C26.1252 21.3874 26.2142 21.3272 26.3124 21.2857C26.4106 21.2443 26.5162 21.2224 26.623 21.2213C26.7299 21.2201 26.8359 21.2398 26.935 21.2792C27.0341 21.3186 27.1243 21.3769 27.2004 21.4507C27.5233 21.7594 27.5459 22.203 27.2325 22.5834C27.104 22.7396 26.9582 22.8821 26.8123 23.0248C26.7567 23.0792 26.701 23.1336 26.6463 23.1888ZM21.4871 21.2312L20.9916 21.6221L20.9297 21.5878L20.9471 21.5746L19.4345 20.744L19.8767 20.3956L19.8794 20.3934L19.8823 20.3912C20.5521 19.8633 21.2169 19.3395 21.8831 18.8171C21.9552 18.7606 22.0268 18.7035 22.0985 18.6465L22.0987 18.6463L22.0988 18.6462L22.0989 18.6462C22.3575 18.4401 22.6163 18.234 22.8941 18.0564C23.0589 17.946 23.2602 17.9018 23.457 17.9329C23.6537 17.9641 23.8309 18.0681 23.9523 18.2238C24.0806 18.3737 24.1477 18.5652 24.1406 18.7612C24.1334 18.9572 24.0525 19.1435 23.9136 19.2839C23.8056 19.3961 23.6881 19.4991 23.5624 19.5917C22.8764 20.1349 22.1893 20.677 21.4887 21.2299L21.4871 21.2312ZM19.5383 16.8847L16.6816 19.2313L15.1241 18.3754C15.1585 18.3525 15.1939 18.3256 15.231 18.2945C16.5826 17.1582 17.9512 16.0424 19.3197 14.9266L19.3201 14.9264L19.3203 14.9262C19.7894 14.544 20.3029 14.5598 20.6173 14.9411C20.9193 15.3075 20.8419 15.7883 20.4068 16.1686C20.2094 16.3442 20.0055 16.508 19.8013 16.6721C19.7135 16.7426 19.6257 16.8131 19.5383 16.8847ZM13.5914 16.8549C13.5641 17.1227 13.5728 17.3536 13.6267 17.5528L12.4458 16.9041V16.919L12.2946 16.8357C12.3082 16.5577 12.3233 16.2856 12.3383 16.0178C12.3769 15.3238 12.414 14.6584 12.4172 13.9931C12.4236 12.963 12.0995 11.9813 11.3211 11.2799C10.5913 10.6221 9.80169 10.0245 8.99928 9.41725C8.66404 9.16352 8.32655 8.9081 7.99024 8.64588L8.94862 7.17635C9.27762 7.41726 9.6039 7.65679 9.92887 7.89535C10.2923 8.16218 10.6541 8.42779 11.0163 8.69278C12.6304 9.87474 13.6235 11.4296 13.7179 13.4243C13.7621 14.5694 13.7198 15.7161 13.5914 16.8549ZM11.4915 6.30616C11.0157 6.02594 10.54 5.74571 10.0645 5.46514L10.8324 4.28743L17.2008 7.70303L16.7066 9.37751C16.6163 9.33971 16.525 9.29285 16.4318 9.23679L16.2864 9.14938C14.6944 8.19271 13.093 7.24945 11.4915 6.30616ZM26.3773 7.8642C26.5299 7.7509 26.6409 7.40589 26.6636 7.08194L26.6661 7.08584C26.8497 7.37851 26.7147 8.1581 26.4687 8.33564C26.1023 8.59975 25.7349 8.86296 25.3676 9.12617C24.9269 9.44192 24.4862 9.75767 24.0471 10.075C23.8383 10.2263 23.6896 10.365 23.5994 10.5036C23.4644 10.2309 23.5009 9.99247 23.8872 9.70456C24.3382 9.36913 24.7909 9.03537 25.2437 8.70161L25.2439 8.70145L25.2445 8.70097L25.2452 8.70048C25.6229 8.42204 26.0006 8.1436 26.3773 7.8642ZM0 23.026C0.267129 22.6103 0.657266 22.4811 1.16031 22.4907C1.84928 22.5049 2.53824 22.5027 3.22721 22.5005C3.7316 22.4989 4.236 22.4973 4.74039 22.5022C5.43254 22.5092 5.84195 23.0295 5.59686 23.5727C5.44631 23.911 5.1443 24.049 4.78904 24.0517C3.4892 24.0613 2.18844 24.0587 0.888594 24.0517C0.458984 24.049 0.177168 23.8232 0 23.4654V23.026ZM1.15756 27.1485C0.65543 27.1458 0.263457 27.2627 0 27.6846V28.1241C0.213887 28.596 0.618711 28.7164 1.11717 28.7164C4.41757 28.7129 7.71797 28.7112 11.0184 28.7112C11.1861 28.7126 11.3536 28.6967 11.5178 28.6637C11.9125 28.582 12.119 28.3306 12.131 27.95C12.1438 27.5396 11.9125 27.2891 11.5141 27.188C11.3494 27.1574 11.1812 27.1471 11.0138 27.1573C10.037 27.1567 9.06016 27.1571 8.08334 27.1574C5.77475 27.1582 3.46615 27.159 1.15756 27.1485ZM1.15756 31.8037C0.654512 31.8028 0.261621 31.9162 0 32.3416V32.7811C0.224902 33.2759 0.658184 33.3699 1.16674 33.3699C7.40464 33.3664 13.6447 33.3647 19.8869 33.3647C20.0698 33.3668 20.2525 33.3512 20.4321 33.3181C20.8296 33.2372 21.0334 32.9814 21.0435 32.6018C21.0545 32.1922 20.8278 31.9382 20.4248 31.8406C20.2595 31.8124 20.0913 31.8027 19.9236 31.8116C13.6679 31.8175 7.4126 31.8148 1.15756 31.8037Z" fill="url(#paint0_linear_1543_40052)"/>
<defs>
<linearGradient id="paint0_linear_1543_40052" x1="23.5" y1="0" x2="23.5" y2="33.3713" gradientUnits="userSpaceOnUse">
<stop stop-color="#FF7C06"/>
<stop offset="1" stop-color="#E45C00"/>
</linearGradient>
</defs>
</svg>
