<svg width="33" height="24" viewBox="0 0 33 24" fill="none" xmlns="http://www.w3.org/2000/svg">
<path fill-rule="evenodd" clip-rule="evenodd" d="M32.1882 16.6964C31.8774 15.2477 30.7279 14.2019 29.1869 14.0555C27.8883 13.9318 26.5856 13.8504 25.2831 13.769L25.283 13.769C25.0567 13.7549 24.8303 13.7407 24.604 13.7264C24.3833 13.7127 24.2795 13.6204 24.177 13.4561C22.76 11.1853 21.3383 8.91755 19.9118 6.65301C19.713 6.35476 19.6109 6.00682 19.6184 5.65307C19.6345 4.46267 18.6859 3.84902 17.5234 4.27459C16.181 4.76702 14.8401 5.26143 13.5007 5.75783C13.4398 5.78018 13.3767 5.79932 13.2999 5.8226C13.2622 5.83404 13.2212 5.84648 13.1755 5.8608C13.2078 5.75517 13.2382 5.6548 13.2675 5.558L13.2676 5.5578C13.3276 5.35957 13.3832 5.17631 13.4404 4.99359C13.8034 3.83057 13.4143 2.933 12.2916 2.35149C11.2439 1.81184 10.196 1.27319 9.14785 0.735524C8.56723 0.437924 8.38571 0.483754 8.03509 1.02122L3.20422 8.43385C3.15745 8.50557 3.10848 8.57624 3.06024 8.64585L3.06021 8.6459L3.06019 8.64592C3.03599 8.68085 3.01197 8.71551 2.98851 8.7499C2.41161 8.58086 2.26925 8.6386 1.98702 9.14749C1.46359 10.0911 0.940572 11.0353 0.417969 11.9801V12.2777C0.488838 12.3304 0.557898 12.3864 0.626968 12.4423L0.626973 12.4423L0.62698 12.4423L0.626986 12.4423C0.776024 12.563 0.925101 12.6838 1.09246 12.7729C7.48804 16.1726 13.8871 19.5681 20.2898 22.9591C20.4731 23.0567 20.6945 23.1377 20.8984 23.1407C23.5607 23.1534 26.2234 23.1553 28.8866 23.1466C29.9776 23.1436 30.8691 22.73 31.5529 21.9068C31.9296 21.4533 32.1161 20.9247 32.2466 20.3718V16.8607C32.2232 16.8073 32.2037 16.7524 32.1882 16.6964ZM23.1817 13.9043C22.5869 14.1449 22.5849 14.1424 22.2358 13.7113L22.2312 13.7055C20.7989 11.9199 19.366 10.1355 17.9324 8.3523C17.8699 8.27441 17.8082 8.19559 17.7409 8.10943L17.6589 8.00471L18.9159 7.09941L23.1817 13.9043ZM29.3758 22.0443C29.1614 22.0783 28.9442 22.0948 28.7268 22.0937C26.2199 22.0973 23.7126 22.0963 21.2048 22.0907C21.0217 22.0905 20.8413 22.048 20.6789 21.9669C14.4404 18.6624 8.2048 15.3533 1.9721 12.0396C1.91716 12.0104 1.86365 11.9796 1.8024 11.9444C1.77356 11.9278 1.743 11.9102 1.70977 11.8914L2.81071 9.90935C2.86547 9.93897 2.91545 9.96446 2.9628 9.98861C3.01061 10.013 3.05574 10.036 3.10041 10.0605C8.97545 13.2972 14.8526 16.5312 20.7318 19.7623C20.9998 19.9047 21.3005 19.9814 21.607 19.9855C23.991 19.9976 26.3749 19.9966 28.7589 19.9956C29.421 19.9953 30.0832 19.995 30.7454 19.995H31.1053C31.1948 20.9307 30.3879 21.8753 29.3758 22.0443ZM18.4636 16.256L17.7852 16.9398L17.6546 16.8678L17.6707 16.8524L16.786 16.3664C16.8129 16.3345 16.8407 16.3033 16.8699 16.2736L17.0148 16.1258L17.0149 16.1258C17.3588 15.7749 17.7026 15.424 18.0602 15.0871C18.1107 15.0361 18.1709 14.9953 18.2375 14.9672C18.304 14.9392 18.3755 14.9243 18.4478 14.9236C18.5202 14.9228 18.592 14.9361 18.6591 14.9628C18.7262 14.9895 18.7873 15.0289 18.8389 15.0789C19.0575 15.288 19.0728 15.5884 18.8606 15.846C18.7736 15.9518 18.6748 16.0483 18.576 16.145C18.5383 16.1818 18.5006 16.2186 18.4636 16.256ZM14.9693 14.9306L14.6337 15.1954L14.5917 15.1721L14.6035 15.1632L13.5792 14.6008L13.8793 14.3643C14.3341 14.0059 14.7855 13.6502 15.2379 13.2954C15.2868 13.2572 15.3353 13.2185 15.3839 13.1798L15.3839 13.1798L15.384 13.1798L15.384 13.1797L15.384 13.1797C15.5592 13.0402 15.7344 12.9006 15.9226 12.7803C16.0341 12.7055 16.1705 12.6756 16.3037 12.6967C16.437 12.7178 16.557 12.7882 16.6392 12.8937C16.7261 12.9952 16.7715 13.1249 16.7667 13.2576C16.7619 13.3903 16.7071 13.5165 16.613 13.6116C16.5398 13.6876 16.4603 13.7573 16.3752 13.82C15.9101 14.1883 15.4443 14.5558 14.9693 14.9306ZM13.65 11.9868L11.715 13.5764L10.6602 12.9967C10.6836 12.9811 10.7078 12.9628 10.7331 12.9415C11.6485 12.1719 12.5754 11.4162 13.5024 10.6605C13.8201 10.4017 14.1678 10.4124 14.3807 10.6706C14.5853 10.9187 14.5328 11.2443 14.2381 11.5019C14.1044 11.6208 13.9664 11.7317 13.8281 11.8428L13.828 11.8429C13.7686 11.8906 13.7092 11.9384 13.65 11.9868ZM9.62272 11.9666C9.60418 12.1483 9.61016 12.305 9.64687 12.4401L8.84635 12.0003V12.0104L8.74422 11.9541C8.75338 11.766 8.76364 11.5819 8.77374 11.4006L8.77376 11.4002C8.79995 10.9302 8.82506 10.4796 8.8272 10.029C8.83155 9.33139 8.6121 8.66655 8.08494 8.19158C7.59069 7.74615 7.05599 7.34146 6.51261 6.93021L6.5126 6.9302C6.2855 6.75832 6.05689 6.5853 5.82908 6.40767L6.47836 5.41209C6.70129 5.57533 6.92238 5.73763 7.14257 5.89928C7.38866 6.07994 7.63364 6.25979 7.87883 6.4392C8.97196 7.23963 9.64445 8.2926 9.70838 9.64345C9.73832 10.4189 9.70968 11.1954 9.62272 11.9666ZM8.20054 4.82291C7.87831 4.63311 7.55608 4.44331 7.23401 4.25327L7.75369 3.45624L12.0664 5.76931L11.7319 6.90273C11.6709 6.87716 11.6093 6.84549 11.5462 6.80762L11.4478 6.74842C10.3696 6.10053 9.28512 5.46173 8.20054 4.82291ZM18.2814 5.87808C18.3846 5.80149 18.4597 5.56851 18.4752 5.34946L18.4764 5.3513C18.6007 5.54951 18.5093 6.07745 18.3427 6.19768C18.0946 6.37651 17.8459 6.55472 17.5972 6.73293L17.597 6.73309C17.2985 6.9469 17.0001 7.16071 16.7028 7.37558C16.5617 7.47779 16.4611 7.57153 16.4 7.66515C16.3088 7.48063 16.3336 7.31925 16.5951 7.12439C16.9009 6.89698 17.2078 6.6707 17.5148 6.44442C17.7705 6.25586 18.0263 6.0673 18.2814 5.87808ZM0.417969 16.146C0.59887 15.8645 0.863073 15.777 1.20374 15.7835C1.6703 15.7932 2.13685 15.7917 2.60341 15.7902C2.945 15.7891 3.2866 15.788 3.62819 15.7913C4.09692 15.796 4.37417 16.1484 4.20819 16.5162C4.10624 16.7454 3.90172 16.8388 3.66114 16.8406C2.78087 16.8472 1.89999 16.8454 1.01973 16.8406C0.728796 16.8388 0.537948 16.6859 0.417969 16.4436V16.146ZM1.20187 18.9375C0.86183 18.9357 0.596383 19.0148 0.417969 19.3005V19.5981C0.562814 19.9178 0.836963 19.9993 1.17452 19.9993C3.40957 19.9969 5.64463 19.9957 7.87968 19.9957C7.99328 19.9967 8.10667 19.9859 8.21786 19.9636C8.48517 19.9082 8.62504 19.738 8.63312 19.4803C8.64183 19.2023 8.48517 19.0327 8.21537 18.9642C8.10383 18.9435 7.98997 18.9365 7.87657 18.9434C7.21517 18.9431 6.55377 18.9433 5.89237 18.9435C4.32887 18.944 2.76537 18.9446 1.20187 18.9375ZM1.20187 22.09C0.861208 22.0894 0.59514 22.1662 0.417969 22.4543V22.7519C0.570274 23.087 0.863695 23.1507 1.20809 23.1507C5.43244 23.1483 9.65823 23.1471 13.8855 23.1471C14.0094 23.1486 14.1331 23.138 14.2547 23.1155C14.5239 23.0608 14.6619 22.8876 14.6688 22.6305C14.6762 22.3531 14.5227 22.1811 14.2498 22.115C14.1378 22.0959 14.0239 22.0893 13.9103 22.0954C9.67398 22.0993 5.43782 22.0976 1.20187 22.09Z" fill="#393939"/>
</svg>
