<svg width="88" height="28" viewBox="0 0 88 28" fill="none" xmlns="http://www.w3.org/2000/svg">
<mask id="path-1-outside-1_3535_1913" maskUnits="userSpaceOnUse" x="0" y="0.198242" width="88" height="28" fill="black">
<rect fill="white" y="0.198242" width="88" height="28"/>
<path fill-rule="evenodd" clip-rule="evenodd" d="M82.8283 2.19824H5.16797V3.7832H3.58594V5.36816H2V22.8021H3.58594V24.387H5.16797V25.9718H82.8283V24.387H84.4161V22.8021H86V5.36816H84.4161V3.7832H82.8283V2.19824Z"/>
</mask>
<path fill-rule="evenodd" clip-rule="evenodd" d="M82.8283 2.19824H5.16797V3.7832H3.58594V5.36816H2V22.8021H3.58594V24.387H5.16797V25.9718H82.8283V24.387H84.4161V22.8021H86V5.36816H84.4161V3.7832H82.8283V2.19824Z" fill="#9F9F9F"/>
<path d="M5.16797 2.19824V0.198242H3.16797V2.19824H5.16797ZM82.8283 2.19824H84.8283V0.198242H82.8283V2.19824ZM5.16797 3.7832V5.7832H7.16797V3.7832H5.16797ZM3.58594 3.7832V1.7832H1.58594V3.7832H3.58594ZM3.58594 5.36816V7.36816H5.58594V5.36816H3.58594ZM2 5.36816V3.36816H0V5.36816H2ZM2 22.8021H0V24.8021H2V22.8021ZM3.58594 22.8021H5.58594V20.8021H3.58594V22.8021ZM3.58594 24.387H1.58594V26.387H3.58594V24.387ZM5.16797 24.387H7.16797V22.387H5.16797V24.387ZM5.16797 25.9718H3.16797V27.9718H5.16797V25.9718ZM82.8283 25.9718V27.9718H84.8283V25.9718H82.8283ZM82.8283 24.387V22.387H80.8283V24.387H82.8283ZM84.4161 24.387V26.387H86.4161V24.387H84.4161ZM84.4161 22.8021V20.8021H82.4161V22.8021H84.4161ZM86 22.8021V24.8021H88V22.8021H86ZM86 5.36816H88V3.36816H86V5.36816ZM84.4161 5.36816H82.4161V7.36816H84.4161V5.36816ZM84.4161 3.7832H86.4161V1.7832H84.4161V3.7832ZM82.8283 3.7832H80.8283V5.7832H82.8283V3.7832ZM5.16797 4.19824H82.8283V0.198242H5.16797V4.19824ZM7.16797 3.7832V2.19824H3.16797V3.7832H7.16797ZM5.16797 1.7832H3.58594V5.7832H5.16797V1.7832ZM1.58594 3.7832V5.36816H5.58594V3.7832H1.58594ZM3.58594 3.36816H2V7.36816H3.58594V3.36816ZM0 5.36816V22.8021H4V5.36816H0ZM2 24.8021H3.58594V20.8021H2V24.8021ZM1.58594 22.8021V24.387H5.58594V22.8021H1.58594ZM3.58594 26.387H5.16797V22.387H3.58594V26.387ZM7.16797 25.9718V24.387H3.16797V25.9718H7.16797ZM82.8283 23.9718H5.16797V27.9718H82.8283V23.9718ZM80.8283 24.387V25.9718H84.8283V24.387H80.8283ZM82.8283 26.387H84.4161V22.387H82.8283V26.387ZM86.4161 24.387V22.8021H82.4161V24.387H86.4161ZM84.4161 24.8021H86V20.8021H84.4161V24.8021ZM88 22.8021V5.36816H84V22.8021H88ZM86 3.36816H84.4161V7.36816H86V3.36816ZM86.4161 5.36816V3.7832H82.4161V5.36816H86.4161ZM84.4161 1.7832H82.8283V5.7832H84.4161V1.7832ZM80.8283 2.19824V3.7832H84.8283V2.19824H80.8283Z" fill="#757575" mask="url(#path-1-outside-1_3535_1913)"/>
</svg>
