<svg width="88" height="28" viewBox="0 0 88 28" fill="none" xmlns="http://www.w3.org/2000/svg">
<mask id="path-1-outside-1_3093_77287" maskUnits="userSpaceOnUse" x="0" y="0" width="88" height="28" fill="black">
<rect fill="white" width="88" height="28"/>
<path fill-rule="evenodd" clip-rule="evenodd" d="M82.8302 2H5.16981V3.58491H3.58491V5.16981H2V22.6038H3.58491V24.1887H5.16981V25.7736H82.8302V24.1887H84.4151V22.6038H86V5.16981H84.4151V3.58491H82.8302V2Z"/>
</mask>
<path fill-rule="evenodd" clip-rule="evenodd" d="M82.8302 2H5.16981V3.58491H3.58491V5.16981H2V22.6038H3.58491V24.1887H5.16981V25.7736H82.8302V24.1887H84.4151V22.6038H86V5.16981H84.4151V3.58491H82.8302V2Z" fill="#24B500"/>
<path d="M5.16981 2V0H3.16981V2H5.16981ZM82.8302 2H84.8302V0H82.8302V2ZM5.16981 3.58491V5.58491H7.16981V3.58491H5.16981ZM3.58491 3.58491V1.58491H1.58491V3.58491H3.58491ZM3.58491 5.16981V7.16981H5.58491V5.16981H3.58491ZM2 5.16981V3.16981H0V5.16981H2ZM2 22.6038H0V24.6038H2V22.6038ZM3.58491 22.6038H5.58491V20.6038H3.58491V22.6038ZM3.58491 24.1887H1.58491V26.1887H3.58491V24.1887ZM5.16981 24.1887H7.16981V22.1887H5.16981V24.1887ZM5.16981 25.7736H3.16981V27.7736H5.16981V25.7736ZM82.8302 25.7736V27.7736H84.8302V25.7736H82.8302ZM82.8302 24.1887V22.1887H80.8302V24.1887H82.8302ZM84.4151 24.1887V26.1887H86.4151V24.1887H84.4151ZM84.4151 22.6038V20.6038H82.4151V22.6038H84.4151ZM86 22.6038V24.6038H88V22.6038H86ZM86 5.16981H88V3.16981H86V5.16981ZM84.4151 5.16981H82.4151V7.16981H84.4151V5.16981ZM84.4151 3.58491H86.4151V1.58491H84.4151V3.58491ZM82.8302 3.58491H80.8302V5.58491H82.8302V3.58491ZM5.16981 4H82.8302V0H5.16981V4ZM7.16981 3.58491V2H3.16981V3.58491H7.16981ZM5.16981 1.58491H3.58491V5.58491H5.16981V1.58491ZM1.58491 3.58491V5.16981H5.58491V3.58491H1.58491ZM3.58491 3.16981H2V7.16981H3.58491V3.16981ZM0 5.16981V22.6038H4V5.16981H0ZM2 24.6038H3.58491V20.6038H2V24.6038ZM1.58491 22.6038V24.1887H5.58491V22.6038H1.58491ZM3.58491 26.1887H5.16981V22.1887H3.58491V26.1887ZM7.16981 25.7736V24.1887H3.16981V25.7736H7.16981ZM82.8302 23.7736H5.16981V27.7736H82.8302V23.7736ZM80.8302 24.1887V25.7736H84.8302V24.1887H80.8302ZM82.8302 26.1887H84.4151V22.1887H82.8302V26.1887ZM86.4151 24.1887V22.6038H82.4151V24.1887H86.4151ZM84.4151 24.6038H86V20.6038H84.4151V24.6038ZM88 22.6038V5.16981H84V22.6038H88ZM86 3.16981H84.4151V7.16981H86V3.16981ZM86.4151 5.16981V3.58491H82.4151V5.16981H86.4151ZM84.4151 1.58491H82.8302V5.58491H84.4151V1.58491ZM80.8302 2V3.58491H84.8302V2H80.8302Z" fill="#1C8A00" mask="url(#path-1-outside-1_3093_77287)"/>
</svg>
