<svg width="107" height="29" viewBox="0 0 107 29" fill="none" xmlns="http://www.w3.org/2000/svg">
<rect x="1.28906" y="5.15527" width="1.28889" height="1.28889" fill="#393939"/>
<rect x="105.043" y="25.1338" width="1.28889" height="2.57778" transform="rotate(-180 105.043 25.1338)" fill="#393939"/>
<rect x="2.57812" y="22.5557" width="2.57778" height="1.28889" transform="rotate(90 2.57812 22.5557)" fill="#393939"/>
<rect x="6.44531" y="21.2666" width="1.28889" height="1.28889" transform="rotate(90 6.44531 21.2666)" fill="#EDFFEF"/>
<rect x="99.8906" y="22.5557" width="1.28889" height="93.4444" transform="rotate(90 99.8906 22.5557)" fill="#EDFFEF"/>
<rect x="103.754" y="6.44434" width="2.57778" height="1.28889" transform="rotate(-90 103.754 6.44434)" fill="#393939"/>
<rect x="1.28906" y="3.86621" width="1.28889" height="1.28889" fill="#393939"/>
<rect x="103.754" y="26.4219" width="1.28889" height="1.28889" transform="rotate(-180 103.754 26.4219)" fill="#393939"/>
<rect x="3.86719" y="25.1338" width="1.28889" height="1.28889" transform="rotate(90 3.86719 25.1338)" fill="#393939"/>
<rect x="2.57812" y="2.57812" width="1.28889" height="1.28889" fill="#393939"/>
<rect x="5.15625" y="26.4219" width="1.28889" height="1.28889" transform="rotate(90 5.15625 26.4219)" fill="#393939"/>
<rect x="102.465" y="3.86621" width="1.28889" height="1.28889" transform="rotate(-90 102.465 3.86621)" fill="#393939"/>
<rect x="3.86719" y="1.28906" width="2.57778" height="1.28889" fill="#393939"/>
<rect x="102.465" y="27.7109" width="2.57778" height="1.28889" transform="rotate(-180 102.465 27.7109)" fill="#393939"/>
<path fill-rule="evenodd" clip-rule="evenodd" d="M2.57795 22.5551H1.28906V18.6885H2.57795L2.57795 22.5551ZM2.5783 23.8442H2.57812L2.57813 19.9775L3.86701 19.9775V21.2666L5.15608 21.2666V22.5557L6.44514 22.5557L6.44514 26.4223H3.86736V25.1333H2.5783L2.5783 23.8442ZM6.44601 27.7114L99.8904 27.7114V23.8447L6.44601 23.8447L6.44601 27.7114ZM102.469 25.1333V26.4223H99.8908L99.8908 22.5557L101.18 22.5557V21.2666H102.465V19.9777L103.754 19.9777V25.1333H102.469ZM103.754 22.5551H105.043V18.6885H103.754V22.5551Z" fill="#1D8F00"/>
<rect x="6.44531" y="26.4219" width="1.28889" height="1.28889" transform="rotate(90 6.44531 26.4219)" fill="#393939"/>
<rect x="99.8906" y="2.57812" width="1.28889" height="2.57778" transform="rotate(-90 99.8906 2.57812)" fill="#393939"/>
<rect x="6.44531" width="93.4444" height="1.28889" fill="#393939"/>
<rect x="6.44531" y="27.7109" width="93.4444" height="1.28889" fill="#393939"/>
<rect y="6.44434" width="1.28889" height="16.1111" fill="#393939"/>
<rect x="106.332" y="22.5557" width="1.28889" height="16.1111" transform="rotate(-180 106.332 22.5557)" fill="#393939"/>
<path fill-rule="evenodd" clip-rule="evenodd" d="M99.8923 2.57795L6.44785 2.57794V1.28906L99.8923 1.28907V2.57795ZM5.15913 3.86701L101.181 3.86701V2.57813L5.15913 2.57812V3.86701ZM3.87041 3.86719L3.87041 5.15527H2.57778L2.57778 6.44415L102.396 6.44416L1.28906 6.44416V17.3997L105.045 17.3997V6.44416H103.756V5.15528H102.47V3.86719L3.87041 3.86719ZM2.57778 17.4002L2.57778 18.6891L103.756 18.6891V17.4002L2.57778 17.4002ZM2.57778 19.9782L2.57778 18.6893L103.756 18.6893V19.9782L2.57778 19.9782ZM3.87041 19.9784L3.87041 21.2672H6.44785V22.5553L99.8923 22.5553V21.2672H102.47V19.9783L3.87041 19.9784Z" fill="#24B500"/>
<rect x="99.8906" y="1.28906" width="1.28889" height="93.4444" transform="rotate(90 99.8906 1.28906)" fill="#EDFFEF"/>
<rect x="3.86719" y="3.86621" width="1.28889" height="1.28889" transform="rotate(90 3.86719 3.86621)" fill="#EDFFEF"/>
<rect x="2.57812" y="6.44434" width="2.57778" height="1.28889" transform="rotate(90 2.57812 6.44434)" fill="#EDFFEF"/>
<rect x="5.15625" y="2.57812" width="1.28889" height="1.28889" transform="rotate(90 5.15625 2.57812)" fill="#EDFFEF"/>
<rect x="6.44531" y="2.57812" width="1.28889" height="1.28889" transform="rotate(90 6.44531 2.57812)" fill="#EDFFEF"/>
<rect x="102.465" y="2.57812" width="1.28889" height="2.57778" transform="rotate(90 102.465 2.57812)" fill="#EDFFEF"/>
<rect x="103.754" y="3.86621" width="1.28889" height="1.28889" transform="rotate(90 103.754 3.86621)" fill="#EDFFEF"/>
<rect x="105.043" y="6.44434" width="2.57778" height="1.28889" transform="rotate(90 105.043 6.44434)" fill="#EDFFEF"/>
<rect width="3.86667" height="2.57778" transform="matrix(-1.31134e-07 -1 -1 1.31134e-07 23.8438 27.7109)" fill="#C9FFBC"/>
<rect width="3.86667" height="2.57778" transform="matrix(-1.31134e-07 -1 -1 1.31134e-07 87 27.7109)" fill="#C9FFBC"/>
<rect width="3.86667" height="1.93333" transform="matrix(-1.31134e-07 -1 -1 1.31134e-07 20.6211 27.7109)" fill="#C9FFBC"/>
<rect width="3.86667" height="1.93333" transform="matrix(-1.31134e-07 -1 -1 1.31134e-07 83.7773 27.7109)" fill="#C9FFBC"/>
<rect width="3.86667" height="1.28889" transform="matrix(-1.31134e-07 -1 -1 1.31134e-07 18.043 27.7109)" fill="#C9FFBC"/>
<rect width="3.86667" height="1.28889" transform="matrix(-1.31134e-07 -1 -1 1.31134e-07 81.1992 27.7109)" fill="#C9FFBC"/>
<rect width="3.86667" height="0.644444" transform="matrix(-1.31134e-07 -1 -1 1.31134e-07 16.1094 27.7109)" fill="#C9FFBC"/>
<rect width="3.86667" height="0.644444" transform="matrix(-1.31134e-07 -1 -1 1.31134e-07 79.2656 27.7109)" fill="#C9FFBC"/>
<rect x="2.57812" y="17.4004" width="2.57778" height="1.28889" transform="rotate(90 2.57812 17.4004)" fill="#EDFFEF"/>
<rect x="5.15625" y="21.2666" width="1.28889" height="1.28889" transform="rotate(90 5.15625 21.2666)" fill="#EDFFEF"/>
<rect x="3.86719" y="19.9775" width="1.28889" height="1.28889" transform="rotate(90 3.86719 19.9775)" fill="#EDFFEF"/>
<rect x="102.465" y="22.5557" width="2.57778" height="1.28889" transform="rotate(-180 102.465 22.5557)" fill="#EDFFEF"/>
<rect x="103.754" y="21.2666" width="1.28889" height="1.28889" transform="rotate(-180 103.754 21.2666)" fill="#EDFFEF"/>
<rect x="105.043" y="18.6885" width="1.28889" height="2.57778" transform="rotate(-180 105.043 18.6885)" fill="#EDFFEF"/>
<path d="M14.008 9.92V8.912V7.904H15.016H16.024H19.048H24.088V9.92H23.08H22.072H20.056V14.96V20H18.04V14.96V9.92H17.032H14.008ZM27.1174 9.92V8.912V7.904H28.1254H29.1334H32.1574H36.1894V8.912H37.1974V9.92H38.2054V11.936V12.944V13.952H37.1974V14.96H36.1894V15.968V16.976H37.1974V17.984H38.2054V18.992V20H36.1894V18.992H35.1814V17.984H34.1734V16.976H33.1654V15.968H32.1574H29.1334V20H27.1174V15.968V14.96V13.952V12.944V11.936V10.928V9.92ZM32.1574 9.92H30.1414H29.1334V12.944V13.952H30.1414H31.1494H32.1574H33.1654H34.1734H35.1814V12.944H36.1894V11.936V10.928H35.1814V9.92H34.1734H33.1654H32.1574ZM50.3068 8.912V9.92V10.928V11.936H49.2988V12.944H48.2908V13.952H47.2828V14.96H46.2748V15.968V20H44.2588V15.968V14.96H43.2508V13.952H42.2428V12.944H41.2348V11.936H40.2268V10.928V9.92V8.912V7.904H41.2348H42.2428V8.912V9.92V10.928H43.2508V11.936H44.2588V12.944H45.2668H46.2748V11.936H47.2828V10.928H48.2908V9.92V8.912V7.904H49.2988H50.3068V8.912ZM71.4855 9.92H70.4775H69.4695V10.928H68.4615V11.936V12.944V14.96V15.968V16.976H69.4695V17.984H70.4775H71.4855H72.4935H73.5015H74.5095V16.976H75.5175V15.968V14.96V11.936V10.928H74.5095V9.92H73.5015H72.4935H71.4855ZM77.5335 14.96V17.984H76.5255V18.992H75.5175V20H72.4935H71.4855H68.4615V18.992H67.4535V17.984H66.4455V15.968V14.96V13.952V12.944V9.92H67.4535V8.912H68.4615V7.904H70.4775H71.4855H72.4935H75.5175V8.912H76.5255V9.92H77.5335V11.936V14.96ZM88.6269 11.936V8.912V7.904H90.6429V8.912V9.92V17.984V20H88.6269V17.984H87.6189V16.976H86.6109V15.968H85.6029V14.96H84.5949V13.952H83.5869V12.944H82.5789V11.936H81.5709V14.96V20H80.5629H79.5549V18.992V17.984V16.976V14.96V13.952V12.944V11.936V10.928V9.92V8.912V7.904H80.5629H81.5709V8.912H82.5789V9.92H83.5869V10.928H84.5949V11.936H85.6029V12.944H86.6109V13.952H87.6189V14.96H88.6269V11.936Z" fill="#393939"/>
<path d="M14.008 7.92V6.912V5.904H15.016H16.024H19.048H24.088V7.92H23.08H22.072H20.056V12.96V18H18.04V12.96V7.92H17.032H14.008ZM27.1174 7.92V6.912V5.904H28.1254H29.1334H32.1574H36.1894V6.912H37.1974V7.92H38.2054V9.936V10.944V11.952H37.1974V12.96H36.1894V13.968V14.976H37.1974V15.984H38.2054V16.992V18H36.1894V16.992H35.1814V15.984H34.1734V14.976H33.1654V13.968H32.1574H29.1334V18H27.1174V13.968V12.96V11.952V10.944V9.936V8.928V7.92ZM32.1574 7.92H30.1414H29.1334V10.944V11.952H30.1414H31.1494H32.1574H33.1654H34.1734H35.1814V10.944H36.1894V9.936V8.928H35.1814V7.92H34.1734H33.1654H32.1574ZM50.3068 6.912V7.92V8.928V9.936H49.2988V10.944H48.2908V11.952H47.2828V12.96H46.2748V13.968V18H44.2588V13.968V12.96H43.2508V11.952H42.2428V10.944H41.2348V9.936H40.2268V8.928V7.92V6.912V5.904H41.2348H42.2428V6.912V7.92V8.928H43.2508V9.936H44.2588V10.944H45.2668H46.2748V9.936H47.2828V8.928H48.2908V7.92V6.912V5.904H49.2988H50.3068V6.912ZM71.4855 7.92H70.4775H69.4695V8.928H68.4615V9.936V10.944V12.96V13.968V14.976H69.4695V15.984H70.4775H71.4855H72.4935H73.5015H74.5095V14.976H75.5175V13.968V12.96V9.936V8.928H74.5095V7.92H73.5015H72.4935H71.4855ZM77.5335 12.96V15.984H76.5255V16.992H75.5175V18H72.4935H71.4855H68.4615V16.992H67.4535V15.984H66.4455V13.968V12.96V11.952V10.944V7.92H67.4535V6.912H68.4615V5.904H70.4775H71.4855H72.4935H75.5175V6.912H76.5255V7.92H77.5335V9.936V12.96ZM88.6269 9.936V6.912V5.904H90.6429V6.912V7.92V15.984V18H88.6269V15.984H87.6189V14.976H86.6109V13.968H85.6029V12.96H84.5949V11.952H83.5869V10.944H82.5789V9.936H81.5709V12.96V18H80.5629H79.5549V16.992V15.984V14.976V12.96V11.952V10.944V9.936V8.928V7.92V6.912V5.904H80.5629H81.5709V6.912H82.5789V7.92H83.5869V8.928H84.5949V9.936H85.6029V10.944H86.6109V11.952H87.6189V12.96H88.6269V9.936Z" fill="white"/>
</svg>
