<svg width="107" height="30" viewBox="0 0 107 30" fill="none" xmlns="http://www.w3.org/2000/svg">
<rect x="1.28906" y="5.35352" width="1.28889" height="1.28889" fill="#393939"/>
<rect x="105.043" y="25.332" width="1.28889" height="2.57778" transform="rotate(-180 105.043 25.332)" fill="#393939"/>
<rect x="2.57812" y="22.7539" width="2.57778" height="1.28889" transform="rotate(90 2.57812 22.7539)" fill="#393939"/>
<rect x="6.44531" y="21.4648" width="1.28889" height="1.28889" transform="rotate(90 6.44531 21.4648)" fill="#F5F5F5"/>
<rect x="99.8906" y="22.7539" width="1.28889" height="93.4444" transform="rotate(90 99.8906 22.7539)" fill="#F5F5F5"/>
<rect x="103.754" y="6.64258" width="2.57778" height="1.28889" transform="rotate(-90 103.754 6.64258)" fill="#393939"/>
<rect x="1.28906" y="4.06445" width="1.28889" height="1.28889" fill="#393939"/>
<rect x="103.754" y="26.6201" width="1.28889" height="1.28889" transform="rotate(-180 103.754 26.6201)" fill="#393939"/>
<rect x="3.86719" y="25.332" width="1.28889" height="1.28889" transform="rotate(90 3.86719 25.332)" fill="#393939"/>
<rect x="2.57812" y="2.77637" width="1.28889" height="1.28889" fill="#393939"/>
<rect x="5.15625" y="26.6201" width="1.28889" height="1.28889" transform="rotate(90 5.15625 26.6201)" fill="#393939"/>
<rect x="102.465" y="4.06445" width="1.28889" height="1.28889" transform="rotate(-90 102.465 4.06445)" fill="#393939"/>
<rect x="3.86719" y="1.4873" width="2.57778" height="1.28889" fill="#393939"/>
<rect x="102.465" y="27.9092" width="2.57778" height="1.28889" transform="rotate(-180 102.465 27.9092)" fill="#393939"/>
<path fill-rule="evenodd" clip-rule="evenodd" d="M2.57795 22.7529H1.28906V18.8862H2.57795L2.57795 22.7529ZM2.5783 24.042H2.57812L2.57813 20.1753L3.86701 20.1753V21.4644L5.15608 21.4644V22.7534L6.44514 22.7534L6.44514 26.6201H3.86736V25.331H2.5783L2.5783 24.042ZM6.44601 27.9091L99.8904 27.9091V24.0425L6.44601 24.0425L6.44601 27.9091ZM102.469 25.331V26.6201H99.8908L99.8908 22.7534L101.18 22.7534V21.4644H102.465V20.1755L103.754 20.1755V25.331H102.469ZM103.754 22.7529H105.043V18.8862H103.754V22.7529Z" fill="#616361"/>
<rect x="6.44531" y="26.6201" width="1.28889" height="1.28889" transform="rotate(90 6.44531 26.6201)" fill="#393939"/>
<rect x="99.8906" y="2.77637" width="1.28889" height="2.57778" transform="rotate(-90 99.8906 2.77637)" fill="#393939"/>
<rect x="6.44531" y="0.198242" width="93.4444" height="1.28889" fill="#393939"/>
<rect x="6.44531" y="27.9092" width="93.4444" height="1.28889" fill="#393939"/>
<rect y="6.64258" width="1.28889" height="16.1111" fill="#393939"/>
<rect x="106.332" y="22.7539" width="1.28889" height="16.1111" transform="rotate(-180 106.332 22.7539)" fill="#393939"/>
<path fill-rule="evenodd" clip-rule="evenodd" d="M99.8923 2.77619L6.44785 2.77619V1.4873L99.8923 1.48731V2.77619ZM5.15913 4.06525L101.181 4.06526V2.77638L5.15913 2.77637V4.06525ZM3.87041 4.06543L3.87041 5.35352H2.57778L2.57778 6.6424L102.396 6.6424L1.28906 6.6424V17.598L105.045 17.598V6.6424H103.756V5.35352H102.47V4.06544L3.87041 4.06543ZM2.57778 17.5985L2.57778 18.8873L103.756 18.8873V17.5985L2.57778 17.5985ZM2.57778 20.1764L2.57778 18.8875L103.756 18.8875V20.1764L2.57778 20.1764ZM3.87041 20.1766L3.87041 21.4655H6.44785V22.7536L99.8923 22.7535V21.4655H102.47V20.1766L3.87041 20.1766Z" fill="#9F9F9F"/>
<rect x="99.8906" y="1.4873" width="1.28889" height="93.4444" transform="rotate(90 99.8906 1.4873)" fill="#F5F5F5"/>
<rect x="3.86719" y="4.06445" width="1.28889" height="1.28889" transform="rotate(90 3.86719 4.06445)" fill="#F5F5F5"/>
<rect x="2.57812" y="6.64258" width="2.57778" height="1.28889" transform="rotate(90 2.57812 6.64258)" fill="#F5F5F5"/>
<rect x="5.15625" y="2.77637" width="1.28889" height="1.28889" transform="rotate(90 5.15625 2.77637)" fill="#F5F5F5"/>
<rect x="6.44531" y="2.77637" width="1.28889" height="1.28889" transform="rotate(90 6.44531 2.77637)" fill="#F5F5F5"/>
<rect x="102.465" y="2.77637" width="1.28889" height="2.57778" transform="rotate(90 102.465 2.77637)" fill="#F5F5F5"/>
<rect x="103.754" y="4.06445" width="1.28889" height="1.28889" transform="rotate(90 103.754 4.06445)" fill="#F5F5F5"/>
<rect x="105.043" y="6.64258" width="2.57778" height="1.28889" transform="rotate(90 105.043 6.64258)" fill="#F5F5F5"/>
<rect width="3.86667" height="2.57778" transform="matrix(-1.31134e-07 -1 -1 1.31134e-07 23.8438 27.9092)" fill="#D8D8D8"/>
<rect width="3.86667" height="2.57778" transform="matrix(-1.31134e-07 -1 -1 1.31134e-07 87 27.9092)" fill="#D8D8D8"/>
<rect width="3.86667" height="1.93333" transform="matrix(-1.31134e-07 -1 -1 1.31134e-07 20.6211 27.9092)" fill="#D8D8D8"/>
<rect width="3.86667" height="1.93333" transform="matrix(-1.31134e-07 -1 -1 1.31134e-07 83.7773 27.9092)" fill="#D8D8D8"/>
<rect width="3.86667" height="1.28889" transform="matrix(-1.31134e-07 -1 -1 1.31134e-07 18.043 27.9092)" fill="#D8D8D8"/>
<rect width="3.86667" height="1.28889" transform="matrix(-1.31134e-07 -1 -1 1.31134e-07 81.1992 27.9092)" fill="#D8D8D8"/>
<rect width="3.86667" height="0.644444" transform="matrix(-1.31134e-07 -1 -1 1.31134e-07 16.1094 27.9092)" fill="#D8D8D8"/>
<rect width="3.86667" height="0.644444" transform="matrix(-1.31134e-07 -1 -1 1.31134e-07 79.2656 27.9092)" fill="#D8D8D8"/>
<rect x="2.57812" y="17.5986" width="2.57778" height="1.28889" transform="rotate(90 2.57812 17.5986)" fill="#F5F5F5"/>
<rect x="5.15625" y="21.4648" width="1.28889" height="1.28889" transform="rotate(90 5.15625 21.4648)" fill="#F5F5F5"/>
<rect x="3.86719" y="20.1758" width="1.28889" height="1.28889" transform="rotate(90 3.86719 20.1758)" fill="#F5F5F5"/>
<rect x="102.465" y="22.7539" width="2.57778" height="1.28889" transform="rotate(-180 102.465 22.7539)" fill="#F5F5F5"/>
<rect x="103.754" y="21.4648" width="1.28889" height="1.28889" transform="rotate(-180 103.754 21.4648)" fill="#F5F5F5"/>
<rect x="105.043" y="18.8867" width="1.28889" height="2.57778" transform="rotate(-180 105.043 18.8867)" fill="#F5F5F5"/>
</svg>
